<?xml version="1.0" encoding="utf-8" standalone="no"?>
<!DOCTYPE svg PUBLIC "-//W3C//DTD SVG 1.1//EN"
  "http://www.w3.org/Graphics/SVG/1.1/DTD/svg11.dtd">
<!-- Created with matplotlib (https://matplotlib.org/) -->
<svg height="345.6pt" version="1.1" viewBox="0 0 460.8 345.6" width="460.8pt" xmlns="http://www.w3.org/2000/svg" xmlns:xlink="http://www.w3.org/1999/xlink">
 <metadata>
  <rdf:RDF xmlns:cc="http://creativecommons.org/ns#" xmlns:dc="http://purl.org/dc/elements/1.1/" xmlns:rdf="http://www.w3.org/1999/02/22-rdf-syntax-ns#">
   <cc:Work>
    <dc:type rdf:resource="http://purl.org/dc/dcmitype/StillImage"/>
    <dc:date>2021-08-04T15:01:57.169937</dc:date>
    <dc:format>image/svg+xml</dc:format>
    <dc:creator>
     <cc:Agent>
      <dc:title>Matplotlib v3.3.1, https://matplotlib.org/</dc:title>
     </cc:Agent>
    </dc:creator>
   </cc:Work>
  </rdf:RDF>
 </metadata>
 <defs>
  <style type="text/css">*{stroke-linecap:butt;stroke-linejoin:round;}</style>
 </defs>
 <g id="figure_1">
  <g id="patch_1">
   <path d="M 0 345.6 
L 460.8 345.6 
L 460.8 0 
L 0 0 
z
" style="fill:#ffffff;"/>
  </g>
  <g id="axes_1">
   <g id="patch_2">
    <path d="M 0 293.76 
L 460.8 293.76 
L 460.8 3.456 
L 0 3.456 
z
" style="fill:#ffffff;"/>
   </g>
   <g id="matplotlib.axis_1">
    <g id="xtick_1">
     <g id="line2d_1">
      <path clip-path="url(#pa7ded486bb)" d="M 106.364787 293.76 
L 106.364787 3.456 
" style="fill:none;stroke:#b0b0b0;stroke-linecap:square;stroke-width:0.8;"/>
     </g>
     <g id="line2d_2">
      <defs>
       <path d="M 0 0 
L 0 3.5 
" id="m46354df560" style="stroke:#000000;stroke-width:0.8;"/>
      </defs>
      <g>
       <use style="stroke:#000000;stroke-width:0.8;" x="106.364787" xlink:href="#m46354df560" y="293.76"/>
      </g>
     </g>
     <g id="text_1">
      <!-- -4 -->
      <g transform="translate(96.394475 315.956875)scale(0.2 -0.2)">
       <defs>
        <path d="M 4.890625 31.390625 
L 31.203125 31.390625 
L 31.203125 23.390625 
L 4.890625 23.390625 
z
" id="DejaVuSans-45"/>
        <path d="M 37.796875 64.3125 
L 12.890625 25.390625 
L 37.796875 25.390625 
z
M 35.203125 72.90625 
L 47.609375 72.90625 
L 47.609375 25.390625 
L 58.015625 25.390625 
L 58.015625 17.1875 
L 47.609375 17.1875 
L 47.609375 0 
L 37.796875 0 
L 37.796875 17.1875 
L 4.890625 17.1875 
L 4.890625 26.703125 
z
" id="DejaVuSans-52"/>
       </defs>
       <use xlink:href="#DejaVuSans-45"/>
       <use x="36.083984" xlink:href="#DejaVuSans-52"/>
      </g>
     </g>
    </g>
    <g id="xtick_2">
     <g id="line2d_3">
      <path clip-path="url(#pa7ded486bb)" d="M 212.84461 293.76 
L 212.84461 3.456 
" style="fill:none;stroke:#b0b0b0;stroke-linecap:square;stroke-width:0.8;"/>
     </g>
     <g id="line2d_4">
      <g>
       <use style="stroke:#000000;stroke-width:0.8;" x="212.84461" xlink:href="#m46354df560" y="293.76"/>
      </g>
     </g>
     <g id="text_2">
      <!-- 0 -->
      <g transform="translate(206.48211 315.956875)scale(0.2 -0.2)">
       <defs>
        <path d="M 31.78125 66.40625 
Q 24.171875 66.40625 20.328125 58.90625 
Q 16.5 51.421875 16.5 36.375 
Q 16.5 21.390625 20.328125 13.890625 
Q 24.171875 6.390625 31.78125 6.390625 
Q 39.453125 6.390625 43.28125 13.890625 
Q 47.125 21.390625 47.125 36.375 
Q 47.125 51.421875 43.28125 58.90625 
Q 39.453125 66.40625 31.78125 66.40625 
z
M 31.78125 74.21875 
Q 44.046875 74.21875 50.515625 64.515625 
Q 56.984375 54.828125 56.984375 36.375 
Q 56.984375 17.96875 50.515625 8.265625 
Q 44.046875 -1.421875 31.78125 -1.421875 
Q 19.53125 -1.421875 13.0625 8.265625 
Q 6.59375 17.96875 6.59375 36.375 
Q 6.59375 54.828125 13.0625 64.515625 
Q 19.53125 74.21875 31.78125 74.21875 
z
" id="DejaVuSans-48"/>
       </defs>
       <use xlink:href="#DejaVuSans-48"/>
      </g>
     </g>
    </g>
    <g id="xtick_3">
     <g id="line2d_5">
      <path clip-path="url(#pa7ded486bb)" d="M 319.324432 293.76 
L 319.324432 3.456 
" style="fill:none;stroke:#b0b0b0;stroke-linecap:square;stroke-width:0.8;"/>
     </g>
     <g id="line2d_6">
      <g>
       <use style="stroke:#000000;stroke-width:0.8;" x="319.324432" xlink:href="#m46354df560" y="293.76"/>
      </g>
     </g>
     <g id="text_3">
      <!-- 4 -->
      <g transform="translate(312.961932 315.956875)scale(0.2 -0.2)">
       <use xlink:href="#DejaVuSans-52"/>
      </g>
     </g>
    </g>
    <g id="xtick_4">
     <g id="line2d_7">
      <path clip-path="url(#pa7ded486bb)" d="M 425.804254 293.76 
L 425.804254 3.456 
" style="fill:none;stroke:#b0b0b0;stroke-linecap:square;stroke-width:0.8;"/>
     </g>
     <g id="line2d_8">
      <g>
       <use style="stroke:#000000;stroke-width:0.8;" x="425.804254" xlink:href="#m46354df560" y="293.76"/>
      </g>
     </g>
     <g id="text_4">
      <!-- 8 -->
      <g transform="translate(419.441754 315.956875)scale(0.2 -0.2)">
       <defs>
        <path d="M 31.78125 34.625 
Q 24.75 34.625 20.71875 30.859375 
Q 16.703125 27.09375 16.703125 20.515625 
Q 16.703125 13.921875 20.71875 10.15625 
Q 24.75 6.390625 31.78125 6.390625 
Q 38.8125 6.390625 42.859375 10.171875 
Q 46.921875 13.96875 46.921875 20.515625 
Q 46.921875 27.09375 42.890625 30.859375 
Q 38.875 34.625 31.78125 34.625 
z
M 21.921875 38.8125 
Q 15.578125 40.375 12.03125 44.71875 
Q 8.5 49.078125 8.5 55.328125 
Q 8.5 64.0625 14.71875 69.140625 
Q 20.953125 74.21875 31.78125 74.21875 
Q 42.671875 74.21875 48.875 69.140625 
Q 55.078125 64.0625 55.078125 55.328125 
Q 55.078125 49.078125 51.53125 44.71875 
Q 48 40.375 41.703125 38.8125 
Q 48.828125 37.15625 52.796875 32.3125 
Q 56.78125 27.484375 56.78125 20.515625 
Q 56.78125 9.90625 50.3125 4.234375 
Q 43.84375 -1.421875 31.78125 -1.421875 
Q 19.734375 -1.421875 13.25 4.234375 
Q 6.78125 9.90625 6.78125 20.515625 
Q 6.78125 27.484375 10.78125 32.3125 
Q 14.796875 37.15625 21.921875 38.8125 
z
M 18.3125 54.390625 
Q 18.3125 48.734375 21.84375 45.5625 
Q 25.390625 42.390625 31.78125 42.390625 
Q 38.140625 42.390625 41.71875 45.5625 
Q 45.3125 48.734375 45.3125 54.390625 
Q 45.3125 60.0625 41.71875 63.234375 
Q 38.140625 66.40625 31.78125 66.40625 
Q 25.390625 66.40625 21.84375 63.234375 
Q 18.3125 60.0625 18.3125 54.390625 
z
" id="DejaVuSans-56"/>
       </defs>
       <use xlink:href="#DejaVuSans-56"/>
      </g>
     </g>
    </g>
    <g id="text_5">
     <!-- log10 of Df -->
     <g transform="translate(175.214063 339.313125)scale(0.2 -0.2)">
      <defs>
       <path d="M 9.421875 75.984375 
L 18.40625 75.984375 
L 18.40625 0 
L 9.421875 0 
z
" id="DejaVuSans-108"/>
       <path d="M 30.609375 48.390625 
Q 23.390625 48.390625 19.1875 42.75 
Q 14.984375 37.109375 14.984375 27.296875 
Q 14.984375 17.484375 19.15625 11.84375 
Q 23.34375 6.203125 30.609375 6.203125 
Q 37.796875 6.203125 41.984375 11.859375 
Q 46.1875 17.53125 46.1875 27.296875 
Q 46.1875 37.015625 41.984375 42.703125 
Q 37.796875 48.390625 30.609375 48.390625 
z
M 30.609375 56 
Q 42.328125 56 49.015625 48.375 
Q 55.71875 40.765625 55.71875 27.296875 
Q 55.71875 13.875 49.015625 6.21875 
Q 42.328125 -1.421875 30.609375 -1.421875 
Q 18.84375 -1.421875 12.171875 6.21875 
Q 5.515625 13.875 5.515625 27.296875 
Q 5.515625 40.765625 12.171875 48.375 
Q 18.84375 56 30.609375 56 
z
" id="DejaVuSans-111"/>
       <path d="M 45.40625 27.984375 
Q 45.40625 37.75 41.375 43.109375 
Q 37.359375 48.484375 30.078125 48.484375 
Q 22.859375 48.484375 18.828125 43.109375 
Q 14.796875 37.75 14.796875 27.984375 
Q 14.796875 18.265625 18.828125 12.890625 
Q 22.859375 7.515625 30.078125 7.515625 
Q 37.359375 7.515625 41.375 12.890625 
Q 45.40625 18.265625 45.40625 27.984375 
z
M 54.390625 6.78125 
Q 54.390625 -7.171875 48.1875 -13.984375 
Q 42 -20.796875 29.203125 -20.796875 
Q 24.46875 -20.796875 20.265625 -20.09375 
Q 16.0625 -19.390625 12.109375 -17.921875 
L 12.109375 -9.1875 
Q 16.0625 -11.328125 19.921875 -12.34375 
Q 23.78125 -13.375 27.78125 -13.375 
Q 36.625 -13.375 41.015625 -8.765625 
Q 45.40625 -4.15625 45.40625 5.171875 
L 45.40625 9.625 
Q 42.625 4.78125 38.28125 2.390625 
Q 33.9375 0 27.875 0 
Q 17.828125 0 11.671875 7.65625 
Q 5.515625 15.328125 5.515625 27.984375 
Q 5.515625 40.671875 11.671875 48.328125 
Q 17.828125 56 27.875 56 
Q 33.9375 56 38.28125 53.609375 
Q 42.625 51.21875 45.40625 46.390625 
L 45.40625 54.6875 
L 54.390625 54.6875 
z
" id="DejaVuSans-103"/>
       <path d="M 12.40625 8.296875 
L 28.515625 8.296875 
L 28.515625 63.921875 
L 10.984375 60.40625 
L 10.984375 69.390625 
L 28.421875 72.90625 
L 38.28125 72.90625 
L 38.28125 8.296875 
L 54.390625 8.296875 
L 54.390625 0 
L 12.40625 0 
z
" id="DejaVuSans-49"/>
       <path id="DejaVuSans-32"/>
       <path d="M 37.109375 75.984375 
L 37.109375 68.5 
L 28.515625 68.5 
Q 23.6875 68.5 21.796875 66.546875 
Q 19.921875 64.59375 19.921875 59.515625 
L 19.921875 54.6875 
L 34.71875 54.6875 
L 34.71875 47.703125 
L 19.921875 47.703125 
L 19.921875 0 
L 10.890625 0 
L 10.890625 47.703125 
L 2.296875 47.703125 
L 2.296875 54.6875 
L 10.890625 54.6875 
L 10.890625 58.5 
Q 10.890625 67.625 15.140625 71.796875 
Q 19.390625 75.984375 28.609375 75.984375 
z
" id="DejaVuSans-102"/>
       <path d="M 19.671875 64.796875 
L 19.671875 8.109375 
L 31.59375 8.109375 
Q 46.6875 8.109375 53.6875 14.9375 
Q 60.6875 21.78125 60.6875 36.53125 
Q 60.6875 51.171875 53.6875 57.984375 
Q 46.6875 64.796875 31.59375 64.796875 
z
M 9.8125 72.90625 
L 30.078125 72.90625 
Q 51.265625 72.90625 61.171875 64.09375 
Q 71.09375 55.28125 71.09375 36.53125 
Q 71.09375 17.671875 61.125 8.828125 
Q 51.171875 0 30.078125 0 
L 9.8125 0 
z
" id="DejaVuSans-68"/>
      </defs>
      <use xlink:href="#DejaVuSans-108"/>
      <use x="27.783203" xlink:href="#DejaVuSans-111"/>
      <use x="88.964844" xlink:href="#DejaVuSans-103"/>
      <use x="152.441406" xlink:href="#DejaVuSans-49"/>
      <use x="216.064453" xlink:href="#DejaVuSans-48"/>
      <use x="279.6875" xlink:href="#DejaVuSans-32"/>
      <use x="311.474609" xlink:href="#DejaVuSans-111"/>
      <use x="372.65625" xlink:href="#DejaVuSans-102"/>
      <use x="407.861328" xlink:href="#DejaVuSans-32"/>
      <use x="439.648438" xlink:href="#DejaVuSans-68"/>
      <use x="516.650391" xlink:href="#DejaVuSans-102"/>
     </g>
    </g>
   </g>
   <g id="matplotlib.axis_2">
    <g id="ytick_1">
     <g id="line2d_9">
      <path clip-path="url(#pa7ded486bb)" d="M 0 293.76 
L 460.8 293.76 
" style="fill:none;stroke:#b0b0b0;stroke-linecap:square;stroke-width:0.8;"/>
     </g>
     <g id="line2d_10">
      <defs>
       <path d="M 0 0 
L -3.5 0 
" id="meac4270e10" style="stroke:#000000;stroke-width:0.8;"/>
      </defs>
      <g>
       <use style="stroke:#000000;stroke-width:0.8;" x="0" xlink:href="#meac4270e10" y="293.76"/>
      </g>
     </g>
    </g>
    <g id="ytick_2">
     <g id="line2d_11">
      <path clip-path="url(#pa7ded486bb)" d="M 0 236.274059 
L 460.8 236.274059 
" style="fill:none;stroke:#b0b0b0;stroke-linecap:square;stroke-width:0.8;"/>
     </g>
     <g id="line2d_12">
      <g>
       <use style="stroke:#000000;stroke-width:0.8;" x="0" xlink:href="#meac4270e10" y="236.274059"/>
      </g>
     </g>
    </g>
    <g id="ytick_3">
     <g id="line2d_13">
      <path clip-path="url(#pa7ded486bb)" d="M 0 178.788119 
L 460.8 178.788119 
" style="fill:none;stroke:#b0b0b0;stroke-linecap:square;stroke-width:0.8;"/>
     </g>
     <g id="line2d_14">
      <g>
       <use style="stroke:#000000;stroke-width:0.8;" x="0" xlink:href="#meac4270e10" y="178.788119"/>
      </g>
     </g>
    </g>
    <g id="ytick_4">
     <g id="line2d_15">
      <path clip-path="url(#pa7ded486bb)" d="M 0 121.302178 
L 460.8 121.302178 
" style="fill:none;stroke:#b0b0b0;stroke-linecap:square;stroke-width:0.8;"/>
     </g>
     <g id="line2d_16">
      <g>
       <use style="stroke:#000000;stroke-width:0.8;" x="0" xlink:href="#meac4270e10" y="121.302178"/>
      </g>
     </g>
    </g>
    <g id="ytick_5">
     <g id="line2d_17">
      <path clip-path="url(#pa7ded486bb)" d="M 0 63.816238 
L 460.8 63.816238 
" style="fill:none;stroke:#b0b0b0;stroke-linecap:square;stroke-width:0.8;"/>
     </g>
     <g id="line2d_18">
      <g>
       <use style="stroke:#000000;stroke-width:0.8;" x="0" xlink:href="#meac4270e10" y="63.816238"/>
      </g>
     </g>
    </g>
    <g id="ytick_6">
     <g id="line2d_19">
      <path clip-path="url(#pa7ded486bb)" d="M 0 6.330297 
L 460.8 6.330297 
" style="fill:none;stroke:#b0b0b0;stroke-linecap:square;stroke-width:0.8;"/>
     </g>
     <g id="line2d_20">
      <g>
       <use style="stroke:#000000;stroke-width:0.8;" x="0" xlink:href="#meac4270e10" y="6.330297"/>
      </g>
     </g>
    </g>
   </g>
   <g id="line2d_21">
    <path clip-path="url(#pa7ded486bb)" d="M 226.530874 293.76 
L 226.547291 286.095208 
L 227.023869 286.095208 
L 227.023869 282.262812 
L 228.875576 282.262812 
L 228.875576 278.430416 
L 229.085079 278.430416 
L 229.085079 274.59802 
L 230.973482 274.59802 
L 230.973482 270.765624 
L 231.142404 270.765624 
L 231.142404 266.933228 
L 232.255701 266.933228 
L 232.255701 263.100832 
L 235.084126 263.100832 
L 235.084126 259.268436 
L 235.597376 259.268436 
L 235.597376 255.43604 
L 238.233001 255.43604 
L 238.233001 251.603644 
L 239.392656 251.603644 
L 239.392656 247.771248 
L 240.074709 247.771248 
L 240.074709 243.938851 
L 240.826817 243.938851 
L 240.826817 240.106455 
L 242.486125 240.106455 
L 242.486125 236.274059 
L 244.363633 236.274059 
L 244.363633 232.441663 
L 244.615714 232.441663 
L 244.615714 228.609267 
L 245.596363 228.609267 
L 245.596363 224.776871 
L 246.558221 224.776871 
L 246.558221 220.944475 
L 248.964213 220.944475 
L 248.964213 217.112079 
L 249.68575 217.112079 
L 249.68575 213.279683 
L 250.179759 213.279683 
L 250.179759 209.447287 
L 251.871641 209.447287 
L 251.871641 205.614891 
L 252.235273 205.614891 
L 252.235273 201.782495 
L 256.704789 201.782495 
L 256.704789 197.950099 
L 258.320252 197.950099 
L 258.320252 194.117703 
L 258.439039 194.117703 
L 258.439039 190.285307 
L 258.55555 190.285307 
L 258.55555 186.452911 
L 258.99351 186.452911 
L 258.99351 182.620515 
L 259.308146 182.620515 
L 259.308146 178.788119 
L 259.501531 178.788119 
L 259.501531 174.955723 
L 260.027766 174.955723 
L 260.101074 163.458535 
L 260.40165 163.458535 
L 260.40165 159.626139 
L 260.66338 159.626139 
L 260.66338 155.793743 
L 260.980934 155.793743 
L 261.038376 144.296554 
L 261.473748 144.296554 
L 261.473748 140.464158 
L 261.657312 140.464158 
L 261.76741 125.134574 
L 261.831216 125.134574 
L 261.91905 113.637386 
L 262.121178 113.637386 
L 262.186712 105.972594 
L 262.304778 105.972594 
L 262.304778 102.140198 
L 263.733368 102.140198 
L 263.733368 98.307802 
L 264.594436 98.307802 
L 264.594436 94.475406 
L 270.136073 94.475406 
L 270.192477 86.810614 
L 270.255359 86.810614 
L 270.255359 82.978218 
L 270.766967 82.978218 
L 270.775685 71.48103 
L 270.953484 71.48103 
L 271.008253 63.816238 
L 271.182758 63.816238 
L 271.182758 59.983842 
L 271.519657 59.983842 
L 271.524499 52.31905 
L 271.918262 52.31905 
L 271.918262 48.486653 
L 272.383343 48.486653 
L 272.450785 40.821861 
L 272.579151 40.821861 
L 272.579151 36.989465 
L 277.822143 36.989465 
L 277.822143 33.157069 
L 279.419261 33.157069 
L 279.419261 29.324673 
L 282.780508 29.324673 
L 282.865428 21.659881 
L 289.177927 21.659881 
L 289.177927 17.827485 
L 292.690522 17.827485 
L 292.690522 13.995089 
L 299.226191 13.995089 
L 299.293696 6.330297 
L 299.293696 6.330297 
L 460.8 6.330297 
L 460.8 6.330297 
" style="fill:none;stroke:#ff0000;stroke-linecap:square;stroke-width:3;"/>
   </g>
   <g id="line2d_22">
    <path clip-path="url(#pa7ded486bb)" d="M 238.670001 293.76 
L 238.670001 289.927604 
L 239.095325 289.927604 
L 239.095325 286.095208 
L 240.219408 286.095208 
L 240.219408 282.262812 
L 240.999836 282.262812 
L 240.999836 278.430416 
L 241.694628 278.430416 
L 241.694628 274.59802 
L 243.42231 274.59802 
L 243.42231 270.765624 
L 243.600361 270.765624 
L 243.600361 266.933228 
L 244.105688 266.933228 
L 244.105688 263.100832 
L 244.663356 263.100832 
L 244.663356 259.268436 
L 246.059421 259.268436 
L 246.059421 255.43604 
L 246.315995 255.43604 
L 246.315995 251.603644 
L 247.462285 251.603644 
L 247.462285 247.771248 
L 248.574293 247.771248 
L 248.574293 243.938851 
L 250.786362 243.938851 
L 250.786362 240.106455 
L 251.444216 240.106455 
L 251.444216 236.274059 
L 261.720469 236.274059 
L 261.793511 228.609267 
L 262.444385 228.609267 
L 262.522784 217.112079 
L 262.835857 217.112079 
L 262.835857 213.279683 
L 262.979857 213.279683 
L 263.085322 201.782495 
L 263.144548 201.782495 
L 263.144548 197.950099 
L 263.313131 197.950099 
L 263.313131 194.117703 
L 263.430331 194.117703 
L 263.536941 174.955723 
L 263.556214 174.955723 
L 263.605466 159.626139 
L 263.67382 159.626139 
L 263.75889 144.296554 
L 263.89979 144.296554 
L 263.913086 132.799366 
L 264.02462 132.799366 
L 264.082122 125.134574 
L 264.188374 125.134574 
L 264.188374 121.302178 
L 277.389693 121.302178 
L 277.477827 113.637386 
L 278.629244 113.637386 
L 278.629244 109.80499 
L 279.08834 109.80499 
L 279.08834 105.972594 
L 279.276072 105.972594 
L 279.276072 102.140198 
L 279.444331 102.140198 
L 279.444331 98.307802 
L 279.77803 98.307802 
L 279.77803 94.475406 
L 280.106149 94.475406 
L 280.162692 86.810614 
L 280.305737 86.810614 
L 280.371725 79.145822 
L 280.511845 79.145822 
L 280.511845 75.313426 
L 280.651148 75.313426 
L 280.651148 71.48103 
L 281.551917 71.48103 
L 281.551917 67.648634 
L 282.036382 67.648634 
L 282.036382 63.816238 
L 326.323255 63.816238 
L 326.323255 6.330297 
L 326.323255 6.330297 
L 460.8 6.330297 
L 460.8 6.330297 
" style="fill:none;stroke:#00bfbf;stroke-linecap:square;stroke-width:1.5;"/>
   </g>
   <g id="line2d_23">
    <path clip-path="url(#pa7ded486bb)" d="M 238.670001 293.76 
L 238.670001 289.927604 
L 239.007237 289.927604 
L 239.007237 286.095208 
L 240.219408 286.095208 
L 240.219408 282.262812 
L 240.955099 282.262812 
L 240.955099 278.430416 
L 241.680515 278.430416 
L 241.680515 274.59802 
L 243.370944 274.59802 
L 243.370944 270.765624 
L 243.600361 270.765624 
L 243.600361 266.933228 
L 244.082749 266.933228 
L 244.082749 263.100832 
L 244.645046 263.100832 
L 244.645046 259.268436 
L 245.918085 259.268436 
L 245.918085 255.43604 
L 246.310013 255.43604 
L 246.310013 251.603644 
L 247.429818 251.603644 
L 247.429818 247.771248 
L 248.541067 247.771248 
L 248.541067 243.938851 
L 250.786362 243.938851 
L 250.786362 240.106455 
L 251.416846 240.106455 
L 251.416846 236.274059 
L 261.720391 236.274059 
L 261.793472 228.609267 
L 262.444361 228.609267 
L 262.522742 217.112079 
L 262.835847 217.112079 
L 262.835847 213.279683 
L 262.979832 213.279683 
L 263.085286 201.782495 
L 263.144537 201.782495 
L 263.144537 197.950099 
L 263.313131 197.950099 
L 263.313131 194.117703 
L 263.430319 194.117703 
L 263.536924 174.955723 
L 263.556156 174.955723 
L 263.605439 159.626139 
L 263.67382 159.626139 
L 263.758875 144.296554 
L 263.899775 144.296554 
L 263.91307 132.799366 
L 264.024575 132.799366 
L 264.082111 125.134574 
L 264.18837 125.134574 
L 264.18837 121.302178 
L 277.387282 121.302178 
L 277.47611 113.637386 
L 278.629244 113.637386 
L 278.629244 109.80499 
L 279.08834 109.80499 
L 279.08834 105.972594 
L 279.273771 105.972594 
L 279.273771 102.140198 
L 279.443111 102.140198 
L 279.443111 98.307802 
L 279.776377 98.307802 
L 279.776377 94.475406 
L 280.102973 94.475406 
L 280.152502 86.810614 
L 280.300129 86.810614 
L 280.371725 79.145822 
L 280.507298 79.145822 
L 280.507298 75.313426 
L 280.648199 75.313426 
L 280.648199 71.48103 
L 281.550288 71.48103 
L 281.550288 67.648634 
L 282.035074 67.648634 
L 282.035074 63.816238 
L 326.321176 63.816238 
L 326.32201 6.330297 
L 326.32201 6.330297 
L 460.8 6.330297 
L 460.8 6.330297 
" style="fill:none;stroke:#bf00bf;stroke-linecap:square;stroke-width:1.5;"/>
   </g>
   <g id="line2d_24">
    <path clip-path="url(#pa7ded486bb)" d="M 238.348559 293.76 
L 238.348559 289.927604 
L 238.584642 289.927604 
L 238.584642 286.095208 
L 239.646468 286.095208 
L 239.646468 282.262812 
L 240.649021 282.262812 
L 240.649021 278.430416 
L 241.339877 278.430416 
L 241.339877 274.59802 
L 242.986607 274.59802 
L 242.986607 270.765624 
L 243.396195 270.765624 
L 243.396195 266.933228 
L 243.666343 266.933228 
L 243.666343 263.100832 
L 244.078669 263.100832 
L 244.078669 259.268436 
L 245.181308 259.268436 
L 245.181308 255.43604 
L 246.037778 255.43604 
L 246.037778 251.603644 
L 247.164077 251.603644 
L 247.164077 247.771248 
L 248.220208 247.771248 
L 248.220208 243.938851 
L 250.622603 243.938851 
L 250.622603 240.106455 
L 251.242231 240.106455 
L 251.242231 236.274059 
L 261.719619 236.274059 
L 261.79281 228.609267 
L 262.443983 228.609267 
L 262.522375 217.112079 
L 262.835517 217.112079 
L 262.835517 213.279683 
L 262.979371 213.279683 
L 263.085004 201.782495 
L 263.144233 201.782495 
L 263.144233 197.950099 
L 263.31286 197.950099 
L 263.31286 194.117703 
L 263.429991 194.117703 
L 263.536645 174.955723 
L 263.555898 174.955723 
L 263.605162 159.626139 
L 263.673505 159.626139 
L 263.758773 144.296554 
L 263.899645 144.296554 
L 263.912917 132.799366 
L 264.024479 132.799366 
L 264.082047 125.134574 
L 264.188301 125.134574 
L 264.188301 121.302178 
L 277.362553 121.302178 
L 277.431709 113.637386 
L 278.606306 113.637386 
L 278.606306 109.80499 
L 279.042868 109.80499 
L 279.042868 105.972594 
L 279.24861 105.972594 
L 279.24861 102.140198 
L 279.411309 102.140198 
L 279.411309 98.307802 
L 279.73721 98.307802 
L 279.73721 94.475406 
L 280.071393 94.475406 
L 280.126383 86.810614 
L 280.274375 86.810614 
L 280.336608 79.145822 
L 280.477977 79.145822 
L 280.477977 75.313426 
L 280.59844 75.313426 
L 280.59844 71.48103 
L 281.525603 71.48103 
L 281.525603 67.648634 
L 282.010047 67.648634 
L 282.010047 63.816238 
L 326.315675 63.816238 
L 326.318352 6.330297 
L 326.318352 6.330297 
L 460.8 6.330297 
L 460.8 6.330297 
" style="fill:none;stroke:#000000;stroke-linecap:square;stroke-width:1.5;"/>
   </g>
   <g id="line2d_25">
    <path clip-path="url(#pa7ded486bb)" d="M 233.367172 293.76 
L 233.367172 289.927604 
L 234.202016 289.927604 
L 234.202016 286.095208 
L 238.126192 286.095208 
L 238.126192 282.262812 
L 238.961707 282.262812 
L 238.961707 278.430416 
L 239.7275 278.430416 
L 239.7275 274.59802 
L 240.26954 274.59802 
L 240.26954 270.765624 
L 240.662272 270.765624 
L 240.662272 266.933228 
L 241.12393 266.933228 
L 241.12393 263.100832 
L 241.333167 263.100832 
L 241.333167 259.268436 
L 242.207794 259.268436 
L 242.207794 255.43604 
L 244.743802 255.43604 
L 244.743802 251.603644 
L 245.176938 251.603644 
L 245.176938 247.771248 
L 245.935918 247.771248 
L 245.935918 243.938851 
L 246.988121 243.938851 
L 246.988121 240.106455 
L 250.235947 240.106455 
L 250.235947 236.274059 
L 261.704997 236.274059 
L 261.779968 228.609267 
L 262.435686 228.609267 
L 262.515156 217.112079 
L 262.828969 217.112079 
L 262.828969 213.279683 
L 262.96941 213.279683 
L 263.078212 201.782495 
L 263.138064 201.782495 
L 263.138064 197.950099 
L 263.307194 197.950099 
L 263.307194 194.117703 
L 263.423429 194.117703 
L 263.530764 174.955723 
L 263.550228 174.955723 
L 263.599716 159.626139 
L 263.665985 159.626139 
L 263.755563 144.296554 
L 263.896908 144.296554 
L 263.909758 132.799366 
L 264.020504 132.799366 
L 264.080721 125.134574 
L 264.186768 125.134574 
L 264.186768 121.302178 
L 276.510816 121.302178 
L 276.510816 117.469782 
L 276.791484 117.469782 
L 276.791484 113.637386 
L 277.941126 113.637386 
L 277.941126 109.80499 
L 278.119721 109.80499 
L 278.119721 105.972594 
L 278.76146 105.972594 
L 278.790075 98.307802 
L 278.899965 98.307802 
L 278.899965 94.475406 
L 279.361348 94.475406 
L 279.428495 86.810614 
L 279.549862 86.810614 
L 279.644854 71.48103 
L 281.066636 71.48103 
L 281.066636 67.648634 
L 281.382934 67.648634 
L 281.382934 63.816238 
L 326.165513 63.816238 
L 326.216537 6.330297 
L 326.216537 6.330297 
L 460.8 6.330297 
L 460.8 6.330297 
" style="fill:none;stroke:#00bfbf;stroke-linecap:square;stroke-width:1.5;"/>
   </g>
   <g id="line2d_26">
    <path clip-path="url(#pa7ded486bb)" d="M 226.959953 293.76 
L 226.959953 289.927604 
L 228.875576 289.927604 
L 228.875576 286.095208 
L 230.973482 286.095208 
L 230.973482 282.262812 
L 231.142404 282.262812 
L 231.142404 278.430416 
L 232.255701 278.430416 
L 232.255701 274.59802 
L 235.084126 274.59802 
L 235.084126 270.765624 
L 235.597376 270.765624 
L 235.597376 266.933228 
L 238.233001 266.933228 
L 238.233001 263.100832 
L 239.392656 263.100832 
L 239.460721 255.43604 
L 240.074709 255.43604 
L 240.074709 251.603644 
L 240.826817 251.603644 
L 240.826817 247.771248 
L 242.486125 247.771248 
L 242.486125 243.938851 
L 244.363633 243.938851 
L 244.363633 240.106455 
L 244.615714 240.106455 
L 244.615714 236.274059 
L 245.596363 236.274059 
L 245.596363 232.441663 
L 249.331725 232.441663 
L 249.331725 228.609267 
L 250.179759 228.609267 
L 250.179759 224.776871 
L 253.457976 224.776871 
L 253.457976 220.944475 
L 253.762328 220.944475 
L 253.762328 217.112079 
L 259.141262 217.112079 
L 259.141262 213.279683 
L 259.551791 213.279683 
L 259.551791 209.447287 
L 260.200751 209.447287 
L 260.200751 205.614891 
L 260.556358 205.614891 
L 260.556358 201.782495 
L 260.699386 201.782495 
L 260.699386 197.950099 
L 260.957079 197.950099 
L 261.064032 182.620515 
L 261.168915 182.620515 
L 261.168915 178.788119 
L 261.282016 178.788119 
L 261.282016 174.955723 
L 261.494411 174.955723 
L 261.494411 171.123327 
L 261.673105 171.123327 
L 261.765257 159.626139 
L 261.966245 159.626139 
L 262.070257 151.961347 
L 262.105106 151.961347 
L 262.136061 140.464158 
L 262.320917 140.464158 
L 262.39484 128.96697 
L 262.463724 128.96697 
L 262.489268 121.302178 
L 262.590738 121.302178 
L 262.590738 117.469782 
L 263.774199 117.469782 
L 263.774199 113.637386 
L 269.473855 113.637386 
L 269.473855 109.80499 
L 270.85038 109.80499 
L 270.948321 102.140198 
L 271.741541 102.140198 
L 271.741541 98.307802 
L 272.013425 98.307802 
L 272.059249 86.810614 
L 272.170286 86.810614 
L 272.170286 82.978218 
L 272.28405 82.978218 
L 272.311602 75.313426 
L 272.420437 75.313426 
L 272.483159 67.648634 
L 272.634561 67.648634 
L 272.634561 63.816238 
L 272.811227 63.816238 
L 272.811227 59.983842 
L 273.428323 59.983842 
L 273.428323 56.151446 
L 274.016453 56.151446 
L 274.016453 52.31905 
L 281.527107 52.31905 
L 281.527107 48.486653 
L 283.525819 48.486653 
L 283.525819 44.654257 
L 286.878542 44.654257 
L 286.878542 40.821861 
L 292.205568 40.821861 
L 292.205568 36.989465 
L 294.117219 36.989465 
L 294.117219 33.157069 
L 294.438272 33.157069 
L 294.438272 29.324673 
L 296.952264 29.324673 
L 296.952264 25.492277 
L 299.384944 25.492277 
L 299.384944 21.659881 
L 300.607088 21.659881 
L 300.607088 17.827485 
L 303.746046 17.827485 
L 303.746046 13.995089 
L 305.718402 13.995089 
L 305.718402 10.162693 
L 309.014757 10.162693 
L 309.014757 6.330297 
L 309.014757 6.330297 
L 460.8 6.330297 
L 460.8 6.330297 
" style="fill:none;stroke:#bf00bf;stroke-linecap:square;stroke-width:1.5;"/>
   </g>
   <g id="patch_3">
    <path d="M 0 293.76 
L 0 3.456 
" style="fill:none;stroke:#000000;stroke-linecap:square;stroke-linejoin:miter;stroke-width:0.8;"/>
   </g>
   <g id="patch_4">
    <path d="M 460.8 293.76 
L 460.8 3.456 
" style="fill:none;stroke:#000000;stroke-linecap:square;stroke-linejoin:miter;stroke-width:0.8;"/>
   </g>
   <g id="patch_5">
    <path d="M 0 293.76 
L 460.8 293.76 
" style="fill:none;stroke:#000000;stroke-linecap:square;stroke-linejoin:miter;stroke-width:0.8;"/>
   </g>
   <g id="patch_6">
    <path d="M 0 3.456 
L 460.8 3.456 
" style="fill:none;stroke:#000000;stroke-linecap:square;stroke-linejoin:miter;stroke-width:0.8;"/>
   </g>
   <g id="text_6">
    <!-- {f20-f24}, 20-D -->
    <g transform="translate(293.159 287.95392)scale(0.2 -0.2)">
     <defs>
      <path d="M 51.125 -9.28125 
L 51.125 -16.3125 
L 48.09375 -16.3125 
Q 35.9375 -16.3125 31.8125 -12.6875 
Q 27.6875 -9.078125 27.6875 1.703125 
L 27.6875 13.375 
Q 27.6875 20.75 25.046875 23.578125 
Q 22.40625 26.421875 15.484375 26.421875 
L 12.5 26.421875 
L 12.5 33.40625 
L 15.484375 33.40625 
Q 22.46875 33.40625 25.078125 36.203125 
Q 27.6875 39.015625 27.6875 46.296875 
L 27.6875 58.015625 
Q 27.6875 68.796875 31.8125 72.390625 
Q 35.9375 75.984375 48.09375 75.984375 
L 51.125 75.984375 
L 51.125 69 
L 47.796875 69 
Q 40.921875 69 38.8125 66.84375 
Q 36.71875 64.703125 36.71875 57.8125 
L 36.71875 45.703125 
Q 36.71875 38.03125 34.5 34.5625 
Q 32.28125 31.109375 26.90625 29.890625 
Q 32.328125 28.5625 34.515625 25.09375 
Q 36.71875 21.625 36.71875 14.015625 
L 36.71875 1.90625 
Q 36.71875 -4.984375 38.8125 -7.125 
Q 40.921875 -9.28125 47.796875 -9.28125 
z
" id="DejaVuSans-123"/>
      <path d="M 19.1875 8.296875 
L 53.609375 8.296875 
L 53.609375 0 
L 7.328125 0 
L 7.328125 8.296875 
Q 12.9375 14.109375 22.625 23.890625 
Q 32.328125 33.6875 34.8125 36.53125 
Q 39.546875 41.84375 41.421875 45.53125 
Q 43.3125 49.21875 43.3125 52.78125 
Q 43.3125 58.59375 39.234375 62.25 
Q 35.15625 65.921875 28.609375 65.921875 
Q 23.96875 65.921875 18.8125 64.3125 
Q 13.671875 62.703125 7.8125 59.421875 
L 7.8125 69.390625 
Q 13.765625 71.78125 18.9375 73 
Q 24.125 74.21875 28.421875 74.21875 
Q 39.75 74.21875 46.484375 68.546875 
Q 53.21875 62.890625 53.21875 53.421875 
Q 53.21875 48.921875 51.53125 44.890625 
Q 49.859375 40.875 45.40625 35.40625 
Q 44.1875 33.984375 37.640625 27.21875 
Q 31.109375 20.453125 19.1875 8.296875 
z
" id="DejaVuSans-50"/>
      <path d="M 12.5 -9.28125 
L 15.921875 -9.28125 
Q 22.75 -9.28125 24.828125 -7.171875 
Q 26.90625 -5.078125 26.90625 1.90625 
L 26.90625 14.015625 
Q 26.90625 21.625 29.09375 25.09375 
Q 31.296875 28.5625 36.71875 29.890625 
Q 31.296875 31.109375 29.09375 34.5625 
Q 26.90625 38.03125 26.90625 45.703125 
L 26.90625 57.8125 
Q 26.90625 64.75 24.828125 66.875 
Q 22.75 69 15.921875 69 
L 12.5 69 
L 12.5 75.984375 
L 15.578125 75.984375 
Q 27.734375 75.984375 31.8125 72.390625 
Q 35.890625 68.796875 35.890625 58.015625 
L 35.890625 46.296875 
Q 35.890625 39.015625 38.515625 36.203125 
Q 41.15625 33.40625 48.09375 33.40625 
L 51.125 33.40625 
L 51.125 26.421875 
L 48.09375 26.421875 
Q 41.15625 26.421875 38.515625 23.578125 
Q 35.890625 20.75 35.890625 13.375 
L 35.890625 1.703125 
Q 35.890625 -9.078125 31.8125 -12.6875 
Q 27.734375 -16.3125 15.578125 -16.3125 
L 12.5 -16.3125 
z
" id="DejaVuSans-125"/>
      <path d="M 11.71875 12.40625 
L 22.015625 12.40625 
L 22.015625 4 
L 14.015625 -11.625 
L 7.71875 -11.625 
L 11.71875 4 
z
" id="DejaVuSans-44"/>
     </defs>
     <use xlink:href="#DejaVuSans-123"/>
     <use x="63.623047" xlink:href="#DejaVuSans-102"/>
     <use x="98.828125" xlink:href="#DejaVuSans-50"/>
     <use x="162.451172" xlink:href="#DejaVuSans-48"/>
     <use x="226.074219" xlink:href="#DejaVuSans-45"/>
     <use x="262.158203" xlink:href="#DejaVuSans-102"/>
     <use x="297.363281" xlink:href="#DejaVuSans-50"/>
     <use x="360.986328" xlink:href="#DejaVuSans-52"/>
     <use x="424.609375" xlink:href="#DejaVuSans-125"/>
     <use x="488.232422" xlink:href="#DejaVuSans-44"/>
     <use x="520.019531" xlink:href="#DejaVuSans-32"/>
     <use x="551.806641" xlink:href="#DejaVuSans-50"/>
     <use x="615.429688" xlink:href="#DejaVuSans-48"/>
     <use x="679.052734" xlink:href="#DejaVuSans-45"/>
     <use x="715.136719" xlink:href="#DejaVuSans-68"/>
    </g>
   </g>
   <g id="text_7">
    <!-- v2.4 -->
    <g style="fill:#808080;" transform="translate(219.489063 288.777272)scale(0.1 -0.1)">
     <defs>
      <path d="M 2.984375 54.6875 
L 12.5 54.6875 
L 29.59375 8.796875 
L 46.6875 54.6875 
L 56.203125 54.6875 
L 35.6875 0 
L 23.484375 0 
z
" id="DejaVuSans-118"/>
      <path d="M 10.6875 12.40625 
L 21 12.40625 
L 21 0 
L 10.6875 0 
z
" id="DejaVuSans-46"/>
     </defs>
     <use xlink:href="#DejaVuSans-118"/>
     <use x="59.179688" xlink:href="#DejaVuSans-50"/>
     <use x="122.802734" xlink:href="#DejaVuSans-46"/>
     <use x="154.589844" xlink:href="#DejaVuSans-52"/>
    </g>
   </g>
  </g>
 </g>
 <defs>
  <clipPath id="pa7ded486bb">
   <rect height="290.304" width="460.8" x="0" y="3.456"/>
  </clipPath>
 </defs>
</svg>
