<?xml version="1.0" encoding="utf-8" standalone="no"?>
<!DOCTYPE svg PUBLIC "-//W3C//DTD SVG 1.1//EN"
  "http://www.w3.org/Graphics/SVG/1.1/DTD/svg11.dtd">
<!-- Created with matplotlib (https://matplotlib.org/) -->
<svg height="345.6pt" version="1.1" viewBox="0 0 460.8 345.6" width="460.8pt" xmlns="http://www.w3.org/2000/svg" xmlns:xlink="http://www.w3.org/1999/xlink">
 <metadata>
  <rdf:RDF xmlns:cc="http://creativecommons.org/ns#" xmlns:dc="http://purl.org/dc/elements/1.1/" xmlns:rdf="http://www.w3.org/1999/02/22-rdf-syntax-ns#">
   <cc:Work>
    <dc:type rdf:resource="http://purl.org/dc/dcmitype/StillImage"/>
    <dc:date>2021-08-04T15:01:44.028041</dc:date>
    <dc:format>image/svg+xml</dc:format>
    <dc:creator>
     <cc:Agent>
      <dc:title>Matplotlib v3.3.1, https://matplotlib.org/</dc:title>
     </cc:Agent>
    </dc:creator>
   </cc:Work>
  </rdf:RDF>
 </metadata>
 <defs>
  <style type="text/css">*{stroke-linecap:butt;stroke-linejoin:round;}</style>
 </defs>
 <g id="figure_1">
  <g id="patch_1">
   <path d="M 0 345.6 
L 460.8 345.6 
L 460.8 0 
L 0 0 
z
" style="fill:#ffffff;"/>
  </g>
  <g id="axes_1">
   <g id="patch_2">
    <path d="M 0 293.76 
L 460.8 293.76 
L 460.8 3.456 
L 0 3.456 
z
" style="fill:#ffffff;"/>
   </g>
   <g id="matplotlib.axis_1">
    <g id="xtick_1">
     <g id="line2d_1">
      <path clip-path="url(#p260ddd0dd8)" d="M 106.133038 293.76 
L 106.133038 3.456 
" style="fill:none;stroke:#b0b0b0;stroke-linecap:square;stroke-width:0.8;"/>
     </g>
     <g id="line2d_2">
      <defs>
       <path d="M 0 0 
L 0 3.5 
" id="md0a1072cc9" style="stroke:#000000;stroke-width:0.8;"/>
      </defs>
      <g>
       <use style="stroke:#000000;stroke-width:0.8;" x="106.133038" xlink:href="#md0a1072cc9" y="293.76"/>
      </g>
     </g>
     <g id="text_1">
      <!-- -4 -->
      <g transform="translate(96.162726 315.956875)scale(0.2 -0.2)">
       <defs>
        <path d="M 4.890625 31.390625 
L 31.203125 31.390625 
L 31.203125 23.390625 
L 4.890625 23.390625 
z
" id="DejaVuSans-45"/>
        <path d="M 37.796875 64.3125 
L 12.890625 25.390625 
L 37.796875 25.390625 
z
M 35.203125 72.90625 
L 47.609375 72.90625 
L 47.609375 25.390625 
L 58.015625 25.390625 
L 58.015625 17.1875 
L 47.609375 17.1875 
L 47.609375 0 
L 37.796875 0 
L 37.796875 17.1875 
L 4.890625 17.1875 
L 4.890625 26.703125 
z
" id="DejaVuSans-52"/>
       </defs>
       <use xlink:href="#DejaVuSans-45"/>
       <use x="36.083984" xlink:href="#DejaVuSans-52"/>
      </g>
     </g>
    </g>
    <g id="xtick_2">
     <g id="line2d_3">
      <path clip-path="url(#p260ddd0dd8)" d="M 212.380861 293.76 
L 212.380861 3.456 
" style="fill:none;stroke:#b0b0b0;stroke-linecap:square;stroke-width:0.8;"/>
     </g>
     <g id="line2d_4">
      <g>
       <use style="stroke:#000000;stroke-width:0.8;" x="212.380861" xlink:href="#md0a1072cc9" y="293.76"/>
      </g>
     </g>
     <g id="text_2">
      <!-- 0 -->
      <g transform="translate(206.018361 315.956875)scale(0.2 -0.2)">
       <defs>
        <path d="M 31.78125 66.40625 
Q 24.171875 66.40625 20.328125 58.90625 
Q 16.5 51.421875 16.5 36.375 
Q 16.5 21.390625 20.328125 13.890625 
Q 24.171875 6.390625 31.78125 6.390625 
Q 39.453125 6.390625 43.28125 13.890625 
Q 47.125 21.390625 47.125 36.375 
Q 47.125 51.421875 43.28125 58.90625 
Q 39.453125 66.40625 31.78125 66.40625 
z
M 31.78125 74.21875 
Q 44.046875 74.21875 50.515625 64.515625 
Q 56.984375 54.828125 56.984375 36.375 
Q 56.984375 17.96875 50.515625 8.265625 
Q 44.046875 -1.421875 31.78125 -1.421875 
Q 19.53125 -1.421875 13.0625 8.265625 
Q 6.59375 17.96875 6.59375 36.375 
Q 6.59375 54.828125 13.0625 64.515625 
Q 19.53125 74.21875 31.78125 74.21875 
z
" id="DejaVuSans-48"/>
       </defs>
       <use xlink:href="#DejaVuSans-48"/>
      </g>
     </g>
    </g>
    <g id="xtick_3">
     <g id="line2d_5">
      <path clip-path="url(#p260ddd0dd8)" d="M 318.628683 293.76 
L 318.628683 3.456 
" style="fill:none;stroke:#b0b0b0;stroke-linecap:square;stroke-width:0.8;"/>
     </g>
     <g id="line2d_6">
      <g>
       <use style="stroke:#000000;stroke-width:0.8;" x="318.628683" xlink:href="#md0a1072cc9" y="293.76"/>
      </g>
     </g>
     <g id="text_3">
      <!-- 4 -->
      <g transform="translate(312.266183 315.956875)scale(0.2 -0.2)">
       <use xlink:href="#DejaVuSans-52"/>
      </g>
     </g>
    </g>
    <g id="xtick_4">
     <g id="line2d_7">
      <path clip-path="url(#p260ddd0dd8)" d="M 424.876506 293.76 
L 424.876506 3.456 
" style="fill:none;stroke:#b0b0b0;stroke-linecap:square;stroke-width:0.8;"/>
     </g>
     <g id="line2d_8">
      <g>
       <use style="stroke:#000000;stroke-width:0.8;" x="424.876506" xlink:href="#md0a1072cc9" y="293.76"/>
      </g>
     </g>
     <g id="text_4">
      <!-- 8 -->
      <g transform="translate(418.514006 315.956875)scale(0.2 -0.2)">
       <defs>
        <path d="M 31.78125 34.625 
Q 24.75 34.625 20.71875 30.859375 
Q 16.703125 27.09375 16.703125 20.515625 
Q 16.703125 13.921875 20.71875 10.15625 
Q 24.75 6.390625 31.78125 6.390625 
Q 38.8125 6.390625 42.859375 10.171875 
Q 46.921875 13.96875 46.921875 20.515625 
Q 46.921875 27.09375 42.890625 30.859375 
Q 38.875 34.625 31.78125 34.625 
z
M 21.921875 38.8125 
Q 15.578125 40.375 12.03125 44.71875 
Q 8.5 49.078125 8.5 55.328125 
Q 8.5 64.0625 14.71875 69.140625 
Q 20.953125 74.21875 31.78125 74.21875 
Q 42.671875 74.21875 48.875 69.140625 
Q 55.078125 64.0625 55.078125 55.328125 
Q 55.078125 49.078125 51.53125 44.71875 
Q 48 40.375 41.703125 38.8125 
Q 48.828125 37.15625 52.796875 32.3125 
Q 56.78125 27.484375 56.78125 20.515625 
Q 56.78125 9.90625 50.3125 4.234375 
Q 43.84375 -1.421875 31.78125 -1.421875 
Q 19.734375 -1.421875 13.25 4.234375 
Q 6.78125 9.90625 6.78125 20.515625 
Q 6.78125 27.484375 10.78125 32.3125 
Q 14.796875 37.15625 21.921875 38.8125 
z
M 18.3125 54.390625 
Q 18.3125 48.734375 21.84375 45.5625 
Q 25.390625 42.390625 31.78125 42.390625 
Q 38.140625 42.390625 41.71875 45.5625 
Q 45.3125 48.734375 45.3125 54.390625 
Q 45.3125 60.0625 41.71875 63.234375 
Q 38.140625 66.40625 31.78125 66.40625 
Q 25.390625 66.40625 21.84375 63.234375 
Q 18.3125 60.0625 18.3125 54.390625 
z
" id="DejaVuSans-56"/>
       </defs>
       <use xlink:href="#DejaVuSans-56"/>
      </g>
     </g>
    </g>
    <g id="text_5">
     <!-- log10 of Df -->
     <g transform="translate(175.214063 339.313125)scale(0.2 -0.2)">
      <defs>
       <path d="M 9.421875 75.984375 
L 18.40625 75.984375 
L 18.40625 0 
L 9.421875 0 
z
" id="DejaVuSans-108"/>
       <path d="M 30.609375 48.390625 
Q 23.390625 48.390625 19.1875 42.75 
Q 14.984375 37.109375 14.984375 27.296875 
Q 14.984375 17.484375 19.15625 11.84375 
Q 23.34375 6.203125 30.609375 6.203125 
Q 37.796875 6.203125 41.984375 11.859375 
Q 46.1875 17.53125 46.1875 27.296875 
Q 46.1875 37.015625 41.984375 42.703125 
Q 37.796875 48.390625 30.609375 48.390625 
z
M 30.609375 56 
Q 42.328125 56 49.015625 48.375 
Q 55.71875 40.765625 55.71875 27.296875 
Q 55.71875 13.875 49.015625 6.21875 
Q 42.328125 -1.421875 30.609375 -1.421875 
Q 18.84375 -1.421875 12.171875 6.21875 
Q 5.515625 13.875 5.515625 27.296875 
Q 5.515625 40.765625 12.171875 48.375 
Q 18.84375 56 30.609375 56 
z
" id="DejaVuSans-111"/>
       <path d="M 45.40625 27.984375 
Q 45.40625 37.75 41.375 43.109375 
Q 37.359375 48.484375 30.078125 48.484375 
Q 22.859375 48.484375 18.828125 43.109375 
Q 14.796875 37.75 14.796875 27.984375 
Q 14.796875 18.265625 18.828125 12.890625 
Q 22.859375 7.515625 30.078125 7.515625 
Q 37.359375 7.515625 41.375 12.890625 
Q 45.40625 18.265625 45.40625 27.984375 
z
M 54.390625 6.78125 
Q 54.390625 -7.171875 48.1875 -13.984375 
Q 42 -20.796875 29.203125 -20.796875 
Q 24.46875 -20.796875 20.265625 -20.09375 
Q 16.0625 -19.390625 12.109375 -17.921875 
L 12.109375 -9.1875 
Q 16.0625 -11.328125 19.921875 -12.34375 
Q 23.78125 -13.375 27.78125 -13.375 
Q 36.625 -13.375 41.015625 -8.765625 
Q 45.40625 -4.15625 45.40625 5.171875 
L 45.40625 9.625 
Q 42.625 4.78125 38.28125 2.390625 
Q 33.9375 0 27.875 0 
Q 17.828125 0 11.671875 7.65625 
Q 5.515625 15.328125 5.515625 27.984375 
Q 5.515625 40.671875 11.671875 48.328125 
Q 17.828125 56 27.875 56 
Q 33.9375 56 38.28125 53.609375 
Q 42.625 51.21875 45.40625 46.390625 
L 45.40625 54.6875 
L 54.390625 54.6875 
z
" id="DejaVuSans-103"/>
       <path d="M 12.40625 8.296875 
L 28.515625 8.296875 
L 28.515625 63.921875 
L 10.984375 60.40625 
L 10.984375 69.390625 
L 28.421875 72.90625 
L 38.28125 72.90625 
L 38.28125 8.296875 
L 54.390625 8.296875 
L 54.390625 0 
L 12.40625 0 
z
" id="DejaVuSans-49"/>
       <path id="DejaVuSans-32"/>
       <path d="M 37.109375 75.984375 
L 37.109375 68.5 
L 28.515625 68.5 
Q 23.6875 68.5 21.796875 66.546875 
Q 19.921875 64.59375 19.921875 59.515625 
L 19.921875 54.6875 
L 34.71875 54.6875 
L 34.71875 47.703125 
L 19.921875 47.703125 
L 19.921875 0 
L 10.890625 0 
L 10.890625 47.703125 
L 2.296875 47.703125 
L 2.296875 54.6875 
L 10.890625 54.6875 
L 10.890625 58.5 
Q 10.890625 67.625 15.140625 71.796875 
Q 19.390625 75.984375 28.609375 75.984375 
z
" id="DejaVuSans-102"/>
       <path d="M 19.671875 64.796875 
L 19.671875 8.109375 
L 31.59375 8.109375 
Q 46.6875 8.109375 53.6875 14.9375 
Q 60.6875 21.78125 60.6875 36.53125 
Q 60.6875 51.171875 53.6875 57.984375 
Q 46.6875 64.796875 31.59375 64.796875 
z
M 9.8125 72.90625 
L 30.078125 72.90625 
Q 51.265625 72.90625 61.171875 64.09375 
Q 71.09375 55.28125 71.09375 36.53125 
Q 71.09375 17.671875 61.125 8.828125 
Q 51.171875 0 30.078125 0 
L 9.8125 0 
z
" id="DejaVuSans-68"/>
      </defs>
      <use xlink:href="#DejaVuSans-108"/>
      <use x="27.783203" xlink:href="#DejaVuSans-111"/>
      <use x="88.964844" xlink:href="#DejaVuSans-103"/>
      <use x="152.441406" xlink:href="#DejaVuSans-49"/>
      <use x="216.064453" xlink:href="#DejaVuSans-48"/>
      <use x="279.6875" xlink:href="#DejaVuSans-32"/>
      <use x="311.474609" xlink:href="#DejaVuSans-111"/>
      <use x="372.65625" xlink:href="#DejaVuSans-102"/>
      <use x="407.861328" xlink:href="#DejaVuSans-32"/>
      <use x="439.648438" xlink:href="#DejaVuSans-68"/>
      <use x="516.650391" xlink:href="#DejaVuSans-102"/>
     </g>
    </g>
   </g>
   <g id="matplotlib.axis_2">
    <g id="ytick_1">
     <g id="line2d_9">
      <path clip-path="url(#p260ddd0dd8)" d="M 0 293.76 
L 460.8 293.76 
" style="fill:none;stroke:#b0b0b0;stroke-linecap:square;stroke-width:0.8;"/>
     </g>
     <g id="line2d_10">
      <defs>
       <path d="M 0 0 
L -3.5 0 
" id="m43d69aa99b" style="stroke:#000000;stroke-width:0.8;"/>
      </defs>
      <g>
       <use style="stroke:#000000;stroke-width:0.8;" x="0" xlink:href="#m43d69aa99b" y="293.76"/>
      </g>
     </g>
    </g>
    <g id="ytick_2">
     <g id="line2d_11">
      <path clip-path="url(#p260ddd0dd8)" d="M 0 236.274059 
L 460.8 236.274059 
" style="fill:none;stroke:#b0b0b0;stroke-linecap:square;stroke-width:0.8;"/>
     </g>
     <g id="line2d_12">
      <g>
       <use style="stroke:#000000;stroke-width:0.8;" x="0" xlink:href="#m43d69aa99b" y="236.274059"/>
      </g>
     </g>
    </g>
    <g id="ytick_3">
     <g id="line2d_13">
      <path clip-path="url(#p260ddd0dd8)" d="M 0 178.788119 
L 460.8 178.788119 
" style="fill:none;stroke:#b0b0b0;stroke-linecap:square;stroke-width:0.8;"/>
     </g>
     <g id="line2d_14">
      <g>
       <use style="stroke:#000000;stroke-width:0.8;" x="0" xlink:href="#m43d69aa99b" y="178.788119"/>
      </g>
     </g>
    </g>
    <g id="ytick_4">
     <g id="line2d_15">
      <path clip-path="url(#p260ddd0dd8)" d="M 0 121.302178 
L 460.8 121.302178 
" style="fill:none;stroke:#b0b0b0;stroke-linecap:square;stroke-width:0.8;"/>
     </g>
     <g id="line2d_16">
      <g>
       <use style="stroke:#000000;stroke-width:0.8;" x="0" xlink:href="#m43d69aa99b" y="121.302178"/>
      </g>
     </g>
    </g>
    <g id="ytick_5">
     <g id="line2d_17">
      <path clip-path="url(#p260ddd0dd8)" d="M 0 63.816238 
L 460.8 63.816238 
" style="fill:none;stroke:#b0b0b0;stroke-linecap:square;stroke-width:0.8;"/>
     </g>
     <g id="line2d_18">
      <g>
       <use style="stroke:#000000;stroke-width:0.8;" x="0" xlink:href="#m43d69aa99b" y="63.816238"/>
      </g>
     </g>
    </g>
    <g id="ytick_6">
     <g id="line2d_19">
      <path clip-path="url(#p260ddd0dd8)" d="M 0 6.330297 
L 460.8 6.330297 
" style="fill:none;stroke:#b0b0b0;stroke-linecap:square;stroke-width:0.8;"/>
     </g>
     <g id="line2d_20">
      <g>
       <use style="stroke:#000000;stroke-width:0.8;" x="0" xlink:href="#m43d69aa99b" y="6.330297"/>
      </g>
     </g>
    </g>
   </g>
   <g id="line2d_21">
    <path clip-path="url(#p260ddd0dd8)" d="M -1 288.969505 
L 5.728057 288.969505 
L 5.728057 284.17901 
L 9.809464 284.17901 
L 9.809464 279.388515 
L 166.326979 279.388515 
L 166.326979 274.59802 
L 180.36678 274.59802 
L 180.36678 269.807525 
L 184.074393 269.807525 
L 184.074393 265.01703 
L 185.54366 265.01703 
L 185.54366 260.226535 
L 187.56396 260.226535 
L 187.56396 255.43604 
L 195.905553 255.43604 
L 195.905553 250.645545 
L 200.902664 250.645545 
L 200.902664 245.85505 
L 203.308689 245.85505 
L 203.308689 241.064554 
L 206.873071 241.064554 
L 206.873071 236.274059 
L 207.168523 236.274059 
L 207.168523 231.483564 
L 208.156657 231.483564 
L 208.156657 226.693069 
L 208.874496 226.693069 
L 208.874496 221.902574 
L 210.629581 221.902574 
L 210.629581 217.112079 
L 211.712179 217.112079 
L 211.712179 212.321584 
L 212.955336 212.321584 
L 212.955336 207.531089 
L 213.016191 207.531089 
L 213.016191 202.740594 
L 216.750341 202.740594 
L 216.750341 197.950099 
L 218.273218 197.950099 
L 218.273218 193.159604 
L 218.887987 193.159604 
L 218.887987 188.369109 
L 221.694361 188.369109 
L 221.694361 183.578614 
L 223.798269 183.578614 
L 223.798269 178.788119 
L 226.150613 178.788119 
L 226.150613 173.997624 
L 227.23236 173.997624 
L 227.23236 169.207129 
L 230.032817 169.207129 
L 230.032817 164.416634 
L 231.494954 164.416634 
L 231.494954 159.626139 
L 232.986088 159.626139 
L 232.986088 154.835644 
L 233.376439 154.835644 
L 233.376439 150.045149 
L 241.44231 150.045149 
L 241.44231 145.254653 
L 241.76962 145.254653 
L 241.76962 140.464158 
L 242.071096 140.464158 
L 242.071096 135.673663 
L 245.61867 135.673663 
L 245.61867 130.883168 
L 248.835732 130.883168 
L 248.835732 126.092673 
L 249.628176 126.092673 
L 249.628176 121.302178 
L 252.605404 121.302178 
L 252.605404 116.511683 
L 254.770348 116.511683 
L 254.770348 111.721188 
L 254.996055 111.721188 
L 254.996055 106.930693 
L 255.640979 106.930693 
L 255.640979 102.140198 
L 255.869927 102.140198 
L 255.869927 97.349703 
L 256.442607 97.349703 
L 256.442607 92.559208 
L 256.46192 92.559208 
L 256.46192 87.768713 
L 260.587743 87.768713 
L 260.587743 82.978218 
L 261.621961 82.978218 
L 261.621961 78.187723 
L 263.443477 78.187723 
L 263.443477 73.397228 
L 263.458398 73.397228 
L 263.458398 68.606733 
L 268.400841 68.606733 
L 268.400841 63.816238 
L 268.885116 63.816238 
L 268.885116 59.025743 
L 270.570997 59.025743 
L 270.570997 54.235248 
L 272.427731 54.235248 
L 272.427731 49.444752 
L 272.546491 49.444752 
L 272.546491 44.654257 
L 273.567591 44.654257 
L 273.567591 39.863762 
L 274.155306 39.863762 
L 274.155306 35.073267 
L 275.176791 35.073267 
L 275.176791 30.282772 
L 277.128754 30.282772 
L 277.128754 25.492277 
L 277.410838 25.492277 
L 277.410838 20.701782 
L 282.017389 20.701782 
L 282.017389 15.911287 
L 283.220097 15.911287 
L 283.220097 11.120792 
L 288.483596 11.120792 
L 288.483596 6.330297 
L 288.483596 6.330297 
L 288.483596 6.330297 
L 460.8 6.330297 
" style="fill:none;stroke:#ff0000;stroke-linecap:square;stroke-width:3;"/>
   </g>
   <g id="line2d_22">
    <path clip-path="url(#p260ddd0dd8)" d="M 242.071096 293.76 
L 242.071096 288.969505 
L 245.61867 288.969505 
L 245.61867 284.17901 
L 249.960536 284.17901 
L 249.960536 279.388515 
L 249.96061 279.388515 
L 249.96061 274.59802 
L 249.962649 274.59802 
L 249.962649 269.807525 
L 249.965089 269.807525 
L 249.965089 265.01703 
L 249.96532 265.01703 
L 249.96532 260.226535 
L 249.96532 260.226535 
L 249.96532 255.43604 
L 249.96532 255.43604 
L 249.96532 250.645545 
L 249.96532 250.645545 
L 249.96532 245.85505 
L 249.96532 245.85505 
L 249.96532 241.064554 
L 249.96532 241.064554 
L 249.96532 236.274059 
L 249.96532 236.274059 
L 249.96532 231.483564 
L 249.96532 231.483564 
L 249.96532 226.693069 
L 249.96532 226.693069 
L 249.96532 221.902574 
L 249.96532 221.902574 
L 249.96532 217.112079 
L 249.96532 217.112079 
L 249.96532 212.321584 
L 252.605404 212.321584 
L 252.605404 207.531089 
L 254.996055 207.531089 
L 254.996055 202.740594 
L 256.442607 202.740594 
L 256.442607 197.950099 
L 263.458398 197.950099 
L 263.458398 193.159604 
L 270.570997 193.159604 
L 270.570997 188.369109 
L 272.546491 188.369109 
L 272.546491 183.578614 
L 273.567591 183.578614 
L 273.567591 178.788119 
L 274.155306 178.788119 
L 274.155306 173.997624 
L 274.346524 173.997624 
L 274.346524 169.207129 
L 277.128754 169.207129 
L 277.128754 164.416634 
L 277.410838 164.416634 
L 277.410838 159.626139 
L 282.017389 159.626139 
L 282.017389 154.835644 
L 283.220097 154.835644 
L 283.220097 150.045149 
L 288.483596 150.045149 
L 288.483596 145.254653 
L 295.330682 145.254653 
L 295.330682 140.464158 
L 302.98321 140.464158 
L 302.98321 135.673663 
L 307.806639 135.673663 
L 307.806639 130.883168 
L 308.6187 130.883168 
L 308.6187 126.092673 
L 310.788399 126.092673 
L 310.788399 121.302178 
L 310.966159 121.302178 
L 310.966159 116.511683 
L 313.008015 116.511683 
L 313.008015 111.721188 
L 315.420388 111.721188 
L 315.420388 106.930693 
L 320.210596 106.930693 
L 320.210596 102.140198 
L 321.416025 102.140198 
L 321.416025 97.349703 
L 322.903718 97.349703 
L 322.903718 92.559208 
L 323.811885 92.559208 
L 323.811885 87.768713 
L 325.467753 87.768713 
L 325.467753 82.978218 
L 325.572739 82.978218 
L 325.572739 78.187723 
L 328.833737 78.187723 
L 328.833737 73.397228 
L 335.70618 73.397228 
L 335.70618 68.606733 
L 338.307999 68.606733 
L 338.307999 63.816238 
L 339.961287 63.816238 
L 339.961287 59.025743 
L 340.534524 59.025743 
L 340.534524 54.235248 
L 342.513972 54.235248 
L 342.513972 49.444752 
L 346.588686 49.444752 
L 346.588686 44.654257 
L 347.06048 44.654257 
L 347.06048 39.863762 
L 349.374069 39.863762 
L 349.374069 35.073267 
L 350.717795 35.073267 
L 350.717795 30.282772 
L 352.593305 30.282772 
L 352.593305 25.492277 
L 357.469883 25.492277 
L 357.469883 20.701782 
L 358.666242 20.701782 
L 358.666242 15.911287 
L 362.156467 15.911287 
L 362.156467 11.120792 
L 365.442193 11.120792 
L 365.442193 6.330297 
L 365.442193 6.330297 
L 365.442193 6.330297 
L 460.8 6.330297 
" style="fill:none;stroke:#00bfbf;stroke-linecap:square;stroke-width:1.5;"/>
   </g>
   <g id="line2d_23">
    <path clip-path="url(#p260ddd0dd8)" d="M 242.071096 293.76 
L 242.071096 288.969505 
L 245.61867 288.969505 
L 245.61867 284.17901 
L 249.959221 284.17901 
L 249.959221 279.388515 
L 249.959739 279.388515 
L 249.959739 274.59802 
L 249.960272 274.59802 
L 249.960272 269.807525 
L 249.960359 269.807525 
L 249.960359 265.01703 
L 249.960536 265.01703 
L 249.960536 260.226535 
L 249.961056 260.226535 
L 249.961056 255.43604 
L 249.961552 255.43604 
L 249.961552 250.645545 
L 249.961744 250.645545 
L 249.961744 245.85505 
L 249.962152 245.85505 
L 249.962152 241.064554 
L 249.962247 241.064554 
L 249.962247 236.274059 
L 249.962649 236.274059 
L 249.962649 231.483564 
L 249.962705 231.483564 
L 249.962705 226.693069 
L 249.963879 226.693069 
L 249.963879 221.902574 
L 249.964427 221.902574 
L 249.964427 217.112079 
L 249.96532 217.112079 
L 249.96532 212.321584 
L 252.605404 212.321584 
L 252.605404 207.531089 
L 254.996055 207.531089 
L 254.996055 202.740594 
L 256.442607 202.740594 
L 256.442607 197.950099 
L 263.458398 197.950099 
L 263.458398 193.159604 
L 270.570997 193.159604 
L 270.570997 188.369109 
L 272.546491 188.369109 
L 272.546491 183.578614 
L 273.567591 183.578614 
L 273.567591 178.788119 
L 274.155306 178.788119 
L 274.155306 173.997624 
L 274.346511 173.997624 
L 274.346511 169.207129 
L 277.128754 169.207129 
L 277.128754 164.416634 
L 277.410838 164.416634 
L 277.410838 159.626139 
L 282.017389 159.626139 
L 282.017389 154.835644 
L 283.220097 154.835644 
L 283.220097 150.045149 
L 288.483596 150.045149 
L 288.483596 145.254653 
L 295.330682 145.254653 
L 295.330682 140.464158 
L 302.98321 140.464158 
L 302.98321 135.673663 
L 307.806639 135.673663 
L 307.806639 130.883168 
L 308.617912 130.883168 
L 308.617912 126.092673 
L 310.787791 126.092673 
L 310.787791 121.302178 
L 310.964687 121.302178 
L 310.964687 116.511683 
L 313.007406 116.511683 
L 313.007406 111.721188 
L 315.419998 111.721188 
L 315.419998 106.930693 
L 320.210069 106.930693 
L 320.210069 102.140198 
L 321.415941 102.140198 
L 321.415941 97.349703 
L 322.903309 97.349703 
L 322.903309 92.559208 
L 323.811525 92.559208 
L 323.811525 87.768713 
L 325.467483 87.768713 
L 325.467483 82.978218 
L 325.572265 82.978218 
L 325.572265 78.187723 
L 328.833375 78.187723 
L 328.833375 73.397228 
L 335.70618 73.397228 
L 335.70618 68.606733 
L 338.30666 68.606733 
L 338.30666 63.816238 
L 339.960982 63.816238 
L 339.960982 59.025743 
L 340.533891 59.025743 
L 340.533891 54.235248 
L 342.513972 54.235248 
L 342.513972 49.444752 
L 346.588552 49.444752 
L 346.588552 44.654257 
L 347.060196 44.654257 
L 347.060196 39.863762 
L 349.372505 39.863762 
L 349.372505 35.073267 
L 350.716998 35.073267 
L 350.716998 30.282772 
L 352.592541 30.282772 
L 352.592541 25.492277 
L 357.469802 25.492277 
L 357.469802 20.701782 
L 358.665887 20.701782 
L 358.665887 15.911287 
L 362.156467 15.911287 
L 362.156467 11.120792 
L 365.442167 11.120792 
L 365.442167 6.330297 
L 365.442167 6.330297 
L 365.442167 6.330297 
L 460.8 6.330297 
" style="fill:none;stroke:#bf00bf;stroke-linecap:square;stroke-width:1.5;"/>
   </g>
   <g id="line2d_24">
    <path clip-path="url(#p260ddd0dd8)" d="M 242.071096 293.76 
L 242.071096 288.969505 
L 245.61867 288.969505 
L 245.61867 284.17901 
L 249.920377 284.17901 
L 249.920377 279.388515 
L 249.920987 279.388515 
L 249.920987 274.59802 
L 249.921467 274.59802 
L 249.921467 269.807525 
L 249.923198 269.807525 
L 249.923198 265.01703 
L 249.92717 265.01703 
L 249.92717 260.226535 
L 249.929011 260.226535 
L 249.929011 255.43604 
L 249.929444 255.43604 
L 249.929444 250.645545 
L 249.929542 250.645545 
L 249.929542 245.85505 
L 249.930509 245.85505 
L 249.930509 241.064554 
L 249.93051 241.064554 
L 249.93051 236.274059 
L 249.931318 236.274059 
L 249.931318 231.483564 
L 249.93433 231.483564 
L 249.93433 226.693069 
L 249.937299 226.693069 
L 249.937299 221.902574 
L 249.937549 221.902574 
L 249.937549 217.112079 
L 249.944944 217.112079 
L 249.944944 212.321584 
L 252.605404 212.321584 
L 252.605404 207.531089 
L 254.996055 207.531089 
L 254.996055 202.740594 
L 256.442607 202.740594 
L 256.442607 197.950099 
L 263.458398 197.950099 
L 263.458398 193.159604 
L 270.570997 193.159604 
L 270.570997 188.369109 
L 272.546491 188.369109 
L 272.546491 183.578614 
L 273.567591 183.578614 
L 273.567591 178.788119 
L 274.155306 178.788119 
L 274.155306 173.997624 
L 274.346138 173.997624 
L 274.346138 169.207129 
L 277.128754 169.207129 
L 277.128754 164.416634 
L 277.410838 164.416634 
L 277.410838 159.626139 
L 282.017389 159.626139 
L 282.017389 154.835644 
L 283.220097 154.835644 
L 283.220097 150.045149 
L 288.483596 150.045149 
L 288.483596 145.254653 
L 295.325782 145.254653 
L 295.325782 140.464158 
L 302.9644 140.464158 
L 302.9644 135.673663 
L 307.78182 135.673663 
L 307.78182 130.883168 
L 308.59754 130.883168 
L 308.59754 126.092673 
L 310.76818 126.092673 
L 310.76818 121.302178 
L 310.952005 121.302178 
L 310.952005 116.511683 
L 312.991969 116.511683 
L 312.991969 111.721188 
L 315.400519 111.721188 
L 315.400519 106.930693 
L 320.191744 106.930693 
L 320.191744 102.140198 
L 321.40016 102.140198 
L 321.40016 97.349703 
L 322.888575 97.349703 
L 322.888575 92.559208 
L 323.795699 92.559208 
L 323.795699 87.768713 
L 325.45698 87.768713 
L 325.45698 82.978218 
L 325.563031 82.978218 
L 325.563031 78.187723 
L 328.818407 78.187723 
L 328.818407 73.397228 
L 335.685677 73.397228 
L 335.685677 68.606733 
L 338.294097 68.606733 
L 338.294097 63.816238 
L 339.95872 63.816238 
L 339.95872 59.025743 
L 340.524974 59.025743 
L 340.524974 54.235248 
L 342.504164 54.235248 
L 342.504164 49.444752 
L 346.584613 49.444752 
L 346.584613 44.654257 
L 347.057172 44.654257 
L 347.057172 39.863762 
L 349.367675 39.863762 
L 349.367675 35.073267 
L 350.711619 35.073267 
L 350.711619 30.282772 
L 352.589554 30.282772 
L 352.589554 25.492277 
L 357.46621 25.492277 
L 357.46621 20.701782 
L 358.664428 20.701782 
L 358.664428 15.911287 
L 362.149943 15.911287 
L 362.149943 11.120792 
L 365.44161 11.120792 
L 365.44161 6.330297 
L 365.44161 6.330297 
L 365.44161 6.330297 
L 460.8 6.330297 
" style="fill:none;stroke:#000000;stroke-linecap:square;stroke-width:1.5;"/>
   </g>
   <g id="line2d_25">
    <path clip-path="url(#p260ddd0dd8)" d="M 242.071096 293.76 
L 242.071096 288.969505 
L 244.892563 288.969505 
L 244.892563 284.17901 
L 244.96457 284.17901 
L 244.96457 279.388515 
L 244.974848 279.388515 
L 244.974848 274.59802 
L 245.477311 274.59802 
L 245.477311 269.807525 
L 245.61867 269.807525 
L 245.61867 265.01703 
L 246.027197 265.01703 
L 246.027197 260.226535 
L 246.169339 260.226535 
L 246.169339 255.43604 
L 246.308114 255.43604 
L 246.308114 250.645545 
L 246.352762 250.645545 
L 246.352762 245.85505 
L 247.108431 245.85505 
L 247.108431 241.064554 
L 247.235264 241.064554 
L 247.235264 236.274059 
L 247.306695 236.274059 
L 247.306695 231.483564 
L 247.361046 231.483564 
L 247.361046 226.693069 
L 247.482662 226.693069 
L 247.482662 221.902574 
L 247.68437 221.902574 
L 247.68437 217.112079 
L 247.932643 217.112079 
L 247.932643 212.321584 
L 252.605404 212.321584 
L 252.605404 207.531089 
L 254.996055 207.531089 
L 254.996055 202.740594 
L 256.442607 202.740594 
L 256.442607 197.950099 
L 263.458398 197.950099 
L 263.458398 193.159604 
L 270.570997 193.159604 
L 270.570997 188.369109 
L 272.546491 188.369109 
L 272.546491 183.578614 
L 273.567591 183.578614 
L 273.567591 178.788119 
L 274.155306 178.788119 
L 274.155306 173.997624 
L 274.291253 173.997624 
L 274.291253 169.207129 
L 277.128754 169.207129 
L 277.128754 164.416634 
L 277.410838 164.416634 
L 277.410838 159.626139 
L 282.017389 159.626139 
L 282.017389 154.835644 
L 283.220097 154.835644 
L 283.220097 150.045149 
L 288.483596 150.045149 
L 288.483596 145.254653 
L 294.568801 145.254653 
L 294.568801 140.464158 
L 301.205769 140.464158 
L 301.205769 135.673663 
L 305.340539 135.673663 
L 305.340539 130.883168 
L 306.718577 130.883168 
L 306.718577 126.092673 
L 309.071263 126.092673 
L 309.071263 121.302178 
L 309.182115 121.302178 
L 309.182115 116.511683 
L 310.849827 116.511683 
L 310.849827 111.721188 
L 313.566391 111.721188 
L 313.566391 106.930693 
L 318.45513 106.930693 
L 318.45513 102.140198 
L 319.960574 102.140198 
L 319.960574 97.349703 
L 321.526545 97.349703 
L 321.526545 92.559208 
L 322.316034 92.559208 
L 322.316034 87.768713 
L 324.03405 87.768713 
L 324.03405 82.978218 
L 324.270283 82.978218 
L 324.270283 78.187723 
L 327.41139 78.187723 
L 327.41139 73.397228 
L 333.499368 73.397228 
L 333.499368 68.606733 
L 335.992038 68.606733 
L 335.992038 63.816238 
L 339.303526 63.816238 
L 339.303526 59.025743 
L 339.993933 59.025743 
L 339.993933 54.235248 
L 341.229961 54.235248 
L 341.229961 49.444752 
L 345.905487 49.444752 
L 345.905487 44.654257 
L 346.731816 44.654257 
L 346.731816 39.863762 
L 348.636528 39.863762 
L 348.636528 35.073267 
L 350.006676 35.073267 
L 350.006676 30.282772 
L 352.104871 30.282772 
L 352.104871 25.492277 
L 356.873846 25.492277 
L 356.873846 20.701782 
L 358.467417 20.701782 
L 358.467417 15.911287 
L 361.53017 15.911287 
L 361.53017 11.120792 
L 365.335704 11.120792 
L 365.335704 6.330297 
L 365.335704 6.330297 
L 365.335704 6.330297 
L 460.8 6.330297 
" style="fill:none;stroke:#00bfbf;stroke-linecap:square;stroke-width:1.5;"/>
   </g>
   <g id="line2d_26">
    <path clip-path="url(#p260ddd0dd8)" d="M 185.549422 293.76 
L 185.549422 288.969505 
L 187.56396 288.969505 
L 187.56396 284.17901 
L 195.905553 284.17901 
L 195.905553 279.388515 
L 200.905026 279.388515 
L 200.905026 274.59802 
L 206.873285 274.59802 
L 206.873285 269.807525 
L 207.168523 269.807525 
L 207.168523 265.01703 
L 208.156657 265.01703 
L 208.156657 260.226535 
L 210.629614 260.226535 
L 210.629614 255.43604 
L 211.712185 255.43604 
L 211.712185 250.645545 
L 213.016191 250.645545 
L 213.016191 245.85505 
L 217.4544 245.85505 
L 217.4544 241.064554 
L 217.819722 241.064554 
L 217.819722 236.274059 
L 221.694361 236.274059 
L 221.694361 231.483564 
L 222.095765 231.483564 
L 222.095765 226.693069 
L 223.163759 226.693069 
L 223.163759 221.902574 
L 223.798284 221.902574 
L 223.798284 217.112079 
L 226.209571 217.112079 
L 226.209571 212.321584 
L 227.23236 212.321584 
L 227.23236 207.531089 
L 229.453673 207.531089 
L 229.453673 202.740594 
L 231.562351 202.740594 
L 231.562351 197.950099 
L 233.06506 197.950099 
L 233.06506 193.159604 
L 234.781399 193.159604 
L 234.781399 188.369109 
L 241.358395 188.369109 
L 241.358395 183.578614 
L 242.071096 183.578614 
L 242.071096 178.788119 
L 242.871398 178.788119 
L 242.871398 173.997624 
L 245.61867 173.997624 
L 245.61867 169.207129 
L 246.177953 169.207129 
L 246.177953 164.416634 
L 248.987813 164.416634 
L 248.987813 159.626139 
L 249.628176 159.626139 
L 249.628176 154.835644 
L 252.605404 154.835644 
L 252.605404 150.045149 
L 254.535169 150.045149 
L 254.535169 145.254653 
L 254.996055 145.254653 
L 254.996055 140.464158 
L 255.828303 140.464158 
L 255.828303 135.673663 
L 255.869927 135.673663 
L 255.869927 130.883168 
L 256.442607 130.883168 
L 256.442607 126.092673 
L 259.250829 126.092673 
L 259.250829 121.302178 
L 260.643322 121.302178 
L 260.643322 116.511683 
L 261.048276 116.511683 
L 261.048276 111.721188 
L 261.185809 111.721188 
L 261.185809 106.930693 
L 261.621961 106.930693 
L 261.621961 102.140198 
L 263.458398 102.140198 
L 263.458398 97.349703 
L 264.097949 97.349703 
L 264.097949 92.559208 
L 264.690491 92.559208 
L 264.690491 87.768713 
L 268.992049 87.768713 
L 268.992049 82.978218 
L 269.411139 82.978218 
L 269.411139 78.187723 
L 270.376871 78.187723 
L 270.376871 73.397228 
L 270.570997 73.397228 
L 270.570997 68.606733 
L 272.546491 68.606733 
L 272.546491 63.816238 
L 272.953283 63.816238 
L 272.953283 59.025743 
L 273.311607 59.025743 
L 273.311607 54.235248 
L 273.567591 54.235248 
L 273.567591 49.444752 
L 274.155306 49.444752 
L 274.155306 44.654257 
L 277.128754 44.654257 
L 277.128754 39.863762 
L 277.410838 39.863762 
L 277.410838 35.073267 
L 277.852237 35.073267 
L 277.852237 30.282772 
L 279.134219 30.282772 
L 279.134219 25.492277 
L 282.017389 25.492277 
L 282.017389 20.701782 
L 283.220097 20.701782 
L 283.220097 15.911287 
L 283.447872 15.911287 
L 283.447872 11.120792 
L 288.483596 11.120792 
L 288.483596 6.330297 
L 288.483596 6.330297 
L 288.483596 6.330297 
L 460.8 6.330297 
" style="fill:none;stroke:#bf00bf;stroke-linecap:square;stroke-width:1.5;"/>
   </g>
   <g id="patch_3">
    <path d="M 0 293.76 
L 0 3.456 
" style="fill:none;stroke:#000000;stroke-linecap:square;stroke-linejoin:miter;stroke-width:0.8;"/>
   </g>
   <g id="patch_4">
    <path d="M 460.8 293.76 
L 460.8 3.456 
" style="fill:none;stroke:#000000;stroke-linecap:square;stroke-linejoin:miter;stroke-width:0.8;"/>
   </g>
   <g id="patch_5">
    <path d="M 0 293.76 
L 460.8 293.76 
" style="fill:none;stroke:#000000;stroke-linecap:square;stroke-linejoin:miter;stroke-width:0.8;"/>
   </g>
   <g id="patch_6">
    <path d="M 0 3.456 
L 460.8 3.456 
" style="fill:none;stroke:#000000;stroke-linecap:square;stroke-linejoin:miter;stroke-width:0.8;"/>
   </g>
   <g id="text_6">
    <!-- {f6-f9}, 5-D -->
    <g transform="translate(331.334 287.95392)scale(0.2 -0.2)">
     <defs>
      <path d="M 51.125 -9.28125 
L 51.125 -16.3125 
L 48.09375 -16.3125 
Q 35.9375 -16.3125 31.8125 -12.6875 
Q 27.6875 -9.078125 27.6875 1.703125 
L 27.6875 13.375 
Q 27.6875 20.75 25.046875 23.578125 
Q 22.40625 26.421875 15.484375 26.421875 
L 12.5 26.421875 
L 12.5 33.40625 
L 15.484375 33.40625 
Q 22.46875 33.40625 25.078125 36.203125 
Q 27.6875 39.015625 27.6875 46.296875 
L 27.6875 58.015625 
Q 27.6875 68.796875 31.8125 72.390625 
Q 35.9375 75.984375 48.09375 75.984375 
L 51.125 75.984375 
L 51.125 69 
L 47.796875 69 
Q 40.921875 69 38.8125 66.84375 
Q 36.71875 64.703125 36.71875 57.8125 
L 36.71875 45.703125 
Q 36.71875 38.03125 34.5 34.5625 
Q 32.28125 31.109375 26.90625 29.890625 
Q 32.328125 28.5625 34.515625 25.09375 
Q 36.71875 21.625 36.71875 14.015625 
L 36.71875 1.90625 
Q 36.71875 -4.984375 38.8125 -7.125 
Q 40.921875 -9.28125 47.796875 -9.28125 
z
" id="DejaVuSans-123"/>
      <path d="M 33.015625 40.375 
Q 26.375 40.375 22.484375 35.828125 
Q 18.609375 31.296875 18.609375 23.390625 
Q 18.609375 15.53125 22.484375 10.953125 
Q 26.375 6.390625 33.015625 6.390625 
Q 39.65625 6.390625 43.53125 10.953125 
Q 47.40625 15.53125 47.40625 23.390625 
Q 47.40625 31.296875 43.53125 35.828125 
Q 39.65625 40.375 33.015625 40.375 
z
M 52.59375 71.296875 
L 52.59375 62.3125 
Q 48.875 64.0625 45.09375 64.984375 
Q 41.3125 65.921875 37.59375 65.921875 
Q 27.828125 65.921875 22.671875 59.328125 
Q 17.53125 52.734375 16.796875 39.40625 
Q 19.671875 43.65625 24.015625 45.921875 
Q 28.375 48.1875 33.59375 48.1875 
Q 44.578125 48.1875 50.953125 41.515625 
Q 57.328125 34.859375 57.328125 23.390625 
Q 57.328125 12.15625 50.6875 5.359375 
Q 44.046875 -1.421875 33.015625 -1.421875 
Q 20.359375 -1.421875 13.671875 8.265625 
Q 6.984375 17.96875 6.984375 36.375 
Q 6.984375 53.65625 15.1875 63.9375 
Q 23.390625 74.21875 37.203125 74.21875 
Q 40.921875 74.21875 44.703125 73.484375 
Q 48.484375 72.75 52.59375 71.296875 
z
" id="DejaVuSans-54"/>
      <path d="M 10.984375 1.515625 
L 10.984375 10.5 
Q 14.703125 8.734375 18.5 7.8125 
Q 22.3125 6.890625 25.984375 6.890625 
Q 35.75 6.890625 40.890625 13.453125 
Q 46.046875 20.015625 46.78125 33.40625 
Q 43.953125 29.203125 39.59375 26.953125 
Q 35.25 24.703125 29.984375 24.703125 
Q 19.046875 24.703125 12.671875 31.3125 
Q 6.296875 37.9375 6.296875 49.421875 
Q 6.296875 60.640625 12.9375 67.421875 
Q 19.578125 74.21875 30.609375 74.21875 
Q 43.265625 74.21875 49.921875 64.515625 
Q 56.59375 54.828125 56.59375 36.375 
Q 56.59375 19.140625 48.40625 8.859375 
Q 40.234375 -1.421875 26.421875 -1.421875 
Q 22.703125 -1.421875 18.890625 -0.6875 
Q 15.09375 0.046875 10.984375 1.515625 
z
M 30.609375 32.421875 
Q 37.25 32.421875 41.125 36.953125 
Q 45.015625 41.5 45.015625 49.421875 
Q 45.015625 57.28125 41.125 61.84375 
Q 37.25 66.40625 30.609375 66.40625 
Q 23.96875 66.40625 20.09375 61.84375 
Q 16.21875 57.28125 16.21875 49.421875 
Q 16.21875 41.5 20.09375 36.953125 
Q 23.96875 32.421875 30.609375 32.421875 
z
" id="DejaVuSans-57"/>
      <path d="M 12.5 -9.28125 
L 15.921875 -9.28125 
Q 22.75 -9.28125 24.828125 -7.171875 
Q 26.90625 -5.078125 26.90625 1.90625 
L 26.90625 14.015625 
Q 26.90625 21.625 29.09375 25.09375 
Q 31.296875 28.5625 36.71875 29.890625 
Q 31.296875 31.109375 29.09375 34.5625 
Q 26.90625 38.03125 26.90625 45.703125 
L 26.90625 57.8125 
Q 26.90625 64.75 24.828125 66.875 
Q 22.75 69 15.921875 69 
L 12.5 69 
L 12.5 75.984375 
L 15.578125 75.984375 
Q 27.734375 75.984375 31.8125 72.390625 
Q 35.890625 68.796875 35.890625 58.015625 
L 35.890625 46.296875 
Q 35.890625 39.015625 38.515625 36.203125 
Q 41.15625 33.40625 48.09375 33.40625 
L 51.125 33.40625 
L 51.125 26.421875 
L 48.09375 26.421875 
Q 41.15625 26.421875 38.515625 23.578125 
Q 35.890625 20.75 35.890625 13.375 
L 35.890625 1.703125 
Q 35.890625 -9.078125 31.8125 -12.6875 
Q 27.734375 -16.3125 15.578125 -16.3125 
L 12.5 -16.3125 
z
" id="DejaVuSans-125"/>
      <path d="M 11.71875 12.40625 
L 22.015625 12.40625 
L 22.015625 4 
L 14.015625 -11.625 
L 7.71875 -11.625 
L 11.71875 4 
z
" id="DejaVuSans-44"/>
      <path d="M 10.796875 72.90625 
L 49.515625 72.90625 
L 49.515625 64.59375 
L 19.828125 64.59375 
L 19.828125 46.734375 
Q 21.96875 47.46875 24.109375 47.828125 
Q 26.265625 48.1875 28.421875 48.1875 
Q 40.625 48.1875 47.75 41.5 
Q 54.890625 34.8125 54.890625 23.390625 
Q 54.890625 11.625 47.5625 5.09375 
Q 40.234375 -1.421875 26.90625 -1.421875 
Q 22.3125 -1.421875 17.546875 -0.640625 
Q 12.796875 0.140625 7.71875 1.703125 
L 7.71875 11.625 
Q 12.109375 9.234375 16.796875 8.0625 
Q 21.484375 6.890625 26.703125 6.890625 
Q 35.15625 6.890625 40.078125 11.328125 
Q 45.015625 15.765625 45.015625 23.390625 
Q 45.015625 31 40.078125 35.4375 
Q 35.15625 39.890625 26.703125 39.890625 
Q 22.75 39.890625 18.8125 39.015625 
Q 14.890625 38.140625 10.796875 36.28125 
z
" id="DejaVuSans-53"/>
     </defs>
     <use xlink:href="#DejaVuSans-123"/>
     <use x="63.623047" xlink:href="#DejaVuSans-102"/>
     <use x="98.828125" xlink:href="#DejaVuSans-54"/>
     <use x="162.451172" xlink:href="#DejaVuSans-45"/>
     <use x="198.535156" xlink:href="#DejaVuSans-102"/>
     <use x="233.740234" xlink:href="#DejaVuSans-57"/>
     <use x="297.363281" xlink:href="#DejaVuSans-125"/>
     <use x="360.986328" xlink:href="#DejaVuSans-44"/>
     <use x="392.773438" xlink:href="#DejaVuSans-32"/>
     <use x="424.560547" xlink:href="#DejaVuSans-53"/>
     <use x="488.183594" xlink:href="#DejaVuSans-45"/>
     <use x="524.267578" xlink:href="#DejaVuSans-68"/>
    </g>
   </g>
   <g id="text_7">
    <!-- v2.4 -->
    <g style="fill:#808080;" transform="translate(219.489063 288.777272)scale(0.1 -0.1)">
     <defs>
      <path d="M 2.984375 54.6875 
L 12.5 54.6875 
L 29.59375 8.796875 
L 46.6875 54.6875 
L 56.203125 54.6875 
L 35.6875 0 
L 23.484375 0 
z
" id="DejaVuSans-118"/>
      <path d="M 19.1875 8.296875 
L 53.609375 8.296875 
L 53.609375 0 
L 7.328125 0 
L 7.328125 8.296875 
Q 12.9375 14.109375 22.625 23.890625 
Q 32.328125 33.6875 34.8125 36.53125 
Q 39.546875 41.84375 41.421875 45.53125 
Q 43.3125 49.21875 43.3125 52.78125 
Q 43.3125 58.59375 39.234375 62.25 
Q 35.15625 65.921875 28.609375 65.921875 
Q 23.96875 65.921875 18.8125 64.3125 
Q 13.671875 62.703125 7.8125 59.421875 
L 7.8125 69.390625 
Q 13.765625 71.78125 18.9375 73 
Q 24.125 74.21875 28.421875 74.21875 
Q 39.75 74.21875 46.484375 68.546875 
Q 53.21875 62.890625 53.21875 53.421875 
Q 53.21875 48.921875 51.53125 44.890625 
Q 49.859375 40.875 45.40625 35.40625 
Q 44.1875 33.984375 37.640625 27.21875 
Q 31.109375 20.453125 19.1875 8.296875 
z
" id="DejaVuSans-50"/>
      <path d="M 10.6875 12.40625 
L 21 12.40625 
L 21 0 
L 10.6875 0 
z
" id="DejaVuSans-46"/>
     </defs>
     <use xlink:href="#DejaVuSans-118"/>
     <use x="59.179688" xlink:href="#DejaVuSans-50"/>
     <use x="122.802734" xlink:href="#DejaVuSans-46"/>
     <use x="154.589844" xlink:href="#DejaVuSans-52"/>
    </g>
   </g>
  </g>
 </g>
 <defs>
  <clipPath id="p260ddd0dd8">
   <rect height="290.304" width="460.8" x="0" y="3.456"/>
  </clipPath>
 </defs>
</svg>
