<?xml version="1.0" encoding="utf-8" standalone="no"?>
<!DOCTYPE svg PUBLIC "-//W3C//DTD SVG 1.1//EN"
  "http://www.w3.org/Graphics/SVG/1.1/DTD/svg11.dtd">
<!-- Created with matplotlib (https://matplotlib.org/) -->
<svg height="345.6pt" version="1.1" viewBox="0 0 460.8 345.6" width="460.8pt" xmlns="http://www.w3.org/2000/svg" xmlns:xlink="http://www.w3.org/1999/xlink">
 <metadata>
  <rdf:RDF xmlns:cc="http://creativecommons.org/ns#" xmlns:dc="http://purl.org/dc/elements/1.1/" xmlns:rdf="http://www.w3.org/1999/02/22-rdf-syntax-ns#">
   <cc:Work>
    <dc:type rdf:resource="http://purl.org/dc/dcmitype/StillImage"/>
    <dc:date>2021-08-04T15:01:53.359870</dc:date>
    <dc:format>image/svg+xml</dc:format>
    <dc:creator>
     <cc:Agent>
      <dc:title>Matplotlib v3.3.1, https://matplotlib.org/</dc:title>
     </cc:Agent>
    </dc:creator>
   </cc:Work>
  </rdf:RDF>
 </metadata>
 <defs>
  <style type="text/css">*{stroke-linecap:butt;stroke-linejoin:round;}</style>
 </defs>
 <g id="figure_1">
  <g id="patch_1">
   <path d="M 0 345.6 
L 460.8 345.6 
L 460.8 0 
L 0 0 
z
" style="fill:#ffffff;"/>
  </g>
  <g id="axes_1">
   <g id="patch_2">
    <path d="M 0 293.76 
L 460.8 293.76 
L 460.8 3.456 
L 0 3.456 
z
" style="fill:#ffffff;"/>
   </g>
   <g id="matplotlib.axis_1">
    <g id="xtick_1">
     <g id="line2d_1">
      <path clip-path="url(#p56ff3dc6f7)" d="M 106.364787 293.76 
L 106.364787 3.456 
" style="fill:none;stroke:#b0b0b0;stroke-linecap:square;stroke-width:0.8;"/>
     </g>
     <g id="line2d_2">
      <defs>
       <path d="M 0 0 
L 0 3.5 
" id="m96bff745d4" style="stroke:#000000;stroke-width:0.8;"/>
      </defs>
      <g>
       <use style="stroke:#000000;stroke-width:0.8;" x="106.364787" xlink:href="#m96bff745d4" y="293.76"/>
      </g>
     </g>
     <g id="text_1">
      <!-- -4 -->
      <g transform="translate(96.394475 315.956875)scale(0.2 -0.2)">
       <defs>
        <path d="M 4.890625 31.390625 
L 31.203125 31.390625 
L 31.203125 23.390625 
L 4.890625 23.390625 
z
" id="DejaVuSans-45"/>
        <path d="M 37.796875 64.3125 
L 12.890625 25.390625 
L 37.796875 25.390625 
z
M 35.203125 72.90625 
L 47.609375 72.90625 
L 47.609375 25.390625 
L 58.015625 25.390625 
L 58.015625 17.1875 
L 47.609375 17.1875 
L 47.609375 0 
L 37.796875 0 
L 37.796875 17.1875 
L 4.890625 17.1875 
L 4.890625 26.703125 
z
" id="DejaVuSans-52"/>
       </defs>
       <use xlink:href="#DejaVuSans-45"/>
       <use x="36.083984" xlink:href="#DejaVuSans-52"/>
      </g>
     </g>
    </g>
    <g id="xtick_2">
     <g id="line2d_3">
      <path clip-path="url(#p56ff3dc6f7)" d="M 212.84461 293.76 
L 212.84461 3.456 
" style="fill:none;stroke:#b0b0b0;stroke-linecap:square;stroke-width:0.8;"/>
     </g>
     <g id="line2d_4">
      <g>
       <use style="stroke:#000000;stroke-width:0.8;" x="212.84461" xlink:href="#m96bff745d4" y="293.76"/>
      </g>
     </g>
     <g id="text_2">
      <!-- 0 -->
      <g transform="translate(206.48211 315.956875)scale(0.2 -0.2)">
       <defs>
        <path d="M 31.78125 66.40625 
Q 24.171875 66.40625 20.328125 58.90625 
Q 16.5 51.421875 16.5 36.375 
Q 16.5 21.390625 20.328125 13.890625 
Q 24.171875 6.390625 31.78125 6.390625 
Q 39.453125 6.390625 43.28125 13.890625 
Q 47.125 21.390625 47.125 36.375 
Q 47.125 51.421875 43.28125 58.90625 
Q 39.453125 66.40625 31.78125 66.40625 
z
M 31.78125 74.21875 
Q 44.046875 74.21875 50.515625 64.515625 
Q 56.984375 54.828125 56.984375 36.375 
Q 56.984375 17.96875 50.515625 8.265625 
Q 44.046875 -1.421875 31.78125 -1.421875 
Q 19.53125 -1.421875 13.0625 8.265625 
Q 6.59375 17.96875 6.59375 36.375 
Q 6.59375 54.828125 13.0625 64.515625 
Q 19.53125 74.21875 31.78125 74.21875 
z
" id="DejaVuSans-48"/>
       </defs>
       <use xlink:href="#DejaVuSans-48"/>
      </g>
     </g>
    </g>
    <g id="xtick_3">
     <g id="line2d_5">
      <path clip-path="url(#p56ff3dc6f7)" d="M 319.324432 293.76 
L 319.324432 3.456 
" style="fill:none;stroke:#b0b0b0;stroke-linecap:square;stroke-width:0.8;"/>
     </g>
     <g id="line2d_6">
      <g>
       <use style="stroke:#000000;stroke-width:0.8;" x="319.324432" xlink:href="#m96bff745d4" y="293.76"/>
      </g>
     </g>
     <g id="text_3">
      <!-- 4 -->
      <g transform="translate(312.961932 315.956875)scale(0.2 -0.2)">
       <use xlink:href="#DejaVuSans-52"/>
      </g>
     </g>
    </g>
    <g id="xtick_4">
     <g id="line2d_7">
      <path clip-path="url(#p56ff3dc6f7)" d="M 425.804254 293.76 
L 425.804254 3.456 
" style="fill:none;stroke:#b0b0b0;stroke-linecap:square;stroke-width:0.8;"/>
     </g>
     <g id="line2d_8">
      <g>
       <use style="stroke:#000000;stroke-width:0.8;" x="425.804254" xlink:href="#m96bff745d4" y="293.76"/>
      </g>
     </g>
     <g id="text_4">
      <!-- 8 -->
      <g transform="translate(419.441754 315.956875)scale(0.2 -0.2)">
       <defs>
        <path d="M 31.78125 34.625 
Q 24.75 34.625 20.71875 30.859375 
Q 16.703125 27.09375 16.703125 20.515625 
Q 16.703125 13.921875 20.71875 10.15625 
Q 24.75 6.390625 31.78125 6.390625 
Q 38.8125 6.390625 42.859375 10.171875 
Q 46.921875 13.96875 46.921875 20.515625 
Q 46.921875 27.09375 42.890625 30.859375 
Q 38.875 34.625 31.78125 34.625 
z
M 21.921875 38.8125 
Q 15.578125 40.375 12.03125 44.71875 
Q 8.5 49.078125 8.5 55.328125 
Q 8.5 64.0625 14.71875 69.140625 
Q 20.953125 74.21875 31.78125 74.21875 
Q 42.671875 74.21875 48.875 69.140625 
Q 55.078125 64.0625 55.078125 55.328125 
Q 55.078125 49.078125 51.53125 44.71875 
Q 48 40.375 41.703125 38.8125 
Q 48.828125 37.15625 52.796875 32.3125 
Q 56.78125 27.484375 56.78125 20.515625 
Q 56.78125 9.90625 50.3125 4.234375 
Q 43.84375 -1.421875 31.78125 -1.421875 
Q 19.734375 -1.421875 13.25 4.234375 
Q 6.78125 9.90625 6.78125 20.515625 
Q 6.78125 27.484375 10.78125 32.3125 
Q 14.796875 37.15625 21.921875 38.8125 
z
M 18.3125 54.390625 
Q 18.3125 48.734375 21.84375 45.5625 
Q 25.390625 42.390625 31.78125 42.390625 
Q 38.140625 42.390625 41.71875 45.5625 
Q 45.3125 48.734375 45.3125 54.390625 
Q 45.3125 60.0625 41.71875 63.234375 
Q 38.140625 66.40625 31.78125 66.40625 
Q 25.390625 66.40625 21.84375 63.234375 
Q 18.3125 60.0625 18.3125 54.390625 
z
" id="DejaVuSans-56"/>
       </defs>
       <use xlink:href="#DejaVuSans-56"/>
      </g>
     </g>
    </g>
    <g id="text_5">
     <!-- log10 of Df -->
     <g transform="translate(175.214063 339.313125)scale(0.2 -0.2)">
      <defs>
       <path d="M 9.421875 75.984375 
L 18.40625 75.984375 
L 18.40625 0 
L 9.421875 0 
z
" id="DejaVuSans-108"/>
       <path d="M 30.609375 48.390625 
Q 23.390625 48.390625 19.1875 42.75 
Q 14.984375 37.109375 14.984375 27.296875 
Q 14.984375 17.484375 19.15625 11.84375 
Q 23.34375 6.203125 30.609375 6.203125 
Q 37.796875 6.203125 41.984375 11.859375 
Q 46.1875 17.53125 46.1875 27.296875 
Q 46.1875 37.015625 41.984375 42.703125 
Q 37.796875 48.390625 30.609375 48.390625 
z
M 30.609375 56 
Q 42.328125 56 49.015625 48.375 
Q 55.71875 40.765625 55.71875 27.296875 
Q 55.71875 13.875 49.015625 6.21875 
Q 42.328125 -1.421875 30.609375 -1.421875 
Q 18.84375 -1.421875 12.171875 6.21875 
Q 5.515625 13.875 5.515625 27.296875 
Q 5.515625 40.765625 12.171875 48.375 
Q 18.84375 56 30.609375 56 
z
" id="DejaVuSans-111"/>
       <path d="M 45.40625 27.984375 
Q 45.40625 37.75 41.375 43.109375 
Q 37.359375 48.484375 30.078125 48.484375 
Q 22.859375 48.484375 18.828125 43.109375 
Q 14.796875 37.75 14.796875 27.984375 
Q 14.796875 18.265625 18.828125 12.890625 
Q 22.859375 7.515625 30.078125 7.515625 
Q 37.359375 7.515625 41.375 12.890625 
Q 45.40625 18.265625 45.40625 27.984375 
z
M 54.390625 6.78125 
Q 54.390625 -7.171875 48.1875 -13.984375 
Q 42 -20.796875 29.203125 -20.796875 
Q 24.46875 -20.796875 20.265625 -20.09375 
Q 16.0625 -19.390625 12.109375 -17.921875 
L 12.109375 -9.1875 
Q 16.0625 -11.328125 19.921875 -12.34375 
Q 23.78125 -13.375 27.78125 -13.375 
Q 36.625 -13.375 41.015625 -8.765625 
Q 45.40625 -4.15625 45.40625 5.171875 
L 45.40625 9.625 
Q 42.625 4.78125 38.28125 2.390625 
Q 33.9375 0 27.875 0 
Q 17.828125 0 11.671875 7.65625 
Q 5.515625 15.328125 5.515625 27.984375 
Q 5.515625 40.671875 11.671875 48.328125 
Q 17.828125 56 27.875 56 
Q 33.9375 56 38.28125 53.609375 
Q 42.625 51.21875 45.40625 46.390625 
L 45.40625 54.6875 
L 54.390625 54.6875 
z
" id="DejaVuSans-103"/>
       <path d="M 12.40625 8.296875 
L 28.515625 8.296875 
L 28.515625 63.921875 
L 10.984375 60.40625 
L 10.984375 69.390625 
L 28.421875 72.90625 
L 38.28125 72.90625 
L 38.28125 8.296875 
L 54.390625 8.296875 
L 54.390625 0 
L 12.40625 0 
z
" id="DejaVuSans-49"/>
       <path id="DejaVuSans-32"/>
       <path d="M 37.109375 75.984375 
L 37.109375 68.5 
L 28.515625 68.5 
Q 23.6875 68.5 21.796875 66.546875 
Q 19.921875 64.59375 19.921875 59.515625 
L 19.921875 54.6875 
L 34.71875 54.6875 
L 34.71875 47.703125 
L 19.921875 47.703125 
L 19.921875 0 
L 10.890625 0 
L 10.890625 47.703125 
L 2.296875 47.703125 
L 2.296875 54.6875 
L 10.890625 54.6875 
L 10.890625 58.5 
Q 10.890625 67.625 15.140625 71.796875 
Q 19.390625 75.984375 28.609375 75.984375 
z
" id="DejaVuSans-102"/>
       <path d="M 19.671875 64.796875 
L 19.671875 8.109375 
L 31.59375 8.109375 
Q 46.6875 8.109375 53.6875 14.9375 
Q 60.6875 21.78125 60.6875 36.53125 
Q 60.6875 51.171875 53.6875 57.984375 
Q 46.6875 64.796875 31.59375 64.796875 
z
M 9.8125 72.90625 
L 30.078125 72.90625 
Q 51.265625 72.90625 61.171875 64.09375 
Q 71.09375 55.28125 71.09375 36.53125 
Q 71.09375 17.671875 61.125 8.828125 
Q 51.171875 0 30.078125 0 
L 9.8125 0 
z
" id="DejaVuSans-68"/>
      </defs>
      <use xlink:href="#DejaVuSans-108"/>
      <use x="27.783203" xlink:href="#DejaVuSans-111"/>
      <use x="88.964844" xlink:href="#DejaVuSans-103"/>
      <use x="152.441406" xlink:href="#DejaVuSans-49"/>
      <use x="216.064453" xlink:href="#DejaVuSans-48"/>
      <use x="279.6875" xlink:href="#DejaVuSans-32"/>
      <use x="311.474609" xlink:href="#DejaVuSans-111"/>
      <use x="372.65625" xlink:href="#DejaVuSans-102"/>
      <use x="407.861328" xlink:href="#DejaVuSans-32"/>
      <use x="439.648438" xlink:href="#DejaVuSans-68"/>
      <use x="516.650391" xlink:href="#DejaVuSans-102"/>
     </g>
    </g>
   </g>
   <g id="matplotlib.axis_2">
    <g id="ytick_1">
     <g id="line2d_9">
      <path clip-path="url(#p56ff3dc6f7)" d="M 0 293.76 
L 460.8 293.76 
" style="fill:none;stroke:#b0b0b0;stroke-linecap:square;stroke-width:0.8;"/>
     </g>
     <g id="line2d_10">
      <defs>
       <path d="M 0 0 
L -3.5 0 
" id="m3eced94965" style="stroke:#000000;stroke-width:0.8;"/>
      </defs>
      <g>
       <use style="stroke:#000000;stroke-width:0.8;" x="0" xlink:href="#m3eced94965" y="293.76"/>
      </g>
     </g>
    </g>
    <g id="ytick_2">
     <g id="line2d_11">
      <path clip-path="url(#p56ff3dc6f7)" d="M 0 236.274059 
L 460.8 236.274059 
" style="fill:none;stroke:#b0b0b0;stroke-linecap:square;stroke-width:0.8;"/>
     </g>
     <g id="line2d_12">
      <g>
       <use style="stroke:#000000;stroke-width:0.8;" x="0" xlink:href="#m3eced94965" y="236.274059"/>
      </g>
     </g>
    </g>
    <g id="ytick_3">
     <g id="line2d_13">
      <path clip-path="url(#p56ff3dc6f7)" d="M 0 178.788119 
L 460.8 178.788119 
" style="fill:none;stroke:#b0b0b0;stroke-linecap:square;stroke-width:0.8;"/>
     </g>
     <g id="line2d_14">
      <g>
       <use style="stroke:#000000;stroke-width:0.8;" x="0" xlink:href="#m3eced94965" y="178.788119"/>
      </g>
     </g>
    </g>
    <g id="ytick_4">
     <g id="line2d_15">
      <path clip-path="url(#p56ff3dc6f7)" d="M 0 121.302178 
L 460.8 121.302178 
" style="fill:none;stroke:#b0b0b0;stroke-linecap:square;stroke-width:0.8;"/>
     </g>
     <g id="line2d_16">
      <g>
       <use style="stroke:#000000;stroke-width:0.8;" x="0" xlink:href="#m3eced94965" y="121.302178"/>
      </g>
     </g>
    </g>
    <g id="ytick_5">
     <g id="line2d_17">
      <path clip-path="url(#p56ff3dc6f7)" d="M 0 63.816238 
L 460.8 63.816238 
" style="fill:none;stroke:#b0b0b0;stroke-linecap:square;stroke-width:0.8;"/>
     </g>
     <g id="line2d_18">
      <g>
       <use style="stroke:#000000;stroke-width:0.8;" x="0" xlink:href="#m3eced94965" y="63.816238"/>
      </g>
     </g>
    </g>
    <g id="ytick_6">
     <g id="line2d_19">
      <path clip-path="url(#p56ff3dc6f7)" d="M 0 6.330297 
L 460.8 6.330297 
" style="fill:none;stroke:#b0b0b0;stroke-linecap:square;stroke-width:0.8;"/>
     </g>
     <g id="line2d_20">
      <g>
       <use style="stroke:#000000;stroke-width:0.8;" x="0" xlink:href="#m3eced94965" y="6.330297"/>
      </g>
     </g>
    </g>
   </g>
   <g id="line2d_21">
    <path clip-path="url(#p56ff3dc6f7)" d="M 236.559702 293.76 
L 236.559702 289.927604 
L 238.50773 289.927604 
L 238.50773 286.095208 
L 239.177075 286.095208 
L 239.177075 282.262812 
L 241.072637 282.262812 
L 241.072637 278.430416 
L 241.681324 278.430416 
L 241.681324 274.59802 
L 241.898167 274.59802 
L 241.898167 270.765624 
L 242.57661 270.765624 
L 242.687689 263.100832 
L 243.507787 263.100832 
L 243.507787 259.268436 
L 243.877729 259.268436 
L 243.877729 255.43604 
L 244.228749 255.43604 
L 244.228749 251.603644 
L 245.550066 251.603644 
L 245.550066 247.771248 
L 248.398398 247.771248 
L 248.398398 243.938851 
L 250.19223 243.938851 
L 250.19223 240.106455 
L 250.538783 240.106455 
L 250.538783 236.274059 
L 263.856404 236.274059 
L 263.856404 232.441663 
L 264.92295 232.441663 
L 264.92295 228.609267 
L 266.819137 228.609267 
L 266.819137 224.776871 
L 267.162885 224.776871 
L 267.162885 220.944475 
L 267.420087 220.944475 
L 267.420087 217.112079 
L 267.58598 217.112079 
L 267.58598 213.279683 
L 268.046829 213.279683 
L 268.046829 209.447287 
L 268.206521 209.447287 
L 268.206521 205.614891 
L 268.408957 205.614891 
L 268.408957 201.782495 
L 268.782755 201.782495 
L 268.782755 197.950099 
L 269.18614 197.950099 
L 269.18614 194.117703 
L 269.554956 194.117703 
L 269.554956 190.285307 
L 269.886183 190.285307 
L 269.886183 186.452911 
L 270.435972 186.452911 
L 270.435972 182.620515 
L 270.751795 182.620515 
L 270.751795 178.788119 
L 290.621409 178.788119 
L 290.621409 174.955723 
L 291.499419 174.955723 
L 291.499419 171.123327 
L 293.240817 171.123327 
L 293.240817 167.290931 
L 294.94433 167.290931 
L 294.94433 163.458535 
L 295.379422 163.458535 
L 295.379422 159.626139 
L 295.563338 159.626139 
L 295.638796 148.12895 
L 295.954328 148.12895 
L 295.954328 144.296554 
L 296.223971 144.296554 
L 296.269385 136.631762 
L 297.983977 136.631762 
L 297.983977 132.799366 
L 298.152223 132.799366 
L 298.152223 128.96697 
L 298.493903 128.96697 
L 298.493903 125.134574 
L 299.501039 125.134574 
L 299.501039 121.302178 
L 340.854683 121.302178 
L 340.854683 117.469782 
L 343.028959 117.469782 
L 343.028959 113.637386 
L 347.387728 113.637386 
L 347.387728 109.80499 
L 347.806353 109.80499 
L 347.806353 105.972594 
L 351.055264 105.972594 
L 351.055264 102.140198 
L 356.270749 102.140198 
L 356.270749 98.307802 
L 357.175972 98.307802 
L 357.175972 94.475406 
L 358.850941 94.475406 
L 358.850941 90.64301 
L 359.723053 90.64301 
L 359.723053 86.810614 
L 360.041227 86.810614 
L 360.041227 82.978218 
L 363.374669 82.978218 
L 363.374669 79.145822 
L 367.132263 79.145822 
L 367.132263 75.313426 
L 368.622706 75.313426 
L 368.622706 71.48103 
L 372.486392 71.48103 
L 372.486392 67.648634 
L 373.281233 67.648634 
L 373.281233 63.816238 
L 404.87812 63.816238 
L 404.87812 59.983842 
L 407.565831 59.983842 
L 407.565831 56.151446 
L 414.367903 56.151446 
L 414.367903 52.31905 
L 417.110745 52.31905 
L 417.110745 48.486653 
L 417.561205 48.486653 
L 417.561205 44.654257 
L 418.625408 44.654257 
L 418.625408 40.821861 
L 419.306439 40.821861 
L 419.306439 36.989465 
L 419.521455 36.989465 
L 419.521455 33.157069 
L 420.634826 33.157069 
L 420.634826 29.324673 
L 421.262196 29.324673 
L 421.262196 25.492277 
L 422.472099 25.492277 
L 422.472099 21.659881 
L 423.037022 21.659881 
L 423.037022 17.827485 
L 425.821201 17.827485 
L 425.914868 10.162693 
L 427.371604 10.162693 
L 427.371604 6.330297 
L 427.371604 6.330297 
L 460.8 6.330297 
L 460.8 6.330297 
" style="fill:none;stroke:#ff0000;stroke-linecap:square;stroke-width:3;"/>
   </g>
   <g id="line2d_22">
    <path clip-path="url(#p56ff3dc6f7)" d="M 245.542592 293.76 
L 245.542592 289.927604 
L 249.685218 289.927604 
L 249.685218 286.095208 
L 253.437483 286.095208 
L 253.437483 282.262812 
L 254.195618 282.262812 
L 254.195618 278.430416 
L 254.527968 278.430416 
L 254.527968 274.59802 
L 255.278768 274.59802 
L 255.278768 270.765624 
L 257.562022 270.765624 
L 257.562022 266.933228 
L 258.254818 266.933228 
L 258.254818 263.100832 
L 258.419107 263.100832 
L 258.518615 255.43604 
L 258.695018 255.43604 
L 258.695018 251.603644 
L 259.059108 251.603644 
L 259.059108 247.771248 
L 262.14974 247.771248 
L 262.14974 243.938851 
L 264.512461 243.938851 
L 264.512461 240.106455 
L 270.773975 240.106455 
L 270.773975 236.274059 
L 297.185963 236.274059 
L 297.185963 232.441663 
L 299.184481 232.441663 
L 299.184481 228.609267 
L 299.331298 228.609267 
L 299.331298 224.776871 
L 300.283666 224.776871 
L 300.283666 220.944475 
L 300.825131 220.944475 
L 300.920495 213.279683 
L 301.104605 213.279683 
L 301.104605 209.447287 
L 301.823141 209.447287 
L 301.865253 197.950099 
L 302.268983 197.950099 
L 302.268983 194.117703 
L 302.824724 194.117703 
L 302.824724 190.285307 
L 303.0623 190.285307 
L 303.103101 182.620515 
L 304.013178 182.620515 
L 304.013178 178.788119 
L 332.218592 178.788119 
L 332.218592 174.955723 
L 353.877824 174.955723 
L 353.877824 171.123327 
L 357.894013 171.123327 
L 357.894013 167.290931 
L 364.842204 167.290931 
L 364.842204 163.458535 
L 368.393357 163.458535 
L 368.393357 159.626139 
L 377.073949 159.626139 
L 377.073949 155.793743 
L 379.824527 155.793743 
L 379.824527 151.961347 
L 380.484676 151.961347 
L 380.484676 148.12895 
L 382.243471 148.12895 
L 382.243471 144.296554 
L 383.25082 144.296554 
L 383.25082 140.464158 
L 383.525083 140.464158 
L 383.525083 136.631762 
L 383.641264 136.631762 
L 383.641264 132.799366 
L 386.208619 132.799366 
L 386.208619 128.96697 
L 386.961461 128.96697 
L 386.961461 125.134574 
L 387.96901 125.134574 
L 387.96901 121.302178 
L 389.705725 121.302178 
L 389.705725 117.469782 
L 391.077989 117.469782 
L 391.138275 109.80499 
L 393.322791 109.80499 
L 393.322791 105.972594 
L 395.356362 105.972594 
L 395.356362 102.140198 
L 395.532563 102.140198 
L 395.532563 98.307802 
L 395.719487 98.307802 
L 395.719487 94.475406 
L 397.50075 94.475406 
L 397.50075 90.64301 
L 397.929325 90.64301 
L 397.929325 86.810614 
L 398.377707 86.810614 
L 398.377707 82.978218 
L 399.107399 82.978218 
L 399.107399 79.145822 
L 400.371056 79.145822 
L 400.371056 75.313426 
L 401.079582 75.313426 
L 401.079582 71.48103 
L 402.433467 71.48103 
L 402.433467 67.648634 
L 411.974126 67.648634 
L 411.974126 63.816238 
L 424.716647 63.816238 
L 424.716647 59.983842 
L 425.293594 59.983842 
L 425.293594 56.151446 
L 431.446422 56.151446 
L 431.446422 52.31905 
L 431.682083 52.31905 
L 431.682083 48.486653 
L 432.449024 48.486653 
L 432.449024 44.654257 
L 432.637812 44.654257 
L 432.637812 40.821861 
L 434.059834 40.821861 
L 434.059834 36.989465 
L 437.948984 36.989465 
L 437.948984 33.157069 
L 439.956971 33.157069 
L 439.956971 29.324673 
L 442.63535 29.324673 
L 442.63535 25.492277 
L 444.01345 25.492277 
L 444.01345 21.659881 
L 445.60509 21.659881 
L 445.60509 17.827485 
L 445.776796 17.827485 
L 445.776796 13.995089 
L 446.304399 13.995089 
L 446.304399 10.162693 
L 446.706372 10.162693 
L 446.706372 6.330297 
L 446.706372 6.330297 
L 460.8 6.330297 
L 460.8 6.330297 
" style="fill:none;stroke:#00bfbf;stroke-linecap:square;stroke-width:1.5;"/>
   </g>
   <g id="line2d_23">
    <path clip-path="url(#p56ff3dc6f7)" d="M 245.542043 293.76 
L 245.542043 289.927604 
L 249.684889 289.927604 
L 249.684889 286.095208 
L 253.43704 286.095208 
L 253.43704 282.262812 
L 254.195571 282.262812 
L 254.195571 278.430416 
L 254.527754 278.430416 
L 254.527754 274.59802 
L 255.278768 274.59802 
L 255.278768 270.765624 
L 257.56173 270.765624 
L 257.56173 266.933228 
L 258.254818 266.933228 
L 258.254818 263.100832 
L 258.419014 263.100832 
L 258.518516 255.43604 
L 258.694656 255.43604 
L 258.694656 251.603644 
L 259.058813 251.603644 
L 259.058813 247.771248 
L 262.149615 247.771248 
L 262.149615 243.938851 
L 264.512461 243.938851 
L 264.512461 240.106455 
L 270.773618 240.106455 
L 270.773618 236.274059 
L 297.185827 236.274059 
L 297.185827 232.441663 
L 299.18447 232.441663 
L 299.18447 228.609267 
L 299.331215 228.609267 
L 299.331215 224.776871 
L 300.283583 224.776871 
L 300.283583 220.944475 
L 300.825115 220.944475 
L 300.920399 213.279683 
L 301.10457 213.279683 
L 301.10457 209.447287 
L 301.823141 209.447287 
L 301.865168 197.950099 
L 302.268878 197.950099 
L 302.268878 194.117703 
L 302.824724 194.117703 
L 302.824724 190.285307 
L 303.062263 190.285307 
L 303.103093 182.620515 
L 304.013166 182.620515 
L 304.013166 178.788119 
L 332.212663 178.788119 
L 332.212663 174.955723 
L 353.876521 174.955723 
L 353.876521 171.123327 
L 357.891681 171.123327 
L 357.891681 167.290931 
L 364.837733 167.290931 
L 364.837733 163.458535 
L 368.391609 163.458535 
L 368.391609 159.626139 
L 377.073222 159.626139 
L 377.073222 155.793743 
L 379.824527 155.793743 
L 379.824527 151.961347 
L 380.483981 151.961347 
L 380.483981 148.12895 
L 382.243124 148.12895 
L 382.243124 144.296554 
L 383.250679 144.296554 
L 383.250679 140.464158 
L 383.524243 140.464158 
L 383.524243 136.631762 
L 383.640251 136.631762 
L 383.640251 132.799366 
L 386.207613 132.799366 
L 386.207613 128.96697 
L 386.960701 128.96697 
L 386.960701 125.134574 
L 387.96901 125.134574 
L 387.96901 121.302178 
L 389.704864 121.302178 
L 389.704864 117.469782 
L 391.077721 117.469782 
L 391.138028 109.80499 
L 393.321688 109.80499 
L 393.321688 105.972594 
L 395.355899 105.972594 
L 395.355899 102.140198 
L 395.532229 102.140198 
L 395.532229 98.307802 
L 395.71938 98.307802 
L 395.71938 94.475406 
L 397.50075 94.475406 
L 397.50075 90.64301 
L 397.929323 90.64301 
L 397.929323 86.810614 
L 398.37763 86.810614 
L 398.37763 82.978218 
L 399.107399 82.978218 
L 399.107399 79.145822 
L 400.371056 79.145822 
L 400.371056 75.313426 
L 401.079488 75.313426 
L 401.079488 71.48103 
L 402.433133 71.48103 
L 402.433133 67.648634 
L 411.974126 67.648634 
L 411.974126 63.816238 
L 424.716477 63.816238 
L 424.716477 59.983842 
L 425.293265 59.983842 
L 425.293265 56.151446 
L 431.446099 56.151446 
L 431.446099 52.31905 
L 431.681753 52.31905 
L 431.681753 48.486653 
L 432.448767 48.486653 
L 432.448767 44.654257 
L 432.637105 44.654257 
L 432.637105 40.821861 
L 434.059448 40.821861 
L 434.059448 36.989465 
L 437.948332 36.989465 
L 437.948332 33.157069 
L 439.956901 33.157069 
L 439.956901 29.324673 
L 442.635287 29.324673 
L 442.635287 25.492277 
L 444.012979 25.492277 
L 444.012979 21.659881 
L 445.60509 21.659881 
L 445.60509 17.827485 
L 445.776631 17.827485 
L 445.776631 13.995089 
L 446.304057 13.995089 
L 446.304057 10.162693 
L 446.706372 10.162693 
L 446.706372 6.330297 
L 446.706372 6.330297 
L 460.8 6.330297 
L 460.8 6.330297 
" style="fill:none;stroke:#bf00bf;stroke-linecap:square;stroke-width:1.5;"/>
   </g>
   <g id="line2d_24">
    <path clip-path="url(#p56ff3dc6f7)" d="M 245.53953 293.76 
L 245.53953 289.927604 
L 249.681901 289.927604 
L 249.681901 286.095208 
L 253.434672 286.095208 
L 253.434672 282.262812 
L 254.19358 282.262812 
L 254.19358 278.430416 
L 254.524742 278.430416 
L 254.524742 274.59802 
L 255.276537 274.59802 
L 255.276537 270.765624 
L 257.559719 270.765624 
L 257.559719 266.933228 
L 258.253117 266.933228 
L 258.253117 263.100832 
L 258.417052 263.100832 
L 258.516394 255.43604 
L 258.691621 255.43604 
L 258.691621 251.603644 
L 259.057005 251.603644 
L 259.057005 247.771248 
L 262.146869 247.771248 
L 262.146869 243.938851 
L 264.510011 243.938851 
L 264.510011 240.106455 
L 270.771477 240.106455 
L 270.771477 236.274059 
L 297.184908 236.274059 
L 297.184908 232.441663 
L 299.183557 232.441663 
L 299.183557 228.609267 
L 299.330525 228.609267 
L 299.330525 224.776871 
L 300.282848 224.776871 
L 300.282848 220.944475 
L 300.824508 220.944475 
L 300.91984 213.279683 
L 301.103865 213.279683 
L 301.103865 209.447287 
L 301.822473 209.447287 
L 301.864443 197.950099 
L 302.268303 197.950099 
L 302.268303 194.117703 
L 302.824172 194.117703 
L 302.824172 190.285307 
L 303.061736 190.285307 
L 303.102481 182.620515 
L 304.012593 182.620515 
L 304.012593 178.788119 
L 332.171536 178.788119 
L 332.171536 174.955723 
L 353.85418 174.955723 
L 353.85418 171.123327 
L 357.881295 171.123327 
L 357.881295 167.290931 
L 364.820836 167.290931 
L 364.820836 163.458535 
L 368.372849 163.458535 
L 368.372849 159.626139 
L 377.068249 159.626139 
L 377.068249 155.793743 
L 379.814324 155.793743 
L 379.814324 151.961347 
L 380.477491 151.961347 
L 380.477491 148.12895 
L 382.240455 148.12895 
L 382.240455 144.296554 
L 383.243027 144.296554 
L 383.243027 140.464158 
L 383.517383 140.464158 
L 383.517383 136.631762 
L 383.630663 136.631762 
L 383.630663 132.799366 
L 386.203432 132.799366 
L 386.203432 128.96697 
L 386.950381 128.96697 
L 386.950381 125.134574 
L 387.963606 125.134574 
L 387.963606 121.302178 
L 389.70145 121.302178 
L 389.70145 117.469782 
L 391.075948 117.469782 
L 391.133218 109.80499 
L 393.316468 109.80499 
L 393.316468 105.972594 
L 395.351648 105.972594 
L 395.351648 102.140198 
L 395.529154 102.140198 
L 395.529154 98.307802 
L 395.717214 98.307802 
L 395.717214 94.475406 
L 397.498514 94.475406 
L 397.498514 90.64301 
L 397.924833 90.64301 
L 397.924833 86.810614 
L 398.376129 86.810614 
L 398.376129 82.978218 
L 399.104918 82.978218 
L 399.104918 79.145822 
L 400.368708 79.145822 
L 400.368708 75.313426 
L 401.076758 75.313426 
L 401.076758 71.48103 
L 402.429724 71.48103 
L 402.429724 67.648634 
L 411.972375 67.648634 
L 411.972375 63.816238 
L 424.714003 63.816238 
L 424.714003 59.983842 
L 425.290614 59.983842 
L 425.290614 56.151446 
L 431.443203 56.151446 
L 431.443203 52.31905 
L 431.678232 52.31905 
L 431.678232 48.486653 
L 432.447145 48.486653 
L 432.447145 44.654257 
L 432.6345 44.654257 
L 432.6345 40.821861 
L 434.057655 40.821861 
L 434.057655 36.989465 
L 437.945566 36.989465 
L 437.945566 33.157069 
L 439.953626 33.157069 
L 439.953626 29.324673 
L 442.630595 29.324673 
L 442.630595 25.492277 
L 444.007822 25.492277 
L 444.007822 21.659881 
L 445.602585 21.659881 
L 445.602585 17.827485 
L 445.773245 17.827485 
L 445.773245 13.995089 
L 446.299604 13.995089 
L 446.299604 10.162693 
L 446.702929 10.162693 
L 446.702929 6.330297 
L 446.702929 6.330297 
L 460.8 6.330297 
L 460.8 6.330297 
" style="fill:none;stroke:#000000;stroke-linecap:square;stroke-width:1.5;"/>
   </g>
   <g id="line2d_25">
    <path clip-path="url(#p56ff3dc6f7)" d="M 245.465727 293.76 
L 245.465727 289.927604 
L 249.61999 289.927604 
L 249.61999 286.095208 
L 253.368632 286.095208 
L 253.368632 282.262812 
L 254.152396 282.262812 
L 254.152396 278.430416 
L 254.464253 278.430416 
L 254.464253 274.59802 
L 255.212272 274.59802 
L 255.212272 270.765624 
L 257.502058 270.765624 
L 257.502058 266.933228 
L 258.200825 266.933228 
L 258.200825 263.100832 
L 258.378091 263.100832 
L 258.474666 255.43604 
L 258.608896 255.43604 
L 258.608896 251.603644 
L 259.005164 251.603644 
L 259.005164 247.771248 
L 262.091116 247.771248 
L 262.091116 243.938851 
L 264.460512 243.938851 
L 264.460512 240.106455 
L 270.721025 240.106455 
L 270.721025 236.274059 
L 297.165927 236.274059 
L 297.165927 232.441663 
L 299.164971 232.441663 
L 299.164971 228.609267 
L 299.317114 228.609267 
L 299.317114 224.776871 
L 300.268611 224.776871 
L 300.268611 220.944475 
L 300.81183 220.944475 
L 300.904177 213.279683 
L 301.086474 213.279683 
L 301.086474 209.447287 
L 301.808119 209.447287 
L 301.85162 197.950099 
L 302.251727 197.950099 
L 302.251727 194.117703 
L 302.812694 194.117703 
L 302.812694 190.285307 
L 303.050071 190.285307 
L 303.08803 182.620515 
L 304.001048 182.620515 
L 304.001048 178.788119 
L 330.833105 178.788119 
L 330.833105 174.955723 
L 353.3318 174.955723 
L 353.3318 171.123327 
L 357.571978 171.123327 
L 357.571978 167.290931 
L 364.410547 167.290931 
L 364.410547 163.458535 
L 367.997067 163.458535 
L 367.997067 159.626139 
L 376.919924 159.626139 
L 376.919924 155.793743 
L 379.595447 155.793743 
L 379.595447 151.961347 
L 380.34057 151.961347 
L 380.34057 148.12895 
L 382.181657 148.12895 
L 382.181657 144.296554 
L 383.077395 144.296554 
L 383.077395 140.464158 
L 383.325782 140.464158 
L 383.325782 136.631762 
L 383.443503 136.631762 
L 383.443503 132.799366 
L 386.088042 132.799366 
L 386.088042 128.96697 
L 386.751595 128.96697 
L 386.751595 125.134574 
L 387.846865 125.134574 
L 387.846865 121.302178 
L 389.608569 121.302178 
L 389.608569 117.469782 
L 391.037159 117.469782 
L 391.040554 109.80499 
L 393.168077 109.80499 
L 393.168077 105.972594 
L 395.262931 105.972594 
L 395.262931 102.140198 
L 395.465554 102.140198 
L 395.465554 98.307802 
L 395.674001 98.307802 
L 395.674001 94.475406 
L 397.433726 94.475406 
L 397.433726 90.64301 
L 397.836341 90.64301 
L 397.836341 86.810614 
L 398.345793 86.810614 
L 398.345793 82.978218 
L 399.055024 82.978218 
L 399.055024 79.145822 
L 400.318858 79.145822 
L 400.318858 75.313426 
L 401.022153 75.313426 
L 401.022153 71.48103 
L 402.3567 71.48103 
L 402.3567 67.648634 
L 411.939121 67.648634 
L 411.939121 63.816238 
L 424.640203 63.816238 
L 424.640203 59.983842 
L 425.222371 59.983842 
L 425.222371 56.151446 
L 431.380913 56.151446 
L 431.380913 52.31905 
L 431.582506 52.31905 
L 431.582506 48.486653 
L 432.400888 48.486653 
L 432.400888 44.654257 
L 432.559401 44.654257 
L 432.559401 40.821861 
L 434.005472 40.821861 
L 434.005472 36.989465 
L 437.868911 36.989465 
L 437.868911 33.157069 
L 439.891057 33.157069 
L 439.891057 29.324673 
L 442.536623 29.324673 
L 442.536623 25.492277 
L 443.903041 25.492277 
L 443.903041 21.659881 
L 445.539654 21.659881 
L 445.539654 17.827485 
L 445.70414 17.827485 
L 445.70414 13.995089 
L 446.210735 13.995089 
L 446.210735 10.162693 
L 446.63311 10.162693 
L 446.63311 6.330297 
L 446.63311 6.330297 
L 460.8 6.330297 
L 460.8 6.330297 
" style="fill:none;stroke:#00bfbf;stroke-linecap:square;stroke-width:1.5;"/>
   </g>
   <g id="line2d_26">
    <path clip-path="url(#p56ff3dc6f7)" d="M 239.845714 293.76 
L 239.845714 289.927604 
L 241.581199 289.927604 
L 241.581199 286.095208 
L 241.788621 286.095208 
L 241.788621 282.262812 
L 243.520372 282.262812 
L 243.520372 278.430416 
L 245.450477 278.430416 
L 245.450477 274.59802 
L 245.722245 274.59802 
L 245.784466 266.933228 
L 246.94746 266.933228 
L 246.94746 263.100832 
L 247.353051 263.100832 
L 247.384099 255.43604 
L 248.879634 255.43604 
L 248.879634 251.603644 
L 249.92197 251.603644 
L 249.987634 243.938851 
L 251.966627 243.938851 
L 251.966627 240.106455 
L 256.298413 240.106455 
L 256.298413 236.274059 
L 263.856404 236.274059 
L 263.856404 232.441663 
L 264.92295 232.441663 
L 264.92295 228.609267 
L 266.819137 228.609267 
L 266.819137 224.776871 
L 267.162885 224.776871 
L 267.162885 220.944475 
L 267.420087 220.944475 
L 267.420087 217.112079 
L 267.58598 217.112079 
L 267.58598 213.279683 
L 268.046829 213.279683 
L 268.046829 209.447287 
L 268.206521 209.447287 
L 268.206521 205.614891 
L 268.408957 205.614891 
L 268.408957 201.782495 
L 268.782755 201.782495 
L 268.782755 197.950099 
L 269.18614 197.950099 
L 269.18614 194.117703 
L 269.554956 194.117703 
L 269.554956 190.285307 
L 269.886183 190.285307 
L 269.886183 186.452911 
L 270.435972 186.452911 
L 270.435972 182.620515 
L 270.751795 182.620515 
L 270.751795 178.788119 
L 291.579797 178.788119 
L 291.579797 174.955723 
L 292.818193 174.955723 
L 292.818193 171.123327 
L 294.821055 171.123327 
L 294.821055 167.290931 
L 296.112826 167.290931 
L 296.112826 163.458535 
L 296.646517 163.458535 
L 296.675645 155.793743 
L 296.768694 155.793743 
L 296.804036 148.12895 
L 296.888433 148.12895 
L 296.895377 140.464158 
L 297.534439 140.464158 
L 297.534439 136.631762 
L 298.238269 136.631762 
L 298.238269 132.799366 
L 298.717124 132.799366 
L 298.717124 128.96697 
L 300.809062 128.96697 
L 300.809062 125.134574 
L 301.124012 125.134574 
L 301.124012 121.302178 
L 349.532598 121.302178 
L 349.532598 117.469782 
L 351.160685 117.469782 
L 351.160685 113.637386 
L 355.260452 113.637386 
L 355.260452 109.80499 
L 359.01092 109.80499 
L 359.01092 105.972594 
L 360.007176 105.972594 
L 360.007176 102.140198 
L 362.420502 102.140198 
L 362.420502 98.307802 
L 363.108088 98.307802 
L 363.108088 94.475406 
L 365.095633 94.475406 
L 365.095633 90.64301 
L 368.128165 90.64301 
L 368.128165 86.810614 
L 371.199472 86.810614 
L 371.199472 82.978218 
L 371.508808 82.978218 
L 371.508808 79.145822 
L 373.063429 79.145822 
L 373.142561 71.48103 
L 379.779712 71.48103 
L 379.779712 67.648634 
L 379.970329 67.648634 
L 379.970329 63.816238 
L 408.043431 63.816238 
L 408.043431 59.983842 
L 410.546853 59.983842 
L 410.546853 56.151446 
L 416.098223 56.151446 
L 416.098223 52.31905 
L 419.210424 52.31905 
L 419.210424 48.486653 
L 420.924698 48.486653 
L 420.924698 44.654257 
L 421.521815 44.654257 
L 421.521815 40.821861 
L 422.301947 40.821861 
L 422.301947 36.989465 
L 423.552036 36.989465 
L 423.552036 33.157069 
L 424.442026 33.157069 
L 424.442026 29.324673 
L 425.413962 29.324673 
L 425.413962 25.492277 
L 426.409892 25.492277 
L 426.409892 21.659881 
L 427.201812 21.659881 
L 427.201812 17.827485 
L 428.790564 17.827485 
L 428.790564 13.995089 
L 430.152321 13.995089 
L 430.152321 10.162693 
L 430.762605 10.162693 
L 430.762605 6.330297 
L 430.762605 6.330297 
L 460.8 6.330297 
L 460.8 6.330297 
" style="fill:none;stroke:#bf00bf;stroke-linecap:square;stroke-width:1.5;"/>
   </g>
   <g id="patch_3">
    <path d="M 0 293.76 
L 0 3.456 
" style="fill:none;stroke:#000000;stroke-linecap:square;stroke-linejoin:miter;stroke-width:0.8;"/>
   </g>
   <g id="patch_4">
    <path d="M 460.8 293.76 
L 460.8 3.456 
" style="fill:none;stroke:#000000;stroke-linecap:square;stroke-linejoin:miter;stroke-width:0.8;"/>
   </g>
   <g id="patch_5">
    <path d="M 0 293.76 
L 460.8 293.76 
" style="fill:none;stroke:#000000;stroke-linecap:square;stroke-linejoin:miter;stroke-width:0.8;"/>
   </g>
   <g id="patch_6">
    <path d="M 0 3.456 
L 460.8 3.456 
" style="fill:none;stroke:#000000;stroke-linecap:square;stroke-linejoin:miter;stroke-width:0.8;"/>
   </g>
   <g id="text_6">
    <!-- {f10-f14}, 20-D -->
    <g transform="translate(293.159 287.95392)scale(0.2 -0.2)">
     <defs>
      <path d="M 51.125 -9.28125 
L 51.125 -16.3125 
L 48.09375 -16.3125 
Q 35.9375 -16.3125 31.8125 -12.6875 
Q 27.6875 -9.078125 27.6875 1.703125 
L 27.6875 13.375 
Q 27.6875 20.75 25.046875 23.578125 
Q 22.40625 26.421875 15.484375 26.421875 
L 12.5 26.421875 
L 12.5 33.40625 
L 15.484375 33.40625 
Q 22.46875 33.40625 25.078125 36.203125 
Q 27.6875 39.015625 27.6875 46.296875 
L 27.6875 58.015625 
Q 27.6875 68.796875 31.8125 72.390625 
Q 35.9375 75.984375 48.09375 75.984375 
L 51.125 75.984375 
L 51.125 69 
L 47.796875 69 
Q 40.921875 69 38.8125 66.84375 
Q 36.71875 64.703125 36.71875 57.8125 
L 36.71875 45.703125 
Q 36.71875 38.03125 34.5 34.5625 
Q 32.28125 31.109375 26.90625 29.890625 
Q 32.328125 28.5625 34.515625 25.09375 
Q 36.71875 21.625 36.71875 14.015625 
L 36.71875 1.90625 
Q 36.71875 -4.984375 38.8125 -7.125 
Q 40.921875 -9.28125 47.796875 -9.28125 
z
" id="DejaVuSans-123"/>
      <path d="M 12.5 -9.28125 
L 15.921875 -9.28125 
Q 22.75 -9.28125 24.828125 -7.171875 
Q 26.90625 -5.078125 26.90625 1.90625 
L 26.90625 14.015625 
Q 26.90625 21.625 29.09375 25.09375 
Q 31.296875 28.5625 36.71875 29.890625 
Q 31.296875 31.109375 29.09375 34.5625 
Q 26.90625 38.03125 26.90625 45.703125 
L 26.90625 57.8125 
Q 26.90625 64.75 24.828125 66.875 
Q 22.75 69 15.921875 69 
L 12.5 69 
L 12.5 75.984375 
L 15.578125 75.984375 
Q 27.734375 75.984375 31.8125 72.390625 
Q 35.890625 68.796875 35.890625 58.015625 
L 35.890625 46.296875 
Q 35.890625 39.015625 38.515625 36.203125 
Q 41.15625 33.40625 48.09375 33.40625 
L 51.125 33.40625 
L 51.125 26.421875 
L 48.09375 26.421875 
Q 41.15625 26.421875 38.515625 23.578125 
Q 35.890625 20.75 35.890625 13.375 
L 35.890625 1.703125 
Q 35.890625 -9.078125 31.8125 -12.6875 
Q 27.734375 -16.3125 15.578125 -16.3125 
L 12.5 -16.3125 
z
" id="DejaVuSans-125"/>
      <path d="M 11.71875 12.40625 
L 22.015625 12.40625 
L 22.015625 4 
L 14.015625 -11.625 
L 7.71875 -11.625 
L 11.71875 4 
z
" id="DejaVuSans-44"/>
      <path d="M 19.1875 8.296875 
L 53.609375 8.296875 
L 53.609375 0 
L 7.328125 0 
L 7.328125 8.296875 
Q 12.9375 14.109375 22.625 23.890625 
Q 32.328125 33.6875 34.8125 36.53125 
Q 39.546875 41.84375 41.421875 45.53125 
Q 43.3125 49.21875 43.3125 52.78125 
Q 43.3125 58.59375 39.234375 62.25 
Q 35.15625 65.921875 28.609375 65.921875 
Q 23.96875 65.921875 18.8125 64.3125 
Q 13.671875 62.703125 7.8125 59.421875 
L 7.8125 69.390625 
Q 13.765625 71.78125 18.9375 73 
Q 24.125 74.21875 28.421875 74.21875 
Q 39.75 74.21875 46.484375 68.546875 
Q 53.21875 62.890625 53.21875 53.421875 
Q 53.21875 48.921875 51.53125 44.890625 
Q 49.859375 40.875 45.40625 35.40625 
Q 44.1875 33.984375 37.640625 27.21875 
Q 31.109375 20.453125 19.1875 8.296875 
z
" id="DejaVuSans-50"/>
     </defs>
     <use xlink:href="#DejaVuSans-123"/>
     <use x="63.623047" xlink:href="#DejaVuSans-102"/>
     <use x="98.828125" xlink:href="#DejaVuSans-49"/>
     <use x="162.451172" xlink:href="#DejaVuSans-48"/>
     <use x="226.074219" xlink:href="#DejaVuSans-45"/>
     <use x="262.158203" xlink:href="#DejaVuSans-102"/>
     <use x="297.363281" xlink:href="#DejaVuSans-49"/>
     <use x="360.986328" xlink:href="#DejaVuSans-52"/>
     <use x="424.609375" xlink:href="#DejaVuSans-125"/>
     <use x="488.232422" xlink:href="#DejaVuSans-44"/>
     <use x="520.019531" xlink:href="#DejaVuSans-32"/>
     <use x="551.806641" xlink:href="#DejaVuSans-50"/>
     <use x="615.429688" xlink:href="#DejaVuSans-48"/>
     <use x="679.052734" xlink:href="#DejaVuSans-45"/>
     <use x="715.136719" xlink:href="#DejaVuSans-68"/>
    </g>
   </g>
   <g id="text_7">
    <!-- v2.4 -->
    <g style="fill:#808080;" transform="translate(219.489063 288.777272)scale(0.1 -0.1)">
     <defs>
      <path d="M 2.984375 54.6875 
L 12.5 54.6875 
L 29.59375 8.796875 
L 46.6875 54.6875 
L 56.203125 54.6875 
L 35.6875 0 
L 23.484375 0 
z
" id="DejaVuSans-118"/>
      <path d="M 10.6875 12.40625 
L 21 12.40625 
L 21 0 
L 10.6875 0 
z
" id="DejaVuSans-46"/>
     </defs>
     <use xlink:href="#DejaVuSans-118"/>
     <use x="59.179688" xlink:href="#DejaVuSans-50"/>
     <use x="122.802734" xlink:href="#DejaVuSans-46"/>
     <use x="154.589844" xlink:href="#DejaVuSans-52"/>
    </g>
   </g>
  </g>
 </g>
 <defs>
  <clipPath id="p56ff3dc6f7">
   <rect height="290.304" width="460.8" x="0" y="3.456"/>
  </clipPath>
 </defs>
</svg>
