<?xml version="1.0" encoding="utf-8" standalone="no"?>
<!DOCTYPE svg PUBLIC "-//W3C//DTD SVG 1.1//EN"
  "http://www.w3.org/Graphics/SVG/1.1/DTD/svg11.dtd">
<!-- Created with matplotlib (https://matplotlib.org/) -->
<svg height="345.6pt" version="1.1" viewBox="0 0 460.8 345.6" width="460.8pt" xmlns="http://www.w3.org/2000/svg" xmlns:xlink="http://www.w3.org/1999/xlink">
 <metadata>
  <rdf:RDF xmlns:cc="http://creativecommons.org/ns#" xmlns:dc="http://purl.org/dc/elements/1.1/" xmlns:rdf="http://www.w3.org/1999/02/22-rdf-syntax-ns#">
   <cc:Work>
    <dc:type rdf:resource="http://purl.org/dc/dcmitype/StillImage"/>
    <dc:date>2021-08-04T15:01:51.541640</dc:date>
    <dc:format>image/svg+xml</dc:format>
    <dc:creator>
     <cc:Agent>
      <dc:title>Matplotlib v3.3.1, https://matplotlib.org/</dc:title>
     </cc:Agent>
    </dc:creator>
   </cc:Work>
  </rdf:RDF>
 </metadata>
 <defs>
  <style type="text/css">*{stroke-linecap:butt;stroke-linejoin:round;}</style>
 </defs>
 <g id="figure_1">
  <g id="patch_1">
   <path d="M 0 345.6 
L 460.8 345.6 
L 460.8 0 
L 0 0 
z
" style="fill:#ffffff;"/>
  </g>
  <g id="axes_1">
   <g id="patch_2">
    <path d="M 0 293.76 
L 460.8 293.76 
L 460.8 3.456 
L 0 3.456 
z
" style="fill:#ffffff;"/>
   </g>
   <g id="matplotlib.axis_1">
    <g id="xtick_1">
     <g id="line2d_1">
      <path clip-path="url(#p678a2d0906)" d="M 106.364787 293.76 
L 106.364787 3.456 
" style="fill:none;stroke:#b0b0b0;stroke-linecap:square;stroke-width:0.8;"/>
     </g>
     <g id="line2d_2">
      <defs>
       <path d="M 0 0 
L 0 3.5 
" id="m3c46c2177b" style="stroke:#000000;stroke-width:0.8;"/>
      </defs>
      <g>
       <use style="stroke:#000000;stroke-width:0.8;" x="106.364787" xlink:href="#m3c46c2177b" y="293.76"/>
      </g>
     </g>
     <g id="text_1">
      <!-- -4 -->
      <g transform="translate(96.394475 315.956875)scale(0.2 -0.2)">
       <defs>
        <path d="M 4.890625 31.390625 
L 31.203125 31.390625 
L 31.203125 23.390625 
L 4.890625 23.390625 
z
" id="DejaVuSans-45"/>
        <path d="M 37.796875 64.3125 
L 12.890625 25.390625 
L 37.796875 25.390625 
z
M 35.203125 72.90625 
L 47.609375 72.90625 
L 47.609375 25.390625 
L 58.015625 25.390625 
L 58.015625 17.1875 
L 47.609375 17.1875 
L 47.609375 0 
L 37.796875 0 
L 37.796875 17.1875 
L 4.890625 17.1875 
L 4.890625 26.703125 
z
" id="DejaVuSans-52"/>
       </defs>
       <use xlink:href="#DejaVuSans-45"/>
       <use x="36.083984" xlink:href="#DejaVuSans-52"/>
      </g>
     </g>
    </g>
    <g id="xtick_2">
     <g id="line2d_3">
      <path clip-path="url(#p678a2d0906)" d="M 212.84461 293.76 
L 212.84461 3.456 
" style="fill:none;stroke:#b0b0b0;stroke-linecap:square;stroke-width:0.8;"/>
     </g>
     <g id="line2d_4">
      <g>
       <use style="stroke:#000000;stroke-width:0.8;" x="212.84461" xlink:href="#m3c46c2177b" y="293.76"/>
      </g>
     </g>
     <g id="text_2">
      <!-- 0 -->
      <g transform="translate(206.48211 315.956875)scale(0.2 -0.2)">
       <defs>
        <path d="M 31.78125 66.40625 
Q 24.171875 66.40625 20.328125 58.90625 
Q 16.5 51.421875 16.5 36.375 
Q 16.5 21.390625 20.328125 13.890625 
Q 24.171875 6.390625 31.78125 6.390625 
Q 39.453125 6.390625 43.28125 13.890625 
Q 47.125 21.390625 47.125 36.375 
Q 47.125 51.421875 43.28125 58.90625 
Q 39.453125 66.40625 31.78125 66.40625 
z
M 31.78125 74.21875 
Q 44.046875 74.21875 50.515625 64.515625 
Q 56.984375 54.828125 56.984375 36.375 
Q 56.984375 17.96875 50.515625 8.265625 
Q 44.046875 -1.421875 31.78125 -1.421875 
Q 19.53125 -1.421875 13.0625 8.265625 
Q 6.59375 17.96875 6.59375 36.375 
Q 6.59375 54.828125 13.0625 64.515625 
Q 19.53125 74.21875 31.78125 74.21875 
z
" id="DejaVuSans-48"/>
       </defs>
       <use xlink:href="#DejaVuSans-48"/>
      </g>
     </g>
    </g>
    <g id="xtick_3">
     <g id="line2d_5">
      <path clip-path="url(#p678a2d0906)" d="M 319.324432 293.76 
L 319.324432 3.456 
" style="fill:none;stroke:#b0b0b0;stroke-linecap:square;stroke-width:0.8;"/>
     </g>
     <g id="line2d_6">
      <g>
       <use style="stroke:#000000;stroke-width:0.8;" x="319.324432" xlink:href="#m3c46c2177b" y="293.76"/>
      </g>
     </g>
     <g id="text_3">
      <!-- 4 -->
      <g transform="translate(312.961932 315.956875)scale(0.2 -0.2)">
       <use xlink:href="#DejaVuSans-52"/>
      </g>
     </g>
    </g>
    <g id="xtick_4">
     <g id="line2d_7">
      <path clip-path="url(#p678a2d0906)" d="M 425.804254 293.76 
L 425.804254 3.456 
" style="fill:none;stroke:#b0b0b0;stroke-linecap:square;stroke-width:0.8;"/>
     </g>
     <g id="line2d_8">
      <g>
       <use style="stroke:#000000;stroke-width:0.8;" x="425.804254" xlink:href="#m3c46c2177b" y="293.76"/>
      </g>
     </g>
     <g id="text_4">
      <!-- 8 -->
      <g transform="translate(419.441754 315.956875)scale(0.2 -0.2)">
       <defs>
        <path d="M 31.78125 34.625 
Q 24.75 34.625 20.71875 30.859375 
Q 16.703125 27.09375 16.703125 20.515625 
Q 16.703125 13.921875 20.71875 10.15625 
Q 24.75 6.390625 31.78125 6.390625 
Q 38.8125 6.390625 42.859375 10.171875 
Q 46.921875 13.96875 46.921875 20.515625 
Q 46.921875 27.09375 42.890625 30.859375 
Q 38.875 34.625 31.78125 34.625 
z
M 21.921875 38.8125 
Q 15.578125 40.375 12.03125 44.71875 
Q 8.5 49.078125 8.5 55.328125 
Q 8.5 64.0625 14.71875 69.140625 
Q 20.953125 74.21875 31.78125 74.21875 
Q 42.671875 74.21875 48.875 69.140625 
Q 55.078125 64.0625 55.078125 55.328125 
Q 55.078125 49.078125 51.53125 44.71875 
Q 48 40.375 41.703125 38.8125 
Q 48.828125 37.15625 52.796875 32.3125 
Q 56.78125 27.484375 56.78125 20.515625 
Q 56.78125 9.90625 50.3125 4.234375 
Q 43.84375 -1.421875 31.78125 -1.421875 
Q 19.734375 -1.421875 13.25 4.234375 
Q 6.78125 9.90625 6.78125 20.515625 
Q 6.78125 27.484375 10.78125 32.3125 
Q 14.796875 37.15625 21.921875 38.8125 
z
M 18.3125 54.390625 
Q 18.3125 48.734375 21.84375 45.5625 
Q 25.390625 42.390625 31.78125 42.390625 
Q 38.140625 42.390625 41.71875 45.5625 
Q 45.3125 48.734375 45.3125 54.390625 
Q 45.3125 60.0625 41.71875 63.234375 
Q 38.140625 66.40625 31.78125 66.40625 
Q 25.390625 66.40625 21.84375 63.234375 
Q 18.3125 60.0625 18.3125 54.390625 
z
" id="DejaVuSans-56"/>
       </defs>
       <use xlink:href="#DejaVuSans-56"/>
      </g>
     </g>
    </g>
    <g id="text_5">
     <!-- log10 of Df -->
     <g transform="translate(175.214063 339.313125)scale(0.2 -0.2)">
      <defs>
       <path d="M 9.421875 75.984375 
L 18.40625 75.984375 
L 18.40625 0 
L 9.421875 0 
z
" id="DejaVuSans-108"/>
       <path d="M 30.609375 48.390625 
Q 23.390625 48.390625 19.1875 42.75 
Q 14.984375 37.109375 14.984375 27.296875 
Q 14.984375 17.484375 19.15625 11.84375 
Q 23.34375 6.203125 30.609375 6.203125 
Q 37.796875 6.203125 41.984375 11.859375 
Q 46.1875 17.53125 46.1875 27.296875 
Q 46.1875 37.015625 41.984375 42.703125 
Q 37.796875 48.390625 30.609375 48.390625 
z
M 30.609375 56 
Q 42.328125 56 49.015625 48.375 
Q 55.71875 40.765625 55.71875 27.296875 
Q 55.71875 13.875 49.015625 6.21875 
Q 42.328125 -1.421875 30.609375 -1.421875 
Q 18.84375 -1.421875 12.171875 6.21875 
Q 5.515625 13.875 5.515625 27.296875 
Q 5.515625 40.765625 12.171875 48.375 
Q 18.84375 56 30.609375 56 
z
" id="DejaVuSans-111"/>
       <path d="M 45.40625 27.984375 
Q 45.40625 37.75 41.375 43.109375 
Q 37.359375 48.484375 30.078125 48.484375 
Q 22.859375 48.484375 18.828125 43.109375 
Q 14.796875 37.75 14.796875 27.984375 
Q 14.796875 18.265625 18.828125 12.890625 
Q 22.859375 7.515625 30.078125 7.515625 
Q 37.359375 7.515625 41.375 12.890625 
Q 45.40625 18.265625 45.40625 27.984375 
z
M 54.390625 6.78125 
Q 54.390625 -7.171875 48.1875 -13.984375 
Q 42 -20.796875 29.203125 -20.796875 
Q 24.46875 -20.796875 20.265625 -20.09375 
Q 16.0625 -19.390625 12.109375 -17.921875 
L 12.109375 -9.1875 
Q 16.0625 -11.328125 19.921875 -12.34375 
Q 23.78125 -13.375 27.78125 -13.375 
Q 36.625 -13.375 41.015625 -8.765625 
Q 45.40625 -4.15625 45.40625 5.171875 
L 45.40625 9.625 
Q 42.625 4.78125 38.28125 2.390625 
Q 33.9375 0 27.875 0 
Q 17.828125 0 11.671875 7.65625 
Q 5.515625 15.328125 5.515625 27.984375 
Q 5.515625 40.671875 11.671875 48.328125 
Q 17.828125 56 27.875 56 
Q 33.9375 56 38.28125 53.609375 
Q 42.625 51.21875 45.40625 46.390625 
L 45.40625 54.6875 
L 54.390625 54.6875 
z
" id="DejaVuSans-103"/>
       <path d="M 12.40625 8.296875 
L 28.515625 8.296875 
L 28.515625 63.921875 
L 10.984375 60.40625 
L 10.984375 69.390625 
L 28.421875 72.90625 
L 38.28125 72.90625 
L 38.28125 8.296875 
L 54.390625 8.296875 
L 54.390625 0 
L 12.40625 0 
z
" id="DejaVuSans-49"/>
       <path id="DejaVuSans-32"/>
       <path d="M 37.109375 75.984375 
L 37.109375 68.5 
L 28.515625 68.5 
Q 23.6875 68.5 21.796875 66.546875 
Q 19.921875 64.59375 19.921875 59.515625 
L 19.921875 54.6875 
L 34.71875 54.6875 
L 34.71875 47.703125 
L 19.921875 47.703125 
L 19.921875 0 
L 10.890625 0 
L 10.890625 47.703125 
L 2.296875 47.703125 
L 2.296875 54.6875 
L 10.890625 54.6875 
L 10.890625 58.5 
Q 10.890625 67.625 15.140625 71.796875 
Q 19.390625 75.984375 28.609375 75.984375 
z
" id="DejaVuSans-102"/>
       <path d="M 19.671875 64.796875 
L 19.671875 8.109375 
L 31.59375 8.109375 
Q 46.6875 8.109375 53.6875 14.9375 
Q 60.6875 21.78125 60.6875 36.53125 
Q 60.6875 51.171875 53.6875 57.984375 
Q 46.6875 64.796875 31.59375 64.796875 
z
M 9.8125 72.90625 
L 30.078125 72.90625 
Q 51.265625 72.90625 61.171875 64.09375 
Q 71.09375 55.28125 71.09375 36.53125 
Q 71.09375 17.671875 61.125 8.828125 
Q 51.171875 0 30.078125 0 
L 9.8125 0 
z
" id="DejaVuSans-68"/>
      </defs>
      <use xlink:href="#DejaVuSans-108"/>
      <use x="27.783203" xlink:href="#DejaVuSans-111"/>
      <use x="88.964844" xlink:href="#DejaVuSans-103"/>
      <use x="152.441406" xlink:href="#DejaVuSans-49"/>
      <use x="216.064453" xlink:href="#DejaVuSans-48"/>
      <use x="279.6875" xlink:href="#DejaVuSans-32"/>
      <use x="311.474609" xlink:href="#DejaVuSans-111"/>
      <use x="372.65625" xlink:href="#DejaVuSans-102"/>
      <use x="407.861328" xlink:href="#DejaVuSans-32"/>
      <use x="439.648438" xlink:href="#DejaVuSans-68"/>
      <use x="516.650391" xlink:href="#DejaVuSans-102"/>
     </g>
    </g>
   </g>
   <g id="matplotlib.axis_2">
    <g id="ytick_1">
     <g id="line2d_9">
      <path clip-path="url(#p678a2d0906)" d="M 0 293.76 
L 460.8 293.76 
" style="fill:none;stroke:#b0b0b0;stroke-linecap:square;stroke-width:0.8;"/>
     </g>
     <g id="line2d_10">
      <defs>
       <path d="M 0 0 
L -3.5 0 
" id="m12dd27b421" style="stroke:#000000;stroke-width:0.8;"/>
      </defs>
      <g>
       <use style="stroke:#000000;stroke-width:0.8;" x="0" xlink:href="#m12dd27b421" y="293.76"/>
      </g>
     </g>
    </g>
    <g id="ytick_2">
     <g id="line2d_11">
      <path clip-path="url(#p678a2d0906)" d="M 0 236.274059 
L 460.8 236.274059 
" style="fill:none;stroke:#b0b0b0;stroke-linecap:square;stroke-width:0.8;"/>
     </g>
     <g id="line2d_12">
      <g>
       <use style="stroke:#000000;stroke-width:0.8;" x="0" xlink:href="#m12dd27b421" y="236.274059"/>
      </g>
     </g>
    </g>
    <g id="ytick_3">
     <g id="line2d_13">
      <path clip-path="url(#p678a2d0906)" d="M 0 178.788119 
L 460.8 178.788119 
" style="fill:none;stroke:#b0b0b0;stroke-linecap:square;stroke-width:0.8;"/>
     </g>
     <g id="line2d_14">
      <g>
       <use style="stroke:#000000;stroke-width:0.8;" x="0" xlink:href="#m12dd27b421" y="178.788119"/>
      </g>
     </g>
    </g>
    <g id="ytick_4">
     <g id="line2d_15">
      <path clip-path="url(#p678a2d0906)" d="M 0 121.302178 
L 460.8 121.302178 
" style="fill:none;stroke:#b0b0b0;stroke-linecap:square;stroke-width:0.8;"/>
     </g>
     <g id="line2d_16">
      <g>
       <use style="stroke:#000000;stroke-width:0.8;" x="0" xlink:href="#m12dd27b421" y="121.302178"/>
      </g>
     </g>
    </g>
    <g id="ytick_5">
     <g id="line2d_17">
      <path clip-path="url(#p678a2d0906)" d="M 0 63.816238 
L 460.8 63.816238 
" style="fill:none;stroke:#b0b0b0;stroke-linecap:square;stroke-width:0.8;"/>
     </g>
     <g id="line2d_18">
      <g>
       <use style="stroke:#000000;stroke-width:0.8;" x="0" xlink:href="#m12dd27b421" y="63.816238"/>
      </g>
     </g>
    </g>
    <g id="ytick_6">
     <g id="line2d_19">
      <path clip-path="url(#p678a2d0906)" d="M 0 6.330297 
L 460.8 6.330297 
" style="fill:none;stroke:#b0b0b0;stroke-linecap:square;stroke-width:0.8;"/>
     </g>
     <g id="line2d_20">
      <g>
       <use style="stroke:#000000;stroke-width:0.8;" x="0" xlink:href="#m12dd27b421" y="6.330297"/>
      </g>
     </g>
    </g>
   </g>
   <g id="line2d_21">
    <path clip-path="url(#p678a2d0906)" d="M 164.833802 293.76 
L 164.87593 292.163168 
L 165.016714 292.163168 
L 165.06272 288.969505 
L 165.289709 288.969505 
L 165.36047 287.372673 
L 165.635576 287.372673 
L 165.635576 286.574257 
L 166.253807 286.574257 
L 166.253807 285.775842 
L 166.392817 285.775842 
L 166.392817 284.977426 
L 166.646623 284.977426 
L 166.646623 284.17901 
L 167.977482 284.17901 
L 167.977482 283.380594 
L 168.870407 283.380594 
L 168.870407 282.582178 
L 176.419617 282.582178 
L 176.419617 281.783762 
L 226.530874 281.783762 
L 226.547291 280.186931 
L 227.023869 280.186931 
L 227.023869 279.388515 
L 228.875576 279.388515 
L 228.875576 278.590099 
L 229.085079 278.590099 
L 229.085079 277.791683 
L 230.973482 277.791683 
L 230.973482 276.993267 
L 231.142404 276.993267 
L 231.142404 276.194851 
L 232.255701 276.194851 
L 232.255701 275.396436 
L 235.084126 275.396436 
L 235.084126 274.59802 
L 235.470001 274.59802 
L 235.55403 273.001188 
L 235.597376 273.001188 
L 235.597376 272.202772 
L 235.71841 272.202772 
L 235.71841 271.404356 
L 236.154076 271.404356 
L 236.154076 270.605941 
L 236.559702 270.605941 
L 236.611323 269.009109 
L 236.834516 269.009109 
L 236.834516 268.210693 
L 237.102308 268.210693 
L 237.102308 267.412277 
L 238.233001 267.412277 
L 238.233001 266.613861 
L 238.50773 266.613861 
L 238.50773 265.815446 
L 239.177075 265.815446 
L 239.259827 263.420198 
L 239.306413 263.420198 
L 239.392656 261.823366 
L 240.074709 261.823366 
L 240.074709 261.02495 
L 240.648279 261.02495 
L 240.648279 260.226535 
L 240.826817 260.226535 
L 240.826817 259.428119 
L 241.072637 259.428119 
L 241.072637 258.629703 
L 241.681324 258.629703 
L 241.681324 257.831287 
L 241.898167 257.831287 
L 241.898167 257.032871 
L 242.486125 257.032871 
L 242.57661 255.43604 
L 242.687689 255.43604 
L 242.687689 254.637624 
L 243.507787 254.637624 
L 243.507787 253.839208 
L 243.877729 253.839208 
L 243.877729 253.040792 
L 244.228749 253.040792 
L 244.228749 252.242376 
L 244.363633 252.242376 
L 244.363633 251.44396 
L 244.615714 251.44396 
L 244.662135 249.847129 
L 245.550066 249.847129 
L 245.596363 248.250297 
L 246.558221 248.250297 
L 246.558221 247.451881 
L 248.398398 247.451881 
L 248.398398 246.653465 
L 248.964213 246.653465 
L 248.97913 245.056634 
L 249.621168 245.056634 
L 249.68575 243.459802 
L 250.179759 243.459802 
L 250.19223 241.86297 
L 250.538783 241.86297 
L 250.538783 241.064554 
L 250.667641 241.064554 
L 250.77146 239.467723 
L 250.910465 239.467723 
L 250.910465 238.669307 
L 251.278745 238.669307 
L 251.301307 237.072475 
L 251.871641 237.072475 
L 251.871641 236.274059 
L 252.224498 236.274059 
L 252.235273 234.677228 
L 252.940814 234.677228 
L 252.940814 233.878812 
L 253.217184 233.878812 
L 253.217184 233.080396 
L 253.665369 233.080396 
L 253.665369 232.28198 
L 254.29911 232.28198 
L 254.29911 231.483564 
L 255.161787 231.483564 
L 255.161787 230.685149 
L 255.277796 230.685149 
L 255.300106 229.088317 
L 255.909009 229.088317 
L 255.909009 228.289901 
L 256.105328 228.289901 
L 256.105328 227.491485 
L 256.487146 227.491485 
L 256.590177 225.096238 
L 256.704789 225.096238 
L 256.704789 224.297822 
L 256.897205 224.297822 
L 256.897205 223.499406 
L 257.404199 223.499406 
L 257.404199 222.70099 
L 257.962399 222.70099 
L 257.962399 221.902574 
L 258.320252 221.902574 
L 258.320252 221.104158 
L 258.439039 221.104158 
L 258.439039 220.305743 
L 258.55555 220.305743 
L 258.566504 218.708911 
L 258.818455 218.708911 
L 258.9006 217.112079 
L 258.99351 217.112079 
L 258.99351 216.313663 
L 259.179524 216.313663 
L 259.179524 215.515248 
L 259.308146 215.515248 
L 259.308146 214.716832 
L 259.501531 214.716832 
L 259.557588 213.12 
L 260.027766 213.12 
L 260.101074 210.724752 
L 260.243316 210.724752 
L 260.243316 209.926337 
L 260.388118 209.926337 
L 260.40165 207.531089 
L 260.531725 207.531089 
L 260.531725 206.732673 
L 260.66338 206.732673 
L 260.66338 205.934257 
L 260.811361 205.934257 
L 260.849582 203.53901 
L 260.980934 203.53901 
L 261.038376 201.143762 
L 261.167724 201.143762 
L 261.167724 200.345347 
L 261.473748 200.345347 
L 261.473748 199.546931 
L 261.657312 199.546931 
L 261.76741 196.353267 
L 261.812307 196.353267 
L 261.91905 192.361188 
L 262.121178 192.361188 
L 262.186712 189.965941 
L 262.24515 189.965941 
L 262.317397 187.570693 
L 262.658318 187.570693 
L 262.658318 186.772277 
L 262.81311 186.772277 
L 262.81311 185.973861 
L 263.190173 185.973861 
L 263.190173 185.175446 
L 263.430563 185.175446 
L 263.430563 184.37703 
L 263.733368 184.37703 
L 263.733368 183.578614 
L 263.856404 183.578614 
L 263.916657 181.981782 
L 264.208644 181.981782 
L 264.208644 181.183366 
L 264.377576 181.183366 
L 264.429796 179.586535 
L 264.594436 179.586535 
L 264.594436 178.788119 
L 264.92295 178.788119 
L 264.92295 177.989703 
L 265.053327 177.989703 
L 265.136391 176.392871 
L 265.228451 176.392871 
L 265.228451 175.594455 
L 265.364255 175.594455 
L 265.45493 173.997624 
L 265.82335 173.997624 
L 265.82335 173.199208 
L 266.039639 173.199208 
L 266.082462 170.80396 
L 266.538893 170.80396 
L 266.538893 170.005545 
L 266.819137 170.005545 
L 266.903305 168.408713 
L 267.066224 168.408713 
L 267.162885 166.013465 
L 267.420087 166.013465 
L 267.420087 165.21505 
L 267.58598 165.21505 
L 267.58598 164.416634 
L 267.738395 164.416634 
L 267.738395 163.618218 
L 267.86502 163.618218 
L 267.921434 162.021386 
L 268.046829 162.021386 
L 268.046829 161.22297 
L 268.206521 161.22297 
L 268.231847 159.626139 
L 268.408957 159.626139 
L 268.408957 158.827723 
L 268.782755 158.827723 
L 268.782755 158.029307 
L 269.18614 158.029307 
L 269.18614 157.230891 
L 269.554956 157.230891 
L 269.554956 156.432475 
L 269.831051 156.432475 
L 269.886183 154.835644 
L 270.045439 154.835644 
L 270.136073 153.238812 
L 270.192477 153.238812 
L 270.255359 151.64198 
L 270.435972 151.64198 
L 270.435972 150.843564 
L 270.616433 150.843564 
L 270.616433 150.045149 
L 270.751795 150.045149 
L 270.775685 146.851485 
L 270.953484 146.851485 
L 271.008253 145.254653 
L 271.182758 145.254653 
L 271.182758 144.456238 
L 271.519657 144.456238 
L 271.61204 140.464158 
L 271.918262 140.464158 
L 271.918262 139.665743 
L 272.383343 139.665743 
L 272.450785 138.068911 
L 272.579151 138.068911 
L 272.579151 137.270495 
L 272.993423 137.270495 
L 272.993423 136.472079 
L 273.697564 136.472079 
L 273.755606 134.875248 
L 274.351486 134.875248 
L 274.351486 134.076832 
L 275.623997 134.076832 
L 275.623997 133.278416 
L 276.666522 133.278416 
L 276.666522 132.48 
L 277.822143 132.48 
L 277.822143 131.681584 
L 279.419261 131.681584 
L 279.419261 130.883168 
L 280.506275 130.883168 
L 280.506275 130.084752 
L 281.033668 130.084752 
L 281.033668 129.286337 
L 281.262246 129.286337 
L 281.262246 128.487921 
L 281.430727 128.487921 
L 281.430727 127.689505 
L 282.451742 127.689505 
L 282.451742 126.891089 
L 282.780508 126.891089 
L 282.865428 125.294257 
L 282.921106 125.294257 
L 282.921106 124.495842 
L 283.132329 124.495842 
L 283.186661 121.302178 
L 283.865327 121.302178 
L 283.899388 119.705347 
L 284.091484 119.705347 
L 284.128601 118.108515 
L 284.274053 118.108515 
L 284.341973 116.511683 
L 284.631034 116.511683 
L 284.720271 114.914851 
L 285.024532 114.914851 
L 285.024532 114.116436 
L 285.227502 114.116436 
L 285.283711 112.519604 
L 285.350182 112.519604 
L 285.390962 110.124356 
L 285.726267 110.124356 
L 285.739217 108.527525 
L 285.964318 108.527525 
L 285.964318 107.729109 
L 286.195023 107.729109 
L 286.305042 106.132277 
L 286.559105 106.132277 
L 286.652969 103.73703 
L 286.729197 103.73703 
L 286.729197 102.938614 
L 286.974917 102.938614 
L 287.074801 101.341782 
L 287.827056 101.341782 
L 287.827056 100.543366 
L 287.969808 100.543366 
L 287.969808 99.74495 
L 288.531432 99.74495 
L 288.531432 98.946535 
L 288.795682 98.946535 
L 288.795682 98.148119 
L 289.177927 98.148119 
L 289.177927 97.349703 
L 289.532893 97.349703 
L 289.532893 96.551287 
L 289.747636 96.551287 
L 289.827701 93.357624 
L 290.066782 93.357624 
L 290.121969 91.760792 
L 290.487153 91.760792 
L 290.5605 90.16396 
L 290.621409 90.16396 
L 290.621409 89.365545 
L 290.909391 89.365545 
L 291.010728 87.768713 
L 291.499419 87.768713 
L 291.53344 86.171881 
L 291.868383 86.171881 
L 291.868383 85.373465 
L 292.690522 85.373465 
L 292.690522 84.57505 
L 293.024803 84.57505 
L 293.024803 83.776634 
L 293.240817 83.776634 
L 293.240817 82.978218 
L 294.796744 82.978218 
L 294.796744 82.179802 
L 294.94433 82.179802 
L 294.94433 81.381386 
L 295.231246 81.381386 
L 295.231246 80.58297 
L 295.379422 80.58297 
L 295.379422 79.784554 
L 295.563338 79.784554 
L 295.638796 77.389307 
L 295.954328 77.389307 
L 295.954328 76.590891 
L 296.223971 76.590891 
L 296.269385 74.994059 
L 296.635859 74.994059 
L 296.635859 74.195644 
L 296.774705 74.195644 
L 296.803519 72.598812 
L 297.983977 72.598812 
L 297.983977 71.800396 
L 298.152223 71.800396 
L 298.152223 71.00198 
L 298.493903 71.00198 
L 298.493903 70.203564 
L 299.217491 70.203564 
L 299.293696 67.808317 
L 299.407025 67.808317 
L 299.501039 66.211485 
L 301.046271 66.211485 
L 301.046271 65.413069 
L 302.619768 65.413069 
L 302.621661 63.816238 
L 303.985403 63.816238 
L 303.985403 63.017822 
L 306.922605 63.017822 
L 306.922605 62.219406 
L 307.413984 62.219406 
L 307.413984 61.42099 
L 313.184809 61.42099 
L 313.184809 60.622574 
L 314.074349 60.622574 
L 314.074349 59.824158 
L 316.167671 59.824158 
L 316.167671 59.025743 
L 318.445959 59.025743 
L 318.445959 58.227327 
L 320.696904 58.227327 
L 320.696904 57.428911 
L 321.981119 57.428911 
L 321.981119 56.630495 
L 324.342615 56.630495 
L 324.386386 55.033663 
L 324.997379 55.033663 
L 324.997379 54.235248 
L 326.066261 54.235248 
L 326.066261 53.436832 
L 327.197917 53.436832 
L 327.197917 52.638416 
L 328.664969 52.638416 
L 328.664969 51.84 
L 329.609691 51.84 
L 329.609691 51.041584 
L 332.108338 51.041584 
L 332.108338 50.243168 
L 333.337925 50.243168 
L 333.337925 49.444752 
L 338.911647 49.444752 
L 338.911647 48.646337 
L 340.205828 48.646337 
L 340.205828 47.847921 
L 340.854683 47.847921 
L 340.854683 47.049505 
L 341.016054 47.049505 
L 341.016054 46.251089 
L 341.377274 46.251089 
L 341.377274 45.452673 
L 342.752473 45.452673 
L 342.752473 44.654257 
L 343.028959 44.654257 
L 343.028959 43.855842 
L 343.597558 43.855842 
L 343.597558 43.057426 
L 347.387728 43.057426 
L 347.387728 42.25901 
L 347.806353 42.25901 
L 347.806353 41.460594 
L 348.109339 41.460594 
L 348.109339 40.662178 
L 350.157897 40.662178 
L 350.157897 39.863762 
L 351.055264 39.863762 
L 351.055264 39.065347 
L 353.833547 39.065347 
L 353.833547 38.266931 
L 354.188617 38.266931 
L 354.188617 37.468515 
L 356.270749 37.468515 
L 356.270749 36.670099 
L 357.175972 36.670099 
L 357.175972 35.871683 
L 357.841765 35.871683 
L 357.915408 34.274851 
L 358.850941 34.274851 
L 358.850941 33.476436 
L 358.963564 33.476436 
L 358.963564 32.67802 
L 359.235425 32.67802 
L 359.235425 31.879604 
L 359.723053 31.879604 
L 359.782856 30.282772 
L 360.041227 30.282772 
L 360.041227 29.484356 
L 363.081776 29.484356 
L 363.081776 28.685941 
L 363.374669 28.685941 
L 363.374669 27.887525 
L 366.391654 27.887525 
L 366.391654 27.089109 
L 366.798066 27.089109 
L 366.798066 26.290693 
L 367.132263 26.290693 
L 367.132263 25.492277 
L 368.067717 25.492277 
L 368.067717 24.693861 
L 368.622706 24.693861 
L 368.622706 23.895446 
L 369.802285 23.895446 
L 369.802285 23.09703 
L 369.970249 23.09703 
L 369.970249 22.298614 
L 372.486392 22.298614 
L 372.486392 21.500198 
L 373.281233 21.500198 
L 373.281233 20.701782 
L 376.277919 20.701782 
L 376.277919 19.903366 
L 377.282595 19.903366 
L 377.282595 19.10495 
L 378.698371 19.10495 
L 378.698371 18.306535 
L 404.87812 18.306535 
L 404.87812 17.508119 
L 407.565831 17.508119 
L 407.565831 16.709703 
L 414.367903 16.709703 
L 414.367903 15.911287 
L 417.110745 15.911287 
L 417.110745 15.112871 
L 417.561205 15.112871 
L 417.561205 14.314455 
L 418.625408 14.314455 
L 418.625408 13.51604 
L 419.306439 13.51604 
L 419.306439 12.717624 
L 419.521455 12.717624 
L 419.521455 11.919208 
L 420.634826 11.919208 
L 420.634826 11.120792 
L 421.262196 11.120792 
L 421.262196 10.322376 
L 422.472099 10.322376 
L 422.472099 9.52396 
L 423.037022 9.52396 
L 423.037022 8.725545 
L 425.821201 8.725545 
L 425.914868 7.128713 
L 427.371604 7.128713 
L 427.371604 6.330297 
L 427.371604 6.330297 
L 460.8 6.330297 
L 460.8 6.330297 
" style="fill:none;stroke:#ff0000;stroke-linecap:square;stroke-width:3;"/>
   </g>
   <g id="line2d_22">
    <path clip-path="url(#p678a2d0906)" d="M 196.788453 293.76 
L 196.833759 281.783762 
L 238.670001 281.783762 
L 238.670001 280.985347 
L 239.095325 280.985347 
L 239.095325 280.186931 
L 240.219408 280.186931 
L 240.219408 279.388515 
L 240.999836 279.388515 
L 240.999836 278.590099 
L 241.694628 278.590099 
L 241.694628 277.791683 
L 241.922061 277.791683 
L 242.000756 276.194851 
L 243.42231 276.194851 
L 243.42231 275.396436 
L 243.600361 275.396436 
L 243.684797 273.001188 
L 243.72688 273.001188 
L 243.72688 272.202772 
L 244.105688 272.202772 
L 244.172009 270.605941 
L 244.491162 270.605941 
L 244.491162 269.807525 
L 244.663356 269.807525 
L 244.713828 268.210693 
L 244.871488 268.210693 
L 244.91462 266.613861 
L 245.2814 266.613861 
L 245.2814 265.815446 
L 245.542592 265.815446 
L 245.542592 265.01703 
L 246.059421 265.01703 
L 246.059421 264.218614 
L 246.315995 264.218614 
L 246.315995 263.420198 
L 247.377647 263.420198 
L 247.462285 261.823366 
L 248.574293 261.823366 
L 248.574293 261.02495 
L 249.685218 261.02495 
L 249.685218 260.226535 
L 250.786362 260.226535 
L 250.786362 259.428119 
L 251.444216 259.428119 
L 251.444216 258.629703 
L 253.437483 258.629703 
L 253.437483 257.831287 
L 254.177533 257.831287 
L 254.195618 256.234455 
L 254.527968 256.234455 
L 254.611618 254.637624 
L 255.278768 254.637624 
L 255.349036 253.040792 
L 255.92514 253.040792 
L 255.92514 252.242376 
L 256.818256 252.242376 
L 256.835212 250.645545 
L 257.562022 250.645545 
L 257.65603 249.048713 
L 257.858239 249.048713 
L 257.858239 248.250297 
L 258.254818 248.250297 
L 258.254818 247.451881 
L 258.419107 247.451881 
L 258.518615 245.85505 
L 258.695018 245.85505 
L 258.695018 245.056634 
L 259.059108 245.056634 
L 259.169857 243.459802 
L 259.266026 243.459802 
L 259.30182 241.86297 
L 259.571073 241.86297 
L 259.571073 241.064554 
L 260.058026 241.064554 
L 260.058026 240.266139 
L 260.3183 240.266139 
L 260.3183 239.467723 
L 260.603819 239.467723 
L 260.603819 238.669307 
L 261.036383 238.669307 
L 261.094264 237.072475 
L 261.579643 237.072475 
L 261.579643 236.274059 
L 261.720469 236.274059 
L 261.793511 234.677228 
L 261.908938 234.677228 
L 261.912676 233.080396 
L 262.14974 233.080396 
L 262.14974 232.28198 
L 262.282257 232.28198 
L 262.353607 229.886733 
L 262.444385 229.886733 
L 262.522784 226.693069 
L 262.835857 226.693069 
L 262.835857 225.894653 
L 262.979857 225.894653 
L 263.085322 223.499406 
L 263.144548 223.499406 
L 263.144548 222.70099 
L 263.313131 222.70099 
L 263.313131 221.902574 
L 263.430331 221.902574 
L 263.536941 217.910495 
L 263.556214 217.910495 
L 263.613435 213.918416 
L 263.67382 213.918416 
L 263.75889 209.926337 
L 263.89979 209.926337 
L 263.913086 207.531089 
L 264.02462 207.531089 
L 264.082122 205.135842 
L 264.188374 205.135842 
L 264.188374 204.337426 
L 264.512461 204.337426 
L 264.616583 202.740594 
L 264.837115 202.740594 
L 264.837115 201.942178 
L 265.151014 201.942178 
L 265.243047 200.345347 
L 265.707448 200.345347 
L 265.785991 198.748515 
L 266.113378 198.748515 
L 266.113378 197.950099 
L 266.978959 197.950099 
L 267.033969 196.353267 
L 267.149758 196.353267 
L 267.160872 194.756436 
L 267.319636 194.756436 
L 267.319636 193.95802 
L 268.300003 193.95802 
L 268.300003 193.159604 
L 268.493325 193.159604 
L 268.524512 180.38495 
L 268.947941 180.38495 
L 268.947941 179.586535 
L 269.086667 179.586535 
L 269.086667 178.788119 
L 269.35074 178.788119 
L 269.35074 177.989703 
L 270.511804 177.989703 
L 270.511804 177.191287 
L 270.773975 177.191287 
L 270.773975 176.392871 
L 271.331426 176.392871 
L 271.384022 174.79604 
L 275.078704 174.79604 
L 275.078704 173.997624 
L 277.389693 173.997624 
L 277.477827 172.400792 
L 278.629244 172.400792 
L 278.629244 171.602376 
L 279.08834 171.602376 
L 279.08834 170.80396 
L 279.276072 170.80396 
L 279.276072 170.005545 
L 279.444331 170.005545 
L 279.444331 169.207129 
L 279.77803 169.207129 
L 279.77803 168.408713 
L 280.106149 168.408713 
L 280.162692 166.811881 
L 280.305737 166.811881 
L 280.371725 165.21505 
L 280.511845 165.21505 
L 280.511845 164.416634 
L 280.651148 164.416634 
L 280.651148 163.618218 
L 281.551917 163.618218 
L 281.551917 162.819802 
L 282.036382 162.819802 
L 282.090377 150.045149 
L 284.341973 150.045149 
L 284.341973 149.246733 
L 284.54894 149.246733 
L 284.54894 148.448317 
L 285.23426 148.448317 
L 285.320728 146.851485 
L 285.672183 146.851485 
L 285.732793 145.254653 
L 286.233174 145.254653 
L 286.233174 144.456238 
L 286.482385 144.456238 
L 286.482385 143.657822 
L 286.869063 143.657822 
L 286.869063 142.859406 
L 287.007728 142.859406 
L 287.074801 141.262574 
L 287.140016 141.262574 
L 287.21344 139.665743 
L 287.355947 139.665743 
L 287.432944 138.068911 
L 287.539296 138.068911 
L 287.632216 134.875248 
L 287.721186 134.875248 
L 287.721186 134.076832 
L 288.134712 134.076832 
L 288.162618 132.48 
L 288.478045 132.48 
L 288.479014 130.883168 
L 288.642518 130.883168 
L 288.647366 129.286337 
L 288.795682 129.286337 
L 288.822418 126.891089 
L 288.938833 126.891089 
L 288.938833 126.092673 
L 289.075045 126.092673 
L 289.075045 125.294257 
L 289.19922 125.294257 
L 289.266418 122.89901 
L 289.616731 122.89901 
L 289.616731 122.100594 
L 289.827701 122.100594 
L 289.828121 120.503762 
L 290.066782 120.503762 
L 290.066782 119.705347 
L 290.324814 119.705347 
L 290.324814 118.906931 
L 290.46987 118.906931 
L 290.5605 117.310099 
L 291.010728 117.310099 
L 291.010728 116.511683 
L 291.644742 116.511683 
L 291.688134 113.31802 
L 291.868383 113.31802 
L 291.868383 112.519604 
L 292.079066 112.519604 
L 292.109211 110.922772 
L 292.31606 110.922772 
L 292.31606 110.124356 
L 293.17101 110.124356 
L 293.17101 109.325941 
L 294.796744 109.325941 
L 294.796744 108.527525 
L 295.078327 108.527525 
L 295.078327 107.729109 
L 296.635859 107.729109 
L 296.635859 106.930693 
L 296.774705 106.930693 
L 296.774705 106.132277 
L 297.185963 106.132277 
L 297.185963 105.333861 
L 299.184481 105.333861 
L 299.217491 103.73703 
L 299.331298 103.73703 
L 299.407025 102.140198 
L 300.283666 102.140198 
L 300.283666 101.341782 
L 300.825131 101.341782 
L 300.920495 99.74495 
L 301.104605 99.74495 
L 301.104605 98.946535 
L 301.755908 98.946535 
L 301.865253 95.752871 
L 302.268983 95.752871 
L 302.268983 94.954455 
L 302.619768 94.954455 
L 302.619768 94.15604 
L 302.824724 94.15604 
L 302.824724 93.357624 
L 303.0623 93.357624 
L 303.103101 91.760792 
L 303.985403 91.760792 
L 304.013178 90.16396 
L 326.323255 90.16396 
L 326.323255 78.187723 
L 330.128901 78.187723 
L 330.128901 77.389307 
L 330.396212 77.389307 
L 330.396212 76.590891 
L 331.044236 76.590891 
L 331.044236 75.792475 
L 332.218592 75.792475 
L 332.218592 74.994059 
L 334.122425 74.994059 
L 334.122425 74.195644 
L 335.114755 74.195644 
L 335.114755 73.397228 
L 337.211448 73.397228 
L 337.211448 72.598812 
L 337.897516 72.598812 
L 337.957312 71.00198 
L 338.990533 71.00198 
L 339.04241 69.405149 
L 339.274395 69.405149 
L 339.274395 68.606733 
L 341.670576 68.606733 
L 341.670576 67.808317 
L 342.719052 67.808317 
L 342.719052 67.009901 
L 343.121723 67.009901 
L 343.121723 66.211485 
L 343.84034 66.211485 
L 343.84034 65.413069 
L 349.070481 65.413069 
L 349.070481 64.614653 
L 351.897779 64.614653 
L 351.897779 63.816238 
L 353.877824 63.816238 
L 353.877824 63.017822 
L 357.894013 63.017822 
L 357.894013 62.219406 
L 358.198545 62.219406 
L 358.198545 61.42099 
L 359.700912 61.42099 
L 359.700912 60.622574 
L 360.787898 60.622574 
L 360.787898 59.824158 
L 361.308211 59.824158 
L 361.308211 59.025743 
L 362.187665 59.025743 
L 362.187665 58.227327 
L 364.842204 58.227327 
L 364.842204 57.428911 
L 366.037281 57.428911 
L 366.037281 56.630495 
L 366.206496 56.630495 
L 366.213944 55.033663 
L 367.479242 55.033663 
L 367.479242 54.235248 
L 368.330029 54.235248 
L 368.393357 52.638416 
L 369.607479 52.638416 
L 369.607479 51.84 
L 372.574154 51.84 
L 372.574154 51.041584 
L 373.863067 51.041584 
L 373.863067 50.243168 
L 377.073949 50.243168 
L 377.073949 49.444752 
L 379.824527 49.444752 
L 379.824527 48.646337 
L 380.484676 48.646337 
L 380.484676 47.847921 
L 382.243471 47.847921 
L 382.243471 47.049505 
L 383.25082 47.049505 
L 383.25082 46.251089 
L 383.525083 46.251089 
L 383.525083 45.452673 
L 383.641264 45.452673 
L 383.641264 44.654257 
L 386.208619 44.654257 
L 386.208619 43.855842 
L 386.961461 43.855842 
L 386.961461 43.057426 
L 387.96901 43.057426 
L 387.96901 42.25901 
L 388.481234 42.25901 
L 388.481234 41.460594 
L 388.736026 41.460594 
L 388.736026 40.662178 
L 389.705725 40.662178 
L 389.705725 39.863762 
L 391.077989 39.863762 
L 391.138275 38.266931 
L 393.322791 38.266931 
L 393.322791 37.468515 
L 395.356362 37.468515 
L 395.399131 35.871683 
L 395.532563 35.871683 
L 395.532563 35.073267 
L 395.719487 35.073267 
L 395.719487 34.274851 
L 396.224744 34.274851 
L 396.224744 33.476436 
L 396.390541 33.476436 
L 396.390541 32.67802 
L 397.50075 32.67802 
L 397.50075 31.879604 
L 397.913643 31.879604 
L 397.929325 30.282772 
L 398.377707 30.282772 
L 398.434533 28.685941 
L 399.107399 28.685941 
L 399.107399 27.887525 
L 399.984198 27.887525 
L 399.984198 27.089109 
L 400.296086 27.089109 
L 400.371056 25.492277 
L 401.079582 25.492277 
L 401.079582 24.693861 
L 401.206168 24.693861 
L 401.206168 23.895446 
L 401.481201 23.895446 
L 401.481201 23.09703 
L 402.433467 23.09703 
L 402.433467 22.298614 
L 404.29135 22.298614 
L 404.29135 21.500198 
L 405.641742 21.500198 
L 405.641742 20.701782 
L 407.081062 20.701782 
L 407.081062 19.903366 
L 407.215456 19.903366 
L 407.215456 19.10495 
L 411.974126 19.10495 
L 411.974126 18.306535 
L 424.716647 18.306535 
L 424.716647 17.508119 
L 425.293594 17.508119 
L 425.293594 16.709703 
L 431.446422 16.709703 
L 431.446422 15.911287 
L 431.682083 15.911287 
L 431.682083 15.112871 
L 432.449024 15.112871 
L 432.449024 14.314455 
L 432.637812 14.314455 
L 432.637812 13.51604 
L 434.059834 13.51604 
L 434.059834 12.717624 
L 437.948984 12.717624 
L 437.948984 11.919208 
L 439.956971 11.919208 
L 439.956971 11.120792 
L 442.63535 11.120792 
L 442.63535 10.322376 
L 444.01345 10.322376 
L 444.01345 9.52396 
L 445.60509 9.52396 
L 445.60509 8.725545 
L 445.776796 8.725545 
L 445.776796 7.927129 
L 446.304399 7.927129 
L 446.304399 7.128713 
L 446.706372 7.128713 
L 446.706372 6.330297 
L 446.706372 6.330297 
L 460.8 6.330297 
L 460.8 6.330297 
" style="fill:none;stroke:#00bfbf;stroke-linecap:square;stroke-width:1.5;"/>
   </g>
   <g id="line2d_23">
    <path clip-path="url(#p678a2d0906)" d="M 196.775049 293.76 
L 196.810709 281.783762 
L 238.670001 281.783762 
L 238.670001 280.985347 
L 239.007237 280.985347 
L 239.007237 280.186931 
L 240.219408 280.186931 
L 240.219408 279.388515 
L 240.955099 279.388515 
L 240.955099 278.590099 
L 241.680515 278.590099 
L 241.680515 277.791683 
L 241.921178 277.791683 
L 241.999869 276.194851 
L 243.370944 276.194851 
L 243.370944 275.396436 
L 243.600361 275.396436 
L 243.684363 273.001188 
L 243.725959 273.001188 
L 243.725959 272.202772 
L 244.082749 272.202772 
L 244.171478 270.605941 
L 244.490387 270.605941 
L 244.490387 269.807525 
L 244.645046 269.807525 
L 244.713081 268.210693 
L 244.869457 268.210693 
L 244.913495 266.613861 
L 245.280918 266.613861 
L 245.280918 265.815446 
L 245.542043 265.815446 
L 245.542043 265.01703 
L 245.918085 265.01703 
L 245.918085 264.218614 
L 246.310013 264.218614 
L 246.310013 263.420198 
L 247.376577 263.420198 
L 247.429818 261.823366 
L 248.541067 261.823366 
L 248.541067 261.02495 
L 249.684889 261.02495 
L 249.684889 260.226535 
L 250.786362 260.226535 
L 250.786362 259.428119 
L 251.416846 259.428119 
L 251.416846 258.629703 
L 253.43704 258.629703 
L 253.43704 257.831287 
L 254.174633 257.831287 
L 254.195571 256.234455 
L 254.527754 256.234455 
L 254.611557 254.637624 
L 255.278768 254.637624 
L 255.349036 253.040792 
L 255.921943 253.040792 
L 255.921943 252.242376 
L 256.785638 252.242376 
L 256.834082 250.645545 
L 257.56173 250.645545 
L 257.65581 249.048713 
L 257.857567 249.048713 
L 257.857567 248.250297 
L 258.254818 248.250297 
L 258.254818 247.451881 
L 258.419014 247.451881 
L 258.518516 245.85505 
L 258.694656 245.85505 
L 258.694656 245.056634 
L 259.058813 245.056634 
L 259.167146 243.459802 
L 259.266003 243.459802 
L 259.300234 241.86297 
L 259.551264 241.86297 
L 259.551264 241.064554 
L 260.05631 241.064554 
L 260.05631 240.266139 
L 260.30984 240.266139 
L 260.30984 239.467723 
L 260.591978 239.467723 
L 260.591978 238.669307 
L 261.022995 238.669307 
L 261.086309 237.072475 
L 261.576334 237.072475 
L 261.576334 236.274059 
L 261.720391 236.274059 
L 261.793472 234.677228 
L 261.90372 234.677228 
L 261.908396 233.080396 
L 262.149615 233.080396 
L 262.149615 232.28198 
L 262.282257 232.28198 
L 262.353607 229.886733 
L 262.444361 229.886733 
L 262.522742 226.693069 
L 262.835847 226.693069 
L 262.835847 225.894653 
L 262.979832 225.894653 
L 263.085286 223.499406 
L 263.144537 223.499406 
L 263.144537 222.70099 
L 263.313131 222.70099 
L 263.313131 221.902574 
L 263.430319 221.902574 
L 263.536924 217.910495 
L 263.556156 217.910495 
L 263.605439 213.918416 
L 263.67382 213.918416 
L 263.758875 209.926337 
L 263.899775 209.926337 
L 263.91307 207.531089 
L 264.024575 207.531089 
L 264.082111 205.135842 
L 264.18837 205.135842 
L 264.18837 204.337426 
L 264.512461 204.337426 
L 264.616517 202.740594 
L 264.836969 202.740594 
L 264.836969 201.942178 
L 265.150962 201.942178 
L 265.243047 200.345347 
L 265.707261 200.345347 
L 265.785907 198.748515 
L 266.1133 198.748515 
L 266.1133 197.950099 
L 266.978904 197.950099 
L 267.033969 196.353267 
L 267.143422 196.353267 
L 267.149649 194.756436 
L 267.319035 194.756436 
L 267.319035 193.95802 
L 268.288022 193.95802 
L 268.288022 193.159604 
L 268.493225 193.159604 
L 268.524137 180.38495 
L 268.947923 180.38495 
L 268.947923 179.586535 
L 269.086609 179.586535 
L 269.086609 178.788119 
L 269.350734 178.788119 
L 269.350734 177.989703 
L 270.511804 177.989703 
L 270.511804 177.191287 
L 270.773618 177.191287 
L 270.773618 176.392871 
L 271.330956 176.392871 
L 271.382554 174.79604 
L 275.077319 174.79604 
L 275.077319 173.997624 
L 277.387282 173.997624 
L 277.47611 172.400792 
L 278.629244 172.400792 
L 278.629244 171.602376 
L 279.08834 171.602376 
L 279.08834 170.80396 
L 279.273771 170.80396 
L 279.273771 170.005545 
L 279.443111 170.005545 
L 279.443111 169.207129 
L 279.776377 169.207129 
L 279.776377 168.408713 
L 280.102973 168.408713 
L 280.152502 166.811881 
L 280.300129 166.811881 
L 280.371725 165.21505 
L 280.507298 165.21505 
L 280.507298 164.416634 
L 280.648199 164.416634 
L 280.648199 163.618218 
L 281.550288 163.618218 
L 281.550288 162.819802 
L 282.035074 162.819802 
L 282.090335 150.045149 
L 284.341973 150.045149 
L 284.341973 149.246733 
L 284.5484 149.246733 
L 284.5484 148.448317 
L 285.233805 148.448317 
L 285.320111 146.851485 
L 285.671757 146.851485 
L 285.731939 145.254653 
L 286.232655 145.254653 
L 286.232655 144.456238 
L 286.481802 144.456238 
L 286.481802 143.657822 
L 286.868095 143.657822 
L 286.868095 142.859406 
L 287.0077 142.859406 
L 287.074801 141.262574 
L 287.139496 141.262574 
L 287.212882 139.665743 
L 287.354884 139.665743 
L 287.432702 138.068911 
L 287.53854 138.068911 
L 287.631368 134.875248 
L 287.721024 134.875248 
L 287.721024 134.076832 
L 288.134236 134.076832 
L 288.162447 132.48 
L 288.477358 132.48 
L 288.478296 130.883168 
L 288.641928 130.883168 
L 288.647045 129.286337 
L 288.795682 129.286337 
L 288.820257 126.891089 
L 288.938547 126.891089 
L 288.938547 126.092673 
L 289.075023 126.092673 
L 289.075023 125.294257 
L 289.198797 125.294257 
L 289.266379 122.89901 
L 289.616393 122.89901 
L 289.616393 122.100594 
L 289.827421 122.100594 
L 289.827701 120.503762 
L 290.066782 120.503762 
L 290.066782 119.705347 
L 290.324304 119.705347 
L 290.324304 118.906931 
L 290.4694 118.906931 
L 290.5605 117.310099 
L 291.010728 117.310099 
L 291.010728 116.511683 
L 291.644117 116.511683 
L 291.687472 113.31802 
L 291.868383 113.31802 
L 291.868383 112.519604 
L 292.078805 112.519604 
L 292.108509 110.922772 
L 292.31532 110.922772 
L 292.31532 110.124356 
L 293.169557 110.124356 
L 293.169557 109.325941 
L 294.796744 109.325941 
L 294.796744 108.527525 
L 295.077946 108.527525 
L 295.077946 107.729109 
L 296.635859 107.729109 
L 296.635859 106.930693 
L 296.774705 106.930693 
L 296.774705 106.132277 
L 297.185827 106.132277 
L 297.185827 105.333861 
L 299.18447 105.333861 
L 299.217491 103.73703 
L 299.331215 103.73703 
L 299.407025 102.140198 
L 300.283583 102.140198 
L 300.283583 101.341782 
L 300.825115 101.341782 
L 300.920399 99.74495 
L 301.10457 99.74495 
L 301.10457 98.946535 
L 301.755525 98.946535 
L 301.865168 95.752871 
L 302.268878 95.752871 
L 302.268878 94.954455 
L 302.619768 94.954455 
L 302.619768 94.15604 
L 302.824724 94.15604 
L 302.824724 93.357624 
L 303.062263 93.357624 
L 303.103093 91.760792 
L 303.985403 91.760792 
L 304.013166 90.16396 
L 326.321176 90.16396 
L 326.32201 78.187723 
L 330.128053 78.187723 
L 330.128053 77.389307 
L 330.39441 77.389307 
L 330.39441 76.590891 
L 331.043034 76.590891 
L 331.043034 75.792475 
L 332.212663 75.792475 
L 332.212663 74.994059 
L 334.120863 74.994059 
L 334.120863 74.195644 
L 335.114222 74.195644 
L 335.114222 73.397228 
L 337.210142 73.397228 
L 337.210142 72.598812 
L 337.896685 72.598812 
L 337.956375 71.00198 
L 338.989899 71.00198 
L 339.041762 69.405149 
L 339.273295 69.405149 
L 339.273295 68.606733 
L 341.669991 68.606733 
L 341.669991 67.808317 
L 342.718696 67.808317 
L 342.718696 67.009901 
L 343.121199 67.009901 
L 343.121199 66.211485 
L 343.839969 66.211485 
L 343.839969 65.413069 
L 349.069816 65.413069 
L 349.069816 64.614653 
L 351.897456 64.614653 
L 351.897456 63.816238 
L 353.876521 63.816238 
L 353.876521 63.017822 
L 357.891681 63.017822 
L 357.891681 62.219406 
L 358.198336 62.219406 
L 358.198336 61.42099 
L 359.700698 61.42099 
L 359.700698 60.622574 
L 360.787766 60.622574 
L 360.787766 59.824158 
L 361.308211 59.824158 
L 361.308211 59.025743 
L 362.187182 59.025743 
L 362.187182 58.227327 
L 364.837733 58.227327 
L 364.837733 57.428911 
L 366.037281 57.428911 
L 366.037281 56.630495 
L 366.206496 56.630495 
L 366.213944 55.033663 
L 367.479205 55.033663 
L 367.479205 54.235248 
L 368.32987 54.235248 
L 368.391609 52.638416 
L 369.60731 52.638416 
L 369.60731 51.84 
L 372.5741 51.84 
L 372.5741 51.041584 
L 373.862999 51.041584 
L 373.862999 50.243168 
L 377.073222 50.243168 
L 377.073222 49.444752 
L 379.824527 49.444752 
L 379.824527 48.646337 
L 380.483981 48.646337 
L 380.483981 47.847921 
L 382.243124 47.847921 
L 382.243124 47.049505 
L 383.250679 47.049505 
L 383.250679 46.251089 
L 383.524243 46.251089 
L 383.524243 45.452673 
L 383.640251 45.452673 
L 383.640251 44.654257 
L 386.207613 44.654257 
L 386.207613 43.855842 
L 386.960701 43.855842 
L 386.960701 43.057426 
L 387.96901 43.057426 
L 387.96901 42.25901 
L 388.480234 42.25901 
L 388.480234 41.460594 
L 388.73474 41.460594 
L 388.73474 40.662178 
L 389.704864 40.662178 
L 389.704864 39.863762 
L 391.077721 39.863762 
L 391.138028 38.266931 
L 393.321688 38.266931 
L 393.321688 37.468515 
L 395.355899 37.468515 
L 395.397748 35.871683 
L 395.532229 35.871683 
L 395.532229 35.073267 
L 395.71938 35.073267 
L 395.71938 34.274851 
L 396.223103 34.274851 
L 396.223103 33.476436 
L 396.389488 33.476436 
L 396.389488 32.67802 
L 397.50075 32.67802 
L 397.50075 31.879604 
L 397.913048 31.879604 
L 397.929323 30.282772 
L 398.37763 30.282772 
L 398.432662 28.685941 
L 399.107399 28.685941 
L 399.107399 27.887525 
L 399.983179 27.887525 
L 399.983179 27.089109 
L 400.295338 27.089109 
L 400.371056 25.492277 
L 401.079488 25.492277 
L 401.079488 24.693861 
L 401.204611 24.693861 
L 401.204611 23.895446 
L 401.479844 23.895446 
L 401.479844 23.09703 
L 402.433133 23.09703 
L 402.433133 22.298614 
L 404.290452 22.298614 
L 404.290452 21.500198 
L 405.640336 21.500198 
L 405.640336 20.701782 
L 407.079812 20.701782 
L 407.079812 19.903366 
L 407.21417 19.903366 
L 407.21417 19.10495 
L 411.974126 19.10495 
L 411.974126 18.306535 
L 424.716477 18.306535 
L 424.716477 17.508119 
L 425.293265 17.508119 
L 425.293265 16.709703 
L 431.446099 16.709703 
L 431.446099 15.911287 
L 431.681753 15.911287 
L 431.681753 15.112871 
L 432.448767 15.112871 
L 432.448767 14.314455 
L 432.637105 14.314455 
L 432.637105 13.51604 
L 434.059448 13.51604 
L 434.059448 12.717624 
L 437.948332 12.717624 
L 437.948332 11.919208 
L 439.956901 11.919208 
L 439.956901 11.120792 
L 442.635287 11.120792 
L 442.635287 10.322376 
L 444.012979 10.322376 
L 444.012979 9.52396 
L 445.60509 9.52396 
L 445.60509 8.725545 
L 445.776631 8.725545 
L 445.776631 7.927129 
L 446.304057 7.927129 
L 446.304057 7.128713 
L 446.706372 7.128713 
L 446.706372 6.330297 
L 446.706372 6.330297 
L 460.8 6.330297 
L 460.8 6.330297 
" style="fill:none;stroke:#bf00bf;stroke-linecap:square;stroke-width:1.5;"/>
   </g>
   <g id="line2d_24">
    <path clip-path="url(#p678a2d0906)" d="M 196.559551 293.76 
L 196.666716 283.380594 
L 196.678757 283.380594 
L 196.684901 281.783762 
L 238.348559 281.783762 
L 238.348559 280.985347 
L 238.584642 280.985347 
L 238.584642 280.186931 
L 239.646468 280.186931 
L 239.646468 279.388515 
L 240.649021 279.388515 
L 240.649021 278.590099 
L 241.339877 278.590099 
L 241.339877 277.791683 
L 241.911023 277.791683 
L 241.99224 276.194851 
L 242.986607 276.194851 
L 242.986607 275.396436 
L 243.396195 275.396436 
L 243.396195 274.59802 
L 243.654023 274.59802 
L 243.717892 271.404356 
L 244.078669 271.404356 
L 244.160967 269.807525 
L 244.485698 269.807525 
L 244.485698 269.009109 
L 244.707077 269.009109 
L 244.707077 268.210693 
L 244.861555 268.210693 
L 244.90538 266.613861 
L 245.181308 266.613861 
L 245.274099 265.01703 
L 245.53953 265.01703 
L 245.53953 264.218614 
L 246.037778 264.218614 
L 246.037778 263.420198 
L 247.164077 263.420198 
L 247.164077 262.621782 
L 247.367405 262.621782 
L 247.367405 261.823366 
L 248.220208 261.823366 
L 248.220208 261.02495 
L 249.681901 261.02495 
L 249.681901 260.226535 
L 250.622603 260.226535 
L 250.622603 259.428119 
L 251.242231 259.428119 
L 251.242231 258.629703 
L 253.434672 258.629703 
L 253.434672 257.831287 
L 254.141743 257.831287 
L 254.19358 256.234455 
L 254.524742 256.234455 
L 254.607212 254.637624 
L 255.276537 254.637624 
L 255.27906 253.040792 
L 255.896446 253.040792 
L 255.896446 252.242376 
L 256.757376 252.242376 
L 256.822877 250.645545 
L 257.559719 250.645545 
L 257.641531 249.048713 
L 257.846068 249.048713 
L 257.846068 248.250297 
L 258.253117 248.250297 
L 258.253117 247.451881 
L 258.417052 247.451881 
L 258.516394 245.85505 
L 258.691621 245.85505 
L 258.691621 245.056634 
L 259.057005 245.056634 
L 259.151973 243.459802 
L 259.257817 243.459802 
L 259.291621 241.86297 
L 259.509379 241.86297 
L 259.509379 241.064554 
L 260.041535 241.064554 
L 260.041535 240.266139 
L 260.287988 240.266139 
L 260.287988 239.467723 
L 260.577529 239.467723 
L 260.577529 238.669307 
L 260.991541 238.669307 
L 261.050555 237.072475 
L 261.556607 237.072475 
L 261.556607 236.274059 
L 261.719619 236.274059 
L 261.79281 234.677228 
L 261.846661 234.677228 
L 261.905556 233.080396 
L 262.146869 233.080396 
L 262.146869 232.28198 
L 262.280963 232.28198 
L 262.332508 229.886733 
L 262.398866 229.886733 
L 262.44788 227.491485 
L 262.522375 227.491485 
L 262.522375 226.693069 
L 262.835517 226.693069 
L 262.835517 225.894653 
L 262.979371 225.894653 
L 263.085004 223.499406 
L 263.144233 223.499406 
L 263.144233 222.70099 
L 263.31286 222.70099 
L 263.31286 221.902574 
L 263.429991 221.902574 
L 263.540729 217.112079 
L 263.555898 217.112079 
L 263.605162 213.918416 
L 263.672473 213.918416 
L 263.758773 209.926337 
L 263.899645 209.926337 
L 263.981999 206.732673 
L 264.024479 206.732673 
L 264.082047 205.135842 
L 264.188301 205.135842 
L 264.188301 204.337426 
L 264.510011 204.337426 
L 264.615336 202.740594 
L 264.835622 202.740594 
L 264.835622 201.942178 
L 265.149702 201.942178 
L 265.214932 200.345347 
L 265.705979 200.345347 
L 265.784653 198.748515 
L 266.112063 198.748515 
L 266.112063 197.950099 
L 266.977768 197.950099 
L 267.032881 196.353267 
L 267.118167 196.353267 
L 267.148396 194.756436 
L 267.306352 194.756436 
L 267.306352 193.95802 
L 268.268283 193.95802 
L 268.268283 193.159604 
L 268.492101 193.159604 
L 268.521526 180.38495 
L 268.946894 180.38495 
L 268.946894 179.586535 
L 269.085661 179.586535 
L 269.085661 178.788119 
L 269.349731 178.788119 
L 269.349731 177.989703 
L 270.510847 177.989703 
L 270.510847 177.191287 
L 270.771477 177.191287 
L 270.771477 176.392871 
L 271.32473 176.392871 
L 271.373944 174.79604 
L 275.042412 174.79604 
L 275.042412 173.997624 
L 277.362553 173.997624 
L 277.431709 172.400792 
L 278.606306 172.400792 
L 278.606306 171.602376 
L 279.042868 171.602376 
L 279.042868 170.80396 
L 279.24861 170.80396 
L 279.24861 170.005545 
L 279.411309 170.005545 
L 279.411309 169.207129 
L 279.73721 169.207129 
L 279.73721 168.408713 
L 280.071393 168.408713 
L 280.126383 166.811881 
L 280.274375 166.811881 
L 280.336608 165.21505 
L 280.477977 165.21505 
L 280.477977 164.416634 
L 280.59844 164.416634 
L 280.59844 163.618218 
L 281.525603 163.618218 
L 281.525603 162.819802 
L 282.010047 162.819802 
L 282.090057 150.045149 
L 284.341973 150.045149 
L 284.341973 149.246733 
L 284.542475 149.246733 
L 284.542475 148.448317 
L 285.229165 148.448317 
L 285.316536 146.851485 
L 285.667055 146.851485 
L 285.728725 145.254653 
L 286.228475 145.254653 
L 286.228475 144.456238 
L 286.478011 144.456238 
L 286.478011 143.657822 
L 286.863725 143.657822 
L 286.863725 142.859406 
L 287.00376 142.859406 
L 287.074801 141.262574 
L 287.134971 141.262574 
L 287.207382 139.665743 
L 287.350608 139.665743 
L 287.429762 138.068911 
L 287.535236 138.068911 
L 287.628498 134.875248 
L 287.717979 134.875248 
L 287.717979 134.076832 
L 288.130055 134.076832 
L 288.1596 132.48 
L 288.472238 132.48 
L 288.474154 130.883168 
L 288.640109 130.883168 
L 288.642551 129.286337 
L 288.795682 129.286337 
L 288.81534 126.891089 
L 288.936047 126.891089 
L 288.936047 126.092673 
L 289.070916 126.092673 
L 289.070916 125.294257 
L 289.196118 125.294257 
L 289.263533 122.89901 
L 289.612599 122.89901 
L 289.612599 122.100594 
L 289.825053 122.100594 
L 289.827701 120.503762 
L 290.066782 120.503762 
L 290.066782 119.705347 
L 290.322932 119.705347 
L 290.322932 118.906931 
L 290.465568 118.906931 
L 290.5605 117.310099 
L 291.010728 117.310099 
L 291.010728 116.511683 
L 291.641905 116.511683 
L 291.684981 113.31802 
L 291.868383 113.31802 
L 291.868383 112.519604 
L 292.076144 112.519604 
L 292.105906 110.922772 
L 292.310432 110.922772 
L 292.310432 110.124356 
L 293.166374 110.124356 
L 293.166374 109.325941 
L 294.796744 109.325941 
L 294.796744 108.527525 
L 295.07288 108.527525 
L 295.07288 107.729109 
L 296.635859 107.729109 
L 296.635859 106.930693 
L 296.774705 106.930693 
L 296.774705 106.132277 
L 297.184908 106.132277 
L 297.184908 105.333861 
L 299.183557 105.333861 
L 299.217491 103.73703 
L 299.330525 103.73703 
L 299.407025 102.140198 
L 300.282848 102.140198 
L 300.282848 101.341782 
L 300.824508 101.341782 
L 300.91984 99.74495 
L 301.103865 99.74495 
L 301.103865 98.946535 
L 301.753873 98.946535 
L 301.864443 95.752871 
L 302.268303 95.752871 
L 302.268303 94.954455 
L 302.619768 94.954455 
L 302.619768 94.15604 
L 302.824172 94.15604 
L 302.824172 93.357624 
L 303.061736 93.357624 
L 303.102481 91.760792 
L 303.985403 91.760792 
L 304.012593 90.16396 
L 326.315675 90.16396 
L 326.318352 78.187723 
L 330.124652 78.187723 
L 330.124652 77.389307 
L 330.391054 77.389307 
L 330.391054 76.590891 
L 331.038852 76.590891 
L 331.038852 75.792475 
L 332.171536 75.792475 
L 332.171536 74.994059 
L 334.117524 74.994059 
L 334.117524 74.195644 
L 335.111378 74.195644 
L 335.111378 73.397228 
L 337.207498 73.397228 
L 337.207498 72.598812 
L 337.893615 72.598812 
L 337.952915 71.00198 
L 338.987122 71.00198 
L 339.039072 69.405149 
L 339.270073 69.405149 
L 339.270073 68.606733 
L 341.66766 68.606733 
L 341.66766 67.808317 
L 342.716746 67.808317 
L 342.716746 67.009901 
L 343.119037 67.009901 
L 343.119037 66.211485 
L 343.837948 66.211485 
L 343.837948 65.413069 
L 349.066557 65.413069 
L 349.066557 64.614653 
L 351.895108 64.614653 
L 351.895108 63.816238 
L 353.85418 63.816238 
L 353.85418 63.017822 
L 357.881295 63.017822 
L 357.881295 62.219406 
L 358.196633 62.219406 
L 358.196633 61.42099 
L 359.699504 61.42099 
L 359.699504 60.622574 
L 360.78571 60.622574 
L 360.78571 59.824158 
L 361.306484 59.824158 
L 361.306484 59.025743 
L 362.184886 59.025743 
L 362.184886 58.227327 
L 364.820836 58.227327 
L 364.820836 57.428911 
L 366.036751 57.428911 
L 366.036751 56.630495 
L 366.206266 56.630495 
L 366.21371 55.033663 
L 367.477335 55.033663 
L 367.477335 54.235248 
L 368.328004 54.235248 
L 368.372849 52.638416 
L 369.60484 52.638416 
L 369.60484 51.84 
L 372.572744 51.84 
L 372.572744 51.041584 
L 373.862584 51.041584 
L 373.862584 50.243168 
L 377.068249 50.243168 
L 377.068249 49.444752 
L 379.814324 49.444752 
L 379.814324 48.646337 
L 380.477491 48.646337 
L 380.477491 47.847921 
L 382.240455 47.847921 
L 382.240455 47.049505 
L 383.243027 47.049505 
L 383.243027 46.251089 
L 383.517383 46.251089 
L 383.517383 45.452673 
L 383.630663 45.452673 
L 383.630663 44.654257 
L 386.203432 44.654257 
L 386.203432 43.855842 
L 386.950381 43.855842 
L 386.950381 43.057426 
L 387.963606 43.057426 
L 387.963606 42.25901 
L 388.478443 42.25901 
L 388.478443 41.460594 
L 388.733224 41.460594 
L 388.733224 40.662178 
L 389.70145 40.662178 
L 389.70145 39.863762 
L 391.075948 39.863762 
L 391.133218 38.266931 
L 393.316468 38.266931 
L 393.316468 37.468515 
L 395.351648 37.468515 
L 395.396402 35.871683 
L 395.529154 35.871683 
L 395.529154 35.073267 
L 395.717214 35.073267 
L 395.717214 34.274851 
L 396.22172 34.274851 
L 396.22172 33.476436 
L 396.388445 33.476436 
L 396.388445 32.67802 
L 397.498514 32.67802 
L 397.498514 31.879604 
L 397.911925 31.879604 
L 397.924833 30.282772 
L 398.376129 30.282772 
L 398.429379 28.685941 
L 399.104918 28.685941 
L 399.104918 27.887525 
L 399.982747 27.887525 
L 399.982747 27.089109 
L 400.293376 27.089109 
L 400.368708 25.492277 
L 401.076758 25.492277 
L 401.076758 24.693861 
L 401.203251 24.693861 
L 401.203251 23.895446 
L 401.479301 23.895446 
L 401.479301 23.09703 
L 402.429724 23.09703 
L 402.429724 22.298614 
L 404.289417 22.298614 
L 404.289417 21.500198 
L 405.637931 21.500198 
L 405.637931 20.701782 
L 407.07758 20.701782 
L 407.07758 19.903366 
L 407.211867 19.903366 
L 407.211867 19.10495 
L 411.972375 19.10495 
L 411.972375 18.306535 
L 424.714003 18.306535 
L 424.714003 17.508119 
L 425.290614 17.508119 
L 425.290614 16.709703 
L 431.443203 16.709703 
L 431.443203 15.911287 
L 431.678232 15.911287 
L 431.678232 15.112871 
L 432.447145 15.112871 
L 432.447145 14.314455 
L 432.6345 14.314455 
L 432.6345 13.51604 
L 434.057655 13.51604 
L 434.057655 12.717624 
L 437.945566 12.717624 
L 437.945566 11.919208 
L 439.953626 11.919208 
L 439.953626 11.120792 
L 442.630595 11.120792 
L 442.630595 10.322376 
L 444.007822 10.322376 
L 444.007822 9.52396 
L 445.602585 9.52396 
L 445.602585 8.725545 
L 445.773245 8.725545 
L 445.773245 7.927129 
L 446.299604 7.927129 
L 446.299604 7.128713 
L 446.702929 7.128713 
L 446.702929 6.330297 
L 446.702929 6.330297 
L 460.8 6.330297 
L 460.8 6.330297 
" style="fill:none;stroke:#000000;stroke-linecap:square;stroke-width:1.5;"/>
   </g>
   <g id="line2d_25">
    <path clip-path="url(#p678a2d0906)" d="M 194.751413 293.76 
L 194.751413 292.961584 
L 195.173961 292.961584 
L 195.268004 291.364752 
L 195.303971 291.364752 
L 195.379623 288.969505 
L 195.454213 288.969505 
L 195.518499 284.17901 
L 195.573554 284.17901 
L 195.573554 283.380594 
L 195.830718 283.380594 
L 195.905385 281.783762 
L 233.367172 281.783762 
L 233.367172 280.985347 
L 234.202016 280.985347 
L 234.202016 280.186931 
L 238.126192 280.186931 
L 238.126192 279.388515 
L 238.961707 279.388515 
L 238.961707 278.590099 
L 239.7275 278.590099 
L 239.7275 277.791683 
L 240.26954 277.791683 
L 240.26954 276.993267 
L 240.662272 276.993267 
L 240.662272 276.194851 
L 241.12393 276.194851 
L 241.12393 275.396436 
L 241.333167 275.396436 
L 241.333167 274.59802 
L 241.718884 274.59802 
L 241.829177 273.001188 
L 242.207794 273.001188 
L 242.207794 272.202772 
L 243.253229 272.202772 
L 243.253229 271.404356 
L 243.538363 271.404356 
L 243.572275 269.807525 
L 243.92257 269.807525 
L 243.92257 269.009109 
L 244.345143 269.009109 
L 244.345143 268.210693 
L 244.540675 268.210693 
L 244.540675 267.412277 
L 244.677369 267.412277 
L 244.743802 265.01703 
L 245.125626 265.01703 
L 245.176938 263.420198 
L 245.465727 263.420198 
L 245.465727 262.621782 
L 245.935918 262.621782 
L 245.935918 261.823366 
L 246.988121 261.823366 
L 246.988121 261.02495 
L 247.205274 261.02495 
L 247.205274 260.226535 
L 249.61999 260.226535 
L 249.61999 259.428119 
L 250.235947 259.428119 
L 250.235947 258.629703 
L 253.368632 258.629703 
L 253.368632 257.831287 
L 253.515967 257.831287 
L 253.515967 257.032871 
L 254.152396 257.032871 
L 254.152396 256.234455 
L 254.464253 256.234455 
L 254.500487 254.637624 
L 255.190434 254.637624 
L 255.212272 253.040792 
L 255.38265 253.040792 
L 255.38265 252.242376 
L 256.553301 252.242376 
L 256.622983 250.645545 
L 257.35582 250.645545 
L 257.35582 249.847129 
L 257.502058 249.847129 
L 257.590788 248.250297 
L 258.200825 248.250297 
L 258.200825 247.451881 
L 258.378091 247.451881 
L 258.474666 245.85505 
L 258.608896 245.85505 
L 258.702503 244.258218 
L 259.005164 244.258218 
L 259.089428 241.86297 
L 259.271503 241.86297 
L 259.271503 241.064554 
L 259.689527 241.064554 
L 259.689527 240.266139 
L 260.259726 240.266139 
L 260.259726 239.467723 
L 260.550951 239.467723 
L 260.550951 238.669307 
L 260.846045 238.669307 
L 260.877349 237.072475 
L 260.985009 237.072475 
L 260.985009 236.274059 
L 261.704997 236.274059 
L 261.779968 234.677228 
L 261.826955 234.677228 
L 261.839614 233.080396 
L 261.969955 233.080396 
L 261.969955 232.28198 
L 262.091116 232.28198 
L 262.091116 231.483564 
L 262.252594 231.483564 
L 262.338644 229.088317 
L 262.435686 229.088317 
L 262.515156 226.693069 
L 262.632138 226.693069 
L 262.632138 225.894653 
L 262.828969 225.894653 
L 262.828969 225.096238 
L 262.96941 225.096238 
L 263.078212 222.70099 
L 263.138064 222.70099 
L 263.138064 221.902574 
L 263.307194 221.902574 
L 263.307194 221.104158 
L 263.423429 221.104158 
L 263.530764 216.313663 
L 263.550228 216.313663 
L 263.599716 213.12 
L 263.665985 213.12 
L 263.755563 209.926337 
L 263.896908 209.926337 
L 263.930394 206.732673 
L 264.020504 206.732673 
L 264.080721 205.135842 
L 264.186768 205.135842 
L 264.186768 204.337426 
L 264.460512 204.337426 
L 264.460512 203.53901 
L 264.590356 203.53901 
L 264.590356 202.740594 
L 264.807601 202.740594 
L 264.807601 201.942178 
L 265.121952 201.942178 
L 265.161337 200.345347 
L 265.681059 200.345347 
L 265.758462 198.748515 
L 266.086579 198.748515 
L 266.086579 197.950099 
L 266.954733 197.950099 
L 267.010181 196.353267 
L 267.07908 196.353267 
L 267.123721 193.95802 
L 268.246436 193.95802 
L 268.246436 193.159604 
L 268.436258 193.159604 
L 268.469174 180.38495 
L 268.922709 180.38495 
L 268.922709 179.586535 
L 269.063767 179.586535 
L 269.063767 178.788119 
L 269.328865 178.788119 
L 269.328865 177.989703 
L 270.488664 177.989703 
L 270.488664 177.191287 
L 270.721025 177.191287 
L 270.721025 176.392871 
L 271.22398 176.392871 
L 271.231544 174.79604 
L 274.346699 174.79604 
L 274.346699 173.997624 
L 276.510816 173.997624 
L 276.510816 173.199208 
L 276.791484 173.199208 
L 276.791484 172.400792 
L 277.941126 172.400792 
L 277.941126 171.602376 
L 278.119721 171.602376 
L 278.119721 170.80396 
L 278.76146 170.80396 
L 278.790075 169.207129 
L 278.899965 169.207129 
L 278.899965 168.408713 
L 279.361348 168.408713 
L 279.428495 166.811881 
L 279.549862 166.811881 
L 279.644854 163.618218 
L 281.066636 163.618218 
L 281.066636 162.819802 
L 281.382934 162.819802 
L 281.382934 162.021386 
L 282.082516 162.021386 
L 282.084309 150.045149 
L 284.341973 150.045149 
L 284.4189 148.448317 
L 285.133458 148.448317 
L 285.133458 147.649901 
L 285.251135 147.649901 
L 285.251135 146.851485 
L 285.568411 146.851485 
L 285.634518 145.254653 
L 286.139716 145.254653 
L 286.139716 144.456238 
L 286.400396 144.456238 
L 286.400396 143.657822 
L 286.774745 143.657822 
L 286.774745 142.859406 
L 286.925568 142.859406 
L 286.925568 142.06099 
L 287.044387 142.06099 
L 287.092799 139.665743 
L 287.236371 139.665743 
L 287.236371 138.867327 
L 287.366613 138.867327 
L 287.460915 137.270495 
L 287.488057 137.270495 
L 287.557096 134.875248 
L 287.655255 134.875248 
L 287.655255 134.076832 
L 288.052338 134.076832 
L 288.100122 132.48 
L 288.36604 132.48 
L 288.376264 130.883168 
L 288.53434 130.883168 
L 288.596964 129.286337 
L 288.663737 129.286337 
L 288.717019 127.689505 
L 288.795682 127.689505 
L 288.883117 126.092673 
L 288.97475 126.092673 
L 288.97475 125.294257 
L 289.140767 125.294257 
L 289.202622 122.89901 
L 289.527587 122.89901 
L 289.527587 122.100594 
L 289.750377 122.100594 
L 289.827701 120.503762 
L 290.066782 120.503762 
L 290.066782 119.705347 
L 290.286512 119.705347 
L 290.391326 118.108515 
L 290.5605 118.108515 
L 290.5605 117.310099 
L 291.010728 117.310099 
L 291.010728 116.511683 
L 291.530334 116.511683 
L 291.612774 113.31802 
L 291.868383 113.31802 
L 291.868383 112.519604 
L 292.018494 112.519604 
L 292.050516 110.922772 
L 292.20433 110.922772 
L 292.20433 110.124356 
L 293.020064 110.124356 
L 293.020064 109.325941 
L 294.796744 109.325941 
L 294.796744 108.527525 
L 294.970676 108.527525 
L 294.970676 107.729109 
L 296.635859 107.729109 
L 296.635859 106.930693 
L 296.774705 106.930693 
L 296.774705 106.132277 
L 297.165927 106.132277 
L 297.165927 105.333861 
L 299.164971 105.333861 
L 299.217491 103.73703 
L 299.317114 103.73703 
L 299.407025 102.140198 
L 300.268611 102.140198 
L 300.268611 101.341782 
L 300.81183 101.341782 
L 300.904177 99.74495 
L 301.086474 99.74495 
L 301.086474 98.946535 
L 301.701049 98.946535 
L 301.808119 97.349703 
L 301.846844 97.349703 
L 301.85162 95.752871 
L 302.251727 95.752871 
L 302.251727 94.954455 
L 302.619768 94.954455 
L 302.619768 94.15604 
L 302.812694 94.15604 
L 302.812694 93.357624 
L 303.050071 93.357624 
L 303.08803 91.760792 
L 303.985403 91.760792 
L 304.001048 90.16396 
L 326.165513 90.16396 
L 326.216537 78.187723 
L 330.02955 78.187723 
L 330.02955 77.389307 
L 330.270962 77.389307 
L 330.270962 76.590891 
L 330.833105 76.590891 
L 330.936367 74.994059 
L 334.024168 74.994059 
L 334.024168 74.195644 
L 335.033671 74.195644 
L 335.033671 73.397228 
L 337.117152 73.397228 
L 337.117152 72.598812 
L 337.822254 72.598812 
L 337.874142 71.00198 
L 338.922843 71.00198 
L 338.958955 69.405149 
L 339.190773 69.405149 
L 339.190773 68.606733 
L 341.611787 68.606733 
L 341.611787 67.808317 
L 342.662373 67.808317 
L 342.662373 67.009901 
L 343.05401 67.009901 
L 343.05401 66.211485 
L 343.780687 66.211485 
L 343.780687 65.413069 
L 348.996293 65.413069 
L 348.996293 64.614653 
L 351.830986 64.614653 
L 351.830986 63.816238 
L 353.3318 63.816238 
L 353.3318 63.017822 
L 357.571978 63.017822 
L 357.571978 62.219406 
L 358.160768 62.219406 
L 358.160768 61.42099 
L 359.675271 61.42099 
L 359.675271 60.622574 
L 360.726408 60.622574 
L 360.726408 59.824158 
L 361.25433 59.824158 
L 361.25433 59.025743 
L 362.119377 59.025743 
L 362.119377 58.227327 
L 364.410547 58.227327 
L 364.410547 57.428911 
L 366.025881 57.428911 
L 366.025881 56.630495 
L 366.201454 56.630495 
L 366.209229 55.033663 
L 367.4401 55.033663 
L 367.4401 54.235248 
L 367.997067 54.235248 
L 367.997067 53.436832 
L 368.271425 53.436832 
L 368.271425 52.638416 
L 369.553404 52.638416 
L 369.553404 51.84 
L 372.544265 51.84 
L 372.544265 51.041584 
L 373.850776 51.041584 
L 373.850776 50.243168 
L 376.919924 50.243168 
L 376.919924 49.444752 
L 379.595447 49.444752 
L 379.595447 48.646337 
L 380.34057 48.646337 
L 380.34057 47.847921 
L 382.181657 47.847921 
L 382.181657 47.049505 
L 383.077395 47.049505 
L 383.077395 46.251089 
L 383.325782 46.251089 
L 383.325782 45.452673 
L 383.443503 45.452673 
L 383.443503 44.654257 
L 386.088042 44.654257 
L 386.088042 43.855842 
L 386.751595 43.855842 
L 386.751595 43.057426 
L 387.846865 43.057426 
L 387.846865 42.25901 
L 388.416871 42.25901 
L 388.416871 41.460594 
L 388.676279 41.460594 
L 388.676279 40.662178 
L 389.608569 40.662178 
L 389.608569 39.863762 
L 391.037159 39.863762 
L 391.040554 38.266931 
L 393.168077 38.266931 
L 393.168077 37.468515 
L 395.262931 37.468515 
L 395.350606 35.871683 
L 395.465554 35.871683 
L 395.465554 35.073267 
L 395.674001 35.073267 
L 395.674001 34.274851 
L 396.169175 34.274851 
L 396.169175 33.476436 
L 396.353216 33.476436 
L 396.353216 32.67802 
L 397.433726 32.67802 
L 397.433726 31.879604 
L 397.836341 31.879604 
L 397.88255 30.282772 
L 398.336607 30.282772 
L 398.345793 28.685941 
L 399.055024 28.685941 
L 399.055024 27.887525 
L 399.951278 27.887525 
L 399.951278 27.089109 
L 400.247911 27.089109 
L 400.318858 25.492277 
L 401.022153 25.492277 
L 401.022153 24.693861 
L 401.152795 24.693861 
L 401.152795 23.895446 
L 401.439978 23.895446 
L 401.439978 23.09703 
L 402.3567 23.09703 
L 402.3567 22.298614 
L 404.250081 22.298614 
L 404.250081 21.500198 
L 405.570086 21.500198 
L 405.570086 20.701782 
L 407.014965 20.701782 
L 407.014965 19.903366 
L 407.148051 19.903366 
L 407.148051 19.10495 
L 411.939121 19.10495 
L 411.939121 18.306535 
L 424.640203 18.306535 
L 424.640203 17.508119 
L 425.222371 17.508119 
L 425.222371 16.709703 
L 431.380913 16.709703 
L 431.380913 15.911287 
L 431.582506 15.911287 
L 431.582506 15.112871 
L 432.400888 15.112871 
L 432.400888 14.314455 
L 432.559401 14.314455 
L 432.559401 13.51604 
L 434.005472 13.51604 
L 434.005472 12.717624 
L 437.868911 12.717624 
L 437.868911 11.919208 
L 439.891057 11.919208 
L 439.891057 11.120792 
L 442.536623 11.120792 
L 442.536623 10.322376 
L 443.903041 10.322376 
L 443.903041 9.52396 
L 445.539654 9.52396 
L 445.539654 8.725545 
L 445.70414 8.725545 
L 445.70414 7.927129 
L 446.210735 7.927129 
L 446.210735 7.128713 
L 446.63311 7.128713 
L 446.63311 6.330297 
L 446.63311 6.330297 
L 460.8 6.330297 
L 460.8 6.330297 
" style="fill:none;stroke:#00bfbf;stroke-linecap:square;stroke-width:1.5;"/>
   </g>
   <g id="line2d_26">
    <path clip-path="url(#p678a2d0906)" d="M 169.103125 293.76 
L 169.103125 292.961584 
L 169.435941 292.961584 
L 169.435941 292.163168 
L 170.21674 292.163168 
L 170.21674 291.364752 
L 171.531489 291.364752 
L 171.531489 290.566337 
L 171.796485 290.566337 
L 171.796485 289.767921 
L 174.033581 289.767921 
L 174.033581 288.969505 
L 174.753072 288.969505 
L 174.753072 288.171089 
L 175.212879 288.171089 
L 175.212879 287.372673 
L 175.351842 287.372673 
L 175.351842 286.574257 
L 175.586393 286.574257 
L 175.586393 285.775842 
L 175.957881 285.775842 
L 175.957881 284.977426 
L 180.235858 284.977426 
L 180.320764 283.380594 
L 182.647132 283.380594 
L 182.647132 282.582178 
L 184.863457 282.582178 
L 184.863457 281.783762 
L 226.959953 281.783762 
L 226.959953 280.985347 
L 228.875576 280.985347 
L 228.875576 280.186931 
L 230.973482 280.186931 
L 230.973482 279.388515 
L 231.142404 279.388515 
L 231.142404 278.590099 
L 232.255701 278.590099 
L 232.255701 277.791683 
L 235.084126 277.791683 
L 235.084126 276.993267 
L 235.597376 276.993267 
L 235.597376 276.194851 
L 236.011645 276.194851 
L 236.011645 275.396436 
L 236.275782 275.396436 
L 236.275782 274.59802 
L 236.77081 274.59802 
L 236.77081 273.799604 
L 236.994128 273.799604 
L 236.994128 273.001188 
L 237.579645 273.001188 
L 237.671166 270.605941 
L 238.233001 270.605941 
L 238.233001 269.807525 
L 239.392656 269.807525 
L 239.460721 267.412277 
L 239.720113 267.412277 
L 239.720113 266.613861 
L 239.845714 266.613861 
L 239.845714 265.815446 
L 240.074709 265.815446 
L 240.074709 265.01703 
L 240.19815 265.01703 
L 240.19815 264.218614 
L 240.826817 264.218614 
L 240.826817 263.420198 
L 241.581199 263.420198 
L 241.581199 262.621782 
L 241.788621 262.621782 
L 241.788621 261.823366 
L 241.968735 261.823366 
L 241.968735 261.02495 
L 242.486125 261.02495 
L 242.486125 260.226535 
L 243.520372 260.226535 
L 243.520372 259.428119 
L 244.363633 259.428119 
L 244.363633 258.629703 
L 244.615714 258.629703 
L 244.615714 257.831287 
L 245.146989 257.831287 
L 245.146989 257.032871 
L 245.450477 257.032871 
L 245.450477 256.234455 
L 245.596363 256.234455 
L 245.596363 255.43604 
L 245.722245 255.43604 
L 245.784466 253.839208 
L 246.94746 253.839208 
L 246.94746 253.040792 
L 247.353051 253.040792 
L 247.384099 251.44396 
L 248.879634 251.44396 
L 248.879634 250.645545 
L 249.331725 250.645545 
L 249.331725 249.847129 
L 249.92197 249.847129 
L 249.987634 248.250297 
L 250.050641 248.250297 
L 250.050641 247.451881 
L 250.179759 247.451881 
L 250.179759 246.653465 
L 251.271569 246.653465 
L 251.271569 245.85505 
L 251.677121 245.85505 
L 251.677121 245.056634 
L 251.966627 245.056634 
L 251.966627 244.258218 
L 252.449105 244.258218 
L 252.469196 242.661386 
L 252.614611 242.661386 
L 252.614611 241.86297 
L 253.090474 241.86297 
L 253.090474 241.064554 
L 253.457976 241.064554 
L 253.457976 240.266139 
L 253.762328 240.266139 
L 253.762328 239.467723 
L 253.933899 239.467723 
L 253.933899 238.669307 
L 254.210377 238.669307 
L 254.210377 237.870891 
L 254.425574 237.870891 
L 254.525387 236.274059 
L 254.695288 236.274059 
L 254.695288 235.475644 
L 255.161787 235.475644 
L 255.161787 234.677228 
L 256.055992 234.677228 
L 256.055992 233.878812 
L 256.298413 233.878812 
L 256.298413 233.080396 
L 256.55651 233.080396 
L 256.590177 231.483564 
L 257.373617 231.483564 
L 257.373617 230.685149 
L 257.578197 230.685149 
L 257.578197 229.886733 
L 257.877576 229.886733 
L 257.877576 229.088317 
L 258.106376 229.088317 
L 258.106376 228.289901 
L 258.584683 228.289901 
L 258.584683 227.491485 
L 258.792709 227.491485 
L 258.792709 226.693069 
L 259.141262 226.693069 
L 259.179658 225.096238 
L 259.551791 225.096238 
L 259.551791 224.297822 
L 259.813952 224.297822 
L 259.813952 223.499406 
L 260.035572 223.499406 
L 260.035572 222.70099 
L 260.200751 222.70099 
L 260.243316 221.104158 
L 260.531725 221.104158 
L 260.621926 218.708911 
L 260.699386 218.708911 
L 260.790283 216.313663 
L 260.811361 216.313663 
L 260.849582 214.716832 
L 260.957079 214.716832 
L 261.064032 211.523168 
L 261.168915 211.523168 
L 261.168915 210.724752 
L 261.282016 210.724752 
L 261.282016 209.926337 
L 261.426548 209.926337 
L 261.494411 208.329505 
L 261.673105 208.329505 
L 261.765257 205.934257 
L 261.812307 205.934257 
L 261.812307 205.135842 
L 261.966245 205.135842 
L 262.070257 203.53901 
L 262.078768 203.53901 
L 262.136061 200.345347 
L 262.24515 200.345347 
L 262.320917 197.950099 
L 262.357206 197.950099 
L 262.463724 194.756436 
L 262.489268 194.756436 
L 262.590738 193.159604 
L 262.610075 193.159604 
L 262.610075 192.361188 
L 263.430746 192.361188 
L 263.430746 191.562772 
L 263.774199 191.562772 
L 263.856404 189.965941 
L 263.916657 189.965941 
L 263.916657 189.167525 
L 264.251624 189.167525 
L 264.251624 188.369109 
L 264.92295 188.369109 
L 264.978546 186.772277 
L 265.074735 186.772277 
L 265.136391 185.175446 
L 265.509187 185.175446 
L 265.509187 184.37703 
L 265.808972 184.37703 
L 265.904659 181.981782 
L 265.971915 181.981782 
L 266.001314 179.586535 
L 266.291765 179.586535 
L 266.362031 177.989703 
L 266.433786 177.989703 
L 266.433786 177.191287 
L 266.552131 177.191287 
L 266.552131 176.392871 
L 266.770597 176.392871 
L 266.819137 174.79604 
L 267.066224 174.79604 
L 267.162885 173.199208 
L 267.379567 173.199208 
L 267.420087 171.602376 
L 267.58598 171.602376 
L 267.58598 170.80396 
L 267.929801 170.80396 
L 267.929801 170.005545 
L 268.046829 170.005545 
L 268.109613 167.610297 
L 268.206521 167.610297 
L 268.231847 166.013465 
L 268.408957 166.013465 
L 268.408957 165.21505 
L 268.586481 165.21505 
L 268.586481 164.416634 
L 268.782755 164.416634 
L 268.782755 163.618218 
L 269.18614 163.618218 
L 269.18614 162.819802 
L 269.473855 162.819802 
L 269.554956 161.22297 
L 269.886183 161.22297 
L 269.886183 160.424554 
L 270.435972 160.424554 
L 270.435972 159.626139 
L 270.751795 159.626139 
L 270.85038 158.029307 
L 270.907346 158.029307 
L 270.948321 156.432475 
L 271.540772 156.432475 
L 271.585646 154.835644 
L 271.679341 154.835644 
L 271.741541 152.440396 
L 271.849613 152.440396 
L 271.849613 151.64198 
L 272.013425 151.64198 
L 272.059249 149.246733 
L 272.170286 149.246733 
L 272.170286 148.448317 
L 272.28405 148.448317 
L 272.329307 146.053069 
L 272.420437 146.053069 
L 272.483159 144.456238 
L 272.634561 144.456238 
L 272.634561 143.657822 
L 272.811227 143.657822 
L 272.811227 142.859406 
L 273.428323 142.859406 
L 273.504337 141.262574 
L 273.697571 141.262574 
L 273.708712 139.665743 
L 274.016453 139.665743 
L 274.114254 138.068911 
L 274.351486 138.068911 
L 274.351486 137.270495 
L 275.7186 137.270495 
L 275.7186 136.472079 
L 276.666522 136.472079 
L 276.666522 135.673663 
L 281.03319 135.673663 
L 281.03319 134.875248 
L 281.527107 134.875248 
L 281.60989 133.278416 
L 281.668464 133.278416 
L 281.668464 132.48 
L 283.330353 132.48 
L 283.330353 131.681584 
L 283.525819 131.681584 
L 283.535204 130.084752 
L 283.830464 130.084752 
L 283.838882 128.487921 
L 283.981965 128.487921 
L 283.981965 127.689505 
L 284.099231 127.689505 
L 284.127292 126.092673 
L 284.240884 126.092673 
L 284.341973 124.495842 
L 284.460263 124.495842 
L 284.536654 122.89901 
L 284.719647 122.89901 
L 284.719647 122.100594 
L 284.884528 122.100594 
L 284.884528 121.302178 
L 285.226508 121.302178 
L 285.226508 120.503762 
L 285.503012 120.503762 
L 285.585818 118.906931 
L 285.66453 118.906931 
L 285.66453 118.108515 
L 285.851089 118.108515 
L 285.863923 116.511683 
L 286.072651 116.511683 
L 286.072651 115.713267 
L 286.282753 115.713267 
L 286.282753 114.914851 
L 286.471416 114.914851 
L 286.551465 112.519604 
L 286.616006 112.519604 
L 286.624572 110.922772 
L 286.805788 110.922772 
L 286.878542 107.729109 
L 287.074801 107.729109 
L 287.156739 106.132277 
L 288.069785 106.132277 
L 288.177391 104.535446 
L 288.795682 104.535446 
L 288.833738 102.938614 
L 289.777644 102.938614 
L 289.827701 101.341782 
L 289.89084 101.341782 
L 289.89084 100.543366 
L 290.066572 100.543366 
L 290.066782 98.946535 
L 290.23663 98.946535 
L 290.23663 98.148119 
L 290.396093 98.148119 
L 290.396093 97.349703 
L 290.5605 97.349703 
L 290.5605 96.551287 
L 290.912741 96.551287 
L 291.010728 94.954455 
L 291.503287 94.954455 
L 291.579797 93.357624 
L 291.835637 93.357624 
L 291.868383 91.760792 
L 292.205568 91.760792 
L 292.205568 90.962376 
L 292.818193 90.962376 
L 292.818193 90.16396 
L 293.20884 90.16396 
L 293.20884 89.365545 
L 294.117219 89.365545 
L 294.117219 88.567129 
L 294.438272 88.567129 
L 294.438272 87.768713 
L 294.796744 87.768713 
L 294.821055 86.171881 
L 296.038553 86.171881 
L 296.112826 84.57505 
L 296.635859 84.57505 
L 296.675645 82.179802 
L 296.768694 82.179802 
L 296.804036 79.784554 
L 296.888433 79.784554 
L 296.952264 77.389307 
L 297.534439 77.389307 
L 297.534439 76.590891 
L 298.238269 76.590891 
L 298.238269 75.792475 
L 298.717124 75.792475 
L 298.717124 74.994059 
L 299.217491 74.994059 
L 299.217491 74.195644 
L 299.384944 74.195644 
L 299.407025 72.598812 
L 300.607088 72.598812 
L 300.607088 71.800396 
L 300.809062 71.800396 
L 300.809062 71.00198 
L 301.124012 71.00198 
L 301.124012 70.203564 
L 302.619768 70.203564 
L 302.619768 69.405149 
L 302.999471 69.405149 
L 302.999471 68.606733 
L 303.746046 68.606733 
L 303.746046 67.808317 
L 303.985403 67.808317 
L 303.985403 67.009901 
L 305.718402 67.009901 
L 305.718402 66.211485 
L 309.014757 66.211485 
L 309.014757 65.413069 
L 313.418479 65.413069 
L 313.418479 64.614653 
L 314.549014 64.614653 
L 314.549014 63.816238 
L 318.224644 63.816238 
L 318.224644 63.017822 
L 319.287847 63.017822 
L 319.287847 62.219406 
L 319.824285 62.219406 
L 319.918372 59.824158 
L 323.430325 59.824158 
L 323.430325 59.025743 
L 323.842613 59.025743 
L 323.842613 58.227327 
L 326.852884 58.227327 
L 326.852884 57.428911 
L 327.698148 57.428911 
L 327.698148 56.630495 
L 328.094966 56.630495 
L 328.094966 55.832079 
L 329.16498 55.832079 
L 329.16498 55.033663 
L 330.123772 55.033663 
L 330.123772 54.235248 
L 333.563895 54.235248 
L 333.563895 53.436832 
L 335.92254 53.436832 
L 335.92254 52.638416 
L 339.152817 52.638416 
L 339.152817 51.84 
L 341.739952 51.84 
L 341.739952 51.041584 
L 344.704351 51.041584 
L 344.704351 50.243168 
L 346.851885 50.243168 
L 346.851885 49.444752 
L 347.077117 49.444752 
L 347.077117 48.646337 
L 347.830359 48.646337 
L 347.830359 47.847921 
L 348.674668 47.847921 
L 348.674668 47.049505 
L 349.532598 47.049505 
L 349.532598 46.251089 
L 350.415237 46.251089 
L 350.499086 44.654257 
L 351.160685 44.654257 
L 351.160685 43.855842 
L 351.742041 43.855842 
L 351.742041 43.057426 
L 355.260452 43.057426 
L 355.260452 42.25901 
L 358.490255 42.25901 
L 358.490255 41.460594 
L 358.665463 41.460594 
L 358.665463 40.662178 
L 359.01092 40.662178 
L 359.10392 39.065347 
L 360.007176 39.065347 
L 360.007176 38.266931 
L 360.283128 38.266931 
L 360.283128 37.468515 
L 362.420502 37.468515 
L 362.503842 35.871683 
L 363.108088 35.871683 
L 363.108088 35.073267 
L 364.147565 35.073267 
L 364.147565 34.274851 
L 365.095633 34.274851 
L 365.095633 33.476436 
L 368.128165 33.476436 
L 368.128165 32.67802 
L 369.227526 32.67802 
L 369.260206 31.081188 
L 370.186731 31.081188 
L 370.186731 30.282772 
L 371.199472 30.282772 
L 371.199472 29.484356 
L 371.482926 29.484356 
L 371.508808 27.887525 
L 371.868804 27.887525 
L 371.868804 27.089109 
L 372.985505 27.089109 
L 373.063429 25.492277 
L 373.142561 25.492277 
L 373.142561 24.693861 
L 375.157224 24.693861 
L 375.157224 23.895446 
L 377.667025 23.895446 
L 377.667025 23.09703 
L 379.779712 23.09703 
L 379.779712 22.298614 
L 379.970329 22.298614 
L 379.970329 21.500198 
L 380.681681 21.500198 
L 380.681681 20.701782 
L 383.0396 20.701782 
L 383.0396 19.903366 
L 384.004522 19.903366 
L 384.004522 19.10495 
L 384.9337 19.10495 
L 384.9337 18.306535 
L 408.043431 18.306535 
L 408.043431 17.508119 
L 410.546853 17.508119 
L 410.546853 16.709703 
L 416.098223 16.709703 
L 416.098223 15.911287 
L 419.210424 15.911287 
L 419.210424 15.112871 
L 420.924698 15.112871 
L 420.924698 14.314455 
L 421.521815 14.314455 
L 421.521815 13.51604 
L 422.301947 13.51604 
L 422.301947 12.717624 
L 423.552036 12.717624 
L 423.552036 11.919208 
L 424.442026 11.919208 
L 424.442026 11.120792 
L 425.413962 11.120792 
L 425.413962 10.322376 
L 426.409892 10.322376 
L 426.409892 9.52396 
L 427.201812 9.52396 
L 427.201812 8.725545 
L 428.790564 8.725545 
L 428.790564 7.927129 
L 430.152321 7.927129 
L 430.152321 7.128713 
L 430.762605 7.128713 
L 430.762605 6.330297 
L 430.762605 6.330297 
L 460.8 6.330297 
L 460.8 6.330297 
" style="fill:none;stroke:#bf00bf;stroke-linecap:square;stroke-width:1.5;"/>
   </g>
   <g id="patch_3">
    <path d="M 0 293.76 
L 0 3.456 
" style="fill:none;stroke:#000000;stroke-linecap:square;stroke-linejoin:miter;stroke-width:0.8;"/>
   </g>
   <g id="patch_4">
    <path d="M 460.8 293.76 
L 460.8 3.456 
" style="fill:none;stroke:#000000;stroke-linecap:square;stroke-linejoin:miter;stroke-width:0.8;"/>
   </g>
   <g id="patch_5">
    <path d="M 0 293.76 
L 460.8 293.76 
" style="fill:none;stroke:#000000;stroke-linecap:square;stroke-linejoin:miter;stroke-width:0.8;"/>
   </g>
   <g id="patch_6">
    <path d="M 0 3.456 
L 460.8 3.456 
" style="fill:none;stroke:#000000;stroke-linecap:square;stroke-linejoin:miter;stroke-width:0.8;"/>
   </g>
   <g id="text_6">
    <!-- {f1-f24}, 20-D -->
    <g transform="translate(305.884 287.95392)scale(0.2 -0.2)">
     <defs>
      <path d="M 51.125 -9.28125 
L 51.125 -16.3125 
L 48.09375 -16.3125 
Q 35.9375 -16.3125 31.8125 -12.6875 
Q 27.6875 -9.078125 27.6875 1.703125 
L 27.6875 13.375 
Q 27.6875 20.75 25.046875 23.578125 
Q 22.40625 26.421875 15.484375 26.421875 
L 12.5 26.421875 
L 12.5 33.40625 
L 15.484375 33.40625 
Q 22.46875 33.40625 25.078125 36.203125 
Q 27.6875 39.015625 27.6875 46.296875 
L 27.6875 58.015625 
Q 27.6875 68.796875 31.8125 72.390625 
Q 35.9375 75.984375 48.09375 75.984375 
L 51.125 75.984375 
L 51.125 69 
L 47.796875 69 
Q 40.921875 69 38.8125 66.84375 
Q 36.71875 64.703125 36.71875 57.8125 
L 36.71875 45.703125 
Q 36.71875 38.03125 34.5 34.5625 
Q 32.28125 31.109375 26.90625 29.890625 
Q 32.328125 28.5625 34.515625 25.09375 
Q 36.71875 21.625 36.71875 14.015625 
L 36.71875 1.90625 
Q 36.71875 -4.984375 38.8125 -7.125 
Q 40.921875 -9.28125 47.796875 -9.28125 
z
" id="DejaVuSans-123"/>
      <path d="M 19.1875 8.296875 
L 53.609375 8.296875 
L 53.609375 0 
L 7.328125 0 
L 7.328125 8.296875 
Q 12.9375 14.109375 22.625 23.890625 
Q 32.328125 33.6875 34.8125 36.53125 
Q 39.546875 41.84375 41.421875 45.53125 
Q 43.3125 49.21875 43.3125 52.78125 
Q 43.3125 58.59375 39.234375 62.25 
Q 35.15625 65.921875 28.609375 65.921875 
Q 23.96875 65.921875 18.8125 64.3125 
Q 13.671875 62.703125 7.8125 59.421875 
L 7.8125 69.390625 
Q 13.765625 71.78125 18.9375 73 
Q 24.125 74.21875 28.421875 74.21875 
Q 39.75 74.21875 46.484375 68.546875 
Q 53.21875 62.890625 53.21875 53.421875 
Q 53.21875 48.921875 51.53125 44.890625 
Q 49.859375 40.875 45.40625 35.40625 
Q 44.1875 33.984375 37.640625 27.21875 
Q 31.109375 20.453125 19.1875 8.296875 
z
" id="DejaVuSans-50"/>
      <path d="M 12.5 -9.28125 
L 15.921875 -9.28125 
Q 22.75 -9.28125 24.828125 -7.171875 
Q 26.90625 -5.078125 26.90625 1.90625 
L 26.90625 14.015625 
Q 26.90625 21.625 29.09375 25.09375 
Q 31.296875 28.5625 36.71875 29.890625 
Q 31.296875 31.109375 29.09375 34.5625 
Q 26.90625 38.03125 26.90625 45.703125 
L 26.90625 57.8125 
Q 26.90625 64.75 24.828125 66.875 
Q 22.75 69 15.921875 69 
L 12.5 69 
L 12.5 75.984375 
L 15.578125 75.984375 
Q 27.734375 75.984375 31.8125 72.390625 
Q 35.890625 68.796875 35.890625 58.015625 
L 35.890625 46.296875 
Q 35.890625 39.015625 38.515625 36.203125 
Q 41.15625 33.40625 48.09375 33.40625 
L 51.125 33.40625 
L 51.125 26.421875 
L 48.09375 26.421875 
Q 41.15625 26.421875 38.515625 23.578125 
Q 35.890625 20.75 35.890625 13.375 
L 35.890625 1.703125 
Q 35.890625 -9.078125 31.8125 -12.6875 
Q 27.734375 -16.3125 15.578125 -16.3125 
L 12.5 -16.3125 
z
" id="DejaVuSans-125"/>
      <path d="M 11.71875 12.40625 
L 22.015625 12.40625 
L 22.015625 4 
L 14.015625 -11.625 
L 7.71875 -11.625 
L 11.71875 4 
z
" id="DejaVuSans-44"/>
     </defs>
     <use xlink:href="#DejaVuSans-123"/>
     <use x="63.623047" xlink:href="#DejaVuSans-102"/>
     <use x="98.828125" xlink:href="#DejaVuSans-49"/>
     <use x="162.451172" xlink:href="#DejaVuSans-45"/>
     <use x="198.535156" xlink:href="#DejaVuSans-102"/>
     <use x="233.740234" xlink:href="#DejaVuSans-50"/>
     <use x="297.363281" xlink:href="#DejaVuSans-52"/>
     <use x="360.986328" xlink:href="#DejaVuSans-125"/>
     <use x="424.609375" xlink:href="#DejaVuSans-44"/>
     <use x="456.396484" xlink:href="#DejaVuSans-32"/>
     <use x="488.183594" xlink:href="#DejaVuSans-50"/>
     <use x="551.806641" xlink:href="#DejaVuSans-48"/>
     <use x="615.429688" xlink:href="#DejaVuSans-45"/>
     <use x="651.513672" xlink:href="#DejaVuSans-68"/>
    </g>
   </g>
   <g id="text_7">
    <!-- v2.4 -->
    <g style="fill:#808080;" transform="translate(219.489063 288.777272)scale(0.1 -0.1)">
     <defs>
      <path d="M 2.984375 54.6875 
L 12.5 54.6875 
L 29.59375 8.796875 
L 46.6875 54.6875 
L 56.203125 54.6875 
L 35.6875 0 
L 23.484375 0 
z
" id="DejaVuSans-118"/>
      <path d="M 10.6875 12.40625 
L 21 12.40625 
L 21 0 
L 10.6875 0 
z
" id="DejaVuSans-46"/>
     </defs>
     <use xlink:href="#DejaVuSans-118"/>
     <use x="59.179688" xlink:href="#DejaVuSans-50"/>
     <use x="122.802734" xlink:href="#DejaVuSans-46"/>
     <use x="154.589844" xlink:href="#DejaVuSans-52"/>
    </g>
   </g>
  </g>
 </g>
 <defs>
  <clipPath id="p678a2d0906">
   <rect height="290.304" width="460.8" x="0" y="3.456"/>
  </clipPath>
 </defs>
</svg>
