<?xml version="1.0" encoding="utf-8" standalone="no"?>
<!DOCTYPE svg PUBLIC "-//W3C//DTD SVG 1.1//EN"
  "http://www.w3.org/Graphics/SVG/1.1/DTD/svg11.dtd">
<!-- Created with matplotlib (https://matplotlib.org/) -->
<svg height="345.6pt" version="1.1" viewBox="0 0 460.8 345.6" width="460.8pt" xmlns="http://www.w3.org/2000/svg" xmlns:xlink="http://www.w3.org/1999/xlink">
 <metadata>
  <rdf:RDF xmlns:cc="http://creativecommons.org/ns#" xmlns:dc="http://purl.org/dc/elements/1.1/" xmlns:rdf="http://www.w3.org/1999/02/22-rdf-syntax-ns#">
   <cc:Work>
    <dc:type rdf:resource="http://purl.org/dc/dcmitype/StillImage"/>
    <dc:date>2021-08-04T15:01:49.654644</dc:date>
    <dc:format>image/svg+xml</dc:format>
    <dc:creator>
     <cc:Agent>
      <dc:title>Matplotlib v3.3.1, https://matplotlib.org/</dc:title>
     </cc:Agent>
    </dc:creator>
   </cc:Work>
  </rdf:RDF>
 </metadata>
 <defs>
  <style type="text/css">*{stroke-linecap:butt;stroke-linejoin:round;}</style>
 </defs>
 <g id="figure_1">
  <g id="patch_1">
   <path d="M 0 345.6 
L 460.8 345.6 
L 460.8 0 
L 0 0 
z
" style="fill:#ffffff;"/>
  </g>
  <g id="axes_1">
   <g id="patch_2">
    <path d="M 0 293.76 
L 460.8 293.76 
L 460.8 3.456 
L 0 3.456 
z
" style="fill:#ffffff;"/>
   </g>
   <g id="matplotlib.axis_1">
    <g id="xtick_1">
     <g id="line2d_1">
      <path clip-path="url(#p60ce7fb77c)" d="M 106.133038 293.76 
L 106.133038 3.456 
" style="fill:none;stroke:#b0b0b0;stroke-linecap:square;stroke-width:0.8;"/>
     </g>
     <g id="line2d_2">
      <defs>
       <path d="M 0 0 
L 0 3.5 
" id="m8f1418fd29" style="stroke:#000000;stroke-width:0.8;"/>
      </defs>
      <g>
       <use style="stroke:#000000;stroke-width:0.8;" x="106.133038" xlink:href="#m8f1418fd29" y="293.76"/>
      </g>
     </g>
     <g id="text_1">
      <!-- -4 -->
      <g transform="translate(96.162726 315.956875)scale(0.2 -0.2)">
       <defs>
        <path d="M 4.890625 31.390625 
L 31.203125 31.390625 
L 31.203125 23.390625 
L 4.890625 23.390625 
z
" id="DejaVuSans-45"/>
        <path d="M 37.796875 64.3125 
L 12.890625 25.390625 
L 37.796875 25.390625 
z
M 35.203125 72.90625 
L 47.609375 72.90625 
L 47.609375 25.390625 
L 58.015625 25.390625 
L 58.015625 17.1875 
L 47.609375 17.1875 
L 47.609375 0 
L 37.796875 0 
L 37.796875 17.1875 
L 4.890625 17.1875 
L 4.890625 26.703125 
z
" id="DejaVuSans-52"/>
       </defs>
       <use xlink:href="#DejaVuSans-45"/>
       <use x="36.083984" xlink:href="#DejaVuSans-52"/>
      </g>
     </g>
    </g>
    <g id="xtick_2">
     <g id="line2d_3">
      <path clip-path="url(#p60ce7fb77c)" d="M 212.380861 293.76 
L 212.380861 3.456 
" style="fill:none;stroke:#b0b0b0;stroke-linecap:square;stroke-width:0.8;"/>
     </g>
     <g id="line2d_4">
      <g>
       <use style="stroke:#000000;stroke-width:0.8;" x="212.380861" xlink:href="#m8f1418fd29" y="293.76"/>
      </g>
     </g>
     <g id="text_2">
      <!-- 0 -->
      <g transform="translate(206.018361 315.956875)scale(0.2 -0.2)">
       <defs>
        <path d="M 31.78125 66.40625 
Q 24.171875 66.40625 20.328125 58.90625 
Q 16.5 51.421875 16.5 36.375 
Q 16.5 21.390625 20.328125 13.890625 
Q 24.171875 6.390625 31.78125 6.390625 
Q 39.453125 6.390625 43.28125 13.890625 
Q 47.125 21.390625 47.125 36.375 
Q 47.125 51.421875 43.28125 58.90625 
Q 39.453125 66.40625 31.78125 66.40625 
z
M 31.78125 74.21875 
Q 44.046875 74.21875 50.515625 64.515625 
Q 56.984375 54.828125 56.984375 36.375 
Q 56.984375 17.96875 50.515625 8.265625 
Q 44.046875 -1.421875 31.78125 -1.421875 
Q 19.53125 -1.421875 13.0625 8.265625 
Q 6.59375 17.96875 6.59375 36.375 
Q 6.59375 54.828125 13.0625 64.515625 
Q 19.53125 74.21875 31.78125 74.21875 
z
" id="DejaVuSans-48"/>
       </defs>
       <use xlink:href="#DejaVuSans-48"/>
      </g>
     </g>
    </g>
    <g id="xtick_3">
     <g id="line2d_5">
      <path clip-path="url(#p60ce7fb77c)" d="M 318.628683 293.76 
L 318.628683 3.456 
" style="fill:none;stroke:#b0b0b0;stroke-linecap:square;stroke-width:0.8;"/>
     </g>
     <g id="line2d_6">
      <g>
       <use style="stroke:#000000;stroke-width:0.8;" x="318.628683" xlink:href="#m8f1418fd29" y="293.76"/>
      </g>
     </g>
     <g id="text_3">
      <!-- 4 -->
      <g transform="translate(312.266183 315.956875)scale(0.2 -0.2)">
       <use xlink:href="#DejaVuSans-52"/>
      </g>
     </g>
    </g>
    <g id="xtick_4">
     <g id="line2d_7">
      <path clip-path="url(#p60ce7fb77c)" d="M 424.876506 293.76 
L 424.876506 3.456 
" style="fill:none;stroke:#b0b0b0;stroke-linecap:square;stroke-width:0.8;"/>
     </g>
     <g id="line2d_8">
      <g>
       <use style="stroke:#000000;stroke-width:0.8;" x="424.876506" xlink:href="#m8f1418fd29" y="293.76"/>
      </g>
     </g>
     <g id="text_4">
      <!-- 8 -->
      <g transform="translate(418.514006 315.956875)scale(0.2 -0.2)">
       <defs>
        <path d="M 31.78125 34.625 
Q 24.75 34.625 20.71875 30.859375 
Q 16.703125 27.09375 16.703125 20.515625 
Q 16.703125 13.921875 20.71875 10.15625 
Q 24.75 6.390625 31.78125 6.390625 
Q 38.8125 6.390625 42.859375 10.171875 
Q 46.921875 13.96875 46.921875 20.515625 
Q 46.921875 27.09375 42.890625 30.859375 
Q 38.875 34.625 31.78125 34.625 
z
M 21.921875 38.8125 
Q 15.578125 40.375 12.03125 44.71875 
Q 8.5 49.078125 8.5 55.328125 
Q 8.5 64.0625 14.71875 69.140625 
Q 20.953125 74.21875 31.78125 74.21875 
Q 42.671875 74.21875 48.875 69.140625 
Q 55.078125 64.0625 55.078125 55.328125 
Q 55.078125 49.078125 51.53125 44.71875 
Q 48 40.375 41.703125 38.8125 
Q 48.828125 37.15625 52.796875 32.3125 
Q 56.78125 27.484375 56.78125 20.515625 
Q 56.78125 9.90625 50.3125 4.234375 
Q 43.84375 -1.421875 31.78125 -1.421875 
Q 19.734375 -1.421875 13.25 4.234375 
Q 6.78125 9.90625 6.78125 20.515625 
Q 6.78125 27.484375 10.78125 32.3125 
Q 14.796875 37.15625 21.921875 38.8125 
z
M 18.3125 54.390625 
Q 18.3125 48.734375 21.84375 45.5625 
Q 25.390625 42.390625 31.78125 42.390625 
Q 38.140625 42.390625 41.71875 45.5625 
Q 45.3125 48.734375 45.3125 54.390625 
Q 45.3125 60.0625 41.71875 63.234375 
Q 38.140625 66.40625 31.78125 66.40625 
Q 25.390625 66.40625 21.84375 63.234375 
Q 18.3125 60.0625 18.3125 54.390625 
z
" id="DejaVuSans-56"/>
       </defs>
       <use xlink:href="#DejaVuSans-56"/>
      </g>
     </g>
    </g>
    <g id="text_5">
     <!-- log10 of Df -->
     <g transform="translate(175.214063 339.313125)scale(0.2 -0.2)">
      <defs>
       <path d="M 9.421875 75.984375 
L 18.40625 75.984375 
L 18.40625 0 
L 9.421875 0 
z
" id="DejaVuSans-108"/>
       <path d="M 30.609375 48.390625 
Q 23.390625 48.390625 19.1875 42.75 
Q 14.984375 37.109375 14.984375 27.296875 
Q 14.984375 17.484375 19.15625 11.84375 
Q 23.34375 6.203125 30.609375 6.203125 
Q 37.796875 6.203125 41.984375 11.859375 
Q 46.1875 17.53125 46.1875 27.296875 
Q 46.1875 37.015625 41.984375 42.703125 
Q 37.796875 48.390625 30.609375 48.390625 
z
M 30.609375 56 
Q 42.328125 56 49.015625 48.375 
Q 55.71875 40.765625 55.71875 27.296875 
Q 55.71875 13.875 49.015625 6.21875 
Q 42.328125 -1.421875 30.609375 -1.421875 
Q 18.84375 -1.421875 12.171875 6.21875 
Q 5.515625 13.875 5.515625 27.296875 
Q 5.515625 40.765625 12.171875 48.375 
Q 18.84375 56 30.609375 56 
z
" id="DejaVuSans-111"/>
       <path d="M 45.40625 27.984375 
Q 45.40625 37.75 41.375 43.109375 
Q 37.359375 48.484375 30.078125 48.484375 
Q 22.859375 48.484375 18.828125 43.109375 
Q 14.796875 37.75 14.796875 27.984375 
Q 14.796875 18.265625 18.828125 12.890625 
Q 22.859375 7.515625 30.078125 7.515625 
Q 37.359375 7.515625 41.375 12.890625 
Q 45.40625 18.265625 45.40625 27.984375 
z
M 54.390625 6.78125 
Q 54.390625 -7.171875 48.1875 -13.984375 
Q 42 -20.796875 29.203125 -20.796875 
Q 24.46875 -20.796875 20.265625 -20.09375 
Q 16.0625 -19.390625 12.109375 -17.921875 
L 12.109375 -9.1875 
Q 16.0625 -11.328125 19.921875 -12.34375 
Q 23.78125 -13.375 27.78125 -13.375 
Q 36.625 -13.375 41.015625 -8.765625 
Q 45.40625 -4.15625 45.40625 5.171875 
L 45.40625 9.625 
Q 42.625 4.78125 38.28125 2.390625 
Q 33.9375 0 27.875 0 
Q 17.828125 0 11.671875 7.65625 
Q 5.515625 15.328125 5.515625 27.984375 
Q 5.515625 40.671875 11.671875 48.328125 
Q 17.828125 56 27.875 56 
Q 33.9375 56 38.28125 53.609375 
Q 42.625 51.21875 45.40625 46.390625 
L 45.40625 54.6875 
L 54.390625 54.6875 
z
" id="DejaVuSans-103"/>
       <path d="M 12.40625 8.296875 
L 28.515625 8.296875 
L 28.515625 63.921875 
L 10.984375 60.40625 
L 10.984375 69.390625 
L 28.421875 72.90625 
L 38.28125 72.90625 
L 38.28125 8.296875 
L 54.390625 8.296875 
L 54.390625 0 
L 12.40625 0 
z
" id="DejaVuSans-49"/>
       <path id="DejaVuSans-32"/>
       <path d="M 37.109375 75.984375 
L 37.109375 68.5 
L 28.515625 68.5 
Q 23.6875 68.5 21.796875 66.546875 
Q 19.921875 64.59375 19.921875 59.515625 
L 19.921875 54.6875 
L 34.71875 54.6875 
L 34.71875 47.703125 
L 19.921875 47.703125 
L 19.921875 0 
L 10.890625 0 
L 10.890625 47.703125 
L 2.296875 47.703125 
L 2.296875 54.6875 
L 10.890625 54.6875 
L 10.890625 58.5 
Q 10.890625 67.625 15.140625 71.796875 
Q 19.390625 75.984375 28.609375 75.984375 
z
" id="DejaVuSans-102"/>
       <path d="M 19.671875 64.796875 
L 19.671875 8.109375 
L 31.59375 8.109375 
Q 46.6875 8.109375 53.6875 14.9375 
Q 60.6875 21.78125 60.6875 36.53125 
Q 60.6875 51.171875 53.6875 57.984375 
Q 46.6875 64.796875 31.59375 64.796875 
z
M 9.8125 72.90625 
L 30.078125 72.90625 
Q 51.265625 72.90625 61.171875 64.09375 
Q 71.09375 55.28125 71.09375 36.53125 
Q 71.09375 17.671875 61.125 8.828125 
Q 51.171875 0 30.078125 0 
L 9.8125 0 
z
" id="DejaVuSans-68"/>
      </defs>
      <use xlink:href="#DejaVuSans-108"/>
      <use x="27.783203" xlink:href="#DejaVuSans-111"/>
      <use x="88.964844" xlink:href="#DejaVuSans-103"/>
      <use x="152.441406" xlink:href="#DejaVuSans-49"/>
      <use x="216.064453" xlink:href="#DejaVuSans-48"/>
      <use x="279.6875" xlink:href="#DejaVuSans-32"/>
      <use x="311.474609" xlink:href="#DejaVuSans-111"/>
      <use x="372.65625" xlink:href="#DejaVuSans-102"/>
      <use x="407.861328" xlink:href="#DejaVuSans-32"/>
      <use x="439.648438" xlink:href="#DejaVuSans-68"/>
      <use x="516.650391" xlink:href="#DejaVuSans-102"/>
     </g>
    </g>
   </g>
   <g id="matplotlib.axis_2">
    <g id="ytick_1">
     <g id="line2d_9">
      <path clip-path="url(#p60ce7fb77c)" d="M 0 293.76 
L 460.8 293.76 
" style="fill:none;stroke:#b0b0b0;stroke-linecap:square;stroke-width:0.8;"/>
     </g>
     <g id="line2d_10">
      <defs>
       <path d="M 0 0 
L -3.5 0 
" id="me72b0fd292" style="stroke:#000000;stroke-width:0.8;"/>
      </defs>
      <g>
       <use style="stroke:#000000;stroke-width:0.8;" x="0" xlink:href="#me72b0fd292" y="293.76"/>
      </g>
     </g>
    </g>
    <g id="ytick_2">
     <g id="line2d_11">
      <path clip-path="url(#p60ce7fb77c)" d="M 0 236.274059 
L 460.8 236.274059 
" style="fill:none;stroke:#b0b0b0;stroke-linecap:square;stroke-width:0.8;"/>
     </g>
     <g id="line2d_12">
      <g>
       <use style="stroke:#000000;stroke-width:0.8;" x="0" xlink:href="#me72b0fd292" y="236.274059"/>
      </g>
     </g>
    </g>
    <g id="ytick_3">
     <g id="line2d_13">
      <path clip-path="url(#p60ce7fb77c)" d="M 0 178.788119 
L 460.8 178.788119 
" style="fill:none;stroke:#b0b0b0;stroke-linecap:square;stroke-width:0.8;"/>
     </g>
     <g id="line2d_14">
      <g>
       <use style="stroke:#000000;stroke-width:0.8;" x="0" xlink:href="#me72b0fd292" y="178.788119"/>
      </g>
     </g>
    </g>
    <g id="ytick_4">
     <g id="line2d_15">
      <path clip-path="url(#p60ce7fb77c)" d="M 0 121.302178 
L 460.8 121.302178 
" style="fill:none;stroke:#b0b0b0;stroke-linecap:square;stroke-width:0.8;"/>
     </g>
     <g id="line2d_16">
      <g>
       <use style="stroke:#000000;stroke-width:0.8;" x="0" xlink:href="#me72b0fd292" y="121.302178"/>
      </g>
     </g>
    </g>
    <g id="ytick_5">
     <g id="line2d_17">
      <path clip-path="url(#p60ce7fb77c)" d="M 0 63.816238 
L 460.8 63.816238 
" style="fill:none;stroke:#b0b0b0;stroke-linecap:square;stroke-width:0.8;"/>
     </g>
     <g id="line2d_18">
      <g>
       <use style="stroke:#000000;stroke-width:0.8;" x="0" xlink:href="#me72b0fd292" y="63.816238"/>
      </g>
     </g>
    </g>
    <g id="ytick_6">
     <g id="line2d_19">
      <path clip-path="url(#p60ce7fb77c)" d="M 0 6.330297 
L 460.8 6.330297 
" style="fill:none;stroke:#b0b0b0;stroke-linecap:square;stroke-width:0.8;"/>
     </g>
     <g id="line2d_20">
      <g>
       <use style="stroke:#000000;stroke-width:0.8;" x="0" xlink:href="#me72b0fd292" y="6.330297"/>
      </g>
     </g>
    </g>
   </g>
   <g id="line2d_21">
    <path clip-path="url(#p60ce7fb77c)" d="M -1 289.927604 
L -0.114784 289.927604 
L -0.114784 255.43604 
L 6.326776 255.43604 
L 6.326776 251.603644 
L 29.445275 251.603644 
L 29.445275 247.771248 
L 93.012557 247.771248 
L 93.012557 243.938851 
L 111.035539 243.938851 
L 111.035539 240.106455 
L 123.703762 240.106455 
L 123.703762 236.274059 
L 159.794829 236.274059 
L 159.794829 232.441663 
L 201.776702 232.441663 
L 201.776702 228.609267 
L 204.670282 228.609267 
L 204.670282 224.776871 
L 207.201464 224.776871 
L 207.201464 220.944475 
L 213.384508 220.944475 
L 213.384508 217.112079 
L 213.976643 217.112079 
L 213.976643 213.279683 
L 218.843196 213.279683 
L 218.843196 209.447287 
L 224.027846 209.447287 
L 224.027846 205.614891 
L 228.157782 205.614891 
L 228.157782 201.782495 
L 235.296755 201.782495 
L 235.296755 197.950099 
L 238.024638 197.950099 
L 238.024638 194.117703 
L 240.224633 194.117703 
L 240.224633 190.285307 
L 242.166993 190.285307 
L 242.166993 186.452911 
L 242.874772 186.452911 
L 242.874772 182.620515 
L 244.082212 182.620515 
L 244.082212 178.788119 
L 247.710278 178.788119 
L 247.710278 174.955723 
L 251.643853 174.955723 
L 251.643853 171.123327 
L 255.975787 171.123327 
L 255.975788 163.458535 
L 258.961915 163.458535 
L 258.961915 159.626139 
L 260.202983 159.626139 
L 260.202983 155.793743 
L 261.165857 155.793743 
L 261.187614 148.12895 
L 262.730184 148.12895 
L 262.791179 140.464158 
L 263.15704 140.464158 
L 263.15704 136.631762 
L 263.448636 136.631762 
L 263.448636 132.799366 
L 263.839832 132.799366 
L 263.839832 128.96697 
L 264.960609 128.96697 
L 264.960609 125.134574 
L 265.674697 125.134574 
L 265.674697 117.469782 
L 269.215993 117.469782 
L 269.215993 113.637386 
L 269.409629 113.637386 
L 269.409629 109.80499 
L 269.894528 109.80499 
L 269.896707 102.140198 
L 270.502946 102.140198 
L 270.502946 98.307802 
L 271.011367 98.307802 
L 271.011367 94.475406 
L 271.415525 94.475406 
L 271.430715 86.810614 
L 271.901424 86.810614 
L 271.901424 82.978218 
L 272.403431 82.978218 
L 272.403431 79.145822 
L 273.253749 79.145822 
L 273.253749 75.313426 
L 273.55679 75.313426 
L 273.55679 71.48103 
L 273.894459 71.48103 
L 273.89705 63.816238 
L 276.866934 63.816238 
L 276.866934 59.983842 
L 279.321912 59.983842 
L 279.321912 56.151446 
L 280.577725 56.151446 
L 280.673507 48.486653 
L 280.792075 48.486653 
L 280.792075 44.654257 
L 280.991464 44.654257 
L 280.991464 40.821861 
L 281.844742 40.821861 
L 281.900243 33.157069 
L 282.547442 33.157069 
L 282.547442 29.324673 
L 282.921949 29.324673 
L 282.921949 25.492277 
L 286.047843 25.492277 
L 286.047843 21.659881 
L 288.492763 21.659881 
L 288.492763 17.827485 
L 303.241609 17.827485 
L 303.241609 13.995089 
L 303.81214 13.995089 
L 303.81214 10.162693 
L 318.312183 10.162693 
L 318.312183 6.330297 
L 318.312183 6.330297 
L 460.8 6.330297 
L 460.8 6.330297 
" style="fill:none;stroke:#ff0000;stroke-linecap:square;stroke-width:3;"/>
   </g>
   <g id="line2d_22">
    <path clip-path="url(#p60ce7fb77c)" d="M 241.811997 293.76 
L 241.811997 289.927604 
L 242.28296 289.927604 
L 242.28296 286.095208 
L 244.782482 286.095208 
L 244.782482 282.262812 
L 246.724666 282.262812 
L 246.724666 278.430416 
L 247.982768 278.430416 
L 247.982768 274.59802 
L 249.783406 274.59802 
L 249.783406 270.765624 
L 250.443268 270.765624 
L 250.443268 266.933228 
L 251.990601 266.933228 
L 251.990601 263.100832 
L 253.135904 263.100832 
L 253.135904 259.268436 
L 253.731198 259.268436 
L 253.731198 255.43604 
L 254.396576 255.43604 
L 254.396576 251.603644 
L 255.245032 251.603644 
L 255.245032 247.771248 
L 256.243535 247.771248 
L 256.243535 243.938851 
L 258.397079 243.938851 
L 258.397079 240.106455 
L 258.711347 240.106455 
L 258.711347 236.274059 
L 264.7403 236.274059 
L 264.813245 224.776871 
L 264.937192 224.776871 
L 264.937192 220.944475 
L 266.373288 220.944475 
L 266.373314 163.458535 
L 267.431404 163.458535 
L 267.431404 159.626139 
L 267.740228 159.626139 
L 267.740228 155.793743 
L 268.15118 155.793743 
L 268.173257 144.296554 
L 268.269891 144.296554 
L 268.31649 136.631762 
L 268.750417 136.631762 
L 268.750417 132.799366 
L 271.792365 132.799366 
L 271.792365 128.96697 
L 272.708595 128.96697 
L 272.708595 125.134574 
L 273.022065 125.134574 
L 273.022065 121.302178 
L 273.32487 121.302178 
L 273.32487 117.469782 
L 273.596033 117.469782 
L 273.596033 113.637386 
L 274.348537 113.637386 
L 274.447226 105.972594 
L 275.503162 105.972594 
L 275.503162 102.140198 
L 275.875077 102.140198 
L 275.875077 98.307802 
L 276.085458 98.307802 
L 276.085458 94.475406 
L 276.351719 94.475406 
L 276.441843 86.810614 
L 276.481005 86.810614 
L 276.481005 82.978218 
L 276.963111 82.978218 
L 276.963111 79.145822 
L 282.178903 79.145822 
L 282.215753 71.48103 
L 282.335973 71.48103 
L 282.335973 67.648634 
L 282.895678 67.648634 
L 282.895678 63.816238 
L 322.3427 63.816238 
L 322.3427 59.983842 
L 346.079709 59.983842 
L 346.079709 56.151446 
L 359.941027 56.151446 
L 359.941027 52.31905 
L 379.695734 52.31905 
L 379.695734 48.486653 
L 381.185853 48.486653 
L 381.185853 44.654257 
L 384.951579 44.654257 
L 384.951579 40.821861 
L 386.76581 40.821861 
L 386.76581 36.989465 
L 390.511168 36.989465 
L 390.511168 33.157069 
L 392.44986 33.157069 
L 392.44986 29.324673 
L 396.188631 29.324673 
L 396.188631 25.492277 
L 396.653735 25.492277 
L 396.653735 21.659881 
L 397.395257 21.659881 
L 397.395257 17.827485 
L 399.89076 17.827485 
L 399.89076 13.995089 
L 400.700343 13.995089 
L 400.700343 10.162693 
L 401.381782 10.162693 
L 401.381782 6.330297 
L 401.381782 6.330297 
L 460.8 6.330297 
L 460.8 6.330297 
" style="fill:none;stroke:#00bfbf;stroke-linecap:square;stroke-width:1.5;"/>
   </g>
   <g id="line2d_23">
    <path clip-path="url(#p60ce7fb77c)" d="M 241.811244 293.76 
L 241.811244 289.927604 
L 242.282039 289.927604 
L 242.282039 286.095208 
L 244.782482 286.095208 
L 244.782482 282.262812 
L 246.724004 282.262812 
L 246.724004 278.430416 
L 247.982567 278.430416 
L 247.982567 274.59802 
L 249.783406 274.59802 
L 249.783406 270.765624 
L 250.442462 270.765624 
L 250.442462 266.933228 
L 251.990601 266.933228 
L 251.990601 263.100832 
L 253.135349 263.100832 
L 253.135349 259.268436 
L 253.730701 259.268436 
L 253.730701 255.43604 
L 254.396546 255.43604 
L 254.396546 251.603644 
L 255.245023 251.603644 
L 255.245023 247.771248 
L 256.243055 247.771248 
L 256.243055 243.938851 
L 258.396662 243.938851 
L 258.396662 240.106455 
L 258.710946 240.106455 
L 258.710946 236.274059 
L 264.734015 236.274059 
L 264.810173 224.776871 
L 264.93328 224.776871 
L 264.93328 220.944475 
L 266.373047 220.944475 
L 266.373288 163.458535 
L 267.429359 163.458535 
L 267.429359 159.626139 
L 267.737928 159.626139 
L 267.737928 155.793743 
L 268.151092 155.793743 
L 268.171042 144.296554 
L 268.266736 144.296554 
L 268.310862 136.631762 
L 268.744699 136.631762 
L 268.744699 132.799366 
L 271.791982 132.799366 
L 271.791982 128.96697 
L 272.706948 128.96697 
L 272.706948 125.134574 
L 273.022032 125.134574 
L 273.022032 121.302178 
L 273.324616 121.302178 
L 273.324616 117.469782 
L 273.595705 117.469782 
L 273.595705 113.637386 
L 274.348305 113.637386 
L 274.447226 105.972594 
L 275.50216 105.972594 
L 275.50216 102.140198 
L 275.87285 102.140198 
L 275.87285 98.307802 
L 276.085458 98.307802 
L 276.085458 94.475406 
L 276.348632 94.475406 
L 276.440062 86.810614 
L 276.480527 86.810614 
L 276.480527 82.978218 
L 276.961409 82.978218 
L 276.961409 79.145822 
L 282.178903 79.145822 
L 282.21443 71.48103 
L 282.334748 71.48103 
L 282.334748 67.648634 
L 282.894387 67.648634 
L 282.894387 63.816238 
L 322.341971 63.816238 
L 322.341971 59.983842 
L 346.079704 59.983842 
L 346.079704 56.151446 
L 359.935509 56.151446 
L 359.935509 52.31905 
L 379.695724 52.31905 
L 379.695724 48.486653 
L 381.185592 48.486653 
L 381.185592 44.654257 
L 384.948766 44.654257 
L 384.948766 40.821861 
L 386.763671 40.821861 
L 386.763671 36.989465 
L 390.509321 36.989465 
L 390.509321 33.157069 
L 392.447685 33.157069 
L 392.447685 29.324673 
L 396.188631 29.324673 
L 396.188631 25.492277 
L 396.653728 25.492277 
L 396.653728 21.659881 
L 397.395256 21.659881 
L 397.395256 17.827485 
L 399.890759 17.827485 
L 399.890759 13.995089 
L 400.700343 13.995089 
L 400.700343 10.162693 
L 401.380052 10.162693 
L 401.380052 6.330297 
L 401.380052 6.330297 
L 460.8 6.330297 
L 460.8 6.330297 
" style="fill:none;stroke:#bf00bf;stroke-linecap:square;stroke-width:1.5;"/>
   </g>
   <g id="line2d_24">
    <path clip-path="url(#p60ce7fb77c)" d="M 241.805035 293.76 
L 241.805035 289.927604 
L 242.273654 289.927604 
L 242.273654 286.095208 
L 244.777588 286.095208 
L 244.777588 282.262812 
L 246.718727 282.262812 
L 246.718727 278.430416 
L 247.977297 278.430416 
L 247.977297 274.59802 
L 249.77997 274.59802 
L 249.77997 270.765624 
L 250.438887 270.765624 
L 250.438887 266.933228 
L 251.986864 266.933228 
L 251.986864 263.100832 
L 253.130091 263.100832 
L 253.130091 259.268436 
L 253.72739 259.268436 
L 253.72739 255.43604 
L 254.394111 255.43604 
L 254.394111 251.603644 
L 255.243127 251.603644 
L 255.243127 247.771248 
L 256.239886 247.771248 
L 256.239886 243.938851 
L 258.393947 243.938851 
L 258.393947 240.106455 
L 258.708054 240.106455 
L 258.708054 236.274059 
L 264.714816 236.274059 
L 264.7897 224.776871 
L 264.911502 224.776871 
L 264.911502 220.944475 
L 266.37144 220.944475 
L 266.37214 163.458535 
L 267.414642 163.458535 
L 267.414642 159.626139 
L 267.713369 159.626139 
L 267.713369 155.793743 
L 268.141348 155.793743 
L 268.146612 144.296554 
L 268.255504 144.296554 
L 268.294977 136.631762 
L 268.729263 136.631762 
L 268.729263 132.799366 
L 271.782682 132.799366 
L 271.782682 128.96697 
L 272.695448 128.96697 
L 272.695448 125.134574 
L 273.010107 125.134574 
L 273.010107 121.302178 
L 273.316125 121.302178 
L 273.316125 117.469782 
L 273.588176 117.469782 
L 273.588176 113.637386 
L 274.336519 113.637386 
L 274.440495 105.972594 
L 275.493264 105.972594 
L 275.493264 102.140198 
L 275.854471 102.140198 
L 275.854471 98.307802 
L 276.056658 98.307802 
L 276.056658 94.475406 
L 276.338627 94.475406 
L 276.428457 86.810614 
L 276.457948 86.810614 
L 276.457948 82.978218 
L 276.949059 82.978218 
L 276.949059 79.145822 
L 282.176223 79.145822 
L 282.207214 71.48103 
L 282.325759 71.48103 
L 282.325759 67.648634 
L 282.889308 67.648634 
L 282.889308 63.816238 
L 322.284154 63.816238 
L 322.284154 59.983842 
L 346.062697 59.983842 
L 346.062697 56.151446 
L 359.925532 56.151446 
L 359.925532 52.31905 
L 379.687357 52.31905 
L 379.687357 48.486653 
L 381.182256 48.486653 
L 381.182256 44.654257 
L 384.943517 44.654257 
L 384.943517 40.821861 
L 386.759822 40.821861 
L 386.759822 36.989465 
L 390.505951 36.989465 
L 390.505951 33.157069 
L 392.443833 33.157069 
L 392.443833 29.324673 
L 396.182272 29.324673 
L 396.182272 25.492277 
L 396.646657 25.492277 
L 396.646657 21.659881 
L 397.38755 21.659881 
L 397.38755 17.827485 
L 399.880878 17.827485 
L 399.880878 13.995089 
L 400.690449 13.995089 
L 400.690449 10.162693 
L 401.376975 10.162693 
L 401.376975 6.330297 
L 401.376975 6.330297 
L 460.8 6.330297 
L 460.8 6.330297 
" style="fill:none;stroke:#000000;stroke-linecap:square;stroke-width:1.5;"/>
   </g>
   <g id="line2d_25">
    <path clip-path="url(#p60ce7fb77c)" d="M 240.878561 293.76 
L 240.878561 289.927604 
L 241.458216 289.927604 
L 241.458216 286.095208 
L 244.072414 286.095208 
L 244.072414 282.262812 
L 245.9222 282.262812 
L 245.9222 278.430416 
L 247.235768 278.430416 
L 247.235768 274.59802 
L 249.282306 274.59802 
L 249.282306 270.765624 
L 249.911888 270.765624 
L 249.911888 266.933228 
L 251.448399 266.933228 
L 251.448399 263.100832 
L 252.631654 263.100832 
L 252.631654 259.268436 
L 253.233203 259.268436 
L 253.233203 255.43604 
L 254.065617 255.43604 
L 254.065617 251.603644 
L 254.987353 251.603644 
L 254.987353 247.771248 
L 255.794079 247.771248 
L 255.794079 243.938851 
L 258.084812 243.938851 
L 258.084812 240.106455 
L 258.378956 240.106455 
L 258.378956 236.274059 
L 262.304558 236.274059 
L 262.304558 232.441663 
L 262.443483 232.441663 
L 262.443483 228.609267 
L 262.953919 228.609267 
L 262.953919 224.776871 
L 263.862355 224.776871 
L 263.862355 220.944475 
L 265.527894 220.944475 
L 265.527894 217.112079 
L 265.980727 217.112079 
L 265.980727 213.279683 
L 266.167242 213.279683 
L 266.247275 151.961347 
L 266.497073 151.961347 
L 266.497073 144.296554 
L 266.909747 144.296554 
L 266.909747 140.464158 
L 267.656724 140.464158 
L 267.656724 136.631762 
L 268.060628 136.631762 
L 268.060628 132.799366 
L 270.937268 132.799366 
L 270.937268 128.96697 
L 271.335556 128.96697 
L 271.335556 125.134574 
L 272.464077 125.134574 
L 272.464077 121.302178 
L 272.718449 121.302178 
L 272.718449 117.469782 
L 273.141254 117.469782 
L 273.141254 113.637386 
L 273.287368 113.637386 
L 273.287368 109.80499 
L 274.100751 109.80499 
L 274.162328 102.140198 
L 274.453723 102.140198 
L 274.453723 98.307802 
L 274.895473 98.307802 
L 274.895473 94.475406 
L 275.373558 94.475406 
L 275.373558 90.64301 
L 275.733003 90.64301 
L 275.81148 82.978218 
L 276.491605 82.978218 
L 276.491605 79.145822 
L 282.005825 79.145822 
L 282.059239 71.48103 
L 282.236609 71.48103 
L 282.236609 67.648634 
L 282.70991 67.648634 
L 282.70991 63.816238 
L 318.485973 63.816238 
L 318.485973 59.983842 
L 344.117184 59.983842 
L 344.117184 56.151446 
L 357.634148 56.151446 
L 357.634148 52.31905 
L 378.126197 52.31905 
L 378.126197 48.486653 
L 380.400733 48.486653 
L 380.400733 44.654257 
L 383.867199 44.654257 
L 383.867199 40.821861 
L 386.040843 40.821861 
L 386.040843 36.989465 
L 389.867778 36.989465 
L 389.867778 33.157069 
L 391.713764 33.157069 
L 391.713764 29.324673 
L 395.591335 29.324673 
L 395.591335 25.492277 
L 396.01093 25.492277 
L 396.01093 21.659881 
L 396.701115 21.659881 
L 396.701115 17.827485 
L 398.959326 17.827485 
L 398.959326 13.995089 
L 399.755952 13.995089 
L 399.755952 10.162693 
L 400.781101 10.162693 
L 400.781101 6.330297 
L 400.781101 6.330297 
L 460.8 6.330297 
L 460.8 6.330297 
" style="fill:none;stroke:#00bfbf;stroke-linecap:square;stroke-width:1.5;"/>
   </g>
   <g id="line2d_26">
    <path clip-path="url(#p60ce7fb77c)" d="M -0.114784 293.76 
L -0.114784 259.268436 
L 169.648833 259.268436 
L 169.648833 255.43604 
L 204.885662 255.43604 
L 204.885662 251.603644 
L 207.735437 251.603644 
L 207.735437 247.771248 
L 214.208253 247.771248 
L 214.208253 243.938851 
L 215.145506 243.938851 
L 215.145506 240.106455 
L 215.822839 240.106455 
L 215.822839 236.274059 
L 216.236303 236.274059 
L 216.236303 232.441663 
L 218.728347 232.441663 
L 218.728347 228.609267 
L 221.450375 228.609267 
L 221.450375 224.776871 
L 223.627264 224.776871 
L 223.627264 220.944475 
L 224.299784 220.944475 
L 224.299784 217.112079 
L 227.115304 217.112079 
L 227.115304 213.279683 
L 228.787043 213.279683 
L 228.787043 209.447287 
L 238.024638 209.447287 
L 238.024638 205.614891 
L 239.323967 205.614891 
L 239.323967 201.782495 
L 240.254221 201.782495 
L 240.254221 197.950099 
L 241.608628 197.950099 
L 241.608628 194.117703 
L 242.166993 194.117703 
L 242.166993 190.285307 
L 246.322742 190.285307 
L 246.322742 186.452911 
L 247.710278 186.452911 
L 247.795408 178.788119 
L 251.646844 178.788119 
L 251.646844 174.955723 
L 256.42101 174.955723 
L 256.525736 167.290931 
L 259.994364 167.290931 
L 259.994364 163.458535 
L 260.202983 163.458535 
L 260.202983 159.626139 
L 261.165862 159.626139 
L 261.187614 151.961347 
L 262.743289 151.961347 
L 262.791213 144.296554 
L 263.157046 144.296554 
L 263.157046 140.464158 
L 265.457907 140.464158 
L 265.457907 136.631762 
L 265.703825 136.631762 
L 265.703825 132.799366 
L 265.997757 132.799366 
L 265.997757 128.96697 
L 269.216043 128.96697 
L 269.216043 125.134574 
L 269.700778 125.134574 
L 269.700778 121.302178 
L 269.894528 121.302178 
L 269.896707 113.637386 
L 270.640772 113.637386 
L 270.640772 109.80499 
L 271.012165 109.80499 
L 271.012165 105.972594 
L 271.415525 105.972594 
L 271.415525 102.140198 
L 271.794028 102.140198 
L 271.794028 98.307802 
L 272.118666 98.307802 
L 272.118666 94.475406 
L 272.476252 94.475406 
L 272.490302 86.810614 
L 273.253768 86.810614 
L 273.253768 82.978218 
L 273.564769 82.978218 
L 273.564769 79.145822 
L 273.894476 79.145822 
L 273.89705 71.48103 
L 276.903401 71.48103 
L 276.903401 67.648634 
L 279.598861 67.648634 
L 279.598861 63.816238 
L 280.673513 63.816238 
L 280.673513 59.983842 
L 280.792075 59.983842 
L 280.792075 56.151446 
L 281.844742 56.151446 
L 281.844742 52.31905 
L 282.547442 52.31905 
L 282.547442 48.486653 
L 282.921949 48.486653 
L 282.921949 44.654257 
L 286.047843 44.654257 
L 286.047843 40.821861 
L 287.955194 40.821861 
L 287.955194 36.989465 
L 303.812908 36.989465 
L 303.812908 33.157069 
L 313.649144 33.157069 
L 313.649144 29.324673 
L 314.518289 29.324673 
L 314.518289 25.492277 
L 318.312183 25.492277 
L 318.312183 21.659881 
L 325.149763 21.659881 
L 325.149763 17.827485 
L 325.303227 17.827485 
L 325.303227 13.995089 
L 326.364867 13.995089 
L 326.364867 10.162693 
L 336.368279 10.162693 
L 336.368279 6.330297 
L 336.368279 6.330297 
L 460.8 6.330297 
L 460.8 6.330297 
" style="fill:none;stroke:#bf00bf;stroke-linecap:square;stroke-width:1.5;"/>
   </g>
   <g id="patch_3">
    <path d="M 0 293.76 
L 0 3.456 
" style="fill:none;stroke:#000000;stroke-linecap:square;stroke-linejoin:miter;stroke-width:0.8;"/>
   </g>
   <g id="patch_4">
    <path d="M 460.8 293.76 
L 460.8 3.456 
" style="fill:none;stroke:#000000;stroke-linecap:square;stroke-linejoin:miter;stroke-width:0.8;"/>
   </g>
   <g id="patch_5">
    <path d="M 0 293.76 
L 460.8 293.76 
" style="fill:none;stroke:#000000;stroke-linecap:square;stroke-linejoin:miter;stroke-width:0.8;"/>
   </g>
   <g id="patch_6">
    <path d="M 0 3.456 
L 460.8 3.456 
" style="fill:none;stroke:#000000;stroke-linecap:square;stroke-linejoin:miter;stroke-width:0.8;"/>
   </g>
   <g id="text_6">
    <!-- {f1-f5}, 5-D -->
    <g transform="translate(331.334 287.95392)scale(0.2 -0.2)">
     <defs>
      <path d="M 51.125 -9.28125 
L 51.125 -16.3125 
L 48.09375 -16.3125 
Q 35.9375 -16.3125 31.8125 -12.6875 
Q 27.6875 -9.078125 27.6875 1.703125 
L 27.6875 13.375 
Q 27.6875 20.75 25.046875 23.578125 
Q 22.40625 26.421875 15.484375 26.421875 
L 12.5 26.421875 
L 12.5 33.40625 
L 15.484375 33.40625 
Q 22.46875 33.40625 25.078125 36.203125 
Q 27.6875 39.015625 27.6875 46.296875 
L 27.6875 58.015625 
Q 27.6875 68.796875 31.8125 72.390625 
Q 35.9375 75.984375 48.09375 75.984375 
L 51.125 75.984375 
L 51.125 69 
L 47.796875 69 
Q 40.921875 69 38.8125 66.84375 
Q 36.71875 64.703125 36.71875 57.8125 
L 36.71875 45.703125 
Q 36.71875 38.03125 34.5 34.5625 
Q 32.28125 31.109375 26.90625 29.890625 
Q 32.328125 28.5625 34.515625 25.09375 
Q 36.71875 21.625 36.71875 14.015625 
L 36.71875 1.90625 
Q 36.71875 -4.984375 38.8125 -7.125 
Q 40.921875 -9.28125 47.796875 -9.28125 
z
" id="DejaVuSans-123"/>
      <path d="M 10.796875 72.90625 
L 49.515625 72.90625 
L 49.515625 64.59375 
L 19.828125 64.59375 
L 19.828125 46.734375 
Q 21.96875 47.46875 24.109375 47.828125 
Q 26.265625 48.1875 28.421875 48.1875 
Q 40.625 48.1875 47.75 41.5 
Q 54.890625 34.8125 54.890625 23.390625 
Q 54.890625 11.625 47.5625 5.09375 
Q 40.234375 -1.421875 26.90625 -1.421875 
Q 22.3125 -1.421875 17.546875 -0.640625 
Q 12.796875 0.140625 7.71875 1.703125 
L 7.71875 11.625 
Q 12.109375 9.234375 16.796875 8.0625 
Q 21.484375 6.890625 26.703125 6.890625 
Q 35.15625 6.890625 40.078125 11.328125 
Q 45.015625 15.765625 45.015625 23.390625 
Q 45.015625 31 40.078125 35.4375 
Q 35.15625 39.890625 26.703125 39.890625 
Q 22.75 39.890625 18.8125 39.015625 
Q 14.890625 38.140625 10.796875 36.28125 
z
" id="DejaVuSans-53"/>
      <path d="M 12.5 -9.28125 
L 15.921875 -9.28125 
Q 22.75 -9.28125 24.828125 -7.171875 
Q 26.90625 -5.078125 26.90625 1.90625 
L 26.90625 14.015625 
Q 26.90625 21.625 29.09375 25.09375 
Q 31.296875 28.5625 36.71875 29.890625 
Q 31.296875 31.109375 29.09375 34.5625 
Q 26.90625 38.03125 26.90625 45.703125 
L 26.90625 57.8125 
Q 26.90625 64.75 24.828125 66.875 
Q 22.75 69 15.921875 69 
L 12.5 69 
L 12.5 75.984375 
L 15.578125 75.984375 
Q 27.734375 75.984375 31.8125 72.390625 
Q 35.890625 68.796875 35.890625 58.015625 
L 35.890625 46.296875 
Q 35.890625 39.015625 38.515625 36.203125 
Q 41.15625 33.40625 48.09375 33.40625 
L 51.125 33.40625 
L 51.125 26.421875 
L 48.09375 26.421875 
Q 41.15625 26.421875 38.515625 23.578125 
Q 35.890625 20.75 35.890625 13.375 
L 35.890625 1.703125 
Q 35.890625 -9.078125 31.8125 -12.6875 
Q 27.734375 -16.3125 15.578125 -16.3125 
L 12.5 -16.3125 
z
" id="DejaVuSans-125"/>
      <path d="M 11.71875 12.40625 
L 22.015625 12.40625 
L 22.015625 4 
L 14.015625 -11.625 
L 7.71875 -11.625 
L 11.71875 4 
z
" id="DejaVuSans-44"/>
     </defs>
     <use xlink:href="#DejaVuSans-123"/>
     <use x="63.623047" xlink:href="#DejaVuSans-102"/>
     <use x="98.828125" xlink:href="#DejaVuSans-49"/>
     <use x="162.451172" xlink:href="#DejaVuSans-45"/>
     <use x="198.535156" xlink:href="#DejaVuSans-102"/>
     <use x="233.740234" xlink:href="#DejaVuSans-53"/>
     <use x="297.363281" xlink:href="#DejaVuSans-125"/>
     <use x="360.986328" xlink:href="#DejaVuSans-44"/>
     <use x="392.773438" xlink:href="#DejaVuSans-32"/>
     <use x="424.560547" xlink:href="#DejaVuSans-53"/>
     <use x="488.183594" xlink:href="#DejaVuSans-45"/>
     <use x="524.267578" xlink:href="#DejaVuSans-68"/>
    </g>
   </g>
   <g id="text_7">
    <!-- v2.4 -->
    <g style="fill:#808080;" transform="translate(219.489063 288.777272)scale(0.1 -0.1)">
     <defs>
      <path d="M 2.984375 54.6875 
L 12.5 54.6875 
L 29.59375 8.796875 
L 46.6875 54.6875 
L 56.203125 54.6875 
L 35.6875 0 
L 23.484375 0 
z
" id="DejaVuSans-118"/>
      <path d="M 19.1875 8.296875 
L 53.609375 8.296875 
L 53.609375 0 
L 7.328125 0 
L 7.328125 8.296875 
Q 12.9375 14.109375 22.625 23.890625 
Q 32.328125 33.6875 34.8125 36.53125 
Q 39.546875 41.84375 41.421875 45.53125 
Q 43.3125 49.21875 43.3125 52.78125 
Q 43.3125 58.59375 39.234375 62.25 
Q 35.15625 65.921875 28.609375 65.921875 
Q 23.96875 65.921875 18.8125 64.3125 
Q 13.671875 62.703125 7.8125 59.421875 
L 7.8125 69.390625 
Q 13.765625 71.78125 18.9375 73 
Q 24.125 74.21875 28.421875 74.21875 
Q 39.75 74.21875 46.484375 68.546875 
Q 53.21875 62.890625 53.21875 53.421875 
Q 53.21875 48.921875 51.53125 44.890625 
Q 49.859375 40.875 45.40625 35.40625 
Q 44.1875 33.984375 37.640625 27.21875 
Q 31.109375 20.453125 19.1875 8.296875 
z
" id="DejaVuSans-50"/>
      <path d="M 10.6875 12.40625 
L 21 12.40625 
L 21 0 
L 10.6875 0 
z
" id="DejaVuSans-46"/>
     </defs>
     <use xlink:href="#DejaVuSans-118"/>
     <use x="59.179688" xlink:href="#DejaVuSans-50"/>
     <use x="122.802734" xlink:href="#DejaVuSans-46"/>
     <use x="154.589844" xlink:href="#DejaVuSans-52"/>
    </g>
   </g>
  </g>
 </g>
 <defs>
  <clipPath id="p60ce7fb77c">
   <rect height="290.304" width="460.8" x="0" y="3.456"/>
  </clipPath>
 </defs>
</svg>
