<?xml version="1.0" encoding="utf-8" standalone="no"?>
<!DOCTYPE svg PUBLIC "-//W3C//DTD SVG 1.1//EN"
  "http://www.w3.org/Graphics/SVG/1.1/DTD/svg11.dtd">
<!-- Created with matplotlib (https://matplotlib.org/) -->
<svg height="345.6pt" version="1.1" viewBox="0 0 460.8 345.6" width="460.8pt" xmlns="http://www.w3.org/2000/svg" xmlns:xlink="http://www.w3.org/1999/xlink">
 <metadata>
  <rdf:RDF xmlns:cc="http://creativecommons.org/ns#" xmlns:dc="http://purl.org/dc/elements/1.1/" xmlns:rdf="http://www.w3.org/1999/02/22-rdf-syntax-ns#">
   <cc:Work>
    <dc:type rdf:resource="http://purl.org/dc/dcmitype/StillImage"/>
    <dc:date>2021-08-04T15:01:47.742306</dc:date>
    <dc:format>image/svg+xml</dc:format>
    <dc:creator>
     <cc:Agent>
      <dc:title>Matplotlib v3.3.1, https://matplotlib.org/</dc:title>
     </cc:Agent>
    </dc:creator>
   </cc:Work>
  </rdf:RDF>
 </metadata>
 <defs>
  <style type="text/css">*{stroke-linecap:butt;stroke-linejoin:round;}</style>
 </defs>
 <g id="figure_1">
  <g id="patch_1">
   <path d="M 0 345.6 
L 460.8 345.6 
L 460.8 0 
L 0 0 
z
" style="fill:#ffffff;"/>
  </g>
  <g id="axes_1">
   <g id="patch_2">
    <path d="M 0 293.76 
L 460.8 293.76 
L 460.8 3.456 
L 0 3.456 
z
" style="fill:#ffffff;"/>
   </g>
   <g id="matplotlib.axis_1">
    <g id="xtick_1">
     <g id="line2d_1">
      <path clip-path="url(#pf0df798d2a)" d="M 106.133038 293.76 
L 106.133038 3.456 
" style="fill:none;stroke:#b0b0b0;stroke-linecap:square;stroke-width:0.8;"/>
     </g>
     <g id="line2d_2">
      <defs>
       <path d="M 0 0 
L 0 3.5 
" id="m7baaf8478d" style="stroke:#000000;stroke-width:0.8;"/>
      </defs>
      <g>
       <use style="stroke:#000000;stroke-width:0.8;" x="106.133038" xlink:href="#m7baaf8478d" y="293.76"/>
      </g>
     </g>
     <g id="text_1">
      <!-- -4 -->
      <g transform="translate(96.162726 315.956875)scale(0.2 -0.2)">
       <defs>
        <path d="M 4.890625 31.390625 
L 31.203125 31.390625 
L 31.203125 23.390625 
L 4.890625 23.390625 
z
" id="DejaVuSans-45"/>
        <path d="M 37.796875 64.3125 
L 12.890625 25.390625 
L 37.796875 25.390625 
z
M 35.203125 72.90625 
L 47.609375 72.90625 
L 47.609375 25.390625 
L 58.015625 25.390625 
L 58.015625 17.1875 
L 47.609375 17.1875 
L 47.609375 0 
L 37.796875 0 
L 37.796875 17.1875 
L 4.890625 17.1875 
L 4.890625 26.703125 
z
" id="DejaVuSans-52"/>
       </defs>
       <use xlink:href="#DejaVuSans-45"/>
       <use x="36.083984" xlink:href="#DejaVuSans-52"/>
      </g>
     </g>
    </g>
    <g id="xtick_2">
     <g id="line2d_3">
      <path clip-path="url(#pf0df798d2a)" d="M 212.380861 293.76 
L 212.380861 3.456 
" style="fill:none;stroke:#b0b0b0;stroke-linecap:square;stroke-width:0.8;"/>
     </g>
     <g id="line2d_4">
      <g>
       <use style="stroke:#000000;stroke-width:0.8;" x="212.380861" xlink:href="#m7baaf8478d" y="293.76"/>
      </g>
     </g>
     <g id="text_2">
      <!-- 0 -->
      <g transform="translate(206.018361 315.956875)scale(0.2 -0.2)">
       <defs>
        <path d="M 31.78125 66.40625 
Q 24.171875 66.40625 20.328125 58.90625 
Q 16.5 51.421875 16.5 36.375 
Q 16.5 21.390625 20.328125 13.890625 
Q 24.171875 6.390625 31.78125 6.390625 
Q 39.453125 6.390625 43.28125 13.890625 
Q 47.125 21.390625 47.125 36.375 
Q 47.125 51.421875 43.28125 58.90625 
Q 39.453125 66.40625 31.78125 66.40625 
z
M 31.78125 74.21875 
Q 44.046875 74.21875 50.515625 64.515625 
Q 56.984375 54.828125 56.984375 36.375 
Q 56.984375 17.96875 50.515625 8.265625 
Q 44.046875 -1.421875 31.78125 -1.421875 
Q 19.53125 -1.421875 13.0625 8.265625 
Q 6.59375 17.96875 6.59375 36.375 
Q 6.59375 54.828125 13.0625 64.515625 
Q 19.53125 74.21875 31.78125 74.21875 
z
" id="DejaVuSans-48"/>
       </defs>
       <use xlink:href="#DejaVuSans-48"/>
      </g>
     </g>
    </g>
    <g id="xtick_3">
     <g id="line2d_5">
      <path clip-path="url(#pf0df798d2a)" d="M 318.628683 293.76 
L 318.628683 3.456 
" style="fill:none;stroke:#b0b0b0;stroke-linecap:square;stroke-width:0.8;"/>
     </g>
     <g id="line2d_6">
      <g>
       <use style="stroke:#000000;stroke-width:0.8;" x="318.628683" xlink:href="#m7baaf8478d" y="293.76"/>
      </g>
     </g>
     <g id="text_3">
      <!-- 4 -->
      <g transform="translate(312.266183 315.956875)scale(0.2 -0.2)">
       <use xlink:href="#DejaVuSans-52"/>
      </g>
     </g>
    </g>
    <g id="xtick_4">
     <g id="line2d_7">
      <path clip-path="url(#pf0df798d2a)" d="M 424.876506 293.76 
L 424.876506 3.456 
" style="fill:none;stroke:#b0b0b0;stroke-linecap:square;stroke-width:0.8;"/>
     </g>
     <g id="line2d_8">
      <g>
       <use style="stroke:#000000;stroke-width:0.8;" x="424.876506" xlink:href="#m7baaf8478d" y="293.76"/>
      </g>
     </g>
     <g id="text_4">
      <!-- 8 -->
      <g transform="translate(418.514006 315.956875)scale(0.2 -0.2)">
       <defs>
        <path d="M 31.78125 34.625 
Q 24.75 34.625 20.71875 30.859375 
Q 16.703125 27.09375 16.703125 20.515625 
Q 16.703125 13.921875 20.71875 10.15625 
Q 24.75 6.390625 31.78125 6.390625 
Q 38.8125 6.390625 42.859375 10.171875 
Q 46.921875 13.96875 46.921875 20.515625 
Q 46.921875 27.09375 42.890625 30.859375 
Q 38.875 34.625 31.78125 34.625 
z
M 21.921875 38.8125 
Q 15.578125 40.375 12.03125 44.71875 
Q 8.5 49.078125 8.5 55.328125 
Q 8.5 64.0625 14.71875 69.140625 
Q 20.953125 74.21875 31.78125 74.21875 
Q 42.671875 74.21875 48.875 69.140625 
Q 55.078125 64.0625 55.078125 55.328125 
Q 55.078125 49.078125 51.53125 44.71875 
Q 48 40.375 41.703125 38.8125 
Q 48.828125 37.15625 52.796875 32.3125 
Q 56.78125 27.484375 56.78125 20.515625 
Q 56.78125 9.90625 50.3125 4.234375 
Q 43.84375 -1.421875 31.78125 -1.421875 
Q 19.734375 -1.421875 13.25 4.234375 
Q 6.78125 9.90625 6.78125 20.515625 
Q 6.78125 27.484375 10.78125 32.3125 
Q 14.796875 37.15625 21.921875 38.8125 
z
M 18.3125 54.390625 
Q 18.3125 48.734375 21.84375 45.5625 
Q 25.390625 42.390625 31.78125 42.390625 
Q 38.140625 42.390625 41.71875 45.5625 
Q 45.3125 48.734375 45.3125 54.390625 
Q 45.3125 60.0625 41.71875 63.234375 
Q 38.140625 66.40625 31.78125 66.40625 
Q 25.390625 66.40625 21.84375 63.234375 
Q 18.3125 60.0625 18.3125 54.390625 
z
" id="DejaVuSans-56"/>
       </defs>
       <use xlink:href="#DejaVuSans-56"/>
      </g>
     </g>
    </g>
    <g id="text_5">
     <!-- log10 of Df -->
     <g transform="translate(175.214063 339.313125)scale(0.2 -0.2)">
      <defs>
       <path d="M 9.421875 75.984375 
L 18.40625 75.984375 
L 18.40625 0 
L 9.421875 0 
z
" id="DejaVuSans-108"/>
       <path d="M 30.609375 48.390625 
Q 23.390625 48.390625 19.1875 42.75 
Q 14.984375 37.109375 14.984375 27.296875 
Q 14.984375 17.484375 19.15625 11.84375 
Q 23.34375 6.203125 30.609375 6.203125 
Q 37.796875 6.203125 41.984375 11.859375 
Q 46.1875 17.53125 46.1875 27.296875 
Q 46.1875 37.015625 41.984375 42.703125 
Q 37.796875 48.390625 30.609375 48.390625 
z
M 30.609375 56 
Q 42.328125 56 49.015625 48.375 
Q 55.71875 40.765625 55.71875 27.296875 
Q 55.71875 13.875 49.015625 6.21875 
Q 42.328125 -1.421875 30.609375 -1.421875 
Q 18.84375 -1.421875 12.171875 6.21875 
Q 5.515625 13.875 5.515625 27.296875 
Q 5.515625 40.765625 12.171875 48.375 
Q 18.84375 56 30.609375 56 
z
" id="DejaVuSans-111"/>
       <path d="M 45.40625 27.984375 
Q 45.40625 37.75 41.375 43.109375 
Q 37.359375 48.484375 30.078125 48.484375 
Q 22.859375 48.484375 18.828125 43.109375 
Q 14.796875 37.75 14.796875 27.984375 
Q 14.796875 18.265625 18.828125 12.890625 
Q 22.859375 7.515625 30.078125 7.515625 
Q 37.359375 7.515625 41.375 12.890625 
Q 45.40625 18.265625 45.40625 27.984375 
z
M 54.390625 6.78125 
Q 54.390625 -7.171875 48.1875 -13.984375 
Q 42 -20.796875 29.203125 -20.796875 
Q 24.46875 -20.796875 20.265625 -20.09375 
Q 16.0625 -19.390625 12.109375 -17.921875 
L 12.109375 -9.1875 
Q 16.0625 -11.328125 19.921875 -12.34375 
Q 23.78125 -13.375 27.78125 -13.375 
Q 36.625 -13.375 41.015625 -8.765625 
Q 45.40625 -4.15625 45.40625 5.171875 
L 45.40625 9.625 
Q 42.625 4.78125 38.28125 2.390625 
Q 33.9375 0 27.875 0 
Q 17.828125 0 11.671875 7.65625 
Q 5.515625 15.328125 5.515625 27.984375 
Q 5.515625 40.671875 11.671875 48.328125 
Q 17.828125 56 27.875 56 
Q 33.9375 56 38.28125 53.609375 
Q 42.625 51.21875 45.40625 46.390625 
L 45.40625 54.6875 
L 54.390625 54.6875 
z
" id="DejaVuSans-103"/>
       <path d="M 12.40625 8.296875 
L 28.515625 8.296875 
L 28.515625 63.921875 
L 10.984375 60.40625 
L 10.984375 69.390625 
L 28.421875 72.90625 
L 38.28125 72.90625 
L 38.28125 8.296875 
L 54.390625 8.296875 
L 54.390625 0 
L 12.40625 0 
z
" id="DejaVuSans-49"/>
       <path id="DejaVuSans-32"/>
       <path d="M 37.109375 75.984375 
L 37.109375 68.5 
L 28.515625 68.5 
Q 23.6875 68.5 21.796875 66.546875 
Q 19.921875 64.59375 19.921875 59.515625 
L 19.921875 54.6875 
L 34.71875 54.6875 
L 34.71875 47.703125 
L 19.921875 47.703125 
L 19.921875 0 
L 10.890625 0 
L 10.890625 47.703125 
L 2.296875 47.703125 
L 2.296875 54.6875 
L 10.890625 54.6875 
L 10.890625 58.5 
Q 10.890625 67.625 15.140625 71.796875 
Q 19.390625 75.984375 28.609375 75.984375 
z
" id="DejaVuSans-102"/>
       <path d="M 19.671875 64.796875 
L 19.671875 8.109375 
L 31.59375 8.109375 
Q 46.6875 8.109375 53.6875 14.9375 
Q 60.6875 21.78125 60.6875 36.53125 
Q 60.6875 51.171875 53.6875 57.984375 
Q 46.6875 64.796875 31.59375 64.796875 
z
M 9.8125 72.90625 
L 30.078125 72.90625 
Q 51.265625 72.90625 61.171875 64.09375 
Q 71.09375 55.28125 71.09375 36.53125 
Q 71.09375 17.671875 61.125 8.828125 
Q 51.171875 0 30.078125 0 
L 9.8125 0 
z
" id="DejaVuSans-68"/>
      </defs>
      <use xlink:href="#DejaVuSans-108"/>
      <use x="27.783203" xlink:href="#DejaVuSans-111"/>
      <use x="88.964844" xlink:href="#DejaVuSans-103"/>
      <use x="152.441406" xlink:href="#DejaVuSans-49"/>
      <use x="216.064453" xlink:href="#DejaVuSans-48"/>
      <use x="279.6875" xlink:href="#DejaVuSans-32"/>
      <use x="311.474609" xlink:href="#DejaVuSans-111"/>
      <use x="372.65625" xlink:href="#DejaVuSans-102"/>
      <use x="407.861328" xlink:href="#DejaVuSans-32"/>
      <use x="439.648438" xlink:href="#DejaVuSans-68"/>
      <use x="516.650391" xlink:href="#DejaVuSans-102"/>
     </g>
    </g>
   </g>
   <g id="matplotlib.axis_2">
    <g id="ytick_1">
     <g id="line2d_9">
      <path clip-path="url(#pf0df798d2a)" d="M 0 293.76 
L 460.8 293.76 
" style="fill:none;stroke:#b0b0b0;stroke-linecap:square;stroke-width:0.8;"/>
     </g>
     <g id="line2d_10">
      <defs>
       <path d="M 0 0 
L -3.5 0 
" id="m7ef64ed9d3" style="stroke:#000000;stroke-width:0.8;"/>
      </defs>
      <g>
       <use style="stroke:#000000;stroke-width:0.8;" x="0" xlink:href="#m7ef64ed9d3" y="293.76"/>
      </g>
     </g>
    </g>
    <g id="ytick_2">
     <g id="line2d_11">
      <path clip-path="url(#pf0df798d2a)" d="M 0 236.274059 
L 460.8 236.274059 
" style="fill:none;stroke:#b0b0b0;stroke-linecap:square;stroke-width:0.8;"/>
     </g>
     <g id="line2d_12">
      <g>
       <use style="stroke:#000000;stroke-width:0.8;" x="0" xlink:href="#m7ef64ed9d3" y="236.274059"/>
      </g>
     </g>
    </g>
    <g id="ytick_3">
     <g id="line2d_13">
      <path clip-path="url(#pf0df798d2a)" d="M 0 178.788119 
L 460.8 178.788119 
" style="fill:none;stroke:#b0b0b0;stroke-linecap:square;stroke-width:0.8;"/>
     </g>
     <g id="line2d_14">
      <g>
       <use style="stroke:#000000;stroke-width:0.8;" x="0" xlink:href="#m7ef64ed9d3" y="178.788119"/>
      </g>
     </g>
    </g>
    <g id="ytick_4">
     <g id="line2d_15">
      <path clip-path="url(#pf0df798d2a)" d="M 0 121.302178 
L 460.8 121.302178 
" style="fill:none;stroke:#b0b0b0;stroke-linecap:square;stroke-width:0.8;"/>
     </g>
     <g id="line2d_16">
      <g>
       <use style="stroke:#000000;stroke-width:0.8;" x="0" xlink:href="#m7ef64ed9d3" y="121.302178"/>
      </g>
     </g>
    </g>
    <g id="ytick_5">
     <g id="line2d_17">
      <path clip-path="url(#pf0df798d2a)" d="M 0 63.816238 
L 460.8 63.816238 
" style="fill:none;stroke:#b0b0b0;stroke-linecap:square;stroke-width:0.8;"/>
     </g>
     <g id="line2d_18">
      <g>
       <use style="stroke:#000000;stroke-width:0.8;" x="0" xlink:href="#m7ef64ed9d3" y="63.816238"/>
      </g>
     </g>
    </g>
    <g id="ytick_6">
     <g id="line2d_19">
      <path clip-path="url(#pf0df798d2a)" d="M 0 6.330297 
L 460.8 6.330297 
" style="fill:none;stroke:#b0b0b0;stroke-linecap:square;stroke-width:0.8;"/>
     </g>
     <g id="line2d_20">
      <g>
       <use style="stroke:#000000;stroke-width:0.8;" x="0" xlink:href="#m7ef64ed9d3" y="6.330297"/>
      </g>
     </g>
    </g>
   </g>
   <g id="line2d_21">
    <path clip-path="url(#pf0df798d2a)" d="M 164.467997 293.76 
L 164.486188 236.274059 
L 224.965908 236.274059 
L 224.965908 232.441663 
L 227.157102 232.441663 
L 227.157102 228.609267 
L 227.713019 228.609267 
L 227.713019 224.776871 
L 228.99173 224.776871 
L 228.99173 220.944475 
L 229.61861 220.944475 
L 229.61861 217.112079 
L 233.814834 217.112079 
L 233.814834 213.279683 
L 235.135617 213.279683 
L 235.135617 209.447287 
L 236.260618 209.447287 
L 236.260618 205.614891 
L 236.935125 205.614891 
L 236.935125 201.782495 
L 237.213957 201.782495 
L 237.276192 194.117703 
L 240.310484 194.117703 
L 240.310484 190.285307 
L 241.934168 190.285307 
L 241.934168 186.452911 
L 242.632653 186.452911 
L 242.646623 178.788119 
L 242.949792 178.788119 
L 242.949792 174.955723 
L 245.466655 174.955723 
L 245.466655 171.123327 
L 246.099121 171.123327 
L 246.099121 167.290931 
L 247.250721 167.290931 
L 247.250721 163.458535 
L 247.503318 163.458535 
L 247.503318 159.626139 
L 250.502845 159.626139 
L 250.502845 155.793743 
L 253.433443 155.793743 
L 253.433443 151.961347 
L 254.004668 151.961347 
L 254.066138 144.296554 
L 254.592314 144.296554 
L 254.675207 136.631762 
L 254.971264 136.631762 
L 254.971264 132.799366 
L 255.092377 132.799366 
L 255.092377 128.96697 
L 255.974147 128.96697 
L 255.974147 125.134574 
L 256.097162 125.134574 
L 256.097162 121.302178 
L 256.274377 121.302178 
L 256.274377 117.469782 
L 257.153637 117.469782 
L 257.153637 113.637386 
L 258.837777 113.637386 
L 258.837777 109.80499 
L 259.162532 109.80499 
L 259.162532 105.972594 
L 259.371405 105.972594 
L 259.371405 102.140198 
L 262.57913 102.140198 
L 262.57913 98.307802 
L 263.706501 98.307802 
L 263.7697 86.810614 
L 265.008475 86.810614 
L 265.008475 82.978218 
L 265.379582 82.978218 
L 265.451873 71.48103 
L 265.787328 71.48103 
L 265.881114 63.816238 
L 266.440432 63.816238 
L 266.440432 59.983842 
L 267.263043 59.983842 
L 267.263043 56.151446 
L 267.423941 56.151446 
L 267.423941 52.31905 
L 268.310986 52.31905 
L 268.310986 48.486653 
L 268.908274 48.486653 
L 268.908274 44.654257 
L 269.106082 44.654257 
L 269.180872 33.157069 
L 269.327725 33.157069 
L 269.327725 29.324673 
L 269.890492 29.324673 
L 269.890492 25.492277 
L 270.890989 25.492277 
L 270.890989 21.659881 
L 273.251304 21.659881 
L 273.251304 17.827485 
L 275.386096 17.827485 
L 275.386096 13.995089 
L 275.972946 13.995089 
L 275.972946 10.162693 
L 280.631395 10.162693 
L 280.631395 6.330297 
L 280.631395 6.330297 
L 460.8 6.330297 
L 460.8 6.330297 
" style="fill:none;stroke:#ff0000;stroke-linecap:square;stroke-width:3;"/>
   </g>
   <g id="line2d_22">
    <path clip-path="url(#pf0df798d2a)" d="M 196.09445 293.76 
L 196.181319 278.430416 
L 196.223254 278.430416 
L 196.284643 270.765624 
L 196.334708 270.765624 
L 196.406203 236.274059 
L 235.707089 236.274059 
L 235.707089 232.441663 
L 236.602137 232.441663 
L 236.602137 228.609267 
L 238.566027 228.609267 
L 238.566027 224.776871 
L 240.870107 224.776871 
L 240.870107 220.944475 
L 241.565488 220.944475 
L 241.565488 217.112079 
L 244.587525 217.112079 
L 244.685283 209.447287 
L 244.988443 209.447287 
L 244.988443 205.614891 
L 246.240823 205.614891 
L 246.246135 197.950099 
L 249.503225 197.950099 
L 249.503225 194.117703 
L 249.85616 194.117703 
L 249.85616 190.285307 
L 250.266233 190.285307 
L 250.266233 186.452911 
L 252.13895 186.452911 
L 252.248959 178.788119 
L 253.193434 178.788119 
L 253.193434 174.955723 
L 253.797305 174.955723 
L 253.797305 171.123327 
L 254.841004 171.123327 
L 254.841004 167.290931 
L 254.965524 167.290931 
L 254.965524 163.458535 
L 255.679519 163.458535 
L 255.679519 159.626139 
L 256.075721 159.626139 
L 256.075721 155.793743 
L 256.35025 155.793743 
L 256.35025 151.961347 
L 258.92144 151.961347 
L 258.92144 148.12895 
L 261.22221 148.12895 
L 261.22221 144.296554 
L 261.577974 144.296554 
L 261.577974 140.464158 
L 262.487301 140.464158 
L 262.487301 136.631762 
L 262.890139 136.631762 
L 262.890139 132.799366 
L 263.898148 132.799366 
L 263.898148 128.96697 
L 264.093401 128.96697 
L 264.093401 125.134574 
L 264.876732 125.134574 
L 264.900995 117.469782 
L 265.07658 117.469782 
L 265.07658 113.637386 
L 265.513464 113.637386 
L 265.566312 105.972594 
L 265.858202 105.972594 
L 265.858202 102.140198 
L 266.101065 102.140198 
L 266.101065 98.307802 
L 266.585112 98.307802 
L 266.585112 94.475406 
L 267.393981 94.475406 
L 267.393981 90.64301 
L 267.662405 90.64301 
L 267.662405 86.810614 
L 268.586726 86.810614 
L 268.586726 82.978218 
L 268.713638 82.978218 
L 268.713638 79.145822 
L 268.831858 79.145822 
L 268.831858 75.313426 
L 269.224436 75.313426 
L 269.224436 71.48103 
L 269.528354 71.48103 
L 269.561384 63.816238 
L 269.665815 63.816238 
L 269.665815 59.983842 
L 269.842688 59.983842 
L 269.842688 56.151446 
L 270.194637 56.151446 
L 270.264159 48.486653 
L 270.336057 48.486653 
L 270.336057 44.654257 
L 270.740462 44.654257 
L 270.740462 40.821861 
L 271.069637 40.821861 
L 271.069637 36.989465 
L 271.524463 36.989465 
L 271.524463 33.157069 
L 271.702975 33.157069 
L 271.702975 29.324673 
L 271.97953 29.324673 
L 271.97953 25.492277 
L 272.947102 25.492277 
L 272.947102 21.659881 
L 273.373868 21.659881 
L 273.373868 17.827485 
L 276.144811 17.827485 
L 276.144811 13.995089 
L 281.0056 13.995089 
L 281.0056 10.162693 
L 282.120919 10.162693 
L 282.120919 6.330297 
L 282.120919 6.330297 
L 460.8 6.330297 
L 460.8 6.330297 
" style="fill:none;stroke:#00bfbf;stroke-linecap:square;stroke-width:1.5;"/>
   </g>
   <g id="line2d_23">
    <path clip-path="url(#pf0df798d2a)" d="M 196.068871 293.76 
L 196.15241 259.268436 
L 196.210871 259.268436 
L 196.310293 243.938851 
L 196.380817 243.938851 
L 196.390675 236.274059 
L 235.703665 236.274059 
L 235.703665 232.441663 
L 236.597004 232.441663 
L 236.597004 228.609267 
L 238.566027 228.609267 
L 238.566027 224.776871 
L 240.869637 224.776871 
L 240.869637 220.944475 
L 241.565488 220.944475 
L 241.565488 217.112079 
L 244.582116 217.112079 
L 244.683866 209.447287 
L 244.981482 209.447287 
L 244.981482 205.614891 
L 246.237798 205.614891 
L 246.246135 197.950099 
L 249.503211 197.950099 
L 249.503211 194.117703 
L 249.85616 194.117703 
L 249.85616 190.285307 
L 250.263661 190.285307 
L 250.263661 186.452911 
L 252.123299 186.452911 
L 252.123299 182.620515 
L 252.248959 182.620515 
L 252.248959 178.788119 
L 253.193434 178.788119 
L 253.193434 174.955723 
L 253.786143 174.955723 
L 253.786143 171.123327 
L 254.791631 171.123327 
L 254.791631 167.290931 
L 254.965524 167.290931 
L 254.965524 163.458535 
L 255.616504 163.458535 
L 255.616504 159.626139 
L 256.075721 159.626139 
L 256.075721 155.793743 
L 256.341252 155.793743 
L 256.341252 151.961347 
L 258.919316 151.961347 
L 258.919316 148.12895 
L 261.220091 148.12895 
L 261.220091 144.296554 
L 261.577974 144.296554 
L 261.577974 140.464158 
L 262.482602 140.464158 
L 262.482602 136.631762 
L 262.862997 136.631762 
L 262.862997 132.799366 
L 263.890015 132.799366 
L 263.890015 128.96697 
L 264.086595 128.96697 
L 264.086595 125.134574 
L 264.873226 125.134574 
L 264.891821 117.469782 
L 265.047942 117.469782 
L 265.047942 113.637386 
L 265.509371 113.637386 
L 265.54817 105.972594 
L 265.85119 105.972594 
L 265.85119 102.140198 
L 265.996244 102.140198 
L 265.996244 98.307802 
L 266.581979 98.307802 
L 266.581979 94.475406 
L 267.392435 94.475406 
L 267.392435 90.64301 
L 267.546898 90.64301 
L 267.546898 86.810614 
L 268.586726 86.810614 
L 268.586726 82.978218 
L 268.712697 82.978218 
L 268.712697 79.145822 
L 268.824215 79.145822 
L 268.824215 75.313426 
L 269.202783 75.313426 
L 269.202783 71.48103 
L 269.506321 71.48103 
L 269.561107 63.816238 
L 269.663806 63.816238 
L 269.663806 59.983842 
L 269.840502 59.983842 
L 269.840502 56.151446 
L 270.193758 56.151446 
L 270.264159 48.486653 
L 270.336057 48.486653 
L 270.336057 44.654257 
L 270.739249 44.654257 
L 270.739249 40.821861 
L 271.030645 40.821861 
L 271.030645 36.989465 
L 271.522619 36.989465 
L 271.522619 33.157069 
L 271.702975 33.157069 
L 271.702975 29.324673 
L 271.978615 29.324673 
L 271.978615 25.492277 
L 272.945476 25.492277 
L 272.945476 21.659881 
L 273.373868 21.659881 
L 273.373868 17.827485 
L 276.060744 17.827485 
L 276.060744 13.995089 
L 281.003185 13.995089 
L 281.003185 10.162693 
L 282.120919 10.162693 
L 282.120919 6.330297 
L 282.120919 6.330297 
L 460.8 6.330297 
L 460.8 6.330297 
" style="fill:none;stroke:#bf00bf;stroke-linecap:square;stroke-width:1.5;"/>
   </g>
   <g id="line2d_24">
    <path clip-path="url(#pf0df798d2a)" d="M 194.267792 293.76 
L 194.334943 278.430416 
L 194.502355 278.430416 
L 194.561003 270.765624 
L 194.651926 270.765624 
L 194.740695 255.43604 
L 194.770109 255.43604 
L 194.7843 247.771248 
L 194.952422 247.771248 
L 195.036036 240.106455 
L 195.142039 240.106455 
L 195.142039 236.274059 
L 235.643821 236.274059 
L 235.643821 232.441663 
L 236.539573 232.441663 
L 236.539573 228.609267 
L 238.506782 228.609267 
L 238.506782 224.776871 
L 240.845863 224.776871 
L 240.845863 220.944475 
L 241.534208 220.944475 
L 241.534208 217.112079 
L 244.477827 217.112079 
L 244.477827 213.279683 
L 244.667413 213.279683 
L 244.667413 209.447287 
L 244.958645 209.447287 
L 244.958645 205.614891 
L 246.18474 205.614891 
L 246.220407 197.950099 
L 249.477759 197.950099 
L 249.477759 194.117703 
L 249.790032 194.117703 
L 249.790032 190.285307 
L 250.187388 190.285307 
L 250.187388 186.452911 
L 252.080736 186.452911 
L 252.164828 178.788119 
L 253.16044 178.788119 
L 253.16044 174.955723 
L 253.710733 174.955723 
L 253.710733 171.123327 
L 254.748026 171.123327 
L 254.802018 163.458535 
L 255.068943 163.458535 
L 255.068943 159.626139 
L 256.040277 159.626139 
L 256.040277 155.793743 
L 256.288341 155.793743 
L 256.288341 151.961347 
L 258.853824 151.961347 
L 258.853824 148.12895 
L 261.174737 148.12895 
L 261.174737 144.296554 
L 261.41177 144.296554 
L 261.41177 140.464158 
L 262.461322 140.464158 
L 262.461322 136.631762 
L 262.63202 136.631762 
L 262.63202 132.799366 
L 263.854578 132.799366 
L 263.854578 128.96697 
L 264.057006 128.96697 
L 264.057006 125.134574 
L 264.836587 125.134574 
L 264.854979 117.469782 
L 265.047942 117.469782 
L 265.047942 113.637386 
L 265.434297 113.637386 
L 265.475809 105.972594 
L 265.815448 105.972594 
L 265.815448 102.140198 
L 265.967396 102.140198 
L 265.967396 98.307802 
L 266.499549 98.307802 
L 266.499549 94.475406 
L 267.358014 94.475406 
L 267.358014 90.64301 
L 267.484053 90.64301 
L 267.484053 86.810614 
L 268.486811 86.810614 
L 268.486811 82.978218 
L 268.688827 82.978218 
L 268.74884 75.313426 
L 269.154873 75.313426 
L 269.154873 71.48103 
L 269.371568 71.48103 
L 269.371568 67.648634 
L 269.547487 67.648634 
L 269.614483 59.983842 
L 269.810346 59.983842 
L 269.810346 56.151446 
L 270.185237 56.151446 
L 270.238357 48.486653 
L 270.310916 48.486653 
L 270.310916 44.654257 
L 270.708842 44.654257 
L 270.708842 40.821861 
L 270.933064 40.821861 
L 270.933064 36.989465 
L 271.51197 36.989465 
L 271.51197 33.157069 
L 271.686536 33.157069 
L 271.686536 29.324673 
L 271.970697 29.324673 
L 271.970697 25.492277 
L 272.938091 25.492277 
L 272.938091 21.659881 
L 273.360384 21.659881 
L 273.360384 17.827485 
L 275.98415 17.827485 
L 275.98415 13.995089 
L 280.995858 13.995089 
L 280.995858 10.162693 
L 282.117335 10.162693 
L 282.117335 6.330297 
L 282.117335 6.330297 
L 460.8 6.330297 
L 460.8 6.330297 
" style="fill:none;stroke:#000000;stroke-linecap:square;stroke-width:1.5;"/>
   </g>
   <g id="line2d_25">
    <path clip-path="url(#pf0df798d2a)" d="M 170.785207 293.76 
L 170.785207 289.927604 
L 172.572937 289.927604 
L 172.572937 286.095208 
L 173.457155 286.095208 
L 173.457155 282.262812 
L 175.223832 282.262812 
L 175.223832 278.430416 
L 181.764276 278.430416 
L 181.855143 270.765624 
L 184.29565 270.765624 
L 184.29565 266.933228 
L 184.414059 266.933228 
L 184.414059 263.100832 
L 185.500461 263.100832 
L 185.500461 259.268436 
L 185.776112 259.268436 
L 185.776112 255.43604 
L 185.976261 255.43604 
L 185.976261 251.603644 
L 187.43519 251.603644 
L 187.43519 247.771248 
L 187.938563 247.771248 
L 187.938563 243.938851 
L 188.479611 243.938851 
L 188.479611 240.106455 
L 189.540732 240.106455 
L 189.540732 236.274059 
L 229.832532 236.274059 
L 229.832532 232.441663 
L 234.184332 232.441663 
L 234.184332 228.609267 
L 236.3225 228.609267 
L 236.3225 224.776871 
L 239.03055 224.776871 
L 239.03055 220.944475 
L 240.890294 220.944475 
L 240.890294 217.112079 
L 241.042223 217.112079 
L 241.055866 209.447287 
L 242.027387 209.447287 
L 242.027387 205.614891 
L 242.20813 205.614891 
L 242.20813 201.782495 
L 242.599243 201.782495 
L 242.599243 197.950099 
L 243.126381 197.950099 
L 243.126381 194.117703 
L 246.870323 194.117703 
L 246.870323 190.285307 
L 247.525898 190.285307 
L 247.525898 186.452911 
L 248.246937 186.452911 
L 248.246937 182.620515 
L 248.68401 182.620515 
L 248.68401 178.788119 
L 249.536191 178.788119 
L 249.536191 174.955723 
L 250.432595 174.955723 
L 250.432595 171.123327 
L 251.574869 171.123327 
L 251.574869 167.290931 
L 253.597973 167.290931 
L 253.597973 163.458535 
L 254.593941 163.458535 
L 254.70376 155.793743 
L 254.9952 155.793743 
L 254.9952 151.961347 
L 255.212872 151.961347 
L 255.212872 148.12895 
L 257.26842 148.12895 
L 257.26842 144.296554 
L 257.75309 144.296554 
L 257.75309 140.464158 
L 258.12306 140.464158 
L 258.12306 136.631762 
L 258.932315 136.631762 
L 258.932315 132.799366 
L 259.133554 132.799366 
L 259.133554 128.96697 
L 259.64293 128.96697 
L 259.64293 125.134574 
L 260.030653 125.134574 
L 260.030653 121.302178 
L 260.155899 121.302178 
L 260.155899 117.469782 
L 262.364302 117.469782 
L 262.364302 113.637386 
L 262.606143 113.637386 
L 262.606143 109.80499 
L 262.763535 109.80499 
L 262.763535 105.972594 
L 263.062188 105.972594 
L 263.062188 102.140198 
L 264.354715 102.140198 
L 264.354715 98.307802 
L 265.018372 98.307802 
L 265.018372 94.475406 
L 265.390536 94.475406 
L 265.418114 86.810614 
L 265.897363 86.810614 
L 265.897363 82.978218 
L 266.31379 82.978218 
L 266.31379 79.145822 
L 266.5789 79.145822 
L 266.5789 75.313426 
L 267.11518 75.313426 
L 267.11518 71.48103 
L 267.458733 71.48103 
L 267.458733 67.648634 
L 267.725375 67.648634 
L 267.725375 63.816238 
L 268.345423 63.816238 
L 268.345423 59.983842 
L 268.476928 59.983842 
L 268.476928 56.151446 
L 268.787573 56.151446 
L 268.787573 52.31905 
L 269.113582 52.31905 
L 269.17044 40.821861 
L 269.777821 40.821861 
L 269.777821 36.989465 
L 270.582758 36.989465 
L 270.582758 33.157069 
L 270.911221 33.157069 
L 270.911221 29.324673 
L 271.878497 29.324673 
L 271.975648 21.659881 
L 273.271994 21.659881 
L 273.271994 17.827485 
L 275.977583 17.827485 
L 275.977583 13.995089 
L 279.899995 13.995089 
L 279.899995 10.162693 
L 281.99838 10.162693 
L 281.99838 6.330297 
L 281.99838 6.330297 
L 460.8 6.330297 
L 460.8 6.330297 
" style="fill:none;stroke:#00bfbf;stroke-linecap:square;stroke-width:1.5;"/>
   </g>
   <g id="line2d_26">
    <path clip-path="url(#pf0df798d2a)" d="M 164.467997 293.76 
L 164.486188 236.274059 
L 224.965908 236.274059 
L 224.965908 232.441663 
L 227.385471 232.441663 
L 227.385471 228.609267 
L 227.771716 228.609267 
L 227.771716 224.776871 
L 228.991805 224.776871 
L 228.991805 220.944475 
L 230.04008 220.944475 
L 230.04008 217.112079 
L 234.012458 217.112079 
L 234.012458 213.279683 
L 235.135618 213.279683 
L 235.135618 209.447287 
L 236.260623 209.447287 
L 236.260623 205.614891 
L 237.221207 205.614891 
L 237.278398 194.117703 
L 240.310484 194.117703 
L 240.310484 190.285307 
L 242.632664 190.285307 
L 242.646623 182.620515 
L 242.950335 182.620515 
L 242.950335 178.788119 
L 243.676438 178.788119 
L 243.676438 174.955723 
L 245.466655 174.955723 
L 245.466655 171.123327 
L 246.148195 171.123327 
L 246.148195 167.290931 
L 247.503318 167.290931 
L 247.503318 163.458535 
L 248.859367 163.458535 
L 248.859367 159.626139 
L 250.502849 159.626139 
L 250.502849 155.793743 
L 253.433611 155.793743 
L 253.433611 151.961347 
L 254.066219 151.961347 
L 254.135111 144.296554 
L 254.592314 144.296554 
L 254.675207 136.631762 
L 254.971264 136.631762 
L 254.971264 132.799366 
L 255.092378 132.799366 
L 255.092378 128.96697 
L 255.97416 128.96697 
L 255.97416 125.134574 
L 256.097179 125.134574 
L 256.097179 121.302178 
L 256.274377 121.302178 
L 256.274377 117.469782 
L 257.153637 117.469782 
L 257.153637 113.637386 
L 258.837778 113.637386 
L 258.837778 109.80499 
L 259.163538 109.80499 
L 259.163538 105.972594 
L 259.371405 105.972594 
L 259.371405 102.140198 
L 262.57913 102.140198 
L 262.57913 98.307802 
L 263.770551 98.307802 
L 263.814111 90.64301 
L 264.195114 90.64301 
L 264.195114 86.810614 
L 265.008475 86.810614 
L 265.008475 82.978218 
L 265.379582 82.978218 
L 265.451873 71.48103 
L 265.801988 71.48103 
L 265.881114 63.816238 
L 266.483257 63.816238 
L 266.483257 59.983842 
L 267.263057 59.983842 
L 267.263057 56.151446 
L 267.423941 56.151446 
L 267.423941 52.31905 
L 268.310986 52.31905 
L 268.310986 48.486653 
L 268.908274 48.486653 
L 268.908274 44.654257 
L 269.106082 44.654257 
L 269.180872 33.157069 
L 269.861331 33.157069 
L 269.890517 25.492277 
L 270.890989 25.492277 
L 270.890989 21.659881 
L 273.251304 21.659881 
L 273.251304 17.827485 
L 275.405918 17.827485 
L 275.405918 13.995089 
L 275.972946 13.995089 
L 275.972946 10.162693 
L 280.961482 10.162693 
L 280.961482 6.330297 
L 280.961482 6.330297 
L 460.8 6.330297 
L 460.8 6.330297 
" style="fill:none;stroke:#bf00bf;stroke-linecap:square;stroke-width:1.5;"/>
   </g>
   <g id="patch_3">
    <path d="M 0 293.76 
L 0 3.456 
" style="fill:none;stroke:#000000;stroke-linecap:square;stroke-linejoin:miter;stroke-width:0.8;"/>
   </g>
   <g id="patch_4">
    <path d="M 460.8 293.76 
L 460.8 3.456 
" style="fill:none;stroke:#000000;stroke-linecap:square;stroke-linejoin:miter;stroke-width:0.8;"/>
   </g>
   <g id="patch_5">
    <path d="M 0 293.76 
L 460.8 293.76 
" style="fill:none;stroke:#000000;stroke-linecap:square;stroke-linejoin:miter;stroke-width:0.8;"/>
   </g>
   <g id="patch_6">
    <path d="M 0 3.456 
L 460.8 3.456 
" style="fill:none;stroke:#000000;stroke-linecap:square;stroke-linejoin:miter;stroke-width:0.8;"/>
   </g>
   <g id="text_6">
    <!-- {f15-f19}, 5-D -->
    <g transform="translate(305.884 287.95392)scale(0.2 -0.2)">
     <defs>
      <path d="M 51.125 -9.28125 
L 51.125 -16.3125 
L 48.09375 -16.3125 
Q 35.9375 -16.3125 31.8125 -12.6875 
Q 27.6875 -9.078125 27.6875 1.703125 
L 27.6875 13.375 
Q 27.6875 20.75 25.046875 23.578125 
Q 22.40625 26.421875 15.484375 26.421875 
L 12.5 26.421875 
L 12.5 33.40625 
L 15.484375 33.40625 
Q 22.46875 33.40625 25.078125 36.203125 
Q 27.6875 39.015625 27.6875 46.296875 
L 27.6875 58.015625 
Q 27.6875 68.796875 31.8125 72.390625 
Q 35.9375 75.984375 48.09375 75.984375 
L 51.125 75.984375 
L 51.125 69 
L 47.796875 69 
Q 40.921875 69 38.8125 66.84375 
Q 36.71875 64.703125 36.71875 57.8125 
L 36.71875 45.703125 
Q 36.71875 38.03125 34.5 34.5625 
Q 32.28125 31.109375 26.90625 29.890625 
Q 32.328125 28.5625 34.515625 25.09375 
Q 36.71875 21.625 36.71875 14.015625 
L 36.71875 1.90625 
Q 36.71875 -4.984375 38.8125 -7.125 
Q 40.921875 -9.28125 47.796875 -9.28125 
z
" id="DejaVuSans-123"/>
      <path d="M 10.796875 72.90625 
L 49.515625 72.90625 
L 49.515625 64.59375 
L 19.828125 64.59375 
L 19.828125 46.734375 
Q 21.96875 47.46875 24.109375 47.828125 
Q 26.265625 48.1875 28.421875 48.1875 
Q 40.625 48.1875 47.75 41.5 
Q 54.890625 34.8125 54.890625 23.390625 
Q 54.890625 11.625 47.5625 5.09375 
Q 40.234375 -1.421875 26.90625 -1.421875 
Q 22.3125 -1.421875 17.546875 -0.640625 
Q 12.796875 0.140625 7.71875 1.703125 
L 7.71875 11.625 
Q 12.109375 9.234375 16.796875 8.0625 
Q 21.484375 6.890625 26.703125 6.890625 
Q 35.15625 6.890625 40.078125 11.328125 
Q 45.015625 15.765625 45.015625 23.390625 
Q 45.015625 31 40.078125 35.4375 
Q 35.15625 39.890625 26.703125 39.890625 
Q 22.75 39.890625 18.8125 39.015625 
Q 14.890625 38.140625 10.796875 36.28125 
z
" id="DejaVuSans-53"/>
      <path d="M 10.984375 1.515625 
L 10.984375 10.5 
Q 14.703125 8.734375 18.5 7.8125 
Q 22.3125 6.890625 25.984375 6.890625 
Q 35.75 6.890625 40.890625 13.453125 
Q 46.046875 20.015625 46.78125 33.40625 
Q 43.953125 29.203125 39.59375 26.953125 
Q 35.25 24.703125 29.984375 24.703125 
Q 19.046875 24.703125 12.671875 31.3125 
Q 6.296875 37.9375 6.296875 49.421875 
Q 6.296875 60.640625 12.9375 67.421875 
Q 19.578125 74.21875 30.609375 74.21875 
Q 43.265625 74.21875 49.921875 64.515625 
Q 56.59375 54.828125 56.59375 36.375 
Q 56.59375 19.140625 48.40625 8.859375 
Q 40.234375 -1.421875 26.421875 -1.421875 
Q 22.703125 -1.421875 18.890625 -0.6875 
Q 15.09375 0.046875 10.984375 1.515625 
z
M 30.609375 32.421875 
Q 37.25 32.421875 41.125 36.953125 
Q 45.015625 41.5 45.015625 49.421875 
Q 45.015625 57.28125 41.125 61.84375 
Q 37.25 66.40625 30.609375 66.40625 
Q 23.96875 66.40625 20.09375 61.84375 
Q 16.21875 57.28125 16.21875 49.421875 
Q 16.21875 41.5 20.09375 36.953125 
Q 23.96875 32.421875 30.609375 32.421875 
z
" id="DejaVuSans-57"/>
      <path d="M 12.5 -9.28125 
L 15.921875 -9.28125 
Q 22.75 -9.28125 24.828125 -7.171875 
Q 26.90625 -5.078125 26.90625 1.90625 
L 26.90625 14.015625 
Q 26.90625 21.625 29.09375 25.09375 
Q 31.296875 28.5625 36.71875 29.890625 
Q 31.296875 31.109375 29.09375 34.5625 
Q 26.90625 38.03125 26.90625 45.703125 
L 26.90625 57.8125 
Q 26.90625 64.75 24.828125 66.875 
Q 22.75 69 15.921875 69 
L 12.5 69 
L 12.5 75.984375 
L 15.578125 75.984375 
Q 27.734375 75.984375 31.8125 72.390625 
Q 35.890625 68.796875 35.890625 58.015625 
L 35.890625 46.296875 
Q 35.890625 39.015625 38.515625 36.203125 
Q 41.15625 33.40625 48.09375 33.40625 
L 51.125 33.40625 
L 51.125 26.421875 
L 48.09375 26.421875 
Q 41.15625 26.421875 38.515625 23.578125 
Q 35.890625 20.75 35.890625 13.375 
L 35.890625 1.703125 
Q 35.890625 -9.078125 31.8125 -12.6875 
Q 27.734375 -16.3125 15.578125 -16.3125 
L 12.5 -16.3125 
z
" id="DejaVuSans-125"/>
      <path d="M 11.71875 12.40625 
L 22.015625 12.40625 
L 22.015625 4 
L 14.015625 -11.625 
L 7.71875 -11.625 
L 11.71875 4 
z
" id="DejaVuSans-44"/>
     </defs>
     <use xlink:href="#DejaVuSans-123"/>
     <use x="63.623047" xlink:href="#DejaVuSans-102"/>
     <use x="98.828125" xlink:href="#DejaVuSans-49"/>
     <use x="162.451172" xlink:href="#DejaVuSans-53"/>
     <use x="226.074219" xlink:href="#DejaVuSans-45"/>
     <use x="262.158203" xlink:href="#DejaVuSans-102"/>
     <use x="297.363281" xlink:href="#DejaVuSans-49"/>
     <use x="360.986328" xlink:href="#DejaVuSans-57"/>
     <use x="424.609375" xlink:href="#DejaVuSans-125"/>
     <use x="488.232422" xlink:href="#DejaVuSans-44"/>
     <use x="520.019531" xlink:href="#DejaVuSans-32"/>
     <use x="551.806641" xlink:href="#DejaVuSans-53"/>
     <use x="615.429688" xlink:href="#DejaVuSans-45"/>
     <use x="651.513672" xlink:href="#DejaVuSans-68"/>
    </g>
   </g>
   <g id="text_7">
    <!-- v2.4 -->
    <g style="fill:#808080;" transform="translate(219.489063 288.777272)scale(0.1 -0.1)">
     <defs>
      <path d="M 2.984375 54.6875 
L 12.5 54.6875 
L 29.59375 8.796875 
L 46.6875 54.6875 
L 56.203125 54.6875 
L 35.6875 0 
L 23.484375 0 
z
" id="DejaVuSans-118"/>
      <path d="M 19.1875 8.296875 
L 53.609375 8.296875 
L 53.609375 0 
L 7.328125 0 
L 7.328125 8.296875 
Q 12.9375 14.109375 22.625 23.890625 
Q 32.328125 33.6875 34.8125 36.53125 
Q 39.546875 41.84375 41.421875 45.53125 
Q 43.3125 49.21875 43.3125 52.78125 
Q 43.3125 58.59375 39.234375 62.25 
Q 35.15625 65.921875 28.609375 65.921875 
Q 23.96875 65.921875 18.8125 64.3125 
Q 13.671875 62.703125 7.8125 59.421875 
L 7.8125 69.390625 
Q 13.765625 71.78125 18.9375 73 
Q 24.125 74.21875 28.421875 74.21875 
Q 39.75 74.21875 46.484375 68.546875 
Q 53.21875 62.890625 53.21875 53.421875 
Q 53.21875 48.921875 51.53125 44.890625 
Q 49.859375 40.875 45.40625 35.40625 
Q 44.1875 33.984375 37.640625 27.21875 
Q 31.109375 20.453125 19.1875 8.296875 
z
" id="DejaVuSans-50"/>
      <path d="M 10.6875 12.40625 
L 21 12.40625 
L 21 0 
L 10.6875 0 
z
" id="DejaVuSans-46"/>
     </defs>
     <use xlink:href="#DejaVuSans-118"/>
     <use x="59.179688" xlink:href="#DejaVuSans-50"/>
     <use x="122.802734" xlink:href="#DejaVuSans-46"/>
     <use x="154.589844" xlink:href="#DejaVuSans-52"/>
    </g>
   </g>
  </g>
 </g>
 <defs>
  <clipPath id="pf0df798d2a">
   <rect height="290.304" width="460.8" x="0" y="3.456"/>
  </clipPath>
 </defs>
</svg>
