<?xml version="1.0" encoding="utf-8" standalone="no"?>
<!DOCTYPE svg PUBLIC "-//W3C//DTD SVG 1.1//EN"
  "http://www.w3.org/Graphics/SVG/1.1/DTD/svg11.dtd">
<!-- Created with matplotlib (https://matplotlib.org/) -->
<svg height="345.6pt" version="1.1" viewBox="0 0 460.8 345.6" width="460.8pt" xmlns="http://www.w3.org/2000/svg" xmlns:xlink="http://www.w3.org/1999/xlink">
 <metadata>
  <rdf:RDF xmlns:cc="http://creativecommons.org/ns#" xmlns:dc="http://purl.org/dc/elements/1.1/" xmlns:rdf="http://www.w3.org/1999/02/22-rdf-syntax-ns#">
   <cc:Work>
    <dc:type rdf:resource="http://purl.org/dc/dcmitype/StillImage"/>
    <dc:date>2021-08-04T15:01:50.206194</dc:date>
    <dc:format>image/svg+xml</dc:format>
    <dc:creator>
     <cc:Agent>
      <dc:title>Matplotlib v3.3.1, https://matplotlib.org/</dc:title>
     </cc:Agent>
    </dc:creator>
   </cc:Work>
  </rdf:RDF>
 </metadata>
 <defs>
  <style type="text/css">*{stroke-linecap:butt;stroke-linejoin:round;}</style>
 </defs>
 <g id="figure_1">
  <g id="patch_1">
   <path d="M 0 345.6 
L 460.8 345.6 
L 460.8 0 
L 0 0 
z
" style="fill:#ffffff;"/>
  </g>
  <g id="axes_1">
   <g id="patch_2">
    <path d="M 62.208 293.76 
L 460.8 293.76 
L 460.8 3.456 
L 62.208 3.456 
z
" style="fill:#ffffff;"/>
   </g>
   <g id="line2d_1">
    <path clip-path="url(#p33912fea18)" d="M 276.001213 293.76 
L 276.001213 281.783762 
L 284.690829 281.783762 
L 284.690829 280.985347 
L 288.686088 280.985347 
L 288.686088 279.388515 
L 292.479818 279.388515 
L 292.479818 276.194851 
L 296.091378 276.194851 
L 296.091378 273.799604 
L 299.537463 273.799604 
L 299.537463 270.605941 
L 302.832575 270.605941 
L 302.832575 269.807525 
L 457.494504 269.807525 
L 457.494504 269.009109 
L 461.8 269.009109 
L 461.8 269.009109 
" style="fill:none;stroke:#f5deb3;stroke-linecap:square;stroke-width:1.5;"/>
   </g>
   <g id="line2d_2">
    <path clip-path="url(#p33912fea18)" style="fill:none;stroke:#f5deb3;stroke-linecap:square;stroke-width:1.5;"/>
   </g>
   <g id="line2d_3">
    <path clip-path="url(#p33912fea18)" d="M 246.911777 293.76 
L 246.911777 290.566337 
L 247.233946 290.566337 
L 247.233946 289.767921 
L 247.554742 289.767921 
L 247.554742 282.582178 
L 247.874175 282.582178 
L 247.874175 281.783762 
L 248.192257 281.783762 
L 248.192257 280.985347 
L 248.824415 280.985347 
L 248.824415 280.186931 
L 251.907895 280.186931 
L 251.907895 279.388515 
L 253.106747 279.388515 
L 253.106747 278.590099 
L 255.448613 278.590099 
L 255.448613 276.993267 
L 256.308352 276.993267 
L 256.308352 276.194851 
L 256.592762 276.194851 
L 256.592762 275.396436 
L 256.876101 275.396436 
L 256.876101 274.59802 
L 258.277005 274.59802 
L 258.277005 273.799604 
L 258.554082 273.799604 
L 258.554082 273.001188 
L 259.379243 273.001188 
L 259.379243 272.202772 
L 261.801768 272.202772 
L 261.801768 271.404356 
L 265.924793 271.404356 
L 265.924793 270.605941 
L 269.11595 270.605941 
L 269.11595 269.807525 
L 406.656486 269.807525 
L 406.656486 269.009109 
L 458.702829 269.009109 
L 458.702829 268.210693 
L 461.8 268.210693 
L 461.8 268.210693 
" style="fill:none;stroke:#f5deb3;stroke-linecap:square;stroke-width:1.5;"/>
   </g>
   <g id="line2d_4">
    <path clip-path="url(#p33912fea18)" d="M 192.474165 293.76 
L 192.474165 292.961584 
L 193.79396 292.961584 
L 193.79396 292.163168 
L 195.731227 292.163168 
L 195.731227 291.364752 
L 198.239005 291.364752 
L 198.239005 290.566337 
L 200.665872 290.566337 
L 200.665872 289.767921 
L 209.127183 289.767921 
L 209.127183 288.171089 
L 209.65882 288.171089 
L 209.65882 287.372673 
L 213.278657 287.372673 
L 213.278657 285.775842 
L 217.690588 285.775842 
L 217.690588 284.977426 
L 222.7536 284.977426 
L 222.7536 284.17901 
L 223.638626 284.17901 
L 223.638626 283.380594 
L 225.378042 283.380594 
L 225.378042 282.582178 
L 255.448613 282.582178 
L 255.448613 281.783762 
L 392.133539 281.783762 
L 392.133539 280.985347 
L 395.522275 280.985347 
L 395.522275 280.186931 
L 396.013223 280.186931 
L 396.013223 279.388515 
L 396.589334 279.388515 
L 396.589334 278.590099 
L 397.423483 278.590099 
L 397.423483 277.791683 
L 399.36297 277.791683 
L 399.36297 276.993267 
L 399.617831 276.993267 
L 399.617831 276.194851 
L 399.744939 276.194851 
L 399.744939 275.396436 
L 399.871831 275.396436 
L 399.871831 274.59802 
L 400.335283 274.59802 
L 400.335283 273.799604 
L 400.586876 273.799604 
L 400.670554 272.202772 
L 402.569894 272.202772 
L 402.569894 271.404356 
L 402.895374 271.404356 
L 402.895374 270.605941 
L 403.259863 270.605941 
L 403.259863 269.807525 
L 461.8 269.807525 
L 461.8 269.807525 
" style="fill:none;stroke:#f5deb3;stroke-linecap:square;stroke-width:1.5;"/>
   </g>
   <g id="line2d_5">
    <path clip-path="url(#p33912fea18)" style="fill:none;stroke:#f5deb3;stroke-linecap:square;stroke-width:1.5;"/>
   </g>
   <g id="line2d_6"/>
   <g id="line2d_7">
    <path clip-path="url(#p33912fea18)" d="M 245.279905 293.76 
L 245.279905 292.961584 
L 260.73471 292.961584 
L 260.73471 292.163168 
L 262.066185 292.163168 
L 262.066185 291.364752 
L 263.114653 291.364752 
L 263.114653 290.566337 
L 263.374502 290.566337 
L 263.374502 289.767921 
L 264.148709 289.767921 
L 264.148709 288.969505 
L 265.421605 288.969505 
L 265.421605 287.372673 
L 265.924793 287.372673 
L 265.924793 286.574257 
L 272.637328 286.574257 
L 272.637328 285.775842 
L 274.896548 285.775842 
L 274.896548 284.977426 
L 276.873413 284.977426 
L 276.873413 284.17901 
L 278.799656 284.17901 
L 278.799656 283.380594 
L 289.423608 283.380594 
L 289.423608 281.783762 
L 417.163554 281.783762 
L 417.163554 280.985347 
L 429.807886 280.985347 
L 429.807886 280.186931 
L 430.738883 280.186931 
L 430.738883 279.388515 
L 432.621717 279.388515 
L 432.621717 278.590099 
L 433.085153 278.590099 
L 433.085153 277.791683 
L 433.302257 277.791683 
L 433.302257 276.993267 
L 433.653719 276.993267 
L 433.653719 276.194851 
L 433.84229 276.194851 
L 433.84229 275.396436 
L 434.325028 275.396436 
L 434.351756 273.799604 
L 435.465849 273.799604 
L 435.465849 273.001188 
L 436.199515 273.001188 
L 436.199515 272.202772 
L 436.900266 272.202772 
L 436.900266 271.404356 
L 438.737636 271.404356 
L 438.737636 270.605941 
L 439.415243 270.605941 
L 439.415243 269.807525 
L 439.764206 269.807525 
L 439.764206 269.009109 
L 461.8 269.009109 
L 461.8 269.009109 
" style="fill:none;stroke:#f5deb3;stroke-linecap:square;stroke-width:1.5;"/>
   </g>
   <g id="line2d_8">
    <path clip-path="url(#p33912fea18)" d="M 0 0 
" style="fill:none;stroke:#f5deb3;stroke-linecap:square;stroke-width:1.5;"/>
   </g>
   <g id="line2d_9">
    <path clip-path="url(#p33912fea18)" d="M 237.646725 293.76 
L 237.646725 292.961584 
L 240.16049 292.961584 
L 240.16049 292.163168 
L 244.949239 292.163168 
L 244.949239 291.364752 
L 246.26327 291.364752 
L 246.26327 290.566337 
L 246.588222 290.566337 
L 246.588222 289.767921 
L 247.554742 289.767921 
L 247.554742 288.969505 
L 249.451305 288.969505 
L 249.451305 288.171089 
L 249.762802 288.171089 
L 249.762802 287.372673 
L 251.605173 287.372673 
L 251.605173 286.574257 
L 257.439597 286.574257 
L 257.439597 285.775842 
L 258.830143 285.775842 
L 258.830143 284.977426 
L 264.148709 284.977426 
L 264.148709 284.17901 
L 265.924793 284.17901 
L 265.924793 283.380594 
L 269.11595 283.380594 
L 269.11595 282.582178 
L 271.714293 282.582178 
L 271.714293 281.783762 
L 416.82697 281.783762 
L 416.82697 280.985347 
L 419.250089 280.985347 
L 419.250089 280.186931 
L 425.062572 280.186931 
L 425.062572 279.388515 
L 429.008813 279.388515 
L 429.008813 278.590099 
L 429.494976 278.590099 
L 429.494976 277.791683 
L 430.204262 277.791683 
L 430.204262 276.993267 
L 430.514242 276.993267 
L 430.514242 276.194851 
L 431.769206 276.194851 
L 431.852131 274.59802 
L 432.567007 274.59802 
L 432.567007 273.799604 
L 433.139488 273.799604 
L 433.139488 273.001188 
L 433.896081 273.001188 
L 433.896081 272.202772 
L 434.271543 272.202772 
L 434.271543 271.404356 
L 434.910865 271.404356 
L 434.910865 270.605941 
L 435.885962 270.605941 
L 435.990625 269.009109 
L 440.629597 269.009109 
L 440.629597 268.210693 
L 461.8 268.210693 
L 461.8 268.210693 
" style="fill:none;stroke:#f5deb3;stroke-linecap:square;stroke-width:1.5;"/>
   </g>
   <g id="line2d_10">
    <path clip-path="url(#p33912fea18)" d="M 294.735911 293.76 
L 294.735911 292.961584 
L 297.092187 292.961584 
L 297.092187 292.163168 
L 307.447311 292.163168 
L 307.447311 290.566337 
L 313.011871 290.566337 
L 313.011871 289.767921 
L 321.738048 289.767921 
L 321.738048 288.969505 
L 327.70424 288.969505 
L 327.70424 288.171089 
L 461.8 288.171089 
L 461.8 288.171089 
" style="fill:none;stroke:#f5deb3;stroke-linecap:square;stroke-width:1.5;"/>
   </g>
   <g id="line2d_11">
    <path clip-path="url(#p33912fea18)" d="M 180.209285 293.76 
L 180.209285 292.961584 
L 191.805482 292.961584 
L 191.805482 292.163168 
L 193.79396 292.163168 
L 193.79396 291.364752 
L 195.090998 291.364752 
L 195.090998 290.566337 
L 196.995565 290.566337 
L 196.995565 289.767921 
L 198.853101 289.767921 
L 198.853101 288.969505 
L 203.593338 288.969505 
L 203.593338 288.171089 
L 208.591762 288.171089 
L 208.591762 287.372673 
L 209.127183 287.372673 
L 209.127183 286.574257 
L 212.262069 286.574257 
L 212.262069 285.775842 
L 218.636844 285.775842 
L 218.636844 284.977426 
L 225.378042 284.977426 
L 225.378042 284.17901 
L 225.806683 284.17901 
L 225.806683 283.380594 
L 238.734355 283.380594 
L 238.734355 282.582178 
L 249.762802 282.582178 
L 249.762802 281.783762 
L 378.903724 281.783762 
L 378.903724 280.985347 
L 379.957409 280.985347 
L 379.957409 280.186931 
L 381.699342 280.186931 
L 381.699342 279.388515 
L 381.8606 279.388515 
L 381.8606 278.590099 
L 383.769193 278.590099 
L 383.769193 277.791683 
L 384.186829 277.791683 
L 384.186829 276.993267 
L 385.73263 276.993267 
L 385.73263 276.194851 
L 386.443276 276.194851 
L 386.443276 275.396436 
L 386.594688 275.396436 
L 386.594688 274.59802 
L 388.092276 274.59802 
L 388.092276 273.799604 
L 388.634007 273.799604 
L 388.634007 273.001188 
L 389.025557 273.001188 
L 389.025557 272.202772 
L 390.091928 272.202772 
L 390.091928 271.404356 
L 391.380328 271.404356 
L 391.380328 270.605941 
L 392.69354 270.605941 
L 392.69354 269.807525 
L 461.8 269.807525 
L 461.8 269.807525 
" style="fill:none;stroke:#f5deb3;stroke-linecap:square;stroke-width:1.5;"/>
   </g>
   <g id="line2d_12">
    <path clip-path="url(#p33912fea18)" d="M 119.791369 293.76 
L 119.791369 281.783762 
L 171.054466 281.783762 
L 171.054466 280.985347 
L 187.663534 280.985347 
L 187.663534 273.799604 
L 201.26055 273.799604 
L 201.26055 270.605941 
L 222.7536 270.605941 
L 222.7536 269.807525 
L 461.8 269.807525 
L 461.8 269.807525 
" style="fill:none;stroke:#f5deb3;stroke-linecap:square;stroke-width:1.5;"/>
   </g>
   <g id="line2d_13">
    <path clip-path="url(#p33912fea18)" d="M 403.098086 293.76 
L 403.098086 292.961584 
L 403.098086 292.961584 
L 403.098086 292.163168 
L 404.303019 292.163168 
L 404.303019 291.364752 
L 404.303019 291.364752 
L 404.303019 290.566337 
L 406.113893 290.566337 
L 406.113893 289.767921 
L 406.308126 289.767921 
L 406.308126 288.969505 
L 406.308126 288.969505 
L 406.308126 288.171089 
L 406.308126 288.171089 
L 406.308126 287.372673 
L 407.348404 287.372673 
L 407.348404 286.574257 
L 410.422356 286.574257 
L 410.422356 285.775842 
L 410.422356 285.775842 
L 410.422356 284.977426 
L 410.422356 284.977426 
L 410.422356 284.17901 
L 410.569139 284.17901 
L 410.569139 283.380594 
L 410.569139 283.380594 
L 410.569139 282.582178 
L 410.569139 282.582178 
L 410.569139 281.783762 
L 410.569139 281.783762 
L 410.569139 281.783762 
L 460.8 281.783762 
" style="fill:none;stroke:#f5deb3;stroke-linecap:square;stroke-width:1.5;"/>
   </g>
   <g id="line2d_14">
    <path clip-path="url(#p33912fea18)" d="M 219.105546 293.76 
L 219.105546 292.961584 
L 221.406226 292.961584 
L 221.406226 292.163168 
L 222.7536 292.163168 
L 222.7536 291.364752 
L 224.513361 291.364752 
L 224.513361 290.566337 
L 224.946944 290.566337 
L 224.946944 288.969505 
L 225.378042 288.969505 
L 225.378042 288.171089 
L 225.806683 288.171089 
L 225.806683 287.372673 
L 226.656708 287.372673 
L 226.656708 284.17901 
L 227.078145 284.17901 
L 227.078145 283.380594 
L 227.497234 283.380594 
L 227.497234 281.783762 
L 333.334245 281.783762 
L 333.334245 280.985347 
L 334.854021 280.985347 
L 334.854021 280.186931 
L 337.028917 280.186931 
L 337.028917 279.388515 
L 337.804453 279.388515 
L 337.804453 278.590099 
L 338.47655 278.590099 
L 338.47655 277.791683 
L 342.02386 277.791683 
L 342.02386 276.993267 
L 342.296914 276.993267 
L 342.296914 276.194851 
L 342.478402 276.194851 
L 342.478402 275.396436 
L 343.200003 275.396436 
L 343.200003 274.59802 
L 344.26959 274.59802 
L 344.26959 273.799604 
L 344.534628 273.799604 
L 344.534628 273.001188 
L 344.710802 273.001188 
L 344.710802 272.202772 
L 346.536141 272.202772 
L 346.536141 271.404356 
L 347.049634 271.404356 
L 347.049634 270.605941 
L 347.390025 270.605941 
L 347.390025 269.807525 
L 360.522977 269.807525 
L 360.522977 269.009109 
L 365.020606 269.009109 
L 365.020606 268.210693 
L 365.556027 268.210693 
L 365.556027 267.412277 
L 367.725221 267.412277 
L 367.725221 266.613861 
L 368.306122 266.613861 
L 368.306122 265.815446 
L 369.010075 265.815446 
L 369.010075 265.01703 
L 370.210689 265.01703 
L 370.210689 264.218614 
L 371.515764 264.218614 
L 371.515764 263.420198 
L 372.068225 263.420198 
L 372.068225 262.621782 
L 375.065688 262.621782 
L 375.065688 261.823366 
L 375.825852 261.823366 
L 375.825852 261.02495 
L 384.39478 261.02495 
L 384.39478 260.226535 
L 387.943852 260.226535 
L 387.943852 259.428119 
L 393.249402 259.428119 
L 393.249402 258.629703 
L 437.901075 258.629703 
L 437.901075 257.831287 
L 461.8 257.831287 
L 461.8 257.831287 
" style="fill:none;stroke:#f5deb3;stroke-linecap:square;stroke-width:1.5;"/>
   </g>
   <g id="line2d_15"/>
   <g id="line2d_16">
    <path clip-path="url(#p33912fea18)" d="M 418.922733 293.76 
L 418.922733 292.961584 
L 419.543497 292.961584 
L 419.543497 292.163168 
L 420.961688 292.163168 
L 420.961688 291.364752 
L 421.597587 291.364752 
L 421.597587 290.566337 
L 427.208636 290.566337 
L 427.208636 289.767921 
L 431.962555 289.767921 
L 431.962555 288.969505 
L 434.990399 288.969505 
L 434.990399 288.171089 
L 437.312466 288.171089 
L 437.312466 287.372673 
L 438.434507 287.372673 
L 438.434507 286.574257 
L 438.813228 286.574257 
L 438.813228 285.775842 
L 440.235224 285.775842 
L 440.235224 284.977426 
L 440.776955 284.977426 
L 440.776955 284.17901 
L 445.645754 284.17901 
L 445.645754 283.380594 
L 447.125963 283.380594 
L 447.125963 282.582178 
L 461.8 282.582178 
L 461.8 282.582178 
" style="fill:none;stroke:#f5deb3;stroke-linecap:square;stroke-width:1.5;"/>
   </g>
   <g id="line2d_17">
    <path clip-path="url(#p33912fea18)" d="M 455.463388 293.76 
L 455.463388 292.961584 
L 461.8 292.961584 
L 461.8 292.961584 
" style="fill:none;stroke:#f5deb3;stroke-linecap:square;stroke-width:1.5;"/>
   </g>
   <g id="line2d_18">
    <path clip-path="url(#p33912fea18)" d="M 119.791369 293.76 
L 119.791369 287.372673 
L 121.520787 287.372673 
L 121.520787 282.582178 
L 124.864732 282.582178 
L 124.864732 281.783762 
L 126.482566 281.783762 
L 126.482566 280.186931 
L 131.137228 280.186931 
L 131.137228 279.388515 
L 132.626908 279.388515 
L 132.626908 278.590099 
L 135.520586 278.590099 
L 135.520586 277.791683 
L 143.588279 277.791683 
L 143.588279 276.993267 
L 144.852617 276.993267 
L 144.852617 275.396436 
L 148.522924 275.396436 
L 148.522924 274.59802 
L 163.618653 274.59802 
L 163.618653 273.799604 
L 164.589329 273.799604 
L 164.589329 272.202772 
L 170.164203 272.202772 
L 170.164203 271.404356 
L 171.934317 271.404356 
L 171.934317 270.605941 
L 174.51376 270.605941 
L 174.51376 269.807525 
L 358.499476 269.807525 
L 358.499476 269.009109 
L 417.297767 269.009109 
L 417.297767 268.210693 
L 434.378475 268.210693 
L 434.378475 267.412277 
L 434.671756 267.412277 
L 434.671756 266.613861 
L 435.807369 266.613861 
L 435.807369 265.815446 
L 436.225585 265.815446 
L 436.225585 265.01703 
L 441.241694 265.01703 
L 441.241694 264.218614 
L 441.412193 264.218614 
L 441.412193 263.420198 
L 441.582306 263.420198 
L 441.679341 261.823366 
L 442.475139 261.823366 
L 442.475139 261.02495 
L 443.072462 261.02495 
L 443.072462 260.226535 
L 443.310069 260.226535 
L 443.381205 258.629703 
L 443.73588 258.629703 
L 443.73588 257.831287 
L 444.323313 257.831287 
L 444.323313 257.032871 
L 444.60366 257.032871 
L 444.60366 256.234455 
L 446.673609 256.234455 
L 446.673609 255.43604 
L 447.306146 255.43604 
L 447.351125 253.839208 
L 447.463453 253.839208 
L 447.463453 253.040792 
L 449.084631 253.040792 
L 449.084631 252.242376 
L 453.188905 252.242376 
L 453.188905 251.44396 
L 453.707209 251.44396 
L 453.707209 250.645545 
L 459.050028 250.645545 
L 459.050028 249.847129 
L 461.8 249.847129 
L 461.8 249.847129 
" style="fill:none;stroke:#f5deb3;stroke-linecap:square;stroke-width:1.5;"/>
   </g>
   <g id="line2d_19">
    <path clip-path="url(#p33912fea18)" style="fill:none;stroke:#f5deb3;stroke-linecap:square;stroke-width:1.5;"/>
   </g>
   <g id="line2d_20">
    <path clip-path="url(#p33912fea18)" d="M 215.761601 293.76 
L 215.761601 292.961584 
L 225.378042 292.961584 
L 225.378042 292.163168 
L 226.232896 292.163168 
L 226.232896 291.364752 
L 231.959405 291.364752 
L 231.959405 290.566337 
L 242.934126 290.566337 
L 242.934126 289.767921 
L 247.233946 289.767921 
L 247.233946 288.969505 
L 249.138513 288.969505 
L 249.138513 288.171089 
L 250.073014 288.171089 
L 250.073014 287.372673 
L 258.554082 287.372673 
L 258.554082 286.574257 
L 262.066185 286.574257 
L 262.066185 285.775842 
L 264.405017 285.775842 
L 264.405017 284.977426 
L 267.904549 284.977426 
L 267.904549 284.17901 
L 271.248494 284.17901 
L 271.248494 283.380594 
L 276.438577 283.380594 
L 276.438577 282.582178 
L 289.239904 282.582178 
L 289.239904 281.783762 
L 390.953308 281.783762 
L 390.953308 280.985347 
L 392.69354 280.985347 
L 392.69354 280.186931 
L 395.968724 280.186931 
L 395.968724 279.388515 
L 396.721658 279.388515 
L 396.721658 278.590099 
L 401.74998 278.590099 
L 401.74998 277.791683 
L 404.858783 277.791683 
L 404.858783 276.194851 
L 405.253259 276.194851 
L 405.253259 274.59802 
L 405.449724 274.59802 
L 405.449724 273.799604 
L 406.036059 273.799604 
L 406.036059 273.001188 
L 410.05414 273.001188 
L 410.05414 272.202772 
L 410.898358 272.202772 
L 410.898358 271.404356 
L 413.127984 271.404356 
L 413.127984 270.605941 
L 423.966136 270.605941 
L 423.966136 269.807525 
L 433.572758 269.807525 
L 433.572758 269.009109 
L 446.081451 269.009109 
L 446.081451 268.210693 
L 461.8 268.210693 
L 461.8 268.210693 
" style="fill:none;stroke:#f5deb3;stroke-linecap:square;stroke-width:1.5;"/>
   </g>
   <g id="line2d_21">
    <path clip-path="url(#p33912fea18)" d="M 0 0 
" style="fill:none;stroke:#f5deb3;stroke-linecap:square;stroke-width:1.5;"/>
   </g>
   <g id="line2d_22">
    <path clip-path="url(#p33912fea18)" d="M 251.301227 293.76 
L 251.301227 292.961584 
L 256.876101 292.961584 
L 256.876101 292.163168 
L 264.405017 292.163168 
L 264.405017 291.364752 
L 268.875225 291.364752 
L 268.875225 290.566337 
L 274.225877 290.566337 
L 274.225877 289.767921 
L 279.221093 289.767921 
L 279.221093 288.969505 
L 279.43093 288.969505 
L 279.43093 288.171089 
L 280.471422 288.171089 
L 280.471422 287.372673 
L 282.308792 287.372673 
L 282.308792 286.574257 
L 282.91141 286.574257 
L 282.91141 285.775842 
L 288.314599 285.775842 
L 288.314599 284.977426 
L 288.686088 284.977426 
L 288.686088 284.17901 
L 289.97204 284.17901 
L 289.97204 283.380594 
L 296.426462 283.380594 
L 296.426462 282.582178 
L 321.498854 282.582178 
L 321.498854 281.783762 
L 397.204865 281.783762 
L 397.204865 280.985347 
L 410.642424 280.985347 
L 410.642424 279.388515 
L 411.84142 279.388515 
L 411.84142 278.590099 
L 412.986114 278.590099 
L 412.986114 277.791683 
L 414.148614 277.791683 
L 414.148614 276.993267 
L 418.692733 276.993267 
L 418.692733 276.194851 
L 419.086589 276.194851 
L 419.086589 275.396436 
L 419.510952 275.396436 
L 419.510952 274.59802 
L 420.609639 274.59802 
L 420.609639 273.799604 
L 423.040071 273.799604 
L 423.040071 273.001188 
L 428.893963 273.001188 
L 428.893963 272.202772 
L 429.437943 272.202772 
L 429.437943 271.404356 
L 432.84016 271.404356 
L 432.84016 270.605941 
L 437.389503 270.605941 
L 437.389503 269.807525 
L 461.492473 269.807525 
L 461.492473 269.009109 
L 461.8 269.009109 
L 461.8 269.009109 
" style="fill:none;stroke:#f5deb3;stroke-linecap:square;stroke-width:1.5;"/>
   </g>
   <g id="line2d_23">
    <path clip-path="url(#p33912fea18)" d="M 327.924522 293.76 
L 327.924522 292.961584 
L 340.736336 292.961584 
L 340.736336 292.163168 
L 343.468829 292.163168 
L 343.468829 291.364752 
L 344.798735 291.364752 
L 344.798735 290.566337 
L 347.049634 290.566337 
L 347.049634 289.767921 
L 350.630536 289.767921 
L 350.630536 288.969505 
L 353.502729 288.969505 
L 353.502729 288.171089 
L 370.273352 288.171089 
L 370.273352 287.372673 
L 461.8 287.372673 
" style="fill:none;stroke:#f5deb3;stroke-linecap:square;stroke-width:1.5;"/>
   </g>
   <g id="line2d_24">
    <path clip-path="url(#p33912fea18)" d="M 409.758264 293.76 
L 409.758264 292.961584 
L 419.478394 292.961584 
L 419.478394 292.163168 
L 435.06985 292.163168 
L 435.175654 289.767921 
L 439.540058 289.767921 
L 439.540058 288.969505 
L 442.307036 288.969505 
L 442.307036 288.171089 
L 442.451148 288.171089 
L 442.451148 287.372673 
L 448.776416 287.372673 
L 448.776416 286.574257 
L 449.150513 286.574257 
L 449.150513 285.775842 
L 454.794344 285.775842 
L 454.794344 284.977426 
L 454.936761 284.977426 
L 454.936761 284.17901 
L 460.385217 284.17901 
L 460.385217 283.380594 
L 461.8 283.380594 
L 461.8 283.380594 
" style="fill:none;stroke:#f5deb3;stroke-linecap:square;stroke-width:1.5;"/>
   </g>
   <g id="line2d_25">
    <path clip-path="url(#p33912fea18)" d="M 336.245301 293.76 
L 336.245301 292.961584 
L 340.829036 292.961584 
L 340.829036 292.163168 
L 341.749811 292.163168 
L 341.749811 291.364752 
L 343.200003 291.364752 
L 343.200003 290.566337 
L 360.237217 290.566337 
L 360.237217 289.767921 
L 362.145362 289.767921 
L 362.145362 288.969505 
L 362.562901 288.969505 
L 362.562901 288.171089 
L 367.919353 288.171089 
L 367.919353 287.372673 
L 378.174182 287.372673 
L 378.174182 286.574257 
L 385.118116 286.574257 
L 385.118116 285.775842 
L 386.69546 285.775842 
L 386.69546 284.977426 
L 393.98422 284.977426 
L 393.98422 284.17901 
L 395.163198 284.17901 
L 395.163198 283.380594 
L 399.914082 283.380594 
L 399.914082 282.582178 
L 461.8 282.582178 
L 461.8 282.582178 
" style="fill:none;stroke:#f5deb3;stroke-linecap:square;stroke-width:1.5;"/>
   </g>
   <g id="line2d_26">
    <path clip-path="url(#p33912fea18)" d="M 392.879284 293.76 
L 392.879284 292.991471 
L 394.075569 292.991471 
L 394.075569 292.222943 
L 398.334803 292.222943 
L 398.334803 291.454414 
L 399.36297 291.454414 
L 399.36297 290.685886 
L 399.532973 290.685886 
L 399.532973 289.917357 
L 399.914082 289.917357 
L 399.956308 288.3803 
L 401.087553 288.3803 
L 401.087553 286.843242 
L 402.52911 286.843242 
L 402.52911 286.074714 
L 403.983586 286.074714 
L 403.983586 285.306185 
L 404.740036 285.306185 
L 404.740036 284.537657 
L 406.463152 284.537657 
L 406.463152 283.769128 
L 406.810797 283.769128 
L 406.810797 283.000599 
L 425.604855 283.000599 
L 425.604855 282.232071 
L 461.8 282.232071 
L 461.8 282.232071 
" style="fill:none;stroke:#f5deb3;stroke-linecap:square;stroke-width:1.5;"/>
   </g>
   <g id="line2d_27">
    <path clip-path="url(#p33912fea18)" d="M 330.305987 293.76 
L 330.305987 292.163168 
L 335.552878 292.163168 
L 335.552878 291.364752 
L 337.707947 291.364752 
L 337.707947 290.566337 
L 340.550592 290.566337 
L 340.550592 289.767921 
L 355.205456 289.767921 
L 355.205456 288.969505 
L 362.701567 288.969505 
L 362.770805 287.372673 
L 363.184896 287.372673 
L 363.184896 286.574257 
L 366.352081 286.574257 
L 366.352081 285.775842 
L 371.638884 285.775842 
L 371.638884 284.977426 
L 379.015336 284.977426 
L 379.015336 284.17901 
L 384.653914 284.17901 
L 384.653914 283.380594 
L 385.220884 283.380594 
L 385.220884 282.582178 
L 391.19084 282.582178 
L 391.19084 281.783762 
L 404.462228 281.783762 
L 404.462228 280.985347 
L 410.422356 280.985347 
L 410.422356 280.186931 
L 416.319253 280.186931 
L 416.319253 279.388515 
L 416.624294 279.388515 
L 416.624294 278.590099 
L 416.961784 278.590099 
L 416.961784 277.791683 
L 417.163554 277.791683 
L 417.163554 276.993267 
L 417.364783 276.993267 
L 417.364783 275.396436 
L 417.598873 275.396436 
L 417.598873 274.59802 
L 418.098055 274.59802 
L 418.098055 273.799604 
L 418.329877 273.799604 
L 418.329877 273.001188 
L 418.659818 273.001188 
L 418.659818 272.202772 
L 420.320368 272.202772 
L 420.384747 270.605941 
L 421.02552 270.605941 
L 421.02552 269.807525 
L 422.384975 269.807525 
L 422.384975 269.009109 
L 461.8 269.009109 
L 461.8 269.009109 
" style="fill:none;stroke:#f5deb3;stroke-linecap:square;stroke-width:1.5;"/>
   </g>
   <g id="line2d_28">
    <path clip-path="url(#p33912fea18)" d="M 285.468369 293.76 
L 285.468369 292.961584 
L 285.661505 292.961584 
L 285.661505 292.163168 
L 285.854146 292.163168 
L 285.854146 291.364752 
L 286.046295 291.364752 
L 286.046295 290.566337 
L 293.355572 290.566337 
L 293.355572 287.372673 
L 293.529506 287.372673 
L 293.529506 286.574257 
L 300.493743 286.574257 
L 300.493743 284.977426 
L 300.967363 284.977426 
L 300.967363 284.17901 
L 307.735535 284.17901 
L 307.735535 283.380594 
L 313.145845 283.380594 
L 313.145845 282.582178 
L 324.204708 282.582178 
L 324.204708 281.783762 
L 461.8 281.783762 
L 461.8 281.783762 
" style="fill:none;stroke:#f5deb3;stroke-linecap:square;stroke-width:1.5;"/>
   </g>
   <g id="line2d_29">
    <path clip-path="url(#p33912fea18)" d="M 114.350948 293.76 
L 114.350948 292.961584 
L 114.350948 292.961584 
L 114.350948 292.163168 
L 114.350948 292.163168 
L 114.350948 291.364752 
L 114.350948 291.364752 
L 114.350948 290.566337 
L 114.350948 290.566337 
L 114.350948 289.767921 
L 114.350948 289.767921 
L 114.350948 288.969505 
L 116.208484 288.969505 
L 116.208484 288.171089 
L 116.208484 288.171089 
L 116.208484 287.372673 
L 116.208484 287.372673 
L 116.208484 286.574257 
L 116.208484 286.574257 
L 116.208484 285.775842 
L 116.208484 285.775842 
L 116.208484 284.977426 
L 116.208484 284.977426 
L 116.208484 284.17901 
L 116.208484 284.17901 
L 116.208484 283.380594 
L 116.208484 283.380594 
L 116.208484 282.582178 
L 116.208484 282.582178 
L 116.208484 281.783762 
L 152.022456 281.783762 
L 152.022456 280.985347 
L 152.022456 280.985347 
L 152.022456 280.186931 
L 152.022456 280.186931 
L 152.022456 279.388515 
L 277.735616 279.388515 
L 277.735616 278.590099 
L 277.735616 278.590099 
L 277.735616 277.791683 
L 277.735616 277.791683 
L 277.735616 276.993267 
L 278.799656 276.993267 
L 278.799656 276.194851 
L 278.799656 276.194851 
L 278.799656 275.396436 
L 278.799656 275.396436 
L 278.799656 274.59802 
L 279.640182 274.59802 
L 279.640182 273.799604 
L 279.640182 273.799604 
L 279.640182 273.001188 
L 279.640182 273.001188 
L 279.640182 272.202772 
L 280.05695 272.202772 
L 280.05695 271.404356 
L 280.05695 271.404356 
L 280.05695 270.605941 
L 280.05695 270.605941 
L 280.05695 269.807525 
L 429.295171 269.807525 
L 429.295171 269.009109 
L 429.295171 269.009109 
L 429.295171 268.210693 
L 429.295171 268.210693 
L 429.295171 267.412277 
L 451.057823 267.412277 
L 451.057823 266.613861 
L 451.057823 266.613861 
L 451.057823 265.815446 
L 451.057823 265.815446 
L 451.057823 265.01703 
L 461.8 265.01703 
" style="fill:none;stroke:#f5deb3;stroke-linecap:square;stroke-width:1.5;"/>
   </g>
   <g id="line2d_30">
    <path clip-path="url(#p33912fea18)" d="M 279.848855 293.76 
L 279.848855 292.961584 
L 279.848855 292.961584 
L 279.848855 292.163168 
L 280.883622 292.163168 
L 280.883622 291.364752 
L 282.711073 291.364752 
L 282.711073 290.566337 
L 283.509238 290.566337 
L 283.509238 289.767921 
L 283.509238 289.767921 
L 283.509238 288.969505 
L 284.690829 288.969505 
L 284.690829 288.171089 
L 285.080604 288.171089 
L 285.080604 287.372673 
L 285.274736 287.372673 
L 285.274736 286.574257 
L 285.468369 286.574257 
L 285.468369 285.775842 
L 286.046295 285.775842 
L 286.046295 284.977426 
L 287.188997 284.977426 
L 287.188997 284.17901 
L 288.128164 284.17901 
L 288.128164 283.380594 
L 288.314599 283.380594 
L 288.314599 282.582178 
L 289.97204 282.582178 
L 289.97204 281.783762 
L 290.335454 281.783762 
L 290.335454 280.985347 
L 290.877302 280.985347 
L 290.877302 280.186931 
L 292.126642 280.186931 
L 292.126642 279.388515 
L 292.655787 279.388515 
L 292.655787 278.590099 
L 293.355572 278.590099 
L 293.355572 277.791683 
L 294.564747 277.791683 
L 294.564747 276.993267 
L 295.077074 276.993267 
L 295.077074 276.194851 
L 296.760061 276.194851 
L 296.760061 275.396436 
L 298.56887 275.396436 
L 298.56887 274.59802 
L 299.054725 274.59802 
L 299.054725 273.799604 
L 299.376894 273.799604 
L 299.376894 273.001188 
L 300.651948 273.001188 
L 300.651948 272.202772 
L 301.594253 272.202772 
L 301.594253 271.404356 
L 301.90575 271.404356 
L 301.90575 270.605941 
L 318.567586 270.605941 
L 318.567586 269.807525 
L 324.320174 269.807525 
L 324.320174 269.009109 
L 324.320174 269.009109 
L 324.320174 268.210693 
L 324.320174 268.210693 
L 324.320174 267.412277 
L 324.320174 267.412277 
L 324.320174 266.613861 
L 324.320174 266.613861 
L 324.320174 265.815446 
L 324.320174 265.815446 
L 324.320174 265.01703 
L 324.320174 265.01703 
L 324.320174 264.218614 
L 324.320174 264.218614 
L 324.320174 263.420198 
L 324.320174 263.420198 
L 324.320174 262.621782 
L 324.320174 262.621782 
L 324.320174 261.823366 
L 324.320174 261.823366 
L 324.320174 261.02495 
L 324.320174 261.02495 
L 324.320174 260.226535 
L 324.320174 260.226535 
L 324.320174 259.428119 
L 324.320174 259.428119 
L 324.320174 258.629703 
L 324.320174 258.629703 
L 324.320174 257.831287 
L 461.8 257.831287 
" style="fill:none;stroke:#f5deb3;stroke-linecap:square;stroke-width:1.5;"/>
   </g>
   <g id="matplotlib.axis_1">
    <g id="xtick_1">
     <g id="line2d_31">
      <path clip-path="url(#p33912fea18)" d="M 62.208 293.76 
L 62.208 3.456 
" style="fill:none;stroke:#b0b0b0;stroke-linecap:square;stroke-width:0.8;"/>
     </g>
     <g id="line2d_32">
      <defs>
       <path d="M 0 0 
L 0 3.5 
" id="m5c68adbd88" style="stroke:#000000;stroke-width:0.8;"/>
      </defs>
      <g>
       <use style="stroke:#000000;stroke-width:0.8;" x="62.208" xlink:href="#m5c68adbd88" y="293.76"/>
      </g>
     </g>
     <g id="text_1">
      <!-- 0 -->
      <g transform="translate(55.8455 315.956875)scale(0.2 -0.2)">
       <defs>
        <path d="M 31.78125 66.40625 
Q 24.171875 66.40625 20.328125 58.90625 
Q 16.5 51.421875 16.5 36.375 
Q 16.5 21.390625 20.328125 13.890625 
Q 24.171875 6.390625 31.78125 6.390625 
Q 39.453125 6.390625 43.28125 13.890625 
Q 47.125 21.390625 47.125 36.375 
Q 47.125 51.421875 43.28125 58.90625 
Q 39.453125 66.40625 31.78125 66.40625 
z
M 31.78125 74.21875 
Q 44.046875 74.21875 50.515625 64.515625 
Q 56.984375 54.828125 56.984375 36.375 
Q 56.984375 17.96875 50.515625 8.265625 
Q 44.046875 -1.421875 31.78125 -1.421875 
Q 19.53125 -1.421875 13.0625 8.265625 
Q 6.59375 17.96875 6.59375 36.375 
Q 6.59375 54.828125 13.0625 64.515625 
Q 19.53125 74.21875 31.78125 74.21875 
z
" id="DejaVuSans-48"/>
       </defs>
       <use xlink:href="#DejaVuSans-48"/>
      </g>
     </g>
    </g>
    <g id="xtick_2">
     <g id="line2d_33">
      <path clip-path="url(#p33912fea18)" d="M 408.638248 293.76 
L 408.638248 3.456 
" style="fill:none;stroke:#b0b0b0;stroke-linecap:square;stroke-width:0.8;"/>
     </g>
     <g id="line2d_34">
      <g>
       <use style="stroke:#000000;stroke-width:0.8;" x="408.638248" xlink:href="#m5c68adbd88" y="293.76"/>
      </g>
     </g>
     <g id="text_2">
      <!-- 2 -->
      <g transform="translate(402.275748 315.956875)scale(0.2 -0.2)">
       <defs>
        <path d="M 19.1875 8.296875 
L 53.609375 8.296875 
L 53.609375 0 
L 7.328125 0 
L 7.328125 8.296875 
Q 12.9375 14.109375 22.625 23.890625 
Q 32.328125 33.6875 34.8125 36.53125 
Q 39.546875 41.84375 41.421875 45.53125 
Q 43.3125 49.21875 43.3125 52.78125 
Q 43.3125 58.59375 39.234375 62.25 
Q 35.15625 65.921875 28.609375 65.921875 
Q 23.96875 65.921875 18.8125 64.3125 
Q 13.671875 62.703125 7.8125 59.421875 
L 7.8125 69.390625 
Q 13.765625 71.78125 18.9375 73 
Q 24.125 74.21875 28.421875 74.21875 
Q 39.75 74.21875 46.484375 68.546875 
Q 53.21875 62.890625 53.21875 53.421875 
Q 53.21875 48.921875 51.53125 44.890625 
Q 49.859375 40.875 45.40625 35.40625 
Q 44.1875 33.984375 37.640625 27.21875 
Q 31.109375 20.453125 19.1875 8.296875 
z
" id="DejaVuSans-50"/>
       </defs>
       <use xlink:href="#DejaVuSans-50"/>
      </g>
     </g>
    </g>
    <g id="xtick_3">
     <g id="line2d_35">
      <path clip-path="url(#p33912fea18)" d="M 114.350948 293.76 
L 114.350948 3.456 
" style="fill:none;stroke:#b0b0b0;stroke-linecap:square;stroke-width:0.8;"/>
     </g>
     <g id="line2d_36">
      <defs>
       <path d="M 0 0 
L 0 2 
" id="m38db2c2006" style="stroke:#000000;stroke-width:0.6;"/>
      </defs>
      <g>
       <use style="stroke:#000000;stroke-width:0.6;" x="114.350948" xlink:href="#m38db2c2006" y="293.76"/>
      </g>
     </g>
    </g>
    <g id="xtick_4">
     <g id="line2d_37">
      <path clip-path="url(#p33912fea18)" d="M 144.852617 293.76 
L 144.852617 3.456 
" style="fill:none;stroke:#b0b0b0;stroke-linecap:square;stroke-width:0.8;"/>
     </g>
     <g id="line2d_38">
      <g>
       <use style="stroke:#000000;stroke-width:0.6;" x="144.852617" xlink:href="#m38db2c2006" y="293.76"/>
      </g>
     </g>
    </g>
    <g id="xtick_5">
     <g id="line2d_39">
      <path clip-path="url(#p33912fea18)" d="M 166.493896 293.76 
L 166.493896 3.456 
" style="fill:none;stroke:#b0b0b0;stroke-linecap:square;stroke-width:0.8;"/>
     </g>
     <g id="line2d_40">
      <g>
       <use style="stroke:#000000;stroke-width:0.6;" x="166.493896" xlink:href="#m38db2c2006" y="293.76"/>
      </g>
     </g>
    </g>
    <g id="xtick_6">
     <g id="line2d_41">
      <path clip-path="url(#p33912fea18)" d="M 183.280176 293.76 
L 183.280176 3.456 
" style="fill:none;stroke:#b0b0b0;stroke-linecap:square;stroke-width:0.8;"/>
     </g>
     <g id="line2d_42">
      <g>
       <use style="stroke:#000000;stroke-width:0.6;" x="183.280176" xlink:href="#m38db2c2006" y="293.76"/>
      </g>
     </g>
    </g>
    <g id="xtick_7">
     <g id="line2d_43">
      <path clip-path="url(#p33912fea18)" d="M 196.995565 293.76 
L 196.995565 3.456 
" style="fill:none;stroke:#b0b0b0;stroke-linecap:square;stroke-width:0.8;"/>
     </g>
     <g id="line2d_44">
      <g>
       <use style="stroke:#000000;stroke-width:0.6;" x="196.995565" xlink:href="#m38db2c2006" y="293.76"/>
      </g>
     </g>
    </g>
    <g id="xtick_8">
     <g id="line2d_45">
      <path clip-path="url(#p33912fea18)" d="M 208.591762 293.76 
L 208.591762 3.456 
" style="fill:none;stroke:#b0b0b0;stroke-linecap:square;stroke-width:0.8;"/>
     </g>
     <g id="line2d_46">
      <g>
       <use style="stroke:#000000;stroke-width:0.6;" x="208.591762" xlink:href="#m38db2c2006" y="293.76"/>
      </g>
     </g>
    </g>
    <g id="xtick_9">
     <g id="line2d_47">
      <path clip-path="url(#p33912fea18)" d="M 218.636844 293.76 
L 218.636844 3.456 
" style="fill:none;stroke:#b0b0b0;stroke-linecap:square;stroke-width:0.8;"/>
     </g>
     <g id="line2d_48">
      <g>
       <use style="stroke:#000000;stroke-width:0.6;" x="218.636844" xlink:href="#m38db2c2006" y="293.76"/>
      </g>
     </g>
    </g>
    <g id="xtick_10">
     <g id="line2d_49">
      <path clip-path="url(#p33912fea18)" d="M 227.497234 293.76 
L 227.497234 3.456 
" style="fill:none;stroke:#b0b0b0;stroke-linecap:square;stroke-width:0.8;"/>
     </g>
     <g id="line2d_50">
      <g>
       <use style="stroke:#000000;stroke-width:0.6;" x="227.497234" xlink:href="#m38db2c2006" y="293.76"/>
      </g>
     </g>
    </g>
    <g id="xtick_11">
     <g id="line2d_51">
      <path clip-path="url(#p33912fea18)" d="M 287.566072 293.76 
L 287.566072 3.456 
" style="fill:none;stroke:#b0b0b0;stroke-linecap:square;stroke-width:0.8;"/>
     </g>
     <g id="line2d_52">
      <g>
       <use style="stroke:#000000;stroke-width:0.6;" x="287.566072" xlink:href="#m38db2c2006" y="293.76"/>
      </g>
     </g>
    </g>
    <g id="xtick_12">
     <g id="line2d_53">
      <path clip-path="url(#p33912fea18)" d="M 318.067741 293.76 
L 318.067741 3.456 
" style="fill:none;stroke:#b0b0b0;stroke-linecap:square;stroke-width:0.8;"/>
     </g>
     <g id="line2d_54">
      <g>
       <use style="stroke:#000000;stroke-width:0.6;" x="318.067741" xlink:href="#m38db2c2006" y="293.76"/>
      </g>
     </g>
    </g>
    <g id="xtick_13">
     <g id="line2d_55">
      <path clip-path="url(#p33912fea18)" d="M 339.70902 293.76 
L 339.70902 3.456 
" style="fill:none;stroke:#b0b0b0;stroke-linecap:square;stroke-width:0.8;"/>
     </g>
     <g id="line2d_56">
      <g>
       <use style="stroke:#000000;stroke-width:0.6;" x="339.70902" xlink:href="#m38db2c2006" y="293.76"/>
      </g>
     </g>
    </g>
    <g id="xtick_14">
     <g id="line2d_57">
      <path clip-path="url(#p33912fea18)" d="M 356.4953 293.76 
L 356.4953 3.456 
" style="fill:none;stroke:#b0b0b0;stroke-linecap:square;stroke-width:0.8;"/>
     </g>
     <g id="line2d_58">
      <g>
       <use style="stroke:#000000;stroke-width:0.6;" x="356.4953" xlink:href="#m38db2c2006" y="293.76"/>
      </g>
     </g>
    </g>
    <g id="xtick_15">
     <g id="line2d_59">
      <path clip-path="url(#p33912fea18)" d="M 370.210689 293.76 
L 370.210689 3.456 
" style="fill:none;stroke:#b0b0b0;stroke-linecap:square;stroke-width:0.8;"/>
     </g>
     <g id="line2d_60">
      <g>
       <use style="stroke:#000000;stroke-width:0.6;" x="370.210689" xlink:href="#m38db2c2006" y="293.76"/>
      </g>
     </g>
    </g>
    <g id="xtick_16">
     <g id="line2d_61">
      <path clip-path="url(#p33912fea18)" d="M 381.806886 293.76 
L 381.806886 3.456 
" style="fill:none;stroke:#b0b0b0;stroke-linecap:square;stroke-width:0.8;"/>
     </g>
     <g id="line2d_62">
      <g>
       <use style="stroke:#000000;stroke-width:0.6;" x="381.806886" xlink:href="#m38db2c2006" y="293.76"/>
      </g>
     </g>
    </g>
    <g id="xtick_17">
     <g id="line2d_63">
      <path clip-path="url(#p33912fea18)" d="M 391.851968 293.76 
L 391.851968 3.456 
" style="fill:none;stroke:#b0b0b0;stroke-linecap:square;stroke-width:0.8;"/>
     </g>
     <g id="line2d_64">
      <g>
       <use style="stroke:#000000;stroke-width:0.6;" x="391.851968" xlink:href="#m38db2c2006" y="293.76"/>
      </g>
     </g>
    </g>
    <g id="xtick_18">
     <g id="line2d_65">
      <path clip-path="url(#p33912fea18)" d="M 400.712358 293.76 
L 400.712358 3.456 
" style="fill:none;stroke:#b0b0b0;stroke-linecap:square;stroke-width:0.8;"/>
     </g>
     <g id="line2d_66">
      <g>
       <use style="stroke:#000000;stroke-width:0.6;" x="400.712358" xlink:href="#m38db2c2006" y="293.76"/>
      </g>
     </g>
    </g>
    <g id="xtick_19">
     <g id="line2d_67">
      <path clip-path="url(#p33912fea18)" d="M 460.781196 293.76 
L 460.781196 3.456 
" style="fill:none;stroke:#b0b0b0;stroke-linecap:square;stroke-width:0.8;"/>
     </g>
     <g id="line2d_68">
      <g>
       <use style="stroke:#000000;stroke-width:0.6;" x="460.781196" xlink:href="#m38db2c2006" y="293.76"/>
      </g>
     </g>
    </g>
    <g id="text_3">
     <!-- log10 of FEvals / DIM -->
     <g transform="translate(156.430563 339.313125)scale(0.2 -0.2)">
      <defs>
       <path d="M 9.421875 75.984375 
L 18.40625 75.984375 
L 18.40625 0 
L 9.421875 0 
z
" id="DejaVuSans-108"/>
       <path d="M 30.609375 48.390625 
Q 23.390625 48.390625 19.1875 42.75 
Q 14.984375 37.109375 14.984375 27.296875 
Q 14.984375 17.484375 19.15625 11.84375 
Q 23.34375 6.203125 30.609375 6.203125 
Q 37.796875 6.203125 41.984375 11.859375 
Q 46.1875 17.53125 46.1875 27.296875 
Q 46.1875 37.015625 41.984375 42.703125 
Q 37.796875 48.390625 30.609375 48.390625 
z
M 30.609375 56 
Q 42.328125 56 49.015625 48.375 
Q 55.71875 40.765625 55.71875 27.296875 
Q 55.71875 13.875 49.015625 6.21875 
Q 42.328125 -1.421875 30.609375 -1.421875 
Q 18.84375 -1.421875 12.171875 6.21875 
Q 5.515625 13.875 5.515625 27.296875 
Q 5.515625 40.765625 12.171875 48.375 
Q 18.84375 56 30.609375 56 
z
" id="DejaVuSans-111"/>
       <path d="M 45.40625 27.984375 
Q 45.40625 37.75 41.375 43.109375 
Q 37.359375 48.484375 30.078125 48.484375 
Q 22.859375 48.484375 18.828125 43.109375 
Q 14.796875 37.75 14.796875 27.984375 
Q 14.796875 18.265625 18.828125 12.890625 
Q 22.859375 7.515625 30.078125 7.515625 
Q 37.359375 7.515625 41.375 12.890625 
Q 45.40625 18.265625 45.40625 27.984375 
z
M 54.390625 6.78125 
Q 54.390625 -7.171875 48.1875 -13.984375 
Q 42 -20.796875 29.203125 -20.796875 
Q 24.46875 -20.796875 20.265625 -20.09375 
Q 16.0625 -19.390625 12.109375 -17.921875 
L 12.109375 -9.1875 
Q 16.0625 -11.328125 19.921875 -12.34375 
Q 23.78125 -13.375 27.78125 -13.375 
Q 36.625 -13.375 41.015625 -8.765625 
Q 45.40625 -4.15625 45.40625 5.171875 
L 45.40625 9.625 
Q 42.625 4.78125 38.28125 2.390625 
Q 33.9375 0 27.875 0 
Q 17.828125 0 11.671875 7.65625 
Q 5.515625 15.328125 5.515625 27.984375 
Q 5.515625 40.671875 11.671875 48.328125 
Q 17.828125 56 27.875 56 
Q 33.9375 56 38.28125 53.609375 
Q 42.625 51.21875 45.40625 46.390625 
L 45.40625 54.6875 
L 54.390625 54.6875 
z
" id="DejaVuSans-103"/>
       <path d="M 12.40625 8.296875 
L 28.515625 8.296875 
L 28.515625 63.921875 
L 10.984375 60.40625 
L 10.984375 69.390625 
L 28.421875 72.90625 
L 38.28125 72.90625 
L 38.28125 8.296875 
L 54.390625 8.296875 
L 54.390625 0 
L 12.40625 0 
z
" id="DejaVuSans-49"/>
       <path id="DejaVuSans-32"/>
       <path d="M 37.109375 75.984375 
L 37.109375 68.5 
L 28.515625 68.5 
Q 23.6875 68.5 21.796875 66.546875 
Q 19.921875 64.59375 19.921875 59.515625 
L 19.921875 54.6875 
L 34.71875 54.6875 
L 34.71875 47.703125 
L 19.921875 47.703125 
L 19.921875 0 
L 10.890625 0 
L 10.890625 47.703125 
L 2.296875 47.703125 
L 2.296875 54.6875 
L 10.890625 54.6875 
L 10.890625 58.5 
Q 10.890625 67.625 15.140625 71.796875 
Q 19.390625 75.984375 28.609375 75.984375 
z
" id="DejaVuSans-102"/>
       <path d="M 9.8125 72.90625 
L 51.703125 72.90625 
L 51.703125 64.59375 
L 19.671875 64.59375 
L 19.671875 43.109375 
L 48.578125 43.109375 
L 48.578125 34.8125 
L 19.671875 34.8125 
L 19.671875 0 
L 9.8125 0 
z
" id="DejaVuSans-70"/>
       <path d="M 9.8125 72.90625 
L 55.90625 72.90625 
L 55.90625 64.59375 
L 19.671875 64.59375 
L 19.671875 43.015625 
L 54.390625 43.015625 
L 54.390625 34.71875 
L 19.671875 34.71875 
L 19.671875 8.296875 
L 56.78125 8.296875 
L 56.78125 0 
L 9.8125 0 
z
" id="DejaVuSans-69"/>
       <path d="M 2.984375 54.6875 
L 12.5 54.6875 
L 29.59375 8.796875 
L 46.6875 54.6875 
L 56.203125 54.6875 
L 35.6875 0 
L 23.484375 0 
z
" id="DejaVuSans-118"/>
       <path d="M 34.28125 27.484375 
Q 23.390625 27.484375 19.1875 25 
Q 14.984375 22.515625 14.984375 16.5 
Q 14.984375 11.71875 18.140625 8.90625 
Q 21.296875 6.109375 26.703125 6.109375 
Q 34.1875 6.109375 38.703125 11.40625 
Q 43.21875 16.703125 43.21875 25.484375 
L 43.21875 27.484375 
z
M 52.203125 31.203125 
L 52.203125 0 
L 43.21875 0 
L 43.21875 8.296875 
Q 40.140625 3.328125 35.546875 0.953125 
Q 30.953125 -1.421875 24.3125 -1.421875 
Q 15.921875 -1.421875 10.953125 3.296875 
Q 6 8.015625 6 15.921875 
Q 6 25.140625 12.171875 29.828125 
Q 18.359375 34.515625 30.609375 34.515625 
L 43.21875 34.515625 
L 43.21875 35.40625 
Q 43.21875 41.609375 39.140625 45 
Q 35.0625 48.390625 27.6875 48.390625 
Q 23 48.390625 18.546875 47.265625 
Q 14.109375 46.140625 10.015625 43.890625 
L 10.015625 52.203125 
Q 14.9375 54.109375 19.578125 55.046875 
Q 24.21875 56 28.609375 56 
Q 40.484375 56 46.34375 49.84375 
Q 52.203125 43.703125 52.203125 31.203125 
z
" id="DejaVuSans-97"/>
       <path d="M 44.28125 53.078125 
L 44.28125 44.578125 
Q 40.484375 46.53125 36.375 47.5 
Q 32.28125 48.484375 27.875 48.484375 
Q 21.1875 48.484375 17.84375 46.4375 
Q 14.5 44.390625 14.5 40.28125 
Q 14.5 37.15625 16.890625 35.375 
Q 19.28125 33.59375 26.515625 31.984375 
L 29.59375 31.296875 
Q 39.15625 29.25 43.1875 25.515625 
Q 47.21875 21.78125 47.21875 15.09375 
Q 47.21875 7.46875 41.1875 3.015625 
Q 35.15625 -1.421875 24.609375 -1.421875 
Q 20.21875 -1.421875 15.453125 -0.5625 
Q 10.6875 0.296875 5.421875 2 
L 5.421875 11.28125 
Q 10.40625 8.6875 15.234375 7.390625 
Q 20.0625 6.109375 24.8125 6.109375 
Q 31.15625 6.109375 34.5625 8.28125 
Q 37.984375 10.453125 37.984375 14.40625 
Q 37.984375 18.0625 35.515625 20.015625 
Q 33.0625 21.96875 24.703125 23.78125 
L 21.578125 24.515625 
Q 13.234375 26.265625 9.515625 29.90625 
Q 5.8125 33.546875 5.8125 39.890625 
Q 5.8125 47.609375 11.28125 51.796875 
Q 16.75 56 26.8125 56 
Q 31.78125 56 36.171875 55.265625 
Q 40.578125 54.546875 44.28125 53.078125 
z
" id="DejaVuSans-115"/>
       <path d="M 25.390625 72.90625 
L 33.6875 72.90625 
L 8.296875 -9.28125 
L 0 -9.28125 
z
" id="DejaVuSans-47"/>
       <path d="M 19.671875 64.796875 
L 19.671875 8.109375 
L 31.59375 8.109375 
Q 46.6875 8.109375 53.6875 14.9375 
Q 60.6875 21.78125 60.6875 36.53125 
Q 60.6875 51.171875 53.6875 57.984375 
Q 46.6875 64.796875 31.59375 64.796875 
z
M 9.8125 72.90625 
L 30.078125 72.90625 
Q 51.265625 72.90625 61.171875 64.09375 
Q 71.09375 55.28125 71.09375 36.53125 
Q 71.09375 17.671875 61.125 8.828125 
Q 51.171875 0 30.078125 0 
L 9.8125 0 
z
" id="DejaVuSans-68"/>
       <path d="M 9.8125 72.90625 
L 19.671875 72.90625 
L 19.671875 0 
L 9.8125 0 
z
" id="DejaVuSans-73"/>
       <path d="M 9.8125 72.90625 
L 24.515625 72.90625 
L 43.109375 23.296875 
L 61.8125 72.90625 
L 76.515625 72.90625 
L 76.515625 0 
L 66.890625 0 
L 66.890625 64.015625 
L 48.09375 14.015625 
L 38.1875 14.015625 
L 19.390625 64.015625 
L 19.390625 0 
L 9.8125 0 
z
" id="DejaVuSans-77"/>
      </defs>
      <use xlink:href="#DejaVuSans-108"/>
      <use x="27.783203" xlink:href="#DejaVuSans-111"/>
      <use x="88.964844" xlink:href="#DejaVuSans-103"/>
      <use x="152.441406" xlink:href="#DejaVuSans-49"/>
      <use x="216.064453" xlink:href="#DejaVuSans-48"/>
      <use x="279.6875" xlink:href="#DejaVuSans-32"/>
      <use x="311.474609" xlink:href="#DejaVuSans-111"/>
      <use x="372.65625" xlink:href="#DejaVuSans-102"/>
      <use x="407.861328" xlink:href="#DejaVuSans-32"/>
      <use x="439.648438" xlink:href="#DejaVuSans-70"/>
      <use x="497.167969" xlink:href="#DejaVuSans-69"/>
      <use x="560.351562" xlink:href="#DejaVuSans-118"/>
      <use x="619.53125" xlink:href="#DejaVuSans-97"/>
      <use x="680.810547" xlink:href="#DejaVuSans-108"/>
      <use x="708.59375" xlink:href="#DejaVuSans-115"/>
      <use x="760.693359" xlink:href="#DejaVuSans-32"/>
      <use x="792.480469" xlink:href="#DejaVuSans-47"/>
      <use x="826.171875" xlink:href="#DejaVuSans-32"/>
      <use x="857.958984" xlink:href="#DejaVuSans-68"/>
      <use x="934.960938" xlink:href="#DejaVuSans-73"/>
      <use x="964.453125" xlink:href="#DejaVuSans-77"/>
     </g>
    </g>
   </g>
   <g id="matplotlib.axis_2">
    <g id="ytick_1">
     <g id="line2d_69">
      <path clip-path="url(#p33912fea18)" d="M 62.208 293.76 
L 460.8 293.76 
" style="fill:none;stroke:#b0b0b0;stroke-linecap:square;stroke-width:0.8;"/>
     </g>
     <g id="line2d_70">
      <defs>
       <path d="M 0 0 
L -3.5 0 
" id="m31fb03ab5a" style="stroke:#000000;stroke-width:0.8;"/>
      </defs>
      <g>
       <use style="stroke:#000000;stroke-width:0.8;" x="62.208" xlink:href="#m31fb03ab5a" y="293.76"/>
      </g>
     </g>
     <g id="text_4">
      <!-- 0.0 -->
      <g transform="translate(29.763 299.83875)scale(0.16 -0.16)">
       <defs>
        <path d="M 10.6875 12.40625 
L 21 12.40625 
L 21 0 
L 10.6875 0 
z
" id="DejaVuSans-46"/>
       </defs>
       <use xlink:href="#DejaVuSans-48"/>
       <use x="63.623047" xlink:href="#DejaVuSans-46"/>
       <use x="95.410156" xlink:href="#DejaVuSans-48"/>
      </g>
     </g>
    </g>
    <g id="ytick_2">
     <g id="line2d_71">
      <path clip-path="url(#p33912fea18)" d="M 62.208 236.274059 
L 460.8 236.274059 
" style="fill:none;stroke:#b0b0b0;stroke-linecap:square;stroke-width:0.8;"/>
     </g>
     <g id="line2d_72">
      <g>
       <use style="stroke:#000000;stroke-width:0.8;" x="62.208" xlink:href="#m31fb03ab5a" y="236.274059"/>
      </g>
     </g>
     <g id="text_5">
      <!-- 0.2 -->
      <g transform="translate(29.763 242.352809)scale(0.16 -0.16)">
       <use xlink:href="#DejaVuSans-48"/>
       <use x="63.623047" xlink:href="#DejaVuSans-46"/>
       <use x="95.410156" xlink:href="#DejaVuSans-50"/>
      </g>
     </g>
    </g>
    <g id="ytick_3">
     <g id="line2d_73">
      <path clip-path="url(#p33912fea18)" d="M 62.208 178.788119 
L 460.8 178.788119 
" style="fill:none;stroke:#b0b0b0;stroke-linecap:square;stroke-width:0.8;"/>
     </g>
     <g id="line2d_74">
      <g>
       <use style="stroke:#000000;stroke-width:0.8;" x="62.208" xlink:href="#m31fb03ab5a" y="178.788119"/>
      </g>
     </g>
     <g id="text_6">
      <!-- 0.4 -->
      <g transform="translate(29.763 184.866869)scale(0.16 -0.16)">
       <defs>
        <path d="M 37.796875 64.3125 
L 12.890625 25.390625 
L 37.796875 25.390625 
z
M 35.203125 72.90625 
L 47.609375 72.90625 
L 47.609375 25.390625 
L 58.015625 25.390625 
L 58.015625 17.1875 
L 47.609375 17.1875 
L 47.609375 0 
L 37.796875 0 
L 37.796875 17.1875 
L 4.890625 17.1875 
L 4.890625 26.703125 
z
" id="DejaVuSans-52"/>
       </defs>
       <use xlink:href="#DejaVuSans-48"/>
       <use x="63.623047" xlink:href="#DejaVuSans-46"/>
       <use x="95.410156" xlink:href="#DejaVuSans-52"/>
      </g>
     </g>
    </g>
    <g id="ytick_4">
     <g id="line2d_75">
      <path clip-path="url(#p33912fea18)" d="M 62.208 121.302178 
L 460.8 121.302178 
" style="fill:none;stroke:#b0b0b0;stroke-linecap:square;stroke-width:0.8;"/>
     </g>
     <g id="line2d_76">
      <g>
       <use style="stroke:#000000;stroke-width:0.8;" x="62.208" xlink:href="#m31fb03ab5a" y="121.302178"/>
      </g>
     </g>
     <g id="text_7">
      <!-- 0.6 -->
      <g transform="translate(29.763 127.380928)scale(0.16 -0.16)">
       <defs>
        <path d="M 33.015625 40.375 
Q 26.375 40.375 22.484375 35.828125 
Q 18.609375 31.296875 18.609375 23.390625 
Q 18.609375 15.53125 22.484375 10.953125 
Q 26.375 6.390625 33.015625 6.390625 
Q 39.65625 6.390625 43.53125 10.953125 
Q 47.40625 15.53125 47.40625 23.390625 
Q 47.40625 31.296875 43.53125 35.828125 
Q 39.65625 40.375 33.015625 40.375 
z
M 52.59375 71.296875 
L 52.59375 62.3125 
Q 48.875 64.0625 45.09375 64.984375 
Q 41.3125 65.921875 37.59375 65.921875 
Q 27.828125 65.921875 22.671875 59.328125 
Q 17.53125 52.734375 16.796875 39.40625 
Q 19.671875 43.65625 24.015625 45.921875 
Q 28.375 48.1875 33.59375 48.1875 
Q 44.578125 48.1875 50.953125 41.515625 
Q 57.328125 34.859375 57.328125 23.390625 
Q 57.328125 12.15625 50.6875 5.359375 
Q 44.046875 -1.421875 33.015625 -1.421875 
Q 20.359375 -1.421875 13.671875 8.265625 
Q 6.984375 17.96875 6.984375 36.375 
Q 6.984375 53.65625 15.1875 63.9375 
Q 23.390625 74.21875 37.203125 74.21875 
Q 40.921875 74.21875 44.703125 73.484375 
Q 48.484375 72.75 52.59375 71.296875 
z
" id="DejaVuSans-54"/>
       </defs>
       <use xlink:href="#DejaVuSans-48"/>
       <use x="63.623047" xlink:href="#DejaVuSans-46"/>
       <use x="95.410156" xlink:href="#DejaVuSans-54"/>
      </g>
     </g>
    </g>
    <g id="ytick_5">
     <g id="line2d_77">
      <path clip-path="url(#p33912fea18)" d="M 62.208 63.816238 
L 460.8 63.816238 
" style="fill:none;stroke:#b0b0b0;stroke-linecap:square;stroke-width:0.8;"/>
     </g>
     <g id="line2d_78">
      <g>
       <use style="stroke:#000000;stroke-width:0.8;" x="62.208" xlink:href="#m31fb03ab5a" y="63.816238"/>
      </g>
     </g>
     <g id="text_8">
      <!-- 0.8 -->
      <g transform="translate(29.763 69.894988)scale(0.16 -0.16)">
       <defs>
        <path d="M 31.78125 34.625 
Q 24.75 34.625 20.71875 30.859375 
Q 16.703125 27.09375 16.703125 20.515625 
Q 16.703125 13.921875 20.71875 10.15625 
Q 24.75 6.390625 31.78125 6.390625 
Q 38.8125 6.390625 42.859375 10.171875 
Q 46.921875 13.96875 46.921875 20.515625 
Q 46.921875 27.09375 42.890625 30.859375 
Q 38.875 34.625 31.78125 34.625 
z
M 21.921875 38.8125 
Q 15.578125 40.375 12.03125 44.71875 
Q 8.5 49.078125 8.5 55.328125 
Q 8.5 64.0625 14.71875 69.140625 
Q 20.953125 74.21875 31.78125 74.21875 
Q 42.671875 74.21875 48.875 69.140625 
Q 55.078125 64.0625 55.078125 55.328125 
Q 55.078125 49.078125 51.53125 44.71875 
Q 48 40.375 41.703125 38.8125 
Q 48.828125 37.15625 52.796875 32.3125 
Q 56.78125 27.484375 56.78125 20.515625 
Q 56.78125 9.90625 50.3125 4.234375 
Q 43.84375 -1.421875 31.78125 -1.421875 
Q 19.734375 -1.421875 13.25 4.234375 
Q 6.78125 9.90625 6.78125 20.515625 
Q 6.78125 27.484375 10.78125 32.3125 
Q 14.796875 37.15625 21.921875 38.8125 
z
M 18.3125 54.390625 
Q 18.3125 48.734375 21.84375 45.5625 
Q 25.390625 42.390625 31.78125 42.390625 
Q 38.140625 42.390625 41.71875 45.5625 
Q 45.3125 48.734375 45.3125 54.390625 
Q 45.3125 60.0625 41.71875 63.234375 
Q 38.140625 66.40625 31.78125 66.40625 
Q 25.390625 66.40625 21.84375 63.234375 
Q 18.3125 60.0625 18.3125 54.390625 
z
" id="DejaVuSans-56"/>
       </defs>
       <use xlink:href="#DejaVuSans-48"/>
       <use x="63.623047" xlink:href="#DejaVuSans-46"/>
       <use x="95.410156" xlink:href="#DejaVuSans-56"/>
      </g>
     </g>
    </g>
    <g id="ytick_6">
     <g id="line2d_79">
      <path clip-path="url(#p33912fea18)" d="M 62.208 6.330297 
L 460.8 6.330297 
" style="fill:none;stroke:#b0b0b0;stroke-linecap:square;stroke-width:0.8;"/>
     </g>
     <g id="line2d_80">
      <g>
       <use style="stroke:#000000;stroke-width:0.8;" x="62.208" xlink:href="#m31fb03ab5a" y="6.330297"/>
      </g>
     </g>
     <g id="text_9">
      <!-- 1.0 -->
      <g transform="translate(29.763 12.409047)scale(0.16 -0.16)">
       <use xlink:href="#DejaVuSans-49"/>
       <use x="63.623047" xlink:href="#DejaVuSans-46"/>
       <use x="95.410156" xlink:href="#DejaVuSans-48"/>
      </g>
     </g>
    </g>
    <g id="text_10">
     <!-- proportion of trials -->
     <g transform="translate(21.603625 241.61425)rotate(-90)scale(0.2 -0.2)">
      <defs>
       <path d="M 18.109375 8.203125 
L 18.109375 -20.796875 
L 9.078125 -20.796875 
L 9.078125 54.6875 
L 18.109375 54.6875 
L 18.109375 46.390625 
Q 20.953125 51.265625 25.265625 53.625 
Q 29.59375 56 35.59375 56 
Q 45.5625 56 51.78125 48.09375 
Q 58.015625 40.1875 58.015625 27.296875 
Q 58.015625 14.40625 51.78125 6.484375 
Q 45.5625 -1.421875 35.59375 -1.421875 
Q 29.59375 -1.421875 25.265625 0.953125 
Q 20.953125 3.328125 18.109375 8.203125 
z
M 48.6875 27.296875 
Q 48.6875 37.203125 44.609375 42.84375 
Q 40.53125 48.484375 33.40625 48.484375 
Q 26.265625 48.484375 22.1875 42.84375 
Q 18.109375 37.203125 18.109375 27.296875 
Q 18.109375 17.390625 22.1875 11.75 
Q 26.265625 6.109375 33.40625 6.109375 
Q 40.53125 6.109375 44.609375 11.75 
Q 48.6875 17.390625 48.6875 27.296875 
z
" id="DejaVuSans-112"/>
       <path d="M 41.109375 46.296875 
Q 39.59375 47.171875 37.8125 47.578125 
Q 36.03125 48 33.890625 48 
Q 26.265625 48 22.1875 43.046875 
Q 18.109375 38.09375 18.109375 28.8125 
L 18.109375 0 
L 9.078125 0 
L 9.078125 54.6875 
L 18.109375 54.6875 
L 18.109375 46.1875 
Q 20.953125 51.171875 25.484375 53.578125 
Q 30.03125 56 36.53125 56 
Q 37.453125 56 38.578125 55.875 
Q 39.703125 55.765625 41.0625 55.515625 
z
" id="DejaVuSans-114"/>
       <path d="M 18.3125 70.21875 
L 18.3125 54.6875 
L 36.8125 54.6875 
L 36.8125 47.703125 
L 18.3125 47.703125 
L 18.3125 18.015625 
Q 18.3125 11.328125 20.140625 9.421875 
Q 21.96875 7.515625 27.59375 7.515625 
L 36.8125 7.515625 
L 36.8125 0 
L 27.59375 0 
Q 17.1875 0 13.234375 3.875 
Q 9.28125 7.765625 9.28125 18.015625 
L 9.28125 47.703125 
L 2.6875 47.703125 
L 2.6875 54.6875 
L 9.28125 54.6875 
L 9.28125 70.21875 
z
" id="DejaVuSans-116"/>
       <path d="M 9.421875 54.6875 
L 18.40625 54.6875 
L 18.40625 0 
L 9.421875 0 
z
M 9.421875 75.984375 
L 18.40625 75.984375 
L 18.40625 64.59375 
L 9.421875 64.59375 
z
" id="DejaVuSans-105"/>
       <path d="M 54.890625 33.015625 
L 54.890625 0 
L 45.90625 0 
L 45.90625 32.71875 
Q 45.90625 40.484375 42.875 44.328125 
Q 39.84375 48.1875 33.796875 48.1875 
Q 26.515625 48.1875 22.3125 43.546875 
Q 18.109375 38.921875 18.109375 30.90625 
L 18.109375 0 
L 9.078125 0 
L 9.078125 54.6875 
L 18.109375 54.6875 
L 18.109375 46.1875 
Q 21.34375 51.125 25.703125 53.5625 
Q 30.078125 56 35.796875 56 
Q 45.21875 56 50.046875 50.171875 
Q 54.890625 44.34375 54.890625 33.015625 
z
" id="DejaVuSans-110"/>
      </defs>
      <use xlink:href="#DejaVuSans-112"/>
      <use x="63.476562" xlink:href="#DejaVuSans-114"/>
      <use x="102.339844" xlink:href="#DejaVuSans-111"/>
      <use x="163.521484" xlink:href="#DejaVuSans-112"/>
      <use x="226.998047" xlink:href="#DejaVuSans-111"/>
      <use x="288.179688" xlink:href="#DejaVuSans-114"/>
      <use x="329.292969" xlink:href="#DejaVuSans-116"/>
      <use x="368.501953" xlink:href="#DejaVuSans-105"/>
      <use x="396.285156" xlink:href="#DejaVuSans-111"/>
      <use x="457.466797" xlink:href="#DejaVuSans-110"/>
      <use x="520.845703" xlink:href="#DejaVuSans-32"/>
      <use x="552.632812" xlink:href="#DejaVuSans-111"/>
      <use x="613.814453" xlink:href="#DejaVuSans-102"/>
      <use x="649.019531" xlink:href="#DejaVuSans-32"/>
      <use x="680.806641" xlink:href="#DejaVuSans-116"/>
      <use x="720.015625" xlink:href="#DejaVuSans-114"/>
      <use x="761.128906" xlink:href="#DejaVuSans-105"/>
      <use x="788.912109" xlink:href="#DejaVuSans-97"/>
      <use x="850.191406" xlink:href="#DejaVuSans-108"/>
      <use x="877.974609" xlink:href="#DejaVuSans-115"/>
     </g>
    </g>
   </g>
   <g id="line2d_81">
    <path clip-path="url(#p33912fea18)" d="M -1 280.186931 
L 154.268186 280.186931 
L 154.268186 279.388515 
L 219.105546 279.388515 
L 219.105546 278.590099 
L 253.106747 278.590099 
L 253.106747 277.791683 
L 274.450099 277.791683 
L 274.450099 276.993267 
L 277.52099 276.993267 
L 277.52099 276.194851 
L 301.124576 276.194851 
L 301.124576 275.396436 
L 313.27958 275.396436 
L 313.27958 274.59802 
L 313.546341 274.59802 
L 313.546341 273.799604 
L 331.78313 273.799604 
L 331.78313 273.001188 
L 332.61437 273.001188 
L 332.61437 272.202772 
L 332.923731 272.202772 
L 332.923731 271.404356 
L 368.241799 271.404356 
L 368.241799 270.605941 
L 368.754854 270.605941 
L 368.754854 269.807525 
L 374.948055 269.807525 
L 374.948055 269.009109 
L 403.743118 269.009109 
L 403.743118 268.210693 
L 408.562984 268.210693 
L 408.562984 267.412277 
L 419.152032 267.412277 
L 419.152032 266.613861 
L 424.455414 266.613861 
L 424.455414 265.815446 
L 430.850952 265.815446 
L 430.850952 265.01703 
L 438.206356 265.01703 
L 438.206356 264.218614 
L 438.939045 264.218614 
L 438.939045 263.420198 
L 453.913535 263.420198 
L 453.913535 262.621782 
L 458.72216 262.621782 
L 458.72216 261.823366 
L 458.72216 261.823366 
L 458.72216 261.823366 
L 460.8 261.823366 
" style="fill:none;stroke:#000000;stroke-linecap:square;stroke-width:1.5;"/>
   </g>
   <g id="line2d_82">
    <path clip-path="url(#p33912fea18)" style="fill:none;stroke:#000000;stroke-linecap:square;stroke-width:1.5;"/>
   </g>
   <g id="line2d_83">
    <path clip-path="url(#p33912fea18)" d="M 320.291343 293.76 
L 320.291343 292.961584 
L 325.009275 292.961584 
L 325.009275 292.163168 
L 334.148611 292.163168 
L 334.148611 291.364752 
L 339.614928 291.364752 
L 339.614928 290.566337 
L 343.200003 290.566337 
L 343.200003 289.767921 
L 350.711818 289.767921 
L 350.711818 288.969505 
L 354.821843 288.969505 
L 354.821843 288.171089 
L 357.392643 288.171089 
L 357.392643 287.372673 
L 358.205909 287.372673 
L 358.205909 286.574257 
L 368.306122 286.574257 
L 368.306122 285.775842 
L 374.594048 285.775842 
L 374.594048 284.977426 
L 378.623968 284.977426 
L 378.623968 284.17901 
L 381.753133 284.17901 
L 381.753133 283.380594 
L 387.446979 283.380594 
L 387.446979 282.582178 
L 406.463152 282.582178 
L 406.463152 281.783762 
L 406.463152 281.783762 
L 406.463152 281.783762 
L 460.8 281.783762 
" style="fill:none;stroke:#00bfbf;stroke-linecap:square;stroke-width:1.5;"/>
   </g>
   <g id="line2d_84">
    <path clip-path="url(#p33912fea18)" style="fill:none;stroke:#00bfbf;stroke-linecap:square;stroke-width:1.5;"/>
   </g>
   <g id="line2d_85"/>
   <g id="line2d_86"/>
   <g id="line2d_87">
    <path clip-path="url(#p33912fea18)" d="M 460.8 293.76 
L 460.8 3.456 
" style="fill:none;stroke:#000000;stroke-linecap:square;stroke-width:1.5;"/>
   </g>
   <g id="patch_3">
    <path d="M 62.208 293.76 
L 62.208 3.456 
" style="fill:none;stroke:#000000;stroke-linecap:square;stroke-linejoin:miter;stroke-width:0.8;"/>
   </g>
   <g id="patch_4">
    <path d="M 460.8 293.76 
L 460.8 3.456 
" style="fill:none;stroke:#000000;stroke-linecap:square;stroke-linejoin:miter;stroke-width:0.8;"/>
   </g>
   <g id="patch_5">
    <path d="M 62.208 293.76 
L 460.8 293.76 
" style="fill:none;stroke:#000000;stroke-linecap:square;stroke-linejoin:miter;stroke-width:0.8;"/>
   </g>
   <g id="patch_6">
    <path d="M 62.208 3.456 
L 460.8 3.456 
" style="fill:none;stroke:#000000;stroke-linecap:square;stroke-linejoin:miter;stroke-width:0.8;"/>
   </g>
   <g id="text_11">
    <!-- {f1-f24}, 20-D -->
    <g transform="translate(188.654 24.458955)scale(0.2 -0.2)">
     <defs>
      <path d="M 51.125 -9.28125 
L 51.125 -16.3125 
L 48.09375 -16.3125 
Q 35.9375 -16.3125 31.8125 -12.6875 
Q 27.6875 -9.078125 27.6875 1.703125 
L 27.6875 13.375 
Q 27.6875 20.75 25.046875 23.578125 
Q 22.40625 26.421875 15.484375 26.421875 
L 12.5 26.421875 
L 12.5 33.40625 
L 15.484375 33.40625 
Q 22.46875 33.40625 25.078125 36.203125 
Q 27.6875 39.015625 27.6875 46.296875 
L 27.6875 58.015625 
Q 27.6875 68.796875 31.8125 72.390625 
Q 35.9375 75.984375 48.09375 75.984375 
L 51.125 75.984375 
L 51.125 69 
L 47.796875 69 
Q 40.921875 69 38.8125 66.84375 
Q 36.71875 64.703125 36.71875 57.8125 
L 36.71875 45.703125 
Q 36.71875 38.03125 34.5 34.5625 
Q 32.28125 31.109375 26.90625 29.890625 
Q 32.328125 28.5625 34.515625 25.09375 
Q 36.71875 21.625 36.71875 14.015625 
L 36.71875 1.90625 
Q 36.71875 -4.984375 38.8125 -7.125 
Q 40.921875 -9.28125 47.796875 -9.28125 
z
" id="DejaVuSans-123"/>
      <path d="M 4.890625 31.390625 
L 31.203125 31.390625 
L 31.203125 23.390625 
L 4.890625 23.390625 
z
" id="DejaVuSans-45"/>
      <path d="M 12.5 -9.28125 
L 15.921875 -9.28125 
Q 22.75 -9.28125 24.828125 -7.171875 
Q 26.90625 -5.078125 26.90625 1.90625 
L 26.90625 14.015625 
Q 26.90625 21.625 29.09375 25.09375 
Q 31.296875 28.5625 36.71875 29.890625 
Q 31.296875 31.109375 29.09375 34.5625 
Q 26.90625 38.03125 26.90625 45.703125 
L 26.90625 57.8125 
Q 26.90625 64.75 24.828125 66.875 
Q 22.75 69 15.921875 69 
L 12.5 69 
L 12.5 75.984375 
L 15.578125 75.984375 
Q 27.734375 75.984375 31.8125 72.390625 
Q 35.890625 68.796875 35.890625 58.015625 
L 35.890625 46.296875 
Q 35.890625 39.015625 38.515625 36.203125 
Q 41.15625 33.40625 48.09375 33.40625 
L 51.125 33.40625 
L 51.125 26.421875 
L 48.09375 26.421875 
Q 41.15625 26.421875 38.515625 23.578125 
Q 35.890625 20.75 35.890625 13.375 
L 35.890625 1.703125 
Q 35.890625 -9.078125 31.8125 -12.6875 
Q 27.734375 -16.3125 15.578125 -16.3125 
L 12.5 -16.3125 
z
" id="DejaVuSans-125"/>
      <path d="M 11.71875 12.40625 
L 22.015625 12.40625 
L 22.015625 4 
L 14.015625 -11.625 
L 7.71875 -11.625 
L 11.71875 4 
z
" id="DejaVuSans-44"/>
     </defs>
     <use xlink:href="#DejaVuSans-123"/>
     <use x="63.623047" xlink:href="#DejaVuSans-102"/>
     <use x="98.828125" xlink:href="#DejaVuSans-49"/>
     <use x="162.451172" xlink:href="#DejaVuSans-45"/>
     <use x="198.535156" xlink:href="#DejaVuSans-102"/>
     <use x="233.740234" xlink:href="#DejaVuSans-50"/>
     <use x="297.363281" xlink:href="#DejaVuSans-52"/>
     <use x="360.986328" xlink:href="#DejaVuSans-125"/>
     <use x="424.609375" xlink:href="#DejaVuSans-44"/>
     <use x="456.396484" xlink:href="#DejaVuSans-32"/>
     <use x="488.183594" xlink:href="#DejaVuSans-50"/>
     <use x="551.806641" xlink:href="#DejaVuSans-48"/>
     <use x="615.429688" xlink:href="#DejaVuSans-45"/>
     <use x="651.513672" xlink:href="#DejaVuSans-68"/>
    </g>
   </g>
   <g id="text_12">
    <!-- absolute targets -->
    <g transform="translate(62.208 607.73703)scale(0.14 -0.14)">
     <defs>
      <path d="M 48.6875 27.296875 
Q 48.6875 37.203125 44.609375 42.84375 
Q 40.53125 48.484375 33.40625 48.484375 
Q 26.265625 48.484375 22.1875 42.84375 
Q 18.109375 37.203125 18.109375 27.296875 
Q 18.109375 17.390625 22.1875 11.75 
Q 26.265625 6.109375 33.40625 6.109375 
Q 40.53125 6.109375 44.609375 11.75 
Q 48.6875 17.390625 48.6875 27.296875 
z
M 18.109375 46.390625 
Q 20.953125 51.265625 25.265625 53.625 
Q 29.59375 56 35.59375 56 
Q 45.5625 56 51.78125 48.09375 
Q 58.015625 40.1875 58.015625 27.296875 
Q 58.015625 14.40625 51.78125 6.484375 
Q 45.5625 -1.421875 35.59375 -1.421875 
Q 29.59375 -1.421875 25.265625 0.953125 
Q 20.953125 3.328125 18.109375 8.203125 
L 18.109375 0 
L 9.078125 0 
L 9.078125 75.984375 
L 18.109375 75.984375 
z
" id="DejaVuSans-98"/>
      <path d="M 8.5 21.578125 
L 8.5 54.6875 
L 17.484375 54.6875 
L 17.484375 21.921875 
Q 17.484375 14.15625 20.5 10.265625 
Q 23.53125 6.390625 29.59375 6.390625 
Q 36.859375 6.390625 41.078125 11.03125 
Q 45.3125 15.671875 45.3125 23.6875 
L 45.3125 54.6875 
L 54.296875 54.6875 
L 54.296875 0 
L 45.3125 0 
L 45.3125 8.40625 
Q 42.046875 3.421875 37.71875 1 
Q 33.40625 -1.421875 27.6875 -1.421875 
Q 18.265625 -1.421875 13.375 4.4375 
Q 8.5 10.296875 8.5 21.578125 
z
M 31.109375 56 
z
" id="DejaVuSans-117"/>
      <path d="M 56.203125 29.59375 
L 56.203125 25.203125 
L 14.890625 25.203125 
Q 15.484375 15.921875 20.484375 11.0625 
Q 25.484375 6.203125 34.421875 6.203125 
Q 39.59375 6.203125 44.453125 7.46875 
Q 49.3125 8.734375 54.109375 11.28125 
L 54.109375 2.78125 
Q 49.265625 0.734375 44.1875 -0.34375 
Q 39.109375 -1.421875 33.890625 -1.421875 
Q 20.796875 -1.421875 13.15625 6.1875 
Q 5.515625 13.8125 5.515625 26.8125 
Q 5.515625 40.234375 12.765625 48.109375 
Q 20.015625 56 32.328125 56 
Q 43.359375 56 49.78125 48.890625 
Q 56.203125 41.796875 56.203125 29.59375 
z
M 47.21875 32.234375 
Q 47.125 39.59375 43.09375 43.984375 
Q 39.0625 48.390625 32.421875 48.390625 
Q 24.90625 48.390625 20.390625 44.140625 
Q 15.875 39.890625 15.1875 32.171875 
z
" id="DejaVuSans-101"/>
     </defs>
     <use xlink:href="#DejaVuSans-97"/>
     <use x="61.279297" xlink:href="#DejaVuSans-98"/>
     <use x="124.755859" xlink:href="#DejaVuSans-115"/>
     <use x="176.855469" xlink:href="#DejaVuSans-111"/>
     <use x="238.037109" xlink:href="#DejaVuSans-108"/>
     <use x="265.820312" xlink:href="#DejaVuSans-117"/>
     <use x="329.199219" xlink:href="#DejaVuSans-116"/>
     <use x="368.408203" xlink:href="#DejaVuSans-101"/>
     <use x="429.931641" xlink:href="#DejaVuSans-32"/>
     <use x="461.71875" xlink:href="#DejaVuSans-116"/>
     <use x="500.927734" xlink:href="#DejaVuSans-97"/>
     <use x="562.207031" xlink:href="#DejaVuSans-114"/>
     <use x="601.570312" xlink:href="#DejaVuSans-103"/>
     <use x="665.046875" xlink:href="#DejaVuSans-101"/>
     <use x="726.570312" xlink:href="#DejaVuSans-116"/>
     <use x="765.779297" xlink:href="#DejaVuSans-115"/>
    </g>
   </g>
   <g id="text_13">
    <!-- v2.4 -->
    <g style="fill:#808080;" transform="translate(250.593063 288.777272)scale(0.1 -0.1)">
     <use xlink:href="#DejaVuSans-118"/>
     <use x="59.179688" xlink:href="#DejaVuSans-50"/>
     <use x="122.802734" xlink:href="#DejaVuSans-46"/>
     <use x="154.589844" xlink:href="#DejaVuSans-52"/>
    </g>
   </g>
   <g id="legend_1">
    <g id="patch_7">
     <path d="M 304.853125 136.881 
L 446.8 136.881 
Q 450.8 136.881 450.8 132.881 
L 450.8 17.456 
Q 450.8 13.456 446.8 13.456 
L 304.853125 13.456 
Q 300.853125 13.456 300.853125 17.456 
L 300.853125 132.881 
Q 300.853125 136.881 304.853125 136.881 
z
" style="fill:#ffffff;opacity:0.2;stroke:#cccccc;stroke-linejoin:miter;"/>
    </g>
    <g id="line2d_88">
     <path d="M 308.853125 29.652875 
L 348.853125 29.652875 
" style="fill:none;stroke:#000000;stroke-linecap:square;stroke-width:1.5;"/>
    </g>
    <g id="line2d_89"/>
    <g id="text_14">
     <!-- 1: 5/24 -->
     <g transform="translate(364.853125 36.652875)scale(0.2 -0.2)">
      <defs>
       <path d="M 11.71875 12.40625 
L 22.015625 12.40625 
L 22.015625 0 
L 11.71875 0 
z
M 11.71875 51.703125 
L 22.015625 51.703125 
L 22.015625 39.3125 
L 11.71875 39.3125 
z
" id="DejaVuSans-58"/>
       <path d="M 10.796875 72.90625 
L 49.515625 72.90625 
L 49.515625 64.59375 
L 19.828125 64.59375 
L 19.828125 46.734375 
Q 21.96875 47.46875 24.109375 47.828125 
Q 26.265625 48.1875 28.421875 48.1875 
Q 40.625 48.1875 47.75 41.5 
Q 54.890625 34.8125 54.890625 23.390625 
Q 54.890625 11.625 47.5625 5.09375 
Q 40.234375 -1.421875 26.90625 -1.421875 
Q 22.3125 -1.421875 17.546875 -0.640625 
Q 12.796875 0.140625 7.71875 1.703125 
L 7.71875 11.625 
Q 12.109375 9.234375 16.796875 8.0625 
Q 21.484375 6.890625 26.703125 6.890625 
Q 35.15625 6.890625 40.078125 11.328125 
Q 45.015625 15.765625 45.015625 23.390625 
Q 45.015625 31 40.078125 35.4375 
Q 35.15625 39.890625 26.703125 39.890625 
Q 22.75 39.890625 18.8125 39.015625 
Q 14.890625 38.140625 10.796875 36.28125 
z
" id="DejaVuSans-53"/>
      </defs>
      <use xlink:href="#DejaVuSans-49"/>
      <use x="63.623047" xlink:href="#DejaVuSans-58"/>
      <use x="97.314453" xlink:href="#DejaVuSans-32"/>
      <use x="129.101562" xlink:href="#DejaVuSans-53"/>
      <use x="192.724609" xlink:href="#DejaVuSans-47"/>
      <use x="226.416016" xlink:href="#DejaVuSans-50"/>
      <use x="290.039062" xlink:href="#DejaVuSans-52"/>
     </g>
    </g>
    <g id="line2d_90">
     <path d="M 308.853125 59.009125 
L 348.853125 59.009125 
" style="fill:none;stroke:#00bfbf;stroke-linecap:square;stroke-width:1.5;"/>
    </g>
    <g id="line2d_91"/>
    <g id="text_15">
     <!-- -1: 1/24 -->
     <g transform="translate(364.853125 66.009125)scale(0.2 -0.2)">
      <use xlink:href="#DejaVuSans-45"/>
      <use x="36.083984" xlink:href="#DejaVuSans-49"/>
      <use x="99.707031" xlink:href="#DejaVuSans-58"/>
      <use x="133.398438" xlink:href="#DejaVuSans-32"/>
      <use x="165.185547" xlink:href="#DejaVuSans-49"/>
      <use x="228.808594" xlink:href="#DejaVuSans-47"/>
      <use x="262.5" xlink:href="#DejaVuSans-50"/>
      <use x="326.123047" xlink:href="#DejaVuSans-52"/>
     </g>
    </g>
    <g id="line2d_92">
     <path d="M 308.853125 88.365375 
L 348.853125 88.365375 
" style="fill:none;stroke:#bf00bf;stroke-linecap:square;stroke-width:1.5;"/>
    </g>
    <g id="line2d_93"/>
    <g id="text_16">
     <!-- -4: 0/24 -->
     <g transform="translate(364.853125 95.365375)scale(0.2 -0.2)">
      <use xlink:href="#DejaVuSans-45"/>
      <use x="36.083984" xlink:href="#DejaVuSans-52"/>
      <use x="99.707031" xlink:href="#DejaVuSans-58"/>
      <use x="133.398438" xlink:href="#DejaVuSans-32"/>
      <use x="165.185547" xlink:href="#DejaVuSans-48"/>
      <use x="228.808594" xlink:href="#DejaVuSans-47"/>
      <use x="262.5" xlink:href="#DejaVuSans-50"/>
      <use x="326.123047" xlink:href="#DejaVuSans-52"/>
     </g>
    </g>
    <g id="line2d_94">
     <path d="M 308.853125 117.721625 
L 348.853125 117.721625 
" style="fill:none;stroke:#ff0000;stroke-linecap:square;stroke-width:3;"/>
    </g>
    <g id="line2d_95"/>
    <g id="text_17">
     <!-- -8: 0/24 -->
     <g transform="translate(364.853125 124.721625)scale(0.2 -0.2)">
      <use xlink:href="#DejaVuSans-45"/>
      <use x="36.083984" xlink:href="#DejaVuSans-56"/>
      <use x="99.707031" xlink:href="#DejaVuSans-58"/>
      <use x="133.398438" xlink:href="#DejaVuSans-32"/>
      <use x="165.185547" xlink:href="#DejaVuSans-48"/>
      <use x="228.808594" xlink:href="#DejaVuSans-47"/>
      <use x="262.5" xlink:href="#DejaVuSans-50"/>
      <use x="326.123047" xlink:href="#DejaVuSans-52"/>
     </g>
    </g>
   </g>
  </g>
 </g>
 <defs>
  <clipPath id="p33912fea18">
   <rect height="290.304" width="398.592" x="62.208" y="3.456"/>
  </clipPath>
 </defs>
</svg>
