<?xml version="1.0" encoding="utf-8" standalone="no"?>
<!DOCTYPE svg PUBLIC "-//W3C//DTD SVG 1.1//EN"
  "http://www.w3.org/Graphics/SVG/1.1/DTD/svg11.dtd">
<!-- Created with matplotlib (https://matplotlib.org/) -->
<svg height="345.6pt" version="1.1" viewBox="0 0 460.8 345.6" width="460.8pt" xmlns="http://www.w3.org/2000/svg" xmlns:xlink="http://www.w3.org/1999/xlink">
 <metadata>
  <rdf:RDF xmlns:cc="http://creativecommons.org/ns#" xmlns:dc="http://purl.org/dc/elements/1.1/" xmlns:rdf="http://www.w3.org/1999/02/22-rdf-syntax-ns#">
   <cc:Work>
    <dc:type rdf:resource="http://purl.org/dc/dcmitype/StillImage"/>
    <dc:date>2021-08-04T15:01:39.073573</dc:date>
    <dc:format>image/svg+xml</dc:format>
    <dc:creator>
     <cc:Agent>
      <dc:title>Matplotlib v3.3.1, https://matplotlib.org/</dc:title>
     </cc:Agent>
    </dc:creator>
   </cc:Work>
  </rdf:RDF>
 </metadata>
 <defs>
  <style type="text/css">*{stroke-linecap:butt;stroke-linejoin:round;}</style>
 </defs>
 <g id="figure_1">
  <g id="patch_1">
   <path d="M 0 345.6 
L 460.8 345.6 
L 460.8 0 
L 0 0 
z
" style="fill:#ffffff;"/>
  </g>
  <g id="axes_1">
   <g id="patch_2">
    <path d="M 62.208 293.76 
L 460.8 293.76 
L 460.8 3.456 
L 62.208 3.456 
z
" style="fill:#ffffff;"/>
   </g>
   <g id="line2d_1">
    <path clip-path="url(#p65b7ba35ca)" d="M 375.490073 293.76 
L 375.490073 292.163168 
L 375.955807 292.163168 
L 375.955807 289.767921 
L 376.187596 289.767921 
L 376.187596 288.171089 
L 376.878711 288.171089 
L 376.878711 287.372673 
L 378.914749 287.372673 
L 378.914749 285.775842 
L 380.24212 285.775842 
L 380.24212 284.977426 
L 380.897124 284.977426 
L 380.897124 284.17901 
L 383.251151 284.17901 
L 383.251151 283.380594 
L 385.941409 283.380594 
L 385.941409 282.582178 
L 388.144957 282.582178 
L 388.144957 281.783762 
L 391.805343 281.783762 
L 391.805343 280.985347 
L 398.803029 280.985347 
L 398.803029 280.186931 
L 400.998032 280.186931 
L 400.998032 279.388515 
L 403.614495 279.388515 
L 403.614495 278.590099 
L 403.935245 278.590099 
L 403.935245 277.791683 
L 404.57267 277.791683 
L 404.57267 276.993267 
L 404.889369 276.993267 
L 404.889369 276.194851 
L 406.607768 276.194851 
L 406.607768 275.396436 
L 407.069687 275.396436 
L 407.069687 273.799604 
L 407.376066 273.799604 
L 407.376066 273.001188 
L 408.136595 273.001188 
L 408.136595 272.202772 
L 408.287783 272.202772 
L 408.287783 271.404356 
L 409.188581 271.404356 
L 409.188581 269.807525 
L 410.226055 269.807525 
L 410.226055 269.009109 
L 410.666344 269.009109 
L 410.666344 267.412277 
L 411.68377 267.412277 
L 411.68377 266.613861 
L 413.255286 266.613861 
L 413.255286 265.815446 
L 417.113349 265.815446 
L 417.113349 265.01703 
L 422.302698 265.01703 
L 422.302698 264.218614 
L 429.926 264.218614 
L 429.926 263.420198 
L 430.152213 263.420198 
L 430.152213 262.621782 
L 430.602608 262.621782 
L 430.602608 261.02495 
L 431.827466 261.02495 
L 431.827466 260.226535 
L 432.04804 260.226535 
L 432.04804 259.428119 
L 434.85815 259.428119 
L 434.85815 258.629703 
L 437.259411 258.629703 
L 437.259411 257.831287 
L 441.552915 257.831287 
L 441.552915 257.032871 
L 442.325355 257.032871 
L 442.325355 256.234455 
L 442.994794 256.234455 
L 442.994794 255.43604 
L 444.875285 255.43604 
L 444.968087 253.839208 
L 445.245807 253.839208 
L 445.245807 253.040792 
L 446.255429 253.040792 
L 446.255429 252.242376 
L 447.700193 252.242376 
L 447.700193 251.44396 
L 448.14605 251.44396 
L 448.14605 250.645545 
L 448.589279 250.645545 
L 448.589279 249.847129 
L 449.117729 249.847129 
L 449.205444 248.250297 
L 449.380568 248.250297 
L 449.380568 246.653465 
L 449.642492 246.653465 
L 449.642492 245.85505 
L 450.852886 245.85505 
L 450.938602 244.258218 
L 451.280492 244.258218 
L 451.280492 243.459802 
L 451.875086 243.459802 
L 451.875086 241.86297 
L 452.967014 241.86297 
L 452.967014 241.064554 
L 453.713784 241.064554 
L 453.713784 240.266139 
L 453.878731 240.266139 
L 453.878731 239.467723 
L 454.371412 239.467723 
L 454.371412 238.669307 
L 455.266364 238.669307 
L 455.266364 237.870891 
L 455.669667 237.870891 
L 455.750068 234.677228 
L 456.230682 234.677228 
L 456.230682 233.080396 
L 458.123001 233.080396 
L 458.123001 232.28198 
L 459.435161 232.28198 
L 459.435161 231.483564 
L 459.588039 231.483564 
L 459.588039 230.685149 
L 460.272168 230.685149 
L 460.272168 229.886733 
L 461.398735 229.886733 
L 461.398735 229.088317 
L 461.8 229.088317 
L 461.8 229.088317 
" style="fill:none;stroke:#f5deb3;stroke-linecap:square;stroke-width:1.5;"/>
   </g>
   <g id="line2d_2">
    <path clip-path="url(#p65b7ba35ca)" d="M 308.416472 293.76 
L 308.416472 291.364752 
L 308.416472 291.364752 
L 308.416472 288.969505 
L 308.98414 288.969505 
L 308.98414 286.574257 
L 308.98414 286.574257 
L 308.98414 284.17901 
L 308.98414 284.17901 
L 308.98414 281.783762 
L 461.8 281.783762 
" style="fill:none;stroke:#f5deb3;stroke-linecap:square;stroke-width:1.5;"/>
   </g>
   <g id="line2d_3">
    <path clip-path="url(#p65b7ba35ca)" d="M 173.647971 293.76 
L 173.647971 278.590099 
L 176.991443 278.590099 
L 176.991443 276.194851 
L 180.192595 276.194851 
L 180.192595 274.59802 
L 183.263052 274.59802 
L 183.263052 272.202772 
L 186.213066 272.202772 
L 186.213066 271.404356 
L 189.051733 271.404356 
L 189.051733 270.605941 
L 201.830813 270.605941 
L 201.830813 269.807525 
L 260.70663 269.807525 
L 260.70663 269.009109 
L 262.825523 269.009109 
L 262.825523 268.210693 
L 282.07574 268.210693 
L 282.07574 267.412277 
L 282.880194 267.412277 
L 282.880194 266.613861 
L 317.528435 266.613861 
L 317.528435 265.815446 
L 326.555653 265.815446 
L 326.555653 265.01703 
L 354.00742 265.01703 
L 354.00742 264.218614 
L 354.317589 264.218614 
L 354.317589 263.420198 
L 355.84953 263.420198 
L 355.84953 262.621782 
L 359.692427 262.621782 
L 359.692427 261.823366 
L 362.242357 261.823366 
L 362.242357 261.02495 
L 364.977776 261.02495 
L 364.977776 260.226535 
L 368.134144 260.226535 
L 368.134144 259.428119 
L 369.915988 259.428119 
L 369.915988 258.629703 
L 370.417428 258.629703 
L 370.417428 257.831287 
L 370.915547 257.831287 
L 370.915547 257.032871 
L 372.875677 257.032871 
L 372.875677 256.234455 
L 374.075315 256.234455 
L 374.075315 255.43604 
L 376.878711 255.43604 
L 376.878711 254.637624 
L 379.359814 254.637624 
L 379.359814 253.040792 
L 385.533734 253.040792 
L 385.533734 252.242376 
L 385.941409 252.242376 
L 385.941409 251.44396 
L 387.947281 251.44396 
L 387.947281 250.645545 
L 390.859221 250.645545 
L 390.859221 249.847129 
L 393.845846 249.847129 
L 393.845846 249.048713 
L 397.594024 249.048713 
L 397.594024 248.250297 
L 400.497148 248.250297 
L 400.497148 247.451881 
L 402.15395 247.451881 
L 402.15395 246.653465 
L 402.643956 246.653465 
L 402.643956 245.85505 
L 402.968863 245.85505 
L 402.968863 244.258218 
L 403.935245 244.258218 
L 403.935245 243.459802 
L 404.889369 243.459802 
L 404.889369 242.661386 
L 406.762056 242.661386 
L 406.762056 241.86297 
L 417.648695 241.86297 
L 417.648695 241.064554 
L 418.83947 241.064554 
L 418.83947 240.266139 
L 425.373155 240.266139 
L 425.373155 239.467723 
L 430.826798 239.467723 
L 430.826798 238.669307 
L 431.273184 238.669307 
L 431.273184 237.870891 
L 432.04804 237.870891 
L 432.04804 237.072475 
L 437.669307 237.072475 
L 437.669307 236.274059 
L 438.279993 236.274059 
L 438.279993 235.475644 
L 438.583487 235.475644 
L 438.583487 234.677228 
L 441.552915 234.677228 
L 441.552915 233.878812 
L 442.612987 233.878812 
L 442.612987 233.080396 
L 444.875285 233.080396 
L 444.875285 232.28198 
L 445.88986 232.28198 
L 445.88986 231.483564 
L 446.61923 231.483564 
L 446.61923 230.685149 
L 447.071521 230.685149 
L 447.071521 229.886733 
L 449.380568 229.886733 
L 449.380568 229.088317 
L 451.280492 229.088317 
L 451.280492 228.289901 
L 451.875086 228.289901 
L 451.875086 227.491485 
L 452.632721 227.491485 
L 452.632721 226.693069 
L 461.8 226.693069 
L 461.8 226.693069 
" style="fill:none;stroke:#f5deb3;stroke-linecap:square;stroke-width:1.5;"/>
   </g>
   <g id="line2d_4">
    <path clip-path="url(#p65b7ba35ca)" d="M 128.057022 293.76 
L 128.057022 292.961584 
L 158.554377 292.961584 
L 158.554377 292.163168 
L 176.991443 292.163168 
L 176.991443 291.364752 
L 180.192595 291.364752 
L 180.192595 290.566337 
L 189.051733 290.566337 
L 189.051733 289.767921 
L 196.976501 289.767921 
L 196.976501 288.969505 
L 201.830813 288.969505 
L 201.830813 288.171089 
L 204.145326 288.171089 
L 204.145326 285.775842 
L 210.68995 285.775842 
L 210.68995 284.977426 
L 216.710421 284.977426 
L 216.710421 284.17901 
L 218.614719 284.17901 
L 218.614719 283.380594 
L 224.05437 283.380594 
L 224.05437 282.582178 
L 235.398624 282.582178 
L 235.398624 281.783762 
L 374.075315 281.783762 
L 374.075315 280.985347 
L 375.7233 280.985347 
L 375.7233 280.186931 
L 388.342115 280.186931 
L 388.342115 279.388515 
L 392.553765 279.388515 
L 392.553765 278.590099 
L 395.116106 278.590099 
L 395.116106 277.791683 
L 396.010477 277.791683 
L 396.010477 276.993267 
L 396.188082 276.993267 
L 396.188082 276.194851 
L 396.718395 276.194851 
L 396.718395 275.396436 
L 397.069871 275.396436 
L 397.069871 274.59802 
L 398.114551 274.59802 
L 398.114551 273.799604 
L 398.459577 273.799604 
L 398.459577 273.001188 
L 399.144919 273.001188 
L 399.144919 272.202772 
L 400.831441 272.202772 
L 400.831441 271.404356 
L 404.57267 271.404356 
L 404.57267 270.605941 
L 404.889369 270.605941 
L 404.889369 269.807525 
L 406.142993 269.807525 
L 406.142993 269.009109 
L 410.226055 269.009109 
L 410.226055 268.210693 
L 414.794639 268.210693 
L 414.794639 267.412277 
L 414.93303 267.412277 
L 414.93303 266.613861 
L 420.269717 266.613861 
L 420.269717 265.815446 
L 453.133605 265.815446 
L 453.133605 265.01703 
L 455.266364 265.01703 
L 455.266364 264.218614 
L 461.8 264.218614 
L 461.8 264.218614 
" style="fill:none;stroke:#f5deb3;stroke-linecap:square;stroke-width:1.5;"/>
   </g>
   <g id="line2d_5">
    <path clip-path="url(#p65b7ba35ca)" d="M 397.244995 293.76 
L 397.244995 292.961584 
L 414.238512 292.961584 
L 414.238512 292.163168 
L 416.709324 292.163168 
L 416.709324 291.364752 
L 420.140813 291.364752 
L 420.140813 290.566337 
L 422.05156 290.566337 
L 422.05156 289.767921 
L 432.377693 289.767921 
L 432.377693 288.969505 
L 443.089943 288.969505 
L 443.089943 288.171089 
L 443.184973 288.171089 
L 443.184973 287.372673 
L 445.88986 287.372673 
L 445.88986 286.574257 
L 450.077015 286.574257 
L 450.077015 285.775842 
L 461.8 285.775842 
" style="fill:none;stroke:#f5deb3;stroke-linecap:square;stroke-width:1.5;"/>
   </g>
   <g id="line2d_6"/>
   <g id="line2d_7">
    <path clip-path="url(#p65b7ba35ca)" d="M 303.10492 293.76 
L 303.10492 292.961584 
L 305.512029 292.961584 
L 305.512029 292.163168 
L 311.212918 292.163168 
L 311.212918 291.364752 
L 313.909111 291.364752 
L 313.909111 290.566337 
L 315.481622 290.566337 
L 315.481622 289.767921 
L 319.027802 289.767921 
L 319.027802 288.171089 
L 320.011028 288.171089 
L 320.011028 287.372673 
L 320.497863 287.372673 
L 320.497863 286.574257 
L 321.462181 286.574257 
L 321.462181 285.775842 
L 324.283101 285.775842 
L 324.283101 284.977426 
L 326.106602 284.977426 
L 326.106602 284.17901 
L 326.555653 284.17901 
L 326.555653 283.380594 
L 327.886939 283.380594 
L 327.886939 282.582178 
L 332.988266 282.582178 
L 332.988266 281.783762 
L 421.293076 281.783762 
L 421.293076 280.985347 
L 434.4326 280.985347 
L 434.4326 280.186931 
L 437.567043 280.186931 
L 437.567043 279.388515 
L 438.279993 279.388515 
L 438.279993 278.590099 
L 442.517232 278.590099 
L 442.517232 277.791683 
L 443.846838 277.791683 
L 443.846838 276.993267 
L 444.316058 276.993267 
L 444.316058 276.194851 
L 445.245807 276.194851 
L 445.245807 275.396436 
L 445.706407 275.396436 
L 445.706407 273.799604 
L 446.255429 273.799604 
L 446.255429 273.001188 
L 446.61923 273.001188 
L 446.61923 272.202772 
L 447.341596 272.202772 
L 447.341596 271.404356 
L 448.05709 271.404356 
L 448.05709 270.605941 
L 448.765841 270.605941 
L 448.765841 269.807525 
L 449.380568 269.807525 
L 449.380568 269.009109 
L 449.642492 269.009109 
L 449.642492 268.210693 
L 452.04411 268.210693 
L 452.04411 267.412277 
L 452.465016 267.412277 
L 452.465016 266.613861 
L 453.216762 266.613861 
L 453.216762 265.815446 
L 455.990759 265.815446 
L 455.990759 265.01703 
L 457.810902 265.01703 
L 457.810902 264.218614 
L 461.8 264.218614 
L 461.8 264.218614 
" style="fill:none;stroke:#f5deb3;stroke-linecap:square;stroke-width:1.5;"/>
   </g>
   <g id="line2d_8">
    <path clip-path="url(#p65b7ba35ca)" d="M 0 0 
" style="fill:none;stroke:#f5deb3;stroke-linecap:square;stroke-width:1.5;"/>
   </g>
   <g id="line2d_9">
    <path clip-path="url(#p65b7ba35ca)" d="M 208.571057 293.76 
L 208.571057 292.961584 
L 216.710421 292.961584 
L 216.710421 292.163168 
L 222.284507 292.163168 
L 222.284507 291.364752 
L 230.744621 291.364752 
L 230.744621 290.566337 
L 232.328168 290.566337 
L 232.328168 289.767921 
L 250.355337 289.767921 
L 250.355337 288.969505 
L 255.132545 288.969505 
L 255.132545 288.171089 
L 265.89598 288.171089 
L 265.89598 286.574257 
L 270.750292 286.574257 
L 270.750292 284.977426 
L 275.310217 284.977426 
L 275.310217 284.17901 
L 276.189943 284.17901 
L 276.189943 283.380594 
L 277.059499 283.380594 
L 277.059499 282.582178 
L 277.919117 282.582178 
L 277.919117 281.783762 
L 388.342115 281.783762 
L 388.342115 280.985347 
L 403.453606 280.985347 
L 403.453606 280.186931 
L 412.545029 280.186931 
L 412.545029 279.388515 
L 421.673274 279.388515 
L 421.673274 278.590099 
L 428.091379 278.590099 
L 428.091379 277.791683 
L 428.438797 277.791683 
L 428.438797 276.993267 
L 430.602608 276.993267 
L 430.602608 276.194851 
L 432.814995 276.194851 
L 432.814995 275.396436 
L 433.682045 275.396436 
L 433.682045 274.59802 
L 433.897255 274.59802 
L 433.897255 273.799604 
L 435.17574 273.799604 
L 435.17574 273.001188 
L 435.911609 273.001188 
L 435.911609 272.202772 
L 436.224791 272.202772 
L 436.224791 271.404356 
L 436.847269 271.404356 
L 436.847269 270.605941 
L 438.076982 270.605941 
L 438.076982 269.807525 
L 438.381294 269.807525 
L 438.381294 269.009109 
L 438.785138 269.009109 
L 438.785138 268.210693 
L 440.082853 268.210693 
L 440.082853 267.412277 
L 440.772459 267.412277 
L 440.772459 266.613861 
L 444.875285 266.613861 
L 444.968087 265.01703 
L 445.614512 265.01703 
L 445.614512 264.218614 
L 461.8 264.218614 
L 461.8 264.218614 
" style="fill:none;stroke:#f5deb3;stroke-linecap:square;stroke-width:1.5;"/>
   </g>
   <g id="line2d_10">
    <path clip-path="url(#p65b7ba35ca)" d="M 288.282619 293.76 
L 288.282619 292.961584 
L 301.871847 292.961584 
L 301.871847 292.163168 
L 302.49091 292.163168 
L 302.49091 289.767921 
L 304.917435 289.767921 
L 304.917435 288.969505 
L 306.687298 288.969505 
L 306.687298 288.171089 
L 314.436943 288.171089 
L 314.436943 287.372673 
L 315.481622 287.372673 
L 315.481622 286.574257 
L 325.654855 286.574257 
L 325.654855 285.775842 
L 330.904594 285.775842 
L 330.904594 284.977426 
L 343.339558 284.977426 
L 343.339558 284.17901 
L 343.696878 284.17901 
L 343.696878 283.380594 
L 356.15221 283.380594 
L 356.15221 282.582178 
L 357.647602 282.582178 
L 357.647602 281.783762 
L 461.8 281.783762 
L 461.8 281.783762 
" style="fill:none;stroke:#f5deb3;stroke-linecap:square;stroke-width:1.5;"/>
   </g>
   <g id="line2d_11">
    <path clip-path="url(#p65b7ba35ca)" d="M 144.840928 293.76 
L 144.840928 292.961584 
L 166.479146 292.961584 
L 166.479146 292.163168 
L 170.148934 292.163168 
L 170.148934 289.767921 
L 173.647971 289.767921 
L 173.647971 288.171089 
L 176.991443 288.171089 
L 176.991443 286.574257 
L 189.051733 286.574257 
L 189.051733 284.977426 
L 204.145326 284.977426 
L 204.145326 283.380594 
L 212.750784 283.380594 
L 212.750784 282.582178 
L 214.756656 282.582178 
L 214.756656 281.783762 
L 377.107678 281.783762 
L 377.107678 280.985347 
L 383.040167 280.985347 
L 383.040167 279.388515 
L 383.671352 279.388515 
L 383.671352 278.590099 
L 385.123838 278.590099 
L 385.123838 277.791683 
L 386.346885 277.791683 
L 386.346885 276.993267 
L 386.548807 276.993267 
L 386.548807 276.194851 
L 387.947281 276.194851 
L 387.947281 275.396436 
L 388.342115 275.396436 
L 388.342115 274.59802 
L 390.859221 274.59802 
L 390.859221 273.799604 
L 391.993148 273.799604 
L 391.993148 272.202772 
L 393.478939 272.202772 
L 393.478939 271.404356 
L 393.845846 271.404356 
L 393.845846 270.605941 
L 397.069871 270.605941 
L 397.069871 269.807525 
L 397.594024 269.807525 
L 397.594024 269.009109 
L 457.732675 269.009109 
L 457.732675 268.210693 
L 461.622038 268.210693 
L 461.622038 267.412277 
L 461.8 267.412277 
L 461.8 267.412277 
" style="fill:none;stroke:#f5deb3;stroke-linecap:square;stroke-width:1.5;"/>
   </g>
   <g id="line2d_12">
    <path clip-path="url(#p65b7ba35ca)" d="M 134.077493 293.76 
L 134.077493 281.783762 
L 162.621083 281.783762 
L 162.621083 280.186931 
L 183.263052 280.186931 
L 183.263052 279.388515 
L 199.442812 279.388515 
L 199.442812 273.001188 
L 212.750784 273.001188 
L 212.750784 270.605941 
L 224.05437 270.605941 
L 224.05437 269.807525 
L 365.779372 269.807525 
L 365.779372 269.009109 
L 374.78602 269.009109 
L 374.78602 268.210693 
L 377.563532 268.210693 
L 377.563532 267.412277 
L 378.914749 267.412277 
L 378.914749 265.815446 
L 384.089218 265.815446 
L 384.089218 265.01703 
L 386.548807 265.01703 
L 386.548807 263.420198 
L 387.749084 263.420198 
L 387.749084 262.621782 
L 391.239099 262.621782 
L 391.239099 261.823366 
L 392.367356 261.823366 
L 392.367356 261.02495 
L 394.574333 261.02495 
L 394.574333 259.428119 
L 404.731186 259.428119 
L 404.731186 258.629703 
L 405.675329 258.629703 
L 405.675329 257.032871 
L 406.607768 257.032871 
L 406.607768 256.234455 
L 410.226055 256.234455 
L 410.226055 253.839208 
L 411.10407 253.839208 
L 411.10407 253.040792 
L 411.971954 253.040792 
L 411.971954 252.242376 
L 412.829937 252.242376 
L 412.829937 251.44396 
L 413.678244 251.44396 
L 413.678244 250.645545 
L 414.51709 250.645545 
L 414.51709 249.847129 
L 415.346683 249.847129 
L 415.346683 249.048713 
L 416.978915 249.048713 
L 416.978915 248.250297 
L 417.781938 248.250297 
L 417.781938 247.451881 
L 420.140813 247.451881 
L 420.140813 246.653465 
L 422.427954 246.653465 
L 422.427954 245.85505 
L 424.647595 245.85505 
L 424.647595 245.056634 
L 427.50876 245.056634 
L 427.50876 244.258218 
L 428.899538 244.258218 
L 428.899538 243.459802 
L 433.466218 243.459802 
L 433.466218 242.661386 
L 434.218919 242.661386 
L 434.218919 241.064554 
L 437.362095 241.064554 
L 437.362095 240.266139 
L 442.132987 240.266139 
L 442.132987 238.669307 
L 443.846838 238.669307 
L 443.846838 237.870891 
L 444.316058 237.870891 
L 444.316058 237.072475 
L 447.161654 237.072475 
L 447.161654 234.677228 
L 447.700193 234.677228 
L 447.700193 233.080396 
L 448.234905 233.080396 
L 448.234905 232.28198 
L 455.347198 232.28198 
L 455.347198 231.483564 
L 455.830384 231.483564 
L 455.830384 230.685149 
L 456.310486 230.685149 
L 456.310486 229.886733 
L 461.8 229.886733 
L 461.8 229.886733 
" style="fill:none;stroke:#f5deb3;stroke-linecap:square;stroke-width:1.5;"/>
   </g>
   <g id="line2d_13">
    <path clip-path="url(#p65b7ba35ca)" d="M 379.581363 293.76 
L 379.581363 291.364752 
L 385.941409 291.364752 
L 385.941409 288.969505 
L 386.548807 288.969505 
L 386.548807 286.574257 
L 399.992907 286.574257 
L 399.992907 284.17901 
L 408.438667 284.17901 
L 408.438667 281.783762 
L 461.8 281.783762 
L 461.8 281.783762 
" style="fill:none;stroke:#f5deb3;stroke-linecap:square;stroke-width:1.5;"/>
   </g>
   <g id="line2d_14">
    <path clip-path="url(#p65b7ba35ca)" d="M 208.571057 293.76 
L 208.571057 292.163168 
L 210.68995 292.163168 
L 210.68995 291.364752 
L 214.756656 291.364752 
L 214.756656 290.566337 
L 220.471992 290.566337 
L 220.471992 288.171089 
L 225.783544 288.171089 
L 225.783544 287.372673 
L 229.127016 287.372673 
L 229.127016 281.783762 
L 320.981567 281.783762 
L 320.981567 280.985347 
L 326.106602 280.985347 
L 326.106602 280.186931 
L 330.480842 280.186931 
L 330.480842 279.388515 
L 332.988266 279.388515 
L 332.988266 277.791683 
L 334.614615 277.791683 
L 334.614615 276.993267 
L 335.41479 276.993267 
L 335.41479 276.194851 
L 336.206542 276.194851 
L 336.206542 275.396436 
L 339.292748 275.396436 
L 339.292748 274.59802 
L 340.789628 274.59802 
L 340.789628 273.799604 
L 341.893057 273.799604 
L 341.893057 273.001188 
L 344.052509 273.001188 
L 344.052509 272.202772 
L 345.109422 272.202772 
L 345.109422 271.404356 
L 347.519285 271.404356 
L 347.519285 269.807525 
L 359.403691 269.807525 
L 359.403691 269.009109 
L 363.073479 269.009109 
L 363.073479 268.210693 
L 424.282174 268.210693 
L 424.282174 267.412277 
L 431.606243 267.412277 
L 431.606243 266.613861 
L 452.800053 266.613861 
L 452.800053 265.815446 
L 458.897629 265.815446 
L 458.897629 265.01703 
L 461.8 265.01703 
L 461.8 265.01703 
" style="fill:none;stroke:#f5deb3;stroke-linecap:square;stroke-width:1.5;"/>
   </g>
   <g id="line2d_15">
    <path clip-path="url(#p65b7ba35ca)" d="M 0 0 
" style="fill:none;stroke:#f5deb3;stroke-linecap:square;stroke-width:1.5;"/>
   </g>
   <g id="line2d_16">
    <path clip-path="url(#p65b7ba35ca)" d="M 411.10407 293.76 
L 411.10407 292.961584 
L 418.708089 292.961584 
L 418.708089 291.364752 
L 426.210888 291.364752 
L 426.210888 290.566337 
L 430.938643 290.566337 
L 430.938643 289.767921 
L 433.032697 289.767921 
L 433.141311 287.372673 
L 433.249769 287.372673 
L 433.358071 285.775842 
L 433.897255 285.775842 
L 433.897255 284.977426 
L 436.224791 284.977426 
L 436.224791 284.17901 
L 436.432857 284.17901 
L 436.432857 283.380594 
L 441.74677 283.380594 
L 441.74677 282.582178 
L 449.729597 282.582178 
L 449.729597 281.783762 
L 461.8 281.783762 
L 461.8 281.783762 
" style="fill:none;stroke:#f5deb3;stroke-linecap:square;stroke-width:1.5;"/>
   </g>
   <g id="line2d_17">
    <path clip-path="url(#p65b7ba35ca)" d="M 302.49091 293.76 
L 302.49091 292.961584 
L 310.661884 292.961584 
L 310.661884 292.163168 
L 328.325516 292.163168 
L 328.325516 291.364752 
L 344.052509 291.364752 
L 344.052509 290.566337 
L 346.495926 290.566337 
L 346.495926 289.767921 
L 367.617195 289.767921 
L 367.617195 288.969505 
L 374.075315 288.969505 
L 374.075315 288.171089 
L 374.312964 288.171089 
L 374.312964 287.372673 
L 378.691226 287.372673 
L 378.691226 286.574257 
L 399.144919 286.574257 
L 399.144919 285.775842 
L 415.071167 285.775842 
L 415.071167 284.977426 
L 416.03109 284.977426 
L 416.03109 284.17901 
L 416.709324 284.17901 
L 416.709324 283.380594 
L 458.666077 283.380594 
L 458.666077 282.582178 
L 459.20526 282.582178 
L 459.20526 281.783762 
L 461.8 281.783762 
L 461.8 281.783762 
" style="fill:none;stroke:#f5deb3;stroke-linecap:square;stroke-width:1.5;"/>
   </g>
   <g id="line2d_18">
    <path clip-path="url(#p65b7ba35ca)" d="M 128.057022 293.76 
L 128.057022 281.783762 
L 134.077493 281.783762 
L 134.077493 277.791683 
L 139.651579 277.791683 
L 139.651579 276.993267 
L 144.840928 276.993267 
L 144.840928 276.194851 
L 149.69524 276.194851 
L 149.69524 274.59802 
L 154.255166 274.59802 
L 154.255166 271.404356 
L 158.554377 271.404356 
L 158.554377 270.605941 
L 170.148934 270.605941 
L 170.148934 269.807525 
L 361.119713 269.807525 
L 361.119713 269.009109 
L 372.390412 269.009109 
L 372.390412 268.210693 
L 374.075315 268.210693 
L 374.075315 267.412277 
L 374.312964 267.412277 
L 374.312964 266.613861 
L 376.878711 266.613861 
L 376.878711 265.815446 
L 380.679422 265.815446 
L 380.679422 265.01703 
L 384.711696 265.01703 
L 384.711696 264.218614 
L 385.533734 264.218614 
L 385.533734 263.420198 
L 386.548807 263.420198 
L 386.548807 262.621782 
L 388.342115 262.621782 
L 388.342115 261.823366 
L 390.285782 261.823366 
L 390.285782 261.02495 
L 391.993148 261.02495 
L 391.993148 260.226535 
L 394.210971 260.226535 
L 394.210971 259.428119 
L 394.574333 259.428119 
L 394.574333 258.629703 
L 396.718395 258.629703 
L 396.718395 257.831287 
L 398.287262 257.831287 
L 398.287262 257.032871 
L 399.315283 257.032871 
L 399.315283 256.234455 
L 399.654858 256.234455 
L 399.654858 255.43604 
L 402.968863 255.43604 
L 402.968863 253.839208 
L 404.889369 253.839208 
L 404.889369 253.040792 
L 406.762056 253.040792 
L 406.762056 252.242376 
L 410.519867 252.242376 
L 410.519867 251.44396 
L 411.539264 251.44396 
L 411.539264 250.645545 
L 413.678244 250.645545 
L 413.678244 249.847129 
L 414.655992 249.847129 
L 414.655992 249.048713 
L 415.346683 249.048713 
L 415.346683 248.250297 
L 421.799581 248.250297 
L 421.799581 247.451881 
L 424.890227 247.451881 
L 424.890227 246.653465 
L 427.274443 246.653465 
L 427.274443 245.85505 
L 433.466218 245.85505 
L 433.466218 245.056634 
L 438.279993 245.056634 
L 438.279993 244.258218 
L 439.884656 244.258218 
L 439.884656 243.459802 
L 441.358559 243.459802 
L 441.358559 242.661386 
L 443.563894 242.661386 
L 443.563894 241.86297 
L 445.430385 241.86297 
L 445.430385 241.064554 
L 452.381023 241.064554 
L 452.381023 240.266139 
L 455.104436 240.266139 
L 455.104436 239.467723 
L 455.347198 239.467723 
L 455.347198 238.669307 
L 460.57424 238.669307 
L 460.57424 237.870891 
L 460.950131 237.870891 
L 460.950131 237.072475 
L 461.174768 237.072475 
L 461.174768 236.274059 
L 461.8 236.274059 
L 461.8 236.274059 
" style="fill:none;stroke:#f5deb3;stroke-linecap:square;stroke-width:1.5;"/>
   </g>
   <g id="line2d_19">
    <path clip-path="url(#p65b7ba35ca)" d="M 436.328896 293.76 
L 436.328896 292.94652 
L 449.467977 292.94652 
L 449.467977 292.133039 
L 461.8 292.133039 
L 461.8 292.133039 
" style="fill:none;stroke:#f5deb3;stroke-linecap:square;stroke-width:1.5;"/>
   </g>
   <g id="line2d_20">
    <path clip-path="url(#p65b7ba35ca)" d="M 144.840928 293.76 
L 144.840928 292.961584 
L 154.255166 292.961584 
L 154.255166 292.163168 
L 158.554377 292.163168 
L 158.554377 290.566337 
L 170.148934 290.566337 
L 170.148934 289.767921 
L 176.991443 289.767921 
L 176.991443 288.969505 
L 180.192595 288.969505 
L 180.192595 288.171089 
L 186.213066 288.171089 
L 186.213066 287.372673 
L 189.051733 287.372673 
L 189.051733 285.775842 
L 191.787152 285.775842 
L 191.787152 284.977426 
L 196.976501 284.977426 
L 196.976501 284.17901 
L 201.830813 284.17901 
L 201.830813 283.380594 
L 204.145326 283.380594 
L 204.145326 282.582178 
L 210.68995 282.582178 
L 210.68995 281.783762 
L 336.599314 281.783762 
L 336.599314 280.985347 
L 343.339558 280.985347 
L 343.339558 280.186931 
L 343.696878 280.186931 
L 343.696878 279.388515 
L 344.758765 279.388515 
L 344.758765 278.590099 
L 346.151689 278.590099 
L 346.151689 277.791683 
L 347.857334 277.791683 
L 347.857334 276.993267 
L 349.194538 276.993267 
L 349.194538 276.194851 
L 350.182067 276.194851 
L 350.182067 275.396436 
L 352.11906 275.396436 
L 352.11906 273.799604 
L 353.069166 273.799604 
L 353.069166 273.001188 
L 353.695968 273.001188 
L 353.695968 272.202772 
L 357.053008 272.202772 
L 357.053008 271.404356 
L 358.822871 271.404356 
L 358.822871 270.605941 
L 359.980059 270.605941 
L 359.980059 269.807525 
L 361.963263 269.807525 
L 361.963263 269.009109 
L 364.167545 269.009109 
L 364.167545 268.210693 
L 366.044684 268.210693 
L 366.044684 267.412277 
L 366.309063 267.412277 
L 366.309063 266.613861 
L 388.930507 266.613861 
L 388.930507 265.815446 
L 396.718395 265.815446 
L 396.718395 265.01703 
L 399.992907 265.01703 
L 399.992907 264.218614 
L 405.047219 264.218614 
L 405.047219 263.420198 
L 408.287783 263.420198 
L 408.287783 262.621782 
L 411.828 262.621782 
L 411.828 261.823366 
L 414.655992 261.823366 
L 414.655992 261.02495 
L 414.794639 261.02495 
L 414.794639 260.226535 
L 416.303118 260.226535 
L 416.303118 259.428119 
L 417.247543 259.428119 
L 417.247543 258.629703 
L 419.362712 258.629703 
L 419.362712 257.032871 
L 419.882339 257.032871 
L 419.882339 256.234455 
L 420.398401 256.234455 
L 420.398401 255.43604 
L 421.165915 255.43604 
L 421.165915 254.637624 
L 421.799581 254.637624 
L 421.799581 253.839208 
L 422.177234 253.839208 
L 422.177234 253.040792 
L 422.553001 253.040792 
L 422.553001 252.242376 
L 423.298948 252.242376 
L 423.298948 251.44396 
L 423.792167 251.44396 
L 423.792167 250.645545 
L 424.404178 250.645545 
L 424.404178 249.847129 
L 424.525985 249.847129 
L 424.525985 248.250297 
L 425.01125 248.250297 
L 425.01125 247.451881 
L 425.373155 247.451881 
L 425.373155 246.653465 
L 426.448537 246.653465 
L 426.448537 245.85505 
L 427.625646 245.85505 
L 427.625646 245.056634 
L 427.975216 245.056634 
L 427.975216 244.258218 
L 428.438797 244.258218 
L 428.438797 243.459802 
L 431.937834 243.459802 
L 431.937834 242.661386 
L 432.814995 242.661386 
L 432.814995 241.86297 
L 434.4326 241.86297 
L 434.4326 240.266139 
L 434.645676 240.266139 
L 434.645676 239.467723 
L 435.597118 239.467723 
L 435.597118 237.870891 
L 436.432857 237.870891 
L 436.432857 237.072475 
L 437.362095 237.072475 
L 437.362095 236.274059 
L 438.178556 236.274059 
L 438.178556 235.475644 
L 438.986249 235.475644 
L 439.086604 233.878812 
L 440.28053 233.878812 
L 440.28053 233.080396 
L 440.477688 233.080396 
L 440.576073 231.483564 
L 441.649905 231.483564 
L 441.649905 230.685149 
L 445.153347 230.685149 
L 445.153347 229.886733 
L 446.346544 229.886733 
L 446.346544 229.088317 
L 447.071521 229.088317 
L 447.071521 227.491485 
L 447.700193 227.491485 
L 447.700193 226.693069 
L 448.765841 226.693069 
L 448.765841 225.894653 
L 449.205444 225.894653 
L 449.205444 225.096238 
L 449.555285 225.096238 
L 449.555285 224.297822 
L 449.903507 224.297822 
L 449.903507 223.499406 
L 450.852886 223.499406 
L 450.852886 222.70099 
L 451.705681 222.70099 
L 451.705681 221.902574 
L 454.616548 221.902574 
L 454.698083 220.305743 
L 455.910614 220.305743 
L 455.910614 219.507327 
L 457.340312 219.507327 
L 457.340312 218.708911 
L 457.654366 218.708911 
L 457.654366 217.910495 
L 458.820524 217.910495 
L 458.820524 217.112079 
L 461.398735 217.112079 
L 461.398735 216.313663 
L 461.8 216.313663 
L 461.8 216.313663 
" style="fill:none;stroke:#f5deb3;stroke-linecap:square;stroke-width:1.5;"/>
   </g>
   <g id="line2d_21">
    <path clip-path="url(#p65b7ba35ca)" d="M 0 0 
" style="fill:none;stroke:#f5deb3;stroke-linecap:square;stroke-width:1.5;"/>
   </g>
   <g id="line2d_22">
    <path clip-path="url(#p65b7ba35ca)" d="M 158.554377 293.76 
L 158.554377 292.163168 
L 170.148934 292.163168 
L 170.148934 291.364752 
L 173.647971 291.364752 
L 173.647971 290.566337 
L 183.263052 290.566337 
L 183.263052 288.171089 
L 191.787152 288.171089 
L 191.787152 287.372673 
L 210.68995 287.372673 
L 210.68995 286.574257 
L 220.471992 286.574257 
L 220.471992 285.775842 
L 222.284507 285.775842 
L 222.284507 284.977426 
L 230.744621 284.977426 
L 230.744621 284.17901 
L 233.879063 284.17901 
L 233.879063 283.380594 
L 294.703022 283.380594 
L 294.703022 282.582178 
L 307.268118 282.582178 
L 307.268118 281.783762 
L 324.283101 281.783762 
L 324.283101 280.985347 
L 335.811708 280.985347 
L 335.811708 280.186931 
L 342.257299 280.186931 
L 342.257299 279.388515 
L 343.696878 279.388515 
L 343.696878 278.590099 
L 344.758765 278.590099 
L 344.758765 277.791683 
L 346.838595 277.791683 
L 346.838595 276.993267 
L 348.528908 276.993267 
L 348.528908 276.194851 
L 349.854329 276.194851 
L 349.854329 275.396436 
L 350.182067 275.396436 
L 350.182067 274.59802 
L 350.83329 274.59802 
L 350.83329 273.001188 
L 351.156799 273.001188 
L 351.156799 272.202772 
L 352.753796 272.202772 
L 352.753796 271.404356 
L 354.317589 271.404356 
L 354.317589 270.605941 
L 354.934115 270.605941 
L 354.934115 269.807525 
L 357.053008 269.807525 
L 357.053008 269.009109 
L 357.350892 269.009109 
L 357.350892 268.210693 
L 359.692427 268.210693 
L 359.692427 267.412277 
L 364.167545 267.412277 
L 364.167545 266.613861 
L 364.438593 266.613861 
L 364.438593 265.815446 
L 370.417428 265.815446 
L 370.417428 265.01703 
L 390.477414 265.01703 
L 390.477414 264.218614 
L 395.475131 264.218614 
L 395.475131 263.420198 
L 395.832451 263.420198 
L 395.832451 262.621782 
L 397.419712 262.621782 
L 397.419712 261.823366 
L 401.164255 261.823366 
L 401.164255 261.02495 
L 403.292372 261.02495 
L 403.292372 260.226535 
L 409.039195 260.226535 
L 409.039195 259.428119 
L 409.931091 259.428119 
L 409.931091 258.629703 
L 411.10407 258.629703 
L 411.10407 257.831287 
L 411.394479 257.831287 
L 411.394479 257.032871 
L 411.68377 257.032871 
L 411.68377 256.234455 
L 412.115632 256.234455 
L 412.115632 255.43604 
L 412.259037 255.43604 
L 412.259037 254.637624 
L 412.971988 254.637624 
L 412.971988 253.839208 
L 413.11377 253.839208 
L 413.11377 252.242376 
L 413.9589 252.242376 
L 413.9589 251.44396 
L 414.794639 251.44396 
L 414.794639 250.645545 
L 416.438764 250.645545 
L 416.438764 249.847129 
L 416.709324 249.847129 
L 416.709324 249.048713 
L 419.362712 249.048713 
L 419.362712 247.451881 
L 421.038539 247.451881 
L 421.038539 246.653465 
L 421.420022 246.653465 
L 421.420022 245.85505 
L 423.545962 245.85505 
L 423.545962 245.056634 
L 423.792167 245.056634 
L 423.792167 244.258218 
L 424.03757 244.258218 
L 424.03757 243.459802 
L 424.890227 243.459802 
L 424.890227 242.661386 
L 425.132078 242.661386 
L 425.132078 241.86297 
L 425.493404 241.86297 
L 425.493404 240.266139 
L 425.613461 240.266139 
L 425.613461 239.467723 
L 429.5854 239.467723 
L 429.5854 238.669307 
L 429.699105 238.669307 
L 429.699105 237.870891 
L 431.606243 237.870891 
L 431.606243 237.072475 
L 432.705908 237.072475 
L 432.705908 236.274059 
L 433.032697 236.274059 
L 433.032697 233.878812 
L 434.751988 233.878812 
L 434.751988 233.080396 
L 443.279882 233.080396 
L 443.279882 231.483564 
L 446.709906 231.483564 
L 446.709906 230.685149 
L 447.700193 230.685149 
L 447.700193 229.886733 
L 448.677612 229.886733 
L 448.677612 229.088317 
L 449.555285 229.088317 
L 449.555285 228.289901 
L 450.59515 228.289901 
L 450.59515 227.491485 
L 450.938602 227.491485 
L 450.938602 226.693069 
L 452.465016 226.693069 
L 452.465016 225.096238 
L 455.02334 225.096238 
L 455.104436 222.70099 
L 455.589179 222.70099 
L 455.589179 221.902574 
L 455.990759 221.902574 
L 455.990759 221.104158 
L 456.150792 221.104158 
L 456.150792 220.305743 
L 456.62886 220.305743 
L 456.62886 219.507327 
L 458.356228 219.507327 
L 458.356228 218.708911 
L 459.511639 218.708911 
L 459.511639 217.910495 
L 461.324154 217.910495 
L 461.324154 217.112079 
L 461.8 217.112079 
L 461.8 217.112079 
" style="fill:none;stroke:#f5deb3;stroke-linecap:square;stroke-width:1.5;"/>
   </g>
   <g id="line2d_23">
    <path clip-path="url(#p65b7ba35ca)" d="M 271.684661 293.76 
L 271.684661 292.961584 
L 298.697717 292.961584 
L 298.697717 292.163168 
L 301.871847 292.163168 
L 301.871847 291.364752 
L 303.713957 291.364752 
L 303.713957 290.566337 
L 313.377549 290.566337 
L 313.377549 288.969505 
L 321.462181 288.969505 
L 321.462181 288.171089 
L 321.939742 288.171089 
L 321.939742 287.372673 
L 323.820234 287.372673 
L 323.820234 286.574257 
L 324.283101 286.574257 
L 324.283101 285.775842 
L 324.743138 285.775842 
L 324.743138 284.977426 
L 337.378759 284.977426 
L 337.378759 284.17901 
L 345.805869 284.17901 
L 345.805869 283.380594 
L 351.478922 283.380594 
L 351.478922 282.582178 
L 365.245925 282.582178 
L 365.245925 281.783762 
L 461.8 281.783762 
L 461.8 281.783762 
" style="fill:none;stroke:#f5deb3;stroke-linecap:square;stroke-width:1.5;"/>
   </g>
   <g id="line2d_24">
    <path clip-path="url(#p65b7ba35ca)" d="M 340.789628 293.76 
L 340.789628 292.163168 
L 341.159239 292.163168 
L 341.159239 291.364752 
L 355.545628 291.364752 
L 355.545628 289.767921 
L 355.84953 289.767921 
L 355.84953 288.969505 
L 369.157503 288.969505 
L 369.157503 287.372673 
L 369.411182 287.372673 
L 369.411182 286.574257 
L 369.664008 286.574257 
L 369.664008 285.775842 
L 380.679422 285.775842 
L 380.679422 284.17901 
L 380.897124 284.17901 
L 380.897124 283.380594 
L 381.114197 283.380594 
L 381.114197 282.582178 
L 399.485262 282.582178 
L 399.485262 281.783762 
L 435.17574 281.783762 
L 435.17574 280.985347 
L 439.785362 280.985347 
L 439.785362 280.186931 
L 441.358559 280.186931 
L 441.358559 279.388515 
L 455.830384 279.388515 
L 455.830384 278.590099 
L 455.990759 278.590099 
L 455.990759 277.791683 
L 461.025085 277.791683 
L 461.025085 276.993267 
L 461.8 276.993267 
L 461.8 276.993267 
" style="fill:none;stroke:#f5deb3;stroke-linecap:square;stroke-width:1.5;"/>
   </g>
   <g id="line2d_25">
    <path clip-path="url(#p65b7ba35ca)" d="M 289.757484 293.76 
L 289.757484 292.961584 
L 302.49091 292.961584 
L 302.49091 292.163168 
L 305.512029 292.163168 
L 305.512029 291.364752 
L 312.842203 291.364752 
L 312.842203 290.566337 
L 314.436943 290.566337 
L 314.436943 289.767921 
L 323.820234 289.767921 
L 323.820234 288.969505 
L 324.283101 288.969505 
L 324.283101 288.171089 
L 325.200377 288.171089 
L 325.200377 286.574257 
L 326.555653 286.574257 
L 326.555653 285.775842 
L 329.626109 285.775842 
L 329.626109 284.977426 
L 331.325972 284.977426 
L 331.325972 284.17901 
L 348.19387 284.17901 
L 348.19387 283.380594 
L 349.194538 283.380594 
L 349.194538 282.582178 
L 350.508383 282.582178 
L 350.508383 281.783762 
L 461.8 281.783762 
L 461.8 281.783762 
" style="fill:none;stroke:#f5deb3;stroke-linecap:square;stroke-width:1.5;"/>
   </g>
   <g id="line2d_26">
    <path clip-path="url(#p65b7ba35ca)" d="M 425.733326 293.76 
L 425.733326 292.961584 
L 426.210888 292.961584 
L 426.210888 292.163168 
L 426.56708 292.163168 
L 426.56708 291.364752 
L 429.926 291.364752 
L 429.926 290.566337 
L 432.705908 290.566337 
L 432.705908 289.767921 
L 433.141311 289.767921 
L 433.141311 288.969505 
L 433.358071 288.969505 
L 433.466218 286.574257 
L 436.536674 286.574257 
L 436.536674 285.775842 
L 437.259411 285.775842 
L 437.259411 284.977426 
L 440.082853 284.977426 
L 440.082853 284.17901 
L 440.67433 284.17901 
L 440.67433 283.380594 
L 442.325355 283.380594 
L 442.325355 282.582178 
L 442.612987 282.582178 
L 442.612987 281.783762 
L 461.8 281.783762 
L 461.8 281.783762 
" style="fill:none;stroke:#f5deb3;stroke-linecap:square;stroke-width:1.5;"/>
   </g>
   <g id="line2d_27">
    <path clip-path="url(#p65b7ba35ca)" d="M 317.528435 293.76 
L 317.528435 292.961584 
L 333.805836 292.961584 
L 333.805836 292.163168 
L 334.614615 292.163168 
L 334.614615 291.364752 
L 337.378759 291.364752 
L 337.378759 290.566337 
L 345.805869 290.566337 
L 345.805869 288.969505 
L 346.838595 288.969505 
L 346.838595 288.171089 
L 352.11906 288.171089 
L 352.11906 287.372673 
L 365.245925 287.372673 
L 365.245925 286.574257 
L 369.157503 286.574257 
L 369.157503 285.775842 
L 375.25612 285.775842 
L 375.25612 284.977426 
L 378.914749 284.977426 
L 378.914749 284.17901 
L 381.114197 284.17901 
L 381.114197 283.380594 
L 394.02863 283.380594 
L 394.02863 282.582178 
L 394.392872 282.582178 
L 394.392872 281.783762 
L 412.115632 281.783762 
L 412.115632 280.985347 
L 413.9589 280.985347 
L 413.9589 280.186931 
L 417.914945 280.186931 
L 417.914945 279.388515 
L 419.232242 279.388515 
L 419.232242 277.791683 
L 420.526865 277.791683 
L 420.526865 276.993267 
L 422.302698 276.993267 
L 422.302698 276.194851 
L 424.159971 276.194851 
L 424.159971 275.396436 
L 425.252713 275.396436 
L 425.252713 274.59802 
L 425.613461 274.59802 
L 425.613461 273.799604 
L 426.091782 273.799604 
L 426.091782 273.001188 
L 427.975216 273.001188 
L 427.975216 271.404356 
L 429.5854 271.404356 
L 429.5854 270.605941 
L 431.050322 270.605941 
L 431.050322 269.807525 
L 431.937834 269.807525 
L 431.937834 269.009109 
L 439.785362 269.009109 
L 439.785362 268.210693 
L 461.8 268.210693 
L 461.8 268.210693 
" style="fill:none;stroke:#f5deb3;stroke-linecap:square;stroke-width:1.5;"/>
   </g>
   <g id="line2d_28">
    <path clip-path="url(#p65b7ba35ca)" d="M 227.473856 293.76 
L 227.473856 292.961584 
L 256.280899 292.961584 
L 256.280899 292.163168 
L 276.189943 292.163168 
L 276.189943 290.566337 
L 277.919117 290.566337 
L 277.919117 289.767921 
L 286.014636 289.767921 
L 286.014636 288.969505 
L 292.623192 288.969505 
L 292.623192 287.372673 
L 293.322878 287.372673 
L 293.322878 286.574257 
L 306.101959 286.574257 
L 306.101959 285.775842 
L 306.687298 285.775842 
L 306.687298 284.17901 
L 318.031553 284.17901 
L 318.031553 283.380594 
L 335.015767 283.380594 
L 335.015767 282.582178 
L 344.406466 282.582178 
L 344.406466 281.783762 
L 412.545029 281.783762 
L 412.545029 280.985347 
L 415.346683 280.985347 
L 415.346683 280.186931 
L 424.159971 280.186931 
L 424.159971 279.388515 
L 425.132078 279.388515 
L 425.132078 278.590099 
L 426.329806 278.590099 
L 426.329806 277.791683 
L 437.362095 277.791683 
L 437.362095 276.993267 
L 442.036619 276.993267 
L 442.036619 276.194851 
L 453.548475 276.194851 
L 453.548475 275.396436 
L 454.207544 275.396436 
L 454.207544 274.59802 
L 454.779529 274.59802 
L 454.779529 273.799604 
L 455.185443 273.799604 
L 455.185443 273.001188 
L 455.669667 273.001188 
L 455.669667 272.202772 
L 457.810902 272.202772 
L 457.810902 271.404356 
L 458.123001 271.404356 
L 458.123001 270.605941 
L 458.666077 270.605941 
L 458.666077 269.807525 
L 459.588039 269.807525 
L 459.588039 269.009109 
L 459.968878 269.009109 
L 459.968878 268.210693 
L 460.120676 268.210693 
L 460.120676 267.412277 
L 461.8 267.412277 
L 461.8 267.412277 
" style="fill:none;stroke:#f5deb3;stroke-linecap:square;stroke-width:1.5;"/>
   </g>
   <g id="line2d_29">
    <path clip-path="url(#p65b7ba35ca)" d="M 114.343573 293.76 
L 114.343573 281.783762 
L 149.69524 281.783762 
L 149.69524 279.388515 
L 154.255166 279.388515 
L 154.255166 274.59802 
L 241.187306 274.59802 
L 241.187306 272.202772 
L 242.567449 272.202772 
L 242.567449 269.807525 
L 348.862459 269.807525 
L 348.862459 267.412277 
L 377.563532 267.412277 
L 377.563532 265.01703 
L 380.24212 265.01703 
L 380.24212 262.621782 
L 380.897124 262.621782 
L 380.897124 260.226535 
L 385.123838 260.226535 
L 385.123838 257.831287 
L 391.993148 257.831287 
L 391.993148 255.43604 
L 392.553765 255.43604 
L 392.553765 253.040792 
L 395.475131 253.040792 
L 395.475131 250.645545 
L 414.93303 250.645545 
L 414.93303 248.250297 
L 417.515215 248.250297 
L 417.515215 245.85505 
L 440.28053 245.85505 
L 440.28053 243.459802 
L 453.961069 243.459802 
L 453.961069 241.064554 
L 461.8 241.064554 
L 461.8 241.064554 
" style="fill:none;stroke:#f5deb3;stroke-linecap:square;stroke-width:1.5;"/>
   </g>
   <g id="line2d_30">
    <path clip-path="url(#p65b7ba35ca)" d="M 220.471992 293.76 
L 220.471992 292.961584 
L 227.473856 292.961584 
L 227.473856 292.163168 
L 260.70663 292.163168 
L 260.70663 291.364752 
L 261.773538 291.364752 
L 261.773538 290.566337 
L 267.875455 290.566337 
L 267.875455 289.767921 
L 271.684661 289.767921 
L 271.684661 288.969505 
L 273.519282 288.969505 
L 273.519282 288.171089 
L 273.519282 288.171089 
L 273.519282 287.372673 
L 274.42008 287.372673 
L 274.42008 286.574257 
L 274.42008 286.574257 
L 274.42008 285.775842 
L 274.42008 285.775842 
L 274.42008 284.977426 
L 277.919117 284.977426 
L 277.919117 284.17901 
L 278.769021 284.17901 
L 278.769021 283.380594 
L 279.609429 283.380594 
L 279.609429 282.582178 
L 279.609429 282.582178 
L 279.609429 281.783762 
L 279.609429 281.783762 
L 279.609429 280.985347 
L 280.440551 280.985347 
L 280.440551 280.186931 
L 281.262589 280.186931 
L 281.262589 279.388515 
L 281.262589 279.388515 
L 281.262589 278.590099 
L 282.07574 278.590099 
L 282.07574 277.791683 
L 283.676135 277.791683 
L 283.676135 276.993267 
L 284.463741 276.993267 
L 284.463741 276.194851 
L 285.243186 276.194851 
L 285.243186 275.396436 
L 289.023667 275.396436 
L 289.023667 274.59802 
L 290.484212 274.59802 
L 290.484212 273.799604 
L 291.916936 273.799604 
L 291.916936 273.001188 
L 291.916936 273.001188 
L 291.916936 272.202772 
L 293.322878 272.202772 
L 293.322878 271.404356 
L 294.016116 271.404356 
L 294.016116 270.605941 
L 300.618223 270.605941 
L 300.618223 269.807525 
L 313.909111 269.807525 
L 313.909111 269.009109 
L 313.909111 269.009109 
L 313.909111 268.210693 
L 313.909111 268.210693 
L 313.909111 267.412277 
L 313.909111 267.412277 
L 313.909111 266.613861 
L 313.909111 266.613861 
L 313.909111 265.815446 
L 313.909111 265.815446 
L 313.909111 265.01703 
L 313.909111 265.01703 
L 313.909111 264.218614 
L 313.909111 264.218614 
L 313.909111 263.420198 
L 313.909111 263.420198 
L 313.909111 262.621782 
L 313.909111 262.621782 
L 313.909111 261.823366 
L 313.909111 261.823366 
L 313.909111 261.02495 
L 313.909111 261.02495 
L 313.909111 260.226535 
L 313.909111 260.226535 
L 313.909111 259.428119 
L 313.909111 259.428119 
L 313.909111 258.629703 
L 313.909111 258.629703 
L 313.909111 257.831287 
L 461.8 257.831287 
" style="fill:none;stroke:#f5deb3;stroke-linecap:square;stroke-width:1.5;"/>
   </g>
   <g id="matplotlib.axis_1">
    <g id="xtick_1">
     <g id="line2d_31">
      <path clip-path="url(#p65b7ba35ca)" d="M 62.208 293.76 
L 62.208 3.456 
" style="fill:none;stroke:#b0b0b0;stroke-linecap:square;stroke-width:0.8;"/>
     </g>
     <g id="line2d_32">
      <defs>
       <path d="M 0 0 
L 0 3.5 
" id="m5568dcd679" style="stroke:#000000;stroke-width:0.8;"/>
      </defs>
      <g>
       <use style="stroke:#000000;stroke-width:0.8;" x="62.208" xlink:href="#m5568dcd679" y="293.76"/>
      </g>
     </g>
     <g id="text_1">
      <!-- 0 -->
      <g transform="translate(55.8455 315.956875)scale(0.2 -0.2)">
       <defs>
        <path d="M 31.78125 66.40625 
Q 24.171875 66.40625 20.328125 58.90625 
Q 16.5 51.421875 16.5 36.375 
Q 16.5 21.390625 20.328125 13.890625 
Q 24.171875 6.390625 31.78125 6.390625 
Q 39.453125 6.390625 43.28125 13.890625 
Q 47.125 21.390625 47.125 36.375 
Q 47.125 51.421875 43.28125 58.90625 
Q 39.453125 66.40625 31.78125 66.40625 
z
M 31.78125 74.21875 
Q 44.046875 74.21875 50.515625 64.515625 
Q 56.984375 54.828125 56.984375 36.375 
Q 56.984375 17.96875 50.515625 8.265625 
Q 44.046875 -1.421875 31.78125 -1.421875 
Q 19.53125 -1.421875 13.0625 8.265625 
Q 6.59375 17.96875 6.59375 36.375 
Q 6.59375 54.828125 13.0625 64.515625 
Q 19.53125 74.21875 31.78125 74.21875 
z
" id="DejaVuSans-48"/>
       </defs>
       <use xlink:href="#DejaVuSans-48"/>
      </g>
     </g>
    </g>
    <g id="xtick_2">
     <g id="line2d_33">
      <path clip-path="url(#p65b7ba35ca)" d="M 408.589249 293.76 
L 408.589249 3.456 
" style="fill:none;stroke:#b0b0b0;stroke-linecap:square;stroke-width:0.8;"/>
     </g>
     <g id="line2d_34">
      <g>
       <use style="stroke:#000000;stroke-width:0.8;" x="408.589249" xlink:href="#m5568dcd679" y="293.76"/>
      </g>
     </g>
     <g id="text_2">
      <!-- 2 -->
      <g transform="translate(402.226749 315.956875)scale(0.2 -0.2)">
       <defs>
        <path d="M 19.1875 8.296875 
L 53.609375 8.296875 
L 53.609375 0 
L 7.328125 0 
L 7.328125 8.296875 
Q 12.9375 14.109375 22.625 23.890625 
Q 32.328125 33.6875 34.8125 36.53125 
Q 39.546875 41.84375 41.421875 45.53125 
Q 43.3125 49.21875 43.3125 52.78125 
Q 43.3125 58.59375 39.234375 62.25 
Q 35.15625 65.921875 28.609375 65.921875 
Q 23.96875 65.921875 18.8125 64.3125 
Q 13.671875 62.703125 7.8125 59.421875 
L 7.8125 69.390625 
Q 13.765625 71.78125 18.9375 73 
Q 24.125 74.21875 28.421875 74.21875 
Q 39.75 74.21875 46.484375 68.546875 
Q 53.21875 62.890625 53.21875 53.421875 
Q 53.21875 48.921875 51.53125 44.890625 
Q 49.859375 40.875 45.40625 35.40625 
Q 44.1875 33.984375 37.640625 27.21875 
Q 31.109375 20.453125 19.1875 8.296875 
z
" id="DejaVuSans-50"/>
       </defs>
       <use xlink:href="#DejaVuSans-50"/>
      </g>
     </g>
    </g>
    <g id="xtick_3">
     <g id="line2d_35">
      <path clip-path="url(#p65b7ba35ca)" d="M 114.343573 293.76 
L 114.343573 3.456 
" style="fill:none;stroke:#b0b0b0;stroke-linecap:square;stroke-width:0.8;"/>
     </g>
     <g id="line2d_36">
      <defs>
       <path d="M 0 0 
L 0 2 
" id="mcb1355f66e" style="stroke:#000000;stroke-width:0.6;"/>
      </defs>
      <g>
       <use style="stroke:#000000;stroke-width:0.6;" x="114.343573" xlink:href="#mcb1355f66e" y="293.76"/>
      </g>
     </g>
    </g>
    <g id="xtick_4">
     <g id="line2d_37">
      <path clip-path="url(#p65b7ba35ca)" d="M 144.840928 293.76 
L 144.840928 3.456 
" style="fill:none;stroke:#b0b0b0;stroke-linecap:square;stroke-width:0.8;"/>
     </g>
     <g id="line2d_38">
      <g>
       <use style="stroke:#000000;stroke-width:0.6;" x="144.840928" xlink:href="#mcb1355f66e" y="293.76"/>
      </g>
     </g>
    </g>
    <g id="xtick_5">
     <g id="line2d_39">
      <path clip-path="url(#p65b7ba35ca)" d="M 166.479146 293.76 
L 166.479146 3.456 
" style="fill:none;stroke:#b0b0b0;stroke-linecap:square;stroke-width:0.8;"/>
     </g>
     <g id="line2d_40">
      <g>
       <use style="stroke:#000000;stroke-width:0.6;" x="166.479146" xlink:href="#mcb1355f66e" y="293.76"/>
      </g>
     </g>
    </g>
    <g id="xtick_6">
     <g id="line2d_41">
      <path clip-path="url(#p65b7ba35ca)" d="M 183.263052 293.76 
L 183.263052 3.456 
" style="fill:none;stroke:#b0b0b0;stroke-linecap:square;stroke-width:0.8;"/>
     </g>
     <g id="line2d_42">
      <g>
       <use style="stroke:#000000;stroke-width:0.6;" x="183.263052" xlink:href="#mcb1355f66e" y="293.76"/>
      </g>
     </g>
    </g>
    <g id="xtick_7">
     <g id="line2d_43">
      <path clip-path="url(#p65b7ba35ca)" d="M 196.976501 293.76 
L 196.976501 3.456 
" style="fill:none;stroke:#b0b0b0;stroke-linecap:square;stroke-width:0.8;"/>
     </g>
     <g id="line2d_44">
      <g>
       <use style="stroke:#000000;stroke-width:0.6;" x="196.976501" xlink:href="#mcb1355f66e" y="293.76"/>
      </g>
     </g>
    </g>
    <g id="xtick_8">
     <g id="line2d_45">
      <path clip-path="url(#p65b7ba35ca)" d="M 208.571057 293.76 
L 208.571057 3.456 
" style="fill:none;stroke:#b0b0b0;stroke-linecap:square;stroke-width:0.8;"/>
     </g>
     <g id="line2d_46">
      <g>
       <use style="stroke:#000000;stroke-width:0.6;" x="208.571057" xlink:href="#mcb1355f66e" y="293.76"/>
      </g>
     </g>
    </g>
    <g id="xtick_9">
     <g id="line2d_47">
      <path clip-path="url(#p65b7ba35ca)" d="M 218.614719 293.76 
L 218.614719 3.456 
" style="fill:none;stroke:#b0b0b0;stroke-linecap:square;stroke-width:0.8;"/>
     </g>
     <g id="line2d_48">
      <g>
       <use style="stroke:#000000;stroke-width:0.6;" x="218.614719" xlink:href="#mcb1355f66e" y="293.76"/>
      </g>
     </g>
    </g>
    <g id="xtick_10">
     <g id="line2d_49">
      <path clip-path="url(#p65b7ba35ca)" d="M 227.473856 293.76 
L 227.473856 3.456 
" style="fill:none;stroke:#b0b0b0;stroke-linecap:square;stroke-width:0.8;"/>
     </g>
     <g id="line2d_50">
      <g>
       <use style="stroke:#000000;stroke-width:0.6;" x="227.473856" xlink:href="#mcb1355f66e" y="293.76"/>
      </g>
     </g>
    </g>
    <g id="xtick_11">
     <g id="line2d_51">
      <path clip-path="url(#p65b7ba35ca)" d="M 287.534197 293.76 
L 287.534197 3.456 
" style="fill:none;stroke:#b0b0b0;stroke-linecap:square;stroke-width:0.8;"/>
     </g>
     <g id="line2d_52">
      <g>
       <use style="stroke:#000000;stroke-width:0.6;" x="287.534197" xlink:href="#mcb1355f66e" y="293.76"/>
      </g>
     </g>
    </g>
    <g id="xtick_12">
     <g id="line2d_53">
      <path clip-path="url(#p65b7ba35ca)" d="M 318.031553 293.76 
L 318.031553 3.456 
" style="fill:none;stroke:#b0b0b0;stroke-linecap:square;stroke-width:0.8;"/>
     </g>
     <g id="line2d_54">
      <g>
       <use style="stroke:#000000;stroke-width:0.6;" x="318.031553" xlink:href="#mcb1355f66e" y="293.76"/>
      </g>
     </g>
    </g>
    <g id="xtick_13">
     <g id="line2d_55">
      <path clip-path="url(#p65b7ba35ca)" d="M 339.66977 293.76 
L 339.66977 3.456 
" style="fill:none;stroke:#b0b0b0;stroke-linecap:square;stroke-width:0.8;"/>
     </g>
     <g id="line2d_56">
      <g>
       <use style="stroke:#000000;stroke-width:0.6;" x="339.66977" xlink:href="#mcb1355f66e" y="293.76"/>
      </g>
     </g>
    </g>
    <g id="xtick_14">
     <g id="line2d_57">
      <path clip-path="url(#p65b7ba35ca)" d="M 356.453676 293.76 
L 356.453676 3.456 
" style="fill:none;stroke:#b0b0b0;stroke-linecap:square;stroke-width:0.8;"/>
     </g>
     <g id="line2d_58">
      <g>
       <use style="stroke:#000000;stroke-width:0.6;" x="356.453676" xlink:href="#mcb1355f66e" y="293.76"/>
      </g>
     </g>
    </g>
    <g id="xtick_15">
     <g id="line2d_59">
      <path clip-path="url(#p65b7ba35ca)" d="M 370.167125 293.76 
L 370.167125 3.456 
" style="fill:none;stroke:#b0b0b0;stroke-linecap:square;stroke-width:0.8;"/>
     </g>
     <g id="line2d_60">
      <g>
       <use style="stroke:#000000;stroke-width:0.6;" x="370.167125" xlink:href="#mcb1355f66e" y="293.76"/>
      </g>
     </g>
    </g>
    <g id="xtick_16">
     <g id="line2d_61">
      <path clip-path="url(#p65b7ba35ca)" d="M 381.761682 293.76 
L 381.761682 3.456 
" style="fill:none;stroke:#b0b0b0;stroke-linecap:square;stroke-width:0.8;"/>
     </g>
     <g id="line2d_62">
      <g>
       <use style="stroke:#000000;stroke-width:0.6;" x="381.761682" xlink:href="#mcb1355f66e" y="293.76"/>
      </g>
     </g>
    </g>
    <g id="xtick_17">
     <g id="line2d_63">
      <path clip-path="url(#p65b7ba35ca)" d="M 391.805343 293.76 
L 391.805343 3.456 
" style="fill:none;stroke:#b0b0b0;stroke-linecap:square;stroke-width:0.8;"/>
     </g>
     <g id="line2d_64">
      <g>
       <use style="stroke:#000000;stroke-width:0.6;" x="391.805343" xlink:href="#mcb1355f66e" y="293.76"/>
      </g>
     </g>
    </g>
    <g id="xtick_18">
     <g id="line2d_65">
      <path clip-path="url(#p65b7ba35ca)" d="M 400.664481 293.76 
L 400.664481 3.456 
" style="fill:none;stroke:#b0b0b0;stroke-linecap:square;stroke-width:0.8;"/>
     </g>
     <g id="line2d_66">
      <g>
       <use style="stroke:#000000;stroke-width:0.6;" x="400.664481" xlink:href="#mcb1355f66e" y="293.76"/>
      </g>
     </g>
    </g>
    <g id="xtick_19">
     <g id="line2d_67">
      <path clip-path="url(#p65b7ba35ca)" d="M 460.724822 293.76 
L 460.724822 3.456 
" style="fill:none;stroke:#b0b0b0;stroke-linecap:square;stroke-width:0.8;"/>
     </g>
     <g id="line2d_68">
      <g>
       <use style="stroke:#000000;stroke-width:0.6;" x="460.724822" xlink:href="#mcb1355f66e" y="293.76"/>
      </g>
     </g>
    </g>
    <g id="text_3">
     <!-- log10 of FEvals / DIM -->
     <g transform="translate(156.430563 339.313125)scale(0.2 -0.2)">
      <defs>
       <path d="M 9.421875 75.984375 
L 18.40625 75.984375 
L 18.40625 0 
L 9.421875 0 
z
" id="DejaVuSans-108"/>
       <path d="M 30.609375 48.390625 
Q 23.390625 48.390625 19.1875 42.75 
Q 14.984375 37.109375 14.984375 27.296875 
Q 14.984375 17.484375 19.15625 11.84375 
Q 23.34375 6.203125 30.609375 6.203125 
Q 37.796875 6.203125 41.984375 11.859375 
Q 46.1875 17.53125 46.1875 27.296875 
Q 46.1875 37.015625 41.984375 42.703125 
Q 37.796875 48.390625 30.609375 48.390625 
z
M 30.609375 56 
Q 42.328125 56 49.015625 48.375 
Q 55.71875 40.765625 55.71875 27.296875 
Q 55.71875 13.875 49.015625 6.21875 
Q 42.328125 -1.421875 30.609375 -1.421875 
Q 18.84375 -1.421875 12.171875 6.21875 
Q 5.515625 13.875 5.515625 27.296875 
Q 5.515625 40.765625 12.171875 48.375 
Q 18.84375 56 30.609375 56 
z
" id="DejaVuSans-111"/>
       <path d="M 45.40625 27.984375 
Q 45.40625 37.75 41.375 43.109375 
Q 37.359375 48.484375 30.078125 48.484375 
Q 22.859375 48.484375 18.828125 43.109375 
Q 14.796875 37.75 14.796875 27.984375 
Q 14.796875 18.265625 18.828125 12.890625 
Q 22.859375 7.515625 30.078125 7.515625 
Q 37.359375 7.515625 41.375 12.890625 
Q 45.40625 18.265625 45.40625 27.984375 
z
M 54.390625 6.78125 
Q 54.390625 -7.171875 48.1875 -13.984375 
Q 42 -20.796875 29.203125 -20.796875 
Q 24.46875 -20.796875 20.265625 -20.09375 
Q 16.0625 -19.390625 12.109375 -17.921875 
L 12.109375 -9.1875 
Q 16.0625 -11.328125 19.921875 -12.34375 
Q 23.78125 -13.375 27.78125 -13.375 
Q 36.625 -13.375 41.015625 -8.765625 
Q 45.40625 -4.15625 45.40625 5.171875 
L 45.40625 9.625 
Q 42.625 4.78125 38.28125 2.390625 
Q 33.9375 0 27.875 0 
Q 17.828125 0 11.671875 7.65625 
Q 5.515625 15.328125 5.515625 27.984375 
Q 5.515625 40.671875 11.671875 48.328125 
Q 17.828125 56 27.875 56 
Q 33.9375 56 38.28125 53.609375 
Q 42.625 51.21875 45.40625 46.390625 
L 45.40625 54.6875 
L 54.390625 54.6875 
z
" id="DejaVuSans-103"/>
       <path d="M 12.40625 8.296875 
L 28.515625 8.296875 
L 28.515625 63.921875 
L 10.984375 60.40625 
L 10.984375 69.390625 
L 28.421875 72.90625 
L 38.28125 72.90625 
L 38.28125 8.296875 
L 54.390625 8.296875 
L 54.390625 0 
L 12.40625 0 
z
" id="DejaVuSans-49"/>
       <path id="DejaVuSans-32"/>
       <path d="M 37.109375 75.984375 
L 37.109375 68.5 
L 28.515625 68.5 
Q 23.6875 68.5 21.796875 66.546875 
Q 19.921875 64.59375 19.921875 59.515625 
L 19.921875 54.6875 
L 34.71875 54.6875 
L 34.71875 47.703125 
L 19.921875 47.703125 
L 19.921875 0 
L 10.890625 0 
L 10.890625 47.703125 
L 2.296875 47.703125 
L 2.296875 54.6875 
L 10.890625 54.6875 
L 10.890625 58.5 
Q 10.890625 67.625 15.140625 71.796875 
Q 19.390625 75.984375 28.609375 75.984375 
z
" id="DejaVuSans-102"/>
       <path d="M 9.8125 72.90625 
L 51.703125 72.90625 
L 51.703125 64.59375 
L 19.671875 64.59375 
L 19.671875 43.109375 
L 48.578125 43.109375 
L 48.578125 34.8125 
L 19.671875 34.8125 
L 19.671875 0 
L 9.8125 0 
z
" id="DejaVuSans-70"/>
       <path d="M 9.8125 72.90625 
L 55.90625 72.90625 
L 55.90625 64.59375 
L 19.671875 64.59375 
L 19.671875 43.015625 
L 54.390625 43.015625 
L 54.390625 34.71875 
L 19.671875 34.71875 
L 19.671875 8.296875 
L 56.78125 8.296875 
L 56.78125 0 
L 9.8125 0 
z
" id="DejaVuSans-69"/>
       <path d="M 2.984375 54.6875 
L 12.5 54.6875 
L 29.59375 8.796875 
L 46.6875 54.6875 
L 56.203125 54.6875 
L 35.6875 0 
L 23.484375 0 
z
" id="DejaVuSans-118"/>
       <path d="M 34.28125 27.484375 
Q 23.390625 27.484375 19.1875 25 
Q 14.984375 22.515625 14.984375 16.5 
Q 14.984375 11.71875 18.140625 8.90625 
Q 21.296875 6.109375 26.703125 6.109375 
Q 34.1875 6.109375 38.703125 11.40625 
Q 43.21875 16.703125 43.21875 25.484375 
L 43.21875 27.484375 
z
M 52.203125 31.203125 
L 52.203125 0 
L 43.21875 0 
L 43.21875 8.296875 
Q 40.140625 3.328125 35.546875 0.953125 
Q 30.953125 -1.421875 24.3125 -1.421875 
Q 15.921875 -1.421875 10.953125 3.296875 
Q 6 8.015625 6 15.921875 
Q 6 25.140625 12.171875 29.828125 
Q 18.359375 34.515625 30.609375 34.515625 
L 43.21875 34.515625 
L 43.21875 35.40625 
Q 43.21875 41.609375 39.140625 45 
Q 35.0625 48.390625 27.6875 48.390625 
Q 23 48.390625 18.546875 47.265625 
Q 14.109375 46.140625 10.015625 43.890625 
L 10.015625 52.203125 
Q 14.9375 54.109375 19.578125 55.046875 
Q 24.21875 56 28.609375 56 
Q 40.484375 56 46.34375 49.84375 
Q 52.203125 43.703125 52.203125 31.203125 
z
" id="DejaVuSans-97"/>
       <path d="M 44.28125 53.078125 
L 44.28125 44.578125 
Q 40.484375 46.53125 36.375 47.5 
Q 32.28125 48.484375 27.875 48.484375 
Q 21.1875 48.484375 17.84375 46.4375 
Q 14.5 44.390625 14.5 40.28125 
Q 14.5 37.15625 16.890625 35.375 
Q 19.28125 33.59375 26.515625 31.984375 
L 29.59375 31.296875 
Q 39.15625 29.25 43.1875 25.515625 
Q 47.21875 21.78125 47.21875 15.09375 
Q 47.21875 7.46875 41.1875 3.015625 
Q 35.15625 -1.421875 24.609375 -1.421875 
Q 20.21875 -1.421875 15.453125 -0.5625 
Q 10.6875 0.296875 5.421875 2 
L 5.421875 11.28125 
Q 10.40625 8.6875 15.234375 7.390625 
Q 20.0625 6.109375 24.8125 6.109375 
Q 31.15625 6.109375 34.5625 8.28125 
Q 37.984375 10.453125 37.984375 14.40625 
Q 37.984375 18.0625 35.515625 20.015625 
Q 33.0625 21.96875 24.703125 23.78125 
L 21.578125 24.515625 
Q 13.234375 26.265625 9.515625 29.90625 
Q 5.8125 33.546875 5.8125 39.890625 
Q 5.8125 47.609375 11.28125 51.796875 
Q 16.75 56 26.8125 56 
Q 31.78125 56 36.171875 55.265625 
Q 40.578125 54.546875 44.28125 53.078125 
z
" id="DejaVuSans-115"/>
       <path d="M 25.390625 72.90625 
L 33.6875 72.90625 
L 8.296875 -9.28125 
L 0 -9.28125 
z
" id="DejaVuSans-47"/>
       <path d="M 19.671875 64.796875 
L 19.671875 8.109375 
L 31.59375 8.109375 
Q 46.6875 8.109375 53.6875 14.9375 
Q 60.6875 21.78125 60.6875 36.53125 
Q 60.6875 51.171875 53.6875 57.984375 
Q 46.6875 64.796875 31.59375 64.796875 
z
M 9.8125 72.90625 
L 30.078125 72.90625 
Q 51.265625 72.90625 61.171875 64.09375 
Q 71.09375 55.28125 71.09375 36.53125 
Q 71.09375 17.671875 61.125 8.828125 
Q 51.171875 0 30.078125 0 
L 9.8125 0 
z
" id="DejaVuSans-68"/>
       <path d="M 9.8125 72.90625 
L 19.671875 72.90625 
L 19.671875 0 
L 9.8125 0 
z
" id="DejaVuSans-73"/>
       <path d="M 9.8125 72.90625 
L 24.515625 72.90625 
L 43.109375 23.296875 
L 61.8125 72.90625 
L 76.515625 72.90625 
L 76.515625 0 
L 66.890625 0 
L 66.890625 64.015625 
L 48.09375 14.015625 
L 38.1875 14.015625 
L 19.390625 64.015625 
L 19.390625 0 
L 9.8125 0 
z
" id="DejaVuSans-77"/>
      </defs>
      <use xlink:href="#DejaVuSans-108"/>
      <use x="27.783203" xlink:href="#DejaVuSans-111"/>
      <use x="88.964844" xlink:href="#DejaVuSans-103"/>
      <use x="152.441406" xlink:href="#DejaVuSans-49"/>
      <use x="216.064453" xlink:href="#DejaVuSans-48"/>
      <use x="279.6875" xlink:href="#DejaVuSans-32"/>
      <use x="311.474609" xlink:href="#DejaVuSans-111"/>
      <use x="372.65625" xlink:href="#DejaVuSans-102"/>
      <use x="407.861328" xlink:href="#DejaVuSans-32"/>
      <use x="439.648438" xlink:href="#DejaVuSans-70"/>
      <use x="497.167969" xlink:href="#DejaVuSans-69"/>
      <use x="560.351562" xlink:href="#DejaVuSans-118"/>
      <use x="619.53125" xlink:href="#DejaVuSans-97"/>
      <use x="680.810547" xlink:href="#DejaVuSans-108"/>
      <use x="708.59375" xlink:href="#DejaVuSans-115"/>
      <use x="760.693359" xlink:href="#DejaVuSans-32"/>
      <use x="792.480469" xlink:href="#DejaVuSans-47"/>
      <use x="826.171875" xlink:href="#DejaVuSans-32"/>
      <use x="857.958984" xlink:href="#DejaVuSans-68"/>
      <use x="934.960938" xlink:href="#DejaVuSans-73"/>
      <use x="964.453125" xlink:href="#DejaVuSans-77"/>
     </g>
    </g>
   </g>
   <g id="matplotlib.axis_2">
    <g id="ytick_1">
     <g id="line2d_69">
      <path clip-path="url(#p65b7ba35ca)" d="M 62.208 293.76 
L 460.8 293.76 
" style="fill:none;stroke:#b0b0b0;stroke-linecap:square;stroke-width:0.8;"/>
     </g>
     <g id="line2d_70">
      <defs>
       <path d="M 0 0 
L -3.5 0 
" id="mdb99eb4c97" style="stroke:#000000;stroke-width:0.8;"/>
      </defs>
      <g>
       <use style="stroke:#000000;stroke-width:0.8;" x="62.208" xlink:href="#mdb99eb4c97" y="293.76"/>
      </g>
     </g>
     <g id="text_4">
      <!-- 0.0 -->
      <g transform="translate(29.763 299.83875)scale(0.16 -0.16)">
       <defs>
        <path d="M 10.6875 12.40625 
L 21 12.40625 
L 21 0 
L 10.6875 0 
z
" id="DejaVuSans-46"/>
       </defs>
       <use xlink:href="#DejaVuSans-48"/>
       <use x="63.623047" xlink:href="#DejaVuSans-46"/>
       <use x="95.410156" xlink:href="#DejaVuSans-48"/>
      </g>
     </g>
    </g>
    <g id="ytick_2">
     <g id="line2d_71">
      <path clip-path="url(#p65b7ba35ca)" d="M 62.208 236.274059 
L 460.8 236.274059 
" style="fill:none;stroke:#b0b0b0;stroke-linecap:square;stroke-width:0.8;"/>
     </g>
     <g id="line2d_72">
      <g>
       <use style="stroke:#000000;stroke-width:0.8;" x="62.208" xlink:href="#mdb99eb4c97" y="236.274059"/>
      </g>
     </g>
     <g id="text_5">
      <!-- 0.2 -->
      <g transform="translate(29.763 242.352809)scale(0.16 -0.16)">
       <use xlink:href="#DejaVuSans-48"/>
       <use x="63.623047" xlink:href="#DejaVuSans-46"/>
       <use x="95.410156" xlink:href="#DejaVuSans-50"/>
      </g>
     </g>
    </g>
    <g id="ytick_3">
     <g id="line2d_73">
      <path clip-path="url(#p65b7ba35ca)" d="M 62.208 178.788119 
L 460.8 178.788119 
" style="fill:none;stroke:#b0b0b0;stroke-linecap:square;stroke-width:0.8;"/>
     </g>
     <g id="line2d_74">
      <g>
       <use style="stroke:#000000;stroke-width:0.8;" x="62.208" xlink:href="#mdb99eb4c97" y="178.788119"/>
      </g>
     </g>
     <g id="text_6">
      <!-- 0.4 -->
      <g transform="translate(29.763 184.866869)scale(0.16 -0.16)">
       <defs>
        <path d="M 37.796875 64.3125 
L 12.890625 25.390625 
L 37.796875 25.390625 
z
M 35.203125 72.90625 
L 47.609375 72.90625 
L 47.609375 25.390625 
L 58.015625 25.390625 
L 58.015625 17.1875 
L 47.609375 17.1875 
L 47.609375 0 
L 37.796875 0 
L 37.796875 17.1875 
L 4.890625 17.1875 
L 4.890625 26.703125 
z
" id="DejaVuSans-52"/>
       </defs>
       <use xlink:href="#DejaVuSans-48"/>
       <use x="63.623047" xlink:href="#DejaVuSans-46"/>
       <use x="95.410156" xlink:href="#DejaVuSans-52"/>
      </g>
     </g>
    </g>
    <g id="ytick_4">
     <g id="line2d_75">
      <path clip-path="url(#p65b7ba35ca)" d="M 62.208 121.302178 
L 460.8 121.302178 
" style="fill:none;stroke:#b0b0b0;stroke-linecap:square;stroke-width:0.8;"/>
     </g>
     <g id="line2d_76">
      <g>
       <use style="stroke:#000000;stroke-width:0.8;" x="62.208" xlink:href="#mdb99eb4c97" y="121.302178"/>
      </g>
     </g>
     <g id="text_7">
      <!-- 0.6 -->
      <g transform="translate(29.763 127.380928)scale(0.16 -0.16)">
       <defs>
        <path d="M 33.015625 40.375 
Q 26.375 40.375 22.484375 35.828125 
Q 18.609375 31.296875 18.609375 23.390625 
Q 18.609375 15.53125 22.484375 10.953125 
Q 26.375 6.390625 33.015625 6.390625 
Q 39.65625 6.390625 43.53125 10.953125 
Q 47.40625 15.53125 47.40625 23.390625 
Q 47.40625 31.296875 43.53125 35.828125 
Q 39.65625 40.375 33.015625 40.375 
z
M 52.59375 71.296875 
L 52.59375 62.3125 
Q 48.875 64.0625 45.09375 64.984375 
Q 41.3125 65.921875 37.59375 65.921875 
Q 27.828125 65.921875 22.671875 59.328125 
Q 17.53125 52.734375 16.796875 39.40625 
Q 19.671875 43.65625 24.015625 45.921875 
Q 28.375 48.1875 33.59375 48.1875 
Q 44.578125 48.1875 50.953125 41.515625 
Q 57.328125 34.859375 57.328125 23.390625 
Q 57.328125 12.15625 50.6875 5.359375 
Q 44.046875 -1.421875 33.015625 -1.421875 
Q 20.359375 -1.421875 13.671875 8.265625 
Q 6.984375 17.96875 6.984375 36.375 
Q 6.984375 53.65625 15.1875 63.9375 
Q 23.390625 74.21875 37.203125 74.21875 
Q 40.921875 74.21875 44.703125 73.484375 
Q 48.484375 72.75 52.59375 71.296875 
z
" id="DejaVuSans-54"/>
       </defs>
       <use xlink:href="#DejaVuSans-48"/>
       <use x="63.623047" xlink:href="#DejaVuSans-46"/>
       <use x="95.410156" xlink:href="#DejaVuSans-54"/>
      </g>
     </g>
    </g>
    <g id="ytick_5">
     <g id="line2d_77">
      <path clip-path="url(#p65b7ba35ca)" d="M 62.208 63.816238 
L 460.8 63.816238 
" style="fill:none;stroke:#b0b0b0;stroke-linecap:square;stroke-width:0.8;"/>
     </g>
     <g id="line2d_78">
      <g>
       <use style="stroke:#000000;stroke-width:0.8;" x="62.208" xlink:href="#mdb99eb4c97" y="63.816238"/>
      </g>
     </g>
     <g id="text_8">
      <!-- 0.8 -->
      <g transform="translate(29.763 69.894988)scale(0.16 -0.16)">
       <defs>
        <path d="M 31.78125 34.625 
Q 24.75 34.625 20.71875 30.859375 
Q 16.703125 27.09375 16.703125 20.515625 
Q 16.703125 13.921875 20.71875 10.15625 
Q 24.75 6.390625 31.78125 6.390625 
Q 38.8125 6.390625 42.859375 10.171875 
Q 46.921875 13.96875 46.921875 20.515625 
Q 46.921875 27.09375 42.890625 30.859375 
Q 38.875 34.625 31.78125 34.625 
z
M 21.921875 38.8125 
Q 15.578125 40.375 12.03125 44.71875 
Q 8.5 49.078125 8.5 55.328125 
Q 8.5 64.0625 14.71875 69.140625 
Q 20.953125 74.21875 31.78125 74.21875 
Q 42.671875 74.21875 48.875 69.140625 
Q 55.078125 64.0625 55.078125 55.328125 
Q 55.078125 49.078125 51.53125 44.71875 
Q 48 40.375 41.703125 38.8125 
Q 48.828125 37.15625 52.796875 32.3125 
Q 56.78125 27.484375 56.78125 20.515625 
Q 56.78125 9.90625 50.3125 4.234375 
Q 43.84375 -1.421875 31.78125 -1.421875 
Q 19.734375 -1.421875 13.25 4.234375 
Q 6.78125 9.90625 6.78125 20.515625 
Q 6.78125 27.484375 10.78125 32.3125 
Q 14.796875 37.15625 21.921875 38.8125 
z
M 18.3125 54.390625 
Q 18.3125 48.734375 21.84375 45.5625 
Q 25.390625 42.390625 31.78125 42.390625 
Q 38.140625 42.390625 41.71875 45.5625 
Q 45.3125 48.734375 45.3125 54.390625 
Q 45.3125 60.0625 41.71875 63.234375 
Q 38.140625 66.40625 31.78125 66.40625 
Q 25.390625 66.40625 21.84375 63.234375 
Q 18.3125 60.0625 18.3125 54.390625 
z
" id="DejaVuSans-56"/>
       </defs>
       <use xlink:href="#DejaVuSans-48"/>
       <use x="63.623047" xlink:href="#DejaVuSans-46"/>
       <use x="95.410156" xlink:href="#DejaVuSans-56"/>
      </g>
     </g>
    </g>
    <g id="ytick_6">
     <g id="line2d_79">
      <path clip-path="url(#p65b7ba35ca)" d="M 62.208 6.330297 
L 460.8 6.330297 
" style="fill:none;stroke:#b0b0b0;stroke-linecap:square;stroke-width:0.8;"/>
     </g>
     <g id="line2d_80">
      <g>
       <use style="stroke:#000000;stroke-width:0.8;" x="62.208" xlink:href="#mdb99eb4c97" y="6.330297"/>
      </g>
     </g>
     <g id="text_9">
      <!-- 1.0 -->
      <g transform="translate(29.763 12.409047)scale(0.16 -0.16)">
       <use xlink:href="#DejaVuSans-49"/>
       <use x="63.623047" xlink:href="#DejaVuSans-46"/>
       <use x="95.410156" xlink:href="#DejaVuSans-48"/>
      </g>
     </g>
    </g>
    <g id="text_10">
     <!-- proportion of trials -->
     <g transform="translate(21.603625 241.61425)rotate(-90)scale(0.2 -0.2)">
      <defs>
       <path d="M 18.109375 8.203125 
L 18.109375 -20.796875 
L 9.078125 -20.796875 
L 9.078125 54.6875 
L 18.109375 54.6875 
L 18.109375 46.390625 
Q 20.953125 51.265625 25.265625 53.625 
Q 29.59375 56 35.59375 56 
Q 45.5625 56 51.78125 48.09375 
Q 58.015625 40.1875 58.015625 27.296875 
Q 58.015625 14.40625 51.78125 6.484375 
Q 45.5625 -1.421875 35.59375 -1.421875 
Q 29.59375 -1.421875 25.265625 0.953125 
Q 20.953125 3.328125 18.109375 8.203125 
z
M 48.6875 27.296875 
Q 48.6875 37.203125 44.609375 42.84375 
Q 40.53125 48.484375 33.40625 48.484375 
Q 26.265625 48.484375 22.1875 42.84375 
Q 18.109375 37.203125 18.109375 27.296875 
Q 18.109375 17.390625 22.1875 11.75 
Q 26.265625 6.109375 33.40625 6.109375 
Q 40.53125 6.109375 44.609375 11.75 
Q 48.6875 17.390625 48.6875 27.296875 
z
" id="DejaVuSans-112"/>
       <path d="M 41.109375 46.296875 
Q 39.59375 47.171875 37.8125 47.578125 
Q 36.03125 48 33.890625 48 
Q 26.265625 48 22.1875 43.046875 
Q 18.109375 38.09375 18.109375 28.8125 
L 18.109375 0 
L 9.078125 0 
L 9.078125 54.6875 
L 18.109375 54.6875 
L 18.109375 46.1875 
Q 20.953125 51.171875 25.484375 53.578125 
Q 30.03125 56 36.53125 56 
Q 37.453125 56 38.578125 55.875 
Q 39.703125 55.765625 41.0625 55.515625 
z
" id="DejaVuSans-114"/>
       <path d="M 18.3125 70.21875 
L 18.3125 54.6875 
L 36.8125 54.6875 
L 36.8125 47.703125 
L 18.3125 47.703125 
L 18.3125 18.015625 
Q 18.3125 11.328125 20.140625 9.421875 
Q 21.96875 7.515625 27.59375 7.515625 
L 36.8125 7.515625 
L 36.8125 0 
L 27.59375 0 
Q 17.1875 0 13.234375 3.875 
Q 9.28125 7.765625 9.28125 18.015625 
L 9.28125 47.703125 
L 2.6875 47.703125 
L 2.6875 54.6875 
L 9.28125 54.6875 
L 9.28125 70.21875 
z
" id="DejaVuSans-116"/>
       <path d="M 9.421875 54.6875 
L 18.40625 54.6875 
L 18.40625 0 
L 9.421875 0 
z
M 9.421875 75.984375 
L 18.40625 75.984375 
L 18.40625 64.59375 
L 9.421875 64.59375 
z
" id="DejaVuSans-105"/>
       <path d="M 54.890625 33.015625 
L 54.890625 0 
L 45.90625 0 
L 45.90625 32.71875 
Q 45.90625 40.484375 42.875 44.328125 
Q 39.84375 48.1875 33.796875 48.1875 
Q 26.515625 48.1875 22.3125 43.546875 
Q 18.109375 38.921875 18.109375 30.90625 
L 18.109375 0 
L 9.078125 0 
L 9.078125 54.6875 
L 18.109375 54.6875 
L 18.109375 46.1875 
Q 21.34375 51.125 25.703125 53.5625 
Q 30.078125 56 35.796875 56 
Q 45.21875 56 50.046875 50.171875 
Q 54.890625 44.34375 54.890625 33.015625 
z
" id="DejaVuSans-110"/>
      </defs>
      <use xlink:href="#DejaVuSans-112"/>
      <use x="63.476562" xlink:href="#DejaVuSans-114"/>
      <use x="102.339844" xlink:href="#DejaVuSans-111"/>
      <use x="163.521484" xlink:href="#DejaVuSans-112"/>
      <use x="226.998047" xlink:href="#DejaVuSans-111"/>
      <use x="288.179688" xlink:href="#DejaVuSans-114"/>
      <use x="329.292969" xlink:href="#DejaVuSans-116"/>
      <use x="368.501953" xlink:href="#DejaVuSans-105"/>
      <use x="396.285156" xlink:href="#DejaVuSans-111"/>
      <use x="457.466797" xlink:href="#DejaVuSans-110"/>
      <use x="520.845703" xlink:href="#DejaVuSans-32"/>
      <use x="552.632812" xlink:href="#DejaVuSans-111"/>
      <use x="613.814453" xlink:href="#DejaVuSans-102"/>
      <use x="649.019531" xlink:href="#DejaVuSans-32"/>
      <use x="680.806641" xlink:href="#DejaVuSans-116"/>
      <use x="720.015625" xlink:href="#DejaVuSans-114"/>
      <use x="761.128906" xlink:href="#DejaVuSans-105"/>
      <use x="788.912109" xlink:href="#DejaVuSans-97"/>
      <use x="850.191406" xlink:href="#DejaVuSans-108"/>
      <use x="877.974609" xlink:href="#DejaVuSans-115"/>
     </g>
    </g>
   </g>
   <g id="line2d_81">
    <path clip-path="url(#p65b7ba35ca)" d="M -1 273.001188 
L 149.69524 273.001188 
L 149.69524 272.202772 
L 166.479146 272.202772 
L 166.479146 271.404356 
L 191.787152 271.404356 
L 191.787152 270.605941 
L 238.348639 270.605941 
L 238.348639 269.807525 
L 242.567449 269.807525 
L 242.567449 267.412277 
L 243.922725 267.412277 
L 243.922725 265.01703 
L 245.254011 265.01703 
L 245.254011 264.218614 
L 249.112074 264.218614 
L 249.112074 263.420198 
L 250.355337 263.420198 
L 250.355337 261.823366 
L 256.280899 261.823366 
L 256.280899 261.02495 
L 257.411984 261.02495 
L 257.411984 258.629703 
L 258.526311 258.629703 
L 258.526311 257.831287 
L 259.624371 257.831287 
L 259.624371 254.637624 
L 261.773538 254.637624 
L 261.773538 253.839208 
L 262.825523 253.839208 
L 262.825523 253.040792 
L 263.862998 253.040792 
L 263.862998 252.242376 
L 264.886357 252.242376 
L 264.886357 250.645545 
L 265.89598 250.645545 
L 265.89598 249.847129 
L 266.892229 249.847129 
L 266.892229 248.250297 
L 267.875455 248.250297 
L 267.875455 247.451881 
L 274.42008 247.451881 
L 274.42008 245.056634 
L 277.919117 245.056634 
L 277.919117 244.258218 
L 288.282619 244.258218 
L 288.282619 242.661386 
L 292.623192 242.661386 
L 292.623192 241.064554 
L 302.49091 241.064554 
L 302.49091 240.266139 
L 304.917435 240.266139 
L 304.917435 238.669307 
L 307.268118 238.669307 
L 307.268118 237.870891 
L 309.547557 237.870891 
L 309.547557 237.072475 
L 311.759944 237.072475 
L 311.759944 236.274059 
L 312.842203 236.274059 
L 312.842203 235.475644 
L 314.436943 235.475644 
L 314.436943 234.677228 
L 315.481622 234.677228 
L 315.481622 232.28198 
L 319.521022 232.28198 
L 319.521022 231.483564 
L 320.497863 231.483564 
L 320.497863 230.685149 
L 321.939742 230.685149 
L 321.939742 229.886733 
L 323.3545 229.886733 
L 323.3545 229.088317 
L 324.283101 229.088317 
L 324.283101 228.289901 
L 325.200377 228.289901 
L 325.200377 227.491485 
L 327.44579 227.491485 
L 327.44579 225.894653 
L 330.480842 225.894653 
L 330.480842 225.096238 
L 330.904594 225.096238 
L 330.904594 224.297822 
L 334.614615 224.297822 
L 334.614615 223.499406 
L 335.811708 223.499406 
L 335.811708 221.902574 
L 336.990046 221.902574 
L 336.990046 221.104158 
L 338.913827 221.104158 
L 338.913827 219.507327 
L 341.527043 219.507327 
L 341.527043 217.910495 
L 342.980533 217.910495 
L 342.980533 217.112079 
L 344.406466 217.112079 
L 344.406466 216.313663 
L 347.857334 216.313663 
L 347.857334 215.515248 
L 349.525157 215.515248 
L 349.525157 214.716832 
L 352.437097 214.716832 
L 352.437097 213.918416 
L 356.453676 213.918416 
L 356.453676 213.12 
L 358.237532 213.12 
L 358.237532 212.321584 
L 359.403691 212.321584 
L 359.403691 211.523168 
L 362.797457 211.523168 
L 362.797457 210.724752 
L 369.915988 210.724752 
L 369.915988 209.926337 
L 371.163375 209.926337 
L 371.163375 209.127921 
L 372.633436 209.127921 
L 372.633436 208.329505 
L 373.357831 208.329505 
L 373.357831 207.531089 
L 373.836913 207.531089 
L 373.836913 206.732673 
L 375.490073 206.732673 
L 375.490073 205.135842 
L 378.242175 205.135842 
L 378.242175 204.337426 
L 381.761682 204.337426 
L 381.761682 203.53901 
L 382.828589 203.53901 
L 382.828589 202.740594 
L 383.671352 202.740594 
L 383.671352 201.942178 
L 383.880575 201.942178 
L 383.880575 201.143762 
L 385.737848 201.143762 
L 385.737848 200.345347 
L 390.66856 200.345347 
L 390.66856 199.546931 
L 392.367356 199.546931 
L 392.367356 198.748515 
L 393.662616 198.748515 
L 393.662616 197.950099 
L 394.392872 197.950099 
L 394.392872 196.353267 
L 400.161363 196.353267 
L 400.161363 195.554851 
L 411.249415 195.554851 
L 411.249415 194.756436 
L 413.11377 194.756436 
L 413.11377 193.95802 
L 419.622974 193.95802 
L 419.622974 193.159604 
L 419.882339 193.159604 
L 419.882339 192.361188 
L 421.799581 192.361188 
L 421.799581 191.562772 
L 423.298948 191.562772 
L 423.298948 190.764356 
L 424.159971 190.764356 
L 424.159971 189.965941 
L 431.273184 189.965941 
L 431.273184 189.167525 
L 431.495387 189.167525 
L 431.495387 188.369109 
L 431.827466 188.369109 
L 431.827466 187.570693 
L 439.186825 187.570693 
L 439.186825 186.772277 
L 440.28053 186.772277 
L 440.28053 185.973861 
L 441.358559 185.973861 
L 441.358559 185.175446 
L 442.132987 185.175446 
L 442.132987 184.37703 
L 443.563894 184.37703 
L 443.563894 183.578614 
L 446.890931 183.578614 
L 446.890931 182.780198 
L 449.293057 182.780198 
L 449.293057 181.981782 
L 451.535894 181.981782 
L 451.535894 181.183366 
L 453.050356 181.183366 
L 453.050356 180.38495 
L 453.465684 180.38495 
L 453.465684 179.586535 
L 457.182792 179.586535 
L 457.182792 178.788119 
L 457.732675 178.788119 
L 457.732675 177.989703 
L 457.732675 177.989703 
L 460.8 177.989703 
L 460.8 177.989703 
" style="fill:none;stroke:#000000;stroke-linecap:square;stroke-width:1.5;"/>
   </g>
   <g id="line2d_82">
    <path clip-path="url(#p65b7ba35ca)" style="fill:none;stroke:#000000;stroke-linecap:square;stroke-width:1.5;"/>
   </g>
   <g id="line2d_83">
    <path clip-path="url(#p65b7ba35ca)" d="M 189.051733 293.76 
L 189.051733 292.961584 
L 194.426571 292.961584 
L 194.426571 292.163168 
L 194.426571 292.163168 
L 194.426571 291.364752 
L 210.68995 291.364752 
L 210.68995 290.566337 
L 224.05437 290.566337 
L 224.05437 289.767921 
L 224.05437 289.767921 
L 224.05437 288.969505 
L 229.127016 288.969505 
L 229.127016 288.171089 
L 233.879063 288.171089 
L 233.879063 287.372673 
L 235.398624 287.372673 
L 235.398624 286.574257 
L 235.398624 286.574257 
L 235.398624 285.775842 
L 236.888094 285.775842 
L 236.888094 284.977426 
L 238.348639 284.977426 
L 238.348639 284.17901 
L 238.348639 284.17901 
L 238.348639 283.380594 
L 241.187306 283.380594 
L 241.187306 282.582178 
L 245.254011 282.582178 
L 245.254011 281.783762 
L 253.966386 281.783762 
L 253.966386 280.985347 
L 287.534197 280.985347 
L 287.534197 280.186931 
L 287.534197 280.186931 
L 287.534197 279.388515 
L 291.203985 279.388515 
L 291.203985 278.590099 
L 292.623192 278.590099 
L 292.623192 277.791683 
L 292.623192 277.791683 
L 292.623192 276.993267 
L 337.378759 276.993267 
L 337.378759 276.194851 
L 377.790428 276.194851 
L 377.790428 275.396436 
L 378.691226 275.396436 
L 378.691226 274.59802 
L 378.691226 274.59802 
L 378.691226 273.799604 
L 382.828589 273.799604 
L 382.828589 273.001188 
L 403.453606 273.001188 
L 403.453606 272.202772 
L 403.935245 272.202772 
L 403.935245 271.404356 
L 404.57267 271.404356 
L 404.57267 270.605941 
L 404.889369 270.605941 
L 404.889369 269.807525 
L 406.142993 269.807525 
L 406.142993 269.009109 
L 417.914945 269.009109 
L 417.914945 268.210693 
L 418.576477 268.210693 
L 418.576477 267.412277 
L 421.293076 267.412277 
L 421.293076 266.613861 
L 421.673274 266.613861 
L 421.673274 265.815446 
L 429.5854 265.815446 
L 429.5854 265.01703 
L 431.050322 265.01703 
L 431.050322 264.218614 
L 433.574209 264.218614 
L 433.574209 263.420198 
L 434.004629 263.420198 
L 434.004629 262.621782 
L 437.873421 262.621782 
L 437.873421 261.823366 
L 440.968333 261.823366 
L 440.968333 261.02495 
L 443.469343 261.02495 
L 443.469343 260.226535 
L 447.161654 260.226535 
L 447.161654 259.428119 
L 451.790431 259.428119 
L 451.790431 258.629703 
L 453.878731 258.629703 
L 453.878731 257.831287 
L 455.347198 257.831287 
L 455.347198 257.032871 
L 456.070818 257.032871 
L 456.070818 256.234455 
L 456.230682 256.234455 
L 456.230682 255.43604 
L 457.024942 255.43604 
L 457.024942 254.637624 
L 458.974655 254.637624 
L 458.974655 253.839208 
L 460.19646 253.839208 
L 460.19646 253.040792 
L 460.19646 253.040792 
L 460.19646 253.040792 
L 460.8 253.040792 
" style="fill:none;stroke:#00bfbf;stroke-linecap:square;stroke-width:1.5;"/>
   </g>
   <g id="line2d_84">
    <path clip-path="url(#p65b7ba35ca)" style="fill:none;stroke:#00bfbf;stroke-linecap:square;stroke-width:1.5;"/>
   </g>
   <g id="line2d_85">
    <path clip-path="url(#p65b7ba35ca)" d="M 287.534197 293.76 
L 287.534197 292.961584 
L 287.534197 292.961584 
L 287.534197 292.163168 
L 291.203985 292.163168 
L 291.203985 291.364752 
L 292.623192 291.364752 
L 292.623192 290.566337 
L 292.623192 290.566337 
L 292.623192 289.767921 
L 337.378759 289.767921 
L 337.378759 288.969505 
L 378.691226 288.969505 
L 378.691226 288.171089 
L 378.691226 288.171089 
L 378.691226 287.372673 
L 382.828589 287.372673 
L 382.828589 286.574257 
L 441.940126 286.574257 
L 441.940126 285.775842 
L 444.034877 285.775842 
L 444.034877 284.977426 
L 444.502929 284.977426 
L 444.502929 284.17901 
L 446.890931 284.17901 
L 446.890931 283.380594 
L 450.68116 283.380594 
L 450.68116 282.582178 
L 451.875086 282.582178 
L 451.875086 281.783762 
L 454.043317 281.783762 
L 454.043317 280.985347 
L 456.150792 280.985347 
L 456.150792 280.186931 
L 457.340312 280.186931 
L 457.340312 279.388515 
L 457.732675 279.388515 
L 457.732675 278.590099 
L 458.045098 278.590099 
L 458.045098 277.791683 
L 459.816774 277.791683 
L 459.816774 276.993267 
L 459.816774 276.993267 
L 459.816774 276.993267 
L 460.8 276.993267 
" style="fill:none;stroke:#bf00bf;stroke-linecap:square;stroke-width:1.5;"/>
   </g>
   <g id="line2d_86">
    <path clip-path="url(#p65b7ba35ca)" style="fill:none;stroke:#bf00bf;stroke-linecap:square;stroke-width:1.5;"/>
   </g>
   <g id="line2d_87">
    <path clip-path="url(#p65b7ba35ca)" d="M 287.534197 293.76 
L 287.534197 292.961584 
L 287.534197 292.961584 
L 287.534197 292.163168 
L 291.203985 292.163168 
L 291.203985 291.364752 
L 292.623192 291.364752 
L 292.623192 290.566337 
L 292.623192 290.566337 
L 292.623192 289.767921 
L 337.378759 289.767921 
L 337.378759 288.969505 
L 378.691226 288.969505 
L 378.691226 288.171089 
L 378.691226 288.171089 
L 378.691226 287.372673 
L 382.828589 287.372673 
L 382.828589 286.574257 
L 447.431406 286.574257 
L 447.431406 285.775842 
L 450.59515 285.775842 
L 450.59515 284.977426 
L 451.02422 284.977426 
L 451.02422 284.17901 
L 458.045098 284.17901 
L 458.045098 283.380594 
L 458.045098 283.380594 
L 458.045098 283.380594 
L 460.8 283.380594 
" style="fill:none;stroke:#ff0000;stroke-linecap:square;stroke-width:3;"/>
   </g>
   <g id="line2d_88">
    <path clip-path="url(#p65b7ba35ca)" style="fill:none;stroke:#ff0000;stroke-linecap:square;stroke-width:3;"/>
   </g>
   <g id="line2d_89">
    <path clip-path="url(#p65b7ba35ca)" d="M 460.8 293.76 
L 460.8 3.456 
" style="fill:none;stroke:#000000;stroke-linecap:square;stroke-width:1.5;"/>
   </g>
   <g id="patch_3">
    <path d="M 62.208 293.76 
L 62.208 3.456 
" style="fill:none;stroke:#000000;stroke-linecap:square;stroke-linejoin:miter;stroke-width:0.8;"/>
   </g>
   <g id="patch_4">
    <path d="M 460.8 293.76 
L 460.8 3.456 
" style="fill:none;stroke:#000000;stroke-linecap:square;stroke-linejoin:miter;stroke-width:0.8;"/>
   </g>
   <g id="patch_5">
    <path d="M 62.208 293.76 
L 460.8 293.76 
" style="fill:none;stroke:#000000;stroke-linecap:square;stroke-linejoin:miter;stroke-width:0.8;"/>
   </g>
   <g id="patch_6">
    <path d="M 62.208 3.456 
L 460.8 3.456 
" style="fill:none;stroke:#000000;stroke-linecap:square;stroke-linejoin:miter;stroke-width:0.8;"/>
   </g>
   <g id="text_11">
    <!-- {f1-f24}, 5-D -->
    <g transform="translate(195.0165 24.458955)scale(0.2 -0.2)">
     <defs>
      <path d="M 51.125 -9.28125 
L 51.125 -16.3125 
L 48.09375 -16.3125 
Q 35.9375 -16.3125 31.8125 -12.6875 
Q 27.6875 -9.078125 27.6875 1.703125 
L 27.6875 13.375 
Q 27.6875 20.75 25.046875 23.578125 
Q 22.40625 26.421875 15.484375 26.421875 
L 12.5 26.421875 
L 12.5 33.40625 
L 15.484375 33.40625 
Q 22.46875 33.40625 25.078125 36.203125 
Q 27.6875 39.015625 27.6875 46.296875 
L 27.6875 58.015625 
Q 27.6875 68.796875 31.8125 72.390625 
Q 35.9375 75.984375 48.09375 75.984375 
L 51.125 75.984375 
L 51.125 69 
L 47.796875 69 
Q 40.921875 69 38.8125 66.84375 
Q 36.71875 64.703125 36.71875 57.8125 
L 36.71875 45.703125 
Q 36.71875 38.03125 34.5 34.5625 
Q 32.28125 31.109375 26.90625 29.890625 
Q 32.328125 28.5625 34.515625 25.09375 
Q 36.71875 21.625 36.71875 14.015625 
L 36.71875 1.90625 
Q 36.71875 -4.984375 38.8125 -7.125 
Q 40.921875 -9.28125 47.796875 -9.28125 
z
" id="DejaVuSans-123"/>
      <path d="M 4.890625 31.390625 
L 31.203125 31.390625 
L 31.203125 23.390625 
L 4.890625 23.390625 
z
" id="DejaVuSans-45"/>
      <path d="M 12.5 -9.28125 
L 15.921875 -9.28125 
Q 22.75 -9.28125 24.828125 -7.171875 
Q 26.90625 -5.078125 26.90625 1.90625 
L 26.90625 14.015625 
Q 26.90625 21.625 29.09375 25.09375 
Q 31.296875 28.5625 36.71875 29.890625 
Q 31.296875 31.109375 29.09375 34.5625 
Q 26.90625 38.03125 26.90625 45.703125 
L 26.90625 57.8125 
Q 26.90625 64.75 24.828125 66.875 
Q 22.75 69 15.921875 69 
L 12.5 69 
L 12.5 75.984375 
L 15.578125 75.984375 
Q 27.734375 75.984375 31.8125 72.390625 
Q 35.890625 68.796875 35.890625 58.015625 
L 35.890625 46.296875 
Q 35.890625 39.015625 38.515625 36.203125 
Q 41.15625 33.40625 48.09375 33.40625 
L 51.125 33.40625 
L 51.125 26.421875 
L 48.09375 26.421875 
Q 41.15625 26.421875 38.515625 23.578125 
Q 35.890625 20.75 35.890625 13.375 
L 35.890625 1.703125 
Q 35.890625 -9.078125 31.8125 -12.6875 
Q 27.734375 -16.3125 15.578125 -16.3125 
L 12.5 -16.3125 
z
" id="DejaVuSans-125"/>
      <path d="M 11.71875 12.40625 
L 22.015625 12.40625 
L 22.015625 4 
L 14.015625 -11.625 
L 7.71875 -11.625 
L 11.71875 4 
z
" id="DejaVuSans-44"/>
      <path d="M 10.796875 72.90625 
L 49.515625 72.90625 
L 49.515625 64.59375 
L 19.828125 64.59375 
L 19.828125 46.734375 
Q 21.96875 47.46875 24.109375 47.828125 
Q 26.265625 48.1875 28.421875 48.1875 
Q 40.625 48.1875 47.75 41.5 
Q 54.890625 34.8125 54.890625 23.390625 
Q 54.890625 11.625 47.5625 5.09375 
Q 40.234375 -1.421875 26.90625 -1.421875 
Q 22.3125 -1.421875 17.546875 -0.640625 
Q 12.796875 0.140625 7.71875 1.703125 
L 7.71875 11.625 
Q 12.109375 9.234375 16.796875 8.0625 
Q 21.484375 6.890625 26.703125 6.890625 
Q 35.15625 6.890625 40.078125 11.328125 
Q 45.015625 15.765625 45.015625 23.390625 
Q 45.015625 31 40.078125 35.4375 
Q 35.15625 39.890625 26.703125 39.890625 
Q 22.75 39.890625 18.8125 39.015625 
Q 14.890625 38.140625 10.796875 36.28125 
z
" id="DejaVuSans-53"/>
     </defs>
     <use xlink:href="#DejaVuSans-123"/>
     <use x="63.623047" xlink:href="#DejaVuSans-102"/>
     <use x="98.828125" xlink:href="#DejaVuSans-49"/>
     <use x="162.451172" xlink:href="#DejaVuSans-45"/>
     <use x="198.535156" xlink:href="#DejaVuSans-102"/>
     <use x="233.740234" xlink:href="#DejaVuSans-50"/>
     <use x="297.363281" xlink:href="#DejaVuSans-52"/>
     <use x="360.986328" xlink:href="#DejaVuSans-125"/>
     <use x="424.609375" xlink:href="#DejaVuSans-44"/>
     <use x="456.396484" xlink:href="#DejaVuSans-32"/>
     <use x="488.183594" xlink:href="#DejaVuSans-53"/>
     <use x="551.806641" xlink:href="#DejaVuSans-45"/>
     <use x="587.890625" xlink:href="#DejaVuSans-68"/>
    </g>
   </g>
   <g id="text_12">
    <!-- absolute targets -->
    <g transform="translate(62.208 609.174178)scale(0.14 -0.14)">
     <defs>
      <path d="M 48.6875 27.296875 
Q 48.6875 37.203125 44.609375 42.84375 
Q 40.53125 48.484375 33.40625 48.484375 
Q 26.265625 48.484375 22.1875 42.84375 
Q 18.109375 37.203125 18.109375 27.296875 
Q 18.109375 17.390625 22.1875 11.75 
Q 26.265625 6.109375 33.40625 6.109375 
Q 40.53125 6.109375 44.609375 11.75 
Q 48.6875 17.390625 48.6875 27.296875 
z
M 18.109375 46.390625 
Q 20.953125 51.265625 25.265625 53.625 
Q 29.59375 56 35.59375 56 
Q 45.5625 56 51.78125 48.09375 
Q 58.015625 40.1875 58.015625 27.296875 
Q 58.015625 14.40625 51.78125 6.484375 
Q 45.5625 -1.421875 35.59375 -1.421875 
Q 29.59375 -1.421875 25.265625 0.953125 
Q 20.953125 3.328125 18.109375 8.203125 
L 18.109375 0 
L 9.078125 0 
L 9.078125 75.984375 
L 18.109375 75.984375 
z
" id="DejaVuSans-98"/>
      <path d="M 8.5 21.578125 
L 8.5 54.6875 
L 17.484375 54.6875 
L 17.484375 21.921875 
Q 17.484375 14.15625 20.5 10.265625 
Q 23.53125 6.390625 29.59375 6.390625 
Q 36.859375 6.390625 41.078125 11.03125 
Q 45.3125 15.671875 45.3125 23.6875 
L 45.3125 54.6875 
L 54.296875 54.6875 
L 54.296875 0 
L 45.3125 0 
L 45.3125 8.40625 
Q 42.046875 3.421875 37.71875 1 
Q 33.40625 -1.421875 27.6875 -1.421875 
Q 18.265625 -1.421875 13.375 4.4375 
Q 8.5 10.296875 8.5 21.578125 
z
M 31.109375 56 
z
" id="DejaVuSans-117"/>
      <path d="M 56.203125 29.59375 
L 56.203125 25.203125 
L 14.890625 25.203125 
Q 15.484375 15.921875 20.484375 11.0625 
Q 25.484375 6.203125 34.421875 6.203125 
Q 39.59375 6.203125 44.453125 7.46875 
Q 49.3125 8.734375 54.109375 11.28125 
L 54.109375 2.78125 
Q 49.265625 0.734375 44.1875 -0.34375 
Q 39.109375 -1.421875 33.890625 -1.421875 
Q 20.796875 -1.421875 13.15625 6.1875 
Q 5.515625 13.8125 5.515625 26.8125 
Q 5.515625 40.234375 12.765625 48.109375 
Q 20.015625 56 32.328125 56 
Q 43.359375 56 49.78125 48.890625 
Q 56.203125 41.796875 56.203125 29.59375 
z
M 47.21875 32.234375 
Q 47.125 39.59375 43.09375 43.984375 
Q 39.0625 48.390625 32.421875 48.390625 
Q 24.90625 48.390625 20.390625 44.140625 
Q 15.875 39.890625 15.1875 32.171875 
z
" id="DejaVuSans-101"/>
     </defs>
     <use xlink:href="#DejaVuSans-97"/>
     <use x="61.279297" xlink:href="#DejaVuSans-98"/>
     <use x="124.755859" xlink:href="#DejaVuSans-115"/>
     <use x="176.855469" xlink:href="#DejaVuSans-111"/>
     <use x="238.037109" xlink:href="#DejaVuSans-108"/>
     <use x="265.820312" xlink:href="#DejaVuSans-117"/>
     <use x="329.199219" xlink:href="#DejaVuSans-116"/>
     <use x="368.408203" xlink:href="#DejaVuSans-101"/>
     <use x="429.931641" xlink:href="#DejaVuSans-32"/>
     <use x="461.71875" xlink:href="#DejaVuSans-116"/>
     <use x="500.927734" xlink:href="#DejaVuSans-97"/>
     <use x="562.207031" xlink:href="#DejaVuSans-114"/>
     <use x="601.570312" xlink:href="#DejaVuSans-103"/>
     <use x="665.046875" xlink:href="#DejaVuSans-101"/>
     <use x="726.570312" xlink:href="#DejaVuSans-116"/>
     <use x="765.779297" xlink:href="#DejaVuSans-115"/>
    </g>
   </g>
   <g id="text_13">
    <!-- v2.4 -->
    <g style="fill:#808080;" transform="translate(250.593063 288.777272)scale(0.1 -0.1)">
     <use xlink:href="#DejaVuSans-118"/>
     <use x="59.179688" xlink:href="#DejaVuSans-50"/>
     <use x="122.802734" xlink:href="#DejaVuSans-46"/>
     <use x="154.589844" xlink:href="#DejaVuSans-52"/>
    </g>
   </g>
   <g id="legend_1">
    <g id="patch_7">
     <path d="M 299.34375 136.881 
L 446.8 136.881 
Q 450.8 136.881 450.8 132.881 
L 450.8 17.456 
Q 450.8 13.456 446.8 13.456 
L 299.34375 13.456 
Q 295.34375 13.456 295.34375 17.456 
L 295.34375 132.881 
Q 295.34375 136.881 299.34375 136.881 
z
" style="fill:#ffffff;opacity:0.2;stroke:#cccccc;stroke-linejoin:miter;"/>
    </g>
    <g id="line2d_90">
     <path d="M 303.34375 29.652875 
L 343.34375 29.652875 
" style="fill:none;stroke:#000000;stroke-linecap:square;stroke-width:1.5;"/>
    </g>
    <g id="line2d_91"/>
    <g id="text_14">
     <!-- 1: 16/24 -->
     <g transform="translate(359.34375 36.652875)scale(0.2 -0.2)">
      <defs>
       <path d="M 11.71875 12.40625 
L 22.015625 12.40625 
L 22.015625 0 
L 11.71875 0 
z
M 11.71875 51.703125 
L 22.015625 51.703125 
L 22.015625 39.3125 
L 11.71875 39.3125 
z
" id="DejaVuSans-58"/>
      </defs>
      <use xlink:href="#DejaVuSans-49"/>
      <use x="63.623047" xlink:href="#DejaVuSans-58"/>
      <use x="97.314453" xlink:href="#DejaVuSans-32"/>
      <use x="129.101562" xlink:href="#DejaVuSans-49"/>
      <use x="192.724609" xlink:href="#DejaVuSans-54"/>
      <use x="256.347656" xlink:href="#DejaVuSans-47"/>
      <use x="290.039062" xlink:href="#DejaVuSans-50"/>
      <use x="353.662109" xlink:href="#DejaVuSans-52"/>
     </g>
    </g>
    <g id="line2d_92">
     <path d="M 303.34375 59.009125 
L 343.34375 59.009125 
" style="fill:none;stroke:#00bfbf;stroke-linecap:square;stroke-width:1.5;"/>
    </g>
    <g id="line2d_93"/>
    <g id="text_15">
     <!-- -1: 8/24 -->
     <g transform="translate(359.34375 66.009125)scale(0.2 -0.2)">
      <use xlink:href="#DejaVuSans-45"/>
      <use x="36.083984" xlink:href="#DejaVuSans-49"/>
      <use x="99.707031" xlink:href="#DejaVuSans-58"/>
      <use x="133.398438" xlink:href="#DejaVuSans-32"/>
      <use x="165.185547" xlink:href="#DejaVuSans-56"/>
      <use x="228.808594" xlink:href="#DejaVuSans-47"/>
      <use x="262.5" xlink:href="#DejaVuSans-50"/>
      <use x="326.123047" xlink:href="#DejaVuSans-52"/>
     </g>
    </g>
    <g id="line2d_94">
     <path d="M 303.34375 88.365375 
L 343.34375 88.365375 
" style="fill:none;stroke:#bf00bf;stroke-linecap:square;stroke-width:1.5;"/>
    </g>
    <g id="line2d_95"/>
    <g id="text_16">
     <!-- -4: 5/24 -->
     <g transform="translate(359.34375 95.365375)scale(0.2 -0.2)">
      <use xlink:href="#DejaVuSans-45"/>
      <use x="36.083984" xlink:href="#DejaVuSans-52"/>
      <use x="99.707031" xlink:href="#DejaVuSans-58"/>
      <use x="133.398438" xlink:href="#DejaVuSans-32"/>
      <use x="165.185547" xlink:href="#DejaVuSans-53"/>
      <use x="228.808594" xlink:href="#DejaVuSans-47"/>
      <use x="262.5" xlink:href="#DejaVuSans-50"/>
      <use x="326.123047" xlink:href="#DejaVuSans-52"/>
     </g>
    </g>
    <g id="line2d_96">
     <path d="M 303.34375 117.721625 
L 343.34375 117.721625 
" style="fill:none;stroke:#ff0000;stroke-linecap:square;stroke-width:3;"/>
    </g>
    <g id="line2d_97"/>
    <g id="text_17">
     <!-- -8: 4/24 -->
     <g transform="translate(359.34375 124.721625)scale(0.2 -0.2)">
      <use xlink:href="#DejaVuSans-45"/>
      <use x="36.083984" xlink:href="#DejaVuSans-56"/>
      <use x="99.707031" xlink:href="#DejaVuSans-58"/>
      <use x="133.398438" xlink:href="#DejaVuSans-32"/>
      <use x="165.185547" xlink:href="#DejaVuSans-52"/>
      <use x="228.808594" xlink:href="#DejaVuSans-47"/>
      <use x="262.5" xlink:href="#DejaVuSans-50"/>
      <use x="326.123047" xlink:href="#DejaVuSans-52"/>
     </g>
    </g>
   </g>
  </g>
 </g>
 <defs>
  <clipPath id="p65b7ba35ca">
   <rect height="290.304" width="398.592" x="62.208" y="3.456"/>
  </clipPath>
 </defs>
</svg>
