<?xml version="1.0" encoding="utf-8" standalone="no"?>
<!DOCTYPE svg PUBLIC "-//W3C//DTD SVG 1.1//EN"
  "http://www.w3.org/Graphics/SVG/1.1/DTD/svg11.dtd">
<!-- Created with matplotlib (https://matplotlib.org/) -->
<svg height="345.6pt" version="1.1" viewBox="0 0 460.8 345.6" width="460.8pt" xmlns="http://www.w3.org/2000/svg" xmlns:xlink="http://www.w3.org/1999/xlink">
 <metadata>
  <rdf:RDF xmlns:cc="http://creativecommons.org/ns#" xmlns:dc="http://purl.org/dc/elements/1.1/" xmlns:rdf="http://www.w3.org/1999/02/22-rdf-syntax-ns#">
   <cc:Work>
    <dc:type rdf:resource="http://purl.org/dc/dcmitype/StillImage"/>
    <dc:date>2021-08-04T10:25:04.534542</dc:date>
    <dc:format>image/svg+xml</dc:format>
    <dc:creator>
     <cc:Agent>
      <dc:title>Matplotlib v3.3.1, https://matplotlib.org/</dc:title>
     </cc:Agent>
    </dc:creator>
   </cc:Work>
  </rdf:RDF>
 </metadata>
 <defs>
  <style type="text/css">*{stroke-linecap:butt;stroke-linejoin:round;}</style>
 </defs>
 <g id="figure_1">
  <g id="patch_1">
   <path d="M 0 345.6 
L 460.8 345.6 
L 460.8 0 
L 0 0 
z
" style="fill:#ffffff;"/>
  </g>
  <g id="axes_1">
   <g id="patch_2">
    <path d="M 22.69 315.44 
L 453.192 315.44 
L 453.192 27.72 
L 22.69 27.72 
z
" style="fill:#ffffff;"/>
   </g>
   <g id="line2d_1">
    <path clip-path="url(#pf7cfa6ea7a)" d="M 36.781228 269.053974 
L 91.009334 272.558165 
L 159.328668 275.692771 
L 252.032228 276.958972 
L 344.735788 278.965434 
L 437.439347 280.021802 
" style="fill:none;stroke:#f5deb3;stroke-linecap:square;stroke-width:10;"/>
    <defs>
     <path d="M -0 17.67767 
L 10.606602 0 
L 0 -17.67767 
L -10.606602 -0 
z
" id="md34db8702c" style="stroke:#000000;stroke-linejoin:miter;"/>
    </defs>
    <g clip-path="url(#pf7cfa6ea7a)">
     <use style="fill:#f5deb3;stroke:#000000;stroke-linejoin:miter;" x="36.781228" xlink:href="#md34db8702c" y="269.053974"/>
     <use style="fill:#f5deb3;stroke:#000000;stroke-linejoin:miter;" x="91.009334" xlink:href="#md34db8702c" y="272.558165"/>
     <use style="fill:#f5deb3;stroke:#000000;stroke-linejoin:miter;" x="159.328668" xlink:href="#md34db8702c" y="275.692771"/>
     <use style="fill:#f5deb3;stroke:#000000;stroke-linejoin:miter;" x="252.032228" xlink:href="#md34db8702c" y="276.958972"/>
     <use style="fill:#f5deb3;stroke:#000000;stroke-linejoin:miter;" x="344.735788" xlink:href="#md34db8702c" y="278.965434"/>
     <use style="fill:#f5deb3;stroke:#000000;stroke-linejoin:miter;" x="437.439347" xlink:href="#md34db8702c" y="280.021802"/>
    </g>
   </g>
   <g id="line2d_2">
    <defs>
     <path d="M -15 0 
L 15 0 
M 0 15 
L 0 -15 
" id="mda75e22aa2" style="stroke:#000000;stroke-width:5;"/>
    </defs>
    <g clip-path="url(#pf7cfa6ea7a)">
     <use style="stroke:#000000;stroke-width:5;" x="252.032228" xlink:href="#mda75e22aa2" y="171.64857"/>
    </g>
   </g>
   <g id="line2d_3">
    <defs>
     <path d="M -15 0 
L 15 0 
M 0 15 
L 0 -15 
" id="mc31f1113b6" style="stroke:#ff0000;stroke-width:5;"/>
    </defs>
    <g clip-path="url(#pf7cfa6ea7a)">
     <use style="fill:#ff0000;stroke:#ff0000;stroke-width:5;" x="159.328668" xlink:href="#mc31f1113b6" y="145.167506"/>
    </g>
   </g>
   <g id="matplotlib.axis_1">
    <g id="xtick_1">
     <g id="line2d_4">
      <defs>
       <path d="M 0 0 
L 0 3.5 
" id="m38fc391109" style="stroke:#000000;stroke-width:0.8;"/>
      </defs>
      <g>
       <use style="stroke:#000000;stroke-width:0.8;" x="36.781228" xlink:href="#m38fc391109" y="315.44"/>
      </g>
     </g>
     <g id="text_1">
      <!-- 2 -->
      <g transform="translate(30.418728 337.636875)scale(0.2 -0.2)">
       <defs>
        <path d="M 19.1875 8.296875 
L 53.609375 8.296875 
L 53.609375 0 
L 7.328125 0 
L 7.328125 8.296875 
Q 12.9375 14.109375 22.625 23.890625 
Q 32.328125 33.6875 34.8125 36.53125 
Q 39.546875 41.84375 41.421875 45.53125 
Q 43.3125 49.21875 43.3125 52.78125 
Q 43.3125 58.59375 39.234375 62.25 
Q 35.15625 65.921875 28.609375 65.921875 
Q 23.96875 65.921875 18.8125 64.3125 
Q 13.671875 62.703125 7.8125 59.421875 
L 7.8125 69.390625 
Q 13.765625 71.78125 18.9375 73 
Q 24.125 74.21875 28.421875 74.21875 
Q 39.75 74.21875 46.484375 68.546875 
Q 53.21875 62.890625 53.21875 53.421875 
Q 53.21875 48.921875 51.53125 44.890625 
Q 49.859375 40.875 45.40625 35.40625 
Q 44.1875 33.984375 37.640625 27.21875 
Q 31.109375 20.453125 19.1875 8.296875 
z
" id="DejaVuSans-50"/>
       </defs>
       <use xlink:href="#DejaVuSans-50"/>
      </g>
     </g>
    </g>
    <g id="xtick_2">
     <g id="line2d_5">
      <g>
       <use style="stroke:#000000;stroke-width:0.8;" x="91.009334" xlink:href="#m38fc391109" y="315.44"/>
      </g>
     </g>
     <g id="text_2">
      <!-- 3 -->
      <g transform="translate(84.646834 337.636875)scale(0.2 -0.2)">
       <defs>
        <path d="M 40.578125 39.3125 
Q 47.65625 37.796875 51.625 33 
Q 55.609375 28.21875 55.609375 21.1875 
Q 55.609375 10.40625 48.1875 4.484375 
Q 40.765625 -1.421875 27.09375 -1.421875 
Q 22.515625 -1.421875 17.65625 -0.515625 
Q 12.796875 0.390625 7.625 2.203125 
L 7.625 11.71875 
Q 11.71875 9.328125 16.59375 8.109375 
Q 21.484375 6.890625 26.8125 6.890625 
Q 36.078125 6.890625 40.9375 10.546875 
Q 45.796875 14.203125 45.796875 21.1875 
Q 45.796875 27.640625 41.28125 31.265625 
Q 36.765625 34.90625 28.71875 34.90625 
L 20.21875 34.90625 
L 20.21875 43.015625 
L 29.109375 43.015625 
Q 36.375 43.015625 40.234375 45.921875 
Q 44.09375 48.828125 44.09375 54.296875 
Q 44.09375 59.90625 40.109375 62.90625 
Q 36.140625 65.921875 28.71875 65.921875 
Q 24.65625 65.921875 20.015625 65.03125 
Q 15.375 64.15625 9.8125 62.3125 
L 9.8125 71.09375 
Q 15.4375 72.65625 20.34375 73.4375 
Q 25.25 74.21875 29.59375 74.21875 
Q 40.828125 74.21875 47.359375 69.109375 
Q 53.90625 64.015625 53.90625 55.328125 
Q 53.90625 49.265625 50.4375 45.09375 
Q 46.96875 40.921875 40.578125 39.3125 
z
" id="DejaVuSans-51"/>
       </defs>
       <use xlink:href="#DejaVuSans-51"/>
      </g>
     </g>
    </g>
    <g id="xtick_3">
     <g id="line2d_6">
      <g>
       <use style="stroke:#000000;stroke-width:0.8;" x="159.328668" xlink:href="#m38fc391109" y="315.44"/>
      </g>
     </g>
     <g id="text_3">
      <!-- 5 -->
      <g transform="translate(152.966168 337.636875)scale(0.2 -0.2)">
       <defs>
        <path d="M 10.796875 72.90625 
L 49.515625 72.90625 
L 49.515625 64.59375 
L 19.828125 64.59375 
L 19.828125 46.734375 
Q 21.96875 47.46875 24.109375 47.828125 
Q 26.265625 48.1875 28.421875 48.1875 
Q 40.625 48.1875 47.75 41.5 
Q 54.890625 34.8125 54.890625 23.390625 
Q 54.890625 11.625 47.5625 5.09375 
Q 40.234375 -1.421875 26.90625 -1.421875 
Q 22.3125 -1.421875 17.546875 -0.640625 
Q 12.796875 0.140625 7.71875 1.703125 
L 7.71875 11.625 
Q 12.109375 9.234375 16.796875 8.0625 
Q 21.484375 6.890625 26.703125 6.890625 
Q 35.15625 6.890625 40.078125 11.328125 
Q 45.015625 15.765625 45.015625 23.390625 
Q 45.015625 31 40.078125 35.4375 
Q 35.15625 39.890625 26.703125 39.890625 
Q 22.75 39.890625 18.8125 39.015625 
Q 14.890625 38.140625 10.796875 36.28125 
z
" id="DejaVuSans-53"/>
       </defs>
       <use xlink:href="#DejaVuSans-53"/>
      </g>
     </g>
    </g>
    <g id="xtick_4">
     <g id="line2d_7">
      <g>
       <use style="stroke:#000000;stroke-width:0.8;" x="252.032228" xlink:href="#m38fc391109" y="315.44"/>
      </g>
     </g>
     <g id="text_4">
      <!-- 10 -->
      <g transform="translate(239.307228 337.636875)scale(0.2 -0.2)">
       <defs>
        <path d="M 12.40625 8.296875 
L 28.515625 8.296875 
L 28.515625 63.921875 
L 10.984375 60.40625 
L 10.984375 69.390625 
L 28.421875 72.90625 
L 38.28125 72.90625 
L 38.28125 8.296875 
L 54.390625 8.296875 
L 54.390625 0 
L 12.40625 0 
z
" id="DejaVuSans-49"/>
        <path d="M 31.78125 66.40625 
Q 24.171875 66.40625 20.328125 58.90625 
Q 16.5 51.421875 16.5 36.375 
Q 16.5 21.390625 20.328125 13.890625 
Q 24.171875 6.390625 31.78125 6.390625 
Q 39.453125 6.390625 43.28125 13.890625 
Q 47.125 21.390625 47.125 36.375 
Q 47.125 51.421875 43.28125 58.90625 
Q 39.453125 66.40625 31.78125 66.40625 
z
M 31.78125 74.21875 
Q 44.046875 74.21875 50.515625 64.515625 
Q 56.984375 54.828125 56.984375 36.375 
Q 56.984375 17.96875 50.515625 8.265625 
Q 44.046875 -1.421875 31.78125 -1.421875 
Q 19.53125 -1.421875 13.0625 8.265625 
Q 6.59375 17.96875 6.59375 36.375 
Q 6.59375 54.828125 13.0625 64.515625 
Q 19.53125 74.21875 31.78125 74.21875 
z
" id="DejaVuSans-48"/>
       </defs>
       <use xlink:href="#DejaVuSans-49"/>
       <use x="63.623047" xlink:href="#DejaVuSans-48"/>
      </g>
     </g>
    </g>
    <g id="xtick_5">
     <g id="line2d_8">
      <g>
       <use style="stroke:#000000;stroke-width:0.8;" x="344.735788" xlink:href="#m38fc391109" y="315.44"/>
      </g>
     </g>
     <g id="text_5">
      <!-- 20 -->
      <g transform="translate(332.010788 337.636875)scale(0.2 -0.2)">
       <use xlink:href="#DejaVuSans-50"/>
       <use x="63.623047" xlink:href="#DejaVuSans-48"/>
      </g>
     </g>
    </g>
    <g id="xtick_6">
     <g id="line2d_9">
      <g>
       <use style="stroke:#000000;stroke-width:0.8;" x="437.439347" xlink:href="#m38fc391109" y="315.44"/>
      </g>
     </g>
     <g id="text_6">
      <!-- 40 -->
      <g transform="translate(424.714347 337.636875)scale(0.2 -0.2)">
       <defs>
        <path d="M 37.796875 64.3125 
L 12.890625 25.390625 
L 37.796875 25.390625 
z
M 35.203125 72.90625 
L 47.609375 72.90625 
L 47.609375 25.390625 
L 58.015625 25.390625 
L 58.015625 17.1875 
L 47.609375 17.1875 
L 47.609375 0 
L 37.796875 0 
L 37.796875 17.1875 
L 4.890625 17.1875 
L 4.890625 26.703125 
z
" id="DejaVuSans-52"/>
       </defs>
       <use xlink:href="#DejaVuSans-52"/>
       <use x="63.623047" xlink:href="#DejaVuSans-48"/>
      </g>
     </g>
    </g>
    <g id="xtick_7">
     <g id="line2d_10">
      <defs>
       <path d="M 0 0 
L 0 2 
" id="m4c41c7b956" style="stroke:#000000;stroke-width:0.6;"/>
      </defs>
      <g>
       <use style="stroke:#000000;stroke-width:0.6;" x="129.484788" xlink:href="#m4c41c7b956" y="315.44"/>
      </g>
     </g>
    </g>
    <g id="xtick_8">
     <g id="line2d_11">
      <g>
       <use style="stroke:#000000;stroke-width:0.6;" x="183.712894" xlink:href="#m4c41c7b956" y="315.44"/>
      </g>
     </g>
    </g>
    <g id="xtick_9">
     <g id="line2d_12">
      <g>
       <use style="stroke:#000000;stroke-width:0.6;" x="204.329463" xlink:href="#m4c41c7b956" y="315.44"/>
      </g>
     </g>
    </g>
    <g id="xtick_10">
     <g id="line2d_13">
      <g>
       <use style="stroke:#000000;stroke-width:0.6;" x="222.188347" xlink:href="#m4c41c7b956" y="315.44"/>
      </g>
     </g>
    </g>
    <g id="xtick_11">
     <g id="line2d_14">
      <g>
       <use style="stroke:#000000;stroke-width:0.6;" x="237.941" xlink:href="#m4c41c7b956" y="315.44"/>
      </g>
     </g>
    </g>
    <g id="xtick_12">
     <g id="line2d_15">
      <g>
       <use style="stroke:#000000;stroke-width:0.6;" x="398.963894" xlink:href="#m4c41c7b956" y="315.44"/>
      </g>
     </g>
    </g>
   </g>
   <g id="matplotlib.axis_2">
    <g id="ytick_1">
     <g id="line2d_16">
      <path clip-path="url(#pf7cfa6ea7a)" d="M 22.69 301.739049 
L 453.192 301.739049 
" style="fill:none;stroke:#b0b0b0;stroke-linecap:square;stroke-width:0.8;"/>
     </g>
     <g id="line2d_17">
      <defs>
       <path d="M 0 0 
L -3.5 0 
" id="m1f9b51cede" style="stroke:#000000;stroke-width:0.8;"/>
      </defs>
      <g>
       <use style="stroke:#000000;stroke-width:0.8;" x="22.69" xlink:href="#m1f9b51cede" y="301.739049"/>
      </g>
     </g>
     <g id="text_7">
      <!-- 0 -->
      <g transform="translate(2.965 309.337487)scale(0.2 -0.2)">
       <use xlink:href="#DejaVuSans-48"/>
      </g>
     </g>
    </g>
    <g id="ytick_2">
     <g id="line2d_18">
      <path clip-path="url(#pf7cfa6ea7a)" d="M 22.69 233.234294 
L 453.192 233.234294 
" style="fill:none;stroke:#b0b0b0;stroke-linecap:square;stroke-width:0.8;"/>
     </g>
     <g id="line2d_19">
      <g>
       <use style="stroke:#000000;stroke-width:0.8;" x="22.69" xlink:href="#m1f9b51cede" y="233.234294"/>
      </g>
     </g>
     <g id="text_8">
      <!-- 1 -->
      <g transform="translate(2.965 240.832732)scale(0.2 -0.2)">
       <use xlink:href="#DejaVuSans-49"/>
      </g>
     </g>
    </g>
    <g id="ytick_3">
     <g id="line2d_20">
      <path clip-path="url(#pf7cfa6ea7a)" d="M 22.69 164.729539 
L 453.192 164.729539 
" style="fill:none;stroke:#b0b0b0;stroke-linecap:square;stroke-width:0.8;"/>
     </g>
     <g id="line2d_21">
      <g>
       <use style="stroke:#000000;stroke-width:0.8;" x="22.69" xlink:href="#m1f9b51cede" y="164.729539"/>
      </g>
     </g>
     <g id="text_9">
      <!-- 2 -->
      <g transform="translate(2.965 172.327977)scale(0.2 -0.2)">
       <use xlink:href="#DejaVuSans-50"/>
      </g>
     </g>
    </g>
    <g id="ytick_4">
     <g id="line2d_22">
      <path clip-path="url(#pf7cfa6ea7a)" d="M 22.69 96.224785 
L 453.192 96.224785 
" style="fill:none;stroke:#b0b0b0;stroke-linecap:square;stroke-width:0.8;"/>
     </g>
     <g id="line2d_23">
      <g>
       <use style="stroke:#000000;stroke-width:0.8;" x="22.69" xlink:href="#m1f9b51cede" y="96.224785"/>
      </g>
     </g>
     <g id="text_10">
      <!-- 3 -->
      <g transform="translate(2.965 103.823222)scale(0.2 -0.2)">
       <use xlink:href="#DejaVuSans-51"/>
      </g>
     </g>
    </g>
    <g id="ytick_5">
     <g id="line2d_24">
      <path clip-path="url(#pf7cfa6ea7a)" d="M 22.69 27.72003 
L 453.192 27.72003 
" style="fill:none;stroke:#b0b0b0;stroke-linecap:square;stroke-width:0.8;"/>
     </g>
     <g id="line2d_25">
      <g>
       <use style="stroke:#000000;stroke-width:0.8;" x="22.69" xlink:href="#m1f9b51cede" y="27.72003"/>
      </g>
     </g>
     <g id="text_11">
      <!-- 4 -->
      <g transform="translate(2.965 35.318467)scale(0.2 -0.2)">
       <use xlink:href="#DejaVuSans-52"/>
      </g>
     </g>
    </g>
    <g id="ytick_6">
     <g id="line2d_26">
      <defs>
       <path d="M 0 0 
L -2 0 
" id="mc1f30716b8" style="stroke:#000000;stroke-width:0.6;"/>
      </defs>
      <g>
       <use style="stroke:#000000;stroke-width:0.6;" x="22.69" xlink:href="#mc1f30716b8" y="312.35057"/>
      </g>
     </g>
    </g>
    <g id="ytick_7">
     <g id="line2d_27">
      <g>
       <use style="stroke:#000000;stroke-width:0.6;" x="22.69" xlink:href="#mc1f30716b8" y="308.377846"/>
      </g>
     </g>
    </g>
    <g id="ytick_8">
     <g id="line2d_28">
      <g>
       <use style="stroke:#000000;stroke-width:0.6;" x="22.69" xlink:href="#mc1f30716b8" y="304.873655"/>
      </g>
     </g>
    </g>
    <g id="ytick_9">
     <g id="line2d_29">
      <g>
       <use style="stroke:#000000;stroke-width:0.6;" x="22.69" xlink:href="#mc1f30716b8" y="281.117063"/>
      </g>
     </g>
    </g>
    <g id="ytick_10">
     <g id="line2d_30">
      <g>
       <use style="stroke:#000000;stroke-width:0.6;" x="22.69" xlink:href="#mc1f30716b8" y="269.053974"/>
      </g>
     </g>
    </g>
    <g id="ytick_11">
     <g id="line2d_31">
      <g>
       <use style="stroke:#000000;stroke-width:0.6;" x="22.69" xlink:href="#mc1f30716b8" y="260.495077"/>
      </g>
     </g>
    </g>
    <g id="ytick_12">
     <g id="line2d_32">
      <g>
       <use style="stroke:#000000;stroke-width:0.6;" x="22.69" xlink:href="#mc1f30716b8" y="253.85628"/>
      </g>
     </g>
    </g>
    <g id="ytick_13">
     <g id="line2d_33">
      <g>
       <use style="stroke:#000000;stroke-width:0.6;" x="22.69" xlink:href="#mc1f30716b8" y="248.431988"/>
      </g>
     </g>
    </g>
    <g id="ytick_14">
     <g id="line2d_34">
      <g>
       <use style="stroke:#000000;stroke-width:0.6;" x="22.69" xlink:href="#mc1f30716b8" y="243.845815"/>
      </g>
     </g>
    </g>
    <g id="ytick_15">
     <g id="line2d_35">
      <g>
       <use style="stroke:#000000;stroke-width:0.6;" x="22.69" xlink:href="#mc1f30716b8" y="239.873091"/>
      </g>
     </g>
    </g>
    <g id="ytick_16">
     <g id="line2d_36">
      <g>
       <use style="stroke:#000000;stroke-width:0.6;" x="22.69" xlink:href="#mc1f30716b8" y="236.3689"/>
      </g>
     </g>
    </g>
    <g id="ytick_17">
     <g id="line2d_37">
      <g>
       <use style="stroke:#000000;stroke-width:0.6;" x="22.69" xlink:href="#mc1f30716b8" y="212.612308"/>
      </g>
     </g>
    </g>
    <g id="ytick_18">
     <g id="line2d_38">
      <g>
       <use style="stroke:#000000;stroke-width:0.6;" x="22.69" xlink:href="#mc1f30716b8" y="200.54922"/>
      </g>
     </g>
    </g>
    <g id="ytick_19">
     <g id="line2d_39">
      <g>
       <use style="stroke:#000000;stroke-width:0.6;" x="22.69" xlink:href="#mc1f30716b8" y="191.990322"/>
      </g>
     </g>
    </g>
    <g id="ytick_20">
     <g id="line2d_40">
      <g>
       <use style="stroke:#000000;stroke-width:0.6;" x="22.69" xlink:href="#mc1f30716b8" y="185.351525"/>
      </g>
     </g>
    </g>
    <g id="ytick_21">
     <g id="line2d_41">
      <g>
       <use style="stroke:#000000;stroke-width:0.6;" x="22.69" xlink:href="#mc1f30716b8" y="179.927234"/>
      </g>
     </g>
    </g>
    <g id="ytick_22">
     <g id="line2d_42">
      <g>
       <use style="stroke:#000000;stroke-width:0.6;" x="22.69" xlink:href="#mc1f30716b8" y="175.34106"/>
      </g>
     </g>
    </g>
    <g id="ytick_23">
     <g id="line2d_43">
      <g>
       <use style="stroke:#000000;stroke-width:0.6;" x="22.69" xlink:href="#mc1f30716b8" y="171.368336"/>
      </g>
     </g>
    </g>
    <g id="ytick_24">
     <g id="line2d_44">
      <g>
       <use style="stroke:#000000;stroke-width:0.6;" x="22.69" xlink:href="#mc1f30716b8" y="167.864145"/>
      </g>
     </g>
    </g>
    <g id="ytick_25">
     <g id="line2d_45">
      <g>
       <use style="stroke:#000000;stroke-width:0.6;" x="22.69" xlink:href="#mc1f30716b8" y="144.107553"/>
      </g>
     </g>
    </g>
    <g id="ytick_26">
     <g id="line2d_46">
      <g>
       <use style="stroke:#000000;stroke-width:0.6;" x="22.69" xlink:href="#mc1f30716b8" y="132.044465"/>
      </g>
     </g>
    </g>
    <g id="ytick_27">
     <g id="line2d_47">
      <g>
       <use style="stroke:#000000;stroke-width:0.6;" x="22.69" xlink:href="#mc1f30716b8" y="123.485567"/>
      </g>
     </g>
    </g>
    <g id="ytick_28">
     <g id="line2d_48">
      <g>
       <use style="stroke:#000000;stroke-width:0.6;" x="22.69" xlink:href="#mc1f30716b8" y="116.846771"/>
      </g>
     </g>
    </g>
    <g id="ytick_29">
     <g id="line2d_49">
      <g>
       <use style="stroke:#000000;stroke-width:0.6;" x="22.69" xlink:href="#mc1f30716b8" y="111.422479"/>
      </g>
     </g>
    </g>
    <g id="ytick_30">
     <g id="line2d_50">
      <g>
       <use style="stroke:#000000;stroke-width:0.6;" x="22.69" xlink:href="#mc1f30716b8" y="106.836305"/>
      </g>
     </g>
    </g>
    <g id="ytick_31">
     <g id="line2d_51">
      <g>
       <use style="stroke:#000000;stroke-width:0.6;" x="22.69" xlink:href="#mc1f30716b8" y="102.863581"/>
      </g>
     </g>
    </g>
    <g id="ytick_32">
     <g id="line2d_52">
      <g>
       <use style="stroke:#000000;stroke-width:0.6;" x="22.69" xlink:href="#mc1f30716b8" y="99.35939"/>
      </g>
     </g>
    </g>
    <g id="ytick_33">
     <g id="line2d_53">
      <g>
       <use style="stroke:#000000;stroke-width:0.6;" x="22.69" xlink:href="#mc1f30716b8" y="75.602799"/>
      </g>
     </g>
    </g>
    <g id="ytick_34">
     <g id="line2d_54">
      <g>
       <use style="stroke:#000000;stroke-width:0.6;" x="22.69" xlink:href="#mc1f30716b8" y="63.53971"/>
      </g>
     </g>
    </g>
    <g id="ytick_35">
     <g id="line2d_55">
      <g>
       <use style="stroke:#000000;stroke-width:0.6;" x="22.69" xlink:href="#mc1f30716b8" y="54.980812"/>
      </g>
     </g>
    </g>
    <g id="ytick_36">
     <g id="line2d_56">
      <g>
       <use style="stroke:#000000;stroke-width:0.6;" x="22.69" xlink:href="#mc1f30716b8" y="48.342016"/>
      </g>
     </g>
    </g>
    <g id="ytick_37">
     <g id="line2d_57">
      <g>
       <use style="stroke:#000000;stroke-width:0.6;" x="22.69" xlink:href="#mc1f30716b8" y="42.917724"/>
      </g>
     </g>
    </g>
    <g id="ytick_38">
     <g id="line2d_58">
      <g>
       <use style="stroke:#000000;stroke-width:0.6;" x="22.69" xlink:href="#mc1f30716b8" y="38.331551"/>
      </g>
     </g>
    </g>
    <g id="ytick_39">
     <g id="line2d_59">
      <g>
       <use style="stroke:#000000;stroke-width:0.6;" x="22.69" xlink:href="#mc1f30716b8" y="34.358826"/>
      </g>
     </g>
    </g>
    <g id="ytick_40">
     <g id="line2d_60">
      <g>
       <use style="stroke:#000000;stroke-width:0.6;" x="22.69" xlink:href="#mc1f30716b8" y="30.854635"/>
      </g>
     </g>
    </g>
   </g>
   <g id="line2d_61">
    <path clip-path="url(#pf7cfa6ea7a)" d="M 33.594461 322.361035 
L 35.825198 239.873091 
L 33.594461 216.585032 
L 39.967994 216.585032 
L 37.737258 239.873091 
L 39.967994 322.361035 
L 33.594461 322.361035 
" style="fill:none;stroke:#000000;stroke-linecap:square;"/>
   </g>
   <g id="line2d_62">
    <path clip-path="url(#pf7cfa6ea7a)" d="M 33.594461 322.361035 
L 39.967994 322.361035 
L 39.967994 216.585032 
L 33.594461 216.585032 
L 33.594461 322.361035 
" style="fill:none;"/>
    <defs>
     <path d="M 0 3 
C 0.795609 3 1.55874 2.683901 2.12132 2.12132 
C 2.683901 1.55874 3 0.795609 3 0 
C 3 -0.795609 2.683901 -1.55874 2.12132 -2.12132 
C 1.55874 -2.683901 0.795609 -3 0 -3 
C -0.795609 -3 -1.55874 -2.683901 -2.12132 -2.12132 
C -2.683901 -1.55874 -3 -0.795609 -3 0 
C -3 0.795609 -2.683901 1.55874 -2.12132 2.12132 
C -1.55874 2.683901 -0.795609 3 0 3 
z
" id="mfd0856ad9f" style="stroke:#000000;stroke-width:2;"/>
    </defs>
    <g clip-path="url(#pf7cfa6ea7a)">
     <use style="stroke:#000000;stroke-width:2;" x="33.594461" xlink:href="#mfd0856ad9f" y="322.361035"/>
     <use style="stroke:#000000;stroke-width:2;" x="39.967994" xlink:href="#mfd0856ad9f" y="322.361035"/>
     <use style="stroke:#000000;stroke-width:2;" x="39.967994" xlink:href="#mfd0856ad9f" y="216.585032"/>
     <use style="stroke:#000000;stroke-width:2;" x="33.594461" xlink:href="#mfd0856ad9f" y="216.585032"/>
     <use style="stroke:#000000;stroke-width:2;" x="33.594461" xlink:href="#mfd0856ad9f" y="322.361035"/>
    </g>
   </g>
   <g id="line2d_63">
    <path clip-path="url(#pf7cfa6ea7a)" d="M 33.594461 239.873091 
L 39.967994 239.873091 
" style="fill:none;stroke:#000000;stroke-linecap:square;stroke-width:2;"/>
   </g>
   <g id="line2d_64">
    <path clip-path="url(#pf7cfa6ea7a)" d="M 87.822567 223.940761 
L 90.053304 223.223829 
L 87.822567 219.251105 
L 94.196101 219.251105 
L 91.965364 223.223829 
L 94.196101 223.940761 
L 87.822567 223.940761 
" style="fill:none;stroke:#000000;stroke-linecap:square;"/>
   </g>
   <g id="line2d_65">
    <path clip-path="url(#pf7cfa6ea7a)" d="M 87.822567 223.940761 
L 94.196101 223.940761 
L 94.196101 219.251105 
L 87.822567 219.251105 
L 87.822567 223.940761 
" style="fill:none;"/>
    <g clip-path="url(#pf7cfa6ea7a)">
     <use style="stroke:#000000;stroke-width:2;" x="87.822567" xlink:href="#mfd0856ad9f" y="223.940761"/>
     <use style="stroke:#000000;stroke-width:2;" x="94.196101" xlink:href="#mfd0856ad9f" y="223.940761"/>
     <use style="stroke:#000000;stroke-width:2;" x="94.196101" xlink:href="#mfd0856ad9f" y="219.251105"/>
     <use style="stroke:#000000;stroke-width:2;" x="87.822567" xlink:href="#mfd0856ad9f" y="219.251105"/>
     <use style="stroke:#000000;stroke-width:2;" x="87.822567" xlink:href="#mfd0856ad9f" y="223.940761"/>
    </g>
   </g>
   <g id="line2d_66">
    <path clip-path="url(#pf7cfa6ea7a)" d="M 87.822567 223.223829 
L 94.196101 223.223829 
" style="fill:none;stroke:#000000;stroke-linecap:square;stroke-width:2;"/>
   </g>
   <g id="line2d_67">
    <path clip-path="url(#pf7cfa6ea7a)" d="M 156.141902 224.086244 
L 158.372638 220.777144 
L 156.141902 193.516361 
L 162.515435 193.516361 
L 160.284698 220.777144 
L 162.515435 224.086244 
L 156.141902 224.086244 
" style="fill:none;stroke:#000000;stroke-linecap:square;"/>
   </g>
   <g id="line2d_68">
    <path clip-path="url(#pf7cfa6ea7a)" d="M 156.141902 224.086244 
L 162.515435 224.086244 
L 162.515435 193.516361 
L 156.141902 193.516361 
L 156.141902 224.086244 
" style="fill:none;"/>
    <g clip-path="url(#pf7cfa6ea7a)">
     <use style="stroke:#000000;stroke-width:2;" x="156.141902" xlink:href="#mfd0856ad9f" y="224.086244"/>
     <use style="stroke:#000000;stroke-width:2;" x="162.515435" xlink:href="#mfd0856ad9f" y="224.086244"/>
     <use style="stroke:#000000;stroke-width:2;" x="162.515435" xlink:href="#mfd0856ad9f" y="193.516361"/>
     <use style="stroke:#000000;stroke-width:2;" x="156.141902" xlink:href="#mfd0856ad9f" y="193.516361"/>
     <use style="stroke:#000000;stroke-width:2;" x="156.141902" xlink:href="#mfd0856ad9f" y="224.086244"/>
    </g>
   </g>
   <g id="line2d_69">
    <path clip-path="url(#pf7cfa6ea7a)" d="M 156.141902 220.777144 
L 162.515435 220.777144 
" style="fill:none;stroke:#000000;stroke-linecap:square;stroke-width:2;"/>
   </g>
   <g id="line2d_70">
    <path clip-path="url(#pf7cfa6ea7a)" d="M 248.845461 167.600858 
L 251.076198 155.603373 
L 248.845461 130.611793 
L 255.218994 130.611793 
L 252.988258 155.603373 
L 255.218994 167.600858 
L 248.845461 167.600858 
" style="fill:none;stroke:#000000;stroke-linecap:square;"/>
   </g>
   <g id="line2d_71">
    <path clip-path="url(#pf7cfa6ea7a)" d="M 248.845461 167.600858 
L 255.218994 167.600858 
L 255.218994 130.611793 
L 248.845461 130.611793 
L 248.845461 167.600858 
" style="fill:none;"/>
    <g clip-path="url(#pf7cfa6ea7a)">
     <use style="stroke:#000000;stroke-width:2;" x="248.845461" xlink:href="#mfd0856ad9f" y="167.600858"/>
     <use style="stroke:#000000;stroke-width:2;" x="255.218994" xlink:href="#mfd0856ad9f" y="167.600858"/>
     <use style="stroke:#000000;stroke-width:2;" x="255.218994" xlink:href="#mfd0856ad9f" y="130.611793"/>
     <use style="stroke:#000000;stroke-width:2;" x="248.845461" xlink:href="#mfd0856ad9f" y="130.611793"/>
     <use style="stroke:#000000;stroke-width:2;" x="248.845461" xlink:href="#mfd0856ad9f" y="167.600858"/>
    </g>
   </g>
   <g id="line2d_72">
    <path clip-path="url(#pf7cfa6ea7a)" d="M 248.845461 155.603373 
L 255.218994 155.603373 
" style="fill:none;stroke:#000000;stroke-linecap:square;stroke-width:2;"/>
   </g>
   <g id="line2d_73">
    <path clip-path="url(#pf7cfa6ea7a)" d="M 36.781228 232.451322 
L 91.009334 223.082493 
" style="fill:none;stroke:#000000;stroke-linecap:square;stroke-width:4;"/>
   </g>
   <g id="line2d_74">
    <path clip-path="url(#pf7cfa6ea7a)" d="M 91.009334 223.082493 
L 159.328668 192.957927 
" style="fill:none;stroke:#000000;stroke-linecap:square;stroke-width:4;"/>
   </g>
   <g id="line2d_75">
    <path clip-path="url(#pf7cfa6ea7a)" d="M 159.328668 192.957927 
L 252.032228 136.410797 
" style="fill:none;stroke:#000000;stroke-linecap:square;stroke-width:4;"/>
   </g>
   <g id="line2d_76">
    <path clip-path="url(#pf7cfa6ea7a)" d="M 36.781228 232.451322 
L 91.009334 223.082493 
L 159.328668 192.957927 
L 252.032228 136.410797 
" style="fill:none;"/>
    <defs>
     <path d="M 0 10 
C 2.652031 10 5.195799 8.946337 7.071068 7.071068 
C 8.946337 5.195799 10 2.652031 10 0 
C 10 -2.652031 8.946337 -5.195799 7.071068 -7.071068 
C 5.195799 -8.946337 2.652031 -10 0 -10 
C -2.652031 -10 -5.195799 -8.946337 -7.071068 -7.071068 
C -8.946337 -5.195799 -10 -2.652031 -10 0 
C -10 2.652031 -8.946337 5.195799 -7.071068 7.071068 
C -5.195799 8.946337 -2.652031 10 0 10 
z
" id="m0922ad0a67" style="stroke:#000000;stroke-width:2;"/>
    </defs>
    <g clip-path="url(#pf7cfa6ea7a)">
     <use style="stroke:#000000;stroke-width:2;" x="36.781228" xlink:href="#m0922ad0a67" y="232.451322"/>
     <use style="stroke:#000000;stroke-width:2;" x="91.009334" xlink:href="#m0922ad0a67" y="223.082493"/>
     <use style="stroke:#000000;stroke-width:2;" x="159.328668" xlink:href="#m0922ad0a67" y="192.957927"/>
     <use style="stroke:#000000;stroke-width:2;" x="252.032228" xlink:href="#m0922ad0a67" y="136.410797"/>
    </g>
   </g>
   <g id="line2d_77">
    <path clip-path="url(#pf7cfa6ea7a)" d="M 32.532206 220.195668 
L 35.506521 214.532409 
L 32.532206 214.138347 
L 41.03025 214.138347 
L 38.055934 214.532409 
L 41.03025 220.195668 
L 32.532206 220.195668 
" style="fill:none;stroke:#0000ff;stroke-linecap:square;"/>
   </g>
   <g id="line2d_78">
    <path clip-path="url(#pf7cfa6ea7a)" d="M 32.532206 220.195668 
L 41.03025 220.195668 
L 41.03025 214.138347 
L 32.532206 214.138347 
L 32.532206 220.195668 
" style="fill:none;"/>
    <defs>
     <path d="M 0 1.5 
C 0.397805 1.5 0.77937 1.341951 1.06066 1.06066 
C 1.341951 0.77937 1.5 0.397805 1.5 0 
C 1.5 -0.397805 1.341951 -0.77937 1.06066 -1.06066 
C 0.77937 -1.341951 0.397805 -1.5 0 -1.5 
C -0.397805 -1.5 -0.77937 -1.341951 -1.06066 -1.06066 
C -1.341951 -0.77937 -1.5 -0.397805 -1.5 0 
C -1.5 0.397805 -1.341951 0.77937 -1.06066 1.06066 
C -0.77937 1.341951 -0.397805 1.5 0 1.5 
z
" id="m72bf04f472" style="stroke:#0000ff;"/>
    </defs>
    <g clip-path="url(#pf7cfa6ea7a)">
     <use style="fill:#0000ff;stroke:#0000ff;" x="32.532206" xlink:href="#m72bf04f472" y="220.195668"/>
     <use style="fill:#0000ff;stroke:#0000ff;" x="41.03025" xlink:href="#m72bf04f472" y="220.195668"/>
     <use style="fill:#0000ff;stroke:#0000ff;" x="41.03025" xlink:href="#m72bf04f472" y="214.138347"/>
     <use style="fill:#0000ff;stroke:#0000ff;" x="32.532206" xlink:href="#m72bf04f472" y="214.138347"/>
     <use style="fill:#0000ff;stroke:#0000ff;" x="32.532206" xlink:href="#m72bf04f472" y="220.195668"/>
    </g>
   </g>
   <g id="line2d_79">
    <path clip-path="url(#pf7cfa6ea7a)" d="M 32.532206 214.532409 
L 41.03025 214.532409 
" style="fill:none;stroke:#0000ff;stroke-linecap:square;stroke-width:2;"/>
   </g>
   <g id="line2d_80">
    <path clip-path="url(#pf7cfa6ea7a)" d="M 86.760312 219.251105 
L 89.734627 187.61742 
L 86.760312 181.627767 
L 95.258356 181.627767 
L 92.284041 187.61742 
L 95.258356 219.251105 
L 86.760312 219.251105 
" style="fill:none;stroke:#0000ff;stroke-linecap:square;"/>
   </g>
   <g id="line2d_81">
    <path clip-path="url(#pf7cfa6ea7a)" d="M 86.760312 219.251105 
L 95.258356 219.251105 
L 95.258356 181.627767 
L 86.760312 181.627767 
L 86.760312 219.251105 
" style="fill:none;"/>
    <g clip-path="url(#pf7cfa6ea7a)">
     <use style="fill:#0000ff;stroke:#0000ff;" x="86.760312" xlink:href="#m72bf04f472" y="219.251105"/>
     <use style="fill:#0000ff;stroke:#0000ff;" x="95.258356" xlink:href="#m72bf04f472" y="219.251105"/>
     <use style="fill:#0000ff;stroke:#0000ff;" x="95.258356" xlink:href="#m72bf04f472" y="181.627767"/>
     <use style="fill:#0000ff;stroke:#0000ff;" x="86.760312" xlink:href="#m72bf04f472" y="181.627767"/>
     <use style="fill:#0000ff;stroke:#0000ff;" x="86.760312" xlink:href="#m72bf04f472" y="219.251105"/>
    </g>
   </g>
   <g id="line2d_82">
    <path clip-path="url(#pf7cfa6ea7a)" d="M 86.760312 187.61742 
L 95.258356 187.61742 
" style="fill:none;stroke:#0000ff;stroke-linecap:square;stroke-width:2;"/>
   </g>
   <g id="line2d_83">
    <path clip-path="url(#pf7cfa6ea7a)" d="M 155.079646 161.8399 
L 158.053961 149.118217 
L 155.079646 125.105706 
L 163.57769 125.105706 
L 160.603375 149.118217 
L 163.57769 161.8399 
L 155.079646 161.8399 
" style="fill:none;stroke:#0000ff;stroke-linecap:square;"/>
   </g>
   <g id="line2d_84">
    <path clip-path="url(#pf7cfa6ea7a)" d="M 155.079646 161.8399 
L 163.57769 161.8399 
L 163.57769 125.105706 
L 155.079646 125.105706 
L 155.079646 161.8399 
" style="fill:none;"/>
    <g clip-path="url(#pf7cfa6ea7a)">
     <use style="fill:#0000ff;stroke:#0000ff;" x="155.079646" xlink:href="#m72bf04f472" y="161.8399"/>
     <use style="fill:#0000ff;stroke:#0000ff;" x="163.57769" xlink:href="#m72bf04f472" y="161.8399"/>
     <use style="fill:#0000ff;stroke:#0000ff;" x="163.57769" xlink:href="#m72bf04f472" y="125.105706"/>
     <use style="fill:#0000ff;stroke:#0000ff;" x="155.079646" xlink:href="#m72bf04f472" y="125.105706"/>
     <use style="fill:#0000ff;stroke:#0000ff;" x="155.079646" xlink:href="#m72bf04f472" y="161.8399"/>
    </g>
   </g>
   <g id="line2d_85">
    <path clip-path="url(#pf7cfa6ea7a)" d="M 155.079646 149.118217 
L 163.57769 149.118217 
" style="fill:none;stroke:#0000ff;stroke-linecap:square;stroke-width:2;"/>
   </g>
   <g id="line2d_86">
    <path clip-path="url(#pf7cfa6ea7a)" d="M 36.781228 209.867005 
L 91.009334 185.724086 
" style="fill:none;stroke:#0000ff;stroke-linecap:square;stroke-width:4;"/>
   </g>
   <g id="line2d_87">
    <path clip-path="url(#pf7cfa6ea7a)" d="M 91.009334 185.724086 
L 159.328668 143.291757 
" style="fill:none;stroke:#0000ff;stroke-linecap:square;stroke-width:4;"/>
   </g>
   <g id="line2d_88">
    <path clip-path="url(#pf7cfa6ea7a)" d="M 36.781228 209.867005 
L 91.009334 185.724086 
L 159.328668 143.291757 
" style="fill:none;"/>
    <defs>
     <path d="M 0 5 
C 1.326016 5 2.597899 4.473168 3.535534 3.535534 
C 4.473168 2.597899 5 1.326016 5 0 
C 5 -1.326016 4.473168 -2.597899 3.535534 -3.535534 
C 2.597899 -4.473168 1.326016 -5 0 -5 
C -1.326016 -5 -2.597899 -4.473168 -3.535534 -3.535534 
C -4.473168 -2.597899 -5 -1.326016 -5 0 
C -5 1.326016 -4.473168 2.597899 -3.535534 3.535534 
C -2.597899 4.473168 -1.326016 5 0 5 
z
" id="mb4e8903ce3" style="stroke:#0000ff;"/>
    </defs>
    <g clip-path="url(#pf7cfa6ea7a)">
     <use style="fill:#0000ff;stroke:#0000ff;" x="36.781228" xlink:href="#mb4e8903ce3" y="209.867005"/>
     <use style="fill:#0000ff;stroke:#0000ff;" x="91.009334" xlink:href="#mb4e8903ce3" y="185.724086"/>
     <use style="fill:#0000ff;stroke:#0000ff;" x="159.328668" xlink:href="#mb4e8903ce3" y="143.291757"/>
    </g>
   </g>
   <g id="line2d_89">
    <path clip-path="url(#pf7cfa6ea7a)" d="M 31.46995 197.713624 
L 35.187845 191.990322 
L 31.46995 190.186665 
L 42.092505 190.186665 
L 38.374611 191.990322 
L 42.092505 197.713624 
L 31.46995 197.713624 
" style="fill:none;stroke:#00bfbf;stroke-linecap:square;"/>
   </g>
   <g id="line2d_90">
    <path clip-path="url(#pf7cfa6ea7a)" d="M 31.46995 197.713624 
L 42.092505 197.713624 
L 42.092505 190.186665 
L 31.46995 190.186665 
L 31.46995 197.713624 
" style="fill:none;"/>
    <defs>
     <path d="M -0 3 
L 3 -3 
L -3 -3 
z
" id="m124ba67e12" style="stroke:#00bfbf;stroke-linejoin:miter;stroke-width:2;"/>
    </defs>
    <g clip-path="url(#pf7cfa6ea7a)">
     <use style="fill:#00bfbf;stroke:#00bfbf;stroke-linejoin:miter;stroke-width:2;" x="31.46995" xlink:href="#m124ba67e12" y="197.713624"/>
     <use style="fill:#00bfbf;stroke:#00bfbf;stroke-linejoin:miter;stroke-width:2;" x="42.092505" xlink:href="#m124ba67e12" y="197.713624"/>
     <use style="fill:#00bfbf;stroke:#00bfbf;stroke-linejoin:miter;stroke-width:2;" x="42.092505" xlink:href="#m124ba67e12" y="190.186665"/>
     <use style="fill:#00bfbf;stroke:#00bfbf;stroke-linejoin:miter;stroke-width:2;" x="31.46995" xlink:href="#m124ba67e12" y="190.186665"/>
     <use style="fill:#00bfbf;stroke:#00bfbf;stroke-linejoin:miter;stroke-width:2;" x="31.46995" xlink:href="#m124ba67e12" y="197.713624"/>
    </g>
   </g>
   <g id="line2d_91">
    <path clip-path="url(#pf7cfa6ea7a)" d="M 31.46995 191.990322 
L 42.092505 191.990322 
" style="fill:none;stroke:#00bfbf;stroke-linecap:square;stroke-width:2;"/>
   </g>
   <g id="line2d_92">
    <path clip-path="url(#pf7cfa6ea7a)" d="M 85.698056 183.994556 
L 89.415951 177.242277 
L 85.698056 168.758987 
L 96.320612 168.758987 
L 92.602717 177.242277 
L 96.320612 183.994556 
L 85.698056 183.994556 
" style="fill:none;stroke:#00bfbf;stroke-linecap:square;"/>
   </g>
   <g id="line2d_93">
    <path clip-path="url(#pf7cfa6ea7a)" d="M 85.698056 183.994556 
L 96.320612 183.994556 
L 96.320612 168.758987 
L 85.698056 168.758987 
L 85.698056 183.994556 
" style="fill:none;"/>
    <g clip-path="url(#pf7cfa6ea7a)">
     <use style="fill:#00bfbf;stroke:#00bfbf;stroke-linejoin:miter;stroke-width:2;" x="85.698056" xlink:href="#m124ba67e12" y="183.994556"/>
     <use style="fill:#00bfbf;stroke:#00bfbf;stroke-linejoin:miter;stroke-width:2;" x="96.320612" xlink:href="#m124ba67e12" y="183.994556"/>
     <use style="fill:#00bfbf;stroke:#00bfbf;stroke-linejoin:miter;stroke-width:2;" x="96.320612" xlink:href="#m124ba67e12" y="168.758987"/>
     <use style="fill:#00bfbf;stroke:#00bfbf;stroke-linejoin:miter;stroke-width:2;" x="85.698056" xlink:href="#m124ba67e12" y="168.758987"/>
     <use style="fill:#00bfbf;stroke:#00bfbf;stroke-linejoin:miter;stroke-width:2;" x="85.698056" xlink:href="#m124ba67e12" y="183.994556"/>
    </g>
   </g>
   <g id="line2d_94">
    <path clip-path="url(#pf7cfa6ea7a)" d="M 85.698056 177.242277 
L 96.320612 177.242277 
" style="fill:none;stroke:#00bfbf;stroke-linecap:square;stroke-width:2;"/>
   </g>
   <g id="line2d_95">
    <path clip-path="url(#pf7cfa6ea7a)" d="M 154.017391 159.554213 
L 157.735285 146.378799 
L 154.017391 112.420835 
L 164.639946 112.420835 
L 160.922051 146.378799 
L 164.639946 159.554213 
L 154.017391 159.554213 
" style="fill:none;stroke:#00bfbf;stroke-linecap:square;"/>
   </g>
   <g id="line2d_96">
    <path clip-path="url(#pf7cfa6ea7a)" d="M 154.017391 159.554213 
L 164.639946 159.554213 
L 164.639946 112.420835 
L 154.017391 112.420835 
L 154.017391 159.554213 
" style="fill:none;"/>
    <g clip-path="url(#pf7cfa6ea7a)">
     <use style="fill:#00bfbf;stroke:#00bfbf;stroke-linejoin:miter;stroke-width:2;" x="154.017391" xlink:href="#m124ba67e12" y="159.554213"/>
     <use style="fill:#00bfbf;stroke:#00bfbf;stroke-linejoin:miter;stroke-width:2;" x="164.639946" xlink:href="#m124ba67e12" y="159.554213"/>
     <use style="fill:#00bfbf;stroke:#00bfbf;stroke-linejoin:miter;stroke-width:2;" x="164.639946" xlink:href="#m124ba67e12" y="112.420835"/>
     <use style="fill:#00bfbf;stroke:#00bfbf;stroke-linejoin:miter;stroke-width:2;" x="154.017391" xlink:href="#m124ba67e12" y="112.420835"/>
     <use style="fill:#00bfbf;stroke:#00bfbf;stroke-linejoin:miter;stroke-width:2;" x="154.017391" xlink:href="#m124ba67e12" y="159.554213"/>
    </g>
   </g>
   <g id="line2d_97">
    <path clip-path="url(#pf7cfa6ea7a)" d="M 154.017391 146.378799 
L 164.639946 146.378799 
" style="fill:none;stroke:#00bfbf;stroke-linecap:square;stroke-width:2;"/>
   </g>
   <g id="line2d_98">
    <path clip-path="url(#pf7cfa6ea7a)" d="M 36.781228 196.305018 
L 91.009334 175.999998 
" style="fill:none;stroke:#00bfbf;stroke-linecap:square;stroke-width:4;"/>
   </g>
   <g id="line2d_99">
    <path clip-path="url(#pf7cfa6ea7a)" d="M 91.009334 175.999998 
L 159.328668 128.019722 
" style="fill:none;stroke:#00bfbf;stroke-linecap:square;stroke-width:4;"/>
   </g>
   <g id="line2d_100">
    <path clip-path="url(#pf7cfa6ea7a)" d="M 36.781228 196.305018 
L 91.009334 175.999998 
L 159.328668 128.019722 
" style="fill:none;"/>
    <defs>
     <path d="M -0 10 
L 10 -10 
L -10 -10 
z
" id="m12be0c9001" style="stroke:#000000;stroke-linejoin:miter;stroke-width:2;"/>
    </defs>
    <g clip-path="url(#pf7cfa6ea7a)">
     <use style="fill:#00bfbf;stroke:#000000;stroke-linejoin:miter;stroke-width:2;" x="36.781228" xlink:href="#m12be0c9001" y="196.305018"/>
     <use style="fill:#00bfbf;stroke:#000000;stroke-linejoin:miter;stroke-width:2;" x="91.009334" xlink:href="#m12be0c9001" y="175.999998"/>
     <use style="fill:#00bfbf;stroke:#000000;stroke-linejoin:miter;stroke-width:2;" x="159.328668" xlink:href="#m12be0c9001" y="128.019722"/>
    </g>
   </g>
   <g id="line2d_101">
    <path clip-path="url(#pf7cfa6ea7a)" d="M 30.407695 194.714559 
L 34.869168 191.255686 
L 30.407695 187.832231 
L 43.154761 187.832231 
L 38.693288 191.255686 
L 43.154761 194.714559 
L 30.407695 194.714559 
" style="fill:none;stroke:#008000;stroke-linecap:square;"/>
   </g>
   <g id="line2d_102">
    <path clip-path="url(#pf7cfa6ea7a)" d="M 30.407695 194.714559 
L 43.154761 194.714559 
L 43.154761 187.832231 
L 30.407695 187.832231 
L 30.407695 194.714559 
" style="fill:none;"/>
    <defs>
     <path d="M 0 1.5 
C 0.397805 1.5 0.77937 1.341951 1.06066 1.06066 
C 1.341951 0.77937 1.5 0.397805 1.5 0 
C 1.5 -0.397805 1.341951 -0.77937 1.06066 -1.06066 
C 0.77937 -1.341951 0.397805 -1.5 0 -1.5 
C -0.397805 -1.5 -0.77937 -1.341951 -1.06066 -1.06066 
C -1.341951 -0.77937 -1.5 -0.397805 -1.5 0 
C -1.5 0.397805 -1.341951 0.77937 -1.06066 1.06066 
C -0.77937 1.341951 -0.397805 1.5 0 1.5 
z
" id="m2c8ef4b79d" style="stroke:#008000;"/>
    </defs>
    <g clip-path="url(#pf7cfa6ea7a)">
     <use style="fill:#008000;stroke:#008000;" x="30.407695" xlink:href="#m2c8ef4b79d" y="194.714559"/>
     <use style="fill:#008000;stroke:#008000;" x="43.154761" xlink:href="#m2c8ef4b79d" y="194.714559"/>
     <use style="fill:#008000;stroke:#008000;" x="43.154761" xlink:href="#m2c8ef4b79d" y="187.832231"/>
     <use style="fill:#008000;stroke:#008000;" x="30.407695" xlink:href="#m2c8ef4b79d" y="187.832231"/>
     <use style="fill:#008000;stroke:#008000;" x="30.407695" xlink:href="#m2c8ef4b79d" y="194.714559"/>
    </g>
   </g>
   <g id="line2d_103">
    <path clip-path="url(#pf7cfa6ea7a)" d="M 30.407695 191.255686 
L 43.154761 191.255686 
" style="fill:none;stroke:#008000;stroke-linecap:square;stroke-width:2;"/>
   </g>
   <g id="line2d_104">
    <path clip-path="url(#pf7cfa6ea7a)" d="M 84.635801 177.852581 
L 89.097274 171.306419 
L 84.635801 167.210245 
L 97.382867 167.210245 
L 92.921394 171.306419 
L 97.382867 177.852581 
L 84.635801 177.852581 
" style="fill:none;stroke:#008000;stroke-linecap:square;"/>
   </g>
   <g id="line2d_105">
    <path clip-path="url(#pf7cfa6ea7a)" d="M 84.635801 177.852581 
L 97.382867 177.852581 
L 97.382867 167.210245 
L 84.635801 167.210245 
L 84.635801 177.852581 
" style="fill:none;"/>
    <g clip-path="url(#pf7cfa6ea7a)">
     <use style="fill:#008000;stroke:#008000;" x="84.635801" xlink:href="#m2c8ef4b79d" y="177.852581"/>
     <use style="fill:#008000;stroke:#008000;" x="97.382867" xlink:href="#m2c8ef4b79d" y="177.852581"/>
     <use style="fill:#008000;stroke:#008000;" x="97.382867" xlink:href="#m2c8ef4b79d" y="167.210245"/>
     <use style="fill:#008000;stroke:#008000;" x="84.635801" xlink:href="#m2c8ef4b79d" y="167.210245"/>
     <use style="fill:#008000;stroke:#008000;" x="84.635801" xlink:href="#m2c8ef4b79d" y="177.852581"/>
    </g>
   </g>
   <g id="line2d_106">
    <path clip-path="url(#pf7cfa6ea7a)" d="M 84.635801 171.306419 
L 97.382867 171.306419 
" style="fill:none;stroke:#008000;stroke-linecap:square;stroke-width:2;"/>
   </g>
   <g id="line2d_107">
    <path clip-path="url(#pf7cfa6ea7a)" d="M 152.955135 146.298629 
L 157.416608 130.782396 
L 152.955135 125.532878 
L 165.702201 125.532878 
L 161.240728 130.782396 
L 165.702201 146.298629 
L 152.955135 146.298629 
" style="fill:none;stroke:#008000;stroke-linecap:square;"/>
   </g>
   <g id="line2d_108">
    <path clip-path="url(#pf7cfa6ea7a)" d="M 152.955135 146.298629 
L 165.702201 146.298629 
L 165.702201 125.532878 
L 152.955135 125.532878 
L 152.955135 146.298629 
" style="fill:none;"/>
    <g clip-path="url(#pf7cfa6ea7a)">
     <use style="fill:#008000;stroke:#008000;" x="152.955135" xlink:href="#m2c8ef4b79d" y="146.298629"/>
     <use style="fill:#008000;stroke:#008000;" x="165.702201" xlink:href="#m2c8ef4b79d" y="146.298629"/>
     <use style="fill:#008000;stroke:#008000;" x="165.702201" xlink:href="#m2c8ef4b79d" y="125.532878"/>
     <use style="fill:#008000;stroke:#008000;" x="152.955135" xlink:href="#m2c8ef4b79d" y="125.532878"/>
     <use style="fill:#008000;stroke:#008000;" x="152.955135" xlink:href="#m2c8ef4b79d" y="146.298629"/>
    </g>
   </g>
   <g id="line2d_109">
    <path clip-path="url(#pf7cfa6ea7a)" d="M 152.955135 130.782396 
L 165.702201 130.782396 
" style="fill:none;stroke:#008000;stroke-linecap:square;stroke-width:2;"/>
   </g>
   <g id="line2d_110">
    <path clip-path="url(#pf7cfa6ea7a)" d="M 36.781228 193.883989 
L 91.009334 173.474134 
" style="fill:none;stroke:#008000;stroke-linecap:square;stroke-width:4;"/>
   </g>
   <g id="line2d_111">
    <path clip-path="url(#pf7cfa6ea7a)" d="M 91.009334 173.474134 
L 159.328668 120.749308 
" style="fill:none;stroke:#008000;stroke-linecap:square;stroke-width:4;"/>
   </g>
   <g id="line2d_112">
    <path clip-path="url(#pf7cfa6ea7a)" d="M 36.781228 193.883989 
L 91.009334 173.474134 
L 159.328668 120.749308 
" style="fill:none;"/>
    <defs>
     <path d="M 0 5 
C 1.326016 5 2.597899 4.473168 3.535534 3.535534 
C 4.473168 2.597899 5 1.326016 5 0 
C 5 -1.326016 4.473168 -2.597899 3.535534 -3.535534 
C 2.597899 -4.473168 1.326016 -5 0 -5 
C -1.326016 -5 -2.597899 -4.473168 -3.535534 -3.535534 
C -4.473168 -2.597899 -5 -1.326016 -5 0 
C -5 1.326016 -4.473168 2.597899 -3.535534 3.535534 
C -2.597899 4.473168 -1.326016 5 0 5 
z
" id="m4f7f96be87" style="stroke:#008000;"/>
    </defs>
    <g clip-path="url(#pf7cfa6ea7a)">
     <use style="fill:#008000;stroke:#008000;" x="36.781228" xlink:href="#m4f7f96be87" y="193.883989"/>
     <use style="fill:#008000;stroke:#008000;" x="91.009334" xlink:href="#m4f7f96be87" y="173.474134"/>
     <use style="fill:#008000;stroke:#008000;" x="159.328668" xlink:href="#m4f7f96be87" y="120.749308"/>
    </g>
   </g>
   <g id="line2d_113">
    <path clip-path="url(#pf7cfa6ea7a)" d="M 29.345439 192.743558 
L 34.550491 187.510593 
L 29.345439 185.650535 
L 44.217016 185.650535 
L 39.011964 187.510593 
L 44.217016 192.743558 
L 29.345439 192.743558 
" style="fill:none;stroke:#bfbf00;stroke-linecap:square;"/>
   </g>
   <g id="line2d_114">
    <path clip-path="url(#pf7cfa6ea7a)" d="M 29.345439 192.743558 
L 44.217016 192.743558 
L 44.217016 185.650535 
L 29.345439 185.650535 
L 29.345439 192.743558 
" style="fill:none;"/>
    <defs>
     <path d="M 0 -3 
L -3 3 
L 3 3 
z
" id="m3a9653da58" style="stroke:#bfbf00;stroke-linejoin:miter;stroke-width:2;"/>
    </defs>
    <g clip-path="url(#pf7cfa6ea7a)">
     <use style="fill:#bfbf00;stroke:#bfbf00;stroke-linejoin:miter;stroke-width:2;" x="29.345439" xlink:href="#m3a9653da58" y="192.743558"/>
     <use style="fill:#bfbf00;stroke:#bfbf00;stroke-linejoin:miter;stroke-width:2;" x="44.217016" xlink:href="#m3a9653da58" y="192.743558"/>
     <use style="fill:#bfbf00;stroke:#bfbf00;stroke-linejoin:miter;stroke-width:2;" x="44.217016" xlink:href="#m3a9653da58" y="185.650535"/>
     <use style="fill:#bfbf00;stroke:#bfbf00;stroke-linejoin:miter;stroke-width:2;" x="29.345439" xlink:href="#m3a9653da58" y="185.650535"/>
     <use style="fill:#bfbf00;stroke:#bfbf00;stroke-linejoin:miter;stroke-width:2;" x="29.345439" xlink:href="#m3a9653da58" y="192.743558"/>
    </g>
   </g>
   <g id="line2d_115">
    <path clip-path="url(#pf7cfa6ea7a)" d="M 29.345439 187.510593 
L 44.217016 187.510593 
" style="fill:none;stroke:#bfbf00;stroke-linecap:square;stroke-width:2;"/>
   </g>
   <g id="line2d_116">
    <path clip-path="url(#pf7cfa6ea7a)" d="M 83.573545 177.242277 
L 88.778597 171.931468 
L 83.573545 165.944044 
L 98.445123 165.944044 
L 93.240071 171.931468 
L 98.445123 177.242277 
L 83.573545 177.242277 
" style="fill:none;stroke:#bfbf00;stroke-linecap:square;"/>
   </g>
   <g id="line2d_117">
    <path clip-path="url(#pf7cfa6ea7a)" d="M 83.573545 177.242277 
L 98.445123 177.242277 
L 98.445123 165.944044 
L 83.573545 165.944044 
L 83.573545 177.242277 
" style="fill:none;"/>
    <g clip-path="url(#pf7cfa6ea7a)">
     <use style="fill:#bfbf00;stroke:#bfbf00;stroke-linejoin:miter;stroke-width:2;" x="83.573545" xlink:href="#m3a9653da58" y="177.242277"/>
     <use style="fill:#bfbf00;stroke:#bfbf00;stroke-linejoin:miter;stroke-width:2;" x="98.445123" xlink:href="#m3a9653da58" y="177.242277"/>
     <use style="fill:#bfbf00;stroke:#bfbf00;stroke-linejoin:miter;stroke-width:2;" x="98.445123" xlink:href="#m3a9653da58" y="165.944044"/>
     <use style="fill:#bfbf00;stroke:#bfbf00;stroke-linejoin:miter;stroke-width:2;" x="83.573545" xlink:href="#m3a9653da58" y="165.944044"/>
     <use style="fill:#bfbf00;stroke:#bfbf00;stroke-linejoin:miter;stroke-width:2;" x="83.573545" xlink:href="#m3a9653da58" y="177.242277"/>
    </g>
   </g>
   <g id="line2d_118">
    <path clip-path="url(#pf7cfa6ea7a)" d="M 83.573545 171.931468 
L 98.445123 171.931468 
" style="fill:none;stroke:#bfbf00;stroke-linecap:square;stroke-width:2;"/>
   </g>
   <g id="line2d_119">
    <path clip-path="url(#pf7cfa6ea7a)" d="M 151.892879 144.466728 
L 157.097931 123.657131 
L 151.892879 112.761206 
L 166.764457 112.761206 
L 161.559405 123.657131 
L 166.764457 144.466728 
L 151.892879 144.466728 
" style="fill:none;stroke:#bfbf00;stroke-linecap:square;"/>
   </g>
   <g id="line2d_120">
    <path clip-path="url(#pf7cfa6ea7a)" d="M 151.892879 144.466728 
L 166.764457 144.466728 
L 166.764457 112.761206 
L 151.892879 112.761206 
L 151.892879 144.466728 
" style="fill:none;"/>
    <g clip-path="url(#pf7cfa6ea7a)">
     <use style="fill:#bfbf00;stroke:#bfbf00;stroke-linejoin:miter;stroke-width:2;" x="151.892879" xlink:href="#m3a9653da58" y="144.466728"/>
     <use style="fill:#bfbf00;stroke:#bfbf00;stroke-linejoin:miter;stroke-width:2;" x="166.764457" xlink:href="#m3a9653da58" y="144.466728"/>
     <use style="fill:#bfbf00;stroke:#bfbf00;stroke-linejoin:miter;stroke-width:2;" x="166.764457" xlink:href="#m3a9653da58" y="112.761206"/>
     <use style="fill:#bfbf00;stroke:#bfbf00;stroke-linejoin:miter;stroke-width:2;" x="151.892879" xlink:href="#m3a9653da58" y="112.761206"/>
     <use style="fill:#bfbf00;stroke:#bfbf00;stroke-linejoin:miter;stroke-width:2;" x="151.892879" xlink:href="#m3a9653da58" y="144.466728"/>
    </g>
   </g>
   <g id="line2d_121">
    <path clip-path="url(#pf7cfa6ea7a)" d="M 151.892879 123.657131 
L 166.764457 123.657131 
" style="fill:none;stroke:#bfbf00;stroke-linecap:square;stroke-width:2;"/>
   </g>
   <g id="line2d_122">
    <path clip-path="url(#pf7cfa6ea7a)" d="M 36.781228 188.707331 
L 91.009334 171.725837 
" style="fill:none;stroke:#bfbf00;stroke-linecap:square;stroke-width:4;"/>
   </g>
   <g id="line2d_123">
    <path clip-path="url(#pf7cfa6ea7a)" d="M 91.009334 171.725837 
L 159.328668 120.240344 
" style="fill:none;stroke:#bfbf00;stroke-linecap:square;stroke-width:4;"/>
   </g>
   <g id="line2d_124">
    <path clip-path="url(#pf7cfa6ea7a)" d="M 36.781228 188.707331 
L 91.009334 171.725837 
L 159.328668 120.240344 
" style="fill:none;"/>
    <defs>
     <path d="M 0 -10 
L -10 10 
L 10 10 
z
" id="m27e51d75b4" style="stroke:#000000;stroke-linejoin:miter;stroke-width:2;"/>
    </defs>
    <g clip-path="url(#pf7cfa6ea7a)">
     <use style="fill:#bfbf00;stroke:#000000;stroke-linejoin:miter;stroke-width:2;" x="36.781228" xlink:href="#m27e51d75b4" y="188.707331"/>
     <use style="fill:#bfbf00;stroke:#000000;stroke-linejoin:miter;stroke-width:2;" x="91.009334" xlink:href="#m27e51d75b4" y="171.725837"/>
     <use style="fill:#bfbf00;stroke:#000000;stroke-linejoin:miter;stroke-width:2;" x="159.328668" xlink:href="#m27e51d75b4" y="120.240344"/>
    </g>
   </g>
   <g id="line2d_125">
    <path clip-path="url(#pf7cfa6ea7a)" d="M 28.283184 189.154726 
L 34.231815 184.908571 
L 28.283184 183.338597 
L 45.279272 183.338597 
L 39.330641 184.908571 
L 45.279272 189.154726 
L 28.283184 189.154726 
" style="fill:none;stroke:#bf00bf;stroke-linecap:square;"/>
   </g>
   <g id="line2d_126">
    <path clip-path="url(#pf7cfa6ea7a)" d="M 28.283184 189.154726 
L 45.279272 189.154726 
L 45.279272 183.338597 
L 28.283184 183.338597 
L 28.283184 189.154726 
" style="fill:none;"/>
    <defs>
     <path d="M 0 1.5 
C 0.397805 1.5 0.77937 1.341951 1.06066 1.06066 
C 1.341951 0.77937 1.5 0.397805 1.5 0 
C 1.5 -0.397805 1.341951 -0.77937 1.06066 -1.06066 
C 0.77937 -1.341951 0.397805 -1.5 0 -1.5 
C -0.397805 -1.5 -0.77937 -1.341951 -1.06066 -1.06066 
C -1.341951 -0.77937 -1.5 -0.397805 -1.5 0 
C -1.5 0.397805 -1.341951 0.77937 -1.06066 1.06066 
C -0.77937 1.341951 -0.397805 1.5 0 1.5 
z
" id="mb70967756e" style="stroke:#bf00bf;"/>
    </defs>
    <g clip-path="url(#pf7cfa6ea7a)">
     <use style="fill:#bf00bf;stroke:#bf00bf;" x="28.283184" xlink:href="#mb70967756e" y="189.154726"/>
     <use style="fill:#bf00bf;stroke:#bf00bf;" x="45.279272" xlink:href="#mb70967756e" y="189.154726"/>
     <use style="fill:#bf00bf;stroke:#bf00bf;" x="45.279272" xlink:href="#mb70967756e" y="183.338597"/>
     <use style="fill:#bf00bf;stroke:#bf00bf;" x="28.283184" xlink:href="#mb70967756e" y="183.338597"/>
     <use style="fill:#bf00bf;stroke:#bf00bf;" x="28.283184" xlink:href="#mb70967756e" y="189.154726"/>
    </g>
   </g>
   <g id="line2d_127">
    <path clip-path="url(#pf7cfa6ea7a)" d="M 28.283184 184.908571 
L 45.279272 184.908571 
" style="fill:none;stroke:#bf00bf;stroke-linecap:square;stroke-width:2;"/>
   </g>
   <g id="line2d_128">
    <path clip-path="url(#pf7cfa6ea7a)" d="M 82.51129 171.617302 
L 88.459921 170.153831 
L 82.51129 164.729539 
L 99.507378 164.729539 
L 93.558747 170.153831 
L 99.507378 171.617302 
L 82.51129 171.617302 
" style="fill:none;stroke:#bf00bf;stroke-linecap:square;"/>
   </g>
   <g id="line2d_129">
    <path clip-path="url(#pf7cfa6ea7a)" d="M 82.51129 171.617302 
L 99.507378 171.617302 
L 99.507378 164.729539 
L 82.51129 164.729539 
L 82.51129 171.617302 
" style="fill:none;"/>
    <g clip-path="url(#pf7cfa6ea7a)">
     <use style="fill:#bf00bf;stroke:#bf00bf;" x="82.51129" xlink:href="#mb70967756e" y="171.617302"/>
     <use style="fill:#bf00bf;stroke:#bf00bf;" x="99.507378" xlink:href="#mb70967756e" y="171.617302"/>
     <use style="fill:#bf00bf;stroke:#bf00bf;" x="99.507378" xlink:href="#mb70967756e" y="164.729539"/>
     <use style="fill:#bf00bf;stroke:#bf00bf;" x="82.51129" xlink:href="#mb70967756e" y="164.729539"/>
     <use style="fill:#bf00bf;stroke:#bf00bf;" x="82.51129" xlink:href="#mb70967756e" y="171.617302"/>
    </g>
   </g>
   <g id="line2d_130">
    <path clip-path="url(#pf7cfa6ea7a)" d="M 82.51129 170.153831 
L 99.507378 170.153831 
" style="fill:none;stroke:#bf00bf;stroke-linecap:square;stroke-width:2;"/>
   </g>
   <g id="line2d_131">
    <path clip-path="url(#pf7cfa6ea7a)" d="M 150.830624 115.248227 
L 156.779255 94.4856 
L 150.830624 78.261899 
L 167.826712 78.261899 
L 161.878081 94.4856 
L 167.826712 115.248227 
L 150.830624 115.248227 
" style="fill:none;stroke:#bf00bf;stroke-linecap:square;"/>
   </g>
   <g id="line2d_132">
    <path clip-path="url(#pf7cfa6ea7a)" d="M 150.830624 115.248227 
L 167.826712 115.248227 
L 167.826712 78.261899 
L 150.830624 78.261899 
L 150.830624 115.248227 
" style="fill:none;"/>
    <g clip-path="url(#pf7cfa6ea7a)">
     <use style="fill:#bf00bf;stroke:#bf00bf;" x="150.830624" xlink:href="#mb70967756e" y="115.248227"/>
     <use style="fill:#bf00bf;stroke:#bf00bf;" x="167.826712" xlink:href="#mb70967756e" y="115.248227"/>
     <use style="fill:#bf00bf;stroke:#bf00bf;" x="167.826712" xlink:href="#mb70967756e" y="78.261899"/>
     <use style="fill:#bf00bf;stroke:#bf00bf;" x="150.830624" xlink:href="#mb70967756e" y="78.261899"/>
     <use style="fill:#bf00bf;stroke:#bf00bf;" x="150.830624" xlink:href="#mb70967756e" y="115.248227"/>
    </g>
   </g>
   <g id="line2d_133">
    <path clip-path="url(#pf7cfa6ea7a)" d="M 150.830624 94.4856 
L 167.826712 94.4856 
" style="fill:none;stroke:#bf00bf;stroke-linecap:square;stroke-width:2;"/>
   </g>
   <g id="line2d_134">
    <path clip-path="url(#pf7cfa6ea7a)" d="M 36.781228 184.395188 
L 91.009334 168.645648 
" style="fill:none;stroke:#bf00bf;stroke-linecap:square;stroke-width:4;"/>
   </g>
   <g id="line2d_135">
    <path clip-path="url(#pf7cfa6ea7a)" d="M 91.009334 168.645648 
L 159.328668 99.238428 
" style="fill:none;stroke:#bf00bf;stroke-linecap:square;stroke-width:4;"/>
   </g>
   <g id="line2d_136">
    <path clip-path="url(#pf7cfa6ea7a)" d="M 36.781228 184.395188 
L 91.009334 168.645648 
L 159.328668 99.238428 
" style="fill:none;"/>
    <defs>
     <path d="M 0 5 
C 1.326016 5 2.597899 4.473168 3.535534 3.535534 
C 4.473168 2.597899 5 1.326016 5 0 
C 5 -1.326016 4.473168 -2.597899 3.535534 -3.535534 
C 2.597899 -4.473168 1.326016 -5 0 -5 
C -1.326016 -5 -2.597899 -4.473168 -3.535534 -3.535534 
C -4.473168 -2.597899 -5 -1.326016 -5 0 
C -5 1.326016 -4.473168 2.597899 -3.535534 3.535534 
C -2.597899 4.473168 -1.326016 5 0 5 
z
" id="mc006695586" style="stroke:#bf00bf;"/>
    </defs>
    <g clip-path="url(#pf7cfa6ea7a)">
     <use style="fill:#bf00bf;stroke:#bf00bf;" x="36.781228" xlink:href="#mc006695586" y="184.395188"/>
     <use style="fill:#bf00bf;stroke:#bf00bf;" x="91.009334" xlink:href="#mc006695586" y="168.645648"/>
     <use style="fill:#bf00bf;stroke:#bf00bf;" x="159.328668" xlink:href="#mc006695586" y="99.238428"/>
    </g>
   </g>
   <g id="line2d_137">
    <path clip-path="url(#pf7cfa6ea7a)" d="M 27.220928 182.51593 
L 33.913138 178.240477 
L 27.220928 175.985517 
L 46.341527 175.985517 
L 39.649318 178.240477 
L 46.341527 182.51593 
L 27.220928 182.51593 
" style="fill:none;stroke:#ff0000;stroke-linecap:square;"/>
   </g>
   <g id="line2d_138">
    <path clip-path="url(#pf7cfa6ea7a)" d="M 27.220928 182.51593 
L 46.341527 182.51593 
L 46.341527 175.985517 
L 27.220928 175.985517 
L 27.220928 182.51593 
" style="fill:none;"/>
    <defs>
     <path d="M 0 3 
C 0.795609 3 1.55874 2.683901 2.12132 2.12132 
C 2.683901 1.55874 3 0.795609 3 0 
C 3 -0.795609 2.683901 -1.55874 2.12132 -2.12132 
C 1.55874 -2.683901 0.795609 -3 0 -3 
C -0.795609 -3 -1.55874 -2.683901 -2.12132 -2.12132 
C -2.683901 -1.55874 -3 -0.795609 -3 0 
C -3 0.795609 -2.683901 1.55874 -2.12132 2.12132 
C -1.55874 2.683901 -0.795609 3 0 3 
z
" id="m980179b520" style="stroke:#ff0000;stroke-width:2;"/>
    </defs>
    <g clip-path="url(#pf7cfa6ea7a)">
     <use style="fill:#ff0000;stroke:#ff0000;stroke-width:2;" x="27.220928" xlink:href="#m980179b520" y="182.51593"/>
     <use style="fill:#ff0000;stroke:#ff0000;stroke-width:2;" x="46.341527" xlink:href="#m980179b520" y="182.51593"/>
     <use style="fill:#ff0000;stroke:#ff0000;stroke-width:2;" x="46.341527" xlink:href="#m980179b520" y="175.985517"/>
     <use style="fill:#ff0000;stroke:#ff0000;stroke-width:2;" x="27.220928" xlink:href="#m980179b520" y="175.985517"/>
     <use style="fill:#ff0000;stroke:#ff0000;stroke-width:2;" x="27.220928" xlink:href="#m980179b520" y="182.51593"/>
    </g>
   </g>
   <g id="line2d_139">
    <path clip-path="url(#pf7cfa6ea7a)" d="M 27.220928 178.240477 
L 46.341527 178.240477 
" style="fill:none;stroke:#ff0000;stroke-linecap:square;stroke-width:2;"/>
   </g>
   <g id="line2d_140">
    <path clip-path="url(#pf7cfa6ea7a)" d="M 81.449034 167.318235 
L 88.141244 165.84092 
L 81.449034 160.831287 
L 100.569634 160.831287 
L 93.877424 165.84092 
L 100.569634 167.318235 
L 81.449034 167.318235 
" style="fill:none;stroke:#ff0000;stroke-linecap:square;"/>
   </g>
   <g id="line2d_141">
    <path clip-path="url(#pf7cfa6ea7a)" d="M 81.449034 167.318235 
L 100.569634 167.318235 
L 100.569634 160.831287 
L 81.449034 160.831287 
L 81.449034 167.318235 
" style="fill:none;"/>
    <g clip-path="url(#pf7cfa6ea7a)">
     <use style="fill:#ff0000;stroke:#ff0000;stroke-width:2;" x="81.449034" xlink:href="#m980179b520" y="167.318235"/>
     <use style="fill:#ff0000;stroke:#ff0000;stroke-width:2;" x="100.569634" xlink:href="#m980179b520" y="167.318235"/>
     <use style="fill:#ff0000;stroke:#ff0000;stroke-width:2;" x="100.569634" xlink:href="#m980179b520" y="160.831287"/>
     <use style="fill:#ff0000;stroke:#ff0000;stroke-width:2;" x="81.449034" xlink:href="#m980179b520" y="160.831287"/>
     <use style="fill:#ff0000;stroke:#ff0000;stroke-width:2;" x="81.449034" xlink:href="#m980179b520" y="167.318235"/>
    </g>
   </g>
   <g id="line2d_142">
    <path clip-path="url(#pf7cfa6ea7a)" d="M 81.449034 165.84092 
L 100.569634 165.84092 
" style="fill:none;stroke:#ff0000;stroke-linecap:square;stroke-width:2;"/>
   </g>
   <g id="line2d_143">
    <path clip-path="url(#pf7cfa6ea7a)" d="M 149.768368 83.689444 
L 156.460578 64.852515 
L 149.768368 54.088406 
L 168.888968 54.088406 
L 162.196758 64.852515 
L 168.888968 83.689444 
L 149.768368 83.689444 
" style="fill:none;stroke:#ff0000;stroke-linecap:square;"/>
   </g>
   <g id="line2d_144">
    <path clip-path="url(#pf7cfa6ea7a)" d="M 149.768368 83.689444 
L 168.888968 83.689444 
L 168.888968 54.088406 
L 149.768368 54.088406 
L 149.768368 83.689444 
" style="fill:none;"/>
    <g clip-path="url(#pf7cfa6ea7a)">
     <use style="fill:#ff0000;stroke:#ff0000;stroke-width:2;" x="149.768368" xlink:href="#m980179b520" y="83.689444"/>
     <use style="fill:#ff0000;stroke:#ff0000;stroke-width:2;" x="168.888968" xlink:href="#m980179b520" y="83.689444"/>
     <use style="fill:#ff0000;stroke:#ff0000;stroke-width:2;" x="168.888968" xlink:href="#m980179b520" y="54.088406"/>
     <use style="fill:#ff0000;stroke:#ff0000;stroke-width:2;" x="149.768368" xlink:href="#m980179b520" y="54.088406"/>
     <use style="fill:#ff0000;stroke:#ff0000;stroke-width:2;" x="149.768368" xlink:href="#m980179b520" y="83.689444"/>
    </g>
   </g>
   <g id="line2d_145">
    <path clip-path="url(#pf7cfa6ea7a)" d="M 149.768368 64.852515 
L 168.888968 64.852515 
" style="fill:none;stroke:#ff0000;stroke-linecap:square;stroke-width:2;"/>
   </g>
   <g id="line2d_146">
    <path clip-path="url(#pf7cfa6ea7a)" d="M 36.781228 178.983704 
L 91.009334 164.722929 
" style="fill:none;stroke:#ff0000;stroke-linecap:square;stroke-width:4;"/>
   </g>
   <g id="line2d_147">
    <path clip-path="url(#pf7cfa6ea7a)" d="M 91.009334 164.722929 
L 159.328668 66.212911 
" style="fill:none;stroke:#ff0000;stroke-linecap:square;stroke-width:4;"/>
   </g>
   <g id="line2d_148">
    <path clip-path="url(#pf7cfa6ea7a)" d="M 36.781228 178.983704 
L 91.009334 164.722929 
L 159.328668 66.212911 
" style="fill:none;"/>
    <defs>
     <path d="M 0 10 
C 2.652031 10 5.195799 8.946337 7.071068 7.071068 
C 8.946337 5.195799 10 2.652031 10 0 
C 10 -2.652031 8.946337 -5.195799 7.071068 -7.071068 
C 5.195799 -8.946337 2.652031 -10 0 -10 
C -2.652031 -10 -5.195799 -8.946337 -7.071068 -7.071068 
C -8.946337 -5.195799 -10 -2.652031 -10 0 
C -10 2.652031 -8.946337 5.195799 -7.071068 7.071068 
C -5.195799 8.946337 -2.652031 10 0 10 
z
" id="m0dda0a2ca1" style="stroke:#000000;stroke-width:2;"/>
    </defs>
    <g clip-path="url(#pf7cfa6ea7a)">
     <use style="fill:#ff0000;stroke:#000000;stroke-width:2;" x="36.781228" xlink:href="#m0dda0a2ca1" y="178.983704"/>
     <use style="fill:#ff0000;stroke:#000000;stroke-width:2;" x="91.009334" xlink:href="#m0dda0a2ca1" y="164.722929"/>
     <use style="fill:#ff0000;stroke:#000000;stroke-width:2;" x="159.328668" xlink:href="#m0dda0a2ca1" y="66.212911"/>
    </g>
   </g>
   <g id="line2d_149"/>
   <g id="line2d_150"/>
   <g id="line2d_151"/>
   <g id="line2d_152"/>
   <g id="line2d_153"/>
   <g id="line2d_154"/>
   <g id="line2d_155"/>
   <g id="line2d_156">
    <defs>
     <path d="M -10 10 
L 10 -10 
M -10 -10 
L 10 10 
" id="md3d7799558" style="stroke:#ff0000;"/>
    </defs>
    <g clip-path="url(#pf7cfa6ea7a)">
     <use style="fill:#ff0000;stroke:#ff0000;" x="36.781228" xlink:href="#md3d7799558" y="175.129307"/>
     <use style="fill:#ff0000;stroke:#ff0000;" x="91.009334" xlink:href="#md3d7799558" y="158.249841"/>
     <use style="fill:#ff0000;stroke:#ff0000;" x="159.328668" xlink:href="#md3d7799558" y="144.077817"/>
     <use style="fill:#ff0000;stroke:#ff0000;" x="252.032228" xlink:href="#md3d7799558" y="144.092681"/>
     <use style="fill:#ff0000;stroke:#ff0000;" x="344.735788" xlink:href="#md3d7799558" y="144.100116"/>
     <use style="fill:#ff0000;stroke:#ff0000;" x="437.439347" xlink:href="#md3d7799558" y="144.103835"/>
    </g>
   </g>
   <g id="line2d_157">
    <path clip-path="url(#pf7cfa6ea7a)" d="M 143.068992 346.6 
L 461.8 275.698015 
" style="fill:none;stroke:#000000;stroke-dasharray:0.5,0.825;stroke-dashoffset:0;stroke-width:0.5;"/>
   </g>
   <g id="line2d_158">
    <path clip-path="url(#pf7cfa6ea7a)" d="M -1 310.143515 
L 461.8 207.19326 
" style="fill:none;stroke:#000000;stroke-dasharray:0.5,0.825;stroke-dashoffset:0;stroke-width:0.5;"/>
   </g>
   <g id="line2d_159">
    <path clip-path="url(#pf7cfa6ea7a)" d="M -1 241.638761 
L 461.8 138.688505 
" style="fill:none;stroke:#000000;stroke-dasharray:0.5,0.825;stroke-dashoffset:0;stroke-width:0.5;"/>
   </g>
   <g id="line2d_160">
    <path clip-path="url(#pf7cfa6ea7a)" d="M -1 173.134006 
L 461.8 70.183751 
" style="fill:none;stroke:#000000;stroke-dasharray:0.5,0.825;stroke-dashoffset:0;stroke-width:0.5;"/>
   </g>
   <g id="line2d_161">
    <path clip-path="url(#pf7cfa6ea7a)" d="M -1 104.629251 
L 461.8 1.678996 
" style="fill:none;stroke:#000000;stroke-dasharray:0.5,0.825;stroke-dashoffset:0;stroke-width:0.5;"/>
   </g>
   <g id="line2d_162">
    <path clip-path="url(#pf7cfa6ea7a)" d="M -1 36.124496 
L 165.888531 -1 
" style="fill:none;stroke:#000000;stroke-dasharray:0.5,0.825;stroke-dashoffset:0;stroke-width:0.5;"/>
   </g>
   <g id="line2d_163">
    <path clip-path="url(#pf7cfa6ea7a)" style="fill:none;stroke:#000000;stroke-dasharray:0.5,0.825;stroke-dashoffset:0;stroke-width:0.5;"/>
   </g>
   <g id="line2d_164">
    <path clip-path="url(#pf7cfa6ea7a)" style="fill:none;stroke:#000000;stroke-dasharray:0.5,0.825;stroke-dashoffset:0;stroke-width:0.5;"/>
   </g>
   <g id="line2d_165">
    <path clip-path="url(#pf7cfa6ea7a)" style="fill:none;stroke:#000000;stroke-dasharray:0.5,0.825;stroke-dashoffset:0;stroke-width:0.5;"/>
   </g>
   <g id="patch_3">
    <path d="M 22.69 315.44 
L 22.69 27.72 
" style="fill:none;stroke:#000000;stroke-linecap:square;stroke-linejoin:miter;stroke-width:0.8;"/>
   </g>
   <g id="patch_4">
    <path d="M 453.192 315.44 
L 453.192 27.72 
" style="fill:none;stroke:#000000;stroke-linecap:square;stroke-linejoin:miter;stroke-width:0.8;"/>
   </g>
   <g id="patch_5">
    <path d="M 22.69 315.44 
L 453.192 315.44 
" style="fill:none;stroke:#000000;stroke-linecap:square;stroke-linejoin:miter;stroke-width:0.8;"/>
   </g>
   <g id="patch_6">
    <path d="M 22.69 27.72 
L 453.192 27.72 
" style="fill:none;stroke:#000000;stroke-linecap:square;stroke-linejoin:miter;stroke-width:0.8;"/>
   </g>
   <g id="text_12">
    <!-- 8 -->
    <g transform="translate(246.624103 120.81224)scale(0.17 -0.17)">
     <defs>
      <path d="M 31.78125 34.625 
Q 24.75 34.625 20.71875 30.859375 
Q 16.703125 27.09375 16.703125 20.515625 
Q 16.703125 13.921875 20.71875 10.15625 
Q 24.75 6.390625 31.78125 6.390625 
Q 38.8125 6.390625 42.859375 10.171875 
Q 46.921875 13.96875 46.921875 20.515625 
Q 46.921875 27.09375 42.890625 30.859375 
Q 38.875 34.625 31.78125 34.625 
z
M 21.921875 38.8125 
Q 15.578125 40.375 12.03125 44.71875 
Q 8.5 49.078125 8.5 55.328125 
Q 8.5 64.0625 14.71875 69.140625 
Q 20.953125 74.21875 31.78125 74.21875 
Q 42.671875 74.21875 48.875 69.140625 
Q 55.078125 64.0625 55.078125 55.328125 
Q 55.078125 49.078125 51.53125 44.71875 
Q 48 40.375 41.703125 38.8125 
Q 48.828125 37.15625 52.796875 32.3125 
Q 56.78125 27.484375 56.78125 20.515625 
Q 56.78125 9.90625 50.3125 4.234375 
Q 43.84375 -1.421875 31.78125 -1.421875 
Q 19.734375 -1.421875 13.25 4.234375 
Q 6.78125 9.90625 6.78125 20.515625 
Q 6.78125 27.484375 10.78125 32.3125 
Q 14.796875 37.15625 21.921875 38.8125 
z
M 18.3125 54.390625 
Q 18.3125 48.734375 21.84375 45.5625 
Q 25.390625 42.390625 31.78125 42.390625 
Q 38.140625 42.390625 41.71875 45.5625 
Q 45.3125 48.734375 45.3125 54.390625 
Q 45.3125 60.0625 41.71875 63.234375 
Q 38.140625 66.40625 31.78125 66.40625 
Q 25.390625 66.40625 21.84375 63.234375 
Q 18.3125 60.0625 18.3125 54.390625 
z
" id="DejaVuSans-56"/>
     </defs>
     <use xlink:href="#DejaVuSans-56"/>
    </g>
   </g>
   <g id="text_13">
    <!-- 1 -->
    <g transform="translate(153.920543 50.614354)scale(0.17 -0.17)">
     <use xlink:href="#DejaVuSans-49"/>
    </g>
   </g>
   <g id="text_14">
    <!-- 15 instances -->
    <g transform="translate(22.69 296.8515)scale(0.14 -0.14)">
     <defs>
      <path id="DejaVuSans-32"/>
      <path d="M 9.421875 54.6875 
L 18.40625 54.6875 
L 18.40625 0 
L 9.421875 0 
z
M 9.421875 75.984375 
L 18.40625 75.984375 
L 18.40625 64.59375 
L 9.421875 64.59375 
z
" id="DejaVuSans-105"/>
      <path d="M 54.890625 33.015625 
L 54.890625 0 
L 45.90625 0 
L 45.90625 32.71875 
Q 45.90625 40.484375 42.875 44.328125 
Q 39.84375 48.1875 33.796875 48.1875 
Q 26.515625 48.1875 22.3125 43.546875 
Q 18.109375 38.921875 18.109375 30.90625 
L 18.109375 0 
L 9.078125 0 
L 9.078125 54.6875 
L 18.109375 54.6875 
L 18.109375 46.1875 
Q 21.34375 51.125 25.703125 53.5625 
Q 30.078125 56 35.796875 56 
Q 45.21875 56 50.046875 50.171875 
Q 54.890625 44.34375 54.890625 33.015625 
z
" id="DejaVuSans-110"/>
      <path d="M 44.28125 53.078125 
L 44.28125 44.578125 
Q 40.484375 46.53125 36.375 47.5 
Q 32.28125 48.484375 27.875 48.484375 
Q 21.1875 48.484375 17.84375 46.4375 
Q 14.5 44.390625 14.5 40.28125 
Q 14.5 37.15625 16.890625 35.375 
Q 19.28125 33.59375 26.515625 31.984375 
L 29.59375 31.296875 
Q 39.15625 29.25 43.1875 25.515625 
Q 47.21875 21.78125 47.21875 15.09375 
Q 47.21875 7.46875 41.1875 3.015625 
Q 35.15625 -1.421875 24.609375 -1.421875 
Q 20.21875 -1.421875 15.453125 -0.5625 
Q 10.6875 0.296875 5.421875 2 
L 5.421875 11.28125 
Q 10.40625 8.6875 15.234375 7.390625 
Q 20.0625 6.109375 24.8125 6.109375 
Q 31.15625 6.109375 34.5625 8.28125 
Q 37.984375 10.453125 37.984375 14.40625 
Q 37.984375 18.0625 35.515625 20.015625 
Q 33.0625 21.96875 24.703125 23.78125 
L 21.578125 24.515625 
Q 13.234375 26.265625 9.515625 29.90625 
Q 5.8125 33.546875 5.8125 39.890625 
Q 5.8125 47.609375 11.28125 51.796875 
Q 16.75 56 26.8125 56 
Q 31.78125 56 36.171875 55.265625 
Q 40.578125 54.546875 44.28125 53.078125 
z
" id="DejaVuSans-115"/>
      <path d="M 18.3125 70.21875 
L 18.3125 54.6875 
L 36.8125 54.6875 
L 36.8125 47.703125 
L 18.3125 47.703125 
L 18.3125 18.015625 
Q 18.3125 11.328125 20.140625 9.421875 
Q 21.96875 7.515625 27.59375 7.515625 
L 36.8125 7.515625 
L 36.8125 0 
L 27.59375 0 
Q 17.1875 0 13.234375 3.875 
Q 9.28125 7.765625 9.28125 18.015625 
L 9.28125 47.703125 
L 2.6875 47.703125 
L 2.6875 54.6875 
L 9.28125 54.6875 
L 9.28125 70.21875 
z
" id="DejaVuSans-116"/>
      <path d="M 34.28125 27.484375 
Q 23.390625 27.484375 19.1875 25 
Q 14.984375 22.515625 14.984375 16.5 
Q 14.984375 11.71875 18.140625 8.90625 
Q 21.296875 6.109375 26.703125 6.109375 
Q 34.1875 6.109375 38.703125 11.40625 
Q 43.21875 16.703125 43.21875 25.484375 
L 43.21875 27.484375 
z
M 52.203125 31.203125 
L 52.203125 0 
L 43.21875 0 
L 43.21875 8.296875 
Q 40.140625 3.328125 35.546875 0.953125 
Q 30.953125 -1.421875 24.3125 -1.421875 
Q 15.921875 -1.421875 10.953125 3.296875 
Q 6 8.015625 6 15.921875 
Q 6 25.140625 12.171875 29.828125 
Q 18.359375 34.515625 30.609375 34.515625 
L 43.21875 34.515625 
L 43.21875 35.40625 
Q 43.21875 41.609375 39.140625 45 
Q 35.0625 48.390625 27.6875 48.390625 
Q 23 48.390625 18.546875 47.265625 
Q 14.109375 46.140625 10.015625 43.890625 
L 10.015625 52.203125 
Q 14.9375 54.109375 19.578125 55.046875 
Q 24.21875 56 28.609375 56 
Q 40.484375 56 46.34375 49.84375 
Q 52.203125 43.703125 52.203125 31.203125 
z
" id="DejaVuSans-97"/>
      <path d="M 48.78125 52.59375 
L 48.78125 44.1875 
Q 44.96875 46.296875 41.140625 47.34375 
Q 37.3125 48.390625 33.40625 48.390625 
Q 24.65625 48.390625 19.8125 42.84375 
Q 14.984375 37.3125 14.984375 27.296875 
Q 14.984375 17.28125 19.8125 11.734375 
Q 24.65625 6.203125 33.40625 6.203125 
Q 37.3125 6.203125 41.140625 7.25 
Q 44.96875 8.296875 48.78125 10.40625 
L 48.78125 2.09375 
Q 45.015625 0.34375 40.984375 -0.53125 
Q 36.96875 -1.421875 32.421875 -1.421875 
Q 20.0625 -1.421875 12.78125 6.34375 
Q 5.515625 14.109375 5.515625 27.296875 
Q 5.515625 40.671875 12.859375 48.328125 
Q 20.21875 56 33.015625 56 
Q 37.15625 56 41.109375 55.140625 
Q 45.0625 54.296875 48.78125 52.59375 
z
" id="DejaVuSans-99"/>
      <path d="M 56.203125 29.59375 
L 56.203125 25.203125 
L 14.890625 25.203125 
Q 15.484375 15.921875 20.484375 11.0625 
Q 25.484375 6.203125 34.421875 6.203125 
Q 39.59375 6.203125 44.453125 7.46875 
Q 49.3125 8.734375 54.109375 11.28125 
L 54.109375 2.78125 
Q 49.265625 0.734375 44.1875 -0.34375 
Q 39.109375 -1.421875 33.890625 -1.421875 
Q 20.796875 -1.421875 13.15625 6.1875 
Q 5.515625 13.8125 5.515625 26.8125 
Q 5.515625 40.234375 12.765625 48.109375 
Q 20.015625 56 32.328125 56 
Q 43.359375 56 49.78125 48.890625 
Q 56.203125 41.796875 56.203125 29.59375 
z
M 47.21875 32.234375 
Q 47.125 39.59375 43.09375 43.984375 
Q 39.0625 48.390625 32.421875 48.390625 
Q 24.90625 48.390625 20.390625 44.140625 
Q 15.875 39.890625 15.1875 32.171875 
z
" id="DejaVuSans-101"/>
     </defs>
     <use xlink:href="#DejaVuSans-49"/>
     <use x="63.623047" xlink:href="#DejaVuSans-53"/>
     <use x="127.246094" xlink:href="#DejaVuSans-32"/>
     <use x="159.033203" xlink:href="#DejaVuSans-105"/>
     <use x="186.816406" xlink:href="#DejaVuSans-110"/>
     <use x="250.195312" xlink:href="#DejaVuSans-115"/>
     <use x="302.294922" xlink:href="#DejaVuSans-116"/>
     <use x="341.503906" xlink:href="#DejaVuSans-97"/>
     <use x="402.783203" xlink:href="#DejaVuSans-110"/>
     <use x="466.162109" xlink:href="#DejaVuSans-99"/>
     <use x="521.142578" xlink:href="#DejaVuSans-101"/>
     <use x="582.666016" xlink:href="#DejaVuSans-115"/>
    </g>
    <!-- absolute targets -->
    <g transform="translate(22.69 312.528437)scale(0.14 -0.14)">
     <defs>
      <path d="M 48.6875 27.296875 
Q 48.6875 37.203125 44.609375 42.84375 
Q 40.53125 48.484375 33.40625 48.484375 
Q 26.265625 48.484375 22.1875 42.84375 
Q 18.109375 37.203125 18.109375 27.296875 
Q 18.109375 17.390625 22.1875 11.75 
Q 26.265625 6.109375 33.40625 6.109375 
Q 40.53125 6.109375 44.609375 11.75 
Q 48.6875 17.390625 48.6875 27.296875 
z
M 18.109375 46.390625 
Q 20.953125 51.265625 25.265625 53.625 
Q 29.59375 56 35.59375 56 
Q 45.5625 56 51.78125 48.09375 
Q 58.015625 40.1875 58.015625 27.296875 
Q 58.015625 14.40625 51.78125 6.484375 
Q 45.5625 -1.421875 35.59375 -1.421875 
Q 29.59375 -1.421875 25.265625 0.953125 
Q 20.953125 3.328125 18.109375 8.203125 
L 18.109375 0 
L 9.078125 0 
L 9.078125 75.984375 
L 18.109375 75.984375 
z
" id="DejaVuSans-98"/>
      <path d="M 30.609375 48.390625 
Q 23.390625 48.390625 19.1875 42.75 
Q 14.984375 37.109375 14.984375 27.296875 
Q 14.984375 17.484375 19.15625 11.84375 
Q 23.34375 6.203125 30.609375 6.203125 
Q 37.796875 6.203125 41.984375 11.859375 
Q 46.1875 17.53125 46.1875 27.296875 
Q 46.1875 37.015625 41.984375 42.703125 
Q 37.796875 48.390625 30.609375 48.390625 
z
M 30.609375 56 
Q 42.328125 56 49.015625 48.375 
Q 55.71875 40.765625 55.71875 27.296875 
Q 55.71875 13.875 49.015625 6.21875 
Q 42.328125 -1.421875 30.609375 -1.421875 
Q 18.84375 -1.421875 12.171875 6.21875 
Q 5.515625 13.875 5.515625 27.296875 
Q 5.515625 40.765625 12.171875 48.375 
Q 18.84375 56 30.609375 56 
z
" id="DejaVuSans-111"/>
      <path d="M 9.421875 75.984375 
L 18.40625 75.984375 
L 18.40625 0 
L 9.421875 0 
z
" id="DejaVuSans-108"/>
      <path d="M 8.5 21.578125 
L 8.5 54.6875 
L 17.484375 54.6875 
L 17.484375 21.921875 
Q 17.484375 14.15625 20.5 10.265625 
Q 23.53125 6.390625 29.59375 6.390625 
Q 36.859375 6.390625 41.078125 11.03125 
Q 45.3125 15.671875 45.3125 23.6875 
L 45.3125 54.6875 
L 54.296875 54.6875 
L 54.296875 0 
L 45.3125 0 
L 45.3125 8.40625 
Q 42.046875 3.421875 37.71875 1 
Q 33.40625 -1.421875 27.6875 -1.421875 
Q 18.265625 -1.421875 13.375 4.4375 
Q 8.5 10.296875 8.5 21.578125 
z
M 31.109375 56 
z
" id="DejaVuSans-117"/>
      <path d="M 41.109375 46.296875 
Q 39.59375 47.171875 37.8125 47.578125 
Q 36.03125 48 33.890625 48 
Q 26.265625 48 22.1875 43.046875 
Q 18.109375 38.09375 18.109375 28.8125 
L 18.109375 0 
L 9.078125 0 
L 9.078125 54.6875 
L 18.109375 54.6875 
L 18.109375 46.1875 
Q 20.953125 51.171875 25.484375 53.578125 
Q 30.03125 56 36.53125 56 
Q 37.453125 56 38.578125 55.875 
Q 39.703125 55.765625 41.0625 55.515625 
z
" id="DejaVuSans-114"/>
      <path d="M 45.40625 27.984375 
Q 45.40625 37.75 41.375 43.109375 
Q 37.359375 48.484375 30.078125 48.484375 
Q 22.859375 48.484375 18.828125 43.109375 
Q 14.796875 37.75 14.796875 27.984375 
Q 14.796875 18.265625 18.828125 12.890625 
Q 22.859375 7.515625 30.078125 7.515625 
Q 37.359375 7.515625 41.375 12.890625 
Q 45.40625 18.265625 45.40625 27.984375 
z
M 54.390625 6.78125 
Q 54.390625 -7.171875 48.1875 -13.984375 
Q 42 -20.796875 29.203125 -20.796875 
Q 24.46875 -20.796875 20.265625 -20.09375 
Q 16.0625 -19.390625 12.109375 -17.921875 
L 12.109375 -9.1875 
Q 16.0625 -11.328125 19.921875 -12.34375 
Q 23.78125 -13.375 27.78125 -13.375 
Q 36.625 -13.375 41.015625 -8.765625 
Q 45.40625 -4.15625 45.40625 5.171875 
L 45.40625 9.625 
Q 42.625 4.78125 38.28125 2.390625 
Q 33.9375 0 27.875 0 
Q 17.828125 0 11.671875 7.65625 
Q 5.515625 15.328125 5.515625 27.984375 
Q 5.515625 40.671875 11.671875 48.328125 
Q 17.828125 56 27.875 56 
Q 33.9375 56 38.28125 53.609375 
Q 42.625 51.21875 45.40625 46.390625 
L 45.40625 54.6875 
L 54.390625 54.6875 
z
" id="DejaVuSans-103"/>
     </defs>
     <use xlink:href="#DejaVuSans-97"/>
     <use x="61.279297" xlink:href="#DejaVuSans-98"/>
     <use x="124.755859" xlink:href="#DejaVuSans-115"/>
     <use x="176.855469" xlink:href="#DejaVuSans-111"/>
     <use x="238.037109" xlink:href="#DejaVuSans-108"/>
     <use x="265.820312" xlink:href="#DejaVuSans-117"/>
     <use x="329.199219" xlink:href="#DejaVuSans-116"/>
     <use x="368.408203" xlink:href="#DejaVuSans-101"/>
     <use x="429.931641" xlink:href="#DejaVuSans-32"/>
     <use x="461.71875" xlink:href="#DejaVuSans-116"/>
     <use x="500.927734" xlink:href="#DejaVuSans-97"/>
     <use x="562.207031" xlink:href="#DejaVuSans-114"/>
     <use x="601.570312" xlink:href="#DejaVuSans-103"/>
     <use x="665.046875" xlink:href="#DejaVuSans-101"/>
     <use x="726.570312" xlink:href="#DejaVuSans-116"/>
     <use x="765.779297" xlink:href="#DejaVuSans-115"/>
    </g>
   </g>
   <g id="text_15">
    <!-- v2.4 -->
    <g style="fill:#808080;" transform="translate(227.030063 310.483113)scale(0.1 -0.1)">
     <defs>
      <path d="M 2.984375 54.6875 
L 12.5 54.6875 
L 29.59375 8.796875 
L 46.6875 54.6875 
L 56.203125 54.6875 
L 35.6875 0 
L 23.484375 0 
z
" id="DejaVuSans-118"/>
      <path d="M 10.6875 12.40625 
L 21 12.40625 
L 21 0 
L 10.6875 0 
z
" id="DejaVuSans-46"/>
     </defs>
     <use xlink:href="#DejaVuSans-118"/>
     <use x="59.179688" xlink:href="#DejaVuSans-50"/>
     <use x="122.802734" xlink:href="#DejaVuSans-46"/>
     <use x="154.589844" xlink:href="#DejaVuSans-52"/>
    </g>
   </g>
   <g id="text_16">
    <!-- 1 Sphere -->
    <g transform="translate(184.220375 21.72)scale(0.24 -0.24)">
     <defs>
      <path d="M 53.515625 70.515625 
L 53.515625 60.890625 
Q 47.90625 63.578125 42.921875 64.890625 
Q 37.9375 66.21875 33.296875 66.21875 
Q 25.25 66.21875 20.875 63.09375 
Q 16.5 59.96875 16.5 54.203125 
Q 16.5 49.359375 19.40625 46.890625 
Q 22.3125 44.4375 30.421875 42.921875 
L 36.375 41.703125 
Q 47.40625 39.59375 52.65625 34.296875 
Q 57.90625 29 57.90625 20.125 
Q 57.90625 9.515625 50.796875 4.046875 
Q 43.703125 -1.421875 29.984375 -1.421875 
Q 24.8125 -1.421875 18.96875 -0.25 
Q 13.140625 0.921875 6.890625 3.21875 
L 6.890625 13.375 
Q 12.890625 10.015625 18.65625 8.296875 
Q 24.421875 6.59375 29.984375 6.59375 
Q 38.421875 6.59375 43.015625 9.90625 
Q 47.609375 13.234375 47.609375 19.390625 
Q 47.609375 24.75 44.3125 27.78125 
Q 41.015625 30.8125 33.5 32.328125 
L 27.484375 33.5 
Q 16.453125 35.6875 11.515625 40.375 
Q 6.59375 45.0625 6.59375 53.421875 
Q 6.59375 63.09375 13.40625 68.65625 
Q 20.21875 74.21875 32.171875 74.21875 
Q 37.3125 74.21875 42.625 73.28125 
Q 47.953125 72.359375 53.515625 70.515625 
z
" id="DejaVuSans-83"/>
      <path d="M 18.109375 8.203125 
L 18.109375 -20.796875 
L 9.078125 -20.796875 
L 9.078125 54.6875 
L 18.109375 54.6875 
L 18.109375 46.390625 
Q 20.953125 51.265625 25.265625 53.625 
Q 29.59375 56 35.59375 56 
Q 45.5625 56 51.78125 48.09375 
Q 58.015625 40.1875 58.015625 27.296875 
Q 58.015625 14.40625 51.78125 6.484375 
Q 45.5625 -1.421875 35.59375 -1.421875 
Q 29.59375 -1.421875 25.265625 0.953125 
Q 20.953125 3.328125 18.109375 8.203125 
z
M 48.6875 27.296875 
Q 48.6875 37.203125 44.609375 42.84375 
Q 40.53125 48.484375 33.40625 48.484375 
Q 26.265625 48.484375 22.1875 42.84375 
Q 18.109375 37.203125 18.109375 27.296875 
Q 18.109375 17.390625 22.1875 11.75 
Q 26.265625 6.109375 33.40625 6.109375 
Q 40.53125 6.109375 44.609375 11.75 
Q 48.6875 17.390625 48.6875 27.296875 
z
" id="DejaVuSans-112"/>
      <path d="M 54.890625 33.015625 
L 54.890625 0 
L 45.90625 0 
L 45.90625 32.71875 
Q 45.90625 40.484375 42.875 44.328125 
Q 39.84375 48.1875 33.796875 48.1875 
Q 26.515625 48.1875 22.3125 43.546875 
Q 18.109375 38.921875 18.109375 30.90625 
L 18.109375 0 
L 9.078125 0 
L 9.078125 75.984375 
L 18.109375 75.984375 
L 18.109375 46.1875 
Q 21.34375 51.125 25.703125 53.5625 
Q 30.078125 56 35.796875 56 
Q 45.21875 56 50.046875 50.171875 
Q 54.890625 44.34375 54.890625 33.015625 
z
" id="DejaVuSans-104"/>
     </defs>
     <use xlink:href="#DejaVuSans-49"/>
     <use x="63.623047" xlink:href="#DejaVuSans-32"/>
     <use x="95.410156" xlink:href="#DejaVuSans-83"/>
     <use x="158.886719" xlink:href="#DejaVuSans-112"/>
     <use x="222.363281" xlink:href="#DejaVuSans-104"/>
     <use x="285.742188" xlink:href="#DejaVuSans-101"/>
     <use x="347.265625" xlink:href="#DejaVuSans-114"/>
     <use x="386.128906" xlink:href="#DejaVuSans-101"/>
    </g>
   </g>
   <g id="legend_1">
    <g id="patch_7">
     <path d="M 374.8395 204.915 
L 441.992 204.915 
Q 445.192 204.915 445.192 201.715 
L 445.192 38.92 
Q 445.192 35.72 441.992 35.72 
L 374.8395 35.72 
Q 371.6395 35.72 371.6395 38.92 
L 371.6395 201.715 
Q 371.6395 204.915 374.8395 204.915 
z
" style="fill:#ffffff;opacity:0.2;stroke:#cccccc;stroke-linejoin:miter;"/>
    </g>
    <g id="line2d_166">
     <path d="M 378.0395 48.6775 
L 410.0395 48.6775 
" style="fill:none;stroke:#ff0000;stroke-linecap:square;stroke-width:4;"/>
    </g>
    <g id="line2d_167">
     <defs>
      <path d="M 0 5 
C 1.326016 5 2.597899 4.473168 3.535534 3.535534 
C 4.473168 2.597899 5 1.326016 5 0 
C 5 -1.326016 4.473168 -2.597899 3.535534 -3.535534 
C 2.597899 -4.473168 1.326016 -5 0 -5 
C -1.326016 -5 -2.597899 -4.473168 -3.535534 -3.535534 
C -4.473168 -2.597899 -5 -1.326016 -5 0 
C -5 1.326016 -4.473168 2.597899 -3.535534 3.535534 
C -2.597899 4.473168 -1.326016 5 0 5 
z
" id="m090eca3032" style="stroke:#000000;stroke-width:2;"/>
     </defs>
     <g>
      <use style="fill:#ff0000;stroke:#000000;stroke-width:2;" x="394.0395" xlink:href="#m090eca3032" y="48.6775"/>
     </g>
    </g>
    <g id="text_17">
     <!-- -8 -->
     <g transform="translate(422.8395 54.2775)scale(0.16 -0.16)">
      <defs>
       <path d="M 4.890625 31.390625 
L 31.203125 31.390625 
L 31.203125 23.390625 
L 4.890625 23.390625 
z
" id="DejaVuSans-45"/>
      </defs>
      <use xlink:href="#DejaVuSans-45"/>
      <use x="36.083984" xlink:href="#DejaVuSans-56"/>
     </g>
    </g>
    <g id="line2d_168">
     <path d="M 378.0395 72.1625 
L 410.0395 72.1625 
" style="fill:none;stroke:#bf00bf;stroke-linecap:square;stroke-width:4;"/>
    </g>
    <g id="line2d_169">
     <defs>
      <path d="M 0 2.5 
C 0.663008 2.5 1.29895 2.236584 1.767767 1.767767 
C 2.236584 1.29895 2.5 0.663008 2.5 0 
C 2.5 -0.663008 2.236584 -1.29895 1.767767 -1.767767 
C 1.29895 -2.236584 0.663008 -2.5 0 -2.5 
C -0.663008 -2.5 -1.29895 -2.236584 -1.767767 -1.767767 
C -2.236584 -1.29895 -2.5 -0.663008 -2.5 0 
C -2.5 0.663008 -2.236584 1.29895 -1.767767 1.767767 
C -1.29895 2.236584 -0.663008 2.5 0 2.5 
z
" id="m4488fe980c" style="stroke:#bf00bf;"/>
     </defs>
     <g>
      <use style="fill:#bf00bf;stroke:#bf00bf;" x="394.0395" xlink:href="#m4488fe980c" y="72.1625"/>
     </g>
    </g>
    <g id="text_18">
     <!-- -5 -->
     <g transform="translate(422.8395 77.7625)scale(0.16 -0.16)">
      <use xlink:href="#DejaVuSans-45"/>
      <use x="36.083984" xlink:href="#DejaVuSans-53"/>
     </g>
    </g>
    <g id="line2d_170">
     <path d="M 378.0395 95.6475 
L 410.0395 95.6475 
" style="fill:none;stroke:#bfbf00;stroke-linecap:square;stroke-width:4;"/>
    </g>
    <g id="line2d_171">
     <defs>
      <path d="M 0 -5 
L -5 5 
L 5 5 
z
" id="mb9194d5833" style="stroke:#000000;stroke-linejoin:miter;stroke-width:2;"/>
     </defs>
     <g>
      <use style="fill:#bfbf00;stroke:#000000;stroke-linejoin:miter;stroke-width:2;" x="394.0395" xlink:href="#mb9194d5833" y="95.6475"/>
     </g>
    </g>
    <g id="text_19">
     <!-- -3 -->
     <g transform="translate(422.8395 101.2475)scale(0.16 -0.16)">
      <use xlink:href="#DejaVuSans-45"/>
      <use x="36.083984" xlink:href="#DejaVuSans-51"/>
     </g>
    </g>
    <g id="line2d_172">
     <path d="M 378.0395 119.1325 
L 410.0395 119.1325 
" style="fill:none;stroke:#008000;stroke-linecap:square;stroke-width:4;"/>
    </g>
    <g id="line2d_173">
     <defs>
      <path d="M 0 2.5 
C 0.663008 2.5 1.29895 2.236584 1.767767 1.767767 
C 2.236584 1.29895 2.5 0.663008 2.5 0 
C 2.5 -0.663008 2.236584 -1.29895 1.767767 -1.767767 
C 1.29895 -2.236584 0.663008 -2.5 0 -2.5 
C -0.663008 -2.5 -1.29895 -2.236584 -1.767767 -1.767767 
C -2.236584 -1.29895 -2.5 -0.663008 -2.5 0 
C -2.5 0.663008 -2.236584 1.29895 -1.767767 1.767767 
C -1.29895 2.236584 -0.663008 2.5 0 2.5 
z
" id="mcabacafd5c" style="stroke:#008000;"/>
     </defs>
     <g>
      <use style="fill:#008000;stroke:#008000;" x="394.0395" xlink:href="#mcabacafd5c" y="119.1325"/>
     </g>
    </g>
    <g id="text_20">
     <!-- -2 -->
     <g transform="translate(422.8395 124.7325)scale(0.16 -0.16)">
      <use xlink:href="#DejaVuSans-45"/>
      <use x="36.083984" xlink:href="#DejaVuSans-50"/>
     </g>
    </g>
    <g id="line2d_174">
     <path d="M 378.0395 142.6175 
L 410.0395 142.6175 
" style="fill:none;stroke:#00bfbf;stroke-linecap:square;stroke-width:4;"/>
    </g>
    <g id="line2d_175">
     <defs>
      <path d="M -0 5 
L 5 -5 
L -5 -5 
z
" id="m69bee873e2" style="stroke:#000000;stroke-linejoin:miter;stroke-width:2;"/>
     </defs>
     <g>
      <use style="fill:#00bfbf;stroke:#000000;stroke-linejoin:miter;stroke-width:2;" x="394.0395" xlink:href="#m69bee873e2" y="142.6175"/>
     </g>
    </g>
    <g id="text_21">
     <!-- -1 -->
     <g transform="translate(422.8395 148.2175)scale(0.16 -0.16)">
      <use xlink:href="#DejaVuSans-45"/>
      <use x="36.083984" xlink:href="#DejaVuSans-49"/>
     </g>
    </g>
    <g id="line2d_176">
     <path d="M 378.0395 166.1025 
L 410.0395 166.1025 
" style="fill:none;stroke:#0000ff;stroke-linecap:square;stroke-width:4;"/>
    </g>
    <g id="line2d_177">
     <defs>
      <path d="M 0 2.5 
C 0.663008 2.5 1.29895 2.236584 1.767767 1.767767 
C 2.236584 1.29895 2.5 0.663008 2.5 0 
C 2.5 -0.663008 2.236584 -1.29895 1.767767 -1.767767 
C 1.29895 -2.236584 0.663008 -2.5 0 -2.5 
C -0.663008 -2.5 -1.29895 -2.236584 -1.767767 -1.767767 
C -2.236584 -1.29895 -2.5 -0.663008 -2.5 0 
C -2.5 0.663008 -2.236584 1.29895 -1.767767 1.767767 
C -1.29895 2.236584 -0.663008 2.5 0 2.5 
z
" id="m585826c6a6" style="stroke:#0000ff;"/>
     </defs>
     <g>
      <use style="fill:#0000ff;stroke:#0000ff;" x="394.0395" xlink:href="#m585826c6a6" y="166.1025"/>
     </g>
    </g>
    <g id="text_22">
     <!-- 0 -->
     <g transform="translate(422.8395 171.7025)scale(0.16 -0.16)">
      <use xlink:href="#DejaVuSans-48"/>
     </g>
    </g>
    <g id="line2d_178">
     <path d="M 378.0395 189.5875 
L 410.0395 189.5875 
" style="fill:none;stroke:#000000;stroke-linecap:square;stroke-width:4;"/>
    </g>
    <g id="line2d_179">
     <defs>
      <path d="M 0 5 
C 1.326016 5 2.597899 4.473168 3.535534 3.535534 
C 4.473168 2.597899 5 1.326016 5 0 
C 5 -1.326016 4.473168 -2.597899 3.535534 -3.535534 
C 2.597899 -4.473168 1.326016 -5 0 -5 
C -1.326016 -5 -2.597899 -4.473168 -3.535534 -3.535534 
C -4.473168 -2.597899 -5 -1.326016 -5 0 
C -5 1.326016 -4.473168 2.597899 -3.535534 3.535534 
C -2.597899 4.473168 -1.326016 5 0 5 
z
" id="ma4940ebb6e" style="stroke:#000000;stroke-width:2;"/>
     </defs>
     <g>
      <use style="stroke:#000000;stroke-width:2;" x="394.0395" xlink:href="#ma4940ebb6e" y="189.5875"/>
     </g>
    </g>
    <g id="text_23">
     <!-- 1 -->
     <g transform="translate(422.8395 195.1875)scale(0.16 -0.16)">
      <use xlink:href="#DejaVuSans-49"/>
     </g>
    </g>
   </g>
  </g>
 </g>
 <defs>
  <clipPath id="pf7cfa6ea7a">
   <rect height="287.72" width="430.502" x="22.69" y="27.72"/>
  </clipPath>
 </defs>
</svg>
