<?xml version="1.0" encoding="utf-8" standalone="no"?>
<!DOCTYPE svg PUBLIC "-//W3C//DTD SVG 1.1//EN"
  "http://www.w3.org/Graphics/SVG/1.1/DTD/svg11.dtd">
<!-- Created with matplotlib (https://matplotlib.org/) -->
<svg height="345.6pt" version="1.1" viewBox="0 0 460.8 345.6" width="460.8pt" xmlns="http://www.w3.org/2000/svg" xmlns:xlink="http://www.w3.org/1999/xlink">
 <metadata>
  <rdf:RDF xmlns:cc="http://creativecommons.org/ns#" xmlns:dc="http://purl.org/dc/elements/1.1/" xmlns:rdf="http://www.w3.org/1999/02/22-rdf-syntax-ns#">
   <cc:Work>
    <dc:type rdf:resource="http://purl.org/dc/dcmitype/StillImage"/>
    <dc:date>2021-08-04T10:25:37.846805</dc:date>
    <dc:format>image/svg+xml</dc:format>
    <dc:creator>
     <cc:Agent>
      <dc:title>Matplotlib v3.3.1, https://matplotlib.org/</dc:title>
     </cc:Agent>
    </dc:creator>
   </cc:Work>
  </rdf:RDF>
 </metadata>
 <defs>
  <style type="text/css">*{stroke-linecap:butt;stroke-linejoin:round;}</style>
 </defs>
 <g id="figure_1">
  <g id="patch_1">
   <path d="M 0 345.6 
L 460.8 345.6 
L 460.8 0 
L 0 0 
z
" style="fill:#ffffff;"/>
  </g>
  <g id="axes_1">
   <g id="patch_2">
    <path d="M 22.69 315.44 
L 453.192 315.44 
L 453.192 27.72 
L 22.69 27.72 
z
" style="fill:#ffffff;"/>
   </g>
   <g id="line2d_1">
    <path clip-path="url(#p1be3250cf8)" d="M 36.781228 149.38346 
L 91.009334 146.588259 
L 159.328668 124.299894 
L 252.032228 78.963045 
L 344.735788 99.807362 
L 437.439347 68.153416 
" style="fill:none;stroke:#f5deb3;stroke-linecap:square;stroke-width:10;"/>
    <defs>
     <path d="M -0 17.67767 
L 10.606602 0 
L 0 -17.67767 
L -10.606602 -0 
z
" id="mfbd6b2d93c" style="stroke:#000000;stroke-linejoin:miter;"/>
    </defs>
    <g clip-path="url(#p1be3250cf8)">
     <use style="fill:#f5deb3;stroke:#000000;stroke-linejoin:miter;" x="36.781228" xlink:href="#mfbd6b2d93c" y="149.38346"/>
     <use style="fill:#f5deb3;stroke:#000000;stroke-linejoin:miter;" x="91.009334" xlink:href="#mfbd6b2d93c" y="146.588259"/>
     <use style="fill:#f5deb3;stroke:#000000;stroke-linejoin:miter;" x="159.328668" xlink:href="#mfbd6b2d93c" y="124.299894"/>
     <use style="fill:#f5deb3;stroke:#000000;stroke-linejoin:miter;" x="252.032228" xlink:href="#mfbd6b2d93c" y="78.963045"/>
     <use style="fill:#f5deb3;stroke:#000000;stroke-linejoin:miter;" x="344.735788" xlink:href="#mfbd6b2d93c" y="99.807362"/>
     <use style="fill:#f5deb3;stroke:#000000;stroke-linejoin:miter;" x="437.439347" xlink:href="#mfbd6b2d93c" y="68.153416"/>
    </g>
   </g>
   <g id="line2d_2">
    <defs>
     <path d="M -15 0 
L 15 0 
M 0 15 
L 0 -15 
" id="mdff183f01d" style="stroke:#ff0000;stroke-width:5;"/>
    </defs>
    <g clip-path="url(#p1be3250cf8)">
     <use style="fill:#ff0000;stroke:#ff0000;stroke-width:5;" x="91.009334" xlink:href="#mdff183f01d" y="174.710268"/>
    </g>
   </g>
   <g id="line2d_3">
    <g clip-path="url(#p1be3250cf8)">
     <use style="fill:#ff0000;stroke:#ff0000;stroke-width:5;" x="159.328668" xlink:href="#mdff183f01d" y="148.646658"/>
    </g>
   </g>
   <g id="line2d_4">
    <defs>
     <path d="M -15 0 
L 15 0 
M 0 15 
L 0 -15 
" id="mc70ed0bf86" style="stroke:#0000ff;stroke-width:5;"/>
    </defs>
    <g clip-path="url(#p1be3250cf8)">
     <use style="fill:#0000ff;stroke:#0000ff;stroke-width:5;" x="252.032228" xlink:href="#mc70ed0bf86" y="165.528582"/>
    </g>
   </g>
   <g id="line2d_5">
    <g clip-path="url(#p1be3250cf8)">
     <use style="fill:#ff0000;stroke:#ff0000;stroke-width:5;" x="36.781228" xlink:href="#mdff183f01d" y="183.477947"/>
    </g>
   </g>
   <g id="matplotlib.axis_1">
    <g id="xtick_1">
     <g id="line2d_6">
      <defs>
       <path d="M 0 0 
L 0 3.5 
" id="me7b61bbddd" style="stroke:#000000;stroke-width:0.8;"/>
      </defs>
      <g>
       <use style="stroke:#000000;stroke-width:0.8;" x="36.781228" xlink:href="#me7b61bbddd" y="315.44"/>
      </g>
     </g>
     <g id="text_1">
      <!-- 2 -->
      <g transform="translate(30.418728 337.636875)scale(0.2 -0.2)">
       <defs>
        <path d="M 19.1875 8.296875 
L 53.609375 8.296875 
L 53.609375 0 
L 7.328125 0 
L 7.328125 8.296875 
Q 12.9375 14.109375 22.625 23.890625 
Q 32.328125 33.6875 34.8125 36.53125 
Q 39.546875 41.84375 41.421875 45.53125 
Q 43.3125 49.21875 43.3125 52.78125 
Q 43.3125 58.59375 39.234375 62.25 
Q 35.15625 65.921875 28.609375 65.921875 
Q 23.96875 65.921875 18.8125 64.3125 
Q 13.671875 62.703125 7.8125 59.421875 
L 7.8125 69.390625 
Q 13.765625 71.78125 18.9375 73 
Q 24.125 74.21875 28.421875 74.21875 
Q 39.75 74.21875 46.484375 68.546875 
Q 53.21875 62.890625 53.21875 53.421875 
Q 53.21875 48.921875 51.53125 44.890625 
Q 49.859375 40.875 45.40625 35.40625 
Q 44.1875 33.984375 37.640625 27.21875 
Q 31.109375 20.453125 19.1875 8.296875 
z
" id="DejaVuSans-50"/>
       </defs>
       <use xlink:href="#DejaVuSans-50"/>
      </g>
     </g>
    </g>
    <g id="xtick_2">
     <g id="line2d_7">
      <g>
       <use style="stroke:#000000;stroke-width:0.8;" x="91.009334" xlink:href="#me7b61bbddd" y="315.44"/>
      </g>
     </g>
     <g id="text_2">
      <!-- 3 -->
      <g transform="translate(84.646834 337.636875)scale(0.2 -0.2)">
       <defs>
        <path d="M 40.578125 39.3125 
Q 47.65625 37.796875 51.625 33 
Q 55.609375 28.21875 55.609375 21.1875 
Q 55.609375 10.40625 48.1875 4.484375 
Q 40.765625 -1.421875 27.09375 -1.421875 
Q 22.515625 -1.421875 17.65625 -0.515625 
Q 12.796875 0.390625 7.625 2.203125 
L 7.625 11.71875 
Q 11.71875 9.328125 16.59375 8.109375 
Q 21.484375 6.890625 26.8125 6.890625 
Q 36.078125 6.890625 40.9375 10.546875 
Q 45.796875 14.203125 45.796875 21.1875 
Q 45.796875 27.640625 41.28125 31.265625 
Q 36.765625 34.90625 28.71875 34.90625 
L 20.21875 34.90625 
L 20.21875 43.015625 
L 29.109375 43.015625 
Q 36.375 43.015625 40.234375 45.921875 
Q 44.09375 48.828125 44.09375 54.296875 
Q 44.09375 59.90625 40.109375 62.90625 
Q 36.140625 65.921875 28.71875 65.921875 
Q 24.65625 65.921875 20.015625 65.03125 
Q 15.375 64.15625 9.8125 62.3125 
L 9.8125 71.09375 
Q 15.4375 72.65625 20.34375 73.4375 
Q 25.25 74.21875 29.59375 74.21875 
Q 40.828125 74.21875 47.359375 69.109375 
Q 53.90625 64.015625 53.90625 55.328125 
Q 53.90625 49.265625 50.4375 45.09375 
Q 46.96875 40.921875 40.578125 39.3125 
z
" id="DejaVuSans-51"/>
       </defs>
       <use xlink:href="#DejaVuSans-51"/>
      </g>
     </g>
    </g>
    <g id="xtick_3">
     <g id="line2d_8">
      <g>
       <use style="stroke:#000000;stroke-width:0.8;" x="159.328668" xlink:href="#me7b61bbddd" y="315.44"/>
      </g>
     </g>
     <g id="text_3">
      <!-- 5 -->
      <g transform="translate(152.966168 337.636875)scale(0.2 -0.2)">
       <defs>
        <path d="M 10.796875 72.90625 
L 49.515625 72.90625 
L 49.515625 64.59375 
L 19.828125 64.59375 
L 19.828125 46.734375 
Q 21.96875 47.46875 24.109375 47.828125 
Q 26.265625 48.1875 28.421875 48.1875 
Q 40.625 48.1875 47.75 41.5 
Q 54.890625 34.8125 54.890625 23.390625 
Q 54.890625 11.625 47.5625 5.09375 
Q 40.234375 -1.421875 26.90625 -1.421875 
Q 22.3125 -1.421875 17.546875 -0.640625 
Q 12.796875 0.140625 7.71875 1.703125 
L 7.71875 11.625 
Q 12.109375 9.234375 16.796875 8.0625 
Q 21.484375 6.890625 26.703125 6.890625 
Q 35.15625 6.890625 40.078125 11.328125 
Q 45.015625 15.765625 45.015625 23.390625 
Q 45.015625 31 40.078125 35.4375 
Q 35.15625 39.890625 26.703125 39.890625 
Q 22.75 39.890625 18.8125 39.015625 
Q 14.890625 38.140625 10.796875 36.28125 
z
" id="DejaVuSans-53"/>
       </defs>
       <use xlink:href="#DejaVuSans-53"/>
      </g>
     </g>
    </g>
    <g id="xtick_4">
     <g id="line2d_9">
      <g>
       <use style="stroke:#000000;stroke-width:0.8;" x="252.032228" xlink:href="#me7b61bbddd" y="315.44"/>
      </g>
     </g>
     <g id="text_4">
      <!-- 10 -->
      <g transform="translate(239.307228 337.636875)scale(0.2 -0.2)">
       <defs>
        <path d="M 12.40625 8.296875 
L 28.515625 8.296875 
L 28.515625 63.921875 
L 10.984375 60.40625 
L 10.984375 69.390625 
L 28.421875 72.90625 
L 38.28125 72.90625 
L 38.28125 8.296875 
L 54.390625 8.296875 
L 54.390625 0 
L 12.40625 0 
z
" id="DejaVuSans-49"/>
        <path d="M 31.78125 66.40625 
Q 24.171875 66.40625 20.328125 58.90625 
Q 16.5 51.421875 16.5 36.375 
Q 16.5 21.390625 20.328125 13.890625 
Q 24.171875 6.390625 31.78125 6.390625 
Q 39.453125 6.390625 43.28125 13.890625 
Q 47.125 21.390625 47.125 36.375 
Q 47.125 51.421875 43.28125 58.90625 
Q 39.453125 66.40625 31.78125 66.40625 
z
M 31.78125 74.21875 
Q 44.046875 74.21875 50.515625 64.515625 
Q 56.984375 54.828125 56.984375 36.375 
Q 56.984375 17.96875 50.515625 8.265625 
Q 44.046875 -1.421875 31.78125 -1.421875 
Q 19.53125 -1.421875 13.0625 8.265625 
Q 6.59375 17.96875 6.59375 36.375 
Q 6.59375 54.828125 13.0625 64.515625 
Q 19.53125 74.21875 31.78125 74.21875 
z
" id="DejaVuSans-48"/>
       </defs>
       <use xlink:href="#DejaVuSans-49"/>
       <use x="63.623047" xlink:href="#DejaVuSans-48"/>
      </g>
     </g>
    </g>
    <g id="xtick_5">
     <g id="line2d_10">
      <g>
       <use style="stroke:#000000;stroke-width:0.8;" x="344.735788" xlink:href="#me7b61bbddd" y="315.44"/>
      </g>
     </g>
     <g id="text_5">
      <!-- 20 -->
      <g transform="translate(332.010788 337.636875)scale(0.2 -0.2)">
       <use xlink:href="#DejaVuSans-50"/>
       <use x="63.623047" xlink:href="#DejaVuSans-48"/>
      </g>
     </g>
    </g>
    <g id="xtick_6">
     <g id="line2d_11">
      <g>
       <use style="stroke:#000000;stroke-width:0.8;" x="437.439347" xlink:href="#me7b61bbddd" y="315.44"/>
      </g>
     </g>
     <g id="text_6">
      <!-- 40 -->
      <g transform="translate(424.714347 337.636875)scale(0.2 -0.2)">
       <defs>
        <path d="M 37.796875 64.3125 
L 12.890625 25.390625 
L 37.796875 25.390625 
z
M 35.203125 72.90625 
L 47.609375 72.90625 
L 47.609375 25.390625 
L 58.015625 25.390625 
L 58.015625 17.1875 
L 47.609375 17.1875 
L 47.609375 0 
L 37.796875 0 
L 37.796875 17.1875 
L 4.890625 17.1875 
L 4.890625 26.703125 
z
" id="DejaVuSans-52"/>
       </defs>
       <use xlink:href="#DejaVuSans-52"/>
       <use x="63.623047" xlink:href="#DejaVuSans-48"/>
      </g>
     </g>
    </g>
    <g id="xtick_7">
     <g id="line2d_12">
      <defs>
       <path d="M 0 0 
L 0 2 
" id="m8d3ba2ce7d" style="stroke:#000000;stroke-width:0.6;"/>
      </defs>
      <g>
       <use style="stroke:#000000;stroke-width:0.6;" x="129.484788" xlink:href="#m8d3ba2ce7d" y="315.44"/>
      </g>
     </g>
    </g>
    <g id="xtick_8">
     <g id="line2d_13">
      <g>
       <use style="stroke:#000000;stroke-width:0.6;" x="183.712894" xlink:href="#m8d3ba2ce7d" y="315.44"/>
      </g>
     </g>
    </g>
    <g id="xtick_9">
     <g id="line2d_14">
      <g>
       <use style="stroke:#000000;stroke-width:0.6;" x="204.329463" xlink:href="#m8d3ba2ce7d" y="315.44"/>
      </g>
     </g>
    </g>
    <g id="xtick_10">
     <g id="line2d_15">
      <g>
       <use style="stroke:#000000;stroke-width:0.6;" x="222.188347" xlink:href="#m8d3ba2ce7d" y="315.44"/>
      </g>
     </g>
    </g>
    <g id="xtick_11">
     <g id="line2d_16">
      <g>
       <use style="stroke:#000000;stroke-width:0.6;" x="237.941" xlink:href="#m8d3ba2ce7d" y="315.44"/>
      </g>
     </g>
    </g>
    <g id="xtick_12">
     <g id="line2d_17">
      <g>
       <use style="stroke:#000000;stroke-width:0.6;" x="398.963894" xlink:href="#m8d3ba2ce7d" y="315.44"/>
      </g>
     </g>
    </g>
   </g>
   <g id="matplotlib.axis_2">
    <g id="ytick_1">
     <g id="line2d_18">
      <path clip-path="url(#p1be3250cf8)" d="M 22.69 301.739049 
L 453.192 301.739049 
" style="fill:none;stroke:#b0b0b0;stroke-linecap:square;stroke-width:0.8;"/>
     </g>
     <g id="line2d_19">
      <defs>
       <path d="M 0 0 
L -3.5 0 
" id="mab9cb6008d" style="stroke:#000000;stroke-width:0.8;"/>
      </defs>
      <g>
       <use style="stroke:#000000;stroke-width:0.8;" x="22.69" xlink:href="#mab9cb6008d" y="301.739049"/>
      </g>
     </g>
     <g id="text_7">
      <!-- 0 -->
      <g transform="translate(2.965 309.337487)scale(0.2 -0.2)">
       <use xlink:href="#DejaVuSans-48"/>
      </g>
     </g>
    </g>
    <g id="ytick_2">
     <g id="line2d_20">
      <path clip-path="url(#p1be3250cf8)" d="M 22.69 233.234294 
L 453.192 233.234294 
" style="fill:none;stroke:#b0b0b0;stroke-linecap:square;stroke-width:0.8;"/>
     </g>
     <g id="line2d_21">
      <g>
       <use style="stroke:#000000;stroke-width:0.8;" x="22.69" xlink:href="#mab9cb6008d" y="233.234294"/>
      </g>
     </g>
     <g id="text_8">
      <!-- 1 -->
      <g transform="translate(2.965 240.832732)scale(0.2 -0.2)">
       <use xlink:href="#DejaVuSans-49"/>
      </g>
     </g>
    </g>
    <g id="ytick_3">
     <g id="line2d_22">
      <path clip-path="url(#p1be3250cf8)" d="M 22.69 164.729539 
L 453.192 164.729539 
" style="fill:none;stroke:#b0b0b0;stroke-linecap:square;stroke-width:0.8;"/>
     </g>
     <g id="line2d_23">
      <g>
       <use style="stroke:#000000;stroke-width:0.8;" x="22.69" xlink:href="#mab9cb6008d" y="164.729539"/>
      </g>
     </g>
     <g id="text_9">
      <!-- 2 -->
      <g transform="translate(2.965 172.327977)scale(0.2 -0.2)">
       <use xlink:href="#DejaVuSans-50"/>
      </g>
     </g>
    </g>
    <g id="ytick_4">
     <g id="line2d_24">
      <path clip-path="url(#p1be3250cf8)" d="M 22.69 96.224785 
L 453.192 96.224785 
" style="fill:none;stroke:#b0b0b0;stroke-linecap:square;stroke-width:0.8;"/>
     </g>
     <g id="line2d_25">
      <g>
       <use style="stroke:#000000;stroke-width:0.8;" x="22.69" xlink:href="#mab9cb6008d" y="96.224785"/>
      </g>
     </g>
     <g id="text_10">
      <!-- 3 -->
      <g transform="translate(2.965 103.823222)scale(0.2 -0.2)">
       <use xlink:href="#DejaVuSans-51"/>
      </g>
     </g>
    </g>
    <g id="ytick_5">
     <g id="line2d_26">
      <path clip-path="url(#p1be3250cf8)" d="M 22.69 27.72003 
L 453.192 27.72003 
" style="fill:none;stroke:#b0b0b0;stroke-linecap:square;stroke-width:0.8;"/>
     </g>
     <g id="line2d_27">
      <g>
       <use style="stroke:#000000;stroke-width:0.8;" x="22.69" xlink:href="#mab9cb6008d" y="27.72003"/>
      </g>
     </g>
     <g id="text_11">
      <!-- 4 -->
      <g transform="translate(2.965 35.318467)scale(0.2 -0.2)">
       <use xlink:href="#DejaVuSans-52"/>
      </g>
     </g>
    </g>
    <g id="ytick_6">
     <g id="line2d_28">
      <defs>
       <path d="M 0 0 
L -2 0 
" id="m653c2c171d" style="stroke:#000000;stroke-width:0.6;"/>
      </defs>
      <g>
       <use style="stroke:#000000;stroke-width:0.6;" x="22.69" xlink:href="#m653c2c171d" y="312.35057"/>
      </g>
     </g>
    </g>
    <g id="ytick_7">
     <g id="line2d_29">
      <g>
       <use style="stroke:#000000;stroke-width:0.6;" x="22.69" xlink:href="#m653c2c171d" y="308.377846"/>
      </g>
     </g>
    </g>
    <g id="ytick_8">
     <g id="line2d_30">
      <g>
       <use style="stroke:#000000;stroke-width:0.6;" x="22.69" xlink:href="#m653c2c171d" y="304.873655"/>
      </g>
     </g>
    </g>
    <g id="ytick_9">
     <g id="line2d_31">
      <g>
       <use style="stroke:#000000;stroke-width:0.6;" x="22.69" xlink:href="#m653c2c171d" y="281.117063"/>
      </g>
     </g>
    </g>
    <g id="ytick_10">
     <g id="line2d_32">
      <g>
       <use style="stroke:#000000;stroke-width:0.6;" x="22.69" xlink:href="#m653c2c171d" y="269.053974"/>
      </g>
     </g>
    </g>
    <g id="ytick_11">
     <g id="line2d_33">
      <g>
       <use style="stroke:#000000;stroke-width:0.6;" x="22.69" xlink:href="#m653c2c171d" y="260.495077"/>
      </g>
     </g>
    </g>
    <g id="ytick_12">
     <g id="line2d_34">
      <g>
       <use style="stroke:#000000;stroke-width:0.6;" x="22.69" xlink:href="#m653c2c171d" y="253.85628"/>
      </g>
     </g>
    </g>
    <g id="ytick_13">
     <g id="line2d_35">
      <g>
       <use style="stroke:#000000;stroke-width:0.6;" x="22.69" xlink:href="#m653c2c171d" y="248.431988"/>
      </g>
     </g>
    </g>
    <g id="ytick_14">
     <g id="line2d_36">
      <g>
       <use style="stroke:#000000;stroke-width:0.6;" x="22.69" xlink:href="#m653c2c171d" y="243.845815"/>
      </g>
     </g>
    </g>
    <g id="ytick_15">
     <g id="line2d_37">
      <g>
       <use style="stroke:#000000;stroke-width:0.6;" x="22.69" xlink:href="#m653c2c171d" y="239.873091"/>
      </g>
     </g>
    </g>
    <g id="ytick_16">
     <g id="line2d_38">
      <g>
       <use style="stroke:#000000;stroke-width:0.6;" x="22.69" xlink:href="#m653c2c171d" y="236.3689"/>
      </g>
     </g>
    </g>
    <g id="ytick_17">
     <g id="line2d_39">
      <g>
       <use style="stroke:#000000;stroke-width:0.6;" x="22.69" xlink:href="#m653c2c171d" y="212.612308"/>
      </g>
     </g>
    </g>
    <g id="ytick_18">
     <g id="line2d_40">
      <g>
       <use style="stroke:#000000;stroke-width:0.6;" x="22.69" xlink:href="#m653c2c171d" y="200.54922"/>
      </g>
     </g>
    </g>
    <g id="ytick_19">
     <g id="line2d_41">
      <g>
       <use style="stroke:#000000;stroke-width:0.6;" x="22.69" xlink:href="#m653c2c171d" y="191.990322"/>
      </g>
     </g>
    </g>
    <g id="ytick_20">
     <g id="line2d_42">
      <g>
       <use style="stroke:#000000;stroke-width:0.6;" x="22.69" xlink:href="#m653c2c171d" y="185.351525"/>
      </g>
     </g>
    </g>
    <g id="ytick_21">
     <g id="line2d_43">
      <g>
       <use style="stroke:#000000;stroke-width:0.6;" x="22.69" xlink:href="#m653c2c171d" y="179.927234"/>
      </g>
     </g>
    </g>
    <g id="ytick_22">
     <g id="line2d_44">
      <g>
       <use style="stroke:#000000;stroke-width:0.6;" x="22.69" xlink:href="#m653c2c171d" y="175.34106"/>
      </g>
     </g>
    </g>
    <g id="ytick_23">
     <g id="line2d_45">
      <g>
       <use style="stroke:#000000;stroke-width:0.6;" x="22.69" xlink:href="#m653c2c171d" y="171.368336"/>
      </g>
     </g>
    </g>
    <g id="ytick_24">
     <g id="line2d_46">
      <g>
       <use style="stroke:#000000;stroke-width:0.6;" x="22.69" xlink:href="#m653c2c171d" y="167.864145"/>
      </g>
     </g>
    </g>
    <g id="ytick_25">
     <g id="line2d_47">
      <g>
       <use style="stroke:#000000;stroke-width:0.6;" x="22.69" xlink:href="#m653c2c171d" y="144.107553"/>
      </g>
     </g>
    </g>
    <g id="ytick_26">
     <g id="line2d_48">
      <g>
       <use style="stroke:#000000;stroke-width:0.6;" x="22.69" xlink:href="#m653c2c171d" y="132.044465"/>
      </g>
     </g>
    </g>
    <g id="ytick_27">
     <g id="line2d_49">
      <g>
       <use style="stroke:#000000;stroke-width:0.6;" x="22.69" xlink:href="#m653c2c171d" y="123.485567"/>
      </g>
     </g>
    </g>
    <g id="ytick_28">
     <g id="line2d_50">
      <g>
       <use style="stroke:#000000;stroke-width:0.6;" x="22.69" xlink:href="#m653c2c171d" y="116.846771"/>
      </g>
     </g>
    </g>
    <g id="ytick_29">
     <g id="line2d_51">
      <g>
       <use style="stroke:#000000;stroke-width:0.6;" x="22.69" xlink:href="#m653c2c171d" y="111.422479"/>
      </g>
     </g>
    </g>
    <g id="ytick_30">
     <g id="line2d_52">
      <g>
       <use style="stroke:#000000;stroke-width:0.6;" x="22.69" xlink:href="#m653c2c171d" y="106.836305"/>
      </g>
     </g>
    </g>
    <g id="ytick_31">
     <g id="line2d_53">
      <g>
       <use style="stroke:#000000;stroke-width:0.6;" x="22.69" xlink:href="#m653c2c171d" y="102.863581"/>
      </g>
     </g>
    </g>
    <g id="ytick_32">
     <g id="line2d_54">
      <g>
       <use style="stroke:#000000;stroke-width:0.6;" x="22.69" xlink:href="#m653c2c171d" y="99.35939"/>
      </g>
     </g>
    </g>
    <g id="ytick_33">
     <g id="line2d_55">
      <g>
       <use style="stroke:#000000;stroke-width:0.6;" x="22.69" xlink:href="#m653c2c171d" y="75.602799"/>
      </g>
     </g>
    </g>
    <g id="ytick_34">
     <g id="line2d_56">
      <g>
       <use style="stroke:#000000;stroke-width:0.6;" x="22.69" xlink:href="#m653c2c171d" y="63.53971"/>
      </g>
     </g>
    </g>
    <g id="ytick_35">
     <g id="line2d_57">
      <g>
       <use style="stroke:#000000;stroke-width:0.6;" x="22.69" xlink:href="#m653c2c171d" y="54.980812"/>
      </g>
     </g>
    </g>
    <g id="ytick_36">
     <g id="line2d_58">
      <g>
       <use style="stroke:#000000;stroke-width:0.6;" x="22.69" xlink:href="#m653c2c171d" y="48.342016"/>
      </g>
     </g>
    </g>
    <g id="ytick_37">
     <g id="line2d_59">
      <g>
       <use style="stroke:#000000;stroke-width:0.6;" x="22.69" xlink:href="#m653c2c171d" y="42.917724"/>
      </g>
     </g>
    </g>
    <g id="ytick_38">
     <g id="line2d_60">
      <g>
       <use style="stroke:#000000;stroke-width:0.6;" x="22.69" xlink:href="#m653c2c171d" y="38.331551"/>
      </g>
     </g>
    </g>
    <g id="ytick_39">
     <g id="line2d_61">
      <g>
       <use style="stroke:#000000;stroke-width:0.6;" x="22.69" xlink:href="#m653c2c171d" y="34.358826"/>
      </g>
     </g>
    </g>
    <g id="ytick_40">
     <g id="line2d_62">
      <g>
       <use style="stroke:#000000;stroke-width:0.6;" x="22.69" xlink:href="#m653c2c171d" y="30.854635"/>
      </g>
     </g>
    </g>
   </g>
   <g id="line2d_63">
    <path clip-path="url(#p1be3250cf8)" d="M 33.594461 322.361035 
L 35.825198 258.691419 
L 33.594461 224.305811 
L 39.967994 224.305811 
L 37.737258 258.691419 
L 39.967994 322.361035 
L 33.594461 322.361035 
" style="fill:none;stroke:#000000;stroke-linecap:square;"/>
   </g>
   <g id="line2d_64">
    <path clip-path="url(#p1be3250cf8)" d="M 33.594461 322.361035 
L 39.967994 322.361035 
L 39.967994 224.305811 
L 33.594461 224.305811 
L 33.594461 322.361035 
" style="fill:none;"/>
    <defs>
     <path d="M 0 3 
C 0.795609 3 1.55874 2.683901 2.12132 2.12132 
C 2.683901 1.55874 3 0.795609 3 0 
C 3 -0.795609 2.683901 -1.55874 2.12132 -2.12132 
C 1.55874 -2.683901 0.795609 -3 0 -3 
C -0.795609 -3 -1.55874 -2.683901 -2.12132 -2.12132 
C -2.683901 -1.55874 -3 -0.795609 -3 0 
C -3 0.795609 -2.683901 1.55874 -2.12132 2.12132 
C -1.55874 2.683901 -0.795609 3 0 3 
z
" id="m8734a22f56" style="stroke:#000000;stroke-width:2;"/>
    </defs>
    <g clip-path="url(#p1be3250cf8)">
     <use style="stroke:#000000;stroke-width:2;" x="33.594461" xlink:href="#m8734a22f56" y="322.361035"/>
     <use style="stroke:#000000;stroke-width:2;" x="39.967994" xlink:href="#m8734a22f56" y="322.361035"/>
     <use style="stroke:#000000;stroke-width:2;" x="39.967994" xlink:href="#m8734a22f56" y="224.305811"/>
     <use style="stroke:#000000;stroke-width:2;" x="33.594461" xlink:href="#m8734a22f56" y="224.305811"/>
     <use style="stroke:#000000;stroke-width:2;" x="33.594461" xlink:href="#m8734a22f56" y="322.361035"/>
    </g>
   </g>
   <g id="line2d_65">
    <path clip-path="url(#p1be3250cf8)" d="M 33.594461 258.691419 
L 39.967994 258.691419 
" style="fill:none;stroke:#000000;stroke-linecap:square;stroke-width:2;"/>
   </g>
   <g id="line2d_66">
    <path clip-path="url(#p1be3250cf8)" d="M 87.822567 223.223829 
L 90.053304 185.153842 
L 87.822567 170.273075 
L 94.196101 170.273075 
L 91.965364 185.153842 
L 94.196101 223.223829 
L 87.822567 223.223829 
" style="fill:none;stroke:#000000;stroke-linecap:square;"/>
   </g>
   <g id="line2d_67">
    <path clip-path="url(#p1be3250cf8)" d="M 87.822567 223.223829 
L 94.196101 223.223829 
L 94.196101 170.273075 
L 87.822567 170.273075 
L 87.822567 223.223829 
" style="fill:none;"/>
    <g clip-path="url(#p1be3250cf8)">
     <use style="stroke:#000000;stroke-width:2;" x="87.822567" xlink:href="#m8734a22f56" y="223.223829"/>
     <use style="stroke:#000000;stroke-width:2;" x="94.196101" xlink:href="#m8734a22f56" y="223.223829"/>
     <use style="stroke:#000000;stroke-width:2;" x="94.196101" xlink:href="#m8734a22f56" y="170.273075"/>
     <use style="stroke:#000000;stroke-width:2;" x="87.822567" xlink:href="#m8734a22f56" y="170.273075"/>
     <use style="stroke:#000000;stroke-width:2;" x="87.822567" xlink:href="#m8734a22f56" y="223.223829"/>
    </g>
   </g>
   <g id="line2d_68">
    <path clip-path="url(#p1be3250cf8)" d="M 87.822567 185.153842 
L 94.196101 185.153842 
" style="fill:none;stroke:#000000;stroke-linecap:square;stroke-width:2;"/>
   </g>
   <g id="line2d_69">
    <path clip-path="url(#p1be3250cf8)" d="M 156.141902 220.777144 
L 158.372638 179.778848 
L 156.141902 171.817985 
L 162.515435 171.817985 
L 160.284698 179.778848 
L 162.515435 220.777144 
L 156.141902 220.777144 
" style="fill:none;stroke:#000000;stroke-linecap:square;"/>
   </g>
   <g id="line2d_70">
    <path clip-path="url(#p1be3250cf8)" d="M 156.141902 220.777144 
L 162.515435 220.777144 
L 162.515435 171.817985 
L 156.141902 171.817985 
L 156.141902 220.777144 
" style="fill:none;"/>
    <g clip-path="url(#p1be3250cf8)">
     <use style="stroke:#000000;stroke-width:2;" x="156.141902" xlink:href="#m8734a22f56" y="220.777144"/>
     <use style="stroke:#000000;stroke-width:2;" x="162.515435" xlink:href="#m8734a22f56" y="220.777144"/>
     <use style="stroke:#000000;stroke-width:2;" x="162.515435" xlink:href="#m8734a22f56" y="171.817985"/>
     <use style="stroke:#000000;stroke-width:2;" x="156.141902" xlink:href="#m8734a22f56" y="171.817985"/>
     <use style="stroke:#000000;stroke-width:2;" x="156.141902" xlink:href="#m8734a22f56" y="220.777144"/>
    </g>
   </g>
   <g id="line2d_71">
    <path clip-path="url(#p1be3250cf8)" d="M 156.141902 179.778848 
L 162.515435 179.778848 
" style="fill:none;stroke:#000000;stroke-linecap:square;stroke-width:2;"/>
   </g>
   <g id="line2d_72">
    <path clip-path="url(#p1be3250cf8)" d="M 248.845461 150.340057 
L 251.076198 131.198772 
L 248.845461 119.353359 
L 255.218994 119.353359 
L 252.988258 131.198772 
L 255.218994 150.340057 
L 248.845461 150.340057 
" style="fill:none;stroke:#000000;stroke-linecap:square;"/>
   </g>
   <g id="line2d_73">
    <path clip-path="url(#p1be3250cf8)" d="M 248.845461 150.340057 
L 255.218994 150.340057 
L 255.218994 119.353359 
L 248.845461 119.353359 
L 248.845461 150.340057 
" style="fill:none;"/>
    <g clip-path="url(#p1be3250cf8)">
     <use style="stroke:#000000;stroke-width:2;" x="248.845461" xlink:href="#m8734a22f56" y="150.340057"/>
     <use style="stroke:#000000;stroke-width:2;" x="255.218994" xlink:href="#m8734a22f56" y="150.340057"/>
     <use style="stroke:#000000;stroke-width:2;" x="255.218994" xlink:href="#m8734a22f56" y="119.353359"/>
     <use style="stroke:#000000;stroke-width:2;" x="248.845461" xlink:href="#m8734a22f56" y="119.353359"/>
     <use style="stroke:#000000;stroke-width:2;" x="248.845461" xlink:href="#m8734a22f56" y="150.340057"/>
    </g>
   </g>
   <g id="line2d_74">
    <path clip-path="url(#p1be3250cf8)" d="M 248.845461 131.198772 
L 255.218994 131.198772 
" style="fill:none;stroke:#000000;stroke-linecap:square;stroke-width:2;"/>
   </g>
   <g id="line2d_75">
    <path clip-path="url(#p1be3250cf8)" d="M 36.781228 237.263741 
L 91.009334 180.335724 
" style="fill:none;stroke:#000000;stroke-linecap:square;stroke-width:4;"/>
   </g>
   <g id="line2d_76">
    <path clip-path="url(#p1be3250cf8)" d="M 91.009334 180.335724 
L 159.328668 166.011267 
" style="fill:none;stroke:#000000;stroke-linecap:square;stroke-width:4;"/>
   </g>
   <g id="line2d_77">
    <path clip-path="url(#p1be3250cf8)" d="M 159.328668 166.011267 
L 252.032228 109.817827 
" style="fill:none;stroke:#000000;stroke-linecap:square;stroke-width:4;"/>
   </g>
   <g id="line2d_78">
    <path clip-path="url(#p1be3250cf8)" d="M 36.781228 237.263741 
L 91.009334 180.335724 
L 159.328668 166.011267 
L 252.032228 109.817827 
" style="fill:none;"/>
    <defs>
     <path d="M 0 10 
C 2.652031 10 5.195799 8.946337 7.071068 7.071068 
C 8.946337 5.195799 10 2.652031 10 0 
C 10 -2.652031 8.946337 -5.195799 7.071068 -7.071068 
C 5.195799 -8.946337 2.652031 -10 0 -10 
C -2.652031 -10 -5.195799 -8.946337 -7.071068 -7.071068 
C -8.946337 -5.195799 -10 -2.652031 -10 0 
C -10 2.652031 -8.946337 5.195799 -7.071068 7.071068 
C -5.195799 8.946337 -2.652031 10 0 10 
z
" id="ma4ef27075b" style="stroke:#000000;stroke-width:2;"/>
    </defs>
    <g clip-path="url(#p1be3250cf8)">
     <use style="stroke:#000000;stroke-width:2;" x="36.781228" xlink:href="#ma4ef27075b" y="237.263741"/>
     <use style="stroke:#000000;stroke-width:2;" x="91.009334" xlink:href="#ma4ef27075b" y="180.335724"/>
     <use style="stroke:#000000;stroke-width:2;" x="159.328668" xlink:href="#ma4ef27075b" y="166.011267"/>
     <use style="stroke:#000000;stroke-width:2;" x="252.032228" xlink:href="#ma4ef27075b" y="109.817827"/>
    </g>
   </g>
   <g id="line2d_79">
    <path clip-path="url(#p1be3250cf8)" d="M 32.532206 188.157385 
L 35.506521 152.518065 
L 32.532206 134.417571 
L 41.03025 134.417571 
L 38.055934 152.518065 
L 41.03025 188.157385 
L 32.532206 188.157385 
" style="fill:none;stroke:#0000ff;stroke-linecap:square;"/>
   </g>
   <g id="line2d_80">
    <path clip-path="url(#p1be3250cf8)" d="M 32.532206 188.157385 
L 41.03025 188.157385 
L 41.03025 134.417571 
L 32.532206 134.417571 
L 32.532206 188.157385 
" style="fill:none;"/>
    <defs>
     <path d="M 0 1.5 
C 0.397805 1.5 0.77937 1.341951 1.06066 1.06066 
C 1.341951 0.77937 1.5 0.397805 1.5 0 
C 1.5 -0.397805 1.341951 -0.77937 1.06066 -1.06066 
C 0.77937 -1.341951 0.397805 -1.5 0 -1.5 
C -0.397805 -1.5 -0.77937 -1.341951 -1.06066 -1.06066 
C -1.341951 -0.77937 -1.5 -0.397805 -1.5 0 
C -1.5 0.397805 -1.341951 0.77937 -1.06066 1.06066 
C -0.77937 1.341951 -0.397805 1.5 0 1.5 
z
" id="m6d0e48d6b3" style="stroke:#0000ff;"/>
    </defs>
    <g clip-path="url(#p1be3250cf8)">
     <use style="fill:#0000ff;stroke:#0000ff;" x="32.532206" xlink:href="#m6d0e48d6b3" y="188.157385"/>
     <use style="fill:#0000ff;stroke:#0000ff;" x="41.03025" xlink:href="#m6d0e48d6b3" y="188.157385"/>
     <use style="fill:#0000ff;stroke:#0000ff;" x="41.03025" xlink:href="#m6d0e48d6b3" y="134.417571"/>
     <use style="fill:#0000ff;stroke:#0000ff;" x="32.532206" xlink:href="#m6d0e48d6b3" y="134.417571"/>
     <use style="fill:#0000ff;stroke:#0000ff;" x="32.532206" xlink:href="#m6d0e48d6b3" y="188.157385"/>
    </g>
   </g>
   <g id="line2d_81">
    <path clip-path="url(#p1be3250cf8)" d="M 32.532206 152.518065 
L 41.03025 152.518065 
" style="fill:none;stroke:#0000ff;stroke-linecap:square;stroke-width:2;"/>
   </g>
   <g id="line2d_82">
    <path clip-path="url(#p1be3250cf8)" d="M 86.760312 156.544876 
L 89.734627 143.860654 
L 86.760312 130.248586 
L 95.258356 130.248586 
L 92.284041 143.860654 
L 95.258356 156.544876 
L 86.760312 156.544876 
" style="fill:none;stroke:#0000ff;stroke-linecap:square;"/>
   </g>
   <g id="line2d_83">
    <path clip-path="url(#p1be3250cf8)" d="M 86.760312 156.544876 
L 95.258356 156.544876 
L 95.258356 130.248586 
L 86.760312 130.248586 
L 86.760312 156.544876 
" style="fill:none;"/>
    <g clip-path="url(#p1be3250cf8)">
     <use style="fill:#0000ff;stroke:#0000ff;" x="86.760312" xlink:href="#m6d0e48d6b3" y="156.544876"/>
     <use style="fill:#0000ff;stroke:#0000ff;" x="95.258356" xlink:href="#m6d0e48d6b3" y="156.544876"/>
     <use style="fill:#0000ff;stroke:#0000ff;" x="95.258356" xlink:href="#m6d0e48d6b3" y="130.248586"/>
     <use style="fill:#0000ff;stroke:#0000ff;" x="86.760312" xlink:href="#m6d0e48d6b3" y="130.248586"/>
     <use style="fill:#0000ff;stroke:#0000ff;" x="86.760312" xlink:href="#m6d0e48d6b3" y="156.544876"/>
    </g>
   </g>
   <g id="line2d_84">
    <path clip-path="url(#p1be3250cf8)" d="M 86.760312 143.860654 
L 95.258356 143.860654 
" style="fill:none;stroke:#0000ff;stroke-linecap:square;stroke-width:2;"/>
   </g>
   <g id="line2d_85">
    <path clip-path="url(#p1be3250cf8)" d="M 155.079646 151.922141 
L 158.053961 116.409679 
L 155.079646 84.29289 
L 163.57769 84.29289 
L 160.603375 116.409679 
L 163.57769 151.922141 
L 155.079646 151.922141 
" style="fill:none;stroke:#0000ff;stroke-linecap:square;"/>
   </g>
   <g id="line2d_86">
    <path clip-path="url(#p1be3250cf8)" d="M 155.079646 151.922141 
L 163.57769 151.922141 
L 163.57769 84.29289 
L 155.079646 84.29289 
L 155.079646 151.922141 
" style="fill:none;"/>
    <g clip-path="url(#p1be3250cf8)">
     <use style="fill:#0000ff;stroke:#0000ff;" x="155.079646" xlink:href="#m6d0e48d6b3" y="151.922141"/>
     <use style="fill:#0000ff;stroke:#0000ff;" x="163.57769" xlink:href="#m6d0e48d6b3" y="151.922141"/>
     <use style="fill:#0000ff;stroke:#0000ff;" x="163.57769" xlink:href="#m6d0e48d6b3" y="84.29289"/>
     <use style="fill:#0000ff;stroke:#0000ff;" x="155.079646" xlink:href="#m6d0e48d6b3" y="84.29289"/>
     <use style="fill:#0000ff;stroke:#0000ff;" x="155.079646" xlink:href="#m6d0e48d6b3" y="151.922141"/>
    </g>
   </g>
   <g id="line2d_87">
    <path clip-path="url(#p1be3250cf8)" d="M 155.079646 116.409679 
L 163.57769 116.409679 
" style="fill:none;stroke:#0000ff;stroke-linecap:square;stroke-width:2;"/>
   </g>
   <g id="line2d_88">
    <path clip-path="url(#p1be3250cf8)" d="M 247.783206 94.513675 
L 250.757521 79.81449 
L 247.783206 70.98137 
L 256.28125 70.98137 
L 253.306934 79.81449 
L 256.28125 94.513675 
L 247.783206 94.513675 
" style="fill:none;stroke:#0000ff;stroke-linecap:square;"/>
   </g>
   <g id="line2d_89">
    <path clip-path="url(#p1be3250cf8)" d="M 247.783206 94.513675 
L 256.28125 94.513675 
L 256.28125 70.98137 
L 247.783206 70.98137 
L 247.783206 94.513675 
" style="fill:none;"/>
    <g clip-path="url(#p1be3250cf8)">
     <use style="fill:#0000ff;stroke:#0000ff;" x="247.783206" xlink:href="#m6d0e48d6b3" y="94.513675"/>
     <use style="fill:#0000ff;stroke:#0000ff;" x="256.28125" xlink:href="#m6d0e48d6b3" y="94.513675"/>
     <use style="fill:#0000ff;stroke:#0000ff;" x="256.28125" xlink:href="#m6d0e48d6b3" y="70.98137"/>
     <use style="fill:#0000ff;stroke:#0000ff;" x="247.783206" xlink:href="#m6d0e48d6b3" y="70.98137"/>
     <use style="fill:#0000ff;stroke:#0000ff;" x="247.783206" xlink:href="#m6d0e48d6b3" y="94.513675"/>
    </g>
   </g>
   <g id="line2d_90">
    <path clip-path="url(#p1be3250cf8)" d="M 247.783206 79.81449 
L 256.28125 79.81449 
" style="fill:none;stroke:#0000ff;stroke-linecap:square;stroke-width:2;"/>
   </g>
   <g id="line2d_91">
    <path clip-path="url(#p1be3250cf8)" d="M 36.781228 151.518664 
L 91.009334 121.80662 
" style="fill:none;stroke:#0000ff;stroke-linecap:square;stroke-width:4;"/>
   </g>
   <g id="line2d_92">
    <path clip-path="url(#p1be3250cf8)" d="M 91.009334 121.80662 
L 159.328668 100.709646 
" style="fill:none;stroke:#0000ff;stroke-linecap:square;stroke-width:4;"/>
   </g>
   <g id="line2d_93">
    <path clip-path="url(#p1be3250cf8)" d="M 159.328668 100.709646 
L 252.032228 86.264301 
" style="fill:none;stroke:#0000ff;stroke-linecap:square;stroke-width:4;"/>
   </g>
   <g id="line2d_94">
    <path clip-path="url(#p1be3250cf8)" d="M 36.781228 151.518664 
L 91.009334 121.80662 
L 159.328668 100.709646 
L 252.032228 86.264301 
" style="fill:none;"/>
    <defs>
     <path d="M 0 5 
C 1.326016 5 2.597899 4.473168 3.535534 3.535534 
C 4.473168 2.597899 5 1.326016 5 0 
C 5 -1.326016 4.473168 -2.597899 3.535534 -3.535534 
C 2.597899 -4.473168 1.326016 -5 0 -5 
C -1.326016 -5 -2.597899 -4.473168 -3.535534 -3.535534 
C -4.473168 -2.597899 -5 -1.326016 -5 0 
C -5 1.326016 -4.473168 2.597899 -3.535534 3.535534 
C -2.597899 4.473168 -1.326016 5 0 5 
z
" id="m5352ae3fce" style="stroke:#0000ff;"/>
    </defs>
    <g clip-path="url(#p1be3250cf8)">
     <use style="fill:#0000ff;stroke:#0000ff;" x="36.781228" xlink:href="#m5352ae3fce" y="151.518664"/>
     <use style="fill:#0000ff;stroke:#0000ff;" x="91.009334" xlink:href="#m5352ae3fce" y="121.80662"/>
     <use style="fill:#0000ff;stroke:#0000ff;" x="159.328668" xlink:href="#m5352ae3fce" y="100.709646"/>
     <use style="fill:#0000ff;stroke:#0000ff;" x="252.032228" xlink:href="#m5352ae3fce" y="86.264301"/>
    </g>
   </g>
   <g id="line2d_95">
    <path clip-path="url(#p1be3250cf8)" d="M 31.46995 187.510593 
L 35.187845 146.588259 
L 31.46995 128.717102 
L 42.092505 128.717102 
L 38.374611 146.588259 
L 42.092505 187.510593 
L 31.46995 187.510593 
" style="fill:none;stroke:#00bfbf;stroke-linecap:square;"/>
   </g>
   <g id="line2d_96">
    <path clip-path="url(#p1be3250cf8)" d="M 31.46995 187.510593 
L 42.092505 187.510593 
L 42.092505 128.717102 
L 31.46995 128.717102 
L 31.46995 187.510593 
" style="fill:none;"/>
    <defs>
     <path d="M -0 3 
L 3 -3 
L -3 -3 
z
" id="m7199de36e4" style="stroke:#00bfbf;stroke-linejoin:miter;stroke-width:2;"/>
    </defs>
    <g clip-path="url(#p1be3250cf8)">
     <use style="fill:#00bfbf;stroke:#00bfbf;stroke-linejoin:miter;stroke-width:2;" x="31.46995" xlink:href="#m7199de36e4" y="187.510593"/>
     <use style="fill:#00bfbf;stroke:#00bfbf;stroke-linejoin:miter;stroke-width:2;" x="42.092505" xlink:href="#m7199de36e4" y="187.510593"/>
     <use style="fill:#00bfbf;stroke:#00bfbf;stroke-linejoin:miter;stroke-width:2;" x="42.092505" xlink:href="#m7199de36e4" y="128.717102"/>
     <use style="fill:#00bfbf;stroke:#00bfbf;stroke-linejoin:miter;stroke-width:2;" x="31.46995" xlink:href="#m7199de36e4" y="128.717102"/>
     <use style="fill:#00bfbf;stroke:#00bfbf;stroke-linejoin:miter;stroke-width:2;" x="31.46995" xlink:href="#m7199de36e4" y="187.510593"/>
    </g>
   </g>
   <g id="line2d_97">
    <path clip-path="url(#p1be3250cf8)" d="M 31.46995 146.588259 
L 42.092505 146.588259 
" style="fill:none;stroke:#00bfbf;stroke-linecap:square;stroke-width:2;"/>
   </g>
   <g id="line2d_98">
    <path clip-path="url(#p1be3250cf8)" d="M 85.698056 155.94834 
L 89.415951 123.709543 
L 85.698056 107.727903 
L 96.320612 107.727903 
L 92.602717 123.709543 
L 96.320612 155.94834 
L 85.698056 155.94834 
" style="fill:none;stroke:#00bfbf;stroke-linecap:square;"/>
   </g>
   <g id="line2d_99">
    <path clip-path="url(#p1be3250cf8)" d="M 85.698056 155.94834 
L 96.320612 155.94834 
L 96.320612 107.727903 
L 85.698056 107.727903 
L 85.698056 155.94834 
" style="fill:none;"/>
    <g clip-path="url(#p1be3250cf8)">
     <use style="fill:#00bfbf;stroke:#00bfbf;stroke-linejoin:miter;stroke-width:2;" x="85.698056" xlink:href="#m7199de36e4" y="155.94834"/>
     <use style="fill:#00bfbf;stroke:#00bfbf;stroke-linejoin:miter;stroke-width:2;" x="96.320612" xlink:href="#m7199de36e4" y="155.94834"/>
     <use style="fill:#00bfbf;stroke:#00bfbf;stroke-linejoin:miter;stroke-width:2;" x="96.320612" xlink:href="#m7199de36e4" y="107.727903"/>
     <use style="fill:#00bfbf;stroke:#00bfbf;stroke-linejoin:miter;stroke-width:2;" x="85.698056" xlink:href="#m7199de36e4" y="107.727903"/>
     <use style="fill:#00bfbf;stroke:#00bfbf;stroke-linejoin:miter;stroke-width:2;" x="85.698056" xlink:href="#m7199de36e4" y="155.94834"/>
    </g>
   </g>
   <g id="line2d_100">
    <path clip-path="url(#p1be3250cf8)" d="M 85.698056 123.709543 
L 96.320612 123.709543 
" style="fill:none;stroke:#00bfbf;stroke-linecap:square;stroke-width:2;"/>
   </g>
   <g id="line2d_101">
    <path clip-path="url(#p1be3250cf8)" d="M 154.017391 135.578422 
L 157.735285 88.671936 
L 154.017391 79.056455 
L 164.639946 79.056455 
L 160.922051 88.671936 
L 164.639946 135.578422 
L 154.017391 135.578422 
" style="fill:none;stroke:#00bfbf;stroke-linecap:square;"/>
   </g>
   <g id="line2d_102">
    <path clip-path="url(#p1be3250cf8)" d="M 154.017391 135.578422 
L 164.639946 135.578422 
L 164.639946 79.056455 
L 154.017391 79.056455 
L 154.017391 135.578422 
" style="fill:none;"/>
    <g clip-path="url(#p1be3250cf8)">
     <use style="fill:#00bfbf;stroke:#00bfbf;stroke-linejoin:miter;stroke-width:2;" x="154.017391" xlink:href="#m7199de36e4" y="135.578422"/>
     <use style="fill:#00bfbf;stroke:#00bfbf;stroke-linejoin:miter;stroke-width:2;" x="164.639946" xlink:href="#m7199de36e4" y="135.578422"/>
     <use style="fill:#00bfbf;stroke:#00bfbf;stroke-linejoin:miter;stroke-width:2;" x="164.639946" xlink:href="#m7199de36e4" y="79.056455"/>
     <use style="fill:#00bfbf;stroke:#00bfbf;stroke-linejoin:miter;stroke-width:2;" x="154.017391" xlink:href="#m7199de36e4" y="79.056455"/>
     <use style="fill:#00bfbf;stroke:#00bfbf;stroke-linejoin:miter;stroke-width:2;" x="154.017391" xlink:href="#m7199de36e4" y="135.578422"/>
    </g>
   </g>
   <g id="line2d_103">
    <path clip-path="url(#p1be3250cf8)" d="M 154.017391 88.671936 
L 164.639946 88.671936 
" style="fill:none;stroke:#00bfbf;stroke-linecap:square;stroke-width:2;"/>
   </g>
   <g id="line2d_104">
    <path clip-path="url(#p1be3250cf8)" d="M 36.781228 143.59141 
L 91.009334 108.00657 
" style="fill:none;stroke:#00bfbf;stroke-linecap:square;stroke-width:4;"/>
   </g>
   <g id="line2d_105">
    <path clip-path="url(#p1be3250cf8)" d="M 91.009334 108.00657 
L 159.328668 100.51656 
" style="fill:none;stroke:#00bfbf;stroke-linecap:square;stroke-width:4;"/>
   </g>
   <g id="line2d_106">
    <path clip-path="url(#p1be3250cf8)" d="M 36.781228 143.59141 
L 91.009334 108.00657 
L 159.328668 100.51656 
" style="fill:none;"/>
    <defs>
     <path d="M -0 10 
L 10 -10 
L -10 -10 
z
" id="m50b613d096" style="stroke:#000000;stroke-linejoin:miter;stroke-width:2;"/>
    </defs>
    <g clip-path="url(#p1be3250cf8)">
     <use style="fill:#00bfbf;stroke:#000000;stroke-linejoin:miter;stroke-width:2;" x="36.781228" xlink:href="#m50b613d096" y="143.59141"/>
     <use style="fill:#00bfbf;stroke:#000000;stroke-linejoin:miter;stroke-width:2;" x="91.009334" xlink:href="#m50b613d096" y="108.00657"/>
     <use style="fill:#00bfbf;stroke:#000000;stroke-linejoin:miter;stroke-width:2;" x="159.328668" xlink:href="#m50b613d096" y="100.51656"/>
    </g>
   </g>
   <g id="line2d_107">
    <path clip-path="url(#p1be3250cf8)" d="M 30.407695 187.192395 
L 34.869168 147.491125 
L 30.407695 137.767767 
L 43.154761 137.767767 
L 38.693288 147.491125 
L 43.154761 187.192395 
L 30.407695 187.192395 
" style="fill:none;stroke:#008000;stroke-linecap:square;"/>
   </g>
   <g id="line2d_108">
    <path clip-path="url(#p1be3250cf8)" d="M 30.407695 187.192395 
L 43.154761 187.192395 
L 43.154761 137.767767 
L 30.407695 137.767767 
L 30.407695 187.192395 
" style="fill:none;"/>
    <defs>
     <path d="M 0 1.5 
C 0.397805 1.5 0.77937 1.341951 1.06066 1.06066 
C 1.341951 0.77937 1.5 0.397805 1.5 0 
C 1.5 -0.397805 1.341951 -0.77937 1.06066 -1.06066 
C 0.77937 -1.341951 0.397805 -1.5 0 -1.5 
C -0.397805 -1.5 -0.77937 -1.341951 -1.06066 -1.06066 
C -1.341951 -0.77937 -1.5 -0.397805 -1.5 0 
C -1.5 0.397805 -1.341951 0.77937 -1.06066 1.06066 
C -0.77937 1.341951 -0.397805 1.5 0 1.5 
z
" id="m536792d0bf" style="stroke:#008000;"/>
    </defs>
    <g clip-path="url(#p1be3250cf8)">
     <use style="fill:#008000;stroke:#008000;" x="30.407695" xlink:href="#m536792d0bf" y="187.192395"/>
     <use style="fill:#008000;stroke:#008000;" x="43.154761" xlink:href="#m536792d0bf" y="187.192395"/>
     <use style="fill:#008000;stroke:#008000;" x="43.154761" xlink:href="#m536792d0bf" y="137.767767"/>
     <use style="fill:#008000;stroke:#008000;" x="30.407695" xlink:href="#m536792d0bf" y="137.767767"/>
     <use style="fill:#008000;stroke:#008000;" x="30.407695" xlink:href="#m536792d0bf" y="187.192395"/>
    </g>
   </g>
   <g id="line2d_109">
    <path clip-path="url(#p1be3250cf8)" d="M 30.407695 147.491125 
L 43.154761 147.491125 
" style="fill:none;stroke:#008000;stroke-linecap:square;stroke-width:2;"/>
   </g>
   <g id="line2d_110">
    <path clip-path="url(#p1be3250cf8)" d="M 84.635801 127.486639 
L 89.097274 121.822246 
L 84.635801 107.844918 
L 97.382867 107.844918 
L 92.921394 121.822246 
L 97.382867 127.486639 
L 84.635801 127.486639 
" style="fill:none;stroke:#008000;stroke-linecap:square;"/>
   </g>
   <g id="line2d_111">
    <path clip-path="url(#p1be3250cf8)" d="M 84.635801 127.486639 
L 97.382867 127.486639 
L 97.382867 107.844918 
L 84.635801 107.844918 
L 84.635801 127.486639 
" style="fill:none;"/>
    <g clip-path="url(#p1be3250cf8)">
     <use style="fill:#008000;stroke:#008000;" x="84.635801" xlink:href="#m536792d0bf" y="127.486639"/>
     <use style="fill:#008000;stroke:#008000;" x="97.382867" xlink:href="#m536792d0bf" y="127.486639"/>
     <use style="fill:#008000;stroke:#008000;" x="97.382867" xlink:href="#m536792d0bf" y="107.844918"/>
     <use style="fill:#008000;stroke:#008000;" x="84.635801" xlink:href="#m536792d0bf" y="107.844918"/>
     <use style="fill:#008000;stroke:#008000;" x="84.635801" xlink:href="#m536792d0bf" y="127.486639"/>
    </g>
   </g>
   <g id="line2d_112">
    <path clip-path="url(#p1be3250cf8)" d="M 84.635801 121.822246 
L 97.382867 121.822246 
" style="fill:none;stroke:#008000;stroke-linecap:square;stroke-width:2;"/>
   </g>
   <g id="line2d_113">
    <path clip-path="url(#p1be3250cf8)" d="M 152.955135 126.935883 
L 157.416608 112.33379 
L 152.955135 106.548688 
L 165.702201 106.548688 
L 161.240728 112.33379 
L 165.702201 126.935883 
L 152.955135 126.935883 
" style="fill:none;stroke:#008000;stroke-linecap:square;"/>
   </g>
   <g id="line2d_114">
    <path clip-path="url(#p1be3250cf8)" d="M 152.955135 126.935883 
L 165.702201 126.935883 
L 165.702201 106.548688 
L 152.955135 106.548688 
L 152.955135 126.935883 
" style="fill:none;"/>
    <g clip-path="url(#p1be3250cf8)">
     <use style="fill:#008000;stroke:#008000;" x="152.955135" xlink:href="#m536792d0bf" y="126.935883"/>
     <use style="fill:#008000;stroke:#008000;" x="165.702201" xlink:href="#m536792d0bf" y="126.935883"/>
     <use style="fill:#008000;stroke:#008000;" x="165.702201" xlink:href="#m536792d0bf" y="106.548688"/>
     <use style="fill:#008000;stroke:#008000;" x="152.955135" xlink:href="#m536792d0bf" y="106.548688"/>
     <use style="fill:#008000;stroke:#008000;" x="152.955135" xlink:href="#m536792d0bf" y="126.935883"/>
    </g>
   </g>
   <g id="line2d_115">
    <path clip-path="url(#p1be3250cf8)" d="M 152.955135 112.33379 
L 165.702201 112.33379 
" style="fill:none;stroke:#008000;stroke-linecap:square;stroke-width:2;"/>
   </g>
   <g id="line2d_116">
    <path clip-path="url(#p1be3250cf8)" d="M 36.781228 143.44557 
L 91.009334 107.415684 
" style="fill:none;stroke:#008000;stroke-linecap:square;stroke-width:4;"/>
   </g>
   <g id="line2d_117">
    <path clip-path="url(#p1be3250cf8)" d="M 91.009334 107.415684 
L 159.328668 100.436476 
" style="fill:none;stroke:#008000;stroke-linecap:square;stroke-width:4;"/>
   </g>
   <g id="line2d_118">
    <path clip-path="url(#p1be3250cf8)" d="M 36.781228 143.44557 
L 91.009334 107.415684 
L 159.328668 100.436476 
" style="fill:none;"/>
    <defs>
     <path d="M 0 5 
C 1.326016 5 2.597899 4.473168 3.535534 3.535534 
C 4.473168 2.597899 5 1.326016 5 0 
C 5 -1.326016 4.473168 -2.597899 3.535534 -3.535534 
C 2.597899 -4.473168 1.326016 -5 0 -5 
C -1.326016 -5 -2.597899 -4.473168 -3.535534 -3.535534 
C -4.473168 -2.597899 -5 -1.326016 -5 0 
C -5 1.326016 -4.473168 2.597899 -3.535534 3.535534 
C -2.597899 4.473168 -1.326016 5 0 5 
z
" id="m81a1a86fdd" style="stroke:#008000;"/>
    </defs>
    <g clip-path="url(#p1be3250cf8)">
     <use style="fill:#008000;stroke:#008000;" x="36.781228" xlink:href="#m81a1a86fdd" y="143.44557"/>
     <use style="fill:#008000;stroke:#008000;" x="91.009334" xlink:href="#m81a1a86fdd" y="107.415684"/>
     <use style="fill:#008000;stroke:#008000;" x="159.328668" xlink:href="#m81a1a86fdd" y="100.436476"/>
    </g>
   </g>
   <g id="line2d_119">
    <path clip-path="url(#p1be3250cf8)" d="M 29.345439 185.650535 
L 34.550491 161.691783 
L 29.345439 151.690913 
L 44.217016 151.690913 
L 39.011964 161.691783 
L 44.217016 185.650535 
L 29.345439 185.650535 
" style="fill:none;stroke:#bfbf00;stroke-linecap:square;"/>
   </g>
   <g id="line2d_120">
    <path clip-path="url(#p1be3250cf8)" d="M 29.345439 185.650535 
L 44.217016 185.650535 
L 44.217016 151.690913 
L 29.345439 151.690913 
L 29.345439 185.650535 
" style="fill:none;"/>
    <defs>
     <path d="M 0 -3 
L -3 3 
L 3 3 
z
" id="m636144fff1" style="stroke:#bfbf00;stroke-linejoin:miter;stroke-width:2;"/>
    </defs>
    <g clip-path="url(#p1be3250cf8)">
     <use style="fill:#bfbf00;stroke:#bfbf00;stroke-linejoin:miter;stroke-width:2;" x="29.345439" xlink:href="#m636144fff1" y="185.650535"/>
     <use style="fill:#bfbf00;stroke:#bfbf00;stroke-linejoin:miter;stroke-width:2;" x="44.217016" xlink:href="#m636144fff1" y="185.650535"/>
     <use style="fill:#bfbf00;stroke:#bfbf00;stroke-linejoin:miter;stroke-width:2;" x="44.217016" xlink:href="#m636144fff1" y="151.690913"/>
     <use style="fill:#bfbf00;stroke:#bfbf00;stroke-linejoin:miter;stroke-width:2;" x="29.345439" xlink:href="#m636144fff1" y="151.690913"/>
     <use style="fill:#bfbf00;stroke:#bfbf00;stroke-linejoin:miter;stroke-width:2;" x="29.345439" xlink:href="#m636144fff1" y="185.650535"/>
    </g>
   </g>
   <g id="line2d_121">
    <path clip-path="url(#p1be3250cf8)" d="M 29.345439 161.691783 
L 44.217016 161.691783 
" style="fill:none;stroke:#bfbf00;stroke-linecap:square;stroke-width:2;"/>
   </g>
   <g id="line2d_122">
    <path clip-path="url(#p1be3250cf8)" d="M 83.573545 154.932346 
L 88.778597 107.749808 
L 83.573545 91.452189 
L 98.445123 91.452189 
L 93.240071 107.749808 
L 98.445123 154.932346 
L 83.573545 154.932346 
" style="fill:none;stroke:#bfbf00;stroke-linecap:square;"/>
   </g>
   <g id="line2d_123">
    <path clip-path="url(#p1be3250cf8)" d="M 83.573545 154.932346 
L 98.445123 154.932346 
L 98.445123 91.452189 
L 83.573545 91.452189 
L 83.573545 154.932346 
" style="fill:none;"/>
    <g clip-path="url(#p1be3250cf8)">
     <use style="fill:#bfbf00;stroke:#bfbf00;stroke-linejoin:miter;stroke-width:2;" x="83.573545" xlink:href="#m636144fff1" y="154.932346"/>
     <use style="fill:#bfbf00;stroke:#bfbf00;stroke-linejoin:miter;stroke-width:2;" x="98.445123" xlink:href="#m636144fff1" y="154.932346"/>
     <use style="fill:#bfbf00;stroke:#bfbf00;stroke-linejoin:miter;stroke-width:2;" x="98.445123" xlink:href="#m636144fff1" y="91.452189"/>
     <use style="fill:#bfbf00;stroke:#bfbf00;stroke-linejoin:miter;stroke-width:2;" x="83.573545" xlink:href="#m636144fff1" y="91.452189"/>
     <use style="fill:#bfbf00;stroke:#bfbf00;stroke-linejoin:miter;stroke-width:2;" x="83.573545" xlink:href="#m636144fff1" y="154.932346"/>
    </g>
   </g>
   <g id="line2d_124">
    <path clip-path="url(#p1be3250cf8)" d="M 83.573545 107.749808 
L 98.445123 107.749808 
" style="fill:none;stroke:#bfbf00;stroke-linecap:square;stroke-width:2;"/>
   </g>
   <g id="line2d_125">
    <path clip-path="url(#p1be3250cf8)" d="M 151.892879 119.994602 
L 157.097931 108.650059 
L 151.892879 77.777866 
L 166.764457 77.777866 
L 161.559405 108.650059 
L 166.764457 119.994602 
L 151.892879 119.994602 
" style="fill:none;stroke:#bfbf00;stroke-linecap:square;"/>
   </g>
   <g id="line2d_126">
    <path clip-path="url(#p1be3250cf8)" d="M 151.892879 119.994602 
L 166.764457 119.994602 
L 166.764457 77.777866 
L 151.892879 77.777866 
L 151.892879 119.994602 
" style="fill:none;"/>
    <g clip-path="url(#p1be3250cf8)">
     <use style="fill:#bfbf00;stroke:#bfbf00;stroke-linejoin:miter;stroke-width:2;" x="151.892879" xlink:href="#m636144fff1" y="119.994602"/>
     <use style="fill:#bfbf00;stroke:#bfbf00;stroke-linejoin:miter;stroke-width:2;" x="166.764457" xlink:href="#m636144fff1" y="119.994602"/>
     <use style="fill:#bfbf00;stroke:#bfbf00;stroke-linejoin:miter;stroke-width:2;" x="166.764457" xlink:href="#m636144fff1" y="77.777866"/>
     <use style="fill:#bfbf00;stroke:#bfbf00;stroke-linejoin:miter;stroke-width:2;" x="151.892879" xlink:href="#m636144fff1" y="77.777866"/>
     <use style="fill:#bfbf00;stroke:#bfbf00;stroke-linejoin:miter;stroke-width:2;" x="151.892879" xlink:href="#m636144fff1" y="119.994602"/>
    </g>
   </g>
   <g id="line2d_127">
    <path clip-path="url(#p1be3250cf8)" d="M 151.892879 108.650059 
L 166.764457 108.650059 
" style="fill:none;stroke:#bfbf00;stroke-linecap:square;stroke-width:2;"/>
   </g>
   <g id="line2d_128">
    <path clip-path="url(#p1be3250cf8)" d="M 36.781228 143.03022 
L 91.009334 107.285955 
" style="fill:none;stroke:#bfbf00;stroke-linecap:square;stroke-width:4;"/>
   </g>
   <g id="line2d_129">
    <path clip-path="url(#p1be3250cf8)" d="M 91.009334 107.285955 
L 159.328668 99.096103 
" style="fill:none;stroke:#bfbf00;stroke-linecap:square;stroke-width:4;"/>
   </g>
   <g id="line2d_130">
    <path clip-path="url(#p1be3250cf8)" d="M 36.781228 143.03022 
L 91.009334 107.285955 
L 159.328668 99.096103 
" style="fill:none;"/>
    <defs>
     <path d="M 0 -10 
L -10 10 
L 10 10 
z
" id="m85281dafa0" style="stroke:#000000;stroke-linejoin:miter;stroke-width:2;"/>
    </defs>
    <g clip-path="url(#p1be3250cf8)">
     <use style="fill:#bfbf00;stroke:#000000;stroke-linejoin:miter;stroke-width:2;" x="36.781228" xlink:href="#m85281dafa0" y="143.03022"/>
     <use style="fill:#bfbf00;stroke:#000000;stroke-linejoin:miter;stroke-width:2;" x="91.009334" xlink:href="#m85281dafa0" y="107.285955"/>
     <use style="fill:#bfbf00;stroke:#000000;stroke-linejoin:miter;stroke-width:2;" x="159.328668" xlink:href="#m85281dafa0" y="99.096103"/>
    </g>
   </g>
   <g id="line2d_131">
    <path clip-path="url(#p1be3250cf8)" d="M 28.283184 184.472115 
L 34.231815 156.981147 
L 28.283184 141.271958 
L 45.279272 141.271958 
L 39.330641 156.981147 
L 45.279272 184.472115 
L 28.283184 184.472115 
" style="fill:none;stroke:#bf00bf;stroke-linecap:square;"/>
   </g>
   <g id="line2d_132">
    <path clip-path="url(#p1be3250cf8)" d="M 28.283184 184.472115 
L 45.279272 184.472115 
L 45.279272 141.271958 
L 28.283184 141.271958 
L 28.283184 184.472115 
" style="fill:none;"/>
    <defs>
     <path d="M 0 1.5 
C 0.397805 1.5 0.77937 1.341951 1.06066 1.06066 
C 1.341951 0.77937 1.5 0.397805 1.5 0 
C 1.5 -0.397805 1.341951 -0.77937 1.06066 -1.06066 
C 0.77937 -1.341951 0.397805 -1.5 0 -1.5 
C -0.397805 -1.5 -0.77937 -1.341951 -1.06066 -1.06066 
C -1.341951 -0.77937 -1.5 -0.397805 -1.5 0 
C -1.5 0.397805 -1.341951 0.77937 -1.06066 1.06066 
C -0.77937 1.341951 -0.397805 1.5 0 1.5 
z
" id="md9b93990c5" style="stroke:#bf00bf;"/>
    </defs>
    <g clip-path="url(#p1be3250cf8)">
     <use style="fill:#bf00bf;stroke:#bf00bf;" x="28.283184" xlink:href="#md9b93990c5" y="184.472115"/>
     <use style="fill:#bf00bf;stroke:#bf00bf;" x="45.279272" xlink:href="#md9b93990c5" y="184.472115"/>
     <use style="fill:#bf00bf;stroke:#bf00bf;" x="45.279272" xlink:href="#md9b93990c5" y="141.271958"/>
     <use style="fill:#bf00bf;stroke:#bf00bf;" x="28.283184" xlink:href="#md9b93990c5" y="141.271958"/>
     <use style="fill:#bf00bf;stroke:#bf00bf;" x="28.283184" xlink:href="#md9b93990c5" y="184.472115"/>
    </g>
   </g>
   <g id="line2d_133">
    <path clip-path="url(#p1be3250cf8)" d="M 28.283184 156.981147 
L 45.279272 156.981147 
" style="fill:none;stroke:#bf00bf;stroke-linecap:square;stroke-width:2;"/>
   </g>
   <g id="line2d_134">
    <path clip-path="url(#p1be3250cf8)" d="M 82.51129 136.340059 
L 88.459921 103.12505 
L 82.51129 84.70883 
L 99.507378 84.70883 
L 93.558747 103.12505 
L 99.507378 136.340059 
L 82.51129 136.340059 
" style="fill:none;stroke:#bf00bf;stroke-linecap:square;"/>
   </g>
   <g id="line2d_135">
    <path clip-path="url(#p1be3250cf8)" d="M 82.51129 136.340059 
L 99.507378 136.340059 
L 99.507378 84.70883 
L 82.51129 84.70883 
L 82.51129 136.340059 
" style="fill:none;"/>
    <g clip-path="url(#p1be3250cf8)">
     <use style="fill:#bf00bf;stroke:#bf00bf;" x="82.51129" xlink:href="#md9b93990c5" y="136.340059"/>
     <use style="fill:#bf00bf;stroke:#bf00bf;" x="99.507378" xlink:href="#md9b93990c5" y="136.340059"/>
     <use style="fill:#bf00bf;stroke:#bf00bf;" x="99.507378" xlink:href="#md9b93990c5" y="84.70883"/>
     <use style="fill:#bf00bf;stroke:#bf00bf;" x="82.51129" xlink:href="#md9b93990c5" y="84.70883"/>
     <use style="fill:#bf00bf;stroke:#bf00bf;" x="82.51129" xlink:href="#md9b93990c5" y="136.340059"/>
    </g>
   </g>
   <g id="line2d_136">
    <path clip-path="url(#p1be3250cf8)" d="M 82.51129 103.12505 
L 99.507378 103.12505 
" style="fill:none;stroke:#bf00bf;stroke-linecap:square;stroke-width:2;"/>
   </g>
   <g id="line2d_137">
    <path clip-path="url(#p1be3250cf8)" d="M 150.830624 144.196941 
L 156.779255 105.150887 
L 150.830624 80.939157 
L 167.826712 80.939157 
L 161.878081 105.150887 
L 167.826712 144.196941 
L 150.830624 144.196941 
" style="fill:none;stroke:#bf00bf;stroke-linecap:square;"/>
   </g>
   <g id="line2d_138">
    <path clip-path="url(#p1be3250cf8)" d="M 150.830624 144.196941 
L 167.826712 144.196941 
L 167.826712 80.939157 
L 150.830624 80.939157 
L 150.830624 144.196941 
" style="fill:none;"/>
    <g clip-path="url(#p1be3250cf8)">
     <use style="fill:#bf00bf;stroke:#bf00bf;" x="150.830624" xlink:href="#md9b93990c5" y="144.196941"/>
     <use style="fill:#bf00bf;stroke:#bf00bf;" x="167.826712" xlink:href="#md9b93990c5" y="144.196941"/>
     <use style="fill:#bf00bf;stroke:#bf00bf;" x="167.826712" xlink:href="#md9b93990c5" y="80.939157"/>
     <use style="fill:#bf00bf;stroke:#bf00bf;" x="150.830624" xlink:href="#md9b93990c5" y="80.939157"/>
     <use style="fill:#bf00bf;stroke:#bf00bf;" x="150.830624" xlink:href="#md9b93990c5" y="144.196941"/>
    </g>
   </g>
   <g id="line2d_139">
    <path clip-path="url(#p1be3250cf8)" d="M 150.830624 105.150887 
L 167.826712 105.150887 
" style="fill:none;stroke:#bf00bf;stroke-linecap:square;stroke-width:2;"/>
   </g>
   <g id="line2d_140">
    <path clip-path="url(#p1be3250cf8)" d="M 36.781228 142.461821 
L 91.009334 107.099561 
" style="fill:none;stroke:#bf00bf;stroke-linecap:square;stroke-width:4;"/>
   </g>
   <g id="line2d_141">
    <path clip-path="url(#p1be3250cf8)" d="M 91.009334 107.099561 
L 159.328668 98.858954 
" style="fill:none;stroke:#bf00bf;stroke-linecap:square;stroke-width:4;"/>
   </g>
   <g id="line2d_142">
    <path clip-path="url(#p1be3250cf8)" d="M 36.781228 142.461821 
L 91.009334 107.099561 
L 159.328668 98.858954 
" style="fill:none;"/>
    <defs>
     <path d="M 0 5 
C 1.326016 5 2.597899 4.473168 3.535534 3.535534 
C 4.473168 2.597899 5 1.326016 5 0 
C 5 -1.326016 4.473168 -2.597899 3.535534 -3.535534 
C 2.597899 -4.473168 1.326016 -5 0 -5 
C -1.326016 -5 -2.597899 -4.473168 -3.535534 -3.535534 
C -4.473168 -2.597899 -5 -1.326016 -5 0 
C -5 1.326016 -4.473168 2.597899 -3.535534 3.535534 
C -2.597899 4.473168 -1.326016 5 0 5 
z
" id="m22e7ec8672" style="stroke:#bf00bf;"/>
    </defs>
    <g clip-path="url(#p1be3250cf8)">
     <use style="fill:#bf00bf;stroke:#bf00bf;" x="36.781228" xlink:href="#m22e7ec8672" y="142.461821"/>
     <use style="fill:#bf00bf;stroke:#bf00bf;" x="91.009334" xlink:href="#m22e7ec8672" y="107.099561"/>
     <use style="fill:#bf00bf;stroke:#bf00bf;" x="159.328668" xlink:href="#m22e7ec8672" y="98.858954"/>
    </g>
   </g>
   <g id="line2d_143">
    <path clip-path="url(#p1be3250cf8)" d="M 27.220928 181.193435 
L 33.913138 155.746013 
L 27.220928 115.169386 
L 46.341527 115.169386 
L 39.649318 155.746013 
L 46.341527 181.193435 
L 27.220928 181.193435 
" style="fill:none;stroke:#ff0000;stroke-linecap:square;"/>
   </g>
   <g id="line2d_144">
    <path clip-path="url(#p1be3250cf8)" d="M 27.220928 181.193435 
L 46.341527 181.193435 
L 46.341527 115.169386 
L 27.220928 115.169386 
L 27.220928 181.193435 
" style="fill:none;"/>
    <defs>
     <path d="M 0 3 
C 0.795609 3 1.55874 2.683901 2.12132 2.12132 
C 2.683901 1.55874 3 0.795609 3 0 
C 3 -0.795609 2.683901 -1.55874 2.12132 -2.12132 
C 1.55874 -2.683901 0.795609 -3 0 -3 
C -0.795609 -3 -1.55874 -2.683901 -2.12132 -2.12132 
C -2.683901 -1.55874 -3 -0.795609 -3 0 
C -3 0.795609 -2.683901 1.55874 -2.12132 2.12132 
C -1.55874 2.683901 -0.795609 3 0 3 
z
" id="m5d67e775d5" style="stroke:#ff0000;stroke-width:2;"/>
    </defs>
    <g clip-path="url(#p1be3250cf8)">
     <use style="fill:#ff0000;stroke:#ff0000;stroke-width:2;" x="27.220928" xlink:href="#m5d67e775d5" y="181.193435"/>
     <use style="fill:#ff0000;stroke:#ff0000;stroke-width:2;" x="46.341527" xlink:href="#m5d67e775d5" y="181.193435"/>
     <use style="fill:#ff0000;stroke:#ff0000;stroke-width:2;" x="46.341527" xlink:href="#m5d67e775d5" y="115.169386"/>
     <use style="fill:#ff0000;stroke:#ff0000;stroke-width:2;" x="27.220928" xlink:href="#m5d67e775d5" y="115.169386"/>
     <use style="fill:#ff0000;stroke:#ff0000;stroke-width:2;" x="27.220928" xlink:href="#m5d67e775d5" y="181.193435"/>
    </g>
   </g>
   <g id="line2d_145">
    <path clip-path="url(#p1be3250cf8)" d="M 27.220928 155.746013 
L 46.341527 155.746013 
" style="fill:none;stroke:#ff0000;stroke-linecap:square;stroke-width:2;"/>
   </g>
   <g id="line2d_146">
    <path clip-path="url(#p1be3250cf8)" d="M 81.449034 154.43707 
L 88.141244 122.081261 
L 81.449034 119.478773 
L 100.569634 119.478773 
L 93.877424 122.081261 
L 100.569634 154.43707 
L 81.449034 154.43707 
" style="fill:none;stroke:#ff0000;stroke-linecap:square;"/>
   </g>
   <g id="line2d_147">
    <path clip-path="url(#p1be3250cf8)" d="M 81.449034 154.43707 
L 100.569634 154.43707 
L 100.569634 119.478773 
L 81.449034 119.478773 
L 81.449034 154.43707 
" style="fill:none;"/>
    <g clip-path="url(#p1be3250cf8)">
     <use style="fill:#ff0000;stroke:#ff0000;stroke-width:2;" x="81.449034" xlink:href="#m5d67e775d5" y="154.43707"/>
     <use style="fill:#ff0000;stroke:#ff0000;stroke-width:2;" x="100.569634" xlink:href="#m5d67e775d5" y="154.43707"/>
     <use style="fill:#ff0000;stroke:#ff0000;stroke-width:2;" x="100.569634" xlink:href="#m5d67e775d5" y="119.478773"/>
     <use style="fill:#ff0000;stroke:#ff0000;stroke-width:2;" x="81.449034" xlink:href="#m5d67e775d5" y="119.478773"/>
     <use style="fill:#ff0000;stroke:#ff0000;stroke-width:2;" x="81.449034" xlink:href="#m5d67e775d5" y="154.43707"/>
    </g>
   </g>
   <g id="line2d_148">
    <path clip-path="url(#p1be3250cf8)" d="M 81.449034 122.081261 
L 100.569634 122.081261 
" style="fill:none;stroke:#ff0000;stroke-linecap:square;stroke-width:2;"/>
   </g>
   <g id="line2d_149">
    <path clip-path="url(#p1be3250cf8)" d="M 149.768368 103.962097 
L 156.460578 86.252596 
L 149.768368 80.162703 
L 168.888968 80.162703 
L 162.196758 86.252596 
L 168.888968 103.962097 
L 149.768368 103.962097 
" style="fill:none;stroke:#ff0000;stroke-linecap:square;"/>
   </g>
   <g id="line2d_150">
    <path clip-path="url(#p1be3250cf8)" d="M 149.768368 103.962097 
L 168.888968 103.962097 
L 168.888968 80.162703 
L 149.768368 80.162703 
L 149.768368 103.962097 
" style="fill:none;"/>
    <g clip-path="url(#p1be3250cf8)">
     <use style="fill:#ff0000;stroke:#ff0000;stroke-width:2;" x="149.768368" xlink:href="#m5d67e775d5" y="103.962097"/>
     <use style="fill:#ff0000;stroke:#ff0000;stroke-width:2;" x="168.888968" xlink:href="#m5d67e775d5" y="103.962097"/>
     <use style="fill:#ff0000;stroke:#ff0000;stroke-width:2;" x="168.888968" xlink:href="#m5d67e775d5" y="80.162703"/>
     <use style="fill:#ff0000;stroke:#ff0000;stroke-width:2;" x="149.768368" xlink:href="#m5d67e775d5" y="80.162703"/>
     <use style="fill:#ff0000;stroke:#ff0000;stroke-width:2;" x="149.768368" xlink:href="#m5d67e775d5" y="103.962097"/>
    </g>
   </g>
   <g id="line2d_151">
    <path clip-path="url(#p1be3250cf8)" d="M 149.768368 86.252596 
L 168.888968 86.252596 
" style="fill:none;stroke:#ff0000;stroke-linecap:square;stroke-width:2;"/>
   </g>
   <g id="line2d_152">
    <path clip-path="url(#p1be3250cf8)" d="M 36.781228 141.680448 
L 91.009334 106.836305 
" style="fill:none;stroke:#ff0000;stroke-linecap:square;stroke-width:4;"/>
   </g>
   <g id="line2d_153">
    <path clip-path="url(#p1be3250cf8)" d="M 91.009334 106.836305 
L 159.328668 86.62947 
" style="fill:none;stroke:#ff0000;stroke-linecap:square;stroke-width:4;"/>
   </g>
   <g id="line2d_154">
    <path clip-path="url(#p1be3250cf8)" d="M 36.781228 141.680448 
L 91.009334 106.836305 
L 159.328668 86.62947 
" style="fill:none;"/>
    <defs>
     <path d="M 0 10 
C 2.652031 10 5.195799 8.946337 7.071068 7.071068 
C 8.946337 5.195799 10 2.652031 10 0 
C 10 -2.652031 8.946337 -5.195799 7.071068 -7.071068 
C 5.195799 -8.946337 2.652031 -10 0 -10 
C -2.652031 -10 -5.195799 -8.946337 -7.071068 -7.071068 
C -8.946337 -5.195799 -10 -2.652031 -10 0 
C -10 2.652031 -8.946337 5.195799 -7.071068 7.071068 
C -5.195799 8.946337 -2.652031 10 0 10 
z
" id="me9e0a18663" style="stroke:#000000;stroke-width:2;"/>
    </defs>
    <g clip-path="url(#p1be3250cf8)">
     <use style="fill:#ff0000;stroke:#000000;stroke-width:2;" x="36.781228" xlink:href="#me9e0a18663" y="141.680448"/>
     <use style="fill:#ff0000;stroke:#000000;stroke-width:2;" x="91.009334" xlink:href="#me9e0a18663" y="106.836305"/>
     <use style="fill:#ff0000;stroke:#000000;stroke-width:2;" x="159.328668" xlink:href="#me9e0a18663" y="86.62947"/>
    </g>
   </g>
   <g id="line2d_155"/>
   <g id="line2d_156"/>
   <g id="line2d_157"/>
   <g id="line2d_158"/>
   <g id="line2d_159"/>
   <g id="line2d_160"/>
   <g id="line2d_161"/>
   <g id="line2d_162">
    <defs>
     <path d="M -10 10 
L 10 -10 
M -10 -10 
L 10 10 
" id="m605b4e93d3" style="stroke:#ff0000;"/>
    </defs>
    <g clip-path="url(#p1be3250cf8)">
     <use style="fill:#ff0000;stroke:#ff0000;" x="36.781228" xlink:href="#m605b4e93d3" y="172.121572"/>
     <use style="fill:#ff0000;stroke:#ff0000;" x="91.009334" xlink:href="#m605b4e93d3" y="155.36353"/>
     <use style="fill:#ff0000;stroke:#ff0000;" x="159.328668" xlink:href="#m605b4e93d3" y="144.077817"/>
     <use style="fill:#ff0000;stroke:#ff0000;" x="252.032228" xlink:href="#m605b4e93d3" y="144.092681"/>
     <use style="fill:#ff0000;stroke:#ff0000;" x="344.735788" xlink:href="#m605b4e93d3" y="144.100116"/>
     <use style="fill:#ff0000;stroke:#ff0000;" x="437.439347" xlink:href="#m605b4e93d3" y="144.103835"/>
    </g>
   </g>
   <g id="line2d_163">
    <path clip-path="url(#p1be3250cf8)" d="M 143.068992 346.6 
L 461.8 275.698015 
" style="fill:none;stroke:#000000;stroke-dasharray:0.5,0.825;stroke-dashoffset:0;stroke-width:0.5;"/>
   </g>
   <g id="line2d_164">
    <path clip-path="url(#p1be3250cf8)" d="M -1 310.143515 
L 461.8 207.19326 
" style="fill:none;stroke:#000000;stroke-dasharray:0.5,0.825;stroke-dashoffset:0;stroke-width:0.5;"/>
   </g>
   <g id="line2d_165">
    <path clip-path="url(#p1be3250cf8)" d="M -1 241.638761 
L 461.8 138.688505 
" style="fill:none;stroke:#000000;stroke-dasharray:0.5,0.825;stroke-dashoffset:0;stroke-width:0.5;"/>
   </g>
   <g id="line2d_166">
    <path clip-path="url(#p1be3250cf8)" d="M -1 173.134006 
L 461.8 70.183751 
" style="fill:none;stroke:#000000;stroke-dasharray:0.5,0.825;stroke-dashoffset:0;stroke-width:0.5;"/>
   </g>
   <g id="line2d_167">
    <path clip-path="url(#p1be3250cf8)" d="M -1 104.629251 
L 461.8 1.678996 
" style="fill:none;stroke:#000000;stroke-dasharray:0.5,0.825;stroke-dashoffset:0;stroke-width:0.5;"/>
   </g>
   <g id="line2d_168">
    <path clip-path="url(#p1be3250cf8)" d="M -1 36.124496 
L 165.888531 -1 
" style="fill:none;stroke:#000000;stroke-dasharray:0.5,0.825;stroke-dashoffset:0;stroke-width:0.5;"/>
   </g>
   <g id="line2d_169">
    <path clip-path="url(#p1be3250cf8)" style="fill:none;stroke:#000000;stroke-dasharray:0.5,0.825;stroke-dashoffset:0;stroke-width:0.5;"/>
   </g>
   <g id="line2d_170">
    <path clip-path="url(#p1be3250cf8)" style="fill:none;stroke:#000000;stroke-dasharray:0.5,0.825;stroke-dashoffset:0;stroke-width:0.5;"/>
   </g>
   <g id="line2d_171">
    <path clip-path="url(#p1be3250cf8)" style="fill:none;stroke:#000000;stroke-dasharray:0.5,0.825;stroke-dashoffset:0;stroke-width:0.5;"/>
   </g>
   <g id="patch_3">
    <path d="M 22.69 315.44 
L 22.69 27.72 
" style="fill:none;stroke:#000000;stroke-linecap:square;stroke-linejoin:miter;stroke-width:0.8;"/>
   </g>
   <g id="patch_4">
    <path d="M 453.192 315.44 
L 453.192 27.72 
" style="fill:none;stroke:#000000;stroke-linecap:square;stroke-linejoin:miter;stroke-width:0.8;"/>
   </g>
   <g id="patch_5">
    <path d="M 22.69 315.44 
L 453.192 315.44 
" style="fill:none;stroke:#000000;stroke-linecap:square;stroke-linejoin:miter;stroke-width:0.8;"/>
   </g>
   <g id="patch_6">
    <path d="M 22.69 27.72 
L 453.192 27.72 
" style="fill:none;stroke:#000000;stroke-linecap:square;stroke-linejoin:miter;stroke-width:0.8;"/>
   </g>
   <g id="text_12">
    <!-- 2 -->
    <g transform="translate(85.601209 91.237748)scale(0.17 -0.17)">
     <use xlink:href="#DejaVuSans-50"/>
    </g>
   </g>
   <g id="text_13">
    <!-- 2 -->
    <g transform="translate(153.920543 71.030912)scale(0.17 -0.17)">
     <use xlink:href="#DejaVuSans-50"/>
    </g>
   </g>
   <g id="text_14">
    <!-- 2 -->
    <g transform="translate(246.624103 70.665744)scale(0.17 -0.17)">
     <use xlink:href="#DejaVuSans-50"/>
    </g>
   </g>
   <g id="text_15">
    <!-- 4 -->
    <g transform="translate(31.373103 126.081891)scale(0.17 -0.17)">
     <use xlink:href="#DejaVuSans-52"/>
    </g>
   </g>
   <g id="text_16">
    <!-- 15 instances -->
    <g transform="translate(22.69 296.8515)scale(0.14 -0.14)">
     <defs>
      <path id="DejaVuSans-32"/>
      <path d="M 9.421875 54.6875 
L 18.40625 54.6875 
L 18.40625 0 
L 9.421875 0 
z
M 9.421875 75.984375 
L 18.40625 75.984375 
L 18.40625 64.59375 
L 9.421875 64.59375 
z
" id="DejaVuSans-105"/>
      <path d="M 54.890625 33.015625 
L 54.890625 0 
L 45.90625 0 
L 45.90625 32.71875 
Q 45.90625 40.484375 42.875 44.328125 
Q 39.84375 48.1875 33.796875 48.1875 
Q 26.515625 48.1875 22.3125 43.546875 
Q 18.109375 38.921875 18.109375 30.90625 
L 18.109375 0 
L 9.078125 0 
L 9.078125 54.6875 
L 18.109375 54.6875 
L 18.109375 46.1875 
Q 21.34375 51.125 25.703125 53.5625 
Q 30.078125 56 35.796875 56 
Q 45.21875 56 50.046875 50.171875 
Q 54.890625 44.34375 54.890625 33.015625 
z
" id="DejaVuSans-110"/>
      <path d="M 44.28125 53.078125 
L 44.28125 44.578125 
Q 40.484375 46.53125 36.375 47.5 
Q 32.28125 48.484375 27.875 48.484375 
Q 21.1875 48.484375 17.84375 46.4375 
Q 14.5 44.390625 14.5 40.28125 
Q 14.5 37.15625 16.890625 35.375 
Q 19.28125 33.59375 26.515625 31.984375 
L 29.59375 31.296875 
Q 39.15625 29.25 43.1875 25.515625 
Q 47.21875 21.78125 47.21875 15.09375 
Q 47.21875 7.46875 41.1875 3.015625 
Q 35.15625 -1.421875 24.609375 -1.421875 
Q 20.21875 -1.421875 15.453125 -0.5625 
Q 10.6875 0.296875 5.421875 2 
L 5.421875 11.28125 
Q 10.40625 8.6875 15.234375 7.390625 
Q 20.0625 6.109375 24.8125 6.109375 
Q 31.15625 6.109375 34.5625 8.28125 
Q 37.984375 10.453125 37.984375 14.40625 
Q 37.984375 18.0625 35.515625 20.015625 
Q 33.0625 21.96875 24.703125 23.78125 
L 21.578125 24.515625 
Q 13.234375 26.265625 9.515625 29.90625 
Q 5.8125 33.546875 5.8125 39.890625 
Q 5.8125 47.609375 11.28125 51.796875 
Q 16.75 56 26.8125 56 
Q 31.78125 56 36.171875 55.265625 
Q 40.578125 54.546875 44.28125 53.078125 
z
" id="DejaVuSans-115"/>
      <path d="M 18.3125 70.21875 
L 18.3125 54.6875 
L 36.8125 54.6875 
L 36.8125 47.703125 
L 18.3125 47.703125 
L 18.3125 18.015625 
Q 18.3125 11.328125 20.140625 9.421875 
Q 21.96875 7.515625 27.59375 7.515625 
L 36.8125 7.515625 
L 36.8125 0 
L 27.59375 0 
Q 17.1875 0 13.234375 3.875 
Q 9.28125 7.765625 9.28125 18.015625 
L 9.28125 47.703125 
L 2.6875 47.703125 
L 2.6875 54.6875 
L 9.28125 54.6875 
L 9.28125 70.21875 
z
" id="DejaVuSans-116"/>
      <path d="M 34.28125 27.484375 
Q 23.390625 27.484375 19.1875 25 
Q 14.984375 22.515625 14.984375 16.5 
Q 14.984375 11.71875 18.140625 8.90625 
Q 21.296875 6.109375 26.703125 6.109375 
Q 34.1875 6.109375 38.703125 11.40625 
Q 43.21875 16.703125 43.21875 25.484375 
L 43.21875 27.484375 
z
M 52.203125 31.203125 
L 52.203125 0 
L 43.21875 0 
L 43.21875 8.296875 
Q 40.140625 3.328125 35.546875 0.953125 
Q 30.953125 -1.421875 24.3125 -1.421875 
Q 15.921875 -1.421875 10.953125 3.296875 
Q 6 8.015625 6 15.921875 
Q 6 25.140625 12.171875 29.828125 
Q 18.359375 34.515625 30.609375 34.515625 
L 43.21875 34.515625 
L 43.21875 35.40625 
Q 43.21875 41.609375 39.140625 45 
Q 35.0625 48.390625 27.6875 48.390625 
Q 23 48.390625 18.546875 47.265625 
Q 14.109375 46.140625 10.015625 43.890625 
L 10.015625 52.203125 
Q 14.9375 54.109375 19.578125 55.046875 
Q 24.21875 56 28.609375 56 
Q 40.484375 56 46.34375 49.84375 
Q 52.203125 43.703125 52.203125 31.203125 
z
" id="DejaVuSans-97"/>
      <path d="M 48.78125 52.59375 
L 48.78125 44.1875 
Q 44.96875 46.296875 41.140625 47.34375 
Q 37.3125 48.390625 33.40625 48.390625 
Q 24.65625 48.390625 19.8125 42.84375 
Q 14.984375 37.3125 14.984375 27.296875 
Q 14.984375 17.28125 19.8125 11.734375 
Q 24.65625 6.203125 33.40625 6.203125 
Q 37.3125 6.203125 41.140625 7.25 
Q 44.96875 8.296875 48.78125 10.40625 
L 48.78125 2.09375 
Q 45.015625 0.34375 40.984375 -0.53125 
Q 36.96875 -1.421875 32.421875 -1.421875 
Q 20.0625 -1.421875 12.78125 6.34375 
Q 5.515625 14.109375 5.515625 27.296875 
Q 5.515625 40.671875 12.859375 48.328125 
Q 20.21875 56 33.015625 56 
Q 37.15625 56 41.109375 55.140625 
Q 45.0625 54.296875 48.78125 52.59375 
z
" id="DejaVuSans-99"/>
      <path d="M 56.203125 29.59375 
L 56.203125 25.203125 
L 14.890625 25.203125 
Q 15.484375 15.921875 20.484375 11.0625 
Q 25.484375 6.203125 34.421875 6.203125 
Q 39.59375 6.203125 44.453125 7.46875 
Q 49.3125 8.734375 54.109375 11.28125 
L 54.109375 2.78125 
Q 49.265625 0.734375 44.1875 -0.34375 
Q 39.109375 -1.421875 33.890625 -1.421875 
Q 20.796875 -1.421875 13.15625 6.1875 
Q 5.515625 13.8125 5.515625 26.8125 
Q 5.515625 40.234375 12.765625 48.109375 
Q 20.015625 56 32.328125 56 
Q 43.359375 56 49.78125 48.890625 
Q 56.203125 41.796875 56.203125 29.59375 
z
M 47.21875 32.234375 
Q 47.125 39.59375 43.09375 43.984375 
Q 39.0625 48.390625 32.421875 48.390625 
Q 24.90625 48.390625 20.390625 44.140625 
Q 15.875 39.890625 15.1875 32.171875 
z
" id="DejaVuSans-101"/>
     </defs>
     <use xlink:href="#DejaVuSans-49"/>
     <use x="63.623047" xlink:href="#DejaVuSans-53"/>
     <use x="127.246094" xlink:href="#DejaVuSans-32"/>
     <use x="159.033203" xlink:href="#DejaVuSans-105"/>
     <use x="186.816406" xlink:href="#DejaVuSans-110"/>
     <use x="250.195312" xlink:href="#DejaVuSans-115"/>
     <use x="302.294922" xlink:href="#DejaVuSans-116"/>
     <use x="341.503906" xlink:href="#DejaVuSans-97"/>
     <use x="402.783203" xlink:href="#DejaVuSans-110"/>
     <use x="466.162109" xlink:href="#DejaVuSans-99"/>
     <use x="521.142578" xlink:href="#DejaVuSans-101"/>
     <use x="582.666016" xlink:href="#DejaVuSans-115"/>
    </g>
    <!-- absolute targets -->
    <g transform="translate(22.69 312.528437)scale(0.14 -0.14)">
     <defs>
      <path d="M 48.6875 27.296875 
Q 48.6875 37.203125 44.609375 42.84375 
Q 40.53125 48.484375 33.40625 48.484375 
Q 26.265625 48.484375 22.1875 42.84375 
Q 18.109375 37.203125 18.109375 27.296875 
Q 18.109375 17.390625 22.1875 11.75 
Q 26.265625 6.109375 33.40625 6.109375 
Q 40.53125 6.109375 44.609375 11.75 
Q 48.6875 17.390625 48.6875 27.296875 
z
M 18.109375 46.390625 
Q 20.953125 51.265625 25.265625 53.625 
Q 29.59375 56 35.59375 56 
Q 45.5625 56 51.78125 48.09375 
Q 58.015625 40.1875 58.015625 27.296875 
Q 58.015625 14.40625 51.78125 6.484375 
Q 45.5625 -1.421875 35.59375 -1.421875 
Q 29.59375 -1.421875 25.265625 0.953125 
Q 20.953125 3.328125 18.109375 8.203125 
L 18.109375 0 
L 9.078125 0 
L 9.078125 75.984375 
L 18.109375 75.984375 
z
" id="DejaVuSans-98"/>
      <path d="M 30.609375 48.390625 
Q 23.390625 48.390625 19.1875 42.75 
Q 14.984375 37.109375 14.984375 27.296875 
Q 14.984375 17.484375 19.15625 11.84375 
Q 23.34375 6.203125 30.609375 6.203125 
Q 37.796875 6.203125 41.984375 11.859375 
Q 46.1875 17.53125 46.1875 27.296875 
Q 46.1875 37.015625 41.984375 42.703125 
Q 37.796875 48.390625 30.609375 48.390625 
z
M 30.609375 56 
Q 42.328125 56 49.015625 48.375 
Q 55.71875 40.765625 55.71875 27.296875 
Q 55.71875 13.875 49.015625 6.21875 
Q 42.328125 -1.421875 30.609375 -1.421875 
Q 18.84375 -1.421875 12.171875 6.21875 
Q 5.515625 13.875 5.515625 27.296875 
Q 5.515625 40.765625 12.171875 48.375 
Q 18.84375 56 30.609375 56 
z
" id="DejaVuSans-111"/>
      <path d="M 9.421875 75.984375 
L 18.40625 75.984375 
L 18.40625 0 
L 9.421875 0 
z
" id="DejaVuSans-108"/>
      <path d="M 8.5 21.578125 
L 8.5 54.6875 
L 17.484375 54.6875 
L 17.484375 21.921875 
Q 17.484375 14.15625 20.5 10.265625 
Q 23.53125 6.390625 29.59375 6.390625 
Q 36.859375 6.390625 41.078125 11.03125 
Q 45.3125 15.671875 45.3125 23.6875 
L 45.3125 54.6875 
L 54.296875 54.6875 
L 54.296875 0 
L 45.3125 0 
L 45.3125 8.40625 
Q 42.046875 3.421875 37.71875 1 
Q 33.40625 -1.421875 27.6875 -1.421875 
Q 18.265625 -1.421875 13.375 4.4375 
Q 8.5 10.296875 8.5 21.578125 
z
M 31.109375 56 
z
" id="DejaVuSans-117"/>
      <path d="M 41.109375 46.296875 
Q 39.59375 47.171875 37.8125 47.578125 
Q 36.03125 48 33.890625 48 
Q 26.265625 48 22.1875 43.046875 
Q 18.109375 38.09375 18.109375 28.8125 
L 18.109375 0 
L 9.078125 0 
L 9.078125 54.6875 
L 18.109375 54.6875 
L 18.109375 46.1875 
Q 20.953125 51.171875 25.484375 53.578125 
Q 30.03125 56 36.53125 56 
Q 37.453125 56 38.578125 55.875 
Q 39.703125 55.765625 41.0625 55.515625 
z
" id="DejaVuSans-114"/>
      <path d="M 45.40625 27.984375 
Q 45.40625 37.75 41.375 43.109375 
Q 37.359375 48.484375 30.078125 48.484375 
Q 22.859375 48.484375 18.828125 43.109375 
Q 14.796875 37.75 14.796875 27.984375 
Q 14.796875 18.265625 18.828125 12.890625 
Q 22.859375 7.515625 30.078125 7.515625 
Q 37.359375 7.515625 41.375 12.890625 
Q 45.40625 18.265625 45.40625 27.984375 
z
M 54.390625 6.78125 
Q 54.390625 -7.171875 48.1875 -13.984375 
Q 42 -20.796875 29.203125 -20.796875 
Q 24.46875 -20.796875 20.265625 -20.09375 
Q 16.0625 -19.390625 12.109375 -17.921875 
L 12.109375 -9.1875 
Q 16.0625 -11.328125 19.921875 -12.34375 
Q 23.78125 -13.375 27.78125 -13.375 
Q 36.625 -13.375 41.015625 -8.765625 
Q 45.40625 -4.15625 45.40625 5.171875 
L 45.40625 9.625 
Q 42.625 4.78125 38.28125 2.390625 
Q 33.9375 0 27.875 0 
Q 17.828125 0 11.671875 7.65625 
Q 5.515625 15.328125 5.515625 27.984375 
Q 5.515625 40.671875 11.671875 48.328125 
Q 17.828125 56 27.875 56 
Q 33.9375 56 38.28125 53.609375 
Q 42.625 51.21875 45.40625 46.390625 
L 45.40625 54.6875 
L 54.390625 54.6875 
z
" id="DejaVuSans-103"/>
     </defs>
     <use xlink:href="#DejaVuSans-97"/>
     <use x="61.279297" xlink:href="#DejaVuSans-98"/>
     <use x="124.755859" xlink:href="#DejaVuSans-115"/>
     <use x="176.855469" xlink:href="#DejaVuSans-111"/>
     <use x="238.037109" xlink:href="#DejaVuSans-108"/>
     <use x="265.820312" xlink:href="#DejaVuSans-117"/>
     <use x="329.199219" xlink:href="#DejaVuSans-116"/>
     <use x="368.408203" xlink:href="#DejaVuSans-101"/>
     <use x="429.931641" xlink:href="#DejaVuSans-32"/>
     <use x="461.71875" xlink:href="#DejaVuSans-116"/>
     <use x="500.927734" xlink:href="#DejaVuSans-97"/>
     <use x="562.207031" xlink:href="#DejaVuSans-114"/>
     <use x="601.570312" xlink:href="#DejaVuSans-103"/>
     <use x="665.046875" xlink:href="#DejaVuSans-101"/>
     <use x="726.570312" xlink:href="#DejaVuSans-116"/>
     <use x="765.779297" xlink:href="#DejaVuSans-115"/>
    </g>
   </g>
   <g id="text_17">
    <!-- v2.4 -->
    <g style="fill:#808080;" transform="translate(227.030063 310.483113)scale(0.1 -0.1)">
     <defs>
      <path d="M 2.984375 54.6875 
L 12.5 54.6875 
L 29.59375 8.796875 
L 46.6875 54.6875 
L 56.203125 54.6875 
L 35.6875 0 
L 23.484375 0 
z
" id="DejaVuSans-118"/>
      <path d="M 10.6875 12.40625 
L 21 12.40625 
L 21 0 
L 10.6875 0 
z
" id="DejaVuSans-46"/>
     </defs>
     <use xlink:href="#DejaVuSans-118"/>
     <use x="59.179688" xlink:href="#DejaVuSans-50"/>
     <use x="122.802734" xlink:href="#DejaVuSans-46"/>
     <use x="154.589844" xlink:href="#DejaVuSans-52"/>
    </g>
   </g>
   <g id="text_18">
    <!-- 21 Gallagher 101 peaks -->
    <g transform="translate(94.556 21.72)scale(0.24 -0.24)">
     <defs>
      <path d="M 59.515625 10.40625 
L 59.515625 29.984375 
L 43.40625 29.984375 
L 43.40625 38.09375 
L 69.28125 38.09375 
L 69.28125 6.78125 
Q 63.578125 2.734375 56.6875 0.65625 
Q 49.8125 -1.421875 42 -1.421875 
Q 24.90625 -1.421875 15.25 8.5625 
Q 5.609375 18.5625 5.609375 36.375 
Q 5.609375 54.25 15.25 64.234375 
Q 24.90625 74.21875 42 74.21875 
Q 49.125 74.21875 55.546875 72.453125 
Q 61.96875 70.703125 67.390625 67.28125 
L 67.390625 56.78125 
Q 61.921875 61.421875 55.765625 63.765625 
Q 49.609375 66.109375 42.828125 66.109375 
Q 29.4375 66.109375 22.71875 58.640625 
Q 16.015625 51.171875 16.015625 36.375 
Q 16.015625 21.625 22.71875 14.15625 
Q 29.4375 6.6875 42.828125 6.6875 
Q 48.046875 6.6875 52.140625 7.59375 
Q 56.25 8.5 59.515625 10.40625 
z
" id="DejaVuSans-71"/>
      <path d="M 54.890625 33.015625 
L 54.890625 0 
L 45.90625 0 
L 45.90625 32.71875 
Q 45.90625 40.484375 42.875 44.328125 
Q 39.84375 48.1875 33.796875 48.1875 
Q 26.515625 48.1875 22.3125 43.546875 
Q 18.109375 38.921875 18.109375 30.90625 
L 18.109375 0 
L 9.078125 0 
L 9.078125 75.984375 
L 18.109375 75.984375 
L 18.109375 46.1875 
Q 21.34375 51.125 25.703125 53.5625 
Q 30.078125 56 35.796875 56 
Q 45.21875 56 50.046875 50.171875 
Q 54.890625 44.34375 54.890625 33.015625 
z
" id="DejaVuSans-104"/>
      <path d="M 18.109375 8.203125 
L 18.109375 -20.796875 
L 9.078125 -20.796875 
L 9.078125 54.6875 
L 18.109375 54.6875 
L 18.109375 46.390625 
Q 20.953125 51.265625 25.265625 53.625 
Q 29.59375 56 35.59375 56 
Q 45.5625 56 51.78125 48.09375 
Q 58.015625 40.1875 58.015625 27.296875 
Q 58.015625 14.40625 51.78125 6.484375 
Q 45.5625 -1.421875 35.59375 -1.421875 
Q 29.59375 -1.421875 25.265625 0.953125 
Q 20.953125 3.328125 18.109375 8.203125 
z
M 48.6875 27.296875 
Q 48.6875 37.203125 44.609375 42.84375 
Q 40.53125 48.484375 33.40625 48.484375 
Q 26.265625 48.484375 22.1875 42.84375 
Q 18.109375 37.203125 18.109375 27.296875 
Q 18.109375 17.390625 22.1875 11.75 
Q 26.265625 6.109375 33.40625 6.109375 
Q 40.53125 6.109375 44.609375 11.75 
Q 48.6875 17.390625 48.6875 27.296875 
z
" id="DejaVuSans-112"/>
      <path d="M 9.078125 75.984375 
L 18.109375 75.984375 
L 18.109375 31.109375 
L 44.921875 54.6875 
L 56.390625 54.6875 
L 27.390625 29.109375 
L 57.625 0 
L 45.90625 0 
L 18.109375 26.703125 
L 18.109375 0 
L 9.078125 0 
z
" id="DejaVuSans-107"/>
     </defs>
     <use xlink:href="#DejaVuSans-50"/>
     <use x="63.623047" xlink:href="#DejaVuSans-49"/>
     <use x="127.246094" xlink:href="#DejaVuSans-32"/>
     <use x="159.033203" xlink:href="#DejaVuSans-71"/>
     <use x="236.523438" xlink:href="#DejaVuSans-97"/>
     <use x="297.802734" xlink:href="#DejaVuSans-108"/>
     <use x="325.585938" xlink:href="#DejaVuSans-108"/>
     <use x="353.369141" xlink:href="#DejaVuSans-97"/>
     <use x="414.648438" xlink:href="#DejaVuSans-103"/>
     <use x="478.125" xlink:href="#DejaVuSans-104"/>
     <use x="541.503906" xlink:href="#DejaVuSans-101"/>
     <use x="603.027344" xlink:href="#DejaVuSans-114"/>
     <use x="644.140625" xlink:href="#DejaVuSans-32"/>
     <use x="675.927734" xlink:href="#DejaVuSans-49"/>
     <use x="739.550781" xlink:href="#DejaVuSans-48"/>
     <use x="803.173828" xlink:href="#DejaVuSans-49"/>
     <use x="866.796875" xlink:href="#DejaVuSans-32"/>
     <use x="898.583984" xlink:href="#DejaVuSans-112"/>
     <use x="962.060547" xlink:href="#DejaVuSans-101"/>
     <use x="1023.583984" xlink:href="#DejaVuSans-97"/>
     <use x="1084.863281" xlink:href="#DejaVuSans-107"/>
     <use x="1142.773438" xlink:href="#DejaVuSans-115"/>
    </g>
   </g>
  </g>
 </g>
 <defs>
  <clipPath id="p1be3250cf8">
   <rect height="287.72" width="430.502" x="22.69" y="27.72"/>
  </clipPath>
 </defs>
</svg>
