<?xml version="1.0" encoding="utf-8" standalone="no"?>
<!DOCTYPE svg PUBLIC "-//W3C//DTD SVG 1.1//EN"
  "http://www.w3.org/Graphics/SVG/1.1/DTD/svg11.dtd">
<!-- Created with matplotlib (https://matplotlib.org/) -->
<svg height="345.6pt" version="1.1" viewBox="0 0 460.8 345.6" width="460.8pt" xmlns="http://www.w3.org/2000/svg" xmlns:xlink="http://www.w3.org/1999/xlink">
 <metadata>
  <rdf:RDF xmlns:cc="http://creativecommons.org/ns#" xmlns:dc="http://purl.org/dc/elements/1.1/" xmlns:rdf="http://www.w3.org/1999/02/22-rdf-syntax-ns#">
   <cc:Work>
    <dc:type rdf:resource="http://purl.org/dc/dcmitype/StillImage"/>
    <dc:date>2021-08-04T10:25:51.379016</dc:date>
    <dc:format>image/svg+xml</dc:format>
    <dc:creator>
     <cc:Agent>
      <dc:title>Matplotlib v3.3.1, https://matplotlib.org/</dc:title>
     </cc:Agent>
    </dc:creator>
   </cc:Work>
  </rdf:RDF>
 </metadata>
 <defs>
  <style type="text/css">*{stroke-linecap:butt;stroke-linejoin:round;}</style>
 </defs>
 <g id="figure_1">
  <g id="patch_1">
   <path d="M 0 345.6 
L 460.8 345.6 
L 460.8 0 
L 0 0 
z
" style="fill:#ffffff;"/>
  </g>
  <g id="axes_1">
   <g id="patch_2">
    <path d="M 0 293.76 
L 460.8 293.76 
L 460.8 3.456 
L 0 3.456 
z
" style="fill:#ffffff;"/>
   </g>
   <g id="matplotlib.axis_1">
    <g id="xtick_1">
     <g id="line2d_1">
      <path clip-path="url(#p4713c9c2b5)" d="M 106.133038 293.76 
L 106.133038 3.456 
" style="fill:none;stroke:#b0b0b0;stroke-linecap:square;stroke-width:0.8;"/>
     </g>
     <g id="line2d_2">
      <defs>
       <path d="M 0 0 
L 0 3.5 
" id="mc9e3117dca" style="stroke:#000000;stroke-width:0.8;"/>
      </defs>
      <g>
       <use style="stroke:#000000;stroke-width:0.8;" x="106.133038" xlink:href="#mc9e3117dca" y="293.76"/>
      </g>
     </g>
     <g id="text_1">
      <!-- -4 -->
      <g transform="translate(96.162726 315.956875)scale(0.2 -0.2)">
       <defs>
        <path d="M 4.890625 31.390625 
L 31.203125 31.390625 
L 31.203125 23.390625 
L 4.890625 23.390625 
z
" id="DejaVuSans-45"/>
        <path d="M 37.796875 64.3125 
L 12.890625 25.390625 
L 37.796875 25.390625 
z
M 35.203125 72.90625 
L 47.609375 72.90625 
L 47.609375 25.390625 
L 58.015625 25.390625 
L 58.015625 17.1875 
L 47.609375 17.1875 
L 47.609375 0 
L 37.796875 0 
L 37.796875 17.1875 
L 4.890625 17.1875 
L 4.890625 26.703125 
z
" id="DejaVuSans-52"/>
       </defs>
       <use xlink:href="#DejaVuSans-45"/>
       <use x="36.083984" xlink:href="#DejaVuSans-52"/>
      </g>
     </g>
    </g>
    <g id="xtick_2">
     <g id="line2d_3">
      <path clip-path="url(#p4713c9c2b5)" d="M 212.380861 293.76 
L 212.380861 3.456 
" style="fill:none;stroke:#b0b0b0;stroke-linecap:square;stroke-width:0.8;"/>
     </g>
     <g id="line2d_4">
      <g>
       <use style="stroke:#000000;stroke-width:0.8;" x="212.380861" xlink:href="#mc9e3117dca" y="293.76"/>
      </g>
     </g>
     <g id="text_2">
      <!-- 0 -->
      <g transform="translate(206.018361 315.956875)scale(0.2 -0.2)">
       <defs>
        <path d="M 31.78125 66.40625 
Q 24.171875 66.40625 20.328125 58.90625 
Q 16.5 51.421875 16.5 36.375 
Q 16.5 21.390625 20.328125 13.890625 
Q 24.171875 6.390625 31.78125 6.390625 
Q 39.453125 6.390625 43.28125 13.890625 
Q 47.125 21.390625 47.125 36.375 
Q 47.125 51.421875 43.28125 58.90625 
Q 39.453125 66.40625 31.78125 66.40625 
z
M 31.78125 74.21875 
Q 44.046875 74.21875 50.515625 64.515625 
Q 56.984375 54.828125 56.984375 36.375 
Q 56.984375 17.96875 50.515625 8.265625 
Q 44.046875 -1.421875 31.78125 -1.421875 
Q 19.53125 -1.421875 13.0625 8.265625 
Q 6.59375 17.96875 6.59375 36.375 
Q 6.59375 54.828125 13.0625 64.515625 
Q 19.53125 74.21875 31.78125 74.21875 
z
" id="DejaVuSans-48"/>
       </defs>
       <use xlink:href="#DejaVuSans-48"/>
      </g>
     </g>
    </g>
    <g id="xtick_3">
     <g id="line2d_5">
      <path clip-path="url(#p4713c9c2b5)" d="M 318.628683 293.76 
L 318.628683 3.456 
" style="fill:none;stroke:#b0b0b0;stroke-linecap:square;stroke-width:0.8;"/>
     </g>
     <g id="line2d_6">
      <g>
       <use style="stroke:#000000;stroke-width:0.8;" x="318.628683" xlink:href="#mc9e3117dca" y="293.76"/>
      </g>
     </g>
     <g id="text_3">
      <!-- 4 -->
      <g transform="translate(312.266183 315.956875)scale(0.2 -0.2)">
       <use xlink:href="#DejaVuSans-52"/>
      </g>
     </g>
    </g>
    <g id="xtick_4">
     <g id="line2d_7">
      <path clip-path="url(#p4713c9c2b5)" d="M 424.876506 293.76 
L 424.876506 3.456 
" style="fill:none;stroke:#b0b0b0;stroke-linecap:square;stroke-width:0.8;"/>
     </g>
     <g id="line2d_8">
      <g>
       <use style="stroke:#000000;stroke-width:0.8;" x="424.876506" xlink:href="#mc9e3117dca" y="293.76"/>
      </g>
     </g>
     <g id="text_4">
      <!-- 8 -->
      <g transform="translate(418.514006 315.956875)scale(0.2 -0.2)">
       <defs>
        <path d="M 31.78125 34.625 
Q 24.75 34.625 20.71875 30.859375 
Q 16.703125 27.09375 16.703125 20.515625 
Q 16.703125 13.921875 20.71875 10.15625 
Q 24.75 6.390625 31.78125 6.390625 
Q 38.8125 6.390625 42.859375 10.171875 
Q 46.921875 13.96875 46.921875 20.515625 
Q 46.921875 27.09375 42.890625 30.859375 
Q 38.875 34.625 31.78125 34.625 
z
M 21.921875 38.8125 
Q 15.578125 40.375 12.03125 44.71875 
Q 8.5 49.078125 8.5 55.328125 
Q 8.5 64.0625 14.71875 69.140625 
Q 20.953125 74.21875 31.78125 74.21875 
Q 42.671875 74.21875 48.875 69.140625 
Q 55.078125 64.0625 55.078125 55.328125 
Q 55.078125 49.078125 51.53125 44.71875 
Q 48 40.375 41.703125 38.8125 
Q 48.828125 37.15625 52.796875 32.3125 
Q 56.78125 27.484375 56.78125 20.515625 
Q 56.78125 9.90625 50.3125 4.234375 
Q 43.84375 -1.421875 31.78125 -1.421875 
Q 19.734375 -1.421875 13.25 4.234375 
Q 6.78125 9.90625 6.78125 20.515625 
Q 6.78125 27.484375 10.78125 32.3125 
Q 14.796875 37.15625 21.921875 38.8125 
z
M 18.3125 54.390625 
Q 18.3125 48.734375 21.84375 45.5625 
Q 25.390625 42.390625 31.78125 42.390625 
Q 38.140625 42.390625 41.71875 45.5625 
Q 45.3125 48.734375 45.3125 54.390625 
Q 45.3125 60.0625 41.71875 63.234375 
Q 38.140625 66.40625 31.78125 66.40625 
Q 25.390625 66.40625 21.84375 63.234375 
Q 18.3125 60.0625 18.3125 54.390625 
z
" id="DejaVuSans-56"/>
       </defs>
       <use xlink:href="#DejaVuSans-56"/>
      </g>
     </g>
    </g>
    <g id="text_5">
     <!-- log10 of Df -->
     <g transform="translate(175.214063 339.313125)scale(0.2 -0.2)">
      <defs>
       <path d="M 9.421875 75.984375 
L 18.40625 75.984375 
L 18.40625 0 
L 9.421875 0 
z
" id="DejaVuSans-108"/>
       <path d="M 30.609375 48.390625 
Q 23.390625 48.390625 19.1875 42.75 
Q 14.984375 37.109375 14.984375 27.296875 
Q 14.984375 17.484375 19.15625 11.84375 
Q 23.34375 6.203125 30.609375 6.203125 
Q 37.796875 6.203125 41.984375 11.859375 
Q 46.1875 17.53125 46.1875 27.296875 
Q 46.1875 37.015625 41.984375 42.703125 
Q 37.796875 48.390625 30.609375 48.390625 
z
M 30.609375 56 
Q 42.328125 56 49.015625 48.375 
Q 55.71875 40.765625 55.71875 27.296875 
Q 55.71875 13.875 49.015625 6.21875 
Q 42.328125 -1.421875 30.609375 -1.421875 
Q 18.84375 -1.421875 12.171875 6.21875 
Q 5.515625 13.875 5.515625 27.296875 
Q 5.515625 40.765625 12.171875 48.375 
Q 18.84375 56 30.609375 56 
z
" id="DejaVuSans-111"/>
       <path d="M 45.40625 27.984375 
Q 45.40625 37.75 41.375 43.109375 
Q 37.359375 48.484375 30.078125 48.484375 
Q 22.859375 48.484375 18.828125 43.109375 
Q 14.796875 37.75 14.796875 27.984375 
Q 14.796875 18.265625 18.828125 12.890625 
Q 22.859375 7.515625 30.078125 7.515625 
Q 37.359375 7.515625 41.375 12.890625 
Q 45.40625 18.265625 45.40625 27.984375 
z
M 54.390625 6.78125 
Q 54.390625 -7.171875 48.1875 -13.984375 
Q 42 -20.796875 29.203125 -20.796875 
Q 24.46875 -20.796875 20.265625 -20.09375 
Q 16.0625 -19.390625 12.109375 -17.921875 
L 12.109375 -9.1875 
Q 16.0625 -11.328125 19.921875 -12.34375 
Q 23.78125 -13.375 27.78125 -13.375 
Q 36.625 -13.375 41.015625 -8.765625 
Q 45.40625 -4.15625 45.40625 5.171875 
L 45.40625 9.625 
Q 42.625 4.78125 38.28125 2.390625 
Q 33.9375 0 27.875 0 
Q 17.828125 0 11.671875 7.65625 
Q 5.515625 15.328125 5.515625 27.984375 
Q 5.515625 40.671875 11.671875 48.328125 
Q 17.828125 56 27.875 56 
Q 33.9375 56 38.28125 53.609375 
Q 42.625 51.21875 45.40625 46.390625 
L 45.40625 54.6875 
L 54.390625 54.6875 
z
" id="DejaVuSans-103"/>
       <path d="M 12.40625 8.296875 
L 28.515625 8.296875 
L 28.515625 63.921875 
L 10.984375 60.40625 
L 10.984375 69.390625 
L 28.421875 72.90625 
L 38.28125 72.90625 
L 38.28125 8.296875 
L 54.390625 8.296875 
L 54.390625 0 
L 12.40625 0 
z
" id="DejaVuSans-49"/>
       <path id="DejaVuSans-32"/>
       <path d="M 37.109375 75.984375 
L 37.109375 68.5 
L 28.515625 68.5 
Q 23.6875 68.5 21.796875 66.546875 
Q 19.921875 64.59375 19.921875 59.515625 
L 19.921875 54.6875 
L 34.71875 54.6875 
L 34.71875 47.703125 
L 19.921875 47.703125 
L 19.921875 0 
L 10.890625 0 
L 10.890625 47.703125 
L 2.296875 47.703125 
L 2.296875 54.6875 
L 10.890625 54.6875 
L 10.890625 58.5 
Q 10.890625 67.625 15.140625 71.796875 
Q 19.390625 75.984375 28.609375 75.984375 
z
" id="DejaVuSans-102"/>
       <path d="M 19.671875 64.796875 
L 19.671875 8.109375 
L 31.59375 8.109375 
Q 46.6875 8.109375 53.6875 14.9375 
Q 60.6875 21.78125 60.6875 36.53125 
Q 60.6875 51.171875 53.6875 57.984375 
Q 46.6875 64.796875 31.59375 64.796875 
z
M 9.8125 72.90625 
L 30.078125 72.90625 
Q 51.265625 72.90625 61.171875 64.09375 
Q 71.09375 55.28125 71.09375 36.53125 
Q 71.09375 17.671875 61.125 8.828125 
Q 51.171875 0 30.078125 0 
L 9.8125 0 
z
" id="DejaVuSans-68"/>
      </defs>
      <use xlink:href="#DejaVuSans-108"/>
      <use x="27.783203" xlink:href="#DejaVuSans-111"/>
      <use x="88.964844" xlink:href="#DejaVuSans-103"/>
      <use x="152.441406" xlink:href="#DejaVuSans-49"/>
      <use x="216.064453" xlink:href="#DejaVuSans-48"/>
      <use x="279.6875" xlink:href="#DejaVuSans-32"/>
      <use x="311.474609" xlink:href="#DejaVuSans-111"/>
      <use x="372.65625" xlink:href="#DejaVuSans-102"/>
      <use x="407.861328" xlink:href="#DejaVuSans-32"/>
      <use x="439.648438" xlink:href="#DejaVuSans-68"/>
      <use x="516.650391" xlink:href="#DejaVuSans-102"/>
     </g>
    </g>
   </g>
   <g id="matplotlib.axis_2">
    <g id="ytick_1">
     <g id="line2d_9">
      <path clip-path="url(#p4713c9c2b5)" d="M 0 293.76 
L 460.8 293.76 
" style="fill:none;stroke:#b0b0b0;stroke-linecap:square;stroke-width:0.8;"/>
     </g>
     <g id="line2d_10">
      <defs>
       <path d="M 0 0 
L -3.5 0 
" id="m3ca9201725" style="stroke:#000000;stroke-width:0.8;"/>
      </defs>
      <g>
       <use style="stroke:#000000;stroke-width:0.8;" x="0" xlink:href="#m3ca9201725" y="293.76"/>
      </g>
     </g>
    </g>
    <g id="ytick_2">
     <g id="line2d_11">
      <path clip-path="url(#p4713c9c2b5)" d="M 0 236.274059 
L 460.8 236.274059 
" style="fill:none;stroke:#b0b0b0;stroke-linecap:square;stroke-width:0.8;"/>
     </g>
     <g id="line2d_12">
      <g>
       <use style="stroke:#000000;stroke-width:0.8;" x="0" xlink:href="#m3ca9201725" y="236.274059"/>
      </g>
     </g>
    </g>
    <g id="ytick_3">
     <g id="line2d_13">
      <path clip-path="url(#p4713c9c2b5)" d="M 0 178.788119 
L 460.8 178.788119 
" style="fill:none;stroke:#b0b0b0;stroke-linecap:square;stroke-width:0.8;"/>
     </g>
     <g id="line2d_14">
      <g>
       <use style="stroke:#000000;stroke-width:0.8;" x="0" xlink:href="#m3ca9201725" y="178.788119"/>
      </g>
     </g>
    </g>
    <g id="ytick_4">
     <g id="line2d_15">
      <path clip-path="url(#p4713c9c2b5)" d="M 0 121.302178 
L 460.8 121.302178 
" style="fill:none;stroke:#b0b0b0;stroke-linecap:square;stroke-width:0.8;"/>
     </g>
     <g id="line2d_16">
      <g>
       <use style="stroke:#000000;stroke-width:0.8;" x="0" xlink:href="#m3ca9201725" y="121.302178"/>
      </g>
     </g>
    </g>
    <g id="ytick_5">
     <g id="line2d_17">
      <path clip-path="url(#p4713c9c2b5)" d="M 0 63.816238 
L 460.8 63.816238 
" style="fill:none;stroke:#b0b0b0;stroke-linecap:square;stroke-width:0.8;"/>
     </g>
     <g id="line2d_18">
      <g>
       <use style="stroke:#000000;stroke-width:0.8;" x="0" xlink:href="#m3ca9201725" y="63.816238"/>
      </g>
     </g>
    </g>
    <g id="ytick_6">
     <g id="line2d_19">
      <path clip-path="url(#p4713c9c2b5)" d="M 0 6.330297 
L 460.8 6.330297 
" style="fill:none;stroke:#b0b0b0;stroke-linecap:square;stroke-width:0.8;"/>
     </g>
     <g id="line2d_20">
      <g>
       <use style="stroke:#000000;stroke-width:0.8;" x="0" xlink:href="#m3ca9201725" y="6.330297"/>
      </g>
     </g>
    </g>
   </g>
   <g id="line2d_21">
    <path clip-path="url(#p4713c9c2b5)" d="M -0.114784 293.76 
L -0.114784 286.095208 
L 55.822221 286.095208 
L 55.822221 282.262812 
L 130.451236 282.262812 
L 130.451236 278.430416 
L 130.853113 278.430416 
L 130.853113 274.59802 
L 164.182915 274.59802 
L 164.182915 270.765624 
L 214.911113 270.765624 
L 214.911113 266.933228 
L 216.38389 266.933228 
L 216.38389 259.268436 
L 219.745051 259.268436 
L 219.745051 255.43604 
L 220.539499 255.43604 
L 220.539499 251.603644 
L 221.68993 251.603644 
L 221.68993 243.938851 
L 222.110026 243.938851 
L 222.175277 236.274059 
L 222.82554 236.274059 
L 222.878493 228.609267 
L 223.399065 228.609267 
L 223.399065 224.776871 
L 224.424609 224.776871 
L 224.424609 220.944475 
L 225.495232 220.944475 
L 225.495232 217.112079 
L 225.788459 217.112079 
L 225.788459 213.279683 
L 226.241479 213.279683 
L 226.241479 205.614891 
L 226.364735 205.614891 
L 226.364735 201.782495 
L 227.500266 201.782495 
L 227.500266 194.117703 
L 228.830123 194.117703 
L 228.830123 190.285307 
L 229.592806 190.285307 
L 229.592806 186.452911 
L 231.673232 186.452911 
L 231.673232 182.620515 
L 234.515521 182.620515 
L 234.569344 174.955723 
L 234.846592 174.955723 
L 234.846714 167.290931 
L 235.267484 167.290931 
L 235.312938 155.793743 
L 237.070398 155.793743 
L 237.070398 151.961347 
L 237.392876 151.961347 
L 237.392876 148.12895 
L 238.289017 148.12895 
L 238.289017 144.296554 
L 238.662082 144.296554 
L 238.662082 140.464158 
L 239.469245 140.464158 
L 239.469245 136.631762 
L 240.17835 136.631762 
L 240.17835 132.799366 
L 240.670577 132.799366 
L 240.670577 128.96697 
L 240.875494 128.96697 
L 240.875494 125.134574 
L 241.312714 125.134574 
L 241.312714 121.302178 
L 245.233838 121.302178 
L 245.233838 117.469782 
L 246.347913 117.469782 
L 246.347913 113.637386 
L 246.558801 113.637386 
L 246.558801 109.80499 
L 247.451183 109.80499 
L 247.451183 105.972594 
L 247.602753 105.972594 
L 247.60278 98.307802 
L 248.394092 98.307802 
L 248.394092 94.475406 
L 249.121149 94.475406 
L 249.121149 90.64301 
L 250.106557 90.64301 
L 250.106557 86.810614 
L 250.290399 86.810614 
L 250.290399 82.978218 
L 251.169454 82.978218 
L 251.169454 79.145822 
L 251.649872 79.145822 
L 251.754937 71.48103 
L 251.770276 71.48103 
L 251.879126 56.151446 
L 251.886233 56.151446 
L 251.958177 40.821861 
L 251.999545 40.821861 
L 252.088413 29.324673 
L 252.115286 29.324673 
L 252.115286 25.492277 
L 253.003926 25.492277 
L 253.021553 17.827485 
L 253.82909 17.827485 
L 253.82909 13.995089 
L 257.273991 13.995089 
L 257.273991 10.162693 
L 257.546496 10.162693 
L 257.546496 6.330297 
L 257.546496 6.330297 
L 460.8 6.330297 
L 460.8 6.330297 
" style="fill:none;stroke:#ff0000;stroke-linecap:square;stroke-width:3;"/>
   </g>
   <g id="line2d_22">
    <path clip-path="url(#p4713c9c2b5)" d="M 234.240751 293.76 
L 234.240751 289.927604 
L 234.352151 289.927604 
L 234.352151 286.095208 
L 237.773472 286.095208 
L 237.773472 282.262812 
L 239.639813 282.262812 
L 239.639813 278.430416 
L 240.411572 278.430416 
L 240.411572 274.59802 
L 241.846007 274.59802 
L 241.846007 270.765624 
L 242.528249 270.765624 
L 242.528249 266.933228 
L 242.68053 266.933228 
L 242.68053 263.100832 
L 243.62153 263.100832 
L 243.62153 259.268436 
L 244.068592 259.268436 
L 244.068592 255.43604 
L 247.048048 255.43604 
L 247.068769 247.771248 
L 247.458627 247.771248 
L 247.458627 243.938851 
L 248.116641 243.938851 
L 248.116641 240.106455 
L 249.879039 240.106455 
L 249.879039 236.274059 
L 250.357899 236.274059 
L 250.357899 232.441663 
L 252.283778 232.441663 
L 252.283778 228.609267 
L 252.966439 228.609267 
L 252.966439 224.776871 
L 253.098746 224.776871 
L 253.098746 220.944475 
L 253.243304 220.944475 
L 253.243304 217.112079 
L 253.909012 217.112079 
L 253.909012 213.279683 
L 255.697359 213.279683 
L 255.697359 209.447287 
L 256.114331 209.447287 
L 256.114331 205.614891 
L 256.741322 205.614891 
L 256.741322 201.782495 
L 257.204644 201.782495 
L 257.284515 194.117703 
L 258.167619 194.117703 
L 258.167619 190.285307 
L 258.769657 190.285307 
L 258.769657 186.452911 
L 258.989815 186.452911 
L 258.989815 182.620515 
L 259.342158 182.620515 
L 259.342158 178.788119 
L 259.518013 178.788119 
L 259.518013 174.955723 
L 259.892156 174.955723 
L 259.892156 171.123327 
L 260.074447 171.123327 
L 260.092762 163.458535 
L 260.717588 163.458535 
L 260.743758 155.793743 
L 261.137185 155.793743 
L 261.199233 140.464158 
L 261.285377 140.464158 
L 261.349212 125.134574 
L 261.873754 125.134574 
L 261.873754 121.302178 
L 261.987998 121.302178 
L 261.987998 117.469782 
L 262.158393 117.469782 
L 262.202655 105.972594 
L 262.339313 105.972594 
L 262.339313 102.140198 
L 262.647277 102.140198 
L 262.647277 98.307802 
L 262.866123 98.307802 
L 262.969879 90.64301 
L 263.012796 90.64301 
L 263.012796 86.810614 
L 264.533114 86.810614 
L 264.570676 79.145822 
L 264.91666 79.145822 
L 264.991136 71.48103 
L 265.066633 71.48103 
L 265.066633 67.648634 
L 265.917955 67.648634 
L 265.917955 63.816238 
L 313.822571 63.816238 
L 313.822571 6.330297 
L 313.822571 6.330297 
L 460.8 6.330297 
L 460.8 6.330297 
" style="fill:none;stroke:#00bfbf;stroke-linecap:square;stroke-width:1.5;"/>
   </g>
   <g id="line2d_23">
    <path clip-path="url(#p4713c9c2b5)" d="M 234.240353 293.76 
L 234.328757 286.095208 
L 237.599269 286.095208 
L 237.599269 282.262812 
L 239.639813 282.262812 
L 239.639813 278.430416 
L 240.411572 278.430416 
L 240.411572 274.59802 
L 241.790737 274.59802 
L 241.790737 270.765624 
L 242.528249 270.765624 
L 242.579686 263.100832 
L 243.488687 263.100832 
L 243.488687 259.268436 
L 243.619571 259.268436 
L 243.619571 255.43604 
L 246.997194 255.43604 
L 247.047377 247.771248 
L 247.259174 247.771248 
L 247.259174 243.938851 
L 247.984984 243.938851 
L 247.984984 240.106455 
L 249.686263 240.106455 
L 249.686263 236.274059 
L 250.356462 236.274059 
L 250.356462 232.441663 
L 252.241946 232.441663 
L 252.241946 228.609267 
L 252.932031 228.609267 
L 252.932031 224.776871 
L 253.098518 224.776871 
L 253.098518 220.944475 
L 253.241895 220.944475 
L 253.241895 217.112079 
L 253.713815 217.112079 
L 253.713815 213.279683 
L 255.694277 213.279683 
L 255.694277 209.447287 
L 256.114331 209.447287 
L 256.114331 205.614891 
L 256.740222 205.614891 
L 256.740222 201.782495 
L 257.204644 201.782495 
L 257.284515 194.117703 
L 258.167619 194.117703 
L 258.167619 190.285307 
L 258.769495 190.285307 
L 258.769495 186.452911 
L 258.96657 186.452911 
L 258.96657 182.620515 
L 259.331822 182.620515 
L 259.331822 178.788119 
L 259.518013 178.788119 
L 259.518013 174.955723 
L 259.891619 174.955723 
L 259.891619 171.123327 
L 260.0734 171.123327 
L 260.092076 163.458535 
L 260.717114 163.458535 
L 260.743396 155.793743 
L 261.128071 155.793743 
L 261.199054 140.464158 
L 261.264308 140.464158 
L 261.349137 125.134574 
L 261.873754 125.134574 
L 261.873754 121.302178 
L 261.98792 121.302178 
L 261.98792 117.469782 
L 262.158137 117.469782 
L 262.202444 105.972594 
L 262.339112 105.972594 
L 262.339112 102.140198 
L 262.645018 102.140198 
L 262.645018 98.307802 
L 262.802794 98.307802 
L 262.802794 94.475406 
L 262.941481 94.475406 
L 263.012776 86.810614 
L 264.508181 86.810614 
L 264.549422 79.145822 
L 264.909119 79.145822 
L 264.968294 71.48103 
L 265.051874 71.48103 
L 265.051874 67.648634 
L 265.899823 67.648634 
L 265.899823 63.816238 
L 313.818467 63.816238 
L 313.822571 6.330297 
L 313.822571 6.330297 
L 460.8 6.330297 
L 460.8 6.330297 
" style="fill:none;stroke:#bf00bf;stroke-linecap:square;stroke-width:1.5;"/>
   </g>
   <g id="line2d_24">
    <path clip-path="url(#p4713c9c2b5)" d="M 232.655299 293.76 
L 232.655299 289.927604 
L 234.193603 289.927604 
L 234.193603 286.095208 
L 236.607817 286.095208 
L 236.607817 282.262812 
L 238.961456 282.262812 
L 238.961456 278.430416 
L 240.063184 278.430416 
L 240.063184 274.59802 
L 240.907707 274.59802 
L 240.907707 270.765624 
L 241.188444 270.765624 
L 241.188444 266.933228 
L 242.130189 266.933228 
L 242.130189 263.100832 
L 242.286763 263.100832 
L 242.286763 259.268436 
L 243.601951 259.268436 
L 243.601951 255.43604 
L 246.273189 255.43604 
L 246.273189 251.603644 
L 246.425953 251.603644 
L 246.425953 247.771248 
L 247.041399 247.771248 
L 247.041399 243.938851 
L 247.193375 243.938851 
L 247.193375 240.106455 
L 249.285599 240.106455 
L 249.285599 236.274059 
L 250.350326 236.274059 
L 250.350326 232.441663 
L 252.182993 232.441663 
L 252.182993 228.609267 
L 252.600992 228.609267 
L 252.600992 224.776871 
L 253.090749 224.776871 
L 253.090749 220.944475 
L 253.229263 220.944475 
L 253.229263 217.112079 
L 253.587048 217.112079 
L 253.587048 213.279683 
L 255.652157 213.279683 
L 255.652157 209.447287 
L 256.106763 209.447287 
L 256.106763 205.614891 
L 256.726322 205.614891 
L 256.726322 201.782495 
L 257.19974 201.782495 
L 257.277433 194.117703 
L 258.158269 194.117703 
L 258.158269 190.285307 
L 258.766133 190.285307 
L 258.810917 182.620515 
L 259.19405 182.620515 
L 259.19405 178.788119 
L 259.428016 178.788119 
L 259.428016 174.955723 
L 259.888474 174.955723 
L 259.888474 171.123327 
L 260.067604 171.123327 
L 260.08798 163.458535 
L 260.714228 163.458535 
L 260.742289 155.793743 
L 260.83616 155.793743 
L 260.83616 151.961347 
L 260.947859 151.961347 
L 260.947859 148.12895 
L 261.130747 148.12895 
L 261.198223 136.631762 
L 261.288157 136.631762 
L 261.347804 125.134574 
L 261.870958 125.134574 
L 261.870958 121.302178 
L 261.987092 121.302178 
L 261.987092 117.469782 
L 262.157191 117.469782 
L 262.200249 105.972594 
L 262.313719 105.972594 
L 262.337842 98.307802 
L 262.56791 98.307802 
L 262.56791 94.475406 
L 262.789261 94.475406 
L 262.789261 90.64301 
L 263.012094 90.64301 
L 263.012094 86.810614 
L 264.265281 86.810614 
L 264.265281 82.978218 
L 264.416725 82.978218 
L 264.416725 79.145822 
L 264.839016 79.145822 
L 264.941466 67.648634 
L 265.775161 67.648634 
L 265.775161 63.816238 
L 313.799797 63.816238 
L 313.805373 6.330297 
L 313.805373 6.330297 
L 460.8 6.330297 
L 460.8 6.330297 
" style="fill:none;stroke:#000000;stroke-linecap:square;stroke-width:1.5;"/>
   </g>
   <g id="line2d_25">
    <path clip-path="url(#p4713c9c2b5)" d="M 225.935453 293.76 
L 225.935453 289.927604 
L 226.928398 289.927604 
L 226.928398 286.095208 
L 234.918119 286.095208 
L 234.918119 282.262812 
L 235.53838 282.262812 
L 235.53838 278.430416 
L 236.857414 278.430416 
L 236.857414 274.59802 
L 238.428412 274.59802 
L 238.428412 270.765624 
L 239.723963 270.765624 
L 239.723963 266.933228 
L 240.194675 266.933228 
L 240.194675 263.100832 
L 240.973645 263.100832 
L 241.009041 255.43604 
L 241.514378 255.43604 
L 241.514378 251.603644 
L 242.085906 251.603644 
L 242.085906 247.771248 
L 245.396895 247.771248 
L 245.396895 243.938851 
L 246.243777 243.938851 
L 246.243777 240.106455 
L 249.124334 240.106455 
L 249.191629 232.441663 
L 249.387678 232.441663 
L 249.387678 228.609267 
L 249.741761 228.609267 
L 249.741761 224.776871 
L 251.530462 224.776871 
L 251.530462 220.944475 
L 251.922496 220.944475 
L 251.922496 217.112079 
L 252.744874 217.112079 
L 252.744874 213.279683 
L 253.099741 213.279683 
L 253.099741 209.447287 
L 253.767302 209.447287 
L 253.767302 205.614891 
L 254.955217 205.614891 
L 254.955217 201.782495 
L 255.280998 201.782495 
L 255.280998 197.950099 
L 256.26417 197.950099 
L 256.270623 190.285307 
L 256.388645 190.285307 
L 256.388645 186.452911 
L 256.75272 186.452911 
L 256.75272 182.620515 
L 257.171454 182.620515 
L 257.171454 178.788119 
L 257.994101 178.788119 
L 257.994101 174.955723 
L 258.294153 174.955723 
L 258.399847 167.290931 
L 258.489472 167.290931 
L 258.529537 159.626139 
L 258.613683 159.626139 
L 258.705774 151.961347 
L 259.188148 151.961347 
L 259.188148 148.12895 
L 259.397518 148.12895 
L 259.457121 140.464158 
L 259.573622 140.464158 
L 259.573622 136.631762 
L 259.802121 136.631762 
L 259.802121 132.799366 
L 260.340396 132.799366 
L 260.340396 128.96697 
L 260.533056 128.96697 
L 260.533056 125.134574 
L 260.724514 125.134574 
L 260.77717 117.469782 
L 260.909684 117.469782 
L 260.909684 113.637386 
L 261.057393 113.637386 
L 261.156232 105.972594 
L 261.193955 105.972594 
L 261.193955 102.140198 
L 261.498519 102.140198 
L 261.498519 98.307802 
L 261.796939 98.307802 
L 261.900527 90.64301 
L 261.921464 90.64301 
L 262.027499 79.145822 
L 262.123526 79.145822 
L 262.123526 75.313426 
L 262.913588 75.313426 
L 262.913588 71.48103 
L 263.837048 71.48103 
L 263.837048 67.648634 
L 263.984823 67.648634 
L 263.984823 63.816238 
L 310.539135 63.816238 
L 310.618975 48.486653 
L 311.021716 48.486653 
L 311.021716 44.654257 
L 311.364921 44.654257 
L 311.365507 29.324673 
L 311.799636 29.324673 
L 311.806966 17.827485 
L 312.121484 17.827485 
L 312.1263 6.330297 
L 312.1263 6.330297 
L 460.8 6.330297 
L 460.8 6.330297 
" style="fill:none;stroke:#00bfbf;stroke-linecap:square;stroke-width:1.5;"/>
   </g>
   <g id="line2d_26">
    <path clip-path="url(#p4713c9c2b5)" d="M 145.491471 293.76 
L 145.491471 289.927604 
L 151.942742 289.927604 
L 151.942742 286.095208 
L 164.182956 286.095208 
L 164.182956 282.262812 
L 215.222365 282.262812 
L 215.222365 278.430416 
L 216.437777 278.430416 
L 216.437777 270.765624 
L 219.17838 270.765624 
L 219.17838 266.933228 
L 221.038329 266.933228 
L 221.038329 263.100832 
L 222.110026 263.100832 
L 222.110026 259.268436 
L 222.878493 259.268436 
L 222.878493 255.43604 
L 223.460399 255.43604 
L 223.460399 251.603644 
L 224.424609 251.603644 
L 224.424609 247.771248 
L 225.495232 247.771248 
L 225.531267 240.106455 
L 225.788507 240.106455 
L 225.788507 236.274059 
L 226.24149 236.274059 
L 226.24149 228.609267 
L 226.382697 228.609267 
L 226.382697 224.776871 
L 227.050593 224.776871 
L 227.098368 213.279683 
L 227.500266 213.279683 
L 227.500266 205.614891 
L 228.307549 205.614891 
L 228.307549 201.782495 
L 231.995679 201.782495 
L 231.995679 197.950099 
L 234.033598 197.950099 
L 234.033598 194.117703 
L 234.515521 194.117703 
L 234.569344 186.452911 
L 234.93806 186.452911 
L 234.93806 182.620515 
L 235.301711 182.620515 
L 235.312938 174.955723 
L 235.600768 174.955723 
L 235.600768 171.123327 
L 237.012513 171.123327 
L 237.012513 167.290931 
L 237.789728 167.290931 
L 237.825908 159.626139 
L 238.289017 159.626139 
L 238.289017 155.793743 
L 238.662082 155.793743 
L 238.662082 151.961347 
L 239.469245 151.961347 
L 239.469245 148.12895 
L 240.178491 148.12895 
L 240.178491 144.296554 
L 240.670577 144.296554 
L 240.670577 140.464158 
L 240.875494 140.464158 
L 240.875494 136.631762 
L 241.312714 136.631762 
L 241.312714 132.799366 
L 245.058718 132.799366 
L 245.058718 128.96697 
L 245.233838 128.96697 
L 245.233838 125.134574 
L 246.365749 125.134574 
L 246.365749 121.302178 
L 246.964623 121.302178 
L 246.964623 117.469782 
L 247.451183 117.469782 
L 247.451183 113.637386 
L 248.397148 113.637386 
L 248.459356 105.972594 
L 249.121149 105.972594 
L 249.121149 102.140198 
L 250.541521 102.140198 
L 250.541521 98.307802 
L 251.477662 98.307802 
L 251.534246 90.64301 
L 251.754937 90.64301 
L 251.770444 82.978218 
L 251.8721 82.978218 
L 251.958177 59.983842 
L 251.999545 59.983842 
L 252.088413 48.486653 
L 252.115286 48.486653 
L 252.115286 44.654257 
L 253.003926 44.654257 
L 253.021553 36.989465 
L 253.365894 36.989465 
L 253.365894 33.157069 
L 253.688253 33.157069 
L 253.688253 29.324673 
L 253.842868 29.324673 
L 253.842868 25.492277 
L 254.730836 25.492277 
L 254.730836 21.659881 
L 255.951604 21.659881 
L 255.951604 17.827485 
L 257.864295 17.827485 
L 257.864295 13.995089 
L 259.176968 13.995089 
L 259.176968 10.162693 
L 261.171241 10.162693 
L 261.171241 6.330297 
L 261.171241 6.330297 
L 460.8 6.330297 
L 460.8 6.330297 
" style="fill:none;stroke:#bf00bf;stroke-linecap:square;stroke-width:1.5;"/>
   </g>
   <g id="patch_3">
    <path d="M 0 293.76 
L 0 3.456 
" style="fill:none;stroke:#000000;stroke-linecap:square;stroke-linejoin:miter;stroke-width:0.8;"/>
   </g>
   <g id="patch_4">
    <path d="M 460.8 293.76 
L 460.8 3.456 
" style="fill:none;stroke:#000000;stroke-linecap:square;stroke-linejoin:miter;stroke-width:0.8;"/>
   </g>
   <g id="patch_5">
    <path d="M 0 293.76 
L 460.8 293.76 
" style="fill:none;stroke:#000000;stroke-linecap:square;stroke-linejoin:miter;stroke-width:0.8;"/>
   </g>
   <g id="patch_6">
    <path d="M 0 3.456 
L 460.8 3.456 
" style="fill:none;stroke:#000000;stroke-linecap:square;stroke-linejoin:miter;stroke-width:0.8;"/>
   </g>
   <g id="text_6">
    <!-- {f20-f24}, 5-D -->
    <g transform="translate(305.884 287.95392)scale(0.2 -0.2)">
     <defs>
      <path d="M 51.125 -9.28125 
L 51.125 -16.3125 
L 48.09375 -16.3125 
Q 35.9375 -16.3125 31.8125 -12.6875 
Q 27.6875 -9.078125 27.6875 1.703125 
L 27.6875 13.375 
Q 27.6875 20.75 25.046875 23.578125 
Q 22.40625 26.421875 15.484375 26.421875 
L 12.5 26.421875 
L 12.5 33.40625 
L 15.484375 33.40625 
Q 22.46875 33.40625 25.078125 36.203125 
Q 27.6875 39.015625 27.6875 46.296875 
L 27.6875 58.015625 
Q 27.6875 68.796875 31.8125 72.390625 
Q 35.9375 75.984375 48.09375 75.984375 
L 51.125 75.984375 
L 51.125 69 
L 47.796875 69 
Q 40.921875 69 38.8125 66.84375 
Q 36.71875 64.703125 36.71875 57.8125 
L 36.71875 45.703125 
Q 36.71875 38.03125 34.5 34.5625 
Q 32.28125 31.109375 26.90625 29.890625 
Q 32.328125 28.5625 34.515625 25.09375 
Q 36.71875 21.625 36.71875 14.015625 
L 36.71875 1.90625 
Q 36.71875 -4.984375 38.8125 -7.125 
Q 40.921875 -9.28125 47.796875 -9.28125 
z
" id="DejaVuSans-123"/>
      <path d="M 19.1875 8.296875 
L 53.609375 8.296875 
L 53.609375 0 
L 7.328125 0 
L 7.328125 8.296875 
Q 12.9375 14.109375 22.625 23.890625 
Q 32.328125 33.6875 34.8125 36.53125 
Q 39.546875 41.84375 41.421875 45.53125 
Q 43.3125 49.21875 43.3125 52.78125 
Q 43.3125 58.59375 39.234375 62.25 
Q 35.15625 65.921875 28.609375 65.921875 
Q 23.96875 65.921875 18.8125 64.3125 
Q 13.671875 62.703125 7.8125 59.421875 
L 7.8125 69.390625 
Q 13.765625 71.78125 18.9375 73 
Q 24.125 74.21875 28.421875 74.21875 
Q 39.75 74.21875 46.484375 68.546875 
Q 53.21875 62.890625 53.21875 53.421875 
Q 53.21875 48.921875 51.53125 44.890625 
Q 49.859375 40.875 45.40625 35.40625 
Q 44.1875 33.984375 37.640625 27.21875 
Q 31.109375 20.453125 19.1875 8.296875 
z
" id="DejaVuSans-50"/>
      <path d="M 12.5 -9.28125 
L 15.921875 -9.28125 
Q 22.75 -9.28125 24.828125 -7.171875 
Q 26.90625 -5.078125 26.90625 1.90625 
L 26.90625 14.015625 
Q 26.90625 21.625 29.09375 25.09375 
Q 31.296875 28.5625 36.71875 29.890625 
Q 31.296875 31.109375 29.09375 34.5625 
Q 26.90625 38.03125 26.90625 45.703125 
L 26.90625 57.8125 
Q 26.90625 64.75 24.828125 66.875 
Q 22.75 69 15.921875 69 
L 12.5 69 
L 12.5 75.984375 
L 15.578125 75.984375 
Q 27.734375 75.984375 31.8125 72.390625 
Q 35.890625 68.796875 35.890625 58.015625 
L 35.890625 46.296875 
Q 35.890625 39.015625 38.515625 36.203125 
Q 41.15625 33.40625 48.09375 33.40625 
L 51.125 33.40625 
L 51.125 26.421875 
L 48.09375 26.421875 
Q 41.15625 26.421875 38.515625 23.578125 
Q 35.890625 20.75 35.890625 13.375 
L 35.890625 1.703125 
Q 35.890625 -9.078125 31.8125 -12.6875 
Q 27.734375 -16.3125 15.578125 -16.3125 
L 12.5 -16.3125 
z
" id="DejaVuSans-125"/>
      <path d="M 11.71875 12.40625 
L 22.015625 12.40625 
L 22.015625 4 
L 14.015625 -11.625 
L 7.71875 -11.625 
L 11.71875 4 
z
" id="DejaVuSans-44"/>
      <path d="M 10.796875 72.90625 
L 49.515625 72.90625 
L 49.515625 64.59375 
L 19.828125 64.59375 
L 19.828125 46.734375 
Q 21.96875 47.46875 24.109375 47.828125 
Q 26.265625 48.1875 28.421875 48.1875 
Q 40.625 48.1875 47.75 41.5 
Q 54.890625 34.8125 54.890625 23.390625 
Q 54.890625 11.625 47.5625 5.09375 
Q 40.234375 -1.421875 26.90625 -1.421875 
Q 22.3125 -1.421875 17.546875 -0.640625 
Q 12.796875 0.140625 7.71875 1.703125 
L 7.71875 11.625 
Q 12.109375 9.234375 16.796875 8.0625 
Q 21.484375 6.890625 26.703125 6.890625 
Q 35.15625 6.890625 40.078125 11.328125 
Q 45.015625 15.765625 45.015625 23.390625 
Q 45.015625 31 40.078125 35.4375 
Q 35.15625 39.890625 26.703125 39.890625 
Q 22.75 39.890625 18.8125 39.015625 
Q 14.890625 38.140625 10.796875 36.28125 
z
" id="DejaVuSans-53"/>
     </defs>
     <use xlink:href="#DejaVuSans-123"/>
     <use x="63.623047" xlink:href="#DejaVuSans-102"/>
     <use x="98.828125" xlink:href="#DejaVuSans-50"/>
     <use x="162.451172" xlink:href="#DejaVuSans-48"/>
     <use x="226.074219" xlink:href="#DejaVuSans-45"/>
     <use x="262.158203" xlink:href="#DejaVuSans-102"/>
     <use x="297.363281" xlink:href="#DejaVuSans-50"/>
     <use x="360.986328" xlink:href="#DejaVuSans-52"/>
     <use x="424.609375" xlink:href="#DejaVuSans-125"/>
     <use x="488.232422" xlink:href="#DejaVuSans-44"/>
     <use x="520.019531" xlink:href="#DejaVuSans-32"/>
     <use x="551.806641" xlink:href="#DejaVuSans-53"/>
     <use x="615.429688" xlink:href="#DejaVuSans-45"/>
     <use x="651.513672" xlink:href="#DejaVuSans-68"/>
    </g>
   </g>
   <g id="text_7">
    <!-- v2.4 -->
    <g style="fill:#808080;" transform="translate(219.489063 288.777272)scale(0.1 -0.1)">
     <defs>
      <path d="M 2.984375 54.6875 
L 12.5 54.6875 
L 29.59375 8.796875 
L 46.6875 54.6875 
L 56.203125 54.6875 
L 35.6875 0 
L 23.484375 0 
z
" id="DejaVuSans-118"/>
      <path d="M 10.6875 12.40625 
L 21 12.40625 
L 21 0 
L 10.6875 0 
z
" id="DejaVuSans-46"/>
     </defs>
     <use xlink:href="#DejaVuSans-118"/>
     <use x="59.179688" xlink:href="#DejaVuSans-50"/>
     <use x="122.802734" xlink:href="#DejaVuSans-46"/>
     <use x="154.589844" xlink:href="#DejaVuSans-52"/>
    </g>
   </g>
  </g>
 </g>
 <defs>
  <clipPath id="p4713c9c2b5">
   <rect height="290.304" width="460.8" x="0" y="3.456"/>
  </clipPath>
 </defs>
</svg>
