<?xml version="1.0" encoding="utf-8" standalone="no"?>
<!DOCTYPE svg PUBLIC "-//W3C//DTD SVG 1.1//EN"
  "http://www.w3.org/Graphics/SVG/1.1/DTD/svg11.dtd">
<!-- Created with matplotlib (https://matplotlib.org/) -->
<svg height="345.6pt" version="1.1" viewBox="0 0 460.8 345.6" width="460.8pt" xmlns="http://www.w3.org/2000/svg" xmlns:xlink="http://www.w3.org/1999/xlink">
 <metadata>
  <rdf:RDF xmlns:cc="http://creativecommons.org/ns#" xmlns:dc="http://purl.org/dc/elements/1.1/" xmlns:rdf="http://www.w3.org/1999/02/22-rdf-syntax-ns#">
   <cc:Work>
    <dc:type rdf:resource="http://purl.org/dc/dcmitype/StillImage"/>
    <dc:date>2021-08-04T10:25:59.529846</dc:date>
    <dc:format>image/svg+xml</dc:format>
    <dc:creator>
     <cc:Agent>
      <dc:title>Matplotlib v3.3.1, https://matplotlib.org/</dc:title>
     </cc:Agent>
    </dc:creator>
   </cc:Work>
  </rdf:RDF>
 </metadata>
 <defs>
  <style type="text/css">*{stroke-linecap:butt;stroke-linejoin:round;}</style>
 </defs>
 <g id="figure_1">
  <g id="patch_1">
   <path d="M 0 345.6 
L 460.8 345.6 
L 460.8 0 
L 0 0 
z
" style="fill:#ffffff;"/>
  </g>
  <g id="axes_1">
   <g id="patch_2">
    <path d="M 0 293.76 
L 460.8 293.76 
L 460.8 3.456 
L 0 3.456 
z
" style="fill:#ffffff;"/>
   </g>
   <g id="matplotlib.axis_1">
    <g id="xtick_1">
     <g id="line2d_1">
      <path clip-path="url(#p04123a59cc)" d="M 106.364787 293.76 
L 106.364787 3.456 
" style="fill:none;stroke:#b0b0b0;stroke-linecap:square;stroke-width:0.8;"/>
     </g>
     <g id="line2d_2">
      <defs>
       <path d="M 0 0 
L 0 3.5 
" id="m54cdc1101e" style="stroke:#000000;stroke-width:0.8;"/>
      </defs>
      <g>
       <use style="stroke:#000000;stroke-width:0.8;" x="106.364787" xlink:href="#m54cdc1101e" y="293.76"/>
      </g>
     </g>
     <g id="text_1">
      <!-- -4 -->
      <g transform="translate(96.394475 315.956875)scale(0.2 -0.2)">
       <defs>
        <path d="M 4.890625 31.390625 
L 31.203125 31.390625 
L 31.203125 23.390625 
L 4.890625 23.390625 
z
" id="DejaVuSans-45"/>
        <path d="M 37.796875 64.3125 
L 12.890625 25.390625 
L 37.796875 25.390625 
z
M 35.203125 72.90625 
L 47.609375 72.90625 
L 47.609375 25.390625 
L 58.015625 25.390625 
L 58.015625 17.1875 
L 47.609375 17.1875 
L 47.609375 0 
L 37.796875 0 
L 37.796875 17.1875 
L 4.890625 17.1875 
L 4.890625 26.703125 
z
" id="DejaVuSans-52"/>
       </defs>
       <use xlink:href="#DejaVuSans-45"/>
       <use x="36.083984" xlink:href="#DejaVuSans-52"/>
      </g>
     </g>
    </g>
    <g id="xtick_2">
     <g id="line2d_3">
      <path clip-path="url(#p04123a59cc)" d="M 212.84461 293.76 
L 212.84461 3.456 
" style="fill:none;stroke:#b0b0b0;stroke-linecap:square;stroke-width:0.8;"/>
     </g>
     <g id="line2d_4">
      <g>
       <use style="stroke:#000000;stroke-width:0.8;" x="212.84461" xlink:href="#m54cdc1101e" y="293.76"/>
      </g>
     </g>
     <g id="text_2">
      <!-- 0 -->
      <g transform="translate(206.48211 315.956875)scale(0.2 -0.2)">
       <defs>
        <path d="M 31.78125 66.40625 
Q 24.171875 66.40625 20.328125 58.90625 
Q 16.5 51.421875 16.5 36.375 
Q 16.5 21.390625 20.328125 13.890625 
Q 24.171875 6.390625 31.78125 6.390625 
Q 39.453125 6.390625 43.28125 13.890625 
Q 47.125 21.390625 47.125 36.375 
Q 47.125 51.421875 43.28125 58.90625 
Q 39.453125 66.40625 31.78125 66.40625 
z
M 31.78125 74.21875 
Q 44.046875 74.21875 50.515625 64.515625 
Q 56.984375 54.828125 56.984375 36.375 
Q 56.984375 17.96875 50.515625 8.265625 
Q 44.046875 -1.421875 31.78125 -1.421875 
Q 19.53125 -1.421875 13.0625 8.265625 
Q 6.59375 17.96875 6.59375 36.375 
Q 6.59375 54.828125 13.0625 64.515625 
Q 19.53125 74.21875 31.78125 74.21875 
z
" id="DejaVuSans-48"/>
       </defs>
       <use xlink:href="#DejaVuSans-48"/>
      </g>
     </g>
    </g>
    <g id="xtick_3">
     <g id="line2d_5">
      <path clip-path="url(#p04123a59cc)" d="M 319.324432 293.76 
L 319.324432 3.456 
" style="fill:none;stroke:#b0b0b0;stroke-linecap:square;stroke-width:0.8;"/>
     </g>
     <g id="line2d_6">
      <g>
       <use style="stroke:#000000;stroke-width:0.8;" x="319.324432" xlink:href="#m54cdc1101e" y="293.76"/>
      </g>
     </g>
     <g id="text_3">
      <!-- 4 -->
      <g transform="translate(312.961932 315.956875)scale(0.2 -0.2)">
       <use xlink:href="#DejaVuSans-52"/>
      </g>
     </g>
    </g>
    <g id="xtick_4">
     <g id="line2d_7">
      <path clip-path="url(#p04123a59cc)" d="M 425.804254 293.76 
L 425.804254 3.456 
" style="fill:none;stroke:#b0b0b0;stroke-linecap:square;stroke-width:0.8;"/>
     </g>
     <g id="line2d_8">
      <g>
       <use style="stroke:#000000;stroke-width:0.8;" x="425.804254" xlink:href="#m54cdc1101e" y="293.76"/>
      </g>
     </g>
     <g id="text_4">
      <!-- 8 -->
      <g transform="translate(419.441754 315.956875)scale(0.2 -0.2)">
       <defs>
        <path d="M 31.78125 34.625 
Q 24.75 34.625 20.71875 30.859375 
Q 16.703125 27.09375 16.703125 20.515625 
Q 16.703125 13.921875 20.71875 10.15625 
Q 24.75 6.390625 31.78125 6.390625 
Q 38.8125 6.390625 42.859375 10.171875 
Q 46.921875 13.96875 46.921875 20.515625 
Q 46.921875 27.09375 42.890625 30.859375 
Q 38.875 34.625 31.78125 34.625 
z
M 21.921875 38.8125 
Q 15.578125 40.375 12.03125 44.71875 
Q 8.5 49.078125 8.5 55.328125 
Q 8.5 64.0625 14.71875 69.140625 
Q 20.953125 74.21875 31.78125 74.21875 
Q 42.671875 74.21875 48.875 69.140625 
Q 55.078125 64.0625 55.078125 55.328125 
Q 55.078125 49.078125 51.53125 44.71875 
Q 48 40.375 41.703125 38.8125 
Q 48.828125 37.15625 52.796875 32.3125 
Q 56.78125 27.484375 56.78125 20.515625 
Q 56.78125 9.90625 50.3125 4.234375 
Q 43.84375 -1.421875 31.78125 -1.421875 
Q 19.734375 -1.421875 13.25 4.234375 
Q 6.78125 9.90625 6.78125 20.515625 
Q 6.78125 27.484375 10.78125 32.3125 
Q 14.796875 37.15625 21.921875 38.8125 
z
M 18.3125 54.390625 
Q 18.3125 48.734375 21.84375 45.5625 
Q 25.390625 42.390625 31.78125 42.390625 
Q 38.140625 42.390625 41.71875 45.5625 
Q 45.3125 48.734375 45.3125 54.390625 
Q 45.3125 60.0625 41.71875 63.234375 
Q 38.140625 66.40625 31.78125 66.40625 
Q 25.390625 66.40625 21.84375 63.234375 
Q 18.3125 60.0625 18.3125 54.390625 
z
" id="DejaVuSans-56"/>
       </defs>
       <use xlink:href="#DejaVuSans-56"/>
      </g>
     </g>
    </g>
    <g id="text_5">
     <!-- log10 of Df -->
     <g transform="translate(175.214063 339.313125)scale(0.2 -0.2)">
      <defs>
       <path d="M 9.421875 75.984375 
L 18.40625 75.984375 
L 18.40625 0 
L 9.421875 0 
z
" id="DejaVuSans-108"/>
       <path d="M 30.609375 48.390625 
Q 23.390625 48.390625 19.1875 42.75 
Q 14.984375 37.109375 14.984375 27.296875 
Q 14.984375 17.484375 19.15625 11.84375 
Q 23.34375 6.203125 30.609375 6.203125 
Q 37.796875 6.203125 41.984375 11.859375 
Q 46.1875 17.53125 46.1875 27.296875 
Q 46.1875 37.015625 41.984375 42.703125 
Q 37.796875 48.390625 30.609375 48.390625 
z
M 30.609375 56 
Q 42.328125 56 49.015625 48.375 
Q 55.71875 40.765625 55.71875 27.296875 
Q 55.71875 13.875 49.015625 6.21875 
Q 42.328125 -1.421875 30.609375 -1.421875 
Q 18.84375 -1.421875 12.171875 6.21875 
Q 5.515625 13.875 5.515625 27.296875 
Q 5.515625 40.765625 12.171875 48.375 
Q 18.84375 56 30.609375 56 
z
" id="DejaVuSans-111"/>
       <path d="M 45.40625 27.984375 
Q 45.40625 37.75 41.375 43.109375 
Q 37.359375 48.484375 30.078125 48.484375 
Q 22.859375 48.484375 18.828125 43.109375 
Q 14.796875 37.75 14.796875 27.984375 
Q 14.796875 18.265625 18.828125 12.890625 
Q 22.859375 7.515625 30.078125 7.515625 
Q 37.359375 7.515625 41.375 12.890625 
Q 45.40625 18.265625 45.40625 27.984375 
z
M 54.390625 6.78125 
Q 54.390625 -7.171875 48.1875 -13.984375 
Q 42 -20.796875 29.203125 -20.796875 
Q 24.46875 -20.796875 20.265625 -20.09375 
Q 16.0625 -19.390625 12.109375 -17.921875 
L 12.109375 -9.1875 
Q 16.0625 -11.328125 19.921875 -12.34375 
Q 23.78125 -13.375 27.78125 -13.375 
Q 36.625 -13.375 41.015625 -8.765625 
Q 45.40625 -4.15625 45.40625 5.171875 
L 45.40625 9.625 
Q 42.625 4.78125 38.28125 2.390625 
Q 33.9375 0 27.875 0 
Q 17.828125 0 11.671875 7.65625 
Q 5.515625 15.328125 5.515625 27.984375 
Q 5.515625 40.671875 11.671875 48.328125 
Q 17.828125 56 27.875 56 
Q 33.9375 56 38.28125 53.609375 
Q 42.625 51.21875 45.40625 46.390625 
L 45.40625 54.6875 
L 54.390625 54.6875 
z
" id="DejaVuSans-103"/>
       <path d="M 12.40625 8.296875 
L 28.515625 8.296875 
L 28.515625 63.921875 
L 10.984375 60.40625 
L 10.984375 69.390625 
L 28.421875 72.90625 
L 38.28125 72.90625 
L 38.28125 8.296875 
L 54.390625 8.296875 
L 54.390625 0 
L 12.40625 0 
z
" id="DejaVuSans-49"/>
       <path id="DejaVuSans-32"/>
       <path d="M 37.109375 75.984375 
L 37.109375 68.5 
L 28.515625 68.5 
Q 23.6875 68.5 21.796875 66.546875 
Q 19.921875 64.59375 19.921875 59.515625 
L 19.921875 54.6875 
L 34.71875 54.6875 
L 34.71875 47.703125 
L 19.921875 47.703125 
L 19.921875 0 
L 10.890625 0 
L 10.890625 47.703125 
L 2.296875 47.703125 
L 2.296875 54.6875 
L 10.890625 54.6875 
L 10.890625 58.5 
Q 10.890625 67.625 15.140625 71.796875 
Q 19.390625 75.984375 28.609375 75.984375 
z
" id="DejaVuSans-102"/>
       <path d="M 19.671875 64.796875 
L 19.671875 8.109375 
L 31.59375 8.109375 
Q 46.6875 8.109375 53.6875 14.9375 
Q 60.6875 21.78125 60.6875 36.53125 
Q 60.6875 51.171875 53.6875 57.984375 
Q 46.6875 64.796875 31.59375 64.796875 
z
M 9.8125 72.90625 
L 30.078125 72.90625 
Q 51.265625 72.90625 61.171875 64.09375 
Q 71.09375 55.28125 71.09375 36.53125 
Q 71.09375 17.671875 61.125 8.828125 
Q 51.171875 0 30.078125 0 
L 9.8125 0 
z
" id="DejaVuSans-68"/>
      </defs>
      <use xlink:href="#DejaVuSans-108"/>
      <use x="27.783203" xlink:href="#DejaVuSans-111"/>
      <use x="88.964844" xlink:href="#DejaVuSans-103"/>
      <use x="152.441406" xlink:href="#DejaVuSans-49"/>
      <use x="216.064453" xlink:href="#DejaVuSans-48"/>
      <use x="279.6875" xlink:href="#DejaVuSans-32"/>
      <use x="311.474609" xlink:href="#DejaVuSans-111"/>
      <use x="372.65625" xlink:href="#DejaVuSans-102"/>
      <use x="407.861328" xlink:href="#DejaVuSans-32"/>
      <use x="439.648438" xlink:href="#DejaVuSans-68"/>
      <use x="516.650391" xlink:href="#DejaVuSans-102"/>
     </g>
    </g>
   </g>
   <g id="matplotlib.axis_2">
    <g id="ytick_1">
     <g id="line2d_9">
      <path clip-path="url(#p04123a59cc)" d="M 0 293.76 
L 460.8 293.76 
" style="fill:none;stroke:#b0b0b0;stroke-linecap:square;stroke-width:0.8;"/>
     </g>
     <g id="line2d_10">
      <defs>
       <path d="M 0 0 
L -3.5 0 
" id="m4bde84a032" style="stroke:#000000;stroke-width:0.8;"/>
      </defs>
      <g>
       <use style="stroke:#000000;stroke-width:0.8;" x="0" xlink:href="#m4bde84a032" y="293.76"/>
      </g>
     </g>
    </g>
    <g id="ytick_2">
     <g id="line2d_11">
      <path clip-path="url(#p04123a59cc)" d="M 0 236.274059 
L 460.8 236.274059 
" style="fill:none;stroke:#b0b0b0;stroke-linecap:square;stroke-width:0.8;"/>
     </g>
     <g id="line2d_12">
      <g>
       <use style="stroke:#000000;stroke-width:0.8;" x="0" xlink:href="#m4bde84a032" y="236.274059"/>
      </g>
     </g>
    </g>
    <g id="ytick_3">
     <g id="line2d_13">
      <path clip-path="url(#p04123a59cc)" d="M 0 178.788119 
L 460.8 178.788119 
" style="fill:none;stroke:#b0b0b0;stroke-linecap:square;stroke-width:0.8;"/>
     </g>
     <g id="line2d_14">
      <g>
       <use style="stroke:#000000;stroke-width:0.8;" x="0" xlink:href="#m4bde84a032" y="178.788119"/>
      </g>
     </g>
    </g>
    <g id="ytick_4">
     <g id="line2d_15">
      <path clip-path="url(#p04123a59cc)" d="M 0 121.302178 
L 460.8 121.302178 
" style="fill:none;stroke:#b0b0b0;stroke-linecap:square;stroke-width:0.8;"/>
     </g>
     <g id="line2d_16">
      <g>
       <use style="stroke:#000000;stroke-width:0.8;" x="0" xlink:href="#m4bde84a032" y="121.302178"/>
      </g>
     </g>
    </g>
    <g id="ytick_5">
     <g id="line2d_17">
      <path clip-path="url(#p04123a59cc)" d="M 0 63.816238 
L 460.8 63.816238 
" style="fill:none;stroke:#b0b0b0;stroke-linecap:square;stroke-width:0.8;"/>
     </g>
     <g id="line2d_18">
      <g>
       <use style="stroke:#000000;stroke-width:0.8;" x="0" xlink:href="#m4bde84a032" y="63.816238"/>
      </g>
     </g>
    </g>
    <g id="ytick_6">
     <g id="line2d_19">
      <path clip-path="url(#p04123a59cc)" d="M 0 6.330297 
L 460.8 6.330297 
" style="fill:none;stroke:#b0b0b0;stroke-linecap:square;stroke-width:0.8;"/>
     </g>
     <g id="line2d_20">
      <g>
       <use style="stroke:#000000;stroke-width:0.8;" x="0" xlink:href="#m4bde84a032" y="6.330297"/>
      </g>
     </g>
    </g>
   </g>
   <g id="line2d_21">
    <path clip-path="url(#p04123a59cc)" d="M 260.388118 293.76 
L 260.388118 288.969505 
L 261.905365 288.969505 
L 261.905365 284.17901 
L 262.658318 284.17901 
L 262.658318 279.388515 
L 262.81311 279.388515 
L 262.81311 274.59802 
L 263.190173 274.59802 
L 263.190173 269.807525 
L 264.208644 269.807525 
L 264.208644 265.01703 
L 264.377576 265.01703 
L 264.377576 260.226535 
L 265.053327 260.226535 
L 265.053327 255.43604 
L 265.228451 255.43604 
L 265.228451 250.645545 
L 265.364255 250.645545 
L 265.364255 245.85505 
L 265.45493 245.85505 
L 265.45493 241.064554 
L 265.82335 241.064554 
L 265.82335 236.274059 
L 266.039639 236.274059 
L 266.039639 231.483564 
L 266.04913 231.483564 
L 266.04913 226.693069 
L 266.082462 226.693069 
L 266.082462 221.902574 
L 281.262246 221.902574 
L 281.262246 217.112079 
L 284.341973 217.112079 
L 284.341973 212.321584 
L 287.074801 212.321584 
L 287.074801 207.531089 
L 288.795682 207.531089 
L 288.795682 202.740594 
L 289.827701 202.740594 
L 289.827701 197.950099 
L 290.066782 197.950099 
L 290.066782 193.159604 
L 290.5605 193.159604 
L 290.5605 188.369109 
L 291.010728 188.369109 
L 291.010728 183.578614 
L 291.868383 183.578614 
L 291.868383 178.788119 
L 294.796744 178.788119 
L 294.796744 173.997624 
L 296.635859 173.997624 
L 296.635859 169.207129 
L 296.774705 169.207129 
L 296.774705 164.416634 
L 296.803519 164.416634 
L 296.803519 159.626139 
L 299.217491 159.626139 
L 299.217491 154.835644 
L 299.407025 154.835644 
L 299.407025 150.045149 
L 301.046271 150.045149 
L 301.046271 145.254653 
L 302.619768 145.254653 
L 302.619768 140.464158 
L 302.621661 140.464158 
L 302.621661 135.673663 
L 303.985403 135.673663 
L 303.985403 130.883168 
L 306.922605 130.883168 
L 306.922605 126.092673 
L 307.413984 126.092673 
L 307.413984 121.302178 
L 313.184809 121.302178 
L 313.184809 116.511683 
L 314.074349 116.511683 
L 314.074349 111.721188 
L 316.167671 111.721188 
L 316.167671 106.930693 
L 318.445959 106.930693 
L 318.445959 102.140198 
L 320.696904 102.140198 
L 320.696904 97.349703 
L 321.981119 97.349703 
L 321.981119 92.559208 
L 324.342615 92.559208 
L 324.342615 87.768713 
L 324.386386 87.768713 
L 324.386386 82.978218 
L 324.997379 82.978218 
L 324.997379 78.187723 
L 326.066261 78.187723 
L 326.066261 73.397228 
L 327.197917 73.397228 
L 327.197917 68.606733 
L 328.664969 68.606733 
L 328.664969 63.816238 
L 329.609691 63.816238 
L 329.609691 59.025743 
L 332.108338 59.025743 
L 332.108338 54.235248 
L 333.337925 54.235248 
L 333.337925 49.444752 
L 338.911647 49.444752 
L 338.911647 44.654257 
L 340.205828 44.654257 
L 340.205828 39.863762 
L 341.016054 39.863762 
L 341.016054 35.073267 
L 341.377274 35.073267 
L 341.377274 30.282772 
L 342.752473 30.282772 
L 342.752473 25.492277 
L 343.597558 25.492277 
L 343.597558 20.701782 
L 348.109339 20.701782 
L 348.109339 15.911287 
L 357.841765 15.911287 
L 357.841765 11.120792 
L 359.235425 11.120792 
L 359.235425 6.330297 
L 359.235425 6.330297 
L 359.235425 6.330297 
L 460.8 6.330297 
" style="fill:none;stroke:#ff0000;stroke-linecap:square;stroke-width:3;"/>
   </g>
   <g id="line2d_22">
    <path clip-path="url(#p04123a59cc)" d="M 268.52378 293.76 
L 268.52378 288.969505 
L 268.523846 288.969505 
L 268.523846 284.17901 
L 268.523907 284.17901 
L 268.523907 279.388515 
L 268.523934 279.388515 
L 268.523934 274.59802 
L 268.523942 274.59802 
L 268.523942 269.807525 
L 268.523963 269.807525 
L 268.523963 265.01703 
L 268.524016 265.01703 
L 268.524016 260.226535 
L 268.524082 260.226535 
L 268.524082 255.43604 
L 268.524095 255.43604 
L 268.524095 250.645545 
L 268.524098 250.645545 
L 268.524098 245.85505 
L 268.524136 245.85505 
L 268.524136 241.064554 
L 268.524137 241.064554 
L 268.524137 236.274059 
L 268.524275 236.274059 
L 268.524275 231.483564 
L 268.524287 231.483564 
L 268.524287 226.693069 
L 268.524512 226.693069 
L 268.524512 221.902574 
L 284.341973 221.902574 
L 284.341973 217.112079 
L 287.074801 217.112079 
L 287.074801 212.321584 
L 288.795682 212.321584 
L 288.795682 207.531089 
L 289.827701 207.531089 
L 289.827701 202.740594 
L 290.066782 202.740594 
L 290.066782 197.950099 
L 290.5605 197.950099 
L 290.5605 193.159604 
L 291.010728 193.159604 
L 291.010728 188.369109 
L 291.868383 188.369109 
L 291.868383 183.578614 
L 294.796744 183.578614 
L 294.796744 178.788119 
L 296.635859 178.788119 
L 296.635859 173.997624 
L 296.774705 173.997624 
L 296.774705 169.207129 
L 299.217491 169.207129 
L 299.217491 164.416634 
L 299.407025 164.416634 
L 299.407025 159.626139 
L 302.619768 159.626139 
L 302.619768 154.835644 
L 303.985403 154.835644 
L 303.985403 150.045149 
L 330.128901 150.045149 
L 330.128901 145.254653 
L 330.396212 145.254653 
L 330.396212 140.464158 
L 331.044236 140.464158 
L 331.044236 135.673663 
L 334.122425 135.673663 
L 334.122425 130.883168 
L 335.114755 130.883168 
L 335.114755 126.092673 
L 337.211448 126.092673 
L 337.211448 121.302178 
L 337.897516 121.302178 
L 337.897516 116.511683 
L 337.957312 116.511683 
L 337.957312 111.721188 
L 338.990533 111.721188 
L 338.990533 106.930693 
L 339.04241 106.930693 
L 339.04241 102.140198 
L 339.274395 102.140198 
L 339.274395 97.349703 
L 341.670576 97.349703 
L 341.670576 92.559208 
L 342.719052 92.559208 
L 342.719052 87.768713 
L 343.121723 87.768713 
L 343.121723 82.978218 
L 343.84034 82.978218 
L 343.84034 78.187723 
L 349.070481 78.187723 
L 349.070481 73.397228 
L 351.897779 73.397228 
L 351.897779 68.606733 
L 358.198545 68.606733 
L 358.198545 63.816238 
L 359.700912 63.816238 
L 359.700912 59.025743 
L 360.787898 59.025743 
L 360.787898 54.235248 
L 361.308211 54.235248 
L 361.308211 49.444752 
L 362.187665 49.444752 
L 362.187665 44.654257 
L 366.037281 44.654257 
L 366.037281 39.863762 
L 366.206496 39.863762 
L 366.206496 35.073267 
L 366.213944 35.073267 
L 366.213944 30.282772 
L 367.479242 30.282772 
L 367.479242 25.492277 
L 368.330029 25.492277 
L 368.330029 20.701782 
L 369.607479 20.701782 
L 369.607479 15.911287 
L 372.574154 15.911287 
L 372.574154 11.120792 
L 373.863067 11.120792 
L 373.863067 6.330297 
L 373.863067 6.330297 
L 373.863067 6.330297 
L 460.8 6.330297 
" style="fill:none;stroke:#00bfbf;stroke-linecap:square;stroke-width:1.5;"/>
   </g>
   <g id="line2d_23">
    <path clip-path="url(#p04123a59cc)" d="M 268.523624 293.76 
L 268.523624 288.969505 
L 268.523657 288.969505 
L 268.523657 284.17901 
L 268.52369 284.17901 
L 268.52369 279.388515 
L 268.523722 279.388515 
L 268.523722 274.59802 
L 268.523773 274.59802 
L 268.523773 269.807525 
L 268.52378 269.807525 
L 268.52378 265.01703 
L 268.523798 265.01703 
L 268.523798 260.226535 
L 268.523886 260.226535 
L 268.523886 255.43604 
L 268.523894 255.43604 
L 268.523894 250.645545 
L 268.523898 250.645545 
L 268.523898 245.85505 
L 268.523934 245.85505 
L 268.523934 241.064554 
L 268.523972 241.064554 
L 268.523972 236.274059 
L 268.524016 236.274059 
L 268.524016 231.483564 
L 268.524098 231.483564 
L 268.524098 226.693069 
L 268.524137 226.693069 
L 268.524137 221.902574 
L 284.341973 221.902574 
L 284.341973 217.112079 
L 287.074801 217.112079 
L 287.074801 212.321584 
L 288.795682 212.321584 
L 288.795682 207.531089 
L 289.827701 207.531089 
L 289.827701 202.740594 
L 290.066782 202.740594 
L 290.066782 197.950099 
L 290.5605 197.950099 
L 290.5605 193.159604 
L 291.010728 193.159604 
L 291.010728 188.369109 
L 291.868383 188.369109 
L 291.868383 183.578614 
L 294.796744 183.578614 
L 294.796744 178.788119 
L 296.635859 178.788119 
L 296.635859 173.997624 
L 296.774705 173.997624 
L 296.774705 169.207129 
L 299.217491 169.207129 
L 299.217491 164.416634 
L 299.407025 164.416634 
L 299.407025 159.626139 
L 302.619768 159.626139 
L 302.619768 154.835644 
L 303.985403 154.835644 
L 303.985403 150.045149 
L 330.128053 150.045149 
L 330.128053 145.254653 
L 330.39441 145.254653 
L 330.39441 140.464158 
L 331.043034 140.464158 
L 331.043034 135.673663 
L 334.120863 135.673663 
L 334.120863 130.883168 
L 335.114222 130.883168 
L 335.114222 126.092673 
L 337.210142 126.092673 
L 337.210142 121.302178 
L 337.896685 121.302178 
L 337.896685 116.511683 
L 337.956375 116.511683 
L 337.956375 111.721188 
L 338.989899 111.721188 
L 338.989899 106.930693 
L 339.041762 106.930693 
L 339.041762 102.140198 
L 339.273295 102.140198 
L 339.273295 97.349703 
L 341.669991 97.349703 
L 341.669991 92.559208 
L 342.718696 92.559208 
L 342.718696 87.768713 
L 343.121199 87.768713 
L 343.121199 82.978218 
L 343.839969 82.978218 
L 343.839969 78.187723 
L 349.069816 78.187723 
L 349.069816 73.397228 
L 351.897456 73.397228 
L 351.897456 68.606733 
L 358.198336 68.606733 
L 358.198336 63.816238 
L 359.700698 63.816238 
L 359.700698 59.025743 
L 360.787766 59.025743 
L 360.787766 54.235248 
L 361.308211 54.235248 
L 361.308211 49.444752 
L 362.187182 49.444752 
L 362.187182 44.654257 
L 366.037281 44.654257 
L 366.037281 39.863762 
L 366.206496 39.863762 
L 366.206496 35.073267 
L 366.213944 35.073267 
L 366.213944 30.282772 
L 367.479205 30.282772 
L 367.479205 25.492277 
L 368.32987 25.492277 
L 368.32987 20.701782 
L 369.60731 20.701782 
L 369.60731 15.911287 
L 372.5741 15.911287 
L 372.5741 11.120792 
L 373.862999 11.120792 
L 373.862999 6.330297 
L 373.862999 6.330297 
L 373.862999 6.330297 
L 460.8 6.330297 
" style="fill:none;stroke:#bf00bf;stroke-linecap:square;stroke-width:1.5;"/>
   </g>
   <g id="line2d_24">
    <path clip-path="url(#p04123a59cc)" d="M 268.520168 293.76 
L 268.520168 288.969505 
L 268.520181 288.969505 
L 268.520181 284.17901 
L 268.520203 284.17901 
L 268.520203 279.388515 
L 268.520462 279.388515 
L 268.520462 274.59802 
L 268.520501 274.59802 
L 268.520501 269.807525 
L 268.52058 269.807525 
L 268.52058 265.01703 
L 268.520583 265.01703 
L 268.520583 260.226535 
L 268.520627 260.226535 
L 268.520627 255.43604 
L 268.520664 255.43604 
L 268.520664 250.645545 
L 268.520747 250.645545 
L 268.520747 245.85505 
L 268.520898 245.85505 
L 268.520898 241.064554 
L 268.52094 241.064554 
L 268.52094 236.274059 
L 268.52105 236.274059 
L 268.52105 231.483564 
L 268.521427 231.483564 
L 268.521427 226.693069 
L 268.521526 226.693069 
L 268.521526 221.902574 
L 284.341973 221.902574 
L 284.341973 217.112079 
L 287.074801 217.112079 
L 287.074801 212.321584 
L 288.795682 212.321584 
L 288.795682 207.531089 
L 289.827701 207.531089 
L 289.827701 202.740594 
L 290.066782 202.740594 
L 290.066782 197.950099 
L 290.5605 197.950099 
L 290.5605 193.159604 
L 291.010728 193.159604 
L 291.010728 188.369109 
L 291.868383 188.369109 
L 291.868383 183.578614 
L 294.796744 183.578614 
L 294.796744 178.788119 
L 296.635859 178.788119 
L 296.635859 173.997624 
L 296.774705 173.997624 
L 296.774705 169.207129 
L 299.217491 169.207129 
L 299.217491 164.416634 
L 299.407025 164.416634 
L 299.407025 159.626139 
L 302.619768 159.626139 
L 302.619768 154.835644 
L 303.985403 154.835644 
L 303.985403 150.045149 
L 330.124652 150.045149 
L 330.124652 145.254653 
L 330.391054 145.254653 
L 330.391054 140.464158 
L 331.038852 140.464158 
L 331.038852 135.673663 
L 334.117524 135.673663 
L 334.117524 130.883168 
L 335.111378 130.883168 
L 335.111378 126.092673 
L 337.207498 126.092673 
L 337.207498 121.302178 
L 337.893615 121.302178 
L 337.893615 116.511683 
L 337.952915 116.511683 
L 337.952915 111.721188 
L 338.987122 111.721188 
L 338.987122 106.930693 
L 339.039072 106.930693 
L 339.039072 102.140198 
L 339.270073 102.140198 
L 339.270073 97.349703 
L 341.66766 97.349703 
L 341.66766 92.559208 
L 342.716746 92.559208 
L 342.716746 87.768713 
L 343.119037 87.768713 
L 343.119037 82.978218 
L 343.837948 82.978218 
L 343.837948 78.187723 
L 349.066557 78.187723 
L 349.066557 73.397228 
L 351.895108 73.397228 
L 351.895108 68.606733 
L 358.196633 68.606733 
L 358.196633 63.816238 
L 359.699504 63.816238 
L 359.699504 59.025743 
L 360.78571 59.025743 
L 360.78571 54.235248 
L 361.306484 54.235248 
L 361.306484 49.444752 
L 362.184886 49.444752 
L 362.184886 44.654257 
L 366.036751 44.654257 
L 366.036751 39.863762 
L 366.206266 39.863762 
L 366.206266 35.073267 
L 366.21371 35.073267 
L 366.21371 30.282772 
L 367.477335 30.282772 
L 367.477335 25.492277 
L 368.328004 25.492277 
L 368.328004 20.701782 
L 369.60484 20.701782 
L 369.60484 15.911287 
L 372.572744 15.911287 
L 372.572744 11.120792 
L 373.862584 11.120792 
L 373.862584 6.330297 
L 373.862584 6.330297 
L 373.862584 6.330297 
L 460.8 6.330297 
" style="fill:none;stroke:#000000;stroke-linecap:square;stroke-width:1.5;"/>
   </g>
   <g id="line2d_25">
    <path clip-path="url(#p04123a59cc)" d="M 268.436258 293.76 
L 268.436258 288.969505 
L 268.43962 288.969505 
L 268.43962 284.17901 
L 268.444748 284.17901 
L 268.444748 279.388515 
L 268.448129 279.388515 
L 268.448129 274.59802 
L 268.449824 274.59802 
L 268.449824 269.807525 
L 268.451861 269.807525 
L 268.451861 265.01703 
L 268.453417 265.01703 
L 268.453417 260.226535 
L 268.453811 260.226535 
L 268.453811 255.43604 
L 268.453834 255.43604 
L 268.453834 250.645545 
L 268.456411 250.645545 
L 268.456411 245.85505 
L 268.45685 245.85505 
L 268.45685 241.064554 
L 268.457751 241.064554 
L 268.457751 236.274059 
L 268.458028 236.274059 
L 268.458028 231.483564 
L 268.458176 231.483564 
L 268.458176 226.693069 
L 268.461093 226.693069 
L 268.461093 221.902574 
L 284.341973 221.902574 
L 284.341973 217.112079 
L 287.074801 217.112079 
L 287.074801 212.321584 
L 288.795682 212.321584 
L 288.795682 207.531089 
L 289.827701 207.531089 
L 289.827701 202.740594 
L 290.066782 202.740594 
L 290.066782 197.950099 
L 290.5605 197.950099 
L 290.5605 193.159604 
L 291.010728 193.159604 
L 291.010728 188.369109 
L 291.868383 188.369109 
L 291.868383 183.578614 
L 294.796744 183.578614 
L 294.796744 178.788119 
L 296.635859 178.788119 
L 296.635859 173.997624 
L 296.774705 173.997624 
L 296.774705 169.207129 
L 299.217491 169.207129 
L 299.217491 164.416634 
L 299.407025 164.416634 
L 299.407025 159.626139 
L 302.619768 159.626139 
L 302.619768 154.835644 
L 303.985403 154.835644 
L 303.985403 150.045149 
L 330.02955 150.045149 
L 330.02955 145.254653 
L 330.270962 145.254653 
L 330.270962 140.464158 
L 330.936367 140.464158 
L 330.936367 135.673663 
L 334.024168 135.673663 
L 334.024168 130.883168 
L 335.033671 130.883168 
L 335.033671 126.092673 
L 337.117152 126.092673 
L 337.117152 121.302178 
L 337.822254 121.302178 
L 337.822254 116.511683 
L 337.874142 116.511683 
L 337.874142 111.721188 
L 338.922843 111.721188 
L 338.922843 106.930693 
L 338.958955 106.930693 
L 338.958955 102.140198 
L 339.190773 102.140198 
L 339.190773 97.349703 
L 341.611787 97.349703 
L 341.611787 92.559208 
L 342.662373 92.559208 
L 342.662373 87.768713 
L 343.05401 87.768713 
L 343.05401 82.978218 
L 343.780687 82.978218 
L 343.780687 78.187723 
L 348.996293 78.187723 
L 348.996293 73.397228 
L 351.830986 73.397228 
L 351.830986 68.606733 
L 358.160768 68.606733 
L 358.160768 63.816238 
L 359.675271 63.816238 
L 359.675271 59.025743 
L 360.726408 59.025743 
L 360.726408 54.235248 
L 361.25433 54.235248 
L 361.25433 49.444752 
L 362.119377 49.444752 
L 362.119377 44.654257 
L 366.025881 44.654257 
L 366.025881 39.863762 
L 366.201454 39.863762 
L 366.201454 35.073267 
L 366.209229 35.073267 
L 366.209229 30.282772 
L 367.4401 30.282772 
L 367.4401 25.492277 
L 368.271425 25.492277 
L 368.271425 20.701782 
L 369.553404 20.701782 
L 369.553404 15.911287 
L 372.544265 15.911287 
L 372.544265 11.120792 
L 373.850776 11.120792 
L 373.850776 6.330297 
L 373.850776 6.330297 
L 373.850776 6.330297 
L 460.8 6.330297 
" style="fill:none;stroke:#00bfbf;stroke-linecap:square;stroke-width:1.5;"/>
   </g>
   <g id="line2d_26">
    <path clip-path="url(#p04123a59cc)" d="M 264.251624 293.76 
L 264.251624 288.969505 
L 264.978546 288.969505 
L 264.978546 284.17901 
L 265.074735 284.17901 
L 265.074735 279.388515 
L 265.808972 279.388515 
L 265.808972 274.59802 
L 265.828923 274.59802 
L 265.828923 269.807525 
L 265.904659 269.807525 
L 265.904659 265.01703 
L 265.971915 265.01703 
L 265.971915 260.226535 
L 265.990518 260.226535 
L 265.990518 255.43604 
L 266.001314 255.43604 
L 266.001314 250.645545 
L 266.291765 250.645545 
L 266.291765 245.85505 
L 266.362031 245.85505 
L 266.362031 241.064554 
L 266.433786 241.064554 
L 266.433786 236.274059 
L 266.552131 236.274059 
L 266.552131 231.483564 
L 266.770597 231.483564 
L 266.770597 226.693069 
L 267.379567 226.693069 
L 267.379567 221.902574 
L 284.341973 221.902574 
L 284.341973 217.112079 
L 287.074801 217.112079 
L 287.074801 212.321584 
L 288.795682 212.321584 
L 288.795682 207.531089 
L 289.827701 207.531089 
L 289.827701 202.740594 
L 290.066782 202.740594 
L 290.066782 197.950099 
L 290.5605 197.950099 
L 290.5605 193.159604 
L 291.010728 193.159604 
L 291.010728 188.369109 
L 291.868383 188.369109 
L 291.868383 183.578614 
L 294.796744 183.578614 
L 294.796744 178.788119 
L 296.635859 178.788119 
L 296.635859 173.997624 
L 296.774705 173.997624 
L 296.774705 169.207129 
L 299.217491 169.207129 
L 299.217491 164.416634 
L 299.407025 164.416634 
L 299.407025 159.626139 
L 302.619768 159.626139 
L 302.619768 154.835644 
L 302.999471 154.835644 
L 302.999471 150.045149 
L 303.985403 150.045149 
L 303.985403 145.254653 
L 313.418479 145.254653 
L 313.418479 140.464158 
L 314.549014 140.464158 
L 314.549014 135.673663 
L 318.224644 135.673663 
L 318.224644 130.883168 
L 319.287847 130.883168 
L 319.287847 126.092673 
L 319.824285 126.092673 
L 319.824285 121.302178 
L 319.878783 121.302178 
L 319.878783 116.511683 
L 319.918372 116.511683 
L 319.918372 111.721188 
L 323.430325 111.721188 
L 323.430325 106.930693 
L 323.842613 106.930693 
L 323.842613 102.140198 
L 326.852884 102.140198 
L 326.852884 97.349703 
L 327.698148 97.349703 
L 327.698148 92.559208 
L 328.094966 92.559208 
L 328.094966 87.768713 
L 329.16498 87.768713 
L 329.16498 82.978218 
L 330.123772 82.978218 
L 330.123772 78.187723 
L 333.563895 78.187723 
L 333.563895 73.397228 
L 335.92254 73.397228 
L 335.92254 68.606733 
L 339.152817 68.606733 
L 339.152817 63.816238 
L 341.739952 63.816238 
L 341.739952 59.025743 
L 344.704351 59.025743 
L 344.704351 54.235248 
L 346.851885 54.235248 
L 346.851885 49.444752 
L 347.077117 49.444752 
L 347.077117 44.654257 
L 347.830359 44.654257 
L 347.830359 39.863762 
L 348.674668 39.863762 
L 348.674668 35.073267 
L 350.415237 35.073267 
L 350.415237 30.282772 
L 350.499086 30.282772 
L 350.499086 25.492277 
L 351.742041 25.492277 
L 351.742041 20.701782 
L 358.490255 20.701782 
L 358.490255 15.911287 
L 358.665463 15.911287 
L 358.665463 11.120792 
L 360.283128 11.120792 
L 360.283128 6.330297 
L 360.283128 6.330297 
L 360.283128 6.330297 
L 460.8 6.330297 
" style="fill:none;stroke:#bf00bf;stroke-linecap:square;stroke-width:1.5;"/>
   </g>
   <g id="patch_3">
    <path d="M 0 293.76 
L 0 3.456 
" style="fill:none;stroke:#000000;stroke-linecap:square;stroke-linejoin:miter;stroke-width:0.8;"/>
   </g>
   <g id="patch_4">
    <path d="M 460.8 293.76 
L 460.8 3.456 
" style="fill:none;stroke:#000000;stroke-linecap:square;stroke-linejoin:miter;stroke-width:0.8;"/>
   </g>
   <g id="patch_5">
    <path d="M 0 293.76 
L 460.8 293.76 
" style="fill:none;stroke:#000000;stroke-linecap:square;stroke-linejoin:miter;stroke-width:0.8;"/>
   </g>
   <g id="patch_6">
    <path d="M 0 3.456 
L 460.8 3.456 
" style="fill:none;stroke:#000000;stroke-linecap:square;stroke-linejoin:miter;stroke-width:0.8;"/>
   </g>
   <g id="text_6">
    <!-- {f6-f9}, 20-D -->
    <g transform="translate(318.609 287.95392)scale(0.2 -0.2)">
     <defs>
      <path d="M 51.125 -9.28125 
L 51.125 -16.3125 
L 48.09375 -16.3125 
Q 35.9375 -16.3125 31.8125 -12.6875 
Q 27.6875 -9.078125 27.6875 1.703125 
L 27.6875 13.375 
Q 27.6875 20.75 25.046875 23.578125 
Q 22.40625 26.421875 15.484375 26.421875 
L 12.5 26.421875 
L 12.5 33.40625 
L 15.484375 33.40625 
Q 22.46875 33.40625 25.078125 36.203125 
Q 27.6875 39.015625 27.6875 46.296875 
L 27.6875 58.015625 
Q 27.6875 68.796875 31.8125 72.390625 
Q 35.9375 75.984375 48.09375 75.984375 
L 51.125 75.984375 
L 51.125 69 
L 47.796875 69 
Q 40.921875 69 38.8125 66.84375 
Q 36.71875 64.703125 36.71875 57.8125 
L 36.71875 45.703125 
Q 36.71875 38.03125 34.5 34.5625 
Q 32.28125 31.109375 26.90625 29.890625 
Q 32.328125 28.5625 34.515625 25.09375 
Q 36.71875 21.625 36.71875 14.015625 
L 36.71875 1.90625 
Q 36.71875 -4.984375 38.8125 -7.125 
Q 40.921875 -9.28125 47.796875 -9.28125 
z
" id="DejaVuSans-123"/>
      <path d="M 33.015625 40.375 
Q 26.375 40.375 22.484375 35.828125 
Q 18.609375 31.296875 18.609375 23.390625 
Q 18.609375 15.53125 22.484375 10.953125 
Q 26.375 6.390625 33.015625 6.390625 
Q 39.65625 6.390625 43.53125 10.953125 
Q 47.40625 15.53125 47.40625 23.390625 
Q 47.40625 31.296875 43.53125 35.828125 
Q 39.65625 40.375 33.015625 40.375 
z
M 52.59375 71.296875 
L 52.59375 62.3125 
Q 48.875 64.0625 45.09375 64.984375 
Q 41.3125 65.921875 37.59375 65.921875 
Q 27.828125 65.921875 22.671875 59.328125 
Q 17.53125 52.734375 16.796875 39.40625 
Q 19.671875 43.65625 24.015625 45.921875 
Q 28.375 48.1875 33.59375 48.1875 
Q 44.578125 48.1875 50.953125 41.515625 
Q 57.328125 34.859375 57.328125 23.390625 
Q 57.328125 12.15625 50.6875 5.359375 
Q 44.046875 -1.421875 33.015625 -1.421875 
Q 20.359375 -1.421875 13.671875 8.265625 
Q 6.984375 17.96875 6.984375 36.375 
Q 6.984375 53.65625 15.1875 63.9375 
Q 23.390625 74.21875 37.203125 74.21875 
Q 40.921875 74.21875 44.703125 73.484375 
Q 48.484375 72.75 52.59375 71.296875 
z
" id="DejaVuSans-54"/>
      <path d="M 10.984375 1.515625 
L 10.984375 10.5 
Q 14.703125 8.734375 18.5 7.8125 
Q 22.3125 6.890625 25.984375 6.890625 
Q 35.75 6.890625 40.890625 13.453125 
Q 46.046875 20.015625 46.78125 33.40625 
Q 43.953125 29.203125 39.59375 26.953125 
Q 35.25 24.703125 29.984375 24.703125 
Q 19.046875 24.703125 12.671875 31.3125 
Q 6.296875 37.9375 6.296875 49.421875 
Q 6.296875 60.640625 12.9375 67.421875 
Q 19.578125 74.21875 30.609375 74.21875 
Q 43.265625 74.21875 49.921875 64.515625 
Q 56.59375 54.828125 56.59375 36.375 
Q 56.59375 19.140625 48.40625 8.859375 
Q 40.234375 -1.421875 26.421875 -1.421875 
Q 22.703125 -1.421875 18.890625 -0.6875 
Q 15.09375 0.046875 10.984375 1.515625 
z
M 30.609375 32.421875 
Q 37.25 32.421875 41.125 36.953125 
Q 45.015625 41.5 45.015625 49.421875 
Q 45.015625 57.28125 41.125 61.84375 
Q 37.25 66.40625 30.609375 66.40625 
Q 23.96875 66.40625 20.09375 61.84375 
Q 16.21875 57.28125 16.21875 49.421875 
Q 16.21875 41.5 20.09375 36.953125 
Q 23.96875 32.421875 30.609375 32.421875 
z
" id="DejaVuSans-57"/>
      <path d="M 12.5 -9.28125 
L 15.921875 -9.28125 
Q 22.75 -9.28125 24.828125 -7.171875 
Q 26.90625 -5.078125 26.90625 1.90625 
L 26.90625 14.015625 
Q 26.90625 21.625 29.09375 25.09375 
Q 31.296875 28.5625 36.71875 29.890625 
Q 31.296875 31.109375 29.09375 34.5625 
Q 26.90625 38.03125 26.90625 45.703125 
L 26.90625 57.8125 
Q 26.90625 64.75 24.828125 66.875 
Q 22.75 69 15.921875 69 
L 12.5 69 
L 12.5 75.984375 
L 15.578125 75.984375 
Q 27.734375 75.984375 31.8125 72.390625 
Q 35.890625 68.796875 35.890625 58.015625 
L 35.890625 46.296875 
Q 35.890625 39.015625 38.515625 36.203125 
Q 41.15625 33.40625 48.09375 33.40625 
L 51.125 33.40625 
L 51.125 26.421875 
L 48.09375 26.421875 
Q 41.15625 26.421875 38.515625 23.578125 
Q 35.890625 20.75 35.890625 13.375 
L 35.890625 1.703125 
Q 35.890625 -9.078125 31.8125 -12.6875 
Q 27.734375 -16.3125 15.578125 -16.3125 
L 12.5 -16.3125 
z
" id="DejaVuSans-125"/>
      <path d="M 11.71875 12.40625 
L 22.015625 12.40625 
L 22.015625 4 
L 14.015625 -11.625 
L 7.71875 -11.625 
L 11.71875 4 
z
" id="DejaVuSans-44"/>
      <path d="M 19.1875 8.296875 
L 53.609375 8.296875 
L 53.609375 0 
L 7.328125 0 
L 7.328125 8.296875 
Q 12.9375 14.109375 22.625 23.890625 
Q 32.328125 33.6875 34.8125 36.53125 
Q 39.546875 41.84375 41.421875 45.53125 
Q 43.3125 49.21875 43.3125 52.78125 
Q 43.3125 58.59375 39.234375 62.25 
Q 35.15625 65.921875 28.609375 65.921875 
Q 23.96875 65.921875 18.8125 64.3125 
Q 13.671875 62.703125 7.8125 59.421875 
L 7.8125 69.390625 
Q 13.765625 71.78125 18.9375 73 
Q 24.125 74.21875 28.421875 74.21875 
Q 39.75 74.21875 46.484375 68.546875 
Q 53.21875 62.890625 53.21875 53.421875 
Q 53.21875 48.921875 51.53125 44.890625 
Q 49.859375 40.875 45.40625 35.40625 
Q 44.1875 33.984375 37.640625 27.21875 
Q 31.109375 20.453125 19.1875 8.296875 
z
" id="DejaVuSans-50"/>
     </defs>
     <use xlink:href="#DejaVuSans-123"/>
     <use x="63.623047" xlink:href="#DejaVuSans-102"/>
     <use x="98.828125" xlink:href="#DejaVuSans-54"/>
     <use x="162.451172" xlink:href="#DejaVuSans-45"/>
     <use x="198.535156" xlink:href="#DejaVuSans-102"/>
     <use x="233.740234" xlink:href="#DejaVuSans-57"/>
     <use x="297.363281" xlink:href="#DejaVuSans-125"/>
     <use x="360.986328" xlink:href="#DejaVuSans-44"/>
     <use x="392.773438" xlink:href="#DejaVuSans-32"/>
     <use x="424.560547" xlink:href="#DejaVuSans-50"/>
     <use x="488.183594" xlink:href="#DejaVuSans-48"/>
     <use x="551.806641" xlink:href="#DejaVuSans-45"/>
     <use x="587.890625" xlink:href="#DejaVuSans-68"/>
    </g>
   </g>
   <g id="text_7">
    <!-- v2.4 -->
    <g style="fill:#808080;" transform="translate(219.489063 288.777272)scale(0.1 -0.1)">
     <defs>
      <path d="M 2.984375 54.6875 
L 12.5 54.6875 
L 29.59375 8.796875 
L 46.6875 54.6875 
L 56.203125 54.6875 
L 35.6875 0 
L 23.484375 0 
z
" id="DejaVuSans-118"/>
      <path d="M 10.6875 12.40625 
L 21 12.40625 
L 21 0 
L 10.6875 0 
z
" id="DejaVuSans-46"/>
     </defs>
     <use xlink:href="#DejaVuSans-118"/>
     <use x="59.179688" xlink:href="#DejaVuSans-50"/>
     <use x="122.802734" xlink:href="#DejaVuSans-46"/>
     <use x="154.589844" xlink:href="#DejaVuSans-52"/>
    </g>
   </g>
  </g>
 </g>
 <defs>
  <clipPath id="p04123a59cc">
   <rect height="290.304" width="460.8" x="0" y="3.456"/>
  </clipPath>
 </defs>
</svg>
