<?xml version="1.0" encoding="utf-8" standalone="no"?>
<!DOCTYPE svg PUBLIC "-//W3C//DTD SVG 1.1//EN"
  "http://www.w3.org/Graphics/SVG/1.1/DTD/svg11.dtd">
<!-- Created with matplotlib (https://matplotlib.org/) -->
<svg height="345.6pt" version="1.1" viewBox="0 0 460.8 345.6" width="460.8pt" xmlns="http://www.w3.org/2000/svg" xmlns:xlink="http://www.w3.org/1999/xlink">
 <metadata>
  <rdf:RDF xmlns:cc="http://creativecommons.org/ns#" xmlns:dc="http://purl.org/dc/elements/1.1/" xmlns:rdf="http://www.w3.org/1999/02/22-rdf-syntax-ns#">
   <cc:Work>
    <dc:type rdf:resource="http://purl.org/dc/dcmitype/StillImage"/>
    <dc:date>2021-08-04T10:26:02.254041</dc:date>
    <dc:format>image/svg+xml</dc:format>
    <dc:creator>
     <cc:Agent>
      <dc:title>Matplotlib v3.3.1, https://matplotlib.org/</dc:title>
     </cc:Agent>
    </dc:creator>
   </cc:Work>
  </rdf:RDF>
 </metadata>
 <defs>
  <style type="text/css">*{stroke-linecap:butt;stroke-linejoin:round;}</style>
 </defs>
 <g id="figure_1">
  <g id="patch_1">
   <path d="M 0 345.6 
L 460.8 345.6 
L 460.8 0 
L 0 0 
z
" style="fill:#ffffff;"/>
  </g>
  <g id="axes_1">
   <g id="patch_2">
    <path d="M 0 293.76 
L 460.8 293.76 
L 460.8 3.456 
L 0 3.456 
z
" style="fill:#ffffff;"/>
   </g>
   <g id="matplotlib.axis_1">
    <g id="xtick_1">
     <g id="line2d_1">
      <path clip-path="url(#pc325458f25)" d="M 106.364787 293.76 
L 106.364787 3.456 
" style="fill:none;stroke:#b0b0b0;stroke-linecap:square;stroke-width:0.8;"/>
     </g>
     <g id="line2d_2">
      <defs>
       <path d="M 0 0 
L 0 3.5 
" id="m7c80b3340d" style="stroke:#000000;stroke-width:0.8;"/>
      </defs>
      <g>
       <use style="stroke:#000000;stroke-width:0.8;" x="106.364787" xlink:href="#m7c80b3340d" y="293.76"/>
      </g>
     </g>
     <g id="text_1">
      <!-- -4 -->
      <g transform="translate(96.394475 315.956875)scale(0.2 -0.2)">
       <defs>
        <path d="M 4.890625 31.390625 
L 31.203125 31.390625 
L 31.203125 23.390625 
L 4.890625 23.390625 
z
" id="DejaVuSans-45"/>
        <path d="M 37.796875 64.3125 
L 12.890625 25.390625 
L 37.796875 25.390625 
z
M 35.203125 72.90625 
L 47.609375 72.90625 
L 47.609375 25.390625 
L 58.015625 25.390625 
L 58.015625 17.1875 
L 47.609375 17.1875 
L 47.609375 0 
L 37.796875 0 
L 37.796875 17.1875 
L 4.890625 17.1875 
L 4.890625 26.703125 
z
" id="DejaVuSans-52"/>
       </defs>
       <use xlink:href="#DejaVuSans-45"/>
       <use x="36.083984" xlink:href="#DejaVuSans-52"/>
      </g>
     </g>
    </g>
    <g id="xtick_2">
     <g id="line2d_3">
      <path clip-path="url(#pc325458f25)" d="M 212.84461 293.76 
L 212.84461 3.456 
" style="fill:none;stroke:#b0b0b0;stroke-linecap:square;stroke-width:0.8;"/>
     </g>
     <g id="line2d_4">
      <g>
       <use style="stroke:#000000;stroke-width:0.8;" x="212.84461" xlink:href="#m7c80b3340d" y="293.76"/>
      </g>
     </g>
     <g id="text_2">
      <!-- 0 -->
      <g transform="translate(206.48211 315.956875)scale(0.2 -0.2)">
       <defs>
        <path d="M 31.78125 66.40625 
Q 24.171875 66.40625 20.328125 58.90625 
Q 16.5 51.421875 16.5 36.375 
Q 16.5 21.390625 20.328125 13.890625 
Q 24.171875 6.390625 31.78125 6.390625 
Q 39.453125 6.390625 43.28125 13.890625 
Q 47.125 21.390625 47.125 36.375 
Q 47.125 51.421875 43.28125 58.90625 
Q 39.453125 66.40625 31.78125 66.40625 
z
M 31.78125 74.21875 
Q 44.046875 74.21875 50.515625 64.515625 
Q 56.984375 54.828125 56.984375 36.375 
Q 56.984375 17.96875 50.515625 8.265625 
Q 44.046875 -1.421875 31.78125 -1.421875 
Q 19.53125 -1.421875 13.0625 8.265625 
Q 6.59375 17.96875 6.59375 36.375 
Q 6.59375 54.828125 13.0625 64.515625 
Q 19.53125 74.21875 31.78125 74.21875 
z
" id="DejaVuSans-48"/>
       </defs>
       <use xlink:href="#DejaVuSans-48"/>
      </g>
     </g>
    </g>
    <g id="xtick_3">
     <g id="line2d_5">
      <path clip-path="url(#pc325458f25)" d="M 319.324432 293.76 
L 319.324432 3.456 
" style="fill:none;stroke:#b0b0b0;stroke-linecap:square;stroke-width:0.8;"/>
     </g>
     <g id="line2d_6">
      <g>
       <use style="stroke:#000000;stroke-width:0.8;" x="319.324432" xlink:href="#m7c80b3340d" y="293.76"/>
      </g>
     </g>
     <g id="text_3">
      <!-- 4 -->
      <g transform="translate(312.961932 315.956875)scale(0.2 -0.2)">
       <use xlink:href="#DejaVuSans-52"/>
      </g>
     </g>
    </g>
    <g id="xtick_4">
     <g id="line2d_7">
      <path clip-path="url(#pc325458f25)" d="M 425.804254 293.76 
L 425.804254 3.456 
" style="fill:none;stroke:#b0b0b0;stroke-linecap:square;stroke-width:0.8;"/>
     </g>
     <g id="line2d_8">
      <g>
       <use style="stroke:#000000;stroke-width:0.8;" x="425.804254" xlink:href="#m7c80b3340d" y="293.76"/>
      </g>
     </g>
     <g id="text_4">
      <!-- 8 -->
      <g transform="translate(419.441754 315.956875)scale(0.2 -0.2)">
       <defs>
        <path d="M 31.78125 34.625 
Q 24.75 34.625 20.71875 30.859375 
Q 16.703125 27.09375 16.703125 20.515625 
Q 16.703125 13.921875 20.71875 10.15625 
Q 24.75 6.390625 31.78125 6.390625 
Q 38.8125 6.390625 42.859375 10.171875 
Q 46.921875 13.96875 46.921875 20.515625 
Q 46.921875 27.09375 42.890625 30.859375 
Q 38.875 34.625 31.78125 34.625 
z
M 21.921875 38.8125 
Q 15.578125 40.375 12.03125 44.71875 
Q 8.5 49.078125 8.5 55.328125 
Q 8.5 64.0625 14.71875 69.140625 
Q 20.953125 74.21875 31.78125 74.21875 
Q 42.671875 74.21875 48.875 69.140625 
Q 55.078125 64.0625 55.078125 55.328125 
Q 55.078125 49.078125 51.53125 44.71875 
Q 48 40.375 41.703125 38.8125 
Q 48.828125 37.15625 52.796875 32.3125 
Q 56.78125 27.484375 56.78125 20.515625 
Q 56.78125 9.90625 50.3125 4.234375 
Q 43.84375 -1.421875 31.78125 -1.421875 
Q 19.734375 -1.421875 13.25 4.234375 
Q 6.78125 9.90625 6.78125 20.515625 
Q 6.78125 27.484375 10.78125 32.3125 
Q 14.796875 37.15625 21.921875 38.8125 
z
M 18.3125 54.390625 
Q 18.3125 48.734375 21.84375 45.5625 
Q 25.390625 42.390625 31.78125 42.390625 
Q 38.140625 42.390625 41.71875 45.5625 
Q 45.3125 48.734375 45.3125 54.390625 
Q 45.3125 60.0625 41.71875 63.234375 
Q 38.140625 66.40625 31.78125 66.40625 
Q 25.390625 66.40625 21.84375 63.234375 
Q 18.3125 60.0625 18.3125 54.390625 
z
" id="DejaVuSans-56"/>
       </defs>
       <use xlink:href="#DejaVuSans-56"/>
      </g>
     </g>
    </g>
    <g id="text_5">
     <!-- log10 of Df -->
     <g transform="translate(175.214063 339.313125)scale(0.2 -0.2)">
      <defs>
       <path d="M 9.421875 75.984375 
L 18.40625 75.984375 
L 18.40625 0 
L 9.421875 0 
z
" id="DejaVuSans-108"/>
       <path d="M 30.609375 48.390625 
Q 23.390625 48.390625 19.1875 42.75 
Q 14.984375 37.109375 14.984375 27.296875 
Q 14.984375 17.484375 19.15625 11.84375 
Q 23.34375 6.203125 30.609375 6.203125 
Q 37.796875 6.203125 41.984375 11.859375 
Q 46.1875 17.53125 46.1875 27.296875 
Q 46.1875 37.015625 41.984375 42.703125 
Q 37.796875 48.390625 30.609375 48.390625 
z
M 30.609375 56 
Q 42.328125 56 49.015625 48.375 
Q 55.71875 40.765625 55.71875 27.296875 
Q 55.71875 13.875 49.015625 6.21875 
Q 42.328125 -1.421875 30.609375 -1.421875 
Q 18.84375 -1.421875 12.171875 6.21875 
Q 5.515625 13.875 5.515625 27.296875 
Q 5.515625 40.765625 12.171875 48.375 
Q 18.84375 56 30.609375 56 
z
" id="DejaVuSans-111"/>
       <path d="M 45.40625 27.984375 
Q 45.40625 37.75 41.375 43.109375 
Q 37.359375 48.484375 30.078125 48.484375 
Q 22.859375 48.484375 18.828125 43.109375 
Q 14.796875 37.75 14.796875 27.984375 
Q 14.796875 18.265625 18.828125 12.890625 
Q 22.859375 7.515625 30.078125 7.515625 
Q 37.359375 7.515625 41.375 12.890625 
Q 45.40625 18.265625 45.40625 27.984375 
z
M 54.390625 6.78125 
Q 54.390625 -7.171875 48.1875 -13.984375 
Q 42 -20.796875 29.203125 -20.796875 
Q 24.46875 -20.796875 20.265625 -20.09375 
Q 16.0625 -19.390625 12.109375 -17.921875 
L 12.109375 -9.1875 
Q 16.0625 -11.328125 19.921875 -12.34375 
Q 23.78125 -13.375 27.78125 -13.375 
Q 36.625 -13.375 41.015625 -8.765625 
Q 45.40625 -4.15625 45.40625 5.171875 
L 45.40625 9.625 
Q 42.625 4.78125 38.28125 2.390625 
Q 33.9375 0 27.875 0 
Q 17.828125 0 11.671875 7.65625 
Q 5.515625 15.328125 5.515625 27.984375 
Q 5.515625 40.671875 11.671875 48.328125 
Q 17.828125 56 27.875 56 
Q 33.9375 56 38.28125 53.609375 
Q 42.625 51.21875 45.40625 46.390625 
L 45.40625 54.6875 
L 54.390625 54.6875 
z
" id="DejaVuSans-103"/>
       <path d="M 12.40625 8.296875 
L 28.515625 8.296875 
L 28.515625 63.921875 
L 10.984375 60.40625 
L 10.984375 69.390625 
L 28.421875 72.90625 
L 38.28125 72.90625 
L 38.28125 8.296875 
L 54.390625 8.296875 
L 54.390625 0 
L 12.40625 0 
z
" id="DejaVuSans-49"/>
       <path id="DejaVuSans-32"/>
       <path d="M 37.109375 75.984375 
L 37.109375 68.5 
L 28.515625 68.5 
Q 23.6875 68.5 21.796875 66.546875 
Q 19.921875 64.59375 19.921875 59.515625 
L 19.921875 54.6875 
L 34.71875 54.6875 
L 34.71875 47.703125 
L 19.921875 47.703125 
L 19.921875 0 
L 10.890625 0 
L 10.890625 47.703125 
L 2.296875 47.703125 
L 2.296875 54.6875 
L 10.890625 54.6875 
L 10.890625 58.5 
Q 10.890625 67.625 15.140625 71.796875 
Q 19.390625 75.984375 28.609375 75.984375 
z
" id="DejaVuSans-102"/>
       <path d="M 19.671875 64.796875 
L 19.671875 8.109375 
L 31.59375 8.109375 
Q 46.6875 8.109375 53.6875 14.9375 
Q 60.6875 21.78125 60.6875 36.53125 
Q 60.6875 51.171875 53.6875 57.984375 
Q 46.6875 64.796875 31.59375 64.796875 
z
M 9.8125 72.90625 
L 30.078125 72.90625 
Q 51.265625 72.90625 61.171875 64.09375 
Q 71.09375 55.28125 71.09375 36.53125 
Q 71.09375 17.671875 61.125 8.828125 
Q 51.171875 0 30.078125 0 
L 9.8125 0 
z
" id="DejaVuSans-68"/>
      </defs>
      <use xlink:href="#DejaVuSans-108"/>
      <use x="27.783203" xlink:href="#DejaVuSans-111"/>
      <use x="88.964844" xlink:href="#DejaVuSans-103"/>
      <use x="152.441406" xlink:href="#DejaVuSans-49"/>
      <use x="216.064453" xlink:href="#DejaVuSans-48"/>
      <use x="279.6875" xlink:href="#DejaVuSans-32"/>
      <use x="311.474609" xlink:href="#DejaVuSans-111"/>
      <use x="372.65625" xlink:href="#DejaVuSans-102"/>
      <use x="407.861328" xlink:href="#DejaVuSans-32"/>
      <use x="439.648438" xlink:href="#DejaVuSans-68"/>
      <use x="516.650391" xlink:href="#DejaVuSans-102"/>
     </g>
    </g>
   </g>
   <g id="matplotlib.axis_2">
    <g id="ytick_1">
     <g id="line2d_9">
      <path clip-path="url(#pc325458f25)" d="M 0 293.76 
L 460.8 293.76 
" style="fill:none;stroke:#b0b0b0;stroke-linecap:square;stroke-width:0.8;"/>
     </g>
     <g id="line2d_10">
      <defs>
       <path d="M 0 0 
L -3.5 0 
" id="m84bdf8e122" style="stroke:#000000;stroke-width:0.8;"/>
      </defs>
      <g>
       <use style="stroke:#000000;stroke-width:0.8;" x="0" xlink:href="#m84bdf8e122" y="293.76"/>
      </g>
     </g>
    </g>
    <g id="ytick_2">
     <g id="line2d_11">
      <path clip-path="url(#pc325458f25)" d="M 0 236.274059 
L 460.8 236.274059 
" style="fill:none;stroke:#b0b0b0;stroke-linecap:square;stroke-width:0.8;"/>
     </g>
     <g id="line2d_12">
      <g>
       <use style="stroke:#000000;stroke-width:0.8;" x="0" xlink:href="#m84bdf8e122" y="236.274059"/>
      </g>
     </g>
    </g>
    <g id="ytick_3">
     <g id="line2d_13">
      <path clip-path="url(#pc325458f25)" d="M 0 178.788119 
L 460.8 178.788119 
" style="fill:none;stroke:#b0b0b0;stroke-linecap:square;stroke-width:0.8;"/>
     </g>
     <g id="line2d_14">
      <g>
       <use style="stroke:#000000;stroke-width:0.8;" x="0" xlink:href="#m84bdf8e122" y="178.788119"/>
      </g>
     </g>
    </g>
    <g id="ytick_4">
     <g id="line2d_15">
      <path clip-path="url(#pc325458f25)" d="M 0 121.302178 
L 460.8 121.302178 
" style="fill:none;stroke:#b0b0b0;stroke-linecap:square;stroke-width:0.8;"/>
     </g>
     <g id="line2d_16">
      <g>
       <use style="stroke:#000000;stroke-width:0.8;" x="0" xlink:href="#m84bdf8e122" y="121.302178"/>
      </g>
     </g>
    </g>
    <g id="ytick_5">
     <g id="line2d_17">
      <path clip-path="url(#pc325458f25)" d="M 0 63.816238 
L 460.8 63.816238 
" style="fill:none;stroke:#b0b0b0;stroke-linecap:square;stroke-width:0.8;"/>
     </g>
     <g id="line2d_18">
      <g>
       <use style="stroke:#000000;stroke-width:0.8;" x="0" xlink:href="#m84bdf8e122" y="63.816238"/>
      </g>
     </g>
    </g>
    <g id="ytick_6">
     <g id="line2d_19">
      <path clip-path="url(#pc325458f25)" d="M 0 6.330297 
L 460.8 6.330297 
" style="fill:none;stroke:#b0b0b0;stroke-linecap:square;stroke-width:0.8;"/>
     </g>
     <g id="line2d_20">
      <g>
       <use style="stroke:#000000;stroke-width:0.8;" x="0" xlink:href="#m84bdf8e122" y="6.330297"/>
      </g>
     </g>
    </g>
   </g>
   <g id="line2d_21">
    <path clip-path="url(#pc325458f25)" d="M 164.833802 293.76 
L 164.87593 286.095208 
L 165.016714 286.095208 
L 165.06272 270.765624 
L 165.289709 270.765624 
L 165.36047 263.100832 
L 165.635576 263.100832 
L 165.635576 259.268436 
L 166.253807 259.268436 
L 166.253807 255.43604 
L 166.392817 255.43604 
L 166.392817 251.603644 
L 166.646623 251.603644 
L 166.646623 247.771248 
L 167.977482 247.771248 
L 167.977482 243.938851 
L 168.870407 243.938851 
L 168.870407 240.106455 
L 176.419617 240.106455 
L 176.419617 236.274059 
L 235.470001 236.274059 
L 235.55403 228.609267 
L 235.71841 228.609267 
L 235.71841 224.776871 
L 236.154076 224.776871 
L 236.154076 220.944475 
L 236.611323 220.944475 
L 236.611323 217.112079 
L 236.834516 217.112079 
L 236.834516 213.279683 
L 237.102308 213.279683 
L 237.102308 209.447287 
L 239.237438 209.447287 
L 239.306413 197.950099 
L 240.648279 197.950099 
L 240.648279 194.117703 
L 244.662135 194.117703 
L 244.662135 190.285307 
L 248.97913 190.285307 
L 248.97913 186.452911 
L 249.621168 186.452911 
L 249.621168 182.620515 
L 250.667641 182.620515 
L 250.77146 174.955723 
L 250.910465 174.955723 
L 250.910465 171.123327 
L 251.278745 171.123327 
L 251.301307 163.458535 
L 252.224498 163.458535 
L 252.224498 159.626139 
L 252.940814 159.626139 
L 252.940814 155.793743 
L 253.217184 155.793743 
L 253.217184 151.961347 
L 253.665369 151.961347 
L 253.665369 148.12895 
L 254.29911 148.12895 
L 254.29911 144.296554 
L 255.161787 144.296554 
L 255.161787 140.464158 
L 255.300106 140.464158 
L 255.300106 136.631762 
L 256.590177 136.631762 
L 256.590177 132.799366 
L 257.404199 132.799366 
L 257.404199 128.96697 
L 258.818455 128.96697 
L 258.818455 125.134574 
L 259.179524 125.134574 
L 259.179524 121.302178 
L 260.243316 121.302178 
L 260.243316 117.469782 
L 260.531725 117.469782 
L 260.531725 113.637386 
L 260.811361 113.637386 
L 260.849582 105.972594 
L 261.812307 105.972594 
L 261.812307 102.140198 
L 262.24515 102.140198 
L 262.317397 94.475406 
L 263.430563 94.475406 
L 263.430563 90.64301 
L 263.916657 90.64301 
L 263.916657 86.810614 
L 265.136391 86.810614 
L 265.136391 82.978218 
L 266.538893 82.978218 
L 266.538893 79.145822 
L 267.066224 79.145822 
L 267.137479 71.48103 
L 267.738395 71.48103 
L 267.738395 67.648634 
L 268.231847 67.648634 
L 268.231847 63.816238 
L 281.430727 63.816238 
L 281.430727 59.983842 
L 283.186661 59.983842 
L 283.186661 56.151446 
L 283.865327 56.151446 
L 283.865327 52.31905 
L 284.091484 52.31905 
L 284.091484 48.486653 
L 284.720271 48.486653 
L 284.720271 44.654257 
L 285.227502 44.654257 
L 285.283711 36.989465 
L 285.367053 36.989465 
L 285.390962 29.324673 
L 286.195023 29.324673 
L 286.195023 25.492277 
L 286.601766 25.492277 
L 286.601766 21.659881 
L 289.747636 21.659881 
L 289.747636 17.827485 
L 290.121969 17.827485 
L 290.121969 13.995089 
L 293.024803 13.995089 
L 293.024803 10.162693 
L 295.231246 10.162693 
L 295.231246 6.330297 
L 295.231246 6.330297 
L 460.8 6.330297 
L 460.8 6.330297 
" style="fill:none;stroke:#ff0000;stroke-linecap:square;stroke-width:3;"/>
   </g>
   <g id="line2d_22">
    <path clip-path="url(#pc325458f25)" d="M 196.788453 293.76 
L 196.833759 236.274059 
L 241.922061 236.274059 
L 242.000756 228.609267 
L 243.682247 228.609267 
L 243.72688 217.112079 
L 244.172009 217.112079 
L 244.172009 213.279683 
L 244.491162 213.279683 
L 244.491162 209.447287 
L 244.713828 209.447287 
L 244.713828 205.614891 
L 244.871488 205.614891 
L 244.91462 197.950099 
L 245.2814 197.950099 
L 245.2814 194.117703 
L 247.377647 194.117703 
L 247.377647 190.285307 
L 254.177533 190.285307 
L 254.177533 186.452911 
L 254.611618 186.452911 
L 254.611618 182.620515 
L 255.349036 182.620515 
L 255.349036 178.788119 
L 255.92514 178.788119 
L 255.92514 174.955723 
L 256.818256 174.955723 
L 256.835212 167.290931 
L 257.65603 167.290931 
L 257.65603 163.458535 
L 257.858239 163.458535 
L 257.858239 159.626139 
L 259.169857 159.626139 
L 259.266026 151.961347 
L 259.30182 151.961347 
L 259.30182 148.12895 
L 259.571073 148.12895 
L 259.571073 144.296554 
L 260.058026 144.296554 
L 260.058026 140.464158 
L 260.3183 140.464158 
L 260.3183 136.631762 
L 260.603819 136.631762 
L 260.603819 132.799366 
L 261.036383 132.799366 
L 261.094264 125.134574 
L 261.579643 125.134574 
L 261.579643 121.302178 
L 261.908938 121.302178 
L 261.912676 113.637386 
L 262.311391 113.637386 
L 262.353607 105.972594 
L 262.513543 105.972594 
L 262.513543 102.140198 
L 263.613435 102.140198 
L 263.711222 94.475406 
L 264.070874 94.475406 
L 264.070874 90.64301 
L 265.243047 90.64301 
L 265.243047 86.810614 
L 267.160872 86.810614 
L 267.160872 82.978218 
L 267.319636 82.978218 
L 267.319636 79.145822 
L 268.300003 79.145822 
L 268.300003 75.313426 
L 271.331426 75.313426 
L 271.384022 67.648634 
L 275.078704 67.648634 
L 275.078704 63.816238 
L 285.672183 63.816238 
L 285.672183 59.983842 
L 286.482385 59.983842 
L 286.482385 56.151446 
L 287.007728 56.151446 
L 287.007728 52.31905 
L 287.21344 52.31905 
L 287.21344 48.486653 
L 287.587082 48.486653 
L 287.587082 44.654257 
L 287.721186 44.654257 
L 287.721186 40.821861 
L 288.134712 40.821861 
L 288.134712 36.989465 
L 288.647366 36.989465 
L 288.647366 33.157069 
L 289.075045 33.157069 
L 289.075045 29.324673 
L 289.256075 29.324673 
L 289.256075 25.492277 
L 289.616731 25.492277 
L 289.616731 21.659881 
L 291.663216 21.659881 
L 291.663216 17.827485 
L 292.31606 17.827485 
L 292.31606 13.995089 
L 295.078327 13.995089 
L 295.078327 10.162693 
L 301.755908 10.162693 
L 301.755908 6.330297 
L 301.755908 6.330297 
L 460.8 6.330297 
L 460.8 6.330297 
" style="fill:none;stroke:#00bfbf;stroke-linecap:square;stroke-width:1.5;"/>
   </g>
   <g id="line2d_23">
    <path clip-path="url(#pc325458f25)" d="M 196.775049 293.76 
L 196.810709 236.274059 
L 241.921178 236.274059 
L 241.999869 228.609267 
L 243.680087 228.609267 
L 243.725959 217.112079 
L 244.171478 217.112079 
L 244.171478 213.279683 
L 244.490387 213.279683 
L 244.490387 209.447287 
L 244.713081 209.447287 
L 244.713081 205.614891 
L 244.869457 205.614891 
L 244.913495 197.950099 
L 245.280918 197.950099 
L 245.280918 194.117703 
L 247.376577 194.117703 
L 247.376577 190.285307 
L 254.174633 190.285307 
L 254.174633 186.452911 
L 254.611557 186.452911 
L 254.611557 182.620515 
L 255.349036 182.620515 
L 255.349036 178.788119 
L 255.921943 178.788119 
L 255.921943 174.955723 
L 256.785638 174.955723 
L 256.834082 167.290931 
L 257.65581 167.290931 
L 257.65581 163.458535 
L 257.857567 163.458535 
L 257.857567 159.626139 
L 259.167146 159.626139 
L 259.266003 151.961347 
L 259.300234 151.961347 
L 259.300234 148.12895 
L 259.551264 148.12895 
L 259.551264 144.296554 
L 260.05631 144.296554 
L 260.05631 140.464158 
L 260.30984 140.464158 
L 260.30984 136.631762 
L 260.591978 136.631762 
L 260.591978 132.799366 
L 261.022995 132.799366 
L 261.086309 125.134574 
L 261.576334 125.134574 
L 261.576334 121.302178 
L 261.90372 121.302178 
L 261.908396 113.637386 
L 262.311391 113.637386 
L 262.353607 105.972594 
L 262.490719 105.972594 
L 262.490719 102.140198 
L 263.588753 102.140198 
L 263.588753 98.307802 
L 263.707447 98.307802 
L 263.707447 94.475406 
L 264.059912 94.475406 
L 264.059912 90.64301 
L 265.243047 90.64301 
L 265.243047 86.810614 
L 267.143422 86.810614 
L 267.143422 82.978218 
L 267.319035 82.978218 
L 267.319035 79.145822 
L 268.288022 79.145822 
L 268.288022 75.313426 
L 271.330956 75.313426 
L 271.382554 67.648634 
L 275.077319 67.648634 
L 275.077319 63.816238 
L 285.671757 63.816238 
L 285.671757 59.983842 
L 286.481802 59.983842 
L 286.481802 56.151446 
L 287.0077 56.151446 
L 287.0077 52.31905 
L 287.212882 52.31905 
L 287.212882 48.486653 
L 287.586951 48.486653 
L 287.586951 44.654257 
L 287.721024 44.654257 
L 287.721024 40.821861 
L 288.134236 40.821861 
L 288.134236 36.989465 
L 288.647045 36.989465 
L 288.647045 33.157069 
L 289.075023 33.157069 
L 289.075023 29.324673 
L 289.255348 29.324673 
L 289.255348 25.492277 
L 289.616393 25.492277 
L 289.616393 21.659881 
L 291.6626 21.659881 
L 291.6626 17.827485 
L 292.31532 17.827485 
L 292.31532 13.995089 
L 295.077946 13.995089 
L 295.077946 10.162693 
L 301.755525 10.162693 
L 301.755525 6.330297 
L 301.755525 6.330297 
L 460.8 6.330297 
L 460.8 6.330297 
" style="fill:none;stroke:#bf00bf;stroke-linecap:square;stroke-width:1.5;"/>
   </g>
   <g id="line2d_24">
    <path clip-path="url(#pc325458f25)" d="M 196.559551 293.76 
L 196.666716 243.938851 
L 196.678757 243.938851 
L 196.684901 236.274059 
L 241.911023 236.274059 
L 241.99224 228.609267 
L 243.654023 228.609267 
L 243.717892 217.112079 
L 244.160967 217.112079 
L 244.160967 213.279683 
L 244.485698 213.279683 
L 244.485698 209.447287 
L 244.707077 209.447287 
L 244.707077 205.614891 
L 244.861555 205.614891 
L 244.90538 197.950099 
L 245.274099 197.950099 
L 245.274099 194.117703 
L 247.367405 194.117703 
L 247.367405 190.285307 
L 254.141743 190.285307 
L 254.141743 186.452911 
L 254.607212 186.452911 
L 254.607212 182.620515 
L 255.27906 182.620515 
L 255.27906 178.788119 
L 255.896446 178.788119 
L 255.896446 174.955723 
L 256.757376 174.955723 
L 256.822877 167.290931 
L 257.641531 167.290931 
L 257.641531 163.458535 
L 257.846068 163.458535 
L 257.846068 159.626139 
L 259.151973 159.626139 
L 259.257817 151.961347 
L 259.291621 151.961347 
L 259.291621 148.12895 
L 259.509379 148.12895 
L 259.509379 144.296554 
L 260.041535 144.296554 
L 260.041535 140.464158 
L 260.287988 140.464158 
L 260.287988 136.631762 
L 260.577529 136.631762 
L 260.577529 132.799366 
L 260.991541 132.799366 
L 261.050555 125.134574 
L 261.556607 125.134574 
L 261.556607 121.302178 
L 261.846661 121.302178 
L 261.905556 113.637386 
L 262.305265 113.637386 
L 262.398866 102.140198 
L 263.540729 102.140198 
L 263.540729 98.307802 
L 263.672473 98.307802 
L 263.672473 94.475406 
L 263.981999 94.475406 
L 263.981999 90.64301 
L 265.214932 90.64301 
L 265.214932 86.810614 
L 267.118167 86.810614 
L 267.118167 82.978218 
L 267.306352 82.978218 
L 267.306352 79.145822 
L 268.268283 79.145822 
L 268.268283 75.313426 
L 271.32473 75.313426 
L 271.373944 67.648634 
L 275.042412 67.648634 
L 275.042412 63.816238 
L 285.667055 63.816238 
L 285.667055 59.983842 
L 286.478011 59.983842 
L 286.478011 56.151446 
L 287.00376 56.151446 
L 287.00376 52.31905 
L 287.207382 52.31905 
L 287.207382 48.486653 
L 287.5821 48.486653 
L 287.5821 44.654257 
L 287.717979 44.654257 
L 287.717979 40.821861 
L 288.130055 40.821861 
L 288.130055 36.989465 
L 288.642551 36.989465 
L 288.642551 33.157069 
L 289.070916 33.157069 
L 289.070916 29.324673 
L 289.250767 29.324673 
L 289.250767 25.492277 
L 289.612599 25.492277 
L 289.612599 21.659881 
L 291.659305 21.659881 
L 291.659305 17.827485 
L 292.310432 17.827485 
L 292.310432 13.995089 
L 295.07288 13.995089 
L 295.07288 10.162693 
L 301.753873 10.162693 
L 301.753873 6.330297 
L 301.753873 6.330297 
L 460.8 6.330297 
L 460.8 6.330297 
" style="fill:none;stroke:#000000;stroke-linecap:square;stroke-width:1.5;"/>
   </g>
   <g id="line2d_25">
    <path clip-path="url(#pc325458f25)" d="M 194.751413 293.76 
L 194.751413 289.927604 
L 195.173961 289.927604 
L 195.268004 282.262812 
L 195.303971 282.262812 
L 195.379623 270.765624 
L 195.454213 270.765624 
L 195.518499 247.771248 
L 195.573554 247.771248 
L 195.573554 243.938851 
L 195.830718 243.938851 
L 195.905385 236.274059 
L 241.718884 236.274059 
L 241.829177 228.609267 
L 243.253229 228.609267 
L 243.253229 224.776871 
L 243.538363 224.776871 
L 243.572275 217.112079 
L 243.92257 217.112079 
L 243.92257 213.279683 
L 244.345143 213.279683 
L 244.345143 209.447287 
L 244.540675 209.447287 
L 244.540675 205.614891 
L 244.677369 205.614891 
L 244.702196 197.950099 
L 245.125626 197.950099 
L 245.125626 194.117703 
L 247.205274 194.117703 
L 247.205274 190.285307 
L 253.515967 190.285307 
L 253.515967 186.452911 
L 254.500487 186.452911 
L 254.500487 182.620515 
L 255.190434 182.620515 
L 255.190434 178.788119 
L 255.38265 178.788119 
L 255.38265 174.955723 
L 256.553301 174.955723 
L 256.622983 167.290931 
L 257.35582 167.290931 
L 257.35582 163.458535 
L 257.590788 163.458535 
L 257.590788 159.626139 
L 258.702503 159.626139 
L 258.702503 155.793743 
L 259.023026 155.793743 
L 259.089428 148.12895 
L 259.271503 148.12895 
L 259.271503 144.296554 
L 259.689527 144.296554 
L 259.689527 140.464158 
L 260.259726 140.464158 
L 260.259726 136.631762 
L 260.550951 136.631762 
L 260.550951 132.799366 
L 260.846045 132.799366 
L 260.877349 125.134574 
L 260.985009 125.134574 
L 260.985009 121.302178 
L 261.826955 121.302178 
L 261.839614 113.637386 
L 261.969955 113.637386 
L 261.969955 109.80499 
L 262.268551 109.80499 
L 262.338644 102.140198 
L 262.632138 102.140198 
L 262.632138 98.307802 
L 263.484399 98.307802 
L 263.484399 94.475406 
L 263.930394 94.475406 
L 263.930394 90.64301 
L 265.161337 90.64301 
L 265.161337 86.810614 
L 267.07908 86.810614 
L 267.080757 79.145822 
L 268.246436 79.145822 
L 268.246436 75.313426 
L 271.22398 75.313426 
L 271.231544 67.648634 
L 274.346699 67.648634 
L 274.346699 63.816238 
L 285.568411 63.816238 
L 285.568411 59.983842 
L 286.400396 59.983842 
L 286.400396 56.151446 
L 286.925568 56.151446 
L 286.925568 52.31905 
L 287.092799 52.31905 
L 287.092799 48.486653 
L 287.488057 48.486653 
L 287.488057 44.654257 
L 287.655255 44.654257 
L 287.655255 40.821861 
L 288.052338 40.821861 
L 288.052338 36.989465 
L 288.53434 36.989465 
L 288.53434 33.157069 
L 288.97475 33.157069 
L 288.97475 29.324673 
L 289.157912 29.324673 
L 289.157912 25.492277 
L 289.527587 25.492277 
L 289.527587 21.659881 
L 291.577555 21.659881 
L 291.577555 17.827485 
L 292.20433 17.827485 
L 292.20433 13.995089 
L 294.970676 13.995089 
L 294.970676 10.162693 
L 301.701049 10.162693 
L 301.701049 6.330297 
L 301.701049 6.330297 
L 460.8 6.330297 
L 460.8 6.330297 
" style="fill:none;stroke:#00bfbf;stroke-linecap:square;stroke-width:1.5;"/>
   </g>
   <g id="line2d_26">
    <path clip-path="url(#pc325458f25)" d="M 169.103125 293.76 
L 169.103125 289.927604 
L 169.435941 289.927604 
L 169.435941 286.095208 
L 170.21674 286.095208 
L 170.21674 282.262812 
L 171.531489 282.262812 
L 171.531489 278.430416 
L 171.796485 278.430416 
L 171.796485 274.59802 
L 174.033581 274.59802 
L 174.033581 270.765624 
L 174.753072 270.765624 
L 174.753072 266.933228 
L 175.212879 266.933228 
L 175.212879 263.100832 
L 175.351842 263.100832 
L 175.351842 259.268436 
L 175.586393 259.268436 
L 175.586393 255.43604 
L 175.957881 255.43604 
L 175.957881 251.603644 
L 180.235858 251.603644 
L 180.320764 243.938851 
L 182.647132 243.938851 
L 182.647132 240.106455 
L 184.863457 240.106455 
L 184.863457 236.274059 
L 236.011645 236.274059 
L 236.011645 232.441663 
L 236.275782 232.441663 
L 236.275782 228.609267 
L 236.77081 228.609267 
L 236.77081 224.776871 
L 236.994128 224.776871 
L 236.994128 220.944475 
L 237.579645 220.944475 
L 237.671166 209.447287 
L 239.443211 209.447287 
L 239.443211 205.614891 
L 239.720113 205.614891 
L 239.720113 201.782495 
L 240.19815 201.782495 
L 240.19815 197.950099 
L 241.968735 197.950099 
L 241.968735 194.117703 
L 245.146989 194.117703 
L 245.146989 190.285307 
L 250.050641 190.285307 
L 250.050641 186.452911 
L 251.271569 186.452911 
L 251.271569 182.620515 
L 251.677121 182.620515 
L 251.677121 178.788119 
L 252.449105 178.788119 
L 252.469196 171.123327 
L 252.614611 171.123327 
L 252.614611 167.290931 
L 253.090474 167.290931 
L 253.090474 163.458535 
L 253.933899 163.458535 
L 253.933899 159.626139 
L 254.210377 159.626139 
L 254.210377 155.793743 
L 254.425574 155.793743 
L 254.525387 148.12895 
L 254.695288 148.12895 
L 254.695288 144.296554 
L 255.161787 144.296554 
L 255.161787 140.464158 
L 256.055992 140.464158 
L 256.055992 136.631762 
L 256.590177 136.631762 
L 256.590177 132.799366 
L 258.584683 132.799366 
L 258.584683 128.96697 
L 259.179658 128.96697 
L 259.179658 125.134574 
L 260.035572 125.134574 
L 260.035572 121.302178 
L 260.243316 121.302178 
L 260.243316 117.469782 
L 260.531725 117.469782 
L 260.531725 113.637386 
L 260.811361 113.637386 
L 260.849582 105.972594 
L 261.812307 105.972594 
L 261.812307 102.140198 
L 262.24515 102.140198 
L 262.317397 94.475406 
L 263.430746 94.475406 
L 263.430746 90.64301 
L 263.916657 90.64301 
L 263.916657 86.810614 
L 265.136391 86.810614 
L 265.136391 82.978218 
L 267.066224 82.978218 
L 267.066224 79.145822 
L 268.071705 79.145822 
L 268.109613 71.48103 
L 268.231847 71.48103 
L 268.231847 67.648634 
L 268.586481 67.648634 
L 268.586481 63.816238 
L 281.668464 63.816238 
L 281.668464 59.983842 
L 283.981965 59.983842 
L 283.981965 56.151446 
L 284.240884 56.151446 
L 284.240884 52.31905 
L 284.536654 52.31905 
L 284.536654 48.486653 
L 284.884528 48.486653 
L 284.884528 44.654257 
L 285.503012 44.654257 
L 285.503012 40.821861 
L 285.66453 40.821861 
L 285.66453 36.989465 
L 285.851089 36.989465 
L 285.851089 33.157069 
L 286.471416 33.157069 
L 286.551465 25.492277 
L 286.805788 25.492277 
L 286.805788 21.659881 
L 290.066572 21.659881 
L 290.066572 17.827485 
L 290.23663 17.827485 
L 290.23663 13.995089 
L 293.20884 13.995089 
L 293.20884 10.162693 
L 296.038553 10.162693 
L 296.038553 6.330297 
L 296.038553 6.330297 
L 460.8 6.330297 
L 460.8 6.330297 
" style="fill:none;stroke:#bf00bf;stroke-linecap:square;stroke-width:1.5;"/>
   </g>
   <g id="patch_3">
    <path d="M 0 293.76 
L 0 3.456 
" style="fill:none;stroke:#000000;stroke-linecap:square;stroke-linejoin:miter;stroke-width:0.8;"/>
   </g>
   <g id="patch_4">
    <path d="M 460.8 293.76 
L 460.8 3.456 
" style="fill:none;stroke:#000000;stroke-linecap:square;stroke-linejoin:miter;stroke-width:0.8;"/>
   </g>
   <g id="patch_5">
    <path d="M 0 293.76 
L 460.8 293.76 
" style="fill:none;stroke:#000000;stroke-linecap:square;stroke-linejoin:miter;stroke-width:0.8;"/>
   </g>
   <g id="patch_6">
    <path d="M 0 3.456 
L 460.8 3.456 
" style="fill:none;stroke:#000000;stroke-linecap:square;stroke-linejoin:miter;stroke-width:0.8;"/>
   </g>
   <g id="text_6">
    <!-- {f15-f19}, 20-D -->
    <g transform="translate(293.159 287.95392)scale(0.2 -0.2)">
     <defs>
      <path d="M 51.125 -9.28125 
L 51.125 -16.3125 
L 48.09375 -16.3125 
Q 35.9375 -16.3125 31.8125 -12.6875 
Q 27.6875 -9.078125 27.6875 1.703125 
L 27.6875 13.375 
Q 27.6875 20.75 25.046875 23.578125 
Q 22.40625 26.421875 15.484375 26.421875 
L 12.5 26.421875 
L 12.5 33.40625 
L 15.484375 33.40625 
Q 22.46875 33.40625 25.078125 36.203125 
Q 27.6875 39.015625 27.6875 46.296875 
L 27.6875 58.015625 
Q 27.6875 68.796875 31.8125 72.390625 
Q 35.9375 75.984375 48.09375 75.984375 
L 51.125 75.984375 
L 51.125 69 
L 47.796875 69 
Q 40.921875 69 38.8125 66.84375 
Q 36.71875 64.703125 36.71875 57.8125 
L 36.71875 45.703125 
Q 36.71875 38.03125 34.5 34.5625 
Q 32.28125 31.109375 26.90625 29.890625 
Q 32.328125 28.5625 34.515625 25.09375 
Q 36.71875 21.625 36.71875 14.015625 
L 36.71875 1.90625 
Q 36.71875 -4.984375 38.8125 -7.125 
Q 40.921875 -9.28125 47.796875 -9.28125 
z
" id="DejaVuSans-123"/>
      <path d="M 10.796875 72.90625 
L 49.515625 72.90625 
L 49.515625 64.59375 
L 19.828125 64.59375 
L 19.828125 46.734375 
Q 21.96875 47.46875 24.109375 47.828125 
Q 26.265625 48.1875 28.421875 48.1875 
Q 40.625 48.1875 47.75 41.5 
Q 54.890625 34.8125 54.890625 23.390625 
Q 54.890625 11.625 47.5625 5.09375 
Q 40.234375 -1.421875 26.90625 -1.421875 
Q 22.3125 -1.421875 17.546875 -0.640625 
Q 12.796875 0.140625 7.71875 1.703125 
L 7.71875 11.625 
Q 12.109375 9.234375 16.796875 8.0625 
Q 21.484375 6.890625 26.703125 6.890625 
Q 35.15625 6.890625 40.078125 11.328125 
Q 45.015625 15.765625 45.015625 23.390625 
Q 45.015625 31 40.078125 35.4375 
Q 35.15625 39.890625 26.703125 39.890625 
Q 22.75 39.890625 18.8125 39.015625 
Q 14.890625 38.140625 10.796875 36.28125 
z
" id="DejaVuSans-53"/>
      <path d="M 10.984375 1.515625 
L 10.984375 10.5 
Q 14.703125 8.734375 18.5 7.8125 
Q 22.3125 6.890625 25.984375 6.890625 
Q 35.75 6.890625 40.890625 13.453125 
Q 46.046875 20.015625 46.78125 33.40625 
Q 43.953125 29.203125 39.59375 26.953125 
Q 35.25 24.703125 29.984375 24.703125 
Q 19.046875 24.703125 12.671875 31.3125 
Q 6.296875 37.9375 6.296875 49.421875 
Q 6.296875 60.640625 12.9375 67.421875 
Q 19.578125 74.21875 30.609375 74.21875 
Q 43.265625 74.21875 49.921875 64.515625 
Q 56.59375 54.828125 56.59375 36.375 
Q 56.59375 19.140625 48.40625 8.859375 
Q 40.234375 -1.421875 26.421875 -1.421875 
Q 22.703125 -1.421875 18.890625 -0.6875 
Q 15.09375 0.046875 10.984375 1.515625 
z
M 30.609375 32.421875 
Q 37.25 32.421875 41.125 36.953125 
Q 45.015625 41.5 45.015625 49.421875 
Q 45.015625 57.28125 41.125 61.84375 
Q 37.25 66.40625 30.609375 66.40625 
Q 23.96875 66.40625 20.09375 61.84375 
Q 16.21875 57.28125 16.21875 49.421875 
Q 16.21875 41.5 20.09375 36.953125 
Q 23.96875 32.421875 30.609375 32.421875 
z
" id="DejaVuSans-57"/>
      <path d="M 12.5 -9.28125 
L 15.921875 -9.28125 
Q 22.75 -9.28125 24.828125 -7.171875 
Q 26.90625 -5.078125 26.90625 1.90625 
L 26.90625 14.015625 
Q 26.90625 21.625 29.09375 25.09375 
Q 31.296875 28.5625 36.71875 29.890625 
Q 31.296875 31.109375 29.09375 34.5625 
Q 26.90625 38.03125 26.90625 45.703125 
L 26.90625 57.8125 
Q 26.90625 64.75 24.828125 66.875 
Q 22.75 69 15.921875 69 
L 12.5 69 
L 12.5 75.984375 
L 15.578125 75.984375 
Q 27.734375 75.984375 31.8125 72.390625 
Q 35.890625 68.796875 35.890625 58.015625 
L 35.890625 46.296875 
Q 35.890625 39.015625 38.515625 36.203125 
Q 41.15625 33.40625 48.09375 33.40625 
L 51.125 33.40625 
L 51.125 26.421875 
L 48.09375 26.421875 
Q 41.15625 26.421875 38.515625 23.578125 
Q 35.890625 20.75 35.890625 13.375 
L 35.890625 1.703125 
Q 35.890625 -9.078125 31.8125 -12.6875 
Q 27.734375 -16.3125 15.578125 -16.3125 
L 12.5 -16.3125 
z
" id="DejaVuSans-125"/>
      <path d="M 11.71875 12.40625 
L 22.015625 12.40625 
L 22.015625 4 
L 14.015625 -11.625 
L 7.71875 -11.625 
L 11.71875 4 
z
" id="DejaVuSans-44"/>
      <path d="M 19.1875 8.296875 
L 53.609375 8.296875 
L 53.609375 0 
L 7.328125 0 
L 7.328125 8.296875 
Q 12.9375 14.109375 22.625 23.890625 
Q 32.328125 33.6875 34.8125 36.53125 
Q 39.546875 41.84375 41.421875 45.53125 
Q 43.3125 49.21875 43.3125 52.78125 
Q 43.3125 58.59375 39.234375 62.25 
Q 35.15625 65.921875 28.609375 65.921875 
Q 23.96875 65.921875 18.8125 64.3125 
Q 13.671875 62.703125 7.8125 59.421875 
L 7.8125 69.390625 
Q 13.765625 71.78125 18.9375 73 
Q 24.125 74.21875 28.421875 74.21875 
Q 39.75 74.21875 46.484375 68.546875 
Q 53.21875 62.890625 53.21875 53.421875 
Q 53.21875 48.921875 51.53125 44.890625 
Q 49.859375 40.875 45.40625 35.40625 
Q 44.1875 33.984375 37.640625 27.21875 
Q 31.109375 20.453125 19.1875 8.296875 
z
" id="DejaVuSans-50"/>
     </defs>
     <use xlink:href="#DejaVuSans-123"/>
     <use x="63.623047" xlink:href="#DejaVuSans-102"/>
     <use x="98.828125" xlink:href="#DejaVuSans-49"/>
     <use x="162.451172" xlink:href="#DejaVuSans-53"/>
     <use x="226.074219" xlink:href="#DejaVuSans-45"/>
     <use x="262.158203" xlink:href="#DejaVuSans-102"/>
     <use x="297.363281" xlink:href="#DejaVuSans-49"/>
     <use x="360.986328" xlink:href="#DejaVuSans-57"/>
     <use x="424.609375" xlink:href="#DejaVuSans-125"/>
     <use x="488.232422" xlink:href="#DejaVuSans-44"/>
     <use x="520.019531" xlink:href="#DejaVuSans-32"/>
     <use x="551.806641" xlink:href="#DejaVuSans-50"/>
     <use x="615.429688" xlink:href="#DejaVuSans-48"/>
     <use x="679.052734" xlink:href="#DejaVuSans-45"/>
     <use x="715.136719" xlink:href="#DejaVuSans-68"/>
    </g>
   </g>
   <g id="text_7">
    <!-- v2.4 -->
    <g style="fill:#808080;" transform="translate(219.489063 288.777272)scale(0.1 -0.1)">
     <defs>
      <path d="M 2.984375 54.6875 
L 12.5 54.6875 
L 29.59375 8.796875 
L 46.6875 54.6875 
L 56.203125 54.6875 
L 35.6875 0 
L 23.484375 0 
z
" id="DejaVuSans-118"/>
      <path d="M 10.6875 12.40625 
L 21 12.40625 
L 21 0 
L 10.6875 0 
z
" id="DejaVuSans-46"/>
     </defs>
     <use xlink:href="#DejaVuSans-118"/>
     <use x="59.179688" xlink:href="#DejaVuSans-50"/>
     <use x="122.802734" xlink:href="#DejaVuSans-46"/>
     <use x="154.589844" xlink:href="#DejaVuSans-52"/>
    </g>
   </g>
  </g>
 </g>
 <defs>
  <clipPath id="pc325458f25">
   <rect height="290.304" width="460.8" x="0" y="3.456"/>
  </clipPath>
 </defs>
</svg>
