<?xml version="1.0" encoding="utf-8" standalone="no"?>
<!DOCTYPE svg PUBLIC "-//W3C//DTD SVG 1.1//EN"
  "http://www.w3.org/Graphics/SVG/1.1/DTD/svg11.dtd">
<!-- Created with matplotlib (https://matplotlib.org/) -->
<svg height="345.6pt" version="1.1" viewBox="0 0 460.8 345.6" width="460.8pt" xmlns="http://www.w3.org/2000/svg" xmlns:xlink="http://www.w3.org/1999/xlink">
 <metadata>
  <rdf:RDF xmlns:cc="http://creativecommons.org/ns#" xmlns:dc="http://purl.org/dc/elements/1.1/" xmlns:rdf="http://www.w3.org/1999/02/22-rdf-syntax-ns#">
   <cc:Work>
    <dc:type rdf:resource="http://purl.org/dc/dcmitype/StillImage"/>
    <dc:date>2021-08-04T10:25:48.475632</dc:date>
    <dc:format>image/svg+xml</dc:format>
    <dc:creator>
     <cc:Agent>
      <dc:title>Matplotlib v3.3.1, https://matplotlib.org/</dc:title>
     </cc:Agent>
    </dc:creator>
   </cc:Work>
  </rdf:RDF>
 </metadata>
 <defs>
  <style type="text/css">*{stroke-linecap:butt;stroke-linejoin:round;}</style>
 </defs>
 <g id="figure_1">
  <g id="patch_1">
   <path d="M 0 345.6 
L 460.8 345.6 
L 460.8 0 
L 0 0 
z
" style="fill:#ffffff;"/>
  </g>
  <g id="axes_1">
   <g id="patch_2">
    <path d="M 0 293.76 
L 460.8 293.76 
L 460.8 3.456 
L 0 3.456 
z
" style="fill:#ffffff;"/>
   </g>
   <g id="matplotlib.axis_1">
    <g id="xtick_1">
     <g id="line2d_1">
      <path clip-path="url(#p1f826e15a6)" d="M 106.133038 293.76 
L 106.133038 3.456 
" style="fill:none;stroke:#b0b0b0;stroke-linecap:square;stroke-width:0.8;"/>
     </g>
     <g id="line2d_2">
      <defs>
       <path d="M 0 0 
L 0 3.5 
" id="me15c13e14a" style="stroke:#000000;stroke-width:0.8;"/>
      </defs>
      <g>
       <use style="stroke:#000000;stroke-width:0.8;" x="106.133038" xlink:href="#me15c13e14a" y="293.76"/>
      </g>
     </g>
     <g id="text_1">
      <!-- -4 -->
      <g transform="translate(96.162726 315.956875)scale(0.2 -0.2)">
       <defs>
        <path d="M 4.890625 31.390625 
L 31.203125 31.390625 
L 31.203125 23.390625 
L 4.890625 23.390625 
z
" id="DejaVuSans-45"/>
        <path d="M 37.796875 64.3125 
L 12.890625 25.390625 
L 37.796875 25.390625 
z
M 35.203125 72.90625 
L 47.609375 72.90625 
L 47.609375 25.390625 
L 58.015625 25.390625 
L 58.015625 17.1875 
L 47.609375 17.1875 
L 47.609375 0 
L 37.796875 0 
L 37.796875 17.1875 
L 4.890625 17.1875 
L 4.890625 26.703125 
z
" id="DejaVuSans-52"/>
       </defs>
       <use xlink:href="#DejaVuSans-45"/>
       <use x="36.083984" xlink:href="#DejaVuSans-52"/>
      </g>
     </g>
    </g>
    <g id="xtick_2">
     <g id="line2d_3">
      <path clip-path="url(#p1f826e15a6)" d="M 212.380861 293.76 
L 212.380861 3.456 
" style="fill:none;stroke:#b0b0b0;stroke-linecap:square;stroke-width:0.8;"/>
     </g>
     <g id="line2d_4">
      <g>
       <use style="stroke:#000000;stroke-width:0.8;" x="212.380861" xlink:href="#me15c13e14a" y="293.76"/>
      </g>
     </g>
     <g id="text_2">
      <!-- 0 -->
      <g transform="translate(206.018361 315.956875)scale(0.2 -0.2)">
       <defs>
        <path d="M 31.78125 66.40625 
Q 24.171875 66.40625 20.328125 58.90625 
Q 16.5 51.421875 16.5 36.375 
Q 16.5 21.390625 20.328125 13.890625 
Q 24.171875 6.390625 31.78125 6.390625 
Q 39.453125 6.390625 43.28125 13.890625 
Q 47.125 21.390625 47.125 36.375 
Q 47.125 51.421875 43.28125 58.90625 
Q 39.453125 66.40625 31.78125 66.40625 
z
M 31.78125 74.21875 
Q 44.046875 74.21875 50.515625 64.515625 
Q 56.984375 54.828125 56.984375 36.375 
Q 56.984375 17.96875 50.515625 8.265625 
Q 44.046875 -1.421875 31.78125 -1.421875 
Q 19.53125 -1.421875 13.0625 8.265625 
Q 6.59375 17.96875 6.59375 36.375 
Q 6.59375 54.828125 13.0625 64.515625 
Q 19.53125 74.21875 31.78125 74.21875 
z
" id="DejaVuSans-48"/>
       </defs>
       <use xlink:href="#DejaVuSans-48"/>
      </g>
     </g>
    </g>
    <g id="xtick_3">
     <g id="line2d_5">
      <path clip-path="url(#p1f826e15a6)" d="M 318.628683 293.76 
L 318.628683 3.456 
" style="fill:none;stroke:#b0b0b0;stroke-linecap:square;stroke-width:0.8;"/>
     </g>
     <g id="line2d_6">
      <g>
       <use style="stroke:#000000;stroke-width:0.8;" x="318.628683" xlink:href="#me15c13e14a" y="293.76"/>
      </g>
     </g>
     <g id="text_3">
      <!-- 4 -->
      <g transform="translate(312.266183 315.956875)scale(0.2 -0.2)">
       <use xlink:href="#DejaVuSans-52"/>
      </g>
     </g>
    </g>
    <g id="xtick_4">
     <g id="line2d_7">
      <path clip-path="url(#p1f826e15a6)" d="M 424.876506 293.76 
L 424.876506 3.456 
" style="fill:none;stroke:#b0b0b0;stroke-linecap:square;stroke-width:0.8;"/>
     </g>
     <g id="line2d_8">
      <g>
       <use style="stroke:#000000;stroke-width:0.8;" x="424.876506" xlink:href="#me15c13e14a" y="293.76"/>
      </g>
     </g>
     <g id="text_4">
      <!-- 8 -->
      <g transform="translate(418.514006 315.956875)scale(0.2 -0.2)">
       <defs>
        <path d="M 31.78125 34.625 
Q 24.75 34.625 20.71875 30.859375 
Q 16.703125 27.09375 16.703125 20.515625 
Q 16.703125 13.921875 20.71875 10.15625 
Q 24.75 6.390625 31.78125 6.390625 
Q 38.8125 6.390625 42.859375 10.171875 
Q 46.921875 13.96875 46.921875 20.515625 
Q 46.921875 27.09375 42.890625 30.859375 
Q 38.875 34.625 31.78125 34.625 
z
M 21.921875 38.8125 
Q 15.578125 40.375 12.03125 44.71875 
Q 8.5 49.078125 8.5 55.328125 
Q 8.5 64.0625 14.71875 69.140625 
Q 20.953125 74.21875 31.78125 74.21875 
Q 42.671875 74.21875 48.875 69.140625 
Q 55.078125 64.0625 55.078125 55.328125 
Q 55.078125 49.078125 51.53125 44.71875 
Q 48 40.375 41.703125 38.8125 
Q 48.828125 37.15625 52.796875 32.3125 
Q 56.78125 27.484375 56.78125 20.515625 
Q 56.78125 9.90625 50.3125 4.234375 
Q 43.84375 -1.421875 31.78125 -1.421875 
Q 19.734375 -1.421875 13.25 4.234375 
Q 6.78125 9.90625 6.78125 20.515625 
Q 6.78125 27.484375 10.78125 32.3125 
Q 14.796875 37.15625 21.921875 38.8125 
z
M 18.3125 54.390625 
Q 18.3125 48.734375 21.84375 45.5625 
Q 25.390625 42.390625 31.78125 42.390625 
Q 38.140625 42.390625 41.71875 45.5625 
Q 45.3125 48.734375 45.3125 54.390625 
Q 45.3125 60.0625 41.71875 63.234375 
Q 38.140625 66.40625 31.78125 66.40625 
Q 25.390625 66.40625 21.84375 63.234375 
Q 18.3125 60.0625 18.3125 54.390625 
z
" id="DejaVuSans-56"/>
       </defs>
       <use xlink:href="#DejaVuSans-56"/>
      </g>
     </g>
    </g>
    <g id="text_5">
     <!-- log10 of Df -->
     <g transform="translate(175.214063 339.313125)scale(0.2 -0.2)">
      <defs>
       <path d="M 9.421875 75.984375 
L 18.40625 75.984375 
L 18.40625 0 
L 9.421875 0 
z
" id="DejaVuSans-108"/>
       <path d="M 30.609375 48.390625 
Q 23.390625 48.390625 19.1875 42.75 
Q 14.984375 37.109375 14.984375 27.296875 
Q 14.984375 17.484375 19.15625 11.84375 
Q 23.34375 6.203125 30.609375 6.203125 
Q 37.796875 6.203125 41.984375 11.859375 
Q 46.1875 17.53125 46.1875 27.296875 
Q 46.1875 37.015625 41.984375 42.703125 
Q 37.796875 48.390625 30.609375 48.390625 
z
M 30.609375 56 
Q 42.328125 56 49.015625 48.375 
Q 55.71875 40.765625 55.71875 27.296875 
Q 55.71875 13.875 49.015625 6.21875 
Q 42.328125 -1.421875 30.609375 -1.421875 
Q 18.84375 -1.421875 12.171875 6.21875 
Q 5.515625 13.875 5.515625 27.296875 
Q 5.515625 40.765625 12.171875 48.375 
Q 18.84375 56 30.609375 56 
z
" id="DejaVuSans-111"/>
       <path d="M 45.40625 27.984375 
Q 45.40625 37.75 41.375 43.109375 
Q 37.359375 48.484375 30.078125 48.484375 
Q 22.859375 48.484375 18.828125 43.109375 
Q 14.796875 37.75 14.796875 27.984375 
Q 14.796875 18.265625 18.828125 12.890625 
Q 22.859375 7.515625 30.078125 7.515625 
Q 37.359375 7.515625 41.375 12.890625 
Q 45.40625 18.265625 45.40625 27.984375 
z
M 54.390625 6.78125 
Q 54.390625 -7.171875 48.1875 -13.984375 
Q 42 -20.796875 29.203125 -20.796875 
Q 24.46875 -20.796875 20.265625 -20.09375 
Q 16.0625 -19.390625 12.109375 -17.921875 
L 12.109375 -9.1875 
Q 16.0625 -11.328125 19.921875 -12.34375 
Q 23.78125 -13.375 27.78125 -13.375 
Q 36.625 -13.375 41.015625 -8.765625 
Q 45.40625 -4.15625 45.40625 5.171875 
L 45.40625 9.625 
Q 42.625 4.78125 38.28125 2.390625 
Q 33.9375 0 27.875 0 
Q 17.828125 0 11.671875 7.65625 
Q 5.515625 15.328125 5.515625 27.984375 
Q 5.515625 40.671875 11.671875 48.328125 
Q 17.828125 56 27.875 56 
Q 33.9375 56 38.28125 53.609375 
Q 42.625 51.21875 45.40625 46.390625 
L 45.40625 54.6875 
L 54.390625 54.6875 
z
" id="DejaVuSans-103"/>
       <path d="M 12.40625 8.296875 
L 28.515625 8.296875 
L 28.515625 63.921875 
L 10.984375 60.40625 
L 10.984375 69.390625 
L 28.421875 72.90625 
L 38.28125 72.90625 
L 38.28125 8.296875 
L 54.390625 8.296875 
L 54.390625 0 
L 12.40625 0 
z
" id="DejaVuSans-49"/>
       <path id="DejaVuSans-32"/>
       <path d="M 37.109375 75.984375 
L 37.109375 68.5 
L 28.515625 68.5 
Q 23.6875 68.5 21.796875 66.546875 
Q 19.921875 64.59375 19.921875 59.515625 
L 19.921875 54.6875 
L 34.71875 54.6875 
L 34.71875 47.703125 
L 19.921875 47.703125 
L 19.921875 0 
L 10.890625 0 
L 10.890625 47.703125 
L 2.296875 47.703125 
L 2.296875 54.6875 
L 10.890625 54.6875 
L 10.890625 58.5 
Q 10.890625 67.625 15.140625 71.796875 
Q 19.390625 75.984375 28.609375 75.984375 
z
" id="DejaVuSans-102"/>
       <path d="M 19.671875 64.796875 
L 19.671875 8.109375 
L 31.59375 8.109375 
Q 46.6875 8.109375 53.6875 14.9375 
Q 60.6875 21.78125 60.6875 36.53125 
Q 60.6875 51.171875 53.6875 57.984375 
Q 46.6875 64.796875 31.59375 64.796875 
z
M 9.8125 72.90625 
L 30.078125 72.90625 
Q 51.265625 72.90625 61.171875 64.09375 
Q 71.09375 55.28125 71.09375 36.53125 
Q 71.09375 17.671875 61.125 8.828125 
Q 51.171875 0 30.078125 0 
L 9.8125 0 
z
" id="DejaVuSans-68"/>
      </defs>
      <use xlink:href="#DejaVuSans-108"/>
      <use x="27.783203" xlink:href="#DejaVuSans-111"/>
      <use x="88.964844" xlink:href="#DejaVuSans-103"/>
      <use x="152.441406" xlink:href="#DejaVuSans-49"/>
      <use x="216.064453" xlink:href="#DejaVuSans-48"/>
      <use x="279.6875" xlink:href="#DejaVuSans-32"/>
      <use x="311.474609" xlink:href="#DejaVuSans-111"/>
      <use x="372.65625" xlink:href="#DejaVuSans-102"/>
      <use x="407.861328" xlink:href="#DejaVuSans-32"/>
      <use x="439.648438" xlink:href="#DejaVuSans-68"/>
      <use x="516.650391" xlink:href="#DejaVuSans-102"/>
     </g>
    </g>
   </g>
   <g id="matplotlib.axis_2">
    <g id="ytick_1">
     <g id="line2d_9">
      <path clip-path="url(#p1f826e15a6)" d="M 0 293.76 
L 460.8 293.76 
" style="fill:none;stroke:#b0b0b0;stroke-linecap:square;stroke-width:0.8;"/>
     </g>
     <g id="line2d_10">
      <defs>
       <path d="M 0 0 
L -3.5 0 
" id="m143828fa94" style="stroke:#000000;stroke-width:0.8;"/>
      </defs>
      <g>
       <use style="stroke:#000000;stroke-width:0.8;" x="0" xlink:href="#m143828fa94" y="293.76"/>
      </g>
     </g>
    </g>
    <g id="ytick_2">
     <g id="line2d_11">
      <path clip-path="url(#p1f826e15a6)" d="M 0 236.274059 
L 460.8 236.274059 
" style="fill:none;stroke:#b0b0b0;stroke-linecap:square;stroke-width:0.8;"/>
     </g>
     <g id="line2d_12">
      <g>
       <use style="stroke:#000000;stroke-width:0.8;" x="0" xlink:href="#m143828fa94" y="236.274059"/>
      </g>
     </g>
    </g>
    <g id="ytick_3">
     <g id="line2d_13">
      <path clip-path="url(#p1f826e15a6)" d="M 0 178.788119 
L 460.8 178.788119 
" style="fill:none;stroke:#b0b0b0;stroke-linecap:square;stroke-width:0.8;"/>
     </g>
     <g id="line2d_14">
      <g>
       <use style="stroke:#000000;stroke-width:0.8;" x="0" xlink:href="#m143828fa94" y="178.788119"/>
      </g>
     </g>
    </g>
    <g id="ytick_4">
     <g id="line2d_15">
      <path clip-path="url(#p1f826e15a6)" d="M 0 121.302178 
L 460.8 121.302178 
" style="fill:none;stroke:#b0b0b0;stroke-linecap:square;stroke-width:0.8;"/>
     </g>
     <g id="line2d_16">
      <g>
       <use style="stroke:#000000;stroke-width:0.8;" x="0" xlink:href="#m143828fa94" y="121.302178"/>
      </g>
     </g>
    </g>
    <g id="ytick_5">
     <g id="line2d_17">
      <path clip-path="url(#p1f826e15a6)" d="M 0 63.816238 
L 460.8 63.816238 
" style="fill:none;stroke:#b0b0b0;stroke-linecap:square;stroke-width:0.8;"/>
     </g>
     <g id="line2d_18">
      <g>
       <use style="stroke:#000000;stroke-width:0.8;" x="0" xlink:href="#m143828fa94" y="63.816238"/>
      </g>
     </g>
    </g>
    <g id="ytick_6">
     <g id="line2d_19">
      <path clip-path="url(#p1f826e15a6)" d="M 0 6.330297 
L 460.8 6.330297 
" style="fill:none;stroke:#b0b0b0;stroke-linecap:square;stroke-width:0.8;"/>
     </g>
     <g id="line2d_20">
      <g>
       <use style="stroke:#000000;stroke-width:0.8;" x="0" xlink:href="#m143828fa94" y="6.330297"/>
      </g>
     </g>
    </g>
   </g>
   <g id="line2d_21">
    <path clip-path="url(#p1f826e15a6)" d="M 77.046223 293.76 
L 77.046223 289.927604 
L 79.620796 289.927604 
L 79.620796 286.095208 
L 135.334754 286.095208 
L 135.334754 282.262812 
L 158.370359 282.262812 
L 158.370359 278.430416 
L 176.313254 278.430416 
L 176.313254 274.59802 
L 176.436433 274.59802 
L 176.436433 270.765624 
L 178.316735 270.765624 
L 178.316735 266.933228 
L 187.018187 266.933228 
L 187.018187 263.100832 
L 196.979779 263.100832 
L 196.979779 259.268436 
L 197.947482 259.268436 
L 197.947482 255.43604 
L 206.352847 255.43604 
L 206.352847 251.603644 
L 207.843281 251.603644 
L 207.843281 247.771248 
L 208.069722 247.771248 
L 208.069722 243.938851 
L 215.248243 243.938851 
L 215.248243 240.106455 
L 217.453393 240.106455 
L 217.453393 236.274059 
L 219.486261 236.274059 
L 219.486261 232.441663 
L 220.162067 232.441663 
L 220.162067 228.609267 
L 222.168898 228.609267 
L 222.168898 224.776871 
L 229.106768 224.776871 
L 229.106768 220.944475 
L 233.554016 220.944475 
L 233.554016 217.112079 
L 235.100147 217.112079 
L 235.100147 213.279683 
L 235.844823 213.279683 
L 235.844823 209.447287 
L 237.857128 209.447287 
L 237.857128 205.614891 
L 241.114458 205.614891 
L 241.114458 201.782495 
L 241.680544 201.782495 
L 241.680544 197.950099 
L 241.953547 197.950099 
L 241.953547 194.117703 
L 243.127252 194.117703 
L 243.127252 190.285307 
L 244.123075 190.285307 
L 244.123075 186.452911 
L 244.539993 186.452911 
L 244.636337 178.788119 
L 245.032414 178.788119 
L 245.032414 174.955723 
L 245.299345 174.955723 
L 245.299345 171.123327 
L 245.426536 171.123327 
L 245.426536 167.290931 
L 246.62268 167.290931 
L 246.62268 163.458535 
L 247.237899 163.458535 
L 247.237899 159.626139 
L 247.440439 159.626139 
L 247.440439 155.793743 
L 248.05112 155.793743 
L 248.05112 151.961347 
L 248.203227 151.961347 
L 248.203227 148.12895 
L 249.148054 148.12895 
L 249.148054 144.296554 
L 249.926181 144.296554 
L 249.926181 140.464158 
L 250.101665 140.464158 
L 250.101665 136.631762 
L 251.629179 136.631762 
L 251.629179 132.799366 
L 251.91797 132.799366 
L 251.970238 121.302178 
L 252.357544 121.302178 
L 252.357544 117.469782 
L 253.987693 117.469782 
L 253.987693 113.637386 
L 255.252761 113.637386 
L 255.252761 109.80499 
L 256.101155 109.80499 
L 256.101155 105.972594 
L 257.070674 105.972594 
L 257.070674 102.140198 
L 259.074506 102.140198 
L 259.074506 98.307802 
L 259.693002 98.307802 
L 259.693002 94.475406 
L 261.5803 94.475406 
L 261.5803 90.64301 
L 262.451655 90.64301 
L 262.539769 82.978218 
L 263.162417 82.978218 
L 263.162417 79.145822 
L 263.325978 79.145822 
L 263.325978 75.313426 
L 263.564008 75.313426 
L 263.564008 71.48103 
L 264.813226 71.48103 
L 264.813226 67.648634 
L 264.986938 67.648634 
L 264.986938 63.816238 
L 268.800422 63.816238 
L 268.800422 59.983842 
L 270.58385 59.983842 
L 270.58385 56.151446 
L 273.321128 56.151446 
L 273.321128 52.31905 
L 274.13925 52.31905 
L 274.13925 48.486653 
L 274.482216 48.486653 
L 274.482216 44.654257 
L 275.827288 44.654257 
L 275.827288 40.821861 
L 278.158156 40.821861 
L 278.158156 36.989465 
L 282.006303 36.989465 
L 282.006303 33.157069 
L 282.38824 33.157069 
L 282.38824 29.324673 
L 283.07953 29.324673 
L 283.07953 25.492277 
L 288.028603 25.492277 
L 288.028603 21.659881 
L 290.338634 21.659881 
L 290.338634 17.827485 
L 312.820049 17.827485 
L 312.820049 13.995089 
L 327.330428 13.995089 
L 327.330428 10.162693 
L 328.116411 10.162693 
L 328.116411 6.330297 
L 328.116411 6.330297 
L 460.8 6.330297 
L 460.8 6.330297 
" style="fill:none;stroke:#ff0000;stroke-linecap:square;stroke-width:3;"/>
   </g>
   <g id="line2d_22">
    <path clip-path="url(#p1f826e15a6)" d="M 229.511316 293.76 
L 229.511316 289.927604 
L 232.318247 289.927604 
L 232.318247 286.095208 
L 232.48882 286.095208 
L 232.48882 282.262812 
L 232.639443 282.262812 
L 232.639443 278.430416 
L 238.283519 278.430416 
L 238.283519 274.59802 
L 239.780326 274.59802 
L 239.780326 270.765624 
L 248.173075 270.765624 
L 248.173075 266.933228 
L 249.117739 266.933228 
L 249.117739 263.100832 
L 250.005718 263.100832 
L 250.005718 259.268436 
L 252.036473 259.268436 
L 252.036473 255.43604 
L 256.696242 255.43604 
L 256.696242 251.603644 
L 257.439492 251.603644 
L 257.439492 247.771248 
L 259.924649 247.771248 
L 259.924649 243.938851 
L 260.294504 243.938851 
L 260.294504 240.106455 
L 264.53625 240.106455 
L 264.53625 236.274059 
L 280.645769 236.274059 
L 280.645769 232.441663 
L 280.940834 232.441663 
L 280.940834 228.609267 
L 284.271099 228.609267 
L 284.271099 224.776871 
L 285.159203 224.776871 
L 285.159203 220.944475 
L 289.268333 220.944475 
L 289.268333 217.112079 
L 289.659781 217.112079 
L 289.659781 213.279683 
L 290.707184 213.279683 
L 290.707184 209.447287 
L 291.898391 209.447287 
L 291.898391 205.614891 
L 292.376429 205.614891 
L 292.376429 201.782495 
L 292.60871 201.782495 
L 292.617478 194.117703 
L 293.846892 194.117703 
L 293.846892 190.285307 
L 294.800379 190.285307 
L 294.800379 186.452911 
L 296.405187 186.452911 
L 296.405187 182.620515 
L 299.218805 182.620515 
L 299.218805 178.788119 
L 299.558386 178.788119 
L 299.558386 174.955723 
L 330.956112 174.955723 
L 330.956112 171.123327 
L 335.057355 171.123327 
L 335.057355 167.290931 
L 336.684925 167.290931 
L 336.684925 163.458535 
L 344.912161 163.458535 
L 344.912161 159.626139 
L 348.443101 159.626139 
L 348.443101 155.793743 
L 354.092336 155.793743 
L 354.092336 151.961347 
L 357.624569 151.961347 
L 357.624569 148.12895 
L 362.622284 148.12895 
L 362.622284 144.296554 
L 363.745625 144.296554 
L 363.745625 140.464158 
L 366.12429 140.464158 
L 366.12429 136.631762 
L 374.358191 136.631762 
L 374.358191 132.799366 
L 378.144207 132.799366 
L 378.144207 128.96697 
L 379.37386 128.96697 
L 379.37386 125.134574 
L 381.617373 125.134574 
L 381.617373 121.302178 
L 382.32157 121.302178 
L 382.32157 117.469782 
L 386.598169 117.469782 
L 386.598169 113.637386 
L 387.641665 113.637386 
L 387.641665 109.80499 
L 389.948611 109.80499 
L 389.948611 105.972594 
L 391.303599 105.972594 
L 391.303599 102.140198 
L 392.260289 102.140198 
L 392.260289 98.307802 
L 392.492581 98.307802 
L 392.492581 94.475406 
L 393.462373 94.475406 
L 393.462373 90.64301 
L 393.763225 90.64301 
L 393.763225 86.810614 
L 394.944165 86.810614 
L 394.944165 82.978218 
L 395.683122 82.978218 
L 395.683122 79.145822 
L 397.155808 79.145822 
L 397.155808 75.313426 
L 397.284806 75.313426 
L 397.284806 71.48103 
L 398.494847 71.48103 
L 398.494847 67.648634 
L 401.316237 67.648634 
L 401.316237 63.816238 
L 403.882292 63.816238 
L 403.882292 59.983842 
L 404.452966 59.983842 
L 404.452966 56.151446 
L 405.747804 56.151446 
L 405.747804 52.31905 
L 407.000038 52.31905 
L 407.000038 48.486653 
L 407.488357 48.486653 
L 407.488357 44.654257 
L 408.82808 44.654257 
L 408.82808 40.821861 
L 412.002476 40.821861 
L 412.002476 36.989465 
L 414.293504 36.989465 
L 414.293504 33.157069 
L 418.47761 33.157069 
L 418.47761 29.324673 
L 418.949515 29.324673 
L 418.949515 25.492277 
L 419.562528 25.492277 
L 419.562528 21.659881 
L 419.862087 21.659881 
L 419.862087 17.827485 
L 429.726703 17.827485 
L 429.726703 13.995089 
L 430.595229 13.995089 
L 430.595229 10.162693 
L 437.135801 10.162693 
L 437.135801 6.330297 
L 437.135801 6.330297 
L 460.8 6.330297 
L 460.8 6.330297 
" style="fill:none;stroke:#00bfbf;stroke-linecap:square;stroke-width:1.5;"/>
   </g>
   <g id="line2d_23">
    <path clip-path="url(#p1f826e15a6)" d="M 229.510781 293.76 
L 229.510781 289.927604 
L 232.318247 289.927604 
L 232.318247 286.095208 
L 232.488144 286.095208 
L 232.488144 282.262812 
L 232.638598 282.262812 
L 232.638598 278.430416 
L 238.281703 278.430416 
L 238.281703 274.59802 
L 239.780326 274.59802 
L 239.780326 270.765624 
L 248.172781 270.765624 
L 248.172781 266.933228 
L 249.116445 266.933228 
L 249.116445 263.100832 
L 250.005659 263.100832 
L 250.005659 259.268436 
L 252.036291 259.268436 
L 252.036291 255.43604 
L 256.694644 255.43604 
L 256.694644 251.603644 
L 257.438122 251.603644 
L 257.438122 247.771248 
L 259.92299 247.771248 
L 259.92299 243.938851 
L 260.293134 243.938851 
L 260.293134 240.106455 
L 264.534889 240.106455 
L 264.534889 236.274059 
L 280.645214 236.274059 
L 280.645214 232.441663 
L 280.940362 232.441663 
L 280.940362 228.609267 
L 284.271099 228.609267 
L 284.271099 224.776871 
L 285.159109 224.776871 
L 285.159109 220.944475 
L 289.267708 220.944475 
L 289.267708 217.112079 
L 289.659781 217.112079 
L 289.659781 213.279683 
L 290.707184 213.279683 
L 290.707184 209.447287 
L 291.898307 209.447287 
L 291.898307 205.614891 
L 292.376048 205.614891 
L 292.376048 201.782495 
L 292.608656 201.782495 
L 292.617261 194.117703 
L 293.846436 194.117703 
L 293.846436 190.285307 
L 294.800379 190.285307 
L 294.800379 186.452911 
L 296.404924 186.452911 
L 296.404924 182.620515 
L 299.218805 182.620515 
L 299.218805 178.788119 
L 299.558309 178.788119 
L 299.558309 174.955723 
L 330.956112 174.955723 
L 330.956112 171.123327 
L 335.038985 171.123327 
L 335.038985 167.290931 
L 336.684925 167.290931 
L 336.684925 163.458535 
L 344.895163 163.458535 
L 344.895163 159.626139 
L 348.436919 159.626139 
L 348.436919 155.793743 
L 354.089108 155.793743 
L 354.089108 151.961347 
L 357.624164 151.961347 
L 357.624164 148.12895 
L 362.622284 148.12895 
L 362.622284 144.296554 
L 363.744668 144.296554 
L 363.744668 140.464158 
L 366.118623 140.464158 
L 366.118623 136.631762 
L 374.357074 136.631762 
L 374.357074 132.799366 
L 378.144207 132.799366 
L 378.144207 128.96697 
L 379.37386 128.96697 
L 379.37386 125.134574 
L 381.617373 125.134574 
L 381.617373 121.302178 
L 382.32145 121.302178 
L 382.32145 117.469782 
L 386.598169 117.469782 
L 386.598169 113.637386 
L 387.640728 113.637386 
L 387.640728 109.80499 
L 389.947707 109.80499 
L 389.947707 105.972594 
L 391.302524 105.972594 
L 391.302524 102.140198 
L 392.258322 102.140198 
L 392.258322 98.307802 
L 392.491372 98.307802 
L 392.491372 94.475406 
L 393.462373 94.475406 
L 393.462373 90.64301 
L 393.761705 90.64301 
L 393.761705 86.810614 
L 394.943677 86.810614 
L 394.943677 82.978218 
L 395.682439 82.978218 
L 395.682439 79.145822 
L 397.155138 79.145822 
L 397.155138 75.313426 
L 397.283696 75.313426 
L 397.283696 71.48103 
L 398.492511 71.48103 
L 398.492511 67.648634 
L 401.31617 67.648634 
L 401.31617 63.816238 
L 403.881182 63.816238 
L 403.881182 59.983842 
L 404.452196 59.983842 
L 404.452196 56.151446 
L 405.747346 56.151446 
L 405.747346 52.31905 
L 406.999701 52.31905 
L 406.999701 48.486653 
L 407.487836 48.486653 
L 407.487836 44.654257 
L 408.827301 44.654257 
L 408.827301 40.821861 
L 412.001719 40.821861 
L 412.001719 36.989465 
L 414.292958 36.989465 
L 414.292958 33.157069 
L 418.476254 33.157069 
L 418.476254 29.324673 
L 418.947604 29.324673 
L 418.947604 25.492277 
L 419.562528 25.492277 
L 419.562528 21.659881 
L 419.861284 21.659881 
L 419.861284 17.827485 
L 429.726703 17.827485 
L 429.726703 13.995089 
L 430.594318 13.995089 
L 430.594318 10.162693 
L 437.135245 10.162693 
L 437.135245 6.330297 
L 437.135245 6.330297 
L 460.8 6.330297 
L 460.8 6.330297 
" style="fill:none;stroke:#bf00bf;stroke-linecap:square;stroke-width:1.5;"/>
   </g>
   <g id="line2d_24">
    <path clip-path="url(#p1f826e15a6)" d="M 229.503567 293.76 
L 229.503567 289.927604 
L 232.316277 289.927604 
L 232.316277 286.095208 
L 232.478443 286.095208 
L 232.478443 282.262812 
L 232.624334 282.262812 
L 232.624334 278.430416 
L 238.274966 278.430416 
L 238.274966 274.59802 
L 239.77571 274.59802 
L 239.77571 270.765624 
L 248.1706 270.765624 
L 248.1706 266.933228 
L 249.108871 266.933228 
L 249.108871 263.100832 
L 250.00005 263.100832 
L 250.00005 259.268436 
L 252.029959 259.268436 
L 252.029959 255.43604 
L 256.689207 255.43604 
L 256.689207 251.603644 
L 257.429512 251.603644 
L 257.429512 247.771248 
L 259.916019 247.771248 
L 259.916019 243.938851 
L 260.286871 243.938851 
L 260.286871 240.106455 
L 264.53003 240.106455 
L 264.53003 236.274059 
L 280.639061 236.274059 
L 280.639061 232.441663 
L 280.934954 232.441663 
L 280.934954 228.609267 
L 284.265331 228.609267 
L 284.265331 224.776871 
L 285.155244 224.776871 
L 285.155244 220.944475 
L 288.732504 220.944475 
L 288.732504 217.112079 
L 289.264579 217.112079 
L 289.264579 213.279683 
L 290.705026 213.279683 
L 290.705026 209.447287 
L 291.895809 209.447287 
L 291.895809 205.614891 
L 292.373827 205.614891 
L 292.373827 201.782495 
L 292.605873 201.782495 
L 292.613366 194.117703 
L 293.843925 194.117703 
L 293.843925 190.285307 
L 294.798556 190.285307 
L 294.798556 186.452911 
L 296.401969 186.452911 
L 296.401969 182.620515 
L 299.216903 182.620515 
L 299.216903 178.788119 
L 299.556758 178.788119 
L 299.556758 174.955723 
L 330.895389 174.955723 
L 330.895389 171.123327 
L 334.94226 171.123327 
L 334.94226 167.290931 
L 336.58415 167.290931 
L 336.58415 163.458535 
L 344.852044 163.458535 
L 344.852044 159.626139 
L 348.365718 159.626139 
L 348.365718 155.793743 
L 354.067905 155.793743 
L 354.067905 151.961347 
L 357.61794 151.961347 
L 357.61794 148.12895 
L 362.59501 148.12895 
L 362.59501 144.296554 
L 363.740648 144.296554 
L 363.740648 140.464158 
L 366.086892 140.464158 
L 366.086892 136.631762 
L 374.319137 136.631762 
L 374.319137 132.799366 
L 378.12313 132.799366 
L 378.12313 128.96697 
L 379.365536 128.96697 
L 379.365536 125.134574 
L 381.597507 125.134574 
L 381.597507 121.302178 
L 382.310835 121.302178 
L 382.310835 117.469782 
L 386.590799 117.469782 
L 386.590799 113.637386 
L 387.635142 113.637386 
L 387.635142 109.80499 
L 389.938569 109.80499 
L 389.938569 105.972594 
L 391.289701 105.972594 
L 391.289701 102.140198 
L 392.251554 102.140198 
L 392.251554 98.307802 
L 392.476296 98.307802 
L 392.476296 94.475406 
L 393.45836 94.475406 
L 393.45836 90.64301 
L 393.755169 90.64301 
L 393.755169 86.810614 
L 394.937446 86.810614 
L 394.937446 82.978218 
L 395.677631 82.978218 
L 395.677631 79.145822 
L 397.146379 79.145822 
L 397.146379 75.313426 
L 397.275649 75.313426 
L 397.275649 71.48103 
L 398.481315 71.48103 
L 398.481315 67.648634 
L 401.308954 67.648634 
L 401.308954 63.816238 
L 403.870469 63.816238 
L 403.870469 59.983842 
L 404.445951 59.983842 
L 404.445951 56.151446 
L 405.742101 56.151446 
L 405.742101 52.31905 
L 406.994999 52.31905 
L 406.994999 48.486653 
L 407.485222 48.486653 
L 407.485222 44.654257 
L 408.82312 44.654257 
L 408.82312 40.821861 
L 411.997292 40.821861 
L 411.997292 36.989465 
L 414.289103 36.989465 
L 414.289103 33.157069 
L 418.4697 33.157069 
L 418.4697 29.324673 
L 418.939763 29.324673 
L 418.939763 25.492277 
L 419.548087 25.492277 
L 419.548087 21.659881 
L 419.851078 21.659881 
L 419.851078 17.827485 
L 429.717845 17.827485 
L 429.717845 13.995089 
L 430.584607 13.995089 
L 430.584607 10.162693 
L 437.13007 10.162693 
L 437.13007 6.330297 
L 437.13007 6.330297 
L 460.8 6.330297 
L 460.8 6.330297 
" style="fill:none;stroke:#000000;stroke-linecap:square;stroke-width:1.5;"/>
   </g>
   <g id="line2d_25">
    <path clip-path="url(#p1f826e15a6)" d="M 228.832955 293.76 
L 228.832955 289.927604 
L 230.899949 289.927604 
L 230.899949 286.095208 
L 231.220193 286.095208 
L 231.220193 282.262812 
L 232.032183 282.262812 
L 232.032183 278.430416 
L 237.403749 278.430416 
L 237.403749 274.59802 
L 239.128867 274.59802 
L 239.128867 270.765624 
L 247.871576 270.765624 
L 247.871576 266.933228 
L 248.272278 266.933228 
L 248.272278 263.100832 
L 249.490204 263.100832 
L 249.490204 259.268436 
L 251.196442 259.268436 
L 251.196442 255.43604 
L 252.806678 255.43604 
L 252.806678 251.603644 
L 255.778097 251.603644 
L 255.778097 247.771248 
L 256.427691 247.771248 
L 256.427691 243.938851 
L 258.877104 243.938851 
L 258.877104 240.106455 
L 259.452006 240.106455 
L 259.452006 236.274059 
L 263.758513 236.274059 
L 263.758513 232.441663 
L 280.033464 232.441663 
L 280.033464 228.609267 
L 280.337147 228.609267 
L 280.337147 224.776871 
L 283.547273 224.776871 
L 283.547273 220.944475 
L 284.634386 220.944475 
L 284.634386 217.112079 
L 288.824567 217.112079 
L 288.824567 213.279683 
L 290.407761 213.279683 
L 290.407761 209.447287 
L 291.545606 209.447287 
L 291.545606 205.614891 
L 292.073679 205.614891 
L 292.073679 201.782495 
L 292.221122 201.782495 
L 292.229165 194.117703 
L 293.529874 194.117703 
L 293.529874 190.285307 
L 294.548149 190.285307 
L 294.548149 186.452911 
L 296.111869 186.452911 
L 296.111869 182.620515 
L 298.95511 182.620515 
L 298.95511 178.788119 
L 299.338149 178.788119 
L 299.338149 174.955723 
L 307.686311 174.955723 
L 307.686311 171.123327 
L 325.166949 171.123327 
L 325.166949 167.290931 
L 326.101543 167.290931 
L 326.101543 163.458535 
L 335.655803 163.458535 
L 335.655803 159.626139 
L 335.995723 159.626139 
L 335.995723 155.793743 
L 352.204115 155.793743 
L 352.204115 151.961347 
L 356.729077 151.961347 
L 356.729077 148.12895 
L 359.054774 148.12895 
L 359.054774 144.296554 
L 361.548681 144.296554 
L 361.548681 140.464158 
L 361.988143 140.464158 
L 361.988143 136.631762 
L 370.566571 136.631762 
L 370.566571 132.799366 
L 373.628624 132.799366 
L 373.628624 128.96697 
L 377.545145 128.96697 
L 377.545145 125.134574 
L 379.345268 125.134574 
L 379.345268 121.302178 
L 381.177323 121.302178 
L 381.177323 117.469782 
L 385.668113 117.469782 
L 385.668113 113.637386 
L 386.847286 113.637386 
L 386.847286 109.80499 
L 389.056289 109.80499 
L 389.056289 105.972594 
L 389.456131 105.972594 
L 389.456131 102.140198 
L 390.836467 102.140198 
L 390.836467 98.307802 
L 391.131552 98.307802 
L 391.131552 94.475406 
L 392.605174 94.475406 
L 392.605174 90.64301 
L 392.881101 90.64301 
L 392.881101 86.810614 
L 393.901368 86.810614 
L 393.901368 82.978218 
L 394.983286 82.978218 
L 394.983286 79.145822 
L 395.96126 79.145822 
L 395.96126 75.313426 
L 396.452821 75.313426 
L 396.452821 71.48103 
L 396.789044 71.48103 
L 396.789044 67.648634 
L 400.590686 67.648634 
L 400.590686 63.816238 
L 402.397219 63.816238 
L 402.397219 59.983842 
L 403.787838 59.983842 
L 403.787838 56.151446 
L 404.958686 56.151446 
L 404.958686 52.31905 
L 406.341659 52.31905 
L 406.341659 48.486653 
L 407.030294 48.486653 
L 407.030294 44.654257 
L 408.233453 44.654257 
L 408.233453 40.821861 
L 411.480552 40.821861 
L 411.480552 36.989465 
L 413.806182 36.989465 
L 413.806182 33.157069 
L 417.598973 33.157069 
L 417.59972 25.492277 
L 417.858178 25.492277 
L 417.858178 21.659881 
L 418.335333 21.659881 
L 418.335333 17.827485 
L 428.536165 17.827485 
L 428.536165 13.995089 
L 429.219769 13.995089 
L 429.219769 10.162693 
L 436.416549 10.162693 
L 436.416549 6.330297 
L 436.416549 6.330297 
L 460.8 6.330297 
L 460.8 6.330297 
" style="fill:none;stroke:#00bfbf;stroke-linecap:square;stroke-width:1.5;"/>
   </g>
   <g id="line2d_26">
    <path clip-path="url(#p1f826e15a6)" d="M 170.149057 293.76 
L 170.149057 289.927604 
L 175.511236 289.927604 
L 175.511236 286.095208 
L 199.577475 286.095208 
L 199.577475 282.262812 
L 207.87187 282.262812 
L 207.87187 278.430416 
L 208.069723 278.430416 
L 208.069723 274.59802 
L 214.661359 274.59802 
L 214.661359 270.765624 
L 219.95843 270.765624 
L 219.95843 266.933228 
L 220.430586 266.933228 
L 220.430586 263.100832 
L 224.779751 263.100832 
L 224.779751 259.268436 
L 225.539957 259.268436 
L 225.539957 255.43604 
L 226.675776 255.43604 
L 226.675776 251.603644 
L 229.431272 251.603644 
L 229.431272 247.771248 
L 230.270958 247.771248 
L 230.270958 243.938851 
L 237.756599 243.938851 
L 237.857128 236.274059 
L 241.114458 236.274059 
L 241.114458 232.441663 
L 242.281547 232.441663 
L 242.281547 228.609267 
L 243.127252 228.609267 
L 243.127252 224.776871 
L 244.539993 224.776871 
L 244.539993 220.944475 
L 245.032414 220.944475 
L 245.032414 217.112079 
L 245.299345 217.112079 
L 245.299345 213.279683 
L 246.272563 213.279683 
L 246.272563 209.447287 
L 247.237899 209.447287 
L 247.237899 205.614891 
L 248.05112 205.614891 
L 248.05112 201.782495 
L 248.816899 201.782495 
L 248.816899 197.950099 
L 249.926181 197.950099 
L 249.926181 194.117703 
L 251.629179 194.117703 
L 251.629179 190.285307 
L 251.91797 190.285307 
L 251.970238 178.788119 
L 255.252761 178.788119 
L 255.252761 174.955723 
L 258.553847 174.955723 
L 258.553847 171.123327 
L 259.693002 171.123327 
L 259.693002 167.290931 
L 259.927178 167.290931 
L 259.927178 163.458535 
L 263.80617 163.458535 
L 263.80617 159.626139 
L 264.81325 159.626139 
L 264.81325 155.793743 
L 266.886009 155.793743 
L 266.886009 151.961347 
L 267.52131 151.961347 
L 267.52131 148.12895 
L 271.059313 148.12895 
L 271.059313 144.296554 
L 272.889306 144.296554 
L 272.889306 140.464158 
L 275.230785 140.464158 
L 275.230785 136.631762 
L 277.241728 136.631762 
L 277.241728 132.799366 
L 277.916807 132.799366 
L 277.916807 128.96697 
L 278.876223 128.96697 
L 278.986362 121.302178 
L 279.524771 121.302178 
L 279.524771 117.469782 
L 280.429509 117.469782 
L 280.429509 113.637386 
L 280.711163 113.637386 
L 280.711163 109.80499 
L 280.992203 109.80499 
L 280.992203 105.972594 
L 282.513739 105.972594 
L 282.513739 102.140198 
L 284.64032 102.140198 
L 284.64032 98.307802 
L 287.513019 98.307802 
L 287.513019 94.475406 
L 289.206779 94.475406 
L 289.206779 90.64301 
L 298.571729 90.64301 
L 298.571729 86.810614 
L 300.696751 86.810614 
L 300.696751 82.978218 
L 303.551532 82.978218 
L 303.551532 79.145822 
L 310.025543 79.145822 
L 310.025543 75.313426 
L 315.347049 75.313426 
L 315.347049 71.48103 
L 320.629104 71.48103 
L 320.629104 67.648634 
L 321.02622 67.648634 
L 321.02622 63.816238 
L 325.062441 63.816238 
L 325.081376 56.151446 
L 327.330428 56.151446 
L 327.330428 52.31905 
L 328.116411 52.31905 
L 328.116411 48.486653 
L 337.217649 48.486653 
L 337.217649 44.654257 
L 350.14415 44.654257 
L 350.14415 40.821861 
L 352.747225 40.821861 
L 352.747225 36.989465 
L 363.8528 36.989465 
L 363.8528 33.157069 
L 367.273354 33.157069 
L 367.273354 29.324673 
L 367.738194 29.324673 
L 367.738194 25.492277 
L 377.365881 25.492277 
L 377.365881 21.659881 
L 381.567952 21.659881 
L 381.567952 17.827485 
L 384.681823 17.827485 
L 384.681823 13.995089 
L 390.360313 13.995089 
L 390.360313 10.162693 
L 397.344842 10.162693 
L 397.344842 6.330297 
L 397.344842 6.330297 
L 460.8 6.330297 
L 460.8 6.330297 
" style="fill:none;stroke:#bf00bf;stroke-linecap:square;stroke-width:1.5;"/>
   </g>
   <g id="patch_3">
    <path d="M 0 293.76 
L 0 3.456 
" style="fill:none;stroke:#000000;stroke-linecap:square;stroke-linejoin:miter;stroke-width:0.8;"/>
   </g>
   <g id="patch_4">
    <path d="M 460.8 293.76 
L 460.8 3.456 
" style="fill:none;stroke:#000000;stroke-linecap:square;stroke-linejoin:miter;stroke-width:0.8;"/>
   </g>
   <g id="patch_5">
    <path d="M 0 293.76 
L 460.8 293.76 
" style="fill:none;stroke:#000000;stroke-linecap:square;stroke-linejoin:miter;stroke-width:0.8;"/>
   </g>
   <g id="patch_6">
    <path d="M 0 3.456 
L 460.8 3.456 
" style="fill:none;stroke:#000000;stroke-linecap:square;stroke-linejoin:miter;stroke-width:0.8;"/>
   </g>
   <g id="text_6">
    <!-- {f10-f14}, 5-D -->
    <g transform="translate(305.884 287.95392)scale(0.2 -0.2)">
     <defs>
      <path d="M 51.125 -9.28125 
L 51.125 -16.3125 
L 48.09375 -16.3125 
Q 35.9375 -16.3125 31.8125 -12.6875 
Q 27.6875 -9.078125 27.6875 1.703125 
L 27.6875 13.375 
Q 27.6875 20.75 25.046875 23.578125 
Q 22.40625 26.421875 15.484375 26.421875 
L 12.5 26.421875 
L 12.5 33.40625 
L 15.484375 33.40625 
Q 22.46875 33.40625 25.078125 36.203125 
Q 27.6875 39.015625 27.6875 46.296875 
L 27.6875 58.015625 
Q 27.6875 68.796875 31.8125 72.390625 
Q 35.9375 75.984375 48.09375 75.984375 
L 51.125 75.984375 
L 51.125 69 
L 47.796875 69 
Q 40.921875 69 38.8125 66.84375 
Q 36.71875 64.703125 36.71875 57.8125 
L 36.71875 45.703125 
Q 36.71875 38.03125 34.5 34.5625 
Q 32.28125 31.109375 26.90625 29.890625 
Q 32.328125 28.5625 34.515625 25.09375 
Q 36.71875 21.625 36.71875 14.015625 
L 36.71875 1.90625 
Q 36.71875 -4.984375 38.8125 -7.125 
Q 40.921875 -9.28125 47.796875 -9.28125 
z
" id="DejaVuSans-123"/>
      <path d="M 12.5 -9.28125 
L 15.921875 -9.28125 
Q 22.75 -9.28125 24.828125 -7.171875 
Q 26.90625 -5.078125 26.90625 1.90625 
L 26.90625 14.015625 
Q 26.90625 21.625 29.09375 25.09375 
Q 31.296875 28.5625 36.71875 29.890625 
Q 31.296875 31.109375 29.09375 34.5625 
Q 26.90625 38.03125 26.90625 45.703125 
L 26.90625 57.8125 
Q 26.90625 64.75 24.828125 66.875 
Q 22.75 69 15.921875 69 
L 12.5 69 
L 12.5 75.984375 
L 15.578125 75.984375 
Q 27.734375 75.984375 31.8125 72.390625 
Q 35.890625 68.796875 35.890625 58.015625 
L 35.890625 46.296875 
Q 35.890625 39.015625 38.515625 36.203125 
Q 41.15625 33.40625 48.09375 33.40625 
L 51.125 33.40625 
L 51.125 26.421875 
L 48.09375 26.421875 
Q 41.15625 26.421875 38.515625 23.578125 
Q 35.890625 20.75 35.890625 13.375 
L 35.890625 1.703125 
Q 35.890625 -9.078125 31.8125 -12.6875 
Q 27.734375 -16.3125 15.578125 -16.3125 
L 12.5 -16.3125 
z
" id="DejaVuSans-125"/>
      <path d="M 11.71875 12.40625 
L 22.015625 12.40625 
L 22.015625 4 
L 14.015625 -11.625 
L 7.71875 -11.625 
L 11.71875 4 
z
" id="DejaVuSans-44"/>
      <path d="M 10.796875 72.90625 
L 49.515625 72.90625 
L 49.515625 64.59375 
L 19.828125 64.59375 
L 19.828125 46.734375 
Q 21.96875 47.46875 24.109375 47.828125 
Q 26.265625 48.1875 28.421875 48.1875 
Q 40.625 48.1875 47.75 41.5 
Q 54.890625 34.8125 54.890625 23.390625 
Q 54.890625 11.625 47.5625 5.09375 
Q 40.234375 -1.421875 26.90625 -1.421875 
Q 22.3125 -1.421875 17.546875 -0.640625 
Q 12.796875 0.140625 7.71875 1.703125 
L 7.71875 11.625 
Q 12.109375 9.234375 16.796875 8.0625 
Q 21.484375 6.890625 26.703125 6.890625 
Q 35.15625 6.890625 40.078125 11.328125 
Q 45.015625 15.765625 45.015625 23.390625 
Q 45.015625 31 40.078125 35.4375 
Q 35.15625 39.890625 26.703125 39.890625 
Q 22.75 39.890625 18.8125 39.015625 
Q 14.890625 38.140625 10.796875 36.28125 
z
" id="DejaVuSans-53"/>
     </defs>
     <use xlink:href="#DejaVuSans-123"/>
     <use x="63.623047" xlink:href="#DejaVuSans-102"/>
     <use x="98.828125" xlink:href="#DejaVuSans-49"/>
     <use x="162.451172" xlink:href="#DejaVuSans-48"/>
     <use x="226.074219" xlink:href="#DejaVuSans-45"/>
     <use x="262.158203" xlink:href="#DejaVuSans-102"/>
     <use x="297.363281" xlink:href="#DejaVuSans-49"/>
     <use x="360.986328" xlink:href="#DejaVuSans-52"/>
     <use x="424.609375" xlink:href="#DejaVuSans-125"/>
     <use x="488.232422" xlink:href="#DejaVuSans-44"/>
     <use x="520.019531" xlink:href="#DejaVuSans-32"/>
     <use x="551.806641" xlink:href="#DejaVuSans-53"/>
     <use x="615.429688" xlink:href="#DejaVuSans-45"/>
     <use x="651.513672" xlink:href="#DejaVuSans-68"/>
    </g>
   </g>
   <g id="text_7">
    <!-- v2.4 -->
    <g style="fill:#808080;" transform="translate(219.489063 288.777272)scale(0.1 -0.1)">
     <defs>
      <path d="M 2.984375 54.6875 
L 12.5 54.6875 
L 29.59375 8.796875 
L 46.6875 54.6875 
L 56.203125 54.6875 
L 35.6875 0 
L 23.484375 0 
z
" id="DejaVuSans-118"/>
      <path d="M 19.1875 8.296875 
L 53.609375 8.296875 
L 53.609375 0 
L 7.328125 0 
L 7.328125 8.296875 
Q 12.9375 14.109375 22.625 23.890625 
Q 32.328125 33.6875 34.8125 36.53125 
Q 39.546875 41.84375 41.421875 45.53125 
Q 43.3125 49.21875 43.3125 52.78125 
Q 43.3125 58.59375 39.234375 62.25 
Q 35.15625 65.921875 28.609375 65.921875 
Q 23.96875 65.921875 18.8125 64.3125 
Q 13.671875 62.703125 7.8125 59.421875 
L 7.8125 69.390625 
Q 13.765625 71.78125 18.9375 73 
Q 24.125 74.21875 28.421875 74.21875 
Q 39.75 74.21875 46.484375 68.546875 
Q 53.21875 62.890625 53.21875 53.421875 
Q 53.21875 48.921875 51.53125 44.890625 
Q 49.859375 40.875 45.40625 35.40625 
Q 44.1875 33.984375 37.640625 27.21875 
Q 31.109375 20.453125 19.1875 8.296875 
z
" id="DejaVuSans-50"/>
      <path d="M 10.6875 12.40625 
L 21 12.40625 
L 21 0 
L 10.6875 0 
z
" id="DejaVuSans-46"/>
     </defs>
     <use xlink:href="#DejaVuSans-118"/>
     <use x="59.179688" xlink:href="#DejaVuSans-50"/>
     <use x="122.802734" xlink:href="#DejaVuSans-46"/>
     <use x="154.589844" xlink:href="#DejaVuSans-52"/>
    </g>
   </g>
  </g>
 </g>
 <defs>
  <clipPath id="p1f826e15a6">
   <rect height="290.304" width="460.8" x="0" y="3.456"/>
  </clipPath>
 </defs>
</svg>
