<?xml version="1.0" encoding="utf-8" standalone="no"?>
<!DOCTYPE svg PUBLIC "-//W3C//DTD SVG 1.1//EN"
  "http://www.w3.org/Graphics/SVG/1.1/DTD/svg11.dtd">
<!-- Created with matplotlib (https://matplotlib.org/) -->
<svg height="345.6pt" version="1.1" viewBox="0 0 460.8 345.6" width="460.8pt" xmlns="http://www.w3.org/2000/svg" xmlns:xlink="http://www.w3.org/1999/xlink">
 <metadata>
  <rdf:RDF xmlns:cc="http://creativecommons.org/ns#" xmlns:dc="http://purl.org/dc/elements/1.1/" xmlns:rdf="http://www.w3.org/1999/02/22-rdf-syntax-ns#">
   <cc:Work>
    <dc:type rdf:resource="http://purl.org/dc/dcmitype/StillImage"/>
    <dc:date>2021-08-04T10:26:03.894407</dc:date>
    <dc:format>image/svg+xml</dc:format>
    <dc:creator>
     <cc:Agent>
      <dc:title>Matplotlib v3.3.1, https://matplotlib.org/</dc:title>
     </cc:Agent>
    </dc:creator>
   </cc:Work>
  </rdf:RDF>
 </metadata>
 <defs>
  <style type="text/css">*{stroke-linecap:butt;stroke-linejoin:round;}</style>
 </defs>
 <g id="figure_1">
  <g id="patch_1">
   <path d="M 0 345.6 
L 460.8 345.6 
L 460.8 0 
L 0 0 
z
" style="fill:#ffffff;"/>
  </g>
  <g id="axes_1">
   <g id="patch_2">
    <path d="M 0 293.76 
L 460.8 293.76 
L 460.8 3.456 
L 0 3.456 
z
" style="fill:#ffffff;"/>
   </g>
   <g id="matplotlib.axis_1">
    <g id="xtick_1">
     <g id="line2d_1">
      <path clip-path="url(#pb09413466f)" d="M 106.364787 293.76 
L 106.364787 3.456 
" style="fill:none;stroke:#b0b0b0;stroke-linecap:square;stroke-width:0.8;"/>
     </g>
     <g id="line2d_2">
      <defs>
       <path d="M 0 0 
L 0 3.5 
" id="m399ead03a2" style="stroke:#000000;stroke-width:0.8;"/>
      </defs>
      <g>
       <use style="stroke:#000000;stroke-width:0.8;" x="106.364787" xlink:href="#m399ead03a2" y="293.76"/>
      </g>
     </g>
     <g id="text_1">
      <!-- -4 -->
      <g transform="translate(96.394475 315.956875)scale(0.2 -0.2)">
       <defs>
        <path d="M 4.890625 31.390625 
L 31.203125 31.390625 
L 31.203125 23.390625 
L 4.890625 23.390625 
z
" id="DejaVuSans-45"/>
        <path d="M 37.796875 64.3125 
L 12.890625 25.390625 
L 37.796875 25.390625 
z
M 35.203125 72.90625 
L 47.609375 72.90625 
L 47.609375 25.390625 
L 58.015625 25.390625 
L 58.015625 17.1875 
L 47.609375 17.1875 
L 47.609375 0 
L 37.796875 0 
L 37.796875 17.1875 
L 4.890625 17.1875 
L 4.890625 26.703125 
z
" id="DejaVuSans-52"/>
       </defs>
       <use xlink:href="#DejaVuSans-45"/>
       <use x="36.083984" xlink:href="#DejaVuSans-52"/>
      </g>
     </g>
    </g>
    <g id="xtick_2">
     <g id="line2d_3">
      <path clip-path="url(#pb09413466f)" d="M 212.84461 293.76 
L 212.84461 3.456 
" style="fill:none;stroke:#b0b0b0;stroke-linecap:square;stroke-width:0.8;"/>
     </g>
     <g id="line2d_4">
      <g>
       <use style="stroke:#000000;stroke-width:0.8;" x="212.84461" xlink:href="#m399ead03a2" y="293.76"/>
      </g>
     </g>
     <g id="text_2">
      <!-- 0 -->
      <g transform="translate(206.48211 315.956875)scale(0.2 -0.2)">
       <defs>
        <path d="M 31.78125 66.40625 
Q 24.171875 66.40625 20.328125 58.90625 
Q 16.5 51.421875 16.5 36.375 
Q 16.5 21.390625 20.328125 13.890625 
Q 24.171875 6.390625 31.78125 6.390625 
Q 39.453125 6.390625 43.28125 13.890625 
Q 47.125 21.390625 47.125 36.375 
Q 47.125 51.421875 43.28125 58.90625 
Q 39.453125 66.40625 31.78125 66.40625 
z
M 31.78125 74.21875 
Q 44.046875 74.21875 50.515625 64.515625 
Q 56.984375 54.828125 56.984375 36.375 
Q 56.984375 17.96875 50.515625 8.265625 
Q 44.046875 -1.421875 31.78125 -1.421875 
Q 19.53125 -1.421875 13.0625 8.265625 
Q 6.59375 17.96875 6.59375 36.375 
Q 6.59375 54.828125 13.0625 64.515625 
Q 19.53125 74.21875 31.78125 74.21875 
z
" id="DejaVuSans-48"/>
       </defs>
       <use xlink:href="#DejaVuSans-48"/>
      </g>
     </g>
    </g>
    <g id="xtick_3">
     <g id="line2d_5">
      <path clip-path="url(#pb09413466f)" d="M 319.324432 293.76 
L 319.324432 3.456 
" style="fill:none;stroke:#b0b0b0;stroke-linecap:square;stroke-width:0.8;"/>
     </g>
     <g id="line2d_6">
      <g>
       <use style="stroke:#000000;stroke-width:0.8;" x="319.324432" xlink:href="#m399ead03a2" y="293.76"/>
      </g>
     </g>
     <g id="text_3">
      <!-- 4 -->
      <g transform="translate(312.961932 315.956875)scale(0.2 -0.2)">
       <use xlink:href="#DejaVuSans-52"/>
      </g>
     </g>
    </g>
    <g id="xtick_4">
     <g id="line2d_7">
      <path clip-path="url(#pb09413466f)" d="M 425.804254 293.76 
L 425.804254 3.456 
" style="fill:none;stroke:#b0b0b0;stroke-linecap:square;stroke-width:0.8;"/>
     </g>
     <g id="line2d_8">
      <g>
       <use style="stroke:#000000;stroke-width:0.8;" x="425.804254" xlink:href="#m399ead03a2" y="293.76"/>
      </g>
     </g>
     <g id="text_4">
      <!-- 8 -->
      <g transform="translate(419.441754 315.956875)scale(0.2 -0.2)">
       <defs>
        <path d="M 31.78125 34.625 
Q 24.75 34.625 20.71875 30.859375 
Q 16.703125 27.09375 16.703125 20.515625 
Q 16.703125 13.921875 20.71875 10.15625 
Q 24.75 6.390625 31.78125 6.390625 
Q 38.8125 6.390625 42.859375 10.171875 
Q 46.921875 13.96875 46.921875 20.515625 
Q 46.921875 27.09375 42.890625 30.859375 
Q 38.875 34.625 31.78125 34.625 
z
M 21.921875 38.8125 
Q 15.578125 40.375 12.03125 44.71875 
Q 8.5 49.078125 8.5 55.328125 
Q 8.5 64.0625 14.71875 69.140625 
Q 20.953125 74.21875 31.78125 74.21875 
Q 42.671875 74.21875 48.875 69.140625 
Q 55.078125 64.0625 55.078125 55.328125 
Q 55.078125 49.078125 51.53125 44.71875 
Q 48 40.375 41.703125 38.8125 
Q 48.828125 37.15625 52.796875 32.3125 
Q 56.78125 27.484375 56.78125 20.515625 
Q 56.78125 9.90625 50.3125 4.234375 
Q 43.84375 -1.421875 31.78125 -1.421875 
Q 19.734375 -1.421875 13.25 4.234375 
Q 6.78125 9.90625 6.78125 20.515625 
Q 6.78125 27.484375 10.78125 32.3125 
Q 14.796875 37.15625 21.921875 38.8125 
z
M 18.3125 54.390625 
Q 18.3125 48.734375 21.84375 45.5625 
Q 25.390625 42.390625 31.78125 42.390625 
Q 38.140625 42.390625 41.71875 45.5625 
Q 45.3125 48.734375 45.3125 54.390625 
Q 45.3125 60.0625 41.71875 63.234375 
Q 38.140625 66.40625 31.78125 66.40625 
Q 25.390625 66.40625 21.84375 63.234375 
Q 18.3125 60.0625 18.3125 54.390625 
z
" id="DejaVuSans-56"/>
       </defs>
       <use xlink:href="#DejaVuSans-56"/>
      </g>
     </g>
    </g>
    <g id="text_5">
     <!-- log10 of Df -->
     <g transform="translate(175.214063 339.313125)scale(0.2 -0.2)">
      <defs>
       <path d="M 9.421875 75.984375 
L 18.40625 75.984375 
L 18.40625 0 
L 9.421875 0 
z
" id="DejaVuSans-108"/>
       <path d="M 30.609375 48.390625 
Q 23.390625 48.390625 19.1875 42.75 
Q 14.984375 37.109375 14.984375 27.296875 
Q 14.984375 17.484375 19.15625 11.84375 
Q 23.34375 6.203125 30.609375 6.203125 
Q 37.796875 6.203125 41.984375 11.859375 
Q 46.1875 17.53125 46.1875 27.296875 
Q 46.1875 37.015625 41.984375 42.703125 
Q 37.796875 48.390625 30.609375 48.390625 
z
M 30.609375 56 
Q 42.328125 56 49.015625 48.375 
Q 55.71875 40.765625 55.71875 27.296875 
Q 55.71875 13.875 49.015625 6.21875 
Q 42.328125 -1.421875 30.609375 -1.421875 
Q 18.84375 -1.421875 12.171875 6.21875 
Q 5.515625 13.875 5.515625 27.296875 
Q 5.515625 40.765625 12.171875 48.375 
Q 18.84375 56 30.609375 56 
z
" id="DejaVuSans-111"/>
       <path d="M 45.40625 27.984375 
Q 45.40625 37.75 41.375 43.109375 
Q 37.359375 48.484375 30.078125 48.484375 
Q 22.859375 48.484375 18.828125 43.109375 
Q 14.796875 37.75 14.796875 27.984375 
Q 14.796875 18.265625 18.828125 12.890625 
Q 22.859375 7.515625 30.078125 7.515625 
Q 37.359375 7.515625 41.375 12.890625 
Q 45.40625 18.265625 45.40625 27.984375 
z
M 54.390625 6.78125 
Q 54.390625 -7.171875 48.1875 -13.984375 
Q 42 -20.796875 29.203125 -20.796875 
Q 24.46875 -20.796875 20.265625 -20.09375 
Q 16.0625 -19.390625 12.109375 -17.921875 
L 12.109375 -9.1875 
Q 16.0625 -11.328125 19.921875 -12.34375 
Q 23.78125 -13.375 27.78125 -13.375 
Q 36.625 -13.375 41.015625 -8.765625 
Q 45.40625 -4.15625 45.40625 5.171875 
L 45.40625 9.625 
Q 42.625 4.78125 38.28125 2.390625 
Q 33.9375 0 27.875 0 
Q 17.828125 0 11.671875 7.65625 
Q 5.515625 15.328125 5.515625 27.984375 
Q 5.515625 40.671875 11.671875 48.328125 
Q 17.828125 56 27.875 56 
Q 33.9375 56 38.28125 53.609375 
Q 42.625 51.21875 45.40625 46.390625 
L 45.40625 54.6875 
L 54.390625 54.6875 
z
" id="DejaVuSans-103"/>
       <path d="M 12.40625 8.296875 
L 28.515625 8.296875 
L 28.515625 63.921875 
L 10.984375 60.40625 
L 10.984375 69.390625 
L 28.421875 72.90625 
L 38.28125 72.90625 
L 38.28125 8.296875 
L 54.390625 8.296875 
L 54.390625 0 
L 12.40625 0 
z
" id="DejaVuSans-49"/>
       <path id="DejaVuSans-32"/>
       <path d="M 37.109375 75.984375 
L 37.109375 68.5 
L 28.515625 68.5 
Q 23.6875 68.5 21.796875 66.546875 
Q 19.921875 64.59375 19.921875 59.515625 
L 19.921875 54.6875 
L 34.71875 54.6875 
L 34.71875 47.703125 
L 19.921875 47.703125 
L 19.921875 0 
L 10.890625 0 
L 10.890625 47.703125 
L 2.296875 47.703125 
L 2.296875 54.6875 
L 10.890625 54.6875 
L 10.890625 58.5 
Q 10.890625 67.625 15.140625 71.796875 
Q 19.390625 75.984375 28.609375 75.984375 
z
" id="DejaVuSans-102"/>
       <path d="M 19.671875 64.796875 
L 19.671875 8.109375 
L 31.59375 8.109375 
Q 46.6875 8.109375 53.6875 14.9375 
Q 60.6875 21.78125 60.6875 36.53125 
Q 60.6875 51.171875 53.6875 57.984375 
Q 46.6875 64.796875 31.59375 64.796875 
z
M 9.8125 72.90625 
L 30.078125 72.90625 
Q 51.265625 72.90625 61.171875 64.09375 
Q 71.09375 55.28125 71.09375 36.53125 
Q 71.09375 17.671875 61.125 8.828125 
Q 51.171875 0 30.078125 0 
L 9.8125 0 
z
" id="DejaVuSans-68"/>
      </defs>
      <use xlink:href="#DejaVuSans-108"/>
      <use x="27.783203" xlink:href="#DejaVuSans-111"/>
      <use x="88.964844" xlink:href="#DejaVuSans-103"/>
      <use x="152.441406" xlink:href="#DejaVuSans-49"/>
      <use x="216.064453" xlink:href="#DejaVuSans-48"/>
      <use x="279.6875" xlink:href="#DejaVuSans-32"/>
      <use x="311.474609" xlink:href="#DejaVuSans-111"/>
      <use x="372.65625" xlink:href="#DejaVuSans-102"/>
      <use x="407.861328" xlink:href="#DejaVuSans-32"/>
      <use x="439.648438" xlink:href="#DejaVuSans-68"/>
      <use x="516.650391" xlink:href="#DejaVuSans-102"/>
     </g>
    </g>
   </g>
   <g id="matplotlib.axis_2">
    <g id="ytick_1">
     <g id="line2d_9">
      <path clip-path="url(#pb09413466f)" d="M 0 293.76 
L 460.8 293.76 
" style="fill:none;stroke:#b0b0b0;stroke-linecap:square;stroke-width:0.8;"/>
     </g>
     <g id="line2d_10">
      <defs>
       <path d="M 0 0 
L -3.5 0 
" id="meca1ef9d50" style="stroke:#000000;stroke-width:0.8;"/>
      </defs>
      <g>
       <use style="stroke:#000000;stroke-width:0.8;" x="0" xlink:href="#meca1ef9d50" y="293.76"/>
      </g>
     </g>
    </g>
    <g id="ytick_2">
     <g id="line2d_11">
      <path clip-path="url(#pb09413466f)" d="M 0 236.274059 
L 460.8 236.274059 
" style="fill:none;stroke:#b0b0b0;stroke-linecap:square;stroke-width:0.8;"/>
     </g>
     <g id="line2d_12">
      <g>
       <use style="stroke:#000000;stroke-width:0.8;" x="0" xlink:href="#meca1ef9d50" y="236.274059"/>
      </g>
     </g>
    </g>
    <g id="ytick_3">
     <g id="line2d_13">
      <path clip-path="url(#pb09413466f)" d="M 0 178.788119 
L 460.8 178.788119 
" style="fill:none;stroke:#b0b0b0;stroke-linecap:square;stroke-width:0.8;"/>
     </g>
     <g id="line2d_14">
      <g>
       <use style="stroke:#000000;stroke-width:0.8;" x="0" xlink:href="#meca1ef9d50" y="178.788119"/>
      </g>
     </g>
    </g>
    <g id="ytick_4">
     <g id="line2d_15">
      <path clip-path="url(#pb09413466f)" d="M 0 121.302178 
L 460.8 121.302178 
" style="fill:none;stroke:#b0b0b0;stroke-linecap:square;stroke-width:0.8;"/>
     </g>
     <g id="line2d_16">
      <g>
       <use style="stroke:#000000;stroke-width:0.8;" x="0" xlink:href="#meca1ef9d50" y="121.302178"/>
      </g>
     </g>
    </g>
    <g id="ytick_5">
     <g id="line2d_17">
      <path clip-path="url(#pb09413466f)" d="M 0 63.816238 
L 460.8 63.816238 
" style="fill:none;stroke:#b0b0b0;stroke-linecap:square;stroke-width:0.8;"/>
     </g>
     <g id="line2d_18">
      <g>
       <use style="stroke:#000000;stroke-width:0.8;" x="0" xlink:href="#meca1ef9d50" y="63.816238"/>
      </g>
     </g>
    </g>
    <g id="ytick_6">
     <g id="line2d_19">
      <path clip-path="url(#pb09413466f)" d="M 0 6.330297 
L 460.8 6.330297 
" style="fill:none;stroke:#b0b0b0;stroke-linecap:square;stroke-width:0.8;"/>
     </g>
     <g id="line2d_20">
      <g>
       <use style="stroke:#000000;stroke-width:0.8;" x="0" xlink:href="#meca1ef9d50" y="6.330297"/>
      </g>
     </g>
    </g>
   </g>
   <g id="line2d_21">
    <path clip-path="url(#pb09413466f)" d="M 255.277796 293.76 
L 255.277796 289.927604 
L 255.909009 289.927604 
L 255.909009 286.095208 
L 256.105328 286.095208 
L 256.105328 282.262812 
L 256.487146 282.262812 
L 256.568715 274.59802 
L 256.897205 274.59802 
L 256.897205 270.765624 
L 257.962399 270.765624 
L 257.962399 266.933228 
L 258.566504 266.933228 
L 258.566504 263.100832 
L 258.9006 263.100832 
L 258.9006 259.268436 
L 259.557588 259.268436 
L 259.557588 255.43604 
L 260.395576 255.43604 
L 260.395576 251.603644 
L 260.81693 251.603644 
L 260.81693 247.771248 
L 261.167724 247.771248 
L 261.167724 243.938851 
L 262.160301 243.938851 
L 262.160301 240.106455 
L 264.429796 240.106455 
L 264.429796 236.274059 
L 266.903305 236.274059 
L 266.903305 232.441663 
L 267.86502 232.441663 
L 267.921434 224.776871 
L 269.831051 224.776871 
L 269.831051 220.944475 
L 270.045439 220.944475 
L 270.045439 217.112079 
L 270.616433 217.112079 
L 270.616433 213.279683 
L 271.540768 213.279683 
L 271.61204 201.782495 
L 272.993423 201.782495 
L 272.993423 197.950099 
L 273.697564 197.950099 
L 273.755606 190.285307 
L 274.351486 190.285307 
L 274.351486 186.452911 
L 275.623997 186.452911 
L 275.623997 182.620515 
L 276.666522 182.620515 
L 276.666522 178.788119 
L 280.506275 178.788119 
L 280.506275 174.955723 
L 281.033668 174.955723 
L 281.033668 171.123327 
L 282.451742 171.123327 
L 282.451742 167.290931 
L 282.921106 167.290931 
L 282.921106 163.458535 
L 283.132329 163.458535 
L 283.162989 151.961347 
L 283.899388 151.961347 
L 283.899388 148.12895 
L 284.128601 148.12895 
L 284.128601 144.296554 
L 284.274053 144.296554 
L 284.274053 140.464158 
L 284.631034 140.464158 
L 284.631034 136.631762 
L 285.024532 136.631762 
L 285.024532 132.799366 
L 285.350182 132.799366 
L 285.350182 128.96697 
L 285.726267 128.96697 
L 285.739217 121.302178 
L 285.964318 121.302178 
L 285.964318 117.469782 
L 286.305042 117.469782 
L 286.305042 113.637386 
L 286.559105 113.637386 
L 286.652969 105.972594 
L 286.729197 105.972594 
L 286.729197 102.140198 
L 286.974917 102.140198 
L 286.974917 98.307802 
L 287.827056 98.307802 
L 287.827056 94.475406 
L 287.969808 94.475406 
L 287.969808 90.64301 
L 288.531432 90.64301 
L 288.531432 86.810614 
L 289.532893 86.810614 
L 289.532893 82.978218 
L 289.79362 82.978218 
L 289.798099 75.313426 
L 290.487153 75.313426 
L 290.487153 71.48103 
L 290.909391 71.48103 
L 290.909391 67.648634 
L 291.53344 67.648634 
L 291.53344 63.816238 
L 350.157897 63.816238 
L 350.157897 59.983842 
L 353.833547 59.983842 
L 353.833547 56.151446 
L 354.188617 56.151446 
L 354.188617 52.31905 
L 357.915408 52.31905 
L 357.915408 48.486653 
L 358.963564 48.486653 
L 358.963564 44.654257 
L 359.782856 44.654257 
L 359.782856 40.821861 
L 363.081776 40.821861 
L 363.081776 36.989465 
L 366.391654 36.989465 
L 366.391654 33.157069 
L 366.798066 33.157069 
L 366.798066 29.324673 
L 368.067717 29.324673 
L 368.067717 25.492277 
L 369.802285 25.492277 
L 369.802285 21.659881 
L 369.970249 21.659881 
L 369.970249 17.827485 
L 376.277919 17.827485 
L 376.277919 13.995089 
L 377.282595 13.995089 
L 377.282595 10.162693 
L 378.698371 10.162693 
L 378.698371 6.330297 
L 378.698371 6.330297 
L 460.8 6.330297 
L 460.8 6.330297 
" style="fill:none;stroke:#ff0000;stroke-linecap:square;stroke-width:3;"/>
   </g>
   <g id="line2d_22">
    <path clip-path="url(#pb09413466f)" d="M 262.282257 293.76 
L 262.282257 289.927604 
L 264.616583 289.927604 
L 264.616583 286.095208 
L 264.837115 286.095208 
L 264.837115 282.262812 
L 265.151014 282.262812 
L 265.151014 278.430416 
L 265.707448 278.430416 
L 265.785991 270.765624 
L 266.113378 270.765624 
L 266.113378 266.933228 
L 266.978959 266.933228 
L 267.033969 259.268436 
L 267.149758 259.268436 
L 267.149758 255.43604 
L 268.493325 255.43604 
L 268.493325 251.603644 
L 268.947941 251.603644 
L 268.947941 247.771248 
L 269.086667 247.771248 
L 269.086667 243.938851 
L 269.35074 243.938851 
L 269.35074 240.106455 
L 270.511804 240.106455 
L 270.511804 236.274059 
L 282.090371 236.274059 
L 282.090377 178.788119 
L 284.54894 178.788119 
L 284.54894 174.955723 
L 285.23426 174.955723 
L 285.320728 167.290931 
L 285.732793 167.290931 
L 285.732793 163.458535 
L 286.233174 163.458535 
L 286.233174 159.626139 
L 286.869063 159.626139 
L 286.869063 155.793743 
L 287.140016 155.793743 
L 287.140016 151.961347 
L 287.355947 151.961347 
L 287.432944 144.296554 
L 287.539296 144.296554 
L 287.632216 132.799366 
L 288.162618 132.799366 
L 288.162618 128.96697 
L 288.478045 128.96697 
L 288.479014 121.302178 
L 288.642518 121.302178 
L 288.642518 117.469782 
L 288.807186 117.469782 
L 288.822418 109.80499 
L 288.938833 109.80499 
L 288.938833 105.972594 
L 289.19922 105.972594 
L 289.266418 98.307802 
L 289.828121 98.307802 
L 289.828121 94.475406 
L 290.324814 94.475406 
L 290.324814 90.64301 
L 290.46987 90.64301 
L 290.46987 86.810614 
L 291.644742 86.810614 
L 291.688134 75.313426 
L 292.079066 75.313426 
L 292.109211 67.648634 
L 293.17101 67.648634 
L 293.17101 63.816238 
L 388.481234 63.816238 
L 388.481234 59.983842 
L 388.736026 59.983842 
L 388.736026 56.151446 
L 395.399131 56.151446 
L 395.399131 52.31905 
L 396.224744 52.31905 
L 396.224744 48.486653 
L 396.390541 48.486653 
L 396.390541 44.654257 
L 397.913643 44.654257 
L 397.913643 40.821861 
L 398.434533 40.821861 
L 398.434533 36.989465 
L 399.984198 36.989465 
L 399.984198 33.157069 
L 400.296086 33.157069 
L 400.296086 29.324673 
L 401.206168 29.324673 
L 401.206168 25.492277 
L 401.481201 25.492277 
L 401.481201 21.659881 
L 404.29135 21.659881 
L 404.29135 17.827485 
L 405.641742 17.827485 
L 405.641742 13.995089 
L 407.081062 13.995089 
L 407.081062 10.162693 
L 407.215456 10.162693 
L 407.215456 6.330297 
L 407.215456 6.330297 
L 460.8 6.330297 
L 460.8 6.330297 
" style="fill:none;stroke:#00bfbf;stroke-linecap:square;stroke-width:1.5;"/>
   </g>
   <g id="line2d_23">
    <path clip-path="url(#pb09413466f)" d="M 262.282257 293.76 
L 262.282257 289.927604 
L 264.616517 289.927604 
L 264.616517 286.095208 
L 264.836969 286.095208 
L 264.836969 282.262812 
L 265.150962 282.262812 
L 265.150962 278.430416 
L 265.707261 278.430416 
L 265.785907 270.765624 
L 266.1133 270.765624 
L 266.1133 266.933228 
L 266.978904 266.933228 
L 267.033969 259.268436 
L 267.149649 259.268436 
L 267.149649 255.43604 
L 268.493225 255.43604 
L 268.493225 251.603644 
L 268.947923 251.603644 
L 268.947923 247.771248 
L 269.086609 247.771248 
L 269.086609 243.938851 
L 269.350734 243.938851 
L 269.350734 240.106455 
L 270.511804 240.106455 
L 270.511804 236.274059 
L 282.090296 236.274059 
L 282.090335 178.788119 
L 284.5484 178.788119 
L 284.5484 174.955723 
L 285.233805 174.955723 
L 285.320111 167.290931 
L 285.731939 167.290931 
L 285.731939 163.458535 
L 286.232655 163.458535 
L 286.232655 159.626139 
L 286.868095 159.626139 
L 286.868095 155.793743 
L 287.139496 155.793743 
L 287.139496 151.961347 
L 287.354884 151.961347 
L 287.432702 144.296554 
L 287.53854 144.296554 
L 287.631368 132.799366 
L 288.162447 132.799366 
L 288.162447 128.96697 
L 288.477358 128.96697 
L 288.478296 121.302178 
L 288.641928 121.302178 
L 288.641928 117.469782 
L 288.805961 117.469782 
L 288.820257 109.80499 
L 288.938547 109.80499 
L 288.938547 105.972594 
L 289.198797 105.972594 
L 289.266379 98.307802 
L 289.827421 98.307802 
L 289.827421 94.475406 
L 290.324304 94.475406 
L 290.324304 90.64301 
L 290.4694 90.64301 
L 290.4694 86.810614 
L 291.644117 86.810614 
L 291.687472 75.313426 
L 292.078805 75.313426 
L 292.108509 67.648634 
L 293.169557 67.648634 
L 293.169557 63.816238 
L 388.480234 63.816238 
L 388.480234 59.983842 
L 388.73474 59.983842 
L 388.73474 56.151446 
L 395.397748 56.151446 
L 395.397748 52.31905 
L 396.223103 52.31905 
L 396.223103 48.486653 
L 396.389488 48.486653 
L 396.389488 44.654257 
L 397.913048 44.654257 
L 397.913048 40.821861 
L 398.432662 40.821861 
L 398.432662 36.989465 
L 399.983179 36.989465 
L 399.983179 33.157069 
L 400.295338 33.157069 
L 400.295338 29.324673 
L 401.204611 29.324673 
L 401.204611 25.492277 
L 401.479844 25.492277 
L 401.479844 21.659881 
L 404.290452 21.659881 
L 404.290452 17.827485 
L 405.640336 17.827485 
L 405.640336 13.995089 
L 407.079812 13.995089 
L 407.079812 10.162693 
L 407.21417 10.162693 
L 407.21417 6.330297 
L 407.21417 6.330297 
L 460.8 6.330297 
L 460.8 6.330297 
" style="fill:none;stroke:#bf00bf;stroke-linecap:square;stroke-width:1.5;"/>
   </g>
   <g id="line2d_24">
    <path clip-path="url(#pb09413466f)" d="M 262.280963 293.76 
L 262.280963 289.927604 
L 264.615336 289.927604 
L 264.615336 286.095208 
L 264.835622 286.095208 
L 264.835622 282.262812 
L 265.149702 282.262812 
L 265.149702 278.430416 
L 265.705979 278.430416 
L 265.784653 270.765624 
L 266.112063 270.765624 
L 266.112063 266.933228 
L 266.977768 266.933228 
L 267.032881 259.268436 
L 267.148396 259.268436 
L 267.148396 255.43604 
L 268.492101 255.43604 
L 268.492101 251.603644 
L 268.946894 251.603644 
L 268.946894 247.771248 
L 269.085661 247.771248 
L 269.085661 243.938851 
L 269.349731 243.938851 
L 269.349731 240.106455 
L 270.510847 240.106455 
L 270.510847 236.274059 
L 282.089941 236.274059 
L 282.090057 178.788119 
L 284.542475 178.788119 
L 284.542475 174.955723 
L 285.229165 174.955723 
L 285.316536 167.290931 
L 285.728725 167.290931 
L 285.728725 163.458535 
L 286.228475 163.458535 
L 286.228475 159.626139 
L 286.863725 159.626139 
L 286.863725 155.793743 
L 287.134971 155.793743 
L 287.134971 151.961347 
L 287.350608 151.961347 
L 287.429762 144.296554 
L 287.535236 144.296554 
L 287.628498 132.799366 
L 288.1596 132.799366 
L 288.1596 128.96697 
L 288.472238 128.96697 
L 288.474154 121.302178 
L 288.640109 121.302178 
L 288.640109 117.469782 
L 288.802308 117.469782 
L 288.81534 109.80499 
L 288.936047 109.80499 
L 288.936047 105.972594 
L 289.196118 105.972594 
L 289.263533 98.307802 
L 289.825053 98.307802 
L 289.825053 94.475406 
L 290.322932 94.475406 
L 290.322932 90.64301 
L 290.465568 90.64301 
L 290.465568 86.810614 
L 291.641905 86.810614 
L 291.684981 75.313426 
L 292.076144 75.313426 
L 292.105906 67.648634 
L 293.166374 67.648634 
L 293.166374 63.816238 
L 388.478443 63.816238 
L 388.478443 59.983842 
L 388.733224 59.983842 
L 388.733224 56.151446 
L 395.396402 56.151446 
L 395.396402 52.31905 
L 396.22172 52.31905 
L 396.22172 48.486653 
L 396.388445 48.486653 
L 396.388445 44.654257 
L 397.911925 44.654257 
L 397.911925 40.821861 
L 398.429379 40.821861 
L 398.429379 36.989465 
L 399.982747 36.989465 
L 399.982747 33.157069 
L 400.293376 33.157069 
L 400.293376 29.324673 
L 401.203251 29.324673 
L 401.203251 25.492277 
L 401.479301 25.492277 
L 401.479301 21.659881 
L 404.289417 21.659881 
L 404.289417 17.827485 
L 405.637931 17.827485 
L 405.637931 13.995089 
L 407.07758 13.995089 
L 407.07758 10.162693 
L 407.211867 10.162693 
L 407.211867 6.330297 
L 407.211867 6.330297 
L 460.8 6.330297 
L 460.8 6.330297 
" style="fill:none;stroke:#000000;stroke-linecap:square;stroke-width:1.5;"/>
   </g>
   <g id="line2d_25">
    <path clip-path="url(#pb09413466f)" d="M 262.252594 293.76 
L 262.252594 289.927604 
L 264.590356 289.927604 
L 264.590356 286.095208 
L 264.807601 286.095208 
L 264.807601 282.262812 
L 265.121952 282.262812 
L 265.121952 278.430416 
L 265.681059 278.430416 
L 265.758462 270.765624 
L 266.086579 270.765624 
L 266.086579 266.933228 
L 266.954733 266.933228 
L 267.010181 259.268436 
L 267.123721 259.268436 
L 267.123721 255.43604 
L 268.469174 255.43604 
L 268.469174 251.603644 
L 268.922709 251.603644 
L 268.922709 247.771248 
L 269.063767 247.771248 
L 269.063767 243.938851 
L 269.328865 243.938851 
L 269.328865 240.106455 
L 270.488664 240.106455 
L 270.488664 236.274059 
L 282.082516 236.274059 
L 282.084309 178.788119 
L 284.4189 178.788119 
L 284.4189 174.955723 
L 285.133458 174.955723 
L 285.133458 171.123327 
L 285.251135 171.123327 
L 285.251135 167.290931 
L 285.634518 167.290931 
L 285.634518 163.458535 
L 286.139716 163.458535 
L 286.139716 159.626139 
L 286.774745 159.626139 
L 286.774745 155.793743 
L 287.044387 155.793743 
L 287.044387 151.961347 
L 287.236371 151.961347 
L 287.236371 148.12895 
L 287.366613 148.12895 
L 287.460915 140.464158 
L 287.531532 140.464158 
L 287.557096 132.799366 
L 288.100122 132.799366 
L 288.100122 128.96697 
L 288.36604 128.96697 
L 288.376264 121.302178 
L 288.596964 121.302178 
L 288.663737 113.637386 
L 288.717019 113.637386 
L 288.717019 109.80499 
L 288.883117 109.80499 
L 288.883117 105.972594 
L 289.140767 105.972594 
L 289.202622 98.307802 
L 289.750377 98.307802 
L 289.750377 94.475406 
L 290.286512 94.475406 
L 290.391326 86.810614 
L 291.530334 86.810614 
L 291.612774 75.313426 
L 292.018494 75.313426 
L 292.050516 67.648634 
L 293.020064 67.648634 
L 293.020064 63.816238 
L 388.416871 63.816238 
L 388.416871 59.983842 
L 388.676279 59.983842 
L 388.676279 56.151446 
L 395.350606 56.151446 
L 395.350606 52.31905 
L 396.169175 52.31905 
L 396.169175 48.486653 
L 396.353216 48.486653 
L 396.353216 44.654257 
L 397.88255 44.654257 
L 397.88255 40.821861 
L 398.336607 40.821861 
L 398.336607 36.989465 
L 399.951278 36.989465 
L 399.951278 33.157069 
L 400.247911 33.157069 
L 400.247911 29.324673 
L 401.152795 29.324673 
L 401.152795 25.492277 
L 401.439978 25.492277 
L 401.439978 21.659881 
L 404.250081 21.659881 
L 404.250081 17.827485 
L 405.570086 17.827485 
L 405.570086 13.995089 
L 407.014965 13.995089 
L 407.014965 10.162693 
L 407.148051 10.162693 
L 407.148051 6.330297 
L 407.148051 6.330297 
L 460.8 6.330297 
L 460.8 6.330297 
" style="fill:none;stroke:#00bfbf;stroke-linecap:square;stroke-width:1.5;"/>
   </g>
   <g id="line2d_26">
    <path clip-path="url(#pb09413466f)" d="M 256.55651 293.76 
L 256.55651 289.927604 
L 257.373617 289.927604 
L 257.373617 286.095208 
L 257.578197 286.095208 
L 257.578197 282.262812 
L 257.877576 282.262812 
L 257.877576 278.430416 
L 258.106376 278.430416 
L 258.106376 274.59802 
L 258.792709 274.59802 
L 258.792709 270.765624 
L 259.813952 270.765624 
L 259.813952 266.933228 
L 260.621926 266.933228 
L 260.621926 263.100832 
L 260.744436 263.100832 
L 260.790283 255.43604 
L 261.426548 255.43604 
L 261.426548 251.603644 
L 262.078768 251.603644 
L 262.078768 247.771248 
L 262.40041 247.771248 
L 262.40041 243.938851 
L 262.610075 243.938851 
L 262.610075 240.106455 
L 265.509187 240.106455 
L 265.509187 236.274059 
L 267.929801 236.274059 
L 267.929801 232.441663 
L 270.907346 232.441663 
L 270.907346 228.609267 
L 271.540772 228.609267 
L 271.585646 220.944475 
L 271.679341 220.944475 
L 271.731159 213.279683 
L 271.849613 213.279683 
L 271.849613 209.447287 
L 272.329307 209.447287 
L 272.329307 205.614891 
L 273.504337 205.614891 
L 273.504337 201.782495 
L 273.697571 201.782495 
L 273.708712 194.117703 
L 274.114254 194.117703 
L 274.114254 190.285307 
L 274.351486 190.285307 
L 274.351486 186.452911 
L 275.7186 186.452911 
L 275.7186 182.620515 
L 276.666522 182.620515 
L 276.666522 178.788119 
L 281.03319 178.788119 
L 281.03319 174.955723 
L 281.60989 174.955723 
L 281.60989 171.123327 
L 283.330353 171.123327 
L 283.330353 167.290931 
L 283.535204 167.290931 
L 283.535204 163.458535 
L 283.830464 163.458535 
L 283.838882 155.793743 
L 284.099231 155.793743 
L 284.127292 148.12895 
L 284.460263 148.12895 
L 284.460263 144.296554 
L 284.719647 144.296554 
L 284.719647 140.464158 
L 285.226508 140.464158 
L 285.226508 136.631762 
L 285.585818 136.631762 
L 285.585818 132.799366 
L 285.863923 132.799366 
L 285.863923 128.96697 
L 286.072651 128.96697 
L 286.072651 125.134574 
L 286.282753 125.134574 
L 286.282753 121.302178 
L 286.537421 121.302178 
L 286.624572 109.80499 
L 286.834681 109.80499 
L 286.869241 102.140198 
L 287.156739 102.140198 
L 287.156739 98.307802 
L 288.069785 98.307802 
L 288.177391 90.64301 
L 288.833738 90.64301 
L 288.833738 86.810614 
L 289.777644 86.810614 
L 289.777644 82.978218 
L 289.89084 82.978218 
L 289.89084 79.145822 
L 290.396093 79.145822 
L 290.396093 75.313426 
L 290.912741 75.313426 
L 290.912741 71.48103 
L 291.503287 71.48103 
L 291.503287 67.648634 
L 291.835637 67.648634 
L 291.835637 63.816238 
L 359.10392 63.816238 
L 359.10392 59.983842 
L 362.503842 59.983842 
L 362.503842 56.151446 
L 364.147565 56.151446 
L 364.147565 52.31905 
L 369.227526 52.31905 
L 369.260206 44.654257 
L 370.186731 44.654257 
L 370.186731 40.821861 
L 371.482926 40.821861 
L 371.482926 36.989465 
L 371.868804 36.989465 
L 371.868804 33.157069 
L 372.985505 33.157069 
L 372.985505 29.324673 
L 375.157224 29.324673 
L 375.157224 25.492277 
L 377.667025 25.492277 
L 377.667025 21.659881 
L 380.681681 21.659881 
L 380.681681 17.827485 
L 383.0396 17.827485 
L 383.0396 13.995089 
L 384.004522 13.995089 
L 384.004522 10.162693 
L 384.9337 10.162693 
L 384.9337 6.330297 
L 384.9337 6.330297 
L 460.8 6.330297 
L 460.8 6.330297 
" style="fill:none;stroke:#bf00bf;stroke-linecap:square;stroke-width:1.5;"/>
   </g>
   <g id="patch_3">
    <path d="M 0 293.76 
L 0 3.456 
" style="fill:none;stroke:#000000;stroke-linecap:square;stroke-linejoin:miter;stroke-width:0.8;"/>
   </g>
   <g id="patch_4">
    <path d="M 460.8 293.76 
L 460.8 3.456 
" style="fill:none;stroke:#000000;stroke-linecap:square;stroke-linejoin:miter;stroke-width:0.8;"/>
   </g>
   <g id="patch_5">
    <path d="M 0 293.76 
L 460.8 293.76 
" style="fill:none;stroke:#000000;stroke-linecap:square;stroke-linejoin:miter;stroke-width:0.8;"/>
   </g>
   <g id="patch_6">
    <path d="M 0 3.456 
L 460.8 3.456 
" style="fill:none;stroke:#000000;stroke-linecap:square;stroke-linejoin:miter;stroke-width:0.8;"/>
   </g>
   <g id="text_6">
    <!-- {f1-f5}, 20-D -->
    <g transform="translate(318.609 287.95392)scale(0.2 -0.2)">
     <defs>
      <path d="M 51.125 -9.28125 
L 51.125 -16.3125 
L 48.09375 -16.3125 
Q 35.9375 -16.3125 31.8125 -12.6875 
Q 27.6875 -9.078125 27.6875 1.703125 
L 27.6875 13.375 
Q 27.6875 20.75 25.046875 23.578125 
Q 22.40625 26.421875 15.484375 26.421875 
L 12.5 26.421875 
L 12.5 33.40625 
L 15.484375 33.40625 
Q 22.46875 33.40625 25.078125 36.203125 
Q 27.6875 39.015625 27.6875 46.296875 
L 27.6875 58.015625 
Q 27.6875 68.796875 31.8125 72.390625 
Q 35.9375 75.984375 48.09375 75.984375 
L 51.125 75.984375 
L 51.125 69 
L 47.796875 69 
Q 40.921875 69 38.8125 66.84375 
Q 36.71875 64.703125 36.71875 57.8125 
L 36.71875 45.703125 
Q 36.71875 38.03125 34.5 34.5625 
Q 32.28125 31.109375 26.90625 29.890625 
Q 32.328125 28.5625 34.515625 25.09375 
Q 36.71875 21.625 36.71875 14.015625 
L 36.71875 1.90625 
Q 36.71875 -4.984375 38.8125 -7.125 
Q 40.921875 -9.28125 47.796875 -9.28125 
z
" id="DejaVuSans-123"/>
      <path d="M 10.796875 72.90625 
L 49.515625 72.90625 
L 49.515625 64.59375 
L 19.828125 64.59375 
L 19.828125 46.734375 
Q 21.96875 47.46875 24.109375 47.828125 
Q 26.265625 48.1875 28.421875 48.1875 
Q 40.625 48.1875 47.75 41.5 
Q 54.890625 34.8125 54.890625 23.390625 
Q 54.890625 11.625 47.5625 5.09375 
Q 40.234375 -1.421875 26.90625 -1.421875 
Q 22.3125 -1.421875 17.546875 -0.640625 
Q 12.796875 0.140625 7.71875 1.703125 
L 7.71875 11.625 
Q 12.109375 9.234375 16.796875 8.0625 
Q 21.484375 6.890625 26.703125 6.890625 
Q 35.15625 6.890625 40.078125 11.328125 
Q 45.015625 15.765625 45.015625 23.390625 
Q 45.015625 31 40.078125 35.4375 
Q 35.15625 39.890625 26.703125 39.890625 
Q 22.75 39.890625 18.8125 39.015625 
Q 14.890625 38.140625 10.796875 36.28125 
z
" id="DejaVuSans-53"/>
      <path d="M 12.5 -9.28125 
L 15.921875 -9.28125 
Q 22.75 -9.28125 24.828125 -7.171875 
Q 26.90625 -5.078125 26.90625 1.90625 
L 26.90625 14.015625 
Q 26.90625 21.625 29.09375 25.09375 
Q 31.296875 28.5625 36.71875 29.890625 
Q 31.296875 31.109375 29.09375 34.5625 
Q 26.90625 38.03125 26.90625 45.703125 
L 26.90625 57.8125 
Q 26.90625 64.75 24.828125 66.875 
Q 22.75 69 15.921875 69 
L 12.5 69 
L 12.5 75.984375 
L 15.578125 75.984375 
Q 27.734375 75.984375 31.8125 72.390625 
Q 35.890625 68.796875 35.890625 58.015625 
L 35.890625 46.296875 
Q 35.890625 39.015625 38.515625 36.203125 
Q 41.15625 33.40625 48.09375 33.40625 
L 51.125 33.40625 
L 51.125 26.421875 
L 48.09375 26.421875 
Q 41.15625 26.421875 38.515625 23.578125 
Q 35.890625 20.75 35.890625 13.375 
L 35.890625 1.703125 
Q 35.890625 -9.078125 31.8125 -12.6875 
Q 27.734375 -16.3125 15.578125 -16.3125 
L 12.5 -16.3125 
z
" id="DejaVuSans-125"/>
      <path d="M 11.71875 12.40625 
L 22.015625 12.40625 
L 22.015625 4 
L 14.015625 -11.625 
L 7.71875 -11.625 
L 11.71875 4 
z
" id="DejaVuSans-44"/>
      <path d="M 19.1875 8.296875 
L 53.609375 8.296875 
L 53.609375 0 
L 7.328125 0 
L 7.328125 8.296875 
Q 12.9375 14.109375 22.625 23.890625 
Q 32.328125 33.6875 34.8125 36.53125 
Q 39.546875 41.84375 41.421875 45.53125 
Q 43.3125 49.21875 43.3125 52.78125 
Q 43.3125 58.59375 39.234375 62.25 
Q 35.15625 65.921875 28.609375 65.921875 
Q 23.96875 65.921875 18.8125 64.3125 
Q 13.671875 62.703125 7.8125 59.421875 
L 7.8125 69.390625 
Q 13.765625 71.78125 18.9375 73 
Q 24.125 74.21875 28.421875 74.21875 
Q 39.75 74.21875 46.484375 68.546875 
Q 53.21875 62.890625 53.21875 53.421875 
Q 53.21875 48.921875 51.53125 44.890625 
Q 49.859375 40.875 45.40625 35.40625 
Q 44.1875 33.984375 37.640625 27.21875 
Q 31.109375 20.453125 19.1875 8.296875 
z
" id="DejaVuSans-50"/>
     </defs>
     <use xlink:href="#DejaVuSans-123"/>
     <use x="63.623047" xlink:href="#DejaVuSans-102"/>
     <use x="98.828125" xlink:href="#DejaVuSans-49"/>
     <use x="162.451172" xlink:href="#DejaVuSans-45"/>
     <use x="198.535156" xlink:href="#DejaVuSans-102"/>
     <use x="233.740234" xlink:href="#DejaVuSans-53"/>
     <use x="297.363281" xlink:href="#DejaVuSans-125"/>
     <use x="360.986328" xlink:href="#DejaVuSans-44"/>
     <use x="392.773438" xlink:href="#DejaVuSans-32"/>
     <use x="424.560547" xlink:href="#DejaVuSans-50"/>
     <use x="488.183594" xlink:href="#DejaVuSans-48"/>
     <use x="551.806641" xlink:href="#DejaVuSans-45"/>
     <use x="587.890625" xlink:href="#DejaVuSans-68"/>
    </g>
   </g>
   <g id="text_7">
    <!-- v2.4 -->
    <g style="fill:#808080;" transform="translate(219.489063 288.777272)scale(0.1 -0.1)">
     <defs>
      <path d="M 2.984375 54.6875 
L 12.5 54.6875 
L 29.59375 8.796875 
L 46.6875 54.6875 
L 56.203125 54.6875 
L 35.6875 0 
L 23.484375 0 
z
" id="DejaVuSans-118"/>
      <path d="M 10.6875 12.40625 
L 21 12.40625 
L 21 0 
L 10.6875 0 
z
" id="DejaVuSans-46"/>
     </defs>
     <use xlink:href="#DejaVuSans-118"/>
     <use x="59.179688" xlink:href="#DejaVuSans-50"/>
     <use x="122.802734" xlink:href="#DejaVuSans-46"/>
     <use x="154.589844" xlink:href="#DejaVuSans-52"/>
    </g>
   </g>
  </g>
 </g>
 <defs>
  <clipPath id="pb09413466f">
   <rect height="290.304" width="460.8" x="0" y="3.456"/>
  </clipPath>
 </defs>
</svg>
