<?xml version="1.0" encoding="utf-8" standalone="no"?>
<!DOCTYPE svg PUBLIC "-//W3C//DTD SVG 1.1//EN"
  "http://www.w3.org/Graphics/SVG/1.1/DTD/svg11.dtd">
<!-- Created with matplotlib (https://matplotlib.org/) -->
<svg height="345.6pt" version="1.1" viewBox="0 0 460.8 345.6" width="460.8pt" xmlns="http://www.w3.org/2000/svg" xmlns:xlink="http://www.w3.org/1999/xlink">
 <metadata>
  <rdf:RDF xmlns:cc="http://creativecommons.org/ns#" xmlns:dc="http://purl.org/dc/elements/1.1/" xmlns:rdf="http://www.w3.org/1999/02/22-rdf-syntax-ns#">
   <cc:Work>
    <dc:type rdf:resource="http://purl.org/dc/dcmitype/StillImage"/>
    <dc:date>2021-08-04T10:25:47.089097</dc:date>
    <dc:format>image/svg+xml</dc:format>
    <dc:creator>
     <cc:Agent>
      <dc:title>Matplotlib v3.3.1, https://matplotlib.org/</dc:title>
     </cc:Agent>
    </dc:creator>
   </cc:Work>
  </rdf:RDF>
 </metadata>
 <defs>
  <style type="text/css">*{stroke-linecap:butt;stroke-linejoin:round;}</style>
 </defs>
 <g id="figure_1">
  <g id="patch_1">
   <path d="M 0 345.6 
L 460.8 345.6 
L 460.8 0 
L 0 0 
z
" style="fill:#ffffff;"/>
  </g>
  <g id="axes_1">
   <g id="patch_2">
    <path d="M 0 293.76 
L 460.8 293.76 
L 460.8 3.456 
L 0 3.456 
z
" style="fill:#ffffff;"/>
   </g>
   <g id="matplotlib.axis_1">
    <g id="xtick_1">
     <g id="line2d_1">
      <path clip-path="url(#p9745ce52c9)" d="M 106.133038 293.76 
L 106.133038 3.456 
" style="fill:none;stroke:#b0b0b0;stroke-linecap:square;stroke-width:0.8;"/>
     </g>
     <g id="line2d_2">
      <defs>
       <path d="M 0 0 
L 0 3.5 
" id="m1724aef506" style="stroke:#000000;stroke-width:0.8;"/>
      </defs>
      <g>
       <use style="stroke:#000000;stroke-width:0.8;" x="106.133038" xlink:href="#m1724aef506" y="293.76"/>
      </g>
     </g>
     <g id="text_1">
      <!-- -4 -->
      <g transform="translate(96.162726 315.956875)scale(0.2 -0.2)">
       <defs>
        <path d="M 4.890625 31.390625 
L 31.203125 31.390625 
L 31.203125 23.390625 
L 4.890625 23.390625 
z
" id="DejaVuSans-45"/>
        <path d="M 37.796875 64.3125 
L 12.890625 25.390625 
L 37.796875 25.390625 
z
M 35.203125 72.90625 
L 47.609375 72.90625 
L 47.609375 25.390625 
L 58.015625 25.390625 
L 58.015625 17.1875 
L 47.609375 17.1875 
L 47.609375 0 
L 37.796875 0 
L 37.796875 17.1875 
L 4.890625 17.1875 
L 4.890625 26.703125 
z
" id="DejaVuSans-52"/>
       </defs>
       <use xlink:href="#DejaVuSans-45"/>
       <use x="36.083984" xlink:href="#DejaVuSans-52"/>
      </g>
     </g>
    </g>
    <g id="xtick_2">
     <g id="line2d_3">
      <path clip-path="url(#p9745ce52c9)" d="M 212.380861 293.76 
L 212.380861 3.456 
" style="fill:none;stroke:#b0b0b0;stroke-linecap:square;stroke-width:0.8;"/>
     </g>
     <g id="line2d_4">
      <g>
       <use style="stroke:#000000;stroke-width:0.8;" x="212.380861" xlink:href="#m1724aef506" y="293.76"/>
      </g>
     </g>
     <g id="text_2">
      <!-- 0 -->
      <g transform="translate(206.018361 315.956875)scale(0.2 -0.2)">
       <defs>
        <path d="M 31.78125 66.40625 
Q 24.171875 66.40625 20.328125 58.90625 
Q 16.5 51.421875 16.5 36.375 
Q 16.5 21.390625 20.328125 13.890625 
Q 24.171875 6.390625 31.78125 6.390625 
Q 39.453125 6.390625 43.28125 13.890625 
Q 47.125 21.390625 47.125 36.375 
Q 47.125 51.421875 43.28125 58.90625 
Q 39.453125 66.40625 31.78125 66.40625 
z
M 31.78125 74.21875 
Q 44.046875 74.21875 50.515625 64.515625 
Q 56.984375 54.828125 56.984375 36.375 
Q 56.984375 17.96875 50.515625 8.265625 
Q 44.046875 -1.421875 31.78125 -1.421875 
Q 19.53125 -1.421875 13.0625 8.265625 
Q 6.59375 17.96875 6.59375 36.375 
Q 6.59375 54.828125 13.0625 64.515625 
Q 19.53125 74.21875 31.78125 74.21875 
z
" id="DejaVuSans-48"/>
       </defs>
       <use xlink:href="#DejaVuSans-48"/>
      </g>
     </g>
    </g>
    <g id="xtick_3">
     <g id="line2d_5">
      <path clip-path="url(#p9745ce52c9)" d="M 318.628683 293.76 
L 318.628683 3.456 
" style="fill:none;stroke:#b0b0b0;stroke-linecap:square;stroke-width:0.8;"/>
     </g>
     <g id="line2d_6">
      <g>
       <use style="stroke:#000000;stroke-width:0.8;" x="318.628683" xlink:href="#m1724aef506" y="293.76"/>
      </g>
     </g>
     <g id="text_3">
      <!-- 4 -->
      <g transform="translate(312.266183 315.956875)scale(0.2 -0.2)">
       <use xlink:href="#DejaVuSans-52"/>
      </g>
     </g>
    </g>
    <g id="xtick_4">
     <g id="line2d_7">
      <path clip-path="url(#p9745ce52c9)" d="M 424.876506 293.76 
L 424.876506 3.456 
" style="fill:none;stroke:#b0b0b0;stroke-linecap:square;stroke-width:0.8;"/>
     </g>
     <g id="line2d_8">
      <g>
       <use style="stroke:#000000;stroke-width:0.8;" x="424.876506" xlink:href="#m1724aef506" y="293.76"/>
      </g>
     </g>
     <g id="text_4">
      <!-- 8 -->
      <g transform="translate(418.514006 315.956875)scale(0.2 -0.2)">
       <defs>
        <path d="M 31.78125 34.625 
Q 24.75 34.625 20.71875 30.859375 
Q 16.703125 27.09375 16.703125 20.515625 
Q 16.703125 13.921875 20.71875 10.15625 
Q 24.75 6.390625 31.78125 6.390625 
Q 38.8125 6.390625 42.859375 10.171875 
Q 46.921875 13.96875 46.921875 20.515625 
Q 46.921875 27.09375 42.890625 30.859375 
Q 38.875 34.625 31.78125 34.625 
z
M 21.921875 38.8125 
Q 15.578125 40.375 12.03125 44.71875 
Q 8.5 49.078125 8.5 55.328125 
Q 8.5 64.0625 14.71875 69.140625 
Q 20.953125 74.21875 31.78125 74.21875 
Q 42.671875 74.21875 48.875 69.140625 
Q 55.078125 64.0625 55.078125 55.328125 
Q 55.078125 49.078125 51.53125 44.71875 
Q 48 40.375 41.703125 38.8125 
Q 48.828125 37.15625 52.796875 32.3125 
Q 56.78125 27.484375 56.78125 20.515625 
Q 56.78125 9.90625 50.3125 4.234375 
Q 43.84375 -1.421875 31.78125 -1.421875 
Q 19.734375 -1.421875 13.25 4.234375 
Q 6.78125 9.90625 6.78125 20.515625 
Q 6.78125 27.484375 10.78125 32.3125 
Q 14.796875 37.15625 21.921875 38.8125 
z
M 18.3125 54.390625 
Q 18.3125 48.734375 21.84375 45.5625 
Q 25.390625 42.390625 31.78125 42.390625 
Q 38.140625 42.390625 41.71875 45.5625 
Q 45.3125 48.734375 45.3125 54.390625 
Q 45.3125 60.0625 41.71875 63.234375 
Q 38.140625 66.40625 31.78125 66.40625 
Q 25.390625 66.40625 21.84375 63.234375 
Q 18.3125 60.0625 18.3125 54.390625 
z
" id="DejaVuSans-56"/>
       </defs>
       <use xlink:href="#DejaVuSans-56"/>
      </g>
     </g>
    </g>
    <g id="text_5">
     <!-- log10 of Df -->
     <g transform="translate(175.214063 339.313125)scale(0.2 -0.2)">
      <defs>
       <path d="M 9.421875 75.984375 
L 18.40625 75.984375 
L 18.40625 0 
L 9.421875 0 
z
" id="DejaVuSans-108"/>
       <path d="M 30.609375 48.390625 
Q 23.390625 48.390625 19.1875 42.75 
Q 14.984375 37.109375 14.984375 27.296875 
Q 14.984375 17.484375 19.15625 11.84375 
Q 23.34375 6.203125 30.609375 6.203125 
Q 37.796875 6.203125 41.984375 11.859375 
Q 46.1875 17.53125 46.1875 27.296875 
Q 46.1875 37.015625 41.984375 42.703125 
Q 37.796875 48.390625 30.609375 48.390625 
z
M 30.609375 56 
Q 42.328125 56 49.015625 48.375 
Q 55.71875 40.765625 55.71875 27.296875 
Q 55.71875 13.875 49.015625 6.21875 
Q 42.328125 -1.421875 30.609375 -1.421875 
Q 18.84375 -1.421875 12.171875 6.21875 
Q 5.515625 13.875 5.515625 27.296875 
Q 5.515625 40.765625 12.171875 48.375 
Q 18.84375 56 30.609375 56 
z
" id="DejaVuSans-111"/>
       <path d="M 45.40625 27.984375 
Q 45.40625 37.75 41.375 43.109375 
Q 37.359375 48.484375 30.078125 48.484375 
Q 22.859375 48.484375 18.828125 43.109375 
Q 14.796875 37.75 14.796875 27.984375 
Q 14.796875 18.265625 18.828125 12.890625 
Q 22.859375 7.515625 30.078125 7.515625 
Q 37.359375 7.515625 41.375 12.890625 
Q 45.40625 18.265625 45.40625 27.984375 
z
M 54.390625 6.78125 
Q 54.390625 -7.171875 48.1875 -13.984375 
Q 42 -20.796875 29.203125 -20.796875 
Q 24.46875 -20.796875 20.265625 -20.09375 
Q 16.0625 -19.390625 12.109375 -17.921875 
L 12.109375 -9.1875 
Q 16.0625 -11.328125 19.921875 -12.34375 
Q 23.78125 -13.375 27.78125 -13.375 
Q 36.625 -13.375 41.015625 -8.765625 
Q 45.40625 -4.15625 45.40625 5.171875 
L 45.40625 9.625 
Q 42.625 4.78125 38.28125 2.390625 
Q 33.9375 0 27.875 0 
Q 17.828125 0 11.671875 7.65625 
Q 5.515625 15.328125 5.515625 27.984375 
Q 5.515625 40.671875 11.671875 48.328125 
Q 17.828125 56 27.875 56 
Q 33.9375 56 38.28125 53.609375 
Q 42.625 51.21875 45.40625 46.390625 
L 45.40625 54.6875 
L 54.390625 54.6875 
z
" id="DejaVuSans-103"/>
       <path d="M 12.40625 8.296875 
L 28.515625 8.296875 
L 28.515625 63.921875 
L 10.984375 60.40625 
L 10.984375 69.390625 
L 28.421875 72.90625 
L 38.28125 72.90625 
L 38.28125 8.296875 
L 54.390625 8.296875 
L 54.390625 0 
L 12.40625 0 
z
" id="DejaVuSans-49"/>
       <path id="DejaVuSans-32"/>
       <path d="M 37.109375 75.984375 
L 37.109375 68.5 
L 28.515625 68.5 
Q 23.6875 68.5 21.796875 66.546875 
Q 19.921875 64.59375 19.921875 59.515625 
L 19.921875 54.6875 
L 34.71875 54.6875 
L 34.71875 47.703125 
L 19.921875 47.703125 
L 19.921875 0 
L 10.890625 0 
L 10.890625 47.703125 
L 2.296875 47.703125 
L 2.296875 54.6875 
L 10.890625 54.6875 
L 10.890625 58.5 
Q 10.890625 67.625 15.140625 71.796875 
Q 19.390625 75.984375 28.609375 75.984375 
z
" id="DejaVuSans-102"/>
       <path d="M 19.671875 64.796875 
L 19.671875 8.109375 
L 31.59375 8.109375 
Q 46.6875 8.109375 53.6875 14.9375 
Q 60.6875 21.78125 60.6875 36.53125 
Q 60.6875 51.171875 53.6875 57.984375 
Q 46.6875 64.796875 31.59375 64.796875 
z
M 9.8125 72.90625 
L 30.078125 72.90625 
Q 51.265625 72.90625 61.171875 64.09375 
Q 71.09375 55.28125 71.09375 36.53125 
Q 71.09375 17.671875 61.125 8.828125 
Q 51.171875 0 30.078125 0 
L 9.8125 0 
z
" id="DejaVuSans-68"/>
      </defs>
      <use xlink:href="#DejaVuSans-108"/>
      <use x="27.783203" xlink:href="#DejaVuSans-111"/>
      <use x="88.964844" xlink:href="#DejaVuSans-103"/>
      <use x="152.441406" xlink:href="#DejaVuSans-49"/>
      <use x="216.064453" xlink:href="#DejaVuSans-48"/>
      <use x="279.6875" xlink:href="#DejaVuSans-32"/>
      <use x="311.474609" xlink:href="#DejaVuSans-111"/>
      <use x="372.65625" xlink:href="#DejaVuSans-102"/>
      <use x="407.861328" xlink:href="#DejaVuSans-32"/>
      <use x="439.648438" xlink:href="#DejaVuSans-68"/>
      <use x="516.650391" xlink:href="#DejaVuSans-102"/>
     </g>
    </g>
   </g>
   <g id="matplotlib.axis_2">
    <g id="ytick_1">
     <g id="line2d_9">
      <path clip-path="url(#p9745ce52c9)" d="M 0 293.76 
L 460.8 293.76 
" style="fill:none;stroke:#b0b0b0;stroke-linecap:square;stroke-width:0.8;"/>
     </g>
     <g id="line2d_10">
      <defs>
       <path d="M 0 0 
L -3.5 0 
" id="m69c1f9563a" style="stroke:#000000;stroke-width:0.8;"/>
      </defs>
      <g>
       <use style="stroke:#000000;stroke-width:0.8;" x="0" xlink:href="#m69c1f9563a" y="293.76"/>
      </g>
     </g>
    </g>
    <g id="ytick_2">
     <g id="line2d_11">
      <path clip-path="url(#p9745ce52c9)" d="M 0 236.274059 
L 460.8 236.274059 
" style="fill:none;stroke:#b0b0b0;stroke-linecap:square;stroke-width:0.8;"/>
     </g>
     <g id="line2d_12">
      <g>
       <use style="stroke:#000000;stroke-width:0.8;" x="0" xlink:href="#m69c1f9563a" y="236.274059"/>
      </g>
     </g>
    </g>
    <g id="ytick_3">
     <g id="line2d_13">
      <path clip-path="url(#p9745ce52c9)" d="M 0 178.788119 
L 460.8 178.788119 
" style="fill:none;stroke:#b0b0b0;stroke-linecap:square;stroke-width:0.8;"/>
     </g>
     <g id="line2d_14">
      <g>
       <use style="stroke:#000000;stroke-width:0.8;" x="0" xlink:href="#m69c1f9563a" y="178.788119"/>
      </g>
     </g>
    </g>
    <g id="ytick_4">
     <g id="line2d_15">
      <path clip-path="url(#p9745ce52c9)" d="M 0 121.302178 
L 460.8 121.302178 
" style="fill:none;stroke:#b0b0b0;stroke-linecap:square;stroke-width:0.8;"/>
     </g>
     <g id="line2d_16">
      <g>
       <use style="stroke:#000000;stroke-width:0.8;" x="0" xlink:href="#m69c1f9563a" y="121.302178"/>
      </g>
     </g>
    </g>
    <g id="ytick_5">
     <g id="line2d_17">
      <path clip-path="url(#p9745ce52c9)" d="M 0 63.816238 
L 460.8 63.816238 
" style="fill:none;stroke:#b0b0b0;stroke-linecap:square;stroke-width:0.8;"/>
     </g>
     <g id="line2d_18">
      <g>
       <use style="stroke:#000000;stroke-width:0.8;" x="0" xlink:href="#m69c1f9563a" y="63.816238"/>
      </g>
     </g>
    </g>
    <g id="ytick_6">
     <g id="line2d_19">
      <path clip-path="url(#p9745ce52c9)" d="M 0 6.330297 
L 460.8 6.330297 
" style="fill:none;stroke:#b0b0b0;stroke-linecap:square;stroke-width:0.8;"/>
     </g>
     <g id="line2d_20">
      <g>
       <use style="stroke:#000000;stroke-width:0.8;" x="0" xlink:href="#m69c1f9563a" y="6.330297"/>
      </g>
     </g>
    </g>
   </g>
   <g id="line2d_21">
    <path clip-path="url(#p9745ce52c9)" d="M -1 292.163168 
L -0.114784 292.163168 
L -0.114784 283.380594 
L 5.728057 283.380594 
L 5.728057 282.582178 
L 6.326776 282.582178 
L 6.326776 281.783762 
L 9.809464 281.783762 
L 9.809464 280.985347 
L 29.445275 280.985347 
L 29.445275 280.186931 
L 55.822221 280.186931 
L 55.822221 279.388515 
L 77.046223 279.388515 
L 77.046223 278.590099 
L 79.620796 278.590099 
L 79.620796 277.791683 
L 93.012557 277.791683 
L 93.012557 276.993267 
L 111.035539 276.993267 
L 111.035539 276.194851 
L 123.703762 276.194851 
L 123.703762 275.396436 
L 130.451236 275.396436 
L 130.451236 274.59802 
L 130.853113 274.59802 
L 130.853113 273.799604 
L 135.334754 273.799604 
L 135.334754 273.001188 
L 158.370359 273.001188 
L 158.370359 272.202772 
L 159.794829 272.202772 
L 159.794829 271.404356 
L 164.182915 271.404356 
L 164.182915 270.605941 
L 164.467997 270.605941 
L 164.486188 258.629703 
L 166.326979 258.629703 
L 166.326979 257.831287 
L 176.313254 257.831287 
L 176.313254 257.032871 
L 176.436433 257.032871 
L 176.436433 256.234455 
L 178.316735 256.234455 
L 178.316735 255.43604 
L 180.36678 255.43604 
L 180.36678 254.637624 
L 184.074393 254.637624 
L 184.074393 253.839208 
L 185.54366 253.839208 
L 185.54366 253.040792 
L 187.018187 253.040792 
L 187.018187 252.242376 
L 187.56396 252.242376 
L 187.56396 251.44396 
L 195.905553 251.44396 
L 195.905553 250.645545 
L 196.979779 250.645545 
L 196.979779 249.847129 
L 197.947482 249.847129 
L 197.947482 249.048713 
L 200.902664 249.048713 
L 200.902664 248.250297 
L 201.776702 248.250297 
L 201.776702 247.451881 
L 203.308689 247.451881 
L 203.308689 246.653465 
L 204.670282 246.653465 
L 204.670282 245.85505 
L 206.352847 245.85505 
L 206.352847 245.056634 
L 206.873071 245.056634 
L 206.873071 244.258218 
L 207.168523 244.258218 
L 207.201464 242.661386 
L 207.843281 242.661386 
L 207.843281 241.86297 
L 208.069722 241.86297 
L 208.156657 240.266139 
L 208.874496 240.266139 
L 208.874496 239.467723 
L 210.629581 239.467723 
L 210.629581 238.669307 
L 211.712179 238.669307 
L 211.712179 237.870891 
L 212.955336 237.870891 
L 213.016191 236.274059 
L 213.384508 236.274059 
L 213.384508 235.475644 
L 213.976643 235.475644 
L 213.976643 234.677228 
L 214.911113 234.677228 
L 214.911113 233.878812 
L 215.248243 233.878812 
L 215.248243 233.080396 
L 216.38389 233.080396 
L 216.38389 231.483564 
L 216.750341 231.483564 
L 216.750341 230.685149 
L 217.453393 230.685149 
L 217.453393 229.886733 
L 218.273218 229.886733 
L 218.273218 229.088317 
L 218.843196 229.088317 
L 218.887987 227.491485 
L 219.486261 227.491485 
L 219.486261 226.693069 
L 219.745051 226.693069 
L 219.745051 225.894653 
L 220.162067 225.894653 
L 220.162067 225.096238 
L 220.539499 225.096238 
L 220.539499 224.297822 
L 221.68993 224.297822 
L 221.694361 221.902574 
L 222.110026 221.902574 
L 222.175277 219.507327 
L 222.82554 219.507327 
L 222.878493 217.910495 
L 223.399065 217.910495 
L 223.399065 217.112079 
L 223.798269 217.112079 
L 223.798269 216.313663 
L 224.027846 216.313663 
L 224.027846 215.515248 
L 224.424609 215.515248 
L 224.424609 214.716832 
L 224.965908 214.716832 
L 224.965908 213.918416 
L 225.495232 213.918416 
L 225.495232 213.12 
L 225.788459 213.12 
L 225.788459 212.321584 
L 226.150613 212.321584 
L 226.241479 209.926337 
L 226.364735 209.926337 
L 226.364735 209.127921 
L 227.157102 209.127921 
L 227.23236 207.531089 
L 227.500266 207.531089 
L 227.500266 205.934257 
L 227.713019 205.934257 
L 227.713019 205.135842 
L 228.157782 205.135842 
L 228.157782 204.337426 
L 228.830123 204.337426 
L 228.830123 203.53901 
L 228.99173 203.53901 
L 228.99173 202.740594 
L 229.106768 202.740594 
L 229.106768 201.942178 
L 229.592806 201.942178 
L 229.61861 200.345347 
L 230.032817 200.345347 
L 230.032817 199.546931 
L 231.494954 199.546931 
L 231.494954 198.748515 
L 231.673232 198.748515 
L 231.673232 197.950099 
L 232.986088 197.950099 
L 232.986088 197.151683 
L 233.376439 197.151683 
L 233.376439 196.353267 
L 233.554016 196.353267 
L 233.554016 195.554851 
L 233.814834 195.554851 
L 233.814834 194.756436 
L 234.515521 194.756436 
L 234.569344 193.159604 
L 234.846592 193.159604 
L 234.846714 191.562772 
L 235.100147 191.562772 
L 235.135617 189.965941 
L 235.267484 189.965941 
L 235.312938 186.772277 
L 235.844823 186.772277 
L 235.844823 185.973861 
L 236.260618 185.973861 
L 236.260618 185.175446 
L 236.935125 185.175446 
L 236.935125 184.37703 
L 237.070398 184.37703 
L 237.070398 183.578614 
L 237.213957 183.578614 
L 237.276192 181.981782 
L 237.392876 181.981782 
L 237.392876 181.183366 
L 237.857128 181.183366 
L 237.857128 180.38495 
L 238.024638 180.38495 
L 238.024638 179.586535 
L 238.289017 179.586535 
L 238.289017 178.788119 
L 238.662082 178.788119 
L 238.662082 177.989703 
L 239.469245 177.989703 
L 239.469245 177.191287 
L 240.17835 177.191287 
L 240.224633 175.594455 
L 240.310484 175.594455 
L 240.310484 174.79604 
L 240.670577 174.79604 
L 240.670577 173.997624 
L 240.875494 173.997624 
L 240.875494 173.199208 
L 241.114458 173.199208 
L 241.114458 172.400792 
L 241.312714 172.400792 
L 241.312714 171.602376 
L 241.44231 171.602376 
L 241.44231 170.80396 
L 241.680544 170.80396 
L 241.76962 169.207129 
L 241.934168 169.207129 
L 241.953547 167.610297 
L 242.071096 167.610297 
L 242.166993 166.013465 
L 242.632653 166.013465 
L 242.646623 164.416634 
L 242.874772 164.416634 
L 242.949792 162.819802 
L 243.127252 162.819802 
L 243.127252 162.021386 
L 244.082212 162.021386 
L 244.123075 160.424554 
L 244.539993 160.424554 
L 244.636337 158.827723 
L 245.032414 158.827723 
L 245.032414 158.029307 
L 245.233838 158.029307 
L 245.299345 156.432475 
L 245.426536 156.432475 
L 245.466655 154.835644 
L 245.61867 154.835644 
L 245.61867 154.037228 
L 246.099121 154.037228 
L 246.099121 153.238812 
L 246.347913 153.238812 
L 246.347913 152.440396 
L 246.558801 152.440396 
L 246.62268 150.843564 
L 247.237899 150.843564 
L 247.250721 149.246733 
L 247.440439 149.246733 
L 247.503318 146.851485 
L 247.602753 146.851485 
L 247.710278 144.456238 
L 248.05112 144.456238 
L 248.05112 143.657822 
L 248.203227 143.657822 
L 248.203227 142.859406 
L 248.394092 142.859406 
L 248.394092 142.06099 
L 248.835732 142.06099 
L 248.835732 141.262574 
L 249.121149 141.262574 
L 249.148054 139.665743 
L 249.628176 139.665743 
L 249.628176 138.867327 
L 249.926181 138.867327 
L 249.926181 138.068911 
L 250.101665 138.068911 
L 250.106557 136.472079 
L 250.290399 136.472079 
L 250.290399 135.673663 
L 250.502845 135.673663 
L 250.502845 134.875248 
L 251.169454 134.875248 
L 251.169454 134.076832 
L 251.629179 134.076832 
L 251.649872 131.681584 
L 251.754937 131.681584 
L 251.817396 129.286337 
L 251.8721 129.286337 
L 251.970238 122.100594 
L 251.999545 122.100594 
L 252.088413 119.705347 
L 252.115286 119.705347 
L 252.115286 118.906931 
L 252.357544 118.906931 
L 252.357544 118.108515 
L 252.605404 118.108515 
L 252.605404 117.310099 
L 253.003926 117.310099 
L 253.021553 115.713267 
L 253.433443 115.713267 
L 253.433443 114.914851 
L 253.82909 114.914851 
L 253.82909 114.116436 
L 253.987693 114.116436 
L 254.066138 111.721188 
L 254.592314 111.721188 
L 254.675207 110.124356 
L 254.770348 110.124356 
L 254.770348 109.325941 
L 254.971264 109.325941 
L 254.996055 107.729109 
L 255.092377 107.729109 
L 255.092377 106.930693 
L 255.252761 106.930693 
L 255.252761 106.132277 
L 255.640979 106.132277 
L 255.640979 105.333861 
L 255.869927 105.333861 
L 255.975788 102.140198 
L 256.097162 102.140198 
L 256.101155 100.543366 
L 256.274377 100.543366 
L 256.274377 99.74495 
L 256.442607 99.74495 
L 256.46192 98.148119 
L 257.070674 98.148119 
L 257.153637 96.551287 
L 257.273991 96.551287 
L 257.273991 95.752871 
L 257.546496 95.752871 
L 257.546496 94.954455 
L 258.837777 94.954455 
L 258.837777 94.15604 
L 258.961915 94.15604 
L 258.961915 93.357624 
L 259.074506 93.357624 
L 259.162532 91.760792 
L 259.371405 91.760792 
L 259.371405 90.962376 
L 259.693002 90.962376 
L 259.693002 90.16396 
L 260.202983 90.16396 
L 260.202983 89.365545 
L 260.587743 89.365545 
L 260.587743 88.567129 
L 261.165857 88.567129 
L 261.187614 86.970297 
L 261.5803 86.970297 
L 261.621961 85.373465 
L 262.451655 85.373465 
L 262.539769 83.776634 
L 262.57913 83.776634 
L 262.57913 82.978218 
L 262.730184 82.978218 
L 262.791179 81.381386 
L 263.15704 81.381386 
L 263.162417 79.784554 
L 263.325978 79.784554 
L 263.325978 78.986139 
L 263.443477 78.986139 
L 263.458398 76.590891 
L 263.564008 76.590891 
L 263.564008 75.792475 
L 263.706501 75.792475 
L 263.7697 73.397228 
L 263.839832 73.397228 
L 263.839832 72.598812 
L 264.813226 72.598812 
L 264.813226 71.800396 
L 264.960609 71.800396 
L 265.008475 69.405149 
L 265.379582 69.405149 
L 265.451873 67.009901 
L 265.674697 67.009901 
L 265.674697 65.413069 
L 265.787328 65.413069 
L 265.881114 63.816238 
L 266.440432 63.816238 
L 266.440432 63.017822 
L 267.263043 63.017822 
L 267.263043 62.219406 
L 267.423941 62.219406 
L 267.423941 61.42099 
L 268.310986 61.42099 
L 268.400841 59.824158 
L 268.800422 59.824158 
L 268.908274 57.428911 
L 269.106082 57.428911 
L 269.215993 54.235248 
L 269.327725 54.235248 
L 269.409629 52.638416 
L 269.890492 52.638416 
L 269.896707 50.243168 
L 270.502946 50.243168 
L 270.58385 47.847921 
L 270.890989 47.847921 
L 270.890989 47.049505 
L 271.011367 47.049505 
L 271.011367 46.251089 
L 271.415525 46.251089 
L 271.430715 44.654257 
L 271.901424 44.654257 
L 271.901424 43.855842 
L 272.403431 43.855842 
L 272.427731 42.25901 
L 272.546491 42.25901 
L 272.546491 41.460594 
L 273.251304 41.460594 
L 273.321128 39.065347 
L 273.55679 39.065347 
L 273.567591 37.468515 
L 273.894459 37.468515 
L 273.89705 35.871683 
L 274.13925 35.871683 
L 274.155306 34.274851 
L 274.482216 34.274851 
L 274.482216 33.476436 
L 275.176791 33.476436 
L 275.176791 32.67802 
L 275.386096 32.67802 
L 275.386096 31.879604 
L 275.827288 31.879604 
L 275.827288 31.081188 
L 275.972946 31.081188 
L 275.972946 30.282772 
L 276.866934 30.282772 
L 276.866934 29.484356 
L 277.128754 29.484356 
L 277.128754 28.685941 
L 277.410838 28.685941 
L 277.410838 27.887525 
L 278.158156 27.887525 
L 278.158156 27.089109 
L 279.321912 27.089109 
L 279.321912 26.290693 
L 280.577725 26.290693 
L 280.673507 23.895446 
L 280.792075 23.895446 
L 280.792075 23.09703 
L 280.991464 23.09703 
L 280.991464 22.298614 
L 281.844742 22.298614 
L 281.900243 20.701782 
L 282.006303 20.701782 
L 282.017389 19.10495 
L 282.38824 19.10495 
L 282.38824 18.306535 
L 282.547442 18.306535 
L 282.547442 17.508119 
L 282.921949 17.508119 
L 282.921949 16.709703 
L 283.07953 16.709703 
L 283.07953 15.911287 
L 283.220097 15.911287 
L 283.220097 15.112871 
L 286.047843 15.112871 
L 286.047843 14.314455 
L 288.028603 14.314455 
L 288.028603 13.51604 
L 288.483596 13.51604 
L 288.492763 11.919208 
L 290.338634 11.919208 
L 290.338634 11.120792 
L 303.241609 11.120792 
L 303.241609 10.322376 
L 303.81214 10.322376 
L 303.81214 9.52396 
L 312.820049 9.52396 
L 312.820049 8.725545 
L 318.312183 8.725545 
L 318.312183 7.927129 
L 327.330428 7.927129 
L 327.330428 7.128713 
L 328.116411 7.128713 
L 328.116411 6.330297 
L 328.116411 6.330297 
L 460.8 6.330297 
L 460.8 6.330297 
" style="fill:none;stroke:#ff0000;stroke-linecap:square;stroke-width:3;"/>
   </g>
   <g id="line2d_22">
    <path clip-path="url(#p9745ce52c9)" d="M 196.09445 293.76 
L 196.181319 290.566337 
L 196.223254 290.566337 
L 196.284643 288.969505 
L 196.334708 288.969505 
L 196.406203 281.783762 
L 229.511316 281.783762 
L 229.511316 280.985347 
L 232.318247 280.985347 
L 232.318247 280.186931 
L 232.48882 280.186931 
L 232.48882 279.388515 
L 232.639443 279.388515 
L 232.639443 278.590099 
L 234.240751 278.590099 
L 234.240751 277.791683 
L 234.352151 277.791683 
L 234.352151 276.993267 
L 235.707089 276.993267 
L 235.707089 276.194851 
L 236.602137 276.194851 
L 236.602137 275.396436 
L 237.773472 275.396436 
L 237.773472 274.59802 
L 238.283519 274.59802 
L 238.283519 273.799604 
L 238.566027 273.799604 
L 238.566027 273.001188 
L 239.639813 273.001188 
L 239.639813 272.202772 
L 239.780326 272.202772 
L 239.780326 271.404356 
L 240.411572 271.404356 
L 240.411572 270.605941 
L 240.870107 270.605941 
L 240.870107 269.807525 
L 241.565488 269.807525 
L 241.565488 269.009109 
L 241.811997 269.009109 
L 241.846007 267.412277 
L 242.071096 267.412277 
L 242.071096 266.613861 
L 242.28296 266.613861 
L 242.28296 265.815446 
L 242.528249 265.815446 
L 242.528249 265.01703 
L 242.68053 265.01703 
L 242.68053 264.218614 
L 243.62153 264.218614 
L 243.62153 263.420198 
L 244.068592 263.420198 
L 244.068592 262.621782 
L 244.587525 262.621782 
L 244.685283 261.02495 
L 244.782482 261.02495 
L 244.782482 260.226535 
L 244.988443 260.226535 
L 244.988443 259.428119 
L 245.61867 259.428119 
L 245.61867 258.629703 
L 246.240823 258.629703 
L 246.246135 257.032871 
L 246.724666 257.032871 
L 246.724666 256.234455 
L 247.048048 256.234455 
L 247.068769 254.637624 
L 247.458627 254.637624 
L 247.458627 253.839208 
L 247.982768 253.839208 
L 247.982768 253.040792 
L 248.116641 253.040792 
L 248.173075 251.44396 
L 249.117739 251.44396 
L 249.117739 250.645545 
L 249.503225 250.645545 
L 249.503225 249.847129 
L 249.783406 249.847129 
L 249.879039 247.451881 
L 249.960536 247.451881 
L 250.005718 234.677228 
L 250.266233 234.677228 
L 250.357899 233.080396 
L 250.443268 233.080396 
L 250.443268 232.28198 
L 251.990601 232.28198 
L 252.036473 230.685149 
L 252.13895 230.685149 
L 252.248959 229.088317 
L 252.283778 229.088317 
L 252.283778 228.289901 
L 252.605404 228.289901 
L 252.605404 227.491485 
L 252.966439 227.491485 
L 252.966439 226.693069 
L 253.098746 226.693069 
L 253.193434 224.297822 
L 253.243304 224.297822 
L 253.243304 223.499406 
L 253.731198 223.499406 
L 253.797305 221.902574 
L 253.909012 221.902574 
L 253.909012 221.104158 
L 254.396576 221.104158 
L 254.396576 220.305743 
L 254.841004 220.305743 
L 254.841004 219.507327 
L 254.965524 219.507327 
L 254.996055 217.910495 
L 255.245032 217.910495 
L 255.245032 217.112079 
L 255.679519 217.112079 
L 255.697359 215.515248 
L 256.075721 215.515248 
L 256.114331 213.918416 
L 256.243535 213.918416 
L 256.35025 212.321584 
L 256.442607 212.321584 
L 256.442607 211.523168 
L 256.696242 211.523168 
L 256.741322 209.926337 
L 257.204644 209.926337 
L 257.284515 208.329505 
L 257.439492 208.329505 
L 257.439492 207.531089 
L 258.167619 207.531089 
L 258.167619 206.732673 
L 258.397079 206.732673 
L 258.397079 205.934257 
L 258.711347 205.934257 
L 258.769657 204.337426 
L 258.92144 204.337426 
L 258.989815 202.740594 
L 259.342158 202.740594 
L 259.342158 201.942178 
L 259.518013 201.942178 
L 259.518013 201.143762 
L 259.892156 201.143762 
L 259.924649 199.546931 
L 260.074447 199.546931 
L 260.092762 197.950099 
L 260.294504 197.950099 
L 260.294504 197.151683 
L 260.717588 197.151683 
L 260.743758 195.554851 
L 261.137185 195.554851 
L 261.22221 191.562772 
L 261.285377 191.562772 
L 261.349212 188.369109 
L 261.577974 188.369109 
L 261.577974 187.570693 
L 261.873754 187.570693 
L 261.873754 186.772277 
L 261.987998 186.772277 
L 261.987998 185.973861 
L 262.158393 185.973861 
L 262.202655 183.578614 
L 262.339313 183.578614 
L 262.339313 182.780198 
L 262.487301 182.780198 
L 262.487301 181.981782 
L 262.647277 181.981782 
L 262.647277 181.183366 
L 262.866123 181.183366 
L 262.969879 178.788119 
L 263.012796 178.788119 
L 263.012796 177.989703 
L 263.458398 177.989703 
L 263.458398 177.191287 
L 263.898148 177.191287 
L 263.898148 176.392871 
L 264.093401 176.392871 
L 264.093401 175.594455 
L 264.533114 175.594455 
L 264.570676 173.199208 
L 264.7403 173.199208 
L 264.813245 170.80396 
L 264.876732 170.80396 
L 264.937192 167.610297 
L 264.991136 167.610297 
L 265.07658 165.21505 
L 265.513464 165.21505 
L 265.566312 163.618218 
L 265.858202 163.618218 
L 265.917955 162.021386 
L 266.101065 162.021386 
L 266.101065 161.22297 
L 266.373288 161.22297 
L 266.373314 149.246733 
L 266.585112 149.246733 
L 266.585112 148.448317 
L 267.393981 148.448317 
L 267.431404 146.851485 
L 267.662405 146.851485 
L 267.740228 145.254653 
L 268.15118 145.254653 
L 268.173257 142.859406 
L 268.269891 142.859406 
L 268.31649 141.262574 
L 268.586726 141.262574 
L 268.586726 140.464158 
L 268.713638 140.464158 
L 268.750417 138.867327 
L 268.831858 138.867327 
L 268.831858 138.068911 
L 269.224436 138.068911 
L 269.224436 137.270495 
L 269.528354 137.270495 
L 269.561384 135.673663 
L 269.665815 135.673663 
L 269.665815 134.875248 
L 269.842688 134.875248 
L 269.842688 134.076832 
L 270.194637 134.076832 
L 270.264159 132.48 
L 270.336057 132.48 
L 270.336057 131.681584 
L 270.570997 131.681584 
L 270.570997 130.883168 
L 270.740462 130.883168 
L 270.740462 130.084752 
L 271.069637 130.084752 
L 271.069637 129.286337 
L 271.524463 129.286337 
L 271.524463 128.487921 
L 271.702975 128.487921 
L 271.792365 126.891089 
L 271.97953 126.891089 
L 271.97953 126.092673 
L 272.546491 126.092673 
L 272.546491 125.294257 
L 272.708595 125.294257 
L 272.708595 124.495842 
L 272.947102 124.495842 
L 273.022065 122.89901 
L 273.32487 122.89901 
L 273.373868 121.302178 
L 273.567591 121.302178 
L 273.596033 119.705347 
L 274.155306 119.705347 
L 274.155306 118.906931 
L 274.346524 118.906931 
L 274.447226 116.511683 
L 275.503162 116.511683 
L 275.503162 115.713267 
L 275.875077 115.713267 
L 275.875077 114.914851 
L 276.085458 114.914851 
L 276.144811 113.31802 
L 276.351719 113.31802 
L 276.441843 111.721188 
L 276.481005 111.721188 
L 276.481005 110.922772 
L 276.963111 110.922772 
L 276.963111 110.124356 
L 277.128754 110.124356 
L 277.128754 109.325941 
L 277.410838 109.325941 
L 277.410838 108.527525 
L 280.645769 108.527525 
L 280.645769 107.729109 
L 280.940834 107.729109 
L 281.0056 106.132277 
L 282.017389 106.132277 
L 282.120919 104.535446 
L 282.178903 104.535446 
L 282.215753 102.938614 
L 282.335973 102.938614 
L 282.335973 102.140198 
L 282.895678 102.140198 
L 282.895678 101.341782 
L 283.220097 101.341782 
L 283.220097 100.543366 
L 284.271099 100.543366 
L 284.271099 99.74495 
L 285.159203 99.74495 
L 285.159203 98.946535 
L 288.483596 98.946535 
L 288.483596 98.148119 
L 289.268333 98.148119 
L 289.268333 97.349703 
L 289.659781 97.349703 
L 289.659781 96.551287 
L 290.707184 96.551287 
L 290.707184 95.752871 
L 291.898391 95.752871 
L 291.898391 94.954455 
L 292.376429 94.954455 
L 292.376429 94.15604 
L 292.60871 94.15604 
L 292.617478 92.559208 
L 293.846892 92.559208 
L 293.846892 91.760792 
L 294.800379 91.760792 
L 294.800379 90.962376 
L 295.330682 90.962376 
L 295.330682 90.16396 
L 296.405187 90.16396 
L 296.405187 89.365545 
L 299.218805 89.365545 
L 299.218805 88.567129 
L 299.558386 88.567129 
L 299.558386 87.768713 
L 302.98321 87.768713 
L 302.98321 86.970297 
L 307.806639 86.970297 
L 307.806639 86.171881 
L 308.6187 86.171881 
L 308.6187 85.373465 
L 310.788399 85.373465 
L 310.788399 84.57505 
L 310.966159 84.57505 
L 310.966159 83.776634 
L 313.008015 83.776634 
L 313.008015 82.978218 
L 313.822571 82.978218 
L 313.822571 71.00198 
L 315.420388 71.00198 
L 315.420388 70.203564 
L 320.210596 70.203564 
L 320.210596 69.405149 
L 321.416025 69.405149 
L 321.416025 68.606733 
L 322.3427 68.606733 
L 322.3427 67.808317 
L 322.903718 67.808317 
L 322.903718 67.009901 
L 323.811885 67.009901 
L 323.811885 66.211485 
L 325.467753 66.211485 
L 325.572739 64.614653 
L 328.833737 64.614653 
L 328.833737 63.816238 
L 330.956112 63.816238 
L 330.956112 63.017822 
L 335.057355 63.017822 
L 335.057355 62.219406 
L 335.70618 62.219406 
L 335.70618 61.42099 
L 336.684925 61.42099 
L 336.684925 60.622574 
L 338.307999 60.622574 
L 338.307999 59.824158 
L 339.961287 59.824158 
L 339.961287 59.025743 
L 340.534524 59.025743 
L 340.534524 58.227327 
L 342.513972 58.227327 
L 342.513972 57.428911 
L 344.912161 57.428911 
L 344.912161 56.630495 
L 346.079709 56.630495 
L 346.079709 55.832079 
L 346.588686 55.832079 
L 346.588686 55.033663 
L 347.06048 55.033663 
L 347.06048 54.235248 
L 348.443101 54.235248 
L 348.443101 53.436832 
L 349.374069 53.436832 
L 349.374069 52.638416 
L 350.717795 52.638416 
L 350.717795 51.84 
L 352.593305 51.84 
L 352.593305 51.041584 
L 354.092336 51.041584 
L 354.092336 50.243168 
L 357.469883 50.243168 
L 357.469883 49.444752 
L 357.624569 49.444752 
L 357.624569 48.646337 
L 358.666242 48.646337 
L 358.666242 47.847921 
L 359.941027 47.847921 
L 359.941027 47.049505 
L 362.156467 47.049505 
L 362.156467 46.251089 
L 362.622284 46.251089 
L 362.622284 45.452673 
L 363.745625 45.452673 
L 363.745625 44.654257 
L 365.442193 44.654257 
L 365.442193 43.855842 
L 366.12429 43.855842 
L 366.12429 43.057426 
L 374.358191 43.057426 
L 374.358191 42.25901 
L 378.144207 42.25901 
L 378.144207 41.460594 
L 379.37386 41.460594 
L 379.37386 40.662178 
L 379.695734 40.662178 
L 379.695734 39.863762 
L 381.185853 39.863762 
L 381.185853 39.065347 
L 381.617373 39.065347 
L 381.617373 38.266931 
L 382.32157 38.266931 
L 382.32157 37.468515 
L 384.951579 37.468515 
L 384.951579 36.670099 
L 386.598169 36.670099 
L 386.598169 35.871683 
L 386.76581 35.871683 
L 386.76581 35.073267 
L 387.641665 35.073267 
L 387.641665 34.274851 
L 389.948611 34.274851 
L 389.948611 33.476436 
L 390.511168 33.476436 
L 390.511168 32.67802 
L 391.303599 32.67802 
L 391.303599 31.879604 
L 392.260289 31.879604 
L 392.260289 31.081188 
L 392.44986 31.081188 
L 392.492581 29.484356 
L 393.462373 29.484356 
L 393.462373 28.685941 
L 393.763225 28.685941 
L 393.763225 27.887525 
L 394.944165 27.887525 
L 394.944165 27.089109 
L 395.683122 27.089109 
L 395.683122 26.290693 
L 396.188631 26.290693 
L 396.188631 25.492277 
L 396.653735 25.492277 
L 396.653735 24.693861 
L 397.155808 24.693861 
L 397.155808 23.895446 
L 397.284806 23.895446 
L 397.395257 22.298614 
L 398.494847 22.298614 
L 398.494847 21.500198 
L 399.89076 21.500198 
L 399.89076 20.701782 
L 400.700343 20.701782 
L 400.700343 19.903366 
L 401.316237 19.903366 
L 401.381782 18.306535 
L 403.882292 18.306535 
L 403.882292 17.508119 
L 404.452966 17.508119 
L 404.452966 16.709703 
L 405.747804 16.709703 
L 405.747804 15.911287 
L 407.000038 15.911287 
L 407.000038 15.112871 
L 407.488357 15.112871 
L 407.488357 14.314455 
L 408.82808 14.314455 
L 408.82808 13.51604 
L 412.002476 13.51604 
L 412.002476 12.717624 
L 414.293504 12.717624 
L 414.293504 11.919208 
L 418.47761 11.919208 
L 418.47761 11.120792 
L 418.949515 11.120792 
L 418.949515 10.322376 
L 419.562528 10.322376 
L 419.562528 9.52396 
L 419.862087 9.52396 
L 419.862087 8.725545 
L 429.726703 8.725545 
L 429.726703 7.927129 
L 430.595229 7.927129 
L 430.595229 7.128713 
L 437.135801 7.128713 
L 437.135801 6.330297 
L 437.135801 6.330297 
L 460.8 6.330297 
L 460.8 6.330297 
" style="fill:none;stroke:#00bfbf;stroke-linecap:square;stroke-width:1.5;"/>
   </g>
   <g id="line2d_23">
    <path clip-path="url(#p9745ce52c9)" d="M 196.068871 293.76 
L 196.15241 286.574257 
L 196.210871 286.574257 
L 196.310293 283.380594 
L 196.380817 283.380594 
L 196.390675 281.783762 
L 229.510781 281.783762 
L 229.510781 280.985347 
L 232.318247 280.985347 
L 232.318247 280.186931 
L 232.488144 280.186931 
L 232.488144 279.388515 
L 232.638598 279.388515 
L 232.638598 278.590099 
L 234.240353 278.590099 
L 234.328757 276.993267 
L 235.703665 276.993267 
L 235.703665 276.194851 
L 236.597004 276.194851 
L 236.597004 275.396436 
L 237.599269 275.396436 
L 237.599269 274.59802 
L 238.281703 274.59802 
L 238.281703 273.799604 
L 238.566027 273.799604 
L 238.566027 273.001188 
L 239.639813 273.001188 
L 239.639813 272.202772 
L 239.780326 272.202772 
L 239.780326 271.404356 
L 240.411572 271.404356 
L 240.411572 270.605941 
L 240.869637 270.605941 
L 240.869637 269.807525 
L 241.565488 269.807525 
L 241.565488 269.009109 
L 241.790737 269.009109 
L 241.811244 267.412277 
L 242.071096 267.412277 
L 242.071096 266.613861 
L 242.282039 266.613861 
L 242.282039 265.815446 
L 242.528249 265.815446 
L 242.579686 264.218614 
L 243.488687 264.218614 
L 243.488687 263.420198 
L 243.619571 263.420198 
L 243.619571 262.621782 
L 244.582116 262.621782 
L 244.683866 261.02495 
L 244.782482 261.02495 
L 244.782482 260.226535 
L 244.981482 260.226535 
L 244.981482 259.428119 
L 245.61867 259.428119 
L 245.61867 258.629703 
L 246.237798 258.629703 
L 246.246135 257.032871 
L 246.724004 257.032871 
L 246.724004 256.234455 
L 246.997194 256.234455 
L 247.047377 254.637624 
L 247.259174 254.637624 
L 247.259174 253.839208 
L 247.982567 253.839208 
L 247.984984 252.242376 
L 248.172781 252.242376 
L 248.172781 251.44396 
L 249.116445 251.44396 
L 249.116445 250.645545 
L 249.503211 250.645545 
L 249.503211 249.847129 
L 249.686263 249.847129 
L 249.783406 248.250297 
L 249.85616 248.250297 
L 249.96532 235.475644 
L 250.005659 235.475644 
L 250.005659 234.677228 
L 250.263661 234.677228 
L 250.356462 233.080396 
L 250.442462 233.080396 
L 250.442462 232.28198 
L 251.990601 232.28198 
L 252.036291 230.685149 
L 252.123299 230.685149 
L 252.123299 229.886733 
L 252.241946 229.886733 
L 252.248959 228.289901 
L 252.605404 228.289901 
L 252.605404 227.491485 
L 252.932031 227.491485 
L 252.932031 226.693069 
L 253.098518 226.693069 
L 253.193434 224.297822 
L 253.241895 224.297822 
L 253.241895 223.499406 
L 253.713815 223.499406 
L 253.786143 221.104158 
L 254.396546 221.104158 
L 254.396546 220.305743 
L 254.791631 220.305743 
L 254.791631 219.507327 
L 254.965524 219.507327 
L 254.996055 217.910495 
L 255.245023 217.910495 
L 255.245023 217.112079 
L 255.616504 217.112079 
L 255.694277 215.515248 
L 256.075721 215.515248 
L 256.114331 213.918416 
L 256.243055 213.918416 
L 256.341252 212.321584 
L 256.442607 212.321584 
L 256.442607 211.523168 
L 256.694644 211.523168 
L 256.740222 209.926337 
L 257.204644 209.926337 
L 257.284515 208.329505 
L 257.438122 208.329505 
L 257.438122 207.531089 
L 258.167619 207.531089 
L 258.167619 206.732673 
L 258.396662 206.732673 
L 258.396662 205.934257 
L 258.710946 205.934257 
L 258.769495 204.337426 
L 258.919316 204.337426 
L 258.96657 202.740594 
L 259.331822 202.740594 
L 259.331822 201.942178 
L 259.518013 201.942178 
L 259.518013 201.143762 
L 259.891619 201.143762 
L 259.92299 199.546931 
L 260.0734 199.546931 
L 260.092076 197.950099 
L 260.293134 197.950099 
L 260.293134 197.151683 
L 260.717114 197.151683 
L 260.743396 195.554851 
L 261.128071 195.554851 
L 261.220091 191.562772 
L 261.264308 191.562772 
L 261.349137 188.369109 
L 261.577974 188.369109 
L 261.577974 187.570693 
L 261.873754 187.570693 
L 261.873754 186.772277 
L 261.98792 186.772277 
L 261.98792 185.973861 
L 262.158137 185.973861 
L 262.202444 183.578614 
L 262.339112 183.578614 
L 262.339112 182.780198 
L 262.482602 182.780198 
L 262.482602 181.981782 
L 262.645018 181.981782 
L 262.645018 181.183366 
L 262.802794 181.183366 
L 262.862997 179.586535 
L 262.941481 179.586535 
L 263.012776 177.989703 
L 263.458398 177.989703 
L 263.458398 177.191287 
L 263.890015 177.191287 
L 263.890015 176.392871 
L 264.086595 176.392871 
L 264.086595 175.594455 
L 264.508181 175.594455 
L 264.549422 173.199208 
L 264.734015 173.199208 
L 264.810173 170.80396 
L 264.873226 170.80396 
L 264.968294 166.811881 
L 265.047942 166.811881 
L 265.051874 165.21505 
L 265.509371 165.21505 
L 265.54817 163.618218 
L 265.85119 163.618218 
L 265.899823 162.021386 
L 265.996244 162.021386 
L 265.996244 161.22297 
L 266.373047 161.22297 
L 266.373288 149.246733 
L 266.581979 149.246733 
L 266.581979 148.448317 
L 267.392435 148.448317 
L 267.429359 146.851485 
L 267.546898 146.851485 
L 267.546898 146.053069 
L 267.737928 146.053069 
L 267.737928 145.254653 
L 268.151092 145.254653 
L 268.171042 142.859406 
L 268.266736 142.859406 
L 268.310862 141.262574 
L 268.586726 141.262574 
L 268.586726 140.464158 
L 268.712697 140.464158 
L 268.744699 138.867327 
L 268.824215 138.867327 
L 268.824215 138.068911 
L 269.202783 138.068911 
L 269.202783 137.270495 
L 269.506321 137.270495 
L 269.561107 135.673663 
L 269.663806 135.673663 
L 269.663806 134.875248 
L 269.840502 134.875248 
L 269.840502 134.076832 
L 270.193758 134.076832 
L 270.264159 132.48 
L 270.336057 132.48 
L 270.336057 131.681584 
L 270.570997 131.681584 
L 270.570997 130.883168 
L 270.739249 130.883168 
L 270.739249 130.084752 
L 271.030645 130.084752 
L 271.030645 129.286337 
L 271.522619 129.286337 
L 271.522619 128.487921 
L 271.702975 128.487921 
L 271.791982 126.891089 
L 271.978615 126.891089 
L 271.978615 126.092673 
L 272.546491 126.092673 
L 272.546491 125.294257 
L 272.706948 125.294257 
L 272.706948 124.495842 
L 272.945476 124.495842 
L 273.022032 122.89901 
L 273.324616 122.89901 
L 273.373868 121.302178 
L 273.567591 121.302178 
L 273.595705 119.705347 
L 274.155306 119.705347 
L 274.155306 118.906931 
L 274.346511 118.906931 
L 274.447226 116.511683 
L 275.50216 116.511683 
L 275.50216 115.713267 
L 275.87285 115.713267 
L 275.87285 114.914851 
L 276.060744 114.914851 
L 276.085458 113.31802 
L 276.348632 113.31802 
L 276.440062 111.721188 
L 276.480527 111.721188 
L 276.480527 110.922772 
L 276.961409 110.922772 
L 276.961409 110.124356 
L 277.128754 110.124356 
L 277.128754 109.325941 
L 277.410838 109.325941 
L 277.410838 108.527525 
L 280.645214 108.527525 
L 280.645214 107.729109 
L 280.940362 107.729109 
L 281.003185 106.132277 
L 282.017389 106.132277 
L 282.120919 104.535446 
L 282.178903 104.535446 
L 282.21443 102.938614 
L 282.334748 102.938614 
L 282.334748 102.140198 
L 282.894387 102.140198 
L 282.894387 101.341782 
L 283.220097 101.341782 
L 283.220097 100.543366 
L 284.271099 100.543366 
L 284.271099 99.74495 
L 285.159109 99.74495 
L 285.159109 98.946535 
L 288.483596 98.946535 
L 288.483596 98.148119 
L 289.267708 98.148119 
L 289.267708 97.349703 
L 289.659781 97.349703 
L 289.659781 96.551287 
L 290.707184 96.551287 
L 290.707184 95.752871 
L 291.898307 95.752871 
L 291.898307 94.954455 
L 292.376048 94.954455 
L 292.376048 94.15604 
L 292.608656 94.15604 
L 292.617261 92.559208 
L 293.846436 92.559208 
L 293.846436 91.760792 
L 294.800379 91.760792 
L 294.800379 90.962376 
L 295.330682 90.962376 
L 295.330682 90.16396 
L 296.404924 90.16396 
L 296.404924 89.365545 
L 299.218805 89.365545 
L 299.218805 88.567129 
L 299.558309 88.567129 
L 299.558309 87.768713 
L 302.98321 87.768713 
L 302.98321 86.970297 
L 307.806639 86.970297 
L 307.806639 86.171881 
L 308.617912 86.171881 
L 308.617912 85.373465 
L 310.787791 85.373465 
L 310.787791 84.57505 
L 310.964687 84.57505 
L 310.964687 83.776634 
L 313.007406 83.776634 
L 313.007406 82.978218 
L 313.818467 82.978218 
L 313.822571 71.00198 
L 315.419998 71.00198 
L 315.419998 70.203564 
L 320.210069 70.203564 
L 320.210069 69.405149 
L 321.415941 69.405149 
L 321.415941 68.606733 
L 322.341971 68.606733 
L 322.341971 67.808317 
L 322.903309 67.808317 
L 322.903309 67.009901 
L 323.811525 67.009901 
L 323.811525 66.211485 
L 325.467483 66.211485 
L 325.572265 64.614653 
L 328.833375 64.614653 
L 328.833375 63.816238 
L 330.956112 63.816238 
L 330.956112 63.017822 
L 335.038985 63.017822 
L 335.038985 62.219406 
L 335.70618 62.219406 
L 335.70618 61.42099 
L 336.684925 61.42099 
L 336.684925 60.622574 
L 338.30666 60.622574 
L 338.30666 59.824158 
L 339.960982 59.824158 
L 339.960982 59.025743 
L 340.533891 59.025743 
L 340.533891 58.227327 
L 342.513972 58.227327 
L 342.513972 57.428911 
L 344.895163 57.428911 
L 344.895163 56.630495 
L 346.079704 56.630495 
L 346.079704 55.832079 
L 346.588552 55.832079 
L 346.588552 55.033663 
L 347.060196 55.033663 
L 347.060196 54.235248 
L 348.436919 54.235248 
L 348.436919 53.436832 
L 349.372505 53.436832 
L 349.372505 52.638416 
L 350.716998 52.638416 
L 350.716998 51.84 
L 352.592541 51.84 
L 352.592541 51.041584 
L 354.089108 51.041584 
L 354.089108 50.243168 
L 357.469802 50.243168 
L 357.469802 49.444752 
L 357.624164 49.444752 
L 357.624164 48.646337 
L 358.665887 48.646337 
L 358.665887 47.847921 
L 359.935509 47.847921 
L 359.935509 47.049505 
L 362.156467 47.049505 
L 362.156467 46.251089 
L 362.622284 46.251089 
L 362.622284 45.452673 
L 363.744668 45.452673 
L 363.744668 44.654257 
L 365.442167 44.654257 
L 365.442167 43.855842 
L 366.118623 43.855842 
L 366.118623 43.057426 
L 374.357074 43.057426 
L 374.357074 42.25901 
L 378.144207 42.25901 
L 378.144207 41.460594 
L 379.37386 41.460594 
L 379.37386 40.662178 
L 379.695724 40.662178 
L 379.695724 39.863762 
L 381.185592 39.863762 
L 381.185592 39.065347 
L 381.617373 39.065347 
L 381.617373 38.266931 
L 382.32145 38.266931 
L 382.32145 37.468515 
L 384.948766 37.468515 
L 384.948766 36.670099 
L 386.598169 36.670099 
L 386.598169 35.871683 
L 386.763671 35.871683 
L 386.763671 35.073267 
L 387.640728 35.073267 
L 387.640728 34.274851 
L 389.947707 34.274851 
L 389.947707 33.476436 
L 390.509321 33.476436 
L 390.509321 32.67802 
L 391.302524 32.67802 
L 391.302524 31.879604 
L 392.258322 31.879604 
L 392.258322 31.081188 
L 392.447685 31.081188 
L 392.491372 29.484356 
L 393.462373 29.484356 
L 393.462373 28.685941 
L 393.761705 28.685941 
L 393.761705 27.887525 
L 394.943677 27.887525 
L 394.943677 27.089109 
L 395.682439 27.089109 
L 395.682439 26.290693 
L 396.188631 26.290693 
L 396.188631 25.492277 
L 396.653728 25.492277 
L 396.653728 24.693861 
L 397.155138 24.693861 
L 397.155138 23.895446 
L 397.283696 23.895446 
L 397.283696 23.09703 
L 397.395256 23.09703 
L 397.395256 22.298614 
L 398.492511 22.298614 
L 398.492511 21.500198 
L 399.890759 21.500198 
L 399.890759 20.701782 
L 400.700343 20.701782 
L 400.700343 19.903366 
L 401.31617 19.903366 
L 401.380052 18.306535 
L 403.881182 18.306535 
L 403.881182 17.508119 
L 404.452196 17.508119 
L 404.452196 16.709703 
L 405.747346 16.709703 
L 405.747346 15.911287 
L 406.999701 15.911287 
L 406.999701 15.112871 
L 407.487836 15.112871 
L 407.487836 14.314455 
L 408.827301 14.314455 
L 408.827301 13.51604 
L 412.001719 13.51604 
L 412.001719 12.717624 
L 414.292958 12.717624 
L 414.292958 11.919208 
L 418.476254 11.919208 
L 418.476254 11.120792 
L 418.947604 11.120792 
L 418.947604 10.322376 
L 419.562528 10.322376 
L 419.562528 9.52396 
L 419.861284 9.52396 
L 419.861284 8.725545 
L 429.726703 8.725545 
L 429.726703 7.927129 
L 430.594318 7.927129 
L 430.594318 7.128713 
L 437.135245 7.128713 
L 437.135245 6.330297 
L 437.135245 6.330297 
L 460.8 6.330297 
L 460.8 6.330297 
" style="fill:none;stroke:#bf00bf;stroke-linecap:square;stroke-width:1.5;"/>
   </g>
   <g id="line2d_24">
    <path clip-path="url(#p9745ce52c9)" d="M 194.267792 293.76 
L 194.334943 290.566337 
L 194.502355 290.566337 
L 194.561003 288.969505 
L 194.651926 288.969505 
L 194.740695 285.775842 
L 194.770109 285.775842 
L 194.7843 284.17901 
L 194.952422 284.17901 
L 195.036036 282.582178 
L 195.142039 282.582178 
L 195.142039 281.783762 
L 229.503567 281.783762 
L 229.503567 280.985347 
L 232.316277 280.985347 
L 232.316277 280.186931 
L 232.478443 280.186931 
L 232.478443 279.388515 
L 232.624334 279.388515 
L 232.655299 277.791683 
L 234.193603 277.791683 
L 234.193603 276.993267 
L 235.643821 276.993267 
L 235.643821 276.194851 
L 236.539573 276.194851 
L 236.607817 274.59802 
L 238.274966 274.59802 
L 238.274966 273.799604 
L 238.506782 273.799604 
L 238.506782 273.001188 
L 238.961456 273.001188 
L 238.961456 272.202772 
L 239.77571 272.202772 
L 239.77571 271.404356 
L 240.063184 271.404356 
L 240.063184 270.605941 
L 240.845863 270.605941 
L 240.907707 269.009109 
L 241.188444 269.009109 
L 241.188444 268.210693 
L 241.534208 268.210693 
L 241.534208 267.412277 
L 241.805035 267.412277 
L 241.805035 266.613861 
L 242.071096 266.613861 
L 242.130189 265.01703 
L 242.273654 265.01703 
L 242.286763 263.420198 
L 243.601951 263.420198 
L 243.601951 262.621782 
L 244.477827 262.621782 
L 244.477827 261.823366 
L 244.667413 261.823366 
L 244.777588 260.226535 
L 244.958645 260.226535 
L 244.958645 259.428119 
L 245.61867 259.428119 
L 245.61867 258.629703 
L 246.18474 258.629703 
L 246.273189 256.234455 
L 246.425953 256.234455 
L 246.425953 255.43604 
L 246.718727 255.43604 
L 246.718727 254.637624 
L 247.041399 254.637624 
L 247.041399 253.839208 
L 247.193375 253.839208 
L 247.193375 253.040792 
L 247.977297 253.040792 
L 247.977297 252.242376 
L 248.1706 252.242376 
L 248.1706 251.44396 
L 249.108871 251.44396 
L 249.108871 250.645545 
L 249.285599 250.645545 
L 249.285599 249.847129 
L 249.477759 249.847129 
L 249.477759 249.048713 
L 249.77997 249.048713 
L 249.790032 247.451881 
L 249.920377 247.451881 
L 250.00005 234.677228 
L 250.187388 234.677228 
L 250.187388 233.878812 
L 250.350326 233.878812 
L 250.438887 232.28198 
L 251.986864 232.28198 
L 252.080736 229.886733 
L 252.164828 229.886733 
L 252.182993 228.289901 
L 252.600992 228.289901 
L 252.605404 226.693069 
L 253.090749 226.693069 
L 253.16044 224.297822 
L 253.229263 224.297822 
L 253.229263 223.499406 
L 253.587048 223.499406 
L 253.587048 222.70099 
L 253.710733 222.70099 
L 253.72739 221.104158 
L 254.394111 221.104158 
L 254.394111 220.305743 
L 254.748026 220.305743 
L 254.802018 218.708911 
L 254.996055 218.708911 
L 255.068943 217.112079 
L 255.243127 217.112079 
L 255.243127 216.313663 
L 255.652157 216.313663 
L 255.652157 215.515248 
L 256.040277 215.515248 
L 256.106763 213.918416 
L 256.239886 213.918416 
L 256.288341 212.321584 
L 256.442607 212.321584 
L 256.442607 211.523168 
L 256.689207 211.523168 
L 256.726322 209.926337 
L 257.19974 209.926337 
L 257.277433 208.329505 
L 257.429512 208.329505 
L 257.429512 207.531089 
L 258.158269 207.531089 
L 258.158269 206.732673 
L 258.393947 206.732673 
L 258.393947 205.934257 
L 258.708054 205.934257 
L 258.810917 203.53901 
L 258.853824 203.53901 
L 258.853824 202.740594 
L 259.19405 202.740594 
L 259.19405 201.942178 
L 259.428016 201.942178 
L 259.428016 201.143762 
L 259.888474 201.143762 
L 259.916019 199.546931 
L 260.067604 199.546931 
L 260.08798 197.950099 
L 260.286871 197.950099 
L 260.286871 197.151683 
L 260.714228 197.151683 
L 260.742289 195.554851 
L 260.83616 195.554851 
L 260.83616 194.756436 
L 260.947859 194.756436 
L 260.947859 193.95802 
L 261.130747 193.95802 
L 261.198223 190.764356 
L 261.288157 190.764356 
L 261.347804 188.369109 
L 261.41177 188.369109 
L 261.41177 187.570693 
L 261.870958 187.570693 
L 261.870958 186.772277 
L 261.987092 186.772277 
L 261.987092 185.973861 
L 262.157191 185.973861 
L 262.200249 183.578614 
L 262.313719 183.578614 
L 262.337842 181.981782 
L 262.461322 181.981782 
L 262.56791 180.38495 
L 262.63202 180.38495 
L 262.63202 179.586535 
L 262.789261 179.586535 
L 262.789261 178.788119 
L 263.012094 178.788119 
L 263.012094 177.989703 
L 263.458398 177.989703 
L 263.458398 177.191287 
L 263.854578 177.191287 
L 263.854578 176.392871 
L 264.057006 176.392871 
L 264.057006 175.594455 
L 264.265281 175.594455 
L 264.265281 174.79604 
L 264.416725 174.79604 
L 264.416725 173.997624 
L 264.53003 173.997624 
L 264.53003 173.199208 
L 264.714816 173.199208 
L 264.7897 170.80396 
L 264.836587 170.80396 
L 264.941466 166.013465 
L 265.047942 166.013465 
L 265.047942 165.21505 
L 265.434297 165.21505 
L 265.475809 163.618218 
L 265.775161 163.618218 
L 265.815448 162.021386 
L 265.967396 162.021386 
L 265.967396 161.22297 
L 266.37144 161.22297 
L 266.37214 149.246733 
L 266.499549 149.246733 
L 266.499549 148.448317 
L 267.358014 148.448317 
L 267.414642 146.851485 
L 267.484053 146.851485 
L 267.484053 146.053069 
L 267.713369 146.053069 
L 267.713369 145.254653 
L 268.141348 145.254653 
L 268.146612 142.859406 
L 268.255504 142.859406 
L 268.294977 141.262574 
L 268.486811 141.262574 
L 268.486811 140.464158 
L 268.688827 140.464158 
L 268.74884 138.068911 
L 269.154873 138.068911 
L 269.154873 137.270495 
L 269.371568 137.270495 
L 269.371568 136.472079 
L 269.547487 136.472079 
L 269.614483 134.875248 
L 269.810346 134.875248 
L 269.810346 134.076832 
L 270.185237 134.076832 
L 270.238357 132.48 
L 270.310916 132.48 
L 270.310916 131.681584 
L 270.570997 131.681584 
L 270.570997 130.883168 
L 270.708842 130.883168 
L 270.708842 130.084752 
L 270.933064 130.084752 
L 270.933064 129.286337 
L 271.51197 129.286337 
L 271.51197 128.487921 
L 271.686536 128.487921 
L 271.782682 126.891089 
L 271.970697 126.891089 
L 271.970697 126.092673 
L 272.546491 126.092673 
L 272.546491 125.294257 
L 272.695448 125.294257 
L 272.695448 124.495842 
L 272.938091 124.495842 
L 273.010107 122.89901 
L 273.316125 122.89901 
L 273.360384 121.302178 
L 273.567591 121.302178 
L 273.588176 119.705347 
L 274.155306 119.705347 
L 274.155306 118.906931 
L 274.336519 118.906931 
L 274.440495 116.511683 
L 275.493264 116.511683 
L 275.493264 115.713267 
L 275.854471 115.713267 
L 275.854471 114.914851 
L 275.98415 114.914851 
L 276.056658 113.31802 
L 276.338627 113.31802 
L 276.428457 111.721188 
L 276.457948 111.721188 
L 276.457948 110.922772 
L 276.949059 110.922772 
L 276.949059 110.124356 
L 277.128754 110.124356 
L 277.128754 109.325941 
L 277.410838 109.325941 
L 277.410838 108.527525 
L 280.639061 108.527525 
L 280.639061 107.729109 
L 280.934954 107.729109 
L 280.995858 106.132277 
L 282.017389 106.132277 
L 282.117335 104.535446 
L 282.176223 104.535446 
L 282.207214 102.938614 
L 282.325759 102.938614 
L 282.325759 102.140198 
L 282.889308 102.140198 
L 282.889308 101.341782 
L 283.220097 101.341782 
L 283.220097 100.543366 
L 284.265331 100.543366 
L 284.265331 99.74495 
L 285.155244 99.74495 
L 285.155244 98.946535 
L 288.483596 98.946535 
L 288.483596 98.148119 
L 288.732504 98.148119 
L 288.732504 97.349703 
L 289.264579 97.349703 
L 289.264579 96.551287 
L 290.705026 96.551287 
L 290.705026 95.752871 
L 291.895809 95.752871 
L 291.895809 94.954455 
L 292.373827 94.954455 
L 292.373827 94.15604 
L 292.605873 94.15604 
L 292.613366 92.559208 
L 293.843925 92.559208 
L 293.843925 91.760792 
L 294.798556 91.760792 
L 294.798556 90.962376 
L 295.325782 90.962376 
L 295.325782 90.16396 
L 296.401969 90.16396 
L 296.401969 89.365545 
L 299.216903 89.365545 
L 299.216903 88.567129 
L 299.556758 88.567129 
L 299.556758 87.768713 
L 302.9644 87.768713 
L 302.9644 86.970297 
L 307.78182 86.970297 
L 307.78182 86.171881 
L 308.59754 86.171881 
L 308.59754 85.373465 
L 310.76818 85.373465 
L 310.76818 84.57505 
L 310.952005 84.57505 
L 310.952005 83.776634 
L 312.991969 83.776634 
L 312.991969 82.978218 
L 313.799797 82.978218 
L 313.805373 71.00198 
L 315.400519 71.00198 
L 315.400519 70.203564 
L 320.191744 70.203564 
L 320.191744 69.405149 
L 321.40016 69.405149 
L 321.40016 68.606733 
L 322.284154 68.606733 
L 322.284154 67.808317 
L 322.888575 67.808317 
L 322.888575 67.009901 
L 323.795699 67.009901 
L 323.795699 66.211485 
L 325.45698 66.211485 
L 325.563031 64.614653 
L 328.818407 64.614653 
L 328.818407 63.816238 
L 330.895389 63.816238 
L 330.895389 63.017822 
L 334.94226 63.017822 
L 334.94226 62.219406 
L 335.685677 62.219406 
L 335.685677 61.42099 
L 336.58415 61.42099 
L 336.58415 60.622574 
L 338.294097 60.622574 
L 338.294097 59.824158 
L 339.95872 59.824158 
L 339.95872 59.025743 
L 340.524974 59.025743 
L 340.524974 58.227327 
L 342.504164 58.227327 
L 342.504164 57.428911 
L 344.852044 57.428911 
L 344.852044 56.630495 
L 346.062697 56.630495 
L 346.062697 55.832079 
L 346.584613 55.832079 
L 346.584613 55.033663 
L 347.057172 55.033663 
L 347.057172 54.235248 
L 348.365718 54.235248 
L 348.365718 53.436832 
L 349.367675 53.436832 
L 349.367675 52.638416 
L 350.711619 52.638416 
L 350.711619 51.84 
L 352.589554 51.84 
L 352.589554 51.041584 
L 354.067905 51.041584 
L 354.067905 50.243168 
L 357.46621 50.243168 
L 357.46621 49.444752 
L 357.61794 49.444752 
L 357.61794 48.646337 
L 358.664428 48.646337 
L 358.664428 47.847921 
L 359.925532 47.847921 
L 359.925532 47.049505 
L 362.149943 47.049505 
L 362.149943 46.251089 
L 362.59501 46.251089 
L 362.59501 45.452673 
L 363.740648 45.452673 
L 363.740648 44.654257 
L 365.44161 44.654257 
L 365.44161 43.855842 
L 366.086892 43.855842 
L 366.086892 43.057426 
L 374.319137 43.057426 
L 374.319137 42.25901 
L 378.12313 42.25901 
L 378.12313 41.460594 
L 379.365536 41.460594 
L 379.365536 40.662178 
L 379.687357 40.662178 
L 379.687357 39.863762 
L 381.182256 39.863762 
L 381.182256 39.065347 
L 381.597507 39.065347 
L 381.597507 38.266931 
L 382.310835 38.266931 
L 382.310835 37.468515 
L 384.943517 37.468515 
L 384.943517 36.670099 
L 386.590799 36.670099 
L 386.590799 35.871683 
L 386.759822 35.871683 
L 386.759822 35.073267 
L 387.635142 35.073267 
L 387.635142 34.274851 
L 389.938569 34.274851 
L 389.938569 33.476436 
L 390.505951 33.476436 
L 390.505951 32.67802 
L 391.289701 32.67802 
L 391.289701 31.879604 
L 392.251554 31.879604 
L 392.251554 31.081188 
L 392.443833 31.081188 
L 392.476296 29.484356 
L 393.45836 29.484356 
L 393.45836 28.685941 
L 393.755169 28.685941 
L 393.755169 27.887525 
L 394.937446 27.887525 
L 394.937446 27.089109 
L 395.677631 27.089109 
L 395.677631 26.290693 
L 396.182272 26.290693 
L 396.182272 25.492277 
L 396.646657 25.492277 
L 396.646657 24.693861 
L 397.146379 24.693861 
L 397.146379 23.895446 
L 397.275649 23.895446 
L 397.275649 23.09703 
L 397.38755 23.09703 
L 397.38755 22.298614 
L 398.481315 22.298614 
L 398.481315 21.500198 
L 399.880878 21.500198 
L 399.880878 20.701782 
L 400.690449 20.701782 
L 400.690449 19.903366 
L 401.308954 19.903366 
L 401.376975 18.306535 
L 403.870469 18.306535 
L 403.870469 17.508119 
L 404.445951 17.508119 
L 404.445951 16.709703 
L 405.742101 16.709703 
L 405.742101 15.911287 
L 406.994999 15.911287 
L 406.994999 15.112871 
L 407.485222 15.112871 
L 407.485222 14.314455 
L 408.82312 14.314455 
L 408.82312 13.51604 
L 411.997292 13.51604 
L 411.997292 12.717624 
L 414.289103 12.717624 
L 414.289103 11.919208 
L 418.4697 11.919208 
L 418.4697 11.120792 
L 418.939763 11.120792 
L 418.939763 10.322376 
L 419.548087 10.322376 
L 419.548087 9.52396 
L 419.851078 9.52396 
L 419.851078 8.725545 
L 429.717845 8.725545 
L 429.717845 7.927129 
L 430.584607 7.927129 
L 430.584607 7.128713 
L 437.13007 7.128713 
L 437.13007 6.330297 
L 437.13007 6.330297 
L 460.8 6.330297 
L 460.8 6.330297 
" style="fill:none;stroke:#000000;stroke-linecap:square;stroke-width:1.5;"/>
   </g>
   <g id="line2d_25">
    <path clip-path="url(#p9745ce52c9)" d="M 170.785207 293.76 
L 170.785207 292.961584 
L 172.572937 292.961584 
L 172.572937 292.163168 
L 173.457155 292.163168 
L 173.457155 291.364752 
L 175.223832 291.364752 
L 175.223832 290.566337 
L 181.764276 290.566337 
L 181.855143 288.969505 
L 184.29565 288.969505 
L 184.29565 288.171089 
L 184.414059 288.171089 
L 184.414059 287.372673 
L 185.500461 287.372673 
L 185.500461 286.574257 
L 185.776112 286.574257 
L 185.776112 285.775842 
L 185.976261 285.775842 
L 185.976261 284.977426 
L 187.43519 284.977426 
L 187.43519 284.17901 
L 187.938563 284.17901 
L 187.938563 283.380594 
L 188.479611 283.380594 
L 188.479611 282.582178 
L 189.540732 282.582178 
L 189.540732 281.783762 
L 225.935453 281.783762 
L 225.935453 280.985347 
L 226.928398 280.985347 
L 226.928398 280.186931 
L 228.832955 280.186931 
L 228.832955 279.388515 
L 229.832532 279.388515 
L 229.832532 278.590099 
L 230.899949 278.590099 
L 230.899949 277.791683 
L 231.220193 277.791683 
L 231.220193 276.993267 
L 232.032183 276.993267 
L 232.032183 276.194851 
L 234.184332 276.194851 
L 234.184332 275.396436 
L 234.918119 275.396436 
L 234.918119 274.59802 
L 235.53838 274.59802 
L 235.53838 273.799604 
L 236.3225 273.799604 
L 236.3225 273.001188 
L 236.857414 273.001188 
L 236.857414 272.202772 
L 237.403749 272.202772 
L 237.403749 271.404356 
L 238.428412 271.404356 
L 238.428412 270.605941 
L 239.03055 270.605941 
L 239.128867 269.009109 
L 239.723963 269.009109 
L 239.723963 268.210693 
L 240.194675 268.210693 
L 240.194675 267.412277 
L 240.878561 267.412277 
L 240.973645 265.01703 
L 241.009041 265.01703 
L 241.055866 262.621782 
L 241.458216 262.621782 
L 241.514378 261.02495 
L 242.027387 261.02495 
L 242.085906 258.629703 
L 242.20813 258.629703 
L 242.20813 257.831287 
L 242.599243 257.831287 
L 242.599243 257.032871 
L 243.126381 257.032871 
L 243.126381 256.234455 
L 244.072414 256.234455 
L 244.072414 255.43604 
L 244.892563 255.43604 
L 244.974848 253.040792 
L 245.396895 253.040792 
L 245.477311 251.44396 
L 245.61867 251.44396 
L 245.61867 250.645545 
L 245.9222 250.645545 
L 246.027197 249.048713 
L 246.169339 249.048713 
L 246.243777 247.451881 
L 246.308114 247.451881 
L 246.352762 245.85505 
L 246.870323 245.85505 
L 246.870323 245.056634 
L 247.108431 245.056634 
L 247.108431 244.258218 
L 247.235264 244.258218 
L 247.306695 241.86297 
L 247.361046 241.86297 
L 247.361046 241.064554 
L 247.482662 241.064554 
L 247.525898 239.467723 
L 247.68437 239.467723 
L 247.68437 238.669307 
L 247.871576 238.669307 
L 247.932643 237.072475 
L 248.246937 237.072475 
L 248.272278 235.475644 
L 248.68401 235.475644 
L 248.68401 234.677228 
L 249.124334 234.677228 
L 249.191629 233.080396 
L 249.282306 233.080396 
L 249.387678 231.483564 
L 249.490204 231.483564 
L 249.536191 229.886733 
L 249.741761 229.886733 
L 249.741761 229.088317 
L 249.911888 229.088317 
L 249.911888 228.289901 
L 250.432595 228.289901 
L 250.432595 227.491485 
L 251.196442 227.491485 
L 251.196442 226.693069 
L 251.448399 226.693069 
L 251.530462 225.096238 
L 251.574869 225.096238 
L 251.574869 224.297822 
L 251.922496 224.297822 
L 251.922496 223.499406 
L 252.605404 223.499406 
L 252.631654 221.902574 
L 252.744874 221.902574 
L 252.806678 220.305743 
L 253.099741 220.305743 
L 253.099741 219.507327 
L 253.233203 219.507327 
L 253.233203 218.708911 
L 253.597973 218.708911 
L 253.597973 217.910495 
L 253.767302 217.910495 
L 253.767302 217.112079 
L 254.065617 217.112079 
L 254.065617 216.313663 
L 254.593941 216.313663 
L 254.70376 214.716832 
L 254.955217 214.716832 
L 254.996055 211.523168 
L 255.212872 211.523168 
L 255.280998 209.926337 
L 255.778097 209.926337 
L 255.794079 208.329505 
L 256.26417 208.329505 
L 256.270623 206.732673 
L 256.388645 206.732673 
L 256.442607 204.337426 
L 256.75272 204.337426 
L 256.75272 203.53901 
L 257.171454 203.53901 
L 257.26842 201.942178 
L 257.75309 201.942178 
L 257.75309 201.143762 
L 257.994101 201.143762 
L 258.084812 199.546931 
L 258.12306 199.546931 
L 258.12306 198.748515 
L 258.294153 198.748515 
L 258.399847 196.353267 
L 258.489472 196.353267 
L 258.529537 194.756436 
L 258.613683 194.756436 
L 258.705774 193.159604 
L 258.877104 193.159604 
L 258.932315 191.562772 
L 259.133554 191.562772 
L 259.188148 189.965941 
L 259.397518 189.965941 
L 259.457121 187.570693 
L 259.573622 187.570693 
L 259.64293 185.973861 
L 259.802121 185.973861 
L 259.802121 185.175446 
L 260.030653 185.175446 
L 260.030653 184.37703 
L 260.155899 184.37703 
L 260.155899 183.578614 
L 260.340396 183.578614 
L 260.340396 182.780198 
L 260.533056 182.780198 
L 260.533056 181.981782 
L 260.724514 181.981782 
L 260.77717 180.38495 
L 260.909684 180.38495 
L 260.909684 179.586535 
L 261.057393 179.586535 
L 261.156232 177.989703 
L 261.193955 177.989703 
L 261.193955 177.191287 
L 261.498519 177.191287 
L 261.498519 176.392871 
L 261.796939 176.392871 
L 261.900527 174.79604 
L 261.921464 174.79604 
L 262.027499 172.400792 
L 262.123526 172.400792 
L 262.123526 171.602376 
L 262.304558 171.602376 
L 262.364302 170.005545 
L 262.443483 170.005545 
L 262.443483 169.207129 
L 262.606143 169.207129 
L 262.606143 168.408713 
L 262.763535 168.408713 
L 262.763535 167.610297 
L 262.913588 167.610297 
L 262.953919 166.013465 
L 263.062188 166.013465 
L 263.062188 165.21505 
L 263.458398 165.21505 
L 263.458398 164.416634 
L 263.758513 164.416634 
L 263.862355 162.021386 
L 263.984823 162.021386 
L 263.984823 161.22297 
L 264.354715 161.22297 
L 264.354715 160.424554 
L 265.018372 160.424554 
L 265.018372 159.626139 
L 265.390536 159.626139 
L 265.418114 158.029307 
L 265.527894 158.029307 
L 265.527894 157.230891 
L 265.897363 157.230891 
L 265.980727 155.634059 
L 266.167242 155.634059 
L 266.247275 142.859406 
L 266.31379 142.859406 
L 266.31379 142.06099 
L 266.497073 142.06099 
L 266.5789 139.665743 
L 266.909747 139.665743 
L 266.909747 138.867327 
L 267.11518 138.867327 
L 267.11518 138.068911 
L 267.458733 138.068911 
L 267.458733 137.270495 
L 267.656724 137.270495 
L 267.725375 135.673663 
L 268.060628 135.673663 
L 268.060628 134.875248 
L 268.345423 134.875248 
L 268.345423 134.076832 
L 268.476928 134.076832 
L 268.476928 133.278416 
L 268.787573 133.278416 
L 268.787573 132.48 
L 269.113582 132.48 
L 269.17044 130.084752 
L 269.777821 130.084752 
L 269.777821 129.286337 
L 270.570997 129.286337 
L 270.582758 127.689505 
L 270.911221 127.689505 
L 270.937268 126.092673 
L 271.335556 126.092673 
L 271.335556 125.294257 
L 271.878497 125.294257 
L 271.975648 123.697426 
L 272.464077 123.697426 
L 272.546491 122.100594 
L 272.718449 122.100594 
L 272.718449 121.302178 
L 273.141254 121.302178 
L 273.141254 120.503762 
L 273.271994 120.503762 
L 273.287368 118.906931 
L 273.567591 118.906931 
L 273.567591 118.108515 
L 274.100751 118.108515 
L 274.162328 115.713267 
L 274.291253 115.713267 
L 274.291253 114.914851 
L 274.453723 114.914851 
L 274.453723 114.116436 
L 274.895473 114.116436 
L 274.895473 113.31802 
L 275.373558 113.31802 
L 275.373558 112.519604 
L 275.733003 112.519604 
L 275.81148 110.922772 
L 275.977583 110.922772 
L 275.977583 110.124356 
L 276.491605 110.124356 
L 276.491605 109.325941 
L 277.128754 109.325941 
L 277.128754 108.527525 
L 277.410838 108.527525 
L 277.410838 107.729109 
L 279.899995 107.729109 
L 279.899995 106.930693 
L 280.033464 106.930693 
L 280.033464 106.132277 
L 280.337147 106.132277 
L 280.337147 105.333861 
L 281.99838 105.333861 
L 282.059239 102.140198 
L 282.236609 102.140198 
L 282.236609 101.341782 
L 282.70991 101.341782 
L 282.70991 100.543366 
L 283.220097 100.543366 
L 283.220097 99.74495 
L 283.547273 99.74495 
L 283.547273 98.946535 
L 284.634386 98.946535 
L 284.634386 98.148119 
L 288.483596 98.148119 
L 288.483596 97.349703 
L 288.824567 97.349703 
L 288.824567 96.551287 
L 290.407761 96.551287 
L 290.407761 95.752871 
L 291.545606 95.752871 
L 291.545606 94.954455 
L 292.073679 94.954455 
L 292.073679 94.15604 
L 292.221122 94.15604 
L 292.229165 92.559208 
L 293.529874 92.559208 
L 293.529874 91.760792 
L 294.548149 91.760792 
L 294.568801 90.16396 
L 296.111869 90.16396 
L 296.111869 89.365545 
L 298.95511 89.365545 
L 298.95511 88.567129 
L 299.338149 88.567129 
L 299.338149 87.768713 
L 301.205769 87.768713 
L 301.205769 86.970297 
L 305.340539 86.970297 
L 305.340539 86.171881 
L 306.718577 86.171881 
L 306.718577 85.373465 
L 307.686311 85.373465 
L 307.686311 84.57505 
L 309.071263 84.57505 
L 309.182115 82.978218 
L 310.539135 82.978218 
L 310.618975 79.784554 
L 310.849827 79.784554 
L 310.849827 78.986139 
L 311.021716 78.986139 
L 311.021716 78.187723 
L 311.364921 78.187723 
L 311.365507 74.994059 
L 311.799636 74.994059 
L 311.806966 72.598812 
L 312.121484 72.598812 
L 312.1263 70.203564 
L 313.566391 70.203564 
L 313.566391 69.405149 
L 318.45513 69.405149 
L 318.485973 67.808317 
L 319.960574 67.808317 
L 319.960574 67.009901 
L 321.526545 67.009901 
L 321.526545 66.211485 
L 322.316034 66.211485 
L 322.316034 65.413069 
L 324.03405 65.413069 
L 324.03405 64.614653 
L 324.270283 64.614653 
L 324.270283 63.816238 
L 325.166949 63.816238 
L 325.166949 63.017822 
L 326.101543 63.017822 
L 326.101543 62.219406 
L 327.41139 62.219406 
L 327.41139 61.42099 
L 333.499368 61.42099 
L 333.499368 60.622574 
L 335.655803 60.622574 
L 335.655803 59.824158 
L 335.992038 59.824158 
L 335.995723 58.227327 
L 339.303526 58.227327 
L 339.303526 57.428911 
L 339.993933 57.428911 
L 339.993933 56.630495 
L 341.229961 56.630495 
L 341.229961 55.832079 
L 344.117184 55.832079 
L 344.117184 55.033663 
L 345.905487 55.033663 
L 345.905487 54.235248 
L 346.731816 54.235248 
L 346.731816 53.436832 
L 348.636528 53.436832 
L 348.636528 52.638416 
L 350.006676 52.638416 
L 350.006676 51.84 
L 352.104871 51.84 
L 352.204115 50.243168 
L 356.729077 50.243168 
L 356.729077 49.444752 
L 356.873846 49.444752 
L 356.873846 48.646337 
L 357.634148 48.646337 
L 357.634148 47.847921 
L 358.467417 47.847921 
L 358.467417 47.049505 
L 359.054774 47.049505 
L 359.054774 46.251089 
L 361.53017 46.251089 
L 361.548681 44.654257 
L 361.988143 44.654257 
L 361.988143 43.855842 
L 365.335704 43.855842 
L 365.335704 43.057426 
L 370.566571 43.057426 
L 370.566571 42.25901 
L 373.628624 42.25901 
L 373.628624 41.460594 
L 377.545145 41.460594 
L 377.545145 40.662178 
L 378.126197 40.662178 
L 378.126197 39.863762 
L 379.345268 39.863762 
L 379.345268 39.065347 
L 380.400733 39.065347 
L 380.400733 38.266931 
L 381.177323 38.266931 
L 381.177323 37.468515 
L 383.867199 37.468515 
L 383.867199 36.670099 
L 385.668113 36.670099 
L 385.668113 35.871683 
L 386.040843 35.871683 
L 386.040843 35.073267 
L 386.847286 35.073267 
L 386.847286 34.274851 
L 389.056289 34.274851 
L 389.056289 33.476436 
L 389.456131 33.476436 
L 389.456131 32.67802 
L 389.867778 32.67802 
L 389.867778 31.879604 
L 390.836467 31.879604 
L 390.836467 31.081188 
L 391.131552 31.081188 
L 391.131552 30.282772 
L 391.713764 30.282772 
L 391.713764 29.484356 
L 392.605174 29.484356 
L 392.605174 28.685941 
L 392.881101 28.685941 
L 392.881101 27.887525 
L 393.901368 27.887525 
L 393.901368 27.089109 
L 394.983286 27.089109 
L 394.983286 26.290693 
L 395.591335 26.290693 
L 395.591335 25.492277 
L 395.96126 25.492277 
L 396.01093 23.895446 
L 396.452821 23.895446 
L 396.452821 23.09703 
L 396.701115 23.09703 
L 396.789044 21.500198 
L 398.959326 21.500198 
L 398.959326 20.701782 
L 399.755952 20.701782 
L 399.755952 19.903366 
L 400.590686 19.903366 
L 400.590686 19.10495 
L 400.781101 19.10495 
L 400.781101 18.306535 
L 402.397219 18.306535 
L 402.397219 17.508119 
L 403.787838 17.508119 
L 403.787838 16.709703 
L 404.958686 16.709703 
L 404.958686 15.911287 
L 406.341659 15.911287 
L 406.341659 15.112871 
L 407.030294 15.112871 
L 407.030294 14.314455 
L 408.233453 14.314455 
L 408.233453 13.51604 
L 411.480552 13.51604 
L 411.480552 12.717624 
L 413.806182 12.717624 
L 413.806182 11.919208 
L 417.598973 11.919208 
L 417.59972 10.322376 
L 417.858178 10.322376 
L 417.858178 9.52396 
L 418.335333 9.52396 
L 418.335333 8.725545 
L 428.536165 8.725545 
L 428.536165 7.927129 
L 429.219769 7.927129 
L 429.219769 7.128713 
L 436.416549 7.128713 
L 436.416549 6.330297 
L 436.416549 6.330297 
L 460.8 6.330297 
L 460.8 6.330297 
" style="fill:none;stroke:#00bfbf;stroke-linecap:square;stroke-width:1.5;"/>
   </g>
   <g id="line2d_26">
    <path clip-path="url(#p9745ce52c9)" d="M -0.114784 293.76 
L -0.114784 286.574257 
L 145.491471 286.574257 
L 145.491471 285.775842 
L 151.942742 285.775842 
L 151.942742 284.977426 
L 164.182956 284.977426 
L 164.182956 284.17901 
L 164.467997 284.17901 
L 164.486188 272.202772 
L 169.648833 272.202772 
L 169.648833 271.404356 
L 170.149057 271.404356 
L 170.149057 270.605941 
L 175.511236 270.605941 
L 175.511236 269.807525 
L 185.549422 269.807525 
L 185.549422 269.009109 
L 187.56396 269.009109 
L 187.56396 268.210693 
L 195.905553 268.210693 
L 195.905553 267.412277 
L 199.577475 267.412277 
L 199.577475 266.613861 
L 200.905026 266.613861 
L 200.905026 265.815446 
L 204.885662 265.815446 
L 204.885662 265.01703 
L 206.873285 265.01703 
L 206.873285 264.218614 
L 207.168523 264.218614 
L 207.168523 263.420198 
L 207.735437 263.420198 
L 207.735437 262.621782 
L 207.87187 262.621782 
L 207.87187 261.823366 
L 208.069723 261.823366 
L 208.156657 260.226535 
L 210.629614 260.226535 
L 210.629614 259.428119 
L 211.712185 259.428119 
L 211.712185 258.629703 
L 213.016191 258.629703 
L 213.016191 257.831287 
L 214.208253 257.831287 
L 214.208253 257.032871 
L 214.661359 257.032871 
L 214.661359 256.234455 
L 215.145506 256.234455 
L 215.222365 254.637624 
L 215.822839 254.637624 
L 215.822839 253.839208 
L 216.236303 253.839208 
L 216.236303 253.040792 
L 216.437777 253.040792 
L 216.437777 251.44396 
L 217.4544 251.44396 
L 217.4544 250.645545 
L 217.819722 250.645545 
L 217.819722 249.847129 
L 218.728347 249.847129 
L 218.728347 249.048713 
L 219.17838 249.048713 
L 219.17838 248.250297 
L 219.95843 248.250297 
L 219.95843 247.451881 
L 220.430586 247.451881 
L 220.430586 246.653465 
L 221.038329 246.653465 
L 221.038329 245.85505 
L 221.450375 245.85505 
L 221.450375 245.056634 
L 221.694361 245.056634 
L 221.694361 244.258218 
L 222.095765 244.258218 
L 222.110026 242.661386 
L 222.878493 242.661386 
L 222.878493 241.86297 
L 223.163759 241.86297 
L 223.163759 241.064554 
L 223.460399 241.064554 
L 223.460399 240.266139 
L 223.627264 240.266139 
L 223.627264 239.467723 
L 223.798284 239.467723 
L 223.798284 238.669307 
L 224.299784 238.669307 
L 224.299784 237.870891 
L 224.424609 237.870891 
L 224.424609 237.072475 
L 224.779751 237.072475 
L 224.779751 236.274059 
L 224.965908 236.274059 
L 224.965908 235.475644 
L 225.495232 235.475644 
L 225.539957 233.080396 
L 225.788507 233.080396 
L 225.788507 232.28198 
L 226.209571 232.28198 
L 226.24149 229.886733 
L 226.382697 229.886733 
L 226.382697 229.088317 
L 226.675776 229.088317 
L 226.675776 228.289901 
L 227.050593 228.289901 
L 227.115304 225.096238 
L 227.23236 225.096238 
L 227.23236 224.297822 
L 227.385471 224.297822 
L 227.385471 223.499406 
L 227.500266 223.499406 
L 227.500266 221.902574 
L 227.771716 221.902574 
L 227.771716 221.104158 
L 228.307549 221.104158 
L 228.307549 220.305743 
L 228.787043 220.305743 
L 228.787043 219.507327 
L 228.991805 219.507327 
L 228.991805 218.708911 
L 229.431272 218.708911 
L 229.453673 217.112079 
L 230.04008 217.112079 
L 230.04008 216.313663 
L 230.270958 216.313663 
L 230.270958 215.515248 
L 231.562351 215.515248 
L 231.562351 214.716832 
L 231.995679 214.716832 
L 231.995679 213.918416 
L 233.06506 213.918416 
L 233.06506 213.12 
L 234.012458 213.12 
L 234.033598 211.523168 
L 234.515521 211.523168 
L 234.569344 209.926337 
L 234.781399 209.926337 
L 234.781399 209.127921 
L 234.93806 209.127921 
L 234.93806 208.329505 
L 235.135618 208.329505 
L 235.135618 207.531089 
L 235.301711 207.531089 
L 235.312938 205.934257 
L 235.600768 205.934257 
L 235.600768 205.135842 
L 236.260623 205.135842 
L 236.260623 204.337426 
L 237.012513 204.337426 
L 237.012513 203.53901 
L 237.221207 203.53901 
L 237.278398 201.143762 
L 237.756599 201.143762 
L 237.857128 197.950099 
L 238.024638 197.950099 
L 238.024638 197.151683 
L 238.289017 197.151683 
L 238.289017 196.353267 
L 238.662082 196.353267 
L 238.662082 195.554851 
L 239.323967 195.554851 
L 239.323967 194.756436 
L 239.469245 194.756436 
L 239.469245 193.95802 
L 240.178491 193.95802 
L 240.254221 192.361188 
L 240.310484 192.361188 
L 240.310484 191.562772 
L 240.670577 191.562772 
L 240.670577 190.764356 
L 240.875494 190.764356 
L 240.875494 189.965941 
L 241.114458 189.965941 
L 241.114458 189.167525 
L 241.312714 189.167525 
L 241.358395 187.570693 
L 241.608628 187.570693 
L 241.608628 186.772277 
L 242.071096 186.772277 
L 242.166993 185.175446 
L 242.281547 185.175446 
L 242.281547 184.37703 
L 242.632664 184.37703 
L 242.646623 182.780198 
L 242.871398 182.780198 
L 242.950335 181.183366 
L 243.127252 181.183366 
L 243.127252 180.38495 
L 243.676438 180.38495 
L 243.676438 179.586535 
L 244.539993 179.586535 
L 244.539993 178.788119 
L 245.032414 178.788119 
L 245.058718 177.191287 
L 245.233838 177.191287 
L 245.299345 175.594455 
L 245.466655 175.594455 
L 245.466655 174.79604 
L 245.61867 174.79604 
L 245.61867 173.997624 
L 246.148195 173.997624 
L 246.177953 172.400792 
L 246.272563 172.400792 
L 246.365749 170.005545 
L 246.964623 170.005545 
L 246.964623 169.207129 
L 247.237899 169.207129 
L 247.237899 168.408713 
L 247.451183 168.408713 
L 247.503318 166.811881 
L 247.710278 166.811881 
L 247.795408 165.21505 
L 248.05112 165.21505 
L 248.05112 164.416634 
L 248.397148 164.416634 
L 248.459356 162.819802 
L 248.816899 162.819802 
L 248.859367 161.22297 
L 248.987813 161.22297 
L 248.987813 160.424554 
L 249.121149 160.424554 
L 249.121149 159.626139 
L 249.628176 159.626139 
L 249.628176 158.827723 
L 249.926181 158.827723 
L 249.926181 158.029307 
L 250.502849 158.029307 
L 250.541521 156.432475 
L 251.477662 156.432475 
L 251.534246 154.835644 
L 251.629179 154.835644 
L 251.646844 153.238812 
L 251.754937 153.238812 
L 251.770444 151.64198 
L 251.8721 151.64198 
L 251.970238 144.456238 
L 251.999545 144.456238 
L 252.088413 142.06099 
L 252.115286 142.06099 
L 252.115286 141.262574 
L 252.605404 141.262574 
L 252.605404 140.464158 
L 253.003926 140.464158 
L 253.021553 138.867327 
L 253.365894 138.867327 
L 253.433611 137.270495 
L 253.688253 137.270495 
L 253.688253 136.472079 
L 253.842868 136.472079 
L 253.842868 135.673663 
L 254.066219 135.673663 
L 254.135111 134.076832 
L 254.535169 134.076832 
L 254.592314 132.48 
L 254.675207 132.48 
L 254.730836 130.883168 
L 254.971264 130.883168 
L 254.996055 129.286337 
L 255.092378 129.286337 
L 255.092378 128.487921 
L 255.252761 128.487921 
L 255.252761 127.689505 
L 255.828303 127.689505 
L 255.869927 126.092673 
L 255.951604 126.092673 
L 255.97416 124.495842 
L 256.097179 124.495842 
L 256.097179 123.697426 
L 256.274377 123.697426 
L 256.274377 122.89901 
L 256.42101 122.89901 
L 256.525736 120.503762 
L 257.153637 120.503762 
L 257.153637 119.705347 
L 257.864295 119.705347 
L 257.864295 118.906931 
L 258.553847 118.906931 
L 258.553847 118.108515 
L 258.837778 118.108515 
L 258.837778 117.310099 
L 259.163538 117.310099 
L 259.250829 114.914851 
L 259.371405 114.914851 
L 259.371405 114.116436 
L 259.693002 114.116436 
L 259.693002 113.31802 
L 259.927178 113.31802 
L 259.994364 111.721188 
L 260.202983 111.721188 
L 260.202983 110.922772 
L 260.643322 110.922772 
L 260.643322 110.124356 
L 261.048276 110.124356 
L 261.048276 109.325941 
L 261.165862 109.325941 
L 261.187614 106.132277 
L 261.621961 106.132277 
L 261.621961 105.333861 
L 262.57913 105.333861 
L 262.57913 104.535446 
L 262.743289 104.535446 
L 262.791213 102.938614 
L 263.157046 102.938614 
L 263.157046 102.140198 
L 263.458398 102.140198 
L 263.458398 101.341782 
L 263.770551 101.341782 
L 263.814111 98.946535 
L 264.097949 98.946535 
L 264.195114 97.349703 
L 264.690491 97.349703 
L 264.690491 96.551287 
L 264.81325 96.551287 
L 264.81325 95.752871 
L 265.008475 95.752871 
L 265.008475 94.954455 
L 265.379582 94.954455 
L 265.457907 91.760792 
L 265.703825 91.760792 
L 265.801988 90.16396 
L 265.881114 90.16396 
L 265.881114 89.365545 
L 265.997757 89.365545 
L 265.997757 88.567129 
L 266.483257 88.567129 
L 266.483257 87.768713 
L 266.886009 87.768713 
L 266.886009 86.970297 
L 267.263057 86.970297 
L 267.263057 86.171881 
L 267.423941 86.171881 
L 267.52131 84.57505 
L 268.310986 84.57505 
L 268.310986 83.776634 
L 268.908274 83.776634 
L 268.992049 82.179802 
L 269.106082 82.179802 
L 269.216043 78.986139 
L 269.411139 78.986139 
L 269.411139 78.187723 
L 269.700778 78.187723 
L 269.700778 77.389307 
L 269.861331 77.389307 
L 269.896707 74.195644 
L 270.376871 74.195644 
L 270.376871 73.397228 
L 270.570997 73.397228 
L 270.640772 71.800396 
L 270.890989 71.800396 
L 270.890989 71.00198 
L 271.012165 71.00198 
L 271.059313 69.405149 
L 271.415525 69.405149 
L 271.415525 68.606733 
L 271.794028 68.606733 
L 271.794028 67.808317 
L 272.118666 67.808317 
L 272.118666 67.009901 
L 272.476252 67.009901 
L 272.546491 64.614653 
L 272.889306 64.614653 
L 272.953283 63.017822 
L 273.251304 63.017822 
L 273.311607 60.622574 
L 273.564769 60.622574 
L 273.567591 59.025743 
L 273.894476 59.025743 
L 273.89705 57.428911 
L 274.155306 57.428911 
L 274.155306 56.630495 
L 275.230785 56.630495 
L 275.230785 55.832079 
L 275.405918 55.832079 
L 275.405918 55.033663 
L 275.972946 55.033663 
L 275.972946 54.235248 
L 276.903401 54.235248 
L 276.903401 53.436832 
L 277.128754 53.436832 
L 277.128754 52.638416 
L 277.241728 52.638416 
L 277.241728 51.84 
L 277.410838 51.84 
L 277.410838 51.041584 
L 277.852237 51.041584 
L 277.916807 49.444752 
L 278.876223 49.444752 
L 278.986362 47.847921 
L 279.134219 47.847921 
L 279.134219 47.049505 
L 279.524771 47.049505 
L 279.598861 45.452673 
L 280.429509 45.452673 
L 280.429509 44.654257 
L 280.673513 44.654257 
L 280.711163 43.057426 
L 280.792075 43.057426 
L 280.792075 42.25901 
L 280.961482 42.25901 
L 280.992203 40.662178 
L 281.844742 40.662178 
L 281.844742 39.863762 
L 282.017389 39.863762 
L 282.017389 39.065347 
L 282.513739 39.065347 
L 282.547442 37.468515 
L 282.921949 37.468515 
L 282.921949 36.670099 
L 283.220097 36.670099 
L 283.220097 35.871683 
L 283.447872 35.871683 
L 283.447872 35.073267 
L 284.64032 35.073267 
L 284.64032 34.274851 
L 286.047843 34.274851 
L 286.047843 33.476436 
L 287.513019 33.476436 
L 287.513019 32.67802 
L 287.955194 32.67802 
L 287.955194 31.879604 
L 288.483596 31.879604 
L 288.483596 31.081188 
L 289.206779 31.081188 
L 289.206779 30.282772 
L 298.571729 30.282772 
L 298.571729 29.484356 
L 300.696751 29.484356 
L 300.696751 28.685941 
L 303.551532 28.685941 
L 303.551532 27.887525 
L 303.812908 27.887525 
L 303.812908 27.089109 
L 310.025543 27.089109 
L 310.025543 26.290693 
L 313.649144 26.290693 
L 313.649144 25.492277 
L 314.518289 25.492277 
L 314.518289 24.693861 
L 315.347049 24.693861 
L 315.347049 23.895446 
L 318.312183 23.895446 
L 318.312183 23.09703 
L 320.629104 23.09703 
L 320.629104 22.298614 
L 321.02622 22.298614 
L 321.02622 21.500198 
L 325.062441 21.500198 
L 325.149763 19.10495 
L 325.303227 19.10495 
L 325.303227 18.306535 
L 326.364867 18.306535 
L 326.364867 17.508119 
L 327.330428 17.508119 
L 327.330428 16.709703 
L 328.116411 16.709703 
L 328.116411 15.911287 
L 336.368279 15.911287 
L 336.368279 15.112871 
L 337.217649 15.112871 
L 337.217649 14.314455 
L 350.14415 14.314455 
L 350.14415 13.51604 
L 352.747225 13.51604 
L 352.747225 12.717624 
L 363.8528 12.717624 
L 363.8528 11.919208 
L 367.273354 11.919208 
L 367.273354 11.120792 
L 367.738194 11.120792 
L 367.738194 10.322376 
L 377.365881 10.322376 
L 377.365881 9.52396 
L 381.567952 9.52396 
L 381.567952 8.725545 
L 384.681823 8.725545 
L 384.681823 7.927129 
L 390.360313 7.927129 
L 390.360313 7.128713 
L 397.344842 7.128713 
L 397.344842 6.330297 
L 397.344842 6.330297 
L 460.8 6.330297 
L 460.8 6.330297 
" style="fill:none;stroke:#bf00bf;stroke-linecap:square;stroke-width:1.5;"/>
   </g>
   <g id="patch_3">
    <path d="M 0 293.76 
L 0 3.456 
" style="fill:none;stroke:#000000;stroke-linecap:square;stroke-linejoin:miter;stroke-width:0.8;"/>
   </g>
   <g id="patch_4">
    <path d="M 460.8 293.76 
L 460.8 3.456 
" style="fill:none;stroke:#000000;stroke-linecap:square;stroke-linejoin:miter;stroke-width:0.8;"/>
   </g>
   <g id="patch_5">
    <path d="M 0 293.76 
L 460.8 293.76 
" style="fill:none;stroke:#000000;stroke-linecap:square;stroke-linejoin:miter;stroke-width:0.8;"/>
   </g>
   <g id="patch_6">
    <path d="M 0 3.456 
L 460.8 3.456 
" style="fill:none;stroke:#000000;stroke-linecap:square;stroke-linejoin:miter;stroke-width:0.8;"/>
   </g>
   <g id="text_6">
    <!-- {f1-f24}, 5-D -->
    <g transform="translate(318.609 287.95392)scale(0.2 -0.2)">
     <defs>
      <path d="M 51.125 -9.28125 
L 51.125 -16.3125 
L 48.09375 -16.3125 
Q 35.9375 -16.3125 31.8125 -12.6875 
Q 27.6875 -9.078125 27.6875 1.703125 
L 27.6875 13.375 
Q 27.6875 20.75 25.046875 23.578125 
Q 22.40625 26.421875 15.484375 26.421875 
L 12.5 26.421875 
L 12.5 33.40625 
L 15.484375 33.40625 
Q 22.46875 33.40625 25.078125 36.203125 
Q 27.6875 39.015625 27.6875 46.296875 
L 27.6875 58.015625 
Q 27.6875 68.796875 31.8125 72.390625 
Q 35.9375 75.984375 48.09375 75.984375 
L 51.125 75.984375 
L 51.125 69 
L 47.796875 69 
Q 40.921875 69 38.8125 66.84375 
Q 36.71875 64.703125 36.71875 57.8125 
L 36.71875 45.703125 
Q 36.71875 38.03125 34.5 34.5625 
Q 32.28125 31.109375 26.90625 29.890625 
Q 32.328125 28.5625 34.515625 25.09375 
Q 36.71875 21.625 36.71875 14.015625 
L 36.71875 1.90625 
Q 36.71875 -4.984375 38.8125 -7.125 
Q 40.921875 -9.28125 47.796875 -9.28125 
z
" id="DejaVuSans-123"/>
      <path d="M 19.1875 8.296875 
L 53.609375 8.296875 
L 53.609375 0 
L 7.328125 0 
L 7.328125 8.296875 
Q 12.9375 14.109375 22.625 23.890625 
Q 32.328125 33.6875 34.8125 36.53125 
Q 39.546875 41.84375 41.421875 45.53125 
Q 43.3125 49.21875 43.3125 52.78125 
Q 43.3125 58.59375 39.234375 62.25 
Q 35.15625 65.921875 28.609375 65.921875 
Q 23.96875 65.921875 18.8125 64.3125 
Q 13.671875 62.703125 7.8125 59.421875 
L 7.8125 69.390625 
Q 13.765625 71.78125 18.9375 73 
Q 24.125 74.21875 28.421875 74.21875 
Q 39.75 74.21875 46.484375 68.546875 
Q 53.21875 62.890625 53.21875 53.421875 
Q 53.21875 48.921875 51.53125 44.890625 
Q 49.859375 40.875 45.40625 35.40625 
Q 44.1875 33.984375 37.640625 27.21875 
Q 31.109375 20.453125 19.1875 8.296875 
z
" id="DejaVuSans-50"/>
      <path d="M 12.5 -9.28125 
L 15.921875 -9.28125 
Q 22.75 -9.28125 24.828125 -7.171875 
Q 26.90625 -5.078125 26.90625 1.90625 
L 26.90625 14.015625 
Q 26.90625 21.625 29.09375 25.09375 
Q 31.296875 28.5625 36.71875 29.890625 
Q 31.296875 31.109375 29.09375 34.5625 
Q 26.90625 38.03125 26.90625 45.703125 
L 26.90625 57.8125 
Q 26.90625 64.75 24.828125 66.875 
Q 22.75 69 15.921875 69 
L 12.5 69 
L 12.5 75.984375 
L 15.578125 75.984375 
Q 27.734375 75.984375 31.8125 72.390625 
Q 35.890625 68.796875 35.890625 58.015625 
L 35.890625 46.296875 
Q 35.890625 39.015625 38.515625 36.203125 
Q 41.15625 33.40625 48.09375 33.40625 
L 51.125 33.40625 
L 51.125 26.421875 
L 48.09375 26.421875 
Q 41.15625 26.421875 38.515625 23.578125 
Q 35.890625 20.75 35.890625 13.375 
L 35.890625 1.703125 
Q 35.890625 -9.078125 31.8125 -12.6875 
Q 27.734375 -16.3125 15.578125 -16.3125 
L 12.5 -16.3125 
z
" id="DejaVuSans-125"/>
      <path d="M 11.71875 12.40625 
L 22.015625 12.40625 
L 22.015625 4 
L 14.015625 -11.625 
L 7.71875 -11.625 
L 11.71875 4 
z
" id="DejaVuSans-44"/>
      <path d="M 10.796875 72.90625 
L 49.515625 72.90625 
L 49.515625 64.59375 
L 19.828125 64.59375 
L 19.828125 46.734375 
Q 21.96875 47.46875 24.109375 47.828125 
Q 26.265625 48.1875 28.421875 48.1875 
Q 40.625 48.1875 47.75 41.5 
Q 54.890625 34.8125 54.890625 23.390625 
Q 54.890625 11.625 47.5625 5.09375 
Q 40.234375 -1.421875 26.90625 -1.421875 
Q 22.3125 -1.421875 17.546875 -0.640625 
Q 12.796875 0.140625 7.71875 1.703125 
L 7.71875 11.625 
Q 12.109375 9.234375 16.796875 8.0625 
Q 21.484375 6.890625 26.703125 6.890625 
Q 35.15625 6.890625 40.078125 11.328125 
Q 45.015625 15.765625 45.015625 23.390625 
Q 45.015625 31 40.078125 35.4375 
Q 35.15625 39.890625 26.703125 39.890625 
Q 22.75 39.890625 18.8125 39.015625 
Q 14.890625 38.140625 10.796875 36.28125 
z
" id="DejaVuSans-53"/>
     </defs>
     <use xlink:href="#DejaVuSans-123"/>
     <use x="63.623047" xlink:href="#DejaVuSans-102"/>
     <use x="98.828125" xlink:href="#DejaVuSans-49"/>
     <use x="162.451172" xlink:href="#DejaVuSans-45"/>
     <use x="198.535156" xlink:href="#DejaVuSans-102"/>
     <use x="233.740234" xlink:href="#DejaVuSans-50"/>
     <use x="297.363281" xlink:href="#DejaVuSans-52"/>
     <use x="360.986328" xlink:href="#DejaVuSans-125"/>
     <use x="424.609375" xlink:href="#DejaVuSans-44"/>
     <use x="456.396484" xlink:href="#DejaVuSans-32"/>
     <use x="488.183594" xlink:href="#DejaVuSans-53"/>
     <use x="551.806641" xlink:href="#DejaVuSans-45"/>
     <use x="587.890625" xlink:href="#DejaVuSans-68"/>
    </g>
   </g>
   <g id="text_7">
    <!-- v2.4 -->
    <g style="fill:#808080;" transform="translate(219.489063 288.777272)scale(0.1 -0.1)">
     <defs>
      <path d="M 2.984375 54.6875 
L 12.5 54.6875 
L 29.59375 8.796875 
L 46.6875 54.6875 
L 56.203125 54.6875 
L 35.6875 0 
L 23.484375 0 
z
" id="DejaVuSans-118"/>
      <path d="M 10.6875 12.40625 
L 21 12.40625 
L 21 0 
L 10.6875 0 
z
" id="DejaVuSans-46"/>
     </defs>
     <use xlink:href="#DejaVuSans-118"/>
     <use x="59.179688" xlink:href="#DejaVuSans-50"/>
     <use x="122.802734" xlink:href="#DejaVuSans-46"/>
     <use x="154.589844" xlink:href="#DejaVuSans-52"/>
    </g>
   </g>
  </g>
 </g>
 <defs>
  <clipPath id="p9745ce52c9">
   <rect height="290.304" width="460.8" x="0" y="3.456"/>
  </clipPath>
 </defs>
</svg>
