<?xml version="1.0" encoding="utf-8" standalone="no"?>
<!DOCTYPE svg PUBLIC "-//W3C//DTD SVG 1.1//EN"
  "http://www.w3.org/Graphics/SVG/1.1/DTD/svg11.dtd">
<!-- Created with matplotlib (https://matplotlib.org/) -->
<svg height="345.6pt" version="1.1" viewBox="0 0 460.8 345.6" width="460.8pt" xmlns="http://www.w3.org/2000/svg" xmlns:xlink="http://www.w3.org/1999/xlink">
 <metadata>
  <rdf:RDF xmlns:cc="http://creativecommons.org/ns#" xmlns:dc="http://purl.org/dc/elements/1.1/" xmlns:rdf="http://www.w3.org/1999/02/22-rdf-syntax-ns#">
   <cc:Work>
    <dc:type rdf:resource="http://purl.org/dc/dcmitype/StillImage"/>
    <dc:date>2021-08-04T10:25:53.609875</dc:date>
    <dc:format>image/svg+xml</dc:format>
    <dc:creator>
     <cc:Agent>
      <dc:title>Matplotlib v3.3.1, https://matplotlib.org/</dc:title>
     </cc:Agent>
    </dc:creator>
   </cc:Work>
  </rdf:RDF>
 </metadata>
 <defs>
  <style type="text/css">*{stroke-linecap:butt;stroke-linejoin:round;}</style>
 </defs>
 <g id="figure_1">
  <g id="patch_1">
   <path d="M 0 345.6 
L 460.8 345.6 
L 460.8 0 
L 0 0 
z
" style="fill:#ffffff;"/>
  </g>
  <g id="axes_1">
   <g id="patch_2">
    <path d="M 62.208 293.76 
L 460.8 293.76 
L 460.8 3.456 
L 62.208 3.456 
z
" style="fill:#ffffff;"/>
   </g>
   <g id="line2d_1">
    <path clip-path="url(#p5c0ed59016)" d="M 375.490073 293.76 
L 375.490073 289.927604 
L 375.490073 289.927604 
L 375.490073 286.095208 
L 375.955807 286.095208 
L 375.955807 282.262812 
L 375.955807 282.262812 
L 375.955807 278.430416 
L 375.955807 278.430416 
L 375.955807 274.59802 
L 376.187596 274.59802 
L 376.187596 270.765624 
L 376.187596 270.765624 
L 376.187596 266.933228 
L 376.878711 266.933228 
L 376.878711 263.100832 
L 378.914749 263.100832 
L 378.914749 259.268436 
L 378.914749 259.268436 
L 378.914749 255.43604 
L 380.24212 255.43604 
L 380.24212 251.603644 
L 380.897124 251.603644 
L 380.897124 247.771248 
L 383.251151 247.771248 
L 383.251151 243.938851 
L 385.941409 243.938851 
L 385.941409 240.106455 
L 388.144957 240.106455 
L 388.144957 236.274059 
L 404.889369 236.274059 
L 404.889369 232.441663 
L 406.607768 232.441663 
L 406.607768 228.609267 
L 407.069687 228.609267 
L 407.069687 224.776871 
L 407.069687 224.776871 
L 407.069687 220.944475 
L 407.376066 220.944475 
L 407.376066 217.112079 
L 408.136595 217.112079 
L 408.136595 213.279683 
L 408.287783 213.279683 
L 408.287783 209.447287 
L 409.188581 209.447287 
L 409.188581 205.614891 
L 409.188581 205.614891 
L 409.188581 201.782495 
L 410.226055 201.782495 
L 410.226055 197.950099 
L 410.666344 197.950099 
L 410.666344 194.117703 
L 410.666344 194.117703 
L 410.666344 190.285307 
L 411.68377 190.285307 
L 411.68377 186.452911 
L 430.152213 186.452911 
L 430.152213 182.620515 
L 430.602608 182.620515 
L 430.602608 178.788119 
L 441.552915 178.788119 
L 441.552915 174.955723 
L 442.994794 174.955723 
L 442.994794 171.123327 
L 446.255429 171.123327 
L 446.255429 167.290931 
L 448.14605 167.290931 
L 448.14605 163.458535 
L 449.205444 163.458535 
L 449.205444 159.626139 
L 449.380568 159.626139 
L 449.380568 155.793743 
L 450.852886 155.793743 
L 450.852886 151.961347 
L 456.230682 151.961347 
L 456.230682 148.12895 
L 461.8 148.12895 
" style="fill:none;stroke:#f5deb3;stroke-linecap:square;stroke-width:1.5;"/>
   </g>
   <g id="line2d_2">
    <path clip-path="url(#p5c0ed59016)" d="M 308.416472 293.76 
L 308.416472 282.262812 
L 308.416472 282.262812 
L 308.416472 270.765624 
L 308.98414 270.765624 
L 308.98414 259.268436 
L 308.98414 259.268436 
L 308.98414 247.771248 
L 308.98414 247.771248 
L 308.98414 236.274059 
L 461.8 236.274059 
" style="fill:none;stroke:#f5deb3;stroke-linecap:square;stroke-width:1.5;"/>
   </g>
   <g id="line2d_3">
    <path clip-path="url(#p5c0ed59016)" d="M 173.647971 293.76 
L 173.647971 289.927604 
L 173.647971 289.927604 
L 173.647971 286.095208 
L 173.647971 286.095208 
L 173.647971 282.262812 
L 173.647971 282.262812 
L 173.647971 278.430416 
L 173.647971 278.430416 
L 173.647971 274.59802 
L 173.647971 274.59802 
L 173.647971 270.765624 
L 173.647971 270.765624 
L 173.647971 266.933228 
L 173.647971 266.933228 
L 173.647971 263.100832 
L 173.647971 263.100832 
L 173.647971 259.268436 
L 173.647971 259.268436 
L 173.647971 255.43604 
L 173.647971 255.43604 
L 173.647971 251.603644 
L 173.647971 251.603644 
L 173.647971 247.771248 
L 173.647971 247.771248 
L 173.647971 243.938851 
L 173.647971 243.938851 
L 173.647971 240.106455 
L 173.647971 240.106455 
L 173.647971 236.274059 
L 173.647971 236.274059 
L 173.647971 232.441663 
L 173.647971 232.441663 
L 173.647971 228.609267 
L 173.647971 228.609267 
L 173.647971 224.776871 
L 173.647971 224.776871 
L 173.647971 220.944475 
L 176.991443 220.944475 
L 176.991443 217.112079 
L 176.991443 217.112079 
L 176.991443 213.279683 
L 176.991443 213.279683 
L 176.991443 209.447287 
L 180.192595 209.447287 
L 180.192595 205.614891 
L 180.192595 205.614891 
L 180.192595 201.782495 
L 183.263052 201.782495 
L 183.263052 197.950099 
L 183.263052 197.950099 
L 183.263052 194.117703 
L 183.263052 194.117703 
L 183.263052 190.285307 
L 186.213066 190.285307 
L 186.213066 186.452911 
L 189.051733 186.452911 
L 189.051733 182.620515 
L 201.830813 182.620515 
L 201.830813 178.788119 
L 461.8 178.788119 
" style="fill:none;stroke:#f5deb3;stroke-linecap:square;stroke-width:1.5;"/>
   </g>
   <g id="line2d_4">
    <path clip-path="url(#p5c0ed59016)" d="M 128.057022 293.76 
L 128.057022 289.927604 
L 158.554377 289.927604 
L 158.554377 286.095208 
L 176.991443 286.095208 
L 176.991443 282.262812 
L 180.192595 282.262812 
L 180.192595 278.430416 
L 189.051733 278.430416 
L 189.051733 274.59802 
L 196.976501 274.59802 
L 196.976501 270.765624 
L 201.830813 270.765624 
L 201.830813 266.933228 
L 204.145326 266.933228 
L 204.145326 263.100832 
L 204.145326 263.100832 
L 204.145326 259.268436 
L 204.145326 259.268436 
L 204.145326 255.43604 
L 210.68995 255.43604 
L 210.68995 251.603644 
L 216.710421 251.603644 
L 216.710421 247.771248 
L 218.614719 247.771248 
L 218.614719 243.938851 
L 224.05437 243.938851 
L 224.05437 240.106455 
L 235.398624 240.106455 
L 235.398624 236.274059 
L 388.342115 236.274059 
L 388.342115 232.441663 
L 392.553765 232.441663 
L 392.553765 228.609267 
L 395.116106 228.609267 
L 395.116106 224.776871 
L 396.010477 224.776871 
L 396.010477 220.944475 
L 396.188082 220.944475 
L 396.188082 217.112079 
L 396.718395 217.112079 
L 396.718395 213.279683 
L 397.069871 213.279683 
L 397.069871 209.447287 
L 398.114551 209.447287 
L 398.114551 205.614891 
L 398.459577 205.614891 
L 398.459577 201.782495 
L 399.144919 201.782495 
L 399.144919 197.950099 
L 400.831441 197.950099 
L 400.831441 194.117703 
L 404.57267 194.117703 
L 404.57267 190.285307 
L 404.889369 190.285307 
L 404.889369 186.452911 
L 406.142993 186.452911 
L 406.142993 182.620515 
L 410.226055 182.620515 
L 410.226055 178.788119 
L 461.8 178.788119 
" style="fill:none;stroke:#f5deb3;stroke-linecap:square;stroke-width:1.5;"/>
   </g>
   <g id="line2d_5">
    <path clip-path="url(#p5c0ed59016)" d="M 397.244995 293.76 
L 397.244995 289.927604 
L 414.238512 289.927604 
L 414.238512 286.095208 
L 416.709324 286.095208 
L 416.709324 282.262812 
L 420.140813 282.262812 
L 420.140813 278.430416 
L 422.05156 278.430416 
L 422.05156 274.59802 
L 432.377693 274.59802 
L 432.377693 270.765624 
L 443.089943 270.765624 
L 443.089943 266.933228 
L 443.184973 266.933228 
L 443.184973 263.100832 
L 445.88986 263.100832 
L 445.88986 259.268436 
L 450.077015 259.268436 
L 450.077015 255.43604 
L 461.8 255.43604 
" style="fill:none;stroke:#f5deb3;stroke-linecap:square;stroke-width:1.5;"/>
   </g>
   <g id="line2d_6"/>
   <g id="line2d_7">
    <path clip-path="url(#p5c0ed59016)" d="M 303.10492 293.76 
L 303.10492 289.927604 
L 305.512029 289.927604 
L 305.512029 286.095208 
L 311.212918 286.095208 
L 311.212918 282.262812 
L 313.909111 282.262812 
L 313.909111 278.430416 
L 315.481622 278.430416 
L 315.481622 274.59802 
L 319.027802 274.59802 
L 319.027802 266.933228 
L 320.011028 266.933228 
L 320.011028 263.100832 
L 320.497863 263.100832 
L 320.497863 259.268436 
L 321.462181 259.268436 
L 321.462181 255.43604 
L 324.283101 255.43604 
L 324.283101 251.603644 
L 326.106602 251.603644 
L 326.106602 247.771248 
L 326.555653 247.771248 
L 326.555653 243.938851 
L 327.886939 243.938851 
L 327.886939 240.106455 
L 332.988266 240.106455 
L 332.988266 236.274059 
L 443.846838 236.274059 
L 443.846838 232.441663 
L 444.316058 232.441663 
L 444.316058 228.609267 
L 445.245807 228.609267 
L 445.245807 224.776871 
L 445.706407 224.776871 
L 445.706407 220.944475 
L 446.61923 220.944475 
L 446.61923 217.112079 
L 447.341596 217.112079 
L 447.341596 213.279683 
L 448.05709 213.279683 
L 448.05709 209.447287 
L 448.765841 209.447287 
L 448.765841 205.614891 
L 449.380568 205.614891 
L 449.380568 201.782495 
L 449.642492 201.782495 
L 449.642492 197.950099 
L 452.04411 197.950099 
L 452.04411 194.117703 
L 452.465016 194.117703 
L 452.465016 190.285307 
L 453.216762 190.285307 
L 453.216762 186.452911 
L 455.990759 186.452911 
L 455.990759 182.620515 
L 457.810902 182.620515 
L 457.810902 178.788119 
L 461.8 178.788119 
L 461.8 178.788119 
" style="fill:none;stroke:#f5deb3;stroke-linecap:square;stroke-width:1.5;"/>
   </g>
   <g id="line2d_8">
    <path clip-path="url(#p5c0ed59016)" d="M 0 0 
" style="fill:none;stroke:#f5deb3;stroke-linecap:square;stroke-width:1.5;"/>
   </g>
   <g id="line2d_9">
    <path clip-path="url(#p5c0ed59016)" d="M 208.571057 293.76 
L 208.571057 289.927604 
L 216.710421 289.927604 
L 216.710421 286.095208 
L 222.284507 286.095208 
L 222.284507 282.262812 
L 230.744621 282.262812 
L 230.744621 278.430416 
L 232.328168 278.430416 
L 232.328168 274.59802 
L 250.355337 274.59802 
L 250.355337 270.765624 
L 255.132545 270.765624 
L 255.132545 266.933228 
L 265.89598 266.933228 
L 265.89598 263.100832 
L 265.89598 263.100832 
L 265.89598 259.268436 
L 270.750292 259.268436 
L 270.750292 255.43604 
L 270.750292 255.43604 
L 270.750292 251.603644 
L 275.310217 251.603644 
L 275.310217 247.771248 
L 276.189943 247.771248 
L 276.189943 243.938851 
L 277.059499 243.938851 
L 277.059499 240.106455 
L 277.919117 240.106455 
L 277.919117 236.274059 
L 428.091379 236.274059 
L 428.091379 232.441663 
L 428.438797 232.441663 
L 428.438797 228.609267 
L 430.602608 228.609267 
L 430.602608 224.776871 
L 432.814995 224.776871 
L 432.814995 220.944475 
L 433.682045 220.944475 
L 433.682045 217.112079 
L 433.897255 217.112079 
L 433.897255 213.279683 
L 435.17574 213.279683 
L 435.17574 209.447287 
L 435.911609 209.447287 
L 435.911609 205.614891 
L 436.224791 205.614891 
L 436.224791 201.782495 
L 438.076982 201.782495 
L 438.076982 197.950099 
L 438.381294 197.950099 
L 438.381294 194.117703 
L 440.082853 194.117703 
L 440.082853 190.285307 
L 444.875285 190.285307 
L 444.875285 186.452911 
L 444.968087 186.452911 
L 444.968087 182.620515 
L 445.614512 182.620515 
L 445.614512 178.788119 
L 461.8 178.788119 
" style="fill:none;stroke:#f5deb3;stroke-linecap:square;stroke-width:1.5;"/>
   </g>
   <g id="line2d_10">
    <path clip-path="url(#p5c0ed59016)" d="M 288.282619 293.76 
L 288.282619 289.927604 
L 301.871847 289.927604 
L 301.871847 286.095208 
L 302.49091 286.095208 
L 302.49091 274.59802 
L 304.917435 274.59802 
L 304.917435 270.765624 
L 306.687298 270.765624 
L 306.687298 266.933228 
L 314.436943 266.933228 
L 314.436943 263.100832 
L 315.481622 263.100832 
L 315.481622 259.268436 
L 325.654855 259.268436 
L 325.654855 255.43604 
L 330.904594 255.43604 
L 330.904594 251.603644 
L 343.339558 251.603644 
L 343.339558 247.771248 
L 343.696878 247.771248 
L 343.696878 243.938851 
L 356.15221 243.938851 
L 356.15221 240.106455 
L 357.647602 240.106455 
L 357.647602 236.274059 
L 461.8 236.274059 
L 461.8 236.274059 
" style="fill:none;stroke:#f5deb3;stroke-linecap:square;stroke-width:1.5;"/>
   </g>
   <g id="line2d_11">
    <path clip-path="url(#p5c0ed59016)" d="M 144.840928 293.76 
L 144.840928 289.927604 
L 166.479146 289.927604 
L 166.479146 286.095208 
L 170.148934 286.095208 
L 170.148934 282.262812 
L 170.148934 282.262812 
L 170.148934 278.430416 
L 170.148934 278.430416 
L 170.148934 274.59802 
L 173.647971 274.59802 
L 173.647971 270.765624 
L 173.647971 270.765624 
L 173.647971 266.933228 
L 176.991443 266.933228 
L 176.991443 263.100832 
L 176.991443 263.100832 
L 176.991443 259.268436 
L 189.051733 259.268436 
L 189.051733 255.43604 
L 189.051733 255.43604 
L 189.051733 251.603644 
L 204.145326 251.603644 
L 204.145326 247.771248 
L 204.145326 247.771248 
L 204.145326 243.938851 
L 212.750784 243.938851 
L 212.750784 240.106455 
L 214.756656 240.106455 
L 214.756656 236.274059 
L 377.107678 236.274059 
L 377.107678 232.441663 
L 383.040167 232.441663 
L 383.040167 228.609267 
L 383.040167 228.609267 
L 383.040167 224.776871 
L 383.671352 224.776871 
L 383.671352 220.944475 
L 385.123838 220.944475 
L 385.123838 217.112079 
L 386.346885 217.112079 
L 386.346885 213.279683 
L 386.548807 213.279683 
L 386.548807 209.447287 
L 387.947281 209.447287 
L 387.947281 205.614891 
L 388.342115 205.614891 
L 388.342115 201.782495 
L 391.993148 201.782495 
L 391.993148 197.950099 
L 391.993148 197.950099 
L 391.993148 194.117703 
L 393.478939 194.117703 
L 393.478939 190.285307 
L 393.845846 190.285307 
L 393.845846 186.452911 
L 397.069871 186.452911 
L 397.069871 182.620515 
L 397.594024 182.620515 
L 397.594024 178.788119 
L 461.8 178.788119 
" style="fill:none;stroke:#f5deb3;stroke-linecap:square;stroke-width:1.5;"/>
   </g>
   <g id="line2d_12">
    <path clip-path="url(#p5c0ed59016)" d="M 134.077493 293.76 
L 134.077493 289.927604 
L 134.077493 289.927604 
L 134.077493 286.095208 
L 134.077493 286.095208 
L 134.077493 282.262812 
L 134.077493 282.262812 
L 134.077493 278.430416 
L 134.077493 278.430416 
L 134.077493 274.59802 
L 134.077493 274.59802 
L 134.077493 270.765624 
L 134.077493 270.765624 
L 134.077493 266.933228 
L 134.077493 266.933228 
L 134.077493 263.100832 
L 134.077493 263.100832 
L 134.077493 259.268436 
L 134.077493 259.268436 
L 134.077493 255.43604 
L 134.077493 255.43604 
L 134.077493 251.603644 
L 134.077493 251.603644 
L 134.077493 247.771248 
L 134.077493 247.771248 
L 134.077493 243.938851 
L 134.077493 243.938851 
L 134.077493 240.106455 
L 134.077493 240.106455 
L 134.077493 236.274059 
L 162.621083 236.274059 
L 162.621083 232.441663 
L 162.621083 232.441663 
L 162.621083 228.609267 
L 183.263052 228.609267 
L 183.263052 224.776871 
L 199.442812 224.776871 
L 199.442812 220.944475 
L 199.442812 220.944475 
L 199.442812 217.112079 
L 199.442812 217.112079 
L 199.442812 213.279683 
L 199.442812 213.279683 
L 199.442812 209.447287 
L 199.442812 209.447287 
L 199.442812 205.614891 
L 199.442812 205.614891 
L 199.442812 201.782495 
L 199.442812 201.782495 
L 199.442812 197.950099 
L 199.442812 197.950099 
L 199.442812 194.117703 
L 212.750784 194.117703 
L 212.750784 190.285307 
L 212.750784 190.285307 
L 212.750784 186.452911 
L 212.750784 186.452911 
L 212.750784 182.620515 
L 224.05437 182.620515 
L 224.05437 178.788119 
L 410.226055 178.788119 
L 410.226055 174.955723 
L 411.971954 174.955723 
L 411.971954 171.123327 
L 413.678244 171.123327 
L 413.678244 167.290931 
L 414.51709 167.290931 
L 414.51709 163.458535 
L 417.781938 163.458535 
L 417.781938 159.626139 
L 427.50876 159.626139 
L 427.50876 155.793743 
L 428.899538 155.793743 
L 428.899538 151.961347 
L 433.466218 151.961347 
L 433.466218 148.12895 
L 434.218919 148.12895 
L 434.218919 144.296554 
L 434.218919 144.296554 
L 434.218919 140.464158 
L 442.132987 140.464158 
L 442.132987 136.631762 
L 443.846838 136.631762 
L 443.846838 132.799366 
L 444.316058 132.799366 
L 444.316058 128.96697 
L 455.830384 128.96697 
L 455.830384 125.134574 
L 456.310486 125.134574 
L 456.310486 121.302178 
L 456.310486 121.302178 
L 456.310486 121.302178 
L 460.8 121.302178 
" style="fill:none;stroke:#f5deb3;stroke-linecap:square;stroke-width:1.5;"/>
   </g>
   <g id="line2d_13">
    <path clip-path="url(#p5c0ed59016)" d="M 379.581363 293.76 
L 379.581363 289.927604 
L 379.581363 289.927604 
L 379.581363 286.095208 
L 379.581363 286.095208 
L 379.581363 282.262812 
L 385.941409 282.262812 
L 385.941409 278.430416 
L 385.941409 278.430416 
L 385.941409 274.59802 
L 385.941409 274.59802 
L 385.941409 270.765624 
L 386.548807 270.765624 
L 386.548807 266.933228 
L 386.548807 266.933228 
L 386.548807 263.100832 
L 386.548807 263.100832 
L 386.548807 259.268436 
L 399.992907 259.268436 
L 399.992907 255.43604 
L 399.992907 255.43604 
L 399.992907 251.603644 
L 399.992907 251.603644 
L 399.992907 247.771248 
L 408.438667 247.771248 
L 408.438667 243.938851 
L 408.438667 243.938851 
L 408.438667 240.106455 
L 408.438667 240.106455 
L 408.438667 236.274059 
L 461.8 236.274059 
" style="fill:none;stroke:#f5deb3;stroke-linecap:square;stroke-width:1.5;"/>
   </g>
   <g id="line2d_14">
    <path clip-path="url(#p5c0ed59016)" d="M 208.571057 293.76 
L 208.571057 289.927604 
L 208.571057 289.927604 
L 208.571057 286.095208 
L 210.68995 286.095208 
L 210.68995 282.262812 
L 214.756656 282.262812 
L 214.756656 278.430416 
L 220.471992 278.430416 
L 220.471992 274.59802 
L 220.471992 274.59802 
L 220.471992 270.765624 
L 220.471992 270.765624 
L 220.471992 266.933228 
L 225.783544 266.933228 
L 225.783544 263.100832 
L 229.127016 263.100832 
L 229.127016 259.268436 
L 229.127016 259.268436 
L 229.127016 255.43604 
L 229.127016 255.43604 
L 229.127016 251.603644 
L 229.127016 251.603644 
L 229.127016 247.771248 
L 229.127016 247.771248 
L 229.127016 243.938851 
L 229.127016 243.938851 
L 229.127016 240.106455 
L 229.127016 240.106455 
L 229.127016 236.274059 
L 320.981567 236.274059 
L 320.981567 232.441663 
L 326.106602 232.441663 
L 326.106602 228.609267 
L 330.480842 228.609267 
L 330.480842 224.776871 
L 332.988266 224.776871 
L 332.988266 220.944475 
L 332.988266 220.944475 
L 332.988266 217.112079 
L 334.614615 217.112079 
L 334.614615 213.279683 
L 335.41479 213.279683 
L 335.41479 209.447287 
L 336.206542 209.447287 
L 336.206542 205.614891 
L 339.292748 205.614891 
L 339.292748 201.782495 
L 340.789628 201.782495 
L 340.789628 197.950099 
L 344.052509 197.950099 
L 344.052509 194.117703 
L 345.109422 194.117703 
L 345.109422 190.285307 
L 347.519285 190.285307 
L 347.519285 186.452911 
L 347.519285 186.452911 
L 347.519285 182.620515 
L 359.403691 182.620515 
L 359.403691 178.788119 
L 461.8 178.788119 
" style="fill:none;stroke:#f5deb3;stroke-linecap:square;stroke-width:1.5;"/>
   </g>
   <g id="line2d_15">
    <path clip-path="url(#p5c0ed59016)" style="fill:none;stroke:#f5deb3;stroke-linecap:square;stroke-width:1.5;"/>
   </g>
   <g id="line2d_16">
    <path clip-path="url(#p5c0ed59016)" d="M 411.10407 293.76 
L 411.10407 289.927604 
L 418.708089 289.927604 
L 418.708089 282.262812 
L 426.210888 282.262812 
L 426.210888 278.430416 
L 430.938643 278.430416 
L 430.938643 274.59802 
L 433.032697 274.59802 
L 433.141311 263.100832 
L 433.249769 263.100832 
L 433.358071 255.43604 
L 433.897255 255.43604 
L 433.897255 251.603644 
L 436.224791 251.603644 
L 436.224791 247.771248 
L 436.432857 247.771248 
L 436.432857 243.938851 
L 441.74677 243.938851 
L 441.74677 240.106455 
L 449.729597 240.106455 
L 449.729597 236.274059 
L 461.8 236.274059 
L 461.8 236.274059 
" style="fill:none;stroke:#f5deb3;stroke-linecap:square;stroke-width:1.5;"/>
   </g>
   <g id="line2d_17">
    <path clip-path="url(#p5c0ed59016)" d="M 302.49091 293.76 
L 302.49091 289.927604 
L 310.661884 289.927604 
L 310.661884 286.095208 
L 328.325516 286.095208 
L 328.325516 282.262812 
L 344.052509 282.262812 
L 344.052509 278.430416 
L 346.495926 278.430416 
L 346.495926 274.59802 
L 367.617195 274.59802 
L 367.617195 270.765624 
L 374.075315 270.765624 
L 374.075315 266.933228 
L 374.312964 266.933228 
L 374.312964 263.100832 
L 378.691226 263.100832 
L 378.691226 259.268436 
L 399.144919 259.268436 
L 399.144919 255.43604 
L 415.071167 255.43604 
L 415.071167 251.603644 
L 416.03109 251.603644 
L 416.03109 247.771248 
L 416.709324 247.771248 
L 416.709324 243.938851 
L 458.666077 243.938851 
L 458.666077 240.106455 
L 459.20526 240.106455 
L 459.20526 236.274059 
L 461.8 236.274059 
" style="fill:none;stroke:#f5deb3;stroke-linecap:square;stroke-width:1.5;"/>
   </g>
   <g id="line2d_18">
    <path clip-path="url(#p5c0ed59016)" d="M 128.057022 293.76 
L 128.057022 289.927604 
L 128.057022 289.927604 
L 128.057022 286.095208 
L 128.057022 286.095208 
L 128.057022 282.262812 
L 128.057022 282.262812 
L 128.057022 278.430416 
L 128.057022 278.430416 
L 128.057022 274.59802 
L 128.057022 274.59802 
L 128.057022 270.765624 
L 128.057022 270.765624 
L 128.057022 266.933228 
L 128.057022 266.933228 
L 128.057022 263.100832 
L 128.057022 263.100832 
L 128.057022 259.268436 
L 128.057022 259.268436 
L 128.057022 255.43604 
L 128.057022 255.43604 
L 128.057022 251.603644 
L 128.057022 251.603644 
L 128.057022 247.771248 
L 128.057022 247.771248 
L 128.057022 243.938851 
L 128.057022 243.938851 
L 128.057022 240.106455 
L 128.057022 240.106455 
L 128.057022 236.274059 
L 134.077493 236.274059 
L 134.077493 232.441663 
L 134.077493 232.441663 
L 134.077493 228.609267 
L 134.077493 228.609267 
L 134.077493 224.776871 
L 134.077493 224.776871 
L 134.077493 220.944475 
L 134.077493 220.944475 
L 134.077493 217.112079 
L 139.651579 217.112079 
L 139.651579 213.279683 
L 144.840928 213.279683 
L 144.840928 209.447287 
L 149.69524 209.447287 
L 149.69524 205.614891 
L 149.69524 205.614891 
L 149.69524 201.782495 
L 154.255166 201.782495 
L 154.255166 197.950099 
L 154.255166 197.950099 
L 154.255166 194.117703 
L 154.255166 194.117703 
L 154.255166 190.285307 
L 154.255166 190.285307 
L 154.255166 186.452911 
L 158.554377 186.452911 
L 158.554377 182.620515 
L 170.148934 182.620515 
L 170.148934 178.788119 
L 461.8 178.788119 
" style="fill:none;stroke:#f5deb3;stroke-linecap:square;stroke-width:1.5;"/>
   </g>
   <g id="line2d_19">
    <path clip-path="url(#p5c0ed59016)" d="M 436.328896 293.76 
L 436.328896 289.927604 
L 449.467977 289.927604 
L 449.467977 286.095208 
L 461.8 286.095208 
L 461.8 286.095208 
" style="fill:none;stroke:#f5deb3;stroke-linecap:square;stroke-width:1.5;"/>
   </g>
   <g id="line2d_20">
    <path clip-path="url(#p5c0ed59016)" d="M 144.840928 293.76 
L 144.840928 289.927604 
L 154.255166 289.927604 
L 154.255166 286.095208 
L 158.554377 286.095208 
L 158.554377 282.262812 
L 158.554377 282.262812 
L 158.554377 278.430416 
L 170.148934 278.430416 
L 170.148934 274.59802 
L 176.991443 274.59802 
L 176.991443 270.765624 
L 180.192595 270.765624 
L 180.192595 266.933228 
L 186.213066 266.933228 
L 186.213066 263.100832 
L 189.051733 263.100832 
L 189.051733 259.268436 
L 189.051733 259.268436 
L 189.051733 255.43604 
L 191.787152 255.43604 
L 191.787152 251.603644 
L 196.976501 251.603644 
L 196.976501 247.771248 
L 201.830813 247.771248 
L 201.830813 243.938851 
L 204.145326 243.938851 
L 204.145326 240.106455 
L 210.68995 240.106455 
L 210.68995 236.274059 
L 336.599314 236.274059 
L 336.599314 232.441663 
L 343.339558 232.441663 
L 343.339558 228.609267 
L 343.696878 228.609267 
L 343.696878 224.776871 
L 344.758765 224.776871 
L 344.758765 220.944475 
L 346.151689 220.944475 
L 346.151689 217.112079 
L 347.857334 217.112079 
L 347.857334 213.279683 
L 349.194538 213.279683 
L 349.194538 209.447287 
L 350.182067 209.447287 
L 350.182067 205.614891 
L 353.069166 205.614891 
L 353.069166 201.782495 
L 353.695968 201.782495 
L 353.695968 197.950099 
L 357.053008 197.950099 
L 357.053008 194.117703 
L 358.822871 194.117703 
L 358.822871 190.285307 
L 361.963263 190.285307 
L 361.963263 186.452911 
L 366.044684 186.452911 
L 366.044684 182.620515 
L 366.309063 182.620515 
L 366.309063 178.788119 
L 396.718395 178.788119 
L 396.718395 174.955723 
L 417.247543 174.955723 
L 417.247543 171.123327 
L 422.177234 171.123327 
L 422.177234 167.290931 
L 425.01125 167.290931 
L 425.01125 163.458535 
L 435.597118 163.458535 
L 435.597118 159.626139 
L 436.432857 159.626139 
L 436.432857 155.793743 
L 440.576073 155.793743 
L 440.576073 151.961347 
L 449.205444 151.961347 
L 449.205444 148.12895 
L 451.705681 148.12895 
L 451.705681 144.296554 
L 461.8 144.296554 
" style="fill:none;stroke:#f5deb3;stroke-linecap:square;stroke-width:1.5;"/>
   </g>
   <g id="line2d_21">
    <path clip-path="url(#p5c0ed59016)" d="M 0 0 
" style="fill:none;stroke:#f5deb3;stroke-linecap:square;stroke-width:1.5;"/>
   </g>
   <g id="line2d_22">
    <path clip-path="url(#p5c0ed59016)" d="M 158.554377 293.76 
L 158.554377 289.927604 
L 158.554377 289.927604 
L 158.554377 286.095208 
L 170.148934 286.095208 
L 170.148934 282.262812 
L 173.647971 282.262812 
L 173.647971 278.430416 
L 183.263052 278.430416 
L 183.263052 274.59802 
L 183.263052 274.59802 
L 183.263052 270.765624 
L 183.263052 270.765624 
L 183.263052 266.933228 
L 191.787152 266.933228 
L 191.787152 263.100832 
L 210.68995 263.100832 
L 210.68995 259.268436 
L 220.471992 259.268436 
L 220.471992 255.43604 
L 222.284507 255.43604 
L 222.284507 251.603644 
L 230.744621 251.603644 
L 230.744621 247.771248 
L 233.879063 247.771248 
L 233.879063 243.938851 
L 294.703022 243.938851 
L 294.703022 240.106455 
L 307.268118 240.106455 
L 307.268118 236.274059 
L 342.257299 236.274059 
L 342.257299 232.441663 
L 343.696878 232.441663 
L 343.696878 228.609267 
L 344.758765 228.609267 
L 344.758765 224.776871 
L 346.838595 224.776871 
L 346.838595 220.944475 
L 348.528908 220.944475 
L 348.528908 217.112079 
L 349.854329 217.112079 
L 349.854329 213.279683 
L 350.182067 213.279683 
L 350.182067 209.447287 
L 350.83329 209.447287 
L 350.83329 205.614891 
L 351.156799 205.614891 
L 351.156799 201.782495 
L 354.317589 201.782495 
L 354.317589 197.950099 
L 354.934115 197.950099 
L 354.934115 194.117703 
L 357.053008 194.117703 
L 357.053008 190.285307 
L 357.350892 190.285307 
L 357.350892 186.452911 
L 359.692427 186.452911 
L 359.692427 182.620515 
L 364.438593 182.620515 
L 364.438593 178.788119 
L 413.11377 178.788119 
L 413.11377 174.955723 
L 421.038539 174.955723 
L 421.038539 171.123327 
L 424.03757 171.123327 
L 424.03757 167.290931 
L 425.493404 167.290931 
L 425.493404 163.458535 
L 429.5854 163.458535 
L 429.5854 159.626139 
L 433.032697 159.626139 
L 433.032697 155.793743 
L 443.279882 155.793743 
L 443.279882 151.961347 
L 449.555285 151.961347 
L 449.555285 148.12895 
L 450.59515 148.12895 
L 450.59515 144.296554 
L 452.465016 144.296554 
L 452.465016 140.464158 
L 455.02334 140.464158 
L 455.02334 136.631762 
L 455.02334 136.631762 
L 455.02334 132.799366 
L 456.150792 132.799366 
L 456.150792 128.96697 
L 456.62886 128.96697 
L 456.62886 125.134574 
L 461.8 125.134574 
" style="fill:none;stroke:#f5deb3;stroke-linecap:square;stroke-width:1.5;"/>
   </g>
   <g id="line2d_23">
    <path clip-path="url(#p5c0ed59016)" d="M 271.684661 293.76 
L 271.684661 289.927604 
L 298.697717 289.927604 
L 298.697717 286.095208 
L 301.871847 286.095208 
L 301.871847 282.262812 
L 303.713957 282.262812 
L 303.713957 278.430416 
L 313.377549 278.430416 
L 313.377549 274.59802 
L 313.377549 274.59802 
L 313.377549 270.765624 
L 321.462181 270.765624 
L 321.462181 266.933228 
L 321.939742 266.933228 
L 321.939742 263.100832 
L 323.820234 263.100832 
L 323.820234 259.268436 
L 324.283101 259.268436 
L 324.283101 255.43604 
L 324.743138 255.43604 
L 324.743138 251.603644 
L 337.378759 251.603644 
L 337.378759 247.771248 
L 345.805869 247.771248 
L 345.805869 243.938851 
L 351.478922 243.938851 
L 351.478922 240.106455 
L 365.245925 240.106455 
L 365.245925 236.274059 
L 461.8 236.274059 
" style="fill:none;stroke:#f5deb3;stroke-linecap:square;stroke-width:1.5;"/>
   </g>
   <g id="line2d_24">
    <path clip-path="url(#p5c0ed59016)" d="M 340.789628 293.76 
L 340.789628 289.927604 
L 340.789628 289.927604 
L 340.789628 286.095208 
L 341.159239 286.095208 
L 341.159239 282.262812 
L 355.545628 282.262812 
L 355.545628 278.430416 
L 355.545628 278.430416 
L 355.545628 274.59802 
L 355.84953 274.59802 
L 355.84953 270.765624 
L 369.157503 270.765624 
L 369.157503 266.933228 
L 369.157503 266.933228 
L 369.157503 263.100832 
L 369.411182 263.100832 
L 369.411182 259.268436 
L 369.664008 259.268436 
L 369.664008 255.43604 
L 380.679422 255.43604 
L 380.679422 251.603644 
L 380.679422 251.603644 
L 380.679422 247.771248 
L 380.897124 247.771248 
L 380.897124 243.938851 
L 381.114197 243.938851 
L 381.114197 240.106455 
L 399.485262 240.106455 
L 399.485262 236.274059 
L 461.8 236.274059 
" style="fill:none;stroke:#f5deb3;stroke-linecap:square;stroke-width:1.5;"/>
   </g>
   <g id="line2d_25">
    <path clip-path="url(#p5c0ed59016)" d="M 289.757484 293.76 
L 289.757484 289.927604 
L 302.49091 289.927604 
L 302.49091 286.095208 
L 305.512029 286.095208 
L 305.512029 282.262812 
L 312.842203 282.262812 
L 312.842203 278.430416 
L 314.436943 278.430416 
L 314.436943 274.59802 
L 323.820234 274.59802 
L 323.820234 270.765624 
L 324.283101 270.765624 
L 324.283101 266.933228 
L 325.200377 266.933228 
L 325.200377 263.100832 
L 325.200377 263.100832 
L 325.200377 259.268436 
L 326.555653 259.268436 
L 326.555653 255.43604 
L 329.626109 255.43604 
L 329.626109 251.603644 
L 331.325972 251.603644 
L 331.325972 247.771248 
L 348.19387 247.771248 
L 348.19387 243.938851 
L 349.194538 243.938851 
L 349.194538 240.106455 
L 350.508383 240.106455 
L 350.508383 236.274059 
L 461.8 236.274059 
" style="fill:none;stroke:#f5deb3;stroke-linecap:square;stroke-width:1.5;"/>
   </g>
   <g id="line2d_26">
    <path clip-path="url(#p5c0ed59016)" d="M 425.733326 293.76 
L 425.733326 289.927604 
L 426.210888 289.927604 
L 426.210888 286.095208 
L 426.56708 286.095208 
L 426.56708 282.262812 
L 429.926 282.262812 
L 429.926 278.430416 
L 432.705908 278.430416 
L 432.705908 274.59802 
L 433.141311 274.59802 
L 433.141311 270.765624 
L 433.358071 270.765624 
L 433.466218 259.268436 
L 436.536674 259.268436 
L 436.536674 255.43604 
L 437.259411 255.43604 
L 437.259411 251.603644 
L 440.082853 251.603644 
L 440.082853 247.771248 
L 440.67433 247.771248 
L 440.67433 243.938851 
L 442.325355 243.938851 
L 442.325355 240.106455 
L 442.612987 240.106455 
L 442.612987 236.274059 
L 461.8 236.274059 
L 461.8 236.274059 
" style="fill:none;stroke:#f5deb3;stroke-linecap:square;stroke-width:1.5;"/>
   </g>
   <g id="line2d_27">
    <path clip-path="url(#p5c0ed59016)" d="M 317.528435 293.76 
L 317.528435 289.927604 
L 333.805836 289.927604 
L 333.805836 286.095208 
L 334.614615 286.095208 
L 334.614615 282.262812 
L 337.378759 282.262812 
L 337.378759 278.430416 
L 345.805869 278.430416 
L 345.805869 274.59802 
L 345.805869 274.59802 
L 345.805869 270.765624 
L 346.838595 270.765624 
L 346.838595 266.933228 
L 352.11906 266.933228 
L 352.11906 263.100832 
L 365.245925 263.100832 
L 365.245925 259.268436 
L 369.157503 259.268436 
L 369.157503 255.43604 
L 375.25612 255.43604 
L 375.25612 251.603644 
L 378.914749 251.603644 
L 378.914749 247.771248 
L 381.114197 247.771248 
L 381.114197 243.938851 
L 394.02863 243.938851 
L 394.02863 240.106455 
L 413.9589 240.106455 
L 413.9589 236.274059 
L 417.914945 236.274059 
L 417.914945 232.441663 
L 419.232242 232.441663 
L 419.232242 228.609267 
L 419.232242 228.609267 
L 419.232242 224.776871 
L 420.526865 224.776871 
L 420.526865 220.944475 
L 422.302698 220.944475 
L 422.302698 217.112079 
L 424.159971 217.112079 
L 424.159971 213.279683 
L 425.252713 213.279683 
L 425.252713 209.447287 
L 425.613461 209.447287 
L 425.613461 205.614891 
L 426.091782 205.614891 
L 426.091782 201.782495 
L 427.975216 201.782495 
L 427.975216 197.950099 
L 427.975216 197.950099 
L 427.975216 194.117703 
L 429.5854 194.117703 
L 429.5854 190.285307 
L 431.050322 190.285307 
L 431.050322 186.452911 
L 431.937834 186.452911 
L 431.937834 182.620515 
L 439.785362 182.620515 
L 439.785362 178.788119 
L 461.8 178.788119 
" style="fill:none;stroke:#f5deb3;stroke-linecap:square;stroke-width:1.5;"/>
   </g>
   <g id="line2d_28">
    <path clip-path="url(#p5c0ed59016)" d="M 227.473856 293.76 
L 227.473856 289.927604 
L 256.280899 289.927604 
L 256.280899 286.095208 
L 276.189943 286.095208 
L 276.189943 282.262812 
L 276.189943 282.262812 
L 276.189943 278.430416 
L 277.919117 278.430416 
L 277.919117 274.59802 
L 286.014636 274.59802 
L 286.014636 270.765624 
L 292.623192 270.765624 
L 292.623192 266.933228 
L 292.623192 266.933228 
L 292.623192 263.100832 
L 293.322878 263.100832 
L 293.322878 259.268436 
L 306.101959 259.268436 
L 306.101959 255.43604 
L 306.687298 255.43604 
L 306.687298 251.603644 
L 306.687298 251.603644 
L 306.687298 247.771248 
L 318.031553 247.771248 
L 318.031553 243.938851 
L 335.015767 243.938851 
L 335.015767 240.106455 
L 344.406466 240.106455 
L 344.406466 236.274059 
L 453.548475 236.274059 
L 453.548475 232.441663 
L 454.207544 232.441663 
L 454.207544 228.609267 
L 454.779529 228.609267 
L 454.779529 224.776871 
L 455.185443 224.776871 
L 455.185443 220.944475 
L 455.669667 220.944475 
L 455.669667 217.112079 
L 457.810902 217.112079 
L 457.810902 213.279683 
L 458.123001 213.279683 
L 458.123001 209.447287 
L 458.666077 209.447287 
L 458.666077 205.614891 
L 459.588039 205.614891 
L 459.588039 201.782495 
L 460.120676 201.782495 
L 460.120676 197.950099 
L 461.8 197.950099 
" style="fill:none;stroke:#f5deb3;stroke-linecap:square;stroke-width:1.5;"/>
   </g>
   <g id="line2d_29">
    <path clip-path="url(#p5c0ed59016)" d="M 114.343573 293.76 
L 114.343573 289.927604 
L 114.343573 289.927604 
L 114.343573 286.095208 
L 114.343573 286.095208 
L 114.343573 282.262812 
L 114.343573 282.262812 
L 114.343573 278.430416 
L 114.343573 278.430416 
L 114.343573 274.59802 
L 114.343573 274.59802 
L 114.343573 270.765624 
L 114.343573 270.765624 
L 114.343573 266.933228 
L 114.343573 266.933228 
L 114.343573 263.100832 
L 114.343573 263.100832 
L 114.343573 259.268436 
L 114.343573 259.268436 
L 114.343573 255.43604 
L 114.343573 255.43604 
L 114.343573 251.603644 
L 114.343573 251.603644 
L 114.343573 247.771248 
L 114.343573 247.771248 
L 114.343573 243.938851 
L 114.343573 243.938851 
L 114.343573 240.106455 
L 114.343573 240.106455 
L 114.343573 236.274059 
L 149.69524 236.274059 
L 149.69524 232.441663 
L 149.69524 232.441663 
L 149.69524 228.609267 
L 149.69524 228.609267 
L 149.69524 224.776871 
L 154.255166 224.776871 
L 154.255166 220.944475 
L 154.255166 220.944475 
L 154.255166 217.112079 
L 154.255166 217.112079 
L 154.255166 213.279683 
L 154.255166 213.279683 
L 154.255166 209.447287 
L 154.255166 209.447287 
L 154.255166 205.614891 
L 154.255166 205.614891 
L 154.255166 201.782495 
L 241.187306 201.782495 
L 241.187306 197.950099 
L 241.187306 197.950099 
L 241.187306 194.117703 
L 241.187306 194.117703 
L 241.187306 190.285307 
L 242.567449 190.285307 
L 242.567449 186.452911 
L 242.567449 186.452911 
L 242.567449 182.620515 
L 242.567449 182.620515 
L 242.567449 178.788119 
L 440.28053 178.788119 
L 440.28053 174.955723 
L 440.28053 174.955723 
L 440.28053 171.123327 
L 440.28053 171.123327 
L 440.28053 167.290931 
L 461.8 167.290931 
" style="fill:none;stroke:#f5deb3;stroke-linecap:square;stroke-width:1.5;"/>
   </g>
   <g id="line2d_30">
    <path clip-path="url(#p5c0ed59016)" d="M 220.471992 293.76 
L 220.471992 289.927604 
L 227.473856 289.927604 
L 227.473856 286.095208 
L 260.70663 286.095208 
L 260.70663 282.262812 
L 261.773538 282.262812 
L 261.773538 278.430416 
L 267.875455 278.430416 
L 267.875455 274.59802 
L 271.684661 274.59802 
L 271.684661 270.765624 
L 273.519282 270.765624 
L 273.519282 266.933228 
L 273.519282 266.933228 
L 273.519282 263.100832 
L 274.42008 263.100832 
L 274.42008 259.268436 
L 274.42008 259.268436 
L 274.42008 255.43604 
L 274.42008 255.43604 
L 274.42008 251.603644 
L 277.919117 251.603644 
L 277.919117 247.771248 
L 278.769021 247.771248 
L 278.769021 243.938851 
L 279.609429 243.938851 
L 279.609429 240.106455 
L 279.609429 240.106455 
L 279.609429 236.274059 
L 279.609429 236.274059 
L 279.609429 232.441663 
L 280.440551 232.441663 
L 280.440551 228.609267 
L 281.262589 228.609267 
L 281.262589 224.776871 
L 281.262589 224.776871 
L 281.262589 220.944475 
L 282.07574 220.944475 
L 282.07574 217.112079 
L 283.676135 217.112079 
L 283.676135 213.279683 
L 284.463741 213.279683 
L 284.463741 209.447287 
L 285.243186 209.447287 
L 285.243186 205.614891 
L 289.023667 205.614891 
L 289.023667 201.782495 
L 290.484212 201.782495 
L 290.484212 197.950099 
L 291.916936 197.950099 
L 291.916936 194.117703 
L 291.916936 194.117703 
L 291.916936 190.285307 
L 293.322878 190.285307 
L 293.322878 186.452911 
L 294.016116 186.452911 
L 294.016116 182.620515 
L 300.618223 182.620515 
L 300.618223 178.788119 
L 313.909111 178.788119 
L 313.909111 174.955723 
L 313.909111 174.955723 
L 313.909111 171.123327 
L 313.909111 171.123327 
L 313.909111 167.290931 
L 313.909111 167.290931 
L 313.909111 163.458535 
L 313.909111 163.458535 
L 313.909111 159.626139 
L 313.909111 159.626139 
L 313.909111 155.793743 
L 313.909111 155.793743 
L 313.909111 151.961347 
L 313.909111 151.961347 
L 313.909111 148.12895 
L 313.909111 148.12895 
L 313.909111 144.296554 
L 313.909111 144.296554 
L 313.909111 140.464158 
L 313.909111 140.464158 
L 313.909111 136.631762 
L 313.909111 136.631762 
L 313.909111 132.799366 
L 313.909111 132.799366 
L 313.909111 128.96697 
L 313.909111 128.96697 
L 313.909111 125.134574 
L 313.909111 125.134574 
L 313.909111 121.302178 
L 313.909111 121.302178 
L 313.909111 121.302178 
L 460.8 121.302178 
" style="fill:none;stroke:#f5deb3;stroke-linecap:square;stroke-width:1.5;"/>
   </g>
   <g id="matplotlib.axis_1">
    <g id="xtick_1">
     <g id="line2d_31">
      <path clip-path="url(#p5c0ed59016)" d="M 62.208 293.76 
L 62.208 3.456 
" style="fill:none;stroke:#b0b0b0;stroke-linecap:square;stroke-width:0.8;"/>
     </g>
     <g id="line2d_32">
      <defs>
       <path d="M 0 0 
L 0 3.5 
" id="m968a244a4b" style="stroke:#000000;stroke-width:0.8;"/>
      </defs>
      <g>
       <use style="stroke:#000000;stroke-width:0.8;" x="62.208" xlink:href="#m968a244a4b" y="293.76"/>
      </g>
     </g>
     <g id="text_1">
      <!-- 0 -->
      <g transform="translate(55.8455 315.956875)scale(0.2 -0.2)">
       <defs>
        <path d="M 31.78125 66.40625 
Q 24.171875 66.40625 20.328125 58.90625 
Q 16.5 51.421875 16.5 36.375 
Q 16.5 21.390625 20.328125 13.890625 
Q 24.171875 6.390625 31.78125 6.390625 
Q 39.453125 6.390625 43.28125 13.890625 
Q 47.125 21.390625 47.125 36.375 
Q 47.125 51.421875 43.28125 58.90625 
Q 39.453125 66.40625 31.78125 66.40625 
z
M 31.78125 74.21875 
Q 44.046875 74.21875 50.515625 64.515625 
Q 56.984375 54.828125 56.984375 36.375 
Q 56.984375 17.96875 50.515625 8.265625 
Q 44.046875 -1.421875 31.78125 -1.421875 
Q 19.53125 -1.421875 13.0625 8.265625 
Q 6.59375 17.96875 6.59375 36.375 
Q 6.59375 54.828125 13.0625 64.515625 
Q 19.53125 74.21875 31.78125 74.21875 
z
" id="DejaVuSans-48"/>
       </defs>
       <use xlink:href="#DejaVuSans-48"/>
      </g>
     </g>
    </g>
    <g id="xtick_2">
     <g id="line2d_33">
      <path clip-path="url(#p5c0ed59016)" d="M 408.589249 293.76 
L 408.589249 3.456 
" style="fill:none;stroke:#b0b0b0;stroke-linecap:square;stroke-width:0.8;"/>
     </g>
     <g id="line2d_34">
      <g>
       <use style="stroke:#000000;stroke-width:0.8;" x="408.589249" xlink:href="#m968a244a4b" y="293.76"/>
      </g>
     </g>
     <g id="text_2">
      <!-- 2 -->
      <g transform="translate(402.226749 315.956875)scale(0.2 -0.2)">
       <defs>
        <path d="M 19.1875 8.296875 
L 53.609375 8.296875 
L 53.609375 0 
L 7.328125 0 
L 7.328125 8.296875 
Q 12.9375 14.109375 22.625 23.890625 
Q 32.328125 33.6875 34.8125 36.53125 
Q 39.546875 41.84375 41.421875 45.53125 
Q 43.3125 49.21875 43.3125 52.78125 
Q 43.3125 58.59375 39.234375 62.25 
Q 35.15625 65.921875 28.609375 65.921875 
Q 23.96875 65.921875 18.8125 64.3125 
Q 13.671875 62.703125 7.8125 59.421875 
L 7.8125 69.390625 
Q 13.765625 71.78125 18.9375 73 
Q 24.125 74.21875 28.421875 74.21875 
Q 39.75 74.21875 46.484375 68.546875 
Q 53.21875 62.890625 53.21875 53.421875 
Q 53.21875 48.921875 51.53125 44.890625 
Q 49.859375 40.875 45.40625 35.40625 
Q 44.1875 33.984375 37.640625 27.21875 
Q 31.109375 20.453125 19.1875 8.296875 
z
" id="DejaVuSans-50"/>
       </defs>
       <use xlink:href="#DejaVuSans-50"/>
      </g>
     </g>
    </g>
    <g id="xtick_3">
     <g id="line2d_35">
      <path clip-path="url(#p5c0ed59016)" d="M 114.343573 293.76 
L 114.343573 3.456 
" style="fill:none;stroke:#b0b0b0;stroke-linecap:square;stroke-width:0.8;"/>
     </g>
     <g id="line2d_36">
      <defs>
       <path d="M 0 0 
L 0 2 
" id="m037fd81938" style="stroke:#000000;stroke-width:0.6;"/>
      </defs>
      <g>
       <use style="stroke:#000000;stroke-width:0.6;" x="114.343573" xlink:href="#m037fd81938" y="293.76"/>
      </g>
     </g>
    </g>
    <g id="xtick_4">
     <g id="line2d_37">
      <path clip-path="url(#p5c0ed59016)" d="M 144.840928 293.76 
L 144.840928 3.456 
" style="fill:none;stroke:#b0b0b0;stroke-linecap:square;stroke-width:0.8;"/>
     </g>
     <g id="line2d_38">
      <g>
       <use style="stroke:#000000;stroke-width:0.6;" x="144.840928" xlink:href="#m037fd81938" y="293.76"/>
      </g>
     </g>
    </g>
    <g id="xtick_5">
     <g id="line2d_39">
      <path clip-path="url(#p5c0ed59016)" d="M 166.479146 293.76 
L 166.479146 3.456 
" style="fill:none;stroke:#b0b0b0;stroke-linecap:square;stroke-width:0.8;"/>
     </g>
     <g id="line2d_40">
      <g>
       <use style="stroke:#000000;stroke-width:0.6;" x="166.479146" xlink:href="#m037fd81938" y="293.76"/>
      </g>
     </g>
    </g>
    <g id="xtick_6">
     <g id="line2d_41">
      <path clip-path="url(#p5c0ed59016)" d="M 183.263052 293.76 
L 183.263052 3.456 
" style="fill:none;stroke:#b0b0b0;stroke-linecap:square;stroke-width:0.8;"/>
     </g>
     <g id="line2d_42">
      <g>
       <use style="stroke:#000000;stroke-width:0.6;" x="183.263052" xlink:href="#m037fd81938" y="293.76"/>
      </g>
     </g>
    </g>
    <g id="xtick_7">
     <g id="line2d_43">
      <path clip-path="url(#p5c0ed59016)" d="M 196.976501 293.76 
L 196.976501 3.456 
" style="fill:none;stroke:#b0b0b0;stroke-linecap:square;stroke-width:0.8;"/>
     </g>
     <g id="line2d_44">
      <g>
       <use style="stroke:#000000;stroke-width:0.6;" x="196.976501" xlink:href="#m037fd81938" y="293.76"/>
      </g>
     </g>
    </g>
    <g id="xtick_8">
     <g id="line2d_45">
      <path clip-path="url(#p5c0ed59016)" d="M 208.571057 293.76 
L 208.571057 3.456 
" style="fill:none;stroke:#b0b0b0;stroke-linecap:square;stroke-width:0.8;"/>
     </g>
     <g id="line2d_46">
      <g>
       <use style="stroke:#000000;stroke-width:0.6;" x="208.571057" xlink:href="#m037fd81938" y="293.76"/>
      </g>
     </g>
    </g>
    <g id="xtick_9">
     <g id="line2d_47">
      <path clip-path="url(#p5c0ed59016)" d="M 218.614719 293.76 
L 218.614719 3.456 
" style="fill:none;stroke:#b0b0b0;stroke-linecap:square;stroke-width:0.8;"/>
     </g>
     <g id="line2d_48">
      <g>
       <use style="stroke:#000000;stroke-width:0.6;" x="218.614719" xlink:href="#m037fd81938" y="293.76"/>
      </g>
     </g>
    </g>
    <g id="xtick_10">
     <g id="line2d_49">
      <path clip-path="url(#p5c0ed59016)" d="M 227.473856 293.76 
L 227.473856 3.456 
" style="fill:none;stroke:#b0b0b0;stroke-linecap:square;stroke-width:0.8;"/>
     </g>
     <g id="line2d_50">
      <g>
       <use style="stroke:#000000;stroke-width:0.6;" x="227.473856" xlink:href="#m037fd81938" y="293.76"/>
      </g>
     </g>
    </g>
    <g id="xtick_11">
     <g id="line2d_51">
      <path clip-path="url(#p5c0ed59016)" d="M 287.534197 293.76 
L 287.534197 3.456 
" style="fill:none;stroke:#b0b0b0;stroke-linecap:square;stroke-width:0.8;"/>
     </g>
     <g id="line2d_52">
      <g>
       <use style="stroke:#000000;stroke-width:0.6;" x="287.534197" xlink:href="#m037fd81938" y="293.76"/>
      </g>
     </g>
    </g>
    <g id="xtick_12">
     <g id="line2d_53">
      <path clip-path="url(#p5c0ed59016)" d="M 318.031553 293.76 
L 318.031553 3.456 
" style="fill:none;stroke:#b0b0b0;stroke-linecap:square;stroke-width:0.8;"/>
     </g>
     <g id="line2d_54">
      <g>
       <use style="stroke:#000000;stroke-width:0.6;" x="318.031553" xlink:href="#m037fd81938" y="293.76"/>
      </g>
     </g>
    </g>
    <g id="xtick_13">
     <g id="line2d_55">
      <path clip-path="url(#p5c0ed59016)" d="M 339.66977 293.76 
L 339.66977 3.456 
" style="fill:none;stroke:#b0b0b0;stroke-linecap:square;stroke-width:0.8;"/>
     </g>
     <g id="line2d_56">
      <g>
       <use style="stroke:#000000;stroke-width:0.6;" x="339.66977" xlink:href="#m037fd81938" y="293.76"/>
      </g>
     </g>
    </g>
    <g id="xtick_14">
     <g id="line2d_57">
      <path clip-path="url(#p5c0ed59016)" d="M 356.453676 293.76 
L 356.453676 3.456 
" style="fill:none;stroke:#b0b0b0;stroke-linecap:square;stroke-width:0.8;"/>
     </g>
     <g id="line2d_58">
      <g>
       <use style="stroke:#000000;stroke-width:0.6;" x="356.453676" xlink:href="#m037fd81938" y="293.76"/>
      </g>
     </g>
    </g>
    <g id="xtick_15">
     <g id="line2d_59">
      <path clip-path="url(#p5c0ed59016)" d="M 370.167125 293.76 
L 370.167125 3.456 
" style="fill:none;stroke:#b0b0b0;stroke-linecap:square;stroke-width:0.8;"/>
     </g>
     <g id="line2d_60">
      <g>
       <use style="stroke:#000000;stroke-width:0.6;" x="370.167125" xlink:href="#m037fd81938" y="293.76"/>
      </g>
     </g>
    </g>
    <g id="xtick_16">
     <g id="line2d_61">
      <path clip-path="url(#p5c0ed59016)" d="M 381.761682 293.76 
L 381.761682 3.456 
" style="fill:none;stroke:#b0b0b0;stroke-linecap:square;stroke-width:0.8;"/>
     </g>
     <g id="line2d_62">
      <g>
       <use style="stroke:#000000;stroke-width:0.6;" x="381.761682" xlink:href="#m037fd81938" y="293.76"/>
      </g>
     </g>
    </g>
    <g id="xtick_17">
     <g id="line2d_63">
      <path clip-path="url(#p5c0ed59016)" d="M 391.805343 293.76 
L 391.805343 3.456 
" style="fill:none;stroke:#b0b0b0;stroke-linecap:square;stroke-width:0.8;"/>
     </g>
     <g id="line2d_64">
      <g>
       <use style="stroke:#000000;stroke-width:0.6;" x="391.805343" xlink:href="#m037fd81938" y="293.76"/>
      </g>
     </g>
    </g>
    <g id="xtick_18">
     <g id="line2d_65">
      <path clip-path="url(#p5c0ed59016)" d="M 400.664481 293.76 
L 400.664481 3.456 
" style="fill:none;stroke:#b0b0b0;stroke-linecap:square;stroke-width:0.8;"/>
     </g>
     <g id="line2d_66">
      <g>
       <use style="stroke:#000000;stroke-width:0.6;" x="400.664481" xlink:href="#m037fd81938" y="293.76"/>
      </g>
     </g>
    </g>
    <g id="xtick_19">
     <g id="line2d_67">
      <path clip-path="url(#p5c0ed59016)" d="M 460.724822 293.76 
L 460.724822 3.456 
" style="fill:none;stroke:#b0b0b0;stroke-linecap:square;stroke-width:0.8;"/>
     </g>
     <g id="line2d_68">
      <g>
       <use style="stroke:#000000;stroke-width:0.6;" x="460.724822" xlink:href="#m037fd81938" y="293.76"/>
      </g>
     </g>
    </g>
    <g id="text_3">
     <!-- log10 of FEvals / DIM -->
     <g transform="translate(156.430563 339.313125)scale(0.2 -0.2)">
      <defs>
       <path d="M 9.421875 75.984375 
L 18.40625 75.984375 
L 18.40625 0 
L 9.421875 0 
z
" id="DejaVuSans-108"/>
       <path d="M 30.609375 48.390625 
Q 23.390625 48.390625 19.1875 42.75 
Q 14.984375 37.109375 14.984375 27.296875 
Q 14.984375 17.484375 19.15625 11.84375 
Q 23.34375 6.203125 30.609375 6.203125 
Q 37.796875 6.203125 41.984375 11.859375 
Q 46.1875 17.53125 46.1875 27.296875 
Q 46.1875 37.015625 41.984375 42.703125 
Q 37.796875 48.390625 30.609375 48.390625 
z
M 30.609375 56 
Q 42.328125 56 49.015625 48.375 
Q 55.71875 40.765625 55.71875 27.296875 
Q 55.71875 13.875 49.015625 6.21875 
Q 42.328125 -1.421875 30.609375 -1.421875 
Q 18.84375 -1.421875 12.171875 6.21875 
Q 5.515625 13.875 5.515625 27.296875 
Q 5.515625 40.765625 12.171875 48.375 
Q 18.84375 56 30.609375 56 
z
" id="DejaVuSans-111"/>
       <path d="M 45.40625 27.984375 
Q 45.40625 37.75 41.375 43.109375 
Q 37.359375 48.484375 30.078125 48.484375 
Q 22.859375 48.484375 18.828125 43.109375 
Q 14.796875 37.75 14.796875 27.984375 
Q 14.796875 18.265625 18.828125 12.890625 
Q 22.859375 7.515625 30.078125 7.515625 
Q 37.359375 7.515625 41.375 12.890625 
Q 45.40625 18.265625 45.40625 27.984375 
z
M 54.390625 6.78125 
Q 54.390625 -7.171875 48.1875 -13.984375 
Q 42 -20.796875 29.203125 -20.796875 
Q 24.46875 -20.796875 20.265625 -20.09375 
Q 16.0625 -19.390625 12.109375 -17.921875 
L 12.109375 -9.1875 
Q 16.0625 -11.328125 19.921875 -12.34375 
Q 23.78125 -13.375 27.78125 -13.375 
Q 36.625 -13.375 41.015625 -8.765625 
Q 45.40625 -4.15625 45.40625 5.171875 
L 45.40625 9.625 
Q 42.625 4.78125 38.28125 2.390625 
Q 33.9375 0 27.875 0 
Q 17.828125 0 11.671875 7.65625 
Q 5.515625 15.328125 5.515625 27.984375 
Q 5.515625 40.671875 11.671875 48.328125 
Q 17.828125 56 27.875 56 
Q 33.9375 56 38.28125 53.609375 
Q 42.625 51.21875 45.40625 46.390625 
L 45.40625 54.6875 
L 54.390625 54.6875 
z
" id="DejaVuSans-103"/>
       <path d="M 12.40625 8.296875 
L 28.515625 8.296875 
L 28.515625 63.921875 
L 10.984375 60.40625 
L 10.984375 69.390625 
L 28.421875 72.90625 
L 38.28125 72.90625 
L 38.28125 8.296875 
L 54.390625 8.296875 
L 54.390625 0 
L 12.40625 0 
z
" id="DejaVuSans-49"/>
       <path id="DejaVuSans-32"/>
       <path d="M 37.109375 75.984375 
L 37.109375 68.5 
L 28.515625 68.5 
Q 23.6875 68.5 21.796875 66.546875 
Q 19.921875 64.59375 19.921875 59.515625 
L 19.921875 54.6875 
L 34.71875 54.6875 
L 34.71875 47.703125 
L 19.921875 47.703125 
L 19.921875 0 
L 10.890625 0 
L 10.890625 47.703125 
L 2.296875 47.703125 
L 2.296875 54.6875 
L 10.890625 54.6875 
L 10.890625 58.5 
Q 10.890625 67.625 15.140625 71.796875 
Q 19.390625 75.984375 28.609375 75.984375 
z
" id="DejaVuSans-102"/>
       <path d="M 9.8125 72.90625 
L 51.703125 72.90625 
L 51.703125 64.59375 
L 19.671875 64.59375 
L 19.671875 43.109375 
L 48.578125 43.109375 
L 48.578125 34.8125 
L 19.671875 34.8125 
L 19.671875 0 
L 9.8125 0 
z
" id="DejaVuSans-70"/>
       <path d="M 9.8125 72.90625 
L 55.90625 72.90625 
L 55.90625 64.59375 
L 19.671875 64.59375 
L 19.671875 43.015625 
L 54.390625 43.015625 
L 54.390625 34.71875 
L 19.671875 34.71875 
L 19.671875 8.296875 
L 56.78125 8.296875 
L 56.78125 0 
L 9.8125 0 
z
" id="DejaVuSans-69"/>
       <path d="M 2.984375 54.6875 
L 12.5 54.6875 
L 29.59375 8.796875 
L 46.6875 54.6875 
L 56.203125 54.6875 
L 35.6875 0 
L 23.484375 0 
z
" id="DejaVuSans-118"/>
       <path d="M 34.28125 27.484375 
Q 23.390625 27.484375 19.1875 25 
Q 14.984375 22.515625 14.984375 16.5 
Q 14.984375 11.71875 18.140625 8.90625 
Q 21.296875 6.109375 26.703125 6.109375 
Q 34.1875 6.109375 38.703125 11.40625 
Q 43.21875 16.703125 43.21875 25.484375 
L 43.21875 27.484375 
z
M 52.203125 31.203125 
L 52.203125 0 
L 43.21875 0 
L 43.21875 8.296875 
Q 40.140625 3.328125 35.546875 0.953125 
Q 30.953125 -1.421875 24.3125 -1.421875 
Q 15.921875 -1.421875 10.953125 3.296875 
Q 6 8.015625 6 15.921875 
Q 6 25.140625 12.171875 29.828125 
Q 18.359375 34.515625 30.609375 34.515625 
L 43.21875 34.515625 
L 43.21875 35.40625 
Q 43.21875 41.609375 39.140625 45 
Q 35.0625 48.390625 27.6875 48.390625 
Q 23 48.390625 18.546875 47.265625 
Q 14.109375 46.140625 10.015625 43.890625 
L 10.015625 52.203125 
Q 14.9375 54.109375 19.578125 55.046875 
Q 24.21875 56 28.609375 56 
Q 40.484375 56 46.34375 49.84375 
Q 52.203125 43.703125 52.203125 31.203125 
z
" id="DejaVuSans-97"/>
       <path d="M 44.28125 53.078125 
L 44.28125 44.578125 
Q 40.484375 46.53125 36.375 47.5 
Q 32.28125 48.484375 27.875 48.484375 
Q 21.1875 48.484375 17.84375 46.4375 
Q 14.5 44.390625 14.5 40.28125 
Q 14.5 37.15625 16.890625 35.375 
Q 19.28125 33.59375 26.515625 31.984375 
L 29.59375 31.296875 
Q 39.15625 29.25 43.1875 25.515625 
Q 47.21875 21.78125 47.21875 15.09375 
Q 47.21875 7.46875 41.1875 3.015625 
Q 35.15625 -1.421875 24.609375 -1.421875 
Q 20.21875 -1.421875 15.453125 -0.5625 
Q 10.6875 0.296875 5.421875 2 
L 5.421875 11.28125 
Q 10.40625 8.6875 15.234375 7.390625 
Q 20.0625 6.109375 24.8125 6.109375 
Q 31.15625 6.109375 34.5625 8.28125 
Q 37.984375 10.453125 37.984375 14.40625 
Q 37.984375 18.0625 35.515625 20.015625 
Q 33.0625 21.96875 24.703125 23.78125 
L 21.578125 24.515625 
Q 13.234375 26.265625 9.515625 29.90625 
Q 5.8125 33.546875 5.8125 39.890625 
Q 5.8125 47.609375 11.28125 51.796875 
Q 16.75 56 26.8125 56 
Q 31.78125 56 36.171875 55.265625 
Q 40.578125 54.546875 44.28125 53.078125 
z
" id="DejaVuSans-115"/>
       <path d="M 25.390625 72.90625 
L 33.6875 72.90625 
L 8.296875 -9.28125 
L 0 -9.28125 
z
" id="DejaVuSans-47"/>
       <path d="M 19.671875 64.796875 
L 19.671875 8.109375 
L 31.59375 8.109375 
Q 46.6875 8.109375 53.6875 14.9375 
Q 60.6875 21.78125 60.6875 36.53125 
Q 60.6875 51.171875 53.6875 57.984375 
Q 46.6875 64.796875 31.59375 64.796875 
z
M 9.8125 72.90625 
L 30.078125 72.90625 
Q 51.265625 72.90625 61.171875 64.09375 
Q 71.09375 55.28125 71.09375 36.53125 
Q 71.09375 17.671875 61.125 8.828125 
Q 51.171875 0 30.078125 0 
L 9.8125 0 
z
" id="DejaVuSans-68"/>
       <path d="M 9.8125 72.90625 
L 19.671875 72.90625 
L 19.671875 0 
L 9.8125 0 
z
" id="DejaVuSans-73"/>
       <path d="M 9.8125 72.90625 
L 24.515625 72.90625 
L 43.109375 23.296875 
L 61.8125 72.90625 
L 76.515625 72.90625 
L 76.515625 0 
L 66.890625 0 
L 66.890625 64.015625 
L 48.09375 14.015625 
L 38.1875 14.015625 
L 19.390625 64.015625 
L 19.390625 0 
L 9.8125 0 
z
" id="DejaVuSans-77"/>
      </defs>
      <use xlink:href="#DejaVuSans-108"/>
      <use x="27.783203" xlink:href="#DejaVuSans-111"/>
      <use x="88.964844" xlink:href="#DejaVuSans-103"/>
      <use x="152.441406" xlink:href="#DejaVuSans-49"/>
      <use x="216.064453" xlink:href="#DejaVuSans-48"/>
      <use x="279.6875" xlink:href="#DejaVuSans-32"/>
      <use x="311.474609" xlink:href="#DejaVuSans-111"/>
      <use x="372.65625" xlink:href="#DejaVuSans-102"/>
      <use x="407.861328" xlink:href="#DejaVuSans-32"/>
      <use x="439.648438" xlink:href="#DejaVuSans-70"/>
      <use x="497.167969" xlink:href="#DejaVuSans-69"/>
      <use x="560.351562" xlink:href="#DejaVuSans-118"/>
      <use x="619.53125" xlink:href="#DejaVuSans-97"/>
      <use x="680.810547" xlink:href="#DejaVuSans-108"/>
      <use x="708.59375" xlink:href="#DejaVuSans-115"/>
      <use x="760.693359" xlink:href="#DejaVuSans-32"/>
      <use x="792.480469" xlink:href="#DejaVuSans-47"/>
      <use x="826.171875" xlink:href="#DejaVuSans-32"/>
      <use x="857.958984" xlink:href="#DejaVuSans-68"/>
      <use x="934.960938" xlink:href="#DejaVuSans-73"/>
      <use x="964.453125" xlink:href="#DejaVuSans-77"/>
     </g>
    </g>
   </g>
   <g id="matplotlib.axis_2">
    <g id="ytick_1">
     <g id="line2d_69">
      <path clip-path="url(#p5c0ed59016)" d="M 62.208 293.76 
L 460.8 293.76 
" style="fill:none;stroke:#b0b0b0;stroke-linecap:square;stroke-width:0.8;"/>
     </g>
     <g id="line2d_70">
      <defs>
       <path d="M 0 0 
L -3.5 0 
" id="m5c942f58b5" style="stroke:#000000;stroke-width:0.8;"/>
      </defs>
      <g>
       <use style="stroke:#000000;stroke-width:0.8;" x="62.208" xlink:href="#m5c942f58b5" y="293.76"/>
      </g>
     </g>
     <g id="text_4">
      <!-- 0.0 -->
      <g transform="translate(29.763 299.83875)scale(0.16 -0.16)">
       <defs>
        <path d="M 10.6875 12.40625 
L 21 12.40625 
L 21 0 
L 10.6875 0 
z
" id="DejaVuSans-46"/>
       </defs>
       <use xlink:href="#DejaVuSans-48"/>
       <use x="63.623047" xlink:href="#DejaVuSans-46"/>
       <use x="95.410156" xlink:href="#DejaVuSans-48"/>
      </g>
     </g>
    </g>
    <g id="ytick_2">
     <g id="line2d_71">
      <path clip-path="url(#p5c0ed59016)" d="M 62.208 236.274059 
L 460.8 236.274059 
" style="fill:none;stroke:#b0b0b0;stroke-linecap:square;stroke-width:0.8;"/>
     </g>
     <g id="line2d_72">
      <g>
       <use style="stroke:#000000;stroke-width:0.8;" x="62.208" xlink:href="#m5c942f58b5" y="236.274059"/>
      </g>
     </g>
     <g id="text_5">
      <!-- 0.2 -->
      <g transform="translate(29.763 242.352809)scale(0.16 -0.16)">
       <use xlink:href="#DejaVuSans-48"/>
       <use x="63.623047" xlink:href="#DejaVuSans-46"/>
       <use x="95.410156" xlink:href="#DejaVuSans-50"/>
      </g>
     </g>
    </g>
    <g id="ytick_3">
     <g id="line2d_73">
      <path clip-path="url(#p5c0ed59016)" d="M 62.208 178.788119 
L 460.8 178.788119 
" style="fill:none;stroke:#b0b0b0;stroke-linecap:square;stroke-width:0.8;"/>
     </g>
     <g id="line2d_74">
      <g>
       <use style="stroke:#000000;stroke-width:0.8;" x="62.208" xlink:href="#m5c942f58b5" y="178.788119"/>
      </g>
     </g>
     <g id="text_6">
      <!-- 0.4 -->
      <g transform="translate(29.763 184.866869)scale(0.16 -0.16)">
       <defs>
        <path d="M 37.796875 64.3125 
L 12.890625 25.390625 
L 37.796875 25.390625 
z
M 35.203125 72.90625 
L 47.609375 72.90625 
L 47.609375 25.390625 
L 58.015625 25.390625 
L 58.015625 17.1875 
L 47.609375 17.1875 
L 47.609375 0 
L 37.796875 0 
L 37.796875 17.1875 
L 4.890625 17.1875 
L 4.890625 26.703125 
z
" id="DejaVuSans-52"/>
       </defs>
       <use xlink:href="#DejaVuSans-48"/>
       <use x="63.623047" xlink:href="#DejaVuSans-46"/>
       <use x="95.410156" xlink:href="#DejaVuSans-52"/>
      </g>
     </g>
    </g>
    <g id="ytick_4">
     <g id="line2d_75">
      <path clip-path="url(#p5c0ed59016)" d="M 62.208 121.302178 
L 460.8 121.302178 
" style="fill:none;stroke:#b0b0b0;stroke-linecap:square;stroke-width:0.8;"/>
     </g>
     <g id="line2d_76">
      <g>
       <use style="stroke:#000000;stroke-width:0.8;" x="62.208" xlink:href="#m5c942f58b5" y="121.302178"/>
      </g>
     </g>
     <g id="text_7">
      <!-- 0.6 -->
      <g transform="translate(29.763 127.380928)scale(0.16 -0.16)">
       <defs>
        <path d="M 33.015625 40.375 
Q 26.375 40.375 22.484375 35.828125 
Q 18.609375 31.296875 18.609375 23.390625 
Q 18.609375 15.53125 22.484375 10.953125 
Q 26.375 6.390625 33.015625 6.390625 
Q 39.65625 6.390625 43.53125 10.953125 
Q 47.40625 15.53125 47.40625 23.390625 
Q 47.40625 31.296875 43.53125 35.828125 
Q 39.65625 40.375 33.015625 40.375 
z
M 52.59375 71.296875 
L 52.59375 62.3125 
Q 48.875 64.0625 45.09375 64.984375 
Q 41.3125 65.921875 37.59375 65.921875 
Q 27.828125 65.921875 22.671875 59.328125 
Q 17.53125 52.734375 16.796875 39.40625 
Q 19.671875 43.65625 24.015625 45.921875 
Q 28.375 48.1875 33.59375 48.1875 
Q 44.578125 48.1875 50.953125 41.515625 
Q 57.328125 34.859375 57.328125 23.390625 
Q 57.328125 12.15625 50.6875 5.359375 
Q 44.046875 -1.421875 33.015625 -1.421875 
Q 20.359375 -1.421875 13.671875 8.265625 
Q 6.984375 17.96875 6.984375 36.375 
Q 6.984375 53.65625 15.1875 63.9375 
Q 23.390625 74.21875 37.203125 74.21875 
Q 40.921875 74.21875 44.703125 73.484375 
Q 48.484375 72.75 52.59375 71.296875 
z
" id="DejaVuSans-54"/>
       </defs>
       <use xlink:href="#DejaVuSans-48"/>
       <use x="63.623047" xlink:href="#DejaVuSans-46"/>
       <use x="95.410156" xlink:href="#DejaVuSans-54"/>
      </g>
     </g>
    </g>
    <g id="ytick_5">
     <g id="line2d_77">
      <path clip-path="url(#p5c0ed59016)" d="M 62.208 63.816238 
L 460.8 63.816238 
" style="fill:none;stroke:#b0b0b0;stroke-linecap:square;stroke-width:0.8;"/>
     </g>
     <g id="line2d_78">
      <g>
       <use style="stroke:#000000;stroke-width:0.8;" x="62.208" xlink:href="#m5c942f58b5" y="63.816238"/>
      </g>
     </g>
     <g id="text_8">
      <!-- 0.8 -->
      <g transform="translate(29.763 69.894988)scale(0.16 -0.16)">
       <defs>
        <path d="M 31.78125 34.625 
Q 24.75 34.625 20.71875 30.859375 
Q 16.703125 27.09375 16.703125 20.515625 
Q 16.703125 13.921875 20.71875 10.15625 
Q 24.75 6.390625 31.78125 6.390625 
Q 38.8125 6.390625 42.859375 10.171875 
Q 46.921875 13.96875 46.921875 20.515625 
Q 46.921875 27.09375 42.890625 30.859375 
Q 38.875 34.625 31.78125 34.625 
z
M 21.921875 38.8125 
Q 15.578125 40.375 12.03125 44.71875 
Q 8.5 49.078125 8.5 55.328125 
Q 8.5 64.0625 14.71875 69.140625 
Q 20.953125 74.21875 31.78125 74.21875 
Q 42.671875 74.21875 48.875 69.140625 
Q 55.078125 64.0625 55.078125 55.328125 
Q 55.078125 49.078125 51.53125 44.71875 
Q 48 40.375 41.703125 38.8125 
Q 48.828125 37.15625 52.796875 32.3125 
Q 56.78125 27.484375 56.78125 20.515625 
Q 56.78125 9.90625 50.3125 4.234375 
Q 43.84375 -1.421875 31.78125 -1.421875 
Q 19.734375 -1.421875 13.25 4.234375 
Q 6.78125 9.90625 6.78125 20.515625 
Q 6.78125 27.484375 10.78125 32.3125 
Q 14.796875 37.15625 21.921875 38.8125 
z
M 18.3125 54.390625 
Q 18.3125 48.734375 21.84375 45.5625 
Q 25.390625 42.390625 31.78125 42.390625 
Q 38.140625 42.390625 41.71875 45.5625 
Q 45.3125 48.734375 45.3125 54.390625 
Q 45.3125 60.0625 41.71875 63.234375 
Q 38.140625 66.40625 31.78125 66.40625 
Q 25.390625 66.40625 21.84375 63.234375 
Q 18.3125 60.0625 18.3125 54.390625 
z
" id="DejaVuSans-56"/>
       </defs>
       <use xlink:href="#DejaVuSans-48"/>
       <use x="63.623047" xlink:href="#DejaVuSans-46"/>
       <use x="95.410156" xlink:href="#DejaVuSans-56"/>
      </g>
     </g>
    </g>
    <g id="ytick_6">
     <g id="line2d_79">
      <path clip-path="url(#p5c0ed59016)" d="M 62.208 6.330297 
L 460.8 6.330297 
" style="fill:none;stroke:#b0b0b0;stroke-linecap:square;stroke-width:0.8;"/>
     </g>
     <g id="line2d_80">
      <g>
       <use style="stroke:#000000;stroke-width:0.8;" x="62.208" xlink:href="#m5c942f58b5" y="6.330297"/>
      </g>
     </g>
     <g id="text_9">
      <!-- 1.0 -->
      <g transform="translate(29.763 12.409047)scale(0.16 -0.16)">
       <use xlink:href="#DejaVuSans-49"/>
       <use x="63.623047" xlink:href="#DejaVuSans-46"/>
       <use x="95.410156" xlink:href="#DejaVuSans-48"/>
      </g>
     </g>
    </g>
    <g id="text_10">
     <!-- proportion of trials -->
     <g transform="translate(21.603625 241.61425)rotate(-90)scale(0.2 -0.2)">
      <defs>
       <path d="M 18.109375 8.203125 
L 18.109375 -20.796875 
L 9.078125 -20.796875 
L 9.078125 54.6875 
L 18.109375 54.6875 
L 18.109375 46.390625 
Q 20.953125 51.265625 25.265625 53.625 
Q 29.59375 56 35.59375 56 
Q 45.5625 56 51.78125 48.09375 
Q 58.015625 40.1875 58.015625 27.296875 
Q 58.015625 14.40625 51.78125 6.484375 
Q 45.5625 -1.421875 35.59375 -1.421875 
Q 29.59375 -1.421875 25.265625 0.953125 
Q 20.953125 3.328125 18.109375 8.203125 
z
M 48.6875 27.296875 
Q 48.6875 37.203125 44.609375 42.84375 
Q 40.53125 48.484375 33.40625 48.484375 
Q 26.265625 48.484375 22.1875 42.84375 
Q 18.109375 37.203125 18.109375 27.296875 
Q 18.109375 17.390625 22.1875 11.75 
Q 26.265625 6.109375 33.40625 6.109375 
Q 40.53125 6.109375 44.609375 11.75 
Q 48.6875 17.390625 48.6875 27.296875 
z
" id="DejaVuSans-112"/>
       <path d="M 41.109375 46.296875 
Q 39.59375 47.171875 37.8125 47.578125 
Q 36.03125 48 33.890625 48 
Q 26.265625 48 22.1875 43.046875 
Q 18.109375 38.09375 18.109375 28.8125 
L 18.109375 0 
L 9.078125 0 
L 9.078125 54.6875 
L 18.109375 54.6875 
L 18.109375 46.1875 
Q 20.953125 51.171875 25.484375 53.578125 
Q 30.03125 56 36.53125 56 
Q 37.453125 56 38.578125 55.875 
Q 39.703125 55.765625 41.0625 55.515625 
z
" id="DejaVuSans-114"/>
       <path d="M 18.3125 70.21875 
L 18.3125 54.6875 
L 36.8125 54.6875 
L 36.8125 47.703125 
L 18.3125 47.703125 
L 18.3125 18.015625 
Q 18.3125 11.328125 20.140625 9.421875 
Q 21.96875 7.515625 27.59375 7.515625 
L 36.8125 7.515625 
L 36.8125 0 
L 27.59375 0 
Q 17.1875 0 13.234375 3.875 
Q 9.28125 7.765625 9.28125 18.015625 
L 9.28125 47.703125 
L 2.6875 47.703125 
L 2.6875 54.6875 
L 9.28125 54.6875 
L 9.28125 70.21875 
z
" id="DejaVuSans-116"/>
       <path d="M 9.421875 54.6875 
L 18.40625 54.6875 
L 18.40625 0 
L 9.421875 0 
z
M 9.421875 75.984375 
L 18.40625 75.984375 
L 18.40625 64.59375 
L 9.421875 64.59375 
z
" id="DejaVuSans-105"/>
       <path d="M 54.890625 33.015625 
L 54.890625 0 
L 45.90625 0 
L 45.90625 32.71875 
Q 45.90625 40.484375 42.875 44.328125 
Q 39.84375 48.1875 33.796875 48.1875 
Q 26.515625 48.1875 22.3125 43.546875 
Q 18.109375 38.921875 18.109375 30.90625 
L 18.109375 0 
L 9.078125 0 
L 9.078125 54.6875 
L 18.109375 54.6875 
L 18.109375 46.1875 
Q 21.34375 51.125 25.703125 53.5625 
Q 30.078125 56 35.796875 56 
Q 45.21875 56 50.046875 50.171875 
Q 54.890625 44.34375 54.890625 33.015625 
z
" id="DejaVuSans-110"/>
      </defs>
      <use xlink:href="#DejaVuSans-112"/>
      <use x="63.476562" xlink:href="#DejaVuSans-114"/>
      <use x="102.339844" xlink:href="#DejaVuSans-111"/>
      <use x="163.521484" xlink:href="#DejaVuSans-112"/>
      <use x="226.998047" xlink:href="#DejaVuSans-111"/>
      <use x="288.179688" xlink:href="#DejaVuSans-114"/>
      <use x="329.292969" xlink:href="#DejaVuSans-116"/>
      <use x="368.501953" xlink:href="#DejaVuSans-105"/>
      <use x="396.285156" xlink:href="#DejaVuSans-111"/>
      <use x="457.466797" xlink:href="#DejaVuSans-110"/>
      <use x="520.845703" xlink:href="#DejaVuSans-32"/>
      <use x="552.632812" xlink:href="#DejaVuSans-111"/>
      <use x="613.814453" xlink:href="#DejaVuSans-102"/>
      <use x="649.019531" xlink:href="#DejaVuSans-32"/>
      <use x="680.806641" xlink:href="#DejaVuSans-116"/>
      <use x="720.015625" xlink:href="#DejaVuSans-114"/>
      <use x="761.128906" xlink:href="#DejaVuSans-105"/>
      <use x="788.912109" xlink:href="#DejaVuSans-97"/>
      <use x="850.191406" xlink:href="#DejaVuSans-108"/>
      <use x="877.974609" xlink:href="#DejaVuSans-115"/>
     </g>
    </g>
   </g>
   <g id="line2d_81">
    <path clip-path="url(#p5c0ed59016)" d="M 249.112074 293.76 
L 249.112074 289.927604 
L 250.355337 289.927604 
L 250.355337 286.095208 
L 256.280899 286.095208 
L 256.280899 282.262812 
L 258.526311 282.262812 
L 258.526311 278.430416 
L 259.624371 278.430416 
L 259.624371 274.59802 
L 264.886357 274.59802 
L 264.886357 270.765624 
L 264.886357 270.765624 
L 264.886357 266.933228 
L 265.89598 266.933228 
L 265.89598 263.100832 
L 267.875455 263.100832 
L 267.875455 259.268436 
L 274.42008 259.268436 
L 274.42008 255.43604 
L 274.42008 255.43604 
L 274.42008 251.603644 
L 277.919117 251.603644 
L 277.919117 247.771248 
L 288.282619 247.771248 
L 288.282619 243.938851 
L 288.282619 243.938851 
L 288.282619 240.106455 
L 302.49091 240.106455 
L 302.49091 236.274059 
L 323.3545 236.274059 
L 323.3545 232.441663 
L 334.614615 232.441663 
L 334.614615 228.609267 
L 335.811708 228.609267 
L 335.811708 224.776871 
L 341.527043 224.776871 
L 341.527043 220.944475 
L 359.403691 220.944475 
L 359.403691 217.112079 
L 362.797457 217.112079 
L 362.797457 213.279683 
L 375.490073 213.279683 
L 375.490073 209.447287 
L 375.490073 209.447287 
L 375.490073 205.614891 
L 419.882339 205.614891 
L 419.882339 201.782495 
L 441.358559 201.782495 
L 441.358559 197.950099 
L 457.182792 197.950099 
L 457.182792 194.117703 
L 457.182792 194.117703 
L 457.182792 194.117703 
L 460.8 194.117703 
" style="fill:none;stroke:#000000;stroke-linecap:square;stroke-width:1.5;"/>
   </g>
   <g id="line2d_82">
    <path clip-path="url(#p5c0ed59016)" style="fill:none;stroke:#000000;stroke-linecap:square;stroke-width:1.5;"/>
   </g>
   <g id="line2d_83">
    <path clip-path="url(#p5c0ed59016)" d="M 287.534197 293.76 
L 287.534197 289.927604 
L 287.534197 289.927604 
L 287.534197 286.095208 
L 291.203985 286.095208 
L 291.203985 282.262812 
L 292.623192 282.262812 
L 292.623192 278.430416 
L 292.623192 278.430416 
L 292.623192 274.59802 
L 337.378759 274.59802 
L 337.378759 270.765624 
L 378.691226 270.765624 
L 378.691226 266.933228 
L 378.691226 266.933228 
L 378.691226 263.100832 
L 382.828589 263.100832 
L 382.828589 259.268436 
L 404.889369 259.268436 
L 404.889369 255.43604 
L 417.914945 255.43604 
L 417.914945 251.603644 
L 421.673274 251.603644 
L 421.673274 247.771248 
L 447.161654 247.771248 
L 447.161654 243.938851 
L 453.878731 243.938851 
L 453.878731 240.106455 
L 456.070818 240.106455 
L 456.070818 236.274059 
L 457.024942 236.274059 
L 457.024942 232.441663 
L 457.024942 232.441663 
L 457.024942 232.441663 
L 460.8 232.441663 
" style="fill:none;stroke:#00bfbf;stroke-linecap:square;stroke-width:1.5;"/>
   </g>
   <g id="line2d_84">
    <path clip-path="url(#p5c0ed59016)" style="fill:none;stroke:#00bfbf;stroke-linecap:square;stroke-width:1.5;"/>
   </g>
   <g id="line2d_85">
    <path clip-path="url(#p5c0ed59016)" d="M 287.534197 293.76 
L 287.534197 289.927604 
L 287.534197 289.927604 
L 287.534197 286.095208 
L 291.203985 286.095208 
L 291.203985 282.262812 
L 292.623192 282.262812 
L 292.623192 278.430416 
L 292.623192 278.430416 
L 292.623192 274.59802 
L 337.378759 274.59802 
L 337.378759 270.765624 
L 378.691226 270.765624 
L 378.691226 266.933228 
L 378.691226 266.933228 
L 378.691226 263.100832 
L 382.828589 263.100832 
L 382.828589 259.268436 
L 451.875086 259.268436 
L 451.875086 255.43604 
L 454.043317 255.43604 
L 454.043317 251.603644 
L 456.150792 251.603644 
L 456.150792 247.771248 
L 459.816774 247.771248 
L 459.816774 243.938851 
L 459.816774 243.938851 
L 459.816774 243.938851 
L 460.8 243.938851 
" style="fill:none;stroke:#bf00bf;stroke-linecap:square;stroke-width:1.5;"/>
   </g>
   <g id="line2d_86">
    <path clip-path="url(#p5c0ed59016)" style="fill:none;stroke:#bf00bf;stroke-linecap:square;stroke-width:1.5;"/>
   </g>
   <g id="line2d_87">
    <path clip-path="url(#p5c0ed59016)" d="M 287.534197 293.76 
L 287.534197 289.927604 
L 287.534197 289.927604 
L 287.534197 286.095208 
L 291.203985 286.095208 
L 291.203985 282.262812 
L 292.623192 282.262812 
L 292.623192 278.430416 
L 292.623192 278.430416 
L 292.623192 274.59802 
L 337.378759 274.59802 
L 337.378759 270.765624 
L 378.691226 270.765624 
L 378.691226 266.933228 
L 378.691226 266.933228 
L 378.691226 263.100832 
L 382.828589 263.100832 
L 382.828589 259.268436 
L 458.045098 259.268436 
L 458.045098 255.43604 
L 458.045098 255.43604 
L 458.045098 255.43604 
L 460.8 255.43604 
" style="fill:none;stroke:#ff0000;stroke-linecap:square;stroke-width:3;"/>
   </g>
   <g id="line2d_88">
    <path clip-path="url(#p5c0ed59016)" style="fill:none;stroke:#ff0000;stroke-linecap:square;stroke-width:3;"/>
   </g>
   <g id="line2d_89">
    <path clip-path="url(#p5c0ed59016)" d="M 460.8 293.76 
L 460.8 3.456 
" style="fill:none;stroke:#000000;stroke-linecap:square;stroke-width:1.5;"/>
   </g>
   <g id="patch_3">
    <path d="M 62.208 293.76 
L 62.208 3.456 
" style="fill:none;stroke:#000000;stroke-linecap:square;stroke-linejoin:miter;stroke-width:0.8;"/>
   </g>
   <g id="patch_4">
    <path d="M 460.8 293.76 
L 460.8 3.456 
" style="fill:none;stroke:#000000;stroke-linecap:square;stroke-linejoin:miter;stroke-width:0.8;"/>
   </g>
   <g id="patch_5">
    <path d="M 62.208 293.76 
L 460.8 293.76 
" style="fill:none;stroke:#000000;stroke-linecap:square;stroke-linejoin:miter;stroke-width:0.8;"/>
   </g>
   <g id="patch_6">
    <path d="M 62.208 3.456 
L 460.8 3.456 
" style="fill:none;stroke:#000000;stroke-linecap:square;stroke-linejoin:miter;stroke-width:0.8;"/>
   </g>
   <g id="text_11">
    <!-- {f1-f5}, 5-D -->
    <g transform="translate(201.379 24.458955)scale(0.2 -0.2)">
     <defs>
      <path d="M 51.125 -9.28125 
L 51.125 -16.3125 
L 48.09375 -16.3125 
Q 35.9375 -16.3125 31.8125 -12.6875 
Q 27.6875 -9.078125 27.6875 1.703125 
L 27.6875 13.375 
Q 27.6875 20.75 25.046875 23.578125 
Q 22.40625 26.421875 15.484375 26.421875 
L 12.5 26.421875 
L 12.5 33.40625 
L 15.484375 33.40625 
Q 22.46875 33.40625 25.078125 36.203125 
Q 27.6875 39.015625 27.6875 46.296875 
L 27.6875 58.015625 
Q 27.6875 68.796875 31.8125 72.390625 
Q 35.9375 75.984375 48.09375 75.984375 
L 51.125 75.984375 
L 51.125 69 
L 47.796875 69 
Q 40.921875 69 38.8125 66.84375 
Q 36.71875 64.703125 36.71875 57.8125 
L 36.71875 45.703125 
Q 36.71875 38.03125 34.5 34.5625 
Q 32.28125 31.109375 26.90625 29.890625 
Q 32.328125 28.5625 34.515625 25.09375 
Q 36.71875 21.625 36.71875 14.015625 
L 36.71875 1.90625 
Q 36.71875 -4.984375 38.8125 -7.125 
Q 40.921875 -9.28125 47.796875 -9.28125 
z
" id="DejaVuSans-123"/>
      <path d="M 4.890625 31.390625 
L 31.203125 31.390625 
L 31.203125 23.390625 
L 4.890625 23.390625 
z
" id="DejaVuSans-45"/>
      <path d="M 10.796875 72.90625 
L 49.515625 72.90625 
L 49.515625 64.59375 
L 19.828125 64.59375 
L 19.828125 46.734375 
Q 21.96875 47.46875 24.109375 47.828125 
Q 26.265625 48.1875 28.421875 48.1875 
Q 40.625 48.1875 47.75 41.5 
Q 54.890625 34.8125 54.890625 23.390625 
Q 54.890625 11.625 47.5625 5.09375 
Q 40.234375 -1.421875 26.90625 -1.421875 
Q 22.3125 -1.421875 17.546875 -0.640625 
Q 12.796875 0.140625 7.71875 1.703125 
L 7.71875 11.625 
Q 12.109375 9.234375 16.796875 8.0625 
Q 21.484375 6.890625 26.703125 6.890625 
Q 35.15625 6.890625 40.078125 11.328125 
Q 45.015625 15.765625 45.015625 23.390625 
Q 45.015625 31 40.078125 35.4375 
Q 35.15625 39.890625 26.703125 39.890625 
Q 22.75 39.890625 18.8125 39.015625 
Q 14.890625 38.140625 10.796875 36.28125 
z
" id="DejaVuSans-53"/>
      <path d="M 12.5 -9.28125 
L 15.921875 -9.28125 
Q 22.75 -9.28125 24.828125 -7.171875 
Q 26.90625 -5.078125 26.90625 1.90625 
L 26.90625 14.015625 
Q 26.90625 21.625 29.09375 25.09375 
Q 31.296875 28.5625 36.71875 29.890625 
Q 31.296875 31.109375 29.09375 34.5625 
Q 26.90625 38.03125 26.90625 45.703125 
L 26.90625 57.8125 
Q 26.90625 64.75 24.828125 66.875 
Q 22.75 69 15.921875 69 
L 12.5 69 
L 12.5 75.984375 
L 15.578125 75.984375 
Q 27.734375 75.984375 31.8125 72.390625 
Q 35.890625 68.796875 35.890625 58.015625 
L 35.890625 46.296875 
Q 35.890625 39.015625 38.515625 36.203125 
Q 41.15625 33.40625 48.09375 33.40625 
L 51.125 33.40625 
L 51.125 26.421875 
L 48.09375 26.421875 
Q 41.15625 26.421875 38.515625 23.578125 
Q 35.890625 20.75 35.890625 13.375 
L 35.890625 1.703125 
Q 35.890625 -9.078125 31.8125 -12.6875 
Q 27.734375 -16.3125 15.578125 -16.3125 
L 12.5 -16.3125 
z
" id="DejaVuSans-125"/>
      <path d="M 11.71875 12.40625 
L 22.015625 12.40625 
L 22.015625 4 
L 14.015625 -11.625 
L 7.71875 -11.625 
L 11.71875 4 
z
" id="DejaVuSans-44"/>
     </defs>
     <use xlink:href="#DejaVuSans-123"/>
     <use x="63.623047" xlink:href="#DejaVuSans-102"/>
     <use x="98.828125" xlink:href="#DejaVuSans-49"/>
     <use x="162.451172" xlink:href="#DejaVuSans-45"/>
     <use x="198.535156" xlink:href="#DejaVuSans-102"/>
     <use x="233.740234" xlink:href="#DejaVuSans-53"/>
     <use x="297.363281" xlink:href="#DejaVuSans-125"/>
     <use x="360.986328" xlink:href="#DejaVuSans-44"/>
     <use x="392.773438" xlink:href="#DejaVuSans-32"/>
     <use x="424.560547" xlink:href="#DejaVuSans-53"/>
     <use x="488.183594" xlink:href="#DejaVuSans-45"/>
     <use x="524.267578" xlink:href="#DejaVuSans-68"/>
    </g>
   </g>
   <g id="text_12">
    <!-- absolute targets -->
    <g transform="translate(62.208 609.932673)scale(0.14 -0.14)">
     <defs>
      <path d="M 48.6875 27.296875 
Q 48.6875 37.203125 44.609375 42.84375 
Q 40.53125 48.484375 33.40625 48.484375 
Q 26.265625 48.484375 22.1875 42.84375 
Q 18.109375 37.203125 18.109375 27.296875 
Q 18.109375 17.390625 22.1875 11.75 
Q 26.265625 6.109375 33.40625 6.109375 
Q 40.53125 6.109375 44.609375 11.75 
Q 48.6875 17.390625 48.6875 27.296875 
z
M 18.109375 46.390625 
Q 20.953125 51.265625 25.265625 53.625 
Q 29.59375 56 35.59375 56 
Q 45.5625 56 51.78125 48.09375 
Q 58.015625 40.1875 58.015625 27.296875 
Q 58.015625 14.40625 51.78125 6.484375 
Q 45.5625 -1.421875 35.59375 -1.421875 
Q 29.59375 -1.421875 25.265625 0.953125 
Q 20.953125 3.328125 18.109375 8.203125 
L 18.109375 0 
L 9.078125 0 
L 9.078125 75.984375 
L 18.109375 75.984375 
z
" id="DejaVuSans-98"/>
      <path d="M 8.5 21.578125 
L 8.5 54.6875 
L 17.484375 54.6875 
L 17.484375 21.921875 
Q 17.484375 14.15625 20.5 10.265625 
Q 23.53125 6.390625 29.59375 6.390625 
Q 36.859375 6.390625 41.078125 11.03125 
Q 45.3125 15.671875 45.3125 23.6875 
L 45.3125 54.6875 
L 54.296875 54.6875 
L 54.296875 0 
L 45.3125 0 
L 45.3125 8.40625 
Q 42.046875 3.421875 37.71875 1 
Q 33.40625 -1.421875 27.6875 -1.421875 
Q 18.265625 -1.421875 13.375 4.4375 
Q 8.5 10.296875 8.5 21.578125 
z
M 31.109375 56 
z
" id="DejaVuSans-117"/>
      <path d="M 56.203125 29.59375 
L 56.203125 25.203125 
L 14.890625 25.203125 
Q 15.484375 15.921875 20.484375 11.0625 
Q 25.484375 6.203125 34.421875 6.203125 
Q 39.59375 6.203125 44.453125 7.46875 
Q 49.3125 8.734375 54.109375 11.28125 
L 54.109375 2.78125 
Q 49.265625 0.734375 44.1875 -0.34375 
Q 39.109375 -1.421875 33.890625 -1.421875 
Q 20.796875 -1.421875 13.15625 6.1875 
Q 5.515625 13.8125 5.515625 26.8125 
Q 5.515625 40.234375 12.765625 48.109375 
Q 20.015625 56 32.328125 56 
Q 43.359375 56 49.78125 48.890625 
Q 56.203125 41.796875 56.203125 29.59375 
z
M 47.21875 32.234375 
Q 47.125 39.59375 43.09375 43.984375 
Q 39.0625 48.390625 32.421875 48.390625 
Q 24.90625 48.390625 20.390625 44.140625 
Q 15.875 39.890625 15.1875 32.171875 
z
" id="DejaVuSans-101"/>
     </defs>
     <use xlink:href="#DejaVuSans-97"/>
     <use x="61.279297" xlink:href="#DejaVuSans-98"/>
     <use x="124.755859" xlink:href="#DejaVuSans-115"/>
     <use x="176.855469" xlink:href="#DejaVuSans-111"/>
     <use x="238.037109" xlink:href="#DejaVuSans-108"/>
     <use x="265.820312" xlink:href="#DejaVuSans-117"/>
     <use x="329.199219" xlink:href="#DejaVuSans-116"/>
     <use x="368.408203" xlink:href="#DejaVuSans-101"/>
     <use x="429.931641" xlink:href="#DejaVuSans-32"/>
     <use x="461.71875" xlink:href="#DejaVuSans-116"/>
     <use x="500.927734" xlink:href="#DejaVuSans-97"/>
     <use x="562.207031" xlink:href="#DejaVuSans-114"/>
     <use x="601.570312" xlink:href="#DejaVuSans-103"/>
     <use x="665.046875" xlink:href="#DejaVuSans-101"/>
     <use x="726.570312" xlink:href="#DejaVuSans-116"/>
     <use x="765.779297" xlink:href="#DejaVuSans-115"/>
    </g>
   </g>
   <g id="text_13">
    <!-- v2.4 -->
    <g style="fill:#808080;" transform="translate(250.593063 288.777272)scale(0.1 -0.1)">
     <use xlink:href="#DejaVuSans-118"/>
     <use x="59.179688" xlink:href="#DejaVuSans-50"/>
     <use x="122.802734" xlink:href="#DejaVuSans-46"/>
     <use x="154.589844" xlink:href="#DejaVuSans-52"/>
    </g>
   </g>
   <g id="legend_1">
    <g id="patch_7">
     <path d="M 76.208 136.881 
L 205.429875 136.881 
Q 209.429875 136.881 209.429875 132.881 
L 209.429875 17.456 
Q 209.429875 13.456 205.429875 13.456 
L 76.208 13.456 
Q 72.208 13.456 72.208 17.456 
L 72.208 132.881 
Q 72.208 136.881 76.208 136.881 
z
" style="fill:#ffffff;opacity:0.2;stroke:#cccccc;stroke-linejoin:miter;"/>
    </g>
    <g id="line2d_90">
     <path d="M 80.208 29.652875 
L 120.208 29.652875 
" style="fill:none;stroke:#000000;stroke-linecap:square;stroke-width:1.5;"/>
    </g>
    <g id="line2d_91"/>
    <g id="text_14">
     <!-- 1: 2/5 -->
     <g transform="translate(136.208 36.652875)scale(0.2 -0.2)">
      <defs>
       <path d="M 11.71875 12.40625 
L 22.015625 12.40625 
L 22.015625 0 
L 11.71875 0 
z
M 11.71875 51.703125 
L 22.015625 51.703125 
L 22.015625 39.3125 
L 11.71875 39.3125 
z
" id="DejaVuSans-58"/>
      </defs>
      <use xlink:href="#DejaVuSans-49"/>
      <use x="63.623047" xlink:href="#DejaVuSans-58"/>
      <use x="97.314453" xlink:href="#DejaVuSans-32"/>
      <use x="129.101562" xlink:href="#DejaVuSans-50"/>
      <use x="192.724609" xlink:href="#DejaVuSans-47"/>
      <use x="226.416016" xlink:href="#DejaVuSans-53"/>
     </g>
    </g>
    <g id="line2d_92">
     <path d="M 80.208 59.009125 
L 120.208 59.009125 
" style="fill:none;stroke:#00bfbf;stroke-linecap:square;stroke-width:1.5;"/>
    </g>
    <g id="line2d_93"/>
    <g id="text_15">
     <!-- -1: 2/5 -->
     <g transform="translate(136.208 66.009125)scale(0.2 -0.2)">
      <use xlink:href="#DejaVuSans-45"/>
      <use x="36.083984" xlink:href="#DejaVuSans-49"/>
      <use x="99.707031" xlink:href="#DejaVuSans-58"/>
      <use x="133.398438" xlink:href="#DejaVuSans-32"/>
      <use x="165.185547" xlink:href="#DejaVuSans-50"/>
      <use x="228.808594" xlink:href="#DejaVuSans-47"/>
      <use x="262.5" xlink:href="#DejaVuSans-53"/>
     </g>
    </g>
    <g id="line2d_94">
     <path d="M 80.208 88.365375 
L 120.208 88.365375 
" style="fill:none;stroke:#bf00bf;stroke-linecap:square;stroke-width:1.5;"/>
    </g>
    <g id="line2d_95"/>
    <g id="text_16">
     <!-- -4: 2/5 -->
     <g transform="translate(136.208 95.365375)scale(0.2 -0.2)">
      <use xlink:href="#DejaVuSans-45"/>
      <use x="36.083984" xlink:href="#DejaVuSans-52"/>
      <use x="99.707031" xlink:href="#DejaVuSans-58"/>
      <use x="133.398438" xlink:href="#DejaVuSans-32"/>
      <use x="165.185547" xlink:href="#DejaVuSans-50"/>
      <use x="228.808594" xlink:href="#DejaVuSans-47"/>
      <use x="262.5" xlink:href="#DejaVuSans-53"/>
     </g>
    </g>
    <g id="line2d_96">
     <path d="M 80.208 117.721625 
L 120.208 117.721625 
" style="fill:none;stroke:#ff0000;stroke-linecap:square;stroke-width:3;"/>
    </g>
    <g id="line2d_97"/>
    <g id="text_17">
     <!-- -8: 2/5 -->
     <g transform="translate(136.208 124.721625)scale(0.2 -0.2)">
      <use xlink:href="#DejaVuSans-45"/>
      <use x="36.083984" xlink:href="#DejaVuSans-56"/>
      <use x="99.707031" xlink:href="#DejaVuSans-58"/>
      <use x="133.398438" xlink:href="#DejaVuSans-32"/>
      <use x="165.185547" xlink:href="#DejaVuSans-50"/>
      <use x="228.808594" xlink:href="#DejaVuSans-47"/>
      <use x="262.5" xlink:href="#DejaVuSans-53"/>
     </g>
    </g>
   </g>
  </g>
 </g>
 <defs>
  <clipPath id="p5c0ed59016">
   <rect height="290.304" width="398.592" x="62.208" y="3.456"/>
  </clipPath>
 </defs>
</svg>
