<?xml version="1.0" encoding="utf-8" standalone="no"?>
<!DOCTYPE svg PUBLIC "-//W3C//DTD SVG 1.1//EN"
  "http://www.w3.org/Graphics/SVG/1.1/DTD/svg11.dtd">
<!-- Created with matplotlib (https://matplotlib.org/) -->
<svg height="345.6pt" version="1.1" viewBox="0 0 460.8 345.6" width="460.8pt" xmlns="http://www.w3.org/2000/svg" xmlns:xlink="http://www.w3.org/1999/xlink">
 <metadata>
  <rdf:RDF xmlns:cc="http://creativecommons.org/ns#" xmlns:dc="http://purl.org/dc/elements/1.1/" xmlns:rdf="http://www.w3.org/1999/02/22-rdf-syntax-ns#">
   <cc:Work>
    <dc:type rdf:resource="http://purl.org/dc/dcmitype/StillImage"/>
    <dc:date>2021-08-04T15:02:16.382096</dc:date>
    <dc:format>image/svg+xml</dc:format>
    <dc:creator>
     <cc:Agent>
      <dc:title>Matplotlib v3.3.1, https://matplotlib.org/</dc:title>
     </cc:Agent>
    </dc:creator>
   </cc:Work>
  </rdf:RDF>
 </metadata>
 <defs>
  <style type="text/css">*{stroke-linecap:butt;stroke-linejoin:round;}</style>
 </defs>
 <g id="figure_1">
  <g id="patch_1">
   <path d="M 0 345.6 
L 460.8 345.6 
L 460.8 0 
L 0 0 
z
" style="fill:#ffffff;"/>
  </g>
  <g id="axes_1">
   <g id="patch_2">
    <path d="M 57.6 298.944 
L 338.688 298.944 
L 338.688 27.648 
L 57.6 27.648 
z
" style="fill:#ffffff;"/>
   </g>
   <g id="matplotlib.axis_1">
    <g id="xtick_1">
     <g id="line2d_1">
      <path clip-path="url(#p3ab1d4caf9)" d="M 57.6 298.944 
L 57.6 27.648 
" style="fill:none;stroke:#b0b0b0;stroke-linecap:square;stroke-width:0.8;"/>
     </g>
     <g id="line2d_2">
      <defs>
       <path d="M 0 0 
L 0 3.5 
" id="m4f5cb86ca2" style="stroke:#000000;stroke-width:0.8;"/>
      </defs>
      <g>
       <use style="stroke:#000000;stroke-width:0.8;" x="57.6" xlink:href="#m4f5cb86ca2" y="298.944"/>
      </g>
     </g>
     <g id="text_1">
      <!-- 0 -->
      <g transform="translate(51.2375 321.140875)scale(0.2 -0.2)">
       <defs>
        <path d="M 31.78125 66.40625 
Q 24.171875 66.40625 20.328125 58.90625 
Q 16.5 51.421875 16.5 36.375 
Q 16.5 21.390625 20.328125 13.890625 
Q 24.171875 6.390625 31.78125 6.390625 
Q 39.453125 6.390625 43.28125 13.890625 
Q 47.125 21.390625 47.125 36.375 
Q 47.125 51.421875 43.28125 58.90625 
Q 39.453125 66.40625 31.78125 66.40625 
z
M 31.78125 74.21875 
Q 44.046875 74.21875 50.515625 64.515625 
Q 56.984375 54.828125 56.984375 36.375 
Q 56.984375 17.96875 50.515625 8.265625 
Q 44.046875 -1.421875 31.78125 -1.421875 
Q 19.53125 -1.421875 13.0625 8.265625 
Q 6.59375 17.96875 6.59375 36.375 
Q 6.59375 54.828125 13.0625 64.515625 
Q 19.53125 74.21875 31.78125 74.21875 
z
" id="DejaVuSans-48"/>
       </defs>
       <use xlink:href="#DejaVuSans-48"/>
      </g>
     </g>
    </g>
    <g id="xtick_2">
     <g id="line2d_3">
      <path clip-path="url(#p3ab1d4caf9)" d="M 137.910857 298.944 
L 137.910857 27.648 
" style="fill:none;stroke:#b0b0b0;stroke-linecap:square;stroke-width:0.8;"/>
     </g>
     <g id="line2d_4">
      <g>
       <use style="stroke:#000000;stroke-width:0.8;" x="137.910857" xlink:href="#m4f5cb86ca2" y="298.944"/>
      </g>
     </g>
     <g id="text_2">
      <!-- 2 -->
      <g transform="translate(131.548357 321.140875)scale(0.2 -0.2)">
       <defs>
        <path d="M 19.1875 8.296875 
L 53.609375 8.296875 
L 53.609375 0 
L 7.328125 0 
L 7.328125 8.296875 
Q 12.9375 14.109375 22.625 23.890625 
Q 32.328125 33.6875 34.8125 36.53125 
Q 39.546875 41.84375 41.421875 45.53125 
Q 43.3125 49.21875 43.3125 52.78125 
Q 43.3125 58.59375 39.234375 62.25 
Q 35.15625 65.921875 28.609375 65.921875 
Q 23.96875 65.921875 18.8125 64.3125 
Q 13.671875 62.703125 7.8125 59.421875 
L 7.8125 69.390625 
Q 13.765625 71.78125 18.9375 73 
Q 24.125 74.21875 28.421875 74.21875 
Q 39.75 74.21875 46.484375 68.546875 
Q 53.21875 62.890625 53.21875 53.421875 
Q 53.21875 48.921875 51.53125 44.890625 
Q 49.859375 40.875 45.40625 35.40625 
Q 44.1875 33.984375 37.640625 27.21875 
Q 31.109375 20.453125 19.1875 8.296875 
z
" id="DejaVuSans-50"/>
       </defs>
       <use xlink:href="#DejaVuSans-50"/>
      </g>
     </g>
    </g>
    <g id="xtick_3">
     <g id="line2d_5">
      <path clip-path="url(#p3ab1d4caf9)" d="M 218.221714 298.944 
L 218.221714 27.648 
" style="fill:none;stroke:#b0b0b0;stroke-linecap:square;stroke-width:0.8;"/>
     </g>
     <g id="line2d_6">
      <g>
       <use style="stroke:#000000;stroke-width:0.8;" x="218.221714" xlink:href="#m4f5cb86ca2" y="298.944"/>
      </g>
     </g>
     <g id="text_3">
      <!-- 4 -->
      <g transform="translate(211.859214 321.140875)scale(0.2 -0.2)">
       <defs>
        <path d="M 37.796875 64.3125 
L 12.890625 25.390625 
L 37.796875 25.390625 
z
M 35.203125 72.90625 
L 47.609375 72.90625 
L 47.609375 25.390625 
L 58.015625 25.390625 
L 58.015625 17.1875 
L 47.609375 17.1875 
L 47.609375 0 
L 37.796875 0 
L 37.796875 17.1875 
L 4.890625 17.1875 
L 4.890625 26.703125 
z
" id="DejaVuSans-52"/>
       </defs>
       <use xlink:href="#DejaVuSans-52"/>
      </g>
     </g>
    </g>
    <g id="xtick_4">
     <g id="line2d_7">
      <path clip-path="url(#p3ab1d4caf9)" d="M 298.532571 298.944 
L 298.532571 27.648 
" style="fill:none;stroke:#b0b0b0;stroke-linecap:square;stroke-width:0.8;"/>
     </g>
     <g id="line2d_8">
      <g>
       <use style="stroke:#000000;stroke-width:0.8;" x="298.532571" xlink:href="#m4f5cb86ca2" y="298.944"/>
      </g>
     </g>
     <g id="text_4">
      <!-- 6 -->
      <g transform="translate(292.170071 321.140875)scale(0.2 -0.2)">
       <defs>
        <path d="M 33.015625 40.375 
Q 26.375 40.375 22.484375 35.828125 
Q 18.609375 31.296875 18.609375 23.390625 
Q 18.609375 15.53125 22.484375 10.953125 
Q 26.375 6.390625 33.015625 6.390625 
Q 39.65625 6.390625 43.53125 10.953125 
Q 47.40625 15.53125 47.40625 23.390625 
Q 47.40625 31.296875 43.53125 35.828125 
Q 39.65625 40.375 33.015625 40.375 
z
M 52.59375 71.296875 
L 52.59375 62.3125 
Q 48.875 64.0625 45.09375 64.984375 
Q 41.3125 65.921875 37.59375 65.921875 
Q 27.828125 65.921875 22.671875 59.328125 
Q 17.53125 52.734375 16.796875 39.40625 
Q 19.671875 43.65625 24.015625 45.921875 
Q 28.375 48.1875 33.59375 48.1875 
Q 44.578125 48.1875 50.953125 41.515625 
Q 57.328125 34.859375 57.328125 23.390625 
Q 57.328125 12.15625 50.6875 5.359375 
Q 44.046875 -1.421875 33.015625 -1.421875 
Q 20.359375 -1.421875 13.671875 8.265625 
Q 6.984375 17.96875 6.984375 36.375 
Q 6.984375 53.65625 15.1875 63.9375 
Q 23.390625 74.21875 37.203125 74.21875 
Q 40.921875 74.21875 44.703125 73.484375 
Q 48.484375 72.75 52.59375 71.296875 
z
" id="DejaVuSans-54"/>
       </defs>
       <use xlink:href="#DejaVuSans-54"/>
      </g>
     </g>
    </g>
    <g id="xtick_5">
     <g id="line2d_9">
      <path clip-path="url(#p3ab1d4caf9)" d="M 97.755429 298.944 
L 97.755429 27.648 
" style="fill:none;stroke:#b0b0b0;stroke-linecap:square;stroke-width:0.8;"/>
     </g>
     <g id="line2d_10">
      <defs>
       <path d="M 0 0 
L 0 2 
" id="ma930572180" style="stroke:#000000;stroke-width:0.6;"/>
      </defs>
      <g>
       <use style="stroke:#000000;stroke-width:0.6;" x="97.755429" xlink:href="#ma930572180" y="298.944"/>
      </g>
     </g>
    </g>
    <g id="xtick_6">
     <g id="line2d_11">
      <path clip-path="url(#p3ab1d4caf9)" d="M 178.066286 298.944 
L 178.066286 27.648 
" style="fill:none;stroke:#b0b0b0;stroke-linecap:square;stroke-width:0.8;"/>
     </g>
     <g id="line2d_12">
      <g>
       <use style="stroke:#000000;stroke-width:0.6;" x="178.066286" xlink:href="#ma930572180" y="298.944"/>
      </g>
     </g>
    </g>
    <g id="xtick_7">
     <g id="line2d_13">
      <path clip-path="url(#p3ab1d4caf9)" d="M 258.377143 298.944 
L 258.377143 27.648 
" style="fill:none;stroke:#b0b0b0;stroke-linecap:square;stroke-width:0.8;"/>
     </g>
     <g id="line2d_14">
      <g>
       <use style="stroke:#000000;stroke-width:0.6;" x="258.377143" xlink:href="#ma930572180" y="298.944"/>
      </g>
     </g>
    </g>
    <g id="xtick_8">
     <g id="line2d_15">
      <path clip-path="url(#p3ab1d4caf9)" d="M 338.688 298.944 
L 338.688 27.648 
" style="fill:none;stroke:#b0b0b0;stroke-linecap:square;stroke-width:0.8;"/>
     </g>
     <g id="line2d_16">
      <g>
       <use style="stroke:#000000;stroke-width:0.6;" x="338.688" xlink:href="#ma930572180" y="298.944"/>
      </g>
     </g>
    </g>
    <g id="text_5">
     <!-- log10(# f-evals / dimension) -->
     <g transform="translate(77.764078 342.217594)scale(0.17 -0.17)">
      <defs>
       <path d="M 9.421875 75.984375 
L 18.40625 75.984375 
L 18.40625 0 
L 9.421875 0 
z
" id="DejaVuSans-108"/>
       <path d="M 30.609375 48.390625 
Q 23.390625 48.390625 19.1875 42.75 
Q 14.984375 37.109375 14.984375 27.296875 
Q 14.984375 17.484375 19.15625 11.84375 
Q 23.34375 6.203125 30.609375 6.203125 
Q 37.796875 6.203125 41.984375 11.859375 
Q 46.1875 17.53125 46.1875 27.296875 
Q 46.1875 37.015625 41.984375 42.703125 
Q 37.796875 48.390625 30.609375 48.390625 
z
M 30.609375 56 
Q 42.328125 56 49.015625 48.375 
Q 55.71875 40.765625 55.71875 27.296875 
Q 55.71875 13.875 49.015625 6.21875 
Q 42.328125 -1.421875 30.609375 -1.421875 
Q 18.84375 -1.421875 12.171875 6.21875 
Q 5.515625 13.875 5.515625 27.296875 
Q 5.515625 40.765625 12.171875 48.375 
Q 18.84375 56 30.609375 56 
z
" id="DejaVuSans-111"/>
       <path d="M 45.40625 27.984375 
Q 45.40625 37.75 41.375 43.109375 
Q 37.359375 48.484375 30.078125 48.484375 
Q 22.859375 48.484375 18.828125 43.109375 
Q 14.796875 37.75 14.796875 27.984375 
Q 14.796875 18.265625 18.828125 12.890625 
Q 22.859375 7.515625 30.078125 7.515625 
Q 37.359375 7.515625 41.375 12.890625 
Q 45.40625 18.265625 45.40625 27.984375 
z
M 54.390625 6.78125 
Q 54.390625 -7.171875 48.1875 -13.984375 
Q 42 -20.796875 29.203125 -20.796875 
Q 24.46875 -20.796875 20.265625 -20.09375 
Q 16.0625 -19.390625 12.109375 -17.921875 
L 12.109375 -9.1875 
Q 16.0625 -11.328125 19.921875 -12.34375 
Q 23.78125 -13.375 27.78125 -13.375 
Q 36.625 -13.375 41.015625 -8.765625 
Q 45.40625 -4.15625 45.40625 5.171875 
L 45.40625 9.625 
Q 42.625 4.78125 38.28125 2.390625 
Q 33.9375 0 27.875 0 
Q 17.828125 0 11.671875 7.65625 
Q 5.515625 15.328125 5.515625 27.984375 
Q 5.515625 40.671875 11.671875 48.328125 
Q 17.828125 56 27.875 56 
Q 33.9375 56 38.28125 53.609375 
Q 42.625 51.21875 45.40625 46.390625 
L 45.40625 54.6875 
L 54.390625 54.6875 
z
" id="DejaVuSans-103"/>
       <path d="M 12.40625 8.296875 
L 28.515625 8.296875 
L 28.515625 63.921875 
L 10.984375 60.40625 
L 10.984375 69.390625 
L 28.421875 72.90625 
L 38.28125 72.90625 
L 38.28125 8.296875 
L 54.390625 8.296875 
L 54.390625 0 
L 12.40625 0 
z
" id="DejaVuSans-49"/>
       <path d="M 31 75.875 
Q 24.46875 64.65625 21.28125 53.65625 
Q 18.109375 42.671875 18.109375 31.390625 
Q 18.109375 20.125 21.3125 9.0625 
Q 24.515625 -2 31 -13.1875 
L 23.1875 -13.1875 
Q 15.875 -1.703125 12.234375 9.375 
Q 8.59375 20.453125 8.59375 31.390625 
Q 8.59375 42.28125 12.203125 53.3125 
Q 15.828125 64.359375 23.1875 75.875 
z
" id="DejaVuSans-40"/>
       <path d="M 51.125 44 
L 36.921875 44 
L 32.8125 27.6875 
L 47.125 27.6875 
z
M 43.796875 71.78125 
L 38.71875 51.515625 
L 52.984375 51.515625 
L 58.109375 71.78125 
L 65.921875 71.78125 
L 60.890625 51.515625 
L 76.125 51.515625 
L 76.125 44 
L 58.984375 44 
L 54.984375 27.6875 
L 70.515625 27.6875 
L 70.515625 20.21875 
L 53.078125 20.21875 
L 48 0 
L 40.1875 0 
L 45.21875 20.21875 
L 30.90625 20.21875 
L 25.875 0 
L 18.015625 0 
L 23.09375 20.21875 
L 7.71875 20.21875 
L 7.71875 27.6875 
L 24.90625 27.6875 
L 29 44 
L 13.28125 44 
L 13.28125 51.515625 
L 30.90625 51.515625 
L 35.890625 71.78125 
z
" id="DejaVuSans-35"/>
       <path id="DejaVuSans-32"/>
       <path d="M 37.109375 75.984375 
L 37.109375 68.5 
L 28.515625 68.5 
Q 23.6875 68.5 21.796875 66.546875 
Q 19.921875 64.59375 19.921875 59.515625 
L 19.921875 54.6875 
L 34.71875 54.6875 
L 34.71875 47.703125 
L 19.921875 47.703125 
L 19.921875 0 
L 10.890625 0 
L 10.890625 47.703125 
L 2.296875 47.703125 
L 2.296875 54.6875 
L 10.890625 54.6875 
L 10.890625 58.5 
Q 10.890625 67.625 15.140625 71.796875 
Q 19.390625 75.984375 28.609375 75.984375 
z
" id="DejaVuSans-102"/>
       <path d="M 4.890625 31.390625 
L 31.203125 31.390625 
L 31.203125 23.390625 
L 4.890625 23.390625 
z
" id="DejaVuSans-45"/>
       <path d="M 56.203125 29.59375 
L 56.203125 25.203125 
L 14.890625 25.203125 
Q 15.484375 15.921875 20.484375 11.0625 
Q 25.484375 6.203125 34.421875 6.203125 
Q 39.59375 6.203125 44.453125 7.46875 
Q 49.3125 8.734375 54.109375 11.28125 
L 54.109375 2.78125 
Q 49.265625 0.734375 44.1875 -0.34375 
Q 39.109375 -1.421875 33.890625 -1.421875 
Q 20.796875 -1.421875 13.15625 6.1875 
Q 5.515625 13.8125 5.515625 26.8125 
Q 5.515625 40.234375 12.765625 48.109375 
Q 20.015625 56 32.328125 56 
Q 43.359375 56 49.78125 48.890625 
Q 56.203125 41.796875 56.203125 29.59375 
z
M 47.21875 32.234375 
Q 47.125 39.59375 43.09375 43.984375 
Q 39.0625 48.390625 32.421875 48.390625 
Q 24.90625 48.390625 20.390625 44.140625 
Q 15.875 39.890625 15.1875 32.171875 
z
" id="DejaVuSans-101"/>
       <path d="M 2.984375 54.6875 
L 12.5 54.6875 
L 29.59375 8.796875 
L 46.6875 54.6875 
L 56.203125 54.6875 
L 35.6875 0 
L 23.484375 0 
z
" id="DejaVuSans-118"/>
       <path d="M 34.28125 27.484375 
Q 23.390625 27.484375 19.1875 25 
Q 14.984375 22.515625 14.984375 16.5 
Q 14.984375 11.71875 18.140625 8.90625 
Q 21.296875 6.109375 26.703125 6.109375 
Q 34.1875 6.109375 38.703125 11.40625 
Q 43.21875 16.703125 43.21875 25.484375 
L 43.21875 27.484375 
z
M 52.203125 31.203125 
L 52.203125 0 
L 43.21875 0 
L 43.21875 8.296875 
Q 40.140625 3.328125 35.546875 0.953125 
Q 30.953125 -1.421875 24.3125 -1.421875 
Q 15.921875 -1.421875 10.953125 3.296875 
Q 6 8.015625 6 15.921875 
Q 6 25.140625 12.171875 29.828125 
Q 18.359375 34.515625 30.609375 34.515625 
L 43.21875 34.515625 
L 43.21875 35.40625 
Q 43.21875 41.609375 39.140625 45 
Q 35.0625 48.390625 27.6875 48.390625 
Q 23 48.390625 18.546875 47.265625 
Q 14.109375 46.140625 10.015625 43.890625 
L 10.015625 52.203125 
Q 14.9375 54.109375 19.578125 55.046875 
Q 24.21875 56 28.609375 56 
Q 40.484375 56 46.34375 49.84375 
Q 52.203125 43.703125 52.203125 31.203125 
z
" id="DejaVuSans-97"/>
       <path d="M 44.28125 53.078125 
L 44.28125 44.578125 
Q 40.484375 46.53125 36.375 47.5 
Q 32.28125 48.484375 27.875 48.484375 
Q 21.1875 48.484375 17.84375 46.4375 
Q 14.5 44.390625 14.5 40.28125 
Q 14.5 37.15625 16.890625 35.375 
Q 19.28125 33.59375 26.515625 31.984375 
L 29.59375 31.296875 
Q 39.15625 29.25 43.1875 25.515625 
Q 47.21875 21.78125 47.21875 15.09375 
Q 47.21875 7.46875 41.1875 3.015625 
Q 35.15625 -1.421875 24.609375 -1.421875 
Q 20.21875 -1.421875 15.453125 -0.5625 
Q 10.6875 0.296875 5.421875 2 
L 5.421875 11.28125 
Q 10.40625 8.6875 15.234375 7.390625 
Q 20.0625 6.109375 24.8125 6.109375 
Q 31.15625 6.109375 34.5625 8.28125 
Q 37.984375 10.453125 37.984375 14.40625 
Q 37.984375 18.0625 35.515625 20.015625 
Q 33.0625 21.96875 24.703125 23.78125 
L 21.578125 24.515625 
Q 13.234375 26.265625 9.515625 29.90625 
Q 5.8125 33.546875 5.8125 39.890625 
Q 5.8125 47.609375 11.28125 51.796875 
Q 16.75 56 26.8125 56 
Q 31.78125 56 36.171875 55.265625 
Q 40.578125 54.546875 44.28125 53.078125 
z
" id="DejaVuSans-115"/>
       <path d="M 25.390625 72.90625 
L 33.6875 72.90625 
L 8.296875 -9.28125 
L 0 -9.28125 
z
" id="DejaVuSans-47"/>
       <path d="M 45.40625 46.390625 
L 45.40625 75.984375 
L 54.390625 75.984375 
L 54.390625 0 
L 45.40625 0 
L 45.40625 8.203125 
Q 42.578125 3.328125 38.25 0.953125 
Q 33.9375 -1.421875 27.875 -1.421875 
Q 17.96875 -1.421875 11.734375 6.484375 
Q 5.515625 14.40625 5.515625 27.296875 
Q 5.515625 40.1875 11.734375 48.09375 
Q 17.96875 56 27.875 56 
Q 33.9375 56 38.25 53.625 
Q 42.578125 51.265625 45.40625 46.390625 
z
M 14.796875 27.296875 
Q 14.796875 17.390625 18.875 11.75 
Q 22.953125 6.109375 30.078125 6.109375 
Q 37.203125 6.109375 41.296875 11.75 
Q 45.40625 17.390625 45.40625 27.296875 
Q 45.40625 37.203125 41.296875 42.84375 
Q 37.203125 48.484375 30.078125 48.484375 
Q 22.953125 48.484375 18.875 42.84375 
Q 14.796875 37.203125 14.796875 27.296875 
z
" id="DejaVuSans-100"/>
       <path d="M 9.421875 54.6875 
L 18.40625 54.6875 
L 18.40625 0 
L 9.421875 0 
z
M 9.421875 75.984375 
L 18.40625 75.984375 
L 18.40625 64.59375 
L 9.421875 64.59375 
z
" id="DejaVuSans-105"/>
       <path d="M 52 44.1875 
Q 55.375 50.25 60.0625 53.125 
Q 64.75 56 71.09375 56 
Q 79.640625 56 84.28125 50.015625 
Q 88.921875 44.046875 88.921875 33.015625 
L 88.921875 0 
L 79.890625 0 
L 79.890625 32.71875 
Q 79.890625 40.578125 77.09375 44.375 
Q 74.3125 48.1875 68.609375 48.1875 
Q 61.625 48.1875 57.5625 43.546875 
Q 53.515625 38.921875 53.515625 30.90625 
L 53.515625 0 
L 44.484375 0 
L 44.484375 32.71875 
Q 44.484375 40.625 41.703125 44.40625 
Q 38.921875 48.1875 33.109375 48.1875 
Q 26.21875 48.1875 22.15625 43.53125 
Q 18.109375 38.875 18.109375 30.90625 
L 18.109375 0 
L 9.078125 0 
L 9.078125 54.6875 
L 18.109375 54.6875 
L 18.109375 46.1875 
Q 21.1875 51.21875 25.484375 53.609375 
Q 29.78125 56 35.6875 56 
Q 41.65625 56 45.828125 52.96875 
Q 50 49.953125 52 44.1875 
z
" id="DejaVuSans-109"/>
       <path d="M 54.890625 33.015625 
L 54.890625 0 
L 45.90625 0 
L 45.90625 32.71875 
Q 45.90625 40.484375 42.875 44.328125 
Q 39.84375 48.1875 33.796875 48.1875 
Q 26.515625 48.1875 22.3125 43.546875 
Q 18.109375 38.921875 18.109375 30.90625 
L 18.109375 0 
L 9.078125 0 
L 9.078125 54.6875 
L 18.109375 54.6875 
L 18.109375 46.1875 
Q 21.34375 51.125 25.703125 53.5625 
Q 30.078125 56 35.796875 56 
Q 45.21875 56 50.046875 50.171875 
Q 54.890625 44.34375 54.890625 33.015625 
z
" id="DejaVuSans-110"/>
       <path d="M 8.015625 75.875 
L 15.828125 75.875 
Q 23.140625 64.359375 26.78125 53.3125 
Q 30.421875 42.28125 30.421875 31.390625 
Q 30.421875 20.453125 26.78125 9.375 
Q 23.140625 -1.703125 15.828125 -13.1875 
L 8.015625 -13.1875 
Q 14.5 -2 17.703125 9.0625 
Q 20.90625 20.125 20.90625 31.390625 
Q 20.90625 42.671875 17.703125 53.65625 
Q 14.5 64.65625 8.015625 75.875 
z
" id="DejaVuSans-41"/>
      </defs>
      <use xlink:href="#DejaVuSans-108"/>
      <use x="27.783203" xlink:href="#DejaVuSans-111"/>
      <use x="88.964844" xlink:href="#DejaVuSans-103"/>
      <use x="152.441406" xlink:href="#DejaVuSans-49"/>
      <use x="216.064453" xlink:href="#DejaVuSans-48"/>
      <use x="279.6875" xlink:href="#DejaVuSans-40"/>
      <use x="318.701172" xlink:href="#DejaVuSans-35"/>
      <use x="402.490234" xlink:href="#DejaVuSans-32"/>
      <use x="434.277344" xlink:href="#DejaVuSans-102"/>
      <use x="463.982422" xlink:href="#DejaVuSans-45"/>
      <use x="500.066406" xlink:href="#DejaVuSans-101"/>
      <use x="561.589844" xlink:href="#DejaVuSans-118"/>
      <use x="620.769531" xlink:href="#DejaVuSans-97"/>
      <use x="682.048828" xlink:href="#DejaVuSans-108"/>
      <use x="709.832031" xlink:href="#DejaVuSans-115"/>
      <use x="761.931641" xlink:href="#DejaVuSans-32"/>
      <use x="793.71875" xlink:href="#DejaVuSans-47"/>
      <use x="827.410156" xlink:href="#DejaVuSans-32"/>
      <use x="859.197266" xlink:href="#DejaVuSans-100"/>
      <use x="922.673828" xlink:href="#DejaVuSans-105"/>
      <use x="950.457031" xlink:href="#DejaVuSans-109"/>
      <use x="1047.869141" xlink:href="#DejaVuSans-101"/>
      <use x="1109.392578" xlink:href="#DejaVuSans-110"/>
      <use x="1172.771484" xlink:href="#DejaVuSans-115"/>
      <use x="1224.871094" xlink:href="#DejaVuSans-105"/>
      <use x="1252.654297" xlink:href="#DejaVuSans-111"/>
      <use x="1313.835938" xlink:href="#DejaVuSans-110"/>
      <use x="1377.214844" xlink:href="#DejaVuSans-41"/>
     </g>
    </g>
   </g>
   <g id="matplotlib.axis_2">
    <g id="ytick_1">
     <g id="line2d_17">
      <path clip-path="url(#p3ab1d4caf9)" d="M 57.6 298.944 
L 338.688 298.944 
" style="fill:none;stroke:#b0b0b0;stroke-linecap:square;stroke-width:0.8;"/>
     </g>
     <g id="line2d_18">
      <defs>
       <path d="M 0 0 
L -3.5 0 
" id="m910361fe24" style="stroke:#000000;stroke-width:0.8;"/>
      </defs>
      <g>
       <use style="stroke:#000000;stroke-width:0.8;" x="57.6" xlink:href="#m910361fe24" y="298.944"/>
      </g>
     </g>
     <g id="text_6">
      <!-- 0.0 -->
      <g transform="translate(25.155 305.02275)scale(0.16 -0.16)">
       <defs>
        <path d="M 10.6875 12.40625 
L 21 12.40625 
L 21 0 
L 10.6875 0 
z
" id="DejaVuSans-46"/>
       </defs>
       <use xlink:href="#DejaVuSans-48"/>
       <use x="63.623047" xlink:href="#DejaVuSans-46"/>
       <use x="95.410156" xlink:href="#DejaVuSans-48"/>
      </g>
     </g>
    </g>
    <g id="ytick_2">
     <g id="line2d_19">
      <path clip-path="url(#p3ab1d4caf9)" d="M 57.6 245.22202 
L 338.688 245.22202 
" style="fill:none;stroke:#b0b0b0;stroke-linecap:square;stroke-width:0.8;"/>
     </g>
     <g id="line2d_20">
      <g>
       <use style="stroke:#000000;stroke-width:0.8;" x="57.6" xlink:href="#m910361fe24" y="245.22202"/>
      </g>
     </g>
     <g id="text_7">
      <!-- 0.2 -->
      <g transform="translate(25.155 251.30077)scale(0.16 -0.16)">
       <use xlink:href="#DejaVuSans-48"/>
       <use x="63.623047" xlink:href="#DejaVuSans-46"/>
       <use x="95.410156" xlink:href="#DejaVuSans-50"/>
      </g>
     </g>
    </g>
    <g id="ytick_3">
     <g id="line2d_21">
      <path clip-path="url(#p3ab1d4caf9)" d="M 57.6 191.50004 
L 338.688 191.50004 
" style="fill:none;stroke:#b0b0b0;stroke-linecap:square;stroke-width:0.8;"/>
     </g>
     <g id="line2d_22">
      <g>
       <use style="stroke:#000000;stroke-width:0.8;" x="57.6" xlink:href="#m910361fe24" y="191.50004"/>
      </g>
     </g>
     <g id="text_8">
      <!-- 0.4 -->
      <g transform="translate(25.155 197.57879)scale(0.16 -0.16)">
       <use xlink:href="#DejaVuSans-48"/>
       <use x="63.623047" xlink:href="#DejaVuSans-46"/>
       <use x="95.410156" xlink:href="#DejaVuSans-52"/>
      </g>
     </g>
    </g>
    <g id="ytick_4">
     <g id="line2d_23">
      <path clip-path="url(#p3ab1d4caf9)" d="M 57.6 137.778059 
L 338.688 137.778059 
" style="fill:none;stroke:#b0b0b0;stroke-linecap:square;stroke-width:0.8;"/>
     </g>
     <g id="line2d_24">
      <g>
       <use style="stroke:#000000;stroke-width:0.8;" x="57.6" xlink:href="#m910361fe24" y="137.778059"/>
      </g>
     </g>
     <g id="text_9">
      <!-- 0.6 -->
      <g transform="translate(25.155 143.856809)scale(0.16 -0.16)">
       <use xlink:href="#DejaVuSans-48"/>
       <use x="63.623047" xlink:href="#DejaVuSans-46"/>
       <use x="95.410156" xlink:href="#DejaVuSans-54"/>
      </g>
     </g>
    </g>
    <g id="ytick_5">
     <g id="line2d_25">
      <path clip-path="url(#p3ab1d4caf9)" d="M 57.6 84.056079 
L 338.688 84.056079 
" style="fill:none;stroke:#b0b0b0;stroke-linecap:square;stroke-width:0.8;"/>
     </g>
     <g id="line2d_26">
      <g>
       <use style="stroke:#000000;stroke-width:0.8;" x="57.6" xlink:href="#m910361fe24" y="84.056079"/>
      </g>
     </g>
     <g id="text_10">
      <!-- 0.8 -->
      <g transform="translate(25.155 90.134829)scale(0.16 -0.16)">
       <defs>
        <path d="M 31.78125 34.625 
Q 24.75 34.625 20.71875 30.859375 
Q 16.703125 27.09375 16.703125 20.515625 
Q 16.703125 13.921875 20.71875 10.15625 
Q 24.75 6.390625 31.78125 6.390625 
Q 38.8125 6.390625 42.859375 10.171875 
Q 46.921875 13.96875 46.921875 20.515625 
Q 46.921875 27.09375 42.890625 30.859375 
Q 38.875 34.625 31.78125 34.625 
z
M 21.921875 38.8125 
Q 15.578125 40.375 12.03125 44.71875 
Q 8.5 49.078125 8.5 55.328125 
Q 8.5 64.0625 14.71875 69.140625 
Q 20.953125 74.21875 31.78125 74.21875 
Q 42.671875 74.21875 48.875 69.140625 
Q 55.078125 64.0625 55.078125 55.328125 
Q 55.078125 49.078125 51.53125 44.71875 
Q 48 40.375 41.703125 38.8125 
Q 48.828125 37.15625 52.796875 32.3125 
Q 56.78125 27.484375 56.78125 20.515625 
Q 56.78125 9.90625 50.3125 4.234375 
Q 43.84375 -1.421875 31.78125 -1.421875 
Q 19.734375 -1.421875 13.25 4.234375 
Q 6.78125 9.90625 6.78125 20.515625 
Q 6.78125 27.484375 10.78125 32.3125 
Q 14.796875 37.15625 21.921875 38.8125 
z
M 18.3125 54.390625 
Q 18.3125 48.734375 21.84375 45.5625 
Q 25.390625 42.390625 31.78125 42.390625 
Q 38.140625 42.390625 41.71875 45.5625 
Q 45.3125 48.734375 45.3125 54.390625 
Q 45.3125 60.0625 41.71875 63.234375 
Q 38.140625 66.40625 31.78125 66.40625 
Q 25.390625 66.40625 21.84375 63.234375 
Q 18.3125 60.0625 18.3125 54.390625 
z
" id="DejaVuSans-56"/>
       </defs>
       <use xlink:href="#DejaVuSans-48"/>
       <use x="63.623047" xlink:href="#DejaVuSans-46"/>
       <use x="95.410156" xlink:href="#DejaVuSans-56"/>
      </g>
     </g>
    </g>
    <g id="ytick_6">
     <g id="line2d_27">
      <path clip-path="url(#p3ab1d4caf9)" d="M 57.6 30.334099 
L 338.688 30.334099 
" style="fill:none;stroke:#b0b0b0;stroke-linecap:square;stroke-width:0.8;"/>
     </g>
     <g id="line2d_28">
      <g>
       <use style="stroke:#000000;stroke-width:0.8;" x="57.6" xlink:href="#m910361fe24" y="30.334099"/>
      </g>
     </g>
     <g id="text_11">
      <!-- 1.0 -->
      <g transform="translate(25.155 36.412849)scale(0.16 -0.16)">
       <use xlink:href="#DejaVuSans-49"/>
       <use x="63.623047" xlink:href="#DejaVuSans-46"/>
       <use x="95.410156" xlink:href="#DejaVuSans-48"/>
      </g>
     </g>
    </g>
    <g id="text_12">
     <!-- Fraction of function,target pairs -->
     <g transform="translate(17.619531 297.681)rotate(-90)scale(0.17 -0.17)">
      <defs>
       <path d="M 9.8125 72.90625 
L 51.703125 72.90625 
L 51.703125 64.59375 
L 19.671875 64.59375 
L 19.671875 43.109375 
L 48.578125 43.109375 
L 48.578125 34.8125 
L 19.671875 34.8125 
L 19.671875 0 
L 9.8125 0 
z
" id="DejaVuSans-70"/>
       <path d="M 41.109375 46.296875 
Q 39.59375 47.171875 37.8125 47.578125 
Q 36.03125 48 33.890625 48 
Q 26.265625 48 22.1875 43.046875 
Q 18.109375 38.09375 18.109375 28.8125 
L 18.109375 0 
L 9.078125 0 
L 9.078125 54.6875 
L 18.109375 54.6875 
L 18.109375 46.1875 
Q 20.953125 51.171875 25.484375 53.578125 
Q 30.03125 56 36.53125 56 
Q 37.453125 56 38.578125 55.875 
Q 39.703125 55.765625 41.0625 55.515625 
z
" id="DejaVuSans-114"/>
       <path d="M 48.78125 52.59375 
L 48.78125 44.1875 
Q 44.96875 46.296875 41.140625 47.34375 
Q 37.3125 48.390625 33.40625 48.390625 
Q 24.65625 48.390625 19.8125 42.84375 
Q 14.984375 37.3125 14.984375 27.296875 
Q 14.984375 17.28125 19.8125 11.734375 
Q 24.65625 6.203125 33.40625 6.203125 
Q 37.3125 6.203125 41.140625 7.25 
Q 44.96875 8.296875 48.78125 10.40625 
L 48.78125 2.09375 
Q 45.015625 0.34375 40.984375 -0.53125 
Q 36.96875 -1.421875 32.421875 -1.421875 
Q 20.0625 -1.421875 12.78125 6.34375 
Q 5.515625 14.109375 5.515625 27.296875 
Q 5.515625 40.671875 12.859375 48.328125 
Q 20.21875 56 33.015625 56 
Q 37.15625 56 41.109375 55.140625 
Q 45.0625 54.296875 48.78125 52.59375 
z
" id="DejaVuSans-99"/>
       <path d="M 18.3125 70.21875 
L 18.3125 54.6875 
L 36.8125 54.6875 
L 36.8125 47.703125 
L 18.3125 47.703125 
L 18.3125 18.015625 
Q 18.3125 11.328125 20.140625 9.421875 
Q 21.96875 7.515625 27.59375 7.515625 
L 36.8125 7.515625 
L 36.8125 0 
L 27.59375 0 
Q 17.1875 0 13.234375 3.875 
Q 9.28125 7.765625 9.28125 18.015625 
L 9.28125 47.703125 
L 2.6875 47.703125 
L 2.6875 54.6875 
L 9.28125 54.6875 
L 9.28125 70.21875 
z
" id="DejaVuSans-116"/>
       <path d="M 8.5 21.578125 
L 8.5 54.6875 
L 17.484375 54.6875 
L 17.484375 21.921875 
Q 17.484375 14.15625 20.5 10.265625 
Q 23.53125 6.390625 29.59375 6.390625 
Q 36.859375 6.390625 41.078125 11.03125 
Q 45.3125 15.671875 45.3125 23.6875 
L 45.3125 54.6875 
L 54.296875 54.6875 
L 54.296875 0 
L 45.3125 0 
L 45.3125 8.40625 
Q 42.046875 3.421875 37.71875 1 
Q 33.40625 -1.421875 27.6875 -1.421875 
Q 18.265625 -1.421875 13.375 4.4375 
Q 8.5 10.296875 8.5 21.578125 
z
M 31.109375 56 
z
" id="DejaVuSans-117"/>
       <path d="M 11.71875 12.40625 
L 22.015625 12.40625 
L 22.015625 4 
L 14.015625 -11.625 
L 7.71875 -11.625 
L 11.71875 4 
z
" id="DejaVuSans-44"/>
       <path d="M 18.109375 8.203125 
L 18.109375 -20.796875 
L 9.078125 -20.796875 
L 9.078125 54.6875 
L 18.109375 54.6875 
L 18.109375 46.390625 
Q 20.953125 51.265625 25.265625 53.625 
Q 29.59375 56 35.59375 56 
Q 45.5625 56 51.78125 48.09375 
Q 58.015625 40.1875 58.015625 27.296875 
Q 58.015625 14.40625 51.78125 6.484375 
Q 45.5625 -1.421875 35.59375 -1.421875 
Q 29.59375 -1.421875 25.265625 0.953125 
Q 20.953125 3.328125 18.109375 8.203125 
z
M 48.6875 27.296875 
Q 48.6875 37.203125 44.609375 42.84375 
Q 40.53125 48.484375 33.40625 48.484375 
Q 26.265625 48.484375 22.1875 42.84375 
Q 18.109375 37.203125 18.109375 27.296875 
Q 18.109375 17.390625 22.1875 11.75 
Q 26.265625 6.109375 33.40625 6.109375 
Q 40.53125 6.109375 44.609375 11.75 
Q 48.6875 17.390625 48.6875 27.296875 
z
" id="DejaVuSans-112"/>
      </defs>
      <use xlink:href="#DejaVuSans-70"/>
      <use x="50.269531" xlink:href="#DejaVuSans-114"/>
      <use x="91.382812" xlink:href="#DejaVuSans-97"/>
      <use x="152.662109" xlink:href="#DejaVuSans-99"/>
      <use x="207.642578" xlink:href="#DejaVuSans-116"/>
      <use x="246.851562" xlink:href="#DejaVuSans-105"/>
      <use x="274.634766" xlink:href="#DejaVuSans-111"/>
      <use x="335.816406" xlink:href="#DejaVuSans-110"/>
      <use x="399.195312" xlink:href="#DejaVuSans-32"/>
      <use x="430.982422" xlink:href="#DejaVuSans-111"/>
      <use x="492.164062" xlink:href="#DejaVuSans-102"/>
      <use x="527.369141" xlink:href="#DejaVuSans-32"/>
      <use x="559.15625" xlink:href="#DejaVuSans-102"/>
      <use x="594.361328" xlink:href="#DejaVuSans-117"/>
      <use x="657.740234" xlink:href="#DejaVuSans-110"/>
      <use x="721.119141" xlink:href="#DejaVuSans-99"/>
      <use x="776.099609" xlink:href="#DejaVuSans-116"/>
      <use x="815.308594" xlink:href="#DejaVuSans-105"/>
      <use x="843.091797" xlink:href="#DejaVuSans-111"/>
      <use x="904.273438" xlink:href="#DejaVuSans-110"/>
      <use x="967.652344" xlink:href="#DejaVuSans-44"/>
      <use x="999.439453" xlink:href="#DejaVuSans-116"/>
      <use x="1038.648438" xlink:href="#DejaVuSans-97"/>
      <use x="1099.927734" xlink:href="#DejaVuSans-114"/>
      <use x="1139.291016" xlink:href="#DejaVuSans-103"/>
      <use x="1202.767578" xlink:href="#DejaVuSans-101"/>
      <use x="1264.291016" xlink:href="#DejaVuSans-116"/>
      <use x="1303.5" xlink:href="#DejaVuSans-32"/>
      <use x="1335.287109" xlink:href="#DejaVuSans-112"/>
      <use x="1398.763672" xlink:href="#DejaVuSans-97"/>
      <use x="1460.042969" xlink:href="#DejaVuSans-105"/>
      <use x="1487.826172" xlink:href="#DejaVuSans-114"/>
      <use x="1528.939453" xlink:href="#DejaVuSans-115"/>
     </g>
    </g>
   </g>
   <g id="line2d_29">
    <defs>
     <path d="M 0 1.5 
C 0.397805 1.5 0.77937 1.341951 1.06066 1.06066 
C 1.341951 0.77937 1.5 0.397805 1.5 0 
C 1.5 -0.397805 1.341951 -0.77937 1.06066 -1.06066 
C 0.77937 -1.341951 0.397805 -1.5 0 -1.5 
C -0.397805 -1.5 -0.77937 -1.341951 -1.06066 -1.06066 
C -1.341951 -0.77937 -1.5 -0.397805 -1.5 0 
C -1.5 0.397805 -1.341951 0.77937 -1.06066 1.06066 
C -0.77937 1.341951 -0.397805 1.5 0 1.5 
z
" id="m98f9f7b7db" style="stroke:#00bfbf;"/>
    </defs>
    <g>
     <use style="fill:#00bfbf;stroke:#00bfbf;" x="156.538679" xlink:href="#m98f9f7b7db" y="30.334099"/>
     <use style="fill:#00bfbf;stroke:#00bfbf;" x="156.538679" xlink:href="#m98f9f7b7db" y="30.334099"/>
    </g>
   </g>
   <g id="line2d_30">
    <path d="M 103.623262 298.944 
L 103.623262 295.783884 
L 105.398279 295.783884 
L 105.398279 294.730511 
L 105.951954 294.730511 
L 105.951954 293.677139 
L 106.48859 293.677139 
L 106.48859 292.097081 
L 107.514726 292.097081 
L 107.514726 291.043709 
L 109.401893 291.043709 
L 109.401893 290.517023 
L 110.274038 290.517023 
L 110.274038 289.463651 
L 110.694282 289.463651 
L 110.694282 288.936964 
L 111.104637 288.936964 
L 111.104637 287.356906 
L 111.897469 287.356906 
L 111.897469 286.303534 
L 113.022974 286.303534 
L 113.022974 284.19679 
L 113.73488 284.19679 
L 113.73488 282.616732 
L 114.418861 282.616732 
L 114.418861 281.563359 
L 114.751048 281.563359 
L 114.751048 277.349871 
L 115.077025 277.349871 
L 115.077025 273.663068 
L 115.397021 273.663068 
L 115.397021 273.136382 
L 115.711251 273.136382 
L 115.711251 272.609696 
L 116.019919 272.609696 
L 116.019919 272.08301 
L 116.323218 272.08301 
L 116.323218 264.182719 
L 116.621333 264.182719 
L 116.621333 262.075974 
L 117.202696 262.075974 
L 117.202696 258.915858 
L 117.486268 258.915858 
L 117.486268 255.755741 
L 117.765302 255.755741 
L 117.765302 254.702369 
L 118.310324 254.702369 
L 118.310324 247.85545 
L 118.838828 247.85545 
L 118.838828 246.275392 
L 119.097192 246.275392 
L 119.097192 245.22202 
L 119.351785 245.22202 
L 119.351785 244.695334 
L 119.602714 244.695334 
L 119.602714 243.115275 
L 120.093994 243.115275 
L 120.093994 242.588589 
L 120.571812 242.588589 
L 120.571812 241.008531 
L 124.92835 241.008531 
L 124.92835 240.481845 
L 125.291682 240.481845 
L 125.291682 239.955159 
L 125.647598 239.955159 
L 125.647598 239.428473 
L 126.168212 239.428473 
L 126.168212 238.375101 
L 126.338353 238.375101 
L 126.338353 237.848415 
L 126.50685 237.848415 
L 126.50685 236.795043 
L 126.673734 236.795043 
L 126.673734 236.268356 
L 126.839037 236.268356 
L 126.839037 235.214984 
L 127.002787 235.214984 
L 127.002787 233.634926 
L 127.165014 233.634926 
L 127.165014 232.054868 
L 127.325746 232.054868 
L 127.325746 231.528182 
L 127.48501 231.528182 
L 127.48501 231.001496 
L 127.642832 231.001496 
L 127.642832 227.841379 
L 127.799239 227.841379 
L 127.799239 225.734635 
L 127.954256 225.734635 
L 127.954256 222.047832 
L 128.107907 222.047832 
L 128.107907 218.887716 
L 128.260216 218.887716 
L 128.260216 214.674227 
L 128.411207 214.674227 
L 128.411207 213.620855 
L 128.560901 213.620855 
L 128.560901 209.934052 
L 128.709321 209.934052 
L 128.709321 208.353994 
L 128.856489 208.353994 
L 128.856489 207.300622 
L 129.002426 207.300622 
L 129.002426 206.24725 
L 129.147151 206.24725 
L 129.147151 205.720564 
L 129.290685 205.720564 
L 129.290685 203.087133 
L 129.433047 203.087133 
L 129.433047 198.873645 
L 129.574256 198.873645 
L 129.574256 196.7669 
L 129.714332 196.7669 
L 129.714332 192.553412 
L 129.853291 192.553412 
L 129.853291 190.973354 
L 129.991152 190.973354 
L 129.991152 188.866609 
L 130.127931 188.866609 
L 130.127931 187.286551 
L 130.263646 187.286551 
L 130.263646 182.546376 
L 130.398313 182.546376 
L 130.398313 180.439632 
L 130.531948 180.439632 
L 130.531948 175.699457 
L 130.664567 175.699457 
L 130.664567 173.592713 
L 130.796184 173.592713 
L 130.796184 172.539341 
L 130.926816 172.539341 
L 130.926816 169.379224 
L 131.056477 169.379224 
L 131.056477 167.27248 
L 131.185181 167.27248 
L 131.185181 164.112363 
L 131.312942 164.112363 
L 131.312942 162.005619 
L 131.439773 162.005619 
L 131.439773 158.318817 
L 131.565689 158.318817 
L 131.565689 156.212072 
L 131.690703 156.212072 
L 131.690703 153.051956 
L 131.814826 153.051956 
L 131.814826 149.365153 
L 131.938072 149.365153 
L 131.938072 145.678351 
L 132.060454 145.678351 
L 132.060454 145.151665 
L 132.181982 145.151665 
L 132.181982 143.04492 
L 132.30267 143.04492 
L 132.30267 140.41149 
L 132.422528 140.41149 
L 132.422528 134.617943 
L 132.541568 134.617943 
L 132.541568 130.404454 
L 132.659801 130.404454 
L 132.659801 127.771024 
L 132.777237 127.771024 
L 132.777237 126.190966 
L 132.893889 126.190966 
L 132.893889 122.504163 
L 133.009765 122.504163 
L 133.009765 120.924105 
L 133.124876 120.924105 
L 133.124876 118.290674 
L 133.239232 118.290674 
L 133.239232 115.657244 
L 133.352844 115.657244 
L 133.352844 114.077186 
L 133.46572 114.077186 
L 133.46572 109.337011 
L 133.57787 109.337011 
L 133.57787 106.703581 
L 133.689303 106.703581 
L 133.800029 102.490092 
L 133.910056 102.490092 
L 134.019394 97.749917 
L 134.12805 97.749917 
L 134.236034 96.169859 
L 134.343353 96.169859 
L 134.450015 93.009743 
L 134.55603 93.009743 
L 134.661403 87.216196 
L 134.766144 87.216196 
L 134.870259 85.109451 
L 134.973757 85.109451 
L 134.973757 82.476021 
L 135.178927 82.476021 
L 135.178927 80.369277 
L 135.381712 80.369277 
L 135.482227 77.20916 
L 135.780341 77.20916 
L 135.878591 75.629102 
L 136.073445 75.629102 
L 136.170062 74.57573 
L 136.361705 74.57573 
L 136.456742 72.468985 
L 136.551264 72.468985 
L 136.551264 71.942299 
L 136.738785 71.942299 
L 136.738785 71.415613 
L 136.924311 71.415613 
L 137.016339 69.308869 
L 138.170504 69.308869 
L 138.256201 68.255497 
L 138.341479 68.255497 
L 138.341479 67.202125 
L 138.510793 67.202125 
L 138.594838 65.622066 
L 138.84457 65.622066 
L 138.927025 63.515322 
L 139.009092 63.515322 
L 139.009092 62.988636 
L 139.333553 62.988636 
L 139.413734 61.408578 
L 139.493548 61.408578 
L 139.572998 59.301833 
L 139.652088 59.301833 
L 139.730821 56.668403 
L 139.964909 56.668403 
L 140.042245 55.615031 
L 140.195896 55.615031 
L 140.272217 53.508287 
L 140.348205 53.508287 
L 140.348205 52.9816 
L 140.499195 52.9816 
L 140.499195 52.454914 
L 140.723258 52.454914 
L 140.723258 51.928228 
L 140.871049 51.928228 
L 140.944478 50.874856 
L 141.090414 50.874856 
L 141.090414 49.821484 
L 141.378673 49.821484 
L 141.45 48.768112 
L 141.521035 48.768112 
L 141.521035 47.71474 
L 141.662245 47.71474 
L 141.662245 47.188054 
L 141.80232 47.188054 
L 141.871938 45.081309 
L 141.941279 45.081309 
L 142.010346 44.027937 
L 142.147664 44.027937 
L 142.147664 43.501251 
L 142.283909 43.501251 
L 142.283909 42.974565 
L 142.419098 42.974565 
L 142.419098 42.447879 
L 142.686372 42.447879 
L 142.686372 41.394507 
L 142.949611 41.394507 
L 142.949611 40.341135 
L 143.208936 40.341135 
L 143.208936 39.814448 
L 143.40093 39.814448 
L 143.40093 39.287762 
L 144.026061 39.287762 
L 144.026061 38.761076 
L 144.330419 38.761076 
L 144.330419 38.23439 
L 144.510517 38.23439 
L 144.570138 37.181018 
L 145.039911 37.181018 
L 145.039911 36.127646 
L 146.052799 36.127646 
L 146.052799 35.60096 
L 146.324022 35.60096 
L 146.324022 35.074274 
L 146.749392 35.074274 
L 146.749392 34.547588 
L 147.010073 34.547588 
L 147.061745 33.494215 
L 147.570215 33.494215 
L 147.570215 32.967529 
L 149.377533 32.967529 
L 149.377533 32.440843 
L 149.823575 32.440843 
L 149.823575 31.914157 
L 150.682827 31.914157 
L 150.682827 31.387471 
L 152.587184 31.387471 
L 152.587184 30.860785 
L 156.538679 30.860785 
L 156.538679 30.334099 
L 338.688 30.334099 
L 338.688 30.334099 
" style="fill:none;stroke:#00bfbf;stroke-linecap:square;stroke-width:1.5;"/>
   </g>
   <g id="line2d_31">
    <defs>
     <path d="M -6 0 
L 6 0 
M 0 6 
L 0 -6 
" id="m908893f01a" style="stroke:#00bfbf;stroke-width:1.5;"/>
    </defs>
    <g>
     <use style="fill-opacity:0;stroke:#00bfbf;stroke-width:1.5;" x="128.856489" xlink:href="#m908893f01a" y="207.300622"/>
     <use style="fill-opacity:0;stroke:#00bfbf;stroke-width:1.5;" x="136.456742" xlink:href="#m908893f01a" y="72.468985"/>
     <use style="fill-opacity:0;stroke:#00bfbf;stroke-width:1.5;" x="156.538679" xlink:href="#m908893f01a" y="30.860785"/>
     <use style="fill-opacity:0;stroke:#00bfbf;stroke-width:1.5;" x="156.538679" xlink:href="#m908893f01a" y="30.334099"/>
     <use style="fill-opacity:0;stroke:#00bfbf;stroke-width:1.5;" x="338.688" xlink:href="#m908893f01a" y="30.334099"/>
    </g>
   </g>
   <g id="line2d_32">
    <path style="fill:none;stroke:#00bfbf;stroke-linecap:square;stroke-width:1.5;"/>
    <g/>
   </g>
   <g id="line2d_33">
    <path clip-path="url(#p3ab1d4caf9)" d="M 123.593547 241.008531 
" style="fill:none;stroke:#00bfbf;stroke-linecap:square;stroke-width:1.5;"/>
    <defs>
     <path d="M -12 12 
L 12 -12 
M -12 -12 
L 12 12 
" id="mddce596f28" style="stroke:#00bfbf;"/>
    </defs>
    <g clip-path="url(#p3ab1d4caf9)">
     <use style="fill:#00bfbf;stroke:#00bfbf;" x="123.593547" xlink:href="#mddce596f28" y="241.008531"/>
    </g>
   </g>
   <g id="line2d_34">
    <defs>
     <path d="M 0 1.5 
C 0.397805 1.5 0.77937 1.341951 1.06066 1.06066 
C 1.341951 0.77937 1.5 0.397805 1.5 0 
C 1.5 -0.397805 1.341951 -0.77937 1.06066 -1.06066 
C 0.77937 -1.341951 0.397805 -1.5 0 -1.5 
C -0.397805 -1.5 -0.77937 -1.341951 -1.06066 -1.06066 
C -1.341951 -0.77937 -1.5 -0.397805 -1.5 0 
C -1.5 0.397805 -1.341951 0.77937 -1.06066 1.06066 
C -0.77937 1.341951 -0.397805 1.5 0 1.5 
z
" id="md4aa88cafa" style="stroke:#008000;"/>
    </defs>
    <g>
     <use style="fill:#008000;stroke:#008000;" x="210.793924" xlink:href="#md4aa88cafa" y="30.334099"/>
     <use style="fill:#008000;stroke:#008000;" x="210.793924" xlink:href="#md4aa88cafa" y="30.334099"/>
    </g>
   </g>
   <g id="line2d_35">
    <path d="M 113.73488 298.944 
L 113.73488 298.417314 
L 115.291007 298.417314 
L 115.291007 297.890628 
L 115.711251 297.890628 
L 115.711251 297.363942 
L 115.917635 297.363942 
L 115.917635 296.31057 
L 117.297733 296.31057 
L 117.297733 295.783884 
L 122.362027 295.783884 
L 122.362027 295.257197 
L 122.643312 295.257197 
L 122.643312 294.203825 
L 127.272333 294.203825 
L 127.378995 291.570395 
L 127.590383 291.570395 
L 127.590383 290.517023 
L 128.511146 290.517023 
L 128.511146 289.990337 
L 130.487516 289.990337 
L 130.487516 288.936964 
L 131.439773 288.936964 
L 131.439773 287.883592 
L 131.856005 287.883592 
L 131.856005 286.83022 
L 132.342714 286.83022 
L 132.342714 285.776848 
L 132.816208 285.776848 
L 132.893889 283.670104 
L 133.503183 283.670104 
L 133.503183 283.143418 
L 133.800029 283.143418 
L 133.800029 282.616732 
L 135.076644 282.616732 
L 135.076644 282.090045 
L 135.280614 282.090045 
L 135.280614 281.563359 
L 135.681535 281.563359 
L 135.681535 281.036673 
L 135.813153 281.036673 
L 135.813153 279.456615 
L 136.008736 279.456615 
L 136.008736 277.349871 
L 136.769843 277.349871 
L 136.769843 276.823185 
L 136.893527 276.823185 
L 136.893527 276.296499 
L 137.558536 276.296499 
L 137.558536 275.769812 
L 137.676769 275.769812 
L 137.676769 274.71644 
L 137.852629 274.71644 
L 137.852629 273.663068 
L 138.026733 273.663068 
L 138.026733 272.609696 
L 138.141844 272.609696 
L 138.141844 272.08301 
L 138.256201 272.08301 
L 138.256201 271.556324 
L 138.482688 271.556324 
L 138.482688 271.029638 
L 138.594838 271.029638 
L 138.594838 270.502952 
L 138.981779 270.502952 
L 138.981779 269.976266 
L 140.348205 269.976266 
L 140.348205 269.449579 
L 140.846504 269.449579 
L 140.846504 268.922893 
L 141.235139 268.922893 
L 141.235139 268.396207 
L 141.568232 268.396207 
L 141.568232 267.869521 
L 143.31586 267.869521 
L 143.40093 266.816149 
L 143.527762 266.816149 
L 143.611807 263.656033 
L 143.653678 263.656033 
L 143.737119 261.022602 
L 144.06695 261.022602 
L 144.148442 258.915858 
L 144.390658 258.915858 
L 144.470655 257.862486 
L 144.589967 257.862486 
L 144.669057 256.282427 
L 144.787023 256.282427 
L 144.787023 255.755741 
L 145.020588 255.755741 
L 145.059213 254.702369 
L 145.327221 254.702369 
L 145.327221 254.175683 
L 145.440832 254.175683 
L 145.440832 253.122311 
L 145.591172 253.122311 
L 145.628555 252.068939 
L 145.851187 252.068939 
L 145.851187 250.488881 
L 146.324022 250.488881 
L 146.324022 248.382136 
L 146.679213 248.382136 
L 146.784375 247.328764 
L 146.888907 247.328764 
L 146.888907 246.802078 
L 147.096109 246.802078 
L 147.198794 245.22202 
L 147.232888 245.22202 
L 147.232888 244.695334 
L 147.4697 244.695334 
L 147.570215 243.115275 
L 147.70334 243.115275 
L 147.70334 242.588589 
L 148.193699 242.588589 
L 148.193699 242.061903 
L 148.76449 242.061903 
L 148.76449 241.535217 
L 149.012299 241.535217 
L 149.012299 241.008531 
L 149.195872 241.008531 
L 149.195872 240.481845 
L 149.407627 240.481845 
L 149.497598 239.428473 
L 149.676158 239.428473 
L 149.676158 238.901787 
L 149.911431 238.901787 
L 149.911431 238.375101 
L 150.172372 238.375101 
L 150.258492 237.321729 
L 150.486088 237.321729 
L 150.486088 236.795043 
L 150.682827 236.795043 
L 150.682827 235.74167 
L 150.822008 235.74167 
L 150.904986 234.688298 
L 151.151579 234.688298 
L 151.151579 233.634926 
L 151.554972 233.634926 
L 151.554972 232.581554 
L 152.232818 232.581554 
L 152.334802 231.528182 
L 152.385571 231.528182 
L 152.486669 229.948123 
L 152.687123 229.948123 
L 152.687123 229.421437 
L 152.811246 229.421437 
L 152.835965 228.368065 
L 153.29909 228.368065 
L 153.371104 227.314693 
L 153.442821 227.314693 
L 153.442821 226.788007 
L 153.561699 226.788007 
L 153.656221 225.207949 
L 153.679772 225.207949 
L 153.679772 224.681263 
L 153.820412 224.681263 
L 153.890309 222.574518 
L 154.144227 222.574518 
L 154.212841 221.521146 
L 154.326601 221.521146 
L 154.371897 219.941088 
L 154.507086 219.941088 
L 154.57429 218.887716 
L 154.618949 218.887716 
L 154.618949 218.36103 
L 154.77436 218.36103 
L 154.862549 217.307658 
L 154.972161 217.307658 
L 155.059358 216.254285 
L 155.189341 216.254285 
L 155.189341 215.727599 
L 155.318362 215.727599 
L 155.425155 214.674227 
L 155.488919 214.674227 
L 155.488919 213.620855 
L 155.762564 213.620855 
L 155.845906 212.567483 
L 155.949527 212.567483 
L 155.949527 212.040797 
L 156.073064 212.040797 
L 156.134506 210.987425 
L 156.256744 210.987425 
L 156.337763 209.407366 
L 156.43851 209.407366 
L 156.45859 208.353994 
L 156.578586 208.353994 
L 156.638275 207.300622 
L 156.717545 207.300622 
L 156.717545 206.773936 
L 156.972711 206.773936 
L 156.972711 206.24725 
L 157.472107 206.24725 
L 157.566527 204.140506 
L 158.067744 204.140506 
L 158.067744 203.087133 
L 158.322071 203.087133 
L 158.322071 202.560447 
L 158.67908 202.560447 
L 158.67908 202.033761 
L 158.924708 202.033761 
L 158.994256 200.980389 
L 159.046236 200.980389 
L 159.046236 200.453703 
L 159.320876 200.453703 
L 159.320876 199.400331 
L 160.087195 199.400331 
L 160.103486 198.346959 
L 160.297798 198.346959 
L 160.378126 196.7669 
L 160.474035 196.7669 
L 160.474035 196.240214 
L 160.852479 196.240214 
L 160.852479 195.713528 
L 161.11566 195.713528 
L 161.11566 195.186842 
L 161.253399 195.186842 
L 161.329454 194.13347 
L 161.480575 194.13347 
L 161.480575 193.606784 
L 161.630398 193.606784 
L 161.734513 191.50004 
L 161.838011 191.50004 
L 161.88218 190.446667 
L 162.115875 190.446667 
L 162.115875 189.919981 
L 162.503271 189.919981 
L 162.503271 189.393295 
L 162.658665 189.393295 
L 162.742845 188.339923 
L 162.854457 188.339923 
L 162.854457 187.813237 
L 162.979172 187.813237 
L 163.061823 186.233179 
L 163.103002 186.233179 
L 163.130401 185.179807 
L 163.239567 185.179807 
L 163.239567 184.653121 
L 163.549667 184.653121 
L 163.549667 184.126434 
L 163.762182 184.126434 
L 163.814908 183.073062 
L 163.932963 183.073062 
L 163.932963 182.546376 
L 164.089137 182.546376 
L 164.089137 182.01969 
L 164.269589 182.01969 
L 164.346358 180.966318 
L 164.42279 180.966318 
L 164.42279 180.439632 
L 164.650098 180.439632 
L 164.75018 179.38626 
L 164.800007 179.38626 
L 164.800007 178.859574 
L 165.144862 178.859574 
L 165.144862 178.332888 
L 165.399101 178.332888 
L 165.459092 177.279515 
L 165.53081 177.279515 
L 165.637836 175.699457 
L 165.744209 175.699457 
L 165.814766 174.646085 
L 165.955029 174.646085 
L 166.02474 173.066027 
L 166.209284 173.066027 
L 166.209284 172.539341 
L 166.323641 172.539341 
L 166.357802 170.432596 
L 166.527611 170.432596 
L 166.538873 169.379224 
L 166.829163 169.379224 
L 166.895472 168.325852 
L 167.114699 168.325852 
L 167.190782 167.27248 
L 167.266534 167.27248 
L 167.320442 165.165736 
L 167.682664 165.165736 
L 167.787784 164.112363 
L 167.808732 164.112363 
L 167.808732 163.585677 
L 168.006494 163.585677 
L 168.089095 162.005619 
L 168.171308 162.005619 
L 168.171308 161.478933 
L 168.445948 161.478933 
L 168.546579 158.318817 
L 168.566635 158.318817 
L 168.596677 157.265444 
L 168.77585 157.265444 
L 168.77585 156.738758 
L 168.972794 156.738758 
L 168.972794 156.212072 
L 169.157854 156.212072 
L 169.157854 155.685386 
L 169.66393 155.685386 
L 169.729685 154.105328 
L 169.795194 154.105328 
L 169.86976 153.051956 
L 170.082381 153.051956 
L 170.082381 152.52527 
L 170.29244 152.52527 
L 170.40104 149.891839 
L 170.553741 149.891839 
L 170.642945 148.311781 
L 170.775901 148.311781 
L 170.775901 147.785095 
L 170.907851 147.785095 
L 170.907851 147.258409 
L 171.603625 147.258409 
L 171.603625 146.731723 
L 171.72948 146.731723 
L 171.779569 145.151665 
L 171.937241 145.151665 
L 171.970255 144.098292 
L 172.06072 144.098292 
L 172.142557 142.518234 
L 172.224011 142.518234 
L 172.296995 140.938176 
L 172.744386 140.938176 
L 172.830933 139.884804 
L 172.917053 139.884804 
L 172.917053 139.358118 
L 173.111214 139.358118 
L 173.188276 138.304745 
L 173.455346 138.304745 
L 173.508272 135.671315 
L 173.576085 135.671315 
L 173.636143 134.091257 
L 173.896491 134.091257 
L 173.896491 133.564571 
L 174.109302 133.564571 
L 174.218366 132.511199 
L 174.377103 132.511199 
L 174.470228 130.93114 
L 174.498781 130.93114 
L 174.569962 129.351082 
L 174.83783 129.351082 
L 174.879752 127.771024 
L 175.032607 127.771024 
L 175.122305 126.190966 
L 175.388663 126.190966 
L 175.490035 124.610907 
L 175.57071 124.610907 
L 175.651014 122.504163 
L 175.730949 122.504163 
L 175.730949 121.977477 
L 175.876553 121.977477 
L 175.88973 120.924105 
L 176.092705 120.924105 
L 176.092705 120.397419 
L 176.523485 120.397419 
L 176.586878 119.344047 
L 176.725536 119.344047 
L 176.813202 118.290674 
L 176.869327 118.290674 
L 176.869327 117.763988 
L 177.036626 117.763988 
L 177.110469 116.710616 
L 177.287644 116.710616 
L 177.390674 115.657244 
L 177.426892 115.657244 
L 177.523109 114.603872 
L 177.666447 114.603872 
L 177.737676 113.023814 
L 177.802715 113.023814 
L 177.885142 111.443755 
L 177.961335 111.443755 
L 178.048838 109.863697 
L 178.643741 109.863697 
L 178.683063 108.810325 
L 178.794926 108.810325 
L 178.878354 107.756953 
L 178.988975 107.756953 
L 179.098898 105.650209 
L 179.300447 105.650209 
L 179.343721 104.07015 
L 179.467538 104.07015 
L 179.467538 103.543464 
L 179.686098 103.543464 
L 179.691395 102.490092 
L 179.959414 102.490092 
L 179.959414 101.963406 
L 180.290026 101.963406 
L 180.295143 100.910034 
L 180.478341 100.910034 
L 180.478341 100.383348 
L 180.819217 100.383348 
L 180.893522 98.803289 
L 180.937953 98.803289 
L 180.937953 98.276603 
L 181.318355 98.276603 
L 181.318355 97.749917 
L 181.500716 97.749917 
L 181.605428 96.696545 
L 181.652818 96.696545 
L 181.685914 95.643173 
L 181.845779 95.643173 
L 181.845779 95.116487 
L 182.156581 95.116487 
L 182.156581 94.589801 
L 182.366806 94.589801 
L 182.366806 94.063115 
L 182.574526 94.063115 
L 182.64173 93.009743 
L 182.726484 93.009743 
L 182.793106 91.429684 
L 182.868304 91.429684 
L 182.868304 90.902998 
L 183.295588 90.902998 
L 183.398652 89.32294 
L 183.428598 89.32294 
L 183.428598 88.796254 
L 183.560601 88.796254 
L 183.590271 87.742882 
L 183.97145 87.742882 
L 184.066487 86.162824 
L 184.091194 86.162824 
L 184.181489 84.056079 
L 184.283534 84.056079 
L 184.37689 83.002707 
L 184.48987 83.002707 
L 184.48987 82.476021 
L 184.602123 82.476021 
L 184.602123 81.949335 
L 184.883568 81.949335 
L 184.883568 81.422649 
L 185.145055 81.422649 
L 185.245481 79.315904 
L 185.345331 79.315904 
L 185.345331 78.789218 
L 185.49784 78.789218 
L 185.554689 77.735846 
L 185.637733 77.735846 
L 185.637733 77.20916 
L 185.81756 77.20916 
L 185.81756 76.682474 
L 186.219158 76.682474 
L 186.280968 75.629102 
L 186.371467 75.629102 
L 186.371467 75.102416 
L 186.604592 75.102416 
L 186.629513 74.049044 
L 186.810013 74.049044 
L 186.810013 73.522358 
L 186.936309 73.522358 
L 186.936309 72.995672 
L 187.137881 72.995672 
L 187.137881 72.468985 
L 187.313221 72.468985 
L 187.33715 71.415613 
L 187.446124 71.415613 
L 187.446124 70.888927 
L 187.722303 70.888927 
L 187.818938 69.835555 
L 188.03689 69.835555 
L 188.03689 69.308869 
L 188.164412 69.308869 
L 188.164412 68.782183 
L 188.519143 68.782183 
L 188.611474 67.202125 
L 188.684355 67.202125 
L 188.684355 66.675439 
L 188.854281 66.675439 
L 188.913678 64.568694 
L 189.050458 64.568694 
L 189.050458 64.042008 
L 189.223003 64.042008 
L 189.223003 63.515322 
L 189.523924 63.515322 
L 189.523924 62.988636 
L 189.641057 62.988636 
L 189.751461 61.408578 
L 189.807884 61.408578 
L 189.843426 60.355206 
L 189.964318 60.355206 
L 189.979004 59.301833 
L 190.104793 59.301833 
L 190.104793 58.775147 
L 190.868971 58.775147 
L 190.868971 58.248461 
L 190.991293 58.248461 
L 190.991293 57.721775 
L 191.651817 57.721775 
L 191.651817 57.195089 
L 191.850732 57.195089 
L 191.877083 56.141717 
L 192.076062 56.141717 
L 192.076062 55.615031 
L 192.637057 55.615031 
L 192.637057 55.088345 
L 193.153667 55.088345 
L 193.187895 54.034973 
L 193.650656 54.034973 
L 193.752633 52.9816 
L 193.933767 52.9816 
L 193.933767 52.454914 
L 194.475224 52.454914 
L 194.552189 51.401542 
L 195.223482 51.401542 
L 195.223482 50.874856 
L 195.661311 50.874856 
L 195.733226 49.821484 
L 196.67412 49.821484 
L 196.775818 48.768112 
L 197.404575 48.768112 
L 197.509741 47.71474 
L 197.564938 47.71474 
L 197.564938 47.188054 
L 197.772731 47.188054 
L 197.772731 46.661368 
L 197.948358 46.661368 
L 197.948358 46.134681 
L 198.283456 46.134681 
L 198.283456 45.607995 
L 198.556671 45.607995 
L 198.556671 45.081309 
L 199.047003 45.081309 
L 199.047003 44.554623 
L 199.160093 44.554623 
L 199.160093 44.027937 
L 199.568028 44.027937 
L 199.617089 42.974565 
L 199.726553 42.974565 
L 199.726553 42.447879 
L 199.855343 42.447879 
L 199.935149 40.341135 
L 200.031097 40.341135 
L 200.031097 39.814448 
L 200.312567 39.814448 
L 200.312567 39.287762 
L 200.557581 39.287762 
L 200.557581 38.761076 
L 200.870096 38.761076 
L 200.871668 37.707704 
L 201.463621 37.707704 
L 201.463621 37.181018 
L 201.654051 37.181018 
L 201.666071 36.127646 
L 201.93881 36.127646 
L 201.93881 35.60096 
L 202.170907 35.60096 
L 202.170907 35.074274 
L 202.428734 35.074274 
L 202.428734 34.547588 
L 202.816906 34.547588 
L 202.83939 33.494215 
L 203.466944 33.494215 
L 203.466944 32.967529 
L 203.591135 32.967529 
L 203.591135 32.440843 
L 204.123653 32.440843 
L 204.123653 31.914157 
L 206.20566 31.914157 
L 206.20566 31.387471 
L 206.62436 31.387471 
L 206.62436 30.860785 
L 210.793924 30.860785 
L 210.793924 30.334099 
L 338.688 30.334099 
L 338.688 30.334099 
" style="fill:none;stroke:#008000;stroke-linecap:square;stroke-width:1.5;"/>
   </g>
   <g id="line2d_36">
    <defs>
     <path d="M -0 6 
L 6 -6 
L -6 -6 
z
" id="m07ca2f2e56" style="stroke:#008000;stroke-linejoin:miter;stroke-width:1.5;"/>
    </defs>
    <g>
     <use style="fill-opacity:0;stroke:#008000;stroke-linejoin:miter;stroke-width:1.5;" x="174.569962" xlink:href="#m07ca2f2e56" y="129.351082"/>
     <use style="fill-opacity:0;stroke:#008000;stroke-linejoin:miter;stroke-width:1.5;" x="210.793924" xlink:href="#m07ca2f2e56" y="30.860785"/>
     <use style="fill-opacity:0;stroke:#008000;stroke-linejoin:miter;stroke-width:1.5;" x="210.793924" xlink:href="#m07ca2f2e56" y="30.334099"/>
     <use style="fill-opacity:0;stroke:#008000;stroke-linejoin:miter;stroke-width:1.5;" x="210.793924" xlink:href="#m07ca2f2e56" y="30.334099"/>
     <use style="fill-opacity:0;stroke:#008000;stroke-linejoin:miter;stroke-width:1.5;" x="338.688" xlink:href="#m07ca2f2e56" y="30.334099"/>
    </g>
   </g>
   <g id="line2d_37">
    <path style="fill:none;stroke:#008000;stroke-linecap:square;stroke-width:1.5;"/>
    <g/>
   </g>
   <g id="line2d_38">
    <path clip-path="url(#p3ab1d4caf9)" d="M 133.946579 282.616732 
" style="fill:none;stroke:#008000;stroke-linecap:square;stroke-width:1.5;"/>
    <defs>
     <path d="M -12 12 
L 12 -12 
M -12 -12 
L 12 12 
" id="ma5cf16225c" style="stroke:#008000;"/>
    </defs>
    <g clip-path="url(#p3ab1d4caf9)">
     <use style="fill:#008000;stroke:#008000;" x="133.946579" xlink:href="#ma5cf16225c" y="282.616732"/>
    </g>
   </g>
   <g id="line2d_39">
    <defs>
     <path d="M 0 1.5 
C 0.397805 1.5 0.77937 1.341951 1.06066 1.06066 
C 1.341951 0.77937 1.5 0.397805 1.5 0 
C 1.5 -0.397805 1.341951 -0.77937 1.06066 -1.06066 
C 0.77937 -1.341951 0.397805 -1.5 0 -1.5 
C -0.397805 -1.5 -0.77937 -1.341951 -1.06066 -1.06066 
C -1.341951 -0.77937 -1.5 -0.397805 -1.5 0 
C -1.5 0.397805 -1.341951 0.77937 -1.06066 1.06066 
C -0.77937 1.341951 -0.397805 1.5 0 1.5 
z
" id="m893b3dbca1" style="stroke:#0000ff;"/>
    </defs>
    <g>
     <use style="fill:#0000ff;stroke:#0000ff;" x="202.90527" xlink:href="#m893b3dbca1" y="272.609696"/>
     <use style="fill:#0000ff;stroke:#0000ff;" x="202.90527" xlink:href="#m893b3dbca1" y="272.609696"/>
    </g>
   </g>
   <g id="line2d_40">
    <path d="M 131.185181 298.944 
L 131.185181 298.417314 
L 132.422528 298.417314 
L 132.422528 297.890628 
L 133.398082 297.890628 
L 133.398082 297.363942 
L 139.69937 297.363942 
L 139.69937 296.837256 
L 141.521035 296.837256 
L 141.521035 296.31057 
L 146.388493 296.31057 
L 146.388493 295.783884 
L 147.650212 295.783884 
L 147.650212 295.257197 
L 148.411533 295.257197 
L 148.411533 294.730511 
L 149.030744 294.730511 
L 149.030744 294.203825 
L 149.25057 294.203825 
L 149.25057 293.677139 
L 149.359452 293.677139 
L 149.359452 293.150453 
L 149.377533 293.150453 
L 149.377533 292.623767 
L 149.664311 292.623767 
L 149.664311 292.097081 
L 150.716332 292.097081 
L 150.716332 291.570395 
L 152.587184 291.570395 
L 152.587184 291.043709 
L 155.335493 291.043709 
L 155.335493 290.517023 
L 156.976607 290.517023 
L 156.976607 289.990337 
L 157.243392 289.990337 
L 157.243392 289.463651 
L 158.805835 289.463651 
L 158.805835 288.936964 
L 159.149734 288.936964 
L 159.149734 288.410278 
L 159.778062 288.410278 
L 159.778062 287.883592 
L 163.58171 287.883592 
L 163.58171 287.356906 
L 163.89108 287.356906 
L 163.89108 286.83022 
L 164.531763 286.83022 
L 164.531763 286.303534 
L 164.79503 286.303534 
L 164.79503 285.776848 
L 165.880363 285.776848 
L 165.880363 285.250162 
L 167.82338 285.250162 
L 167.82338 284.723476 
L 168.367051 284.723476 
L 168.367051 284.19679 
L 173.394661 284.19679 
L 173.394661 283.143418 
L 173.612145 283.143418 
L 173.612145 282.616732 
L 177.55666 282.616732 
L 177.55666 282.090045 
L 178.069773 282.090045 
L 178.069773 281.563359 
L 179.308028 281.563359 
L 179.308028 281.036673 
L 179.533929 281.036673 
L 179.533929 280.509987 
L 180.098621 280.509987 
L 180.098621 279.983301 
L 180.732625 279.983301 
L 180.732625 279.456615 
L 182.471879 279.456615 
L 182.471879 278.929929 
L 182.931748 278.929929 
L 182.931748 278.403243 
L 183.107652 278.403243 
L 183.107652 277.876557 
L 183.876725 277.876557 
L 183.876725 277.349871 
L 184.962035 277.349871 
L 184.962035 276.823185 
L 187.231615 276.823185 
L 187.231615 276.296499 
L 187.932877 276.296499 
L 187.932877 275.769812 
L 188.5746 275.769812 
L 188.5746 275.243126 
L 190.572982 275.243126 
L 190.572982 274.71644 
L 191.036668 274.71644 
L 191.036668 274.189754 
L 193.505919 274.189754 
L 193.505919 273.663068 
L 199.614048 273.663068 
L 199.614048 273.136382 
L 202.90527 273.136382 
L 202.90527 272.609696 
L 338.688 272.609696 
" style="fill:none;stroke:#0000ff;stroke-linecap:square;stroke-width:1.5;"/>
   </g>
   <g id="line2d_41">
    <defs>
     <path d="M 0 -6 
L -1.347084 -1.854102 
L -5.706339 -1.854102 
L -2.179628 0.708204 
L -3.526712 4.854102 
L -0 2.291796 
L 3.526712 4.854102 
L 2.179628 0.708204 
L 5.706339 -1.854102 
L 1.347084 -1.854102 
z
" id="m00be5d25dc" style="stroke:#0000ff;stroke-linejoin:bevel;stroke-width:1.5;"/>
    </defs>
    <g>
     <use style="fill-opacity:0;stroke:#0000ff;stroke-linejoin:bevel;stroke-width:1.5;" x="182.471879" xlink:href="#m00be5d25dc" y="279.456615"/>
     <use style="fill-opacity:0;stroke:#0000ff;stroke-linejoin:bevel;stroke-width:1.5;" x="202.90527" xlink:href="#m00be5d25dc" y="273.136382"/>
     <use style="fill-opacity:0;stroke:#0000ff;stroke-linejoin:bevel;stroke-width:1.5;" x="202.90527" xlink:href="#m00be5d25dc" y="272.609696"/>
     <use style="fill-opacity:0;stroke:#0000ff;stroke-linejoin:bevel;stroke-width:1.5;" x="202.90527" xlink:href="#m00be5d25dc" y="272.609696"/>
     <use style="fill-opacity:0;stroke:#0000ff;stroke-linejoin:bevel;stroke-width:1.5;" x="338.688" xlink:href="#m00be5d25dc" y="272.609696"/>
    </g>
   </g>
   <g id="line2d_42">
    <path style="fill:none;stroke:#0000ff;stroke-linecap:square;stroke-width:1.5;"/>
    <g/>
   </g>
   <g id="line2d_43">
    <path clip-path="url(#p3ab1d4caf9)" d="M 143.349938 296.31057 
" style="fill:none;stroke:#0000ff;stroke-linecap:square;stroke-width:1.5;"/>
    <defs>
     <path d="M -12 12 
L 12 -12 
M -12 -12 
L 12 12 
" id="m6dae62e39d" style="stroke:#0000ff;"/>
    </defs>
    <g clip-path="url(#p3ab1d4caf9)">
     <use style="fill:#0000ff;stroke:#0000ff;" x="143.349938" xlink:href="#m6dae62e39d" y="296.31057"/>
    </g>
   </g>
   <g id="line2d_44">
    <path clip-path="url(#p3ab1d4caf9)" d="M 57.6 298.944 
L 57.6 298.944 
L 57.6 298.944 
L 57.6 298.944 
L 338.688 298.944 
" style="fill:none;stroke:#000000;stroke-linecap:square;stroke-width:1.5;"/>
   </g>
   <g id="line2d_45">
    <defs>
     <path d="M 0 6 
C 1.591219 6 3.117479 5.367802 4.242641 4.242641 
C 5.367802 3.117479 6 1.591219 6 0 
C 6 -1.591219 5.367802 -3.117479 4.242641 -4.242641 
C 3.117479 -5.367802 1.591219 -6 0 -6 
C -1.591219 -6 -3.117479 -5.367802 -4.242641 -4.242641 
C -5.367802 -3.117479 -6 -1.591219 -6 0 
C -6 1.591219 -5.367802 3.117479 -4.242641 4.242641 
C -3.117479 5.367802 -1.591219 6 0 6 
z
" id="m5a14a5fe13" style="stroke:#000000;stroke-width:1.5;"/>
    </defs>
    <g clip-path="url(#p3ab1d4caf9)">
     <use style="fill-opacity:0;stroke:#000000;stroke-width:1.5;" x="57.6" xlink:href="#m5a14a5fe13" y="298.944"/>
    </g>
   </g>
   <g id="line2d_46">
    <path clip-path="url(#p3ab1d4caf9)" style="fill:none;stroke:#000000;stroke-linecap:square;stroke-width:1.5;"/>
    <g clip-path="url(#p3ab1d4caf9)">
     <use style="fill-opacity:0;stroke:#000000;stroke-width:1.5;" x="-1" xlink:href="#m5a14a5fe13" y="567.553901"/>
     <use style="fill-opacity:0;stroke:#000000;stroke-width:1.5;" x="338.688" xlink:href="#m5a14a5fe13" y="567.553901"/>
    </g>
   </g>
   <g id="line2d_47">
    <path clip-path="url(#p3ab1d4caf9)" d="M 57.6 298.944 
L 57.6 298.944 
L 57.6 298.944 
L 57.6 298.944 
L 338.688 298.944 
" style="fill:none;stroke:#ff0000;stroke-linecap:square;stroke-width:1.5;"/>
   </g>
   <g id="line2d_48">
    <defs>
     <path d="M -6 6 
L 6 6 
L 6 -6 
L -6 -6 
z
" id="m1e720e0810" style="stroke:#ff0000;stroke-linejoin:miter;stroke-width:1.5;"/>
    </defs>
    <g clip-path="url(#p3ab1d4caf9)">
     <use style="fill-opacity:0;stroke:#ff0000;stroke-linejoin:miter;stroke-width:1.5;" x="57.6" xlink:href="#m1e720e0810" y="298.944"/>
    </g>
   </g>
   <g id="line2d_49">
    <path clip-path="url(#p3ab1d4caf9)" style="fill:none;stroke:#ff0000;stroke-linecap:square;stroke-width:1.5;"/>
    <g clip-path="url(#p3ab1d4caf9)">
     <use style="fill-opacity:0;stroke:#ff0000;stroke-linejoin:miter;stroke-width:1.5;" x="-1" xlink:href="#m1e720e0810" y="567.553901"/>
     <use style="fill-opacity:0;stroke:#ff0000;stroke-linejoin:miter;stroke-width:1.5;" x="338.688" xlink:href="#m1e720e0810" y="567.553901"/>
    </g>
   </g>
   <g id="line2d_50">
    <path clip-path="url(#p3ab1d4caf9)" d="M 57.6 298.944 
L 57.6 298.944 
L 57.6 298.944 
L 57.6 298.944 
L 338.688 298.944 
" style="fill:none;stroke:#bf00bf;stroke-linecap:square;stroke-width:1.5;"/>
   </g>
   <g id="line2d_51">
    <defs>
     <path d="M -0 8.485281 
L 8.485281 0 
L 0 -8.485281 
L -8.485281 -0 
z
" id="m627059b7bf" style="stroke:#bf00bf;stroke-linejoin:miter;stroke-width:1.5;"/>
    </defs>
    <g clip-path="url(#p3ab1d4caf9)">
     <use style="fill-opacity:0;stroke:#bf00bf;stroke-linejoin:miter;stroke-width:1.5;" x="57.6" xlink:href="#m627059b7bf" y="298.944"/>
    </g>
   </g>
   <g id="line2d_52">
    <path clip-path="url(#p3ab1d4caf9)" style="fill:none;stroke:#bf00bf;stroke-linecap:square;stroke-width:1.5;"/>
    <g clip-path="url(#p3ab1d4caf9)">
     <use style="fill-opacity:0;stroke:#bf00bf;stroke-linejoin:miter;stroke-width:1.5;" x="-1" xlink:href="#m627059b7bf" y="567.553901"/>
     <use style="fill-opacity:0;stroke:#bf00bf;stroke-linejoin:miter;stroke-width:1.5;" x="338.688" xlink:href="#m627059b7bf" y="567.553901"/>
    </g>
   </g>
   <g id="line2d_53">
    <path d="M 338.688 298.944 
L 369.60768 293.571802 
" style="fill:none;stroke:#bf00bf;stroke-linecap:square;stroke-width:1.5;"/>
    <g>
     <use style="fill-opacity:0;stroke:#bf00bf;stroke-linejoin:miter;stroke-width:1.5;" x="338.688" xlink:href="#m627059b7bf" y="298.944"/>
     <use style="fill-opacity:0;stroke:#bf00bf;stroke-linejoin:miter;stroke-width:1.5;" x="369.60768" xlink:href="#m627059b7bf" y="293.571802"/>
    </g>
   </g>
   <g id="line2d_54">
    <path d="M 338.688 298.944 
L 369.60768 241.998701 
" style="fill:none;stroke:#ff0000;stroke-linecap:square;stroke-width:1.5;"/>
    <g>
     <use style="fill-opacity:0;stroke:#ff0000;stroke-linejoin:miter;stroke-width:1.5;" x="338.688" xlink:href="#m1e720e0810" y="298.944"/>
     <use style="fill-opacity:0;stroke:#ff0000;stroke-linejoin:miter;stroke-width:1.5;" x="369.60768" xlink:href="#m1e720e0810" y="241.998701"/>
    </g>
   </g>
   <g id="line2d_55">
    <path d="M 338.688 298.944 
L 369.60768 190.4256 
" style="fill:none;stroke:#000000;stroke-linecap:square;stroke-width:1.5;"/>
    <g>
     <use style="fill-opacity:0;stroke:#000000;stroke-width:1.5;" x="338.688" xlink:href="#m5a14a5fe13" y="298.944"/>
     <use style="fill-opacity:0;stroke:#000000;stroke-width:1.5;" x="369.60768" xlink:href="#m5a14a5fe13" y="190.4256"/>
    </g>
   </g>
   <g id="line2d_56">
    <path d="M 338.688 272.609696 
L 369.60768 138.852499 
" style="fill:none;stroke:#0000ff;stroke-linecap:square;stroke-width:1.5;"/>
    <g>
     <use style="fill-opacity:0;stroke:#0000ff;stroke-linejoin:bevel;stroke-width:1.5;" x="338.688" xlink:href="#m00be5d25dc" y="272.609696"/>
     <use style="fill-opacity:0;stroke:#0000ff;stroke-linejoin:bevel;stroke-width:1.5;" x="369.60768" xlink:href="#m00be5d25dc" y="138.852499"/>
    </g>
   </g>
   <g id="line2d_57">
    <path d="M 338.688 30.334099 
L 369.60768 87.279398 
" style="fill:none;stroke:#008000;stroke-linecap:square;stroke-width:1.5;"/>
    <g>
     <use style="fill-opacity:0;stroke:#008000;stroke-linejoin:miter;stroke-width:1.5;" x="338.688" xlink:href="#m07ca2f2e56" y="30.334099"/>
     <use style="fill-opacity:0;stroke:#008000;stroke-linejoin:miter;stroke-width:1.5;" x="369.60768" xlink:href="#m07ca2f2e56" y="87.279398"/>
    </g>
   </g>
   <g id="line2d_58">
    <path d="M 338.688 30.334099 
L 369.60768 35.706297 
" style="fill:none;stroke:#00bfbf;stroke-linecap:square;stroke-width:1.5;"/>
    <g>
     <use style="fill-opacity:0;stroke:#00bfbf;stroke-width:1.5;" x="338.688" xlink:href="#m908893f01a" y="30.334099"/>
     <use style="fill-opacity:0;stroke:#00bfbf;stroke-width:1.5;" x="369.60768" xlink:href="#m908893f01a" y="35.706297"/>
    </g>
   </g>
   <g id="line2d_59">
    <path d="M 338.688 298.944 
L 338.688 30.334099 
" style="fill:none;stroke:#000000;stroke-linecap:square;stroke-width:1.5;"/>
   </g>
   <g id="patch_3">
    <path d="M 57.6 298.944 
L 57.6 27.648 
" style="fill:none;stroke:#000000;stroke-linecap:square;stroke-linejoin:miter;stroke-width:0.8;"/>
   </g>
   <g id="patch_4">
    <path d="M 338.688 298.944 
L 338.688 27.648 
" style="fill:none;stroke:#000000;stroke-linecap:square;stroke-linejoin:miter;stroke-width:0.8;"/>
   </g>
   <g id="patch_5">
    <path d="M 57.6 298.944 
L 338.688 298.944 
" style="fill:none;stroke:#000000;stroke-linecap:square;stroke-linejoin:miter;stroke-width:0.8;"/>
   </g>
   <g id="patch_6">
    <path d="M 57.6 27.648 
L 338.688 27.648 
" style="fill:none;stroke:#000000;stroke-linecap:square;stroke-linejoin:miter;stroke-width:0.8;"/>
   </g>
   <g id="text_13">
    <!-- 40-D -->
    <g transform="translate(375.22944 298.262739)scale(0.17 -0.17)">
     <defs>
      <path d="M 19.671875 64.796875 
L 19.671875 8.109375 
L 31.59375 8.109375 
Q 46.6875 8.109375 53.6875 14.9375 
Q 60.6875 21.78125 60.6875 36.53125 
Q 60.6875 51.171875 53.6875 57.984375 
Q 46.6875 64.796875 31.59375 64.796875 
z
M 9.8125 72.90625 
L 30.078125 72.90625 
Q 51.265625 72.90625 61.171875 64.09375 
Q 71.09375 55.28125 71.09375 36.53125 
Q 71.09375 17.671875 61.125 8.828125 
Q 51.171875 0 30.078125 0 
L 9.8125 0 
z
" id="DejaVuSans-68"/>
     </defs>
     <use xlink:href="#DejaVuSans-52"/>
     <use x="63.623047" xlink:href="#DejaVuSans-48"/>
     <use x="127.246094" xlink:href="#DejaVuSans-45"/>
     <use x="163.330078" xlink:href="#DejaVuSans-68"/>
    </g>
   </g>
   <g id="text_14">
    <!-- 20-D -->
    <g transform="translate(375.22944 246.689638)scale(0.17 -0.17)">
     <use xlink:href="#DejaVuSans-50"/>
     <use x="63.623047" xlink:href="#DejaVuSans-48"/>
     <use x="127.246094" xlink:href="#DejaVuSans-45"/>
     <use x="163.330078" xlink:href="#DejaVuSans-68"/>
    </g>
   </g>
   <g id="text_15">
    <!-- 10-D -->
    <g transform="translate(375.22944 195.116537)scale(0.17 -0.17)">
     <use xlink:href="#DejaVuSans-49"/>
     <use x="63.623047" xlink:href="#DejaVuSans-48"/>
     <use x="127.246094" xlink:href="#DejaVuSans-45"/>
     <use x="163.330078" xlink:href="#DejaVuSans-68"/>
    </g>
   </g>
   <g id="text_16">
    <!-- 5-D -->
    <g transform="translate(375.22944 143.543437)scale(0.17 -0.17)">
     <defs>
      <path d="M 10.796875 72.90625 
L 49.515625 72.90625 
L 49.515625 64.59375 
L 19.828125 64.59375 
L 19.828125 46.734375 
Q 21.96875 47.46875 24.109375 47.828125 
Q 26.265625 48.1875 28.421875 48.1875 
Q 40.625 48.1875 47.75 41.5 
Q 54.890625 34.8125 54.890625 23.390625 
Q 54.890625 11.625 47.5625 5.09375 
Q 40.234375 -1.421875 26.90625 -1.421875 
Q 22.3125 -1.421875 17.546875 -0.640625 
Q 12.796875 0.140625 7.71875 1.703125 
L 7.71875 11.625 
Q 12.109375 9.234375 16.796875 8.0625 
Q 21.484375 6.890625 26.703125 6.890625 
Q 35.15625 6.890625 40.078125 11.328125 
Q 45.015625 15.765625 45.015625 23.390625 
Q 45.015625 31 40.078125 35.4375 
Q 35.15625 39.890625 26.703125 39.890625 
Q 22.75 39.890625 18.8125 39.015625 
Q 14.890625 38.140625 10.796875 36.28125 
z
" id="DejaVuSans-53"/>
     </defs>
     <use xlink:href="#DejaVuSans-53"/>
     <use x="63.623047" xlink:href="#DejaVuSans-45"/>
     <use x="99.707031" xlink:href="#DejaVuSans-68"/>
    </g>
   </g>
   <g id="text_17">
    <!-- 3-D -->
    <g transform="translate(375.22944 91.970336)scale(0.17 -0.17)">
     <defs>
      <path d="M 40.578125 39.3125 
Q 47.65625 37.796875 51.625 33 
Q 55.609375 28.21875 55.609375 21.1875 
Q 55.609375 10.40625 48.1875 4.484375 
Q 40.765625 -1.421875 27.09375 -1.421875 
Q 22.515625 -1.421875 17.65625 -0.515625 
Q 12.796875 0.390625 7.625 2.203125 
L 7.625 11.71875 
Q 11.71875 9.328125 16.59375 8.109375 
Q 21.484375 6.890625 26.8125 6.890625 
Q 36.078125 6.890625 40.9375 10.546875 
Q 45.796875 14.203125 45.796875 21.1875 
Q 45.796875 27.640625 41.28125 31.265625 
Q 36.765625 34.90625 28.71875 34.90625 
L 20.21875 34.90625 
L 20.21875 43.015625 
L 29.109375 43.015625 
Q 36.375 43.015625 40.234375 45.921875 
Q 44.09375 48.828125 44.09375 54.296875 
Q 44.09375 59.90625 40.109375 62.90625 
Q 36.140625 65.921875 28.71875 65.921875 
Q 24.65625 65.921875 20.015625 65.03125 
Q 15.375 64.15625 9.8125 62.3125 
L 9.8125 71.09375 
Q 15.4375 72.65625 20.34375 73.4375 
Q 25.25 74.21875 29.59375 74.21875 
Q 40.828125 74.21875 47.359375 69.109375 
Q 53.90625 64.015625 53.90625 55.328125 
Q 53.90625 49.265625 50.4375 45.09375 
Q 46.96875 40.921875 40.578125 39.3125 
z
" id="DejaVuSans-51"/>
     </defs>
     <use xlink:href="#DejaVuSans-51"/>
     <use x="63.623047" xlink:href="#DejaVuSans-45"/>
     <use x="99.707031" xlink:href="#DejaVuSans-68"/>
    </g>
   </g>
   <g id="text_18">
    <!-- 2-D -->
    <g transform="translate(375.22944 40.397235)scale(0.17 -0.17)">
     <use xlink:href="#DejaVuSans-50"/>
     <use x="63.623047" xlink:href="#DejaVuSans-45"/>
     <use x="99.707031" xlink:href="#DejaVuSans-68"/>
    </g>
   </g>
   <g id="text_19">
    <!-- bbob f2 -->
    <g transform="translate(60.41088 38.111366)scale(0.102 -0.102)">
     <defs>
      <path d="M 48.6875 27.296875 
Q 48.6875 37.203125 44.609375 42.84375 
Q 40.53125 48.484375 33.40625 48.484375 
Q 26.265625 48.484375 22.1875 42.84375 
Q 18.109375 37.203125 18.109375 27.296875 
Q 18.109375 17.390625 22.1875 11.75 
Q 26.265625 6.109375 33.40625 6.109375 
Q 40.53125 6.109375 44.609375 11.75 
Q 48.6875 17.390625 48.6875 27.296875 
z
M 18.109375 46.390625 
Q 20.953125 51.265625 25.265625 53.625 
Q 29.59375 56 35.59375 56 
Q 45.5625 56 51.78125 48.09375 
Q 58.015625 40.1875 58.015625 27.296875 
Q 58.015625 14.40625 51.78125 6.484375 
Q 45.5625 -1.421875 35.59375 -1.421875 
Q 29.59375 -1.421875 25.265625 0.953125 
Q 20.953125 3.328125 18.109375 8.203125 
L 18.109375 0 
L 9.078125 0 
L 9.078125 75.984375 
L 18.109375 75.984375 
z
" id="DejaVuSans-98"/>
     </defs>
     <use xlink:href="#DejaVuSans-98"/>
     <use x="63.476562" xlink:href="#DejaVuSans-98"/>
     <use x="126.953125" xlink:href="#DejaVuSans-111"/>
     <use x="188.134766" xlink:href="#DejaVuSans-98"/>
     <use x="251.611328" xlink:href="#DejaVuSans-32"/>
     <use x="283.398438" xlink:href="#DejaVuSans-102"/>
     <use x="318.603516" xlink:href="#DejaVuSans-50"/>
    </g>
    <!-- 51 targets: 100..1e-08 -->
    <g transform="translate(60.41088 49.533135)scale(0.102 -0.102)">
     <defs>
      <path d="M 11.71875 12.40625 
L 22.015625 12.40625 
L 22.015625 0 
L 11.71875 0 
z
M 11.71875 51.703125 
L 22.015625 51.703125 
L 22.015625 39.3125 
L 11.71875 39.3125 
z
" id="DejaVuSans-58"/>
     </defs>
     <use xlink:href="#DejaVuSans-53"/>
     <use x="63.623047" xlink:href="#DejaVuSans-49"/>
     <use x="127.246094" xlink:href="#DejaVuSans-32"/>
     <use x="159.033203" xlink:href="#DejaVuSans-116"/>
     <use x="198.242188" xlink:href="#DejaVuSans-97"/>
     <use x="259.521484" xlink:href="#DejaVuSans-114"/>
     <use x="298.884766" xlink:href="#DejaVuSans-103"/>
     <use x="362.361328" xlink:href="#DejaVuSans-101"/>
     <use x="423.884766" xlink:href="#DejaVuSans-116"/>
     <use x="463.09375" xlink:href="#DejaVuSans-115"/>
     <use x="515.193359" xlink:href="#DejaVuSans-58"/>
     <use x="548.884766" xlink:href="#DejaVuSans-32"/>
     <use x="580.671875" xlink:href="#DejaVuSans-49"/>
     <use x="644.294922" xlink:href="#DejaVuSans-48"/>
     <use x="707.917969" xlink:href="#DejaVuSans-48"/>
     <use x="771.541016" xlink:href="#DejaVuSans-46"/>
     <use x="803.328125" xlink:href="#DejaVuSans-46"/>
     <use x="835.115234" xlink:href="#DejaVuSans-49"/>
     <use x="898.738281" xlink:href="#DejaVuSans-101"/>
     <use x="960.261719" xlink:href="#DejaVuSans-45"/>
     <use x="996.345703" xlink:href="#DejaVuSans-48"/>
     <use x="1059.96875" xlink:href="#DejaVuSans-56"/>
    </g>
    <!-- 15 instances -->
    <g transform="translate(60.41088 60.954904)scale(0.102 -0.102)">
     <use xlink:href="#DejaVuSans-49"/>
     <use x="63.623047" xlink:href="#DejaVuSans-53"/>
     <use x="127.246094" xlink:href="#DejaVuSans-32"/>
     <use x="159.033203" xlink:href="#DejaVuSans-105"/>
     <use x="186.816406" xlink:href="#DejaVuSans-110"/>
     <use x="250.195312" xlink:href="#DejaVuSans-115"/>
     <use x="302.294922" xlink:href="#DejaVuSans-116"/>
     <use x="341.503906" xlink:href="#DejaVuSans-97"/>
     <use x="402.783203" xlink:href="#DejaVuSans-110"/>
     <use x="466.162109" xlink:href="#DejaVuSans-99"/>
     <use x="521.142578" xlink:href="#DejaVuSans-101"/>
     <use x="582.666016" xlink:href="#DejaVuSans-115"/>
    </g>
   </g>
   <g id="text_20">
    <!-- v2.4 -->
    <g style="fill:#808080;" transform="translate(187.233062 294.151352)scale(0.1 -0.1)">
     <use xlink:href="#DejaVuSans-118"/>
     <use x="59.179688" xlink:href="#DejaVuSans-50"/>
     <use x="122.802734" xlink:href="#DejaVuSans-46"/>
     <use x="154.589844" xlink:href="#DejaVuSans-52"/>
    </g>
   </g>
   <g id="text_21">
    <!-- 2 Ellipsoid separable -->
    <g transform="translate(94.611187 21.648)scale(0.2 -0.2)">
     <defs>
      <path d="M 9.8125 72.90625 
L 55.90625 72.90625 
L 55.90625 64.59375 
L 19.671875 64.59375 
L 19.671875 43.015625 
L 54.390625 43.015625 
L 54.390625 34.71875 
L 19.671875 34.71875 
L 19.671875 8.296875 
L 56.78125 8.296875 
L 56.78125 0 
L 9.8125 0 
z
" id="DejaVuSans-69"/>
     </defs>
     <use xlink:href="#DejaVuSans-50"/>
     <use x="63.623047" xlink:href="#DejaVuSans-32"/>
     <use x="95.410156" xlink:href="#DejaVuSans-69"/>
     <use x="158.59375" xlink:href="#DejaVuSans-108"/>
     <use x="186.376953" xlink:href="#DejaVuSans-108"/>
     <use x="214.160156" xlink:href="#DejaVuSans-105"/>
     <use x="241.943359" xlink:href="#DejaVuSans-112"/>
     <use x="305.419922" xlink:href="#DejaVuSans-115"/>
     <use x="357.519531" xlink:href="#DejaVuSans-111"/>
     <use x="418.701172" xlink:href="#DejaVuSans-105"/>
     <use x="446.484375" xlink:href="#DejaVuSans-100"/>
     <use x="509.960938" xlink:href="#DejaVuSans-32"/>
     <use x="541.748047" xlink:href="#DejaVuSans-115"/>
     <use x="593.847656" xlink:href="#DejaVuSans-101"/>
     <use x="655.371094" xlink:href="#DejaVuSans-112"/>
     <use x="718.847656" xlink:href="#DejaVuSans-97"/>
     <use x="780.126953" xlink:href="#DejaVuSans-114"/>
     <use x="821.240234" xlink:href="#DejaVuSans-97"/>
     <use x="882.519531" xlink:href="#DejaVuSans-98"/>
     <use x="945.996094" xlink:href="#DejaVuSans-108"/>
     <use x="973.779297" xlink:href="#DejaVuSans-101"/>
    </g>
   </g>
  </g>
 </g>
 <defs>
  <clipPath id="p3ab1d4caf9">
   <rect height="271.296" width="281.088" x="57.6" y="27.648"/>
  </clipPath>
 </defs>
</svg>
