<?xml version="1.0" encoding="utf-8" standalone="no"?>
<!DOCTYPE svg PUBLIC "-//W3C//DTD SVG 1.1//EN"
  "http://www.w3.org/Graphics/SVG/1.1/DTD/svg11.dtd">
<!-- Created with matplotlib (https://matplotlib.org/) -->
<svg height="345.6pt" version="1.1" viewBox="0 0 460.8 345.6" width="460.8pt" xmlns="http://www.w3.org/2000/svg" xmlns:xlink="http://www.w3.org/1999/xlink">
 <metadata>
  <rdf:RDF xmlns:cc="http://creativecommons.org/ns#" xmlns:dc="http://purl.org/dc/elements/1.1/" xmlns:rdf="http://www.w3.org/1999/02/22-rdf-syntax-ns#">
   <cc:Work>
    <dc:type rdf:resource="http://purl.org/dc/dcmitype/StillImage"/>
    <dc:date>2021-08-04T15:02:57.760820</dc:date>
    <dc:format>image/svg+xml</dc:format>
    <dc:creator>
     <cc:Agent>
      <dc:title>Matplotlib v3.3.1, https://matplotlib.org/</dc:title>
     </cc:Agent>
    </dc:creator>
   </cc:Work>
  </rdf:RDF>
 </metadata>
 <defs>
  <style type="text/css">*{stroke-linecap:butt;stroke-linejoin:round;}</style>
 </defs>
 <g id="figure_1">
  <g id="patch_1">
   <path d="M 0 345.6 
L 460.8 345.6 
L 460.8 0 
L 0 0 
z
" style="fill:#ffffff;"/>
  </g>
  <g id="axes_1">
   <g id="patch_2">
    <path d="M 57.6 298.944 
L 338.688 298.944 
L 338.688 3.456 
L 57.6 3.456 
z
" style="fill:#ffffff;"/>
   </g>
   <g id="matplotlib.axis_1">
    <g id="xtick_1">
     <g id="line2d_1">
      <path clip-path="url(#pbe98d0243a)" d="M 57.6 298.944 
L 57.6 3.456 
" style="fill:none;stroke:#b0b0b0;stroke-linecap:square;stroke-width:0.8;"/>
     </g>
     <g id="line2d_2">
      <defs>
       <path d="M 0 0 
L 0 3.5 
" id="m77728f369a" style="stroke:#000000;stroke-width:0.8;"/>
      </defs>
      <g>
       <use style="stroke:#000000;stroke-width:0.8;" x="57.6" xlink:href="#m77728f369a" y="298.944"/>
      </g>
     </g>
     <g id="text_1">
      <!-- 0 -->
      <g transform="translate(51.2375 321.140875)scale(0.2 -0.2)">
       <defs>
        <path d="M 31.78125 66.40625 
Q 24.171875 66.40625 20.328125 58.90625 
Q 16.5 51.421875 16.5 36.375 
Q 16.5 21.390625 20.328125 13.890625 
Q 24.171875 6.390625 31.78125 6.390625 
Q 39.453125 6.390625 43.28125 13.890625 
Q 47.125 21.390625 47.125 36.375 
Q 47.125 51.421875 43.28125 58.90625 
Q 39.453125 66.40625 31.78125 66.40625 
z
M 31.78125 74.21875 
Q 44.046875 74.21875 50.515625 64.515625 
Q 56.984375 54.828125 56.984375 36.375 
Q 56.984375 17.96875 50.515625 8.265625 
Q 44.046875 -1.421875 31.78125 -1.421875 
Q 19.53125 -1.421875 13.0625 8.265625 
Q 6.59375 17.96875 6.59375 36.375 
Q 6.59375 54.828125 13.0625 64.515625 
Q 19.53125 74.21875 31.78125 74.21875 
z
" id="DejaVuSans-48"/>
       </defs>
       <use xlink:href="#DejaVuSans-48"/>
      </g>
     </g>
    </g>
    <g id="xtick_2">
     <g id="line2d_3">
      <path clip-path="url(#pbe98d0243a)" d="M 137.910857 298.944 
L 137.910857 3.456 
" style="fill:none;stroke:#b0b0b0;stroke-linecap:square;stroke-width:0.8;"/>
     </g>
     <g id="line2d_4">
      <g>
       <use style="stroke:#000000;stroke-width:0.8;" x="137.910857" xlink:href="#m77728f369a" y="298.944"/>
      </g>
     </g>
     <g id="text_2">
      <!-- 2 -->
      <g transform="translate(131.548357 321.140875)scale(0.2 -0.2)">
       <defs>
        <path d="M 19.1875 8.296875 
L 53.609375 8.296875 
L 53.609375 0 
L 7.328125 0 
L 7.328125 8.296875 
Q 12.9375 14.109375 22.625 23.890625 
Q 32.328125 33.6875 34.8125 36.53125 
Q 39.546875 41.84375 41.421875 45.53125 
Q 43.3125 49.21875 43.3125 52.78125 
Q 43.3125 58.59375 39.234375 62.25 
Q 35.15625 65.921875 28.609375 65.921875 
Q 23.96875 65.921875 18.8125 64.3125 
Q 13.671875 62.703125 7.8125 59.421875 
L 7.8125 69.390625 
Q 13.765625 71.78125 18.9375 73 
Q 24.125 74.21875 28.421875 74.21875 
Q 39.75 74.21875 46.484375 68.546875 
Q 53.21875 62.890625 53.21875 53.421875 
Q 53.21875 48.921875 51.53125 44.890625 
Q 49.859375 40.875 45.40625 35.40625 
Q 44.1875 33.984375 37.640625 27.21875 
Q 31.109375 20.453125 19.1875 8.296875 
z
" id="DejaVuSans-50"/>
       </defs>
       <use xlink:href="#DejaVuSans-50"/>
      </g>
     </g>
    </g>
    <g id="xtick_3">
     <g id="line2d_5">
      <path clip-path="url(#pbe98d0243a)" d="M 218.221714 298.944 
L 218.221714 3.456 
" style="fill:none;stroke:#b0b0b0;stroke-linecap:square;stroke-width:0.8;"/>
     </g>
     <g id="line2d_6">
      <g>
       <use style="stroke:#000000;stroke-width:0.8;" x="218.221714" xlink:href="#m77728f369a" y="298.944"/>
      </g>
     </g>
     <g id="text_3">
      <!-- 4 -->
      <g transform="translate(211.859214 321.140875)scale(0.2 -0.2)">
       <defs>
        <path d="M 37.796875 64.3125 
L 12.890625 25.390625 
L 37.796875 25.390625 
z
M 35.203125 72.90625 
L 47.609375 72.90625 
L 47.609375 25.390625 
L 58.015625 25.390625 
L 58.015625 17.1875 
L 47.609375 17.1875 
L 47.609375 0 
L 37.796875 0 
L 37.796875 17.1875 
L 4.890625 17.1875 
L 4.890625 26.703125 
z
" id="DejaVuSans-52"/>
       </defs>
       <use xlink:href="#DejaVuSans-52"/>
      </g>
     </g>
    </g>
    <g id="xtick_4">
     <g id="line2d_7">
      <path clip-path="url(#pbe98d0243a)" d="M 298.532571 298.944 
L 298.532571 3.456 
" style="fill:none;stroke:#b0b0b0;stroke-linecap:square;stroke-width:0.8;"/>
     </g>
     <g id="line2d_8">
      <g>
       <use style="stroke:#000000;stroke-width:0.8;" x="298.532571" xlink:href="#m77728f369a" y="298.944"/>
      </g>
     </g>
     <g id="text_4">
      <!-- 6 -->
      <g transform="translate(292.170071 321.140875)scale(0.2 -0.2)">
       <defs>
        <path d="M 33.015625 40.375 
Q 26.375 40.375 22.484375 35.828125 
Q 18.609375 31.296875 18.609375 23.390625 
Q 18.609375 15.53125 22.484375 10.953125 
Q 26.375 6.390625 33.015625 6.390625 
Q 39.65625 6.390625 43.53125 10.953125 
Q 47.40625 15.53125 47.40625 23.390625 
Q 47.40625 31.296875 43.53125 35.828125 
Q 39.65625 40.375 33.015625 40.375 
z
M 52.59375 71.296875 
L 52.59375 62.3125 
Q 48.875 64.0625 45.09375 64.984375 
Q 41.3125 65.921875 37.59375 65.921875 
Q 27.828125 65.921875 22.671875 59.328125 
Q 17.53125 52.734375 16.796875 39.40625 
Q 19.671875 43.65625 24.015625 45.921875 
Q 28.375 48.1875 33.59375 48.1875 
Q 44.578125 48.1875 50.953125 41.515625 
Q 57.328125 34.859375 57.328125 23.390625 
Q 57.328125 12.15625 50.6875 5.359375 
Q 44.046875 -1.421875 33.015625 -1.421875 
Q 20.359375 -1.421875 13.671875 8.265625 
Q 6.984375 17.96875 6.984375 36.375 
Q 6.984375 53.65625 15.1875 63.9375 
Q 23.390625 74.21875 37.203125 74.21875 
Q 40.921875 74.21875 44.703125 73.484375 
Q 48.484375 72.75 52.59375 71.296875 
z
" id="DejaVuSans-54"/>
       </defs>
       <use xlink:href="#DejaVuSans-54"/>
      </g>
     </g>
    </g>
    <g id="xtick_5">
     <g id="line2d_9">
      <path clip-path="url(#pbe98d0243a)" d="M 97.755429 298.944 
L 97.755429 3.456 
" style="fill:none;stroke:#b0b0b0;stroke-linecap:square;stroke-width:0.8;"/>
     </g>
     <g id="line2d_10">
      <defs>
       <path d="M 0 0 
L 0 2 
" id="mfff9e36050" style="stroke:#000000;stroke-width:0.6;"/>
      </defs>
      <g>
       <use style="stroke:#000000;stroke-width:0.6;" x="97.755429" xlink:href="#mfff9e36050" y="298.944"/>
      </g>
     </g>
    </g>
    <g id="xtick_6">
     <g id="line2d_11">
      <path clip-path="url(#pbe98d0243a)" d="M 178.066286 298.944 
L 178.066286 3.456 
" style="fill:none;stroke:#b0b0b0;stroke-linecap:square;stroke-width:0.8;"/>
     </g>
     <g id="line2d_12">
      <g>
       <use style="stroke:#000000;stroke-width:0.6;" x="178.066286" xlink:href="#mfff9e36050" y="298.944"/>
      </g>
     </g>
    </g>
    <g id="xtick_7">
     <g id="line2d_13">
      <path clip-path="url(#pbe98d0243a)" d="M 258.377143 298.944 
L 258.377143 3.456 
" style="fill:none;stroke:#b0b0b0;stroke-linecap:square;stroke-width:0.8;"/>
     </g>
     <g id="line2d_14">
      <g>
       <use style="stroke:#000000;stroke-width:0.6;" x="258.377143" xlink:href="#mfff9e36050" y="298.944"/>
      </g>
     </g>
    </g>
    <g id="xtick_8">
     <g id="line2d_15">
      <path clip-path="url(#pbe98d0243a)" d="M 338.688 298.944 
L 338.688 3.456 
" style="fill:none;stroke:#b0b0b0;stroke-linecap:square;stroke-width:0.8;"/>
     </g>
     <g id="line2d_16">
      <g>
       <use style="stroke:#000000;stroke-width:0.6;" x="338.688" xlink:href="#mfff9e36050" y="298.944"/>
      </g>
     </g>
    </g>
    <g id="text_5">
     <!-- log10(# f-evals / dimension) -->
     <g transform="translate(77.764078 342.217594)scale(0.17 -0.17)">
      <defs>
       <path d="M 9.421875 75.984375 
L 18.40625 75.984375 
L 18.40625 0 
L 9.421875 0 
z
" id="DejaVuSans-108"/>
       <path d="M 30.609375 48.390625 
Q 23.390625 48.390625 19.1875 42.75 
Q 14.984375 37.109375 14.984375 27.296875 
Q 14.984375 17.484375 19.15625 11.84375 
Q 23.34375 6.203125 30.609375 6.203125 
Q 37.796875 6.203125 41.984375 11.859375 
Q 46.1875 17.53125 46.1875 27.296875 
Q 46.1875 37.015625 41.984375 42.703125 
Q 37.796875 48.390625 30.609375 48.390625 
z
M 30.609375 56 
Q 42.328125 56 49.015625 48.375 
Q 55.71875 40.765625 55.71875 27.296875 
Q 55.71875 13.875 49.015625 6.21875 
Q 42.328125 -1.421875 30.609375 -1.421875 
Q 18.84375 -1.421875 12.171875 6.21875 
Q 5.515625 13.875 5.515625 27.296875 
Q 5.515625 40.765625 12.171875 48.375 
Q 18.84375 56 30.609375 56 
z
" id="DejaVuSans-111"/>
       <path d="M 45.40625 27.984375 
Q 45.40625 37.75 41.375 43.109375 
Q 37.359375 48.484375 30.078125 48.484375 
Q 22.859375 48.484375 18.828125 43.109375 
Q 14.796875 37.75 14.796875 27.984375 
Q 14.796875 18.265625 18.828125 12.890625 
Q 22.859375 7.515625 30.078125 7.515625 
Q 37.359375 7.515625 41.375 12.890625 
Q 45.40625 18.265625 45.40625 27.984375 
z
M 54.390625 6.78125 
Q 54.390625 -7.171875 48.1875 -13.984375 
Q 42 -20.796875 29.203125 -20.796875 
Q 24.46875 -20.796875 20.265625 -20.09375 
Q 16.0625 -19.390625 12.109375 -17.921875 
L 12.109375 -9.1875 
Q 16.0625 -11.328125 19.921875 -12.34375 
Q 23.78125 -13.375 27.78125 -13.375 
Q 36.625 -13.375 41.015625 -8.765625 
Q 45.40625 -4.15625 45.40625 5.171875 
L 45.40625 9.625 
Q 42.625 4.78125 38.28125 2.390625 
Q 33.9375 0 27.875 0 
Q 17.828125 0 11.671875 7.65625 
Q 5.515625 15.328125 5.515625 27.984375 
Q 5.515625 40.671875 11.671875 48.328125 
Q 17.828125 56 27.875 56 
Q 33.9375 56 38.28125 53.609375 
Q 42.625 51.21875 45.40625 46.390625 
L 45.40625 54.6875 
L 54.390625 54.6875 
z
" id="DejaVuSans-103"/>
       <path d="M 12.40625 8.296875 
L 28.515625 8.296875 
L 28.515625 63.921875 
L 10.984375 60.40625 
L 10.984375 69.390625 
L 28.421875 72.90625 
L 38.28125 72.90625 
L 38.28125 8.296875 
L 54.390625 8.296875 
L 54.390625 0 
L 12.40625 0 
z
" id="DejaVuSans-49"/>
       <path d="M 31 75.875 
Q 24.46875 64.65625 21.28125 53.65625 
Q 18.109375 42.671875 18.109375 31.390625 
Q 18.109375 20.125 21.3125 9.0625 
Q 24.515625 -2 31 -13.1875 
L 23.1875 -13.1875 
Q 15.875 -1.703125 12.234375 9.375 
Q 8.59375 20.453125 8.59375 31.390625 
Q 8.59375 42.28125 12.203125 53.3125 
Q 15.828125 64.359375 23.1875 75.875 
z
" id="DejaVuSans-40"/>
       <path d="M 51.125 44 
L 36.921875 44 
L 32.8125 27.6875 
L 47.125 27.6875 
z
M 43.796875 71.78125 
L 38.71875 51.515625 
L 52.984375 51.515625 
L 58.109375 71.78125 
L 65.921875 71.78125 
L 60.890625 51.515625 
L 76.125 51.515625 
L 76.125 44 
L 58.984375 44 
L 54.984375 27.6875 
L 70.515625 27.6875 
L 70.515625 20.21875 
L 53.078125 20.21875 
L 48 0 
L 40.1875 0 
L 45.21875 20.21875 
L 30.90625 20.21875 
L 25.875 0 
L 18.015625 0 
L 23.09375 20.21875 
L 7.71875 20.21875 
L 7.71875 27.6875 
L 24.90625 27.6875 
L 29 44 
L 13.28125 44 
L 13.28125 51.515625 
L 30.90625 51.515625 
L 35.890625 71.78125 
z
" id="DejaVuSans-35"/>
       <path id="DejaVuSans-32"/>
       <path d="M 37.109375 75.984375 
L 37.109375 68.5 
L 28.515625 68.5 
Q 23.6875 68.5 21.796875 66.546875 
Q 19.921875 64.59375 19.921875 59.515625 
L 19.921875 54.6875 
L 34.71875 54.6875 
L 34.71875 47.703125 
L 19.921875 47.703125 
L 19.921875 0 
L 10.890625 0 
L 10.890625 47.703125 
L 2.296875 47.703125 
L 2.296875 54.6875 
L 10.890625 54.6875 
L 10.890625 58.5 
Q 10.890625 67.625 15.140625 71.796875 
Q 19.390625 75.984375 28.609375 75.984375 
z
" id="DejaVuSans-102"/>
       <path d="M 4.890625 31.390625 
L 31.203125 31.390625 
L 31.203125 23.390625 
L 4.890625 23.390625 
z
" id="DejaVuSans-45"/>
       <path d="M 56.203125 29.59375 
L 56.203125 25.203125 
L 14.890625 25.203125 
Q 15.484375 15.921875 20.484375 11.0625 
Q 25.484375 6.203125 34.421875 6.203125 
Q 39.59375 6.203125 44.453125 7.46875 
Q 49.3125 8.734375 54.109375 11.28125 
L 54.109375 2.78125 
Q 49.265625 0.734375 44.1875 -0.34375 
Q 39.109375 -1.421875 33.890625 -1.421875 
Q 20.796875 -1.421875 13.15625 6.1875 
Q 5.515625 13.8125 5.515625 26.8125 
Q 5.515625 40.234375 12.765625 48.109375 
Q 20.015625 56 32.328125 56 
Q 43.359375 56 49.78125 48.890625 
Q 56.203125 41.796875 56.203125 29.59375 
z
M 47.21875 32.234375 
Q 47.125 39.59375 43.09375 43.984375 
Q 39.0625 48.390625 32.421875 48.390625 
Q 24.90625 48.390625 20.390625 44.140625 
Q 15.875 39.890625 15.1875 32.171875 
z
" id="DejaVuSans-101"/>
       <path d="M 2.984375 54.6875 
L 12.5 54.6875 
L 29.59375 8.796875 
L 46.6875 54.6875 
L 56.203125 54.6875 
L 35.6875 0 
L 23.484375 0 
z
" id="DejaVuSans-118"/>
       <path d="M 34.28125 27.484375 
Q 23.390625 27.484375 19.1875 25 
Q 14.984375 22.515625 14.984375 16.5 
Q 14.984375 11.71875 18.140625 8.90625 
Q 21.296875 6.109375 26.703125 6.109375 
Q 34.1875 6.109375 38.703125 11.40625 
Q 43.21875 16.703125 43.21875 25.484375 
L 43.21875 27.484375 
z
M 52.203125 31.203125 
L 52.203125 0 
L 43.21875 0 
L 43.21875 8.296875 
Q 40.140625 3.328125 35.546875 0.953125 
Q 30.953125 -1.421875 24.3125 -1.421875 
Q 15.921875 -1.421875 10.953125 3.296875 
Q 6 8.015625 6 15.921875 
Q 6 25.140625 12.171875 29.828125 
Q 18.359375 34.515625 30.609375 34.515625 
L 43.21875 34.515625 
L 43.21875 35.40625 
Q 43.21875 41.609375 39.140625 45 
Q 35.0625 48.390625 27.6875 48.390625 
Q 23 48.390625 18.546875 47.265625 
Q 14.109375 46.140625 10.015625 43.890625 
L 10.015625 52.203125 
Q 14.9375 54.109375 19.578125 55.046875 
Q 24.21875 56 28.609375 56 
Q 40.484375 56 46.34375 49.84375 
Q 52.203125 43.703125 52.203125 31.203125 
z
" id="DejaVuSans-97"/>
       <path d="M 44.28125 53.078125 
L 44.28125 44.578125 
Q 40.484375 46.53125 36.375 47.5 
Q 32.28125 48.484375 27.875 48.484375 
Q 21.1875 48.484375 17.84375 46.4375 
Q 14.5 44.390625 14.5 40.28125 
Q 14.5 37.15625 16.890625 35.375 
Q 19.28125 33.59375 26.515625 31.984375 
L 29.59375 31.296875 
Q 39.15625 29.25 43.1875 25.515625 
Q 47.21875 21.78125 47.21875 15.09375 
Q 47.21875 7.46875 41.1875 3.015625 
Q 35.15625 -1.421875 24.609375 -1.421875 
Q 20.21875 -1.421875 15.453125 -0.5625 
Q 10.6875 0.296875 5.421875 2 
L 5.421875 11.28125 
Q 10.40625 8.6875 15.234375 7.390625 
Q 20.0625 6.109375 24.8125 6.109375 
Q 31.15625 6.109375 34.5625 8.28125 
Q 37.984375 10.453125 37.984375 14.40625 
Q 37.984375 18.0625 35.515625 20.015625 
Q 33.0625 21.96875 24.703125 23.78125 
L 21.578125 24.515625 
Q 13.234375 26.265625 9.515625 29.90625 
Q 5.8125 33.546875 5.8125 39.890625 
Q 5.8125 47.609375 11.28125 51.796875 
Q 16.75 56 26.8125 56 
Q 31.78125 56 36.171875 55.265625 
Q 40.578125 54.546875 44.28125 53.078125 
z
" id="DejaVuSans-115"/>
       <path d="M 25.390625 72.90625 
L 33.6875 72.90625 
L 8.296875 -9.28125 
L 0 -9.28125 
z
" id="DejaVuSans-47"/>
       <path d="M 45.40625 46.390625 
L 45.40625 75.984375 
L 54.390625 75.984375 
L 54.390625 0 
L 45.40625 0 
L 45.40625 8.203125 
Q 42.578125 3.328125 38.25 0.953125 
Q 33.9375 -1.421875 27.875 -1.421875 
Q 17.96875 -1.421875 11.734375 6.484375 
Q 5.515625 14.40625 5.515625 27.296875 
Q 5.515625 40.1875 11.734375 48.09375 
Q 17.96875 56 27.875 56 
Q 33.9375 56 38.25 53.625 
Q 42.578125 51.265625 45.40625 46.390625 
z
M 14.796875 27.296875 
Q 14.796875 17.390625 18.875 11.75 
Q 22.953125 6.109375 30.078125 6.109375 
Q 37.203125 6.109375 41.296875 11.75 
Q 45.40625 17.390625 45.40625 27.296875 
Q 45.40625 37.203125 41.296875 42.84375 
Q 37.203125 48.484375 30.078125 48.484375 
Q 22.953125 48.484375 18.875 42.84375 
Q 14.796875 37.203125 14.796875 27.296875 
z
" id="DejaVuSans-100"/>
       <path d="M 9.421875 54.6875 
L 18.40625 54.6875 
L 18.40625 0 
L 9.421875 0 
z
M 9.421875 75.984375 
L 18.40625 75.984375 
L 18.40625 64.59375 
L 9.421875 64.59375 
z
" id="DejaVuSans-105"/>
       <path d="M 52 44.1875 
Q 55.375 50.25 60.0625 53.125 
Q 64.75 56 71.09375 56 
Q 79.640625 56 84.28125 50.015625 
Q 88.921875 44.046875 88.921875 33.015625 
L 88.921875 0 
L 79.890625 0 
L 79.890625 32.71875 
Q 79.890625 40.578125 77.09375 44.375 
Q 74.3125 48.1875 68.609375 48.1875 
Q 61.625 48.1875 57.5625 43.546875 
Q 53.515625 38.921875 53.515625 30.90625 
L 53.515625 0 
L 44.484375 0 
L 44.484375 32.71875 
Q 44.484375 40.625 41.703125 44.40625 
Q 38.921875 48.1875 33.109375 48.1875 
Q 26.21875 48.1875 22.15625 43.53125 
Q 18.109375 38.875 18.109375 30.90625 
L 18.109375 0 
L 9.078125 0 
L 9.078125 54.6875 
L 18.109375 54.6875 
L 18.109375 46.1875 
Q 21.1875 51.21875 25.484375 53.609375 
Q 29.78125 56 35.6875 56 
Q 41.65625 56 45.828125 52.96875 
Q 50 49.953125 52 44.1875 
z
" id="DejaVuSans-109"/>
       <path d="M 54.890625 33.015625 
L 54.890625 0 
L 45.90625 0 
L 45.90625 32.71875 
Q 45.90625 40.484375 42.875 44.328125 
Q 39.84375 48.1875 33.796875 48.1875 
Q 26.515625 48.1875 22.3125 43.546875 
Q 18.109375 38.921875 18.109375 30.90625 
L 18.109375 0 
L 9.078125 0 
L 9.078125 54.6875 
L 18.109375 54.6875 
L 18.109375 46.1875 
Q 21.34375 51.125 25.703125 53.5625 
Q 30.078125 56 35.796875 56 
Q 45.21875 56 50.046875 50.171875 
Q 54.890625 44.34375 54.890625 33.015625 
z
" id="DejaVuSans-110"/>
       <path d="M 8.015625 75.875 
L 15.828125 75.875 
Q 23.140625 64.359375 26.78125 53.3125 
Q 30.421875 42.28125 30.421875 31.390625 
Q 30.421875 20.453125 26.78125 9.375 
Q 23.140625 -1.703125 15.828125 -13.1875 
L 8.015625 -13.1875 
Q 14.5 -2 17.703125 9.0625 
Q 20.90625 20.125 20.90625 31.390625 
Q 20.90625 42.671875 17.703125 53.65625 
Q 14.5 64.65625 8.015625 75.875 
z
" id="DejaVuSans-41"/>
      </defs>
      <use xlink:href="#DejaVuSans-108"/>
      <use x="27.783203" xlink:href="#DejaVuSans-111"/>
      <use x="88.964844" xlink:href="#DejaVuSans-103"/>
      <use x="152.441406" xlink:href="#DejaVuSans-49"/>
      <use x="216.064453" xlink:href="#DejaVuSans-48"/>
      <use x="279.6875" xlink:href="#DejaVuSans-40"/>
      <use x="318.701172" xlink:href="#DejaVuSans-35"/>
      <use x="402.490234" xlink:href="#DejaVuSans-32"/>
      <use x="434.277344" xlink:href="#DejaVuSans-102"/>
      <use x="463.982422" xlink:href="#DejaVuSans-45"/>
      <use x="500.066406" xlink:href="#DejaVuSans-101"/>
      <use x="561.589844" xlink:href="#DejaVuSans-118"/>
      <use x="620.769531" xlink:href="#DejaVuSans-97"/>
      <use x="682.048828" xlink:href="#DejaVuSans-108"/>
      <use x="709.832031" xlink:href="#DejaVuSans-115"/>
      <use x="761.931641" xlink:href="#DejaVuSans-32"/>
      <use x="793.71875" xlink:href="#DejaVuSans-47"/>
      <use x="827.410156" xlink:href="#DejaVuSans-32"/>
      <use x="859.197266" xlink:href="#DejaVuSans-100"/>
      <use x="922.673828" xlink:href="#DejaVuSans-105"/>
      <use x="950.457031" xlink:href="#DejaVuSans-109"/>
      <use x="1047.869141" xlink:href="#DejaVuSans-101"/>
      <use x="1109.392578" xlink:href="#DejaVuSans-110"/>
      <use x="1172.771484" xlink:href="#DejaVuSans-115"/>
      <use x="1224.871094" xlink:href="#DejaVuSans-105"/>
      <use x="1252.654297" xlink:href="#DejaVuSans-111"/>
      <use x="1313.835938" xlink:href="#DejaVuSans-110"/>
      <use x="1377.214844" xlink:href="#DejaVuSans-41"/>
     </g>
    </g>
   </g>
   <g id="matplotlib.axis_2">
    <g id="ytick_1">
     <g id="line2d_17">
      <path clip-path="url(#pbe98d0243a)" d="M 57.6 298.944 
L 338.688 298.944 
" style="fill:none;stroke:#b0b0b0;stroke-linecap:square;stroke-width:0.8;"/>
     </g>
     <g id="line2d_18">
      <defs>
       <path d="M 0 0 
L -3.5 0 
" id="m7fa755843d" style="stroke:#000000;stroke-width:0.8;"/>
      </defs>
      <g>
       <use style="stroke:#000000;stroke-width:0.8;" x="57.6" xlink:href="#m7fa755843d" y="298.944"/>
      </g>
     </g>
     <g id="text_6">
      <!-- 0.0 -->
      <g transform="translate(25.155 305.02275)scale(0.16 -0.16)">
       <defs>
        <path d="M 10.6875 12.40625 
L 21 12.40625 
L 21 0 
L 10.6875 0 
z
" id="DejaVuSans-46"/>
       </defs>
       <use xlink:href="#DejaVuSans-48"/>
       <use x="63.623047" xlink:href="#DejaVuSans-46"/>
       <use x="95.410156" xlink:href="#DejaVuSans-48"/>
      </g>
     </g>
    </g>
    <g id="ytick_2">
     <g id="line2d_19">
      <path clip-path="url(#pbe98d0243a)" d="M 57.6 240.431525 
L 338.688 240.431525 
" style="fill:none;stroke:#b0b0b0;stroke-linecap:square;stroke-width:0.8;"/>
     </g>
     <g id="line2d_20">
      <g>
       <use style="stroke:#000000;stroke-width:0.8;" x="57.6" xlink:href="#m7fa755843d" y="240.431525"/>
      </g>
     </g>
     <g id="text_7">
      <!-- 0.2 -->
      <g transform="translate(25.155 246.510275)scale(0.16 -0.16)">
       <use xlink:href="#DejaVuSans-48"/>
       <use x="63.623047" xlink:href="#DejaVuSans-46"/>
       <use x="95.410156" xlink:href="#DejaVuSans-50"/>
      </g>
     </g>
    </g>
    <g id="ytick_3">
     <g id="line2d_21">
      <path clip-path="url(#pbe98d0243a)" d="M 57.6 181.91905 
L 338.688 181.91905 
" style="fill:none;stroke:#b0b0b0;stroke-linecap:square;stroke-width:0.8;"/>
     </g>
     <g id="line2d_22">
      <g>
       <use style="stroke:#000000;stroke-width:0.8;" x="57.6" xlink:href="#m7fa755843d" y="181.91905"/>
      </g>
     </g>
     <g id="text_8">
      <!-- 0.4 -->
      <g transform="translate(25.155 187.9978)scale(0.16 -0.16)">
       <use xlink:href="#DejaVuSans-48"/>
       <use x="63.623047" xlink:href="#DejaVuSans-46"/>
       <use x="95.410156" xlink:href="#DejaVuSans-52"/>
      </g>
     </g>
    </g>
    <g id="ytick_4">
     <g id="line2d_23">
      <path clip-path="url(#pbe98d0243a)" d="M 57.6 123.406574 
L 338.688 123.406574 
" style="fill:none;stroke:#b0b0b0;stroke-linecap:square;stroke-width:0.8;"/>
     </g>
     <g id="line2d_24">
      <g>
       <use style="stroke:#000000;stroke-width:0.8;" x="57.6" xlink:href="#m7fa755843d" y="123.406574"/>
      </g>
     </g>
     <g id="text_9">
      <!-- 0.6 -->
      <g transform="translate(25.155 129.485324)scale(0.16 -0.16)">
       <use xlink:href="#DejaVuSans-48"/>
       <use x="63.623047" xlink:href="#DejaVuSans-46"/>
       <use x="95.410156" xlink:href="#DejaVuSans-54"/>
      </g>
     </g>
    </g>
    <g id="ytick_5">
     <g id="line2d_25">
      <path clip-path="url(#pbe98d0243a)" d="M 57.6 64.894099 
L 338.688 64.894099 
" style="fill:none;stroke:#b0b0b0;stroke-linecap:square;stroke-width:0.8;"/>
     </g>
     <g id="line2d_26">
      <g>
       <use style="stroke:#000000;stroke-width:0.8;" x="57.6" xlink:href="#m7fa755843d" y="64.894099"/>
      </g>
     </g>
     <g id="text_10">
      <!-- 0.8 -->
      <g transform="translate(25.155 70.972849)scale(0.16 -0.16)">
       <defs>
        <path d="M 31.78125 34.625 
Q 24.75 34.625 20.71875 30.859375 
Q 16.703125 27.09375 16.703125 20.515625 
Q 16.703125 13.921875 20.71875 10.15625 
Q 24.75 6.390625 31.78125 6.390625 
Q 38.8125 6.390625 42.859375 10.171875 
Q 46.921875 13.96875 46.921875 20.515625 
Q 46.921875 27.09375 42.890625 30.859375 
Q 38.875 34.625 31.78125 34.625 
z
M 21.921875 38.8125 
Q 15.578125 40.375 12.03125 44.71875 
Q 8.5 49.078125 8.5 55.328125 
Q 8.5 64.0625 14.71875 69.140625 
Q 20.953125 74.21875 31.78125 74.21875 
Q 42.671875 74.21875 48.875 69.140625 
Q 55.078125 64.0625 55.078125 55.328125 
Q 55.078125 49.078125 51.53125 44.71875 
Q 48 40.375 41.703125 38.8125 
Q 48.828125 37.15625 52.796875 32.3125 
Q 56.78125 27.484375 56.78125 20.515625 
Q 56.78125 9.90625 50.3125 4.234375 
Q 43.84375 -1.421875 31.78125 -1.421875 
Q 19.734375 -1.421875 13.25 4.234375 
Q 6.78125 9.90625 6.78125 20.515625 
Q 6.78125 27.484375 10.78125 32.3125 
Q 14.796875 37.15625 21.921875 38.8125 
z
M 18.3125 54.390625 
Q 18.3125 48.734375 21.84375 45.5625 
Q 25.390625 42.390625 31.78125 42.390625 
Q 38.140625 42.390625 41.71875 45.5625 
Q 45.3125 48.734375 45.3125 54.390625 
Q 45.3125 60.0625 41.71875 63.234375 
Q 38.140625 66.40625 31.78125 66.40625 
Q 25.390625 66.40625 21.84375 63.234375 
Q 18.3125 60.0625 18.3125 54.390625 
z
" id="DejaVuSans-56"/>
       </defs>
       <use xlink:href="#DejaVuSans-48"/>
       <use x="63.623047" xlink:href="#DejaVuSans-46"/>
       <use x="95.410156" xlink:href="#DejaVuSans-56"/>
      </g>
     </g>
    </g>
    <g id="ytick_6">
     <g id="line2d_27">
      <path clip-path="url(#pbe98d0243a)" d="M 57.6 6.381624 
L 338.688 6.381624 
" style="fill:none;stroke:#b0b0b0;stroke-linecap:square;stroke-width:0.8;"/>
     </g>
     <g id="line2d_28">
      <g>
       <use style="stroke:#000000;stroke-width:0.8;" x="57.6" xlink:href="#m7fa755843d" y="6.381624"/>
      </g>
     </g>
     <g id="text_11">
      <!-- 1.0 -->
      <g transform="translate(25.155 12.460374)scale(0.16 -0.16)">
       <use xlink:href="#DejaVuSans-49"/>
       <use x="63.623047" xlink:href="#DejaVuSans-46"/>
       <use x="95.410156" xlink:href="#DejaVuSans-48"/>
      </g>
     </g>
    </g>
    <g id="text_12">
     <!-- Fraction of function,target pairs -->
     <g transform="translate(17.619531 285.585)rotate(-90)scale(0.17 -0.17)">
      <defs>
       <path d="M 9.8125 72.90625 
L 51.703125 72.90625 
L 51.703125 64.59375 
L 19.671875 64.59375 
L 19.671875 43.109375 
L 48.578125 43.109375 
L 48.578125 34.8125 
L 19.671875 34.8125 
L 19.671875 0 
L 9.8125 0 
z
" id="DejaVuSans-70"/>
       <path d="M 41.109375 46.296875 
Q 39.59375 47.171875 37.8125 47.578125 
Q 36.03125 48 33.890625 48 
Q 26.265625 48 22.1875 43.046875 
Q 18.109375 38.09375 18.109375 28.8125 
L 18.109375 0 
L 9.078125 0 
L 9.078125 54.6875 
L 18.109375 54.6875 
L 18.109375 46.1875 
Q 20.953125 51.171875 25.484375 53.578125 
Q 30.03125 56 36.53125 56 
Q 37.453125 56 38.578125 55.875 
Q 39.703125 55.765625 41.0625 55.515625 
z
" id="DejaVuSans-114"/>
       <path d="M 48.78125 52.59375 
L 48.78125 44.1875 
Q 44.96875 46.296875 41.140625 47.34375 
Q 37.3125 48.390625 33.40625 48.390625 
Q 24.65625 48.390625 19.8125 42.84375 
Q 14.984375 37.3125 14.984375 27.296875 
Q 14.984375 17.28125 19.8125 11.734375 
Q 24.65625 6.203125 33.40625 6.203125 
Q 37.3125 6.203125 41.140625 7.25 
Q 44.96875 8.296875 48.78125 10.40625 
L 48.78125 2.09375 
Q 45.015625 0.34375 40.984375 -0.53125 
Q 36.96875 -1.421875 32.421875 -1.421875 
Q 20.0625 -1.421875 12.78125 6.34375 
Q 5.515625 14.109375 5.515625 27.296875 
Q 5.515625 40.671875 12.859375 48.328125 
Q 20.21875 56 33.015625 56 
Q 37.15625 56 41.109375 55.140625 
Q 45.0625 54.296875 48.78125 52.59375 
z
" id="DejaVuSans-99"/>
       <path d="M 18.3125 70.21875 
L 18.3125 54.6875 
L 36.8125 54.6875 
L 36.8125 47.703125 
L 18.3125 47.703125 
L 18.3125 18.015625 
Q 18.3125 11.328125 20.140625 9.421875 
Q 21.96875 7.515625 27.59375 7.515625 
L 36.8125 7.515625 
L 36.8125 0 
L 27.59375 0 
Q 17.1875 0 13.234375 3.875 
Q 9.28125 7.765625 9.28125 18.015625 
L 9.28125 47.703125 
L 2.6875 47.703125 
L 2.6875 54.6875 
L 9.28125 54.6875 
L 9.28125 70.21875 
z
" id="DejaVuSans-116"/>
       <path d="M 8.5 21.578125 
L 8.5 54.6875 
L 17.484375 54.6875 
L 17.484375 21.921875 
Q 17.484375 14.15625 20.5 10.265625 
Q 23.53125 6.390625 29.59375 6.390625 
Q 36.859375 6.390625 41.078125 11.03125 
Q 45.3125 15.671875 45.3125 23.6875 
L 45.3125 54.6875 
L 54.296875 54.6875 
L 54.296875 0 
L 45.3125 0 
L 45.3125 8.40625 
Q 42.046875 3.421875 37.71875 1 
Q 33.40625 -1.421875 27.6875 -1.421875 
Q 18.265625 -1.421875 13.375 4.4375 
Q 8.5 10.296875 8.5 21.578125 
z
M 31.109375 56 
z
" id="DejaVuSans-117"/>
       <path d="M 11.71875 12.40625 
L 22.015625 12.40625 
L 22.015625 4 
L 14.015625 -11.625 
L 7.71875 -11.625 
L 11.71875 4 
z
" id="DejaVuSans-44"/>
       <path d="M 18.109375 8.203125 
L 18.109375 -20.796875 
L 9.078125 -20.796875 
L 9.078125 54.6875 
L 18.109375 54.6875 
L 18.109375 46.390625 
Q 20.953125 51.265625 25.265625 53.625 
Q 29.59375 56 35.59375 56 
Q 45.5625 56 51.78125 48.09375 
Q 58.015625 40.1875 58.015625 27.296875 
Q 58.015625 14.40625 51.78125 6.484375 
Q 45.5625 -1.421875 35.59375 -1.421875 
Q 29.59375 -1.421875 25.265625 0.953125 
Q 20.953125 3.328125 18.109375 8.203125 
z
M 48.6875 27.296875 
Q 48.6875 37.203125 44.609375 42.84375 
Q 40.53125 48.484375 33.40625 48.484375 
Q 26.265625 48.484375 22.1875 42.84375 
Q 18.109375 37.203125 18.109375 27.296875 
Q 18.109375 17.390625 22.1875 11.75 
Q 26.265625 6.109375 33.40625 6.109375 
Q 40.53125 6.109375 44.609375 11.75 
Q 48.6875 17.390625 48.6875 27.296875 
z
" id="DejaVuSans-112"/>
      </defs>
      <use xlink:href="#DejaVuSans-70"/>
      <use x="50.269531" xlink:href="#DejaVuSans-114"/>
      <use x="91.382812" xlink:href="#DejaVuSans-97"/>
      <use x="152.662109" xlink:href="#DejaVuSans-99"/>
      <use x="207.642578" xlink:href="#DejaVuSans-116"/>
      <use x="246.851562" xlink:href="#DejaVuSans-105"/>
      <use x="274.634766" xlink:href="#DejaVuSans-111"/>
      <use x="335.816406" xlink:href="#DejaVuSans-110"/>
      <use x="399.195312" xlink:href="#DejaVuSans-32"/>
      <use x="430.982422" xlink:href="#DejaVuSans-111"/>
      <use x="492.164062" xlink:href="#DejaVuSans-102"/>
      <use x="527.369141" xlink:href="#DejaVuSans-32"/>
      <use x="559.15625" xlink:href="#DejaVuSans-102"/>
      <use x="594.361328" xlink:href="#DejaVuSans-117"/>
      <use x="657.740234" xlink:href="#DejaVuSans-110"/>
      <use x="721.119141" xlink:href="#DejaVuSans-99"/>
      <use x="776.099609" xlink:href="#DejaVuSans-116"/>
      <use x="815.308594" xlink:href="#DejaVuSans-105"/>
      <use x="843.091797" xlink:href="#DejaVuSans-111"/>
      <use x="904.273438" xlink:href="#DejaVuSans-110"/>
      <use x="967.652344" xlink:href="#DejaVuSans-44"/>
      <use x="999.439453" xlink:href="#DejaVuSans-116"/>
      <use x="1038.648438" xlink:href="#DejaVuSans-97"/>
      <use x="1099.927734" xlink:href="#DejaVuSans-114"/>
      <use x="1139.291016" xlink:href="#DejaVuSans-103"/>
      <use x="1202.767578" xlink:href="#DejaVuSans-101"/>
      <use x="1264.291016" xlink:href="#DejaVuSans-116"/>
      <use x="1303.5" xlink:href="#DejaVuSans-32"/>
      <use x="1335.287109" xlink:href="#DejaVuSans-112"/>
      <use x="1398.763672" xlink:href="#DejaVuSans-97"/>
      <use x="1460.042969" xlink:href="#DejaVuSans-105"/>
      <use x="1487.826172" xlink:href="#DejaVuSans-114"/>
      <use x="1528.939453" xlink:href="#DejaVuSans-115"/>
     </g>
    </g>
   </g>
   <g id="line2d_29">
    <defs>
     <path d="M 0 1.5 
C 0.397805 1.5 0.77937 1.341951 1.06066 1.06066 
C 1.341951 0.77937 1.5 0.397805 1.5 0 
C 1.5 -0.397805 1.341951 -0.77937 1.06066 -1.06066 
C 0.77937 -1.341951 0.397805 -1.5 0 -1.5 
C -0.397805 -1.5 -0.77937 -1.341951 -1.06066 -1.06066 
C -1.341951 -0.77937 -1.5 -0.397805 -1.5 0 
C -1.5 0.397805 -1.341951 0.77937 -1.06066 1.06066 
C -0.77937 1.341951 -0.397805 1.5 0 1.5 
z
" id="m60a8ad1d6b" style="stroke:#000080;"/>
    </defs>
    <g>
     <use style="fill:#000080;stroke:#000080;" x="195.599737" xlink:href="#m60a8ad1d6b" y="235.842311"/>
     <use style="fill:#000080;stroke:#000080;" x="195.599737" xlink:href="#m60a8ad1d6b" y="235.842311"/>
    </g>
   </g>
   <g id="line2d_30">
    <path d="M 120.093994 298.944 
L 120.093994 297.796697 
L 121.189196 297.796697 
L 121.189196 297.223045 
L 129.480244 297.223045 
L 129.480244 296.649393 
L 129.760775 296.649393 
L 129.760775 296.075741 
L 130.218525 296.075741 
L 130.30865 294.354786 
L 130.752422 294.354786 
L 130.839837 292.060179 
L 130.926816 292.060179 
L 131.013364 290.339224 
L 131.355321 290.339224 
L 131.439773 288.618269 
L 131.523818 288.618269 
L 131.60746 286.897314 
L 131.77355 286.897314 
L 131.77355 284.602707 
L 132.019755 284.602707 
L 132.019755 284.029055 
L 132.342714 284.029055 
L 132.422528 281.734448 
L 132.73818 281.734448 
L 132.816208 280.013493 
L 132.971225 280.013493 
L 133.04822 278.292538 
L 133.277185 278.292538 
L 133.352844 274.850628 
L 133.503183 274.850628 
L 133.503183 274.276976 
L 133.800029 274.276976 
L 133.800029 273.129673 
L 134.091907 273.129673 
L 134.091907 272.556021 
L 134.450015 272.556021 
L 134.450015 271.982369 
L 135.878591 271.982369 
L 135.943785 270.261414 
L 136.32991 270.261414 
L 136.393441 268.540459 
L 136.893527 268.540459 
L 136.893527 267.966807 
L 141.187031 267.966807 
L 141.187031 267.393156 
L 145.961446 267.393156 
L 145.961446 266.819504 
L 146.288102 266.819504 
L 146.288102 266.245852 
L 146.644018 266.245852 
L 146.644018 265.098549 
L 146.784375 265.098549 
L 146.854132 263.377593 
L 147.164632 263.377593 
L 147.232888 262.23029 
L 147.402367 262.23029 
L 147.402367 261.656638 
L 147.603592 261.656638 
L 147.670154 260.509335 
L 147.933891 260.509335 
L 147.933891 259.935683 
L 148.607802 259.935683 
L 148.607802 259.362031 
L 148.857832 259.362031 
L 148.857832 258.78838 
L 149.527485 258.78838 
L 149.527485 258.214728 
L 150.598782 258.214728 
L 150.598782 257.641076 
L 151.042412 257.641076 
L 151.042412 257.067425 
L 151.871101 257.067425 
L 151.871101 256.493773 
L 152.283884 256.493773 
L 152.283884 255.920121 
L 154.212841 255.920121 
L 154.212841 255.346469 
L 154.862549 255.346469 
L 154.862549 254.772818 
L 156.737306 254.772818 
L 156.737306 254.199166 
L 159.218393 254.199166 
L 159.252621 253.051863 
L 159.641491 253.051863 
L 159.641491 252.478211 
L 159.98913 252.478211 
L 159.98913 251.904559 
L 161.495615 251.904559 
L 161.495615 251.330907 
L 162.375093 251.330907 
L 162.375093 250.757256 
L 164.587254 250.757256 
L 164.675172 249.609952 
L 165.399101 249.609952 
L 165.399101 249.036301 
L 166.059491 249.036301 
L 166.059491 248.462649 
L 167.555679 248.462649 
L 167.555679 247.888997 
L 167.913096 247.888997 
L 167.913096 247.315345 
L 168.476198 247.315345 
L 168.476198 246.741694 
L 168.626667 246.741694 
L 168.626667 246.168042 
L 170.036379 246.168042 
L 170.036379 245.59439 
L 171.46837 245.59439 
L 171.46837 245.020738 
L 172.142557 245.020738 
L 172.142557 244.447087 
L 172.593876 244.447087 
L 172.593876 243.873435 
L 173.500721 243.873435 
L 173.500721 243.299783 
L 174.341153 243.299783 
L 174.341153 242.726132 
L 174.59126 242.726132 
L 174.59126 242.15248 
L 175.36153 242.15248 
L 175.36153 241.578828 
L 175.803903 241.578828 
L 175.803903 241.005176 
L 175.975136 241.005176 
L 176.007874 239.857873 
L 177.600896 239.857873 
L 177.600896 239.284221 
L 179.786461 239.284221 
L 179.786461 238.71057 
L 180.913283 238.71057 
L 180.913283 238.136918 
L 185.34916 238.136918 
L 185.34916 237.563266 
L 187.040861 237.563266 
L 187.040861 236.989614 
L 188.040172 236.989614 
L 188.040172 236.415963 
L 195.599737 236.415963 
L 195.599737 235.842311 
L 338.688 235.842311 
L 338.688 235.842311 
" style="fill:none;stroke:#000080;stroke-linecap:square;stroke-width:1.5;"/>
   </g>
   <g id="line2d_31">
    <defs>
     <path d="M 0 6 
C 1.591219 6 3.117479 5.367802 4.242641 4.242641 
C 5.367802 3.117479 6 1.591219 6 0 
C 6 -1.591219 5.367802 -3.117479 4.242641 -4.242641 
C 3.117479 -5.367802 1.591219 -6 0 -6 
C -1.591219 -6 -3.117479 -5.367802 -4.242641 -4.242641 
C -5.367802 -3.117479 -6 -1.591219 -6 0 
C -6 1.591219 -5.367802 3.117479 -4.242641 4.242641 
C -3.117479 5.367802 -1.591219 6 0 6 
z
" id="m03aa6bf288" style="stroke:#000080;stroke-width:1.5;"/>
    </defs>
    <g>
     <use style="fill-opacity:0;stroke:#000080;stroke-width:1.5;" x="136.893527" xlink:href="#m03aa6bf288" y="267.966807"/>
     <use style="fill-opacity:0;stroke:#000080;stroke-width:1.5;" x="172.593876" xlink:href="#m03aa6bf288" y="243.873435"/>
     <use style="fill-opacity:0;stroke:#000080;stroke-width:1.5;" x="195.599737" xlink:href="#m03aa6bf288" y="235.842311"/>
     <use style="fill-opacity:0;stroke:#000080;stroke-width:1.5;" x="195.599737" xlink:href="#m03aa6bf288" y="235.842311"/>
     <use style="fill-opacity:0;stroke:#000080;stroke-width:1.5;" x="338.688" xlink:href="#m03aa6bf288" y="235.842311"/>
    </g>
   </g>
   <g id="line2d_32">
    <path style="fill:none;stroke:#000080;stroke-linecap:square;stroke-width:1.5;"/>
    <g/>
   </g>
   <g id="line2d_33">
    <path clip-path="url(#pbe98d0243a)" d="M 137.558536 267.966807 
" style="fill:none;stroke:#000080;stroke-linecap:square;stroke-width:1.5;"/>
    <defs>
     <path d="M -12 12 
L 12 -12 
M -12 -12 
L 12 12 
" id="m22ede17aaa" style="stroke:#000080;"/>
    </defs>
    <g clip-path="url(#pbe98d0243a)">
     <use style="fill:#000080;stroke:#000080;" x="137.558536" xlink:href="#m22ede17aaa" y="267.966807"/>
    </g>
   </g>
   <g id="line2d_34">
    <defs>
     <path d="M 0 1.5 
C 0.397805 1.5 0.77937 1.341951 1.06066 1.06066 
C 1.341951 0.77937 1.5 0.397805 1.5 0 
C 1.5 -0.397805 1.341951 -0.77937 1.06066 -1.06066 
C 0.77937 -1.341951 0.397805 -1.5 0 -1.5 
C -0.397805 -1.5 -0.77937 -1.341951 -1.06066 -1.06066 
C -1.341951 -0.77937 -1.5 -0.397805 -1.5 0 
C -1.5 0.397805 -1.341951 0.77937 -1.06066 1.06066 
C -0.77937 1.341951 -0.397805 1.5 0 1.5 
z
" id="mdfd6812730" style="stroke:#ff00ff;"/>
    </defs>
    <g>
     <use style="fill:#ff00ff;stroke:#ff00ff;" x="193.571988" xlink:href="#mdfd6812730" y="247.315345"/>
     <use style="fill:#ff00ff;stroke:#ff00ff;" x="193.571988" xlink:href="#mdfd6812730" y="247.315345"/>
    </g>
   </g>
   <g id="line2d_35">
    <path d="M 104.826449 298.944 
L 104.826449 297.796697 
L 107.347841 297.796697 
L 107.347841 296.649393 
L 108.326001 296.649393 
L 108.326001 295.50209 
L 108.640231 295.50209 
L 108.640231 294.928438 
L 108.948899 294.928438 
L 108.948899 293.781135 
L 109.252198 293.781135 
L 109.252198 293.207483 
L 109.550313 293.207483 
L 109.550313 292.633831 
L 110.968922 292.633831 
L 110.968922 292.060179 
L 111.505558 292.060179 
L 111.505558 291.486528 
L 112.280765 291.486528 
L 112.280765 289.765573 
L 112.779064 289.765573 
L 112.779064 289.191921 
L 113.022974 289.191921 
L 113.022974 288.618269 
L 113.26352 288.618269 
L 113.26352 288.044617 
L 113.73488 288.044617 
L 113.73488 287.470966 
L 113.965867 287.470966 
L 113.965867 286.323662 
L 114.193835 286.323662 
L 114.193835 285.176359 
L 114.418861 285.176359 
L 114.418861 283.455404 
L 115.077025 283.455404 
L 115.077025 282.881752 
L 115.502395 282.881752 
L 115.502395 282.3081 
L 115.711251 282.3081 
L 115.711251 281.160797 
L 115.917635 281.160797 
L 115.917635 280.013493 
L 116.121606 280.013493 
L 116.121606 279.439842 
L 116.323218 279.439842 
L 116.323218 278.86619 
L 116.522527 278.86619 
L 116.522527 278.292538 
L 116.719583 278.292538 
L 116.719583 277.145235 
L 116.914437 277.145235 
L 116.914437 276.571583 
L 117.297733 276.571583 
L 117.297733 275.42428 
L 117.486268 275.42428 
L 117.486268 274.276976 
L 117.857331 274.276976 
L 117.857331 273.703324 
L 118.925375 273.703324 
L 118.925375 273.129673 
L 119.097192 273.129673 
L 119.097192 272.556021 
L 128.209594 272.556021 
L 128.209594 271.982369 
L 128.411207 271.982369 
L 128.411207 271.408718 
L 129.385722 271.408718 
L 129.385722 270.835066 
L 129.853291 270.835066 
L 129.853291 270.261414 
L 130.664567 270.261414 
L 130.664567 269.687762 
L 130.839837 269.687762 
L 130.839837 269.114111 
L 131.523818 269.114111 
L 131.60746 267.966807 
L 132.101058 267.966807 
L 132.101058 267.393156 
L 132.342714 267.393156 
L 132.342714 266.819504 
L 132.501978 266.819504 
L 132.501978 266.245852 
L 133.428175 266.245852 
L 133.503183 265.098549 
L 134.800918 265.098549 
L 134.800918 264.524897 
L 137.259399 264.524897 
L 137.259399 263.951245 
L 138.761723 263.951245 
L 138.761723 263.377593 
L 139.939053 263.377593 
L 139.939053 262.803942 
L 140.195896 262.803942 
L 140.195896 262.23029 
L 140.89556 262.23029 
L 140.89556 261.656638 
L 144.747789 261.656638 
L 144.747789 261.082987 
L 146.324022 261.082987 
L 146.324022 260.509335 
L 147.636905 260.509335 
L 147.636905 259.935683 
L 149.735275 259.935683 
L 149.735275 259.362031 
L 150.201126 259.362031 
L 150.201126 258.78838 
L 150.344189 258.78838 
L 150.344189 258.214728 
L 155.510121 258.214728 
L 155.510121 257.641076 
L 156.134506 257.641076 
L 156.134506 257.067425 
L 156.618401 257.067425 
L 156.697761 255.920121 
L 157.108577 255.920121 
L 157.108577 255.346469 
L 158.749613 255.346469 
L 158.749613 254.772818 
L 161.131018 254.772818 
L 161.161694 253.625514 
L 162.79874 253.625514 
L 162.79874 253.051863 
L 164.886862 253.051863 
L 164.886862 252.478211 
L 166.471192 252.478211 
L 166.471192 251.904559 
L 166.706937 251.904559 
L 166.706937 251.330907 
L 166.939538 251.330907 
L 166.939538 250.757256 
L 171.612043 250.757256 
L 171.612043 250.183604 
L 176.637426 250.183604 
L 176.637426 249.609952 
L 183.467024 249.609952 
L 183.467024 249.036301 
L 185.765302 249.036301 
L 185.765302 248.462649 
L 187.835545 248.462649 
L 187.835545 247.888997 
L 193.571988 247.888997 
L 193.571988 247.315345 
L 338.688 247.315345 
L 338.688 247.315345 
" style="fill:none;stroke:#ff00ff;stroke-linecap:square;stroke-width:1.5;"/>
   </g>
   <g id="line2d_36">
    <defs>
     <path d="M -0 8.485281 
L 5.091169 0 
L 0 -8.485281 
L -5.091169 -0 
z
" id="m2daef61e67" style="stroke:#ff00ff;stroke-linejoin:miter;stroke-width:1.5;"/>
    </defs>
    <g>
     <use style="fill-opacity:0;stroke:#ff00ff;stroke-linejoin:miter;stroke-width:1.5;" x="140.89556" xlink:href="#m2daef61e67" y="261.656638"/>
     <use style="fill-opacity:0;stroke:#ff00ff;stroke-linejoin:miter;stroke-width:1.5;" x="185.765302" xlink:href="#m2daef61e67" y="248.462649"/>
     <use style="fill-opacity:0;stroke:#ff00ff;stroke-linejoin:miter;stroke-width:1.5;" x="193.571988" xlink:href="#m2daef61e67" y="247.315345"/>
     <use style="fill-opacity:0;stroke:#ff00ff;stroke-linejoin:miter;stroke-width:1.5;" x="193.571988" xlink:href="#m2daef61e67" y="247.315345"/>
     <use style="fill-opacity:0;stroke:#ff00ff;stroke-linejoin:miter;stroke-width:1.5;" x="338.688" xlink:href="#m2daef61e67" y="247.315345"/>
    </g>
   </g>
   <g id="line2d_37">
    <path style="fill:none;stroke:#ff00ff;stroke-linecap:square;stroke-width:1.5;"/>
    <g/>
   </g>
   <g id="line2d_38">
    <path clip-path="url(#pbe98d0243a)" d="M 123.460928 272.556021 
" style="fill:none;stroke:#ff00ff;stroke-linecap:square;stroke-width:1.5;"/>
    <defs>
     <path d="M -12 12 
L 12 -12 
M -12 -12 
L 12 12 
" id="m5bbed9ec71" style="stroke:#ff00ff;"/>
    </defs>
    <g clip-path="url(#pbe98d0243a)">
     <use style="fill:#ff00ff;stroke:#ff00ff;" x="123.460928" xlink:href="#m5bbed9ec71" y="272.556021"/>
    </g>
   </g>
   <g id="line2d_39">
    <defs>
     <path d="M 0 1.5 
C 0.397805 1.5 0.77937 1.341951 1.06066 1.06066 
C 1.341951 0.77937 1.5 0.397805 1.5 0 
C 1.5 -0.397805 1.341951 -0.77937 1.06066 -1.06066 
C 0.77937 -1.341951 0.397805 -1.5 0 -1.5 
C -0.397805 -1.5 -0.77937 -1.341951 -1.06066 -1.06066 
C -1.341951 -0.77937 -1.5 -0.397805 -1.5 0 
C -1.5 0.397805 -1.341951 0.77937 -1.06066 1.06066 
C -0.77937 1.341951 -0.397805 1.5 0 1.5 
z
" id="m05ad90405e" style="stroke:#ff7500;"/>
    </defs>
    <g>
     <use style="fill:#ff7500;stroke:#ff7500;" x="201.513696" xlink:href="#m05ad90405e" y="201.423208"/>
     <use style="fill:#ff7500;stroke:#ff7500;" x="201.513696" xlink:href="#m05ad90405e" y="201.423208"/>
    </g>
   </g>
   <g id="line2d_40">
    <path d="M 122.076131 298.944 
L 122.076131 298.370348 
L 122.643312 298.370348 
L 122.643312 297.796697 
L 122.920132 297.796697 
L 122.920132 297.223045 
L 123.056911 297.223045 
L 123.056911 295.50209 
L 123.460928 295.50209 
L 123.460928 293.207483 
L 123.725164 293.207483 
L 123.725164 292.633831 
L 123.985457 292.633831 
L 123.985457 290.912876 
L 124.241922 290.912876 
L 124.241922 290.339224 
L 124.368753 290.339224 
L 124.368753 289.765573 
L 124.619683 289.765573 
L 124.619683 289.191921 
L 124.743806 289.191921 
L 124.743806 288.044617 
L 124.867052 288.044617 
L 124.867052 287.470966 
L 124.989434 287.470966 
L 124.989434 286.897314 
L 125.351508 286.897314 
L 125.351508 286.323662 
L 125.470548 286.323662 
L 125.470548 284.602707 
L 125.588781 284.602707 
L 125.588781 284.029055 
L 125.706218 284.029055 
L 125.706218 283.455404 
L 125.822869 283.455404 
L 125.822869 282.881752 
L 125.938745 282.881752 
L 125.938745 281.160797 
L 126.281824 281.160797 
L 126.281824 279.439842 
L 126.50685 279.439842 
L 126.50685 278.86619 
L 126.729009 278.86619 
L 126.729009 276.571583 
L 126.948374 276.571583 
L 127.05703 275.42428 
L 127.165014 275.42428 
L 127.165014 274.850628 
L 127.590383 274.850628 
L 127.590383 274.276976 
L 127.799239 274.276976 
L 127.902737 273.129673 
L 128.005624 273.129673 
L 128.107907 271.982369 
L 128.411207 271.982369 
L 128.411207 271.408718 
L 128.610515 271.408718 
L 128.709321 269.114111 
L 129.002426 269.114111 
L 129.002426 267.393156 
L 129.195127 267.393156 
L 129.290685 265.6722 
L 129.480244 265.6722 
L 129.574256 263.951245 
L 129.760775 263.951245 
L 129.760775 259.935683 
L 129.945319 259.935683 
L 129.945319 258.214728 
L 130.30865 258.214728 
L 130.398313 257.067425 
L 130.487516 257.067425 
L 130.487516 256.493773 
L 131.013364 256.493773 
L 131.013364 255.920121 
L 131.185181 255.920121 
L 131.185181 255.346469 
L 131.355321 255.346469 
L 131.355321 254.772818 
L 131.523818 254.772818 
L 131.523818 254.199166 
L 131.690703 254.199166 
L 131.690703 253.625514 
L 132.181982 253.625514 
L 132.181982 253.051863 
L 133.201197 253.051863 
L 133.201197 252.478211 
L 135.615352 252.478211 
L 135.615352 251.904559 
L 137.910857 251.904559 
L 137.910857 250.757256 
L 138.369812 250.757256 
L 138.369812 250.183604 
L 138.761723 250.183604 
L 138.761723 249.609952 
L 140.89556 249.609952 
L 140.89556 249.036301 
L 141.378673 249.036301 
L 141.378673 248.462649 
L 142.124852 248.462649 
L 142.124852 247.888997 
L 142.575505 247.888997 
L 142.575505 246.741694 
L 142.840411 246.741694 
L 142.927826 245.020738 
L 142.971369 245.020738 
L 142.971369 244.447087 
L 143.187472 244.447087 
L 143.187472 243.873435 
L 143.527762 243.873435 
L 143.611807 242.726132 
L 143.778691 242.726132 
L 143.778691 242.15248 
L 144.026061 242.15248 
L 144.107744 241.005176 
L 144.550287 241.005176 
L 144.550287 240.431525 
L 145.403044 240.431525 
L 145.403044 239.857873 
L 149.256637 239.857873 
L 149.256637 239.284221 
L 149.911431 239.284221 
L 149.911431 238.71057 
L 150.05688 238.71057 
L 150.05688 238.136918 
L 150.344189 238.136918 
L 150.344189 237.563266 
L 150.457801 237.563266 
L 150.457801 236.989614 
L 150.710752 236.989614 
L 150.710752 236.415963 
L 150.904986 236.415963 
L 150.904986 235.842311 
L 151.069768 235.842311 
L 151.069768 235.268659 
L 151.660987 235.268659 
L 151.660987 234.695008 
L 151.897188 234.695008 
L 151.897188 234.121356 
L 152.25837 234.121356 
L 152.25837 233.547704 
L 154.326601 233.547704 
L 154.326601 232.974052 
L 154.950294 232.974052 
L 154.950294 232.400401 
L 155.296925 232.400401 
L 155.296925 231.826749 
L 155.46769 231.826749 
L 155.46769 231.253097 
L 155.678822 231.253097 
L 155.678822 230.679446 
L 155.990803 230.679446 
L 155.990803 230.105794 
L 156.175347 230.105794 
L 156.175347 229.532142 
L 156.317544 229.532142 
L 156.317544 228.95849 
L 156.43851 228.95849 
L 156.43851 228.384839 
L 158.249784 228.384839 
L 158.249784 227.811187 
L 159.080804 227.811187 
L 159.115303 226.663884 
L 159.641491 226.663884 
L 159.641491 226.090232 
L 159.774744 226.090232 
L 159.774744 225.51658 
L 160.087195 225.51658 
L 160.184713 224.369277 
L 160.883648 224.369277 
L 160.883648 223.795625 
L 161.495615 223.795625 
L 161.495615 223.221973 
L 161.852746 223.221973 
L 161.852746 222.648321 
L 161.984807 222.648321 
L 161.984807 222.07467 
L 162.173813 222.07467 
L 162.217141 220.927366 
L 162.770815 220.927366 
L 162.770815 220.353715 
L 164.675172 220.353715 
L 164.675172 219.780063 
L 165.217881 219.780063 
L 165.217881 219.206411 
L 165.471066 219.206411 
L 165.471066 218.632759 
L 166.013141 218.632759 
L 166.013141 218.059108 
L 167.331204 218.059108 
L 167.331204 217.485456 
L 167.798261 217.485456 
L 167.798261 216.911804 
L 168.006494 216.911804 
L 168.006494 216.338153 
L 170.571619 216.338153 
L 170.571619 215.764501 
L 170.713981 215.764501 
L 170.713981 215.190849 
L 170.916612 215.190849 
L 170.916612 214.617197 
L 171.211906 214.617197 
L 171.211906 214.043546 
L 171.862732 214.043546 
L 171.862732 213.469894 
L 172.044307 213.469894 
L 172.044307 212.896242 
L 172.369676 212.896242 
L 172.369676 212.322591 
L 174.781778 212.322591 
L 174.781778 211.748939 
L 177.184001 211.748939 
L 177.184001 211.175287 
L 177.902755 211.175287 
L 177.902755 210.601635 
L 178.314474 210.601635 
L 178.314474 210.027984 
L 178.972426 210.027984 
L 178.972426 209.454332 
L 180.135832 209.454332 
L 180.135832 208.88068 
L 180.834104 208.88068 
L 180.844021 207.733377 
L 181.361719 207.733377 
L 181.361719 207.159725 
L 185.287795 207.159725 
L 185.287795 206.586073 
L 185.694129 206.586073 
L 185.694129 206.012422 
L 185.921609 206.012422 
L 185.921609 205.43877 
L 186.273707 205.43877 
L 186.273707 204.865118 
L 186.76065 204.865118 
L 186.76065 204.291467 
L 187.085973 204.291467 
L 187.085973 203.717815 
L 188.407055 203.717815 
L 188.407055 203.144163 
L 188.576509 203.144163 
L 188.576509 202.570511 
L 193.178122 202.570511 
L 193.178122 201.99686 
L 201.513696 201.99686 
L 201.513696 201.423208 
L 338.688 201.423208 
L 338.688 201.423208 
" style="fill:none;stroke:#ff7500;stroke-linecap:square;stroke-width:1.5;"/>
   </g>
   <g id="line2d_41">
    <defs>
     <path d="M 0 -6 
L -1.347084 -1.854102 
L -5.706339 -1.854102 
L -2.179628 0.708204 
L -3.526712 4.854102 
L -0 2.291796 
L 3.526712 4.854102 
L 2.179628 0.708204 
L 5.706339 -1.854102 
L 1.347084 -1.854102 
z
" id="m6672c95f48" style="stroke:#ff7500;stroke-linejoin:bevel;stroke-width:1.5;"/>
    </defs>
    <g>
     <use style="fill-opacity:0;stroke:#ff7500;stroke-linejoin:bevel;stroke-width:1.5;" x="144.026061" xlink:href="#m6672c95f48" y="241.578828"/>
     <use style="fill-opacity:0;stroke:#ff7500;stroke-linejoin:bevel;stroke-width:1.5;" x="180.834104" xlink:href="#m6672c95f48" y="208.307029"/>
     <use style="fill-opacity:0;stroke:#ff7500;stroke-linejoin:bevel;stroke-width:1.5;" x="201.513696" xlink:href="#m6672c95f48" y="201.423208"/>
     <use style="fill-opacity:0;stroke:#ff7500;stroke-linejoin:bevel;stroke-width:1.5;" x="201.513696" xlink:href="#m6672c95f48" y="201.423208"/>
     <use style="fill-opacity:0;stroke:#ff7500;stroke-linejoin:bevel;stroke-width:1.5;" x="338.688" xlink:href="#m6672c95f48" y="201.423208"/>
    </g>
   </g>
   <g id="line2d_42">
    <path style="fill:none;stroke:#ff7500;stroke-linecap:square;stroke-width:1.5;"/>
    <g/>
   </g>
   <g id="line2d_43">
    <path clip-path="url(#pbe98d0243a)" d="M 132.581068 253.051863 
" style="fill:none;stroke:#ff7500;stroke-linecap:square;stroke-width:1.5;"/>
    <defs>
     <path d="M -12 12 
L 12 -12 
M -12 -12 
L 12 12 
" id="mb159d0269d" style="stroke:#ff7500;"/>
    </defs>
    <g clip-path="url(#pbe98d0243a)">
     <use style="fill:#ff7500;stroke:#ff7500;" x="132.581068" xlink:href="#mb159d0269d" y="253.051863"/>
    </g>
   </g>
   <g id="line2d_44">
    <defs>
     <path d="M 0 1.5 
C 0.397805 1.5 0.77937 1.341951 1.06066 1.06066 
C 1.341951 0.77937 1.5 0.397805 1.5 0 
C 1.5 -0.397805 1.341951 -0.77937 1.06066 -1.06066 
C 0.77937 -1.341951 0.397805 -1.5 0 -1.5 
C -0.397805 -1.5 -0.77937 -1.341951 -1.06066 -1.06066 
C -1.341951 -0.77937 -1.5 -0.397805 -1.5 0 
C -1.5 0.397805 -1.341951 0.77937 -1.06066 1.06066 
C -0.77937 1.341951 -0.397805 1.5 0 1.5 
z
" id="m5dcf5ebac3" style="stroke:#6495ed;"/>
    </defs>
    <g>
     <use style="fill:#6495ed;stroke:#6495ed;" x="201.248025" xlink:href="#m5dcf5ebac3" y="161.267588"/>
     <use style="fill:#6495ed;stroke:#6495ed;" x="201.248025" xlink:href="#m5dcf5ebac3" y="161.267588"/>
    </g>
   </g>
   <g id="line2d_45">
    <path d="M 104.434538 298.944 
L 104.434538 297.796697 
L 115.502395 297.796697 
L 115.502395 297.223045 
L 116.522527 297.223045 
L 116.522527 296.649393 
L 117.107138 296.649393 
L 117.107138 296.075741 
L 118.039942 296.075741 
L 118.039942 294.928438 
L 118.220662 294.928438 
L 118.220662 294.354786 
L 118.576578 294.354786 
L 118.576578 293.781135 
L 119.267333 293.781135 
L 119.267333 293.207483 
L 120.254726 293.207483 
L 120.254726 292.060179 
L 120.41399 292.060179 
L 120.41399 289.191921 
L 120.571812 289.191921 
L 120.571812 288.618269 
L 121.785469 288.618269 
L 121.785469 287.470966 
L 122.076131 287.470966 
L 122.076131 286.323662 
L 122.219665 286.323662 
L 122.219665 285.75001 
L 122.362027 285.75001 
L 122.362027 285.176359 
L 122.643312 285.176359 
L 122.643312 284.602707 
L 122.920132 284.602707 
L 122.920132 284.029055 
L 123.192626 284.029055 
L 123.192626 283.455404 
L 123.460928 283.455404 
L 123.460928 282.3081 
L 123.725164 282.3081 
L 123.725164 281.160797 
L 123.985457 281.160797 
L 123.985457 280.013493 
L 124.114161 280.013493 
L 124.114161 278.86619 
L 124.494669 278.86619 
L 124.494669 278.292538 
L 124.743806 278.292538 
L 124.743806 277.718886 
L 124.867052 277.718886 
L 124.867052 277.145235 
L 124.989434 277.145235 
L 124.989434 275.997931 
L 125.23165 275.997931 
L 125.23165 275.42428 
L 125.351508 275.42428 
L 125.351508 274.850628 
L 125.706218 274.850628 
L 125.706218 274.276976 
L 126.168212 274.276976 
L 126.168212 273.703324 
L 126.839037 273.703324 
L 126.948374 271.982369 
L 127.48501 271.982369 
L 127.590383 270.261414 
L 127.902737 270.261414 
L 127.902737 269.687762 
L 128.107907 269.687762 
L 128.107907 269.114111 
L 128.310692 269.114111 
L 128.411207 267.966807 
L 128.905271 267.966807 
L 129.002426 266.245852 
L 129.195127 266.245852 
L 129.290685 265.098549 
L 129.574256 265.098549 
L 129.574256 263.951245 
L 130.576266 263.951245 
L 130.664567 262.803942 
L 131.185181 262.803942 
L 131.185181 261.656638 
L 131.690703 261.656638 
L 131.690703 261.082987 
L 131.856005 261.082987 
L 131.856005 259.935683 
L 132.971225 259.935683 
L 132.971225 259.362031 
L 133.352844 259.362031 
L 133.352844 258.78838 
L 133.800029 258.78838 
L 133.800029 258.214728 
L 134.164119 258.214728 
L 134.164119 257.067425 
L 134.7313 257.067425 
L 134.800918 255.346469 
L 135.076644 255.346469 
L 135.076644 253.625514 
L 135.943785 253.625514 
L 135.943785 253.051863 
L 136.519813 253.051863 
L 136.519813 252.478211 
L 136.645276 252.478211 
L 136.645276 251.904559 
L 137.319638 251.904559 
L 137.319638 251.330907 
L 138.482688 251.330907 
L 138.482688 250.757256 
L 138.927025 250.757256 
L 138.927025 249.609952 
L 139.145019 249.609952 
L 139.145019 249.036301 
L 139.360321 249.036301 
L 139.360321 248.462649 
L 139.783113 248.462649 
L 139.783113 247.888997 
L 140.144829 247.888997 
L 140.246813 246.741694 
L 140.297583 246.741694 
L 140.297583 246.168042 
L 140.747977 246.168042 
L 140.747977 245.59439 
L 141.941279 245.59439 
L 141.941279 245.020738 
L 142.619936 245.020738 
L 142.619936 244.447087 
L 142.796538 244.447087 
L 142.796538 243.299783 
L 142.927826 243.299783 
L 142.927826 242.726132 
L 143.40093 242.726132 
L 143.40093 241.578828 
L 144.189046 241.578828 
L 144.189046 241.005176 
L 144.350522 241.005176 
L 144.350522 240.431525 
L 144.787023 240.431525 
L 144.787023 239.857873 
L 144.94308 239.857873 
L 144.94308 239.284221 
L 145.251067 239.284221 
L 145.289185 238.136918 
L 145.365173 238.136918 
L 145.365173 237.563266 
L 145.516164 237.563266 
L 145.591172 236.415963 
L 145.777292 236.415963 
L 145.777292 235.842311 
L 145.924771 235.842311 
L 145.924771 235.268659 
L 146.431341 235.268659 
L 146.431341 234.695008 
L 146.608752 234.695008 
L 146.608752 234.121356 
L 146.992815 234.121356 
L 147.027314 232.974052 
L 147.130404 232.974052 
L 147.130404 232.400401 
L 147.300877 232.400401 
L 147.402367 231.253097 
L 147.802521 231.253097 
L 147.802521 230.105794 
L 148.354135 230.105794 
L 148.354135 229.532142 
L 149.043029 229.532142 
L 149.043029 228.95849 
L 149.256637 228.95849 
L 149.286939 227.811187 
L 149.557321 227.811187 
L 149.557321 227.237535 
L 150.114722 227.237535 
L 150.114722 226.663884 
L 150.542526 226.663884 
L 150.598782 224.942928 
L 150.738632 224.942928 
L 150.738632 224.369277 
L 150.932558 224.369277 
L 150.960087 223.221973 
L 151.069768 223.221973 
L 151.069768 222.648321 
L 151.287083 222.648321 
L 151.287083 222.07467 
L 151.60806 222.07467 
L 151.60806 221.501018 
L 151.844975 221.501018 
L 151.897188 220.353715 
L 152.001148 220.353715 
L 152.001148 219.780063 
L 152.360205 219.780063 
L 152.360205 219.206411 
L 152.761703 219.206411 
L 152.761703 218.632759 
L 152.959038 218.632759 
L 152.959038 218.059108 
L 153.250915 218.059108 
L 153.323128 216.911804 
L 153.442821 216.911804 
L 153.442821 216.338153 
L 153.632638 216.338153 
L 153.632638 215.764501 
L 154.258434 215.764501 
L 154.258434 215.190849 
L 154.994001 215.190849 
L 154.994001 214.617197 
L 155.146121 214.617197 
L 155.146121 214.043546 
L 155.296925 214.043546 
L 155.296925 212.896242 
L 156.518691 212.896242 
L 156.518691 212.322591 
L 157.166482 212.322591 
L 157.20498 210.601635 
L 157.377174 210.601635 
L 157.396202 209.454332 
L 157.566527 209.454332 
L 157.604152 208.307029 
L 158.39406 208.307029 
L 158.48363 206.586073 
L 158.590511 206.586073 
L 158.643706 204.865118 
L 158.976895 204.865118 
L 158.976895 204.291467 
L 159.252621 204.291467 
L 159.320876 203.144163 
L 159.422762 203.144163 
L 159.422762 202.570511 
L 160.152267 202.570511 
L 160.152267 201.99686 
L 161.585586 201.99686 
L 161.630398 200.849556 
L 162.072295 200.849556 
L 162.086834 199.702253 
L 162.231559 199.702253 
L 162.332157 198.554949 
L 162.489076 198.554949 
L 162.489076 197.981298 
L 162.784783 197.981298 
L 162.784783 197.407646 
L 163.157756 197.407646 
L 163.171418 196.260342 
L 163.496131 196.260342 
L 163.496131 195.686691 
L 163.828065 195.686691 
L 163.828065 195.113039 
L 164.011225 195.113039 
L 164.011225 194.539387 
L 164.320806 194.539387 
L 164.39735 193.392084 
L 165.193576 193.392084 
L 165.193576 192.818432 
L 166.186323 192.818432 
L 166.255117 191.671129 
L 166.595075 191.671129 
L 166.673454 190.523825 
L 166.706937 190.523825 
L 166.706937 189.950174 
L 167.201624 189.950174 
L 167.201624 189.376522 
L 167.374185 189.376522 
L 167.374185 188.80287 
L 167.523787 188.80287 
L 167.587512 187.081915 
L 168.466121 187.081915 
L 168.466121 186.508263 
L 168.765944 186.508263 
L 168.765944 185.934612 
L 169.436581 185.934612 
L 169.436581 185.36096 
L 169.60737 185.36096 
L 169.60737 184.787308 
L 169.748427 184.787308 
L 169.748427 184.213656 
L 170.008719 184.213656 
L 170.008719 183.640005 
L 170.41006 183.640005 
L 170.41006 183.066353 
L 170.819995 183.066353 
L 170.819995 182.492701 
L 171.451389 182.492701 
L 171.451389 181.345398 
L 171.796233 181.345398 
L 171.796233 180.771746 
L 172.345483 180.771746 
L 172.345483 180.198094 
L 172.554051 180.198094 
L 172.554051 179.624443 
L 172.948265 179.624443 
L 172.948265 179.050791 
L 173.493167 179.050791 
L 173.493167 178.477139 
L 173.621148 178.477139 
L 173.621148 177.903487 
L 174.384284 177.903487 
L 174.384284 177.329836 
L 174.753684 177.329836 
L 174.753684 176.756184 
L 174.949398 176.756184 
L 174.949398 176.182532 
L 175.108535 176.182532 
L 175.108535 175.608881 
L 176.190077 175.608881 
L 176.241787 173.887925 
L 176.319066 173.887925 
L 176.319066 173.314274 
L 176.599529 173.314274 
L 176.599529 172.740622 
L 177.055116 172.740622 
L 177.055116 172.16697 
L 178.405929 172.16697 
L 178.405929 171.593319 
L 179.488982 171.593319 
L 179.488982 171.019667 
L 180.729632 171.019667 
L 180.729632 170.446015 
L 181.457697 170.446015 
L 181.457697 169.872363 
L 181.704798 169.872363 
L 181.704798 169.298712 
L 181.883182 169.298712 
L 181.883182 168.72506 
L 185.543334 168.72506 
L 185.543334 168.151408 
L 185.828738 168.151408 
L 185.828738 167.577757 
L 186.425543 167.577757 
L 186.425543 167.004105 
L 186.939804 167.004105 
L 186.939804 166.430453 
L 187.38491 166.430453 
L 187.391722 165.28315 
L 187.948057 165.28315 
L 188.053292 164.135846 
L 191.689121 164.135846 
L 191.689121 163.562195 
L 194.709584 163.562195 
L 194.709584 162.988543 
L 196.74796 162.988543 
L 196.74796 162.414891 
L 200.735941 162.414891 
L 200.735941 161.841239 
L 201.248025 161.841239 
L 201.248025 161.267588 
L 338.688 161.267588 
L 338.688 161.267588 
" style="fill:none;stroke:#6495ed;stroke-linecap:square;stroke-width:1.5;"/>
   </g>
   <g id="line2d_46">
    <defs>
     <path d="M -0 6 
L 6 -6 
L -6 -6 
z
" id="me20dc4f88b" style="stroke:#6495ed;stroke-linejoin:miter;stroke-width:1.5;"/>
    </defs>
    <g>
     <use style="fill-opacity:0;stroke:#6495ed;stroke-linejoin:miter;stroke-width:1.5;" x="171.451389" xlink:href="#me20dc4f88b" y="181.91905"/>
     <use style="fill-opacity:0;stroke:#6495ed;stroke-linejoin:miter;stroke-width:1.5;" x="201.248025" xlink:href="#me20dc4f88b" y="161.841239"/>
     <use style="fill-opacity:0;stroke:#6495ed;stroke-linejoin:miter;stroke-width:1.5;" x="201.248025" xlink:href="#me20dc4f88b" y="161.267588"/>
     <use style="fill-opacity:0;stroke:#6495ed;stroke-linejoin:miter;stroke-width:1.5;" x="201.248025" xlink:href="#me20dc4f88b" y="161.267588"/>
     <use style="fill-opacity:0;stroke:#6495ed;stroke-linejoin:miter;stroke-width:1.5;" x="338.688" xlink:href="#me20dc4f88b" y="161.267588"/>
    </g>
   </g>
   <g id="line2d_47">
    <path style="fill:none;stroke:#6495ed;stroke-linecap:square;stroke-width:1.5;"/>
    <g/>
   </g>
   <g id="line2d_48">
    <path clip-path="url(#pbe98d0243a)" d="M 133.57787 258.78838 
" style="fill:none;stroke:#6495ed;stroke-linecap:square;stroke-width:1.5;"/>
    <defs>
     <path d="M -12 12 
L 12 -12 
M -12 -12 
L 12 12 
" id="md3efd7cc45" style="stroke:#6495ed;"/>
    </defs>
    <g clip-path="url(#pbe98d0243a)">
     <use style="fill:#6495ed;stroke:#6495ed;" x="133.57787" xlink:href="#md3efd7cc45" y="258.78838"/>
    </g>
   </g>
   <g id="line2d_49">
    <defs>
     <path d="M 0 1.5 
C 0.397805 1.5 0.77937 1.341951 1.06066 1.06066 
C 1.341951 0.77937 1.5 0.397805 1.5 0 
C 1.5 -0.397805 1.341951 -0.77937 1.06066 -1.06066 
C 0.77937 -1.341951 0.397805 -1.5 0 -1.5 
C -0.397805 -1.5 -0.77937 -1.341951 -1.06066 -1.06066 
C -1.341951 -0.77937 -1.5 -0.397805 -1.5 0 
C -1.5 0.397805 -1.341951 0.77937 -1.06066 1.06066 
C -0.77937 1.341951 -0.397805 1.5 0 1.5 
z
" id="m1919a55aaa" style="stroke:#ff0000;"/>
    </defs>
    <g>
     <use style="fill:#ff0000;stroke:#ff0000;" x="160.054568" xlink:href="#m1919a55aaa" y="6.381624"/>
     <use style="fill:#ff0000;stroke:#ff0000;" x="160.054568" xlink:href="#m1919a55aaa" y="6.381624"/>
    </g>
   </g>
   <g id="line2d_50">
    <path d="M 38.440992 298.944 
L 38.440992 269.687762 
L 90.684409 269.687762 
L 90.684409 269.114111 
L 93.863965 269.114111 
L 93.863965 268.540459 
L 98.880934 268.540459 
L 98.880934 267.966807 
L 99.938184 267.966807 
L 99.938184 266.819504 
L 100.934985 266.819504 
L 100.934985 266.245852 
L 101.877879 266.245852 
L 101.877879 265.6722 
L 102.330873 265.6722 
L 102.330873 265.098549 
L 102.772397 265.098549 
L 102.772397 263.377593 
L 103.203018 263.377593 
L 103.203018 261.656638 
L 103.623262 261.656638 
L 103.623262 260.509335 
L 104.033617 260.509335 
L 104.033617 259.935683 
L 104.434538 259.935683 
L 104.434538 258.214728 
L 104.826449 258.214728 
L 104.826449 254.772818 
L 105.209745 254.772818 
L 105.209745 254.199166 
L 105.584798 254.199166 
L 105.584798 252.478211 
L 105.951954 252.478211 
L 105.951954 250.757256 
L 106.311539 250.757256 
L 106.311539 249.609952 
L 106.66386 249.609952 
L 106.66386 247.315345 
L 112.531694 247.315345 
L 112.531694 246.741694 
L 116.719583 246.741694 
L 116.719583 246.168042 
L 117.107138 246.168042 
L 117.107138 245.59439 
L 117.857331 245.59439 
L 117.857331 244.447087 
L 118.399528 244.447087 
L 118.399528 243.873435 
L 118.751849 243.873435 
L 118.751849 243.299783 
L 118.925375 243.299783 
L 118.925375 242.726132 
L 119.267333 242.726132 
L 119.267333 242.15248 
L 120.41399 242.15248 
L 120.41399 241.578828 
L 120.571812 241.578828 
L 120.571812 241.005176 
L 121.036887 241.005176 
L 121.036887 240.431525 
L 121.189196 240.431525 
L 121.189196 239.284221 
L 121.638301 239.284221 
L 121.638301 237.563266 
L 121.931406 237.563266 
L 121.931406 236.989614 
L 122.219665 236.989614 
L 122.219665 236.415963 
L 122.362027 236.415963 
L 122.362027 235.842311 
L 122.920132 235.842311 
L 122.920132 235.268659 
L 123.056911 235.268659 
L 123.056911 234.695008 
L 123.192626 234.695008 
L 123.192626 233.547704 
L 123.593547 233.547704 
L 123.593547 232.974052 
L 124.619683 232.974052 
L 124.619683 232.400401 
L 126.618283 232.400401 
L 126.618283 231.826749 
L 127.05703 231.826749 
L 127.05703 231.253097 
L 127.272333 231.253097 
L 127.378995 229.532142 
L 127.48501 229.532142 
L 127.590383 227.811187 
L 127.799239 227.811187 
L 127.902737 226.663884 
L 128.107907 226.663884 
L 128.209594 224.942928 
L 128.807571 224.942928 
L 128.905271 223.221973 
L 129.195127 223.221973 
L 129.195127 221.501018 
L 129.385722 221.501018 
L 129.480244 220.353715 
L 129.574256 220.353715 
L 129.667765 218.632759 
L 129.853291 218.632759 
L 129.945319 215.764501 
L 130.036864 215.764501 
L 130.127931 214.617197 
L 130.218525 214.617197 
L 130.30865 212.322591 
L 130.398313 212.322591 
L 130.398313 209.454332 
L 130.576266 209.454332 
L 130.576266 208.88068 
L 130.926816 208.88068 
L 131.013364 206.586073 
L 131.099484 206.586073 
L 131.185181 204.291467 
L 131.270459 204.291467 
L 131.355321 203.144163 
L 131.439773 203.144163 
L 131.523818 201.99686 
L 131.60746 201.99686 
L 131.690703 197.407646 
L 131.77355 197.407646 
L 131.856005 195.113039 
L 132.101058 195.113039 
L 132.181982 191.671129 
L 132.262533 191.671129 
L 132.342714 190.523825 
L 132.422528 190.523825 
L 132.422528 189.950174 
L 132.73818 189.950174 
L 132.816208 188.229218 
L 132.893889 188.229218 
L 132.893889 186.508263 
L 133.201197 186.508263 
L 133.201197 185.934612 
L 133.352844 185.934612 
L 133.428175 181.91905 
L 133.503183 181.91905 
L 133.57787 180.771746 
L 133.652238 180.771746 
L 133.72629 179.624443 
L 133.800029 179.624443 
L 133.873458 176.756184 
L 133.946579 176.756184 
L 134.019394 175.035229 
L 134.164119 175.035229 
L 134.164119 173.887925 
L 134.307653 173.887925 
L 134.37898 172.16697 
L 134.450015 172.16697 
L 134.450015 171.593319 
L 134.591225 171.593319 
L 134.661403 169.298712 
L 134.800918 169.298712 
L 134.800918 168.72506 
L 134.939326 168.72506 
L 134.939326 167.577757 
L 135.076644 167.577757 
L 135.144899 165.28315 
L 135.212889 165.28315 
L 135.280614 164.135846 
L 135.415281 164.135846 
L 135.482227 161.267588 
L 135.615352 161.267588 
L 135.681535 158.399329 
L 135.747468 158.399329 
L 135.813153 155.53107 
L 135.878591 155.53107 
L 135.878591 154.383767 
L 136.137916 154.383767 
L 136.202149 150.941857 
L 136.456742 150.941857 
L 136.519813 148.073598 
L 136.582658 148.073598 
L 136.645276 143.484384 
L 136.769843 143.484384 
L 136.831795 142.337081 
L 136.893527 142.337081 
L 136.955041 140.042474 
L 137.016339 140.042474 
L 137.077422 137.747867 
L 137.138292 137.747867 
L 137.138292 136.600564 
L 137.259399 136.600564 
L 137.319638 135.45326 
L 137.37967 135.45326 
L 137.439497 132.585002 
L 137.499118 132.585002 
L 137.558536 130.864047 
L 137.676769 130.864047 
L 137.676769 128.56944 
L 137.794206 128.56944 
L 137.852629 126.274833 
L 137.910857 126.274833 
L 137.968891 122.832923 
L 138.026733 122.832923 
L 138.026733 121.111967 
L 138.199116 121.111967 
L 138.256201 118.817361 
L 138.313099 118.817361 
L 138.313099 115.37545 
L 138.426341 115.37545 
L 138.482688 113.654495 
L 138.538853 113.654495 
L 138.594838 112.507192 
L 138.650644 112.507192 
L 138.761723 110.212585 
L 138.816998 110.212585 
L 138.872098 109.065281 
L 138.981779 109.065281 
L 139.090775 101.034157 
L 139.145019 101.034157 
L 139.199094 97.592247 
L 139.306744 97.592247 
L 139.413734 95.871292 
L 139.466984 95.871292 
L 139.572998 91.282078 
L 139.625765 91.282078 
L 139.678372 88.413819 
L 139.835248 88.413819 
L 139.939053 82.677302 
L 139.990725 82.677302 
L 140.042245 81.529999 
L 140.144829 81.529999 
L 140.246813 79.235392 
L 140.348205 79.235392 
L 140.44901 78.088089 
L 140.499195 78.088089 
L 140.599134 74.646178 
L 140.64889 74.646178 
L 140.747977 72.351571 
L 140.846504 72.351571 
L 140.846504 69.483313 
L 141.041904 69.483313 
L 141.090414 67.188706 
L 141.187031 67.188706 
L 141.283115 64.320447 
L 141.33096 64.320447 
L 141.426256 60.878537 
L 141.47371 60.878537 
L 141.568232 58.58393 
L 141.662245 58.58393 
L 141.755753 56.289323 
L 141.80232 56.289323 
L 141.895083 52.273761 
L 141.941279 52.273761 
L 142.033307 49.979154 
L 142.124852 49.979154 
L 142.215919 47.684547 
L 142.351634 47.684547 
L 142.441528 45.963592 
L 142.486301 45.963592 
L 142.486301 44.816289 
L 142.619936 44.816289 
L 142.664255 43.095334 
L 142.752555 43.095334 
L 142.796538 40.800727 
L 142.884173 40.800727 
L 142.971369 37.358817 
L 143.014805 37.358817 
L 143.101352 36.211513 
L 143.187472 36.211513 
L 143.273169 33.343255 
L 143.358447 33.343255 
L 143.44331 31.622299 
L 143.527762 31.622299 
L 143.569835 29.901344 
L 143.861538 29.901344 
L 143.902815 28.180389 
L 144.148442 28.180389 
L 144.148442 27.033086 
L 144.310293 27.033086 
L 144.310293 26.459434 
L 144.510517 26.459434 
L 144.510517 25.885782 
L 144.669057 25.885782 
L 144.747789 23.017524 
L 144.787023 23.017524 
L 144.787023 22.443872 
L 144.904196 22.443872 
L 144.981877 21.296568 
L 145.059213 21.296568 
L 145.059213 20.722917 
L 145.174578 20.722917 
L 145.174578 20.149265 
L 145.365173 20.149265 
L 145.440832 17.854658 
L 145.553708 17.854658 
L 145.591172 16.133703 
L 145.814278 16.133703 
L 145.924771 14.412748 
L 146.143677 14.412748 
L 146.252108 12.691793 
L 146.466968 12.691793 
L 146.466968 12.118141 
L 146.958248 12.118141 
L 146.958248 11.544489 
L 150.258492 11.544489 
L 150.31567 10.397186 
L 152.104493 10.397186 
L 152.207228 9.249882 
L 152.309362 9.249882 
L 152.309362 8.676231 
L 152.736878 8.676231 
L 152.736878 8.102579 
L 153.890309 8.102579 
L 153.890309 7.528927 
L 155.275461 7.528927 
L 155.275461 6.955275 
L 160.054568 6.955275 
L 160.054568 6.381624 
L 338.688 6.381624 
L 338.688 6.381624 
" style="fill:none;stroke:#ff0000;stroke-linecap:square;stroke-width:1.5;"/>
   </g>
   <g id="line2d_51">
    <defs>
     <path d="M 0 -6 
L -5.196152 -3 
L -5.196152 3 
L -0 6 
L 5.196152 3 
L 5.196152 -3 
z
" id="m14f5209a49" style="stroke:#ff0000;stroke-linejoin:miter;stroke-width:1.5;"/>
    </defs>
    <g>
     <use style="fill-opacity:0;stroke:#ff0000;stroke-linejoin:miter;stroke-width:1.5;" x="135.615352" xlink:href="#m14f5209a49" y="160.693936"/>
     <use style="fill-opacity:0;stroke:#ff0000;stroke-linejoin:miter;stroke-width:1.5;" x="160.054568" xlink:href="#m14f5209a49" y="6.955275"/>
     <use style="fill-opacity:0;stroke:#ff0000;stroke-linejoin:miter;stroke-width:1.5;" x="160.054568" xlink:href="#m14f5209a49" y="6.381624"/>
     <use style="fill-opacity:0;stroke:#ff0000;stroke-linejoin:miter;stroke-width:1.5;" x="160.054568" xlink:href="#m14f5209a49" y="6.381624"/>
     <use style="fill-opacity:0;stroke:#ff0000;stroke-linejoin:miter;stroke-width:1.5;" x="338.688" xlink:href="#m14f5209a49" y="6.381624"/>
    </g>
   </g>
   <g id="line2d_52">
    <path style="fill:none;stroke:#ff0000;stroke-linecap:square;stroke-width:1.5;"/>
    <g/>
   </g>
   <g id="line2d_53">
    <path clip-path="url(#pbe98d0243a)" d="M 138.872098 109.065281 
" style="fill:none;stroke:#ff0000;stroke-linecap:square;stroke-width:1.5;"/>
    <defs>
     <path d="M -12 12 
L 12 -12 
M -12 -12 
L 12 12 
" id="ma57499a09f" style="stroke:#ff0000;"/>
    </defs>
    <g clip-path="url(#pbe98d0243a)">
     <use style="fill:#ff0000;stroke:#ff0000;" x="138.872098" xlink:href="#ma57499a09f" y="109.065281"/>
    </g>
   </g>
   <g id="line2d_54">
    <path d="M 338.688 247.315345 
L 369.60768 293.092752 
" style="fill:none;stroke:#ff00ff;stroke-linecap:square;stroke-width:1.5;"/>
    <g>
     <use style="fill-opacity:0;stroke:#ff00ff;stroke-linejoin:miter;stroke-width:1.5;" x="338.688" xlink:href="#m2daef61e67" y="247.315345"/>
     <use style="fill-opacity:0;stroke:#ff00ff;stroke-linejoin:miter;stroke-width:1.5;" x="369.60768" xlink:href="#m2daef61e67" y="293.092752"/>
    </g>
   </g>
   <g id="line2d_55">
    <path d="M 338.688 235.842311 
L 369.60768 222.877782 
" style="fill:none;stroke:#000080;stroke-linecap:square;stroke-width:1.5;"/>
    <g>
     <use style="fill-opacity:0;stroke:#000080;stroke-width:1.5;" x="338.688" xlink:href="#m03aa6bf288" y="235.842311"/>
     <use style="fill-opacity:0;stroke:#000080;stroke-width:1.5;" x="369.60768" xlink:href="#m03aa6bf288" y="222.877782"/>
    </g>
   </g>
   <g id="line2d_56">
    <path d="M 338.688 201.423208 
L 369.60768 152.662812 
" style="fill:none;stroke:#ff7500;stroke-linecap:square;stroke-width:1.5;"/>
    <g>
     <use style="fill-opacity:0;stroke:#ff7500;stroke-linejoin:bevel;stroke-width:1.5;" x="338.688" xlink:href="#m6672c95f48" y="201.423208"/>
     <use style="fill-opacity:0;stroke:#ff7500;stroke-linejoin:bevel;stroke-width:1.5;" x="369.60768" xlink:href="#m6672c95f48" y="152.662812"/>
    </g>
   </g>
   <g id="line2d_57">
    <path d="M 338.688 161.267588 
L 369.60768 82.447842 
" style="fill:none;stroke:#6495ed;stroke-linecap:square;stroke-width:1.5;"/>
    <g>
     <use style="fill-opacity:0;stroke:#6495ed;stroke-linejoin:miter;stroke-width:1.5;" x="338.688" xlink:href="#me20dc4f88b" y="161.267588"/>
     <use style="fill-opacity:0;stroke:#6495ed;stroke-linejoin:miter;stroke-width:1.5;" x="369.60768" xlink:href="#me20dc4f88b" y="82.447842"/>
    </g>
   </g>
   <g id="line2d_58">
    <path d="M 338.688 6.381624 
L 369.60768 12.232871 
" style="fill:none;stroke:#ff0000;stroke-linecap:square;stroke-width:1.5;"/>
    <g>
     <use style="fill-opacity:0;stroke:#ff0000;stroke-linejoin:miter;stroke-width:1.5;" x="338.688" xlink:href="#m14f5209a49" y="6.381624"/>
     <use style="fill-opacity:0;stroke:#ff0000;stroke-linejoin:miter;stroke-width:1.5;" x="369.60768" xlink:href="#m14f5209a49" y="12.232871"/>
    </g>
   </g>
   <g id="line2d_59">
    <path d="M 338.688 298.944 
L 338.688 6.381624 
" style="fill:none;stroke:#000000;stroke-linecap:square;stroke-width:1.5;"/>
   </g>
   <g id="patch_3">
    <path d="M 57.6 298.944 
L 57.6 3.456 
" style="fill:none;stroke:#000000;stroke-linecap:square;stroke-linejoin:miter;stroke-width:0.8;"/>
   </g>
   <g id="patch_4">
    <path d="M 338.688 298.944 
L 338.688 3.456 
" style="fill:none;stroke:#000000;stroke-linecap:square;stroke-linejoin:miter;stroke-width:0.8;"/>
   </g>
   <g id="patch_5">
    <path d="M 57.6 298.944 
L 338.688 298.944 
" style="fill:none;stroke:#000000;stroke-linecap:square;stroke-linejoin:miter;stroke-width:0.8;"/>
   </g>
   <g id="patch_6">
    <path d="M 57.6 3.456 
L 338.688 3.456 
" style="fill:none;stroke:#000000;stroke-linecap:square;stroke-linejoin:miter;stroke-width:0.8;"/>
   </g>
   <g id="text_13">
    <!-- f11 -->
    <g transform="translate(375.22944 297.78369)scale(0.17 -0.17)">
     <use xlink:href="#DejaVuSans-102"/>
     <use x="35.205078" xlink:href="#DejaVuSans-49"/>
     <use x="98.828125" xlink:href="#DejaVuSans-49"/>
    </g>
   </g>
   <g id="text_14">
    <!-- f10 -->
    <g transform="translate(375.22944 227.56872)scale(0.17 -0.17)">
     <use xlink:href="#DejaVuSans-102"/>
     <use x="35.205078" xlink:href="#DejaVuSans-49"/>
     <use x="98.828125" xlink:href="#DejaVuSans-48"/>
    </g>
   </g>
   <g id="text_15">
    <!-- f12 -->
    <g transform="translate(375.22944 157.353749)scale(0.17 -0.17)">
     <use xlink:href="#DejaVuSans-102"/>
     <use x="35.205078" xlink:href="#DejaVuSans-49"/>
     <use x="98.828125" xlink:href="#DejaVuSans-50"/>
    </g>
   </g>
   <g id="text_16">
    <!-- f13 -->
    <g transform="translate(375.22944 87.138779)scale(0.17 -0.17)">
     <defs>
      <path d="M 40.578125 39.3125 
Q 47.65625 37.796875 51.625 33 
Q 55.609375 28.21875 55.609375 21.1875 
Q 55.609375 10.40625 48.1875 4.484375 
Q 40.765625 -1.421875 27.09375 -1.421875 
Q 22.515625 -1.421875 17.65625 -0.515625 
Q 12.796875 0.390625 7.625 2.203125 
L 7.625 11.71875 
Q 11.71875 9.328125 16.59375 8.109375 
Q 21.484375 6.890625 26.8125 6.890625 
Q 36.078125 6.890625 40.9375 10.546875 
Q 45.796875 14.203125 45.796875 21.1875 
Q 45.796875 27.640625 41.28125 31.265625 
Q 36.765625 34.90625 28.71875 34.90625 
L 20.21875 34.90625 
L 20.21875 43.015625 
L 29.109375 43.015625 
Q 36.375 43.015625 40.234375 45.921875 
Q 44.09375 48.828125 44.09375 54.296875 
Q 44.09375 59.90625 40.109375 62.90625 
Q 36.140625 65.921875 28.71875 65.921875 
Q 24.65625 65.921875 20.015625 65.03125 
Q 15.375 64.15625 9.8125 62.3125 
L 9.8125 71.09375 
Q 15.4375 72.65625 20.34375 73.4375 
Q 25.25 74.21875 29.59375 74.21875 
Q 40.828125 74.21875 47.359375 69.109375 
Q 53.90625 64.015625 53.90625 55.328125 
Q 53.90625 49.265625 50.4375 45.09375 
Q 46.96875 40.921875 40.578125 39.3125 
z
" id="DejaVuSans-51"/>
     </defs>
     <use xlink:href="#DejaVuSans-102"/>
     <use x="35.205078" xlink:href="#DejaVuSans-49"/>
     <use x="98.828125" xlink:href="#DejaVuSans-51"/>
    </g>
   </g>
   <g id="text_17">
    <!-- f14 -->
    <g transform="translate(375.22944 16.923809)scale(0.17 -0.17)">
     <use xlink:href="#DejaVuSans-102"/>
     <use x="35.205078" xlink:href="#DejaVuSans-49"/>
     <use x="98.828125" xlink:href="#DejaVuSans-52"/>
    </g>
   </g>
   <g id="text_18">
    <!-- bbob -->
    <g transform="translate(60.41088 14.161286)scale(0.102 -0.102)">
     <defs>
      <path d="M 48.6875 27.296875 
Q 48.6875 37.203125 44.609375 42.84375 
Q 40.53125 48.484375 33.40625 48.484375 
Q 26.265625 48.484375 22.1875 42.84375 
Q 18.109375 37.203125 18.109375 27.296875 
Q 18.109375 17.390625 22.1875 11.75 
Q 26.265625 6.109375 33.40625 6.109375 
Q 40.53125 6.109375 44.609375 11.75 
Q 48.6875 17.390625 48.6875 27.296875 
z
M 18.109375 46.390625 
Q 20.953125 51.265625 25.265625 53.625 
Q 29.59375 56 35.59375 56 
Q 45.5625 56 51.78125 48.09375 
Q 58.015625 40.1875 58.015625 27.296875 
Q 58.015625 14.40625 51.78125 6.484375 
Q 45.5625 -1.421875 35.59375 -1.421875 
Q 29.59375 -1.421875 25.265625 0.953125 
Q 20.953125 3.328125 18.109375 8.203125 
L 18.109375 0 
L 9.078125 0 
L 9.078125 75.984375 
L 18.109375 75.984375 
z
" id="DejaVuSans-98"/>
     </defs>
     <use xlink:href="#DejaVuSans-98"/>
     <use x="63.476562" xlink:href="#DejaVuSans-98"/>
     <use x="126.953125" xlink:href="#DejaVuSans-111"/>
     <use x="188.134766" xlink:href="#DejaVuSans-98"/>
    </g>
    <!-- Ill-conditioned functions, 3-D -->
    <g transform="translate(60.41088 25.583055)scale(0.102 -0.102)">
     <defs>
      <path d="M 9.8125 72.90625 
L 19.671875 72.90625 
L 19.671875 0 
L 9.8125 0 
z
" id="DejaVuSans-73"/>
      <path d="M 19.671875 64.796875 
L 19.671875 8.109375 
L 31.59375 8.109375 
Q 46.6875 8.109375 53.6875 14.9375 
Q 60.6875 21.78125 60.6875 36.53125 
Q 60.6875 51.171875 53.6875 57.984375 
Q 46.6875 64.796875 31.59375 64.796875 
z
M 9.8125 72.90625 
L 30.078125 72.90625 
Q 51.265625 72.90625 61.171875 64.09375 
Q 71.09375 55.28125 71.09375 36.53125 
Q 71.09375 17.671875 61.125 8.828125 
Q 51.171875 0 30.078125 0 
L 9.8125 0 
z
" id="DejaVuSans-68"/>
     </defs>
     <use xlink:href="#DejaVuSans-73"/>
     <use x="29.492188" xlink:href="#DejaVuSans-108"/>
     <use x="57.275391" xlink:href="#DejaVuSans-108"/>
     <use x="85.058594" xlink:href="#DejaVuSans-45"/>
     <use x="121.142578" xlink:href="#DejaVuSans-99"/>
     <use x="176.123047" xlink:href="#DejaVuSans-111"/>
     <use x="237.304688" xlink:href="#DejaVuSans-110"/>
     <use x="300.683594" xlink:href="#DejaVuSans-100"/>
     <use x="364.160156" xlink:href="#DejaVuSans-105"/>
     <use x="391.943359" xlink:href="#DejaVuSans-116"/>
     <use x="431.152344" xlink:href="#DejaVuSans-105"/>
     <use x="458.935547" xlink:href="#DejaVuSans-111"/>
     <use x="520.117188" xlink:href="#DejaVuSans-110"/>
     <use x="583.496094" xlink:href="#DejaVuSans-101"/>
     <use x="645.019531" xlink:href="#DejaVuSans-100"/>
     <use x="708.496094" xlink:href="#DejaVuSans-32"/>
     <use x="740.283203" xlink:href="#DejaVuSans-102"/>
     <use x="775.488281" xlink:href="#DejaVuSans-117"/>
     <use x="838.867188" xlink:href="#DejaVuSans-110"/>
     <use x="902.246094" xlink:href="#DejaVuSans-99"/>
     <use x="957.226562" xlink:href="#DejaVuSans-116"/>
     <use x="996.435547" xlink:href="#DejaVuSans-105"/>
     <use x="1024.21875" xlink:href="#DejaVuSans-111"/>
     <use x="1085.400391" xlink:href="#DejaVuSans-110"/>
     <use x="1148.779297" xlink:href="#DejaVuSans-115"/>
     <use x="1200.878906" xlink:href="#DejaVuSans-44"/>
     <use x="1232.666016" xlink:href="#DejaVuSans-32"/>
     <use x="1264.453125" xlink:href="#DejaVuSans-51"/>
     <use x="1328.076172" xlink:href="#DejaVuSans-45"/>
     <use x="1364.160156" xlink:href="#DejaVuSans-68"/>
    </g>
    <!-- 51 targets: 100..1e-08 -->
    <g transform="translate(60.41088 37.004824)scale(0.102 -0.102)">
     <defs>
      <path d="M 10.796875 72.90625 
L 49.515625 72.90625 
L 49.515625 64.59375 
L 19.828125 64.59375 
L 19.828125 46.734375 
Q 21.96875 47.46875 24.109375 47.828125 
Q 26.265625 48.1875 28.421875 48.1875 
Q 40.625 48.1875 47.75 41.5 
Q 54.890625 34.8125 54.890625 23.390625 
Q 54.890625 11.625 47.5625 5.09375 
Q 40.234375 -1.421875 26.90625 -1.421875 
Q 22.3125 -1.421875 17.546875 -0.640625 
Q 12.796875 0.140625 7.71875 1.703125 
L 7.71875 11.625 
Q 12.109375 9.234375 16.796875 8.0625 
Q 21.484375 6.890625 26.703125 6.890625 
Q 35.15625 6.890625 40.078125 11.328125 
Q 45.015625 15.765625 45.015625 23.390625 
Q 45.015625 31 40.078125 35.4375 
Q 35.15625 39.890625 26.703125 39.890625 
Q 22.75 39.890625 18.8125 39.015625 
Q 14.890625 38.140625 10.796875 36.28125 
z
" id="DejaVuSans-53"/>
      <path d="M 11.71875 12.40625 
L 22.015625 12.40625 
L 22.015625 0 
L 11.71875 0 
z
M 11.71875 51.703125 
L 22.015625 51.703125 
L 22.015625 39.3125 
L 11.71875 39.3125 
z
" id="DejaVuSans-58"/>
     </defs>
     <use xlink:href="#DejaVuSans-53"/>
     <use x="63.623047" xlink:href="#DejaVuSans-49"/>
     <use x="127.246094" xlink:href="#DejaVuSans-32"/>
     <use x="159.033203" xlink:href="#DejaVuSans-116"/>
     <use x="198.242188" xlink:href="#DejaVuSans-97"/>
     <use x="259.521484" xlink:href="#DejaVuSans-114"/>
     <use x="298.884766" xlink:href="#DejaVuSans-103"/>
     <use x="362.361328" xlink:href="#DejaVuSans-101"/>
     <use x="423.884766" xlink:href="#DejaVuSans-116"/>
     <use x="463.09375" xlink:href="#DejaVuSans-115"/>
     <use x="515.193359" xlink:href="#DejaVuSans-58"/>
     <use x="548.884766" xlink:href="#DejaVuSans-32"/>
     <use x="580.671875" xlink:href="#DejaVuSans-49"/>
     <use x="644.294922" xlink:href="#DejaVuSans-48"/>
     <use x="707.917969" xlink:href="#DejaVuSans-48"/>
     <use x="771.541016" xlink:href="#DejaVuSans-46"/>
     <use x="803.328125" xlink:href="#DejaVuSans-46"/>
     <use x="835.115234" xlink:href="#DejaVuSans-49"/>
     <use x="898.738281" xlink:href="#DejaVuSans-101"/>
     <use x="960.261719" xlink:href="#DejaVuSans-45"/>
     <use x="996.345703" xlink:href="#DejaVuSans-48"/>
     <use x="1059.96875" xlink:href="#DejaVuSans-56"/>
    </g>
    <!-- 15 instances -->
    <g transform="translate(60.41088 48.426593)scale(0.102 -0.102)">
     <use xlink:href="#DejaVuSans-49"/>
     <use x="63.623047" xlink:href="#DejaVuSans-53"/>
     <use x="127.246094" xlink:href="#DejaVuSans-32"/>
     <use x="159.033203" xlink:href="#DejaVuSans-105"/>
     <use x="186.816406" xlink:href="#DejaVuSans-110"/>
     <use x="250.195312" xlink:href="#DejaVuSans-115"/>
     <use x="302.294922" xlink:href="#DejaVuSans-116"/>
     <use x="341.503906" xlink:href="#DejaVuSans-97"/>
     <use x="402.783203" xlink:href="#DejaVuSans-110"/>
     <use x="466.162109" xlink:href="#DejaVuSans-99"/>
     <use x="521.142578" xlink:href="#DejaVuSans-101"/>
     <use x="582.666016" xlink:href="#DejaVuSans-115"/>
    </g>
   </g>
   <g id="text_19">
    <!-- v2.4 -->
    <g style="fill:#808080;" transform="translate(187.233062 293.909432)scale(0.1 -0.1)">
     <use xlink:href="#DejaVuSans-118"/>
     <use x="59.179688" xlink:href="#DejaVuSans-50"/>
     <use x="122.802734" xlink:href="#DejaVuSans-46"/>
     <use x="154.589844" xlink:href="#DejaVuSans-52"/>
    </g>
   </g>
  </g>
 </g>
 <defs>
  <clipPath id="pbe98d0243a">
   <rect height="295.488" width="281.088" x="57.6" y="3.456"/>
  </clipPath>
 </defs>
</svg>
