<?xml version="1.0" encoding="utf-8" standalone="no"?>
<!DOCTYPE svg PUBLIC "-//W3C//DTD SVG 1.1//EN"
  "http://www.w3.org/Graphics/SVG/1.1/DTD/svg11.dtd">
<!-- Created with matplotlib (https://matplotlib.org/) -->
<svg height="345.6pt" version="1.1" viewBox="0 0 460.8 345.6" width="460.8pt" xmlns="http://www.w3.org/2000/svg" xmlns:xlink="http://www.w3.org/1999/xlink">
 <metadata>
  <rdf:RDF xmlns:cc="http://creativecommons.org/ns#" xmlns:dc="http://purl.org/dc/elements/1.1/" xmlns:rdf="http://www.w3.org/1999/02/22-rdf-syntax-ns#">
   <cc:Work>
    <dc:type rdf:resource="http://purl.org/dc/dcmitype/StillImage"/>
    <dc:date>2021-08-04T15:02:53.642900</dc:date>
    <dc:format>image/svg+xml</dc:format>
    <dc:creator>
     <cc:Agent>
      <dc:title>Matplotlib v3.3.1, https://matplotlib.org/</dc:title>
     </cc:Agent>
    </dc:creator>
   </cc:Work>
  </rdf:RDF>
 </metadata>
 <defs>
  <style type="text/css">*{stroke-linecap:butt;stroke-linejoin:round;}</style>
 </defs>
 <g id="figure_1">
  <g id="patch_1">
   <path d="M 0 345.6 
L 460.8 345.6 
L 460.8 0 
L 0 0 
z
" style="fill:#ffffff;"/>
  </g>
  <g id="axes_1">
   <g id="patch_2">
    <path d="M 57.6 298.944 
L 338.688 298.944 
L 338.688 3.456 
L 57.6 3.456 
z
" style="fill:#ffffff;"/>
   </g>
   <g id="matplotlib.axis_1">
    <g id="xtick_1">
     <g id="line2d_1">
      <path clip-path="url(#pa5a5cbc9f0)" d="M 57.6 298.944 
L 57.6 3.456 
" style="fill:none;stroke:#b0b0b0;stroke-linecap:square;stroke-width:0.8;"/>
     </g>
     <g id="line2d_2">
      <defs>
       <path d="M 0 0 
L 0 3.5 
" id="m82e5f48356" style="stroke:#000000;stroke-width:0.8;"/>
      </defs>
      <g>
       <use style="stroke:#000000;stroke-width:0.8;" x="57.6" xlink:href="#m82e5f48356" y="298.944"/>
      </g>
     </g>
     <g id="text_1">
      <!-- 0 -->
      <g transform="translate(51.2375 321.140875)scale(0.2 -0.2)">
       <defs>
        <path d="M 31.78125 66.40625 
Q 24.171875 66.40625 20.328125 58.90625 
Q 16.5 51.421875 16.5 36.375 
Q 16.5 21.390625 20.328125 13.890625 
Q 24.171875 6.390625 31.78125 6.390625 
Q 39.453125 6.390625 43.28125 13.890625 
Q 47.125 21.390625 47.125 36.375 
Q 47.125 51.421875 43.28125 58.90625 
Q 39.453125 66.40625 31.78125 66.40625 
z
M 31.78125 74.21875 
Q 44.046875 74.21875 50.515625 64.515625 
Q 56.984375 54.828125 56.984375 36.375 
Q 56.984375 17.96875 50.515625 8.265625 
Q 44.046875 -1.421875 31.78125 -1.421875 
Q 19.53125 -1.421875 13.0625 8.265625 
Q 6.59375 17.96875 6.59375 36.375 
Q 6.59375 54.828125 13.0625 64.515625 
Q 19.53125 74.21875 31.78125 74.21875 
z
" id="DejaVuSans-48"/>
       </defs>
       <use xlink:href="#DejaVuSans-48"/>
      </g>
     </g>
    </g>
    <g id="xtick_2">
     <g id="line2d_3">
      <path clip-path="url(#pa5a5cbc9f0)" d="M 137.910857 298.944 
L 137.910857 3.456 
" style="fill:none;stroke:#b0b0b0;stroke-linecap:square;stroke-width:0.8;"/>
     </g>
     <g id="line2d_4">
      <g>
       <use style="stroke:#000000;stroke-width:0.8;" x="137.910857" xlink:href="#m82e5f48356" y="298.944"/>
      </g>
     </g>
     <g id="text_2">
      <!-- 2 -->
      <g transform="translate(131.548357 321.140875)scale(0.2 -0.2)">
       <defs>
        <path d="M 19.1875 8.296875 
L 53.609375 8.296875 
L 53.609375 0 
L 7.328125 0 
L 7.328125 8.296875 
Q 12.9375 14.109375 22.625 23.890625 
Q 32.328125 33.6875 34.8125 36.53125 
Q 39.546875 41.84375 41.421875 45.53125 
Q 43.3125 49.21875 43.3125 52.78125 
Q 43.3125 58.59375 39.234375 62.25 
Q 35.15625 65.921875 28.609375 65.921875 
Q 23.96875 65.921875 18.8125 64.3125 
Q 13.671875 62.703125 7.8125 59.421875 
L 7.8125 69.390625 
Q 13.765625 71.78125 18.9375 73 
Q 24.125 74.21875 28.421875 74.21875 
Q 39.75 74.21875 46.484375 68.546875 
Q 53.21875 62.890625 53.21875 53.421875 
Q 53.21875 48.921875 51.53125 44.890625 
Q 49.859375 40.875 45.40625 35.40625 
Q 44.1875 33.984375 37.640625 27.21875 
Q 31.109375 20.453125 19.1875 8.296875 
z
" id="DejaVuSans-50"/>
       </defs>
       <use xlink:href="#DejaVuSans-50"/>
      </g>
     </g>
    </g>
    <g id="xtick_3">
     <g id="line2d_5">
      <path clip-path="url(#pa5a5cbc9f0)" d="M 218.221714 298.944 
L 218.221714 3.456 
" style="fill:none;stroke:#b0b0b0;stroke-linecap:square;stroke-width:0.8;"/>
     </g>
     <g id="line2d_6">
      <g>
       <use style="stroke:#000000;stroke-width:0.8;" x="218.221714" xlink:href="#m82e5f48356" y="298.944"/>
      </g>
     </g>
     <g id="text_3">
      <!-- 4 -->
      <g transform="translate(211.859214 321.140875)scale(0.2 -0.2)">
       <defs>
        <path d="M 37.796875 64.3125 
L 12.890625 25.390625 
L 37.796875 25.390625 
z
M 35.203125 72.90625 
L 47.609375 72.90625 
L 47.609375 25.390625 
L 58.015625 25.390625 
L 58.015625 17.1875 
L 47.609375 17.1875 
L 47.609375 0 
L 37.796875 0 
L 37.796875 17.1875 
L 4.890625 17.1875 
L 4.890625 26.703125 
z
" id="DejaVuSans-52"/>
       </defs>
       <use xlink:href="#DejaVuSans-52"/>
      </g>
     </g>
    </g>
    <g id="xtick_4">
     <g id="line2d_7">
      <path clip-path="url(#pa5a5cbc9f0)" d="M 298.532571 298.944 
L 298.532571 3.456 
" style="fill:none;stroke:#b0b0b0;stroke-linecap:square;stroke-width:0.8;"/>
     </g>
     <g id="line2d_8">
      <g>
       <use style="stroke:#000000;stroke-width:0.8;" x="298.532571" xlink:href="#m82e5f48356" y="298.944"/>
      </g>
     </g>
     <g id="text_4">
      <!-- 6 -->
      <g transform="translate(292.170071 321.140875)scale(0.2 -0.2)">
       <defs>
        <path d="M 33.015625 40.375 
Q 26.375 40.375 22.484375 35.828125 
Q 18.609375 31.296875 18.609375 23.390625 
Q 18.609375 15.53125 22.484375 10.953125 
Q 26.375 6.390625 33.015625 6.390625 
Q 39.65625 6.390625 43.53125 10.953125 
Q 47.40625 15.53125 47.40625 23.390625 
Q 47.40625 31.296875 43.53125 35.828125 
Q 39.65625 40.375 33.015625 40.375 
z
M 52.59375 71.296875 
L 52.59375 62.3125 
Q 48.875 64.0625 45.09375 64.984375 
Q 41.3125 65.921875 37.59375 65.921875 
Q 27.828125 65.921875 22.671875 59.328125 
Q 17.53125 52.734375 16.796875 39.40625 
Q 19.671875 43.65625 24.015625 45.921875 
Q 28.375 48.1875 33.59375 48.1875 
Q 44.578125 48.1875 50.953125 41.515625 
Q 57.328125 34.859375 57.328125 23.390625 
Q 57.328125 12.15625 50.6875 5.359375 
Q 44.046875 -1.421875 33.015625 -1.421875 
Q 20.359375 -1.421875 13.671875 8.265625 
Q 6.984375 17.96875 6.984375 36.375 
Q 6.984375 53.65625 15.1875 63.9375 
Q 23.390625 74.21875 37.203125 74.21875 
Q 40.921875 74.21875 44.703125 73.484375 
Q 48.484375 72.75 52.59375 71.296875 
z
" id="DejaVuSans-54"/>
       </defs>
       <use xlink:href="#DejaVuSans-54"/>
      </g>
     </g>
    </g>
    <g id="xtick_5">
     <g id="line2d_9">
      <path clip-path="url(#pa5a5cbc9f0)" d="M 97.755429 298.944 
L 97.755429 3.456 
" style="fill:none;stroke:#b0b0b0;stroke-linecap:square;stroke-width:0.8;"/>
     </g>
     <g id="line2d_10">
      <defs>
       <path d="M 0 0 
L 0 2 
" id="m56678ad40f" style="stroke:#000000;stroke-width:0.6;"/>
      </defs>
      <g>
       <use style="stroke:#000000;stroke-width:0.6;" x="97.755429" xlink:href="#m56678ad40f" y="298.944"/>
      </g>
     </g>
    </g>
    <g id="xtick_6">
     <g id="line2d_11">
      <path clip-path="url(#pa5a5cbc9f0)" d="M 178.066286 298.944 
L 178.066286 3.456 
" style="fill:none;stroke:#b0b0b0;stroke-linecap:square;stroke-width:0.8;"/>
     </g>
     <g id="line2d_12">
      <g>
       <use style="stroke:#000000;stroke-width:0.6;" x="178.066286" xlink:href="#m56678ad40f" y="298.944"/>
      </g>
     </g>
    </g>
    <g id="xtick_7">
     <g id="line2d_13">
      <path clip-path="url(#pa5a5cbc9f0)" d="M 258.377143 298.944 
L 258.377143 3.456 
" style="fill:none;stroke:#b0b0b0;stroke-linecap:square;stroke-width:0.8;"/>
     </g>
     <g id="line2d_14">
      <g>
       <use style="stroke:#000000;stroke-width:0.6;" x="258.377143" xlink:href="#m56678ad40f" y="298.944"/>
      </g>
     </g>
    </g>
    <g id="xtick_8">
     <g id="line2d_15">
      <path clip-path="url(#pa5a5cbc9f0)" d="M 338.688 298.944 
L 338.688 3.456 
" style="fill:none;stroke:#b0b0b0;stroke-linecap:square;stroke-width:0.8;"/>
     </g>
     <g id="line2d_16">
      <g>
       <use style="stroke:#000000;stroke-width:0.6;" x="338.688" xlink:href="#m56678ad40f" y="298.944"/>
      </g>
     </g>
    </g>
    <g id="text_5">
     <!-- log10(# f-evals / dimension) -->
     <g transform="translate(77.764078 342.217594)scale(0.17 -0.17)">
      <defs>
       <path d="M 9.421875 75.984375 
L 18.40625 75.984375 
L 18.40625 0 
L 9.421875 0 
z
" id="DejaVuSans-108"/>
       <path d="M 30.609375 48.390625 
Q 23.390625 48.390625 19.1875 42.75 
Q 14.984375 37.109375 14.984375 27.296875 
Q 14.984375 17.484375 19.15625 11.84375 
Q 23.34375 6.203125 30.609375 6.203125 
Q 37.796875 6.203125 41.984375 11.859375 
Q 46.1875 17.53125 46.1875 27.296875 
Q 46.1875 37.015625 41.984375 42.703125 
Q 37.796875 48.390625 30.609375 48.390625 
z
M 30.609375 56 
Q 42.328125 56 49.015625 48.375 
Q 55.71875 40.765625 55.71875 27.296875 
Q 55.71875 13.875 49.015625 6.21875 
Q 42.328125 -1.421875 30.609375 -1.421875 
Q 18.84375 -1.421875 12.171875 6.21875 
Q 5.515625 13.875 5.515625 27.296875 
Q 5.515625 40.765625 12.171875 48.375 
Q 18.84375 56 30.609375 56 
z
" id="DejaVuSans-111"/>
       <path d="M 45.40625 27.984375 
Q 45.40625 37.75 41.375 43.109375 
Q 37.359375 48.484375 30.078125 48.484375 
Q 22.859375 48.484375 18.828125 43.109375 
Q 14.796875 37.75 14.796875 27.984375 
Q 14.796875 18.265625 18.828125 12.890625 
Q 22.859375 7.515625 30.078125 7.515625 
Q 37.359375 7.515625 41.375 12.890625 
Q 45.40625 18.265625 45.40625 27.984375 
z
M 54.390625 6.78125 
Q 54.390625 -7.171875 48.1875 -13.984375 
Q 42 -20.796875 29.203125 -20.796875 
Q 24.46875 -20.796875 20.265625 -20.09375 
Q 16.0625 -19.390625 12.109375 -17.921875 
L 12.109375 -9.1875 
Q 16.0625 -11.328125 19.921875 -12.34375 
Q 23.78125 -13.375 27.78125 -13.375 
Q 36.625 -13.375 41.015625 -8.765625 
Q 45.40625 -4.15625 45.40625 5.171875 
L 45.40625 9.625 
Q 42.625 4.78125 38.28125 2.390625 
Q 33.9375 0 27.875 0 
Q 17.828125 0 11.671875 7.65625 
Q 5.515625 15.328125 5.515625 27.984375 
Q 5.515625 40.671875 11.671875 48.328125 
Q 17.828125 56 27.875 56 
Q 33.9375 56 38.28125 53.609375 
Q 42.625 51.21875 45.40625 46.390625 
L 45.40625 54.6875 
L 54.390625 54.6875 
z
" id="DejaVuSans-103"/>
       <path d="M 12.40625 8.296875 
L 28.515625 8.296875 
L 28.515625 63.921875 
L 10.984375 60.40625 
L 10.984375 69.390625 
L 28.421875 72.90625 
L 38.28125 72.90625 
L 38.28125 8.296875 
L 54.390625 8.296875 
L 54.390625 0 
L 12.40625 0 
z
" id="DejaVuSans-49"/>
       <path d="M 31 75.875 
Q 24.46875 64.65625 21.28125 53.65625 
Q 18.109375 42.671875 18.109375 31.390625 
Q 18.109375 20.125 21.3125 9.0625 
Q 24.515625 -2 31 -13.1875 
L 23.1875 -13.1875 
Q 15.875 -1.703125 12.234375 9.375 
Q 8.59375 20.453125 8.59375 31.390625 
Q 8.59375 42.28125 12.203125 53.3125 
Q 15.828125 64.359375 23.1875 75.875 
z
" id="DejaVuSans-40"/>
       <path d="M 51.125 44 
L 36.921875 44 
L 32.8125 27.6875 
L 47.125 27.6875 
z
M 43.796875 71.78125 
L 38.71875 51.515625 
L 52.984375 51.515625 
L 58.109375 71.78125 
L 65.921875 71.78125 
L 60.890625 51.515625 
L 76.125 51.515625 
L 76.125 44 
L 58.984375 44 
L 54.984375 27.6875 
L 70.515625 27.6875 
L 70.515625 20.21875 
L 53.078125 20.21875 
L 48 0 
L 40.1875 0 
L 45.21875 20.21875 
L 30.90625 20.21875 
L 25.875 0 
L 18.015625 0 
L 23.09375 20.21875 
L 7.71875 20.21875 
L 7.71875 27.6875 
L 24.90625 27.6875 
L 29 44 
L 13.28125 44 
L 13.28125 51.515625 
L 30.90625 51.515625 
L 35.890625 71.78125 
z
" id="DejaVuSans-35"/>
       <path id="DejaVuSans-32"/>
       <path d="M 37.109375 75.984375 
L 37.109375 68.5 
L 28.515625 68.5 
Q 23.6875 68.5 21.796875 66.546875 
Q 19.921875 64.59375 19.921875 59.515625 
L 19.921875 54.6875 
L 34.71875 54.6875 
L 34.71875 47.703125 
L 19.921875 47.703125 
L 19.921875 0 
L 10.890625 0 
L 10.890625 47.703125 
L 2.296875 47.703125 
L 2.296875 54.6875 
L 10.890625 54.6875 
L 10.890625 58.5 
Q 10.890625 67.625 15.140625 71.796875 
Q 19.390625 75.984375 28.609375 75.984375 
z
" id="DejaVuSans-102"/>
       <path d="M 4.890625 31.390625 
L 31.203125 31.390625 
L 31.203125 23.390625 
L 4.890625 23.390625 
z
" id="DejaVuSans-45"/>
       <path d="M 56.203125 29.59375 
L 56.203125 25.203125 
L 14.890625 25.203125 
Q 15.484375 15.921875 20.484375 11.0625 
Q 25.484375 6.203125 34.421875 6.203125 
Q 39.59375 6.203125 44.453125 7.46875 
Q 49.3125 8.734375 54.109375 11.28125 
L 54.109375 2.78125 
Q 49.265625 0.734375 44.1875 -0.34375 
Q 39.109375 -1.421875 33.890625 -1.421875 
Q 20.796875 -1.421875 13.15625 6.1875 
Q 5.515625 13.8125 5.515625 26.8125 
Q 5.515625 40.234375 12.765625 48.109375 
Q 20.015625 56 32.328125 56 
Q 43.359375 56 49.78125 48.890625 
Q 56.203125 41.796875 56.203125 29.59375 
z
M 47.21875 32.234375 
Q 47.125 39.59375 43.09375 43.984375 
Q 39.0625 48.390625 32.421875 48.390625 
Q 24.90625 48.390625 20.390625 44.140625 
Q 15.875 39.890625 15.1875 32.171875 
z
" id="DejaVuSans-101"/>
       <path d="M 2.984375 54.6875 
L 12.5 54.6875 
L 29.59375 8.796875 
L 46.6875 54.6875 
L 56.203125 54.6875 
L 35.6875 0 
L 23.484375 0 
z
" id="DejaVuSans-118"/>
       <path d="M 34.28125 27.484375 
Q 23.390625 27.484375 19.1875 25 
Q 14.984375 22.515625 14.984375 16.5 
Q 14.984375 11.71875 18.140625 8.90625 
Q 21.296875 6.109375 26.703125 6.109375 
Q 34.1875 6.109375 38.703125 11.40625 
Q 43.21875 16.703125 43.21875 25.484375 
L 43.21875 27.484375 
z
M 52.203125 31.203125 
L 52.203125 0 
L 43.21875 0 
L 43.21875 8.296875 
Q 40.140625 3.328125 35.546875 0.953125 
Q 30.953125 -1.421875 24.3125 -1.421875 
Q 15.921875 -1.421875 10.953125 3.296875 
Q 6 8.015625 6 15.921875 
Q 6 25.140625 12.171875 29.828125 
Q 18.359375 34.515625 30.609375 34.515625 
L 43.21875 34.515625 
L 43.21875 35.40625 
Q 43.21875 41.609375 39.140625 45 
Q 35.0625 48.390625 27.6875 48.390625 
Q 23 48.390625 18.546875 47.265625 
Q 14.109375 46.140625 10.015625 43.890625 
L 10.015625 52.203125 
Q 14.9375 54.109375 19.578125 55.046875 
Q 24.21875 56 28.609375 56 
Q 40.484375 56 46.34375 49.84375 
Q 52.203125 43.703125 52.203125 31.203125 
z
" id="DejaVuSans-97"/>
       <path d="M 44.28125 53.078125 
L 44.28125 44.578125 
Q 40.484375 46.53125 36.375 47.5 
Q 32.28125 48.484375 27.875 48.484375 
Q 21.1875 48.484375 17.84375 46.4375 
Q 14.5 44.390625 14.5 40.28125 
Q 14.5 37.15625 16.890625 35.375 
Q 19.28125 33.59375 26.515625 31.984375 
L 29.59375 31.296875 
Q 39.15625 29.25 43.1875 25.515625 
Q 47.21875 21.78125 47.21875 15.09375 
Q 47.21875 7.46875 41.1875 3.015625 
Q 35.15625 -1.421875 24.609375 -1.421875 
Q 20.21875 -1.421875 15.453125 -0.5625 
Q 10.6875 0.296875 5.421875 2 
L 5.421875 11.28125 
Q 10.40625 8.6875 15.234375 7.390625 
Q 20.0625 6.109375 24.8125 6.109375 
Q 31.15625 6.109375 34.5625 8.28125 
Q 37.984375 10.453125 37.984375 14.40625 
Q 37.984375 18.0625 35.515625 20.015625 
Q 33.0625 21.96875 24.703125 23.78125 
L 21.578125 24.515625 
Q 13.234375 26.265625 9.515625 29.90625 
Q 5.8125 33.546875 5.8125 39.890625 
Q 5.8125 47.609375 11.28125 51.796875 
Q 16.75 56 26.8125 56 
Q 31.78125 56 36.171875 55.265625 
Q 40.578125 54.546875 44.28125 53.078125 
z
" id="DejaVuSans-115"/>
       <path d="M 25.390625 72.90625 
L 33.6875 72.90625 
L 8.296875 -9.28125 
L 0 -9.28125 
z
" id="DejaVuSans-47"/>
       <path d="M 45.40625 46.390625 
L 45.40625 75.984375 
L 54.390625 75.984375 
L 54.390625 0 
L 45.40625 0 
L 45.40625 8.203125 
Q 42.578125 3.328125 38.25 0.953125 
Q 33.9375 -1.421875 27.875 -1.421875 
Q 17.96875 -1.421875 11.734375 6.484375 
Q 5.515625 14.40625 5.515625 27.296875 
Q 5.515625 40.1875 11.734375 48.09375 
Q 17.96875 56 27.875 56 
Q 33.9375 56 38.25 53.625 
Q 42.578125 51.265625 45.40625 46.390625 
z
M 14.796875 27.296875 
Q 14.796875 17.390625 18.875 11.75 
Q 22.953125 6.109375 30.078125 6.109375 
Q 37.203125 6.109375 41.296875 11.75 
Q 45.40625 17.390625 45.40625 27.296875 
Q 45.40625 37.203125 41.296875 42.84375 
Q 37.203125 48.484375 30.078125 48.484375 
Q 22.953125 48.484375 18.875 42.84375 
Q 14.796875 37.203125 14.796875 27.296875 
z
" id="DejaVuSans-100"/>
       <path d="M 9.421875 54.6875 
L 18.40625 54.6875 
L 18.40625 0 
L 9.421875 0 
z
M 9.421875 75.984375 
L 18.40625 75.984375 
L 18.40625 64.59375 
L 9.421875 64.59375 
z
" id="DejaVuSans-105"/>
       <path d="M 52 44.1875 
Q 55.375 50.25 60.0625 53.125 
Q 64.75 56 71.09375 56 
Q 79.640625 56 84.28125 50.015625 
Q 88.921875 44.046875 88.921875 33.015625 
L 88.921875 0 
L 79.890625 0 
L 79.890625 32.71875 
Q 79.890625 40.578125 77.09375 44.375 
Q 74.3125 48.1875 68.609375 48.1875 
Q 61.625 48.1875 57.5625 43.546875 
Q 53.515625 38.921875 53.515625 30.90625 
L 53.515625 0 
L 44.484375 0 
L 44.484375 32.71875 
Q 44.484375 40.625 41.703125 44.40625 
Q 38.921875 48.1875 33.109375 48.1875 
Q 26.21875 48.1875 22.15625 43.53125 
Q 18.109375 38.875 18.109375 30.90625 
L 18.109375 0 
L 9.078125 0 
L 9.078125 54.6875 
L 18.109375 54.6875 
L 18.109375 46.1875 
Q 21.1875 51.21875 25.484375 53.609375 
Q 29.78125 56 35.6875 56 
Q 41.65625 56 45.828125 52.96875 
Q 50 49.953125 52 44.1875 
z
" id="DejaVuSans-109"/>
       <path d="M 54.890625 33.015625 
L 54.890625 0 
L 45.90625 0 
L 45.90625 32.71875 
Q 45.90625 40.484375 42.875 44.328125 
Q 39.84375 48.1875 33.796875 48.1875 
Q 26.515625 48.1875 22.3125 43.546875 
Q 18.109375 38.921875 18.109375 30.90625 
L 18.109375 0 
L 9.078125 0 
L 9.078125 54.6875 
L 18.109375 54.6875 
L 18.109375 46.1875 
Q 21.34375 51.125 25.703125 53.5625 
Q 30.078125 56 35.796875 56 
Q 45.21875 56 50.046875 50.171875 
Q 54.890625 44.34375 54.890625 33.015625 
z
" id="DejaVuSans-110"/>
       <path d="M 8.015625 75.875 
L 15.828125 75.875 
Q 23.140625 64.359375 26.78125 53.3125 
Q 30.421875 42.28125 30.421875 31.390625 
Q 30.421875 20.453125 26.78125 9.375 
Q 23.140625 -1.703125 15.828125 -13.1875 
L 8.015625 -13.1875 
Q 14.5 -2 17.703125 9.0625 
Q 20.90625 20.125 20.90625 31.390625 
Q 20.90625 42.671875 17.703125 53.65625 
Q 14.5 64.65625 8.015625 75.875 
z
" id="DejaVuSans-41"/>
      </defs>
      <use xlink:href="#DejaVuSans-108"/>
      <use x="27.783203" xlink:href="#DejaVuSans-111"/>
      <use x="88.964844" xlink:href="#DejaVuSans-103"/>
      <use x="152.441406" xlink:href="#DejaVuSans-49"/>
      <use x="216.064453" xlink:href="#DejaVuSans-48"/>
      <use x="279.6875" xlink:href="#DejaVuSans-40"/>
      <use x="318.701172" xlink:href="#DejaVuSans-35"/>
      <use x="402.490234" xlink:href="#DejaVuSans-32"/>
      <use x="434.277344" xlink:href="#DejaVuSans-102"/>
      <use x="463.982422" xlink:href="#DejaVuSans-45"/>
      <use x="500.066406" xlink:href="#DejaVuSans-101"/>
      <use x="561.589844" xlink:href="#DejaVuSans-118"/>
      <use x="620.769531" xlink:href="#DejaVuSans-97"/>
      <use x="682.048828" xlink:href="#DejaVuSans-108"/>
      <use x="709.832031" xlink:href="#DejaVuSans-115"/>
      <use x="761.931641" xlink:href="#DejaVuSans-32"/>
      <use x="793.71875" xlink:href="#DejaVuSans-47"/>
      <use x="827.410156" xlink:href="#DejaVuSans-32"/>
      <use x="859.197266" xlink:href="#DejaVuSans-100"/>
      <use x="922.673828" xlink:href="#DejaVuSans-105"/>
      <use x="950.457031" xlink:href="#DejaVuSans-109"/>
      <use x="1047.869141" xlink:href="#DejaVuSans-101"/>
      <use x="1109.392578" xlink:href="#DejaVuSans-110"/>
      <use x="1172.771484" xlink:href="#DejaVuSans-115"/>
      <use x="1224.871094" xlink:href="#DejaVuSans-105"/>
      <use x="1252.654297" xlink:href="#DejaVuSans-111"/>
      <use x="1313.835938" xlink:href="#DejaVuSans-110"/>
      <use x="1377.214844" xlink:href="#DejaVuSans-41"/>
     </g>
    </g>
   </g>
   <g id="matplotlib.axis_2">
    <g id="ytick_1">
     <g id="line2d_17">
      <path clip-path="url(#pa5a5cbc9f0)" d="M 57.6 298.944 
L 338.688 298.944 
" style="fill:none;stroke:#b0b0b0;stroke-linecap:square;stroke-width:0.8;"/>
     </g>
     <g id="line2d_18">
      <defs>
       <path d="M 0 0 
L -3.5 0 
" id="m60dd56c6fc" style="stroke:#000000;stroke-width:0.8;"/>
      </defs>
      <g>
       <use style="stroke:#000000;stroke-width:0.8;" x="57.6" xlink:href="#m60dd56c6fc" y="298.944"/>
      </g>
     </g>
     <g id="text_6">
      <!-- 0.0 -->
      <g transform="translate(25.155 305.02275)scale(0.16 -0.16)">
       <defs>
        <path d="M 10.6875 12.40625 
L 21 12.40625 
L 21 0 
L 10.6875 0 
z
" id="DejaVuSans-46"/>
       </defs>
       <use xlink:href="#DejaVuSans-48"/>
       <use x="63.623047" xlink:href="#DejaVuSans-46"/>
       <use x="95.410156" xlink:href="#DejaVuSans-48"/>
      </g>
     </g>
    </g>
    <g id="ytick_2">
     <g id="line2d_19">
      <path clip-path="url(#pa5a5cbc9f0)" d="M 57.6 240.431525 
L 338.688 240.431525 
" style="fill:none;stroke:#b0b0b0;stroke-linecap:square;stroke-width:0.8;"/>
     </g>
     <g id="line2d_20">
      <g>
       <use style="stroke:#000000;stroke-width:0.8;" x="57.6" xlink:href="#m60dd56c6fc" y="240.431525"/>
      </g>
     </g>
     <g id="text_7">
      <!-- 0.2 -->
      <g transform="translate(25.155 246.510275)scale(0.16 -0.16)">
       <use xlink:href="#DejaVuSans-48"/>
       <use x="63.623047" xlink:href="#DejaVuSans-46"/>
       <use x="95.410156" xlink:href="#DejaVuSans-50"/>
      </g>
     </g>
    </g>
    <g id="ytick_3">
     <g id="line2d_21">
      <path clip-path="url(#pa5a5cbc9f0)" d="M 57.6 181.91905 
L 338.688 181.91905 
" style="fill:none;stroke:#b0b0b0;stroke-linecap:square;stroke-width:0.8;"/>
     </g>
     <g id="line2d_22">
      <g>
       <use style="stroke:#000000;stroke-width:0.8;" x="57.6" xlink:href="#m60dd56c6fc" y="181.91905"/>
      </g>
     </g>
     <g id="text_8">
      <!-- 0.4 -->
      <g transform="translate(25.155 187.9978)scale(0.16 -0.16)">
       <use xlink:href="#DejaVuSans-48"/>
       <use x="63.623047" xlink:href="#DejaVuSans-46"/>
       <use x="95.410156" xlink:href="#DejaVuSans-52"/>
      </g>
     </g>
    </g>
    <g id="ytick_4">
     <g id="line2d_23">
      <path clip-path="url(#pa5a5cbc9f0)" d="M 57.6 123.406574 
L 338.688 123.406574 
" style="fill:none;stroke:#b0b0b0;stroke-linecap:square;stroke-width:0.8;"/>
     </g>
     <g id="line2d_24">
      <g>
       <use style="stroke:#000000;stroke-width:0.8;" x="57.6" xlink:href="#m60dd56c6fc" y="123.406574"/>
      </g>
     </g>
     <g id="text_9">
      <!-- 0.6 -->
      <g transform="translate(25.155 129.485324)scale(0.16 -0.16)">
       <use xlink:href="#DejaVuSans-48"/>
       <use x="63.623047" xlink:href="#DejaVuSans-46"/>
       <use x="95.410156" xlink:href="#DejaVuSans-54"/>
      </g>
     </g>
    </g>
    <g id="ytick_5">
     <g id="line2d_25">
      <path clip-path="url(#pa5a5cbc9f0)" d="M 57.6 64.894099 
L 338.688 64.894099 
" style="fill:none;stroke:#b0b0b0;stroke-linecap:square;stroke-width:0.8;"/>
     </g>
     <g id="line2d_26">
      <g>
       <use style="stroke:#000000;stroke-width:0.8;" x="57.6" xlink:href="#m60dd56c6fc" y="64.894099"/>
      </g>
     </g>
     <g id="text_10">
      <!-- 0.8 -->
      <g transform="translate(25.155 70.972849)scale(0.16 -0.16)">
       <defs>
        <path d="M 31.78125 34.625 
Q 24.75 34.625 20.71875 30.859375 
Q 16.703125 27.09375 16.703125 20.515625 
Q 16.703125 13.921875 20.71875 10.15625 
Q 24.75 6.390625 31.78125 6.390625 
Q 38.8125 6.390625 42.859375 10.171875 
Q 46.921875 13.96875 46.921875 20.515625 
Q 46.921875 27.09375 42.890625 30.859375 
Q 38.875 34.625 31.78125 34.625 
z
M 21.921875 38.8125 
Q 15.578125 40.375 12.03125 44.71875 
Q 8.5 49.078125 8.5 55.328125 
Q 8.5 64.0625 14.71875 69.140625 
Q 20.953125 74.21875 31.78125 74.21875 
Q 42.671875 74.21875 48.875 69.140625 
Q 55.078125 64.0625 55.078125 55.328125 
Q 55.078125 49.078125 51.53125 44.71875 
Q 48 40.375 41.703125 38.8125 
Q 48.828125 37.15625 52.796875 32.3125 
Q 56.78125 27.484375 56.78125 20.515625 
Q 56.78125 9.90625 50.3125 4.234375 
Q 43.84375 -1.421875 31.78125 -1.421875 
Q 19.734375 -1.421875 13.25 4.234375 
Q 6.78125 9.90625 6.78125 20.515625 
Q 6.78125 27.484375 10.78125 32.3125 
Q 14.796875 37.15625 21.921875 38.8125 
z
M 18.3125 54.390625 
Q 18.3125 48.734375 21.84375 45.5625 
Q 25.390625 42.390625 31.78125 42.390625 
Q 38.140625 42.390625 41.71875 45.5625 
Q 45.3125 48.734375 45.3125 54.390625 
Q 45.3125 60.0625 41.71875 63.234375 
Q 38.140625 66.40625 31.78125 66.40625 
Q 25.390625 66.40625 21.84375 63.234375 
Q 18.3125 60.0625 18.3125 54.390625 
z
" id="DejaVuSans-56"/>
       </defs>
       <use xlink:href="#DejaVuSans-48"/>
       <use x="63.623047" xlink:href="#DejaVuSans-46"/>
       <use x="95.410156" xlink:href="#DejaVuSans-56"/>
      </g>
     </g>
    </g>
    <g id="ytick_6">
     <g id="line2d_27">
      <path clip-path="url(#pa5a5cbc9f0)" d="M 57.6 6.381624 
L 338.688 6.381624 
" style="fill:none;stroke:#b0b0b0;stroke-linecap:square;stroke-width:0.8;"/>
     </g>
     <g id="line2d_28">
      <g>
       <use style="stroke:#000000;stroke-width:0.8;" x="57.6" xlink:href="#m60dd56c6fc" y="6.381624"/>
      </g>
     </g>
     <g id="text_11">
      <!-- 1.0 -->
      <g transform="translate(25.155 12.460374)scale(0.16 -0.16)">
       <use xlink:href="#DejaVuSans-49"/>
       <use x="63.623047" xlink:href="#DejaVuSans-46"/>
       <use x="95.410156" xlink:href="#DejaVuSans-48"/>
      </g>
     </g>
    </g>
    <g id="text_12">
     <!-- Fraction of function,target pairs -->
     <g transform="translate(17.619531 285.585)rotate(-90)scale(0.17 -0.17)">
      <defs>
       <path d="M 9.8125 72.90625 
L 51.703125 72.90625 
L 51.703125 64.59375 
L 19.671875 64.59375 
L 19.671875 43.109375 
L 48.578125 43.109375 
L 48.578125 34.8125 
L 19.671875 34.8125 
L 19.671875 0 
L 9.8125 0 
z
" id="DejaVuSans-70"/>
       <path d="M 41.109375 46.296875 
Q 39.59375 47.171875 37.8125 47.578125 
Q 36.03125 48 33.890625 48 
Q 26.265625 48 22.1875 43.046875 
Q 18.109375 38.09375 18.109375 28.8125 
L 18.109375 0 
L 9.078125 0 
L 9.078125 54.6875 
L 18.109375 54.6875 
L 18.109375 46.1875 
Q 20.953125 51.171875 25.484375 53.578125 
Q 30.03125 56 36.53125 56 
Q 37.453125 56 38.578125 55.875 
Q 39.703125 55.765625 41.0625 55.515625 
z
" id="DejaVuSans-114"/>
       <path d="M 48.78125 52.59375 
L 48.78125 44.1875 
Q 44.96875 46.296875 41.140625 47.34375 
Q 37.3125 48.390625 33.40625 48.390625 
Q 24.65625 48.390625 19.8125 42.84375 
Q 14.984375 37.3125 14.984375 27.296875 
Q 14.984375 17.28125 19.8125 11.734375 
Q 24.65625 6.203125 33.40625 6.203125 
Q 37.3125 6.203125 41.140625 7.25 
Q 44.96875 8.296875 48.78125 10.40625 
L 48.78125 2.09375 
Q 45.015625 0.34375 40.984375 -0.53125 
Q 36.96875 -1.421875 32.421875 -1.421875 
Q 20.0625 -1.421875 12.78125 6.34375 
Q 5.515625 14.109375 5.515625 27.296875 
Q 5.515625 40.671875 12.859375 48.328125 
Q 20.21875 56 33.015625 56 
Q 37.15625 56 41.109375 55.140625 
Q 45.0625 54.296875 48.78125 52.59375 
z
" id="DejaVuSans-99"/>
       <path d="M 18.3125 70.21875 
L 18.3125 54.6875 
L 36.8125 54.6875 
L 36.8125 47.703125 
L 18.3125 47.703125 
L 18.3125 18.015625 
Q 18.3125 11.328125 20.140625 9.421875 
Q 21.96875 7.515625 27.59375 7.515625 
L 36.8125 7.515625 
L 36.8125 0 
L 27.59375 0 
Q 17.1875 0 13.234375 3.875 
Q 9.28125 7.765625 9.28125 18.015625 
L 9.28125 47.703125 
L 2.6875 47.703125 
L 2.6875 54.6875 
L 9.28125 54.6875 
L 9.28125 70.21875 
z
" id="DejaVuSans-116"/>
       <path d="M 8.5 21.578125 
L 8.5 54.6875 
L 17.484375 54.6875 
L 17.484375 21.921875 
Q 17.484375 14.15625 20.5 10.265625 
Q 23.53125 6.390625 29.59375 6.390625 
Q 36.859375 6.390625 41.078125 11.03125 
Q 45.3125 15.671875 45.3125 23.6875 
L 45.3125 54.6875 
L 54.296875 54.6875 
L 54.296875 0 
L 45.3125 0 
L 45.3125 8.40625 
Q 42.046875 3.421875 37.71875 1 
Q 33.40625 -1.421875 27.6875 -1.421875 
Q 18.265625 -1.421875 13.375 4.4375 
Q 8.5 10.296875 8.5 21.578125 
z
M 31.109375 56 
z
" id="DejaVuSans-117"/>
       <path d="M 11.71875 12.40625 
L 22.015625 12.40625 
L 22.015625 4 
L 14.015625 -11.625 
L 7.71875 -11.625 
L 11.71875 4 
z
" id="DejaVuSans-44"/>
       <path d="M 18.109375 8.203125 
L 18.109375 -20.796875 
L 9.078125 -20.796875 
L 9.078125 54.6875 
L 18.109375 54.6875 
L 18.109375 46.390625 
Q 20.953125 51.265625 25.265625 53.625 
Q 29.59375 56 35.59375 56 
Q 45.5625 56 51.78125 48.09375 
Q 58.015625 40.1875 58.015625 27.296875 
Q 58.015625 14.40625 51.78125 6.484375 
Q 45.5625 -1.421875 35.59375 -1.421875 
Q 29.59375 -1.421875 25.265625 0.953125 
Q 20.953125 3.328125 18.109375 8.203125 
z
M 48.6875 27.296875 
Q 48.6875 37.203125 44.609375 42.84375 
Q 40.53125 48.484375 33.40625 48.484375 
Q 26.265625 48.484375 22.1875 42.84375 
Q 18.109375 37.203125 18.109375 27.296875 
Q 18.109375 17.390625 22.1875 11.75 
Q 26.265625 6.109375 33.40625 6.109375 
Q 40.53125 6.109375 44.609375 11.75 
Q 48.6875 17.390625 48.6875 27.296875 
z
" id="DejaVuSans-112"/>
      </defs>
      <use xlink:href="#DejaVuSans-70"/>
      <use x="50.269531" xlink:href="#DejaVuSans-114"/>
      <use x="91.382812" xlink:href="#DejaVuSans-97"/>
      <use x="152.662109" xlink:href="#DejaVuSans-99"/>
      <use x="207.642578" xlink:href="#DejaVuSans-116"/>
      <use x="246.851562" xlink:href="#DejaVuSans-105"/>
      <use x="274.634766" xlink:href="#DejaVuSans-111"/>
      <use x="335.816406" xlink:href="#DejaVuSans-110"/>
      <use x="399.195312" xlink:href="#DejaVuSans-32"/>
      <use x="430.982422" xlink:href="#DejaVuSans-111"/>
      <use x="492.164062" xlink:href="#DejaVuSans-102"/>
      <use x="527.369141" xlink:href="#DejaVuSans-32"/>
      <use x="559.15625" xlink:href="#DejaVuSans-102"/>
      <use x="594.361328" xlink:href="#DejaVuSans-117"/>
      <use x="657.740234" xlink:href="#DejaVuSans-110"/>
      <use x="721.119141" xlink:href="#DejaVuSans-99"/>
      <use x="776.099609" xlink:href="#DejaVuSans-116"/>
      <use x="815.308594" xlink:href="#DejaVuSans-105"/>
      <use x="843.091797" xlink:href="#DejaVuSans-111"/>
      <use x="904.273438" xlink:href="#DejaVuSans-110"/>
      <use x="967.652344" xlink:href="#DejaVuSans-44"/>
      <use x="999.439453" xlink:href="#DejaVuSans-116"/>
      <use x="1038.648438" xlink:href="#DejaVuSans-97"/>
      <use x="1099.927734" xlink:href="#DejaVuSans-114"/>
      <use x="1139.291016" xlink:href="#DejaVuSans-103"/>
      <use x="1202.767578" xlink:href="#DejaVuSans-101"/>
      <use x="1264.291016" xlink:href="#DejaVuSans-116"/>
      <use x="1303.5" xlink:href="#DejaVuSans-32"/>
      <use x="1335.287109" xlink:href="#DejaVuSans-112"/>
      <use x="1398.763672" xlink:href="#DejaVuSans-97"/>
      <use x="1460.042969" xlink:href="#DejaVuSans-105"/>
      <use x="1487.826172" xlink:href="#DejaVuSans-114"/>
      <use x="1528.939453" xlink:href="#DejaVuSans-115"/>
     </g>
    </g>
   </g>
   <g id="line2d_29">
    <defs>
     <path d="M 0 1.5 
C 0.397805 1.5 0.77937 1.341951 1.06066 1.06066 
C 1.341951 0.77937 1.5 0.397805 1.5 0 
C 1.5 -0.397805 1.341951 -0.77937 1.06066 -1.06066 
C 0.77937 -1.341951 0.397805 -1.5 0 -1.5 
C -0.397805 -1.5 -0.77937 -1.341951 -1.06066 -1.06066 
C -1.341951 -0.77937 -1.5 -0.397805 -1.5 0 
C -1.5 0.397805 -1.341951 0.77937 -1.06066 1.06066 
C -0.77937 1.341951 -0.397805 1.5 0 1.5 
z
" id="m8f05f994ef" style="stroke:#000080;"/>
    </defs>
    <g>
     <use style="fill:#000080;stroke:#000080;" x="156.98245" xlink:href="#m8f05f994ef" y="6.381624"/>
     <use style="fill:#000080;stroke:#000080;" x="156.98245" xlink:href="#m8f05f994ef" y="6.381624"/>
    </g>
   </g>
   <g id="line2d_30">
    <path d="M 96.86091 298.944 
L 96.86091 297.796697 
L 97.755429 297.796697 
L 97.755429 296.075741 
L 102.330873 296.075741 
L 102.330873 295.50209 
L 107.514726 295.50209 
L 107.514726 294.928438 
L 109.843417 294.928438 
L 109.843417 291.486528 
L 110.694282 291.486528 
L 110.694282 289.765573 
L 111.897469 289.765573 
L 111.897469 287.470966 
L 112.280765 287.470966 
L 112.280765 286.897314 
L 112.655818 286.897314 
L 112.655818 284.029055 
L 113.022974 284.029055 
L 113.022974 280.587145 
L 113.382559 280.587145 
L 113.382559 277.718886 
L 113.73488 277.718886 
L 113.73488 277.145235 
L 114.751048 277.145235 
L 114.751048 276.571583 
L 115.397021 276.571583 
L 115.397021 271.982369 
L 115.711251 271.982369 
L 115.711251 267.966807 
L 116.019919 267.966807 
L 116.019919 264.524897 
L 116.323218 264.524897 
L 116.323218 262.23029 
L 116.621333 262.23029 
L 116.621333 260.509335 
L 116.914437 260.509335 
L 116.914437 259.935683 
L 117.202696 259.935683 
L 117.202696 258.214728 
L 117.765302 258.214728 
L 117.765302 257.641076 
L 118.039942 257.641076 
L 118.039942 254.199166 
L 118.310324 254.199166 
L 118.310324 251.904559 
L 118.576578 251.904559 
L 118.576578 249.036301 
L 119.097192 249.036301 
L 119.097192 247.888997 
L 120.33454 247.888997 
L 120.33454 245.59439 
L 124.368753 245.59439 
L 124.368753 245.020738 
L 124.92835 245.020738 
L 124.92835 244.447087 
L 125.470548 244.447087 
L 125.470548 243.299783 
L 126.168212 243.299783 
L 126.168212 241.578828 
L 126.50685 241.578828 
L 126.50685 241.005176 
L 126.673734 241.005176 
L 126.673734 240.431525 
L 126.839037 240.431525 
L 126.839037 239.284221 
L 127.165014 239.284221 
L 127.165014 238.71057 
L 127.325746 238.71057 
L 127.325746 238.136918 
L 127.48501 238.136918 
L 127.48501 236.989614 
L 127.642832 236.989614 
L 127.642832 235.268659 
L 127.799239 235.268659 
L 127.799239 234.121356 
L 127.954256 234.121356 
L 127.954256 231.826749 
L 128.107907 231.826749 
L 128.107907 231.253097 
L 128.260216 231.253097 
L 128.260216 226.663884 
L 128.560901 226.663884 
L 128.560901 225.51658 
L 128.709321 225.51658 
L 128.709321 224.369277 
L 128.856489 224.369277 
L 128.856489 223.795625 
L 129.002426 223.795625 
L 129.002426 221.501018 
L 129.290685 221.501018 
L 129.290685 219.206411 
L 129.433047 219.206411 
L 129.433047 214.617197 
L 129.574256 214.617197 
L 129.574256 212.322591 
L 129.714332 212.322591 
L 129.714332 211.748939 
L 129.853291 211.748939 
L 129.853291 209.454332 
L 129.991152 209.454332 
L 129.991152 207.733377 
L 130.127931 207.733377 
L 130.127931 206.012422 
L 130.263646 206.012422 
L 130.263646 203.144163 
L 130.398313 203.144163 
L 130.398313 200.849556 
L 130.531948 200.849556 
L 130.531948 199.702253 
L 130.664567 199.702253 
L 130.664567 197.407646 
L 130.796184 197.407646 
L 130.796184 196.833994 
L 131.056477 196.833994 
L 131.056477 193.392084 
L 131.185181 193.392084 
L 131.185181 189.950174 
L 131.312942 189.950174 
L 131.312942 188.80287 
L 131.439773 188.80287 
L 131.439773 185.934612 
L 131.565689 185.934612 
L 131.565689 177.903487 
L 131.690703 177.903487 
L 131.690703 176.182532 
L 131.814826 176.182532 
L 131.814826 173.314274 
L 131.938072 173.314274 
L 131.938072 171.019667 
L 132.060454 171.019667 
L 132.060454 169.872363 
L 132.181982 169.872363 
L 132.181982 168.151408 
L 132.30267 168.151408 
L 132.30267 167.004105 
L 132.422528 167.004105 
L 132.422528 161.841239 
L 132.541568 161.841239 
L 132.541568 156.678374 
L 132.659801 156.678374 
L 132.659801 154.383767 
L 132.777237 154.383767 
L 132.777237 150.941857 
L 132.893889 150.941857 
L 132.893889 149.794553 
L 133.124876 149.794553 
L 133.124876 149.220902 
L 133.239232 149.220902 
L 133.239232 143.484384 
L 133.352844 143.484384 
L 133.352844 138.321519 
L 133.46572 138.321519 
L 133.46572 137.174215 
L 133.57787 137.174215 
L 133.57787 136.026912 
L 133.689303 136.026912 
L 133.800029 132.01135 
L 133.910056 132.01135 
L 134.019394 124.553878 
L 134.12805 124.553878 
L 134.236034 120.538316 
L 134.343353 120.538316 
L 134.450015 115.37545 
L 134.55603 115.37545 
L 134.661403 113.080843 
L 134.766144 113.080843 
L 134.870259 107.917978 
L 134.973757 107.917978 
L 135.076644 105.049719 
L 135.178927 105.049719 
L 135.280614 98.73955 
L 135.381712 98.73955 
L 135.482227 95.29764 
L 135.582166 95.29764 
L 135.582166 90.708426 
L 135.780341 90.708426 
L 135.780341 87.840168 
L 135.97629 87.840168 
L 135.97629 86.692864 
L 136.170062 86.692864 
L 136.170062 83.250954 
L 136.361705 83.250954 
L 136.361705 82.677302 
L 136.551264 82.677302 
L 136.551264 81.529999 
L 136.738785 81.529999 
L 136.738785 80.382695 
L 137.016339 80.382695 
L 137.016339 78.66174 
L 137.37967 78.66174 
L 137.469333 76.940785 
L 137.558536 76.940785 
L 137.558536 76.367133 
L 137.997836 76.367133 
L 137.997836 75.793482 
L 138.170504 75.793482 
L 138.256201 74.646178 
L 138.341479 74.646178 
L 138.426341 73.498875 
L 139.090775 73.498875 
L 139.172077 71.77792 
L 139.253002 71.77792 
L 139.333553 70.056964 
L 139.413734 70.056964 
L 139.413734 69.483313 
L 139.572998 69.483313 
L 139.652088 66.615054 
L 139.730821 66.615054 
L 139.730821 66.041402 
L 139.887228 66.041402 
L 139.887228 64.320447 
L 140.042245 64.320447 
L 140.042245 63.173144 
L 140.195896 63.173144 
L 140.272217 60.304885 
L 140.348205 60.304885 
L 140.423864 59.157582 
L 140.499195 59.157582 
L 140.574203 56.862975 
L 140.64889 56.862975 
L 140.64889 56.289323 
L 140.79731 56.289323 
L 140.871049 53.994716 
L 140.944478 53.994716 
L 141.017599 52.273761 
L 141.090414 52.273761 
L 141.162927 50.552806 
L 141.235139 50.552806 
L 141.307054 48.258199 
L 141.378673 48.258199 
L 141.45 45.389941 
L 141.521035 45.389941 
L 141.591783 44.242637 
L 141.662245 44.242637 
L 141.662245 43.668985 
L 141.80232 43.668985 
L 141.871938 41.94803 
L 141.941279 41.94803 
L 141.941279 40.227075 
L 142.07914 40.227075 
L 142.147664 38.50612 
L 142.283909 38.50612 
L 142.351634 36.785165 
L 142.419098 36.785165 
L 142.486301 35.637861 
L 142.553247 35.637861 
L 142.553247 34.490558 
L 142.686372 34.490558 
L 142.686372 33.916906 
L 142.818488 33.916906 
L 142.884173 32.769603 
L 142.949611 32.769603 
L 142.949611 32.195951 
L 143.079756 32.195951 
L 143.079756 31.048648 
L 143.208936 31.048648 
L 143.208936 30.474996 
L 143.590833 30.474996 
L 143.590833 29.327692 
L 143.902815 29.327692 
L 143.902815 28.754041 
L 144.087359 28.754041 
L 144.087359 28.180389 
L 144.688773 28.180389 
L 144.688773 27.606737 
L 145.497361 27.606737 
L 145.497361 27.033086 
L 145.609873 27.033086 
L 145.665858 25.885782 
L 145.832743 25.885782 
L 145.943118 24.164827 
L 146.107383 24.164827 
L 146.161795 23.017524 
L 146.270114 23.017524 
L 146.270114 21.87022 
L 146.484754 21.87022 
L 146.591092 20.149265 
L 146.696785 20.149265 
L 146.696785 19.575613 
L 146.958248 19.575613 
L 146.958248 19.001962 
L 147.164632 19.001962 
L 147.215849 17.854658 
L 147.570215 17.854658 
L 147.570215 17.281006 
L 148.209809 17.281006 
L 148.306159 16.133703 
L 148.733265 16.133703 
L 148.733265 15.560051 
L 148.966103 15.560051 
L 148.966103 14.9864 
L 149.60198 14.9864 
L 149.60198 14.412748 
L 150.301393 14.412748 
L 150.301393 13.839096 
L 150.429467 13.839096 
L 150.47195 12.691793 
L 150.808139 12.691793 
L 150.891184 10.970838 
L 151.936246 10.970838 
L 151.936246 10.397186 
L 153.537988 10.397186 
L 153.537988 9.823534 
L 153.890309 9.823534 
L 153.890309 9.249882 
L 154.201424 9.249882 
L 154.201424 8.676231 
L 155.83551 8.676231 
L 155.83551 8.102579 
L 156.478647 8.102579 
L 156.478647 7.528927 
L 156.687861 7.528927 
L 156.687861 6.955275 
L 156.98245 6.955275 
L 156.98245 6.381624 
L 338.688 6.381624 
L 338.688 6.381624 
" style="fill:none;stroke:#000080;stroke-linecap:square;stroke-width:1.5;"/>
   </g>
   <g id="line2d_31">
    <defs>
     <path d="M 0 6 
C 1.591219 6 3.117479 5.367802 4.242641 4.242641 
C 5.367802 3.117479 6 1.591219 6 0 
C 6 -1.591219 5.367802 -3.117479 4.242641 -4.242641 
C 3.117479 -5.367802 1.591219 -6 0 -6 
C -1.591219 -6 -3.117479 -5.367802 -4.242641 -4.242641 
C -5.367802 -3.117479 -6 -1.591219 -6 0 
C -6 1.591219 -5.367802 3.117479 -4.242641 4.242641 
C -3.117479 5.367802 -1.591219 6 0 6 
z
" id="m0d29b5384b" style="stroke:#000080;stroke-width:1.5;"/>
    </defs>
    <g>
     <use style="fill-opacity:0;stroke:#000080;stroke-width:1.5;" x="132.541568" xlink:href="#m0d29b5384b" y="156.678374"/>
     <use style="fill-opacity:0;stroke:#000080;stroke-width:1.5;" x="148.966103" xlink:href="#m0d29b5384b" y="14.9864"/>
     <use style="fill-opacity:0;stroke:#000080;stroke-width:1.5;" x="156.98245" xlink:href="#m0d29b5384b" y="6.381624"/>
     <use style="fill-opacity:0;stroke:#000080;stroke-width:1.5;" x="156.98245" xlink:href="#m0d29b5384b" y="6.381624"/>
     <use style="fill-opacity:0;stroke:#000080;stroke-width:1.5;" x="338.688" xlink:href="#m0d29b5384b" y="6.381624"/>
    </g>
   </g>
   <g id="line2d_32">
    <path style="fill:none;stroke:#000080;stroke-linecap:square;stroke-width:1.5;"/>
    <g/>
   </g>
   <g id="line2d_33">
    <path clip-path="url(#pa5a5cbc9f0)" d="M 123.593547 245.59439 
" style="fill:none;stroke:#000080;stroke-linecap:square;stroke-width:1.5;"/>
    <defs>
     <path d="M -12 12 
L 12 -12 
M -12 -12 
L 12 12 
" id="m47e91fa591" style="stroke:#000080;"/>
    </defs>
    <g clip-path="url(#pa5a5cbc9f0)">
     <use style="fill:#000080;stroke:#000080;" x="123.593547" xlink:href="#m47e91fa591" y="245.59439"/>
    </g>
   </g>
   <g id="line2d_34">
    <defs>
     <path d="M 0 1.5 
C 0.397805 1.5 0.77937 1.341951 1.06066 1.06066 
C 1.341951 0.77937 1.5 0.397805 1.5 0 
C 1.5 -0.397805 1.341951 -0.77937 1.06066 -1.06066 
C 0.77937 -1.341951 0.397805 -1.5 0 -1.5 
C -0.397805 -1.5 -0.77937 -1.341951 -1.06066 -1.06066 
C -1.341951 -0.77937 -1.5 -0.397805 -1.5 0 
C -1.5 0.397805 -1.341951 0.77937 -1.06066 1.06066 
C -0.77937 1.341951 -0.397805 1.5 0 1.5 
z
" id="me29b4407fa" style="stroke:#ff00ff;"/>
    </defs>
    <g>
     <use style="fill:#ff00ff;stroke:#ff00ff;" x="159.532469" xlink:href="#me29b4407fa" y="6.381624"/>
     <use style="fill:#ff00ff;stroke:#ff00ff;" x="159.532469" xlink:href="#me29b4407fa" y="6.381624"/>
    </g>
   </g>
   <g id="line2d_35">
    <path d="M 94.921215 298.944 
L 94.921215 298.370348 
L 95.918017 298.370348 
L 95.918017 297.796697 
L 96.86091 297.796697 
L 96.86091 296.075741 
L 101.646892 296.075741 
L 101.646892 295.50209 
L 106.48859 295.50209 
L 106.48859 292.633831 
L 110.694282 292.633831 
L 110.694282 288.618269 
L 111.104637 288.618269 
L 111.104637 286.323662 
L 111.897469 286.323662 
L 111.897469 284.602707 
L 112.280765 284.602707 
L 112.280765 284.029055 
L 113.022974 284.029055 
L 113.022974 283.455404 
L 113.73488 283.455404 
L 113.73488 281.160797 
L 114.418861 281.160797 
L 114.418861 280.013493 
L 114.751048 280.013493 
L 114.751048 278.86619 
L 115.397021 278.86619 
L 115.397021 276.571583 
L 115.711251 276.571583 
L 115.711251 275.997931 
L 116.019919 275.997931 
L 116.019919 267.393156 
L 116.323218 267.393156 
L 116.323218 262.23029 
L 116.621333 262.23029 
L 116.621333 259.935683 
L 117.202696 259.935683 
L 117.202696 258.214728 
L 117.486268 258.214728 
L 117.486268 255.920121 
L 117.765302 255.920121 
L 117.765302 255.346469 
L 118.039942 255.346469 
L 118.039942 253.051863 
L 118.576578 253.051863 
L 118.576578 251.330907 
L 119.097192 251.330907 
L 119.097192 250.757256 
L 119.351785 250.757256 
L 119.351785 250.183604 
L 119.602714 250.183604 
L 119.602714 249.609952 
L 119.850084 249.609952 
L 119.850084 249.036301 
L 121.036887 249.036301 
L 121.036887 248.462649 
L 125.996395 248.462649 
L 125.996395 247.888997 
L 126.168212 247.888997 
L 126.168212 247.315345 
L 126.338353 247.315345 
L 126.338353 246.741694 
L 126.50685 246.741694 
L 126.50685 246.168042 
L 126.673734 246.168042 
L 126.673734 245.020738 
L 127.002787 245.020738 
L 127.002787 244.447087 
L 127.165014 244.447087 
L 127.165014 243.299783 
L 127.325746 243.299783 
L 127.325746 242.15248 
L 127.48501 242.15248 
L 127.48501 241.578828 
L 127.642832 241.578828 
L 127.642832 239.857873 
L 127.954256 239.857873 
L 127.954256 236.989614 
L 128.107907 236.989614 
L 128.107907 236.415963 
L 128.260216 236.415963 
L 128.260216 235.842311 
L 128.411207 235.842311 
L 128.411207 233.547704 
L 128.560901 233.547704 
L 128.560901 228.384839 
L 128.709321 228.384839 
L 128.709321 226.663884 
L 128.856489 226.663884 
L 128.856489 225.51658 
L 129.002426 225.51658 
L 129.002426 223.221973 
L 129.147151 223.221973 
L 129.147151 222.648321 
L 129.290685 222.648321 
L 129.290685 216.911804 
L 129.433047 216.911804 
L 129.433047 214.043546 
L 129.574256 214.043546 
L 129.574256 211.748939 
L 129.714332 211.748939 
L 129.714332 210.601635 
L 129.853291 210.601635 
L 129.853291 209.454332 
L 129.991152 209.454332 
L 129.991152 208.307029 
L 130.127931 208.307029 
L 130.127931 207.159725 
L 130.263646 207.159725 
L 130.263646 203.144163 
L 130.398313 203.144163 
L 130.398313 201.423208 
L 130.531948 201.423208 
L 130.531948 196.260342 
L 130.664567 196.260342 
L 130.664567 193.392084 
L 130.796184 193.392084 
L 130.796184 184.787308 
L 131.056477 184.787308 
L 131.056477 181.345398 
L 131.185181 181.345398 
L 131.185181 180.198094 
L 131.312942 180.198094 
L 131.312942 177.329836 
L 131.439773 177.329836 
L 131.439773 176.756184 
L 131.565689 176.756184 
L 131.565689 172.16697 
L 131.690703 172.16697 
L 131.690703 171.593319 
L 131.814826 171.593319 
L 131.814826 166.430453 
L 131.938072 166.430453 
L 131.938072 165.28315 
L 132.060454 165.28315 
L 132.060454 164.135846 
L 132.181982 164.135846 
L 132.181982 160.120284 
L 132.30267 160.120284 
L 132.30267 157.252026 
L 132.422528 157.252026 
L 132.422528 155.53107 
L 132.541568 155.53107 
L 132.541568 154.957419 
L 132.659801 154.957419 
L 132.659801 150.941857 
L 132.777237 150.941857 
L 132.777237 149.220902 
L 132.893889 149.220902 
L 132.893889 146.926295 
L 133.009765 146.926295 
L 133.009765 144.058036 
L 133.124876 144.058036 
L 133.124876 142.910733 
L 133.239232 142.910733 
L 133.239232 136.600564 
L 133.352844 136.600564 
L 133.352844 132.585002 
L 133.46572 132.585002 
L 133.46572 131.437698 
L 133.57787 131.437698 
L 133.57787 129.716743 
L 133.800029 129.716743 
L 133.910056 122.259271 
L 134.019394 122.259271 
L 134.12805 111.93354 
L 134.236034 111.93354 
L 134.236034 107.917978 
L 134.450015 107.917978 
L 134.55603 105.049719 
L 134.661403 105.049719 
L 134.661403 103.902416 
L 134.870259 103.902416 
L 134.973757 97.018595 
L 135.178927 97.018595 
L 135.280614 92.429381 
L 135.381712 92.429381 
L 135.482227 87.266516 
L 135.582166 87.266516 
L 135.681535 85.545561 
L 135.780341 85.545561 
L 135.878591 83.824606 
L 136.073445 83.824606 
L 136.170062 80.382695 
L 136.266147 80.382695 
L 136.361705 76.940785 
L 136.456742 76.940785 
L 136.551264 75.21983 
L 137.289545 75.21983 
L 137.37967 74.072526 
L 137.469333 74.072526 
L 137.558536 72.351571 
L 137.823442 72.351571 
L 137.910857 71.204268 
L 138.084384 71.204268 
L 138.170504 68.909661 
L 138.256201 68.909661 
L 138.341479 67.188706 
L 138.426341 67.188706 
L 138.426341 66.615054 
L 138.594838 66.615054 
L 138.67848 64.320447 
L 138.84457 64.320447 
L 138.927025 61.452189 
L 139.009092 61.452189 
L 139.009092 60.304885 
L 139.413734 60.304885 
L 139.493548 58.58393 
L 139.572998 58.58393 
L 139.652088 56.289323 
L 139.730821 56.289323 
L 139.8092 52.847413 
L 139.964909 52.847413 
L 140.042245 50.552806 
L 140.195896 50.552806 
L 140.272217 48.831851 
L 140.348205 48.831851 
L 140.348205 46.537244 
L 140.574203 46.537244 
L 140.574203 45.389941 
L 140.723258 45.389941 
L 140.723258 43.668985 
L 140.944478 43.668985 
L 141.017599 42.521682 
L 141.090414 42.521682 
L 141.162927 40.800727 
L 141.235139 40.800727 
L 141.307054 37.932468 
L 141.45 37.932468 
L 141.521035 36.785165 
L 141.591783 36.785165 
L 141.662245 33.916906 
L 141.732423 33.916906 
L 141.80232 31.622299 
L 141.871938 31.622299 
L 141.941279 30.474996 
L 142.010346 30.474996 
L 142.010346 29.901344 
L 142.147664 29.901344 
L 142.147664 29.327692 
L 142.419098 29.327692 
L 142.419098 28.754041 
L 142.686372 28.754041 
L 142.752555 25.885782 
L 143.464461 25.885782 
L 143.464461 25.31213 
L 143.902815 25.31213 
L 143.902815 24.738479 
L 144.087359 24.738479 
L 144.087359 24.164827 
L 144.269971 24.164827 
L 144.330419 22.443872 
L 144.390658 22.443872 
L 144.390658 21.87022 
L 144.510517 21.87022 
L 144.510517 21.296568 
L 145.270136 21.296568 
L 145.327221 19.575613 
L 145.384119 19.575613 
L 145.440832 17.281006 
L 145.777292 17.281006 
L 145.832743 15.560051 
L 145.943118 15.560051 
L 145.998045 13.839096 
L 146.801841 13.839096 
L 146.801841 13.265444 
L 147.010073 13.265444 
L 147.113265 11.544489 
L 147.368603 11.544489 
L 147.368603 10.397186 
L 148.354135 10.397186 
L 148.40198 9.249882 
L 149.286939 9.249882 
L 149.286939 8.676231 
L 149.998846 8.676231 
L 149.998846 8.102579 
L 150.258492 8.102579 
L 150.258492 7.528927 
L 152.168773 7.528927 
L 152.168773 6.955275 
L 159.532469 6.955275 
L 159.532469 6.381624 
L 338.688 6.381624 
L 338.688 6.381624 
" style="fill:none;stroke:#ff00ff;stroke-linecap:square;stroke-width:1.5;"/>
   </g>
   <g id="line2d_36">
    <defs>
     <path d="M -0 8.485281 
L 5.091169 0 
L 0 -8.485281 
L -5.091169 -0 
z
" id="m871d6016ea" style="stroke:#ff00ff;stroke-linejoin:miter;stroke-width:1.5;"/>
    </defs>
    <g>
     <use style="fill-opacity:0;stroke:#ff00ff;stroke-linejoin:miter;stroke-width:1.5;" x="131.565689" xlink:href="#m871d6016ea" y="176.756184"/>
     <use style="fill-opacity:0;stroke:#ff00ff;stroke-linejoin:miter;stroke-width:1.5;" x="159.532469" xlink:href="#m871d6016ea" y="6.955275"/>
     <use style="fill-opacity:0;stroke:#ff00ff;stroke-linejoin:miter;stroke-width:1.5;" x="159.532469" xlink:href="#m871d6016ea" y="6.381624"/>
     <use style="fill-opacity:0;stroke:#ff00ff;stroke-linejoin:miter;stroke-width:1.5;" x="159.532469" xlink:href="#m871d6016ea" y="6.381624"/>
     <use style="fill-opacity:0;stroke:#ff00ff;stroke-linejoin:miter;stroke-width:1.5;" x="338.688" xlink:href="#m871d6016ea" y="6.381624"/>
    </g>
   </g>
   <g id="line2d_37">
    <path style="fill:none;stroke:#ff00ff;stroke-linecap:square;stroke-width:1.5;"/>
    <g/>
   </g>
   <g id="line2d_38">
    <path clip-path="url(#pa5a5cbc9f0)" d="M 121.931406 248.462649 
" style="fill:none;stroke:#ff00ff;stroke-linecap:square;stroke-width:1.5;"/>
    <defs>
     <path d="M -12 12 
L 12 -12 
M -12 -12 
L 12 12 
" id="m31d4c41cd9" style="stroke:#ff00ff;"/>
    </defs>
    <g clip-path="url(#pa5a5cbc9f0)">
     <use style="fill:#ff00ff;stroke:#ff00ff;" x="121.931406" xlink:href="#m31d4c41cd9" y="248.462649"/>
    </g>
   </g>
   <g id="line2d_39">
    <defs>
     <path d="M 0 1.5 
C 0.397805 1.5 0.77937 1.341951 1.06066 1.06066 
C 1.341951 0.77937 1.5 0.397805 1.5 0 
C 1.5 -0.397805 1.341951 -0.77937 1.06066 -1.06066 
C 0.77937 -1.341951 0.397805 -1.5 0 -1.5 
C -0.397805 -1.5 -0.77937 -1.341951 -1.06066 -1.06066 
C -1.341951 -0.77937 -1.5 -0.397805 -1.5 0 
C -1.5 0.397805 -1.341951 0.77937 -1.06066 1.06066 
C -0.77937 1.341951 -0.397805 1.5 0 1.5 
z
" id="m239410b451" style="stroke:#ff7500;"/>
    </defs>
    <g>
     <use style="fill:#ff7500;stroke:#ff7500;" x="179.505048" xlink:href="#m239410b451" y="6.381624"/>
     <use style="fill:#ff7500;stroke:#ff7500;" x="179.505048" xlink:href="#m239410b451" y="6.381624"/>
    </g>
   </g>
   <g id="line2d_40">
    <path d="M 105.398279 298.944 
L 105.398279 298.370348 
L 110.274038 298.370348 
L 110.274038 297.223045 
L 110.694282 297.223045 
L 110.694282 292.633831 
L 112.280765 292.633831 
L 112.280765 291.486528 
L 112.655818 291.486528 
L 112.655818 290.339224 
L 113.022974 290.339224 
L 113.022974 286.897314 
L 113.73488 286.897314 
L 113.73488 286.323662 
L 114.080224 286.323662 
L 114.080224 283.455404 
L 114.418861 283.455404 
L 114.418861 281.734448 
L 114.751048 281.734448 
L 114.751048 277.718886 
L 115.077025 277.718886 
L 115.077025 277.145235 
L 115.397021 277.145235 
L 115.397021 271.982369 
L 115.711251 271.982369 
L 115.711251 269.114111 
L 116.019919 269.114111 
L 116.019919 267.393156 
L 116.323218 267.393156 
L 116.323218 263.951245 
L 116.621333 263.951245 
L 116.621333 263.377593 
L 116.914437 263.377593 
L 116.914437 262.23029 
L 117.202696 262.23029 
L 117.202696 259.935683 
L 118.039942 259.935683 
L 118.039942 259.362031 
L 118.310324 259.362031 
L 118.310324 258.78838 
L 118.576578 258.78838 
L 118.576578 257.641076 
L 123.790603 257.641076 
L 123.790603 257.067425 
L 124.368753 257.067425 
L 124.368753 256.493773 
L 124.557288 256.493773 
L 124.557288 255.920121 
L 124.743806 255.920121 
L 124.743806 255.346469 
L 124.92835 255.346469 
L 124.92835 254.199166 
L 125.291682 254.199166 
L 125.291682 253.625514 
L 125.996395 253.625514 
L 125.996395 250.183604 
L 126.673734 250.183604 
L 126.673734 249.609952 
L 127.165014 249.609952 
L 127.165014 248.462649 
L 127.642832 248.462649 
L 127.642832 246.741694 
L 127.799239 246.741694 
L 127.799239 244.447087 
L 127.954256 244.447087 
L 127.954256 243.299783 
L 128.107907 243.299783 
L 128.107907 242.726132 
L 128.260216 242.726132 
L 128.260216 241.005176 
L 128.411207 241.005176 
L 128.411207 240.431525 
L 129.002426 240.431525 
L 129.002426 238.136918 
L 129.290685 238.136918 
L 129.290685 236.989614 
L 129.433047 236.989614 
L 129.433047 234.695008 
L 129.574256 234.695008 
L 129.574256 233.547704 
L 129.714332 233.547704 
L 129.714332 231.826749 
L 129.853291 231.826749 
L 129.853291 228.384839 
L 129.991152 228.384839 
L 129.991152 224.369277 
L 130.531948 224.369277 
L 130.531948 223.221973 
L 130.664567 223.221973 
L 130.664567 221.501018 
L 130.796184 221.501018 
L 130.796184 220.927366 
L 130.926816 220.927366 
L 130.926816 219.780063 
L 131.056477 219.780063 
L 131.056477 218.632759 
L 131.185181 218.632759 
L 131.185181 216.911804 
L 131.439773 216.911804 
L 131.439773 212.896242 
L 131.565689 212.896242 
L 131.565689 211.748939 
L 131.690703 211.748939 
L 131.690703 210.027984 
L 131.814826 210.027984 
L 131.814826 208.307029 
L 131.938072 208.307029 
L 131.938072 204.291467 
L 132.060454 204.291467 
L 132.060454 203.717815 
L 132.181982 203.717815 
L 132.181982 201.423208 
L 132.30267 201.423208 
L 132.30267 197.981298 
L 132.422528 197.981298 
L 132.422528 195.686691 
L 132.541568 195.686691 
L 132.541568 195.113039 
L 132.659801 195.113039 
L 132.659801 190.523825 
L 132.777237 190.523825 
L 132.777237 187.655567 
L 132.893889 187.655567 
L 132.893889 183.066353 
L 133.009765 183.066353 
L 133.009765 182.492701 
L 133.124876 182.492701 
L 133.124876 177.329836 
L 133.239232 177.329836 
L 133.239232 176.756184 
L 133.352844 176.756184 
L 133.352844 175.035229 
L 133.46572 175.035229 
L 133.46572 172.16697 
L 133.57787 172.16697 
L 133.57787 171.019667 
L 133.689303 171.019667 
L 133.800029 167.577757 
L 133.910056 167.577757 
L 133.910056 165.856801 
L 134.12805 165.856801 
L 134.236034 163.562195 
L 134.343353 163.562195 
L 134.450015 156.678374 
L 134.55603 156.678374 
L 134.661403 149.794553 
L 134.766144 149.794553 
L 134.870259 148.64725 
L 134.973757 148.64725 
L 134.973757 148.073598 
L 135.178927 148.073598 
L 135.280614 145.20534 
L 135.381712 145.20534 
L 135.482227 141.189778 
L 135.582166 141.189778 
L 135.681535 137.174215 
L 135.780341 137.174215 
L 135.878591 132.01135 
L 135.97629 132.01135 
L 136.073445 129.143091 
L 136.361705 129.143091 
L 136.361705 123.406574 
L 136.551264 123.406574 
L 136.645276 118.243709 
L 136.831795 118.243709 
L 136.924311 114.801798 
L 137.016339 114.801798 
L 137.107884 111.359888 
L 137.198951 111.359888 
L 137.198951 110.786236 
L 137.37967 110.786236 
L 137.469333 108.49163 
L 137.558536 108.49163 
L 137.647286 103.328764 
L 137.735587 103.328764 
L 137.823442 102.181461 
L 137.997836 102.181461 
L 137.997836 101.034157 
L 138.170504 101.034157 
L 138.170504 100.460506 
L 138.426341 100.460506 
L 138.510793 96.444944 
L 138.594838 96.444944 
L 138.594838 95.29764 
L 138.84457 95.29764 
L 138.927025 93.576685 
L 139.090775 93.576685 
L 139.172077 92.429381 
L 139.253002 92.429381 
L 139.333553 90.134775 
L 139.413734 90.134775 
L 139.493548 86.119213 
L 139.730821 86.119213 
L 139.8092 83.250954 
L 139.887228 83.250954 
L 139.964909 81.529999 
L 140.042245 81.529999 
L 140.11924 80.382695 
L 140.195896 80.382695 
L 140.272217 79.235392 
L 140.348205 79.235392 
L 140.348205 78.088089 
L 140.499195 78.088089 
L 140.499195 75.793482 
L 141.017599 75.793482 
L 141.090414 74.072526 
L 141.162927 74.072526 
L 141.162927 73.498875 
L 141.307054 73.498875 
L 141.307054 72.925223 
L 141.45 72.925223 
L 141.45 72.351571 
L 141.662245 72.351571 
L 141.662245 71.77792 
L 141.941279 71.77792 
L 141.941279 71.204268 
L 142.147664 71.204268 
L 142.215919 70.056964 
L 142.619936 70.056964 
L 142.686372 68.909661 
L 142.752555 68.909661 
L 142.752555 67.188706 
L 143.014805 67.188706 
L 143.014805 64.320447 
L 143.208936 64.320447 
L 143.208936 63.746796 
L 143.337167 63.746796 
L 143.40093 62.599492 
L 143.464461 62.599492 
L 143.464461 62.02584 
L 143.653678 62.02584 
L 143.653678 60.304885 
L 143.778691 60.304885 
L 143.840863 58.58393 
L 144.269971 58.58393 
L 144.269971 58.010278 
L 144.629556 58.010278 
L 144.688773 56.289323 
L 144.747789 56.289323 
L 144.806606 55.14202 
L 144.865226 55.14202 
L 144.865226 54.568368 
L 144.981877 54.568368 
L 144.981877 53.994716 
L 145.609873 53.994716 
L 145.665858 52.847413 
L 145.777292 52.847413 
L 145.832743 51.126458 
L 145.943118 51.126458 
L 145.998045 49.979154 
L 146.216039 49.979154 
L 146.216039 49.405503 
L 146.958248 49.405503 
L 147.061745 48.258199 
L 147.266916 48.258199 
L 147.266916 47.684547 
L 148.306159 47.684547 
L 148.306159 46.537244 
L 148.87334 46.537244 
L 148.966103 45.389941 
L 149.286939 45.389941 
L 149.286939 44.816289 
L 149.422654 44.816289 
L 149.422654 44.242637 
L 149.646525 44.242637 
L 149.646525 43.668985 
L 149.823575 43.668985 
L 149.823575 43.095334 
L 150.344189 43.095334 
L 150.344189 42.521682 
L 150.808139 42.521682 
L 150.808139 41.94803 
L 152.245598 41.94803 
L 152.322086 40.800727 
L 152.774102 40.800727 
L 152.774102 40.227075 
L 154.337936 40.227075 
L 154.439623 39.079772 
L 154.607795 39.079772 
L 154.607795 38.50612 
L 154.77436 38.50612 
L 154.77436 37.932468 
L 155.264719 37.932468 
L 155.264719 37.358817 
L 155.520713 37.358817 
L 155.584129 35.06421 
L 155.647315 35.06421 
L 155.647315 34.490558 
L 155.804285 34.490558 
L 155.804285 33.916906 
L 156.083319 33.916906 
L 156.083319 33.343255 
L 156.266892 33.343255 
L 156.297301 32.195951 
L 156.418408 32.195951 
L 156.418408 31.048648 
L 156.598505 31.048648 
L 156.687861 28.754041 
L 156.776762 28.754041 
L 156.835778 27.606737 
L 156.98245 27.606737 
L 157.040776 26.459434 
L 157.300853 26.459434 
L 157.300853 25.885782 
L 157.86528 25.885782 
L 157.94839 24.164827 
L 158.003578 24.164827 
L 158.086033 23.017524 
L 158.385078 23.017524 
L 158.438903 21.87022 
L 158.968208 21.87022 
L 158.968208 20.722917 
L 159.098062 20.722917 
L 159.098062 20.149265 
L 159.783038 20.149265 
L 159.783038 19.575613 
L 160.249422 19.575613 
L 160.249422 19.001962 
L 160.466062 19.001962 
L 160.489968 17.854658 
L 160.891432 17.854658 
L 160.891432 17.281006 
L 161.169354 17.281006 
L 161.169354 16.707355 
L 161.374928 16.707355 
L 161.397621 15.560051 
L 161.555647 15.560051 
L 161.555647 14.9864 
L 163.205526 14.9864 
L 163.205526 14.412748 
L 164.467222 14.412748 
L 164.467222 13.839096 
L 165.393091 13.839096 
L 165.393091 13.265444 
L 165.714726 13.265444 
L 165.7501 12.118141 
L 166.099947 12.118141 
L 166.099947 11.544489 
L 166.442913 11.544489 
L 166.442913 10.970838 
L 167.076532 10.970838 
L 167.076532 10.397186 
L 167.449146 10.397186 
L 167.449146 9.823534 
L 168.063324 9.823534 
L 168.063324 9.249882 
L 168.293904 9.249882 
L 168.324419 8.102579 
L 173.598631 8.102579 
L 173.598631 7.528927 
L 173.822502 7.528927 
L 173.822502 6.955275 
L 179.505048 6.955275 
L 179.505048 6.381624 
L 338.688 6.381624 
L 338.688 6.381624 
" style="fill:none;stroke:#ff7500;stroke-linecap:square;stroke-width:1.5;"/>
   </g>
   <g id="line2d_41">
    <defs>
     <path d="M 0 -6 
L -1.347084 -1.854102 
L -5.706339 -1.854102 
L -2.179628 0.708204 
L -3.526712 4.854102 
L -0 2.291796 
L 3.526712 4.854102 
L 2.179628 0.708204 
L 5.706339 -1.854102 
L 1.347084 -1.854102 
z
" id="ma495cfeaf3" style="stroke:#ff7500;stroke-linejoin:bevel;stroke-width:1.5;"/>
    </defs>
    <g>
     <use style="fill-opacity:0;stroke:#ff7500;stroke-linejoin:bevel;stroke-width:1.5;" x="135.780341" xlink:href="#ma495cfeaf3" y="137.174215"/>
     <use style="fill-opacity:0;stroke:#ff7500;stroke-linejoin:bevel;stroke-width:1.5;" x="173.822502" xlink:href="#ma495cfeaf3" y="7.528927"/>
     <use style="fill-opacity:0;stroke:#ff7500;stroke-linejoin:bevel;stroke-width:1.5;" x="179.505048" xlink:href="#ma495cfeaf3" y="6.381624"/>
     <use style="fill-opacity:0;stroke:#ff7500;stroke-linejoin:bevel;stroke-width:1.5;" x="179.505048" xlink:href="#ma495cfeaf3" y="6.381624"/>
     <use style="fill-opacity:0;stroke:#ff7500;stroke-linejoin:bevel;stroke-width:1.5;" x="338.688" xlink:href="#ma495cfeaf3" y="6.381624"/>
    </g>
   </g>
   <g id="line2d_42">
    <path style="fill:none;stroke:#ff7500;stroke-linecap:square;stroke-width:1.5;"/>
    <g/>
   </g>
   <g id="line2d_43">
    <path clip-path="url(#pa5a5cbc9f0)" d="M 124.178158 257.067425 
" style="fill:none;stroke:#ff7500;stroke-linecap:square;stroke-width:1.5;"/>
    <defs>
     <path d="M -12 12 
L 12 -12 
M -12 -12 
L 12 12 
" id="mfff03214f1" style="stroke:#ff7500;"/>
    </defs>
    <g clip-path="url(#pa5a5cbc9f0)">
     <use style="fill:#ff7500;stroke:#ff7500;" x="124.178158" xlink:href="#mfff03214f1" y="257.067425"/>
    </g>
   </g>
   <g id="line2d_44">
    <defs>
     <path d="M 0 1.5 
C 0.397805 1.5 0.77937 1.341951 1.06066 1.06066 
C 1.341951 0.77937 1.5 0.397805 1.5 0 
C 1.5 -0.397805 1.341951 -0.77937 1.06066 -1.06066 
C 0.77937 -1.341951 0.397805 -1.5 0 -1.5 
C -0.397805 -1.5 -0.77937 -1.341951 -1.06066 -1.06066 
C -1.341951 -0.77937 -1.5 -0.397805 -1.5 0 
C -1.5 0.397805 -1.341951 0.77937 -1.06066 1.06066 
C -0.77937 1.341951 -0.397805 1.5 0 1.5 
z
" id="me4b89d0ee2" style="stroke:#6495ed;"/>
    </defs>
    <g>
     <use style="fill:#6495ed;stroke:#6495ed;" x="217.17231" xlink:href="#me4b89d0ee2" y="17.854658"/>
     <use style="fill:#6495ed;stroke:#6495ed;" x="217.17231" xlink:href="#me4b89d0ee2" y="17.854658"/>
    </g>
   </g>
   <g id="line2d_45">
    <path d="M 45.512012 298.944 
L 45.512012 298.370348 
L 104.23523 298.370348 
L 104.23523 297.796697 
L 105.951954 297.796697 
L 105.951954 296.649393 
L 106.48859 296.649393 
L 106.48859 294.928438 
L 107.009204 294.928438 
L 107.009204 291.486528 
L 107.514726 291.486528 
L 107.514726 289.191921 
L 108.006005 289.191921 
L 108.006005 286.897314 
L 108.948899 286.897314 
L 108.948899 284.602707 
L 109.401893 284.602707 
L 109.401893 284.029055 
L 109.843417 284.029055 
L 109.843417 281.160797 
L 110.274038 281.160797 
L 110.274038 280.587145 
L 110.694282 280.587145 
L 110.694282 279.439842 
L 111.104637 279.439842 
L 111.104637 277.145235 
L 111.505558 277.145235 
L 111.505558 275.997931 
L 111.897469 275.997931 
L 111.897469 273.129673 
L 112.280765 273.129673 
L 112.280765 272.556021 
L 112.655818 272.556021 
L 112.655818 271.408718 
L 113.022974 271.408718 
L 113.022974 270.835066 
L 113.382559 270.835066 
L 113.382559 269.687762 
L 114.418861 269.687762 
L 114.418861 269.114111 
L 114.751048 269.114111 
L 114.751048 265.098549 
L 115.077025 265.098549 
L 115.077025 264.524897 
L 115.397021 264.524897 
L 115.397021 263.951245 
L 116.914437 263.951245 
L 116.914437 262.803942 
L 121.931406 262.803942 
L 121.931406 262.23029 
L 124.178158 262.23029 
L 124.178158 261.656638 
L 124.743806 261.656638 
L 124.743806 261.082987 
L 124.92835 261.082987 
L 124.92835 260.509335 
L 125.110962 260.509335 
L 125.110962 259.362031 
L 125.291682 259.362031 
L 125.291682 258.78838 
L 125.647598 258.78838 
L 125.647598 258.214728 
L 125.822869 258.214728 
L 125.822869 257.641076 
L 126.168212 257.641076 
L 126.168212 257.067425 
L 126.338353 257.067425 
L 126.338353 256.493773 
L 126.50685 256.493773 
L 126.50685 254.199166 
L 126.839037 254.199166 
L 126.839037 252.478211 
L 127.325746 252.478211 
L 127.325746 250.757256 
L 127.48501 250.757256 
L 127.48501 250.183604 
L 127.642832 250.183604 
L 127.642832 248.462649 
L 127.954256 248.462649 
L 127.954256 247.888997 
L 128.560901 247.888997 
L 128.560901 245.59439 
L 129.147151 245.59439 
L 129.147151 244.447087 
L 129.290685 244.447087 
L 129.290685 243.299783 
L 129.433047 243.299783 
L 129.433047 242.726132 
L 129.574256 242.726132 
L 129.574256 241.578828 
L 129.714332 241.578828 
L 129.714332 239.284221 
L 129.853291 239.284221 
L 129.853291 238.136918 
L 129.991152 238.136918 
L 129.991152 236.415963 
L 130.127931 236.415963 
L 130.127931 233.547704 
L 130.263646 233.547704 
L 130.263646 232.400401 
L 130.398313 232.400401 
L 130.398313 231.826749 
L 130.531948 231.826749 
L 130.531948 230.105794 
L 130.796184 230.105794 
L 130.796184 228.384839 
L 130.926816 228.384839 
L 130.926816 227.811187 
L 131.185181 227.811187 
L 131.185181 227.237535 
L 131.312942 227.237535 
L 131.312942 224.942928 
L 131.565689 224.942928 
L 131.565689 222.648321 
L 131.690703 222.648321 
L 131.690703 219.780063 
L 131.814826 219.780063 
L 131.814826 218.632759 
L 131.938072 218.632759 
L 131.938072 218.059108 
L 132.181982 218.059108 
L 132.181982 217.485456 
L 132.30267 217.485456 
L 132.30267 215.764501 
L 132.422528 215.764501 
L 132.422528 215.190849 
L 132.659801 215.190849 
L 132.659801 214.043546 
L 132.777237 214.043546 
L 132.777237 212.896242 
L 132.893889 212.896242 
L 132.893889 212.322591 
L 133.009765 212.322591 
L 133.009765 211.748939 
L 133.239232 211.748939 
L 133.239232 210.027984 
L 133.352844 210.027984 
L 133.352844 208.88068 
L 133.46572 208.88068 
L 133.46572 204.865118 
L 133.57787 204.865118 
L 133.57787 201.423208 
L 133.689303 201.423208 
L 133.800029 197.981298 
L 133.910056 197.981298 
L 134.019394 191.671129 
L 134.12805 191.671129 
L 134.236034 190.523825 
L 134.343353 190.523825 
L 134.450015 185.934612 
L 134.55603 185.934612 
L 134.661403 183.640005 
L 134.766144 183.640005 
L 134.870259 180.771746 
L 134.973757 180.771746 
L 135.076644 179.050791 
L 135.178927 179.050791 
L 135.280614 174.461577 
L 135.482227 174.461577 
L 135.582166 168.72506 
L 135.681535 168.72506 
L 135.780341 165.28315 
L 135.878591 165.28315 
L 135.97629 160.693936 
L 136.073445 160.693936 
L 136.170062 156.104722 
L 136.266147 156.104722 
L 136.361705 154.383767 
L 136.456742 154.383767 
L 136.551264 148.64725 
L 136.738785 148.64725 
L 136.831795 144.631688 
L 136.924311 144.631688 
L 137.016339 140.042474 
L 137.107884 140.042474 
L 137.198951 136.600564 
L 137.289545 136.600564 
L 137.37967 132.585002 
L 137.469333 132.585002 
L 137.558536 127.995788 
L 137.647286 127.995788 
L 137.735587 122.259271 
L 137.823442 122.259271 
L 137.910857 119.964664 
L 137.997836 119.964664 
L 138.084384 117.670057 
L 138.170504 117.670057 
L 138.170504 117.096405 
L 138.426341 117.096405 
L 138.426341 113.654495 
L 138.594838 113.654495 
L 138.67848 110.786236 
L 138.761723 110.786236 
L 138.84457 108.49163 
L 138.927025 108.49163 
L 139.009092 105.623371 
L 139.172077 105.623371 
L 139.253002 103.902416 
L 139.333553 103.902416 
L 139.413734 102.181461 
L 139.493548 102.181461 
L 139.493548 101.034157 
L 139.652088 101.034157 
L 139.730821 98.165899 
L 139.8092 98.165899 
L 139.887228 91.282078 
L 139.964909 91.282078 
L 140.042245 90.134775 
L 140.11924 90.134775 
L 140.195896 87.266516 
L 140.348205 87.266516 
L 140.423864 85.545561 
L 140.574203 85.545561 
L 140.574203 84.398257 
L 140.723258 84.398257 
L 140.723258 83.824606 
L 140.944478 83.824606 
L 141.017599 82.677302 
L 141.090414 82.677302 
L 141.162927 79.235392 
L 141.235139 79.235392 
L 141.235139 78.088089 
L 141.45 78.088089 
L 141.521035 73.498875 
L 141.732423 73.498875 
L 141.80232 72.351571 
L 141.871938 72.351571 
L 141.871938 71.77792 
L 142.07914 71.77792 
L 142.07914 70.630616 
L 142.419098 70.630616 
L 142.486301 69.483313 
L 142.553247 69.483313 
L 142.553247 68.336009 
L 142.818488 68.336009 
L 142.818488 67.188706 
L 142.949611 67.188706 
L 142.949611 66.615054 
L 143.273169 66.615054 
L 143.273169 65.467751 
L 143.40093 65.467751 
L 143.464461 64.320447 
L 143.527762 64.320447 
L 143.527762 63.173144 
L 143.840863 63.173144 
L 143.840863 62.599492 
L 144.087359 62.599492 
L 144.087359 62.02584 
L 144.269971 62.02584 
L 144.269971 61.452189 
L 144.390658 61.452189 
L 144.390658 60.878537 
L 144.510517 60.878537 
L 144.510517 60.304885 
L 144.629556 60.304885 
L 144.629556 59.731234 
L 144.865226 59.731234 
L 144.865226 58.58393 
L 144.981877 58.58393 
L 144.981877 57.436627 
L 145.097753 57.436627 
L 145.155404 56.289323 
L 145.212864 56.289323 
L 145.212864 55.14202 
L 145.497361 55.14202 
L 145.553708 53.421065 
L 145.665858 53.421065 
L 145.665858 52.847413 
L 145.832743 52.847413 
L 145.943118 51.126458 
L 146.052799 51.126458 
L 146.052799 49.979154 
L 146.216039 49.979154 
L 146.216039 49.405503 
L 146.377764 49.405503 
L 146.377764 48.831851 
L 146.749392 48.831851 
L 146.749392 48.258199 
L 147.266916 48.258199 
L 147.317833 47.110896 
L 147.670154 47.110896 
L 147.670154 46.537244 
L 147.917524 46.537244 
L 147.917524 45.963592 
L 148.258051 45.963592 
L 148.258051 44.816289 
L 148.826773 44.816289 
L 148.826773 44.242637 
L 149.286939 44.242637 
L 149.332295 41.94803 
L 149.998846 41.94803 
L 149.998846 41.374379 
L 150.344189 41.374379 
L 150.344189 40.800727 
L 150.640855 40.800727 
L 150.640855 40.227075 
L 151.015013 40.227075 
L 151.097081 38.50612 
L 151.219462 38.50612 
L 151.219462 37.932468 
L 151.461678 37.932468 
L 151.461678 37.358817 
L 151.700576 37.358817 
L 151.700576 36.785165 
L 151.818809 36.785165 
L 151.818809 36.211513 
L 152.207228 36.211513 
L 152.207228 35.637861 
L 152.360205 35.637861 
L 152.398241 34.490558 
L 153.069065 34.490558 
L 153.069065 33.916906 
L 153.430889 33.916906 
L 153.466662 32.769603 
L 153.750233 32.769603 
L 153.750233 32.195951 
L 154.098334 32.195951 
L 154.098334 31.622299 
L 155.232454 31.622299 
L 155.296925 30.474996 
L 155.804285 30.474996 
L 155.804285 29.901344 
L 158.51933 29.901344 
L 158.51933 29.327692 
L 159.098062 29.327692 
L 159.175513 27.606737 
L 160.844678 27.606737 
L 160.844678 27.033086 
L 161.778945 27.033086 
L 161.867469 25.885782 
L 164.371873 25.885782 
L 164.371873 25.31213 
L 166.878918 25.31213 
L 166.878918 24.738479 
L 168.551595 24.738479 
L 168.551595 24.164827 
L 169.659223 24.164827 
L 169.659223 23.591175 
L 170.767069 23.591175 
L 170.767069 23.017524 
L 171.263501 23.017524 
L 171.263501 22.443872 
L 173.107351 22.443872 
L 173.107351 21.87022 
L 175.232072 21.87022 
L 175.232072 21.296568 
L 179.553156 21.296568 
L 179.553156 20.722917 
L 184.193766 20.722917 
L 184.193766 20.149265 
L 184.588131 20.149265 
L 184.588131 19.575613 
L 185.465544 19.575613 
L 185.465544 19.001962 
L 196.192551 19.001962 
L 196.192551 18.42831 
L 217.17231 18.42831 
L 217.17231 17.854658 
L 338.688 17.854658 
L 338.688 17.854658 
" style="fill:none;stroke:#6495ed;stroke-linecap:square;stroke-width:1.5;"/>
   </g>
   <g id="line2d_46">
    <defs>
     <path d="M -0 6 
L 6 -6 
L -6 -6 
z
" id="m11e620dbf4" style="stroke:#6495ed;stroke-linejoin:miter;stroke-width:1.5;"/>
    </defs>
    <g>
     <use style="fill-opacity:0;stroke:#6495ed;stroke-linejoin:miter;stroke-width:1.5;" x="114.751048" xlink:href="#m11e620dbf4" y="269.114111"/>
     <use style="fill-opacity:0;stroke:#6495ed;stroke-linejoin:miter;stroke-width:1.5;" x="135.482227" xlink:href="#m11e620dbf4" y="174.461577"/>
     <use style="fill-opacity:0;stroke:#6495ed;stroke-linejoin:miter;stroke-width:1.5;" x="173.107351" xlink:href="#m11e620dbf4" y="22.443872"/>
     <use style="fill-opacity:0;stroke:#6495ed;stroke-linejoin:miter;stroke-width:1.5;" x="217.17231" xlink:href="#m11e620dbf4" y="17.854658"/>
     <use style="fill-opacity:0;stroke:#6495ed;stroke-linejoin:miter;stroke-width:1.5;" x="217.17231" xlink:href="#m11e620dbf4" y="17.854658"/>
     <use style="fill-opacity:0;stroke:#6495ed;stroke-linejoin:miter;stroke-width:1.5;" x="338.688" xlink:href="#m11e620dbf4" y="17.854658"/>
    </g>
   </g>
   <g id="line2d_47">
    <path style="fill:none;stroke:#6495ed;stroke-linecap:square;stroke-width:1.5;"/>
    <g/>
   </g>
   <g id="line2d_48">
    <path clip-path="url(#pa5a5cbc9f0)" d="M 126.839037 252.478211 
" style="fill:none;stroke:#6495ed;stroke-linecap:square;stroke-width:1.5;"/>
    <defs>
     <path d="M -12 12 
L 12 -12 
M -12 -12 
L 12 12 
" id="m3a275859fd" style="stroke:#6495ed;"/>
    </defs>
    <g clip-path="url(#pa5a5cbc9f0)">
     <use style="fill:#6495ed;stroke:#6495ed;" x="126.839037" xlink:href="#m3a275859fd" y="252.478211"/>
    </g>
   </g>
   <g id="line2d_49">
    <defs>
     <path d="M 0 1.5 
C 0.397805 1.5 0.77937 1.341951 1.06066 1.06066 
C 1.341951 0.77937 1.5 0.397805 1.5 0 
C 1.5 -0.397805 1.341951 -0.77937 1.06066 -1.06066 
C 0.77937 -1.341951 0.397805 -1.5 0 -1.5 
C -0.397805 -1.5 -0.77937 -1.341951 -1.06066 -1.06066 
C -1.341951 -0.77937 -1.5 -0.397805 -1.5 0 
C -1.5 0.397805 -1.341951 0.77937 -1.06066 1.06066 
C -0.77937 1.341951 -0.397805 1.5 0 1.5 
z
" id="md7569c4ccb" style="stroke:#ff0000;"/>
    </defs>
    <g>
     <use style="fill:#ff0000;stroke:#ff0000;" x="137.997836" xlink:href="#md7569c4ccb" y="6.381624"/>
     <use style="fill:#ff0000;stroke:#ff0000;" x="137.997836" xlink:href="#md7569c4ccb" y="6.381624"/>
    </g>
   </g>
   <g id="line2d_50">
    <path d="M 45.512012 298.944 
L 45.512012 262.803942 
L 83.830028 262.803942 
L 83.830028 262.23029 
L 95.918017 262.23029 
L 95.918017 261.656638 
L 101.646892 261.656638 
L 101.646892 261.082987 
L 103.623262 261.082987 
L 103.623262 260.509335 
L 104.23523 260.509335 
L 104.23523 257.641076 
L 105.398279 257.641076 
L 105.398279 253.051863 
L 105.951954 253.051863 
L 105.951954 251.904559 
L 106.48859 251.904559 
L 106.48859 250.757256 
L 107.009204 250.757256 
L 107.009204 249.036301 
L 107.514726 249.036301 
L 107.514726 245.59439 
L 108.006005 245.59439 
L 108.006005 241.578828 
L 108.483824 241.578828 
L 108.483824 239.284221 
L 109.401893 239.284221 
L 109.401893 238.71057 
L 114.418861 238.71057 
L 114.418861 238.136918 
L 117.765302 238.136918 
L 117.765302 237.563266 
L 118.310324 237.563266 
L 118.310324 236.415963 
L 118.576578 236.415963 
L 118.576578 234.695008 
L 119.097192 234.695008 
L 119.097192 233.547704 
L 119.351785 233.547704 
L 119.351785 232.400401 
L 119.602714 232.400401 
L 119.602714 230.679446 
L 119.850084 230.679446 
L 119.850084 226.090232 
L 120.093994 226.090232 
L 120.093994 225.51658 
L 120.33454 225.51658 
L 120.33454 224.369277 
L 120.571812 224.369277 
L 120.571812 223.795625 
L 120.8059 223.795625 
L 120.8059 222.648321 
L 121.036887 222.648321 
L 121.036887 220.927366 
L 121.264855 220.927366 
L 121.264855 218.632759 
L 121.489881 218.632759 
L 121.489881 216.911804 
L 121.712041 216.911804 
L 121.712041 216.338153 
L 121.931406 216.338153 
L 121.931406 211.748939 
L 122.148045 211.748939 
L 122.148045 210.601635 
L 122.362027 210.601635 
L 122.362027 206.586073 
L 122.573415 206.586073 
L 122.573415 203.144163 
L 122.782271 203.144163 
L 122.782271 200.849556 
L 123.192626 200.849556 
L 123.192626 199.128601 
L 123.593547 199.128601 
L 123.593547 195.113039 
L 123.790603 195.113039 
L 123.790603 193.965736 
L 123.985457 193.965736 
L 123.985457 192.24478 
L 124.178158 192.24478 
L 124.178158 189.950174 
L 124.368753 189.950174 
L 124.368753 186.508263 
L 124.557288 186.508263 
L 124.557288 184.213656 
L 124.743806 184.213656 
L 124.743806 183.066353 
L 124.92835 183.066353 
L 124.92835 182.492701 
L 125.110962 182.492701 
L 125.110962 181.345398 
L 125.291682 181.345398 
L 125.291682 177.903487 
L 125.470548 177.903487 
L 125.470548 173.887925 
L 125.647598 173.887925 
L 125.647598 171.019667 
L 125.822869 171.019667 
L 125.822869 170.446015 
L 125.996395 170.446015 
L 125.996395 169.298712 
L 126.168212 169.298712 
L 126.168212 168.72506 
L 126.338353 168.72506 
L 126.338353 165.856801 
L 126.50685 165.856801 
L 126.50685 163.562195 
L 126.673734 163.562195 
L 126.673734 158.399329 
L 126.839037 158.399329 
L 126.839037 157.825677 
L 127.002787 157.825677 
L 127.002787 156.104722 
L 127.165014 156.104722 
L 127.165014 155.53107 
L 127.325746 155.53107 
L 127.325746 153.236464 
L 127.48501 153.236464 
L 127.48501 152.662812 
L 127.642832 152.662812 
L 127.642832 150.368205 
L 127.799239 150.368205 
L 127.799239 148.64725 
L 127.954256 148.64725 
L 127.954256 146.352643 
L 128.107907 146.352643 
L 128.107907 145.778991 
L 128.260216 145.778991 
L 128.260216 143.484384 
L 128.411207 143.484384 
L 128.411207 140.616126 
L 128.560901 140.616126 
L 128.560901 136.600564 
L 128.709321 136.600564 
L 128.709321 136.026912 
L 128.856489 136.026912 
L 128.856489 132.01135 
L 129.002426 132.01135 
L 129.002426 130.290395 
L 129.147151 130.290395 
L 129.147151 127.995788 
L 129.290685 127.995788 
L 129.290685 124.553878 
L 129.433047 124.553878 
L 129.433047 123.980226 
L 129.574256 123.980226 
L 129.574256 120.538316 
L 129.714332 120.538316 
L 129.714332 115.949102 
L 129.853291 115.949102 
L 129.853291 113.654495 
L 129.991152 113.654495 
L 129.991152 110.786236 
L 130.127931 110.786236 
L 130.127931 109.638933 
L 130.263646 109.638933 
L 130.263646 109.065281 
L 130.398313 109.065281 
L 130.398313 101.034157 
L 130.531948 101.034157 
L 130.531948 98.165899 
L 130.664567 98.165899 
L 130.664567 94.723988 
L 130.796184 94.723988 
L 130.796184 93.576685 
L 131.056477 93.576685 
L 131.056477 91.282078 
L 131.312942 91.282078 
L 131.312942 87.266516 
L 131.439773 87.266516 
L 131.439773 86.692864 
L 131.565689 86.692864 
L 131.565689 84.971909 
L 131.690703 84.971909 
L 131.690703 82.677302 
L 131.814826 82.677302 
L 131.814826 79.235392 
L 131.938072 79.235392 
L 131.938072 76.367133 
L 132.060454 76.367133 
L 132.060454 72.351571 
L 132.181982 72.351571 
L 132.181982 70.056964 
L 132.30267 70.056964 
L 132.30267 67.188706 
L 132.422528 67.188706 
L 132.422528 65.467751 
L 132.541568 65.467751 
L 132.541568 63.746796 
L 132.659801 63.746796 
L 132.659801 63.173144 
L 132.777237 63.173144 
L 132.777237 61.452189 
L 132.893889 61.452189 
L 132.893889 56.862975 
L 133.009765 56.862975 
L 133.009765 55.14202 
L 133.239232 55.14202 
L 133.239232 52.273761 
L 133.352844 52.273761 
L 133.352844 48.258199 
L 133.46572 48.258199 
L 133.46572 45.963592 
L 133.57787 45.963592 
L 133.57787 44.242637 
L 133.689303 44.242637 
L 133.800029 41.374379 
L 133.910056 41.374379 
L 134.019394 35.06421 
L 134.12805 35.06421 
L 134.12805 34.490558 
L 134.450015 34.490558 
L 134.55603 32.195951 
L 134.766144 32.195951 
L 134.870259 26.459434 
L 135.076644 26.459434 
L 135.178927 20.722917 
L 135.381712 20.722917 
L 135.381712 19.575613 
L 135.582166 19.575613 
L 135.681535 18.42831 
L 135.780341 18.42831 
L 135.878591 15.560051 
L 136.170062 15.560051 
L 136.266147 12.118141 
L 136.551264 12.118141 
L 136.551264 11.544489 
L 136.738785 11.544489 
L 136.738785 9.823534 
L 137.016339 9.823534 
L 137.016339 8.676231 
L 137.289545 8.676231 
L 137.37967 7.528927 
L 137.735587 7.528927 
L 137.735587 6.955275 
L 137.997836 6.955275 
L 137.997836 6.381624 
L 338.688 6.381624 
L 338.688 6.381624 
" style="fill:none;stroke:#ff0000;stroke-linecap:square;stroke-width:1.5;"/>
   </g>
   <g id="line2d_51">
    <defs>
     <path d="M 0 -6 
L -5.196152 -3 
L -5.196152 3 
L -0 6 
L 5.196152 3 
L 5.196152 -3 
z
" id="m6764d96b17" style="stroke:#ff0000;stroke-linejoin:miter;stroke-width:1.5;"/>
    </defs>
    <g>
     <use style="fill-opacity:0;stroke:#ff0000;stroke-linejoin:miter;stroke-width:1.5;" x="121.264855" xlink:href="#m6764d96b17" y="218.632759"/>
     <use style="fill-opacity:0;stroke:#ff0000;stroke-linejoin:miter;stroke-width:1.5;" x="136.266147" xlink:href="#m6764d96b17" y="13.839096"/>
     <use style="fill-opacity:0;stroke:#ff0000;stroke-linejoin:miter;stroke-width:1.5;" x="137.997836" xlink:href="#m6764d96b17" y="6.955275"/>
     <use style="fill-opacity:0;stroke:#ff0000;stroke-linejoin:miter;stroke-width:1.5;" x="137.997836" xlink:href="#m6764d96b17" y="6.381624"/>
     <use style="fill-opacity:0;stroke:#ff0000;stroke-linejoin:miter;stroke-width:1.5;" x="137.997836" xlink:href="#m6764d96b17" y="6.381624"/>
     <use style="fill-opacity:0;stroke:#ff0000;stroke-linejoin:miter;stroke-width:1.5;" x="338.688" xlink:href="#m6764d96b17" y="6.381624"/>
    </g>
   </g>
   <g id="line2d_52">
    <path style="fill:none;stroke:#ff0000;stroke-linecap:square;stroke-width:1.5;"/>
    <g/>
   </g>
   <g id="line2d_53">
    <path d="M 338.688 17.854658 
L 369.60768 293.092752 
" style="fill:none;stroke:#6495ed;stroke-linecap:square;stroke-width:1.5;"/>
    <g>
     <use style="fill-opacity:0;stroke:#6495ed;stroke-linejoin:miter;stroke-width:1.5;" x="338.688" xlink:href="#m11e620dbf4" y="17.854658"/>
     <use style="fill-opacity:0;stroke:#6495ed;stroke-linejoin:miter;stroke-width:1.5;" x="369.60768" xlink:href="#m11e620dbf4" y="293.092752"/>
    </g>
   </g>
   <g id="line2d_54">
    <path d="M 338.688 6.381624 
L 369.60768 222.877782 
" style="fill:none;stroke:#ff7500;stroke-linecap:square;stroke-width:1.5;"/>
    <g>
     <use style="fill-opacity:0;stroke:#ff7500;stroke-linejoin:bevel;stroke-width:1.5;" x="338.688" xlink:href="#ma495cfeaf3" y="6.381624"/>
     <use style="fill-opacity:0;stroke:#ff7500;stroke-linejoin:bevel;stroke-width:1.5;" x="369.60768" xlink:href="#ma495cfeaf3" y="222.877782"/>
    </g>
   </g>
   <g id="line2d_55">
    <path d="M 338.688 6.381624 
L 369.60768 152.662812 
" style="fill:none;stroke:#ff00ff;stroke-linecap:square;stroke-width:1.5;"/>
    <g>
     <use style="fill-opacity:0;stroke:#ff00ff;stroke-linejoin:miter;stroke-width:1.5;" x="338.688" xlink:href="#m871d6016ea" y="6.381624"/>
     <use style="fill-opacity:0;stroke:#ff00ff;stroke-linejoin:miter;stroke-width:1.5;" x="369.60768" xlink:href="#m871d6016ea" y="152.662812"/>
    </g>
   </g>
   <g id="line2d_56">
    <path d="M 338.688 6.381624 
L 369.60768 82.447842 
" style="fill:none;stroke:#000080;stroke-linecap:square;stroke-width:1.5;"/>
    <g>
     <use style="fill-opacity:0;stroke:#000080;stroke-width:1.5;" x="338.688" xlink:href="#m0d29b5384b" y="6.381624"/>
     <use style="fill-opacity:0;stroke:#000080;stroke-width:1.5;" x="369.60768" xlink:href="#m0d29b5384b" y="82.447842"/>
    </g>
   </g>
   <g id="line2d_57">
    <path d="M 338.688 6.381624 
L 369.60768 12.232871 
" style="fill:none;stroke:#ff0000;stroke-linecap:square;stroke-width:1.5;"/>
    <g>
     <use style="fill-opacity:0;stroke:#ff0000;stroke-linejoin:miter;stroke-width:1.5;" x="338.688" xlink:href="#m6764d96b17" y="6.381624"/>
     <use style="fill-opacity:0;stroke:#ff0000;stroke-linejoin:miter;stroke-width:1.5;" x="369.60768" xlink:href="#m6764d96b17" y="12.232871"/>
    </g>
   </g>
   <g id="line2d_58">
    <path d="M 338.688 298.944 
L 338.688 6.381624 
" style="fill:none;stroke:#000000;stroke-linecap:square;stroke-width:1.5;"/>
   </g>
   <g id="patch_3">
    <path d="M 57.6 298.944 
L 57.6 3.456 
" style="fill:none;stroke:#000000;stroke-linecap:square;stroke-linejoin:miter;stroke-width:0.8;"/>
   </g>
   <g id="patch_4">
    <path d="M 338.688 298.944 
L 338.688 3.456 
" style="fill:none;stroke:#000000;stroke-linecap:square;stroke-linejoin:miter;stroke-width:0.8;"/>
   </g>
   <g id="patch_5">
    <path d="M 57.6 298.944 
L 338.688 298.944 
" style="fill:none;stroke:#000000;stroke-linecap:square;stroke-linejoin:miter;stroke-width:0.8;"/>
   </g>
   <g id="patch_6">
    <path d="M 57.6 3.456 
L 338.688 3.456 
" style="fill:none;stroke:#000000;stroke-linecap:square;stroke-linejoin:miter;stroke-width:0.8;"/>
   </g>
   <g id="text_13">
    <!-- f13 -->
    <g transform="translate(375.22944 297.78369)scale(0.17 -0.17)">
     <defs>
      <path d="M 40.578125 39.3125 
Q 47.65625 37.796875 51.625 33 
Q 55.609375 28.21875 55.609375 21.1875 
Q 55.609375 10.40625 48.1875 4.484375 
Q 40.765625 -1.421875 27.09375 -1.421875 
Q 22.515625 -1.421875 17.65625 -0.515625 
Q 12.796875 0.390625 7.625 2.203125 
L 7.625 11.71875 
Q 11.71875 9.328125 16.59375 8.109375 
Q 21.484375 6.890625 26.8125 6.890625 
Q 36.078125 6.890625 40.9375 10.546875 
Q 45.796875 14.203125 45.796875 21.1875 
Q 45.796875 27.640625 41.28125 31.265625 
Q 36.765625 34.90625 28.71875 34.90625 
L 20.21875 34.90625 
L 20.21875 43.015625 
L 29.109375 43.015625 
Q 36.375 43.015625 40.234375 45.921875 
Q 44.09375 48.828125 44.09375 54.296875 
Q 44.09375 59.90625 40.109375 62.90625 
Q 36.140625 65.921875 28.71875 65.921875 
Q 24.65625 65.921875 20.015625 65.03125 
Q 15.375 64.15625 9.8125 62.3125 
L 9.8125 71.09375 
Q 15.4375 72.65625 20.34375 73.4375 
Q 25.25 74.21875 29.59375 74.21875 
Q 40.828125 74.21875 47.359375 69.109375 
Q 53.90625 64.015625 53.90625 55.328125 
Q 53.90625 49.265625 50.4375 45.09375 
Q 46.96875 40.921875 40.578125 39.3125 
z
" id="DejaVuSans-51"/>
     </defs>
     <use xlink:href="#DejaVuSans-102"/>
     <use x="35.205078" xlink:href="#DejaVuSans-49"/>
     <use x="98.828125" xlink:href="#DejaVuSans-51"/>
    </g>
   </g>
   <g id="text_14">
    <!-- f12 -->
    <g transform="translate(375.22944 227.56872)scale(0.17 -0.17)">
     <use xlink:href="#DejaVuSans-102"/>
     <use x="35.205078" xlink:href="#DejaVuSans-49"/>
     <use x="98.828125" xlink:href="#DejaVuSans-50"/>
    </g>
   </g>
   <g id="text_15">
    <!-- f11 -->
    <g transform="translate(375.22944 157.353749)scale(0.17 -0.17)">
     <use xlink:href="#DejaVuSans-102"/>
     <use x="35.205078" xlink:href="#DejaVuSans-49"/>
     <use x="98.828125" xlink:href="#DejaVuSans-49"/>
    </g>
   </g>
   <g id="text_16">
    <!-- f10 -->
    <g transform="translate(375.22944 87.138779)scale(0.17 -0.17)">
     <use xlink:href="#DejaVuSans-102"/>
     <use x="35.205078" xlink:href="#DejaVuSans-49"/>
     <use x="98.828125" xlink:href="#DejaVuSans-48"/>
    </g>
   </g>
   <g id="text_17">
    <!-- f14 -->
    <g transform="translate(375.22944 16.923809)scale(0.17 -0.17)">
     <use xlink:href="#DejaVuSans-102"/>
     <use x="35.205078" xlink:href="#DejaVuSans-49"/>
     <use x="98.828125" xlink:href="#DejaVuSans-52"/>
    </g>
   </g>
   <g id="text_18">
    <!-- bbob -->
    <g transform="translate(60.41088 14.161286)scale(0.102 -0.102)">
     <defs>
      <path d="M 48.6875 27.296875 
Q 48.6875 37.203125 44.609375 42.84375 
Q 40.53125 48.484375 33.40625 48.484375 
Q 26.265625 48.484375 22.1875 42.84375 
Q 18.109375 37.203125 18.109375 27.296875 
Q 18.109375 17.390625 22.1875 11.75 
Q 26.265625 6.109375 33.40625 6.109375 
Q 40.53125 6.109375 44.609375 11.75 
Q 48.6875 17.390625 48.6875 27.296875 
z
M 18.109375 46.390625 
Q 20.953125 51.265625 25.265625 53.625 
Q 29.59375 56 35.59375 56 
Q 45.5625 56 51.78125 48.09375 
Q 58.015625 40.1875 58.015625 27.296875 
Q 58.015625 14.40625 51.78125 6.484375 
Q 45.5625 -1.421875 35.59375 -1.421875 
Q 29.59375 -1.421875 25.265625 0.953125 
Q 20.953125 3.328125 18.109375 8.203125 
L 18.109375 0 
L 9.078125 0 
L 9.078125 75.984375 
L 18.109375 75.984375 
z
" id="DejaVuSans-98"/>
     </defs>
     <use xlink:href="#DejaVuSans-98"/>
     <use x="63.476562" xlink:href="#DejaVuSans-98"/>
     <use x="126.953125" xlink:href="#DejaVuSans-111"/>
     <use x="188.134766" xlink:href="#DejaVuSans-98"/>
    </g>
    <!-- Ill-conditioned functions, 2-D -->
    <g transform="translate(60.41088 25.583055)scale(0.102 -0.102)">
     <defs>
      <path d="M 9.8125 72.90625 
L 19.671875 72.90625 
L 19.671875 0 
L 9.8125 0 
z
" id="DejaVuSans-73"/>
      <path d="M 19.671875 64.796875 
L 19.671875 8.109375 
L 31.59375 8.109375 
Q 46.6875 8.109375 53.6875 14.9375 
Q 60.6875 21.78125 60.6875 36.53125 
Q 60.6875 51.171875 53.6875 57.984375 
Q 46.6875 64.796875 31.59375 64.796875 
z
M 9.8125 72.90625 
L 30.078125 72.90625 
Q 51.265625 72.90625 61.171875 64.09375 
Q 71.09375 55.28125 71.09375 36.53125 
Q 71.09375 17.671875 61.125 8.828125 
Q 51.171875 0 30.078125 0 
L 9.8125 0 
z
" id="DejaVuSans-68"/>
     </defs>
     <use xlink:href="#DejaVuSans-73"/>
     <use x="29.492188" xlink:href="#DejaVuSans-108"/>
     <use x="57.275391" xlink:href="#DejaVuSans-108"/>
     <use x="85.058594" xlink:href="#DejaVuSans-45"/>
     <use x="121.142578" xlink:href="#DejaVuSans-99"/>
     <use x="176.123047" xlink:href="#DejaVuSans-111"/>
     <use x="237.304688" xlink:href="#DejaVuSans-110"/>
     <use x="300.683594" xlink:href="#DejaVuSans-100"/>
     <use x="364.160156" xlink:href="#DejaVuSans-105"/>
     <use x="391.943359" xlink:href="#DejaVuSans-116"/>
     <use x="431.152344" xlink:href="#DejaVuSans-105"/>
     <use x="458.935547" xlink:href="#DejaVuSans-111"/>
     <use x="520.117188" xlink:href="#DejaVuSans-110"/>
     <use x="583.496094" xlink:href="#DejaVuSans-101"/>
     <use x="645.019531" xlink:href="#DejaVuSans-100"/>
     <use x="708.496094" xlink:href="#DejaVuSans-32"/>
     <use x="740.283203" xlink:href="#DejaVuSans-102"/>
     <use x="775.488281" xlink:href="#DejaVuSans-117"/>
     <use x="838.867188" xlink:href="#DejaVuSans-110"/>
     <use x="902.246094" xlink:href="#DejaVuSans-99"/>
     <use x="957.226562" xlink:href="#DejaVuSans-116"/>
     <use x="996.435547" xlink:href="#DejaVuSans-105"/>
     <use x="1024.21875" xlink:href="#DejaVuSans-111"/>
     <use x="1085.400391" xlink:href="#DejaVuSans-110"/>
     <use x="1148.779297" xlink:href="#DejaVuSans-115"/>
     <use x="1200.878906" xlink:href="#DejaVuSans-44"/>
     <use x="1232.666016" xlink:href="#DejaVuSans-32"/>
     <use x="1264.453125" xlink:href="#DejaVuSans-50"/>
     <use x="1328.076172" xlink:href="#DejaVuSans-45"/>
     <use x="1364.160156" xlink:href="#DejaVuSans-68"/>
    </g>
    <!-- 51 targets: 100..1e-08 -->
    <g transform="translate(60.41088 37.004824)scale(0.102 -0.102)">
     <defs>
      <path d="M 10.796875 72.90625 
L 49.515625 72.90625 
L 49.515625 64.59375 
L 19.828125 64.59375 
L 19.828125 46.734375 
Q 21.96875 47.46875 24.109375 47.828125 
Q 26.265625 48.1875 28.421875 48.1875 
Q 40.625 48.1875 47.75 41.5 
Q 54.890625 34.8125 54.890625 23.390625 
Q 54.890625 11.625 47.5625 5.09375 
Q 40.234375 -1.421875 26.90625 -1.421875 
Q 22.3125 -1.421875 17.546875 -0.640625 
Q 12.796875 0.140625 7.71875 1.703125 
L 7.71875 11.625 
Q 12.109375 9.234375 16.796875 8.0625 
Q 21.484375 6.890625 26.703125 6.890625 
Q 35.15625 6.890625 40.078125 11.328125 
Q 45.015625 15.765625 45.015625 23.390625 
Q 45.015625 31 40.078125 35.4375 
Q 35.15625 39.890625 26.703125 39.890625 
Q 22.75 39.890625 18.8125 39.015625 
Q 14.890625 38.140625 10.796875 36.28125 
z
" id="DejaVuSans-53"/>
      <path d="M 11.71875 12.40625 
L 22.015625 12.40625 
L 22.015625 0 
L 11.71875 0 
z
M 11.71875 51.703125 
L 22.015625 51.703125 
L 22.015625 39.3125 
L 11.71875 39.3125 
z
" id="DejaVuSans-58"/>
     </defs>
     <use xlink:href="#DejaVuSans-53"/>
     <use x="63.623047" xlink:href="#DejaVuSans-49"/>
     <use x="127.246094" xlink:href="#DejaVuSans-32"/>
     <use x="159.033203" xlink:href="#DejaVuSans-116"/>
     <use x="198.242188" xlink:href="#DejaVuSans-97"/>
     <use x="259.521484" xlink:href="#DejaVuSans-114"/>
     <use x="298.884766" xlink:href="#DejaVuSans-103"/>
     <use x="362.361328" xlink:href="#DejaVuSans-101"/>
     <use x="423.884766" xlink:href="#DejaVuSans-116"/>
     <use x="463.09375" xlink:href="#DejaVuSans-115"/>
     <use x="515.193359" xlink:href="#DejaVuSans-58"/>
     <use x="548.884766" xlink:href="#DejaVuSans-32"/>
     <use x="580.671875" xlink:href="#DejaVuSans-49"/>
     <use x="644.294922" xlink:href="#DejaVuSans-48"/>
     <use x="707.917969" xlink:href="#DejaVuSans-48"/>
     <use x="771.541016" xlink:href="#DejaVuSans-46"/>
     <use x="803.328125" xlink:href="#DejaVuSans-46"/>
     <use x="835.115234" xlink:href="#DejaVuSans-49"/>
     <use x="898.738281" xlink:href="#DejaVuSans-101"/>
     <use x="960.261719" xlink:href="#DejaVuSans-45"/>
     <use x="996.345703" xlink:href="#DejaVuSans-48"/>
     <use x="1059.96875" xlink:href="#DejaVuSans-56"/>
    </g>
    <!-- 15 instances -->
    <g transform="translate(60.41088 48.426593)scale(0.102 -0.102)">
     <use xlink:href="#DejaVuSans-49"/>
     <use x="63.623047" xlink:href="#DejaVuSans-53"/>
     <use x="127.246094" xlink:href="#DejaVuSans-32"/>
     <use x="159.033203" xlink:href="#DejaVuSans-105"/>
     <use x="186.816406" xlink:href="#DejaVuSans-110"/>
     <use x="250.195312" xlink:href="#DejaVuSans-115"/>
     <use x="302.294922" xlink:href="#DejaVuSans-116"/>
     <use x="341.503906" xlink:href="#DejaVuSans-97"/>
     <use x="402.783203" xlink:href="#DejaVuSans-110"/>
     <use x="466.162109" xlink:href="#DejaVuSans-99"/>
     <use x="521.142578" xlink:href="#DejaVuSans-101"/>
     <use x="582.666016" xlink:href="#DejaVuSans-115"/>
    </g>
   </g>
   <g id="text_19">
    <!-- v2.4 -->
    <g style="fill:#808080;" transform="translate(187.233062 293.909432)scale(0.1 -0.1)">
     <use xlink:href="#DejaVuSans-118"/>
     <use x="59.179688" xlink:href="#DejaVuSans-50"/>
     <use x="122.802734" xlink:href="#DejaVuSans-46"/>
     <use x="154.589844" xlink:href="#DejaVuSans-52"/>
    </g>
   </g>
  </g>
 </g>
 <defs>
  <clipPath id="pa5a5cbc9f0">
   <rect height="295.488" width="281.088" x="57.6" y="3.456"/>
  </clipPath>
 </defs>
</svg>
