<?xml version="1.0" encoding="utf-8" standalone="no"?>
<!DOCTYPE svg PUBLIC "-//W3C//DTD SVG 1.1//EN"
  "http://www.w3.org/Graphics/SVG/1.1/DTD/svg11.dtd">
<!-- Created with matplotlib (https://matplotlib.org/) -->
<svg height="345.6pt" version="1.1" viewBox="0 0 460.8 345.6" width="460.8pt" xmlns="http://www.w3.org/2000/svg" xmlns:xlink="http://www.w3.org/1999/xlink">
 <metadata>
  <rdf:RDF xmlns:cc="http://creativecommons.org/ns#" xmlns:dc="http://purl.org/dc/elements/1.1/" xmlns:rdf="http://www.w3.org/1999/02/22-rdf-syntax-ns#">
   <cc:Work>
    <dc:type rdf:resource="http://purl.org/dc/dcmitype/StillImage"/>
    <dc:date>2021-08-04T15:02:40.615110</dc:date>
    <dc:format>image/svg+xml</dc:format>
    <dc:creator>
     <cc:Agent>
      <dc:title>Matplotlib v3.3.1, https://matplotlib.org/</dc:title>
     </cc:Agent>
    </dc:creator>
   </cc:Work>
  </rdf:RDF>
 </metadata>
 <defs>
  <style type="text/css">*{stroke-linecap:butt;stroke-linejoin:round;}</style>
 </defs>
 <g id="figure_1">
  <g id="patch_1">
   <path d="M 0 345.6 
L 460.8 345.6 
L 460.8 0 
L 0 0 
z
" style="fill:#ffffff;"/>
  </g>
  <g id="axes_1">
   <g id="patch_2">
    <path d="M 57.6 298.944 
L 338.688 298.944 
L 338.688 27.648 
L 57.6 27.648 
z
" style="fill:#ffffff;"/>
   </g>
   <g id="matplotlib.axis_1">
    <g id="xtick_1">
     <g id="line2d_1">
      <path clip-path="url(#pdf9b5fea7e)" d="M 57.6 298.944 
L 57.6 27.648 
" style="fill:none;stroke:#b0b0b0;stroke-linecap:square;stroke-width:0.8;"/>
     </g>
     <g id="line2d_2">
      <defs>
       <path d="M 0 0 
L 0 3.5 
" id="m12b30a09e8" style="stroke:#000000;stroke-width:0.8;"/>
      </defs>
      <g>
       <use style="stroke:#000000;stroke-width:0.8;" x="57.6" xlink:href="#m12b30a09e8" y="298.944"/>
      </g>
     </g>
     <g id="text_1">
      <!-- 0 -->
      <g transform="translate(51.2375 321.140875)scale(0.2 -0.2)">
       <defs>
        <path d="M 31.78125 66.40625 
Q 24.171875 66.40625 20.328125 58.90625 
Q 16.5 51.421875 16.5 36.375 
Q 16.5 21.390625 20.328125 13.890625 
Q 24.171875 6.390625 31.78125 6.390625 
Q 39.453125 6.390625 43.28125 13.890625 
Q 47.125 21.390625 47.125 36.375 
Q 47.125 51.421875 43.28125 58.90625 
Q 39.453125 66.40625 31.78125 66.40625 
z
M 31.78125 74.21875 
Q 44.046875 74.21875 50.515625 64.515625 
Q 56.984375 54.828125 56.984375 36.375 
Q 56.984375 17.96875 50.515625 8.265625 
Q 44.046875 -1.421875 31.78125 -1.421875 
Q 19.53125 -1.421875 13.0625 8.265625 
Q 6.59375 17.96875 6.59375 36.375 
Q 6.59375 54.828125 13.0625 64.515625 
Q 19.53125 74.21875 31.78125 74.21875 
z
" id="DejaVuSans-48"/>
       </defs>
       <use xlink:href="#DejaVuSans-48"/>
      </g>
     </g>
    </g>
    <g id="xtick_2">
     <g id="line2d_3">
      <path clip-path="url(#pdf9b5fea7e)" d="M 137.910857 298.944 
L 137.910857 27.648 
" style="fill:none;stroke:#b0b0b0;stroke-linecap:square;stroke-width:0.8;"/>
     </g>
     <g id="line2d_4">
      <g>
       <use style="stroke:#000000;stroke-width:0.8;" x="137.910857" xlink:href="#m12b30a09e8" y="298.944"/>
      </g>
     </g>
     <g id="text_2">
      <!-- 2 -->
      <g transform="translate(131.548357 321.140875)scale(0.2 -0.2)">
       <defs>
        <path d="M 19.1875 8.296875 
L 53.609375 8.296875 
L 53.609375 0 
L 7.328125 0 
L 7.328125 8.296875 
Q 12.9375 14.109375 22.625 23.890625 
Q 32.328125 33.6875 34.8125 36.53125 
Q 39.546875 41.84375 41.421875 45.53125 
Q 43.3125 49.21875 43.3125 52.78125 
Q 43.3125 58.59375 39.234375 62.25 
Q 35.15625 65.921875 28.609375 65.921875 
Q 23.96875 65.921875 18.8125 64.3125 
Q 13.671875 62.703125 7.8125 59.421875 
L 7.8125 69.390625 
Q 13.765625 71.78125 18.9375 73 
Q 24.125 74.21875 28.421875 74.21875 
Q 39.75 74.21875 46.484375 68.546875 
Q 53.21875 62.890625 53.21875 53.421875 
Q 53.21875 48.921875 51.53125 44.890625 
Q 49.859375 40.875 45.40625 35.40625 
Q 44.1875 33.984375 37.640625 27.21875 
Q 31.109375 20.453125 19.1875 8.296875 
z
" id="DejaVuSans-50"/>
       </defs>
       <use xlink:href="#DejaVuSans-50"/>
      </g>
     </g>
    </g>
    <g id="xtick_3">
     <g id="line2d_5">
      <path clip-path="url(#pdf9b5fea7e)" d="M 218.221714 298.944 
L 218.221714 27.648 
" style="fill:none;stroke:#b0b0b0;stroke-linecap:square;stroke-width:0.8;"/>
     </g>
     <g id="line2d_6">
      <g>
       <use style="stroke:#000000;stroke-width:0.8;" x="218.221714" xlink:href="#m12b30a09e8" y="298.944"/>
      </g>
     </g>
     <g id="text_3">
      <!-- 4 -->
      <g transform="translate(211.859214 321.140875)scale(0.2 -0.2)">
       <defs>
        <path d="M 37.796875 64.3125 
L 12.890625 25.390625 
L 37.796875 25.390625 
z
M 35.203125 72.90625 
L 47.609375 72.90625 
L 47.609375 25.390625 
L 58.015625 25.390625 
L 58.015625 17.1875 
L 47.609375 17.1875 
L 47.609375 0 
L 37.796875 0 
L 37.796875 17.1875 
L 4.890625 17.1875 
L 4.890625 26.703125 
z
" id="DejaVuSans-52"/>
       </defs>
       <use xlink:href="#DejaVuSans-52"/>
      </g>
     </g>
    </g>
    <g id="xtick_4">
     <g id="line2d_7">
      <path clip-path="url(#pdf9b5fea7e)" d="M 298.532571 298.944 
L 298.532571 27.648 
" style="fill:none;stroke:#b0b0b0;stroke-linecap:square;stroke-width:0.8;"/>
     </g>
     <g id="line2d_8">
      <g>
       <use style="stroke:#000000;stroke-width:0.8;" x="298.532571" xlink:href="#m12b30a09e8" y="298.944"/>
      </g>
     </g>
     <g id="text_4">
      <!-- 6 -->
      <g transform="translate(292.170071 321.140875)scale(0.2 -0.2)">
       <defs>
        <path d="M 33.015625 40.375 
Q 26.375 40.375 22.484375 35.828125 
Q 18.609375 31.296875 18.609375 23.390625 
Q 18.609375 15.53125 22.484375 10.953125 
Q 26.375 6.390625 33.015625 6.390625 
Q 39.65625 6.390625 43.53125 10.953125 
Q 47.40625 15.53125 47.40625 23.390625 
Q 47.40625 31.296875 43.53125 35.828125 
Q 39.65625 40.375 33.015625 40.375 
z
M 52.59375 71.296875 
L 52.59375 62.3125 
Q 48.875 64.0625 45.09375 64.984375 
Q 41.3125 65.921875 37.59375 65.921875 
Q 27.828125 65.921875 22.671875 59.328125 
Q 17.53125 52.734375 16.796875 39.40625 
Q 19.671875 43.65625 24.015625 45.921875 
Q 28.375 48.1875 33.59375 48.1875 
Q 44.578125 48.1875 50.953125 41.515625 
Q 57.328125 34.859375 57.328125 23.390625 
Q 57.328125 12.15625 50.6875 5.359375 
Q 44.046875 -1.421875 33.015625 -1.421875 
Q 20.359375 -1.421875 13.671875 8.265625 
Q 6.984375 17.96875 6.984375 36.375 
Q 6.984375 53.65625 15.1875 63.9375 
Q 23.390625 74.21875 37.203125 74.21875 
Q 40.921875 74.21875 44.703125 73.484375 
Q 48.484375 72.75 52.59375 71.296875 
z
" id="DejaVuSans-54"/>
       </defs>
       <use xlink:href="#DejaVuSans-54"/>
      </g>
     </g>
    </g>
    <g id="xtick_5">
     <g id="line2d_9">
      <path clip-path="url(#pdf9b5fea7e)" d="M 97.755429 298.944 
L 97.755429 27.648 
" style="fill:none;stroke:#b0b0b0;stroke-linecap:square;stroke-width:0.8;"/>
     </g>
     <g id="line2d_10">
      <defs>
       <path d="M 0 0 
L 0 2 
" id="mf9353936bd" style="stroke:#000000;stroke-width:0.6;"/>
      </defs>
      <g>
       <use style="stroke:#000000;stroke-width:0.6;" x="97.755429" xlink:href="#mf9353936bd" y="298.944"/>
      </g>
     </g>
    </g>
    <g id="xtick_6">
     <g id="line2d_11">
      <path clip-path="url(#pdf9b5fea7e)" d="M 178.066286 298.944 
L 178.066286 27.648 
" style="fill:none;stroke:#b0b0b0;stroke-linecap:square;stroke-width:0.8;"/>
     </g>
     <g id="line2d_12">
      <g>
       <use style="stroke:#000000;stroke-width:0.6;" x="178.066286" xlink:href="#mf9353936bd" y="298.944"/>
      </g>
     </g>
    </g>
    <g id="xtick_7">
     <g id="line2d_13">
      <path clip-path="url(#pdf9b5fea7e)" d="M 258.377143 298.944 
L 258.377143 27.648 
" style="fill:none;stroke:#b0b0b0;stroke-linecap:square;stroke-width:0.8;"/>
     </g>
     <g id="line2d_14">
      <g>
       <use style="stroke:#000000;stroke-width:0.6;" x="258.377143" xlink:href="#mf9353936bd" y="298.944"/>
      </g>
     </g>
    </g>
    <g id="xtick_8">
     <g id="line2d_15">
      <path clip-path="url(#pdf9b5fea7e)" d="M 338.688 298.944 
L 338.688 27.648 
" style="fill:none;stroke:#b0b0b0;stroke-linecap:square;stroke-width:0.8;"/>
     </g>
     <g id="line2d_16">
      <g>
       <use style="stroke:#000000;stroke-width:0.6;" x="338.688" xlink:href="#mf9353936bd" y="298.944"/>
      </g>
     </g>
    </g>
    <g id="text_5">
     <!-- log10(# f-evals / dimension) -->
     <g transform="translate(77.764078 342.217594)scale(0.17 -0.17)">
      <defs>
       <path d="M 9.421875 75.984375 
L 18.40625 75.984375 
L 18.40625 0 
L 9.421875 0 
z
" id="DejaVuSans-108"/>
       <path d="M 30.609375 48.390625 
Q 23.390625 48.390625 19.1875 42.75 
Q 14.984375 37.109375 14.984375 27.296875 
Q 14.984375 17.484375 19.15625 11.84375 
Q 23.34375 6.203125 30.609375 6.203125 
Q 37.796875 6.203125 41.984375 11.859375 
Q 46.1875 17.53125 46.1875 27.296875 
Q 46.1875 37.015625 41.984375 42.703125 
Q 37.796875 48.390625 30.609375 48.390625 
z
M 30.609375 56 
Q 42.328125 56 49.015625 48.375 
Q 55.71875 40.765625 55.71875 27.296875 
Q 55.71875 13.875 49.015625 6.21875 
Q 42.328125 -1.421875 30.609375 -1.421875 
Q 18.84375 -1.421875 12.171875 6.21875 
Q 5.515625 13.875 5.515625 27.296875 
Q 5.515625 40.765625 12.171875 48.375 
Q 18.84375 56 30.609375 56 
z
" id="DejaVuSans-111"/>
       <path d="M 45.40625 27.984375 
Q 45.40625 37.75 41.375 43.109375 
Q 37.359375 48.484375 30.078125 48.484375 
Q 22.859375 48.484375 18.828125 43.109375 
Q 14.796875 37.75 14.796875 27.984375 
Q 14.796875 18.265625 18.828125 12.890625 
Q 22.859375 7.515625 30.078125 7.515625 
Q 37.359375 7.515625 41.375 12.890625 
Q 45.40625 18.265625 45.40625 27.984375 
z
M 54.390625 6.78125 
Q 54.390625 -7.171875 48.1875 -13.984375 
Q 42 -20.796875 29.203125 -20.796875 
Q 24.46875 -20.796875 20.265625 -20.09375 
Q 16.0625 -19.390625 12.109375 -17.921875 
L 12.109375 -9.1875 
Q 16.0625 -11.328125 19.921875 -12.34375 
Q 23.78125 -13.375 27.78125 -13.375 
Q 36.625 -13.375 41.015625 -8.765625 
Q 45.40625 -4.15625 45.40625 5.171875 
L 45.40625 9.625 
Q 42.625 4.78125 38.28125 2.390625 
Q 33.9375 0 27.875 0 
Q 17.828125 0 11.671875 7.65625 
Q 5.515625 15.328125 5.515625 27.984375 
Q 5.515625 40.671875 11.671875 48.328125 
Q 17.828125 56 27.875 56 
Q 33.9375 56 38.28125 53.609375 
Q 42.625 51.21875 45.40625 46.390625 
L 45.40625 54.6875 
L 54.390625 54.6875 
z
" id="DejaVuSans-103"/>
       <path d="M 12.40625 8.296875 
L 28.515625 8.296875 
L 28.515625 63.921875 
L 10.984375 60.40625 
L 10.984375 69.390625 
L 28.421875 72.90625 
L 38.28125 72.90625 
L 38.28125 8.296875 
L 54.390625 8.296875 
L 54.390625 0 
L 12.40625 0 
z
" id="DejaVuSans-49"/>
       <path d="M 31 75.875 
Q 24.46875 64.65625 21.28125 53.65625 
Q 18.109375 42.671875 18.109375 31.390625 
Q 18.109375 20.125 21.3125 9.0625 
Q 24.515625 -2 31 -13.1875 
L 23.1875 -13.1875 
Q 15.875 -1.703125 12.234375 9.375 
Q 8.59375 20.453125 8.59375 31.390625 
Q 8.59375 42.28125 12.203125 53.3125 
Q 15.828125 64.359375 23.1875 75.875 
z
" id="DejaVuSans-40"/>
       <path d="M 51.125 44 
L 36.921875 44 
L 32.8125 27.6875 
L 47.125 27.6875 
z
M 43.796875 71.78125 
L 38.71875 51.515625 
L 52.984375 51.515625 
L 58.109375 71.78125 
L 65.921875 71.78125 
L 60.890625 51.515625 
L 76.125 51.515625 
L 76.125 44 
L 58.984375 44 
L 54.984375 27.6875 
L 70.515625 27.6875 
L 70.515625 20.21875 
L 53.078125 20.21875 
L 48 0 
L 40.1875 0 
L 45.21875 20.21875 
L 30.90625 20.21875 
L 25.875 0 
L 18.015625 0 
L 23.09375 20.21875 
L 7.71875 20.21875 
L 7.71875 27.6875 
L 24.90625 27.6875 
L 29 44 
L 13.28125 44 
L 13.28125 51.515625 
L 30.90625 51.515625 
L 35.890625 71.78125 
z
" id="DejaVuSans-35"/>
       <path id="DejaVuSans-32"/>
       <path d="M 37.109375 75.984375 
L 37.109375 68.5 
L 28.515625 68.5 
Q 23.6875 68.5 21.796875 66.546875 
Q 19.921875 64.59375 19.921875 59.515625 
L 19.921875 54.6875 
L 34.71875 54.6875 
L 34.71875 47.703125 
L 19.921875 47.703125 
L 19.921875 0 
L 10.890625 0 
L 10.890625 47.703125 
L 2.296875 47.703125 
L 2.296875 54.6875 
L 10.890625 54.6875 
L 10.890625 58.5 
Q 10.890625 67.625 15.140625 71.796875 
Q 19.390625 75.984375 28.609375 75.984375 
z
" id="DejaVuSans-102"/>
       <path d="M 4.890625 31.390625 
L 31.203125 31.390625 
L 31.203125 23.390625 
L 4.890625 23.390625 
z
" id="DejaVuSans-45"/>
       <path d="M 56.203125 29.59375 
L 56.203125 25.203125 
L 14.890625 25.203125 
Q 15.484375 15.921875 20.484375 11.0625 
Q 25.484375 6.203125 34.421875 6.203125 
Q 39.59375 6.203125 44.453125 7.46875 
Q 49.3125 8.734375 54.109375 11.28125 
L 54.109375 2.78125 
Q 49.265625 0.734375 44.1875 -0.34375 
Q 39.109375 -1.421875 33.890625 -1.421875 
Q 20.796875 -1.421875 13.15625 6.1875 
Q 5.515625 13.8125 5.515625 26.8125 
Q 5.515625 40.234375 12.765625 48.109375 
Q 20.015625 56 32.328125 56 
Q 43.359375 56 49.78125 48.890625 
Q 56.203125 41.796875 56.203125 29.59375 
z
M 47.21875 32.234375 
Q 47.125 39.59375 43.09375 43.984375 
Q 39.0625 48.390625 32.421875 48.390625 
Q 24.90625 48.390625 20.390625 44.140625 
Q 15.875 39.890625 15.1875 32.171875 
z
" id="DejaVuSans-101"/>
       <path d="M 2.984375 54.6875 
L 12.5 54.6875 
L 29.59375 8.796875 
L 46.6875 54.6875 
L 56.203125 54.6875 
L 35.6875 0 
L 23.484375 0 
z
" id="DejaVuSans-118"/>
       <path d="M 34.28125 27.484375 
Q 23.390625 27.484375 19.1875 25 
Q 14.984375 22.515625 14.984375 16.5 
Q 14.984375 11.71875 18.140625 8.90625 
Q 21.296875 6.109375 26.703125 6.109375 
Q 34.1875 6.109375 38.703125 11.40625 
Q 43.21875 16.703125 43.21875 25.484375 
L 43.21875 27.484375 
z
M 52.203125 31.203125 
L 52.203125 0 
L 43.21875 0 
L 43.21875 8.296875 
Q 40.140625 3.328125 35.546875 0.953125 
Q 30.953125 -1.421875 24.3125 -1.421875 
Q 15.921875 -1.421875 10.953125 3.296875 
Q 6 8.015625 6 15.921875 
Q 6 25.140625 12.171875 29.828125 
Q 18.359375 34.515625 30.609375 34.515625 
L 43.21875 34.515625 
L 43.21875 35.40625 
Q 43.21875 41.609375 39.140625 45 
Q 35.0625 48.390625 27.6875 48.390625 
Q 23 48.390625 18.546875 47.265625 
Q 14.109375 46.140625 10.015625 43.890625 
L 10.015625 52.203125 
Q 14.9375 54.109375 19.578125 55.046875 
Q 24.21875 56 28.609375 56 
Q 40.484375 56 46.34375 49.84375 
Q 52.203125 43.703125 52.203125 31.203125 
z
" id="DejaVuSans-97"/>
       <path d="M 44.28125 53.078125 
L 44.28125 44.578125 
Q 40.484375 46.53125 36.375 47.5 
Q 32.28125 48.484375 27.875 48.484375 
Q 21.1875 48.484375 17.84375 46.4375 
Q 14.5 44.390625 14.5 40.28125 
Q 14.5 37.15625 16.890625 35.375 
Q 19.28125 33.59375 26.515625 31.984375 
L 29.59375 31.296875 
Q 39.15625 29.25 43.1875 25.515625 
Q 47.21875 21.78125 47.21875 15.09375 
Q 47.21875 7.46875 41.1875 3.015625 
Q 35.15625 -1.421875 24.609375 -1.421875 
Q 20.21875 -1.421875 15.453125 -0.5625 
Q 10.6875 0.296875 5.421875 2 
L 5.421875 11.28125 
Q 10.40625 8.6875 15.234375 7.390625 
Q 20.0625 6.109375 24.8125 6.109375 
Q 31.15625 6.109375 34.5625 8.28125 
Q 37.984375 10.453125 37.984375 14.40625 
Q 37.984375 18.0625 35.515625 20.015625 
Q 33.0625 21.96875 24.703125 23.78125 
L 21.578125 24.515625 
Q 13.234375 26.265625 9.515625 29.90625 
Q 5.8125 33.546875 5.8125 39.890625 
Q 5.8125 47.609375 11.28125 51.796875 
Q 16.75 56 26.8125 56 
Q 31.78125 56 36.171875 55.265625 
Q 40.578125 54.546875 44.28125 53.078125 
z
" id="DejaVuSans-115"/>
       <path d="M 25.390625 72.90625 
L 33.6875 72.90625 
L 8.296875 -9.28125 
L 0 -9.28125 
z
" id="DejaVuSans-47"/>
       <path d="M 45.40625 46.390625 
L 45.40625 75.984375 
L 54.390625 75.984375 
L 54.390625 0 
L 45.40625 0 
L 45.40625 8.203125 
Q 42.578125 3.328125 38.25 0.953125 
Q 33.9375 -1.421875 27.875 -1.421875 
Q 17.96875 -1.421875 11.734375 6.484375 
Q 5.515625 14.40625 5.515625 27.296875 
Q 5.515625 40.1875 11.734375 48.09375 
Q 17.96875 56 27.875 56 
Q 33.9375 56 38.25 53.625 
Q 42.578125 51.265625 45.40625 46.390625 
z
M 14.796875 27.296875 
Q 14.796875 17.390625 18.875 11.75 
Q 22.953125 6.109375 30.078125 6.109375 
Q 37.203125 6.109375 41.296875 11.75 
Q 45.40625 17.390625 45.40625 27.296875 
Q 45.40625 37.203125 41.296875 42.84375 
Q 37.203125 48.484375 30.078125 48.484375 
Q 22.953125 48.484375 18.875 42.84375 
Q 14.796875 37.203125 14.796875 27.296875 
z
" id="DejaVuSans-100"/>
       <path d="M 9.421875 54.6875 
L 18.40625 54.6875 
L 18.40625 0 
L 9.421875 0 
z
M 9.421875 75.984375 
L 18.40625 75.984375 
L 18.40625 64.59375 
L 9.421875 64.59375 
z
" id="DejaVuSans-105"/>
       <path d="M 52 44.1875 
Q 55.375 50.25 60.0625 53.125 
Q 64.75 56 71.09375 56 
Q 79.640625 56 84.28125 50.015625 
Q 88.921875 44.046875 88.921875 33.015625 
L 88.921875 0 
L 79.890625 0 
L 79.890625 32.71875 
Q 79.890625 40.578125 77.09375 44.375 
Q 74.3125 48.1875 68.609375 48.1875 
Q 61.625 48.1875 57.5625 43.546875 
Q 53.515625 38.921875 53.515625 30.90625 
L 53.515625 0 
L 44.484375 0 
L 44.484375 32.71875 
Q 44.484375 40.625 41.703125 44.40625 
Q 38.921875 48.1875 33.109375 48.1875 
Q 26.21875 48.1875 22.15625 43.53125 
Q 18.109375 38.875 18.109375 30.90625 
L 18.109375 0 
L 9.078125 0 
L 9.078125 54.6875 
L 18.109375 54.6875 
L 18.109375 46.1875 
Q 21.1875 51.21875 25.484375 53.609375 
Q 29.78125 56 35.6875 56 
Q 41.65625 56 45.828125 52.96875 
Q 50 49.953125 52 44.1875 
z
" id="DejaVuSans-109"/>
       <path d="M 54.890625 33.015625 
L 54.890625 0 
L 45.90625 0 
L 45.90625 32.71875 
Q 45.90625 40.484375 42.875 44.328125 
Q 39.84375 48.1875 33.796875 48.1875 
Q 26.515625 48.1875 22.3125 43.546875 
Q 18.109375 38.921875 18.109375 30.90625 
L 18.109375 0 
L 9.078125 0 
L 9.078125 54.6875 
L 18.109375 54.6875 
L 18.109375 46.1875 
Q 21.34375 51.125 25.703125 53.5625 
Q 30.078125 56 35.796875 56 
Q 45.21875 56 50.046875 50.171875 
Q 54.890625 44.34375 54.890625 33.015625 
z
" id="DejaVuSans-110"/>
       <path d="M 8.015625 75.875 
L 15.828125 75.875 
Q 23.140625 64.359375 26.78125 53.3125 
Q 30.421875 42.28125 30.421875 31.390625 
Q 30.421875 20.453125 26.78125 9.375 
Q 23.140625 -1.703125 15.828125 -13.1875 
L 8.015625 -13.1875 
Q 14.5 -2 17.703125 9.0625 
Q 20.90625 20.125 20.90625 31.390625 
Q 20.90625 42.671875 17.703125 53.65625 
Q 14.5 64.65625 8.015625 75.875 
z
" id="DejaVuSans-41"/>
      </defs>
      <use xlink:href="#DejaVuSans-108"/>
      <use x="27.783203" xlink:href="#DejaVuSans-111"/>
      <use x="88.964844" xlink:href="#DejaVuSans-103"/>
      <use x="152.441406" xlink:href="#DejaVuSans-49"/>
      <use x="216.064453" xlink:href="#DejaVuSans-48"/>
      <use x="279.6875" xlink:href="#DejaVuSans-40"/>
      <use x="318.701172" xlink:href="#DejaVuSans-35"/>
      <use x="402.490234" xlink:href="#DejaVuSans-32"/>
      <use x="434.277344" xlink:href="#DejaVuSans-102"/>
      <use x="463.982422" xlink:href="#DejaVuSans-45"/>
      <use x="500.066406" xlink:href="#DejaVuSans-101"/>
      <use x="561.589844" xlink:href="#DejaVuSans-118"/>
      <use x="620.769531" xlink:href="#DejaVuSans-97"/>
      <use x="682.048828" xlink:href="#DejaVuSans-108"/>
      <use x="709.832031" xlink:href="#DejaVuSans-115"/>
      <use x="761.931641" xlink:href="#DejaVuSans-32"/>
      <use x="793.71875" xlink:href="#DejaVuSans-47"/>
      <use x="827.410156" xlink:href="#DejaVuSans-32"/>
      <use x="859.197266" xlink:href="#DejaVuSans-100"/>
      <use x="922.673828" xlink:href="#DejaVuSans-105"/>
      <use x="950.457031" xlink:href="#DejaVuSans-109"/>
      <use x="1047.869141" xlink:href="#DejaVuSans-101"/>
      <use x="1109.392578" xlink:href="#DejaVuSans-110"/>
      <use x="1172.771484" xlink:href="#DejaVuSans-115"/>
      <use x="1224.871094" xlink:href="#DejaVuSans-105"/>
      <use x="1252.654297" xlink:href="#DejaVuSans-111"/>
      <use x="1313.835938" xlink:href="#DejaVuSans-110"/>
      <use x="1377.214844" xlink:href="#DejaVuSans-41"/>
     </g>
    </g>
   </g>
   <g id="matplotlib.axis_2">
    <g id="ytick_1">
     <g id="line2d_17">
      <path clip-path="url(#pdf9b5fea7e)" d="M 57.6 298.944 
L 338.688 298.944 
" style="fill:none;stroke:#b0b0b0;stroke-linecap:square;stroke-width:0.8;"/>
     </g>
     <g id="line2d_18">
      <defs>
       <path d="M 0 0 
L -3.5 0 
" id="mce381a2867" style="stroke:#000000;stroke-width:0.8;"/>
      </defs>
      <g>
       <use style="stroke:#000000;stroke-width:0.8;" x="57.6" xlink:href="#mce381a2867" y="298.944"/>
      </g>
     </g>
     <g id="text_6">
      <!-- 0.0 -->
      <g transform="translate(25.155 305.02275)scale(0.16 -0.16)">
       <defs>
        <path d="M 10.6875 12.40625 
L 21 12.40625 
L 21 0 
L 10.6875 0 
z
" id="DejaVuSans-46"/>
       </defs>
       <use xlink:href="#DejaVuSans-48"/>
       <use x="63.623047" xlink:href="#DejaVuSans-46"/>
       <use x="95.410156" xlink:href="#DejaVuSans-48"/>
      </g>
     </g>
    </g>
    <g id="ytick_2">
     <g id="line2d_19">
      <path clip-path="url(#pdf9b5fea7e)" d="M 57.6 245.22202 
L 338.688 245.22202 
" style="fill:none;stroke:#b0b0b0;stroke-linecap:square;stroke-width:0.8;"/>
     </g>
     <g id="line2d_20">
      <g>
       <use style="stroke:#000000;stroke-width:0.8;" x="57.6" xlink:href="#mce381a2867" y="245.22202"/>
      </g>
     </g>
     <g id="text_7">
      <!-- 0.2 -->
      <g transform="translate(25.155 251.30077)scale(0.16 -0.16)">
       <use xlink:href="#DejaVuSans-48"/>
       <use x="63.623047" xlink:href="#DejaVuSans-46"/>
       <use x="95.410156" xlink:href="#DejaVuSans-50"/>
      </g>
     </g>
    </g>
    <g id="ytick_3">
     <g id="line2d_21">
      <path clip-path="url(#pdf9b5fea7e)" d="M 57.6 191.50004 
L 338.688 191.50004 
" style="fill:none;stroke:#b0b0b0;stroke-linecap:square;stroke-width:0.8;"/>
     </g>
     <g id="line2d_22">
      <g>
       <use style="stroke:#000000;stroke-width:0.8;" x="57.6" xlink:href="#mce381a2867" y="191.50004"/>
      </g>
     </g>
     <g id="text_8">
      <!-- 0.4 -->
      <g transform="translate(25.155 197.57879)scale(0.16 -0.16)">
       <use xlink:href="#DejaVuSans-48"/>
       <use x="63.623047" xlink:href="#DejaVuSans-46"/>
       <use x="95.410156" xlink:href="#DejaVuSans-52"/>
      </g>
     </g>
    </g>
    <g id="ytick_4">
     <g id="line2d_23">
      <path clip-path="url(#pdf9b5fea7e)" d="M 57.6 137.778059 
L 338.688 137.778059 
" style="fill:none;stroke:#b0b0b0;stroke-linecap:square;stroke-width:0.8;"/>
     </g>
     <g id="line2d_24">
      <g>
       <use style="stroke:#000000;stroke-width:0.8;" x="57.6" xlink:href="#mce381a2867" y="137.778059"/>
      </g>
     </g>
     <g id="text_9">
      <!-- 0.6 -->
      <g transform="translate(25.155 143.856809)scale(0.16 -0.16)">
       <use xlink:href="#DejaVuSans-48"/>
       <use x="63.623047" xlink:href="#DejaVuSans-46"/>
       <use x="95.410156" xlink:href="#DejaVuSans-54"/>
      </g>
     </g>
    </g>
    <g id="ytick_5">
     <g id="line2d_25">
      <path clip-path="url(#pdf9b5fea7e)" d="M 57.6 84.056079 
L 338.688 84.056079 
" style="fill:none;stroke:#b0b0b0;stroke-linecap:square;stroke-width:0.8;"/>
     </g>
     <g id="line2d_26">
      <g>
       <use style="stroke:#000000;stroke-width:0.8;" x="57.6" xlink:href="#mce381a2867" y="84.056079"/>
      </g>
     </g>
     <g id="text_10">
      <!-- 0.8 -->
      <g transform="translate(25.155 90.134829)scale(0.16 -0.16)">
       <defs>
        <path d="M 31.78125 34.625 
Q 24.75 34.625 20.71875 30.859375 
Q 16.703125 27.09375 16.703125 20.515625 
Q 16.703125 13.921875 20.71875 10.15625 
Q 24.75 6.390625 31.78125 6.390625 
Q 38.8125 6.390625 42.859375 10.171875 
Q 46.921875 13.96875 46.921875 20.515625 
Q 46.921875 27.09375 42.890625 30.859375 
Q 38.875 34.625 31.78125 34.625 
z
M 21.921875 38.8125 
Q 15.578125 40.375 12.03125 44.71875 
Q 8.5 49.078125 8.5 55.328125 
Q 8.5 64.0625 14.71875 69.140625 
Q 20.953125 74.21875 31.78125 74.21875 
Q 42.671875 74.21875 48.875 69.140625 
Q 55.078125 64.0625 55.078125 55.328125 
Q 55.078125 49.078125 51.53125 44.71875 
Q 48 40.375 41.703125 38.8125 
Q 48.828125 37.15625 52.796875 32.3125 
Q 56.78125 27.484375 56.78125 20.515625 
Q 56.78125 9.90625 50.3125 4.234375 
Q 43.84375 -1.421875 31.78125 -1.421875 
Q 19.734375 -1.421875 13.25 4.234375 
Q 6.78125 9.90625 6.78125 20.515625 
Q 6.78125 27.484375 10.78125 32.3125 
Q 14.796875 37.15625 21.921875 38.8125 
z
M 18.3125 54.390625 
Q 18.3125 48.734375 21.84375 45.5625 
Q 25.390625 42.390625 31.78125 42.390625 
Q 38.140625 42.390625 41.71875 45.5625 
Q 45.3125 48.734375 45.3125 54.390625 
Q 45.3125 60.0625 41.71875 63.234375 
Q 38.140625 66.40625 31.78125 66.40625 
Q 25.390625 66.40625 21.84375 63.234375 
Q 18.3125 60.0625 18.3125 54.390625 
z
" id="DejaVuSans-56"/>
       </defs>
       <use xlink:href="#DejaVuSans-48"/>
       <use x="63.623047" xlink:href="#DejaVuSans-46"/>
       <use x="95.410156" xlink:href="#DejaVuSans-56"/>
      </g>
     </g>
    </g>
    <g id="ytick_6">
     <g id="line2d_27">
      <path clip-path="url(#pdf9b5fea7e)" d="M 57.6 30.334099 
L 338.688 30.334099 
" style="fill:none;stroke:#b0b0b0;stroke-linecap:square;stroke-width:0.8;"/>
     </g>
     <g id="line2d_28">
      <g>
       <use style="stroke:#000000;stroke-width:0.8;" x="57.6" xlink:href="#mce381a2867" y="30.334099"/>
      </g>
     </g>
     <g id="text_11">
      <!-- 1.0 -->
      <g transform="translate(25.155 36.412849)scale(0.16 -0.16)">
       <use xlink:href="#DejaVuSans-49"/>
       <use x="63.623047" xlink:href="#DejaVuSans-46"/>
       <use x="95.410156" xlink:href="#DejaVuSans-48"/>
      </g>
     </g>
    </g>
    <g id="text_12">
     <!-- Fraction of function,target pairs -->
     <g transform="translate(17.619531 297.681)rotate(-90)scale(0.17 -0.17)">
      <defs>
       <path d="M 9.8125 72.90625 
L 51.703125 72.90625 
L 51.703125 64.59375 
L 19.671875 64.59375 
L 19.671875 43.109375 
L 48.578125 43.109375 
L 48.578125 34.8125 
L 19.671875 34.8125 
L 19.671875 0 
L 9.8125 0 
z
" id="DejaVuSans-70"/>
       <path d="M 41.109375 46.296875 
Q 39.59375 47.171875 37.8125 47.578125 
Q 36.03125 48 33.890625 48 
Q 26.265625 48 22.1875 43.046875 
Q 18.109375 38.09375 18.109375 28.8125 
L 18.109375 0 
L 9.078125 0 
L 9.078125 54.6875 
L 18.109375 54.6875 
L 18.109375 46.1875 
Q 20.953125 51.171875 25.484375 53.578125 
Q 30.03125 56 36.53125 56 
Q 37.453125 56 38.578125 55.875 
Q 39.703125 55.765625 41.0625 55.515625 
z
" id="DejaVuSans-114"/>
       <path d="M 48.78125 52.59375 
L 48.78125 44.1875 
Q 44.96875 46.296875 41.140625 47.34375 
Q 37.3125 48.390625 33.40625 48.390625 
Q 24.65625 48.390625 19.8125 42.84375 
Q 14.984375 37.3125 14.984375 27.296875 
Q 14.984375 17.28125 19.8125 11.734375 
Q 24.65625 6.203125 33.40625 6.203125 
Q 37.3125 6.203125 41.140625 7.25 
Q 44.96875 8.296875 48.78125 10.40625 
L 48.78125 2.09375 
Q 45.015625 0.34375 40.984375 -0.53125 
Q 36.96875 -1.421875 32.421875 -1.421875 
Q 20.0625 -1.421875 12.78125 6.34375 
Q 5.515625 14.109375 5.515625 27.296875 
Q 5.515625 40.671875 12.859375 48.328125 
Q 20.21875 56 33.015625 56 
Q 37.15625 56 41.109375 55.140625 
Q 45.0625 54.296875 48.78125 52.59375 
z
" id="DejaVuSans-99"/>
       <path d="M 18.3125 70.21875 
L 18.3125 54.6875 
L 36.8125 54.6875 
L 36.8125 47.703125 
L 18.3125 47.703125 
L 18.3125 18.015625 
Q 18.3125 11.328125 20.140625 9.421875 
Q 21.96875 7.515625 27.59375 7.515625 
L 36.8125 7.515625 
L 36.8125 0 
L 27.59375 0 
Q 17.1875 0 13.234375 3.875 
Q 9.28125 7.765625 9.28125 18.015625 
L 9.28125 47.703125 
L 2.6875 47.703125 
L 2.6875 54.6875 
L 9.28125 54.6875 
L 9.28125 70.21875 
z
" id="DejaVuSans-116"/>
       <path d="M 8.5 21.578125 
L 8.5 54.6875 
L 17.484375 54.6875 
L 17.484375 21.921875 
Q 17.484375 14.15625 20.5 10.265625 
Q 23.53125 6.390625 29.59375 6.390625 
Q 36.859375 6.390625 41.078125 11.03125 
Q 45.3125 15.671875 45.3125 23.6875 
L 45.3125 54.6875 
L 54.296875 54.6875 
L 54.296875 0 
L 45.3125 0 
L 45.3125 8.40625 
Q 42.046875 3.421875 37.71875 1 
Q 33.40625 -1.421875 27.6875 -1.421875 
Q 18.265625 -1.421875 13.375 4.4375 
Q 8.5 10.296875 8.5 21.578125 
z
M 31.109375 56 
z
" id="DejaVuSans-117"/>
       <path d="M 11.71875 12.40625 
L 22.015625 12.40625 
L 22.015625 4 
L 14.015625 -11.625 
L 7.71875 -11.625 
L 11.71875 4 
z
" id="DejaVuSans-44"/>
       <path d="M 18.109375 8.203125 
L 18.109375 -20.796875 
L 9.078125 -20.796875 
L 9.078125 54.6875 
L 18.109375 54.6875 
L 18.109375 46.390625 
Q 20.953125 51.265625 25.265625 53.625 
Q 29.59375 56 35.59375 56 
Q 45.5625 56 51.78125 48.09375 
Q 58.015625 40.1875 58.015625 27.296875 
Q 58.015625 14.40625 51.78125 6.484375 
Q 45.5625 -1.421875 35.59375 -1.421875 
Q 29.59375 -1.421875 25.265625 0.953125 
Q 20.953125 3.328125 18.109375 8.203125 
z
M 48.6875 27.296875 
Q 48.6875 37.203125 44.609375 42.84375 
Q 40.53125 48.484375 33.40625 48.484375 
Q 26.265625 48.484375 22.1875 42.84375 
Q 18.109375 37.203125 18.109375 27.296875 
Q 18.109375 17.390625 22.1875 11.75 
Q 26.265625 6.109375 33.40625 6.109375 
Q 40.53125 6.109375 44.609375 11.75 
Q 48.6875 17.390625 48.6875 27.296875 
z
" id="DejaVuSans-112"/>
      </defs>
      <use xlink:href="#DejaVuSans-70"/>
      <use x="50.269531" xlink:href="#DejaVuSans-114"/>
      <use x="91.382812" xlink:href="#DejaVuSans-97"/>
      <use x="152.662109" xlink:href="#DejaVuSans-99"/>
      <use x="207.642578" xlink:href="#DejaVuSans-116"/>
      <use x="246.851562" xlink:href="#DejaVuSans-105"/>
      <use x="274.634766" xlink:href="#DejaVuSans-111"/>
      <use x="335.816406" xlink:href="#DejaVuSans-110"/>
      <use x="399.195312" xlink:href="#DejaVuSans-32"/>
      <use x="430.982422" xlink:href="#DejaVuSans-111"/>
      <use x="492.164062" xlink:href="#DejaVuSans-102"/>
      <use x="527.369141" xlink:href="#DejaVuSans-32"/>
      <use x="559.15625" xlink:href="#DejaVuSans-102"/>
      <use x="594.361328" xlink:href="#DejaVuSans-117"/>
      <use x="657.740234" xlink:href="#DejaVuSans-110"/>
      <use x="721.119141" xlink:href="#DejaVuSans-99"/>
      <use x="776.099609" xlink:href="#DejaVuSans-116"/>
      <use x="815.308594" xlink:href="#DejaVuSans-105"/>
      <use x="843.091797" xlink:href="#DejaVuSans-111"/>
      <use x="904.273438" xlink:href="#DejaVuSans-110"/>
      <use x="967.652344" xlink:href="#DejaVuSans-44"/>
      <use x="999.439453" xlink:href="#DejaVuSans-116"/>
      <use x="1038.648438" xlink:href="#DejaVuSans-97"/>
      <use x="1099.927734" xlink:href="#DejaVuSans-114"/>
      <use x="1139.291016" xlink:href="#DejaVuSans-103"/>
      <use x="1202.767578" xlink:href="#DejaVuSans-101"/>
      <use x="1264.291016" xlink:href="#DejaVuSans-116"/>
      <use x="1303.5" xlink:href="#DejaVuSans-32"/>
      <use x="1335.287109" xlink:href="#DejaVuSans-112"/>
      <use x="1398.763672" xlink:href="#DejaVuSans-97"/>
      <use x="1460.042969" xlink:href="#DejaVuSans-105"/>
      <use x="1487.826172" xlink:href="#DejaVuSans-114"/>
      <use x="1528.939453" xlink:href="#DejaVuSans-115"/>
     </g>
    </g>
   </g>
   <g id="line2d_29">
    <defs>
     <path d="M 0 1.5 
C 0.397805 1.5 0.77937 1.341951 1.06066 1.06066 
C 1.341951 0.77937 1.5 0.397805 1.5 0 
C 1.5 -0.397805 1.341951 -0.77937 1.06066 -1.06066 
C 0.77937 -1.341951 0.397805 -1.5 0 -1.5 
C -0.397805 -1.5 -0.77937 -1.341951 -1.06066 -1.06066 
C -1.341951 -0.77937 -1.5 -0.397805 -1.5 0 
C -1.5 0.397805 -1.341951 0.77937 -1.06066 1.06066 
C -0.77937 1.341951 -0.397805 1.5 0 1.5 
z
" id="mf6fbab1402" style="stroke:#00bfbf;"/>
    </defs>
    <g>
     <use style="fill:#00bfbf;stroke:#00bfbf;" x="137.735587" xlink:href="#mf6fbab1402" y="30.334099"/>
     <use style="fill:#00bfbf;stroke:#00bfbf;" x="137.735587" xlink:href="#mf6fbab1402" y="30.334099"/>
    </g>
   </g>
   <g id="line2d_30">
    <path d="M 45.512012 298.944 
L 45.512012 266.816149 
L 83.830028 266.816149 
L 83.830028 266.289463 
L 95.918017 266.289463 
L 95.918017 265.762777 
L 101.646892 265.762777 
L 101.646892 265.236091 
L 103.623262 265.236091 
L 103.623262 264.709405 
L 104.23523 264.709405 
L 104.23523 262.075974 
L 105.398279 262.075974 
L 105.398279 258.915858 
L 105.951954 258.915858 
L 105.951954 256.809114 
L 106.48859 256.809114 
L 106.48859 254.702369 
L 107.009204 254.702369 
L 107.009204 253.122311 
L 107.514726 253.122311 
L 107.514726 249.962195 
L 108.006005 249.962195 
L 108.006005 245.748706 
L 108.483824 245.748706 
L 108.483824 243.641962 
L 116.621333 243.641962 
L 116.621333 243.115275 
L 117.202696 243.115275 
L 117.202696 242.588589 
L 117.765302 242.588589 
L 117.765302 242.061903 
L 118.310324 242.061903 
L 118.310324 241.535217 
L 118.576578 241.535217 
L 118.576578 240.481845 
L 118.838828 240.481845 
L 118.838828 239.955159 
L 119.097192 239.955159 
L 119.097192 239.428473 
L 119.351785 239.428473 
L 119.351785 237.848415 
L 119.602714 237.848415 
L 119.602714 236.268356 
L 119.850084 236.268356 
L 119.850084 231.528182 
L 120.093994 231.528182 
L 120.093994 231.001496 
L 120.33454 231.001496 
L 120.33454 229.421437 
L 120.571812 229.421437 
L 120.571812 228.368065 
L 120.8059 228.368065 
L 120.8059 227.314693 
L 121.036887 227.314693 
L 121.036887 225.734635 
L 121.264855 225.734635 
L 121.264855 223.627891 
L 121.489881 223.627891 
L 121.489881 223.101204 
L 121.712041 223.101204 
L 121.712041 221.521146 
L 121.931406 221.521146 
L 121.931406 217.834344 
L 122.148045 217.834344 
L 122.148045 215.727599 
L 122.362027 215.727599 
L 122.362027 212.567483 
L 122.573415 212.567483 
L 122.573415 209.934052 
L 122.782271 209.934052 
L 122.782271 207.827308 
L 123.192626 207.827308 
L 123.192626 206.24725 
L 123.593547 206.24725 
L 123.593547 203.087133 
L 123.790603 203.087133 
L 123.790603 202.033761 
L 123.985457 202.033761 
L 123.985457 200.980389 
L 124.178158 200.980389 
L 124.178158 197.820273 
L 124.368753 197.820273 
L 124.368753 195.186842 
L 124.557288 195.186842 
L 124.557288 192.026726 
L 124.743806 192.026726 
L 124.743806 191.50004 
L 124.92835 191.50004 
L 124.92835 190.446667 
L 125.110962 190.446667 
L 125.110962 188.866609 
L 125.291682 188.866609 
L 125.291682 186.233179 
L 125.470548 186.233179 
L 125.470548 182.546376 
L 125.647598 182.546376 
L 125.647598 177.806202 
L 125.822869 177.806202 
L 125.822869 176.752829 
L 126.168212 176.752829 
L 126.168212 175.172771 
L 126.338353 175.172771 
L 126.338353 173.592713 
L 126.50685 173.592713 
L 126.50685 172.539341 
L 126.673734 172.539341 
L 126.673734 168.325852 
L 127.002787 168.325852 
L 127.002787 166.219108 
L 127.165014 166.219108 
L 127.165014 165.692422 
L 127.325746 165.692422 
L 127.325746 164.112363 
L 127.48501 164.112363 
L 127.48501 162.532305 
L 127.642832 162.532305 
L 127.642832 160.952247 
L 127.799239 160.952247 
L 127.799239 158.845503 
L 127.954256 158.845503 
L 127.954256 155.685386 
L 128.107907 155.685386 
L 128.107907 155.1587 
L 128.260216 155.1587 
L 128.260216 154.105328 
L 128.411207 154.105328 
L 128.411207 152.52527 
L 128.560901 152.52527 
L 128.560901 149.365153 
L 128.709321 149.365153 
L 128.709321 148.311781 
L 128.856489 148.311781 
L 128.856489 145.678351 
L 129.002426 145.678351 
L 129.002426 143.571606 
L 129.147151 143.571606 
L 129.147151 142.518234 
L 129.290685 142.518234 
L 129.290685 138.304745 
L 129.433047 138.304745 
L 129.433047 137.251373 
L 129.574256 137.251373 
L 129.574256 133.564571 
L 129.714332 133.564571 
L 129.714332 130.404454 
L 129.853291 130.404454 
L 129.853291 128.29771 
L 129.991152 128.29771 
L 129.991152 126.190966 
L 130.127931 126.190966 
L 130.127931 125.137593 
L 130.263646 125.137593 
L 130.263646 124.610907 
L 130.398313 124.610907 
L 130.398313 119.344047 
L 130.531948 119.344047 
L 130.531948 116.18393 
L 130.664567 116.18393 
L 130.664567 113.5505 
L 130.796184 113.5505 
L 130.796184 112.497128 
L 130.926816 112.497128 
L 130.926816 111.970441 
L 131.056477 111.970441 
L 131.056477 108.283639 
L 131.312942 108.283639 
L 131.312942 104.596836 
L 131.439773 104.596836 
L 131.439773 103.016778 
L 131.565689 103.016778 
L 131.565689 100.910034 
L 131.814826 100.910034 
L 131.814826 97.749917 
L 131.938072 97.749917 
L 131.938072 95.643173 
L 132.060454 95.643173 
L 132.060454 93.009743 
L 132.181982 93.009743 
L 132.181982 90.902998 
L 132.30267 90.902998 
L 132.30267 89.32294 
L 132.422528 89.32294 
L 132.422528 87.742882 
L 132.541568 87.742882 
L 132.541568 86.68951 
L 132.659801 86.68951 
L 132.659801 85.636137 
L 132.777237 85.636137 
L 132.777237 82.476021 
L 132.893889 82.476021 
L 132.893889 79.315904 
L 133.009765 79.315904 
L 133.009765 77.735846 
L 133.124876 77.735846 
L 133.124876 77.20916 
L 133.239232 77.20916 
L 133.239232 73.522358 
L 133.352844 73.522358 
L 133.352844 69.835555 
L 133.46572 69.835555 
L 133.46572 67.202125 
L 133.57787 67.202125 
L 133.57787 66.148752 
L 133.800029 66.148752 
L 133.910056 62.46195 
L 134.019394 62.46195 
L 134.12805 56.668403 
L 134.450015 56.668403 
L 134.55603 54.561659 
L 134.766144 54.561659 
L 134.870259 48.768112 
L 134.973757 48.768112 
L 135.076644 46.661368 
L 135.178927 46.661368 
L 135.178927 44.027937 
L 135.381712 44.027937 
L 135.482227 41.921193 
L 135.681535 41.921193 
L 135.780341 39.814448 
L 135.878591 39.814448 
L 135.97629 38.761076 
L 136.170062 38.761076 
L 136.266147 36.654332 
L 136.361705 36.654332 
L 136.361705 36.127646 
L 136.551264 36.127646 
L 136.645276 35.074274 
L 136.738785 35.074274 
L 136.738785 34.020902 
L 137.016339 34.020902 
L 137.016339 32.967529 
L 137.198951 32.967529 
L 137.289545 31.387471 
L 137.37967 31.387471 
L 137.37967 30.860785 
L 137.735587 30.860785 
L 137.735587 30.334099 
L 338.688 30.334099 
L 338.688 30.334099 
" style="fill:none;stroke:#00bfbf;stroke-linecap:square;stroke-width:1.5;"/>
   </g>
   <g id="line2d_31">
    <defs>
     <path d="M -6 0 
L 6 0 
M 0 6 
L 0 -6 
" id="m8bcf0725da" style="stroke:#00bfbf;stroke-width:1.5;"/>
    </defs>
    <g>
     <use style="fill-opacity:0;stroke:#00bfbf;stroke-width:1.5;" x="120.093994" xlink:href="#m8bcf0725da" y="231.001496"/>
     <use style="fill-opacity:0;stroke:#00bfbf;stroke-width:1.5;" x="131.439773" xlink:href="#m8bcf0725da" y="103.016778"/>
     <use style="fill-opacity:0;stroke:#00bfbf;stroke-width:1.5;" x="137.735587" xlink:href="#m8bcf0725da" y="30.860785"/>
     <use style="fill-opacity:0;stroke:#00bfbf;stroke-width:1.5;" x="137.735587" xlink:href="#m8bcf0725da" y="30.334099"/>
     <use style="fill-opacity:0;stroke:#00bfbf;stroke-width:1.5;" x="137.735587" xlink:href="#m8bcf0725da" y="30.334099"/>
     <use style="fill-opacity:0;stroke:#00bfbf;stroke-width:1.5;" x="338.688" xlink:href="#m8bcf0725da" y="30.334099"/>
    </g>
   </g>
   <g id="line2d_32">
    <path style="fill:none;stroke:#00bfbf;stroke-linecap:square;stroke-width:1.5;"/>
    <g/>
   </g>
   <g id="line2d_33">
    <defs>
     <path d="M 0 1.5 
C 0.397805 1.5 0.77937 1.341951 1.06066 1.06066 
C 1.341951 0.77937 1.5 0.397805 1.5 0 
C 1.5 -0.397805 1.341951 -0.77937 1.06066 -1.06066 
C 0.77937 -1.341951 0.397805 -1.5 0 -1.5 
C -0.397805 -1.5 -0.77937 -1.341951 -1.06066 -1.06066 
C -1.341951 -0.77937 -1.5 -0.397805 -1.5 0 
C -1.5 0.397805 -1.341951 0.77937 -1.06066 1.06066 
C -0.77937 1.341951 -0.397805 1.5 0 1.5 
z
" id="m4da0103dd7" style="stroke:#008000;"/>
    </defs>
    <g>
     <use style="fill:#008000;stroke:#008000;" x="160.054568" xlink:href="#m4da0103dd7" y="30.334099"/>
     <use style="fill:#008000;stroke:#008000;" x="160.054568" xlink:href="#m4da0103dd7" y="30.334099"/>
    </g>
   </g>
   <g id="line2d_34">
    <path d="M 38.440992 298.944 
L 38.440992 271.029638 
L 90.684409 271.029638 
L 90.684409 270.502952 
L 98.880934 270.502952 
L 98.880934 269.976266 
L 99.938184 269.976266 
L 99.938184 269.449579 
L 100.934985 269.449579 
L 100.934985 268.922893 
L 101.877879 268.922893 
L 101.877879 266.816149 
L 102.330873 266.816149 
L 102.330873 265.762777 
L 102.772397 265.762777 
L 102.772397 264.709405 
L 103.203018 264.709405 
L 103.203018 263.129347 
L 103.623262 263.129347 
L 103.623262 262.075974 
L 104.033617 262.075974 
L 104.033617 260.495916 
L 104.434538 260.495916 
L 104.434538 259.442544 
L 104.826449 259.442544 
L 104.826449 256.282427 
L 105.584798 256.282427 
L 105.584798 253.648997 
L 105.951954 253.648997 
L 105.951954 253.122311 
L 106.311539 253.122311 
L 106.311539 252.068939 
L 106.66386 252.068939 
L 106.66386 249.435508 
L 108.640231 249.435508 
L 108.640231 248.908822 
L 112.531694 248.908822 
L 112.531694 248.382136 
L 114.193835 248.382136 
L 114.193835 247.85545 
L 117.107138 247.85545 
L 117.107138 247.328764 
L 117.486268 247.328764 
L 117.486268 246.802078 
L 117.857331 246.802078 
L 117.857331 246.275392 
L 118.399528 246.275392 
L 118.399528 245.748706 
L 118.751849 245.748706 
L 118.751849 245.22202 
L 118.925375 245.22202 
L 118.925375 244.695334 
L 120.41399 244.695334 
L 120.41399 244.168648 
L 120.728219 244.168648 
L 120.728219 243.641962 
L 121.189196 243.641962 
L 121.189196 243.115275 
L 121.638301 243.115275 
L 121.638301 242.061903 
L 122.362027 242.061903 
L 122.362027 241.535217 
L 122.920132 241.535217 
L 122.920132 241.008531 
L 123.056911 241.008531 
L 123.056911 240.481845 
L 123.192626 240.481845 
L 123.192626 239.955159 
L 123.327293 239.955159 
L 123.327293 239.428473 
L 123.593547 239.428473 
L 123.593547 238.901787 
L 124.619683 238.901787 
L 124.619683 238.375101 
L 125.110962 238.375101 
L 125.110962 237.848415 
L 127.378995 237.848415 
L 127.378995 237.321729 
L 127.590383 237.321729 
L 127.590383 236.268356 
L 127.902737 236.268356 
L 127.902737 235.74167 
L 128.209594 235.74167 
L 128.209594 235.214984 
L 128.610515 235.214984 
L 128.610515 234.688298 
L 128.807571 234.688298 
L 128.807571 233.10824 
L 129.195127 233.10824 
L 129.195127 232.054868 
L 129.385722 232.054868 
L 129.385722 231.001496 
L 129.574256 231.001496 
L 129.667765 229.421437 
L 129.945319 229.421437 
L 130.036864 227.314693 
L 130.127931 227.314693 
L 130.218525 225.207949 
L 130.30865 225.207949 
L 130.398313 221.521146 
L 130.576266 221.521146 
L 130.664567 220.467774 
L 130.752422 220.467774 
L 130.752422 219.941088 
L 130.926816 219.941088 
L 131.013364 217.834344 
L 131.099484 217.834344 
L 131.185181 215.727599 
L 131.270459 215.727599 
L 131.355321 214.147541 
L 131.439773 214.147541 
L 131.523818 212.040797 
L 131.60746 212.040797 
L 131.690703 208.353994 
L 131.77355 208.353994 
L 131.856005 206.24725 
L 132.101058 206.24725 
L 132.181982 203.087133 
L 132.342714 203.087133 
L 132.422528 200.980389 
L 132.581068 200.980389 
L 132.581068 200.453703 
L 132.73818 200.453703 
L 132.816208 198.346959 
L 132.893889 198.346959 
L 132.893889 197.293586 
L 133.124876 197.293586 
L 133.124876 196.7669 
L 133.277185 196.7669 
L 133.352844 194.660156 
L 133.503183 194.660156 
L 133.57787 193.606784 
L 133.652238 193.606784 
L 133.72629 192.553412 
L 133.800029 192.553412 
L 133.873458 190.446667 
L 133.946579 190.446667 
L 134.019394 188.866609 
L 134.164119 188.866609 
L 134.236034 187.286551 
L 134.307653 187.286551 
L 134.37898 185.706493 
L 134.450015 185.706493 
L 134.450015 185.179807 
L 134.591225 185.179807 
L 134.661403 183.073062 
L 134.7313 183.073062 
L 134.800918 179.912946 
L 135.00812 179.912946 
L 135.076644 177.806202 
L 135.144899 177.806202 
L 135.212889 175.172771 
L 135.280614 175.172771 
L 135.280614 174.646085 
L 135.482227 174.646085 
L 135.482227 174.119399 
L 135.615352 174.119399 
L 135.681535 172.012655 
L 135.747468 172.012655 
L 135.813153 169.90591 
L 135.878591 169.90591 
L 135.878591 168.325852 
L 136.073445 168.325852 
L 136.137916 166.219108 
L 136.202149 166.219108 
L 136.266147 163.058991 
L 136.32991 163.058991 
L 136.32991 162.532305 
L 136.456742 162.532305 
L 136.519813 160.952247 
L 136.582658 160.952247 
L 136.645276 157.79213 
L 136.769843 157.79213 
L 136.831795 156.212072 
L 136.893527 156.212072 
L 136.955041 154.632014 
L 137.016339 154.632014 
L 137.077422 153.051956 
L 137.138292 153.051956 
L 137.138292 152.52527 
L 137.319638 152.52527 
L 137.37967 150.418525 
L 137.439497 150.418525 
L 137.499118 147.258409 
L 137.558536 147.258409 
L 137.558536 146.205037 
L 137.676769 146.205037 
L 137.676769 143.04492 
L 137.794206 143.04492 
L 137.852629 140.41149 
L 137.910857 140.41149 
L 137.968891 136.724687 
L 138.026733 136.724687 
L 138.026733 135.671315 
L 138.199116 135.671315 
L 138.256201 134.091257 
L 138.313099 134.091257 
L 138.313099 131.984513 
L 138.426341 131.984513 
L 138.482688 130.404454 
L 138.538853 130.404454 
L 138.594838 128.824396 
L 138.650644 128.824396 
L 138.761723 126.190966 
L 138.816998 126.190966 
L 138.872098 124.084221 
L 138.981779 124.084221 
L 139.090775 118.817361 
L 139.145019 118.817361 
L 139.199094 116.18393 
L 139.413734 116.18393 
L 139.520072 111.970441 
L 139.572998 111.970441 
L 139.678372 108.810325 
L 139.835248 108.810325 
L 139.939053 104.07015 
L 139.990725 104.07015 
L 139.990725 103.543464 
L 140.144829 103.543464 
L 140.246813 101.43672 
L 140.348205 101.43672 
L 140.44901 99.856662 
L 140.499195 99.856662 
L 140.599134 96.696545 
L 140.64889 96.696545 
L 140.747977 95.116487 
L 140.846504 95.116487 
L 140.944478 90.902998 
L 141.041904 90.902998 
L 141.090414 87.742882 
L 141.187031 87.742882 
L 141.283115 83.529393 
L 141.33096 83.529393 
L 141.426256 81.422649 
L 141.47371 81.422649 
L 141.568232 78.789218 
L 141.662245 78.789218 
L 141.755753 76.155788 
L 141.80232 76.155788 
L 141.895083 74.57573 
L 141.941279 74.57573 
L 142.033307 72.468985 
L 142.07914 72.468985 
L 142.170445 70.888927 
L 142.215919 70.888927 
L 142.261275 68.782183 
L 142.351634 68.782183 
L 142.441528 67.202125 
L 142.486301 67.202125 
L 142.486301 65.622066 
L 142.619936 65.622066 
L 142.664255 64.568694 
L 142.752555 64.568694 
L 142.796538 62.46195 
L 142.971369 62.46195 
L 143.058132 59.301833 
L 143.101352 59.301833 
L 143.187472 57.721775 
L 143.230373 57.721775 
L 143.273169 56.668403 
L 143.44331 56.668403 
L 143.527762 55.615031 
L 143.569835 55.615031 
L 143.569835 55.088345 
L 143.861538 55.088345 
L 143.902815 52.9816 
L 144.148442 52.9816 
L 144.148442 51.928228 
L 144.390658 51.928228 
L 144.390658 51.401542 
L 144.589967 51.401542 
L 144.669057 49.294798 
L 144.708467 49.294798 
L 144.787023 47.71474 
L 144.904196 47.71474 
L 144.981877 46.661368 
L 145.059213 46.661368 
L 145.059213 46.134681 
L 145.365173 46.134681 
L 145.403044 44.027937 
L 145.553708 44.027937 
L 145.591172 42.447879 
L 145.665858 42.447879 
L 145.665858 41.921193 
L 145.814278 41.921193 
L 145.924771 40.341135 
L 146.143677 40.341135 
L 146.252108 38.761076 
L 146.359869 38.761076 
L 146.359869 38.23439 
L 146.644018 38.23439 
L 146.644018 37.707704 
L 146.958248 37.707704 
L 146.958248 37.181018 
L 151.042412 37.181018 
L 151.042412 36.654332 
L 151.76636 36.654332 
L 151.76636 36.127646 
L 152.078714 36.127646 
L 152.078714 35.60096 
L 153.129893 35.60096 
L 153.129893 35.074274 
L 153.29909 35.074274 
L 153.347132 34.020902 
L 153.632638 34.020902 
L 153.632638 33.494215 
L 153.773658 33.494215 
L 153.773658 32.967529 
L 154.144227 32.967529 
L 154.144227 32.440843 
L 154.326601 32.440843 
L 154.394502 31.387471 
L 158.819862 31.387471 
L 158.819862 30.860785 
L 160.054568 30.860785 
L 160.054568 30.334099 
L 338.688 30.334099 
L 338.688 30.334099 
" style="fill:none;stroke:#008000;stroke-linecap:square;stroke-width:1.5;"/>
   </g>
   <g id="line2d_35">
    <defs>
     <path d="M -0 6 
L 6 -6 
L -6 -6 
z
" id="m41c0f1c98a" style="stroke:#008000;stroke-linejoin:miter;stroke-width:1.5;"/>
    </defs>
    <g>
     <use style="fill-opacity:0;stroke:#008000;stroke-linejoin:miter;stroke-width:1.5;" x="120.41399" xlink:href="#m41c0f1c98a" y="244.168648"/>
     <use style="fill-opacity:0;stroke:#008000;stroke-linejoin:miter;stroke-width:1.5;" x="138.872098" xlink:href="#m41c0f1c98a" y="124.084221"/>
     <use style="fill-opacity:0;stroke:#008000;stroke-linejoin:miter;stroke-width:1.5;" x="160.054568" xlink:href="#m41c0f1c98a" y="30.860785"/>
     <use style="fill-opacity:0;stroke:#008000;stroke-linejoin:miter;stroke-width:1.5;" x="160.054568" xlink:href="#m41c0f1c98a" y="30.334099"/>
     <use style="fill-opacity:0;stroke:#008000;stroke-linejoin:miter;stroke-width:1.5;" x="160.054568" xlink:href="#m41c0f1c98a" y="30.334099"/>
     <use style="fill-opacity:0;stroke:#008000;stroke-linejoin:miter;stroke-width:1.5;" x="338.688" xlink:href="#m41c0f1c98a" y="30.334099"/>
    </g>
   </g>
   <g id="line2d_36">
    <path style="fill:none;stroke:#008000;stroke-linecap:square;stroke-width:1.5;"/>
    <g/>
   </g>
   <g id="line2d_37">
    <path clip-path="url(#pdf9b5fea7e)" d="M 138.872098 124.084221 
" style="fill:none;stroke:#008000;stroke-linecap:square;stroke-width:1.5;"/>
    <defs>
     <path d="M -12 12 
L 12 -12 
M -12 -12 
L 12 12 
" id="m96f5226fcd" style="stroke:#008000;"/>
    </defs>
    <g clip-path="url(#pdf9b5fea7e)">
     <use style="fill:#008000;stroke:#008000;" x="138.872098" xlink:href="#m96f5226fcd" y="124.084221"/>
    </g>
   </g>
   <g id="line2d_38">
    <defs>
     <path d="M 0 1.5 
C 0.397805 1.5 0.77937 1.341951 1.06066 1.06066 
C 1.341951 0.77937 1.5 0.397805 1.5 0 
C 1.5 -0.397805 1.341951 -0.77937 1.06066 -1.06066 
C 0.77937 -1.341951 0.397805 -1.5 0 -1.5 
C -0.397805 -1.5 -0.77937 -1.341951 -1.06066 -1.06066 
C -1.341951 -0.77937 -1.5 -0.397805 -1.5 0 
C -1.5 0.397805 -1.341951 0.77937 -1.06066 1.06066 
C -0.77937 1.341951 -0.397805 1.5 0 1.5 
z
" id="m6ee3951743" style="stroke:#0000ff;"/>
    </defs>
    <g>
     <use style="fill:#0000ff;stroke:#0000ff;" x="211.942665" xlink:href="#m6ee3951743" y="109.337011"/>
     <use style="fill:#0000ff;stroke:#0000ff;" x="211.942665" xlink:href="#m6ee3951743" y="109.337011"/>
    </g>
   </g>
   <g id="line2d_39">
    <path d="M 29.53256 298.944 
L 29.53256 276.296499 
L 91.029752 276.296499 
L 91.029752 275.769812 
L 97.403108 275.769812 
L 97.403108 275.243126 
L 99.41757 275.243126 
L 99.41757 274.71644 
L 99.731799 274.71644 
L 99.731799 273.663068 
L 100.641881 273.663068 
L 100.641881 272.609696 
L 100.934985 272.609696 
L 100.934985 272.08301 
L 101.506816 272.08301 
L 101.506816 271.556324 
L 102.597126 271.556324 
L 102.597126 271.029638 
L 103.372333 271.029638 
L 103.372333 269.449579 
L 103.623262 269.449579 
L 103.623262 268.396207 
L 103.870632 268.396207 
L 103.870632 267.342835 
L 104.114542 267.342835 
L 104.114542 266.289463 
L 104.355088 266.289463 
L 104.355088 265.236091 
L 104.826449 265.236091 
L 104.826449 264.709405 
L 105.057436 264.709405 
L 105.057436 264.182719 
L 105.51043 264.182719 
L 105.51043 263.656033 
L 113.311233 263.656033 
L 113.311233 263.129347 
L 114.148479 263.129347 
L 114.148479 262.60266 
L 114.947365 262.60266 
L 114.947365 262.075974 
L 115.077025 262.075974 
L 115.077025 261.549288 
L 115.711251 261.549288 
L 115.711251 261.022602 
L 115.958621 261.022602 
L 115.958621 260.495916 
L 116.081002 260.495916 
L 116.081002 259.96923 
L 117.486268 259.96923 
L 117.486268 259.442544 
L 118.470564 259.442544 
L 118.470564 258.915858 
L 123.907776 258.915858 
L 123.907776 258.389172 
L 125.183475 258.389172 
L 125.183475 257.862486 
L 126.304457 257.862486 
L 126.304457 257.3358 
L 127.48501 257.3358 
L 127.48501 256.809114 
L 127.923363 256.809114 
L 127.923363 256.282427 
L 128.590686 256.282427 
L 128.590686 255.755741 
L 129.574256 255.755741 
L 129.574256 255.229055 
L 129.853291 255.229055 
L 129.853291 254.702369 
L 130.978796 254.702369 
L 130.978796 254.175683 
L 132.133473 254.175683 
L 132.133473 253.648997 
L 132.659801 253.648997 
L 132.659801 253.122311 
L 135.482227 253.122311 
L 135.482227 252.595625 
L 135.917737 252.595625 
L 135.917737 252.068939 
L 136.150782 252.068939 
L 136.150782 251.542253 
L 136.304433 251.542253 
L 136.304433 251.015567 
L 136.494612 251.015567 
L 136.494612 250.488881 
L 136.645276 250.488881 
L 136.645276 249.962195 
L 136.757427 249.962195 
L 136.757427 249.435508 
L 137.126135 249.435508 
L 137.126135 248.382136 
L 137.343676 248.382136 
L 137.343676 247.85545 
L 137.558536 247.85545 
L 137.558536 247.328764 
L 137.70032 247.328764 
L 137.70032 246.802078 
L 138.118883 246.802078 
L 138.187677 245.748706 
L 138.89409 245.748706 
L 138.89409 245.22202 
L 141.80232 245.22202 
L 141.80232 244.695334 
L 142.619936 244.695334 
L 142.726112 243.641962 
L 142.805321 243.641962 
L 142.805321 243.115275 
L 143.144465 243.115275 
L 143.144465 242.588589 
L 143.273169 242.588589 
L 143.273169 242.061903 
L 143.703791 242.061903 
L 143.703791 241.535217 
L 144.099593 241.535217 
L 144.099593 241.008531 
L 144.91198 241.008531 
L 144.91198 240.481845 
L 145.372754 240.481845 
L 145.372754 239.955159 
L 145.688202 239.955159 
L 145.688202 239.428473 
L 145.888018 239.428473 
L 145.888018 238.901787 
L 146.041862 238.901787 
L 146.041862 238.375101 
L 146.302479 238.375101 
L 146.302479 237.848415 
L 146.516724 237.848415 
L 146.516724 237.321729 
L 146.791364 237.321729 
L 146.791364 236.795043 
L 147.02042 236.795043 
L 147.082371 235.74167 
L 147.348313 235.74167 
L 147.348313 235.214984 
L 147.550159 235.214984 
L 147.570215 234.161612 
L 148.005725 234.161612 
L 148.005725 233.634926 
L 148.142046 233.634926 
L 148.23877 231.528182 
L 148.334961 231.528182 
L 148.373289 230.47481 
L 148.601505 230.47481 
L 148.695721 228.894751 
L 148.752007 228.894751 
L 148.752007 228.368065 
L 148.882639 228.368065 
L 148.975352 227.314693 
L 149.030744 227.314693 
L 149.141003 225.734635 
L 149.214124 225.734635 
L 149.305096 222.574518 
L 149.377533 222.574518 
L 149.377533 221.521146 
L 149.593058 221.521146 
L 149.699829 218.887716 
L 149.841182 218.887716 
L 149.946449 217.307658 
L 149.998846 217.307658 
L 149.998846 216.780971 
L 151.324836 216.780971 
L 151.324836 216.254285 
L 153.323128 216.254285 
L 153.323128 215.727599 
L 153.509492 215.727599 
L 153.509492 215.200913 
L 153.778339 215.200913 
L 153.778339 214.674227 
L 154.827327 214.674227 
L 154.89331 213.620855 
L 155.399584 213.620855 
L 155.399584 213.094169 
L 156.150854 213.094169 
L 156.150854 212.567483 
L 156.622378 212.567483 
L 156.670026 211.514111 
L 156.847557 211.514111 
L 156.847557 210.987425 
L 157.162628 210.987425 
L 157.208825 209.934052 
L 157.289376 209.934052 
L 157.289376 209.407366 
L 157.86528 209.407366 
L 157.86528 208.88068 
L 158.795307 208.88068 
L 158.795307 208.353994 
L 159.046236 208.353994 
L 159.046236 207.827308 
L 159.51732 207.827308 
L 159.51732 207.300622 
L 159.688246 207.300622 
L 159.688246 206.773936 
L 159.897102 206.773936 
L 159.897102 206.24725 
L 160.074152 206.24725 
L 160.152267 205.193878 
L 160.278464 205.193878 
L 160.336402 203.613819 
L 160.432539 203.613819 
L 160.432539 203.087133 
L 160.661129 203.087133 
L 160.764907 202.033761 
L 160.979921 202.033761 
L 160.989209 200.980389 
L 161.127947 200.980389 
L 161.127947 200.453703 
L 161.274728 200.453703 
L 161.384008 198.873645 
L 161.447441 198.873645 
L 161.447441 198.346959 
L 161.564634 198.346959 
L 161.672119 195.713528 
L 161.698887 195.713528 
L 161.778945 193.606784 
L 161.832113 193.606784 
L 161.858637 192.553412 
L 162.034438 192.553412 
L 162.095552 190.973354 
L 163.388564 190.973354 
L 163.388564 190.446667 
L 163.914652 190.446667 
L 163.914652 189.919981 
L 164.039833 189.919981 
L 164.070989 188.339923 
L 164.325919 188.339923 
L 164.341251 187.286551 
L 164.973287 187.286551 
L 164.98806 186.233179 
L 165.711185 186.233179 
L 165.76776 185.179807 
L 165.866327 185.179807 
L 165.929399 184.126434 
L 166.034014 184.126434 
L 166.034014 183.599748 
L 166.20699 183.599748 
L 166.20699 183.073062 
L 167.423481 183.073062 
L 167.423481 182.546376 
L 167.570541 182.546376 
L 167.678446 181.493004 
L 167.829655 181.493004 
L 167.829655 180.966318 
L 168.01684 180.966318 
L 168.01684 180.439632 
L 168.269454 180.439632 
L 168.269454 179.912946 
L 168.433833 179.912946 
L 168.433833 179.38626 
L 168.590673 179.38626 
L 168.692465 177.806202 
L 168.841088 177.806202 
L 168.906082 176.226143 
L 169.05875 176.226143 
L 169.122941 175.172771 
L 169.400311 175.172771 
L 169.463258 174.119399 
L 170.179505 174.119399 
L 170.179505 173.592713 
L 170.35949 173.592713 
L 170.35949 173.066027 
L 170.473066 173.066027 
L 170.473066 172.539341 
L 171.019664 172.539341 
L 171.019664 172.012655 
L 171.580031 172.012655 
L 171.675893 170.959282 
L 171.726136 170.959282 
L 171.726136 170.432596 
L 172.558835 170.432596 
L 172.558835 169.90591 
L 172.782205 169.90591 
L 172.871698 168.852538 
L 173.105034 168.852538 
L 173.105034 168.325852 
L 173.284893 168.325852 
L 173.335289 167.27248 
L 173.476535 167.27248 
L 173.548992 165.692422 
L 173.728826 165.692422 
L 173.755642 164.112363 
L 173.990742 164.112363 
L 174.074257 163.058991 
L 175.387307 163.058991 
L 175.468458 162.005619 
L 175.979068 162.005619 
L 175.994786 160.952247 
L 176.570418 160.952247 
L 176.604586 159.898875 
L 176.875552 159.898875 
L 176.875552 159.372189 
L 177.053884 159.372189 
L 177.053884 158.845503 
L 177.171768 158.845503 
L 177.171768 158.318817 
L 177.350746 158.318817 
L 177.350746 157.79213 
L 177.502707 157.79213 
L 177.52071 156.738758 
L 177.724639 156.738758 
L 177.792089 155.685386 
L 178.020885 155.685386 
L 178.020885 155.1587 
L 178.890557 155.1587 
L 178.890557 154.632014 
L 179.052815 154.632014 
L 179.138301 153.051956 
L 179.633043 153.051956 
L 179.633043 152.52527 
L 179.873676 152.52527 
L 179.930185 150.945211 
L 180.051996 150.945211 
L 180.051996 150.418525 
L 180.237753 150.418525 
L 180.237753 149.891839 
L 180.594385 149.891839 
L 180.594385 149.365153 
L 180.982272 149.365153 
L 180.985222 148.311781 
L 182.409455 148.311781 
L 182.409455 147.785095 
L 182.56375 147.785095 
L 182.62831 146.205037 
L 182.863006 146.205037 
L 182.863006 145.678351 
L 183.128538 145.678351 
L 183.128538 145.151665 
L 183.266275 145.151665 
L 183.266275 144.624978 
L 183.668019 144.624978 
L 183.776456 143.04492 
L 184.420555 143.04492 
L 184.471359 141.991548 
L 184.574928 141.991548 
L 184.574928 141.464862 
L 184.761242 141.464862 
L 184.761242 140.938176 
L 185.416414 140.938176 
L 185.416414 140.41149 
L 186.678539 140.41149 
L 186.778295 139.358118 
L 186.810013 139.358118 
L 186.810013 138.831432 
L 187.026261 138.831432 
L 187.076266 137.778059 
L 187.221301 137.778059 
L 187.221301 137.251373 
L 187.391722 137.251373 
L 187.391722 136.724687 
L 187.723639 136.724687 
L 187.787673 135.671315 
L 187.849483 135.671315 
L 187.849483 135.144629 
L 188.301354 135.144629 
L 188.301354 134.617943 
L 189.008295 134.617943 
L 189.008295 134.091257 
L 189.263427 134.091257 
L 189.263427 133.564571 
L 189.6015 133.564571 
L 189.678732 131.984513 
L 189.90663 131.984513 
L 189.90663 131.457826 
L 190.288042 131.457826 
L 190.288042 130.93114 
L 190.504746 130.93114 
L 190.504746 130.404454 
L 190.720479 130.404454 
L 190.782831 129.351082 
L 191.076412 129.351082 
L 191.076412 128.824396 
L 191.41225 128.824396 
L 191.41225 128.29771 
L 191.531908 128.29771 
L 191.531908 127.771024 
L 192.267132 127.771024 
L 192.267132 127.244338 
L 192.581004 127.244338 
L 192.581004 126.717652 
L 193.000778 126.717652 
L 193.054023 125.66428 
L 193.404896 125.66428 
L 193.404896 125.137593 
L 193.533238 125.137593 
L 193.534675 124.084221 
L 193.647801 124.084221 
L 193.683448 123.030849 
L 194.399286 123.030849 
L 194.444343 121.977477 
L 194.820701 121.977477 
L 194.820701 121.450791 
L 195.424015 121.450791 
L 195.489637 120.397419 
L 196.053222 120.397419 
L 196.053222 119.870733 
L 196.500061 119.870733 
L 196.500061 119.344047 
L 197.234593 119.344047 
L 197.234593 118.817361 
L 197.513553 118.817361 
L 197.546685 117.763988 
L 198.160109 117.763988 
L 198.160109 117.237302 
L 198.473532 117.237302 
L 198.473532 116.710616 
L 199.466424 116.710616 
L 199.466424 116.18393 
L 200.827909 116.18393 
L 200.827909 115.657244 
L 201.661565 115.657244 
L 201.661565 115.130558 
L 202.331845 115.130558 
L 202.331845 114.603872 
L 202.530236 114.603872 
L 202.530236 114.077186 
L 204.614281 114.077186 
L 204.614281 113.5505 
L 204.797495 113.5505 
L 204.871895 112.497128 
L 206.412605 112.497128 
L 206.412605 111.970441 
L 206.961989 111.970441 
L 206.961989 111.443755 
L 208.221229 111.443755 
L 208.307041 110.390383 
L 210.418612 110.390383 
L 210.418612 109.863697 
L 211.942665 109.863697 
L 211.942665 109.337011 
L 338.688 109.337011 
L 338.688 109.337011 
" style="fill:none;stroke:#0000ff;stroke-linecap:square;stroke-width:1.5;"/>
   </g>
   <g id="line2d_40">
    <defs>
     <path d="M 0 -6 
L -1.347084 -1.854102 
L -5.706339 -1.854102 
L -2.179628 0.708204 
L -3.526712 4.854102 
L -0 2.291796 
L 3.526712 4.854102 
L 2.179628 0.708204 
L 5.706339 -1.854102 
L 1.347084 -1.854102 
z
" id="m44ae5dbf10" style="stroke:#0000ff;stroke-linejoin:bevel;stroke-width:1.5;"/>
    </defs>
    <g>
     <use style="fill-opacity:0;stroke:#0000ff;stroke-linejoin:bevel;stroke-width:1.5;" x="97.403108" xlink:href="#m44ae5dbf10" y="275.769812"/>
     <use style="fill-opacity:0;stroke:#0000ff;stroke-linejoin:bevel;stroke-width:1.5;" x="156.150854" xlink:href="#m44ae5dbf10" y="212.567483"/>
     <use style="fill-opacity:0;stroke:#0000ff;stroke-linejoin:bevel;stroke-width:1.5;" x="191.531908" xlink:href="#m44ae5dbf10" y="128.29771"/>
     <use style="fill-opacity:0;stroke:#0000ff;stroke-linejoin:bevel;stroke-width:1.5;" x="211.942665" xlink:href="#m44ae5dbf10" y="109.337011"/>
     <use style="fill-opacity:0;stroke:#0000ff;stroke-linejoin:bevel;stroke-width:1.5;" x="211.942665" xlink:href="#m44ae5dbf10" y="109.337011"/>
     <use style="fill-opacity:0;stroke:#0000ff;stroke-linejoin:bevel;stroke-width:1.5;" x="338.688" xlink:href="#m44ae5dbf10" y="109.337011"/>
    </g>
   </g>
   <g id="line2d_41">
    <path style="fill:none;stroke:#0000ff;stroke-linecap:square;stroke-width:1.5;"/>
    <g/>
   </g>
   <g id="line2d_42">
    <path clip-path="url(#pdf9b5fea7e)" d="M 149.998846 216.780971 
" style="fill:none;stroke:#0000ff;stroke-linecap:square;stroke-width:1.5;"/>
    <defs>
     <path d="M -12 12 
L 12 -12 
M -12 -12 
L 12 12 
" id="m724f9cbe3e" style="stroke:#0000ff;"/>
    </defs>
    <g clip-path="url(#pdf9b5fea7e)">
     <use style="fill:#0000ff;stroke:#0000ff;" x="149.998846" xlink:href="#m724f9cbe3e" y="216.780971"/>
    </g>
   </g>
   <g id="line2d_43">
    <defs>
     <path d="M 0 1.5 
C 0.397805 1.5 0.77937 1.341951 1.06066 1.06066 
C 1.341951 0.77937 1.5 0.397805 1.5 0 
C 1.5 -0.397805 1.341951 -0.77937 1.06066 -1.06066 
C 0.77937 -1.341951 0.397805 -1.5 0 -1.5 
C -0.397805 -1.5 -0.77937 -1.341951 -1.06066 -1.06066 
C -1.341951 -0.77937 -1.5 -0.397805 -1.5 0 
C -1.5 0.397805 -1.341951 0.77937 -1.06066 1.06066 
C -0.77937 1.341951 -0.397805 1.5 0 1.5 
z
" id="m500540639f" style="stroke:#000000;"/>
    </defs>
    <g>
     <use style="stroke:#000000;" x="192.634788" xlink:href="#m500540639f" y="246.275392"/>
     <use style="stroke:#000000;" x="192.634788" xlink:href="#m500540639f" y="246.275392"/>
    </g>
   </g>
   <g id="line2d_44">
    <path d="M 17.444571 298.944 
L 17.444571 286.83022 
L 99.575392 286.83022 
L 99.575392 286.303534 
L 100.934985 286.303534 
L 100.934985 285.776848 
L 101.506816 285.776848 
L 101.506816 285.250162 
L 101.646892 285.250162 
L 101.646892 284.723476 
L 103.245502 284.723476 
L 103.245502 283.670104 
L 103.747386 283.670104 
L 103.747386 283.143418 
L 104.114542 283.143418 
L 104.114542 282.616732 
L 104.474128 282.616732 
L 104.474128 282.090045 
L 104.709797 282.090045 
L 104.709797 281.036673 
L 105.285403 281.036673 
L 105.285403 280.509987 
L 105.621863 280.509987 
L 105.621863 279.983301 
L 105.842616 279.983301 
L 105.842616 279.456615 
L 106.168594 279.456615 
L 106.275913 278.403243 
L 106.382575 278.403243 
L 106.48859 276.823185 
L 106.698704 276.823185 
L 106.698704 275.769812 
L 106.906317 275.769812 
L 106.906317 275.243126 
L 107.314272 275.243126 
L 107.314272 273.663068 
L 108.006005 273.663068 
L 108.102622 272.609696 
L 119.045825 272.609696 
L 119.045825 272.08301 
L 119.751557 272.08301 
L 119.751557 271.029638 
L 119.89914 271.029638 
L 119.948058 269.976266 
L 120.093994 269.976266 
L 120.093994 269.449579 
L 123.94666 269.449579 
L 123.94666 268.922893 
L 125.327602 268.922893 
L 125.327602 268.396207 
L 137.980475 268.396207 
L 138.084384 267.342835 
L 138.187677 267.342835 
L 138.187677 266.816149 
L 138.910565 266.816149 
L 138.910565 266.289463 
L 139.667863 266.289463 
L 139.667863 265.762777 
L 141.002999 265.762777 
L 141.002999 265.236091 
L 141.407239 265.236091 
L 141.407239 264.709405 
L 142.405626 264.709405 
L 142.405626 264.182719 
L 143.716296 264.182719 
L 143.716296 263.656033 
L 144.55823 263.656033 
L 144.55823 263.129347 
L 145.406826 263.129347 
L 145.406826 262.60266 
L 145.598655 262.60266 
L 145.598655 262.075974 
L 147.113265 262.075974 
L 147.113265 261.549288 
L 152.579665 261.549288 
L 152.579665 261.022602 
L 156.717545 261.022602 
L 156.717545 260.495916 
L 157.675417 260.495916 
L 157.675417 259.96923 
L 157.831925 259.96923 
L 157.831925 259.442544 
L 158.162642 259.442544 
L 158.168101 257.862486 
L 158.615355 257.862486 
L 158.615355 257.3358 
L 165.63665 257.3358 
L 165.63665 256.809114 
L 166.072216 256.809114 
L 166.14837 255.229055 
L 166.439517 255.229055 
L 166.439517 254.702369 
L 167.271933 254.702369 
L 167.271933 254.175683 
L 168.248032 254.175683 
L 168.251094 253.122311 
L 171.826189 253.122311 
L 171.826189 252.595625 
L 172.132757 252.595625 
L 172.132757 252.068939 
L 172.325296 252.068939 
L 172.325296 251.542253 
L 173.17443 251.542253 
L 173.176739 250.488881 
L 175.886437 250.488881 
L 175.886437 249.962195 
L 179.818561 249.962195 
L 179.818561 249.435508 
L 182.679251 249.435508 
L 182.679251 248.908822 
L 183.144185 248.908822 
L 183.239074 247.85545 
L 184.971427 247.85545 
L 184.996058 246.802078 
L 192.634788 246.802078 
L 192.634788 246.275392 
L 338.688 246.275392 
L 338.688 246.275392 
" style="fill:none;stroke:#000000;stroke-linecap:square;stroke-width:1.5;"/>
   </g>
   <g id="line2d_45">
    <defs>
     <path d="M 0 6 
C 1.591219 6 3.117479 5.367802 4.242641 4.242641 
C 5.367802 3.117479 6 1.591219 6 0 
C 6 -1.591219 5.367802 -3.117479 4.242641 -4.242641 
C 3.117479 -5.367802 1.591219 -6 0 -6 
C -1.591219 -6 -3.117479 -5.367802 -4.242641 -4.242641 
C -5.367802 -3.117479 -6 -1.591219 -6 0 
C -6 1.591219 -5.367802 3.117479 -4.242641 4.242641 
C -3.117479 5.367802 -1.591219 6 0 6 
z
" id="m15aa65ca56" style="stroke:#000000;stroke-width:1.5;"/>
    </defs>
    <g>
     <use style="fill-opacity:0;stroke:#000000;stroke-width:1.5;" x="168.251094" xlink:href="#m15aa65ca56" y="253.122311"/>
     <use style="fill-opacity:0;stroke:#000000;stroke-width:1.5;" x="192.634788" xlink:href="#m15aa65ca56" y="246.802078"/>
     <use style="fill-opacity:0;stroke:#000000;stroke-width:1.5;" x="192.634788" xlink:href="#m15aa65ca56" y="246.275392"/>
     <use style="fill-opacity:0;stroke:#000000;stroke-width:1.5;" x="192.634788" xlink:href="#m15aa65ca56" y="246.275392"/>
     <use style="fill-opacity:0;stroke:#000000;stroke-width:1.5;" x="338.688" xlink:href="#m15aa65ca56" y="246.275392"/>
    </g>
   </g>
   <g id="line2d_46">
    <path style="fill:none;stroke:#000000;stroke-linecap:square;stroke-width:1.5;"/>
    <g/>
   </g>
   <g id="line2d_47">
    <path clip-path="url(#pdf9b5fea7e)" d="M 149.998846 261.549288 
" style="fill:none;stroke:#000000;stroke-linecap:square;stroke-width:1.5;"/>
    <defs>
     <path d="M -12 12 
L 12 -12 
M -12 -12 
L 12 12 
" id="m7a33d82480" style="stroke:#000000;"/>
    </defs>
    <g clip-path="url(#pdf9b5fea7e)">
     <use style="stroke:#000000;" x="149.998846" xlink:href="#m7a33d82480" y="261.549288"/>
    </g>
   </g>
   <g id="line2d_48">
    <defs>
     <path d="M 0 1.5 
C 0.397805 1.5 0.77937 1.341951 1.06066 1.06066 
C 1.341951 0.77937 1.5 0.397805 1.5 0 
C 1.5 -0.397805 1.341951 -0.77937 1.06066 -1.06066 
C 0.77937 -1.341951 0.397805 -1.5 0 -1.5 
C -0.397805 -1.5 -0.77937 -1.341951 -1.06066 -1.06066 
C -1.341951 -0.77937 -1.5 -0.397805 -1.5 0 
C -1.5 0.397805 -1.341951 0.77937 -1.06066 1.06066 
C -0.77937 1.341951 -0.397805 1.5 0 1.5 
z
" id="mce2f3575cb" style="stroke:#ff0000;"/>
    </defs>
    <g>
     <use style="fill:#ff0000;stroke:#ff0000;" x="199.068024" xlink:href="#mce2f3575cb" y="267.342835"/>
     <use style="fill:#ff0000;stroke:#ff0000;" x="199.068024" xlink:href="#mce2f3575cb" y="267.342835"/>
    </g>
   </g>
   <g id="line2d_49">
    <path d="M 5.356583 298.944 
L 5.356583 287.356906 
L 107.111487 287.356906 
L 107.111487 286.83022 
L 111.104637 286.83022 
L 111.104637 286.303534 
L 111.819788 286.303534 
L 111.819788 285.776848 
L 112.051799 285.776848 
L 112.051799 285.250162 
L 112.242812 285.250162 
L 112.242812 284.19679 
L 112.655818 284.19679 
L 112.655818 283.670104 
L 112.950158 283.670104 
L 112.950158 283.143418 
L 113.382559 283.143418 
L 113.382559 282.616732 
L 114.0117 282.616732 
L 114.0117 282.090045 
L 124.101333 282.090045 
L 124.101333 281.563359 
L 124.273716 281.563359 
L 124.273716 281.036673 
L 124.444412 281.036673 
L 124.444412 280.509987 
L 124.92835 280.509987 
L 124.92835 279.983301 
L 131.236397 279.983301 
L 131.236397 279.456615 
L 132.230358 279.456615 
L 132.230358 278.929929 
L 133.800029 278.929929 
L 133.800029 278.403243 
L 133.997581 278.403243 
L 133.997581 277.876557 
L 139.123342 277.876557 
L 139.123342 277.349871 
L 139.139602 277.349871 
L 139.139602 276.823185 
L 139.437717 276.823185 
L 139.437717 276.296499 
L 141.457116 276.296499 
L 141.457116 275.769812 
L 143.060296 275.769812 
L 143.060296 275.243126 
L 148.330164 275.243126 
L 148.330164 274.71644 
L 153.559329 274.71644 
L 153.559329 274.189754 
L 157.483465 274.189754 
L 157.483465 273.663068 
L 159.738201 273.663068 
L 159.738201 273.136382 
L 163.170735 273.136382 
L 163.170735 272.609696 
L 165.262757 272.609696 
L 165.262757 272.08301 
L 167.627751 272.08301 
L 167.627751 271.556324 
L 168.398956 271.556324 
L 168.398956 271.029638 
L 176.882086 271.029638 
L 176.882086 270.502952 
L 180.497567 270.502952 
L 180.497567 269.976266 
L 180.498325 269.976266 
L 180.498325 269.449579 
L 183.295372 269.449579 
L 183.295372 268.922893 
L 187.823091 268.922893 
L 187.823091 268.396207 
L 193.295277 268.396207 
L 193.295277 267.869521 
L 199.068024 267.869521 
L 199.068024 267.342835 
L 338.688 267.342835 
" style="fill:none;stroke:#ff0000;stroke-linecap:square;stroke-width:1.5;"/>
   </g>
   <g id="line2d_50">
    <defs>
     <path d="M -6 6 
L 6 6 
L 6 -6 
L -6 -6 
z
" id="m39086e45fe" style="stroke:#ff0000;stroke-linejoin:miter;stroke-width:1.5;"/>
    </defs>
    <g>
     <use style="fill-opacity:0;stroke:#ff0000;stroke-linejoin:miter;stroke-width:1.5;" x="168.398956" xlink:href="#m39086e45fe" y="271.029638"/>
     <use style="fill-opacity:0;stroke:#ff0000;stroke-linejoin:miter;stroke-width:1.5;" x="199.068024" xlink:href="#m39086e45fe" y="267.869521"/>
     <use style="fill-opacity:0;stroke:#ff0000;stroke-linejoin:miter;stroke-width:1.5;" x="199.068024" xlink:href="#m39086e45fe" y="267.342835"/>
     <use style="fill-opacity:0;stroke:#ff0000;stroke-linejoin:miter;stroke-width:1.5;" x="199.068024" xlink:href="#m39086e45fe" y="267.342835"/>
     <use style="fill-opacity:0;stroke:#ff0000;stroke-linejoin:miter;stroke-width:1.5;" x="338.688" xlink:href="#m39086e45fe" y="267.342835"/>
    </g>
   </g>
   <g id="line2d_51">
    <path style="fill:none;stroke:#ff0000;stroke-linecap:square;stroke-width:1.5;"/>
    <g/>
   </g>
   <g id="line2d_52">
    <path clip-path="url(#pdf9b5fea7e)" d="M 149.998846 274.71644 
" style="fill:none;stroke:#ff0000;stroke-linecap:square;stroke-width:1.5;"/>
    <defs>
     <path d="M -12 12 
L 12 -12 
M -12 -12 
L 12 12 
" id="m65438e2c62" style="stroke:#ff0000;"/>
    </defs>
    <g clip-path="url(#pdf9b5fea7e)">
     <use style="fill:#ff0000;stroke:#ff0000;" x="149.998846" xlink:href="#m65438e2c62" y="274.71644"/>
    </g>
   </g>
   <g id="line2d_53">
    <defs>
     <path d="M 0 1.5 
C 0.397805 1.5 0.77937 1.341951 1.06066 1.06066 
C 1.341951 0.77937 1.5 0.397805 1.5 0 
C 1.5 -0.397805 1.341951 -0.77937 1.06066 -1.06066 
C 0.77937 -1.341951 0.397805 -1.5 0 -1.5 
C -0.397805 -1.5 -0.77937 -1.341951 -1.06066 -1.06066 
C -1.341951 -0.77937 -1.5 -0.397805 -1.5 0 
C -1.5 0.397805 -1.341951 0.77937 -1.06066 1.06066 
C -0.77937 1.341951 -0.397805 1.5 0 1.5 
z
" id="m6c75b87736" style="stroke:#bf00bf;"/>
    </defs>
    <g>
     <use style="fill:#bf00bf;stroke:#bf00bf;" x="190.838255" xlink:href="#m6c75b87736" y="277.876557"/>
     <use style="fill:#bf00bf;stroke:#bf00bf;" x="190.838255" xlink:href="#m6c75b87736" y="277.876557"/>
    </g>
   </g>
   <g id="line2d_54">
    <path d="M -1 294.730511 
L 116.957981 294.730511 
L 116.957981 294.203825 
L 117.345058 294.203825 
L 117.345058 293.677139 
L 118.094355 293.677139 
L 118.094355 293.150453 
L 118.890808 293.150453 
L 118.890808 292.623767 
L 118.903779 292.623767 
L 118.903779 292.097081 
L 120.069756 292.097081 
L 120.069756 291.570395 
L 120.178563 291.570395 
L 120.178563 291.043709 
L 120.921776 291.043709 
L 120.921776 290.517023 
L 121.196777 290.517023 
L 121.196777 289.990337 
L 121.355214 289.990337 
L 121.355214 289.463651 
L 121.656766 289.463651 
L 121.656766 288.936964 
L 121.77814 288.936964 
L 121.77814 288.410278 
L 122.875446 288.410278 
L 122.875446 287.883592 
L 124.062793 287.883592 
L 124.062793 287.356906 
L 130.384893 287.356906 
L 130.384893 286.83022 
L 132.488101 286.83022 
L 132.488101 286.303534 
L 133.02708 286.303534 
L 133.02708 285.776848 
L 133.510666 285.776848 
L 133.510666 285.250162 
L 136.54655 285.250162 
L 136.54655 284.723476 
L 137.717962 284.723476 
L 137.717962 284.19679 
L 141.489105 284.19679 
L 141.489105 283.670104 
L 142.05853 283.670104 
L 142.05853 283.143418 
L 142.75916 283.143418 
L 142.75916 282.616732 
L 148.200145 282.616732 
L 148.200145 282.090045 
L 149.175317 282.090045 
L 149.175317 281.563359 
L 149.60198 281.563359 
L 149.60198 281.036673 
L 155.862008 281.036673 
L 155.862008 279.983301 
L 166.890507 279.983301 
L 166.890507 279.456615 
L 171.339327 279.456615 
L 171.339327 278.929929 
L 174.077546 278.929929 
L 174.077546 278.403243 
L 190.838255 278.403243 
L 190.838255 277.876557 
L 338.688 277.876557 
" style="fill:none;stroke:#bf00bf;stroke-linecap:square;stroke-width:1.5;"/>
   </g>
   <g id="line2d_55">
    <defs>
     <path d="M -0 8.485281 
L 8.485281 0 
L 0 -8.485281 
L -8.485281 -0 
z
" id="m1fd53e6ccf" style="stroke:#bf00bf;stroke-linejoin:miter;stroke-width:1.5;"/>
    </defs>
    <g>
     <use style="fill-opacity:0;stroke:#bf00bf;stroke-linejoin:miter;stroke-width:1.5;" x="171.339327" xlink:href="#m1fd53e6ccf" y="278.929929"/>
     <use style="fill-opacity:0;stroke:#bf00bf;stroke-linejoin:miter;stroke-width:1.5;" x="190.838255" xlink:href="#m1fd53e6ccf" y="278.403243"/>
     <use style="fill-opacity:0;stroke:#bf00bf;stroke-linejoin:miter;stroke-width:1.5;" x="190.838255" xlink:href="#m1fd53e6ccf" y="277.876557"/>
     <use style="fill-opacity:0;stroke:#bf00bf;stroke-linejoin:miter;stroke-width:1.5;" x="190.838255" xlink:href="#m1fd53e6ccf" y="277.876557"/>
     <use style="fill-opacity:0;stroke:#bf00bf;stroke-linejoin:miter;stroke-width:1.5;" x="338.688" xlink:href="#m1fd53e6ccf" y="277.876557"/>
    </g>
   </g>
   <g id="line2d_56">
    <path style="fill:none;stroke:#bf00bf;stroke-linecap:square;stroke-width:1.5;"/>
    <g/>
   </g>
   <g id="line2d_57">
    <path clip-path="url(#pdf9b5fea7e)" d="M 149.998846 281.036673 
" style="fill:none;stroke:#bf00bf;stroke-linecap:square;stroke-width:1.5;"/>
    <defs>
     <path d="M -12 12 
L 12 -12 
M -12 -12 
L 12 12 
" id="mb13f31adea" style="stroke:#bf00bf;"/>
    </defs>
    <g clip-path="url(#pdf9b5fea7e)">
     <use style="fill:#bf00bf;stroke:#bf00bf;" x="149.998846" xlink:href="#mb13f31adea" y="281.036673"/>
    </g>
   </g>
   <g id="line2d_58">
    <path d="M 338.688 277.876557 
L 369.60768 293.571802 
" style="fill:none;stroke:#bf00bf;stroke-linecap:square;stroke-width:1.5;"/>
    <g>
     <use style="fill-opacity:0;stroke:#bf00bf;stroke-linejoin:miter;stroke-width:1.5;" x="338.688" xlink:href="#m1fd53e6ccf" y="277.876557"/>
     <use style="fill-opacity:0;stroke:#bf00bf;stroke-linejoin:miter;stroke-width:1.5;" x="369.60768" xlink:href="#m1fd53e6ccf" y="293.571802"/>
    </g>
   </g>
   <g id="line2d_59">
    <path d="M 338.688 267.342835 
L 369.60768 241.998701 
" style="fill:none;stroke:#ff0000;stroke-linecap:square;stroke-width:1.5;"/>
    <g>
     <use style="fill-opacity:0;stroke:#ff0000;stroke-linejoin:miter;stroke-width:1.5;" x="338.688" xlink:href="#m39086e45fe" y="267.342835"/>
     <use style="fill-opacity:0;stroke:#ff0000;stroke-linejoin:miter;stroke-width:1.5;" x="369.60768" xlink:href="#m39086e45fe" y="241.998701"/>
    </g>
   </g>
   <g id="line2d_60">
    <path d="M 338.688 246.275392 
L 369.60768 190.4256 
" style="fill:none;stroke:#000000;stroke-linecap:square;stroke-width:1.5;"/>
    <g>
     <use style="fill-opacity:0;stroke:#000000;stroke-width:1.5;" x="338.688" xlink:href="#m15aa65ca56" y="246.275392"/>
     <use style="fill-opacity:0;stroke:#000000;stroke-width:1.5;" x="369.60768" xlink:href="#m15aa65ca56" y="190.4256"/>
    </g>
   </g>
   <g id="line2d_61">
    <path d="M 338.688 109.337011 
L 369.60768 138.852499 
" style="fill:none;stroke:#0000ff;stroke-linecap:square;stroke-width:1.5;"/>
    <g>
     <use style="fill-opacity:0;stroke:#0000ff;stroke-linejoin:bevel;stroke-width:1.5;" x="338.688" xlink:href="#m44ae5dbf10" y="109.337011"/>
     <use style="fill-opacity:0;stroke:#0000ff;stroke-linejoin:bevel;stroke-width:1.5;" x="369.60768" xlink:href="#m44ae5dbf10" y="138.852499"/>
    </g>
   </g>
   <g id="line2d_62">
    <path d="M 338.688 30.334099 
L 369.60768 87.279398 
" style="fill:none;stroke:#008000;stroke-linecap:square;stroke-width:1.5;"/>
    <g>
     <use style="fill-opacity:0;stroke:#008000;stroke-linejoin:miter;stroke-width:1.5;" x="338.688" xlink:href="#m41c0f1c98a" y="30.334099"/>
     <use style="fill-opacity:0;stroke:#008000;stroke-linejoin:miter;stroke-width:1.5;" x="369.60768" xlink:href="#m41c0f1c98a" y="87.279398"/>
    </g>
   </g>
   <g id="line2d_63">
    <path d="M 338.688 30.334099 
L 369.60768 35.706297 
" style="fill:none;stroke:#00bfbf;stroke-linecap:square;stroke-width:1.5;"/>
    <g>
     <use style="fill-opacity:0;stroke:#00bfbf;stroke-width:1.5;" x="338.688" xlink:href="#m8bcf0725da" y="30.334099"/>
     <use style="fill-opacity:0;stroke:#00bfbf;stroke-width:1.5;" x="369.60768" xlink:href="#m8bcf0725da" y="35.706297"/>
    </g>
   </g>
   <g id="line2d_64">
    <path d="M 338.688 298.944 
L 338.688 30.334099 
" style="fill:none;stroke:#000000;stroke-linecap:square;stroke-width:1.5;"/>
   </g>
   <g id="patch_3">
    <path d="M 57.6 298.944 
L 57.6 27.648 
" style="fill:none;stroke:#000000;stroke-linecap:square;stroke-linejoin:miter;stroke-width:0.8;"/>
   </g>
   <g id="patch_4">
    <path d="M 338.688 298.944 
L 338.688 27.648 
" style="fill:none;stroke:#000000;stroke-linecap:square;stroke-linejoin:miter;stroke-width:0.8;"/>
   </g>
   <g id="patch_5">
    <path d="M 57.6 298.944 
L 338.688 298.944 
" style="fill:none;stroke:#000000;stroke-linecap:square;stroke-linejoin:miter;stroke-width:0.8;"/>
   </g>
   <g id="patch_6">
    <path d="M 57.6 27.648 
L 338.688 27.648 
" style="fill:none;stroke:#000000;stroke-linecap:square;stroke-linejoin:miter;stroke-width:0.8;"/>
   </g>
   <g id="text_13">
    <!-- 40-D -->
    <g transform="translate(375.22944 298.262739)scale(0.17 -0.17)">
     <defs>
      <path d="M 19.671875 64.796875 
L 19.671875 8.109375 
L 31.59375 8.109375 
Q 46.6875 8.109375 53.6875 14.9375 
Q 60.6875 21.78125 60.6875 36.53125 
Q 60.6875 51.171875 53.6875 57.984375 
Q 46.6875 64.796875 31.59375 64.796875 
z
M 9.8125 72.90625 
L 30.078125 72.90625 
Q 51.265625 72.90625 61.171875 64.09375 
Q 71.09375 55.28125 71.09375 36.53125 
Q 71.09375 17.671875 61.125 8.828125 
Q 51.171875 0 30.078125 0 
L 9.8125 0 
z
" id="DejaVuSans-68"/>
     </defs>
     <use xlink:href="#DejaVuSans-52"/>
     <use x="63.623047" xlink:href="#DejaVuSans-48"/>
     <use x="127.246094" xlink:href="#DejaVuSans-45"/>
     <use x="163.330078" xlink:href="#DejaVuSans-68"/>
    </g>
   </g>
   <g id="text_14">
    <!-- 20-D -->
    <g transform="translate(375.22944 246.689638)scale(0.17 -0.17)">
     <use xlink:href="#DejaVuSans-50"/>
     <use x="63.623047" xlink:href="#DejaVuSans-48"/>
     <use x="127.246094" xlink:href="#DejaVuSans-45"/>
     <use x="163.330078" xlink:href="#DejaVuSans-68"/>
    </g>
   </g>
   <g id="text_15">
    <!-- 10-D -->
    <g transform="translate(375.22944 195.116537)scale(0.17 -0.17)">
     <use xlink:href="#DejaVuSans-49"/>
     <use x="63.623047" xlink:href="#DejaVuSans-48"/>
     <use x="127.246094" xlink:href="#DejaVuSans-45"/>
     <use x="163.330078" xlink:href="#DejaVuSans-68"/>
    </g>
   </g>
   <g id="text_16">
    <!-- 5-D -->
    <g transform="translate(375.22944 143.543437)scale(0.17 -0.17)">
     <defs>
      <path d="M 10.796875 72.90625 
L 49.515625 72.90625 
L 49.515625 64.59375 
L 19.828125 64.59375 
L 19.828125 46.734375 
Q 21.96875 47.46875 24.109375 47.828125 
Q 26.265625 48.1875 28.421875 48.1875 
Q 40.625 48.1875 47.75 41.5 
Q 54.890625 34.8125 54.890625 23.390625 
Q 54.890625 11.625 47.5625 5.09375 
Q 40.234375 -1.421875 26.90625 -1.421875 
Q 22.3125 -1.421875 17.546875 -0.640625 
Q 12.796875 0.140625 7.71875 1.703125 
L 7.71875 11.625 
Q 12.109375 9.234375 16.796875 8.0625 
Q 21.484375 6.890625 26.703125 6.890625 
Q 35.15625 6.890625 40.078125 11.328125 
Q 45.015625 15.765625 45.015625 23.390625 
Q 45.015625 31 40.078125 35.4375 
Q 35.15625 39.890625 26.703125 39.890625 
Q 22.75 39.890625 18.8125 39.015625 
Q 14.890625 38.140625 10.796875 36.28125 
z
" id="DejaVuSans-53"/>
     </defs>
     <use xlink:href="#DejaVuSans-53"/>
     <use x="63.623047" xlink:href="#DejaVuSans-45"/>
     <use x="99.707031" xlink:href="#DejaVuSans-68"/>
    </g>
   </g>
   <g id="text_17">
    <!-- 3-D -->
    <g transform="translate(375.22944 91.970336)scale(0.17 -0.17)">
     <defs>
      <path d="M 40.578125 39.3125 
Q 47.65625 37.796875 51.625 33 
Q 55.609375 28.21875 55.609375 21.1875 
Q 55.609375 10.40625 48.1875 4.484375 
Q 40.765625 -1.421875 27.09375 -1.421875 
Q 22.515625 -1.421875 17.65625 -0.515625 
Q 12.796875 0.390625 7.625 2.203125 
L 7.625 11.71875 
Q 11.71875 9.328125 16.59375 8.109375 
Q 21.484375 6.890625 26.8125 6.890625 
Q 36.078125 6.890625 40.9375 10.546875 
Q 45.796875 14.203125 45.796875 21.1875 
Q 45.796875 27.640625 41.28125 31.265625 
Q 36.765625 34.90625 28.71875 34.90625 
L 20.21875 34.90625 
L 20.21875 43.015625 
L 29.109375 43.015625 
Q 36.375 43.015625 40.234375 45.921875 
Q 44.09375 48.828125 44.09375 54.296875 
Q 44.09375 59.90625 40.109375 62.90625 
Q 36.140625 65.921875 28.71875 65.921875 
Q 24.65625 65.921875 20.015625 65.03125 
Q 15.375 64.15625 9.8125 62.3125 
L 9.8125 71.09375 
Q 15.4375 72.65625 20.34375 73.4375 
Q 25.25 74.21875 29.59375 74.21875 
Q 40.828125 74.21875 47.359375 69.109375 
Q 53.90625 64.015625 53.90625 55.328125 
Q 53.90625 49.265625 50.4375 45.09375 
Q 46.96875 40.921875 40.578125 39.3125 
z
" id="DejaVuSans-51"/>
     </defs>
     <use xlink:href="#DejaVuSans-51"/>
     <use x="63.623047" xlink:href="#DejaVuSans-45"/>
     <use x="99.707031" xlink:href="#DejaVuSans-68"/>
    </g>
   </g>
   <g id="text_18">
    <!-- 2-D -->
    <g transform="translate(375.22944 40.397235)scale(0.17 -0.17)">
     <use xlink:href="#DejaVuSans-50"/>
     <use x="63.623047" xlink:href="#DejaVuSans-45"/>
     <use x="99.707031" xlink:href="#DejaVuSans-68"/>
    </g>
   </g>
   <g id="text_19">
    <!-- bbob f14 -->
    <g transform="translate(60.41088 38.111366)scale(0.102 -0.102)">
     <defs>
      <path d="M 48.6875 27.296875 
Q 48.6875 37.203125 44.609375 42.84375 
Q 40.53125 48.484375 33.40625 48.484375 
Q 26.265625 48.484375 22.1875 42.84375 
Q 18.109375 37.203125 18.109375 27.296875 
Q 18.109375 17.390625 22.1875 11.75 
Q 26.265625 6.109375 33.40625 6.109375 
Q 40.53125 6.109375 44.609375 11.75 
Q 48.6875 17.390625 48.6875 27.296875 
z
M 18.109375 46.390625 
Q 20.953125 51.265625 25.265625 53.625 
Q 29.59375 56 35.59375 56 
Q 45.5625 56 51.78125 48.09375 
Q 58.015625 40.1875 58.015625 27.296875 
Q 58.015625 14.40625 51.78125 6.484375 
Q 45.5625 -1.421875 35.59375 -1.421875 
Q 29.59375 -1.421875 25.265625 0.953125 
Q 20.953125 3.328125 18.109375 8.203125 
L 18.109375 0 
L 9.078125 0 
L 9.078125 75.984375 
L 18.109375 75.984375 
z
" id="DejaVuSans-98"/>
     </defs>
     <use xlink:href="#DejaVuSans-98"/>
     <use x="63.476562" xlink:href="#DejaVuSans-98"/>
     <use x="126.953125" xlink:href="#DejaVuSans-111"/>
     <use x="188.134766" xlink:href="#DejaVuSans-98"/>
     <use x="251.611328" xlink:href="#DejaVuSans-32"/>
     <use x="283.398438" xlink:href="#DejaVuSans-102"/>
     <use x="318.603516" xlink:href="#DejaVuSans-49"/>
     <use x="382.226562" xlink:href="#DejaVuSans-52"/>
    </g>
    <!-- 51 targets: 100..1e-08 -->
    <g transform="translate(60.41088 49.533135)scale(0.102 -0.102)">
     <defs>
      <path d="M 11.71875 12.40625 
L 22.015625 12.40625 
L 22.015625 0 
L 11.71875 0 
z
M 11.71875 51.703125 
L 22.015625 51.703125 
L 22.015625 39.3125 
L 11.71875 39.3125 
z
" id="DejaVuSans-58"/>
     </defs>
     <use xlink:href="#DejaVuSans-53"/>
     <use x="63.623047" xlink:href="#DejaVuSans-49"/>
     <use x="127.246094" xlink:href="#DejaVuSans-32"/>
     <use x="159.033203" xlink:href="#DejaVuSans-116"/>
     <use x="198.242188" xlink:href="#DejaVuSans-97"/>
     <use x="259.521484" xlink:href="#DejaVuSans-114"/>
     <use x="298.884766" xlink:href="#DejaVuSans-103"/>
     <use x="362.361328" xlink:href="#DejaVuSans-101"/>
     <use x="423.884766" xlink:href="#DejaVuSans-116"/>
     <use x="463.09375" xlink:href="#DejaVuSans-115"/>
     <use x="515.193359" xlink:href="#DejaVuSans-58"/>
     <use x="548.884766" xlink:href="#DejaVuSans-32"/>
     <use x="580.671875" xlink:href="#DejaVuSans-49"/>
     <use x="644.294922" xlink:href="#DejaVuSans-48"/>
     <use x="707.917969" xlink:href="#DejaVuSans-48"/>
     <use x="771.541016" xlink:href="#DejaVuSans-46"/>
     <use x="803.328125" xlink:href="#DejaVuSans-46"/>
     <use x="835.115234" xlink:href="#DejaVuSans-49"/>
     <use x="898.738281" xlink:href="#DejaVuSans-101"/>
     <use x="960.261719" xlink:href="#DejaVuSans-45"/>
     <use x="996.345703" xlink:href="#DejaVuSans-48"/>
     <use x="1059.96875" xlink:href="#DejaVuSans-56"/>
    </g>
    <!-- 15 instances -->
    <g transform="translate(60.41088 60.954904)scale(0.102 -0.102)">
     <use xlink:href="#DejaVuSans-49"/>
     <use x="63.623047" xlink:href="#DejaVuSans-53"/>
     <use x="127.246094" xlink:href="#DejaVuSans-32"/>
     <use x="159.033203" xlink:href="#DejaVuSans-105"/>
     <use x="186.816406" xlink:href="#DejaVuSans-110"/>
     <use x="250.195312" xlink:href="#DejaVuSans-115"/>
     <use x="302.294922" xlink:href="#DejaVuSans-116"/>
     <use x="341.503906" xlink:href="#DejaVuSans-97"/>
     <use x="402.783203" xlink:href="#DejaVuSans-110"/>
     <use x="466.162109" xlink:href="#DejaVuSans-99"/>
     <use x="521.142578" xlink:href="#DejaVuSans-101"/>
     <use x="582.666016" xlink:href="#DejaVuSans-115"/>
    </g>
   </g>
   <g id="text_20">
    <!-- v2.4 -->
    <g style="fill:#808080;" transform="translate(187.233062 294.151352)scale(0.1 -0.1)">
     <use xlink:href="#DejaVuSans-118"/>
     <use x="59.179688" xlink:href="#DejaVuSans-50"/>
     <use x="122.802734" xlink:href="#DejaVuSans-46"/>
     <use x="154.589844" xlink:href="#DejaVuSans-52"/>
    </g>
   </g>
   <g id="text_21">
    <!-- 14 Sum of different powers -->
    <g transform="translate(61.904937 21.648)scale(0.2 -0.2)">
     <defs>
      <path d="M 53.515625 70.515625 
L 53.515625 60.890625 
Q 47.90625 63.578125 42.921875 64.890625 
Q 37.9375 66.21875 33.296875 66.21875 
Q 25.25 66.21875 20.875 63.09375 
Q 16.5 59.96875 16.5 54.203125 
Q 16.5 49.359375 19.40625 46.890625 
Q 22.3125 44.4375 30.421875 42.921875 
L 36.375 41.703125 
Q 47.40625 39.59375 52.65625 34.296875 
Q 57.90625 29 57.90625 20.125 
Q 57.90625 9.515625 50.796875 4.046875 
Q 43.703125 -1.421875 29.984375 -1.421875 
Q 24.8125 -1.421875 18.96875 -0.25 
Q 13.140625 0.921875 6.890625 3.21875 
L 6.890625 13.375 
Q 12.890625 10.015625 18.65625 8.296875 
Q 24.421875 6.59375 29.984375 6.59375 
Q 38.421875 6.59375 43.015625 9.90625 
Q 47.609375 13.234375 47.609375 19.390625 
Q 47.609375 24.75 44.3125 27.78125 
Q 41.015625 30.8125 33.5 32.328125 
L 27.484375 33.5 
Q 16.453125 35.6875 11.515625 40.375 
Q 6.59375 45.0625 6.59375 53.421875 
Q 6.59375 63.09375 13.40625 68.65625 
Q 20.21875 74.21875 32.171875 74.21875 
Q 37.3125 74.21875 42.625 73.28125 
Q 47.953125 72.359375 53.515625 70.515625 
z
" id="DejaVuSans-83"/>
      <path d="M 4.203125 54.6875 
L 13.1875 54.6875 
L 24.421875 12.015625 
L 35.59375 54.6875 
L 46.1875 54.6875 
L 57.421875 12.015625 
L 68.609375 54.6875 
L 77.59375 54.6875 
L 63.28125 0 
L 52.6875 0 
L 40.921875 44.828125 
L 29.109375 0 
L 18.5 0 
z
" id="DejaVuSans-119"/>
     </defs>
     <use xlink:href="#DejaVuSans-49"/>
     <use x="63.623047" xlink:href="#DejaVuSans-52"/>
     <use x="127.246094" xlink:href="#DejaVuSans-32"/>
     <use x="159.033203" xlink:href="#DejaVuSans-83"/>
     <use x="222.509766" xlink:href="#DejaVuSans-117"/>
     <use x="285.888672" xlink:href="#DejaVuSans-109"/>
     <use x="383.300781" xlink:href="#DejaVuSans-32"/>
     <use x="415.087891" xlink:href="#DejaVuSans-111"/>
     <use x="476.269531" xlink:href="#DejaVuSans-102"/>
     <use x="511.474609" xlink:href="#DejaVuSans-32"/>
     <use x="543.261719" xlink:href="#DejaVuSans-100"/>
     <use x="606.738281" xlink:href="#DejaVuSans-105"/>
     <use x="634.521484" xlink:href="#DejaVuSans-102"/>
     <use x="669.726562" xlink:href="#DejaVuSans-102"/>
     <use x="704.931641" xlink:href="#DejaVuSans-101"/>
     <use x="766.455078" xlink:href="#DejaVuSans-114"/>
     <use x="805.318359" xlink:href="#DejaVuSans-101"/>
     <use x="866.841797" xlink:href="#DejaVuSans-110"/>
     <use x="930.220703" xlink:href="#DejaVuSans-116"/>
     <use x="969.429688" xlink:href="#DejaVuSans-32"/>
     <use x="1001.216797" xlink:href="#DejaVuSans-112"/>
     <use x="1064.693359" xlink:href="#DejaVuSans-111"/>
     <use x="1125.875" xlink:href="#DejaVuSans-119"/>
     <use x="1207.662109" xlink:href="#DejaVuSans-101"/>
     <use x="1269.185547" xlink:href="#DejaVuSans-114"/>
     <use x="1310.298828" xlink:href="#DejaVuSans-115"/>
    </g>
   </g>
  </g>
 </g>
 <defs>
  <clipPath id="pdf9b5fea7e">
   <rect height="271.296" width="281.088" x="57.6" y="27.648"/>
  </clipPath>
 </defs>
</svg>
