<?xml version="1.0" encoding="utf-8" standalone="no"?>
<!DOCTYPE svg PUBLIC "-//W3C//DTD SVG 1.1//EN"
  "http://www.w3.org/Graphics/SVG/1.1/DTD/svg11.dtd">
<!-- Created with matplotlib (https://matplotlib.org/) -->
<svg height="345.6pt" version="1.1" viewBox="0 0 460.8 345.6" width="460.8pt" xmlns="http://www.w3.org/2000/svg" xmlns:xlink="http://www.w3.org/1999/xlink">
 <metadata>
  <rdf:RDF xmlns:cc="http://creativecommons.org/ns#" xmlns:dc="http://purl.org/dc/elements/1.1/" xmlns:rdf="http://www.w3.org/1999/02/22-rdf-syntax-ns#">
   <cc:Work>
    <dc:type rdf:resource="http://purl.org/dc/dcmitype/StillImage"/>
    <dc:date>2021-08-04T15:02:26.225309</dc:date>
    <dc:format>image/svg+xml</dc:format>
    <dc:creator>
     <cc:Agent>
      <dc:title>Matplotlib v3.3.1, https://matplotlib.org/</dc:title>
     </cc:Agent>
    </dc:creator>
   </cc:Work>
  </rdf:RDF>
 </metadata>
 <defs>
  <style type="text/css">*{stroke-linecap:butt;stroke-linejoin:round;}</style>
 </defs>
 <g id="figure_1">
  <g id="patch_1">
   <path d="M 0 345.6 
L 460.8 345.6 
L 460.8 0 
L 0 0 
z
" style="fill:#ffffff;"/>
  </g>
  <g id="axes_1">
   <g id="patch_2">
    <path d="M 57.6 298.944 
L 338.688 298.944 
L 338.688 27.648 
L 57.6 27.648 
z
" style="fill:#ffffff;"/>
   </g>
   <g id="matplotlib.axis_1">
    <g id="xtick_1">
     <g id="line2d_1">
      <path clip-path="url(#p7861bd9add)" d="M 57.6 298.944 
L 57.6 27.648 
" style="fill:none;stroke:#b0b0b0;stroke-linecap:square;stroke-width:0.8;"/>
     </g>
     <g id="line2d_2">
      <defs>
       <path d="M 0 0 
L 0 3.5 
" id="mb2c7d9f8d6" style="stroke:#000000;stroke-width:0.8;"/>
      </defs>
      <g>
       <use style="stroke:#000000;stroke-width:0.8;" x="57.6" xlink:href="#mb2c7d9f8d6" y="298.944"/>
      </g>
     </g>
     <g id="text_1">
      <!-- 0 -->
      <g transform="translate(51.2375 321.140875)scale(0.2 -0.2)">
       <defs>
        <path d="M 31.78125 66.40625 
Q 24.171875 66.40625 20.328125 58.90625 
Q 16.5 51.421875 16.5 36.375 
Q 16.5 21.390625 20.328125 13.890625 
Q 24.171875 6.390625 31.78125 6.390625 
Q 39.453125 6.390625 43.28125 13.890625 
Q 47.125 21.390625 47.125 36.375 
Q 47.125 51.421875 43.28125 58.90625 
Q 39.453125 66.40625 31.78125 66.40625 
z
M 31.78125 74.21875 
Q 44.046875 74.21875 50.515625 64.515625 
Q 56.984375 54.828125 56.984375 36.375 
Q 56.984375 17.96875 50.515625 8.265625 
Q 44.046875 -1.421875 31.78125 -1.421875 
Q 19.53125 -1.421875 13.0625 8.265625 
Q 6.59375 17.96875 6.59375 36.375 
Q 6.59375 54.828125 13.0625 64.515625 
Q 19.53125 74.21875 31.78125 74.21875 
z
" id="DejaVuSans-48"/>
       </defs>
       <use xlink:href="#DejaVuSans-48"/>
      </g>
     </g>
    </g>
    <g id="xtick_2">
     <g id="line2d_3">
      <path clip-path="url(#p7861bd9add)" d="M 137.910857 298.944 
L 137.910857 27.648 
" style="fill:none;stroke:#b0b0b0;stroke-linecap:square;stroke-width:0.8;"/>
     </g>
     <g id="line2d_4">
      <g>
       <use style="stroke:#000000;stroke-width:0.8;" x="137.910857" xlink:href="#mb2c7d9f8d6" y="298.944"/>
      </g>
     </g>
     <g id="text_2">
      <!-- 2 -->
      <g transform="translate(131.548357 321.140875)scale(0.2 -0.2)">
       <defs>
        <path d="M 19.1875 8.296875 
L 53.609375 8.296875 
L 53.609375 0 
L 7.328125 0 
L 7.328125 8.296875 
Q 12.9375 14.109375 22.625 23.890625 
Q 32.328125 33.6875 34.8125 36.53125 
Q 39.546875 41.84375 41.421875 45.53125 
Q 43.3125 49.21875 43.3125 52.78125 
Q 43.3125 58.59375 39.234375 62.25 
Q 35.15625 65.921875 28.609375 65.921875 
Q 23.96875 65.921875 18.8125 64.3125 
Q 13.671875 62.703125 7.8125 59.421875 
L 7.8125 69.390625 
Q 13.765625 71.78125 18.9375 73 
Q 24.125 74.21875 28.421875 74.21875 
Q 39.75 74.21875 46.484375 68.546875 
Q 53.21875 62.890625 53.21875 53.421875 
Q 53.21875 48.921875 51.53125 44.890625 
Q 49.859375 40.875 45.40625 35.40625 
Q 44.1875 33.984375 37.640625 27.21875 
Q 31.109375 20.453125 19.1875 8.296875 
z
" id="DejaVuSans-50"/>
       </defs>
       <use xlink:href="#DejaVuSans-50"/>
      </g>
     </g>
    </g>
    <g id="xtick_3">
     <g id="line2d_5">
      <path clip-path="url(#p7861bd9add)" d="M 218.221714 298.944 
L 218.221714 27.648 
" style="fill:none;stroke:#b0b0b0;stroke-linecap:square;stroke-width:0.8;"/>
     </g>
     <g id="line2d_6">
      <g>
       <use style="stroke:#000000;stroke-width:0.8;" x="218.221714" xlink:href="#mb2c7d9f8d6" y="298.944"/>
      </g>
     </g>
     <g id="text_3">
      <!-- 4 -->
      <g transform="translate(211.859214 321.140875)scale(0.2 -0.2)">
       <defs>
        <path d="M 37.796875 64.3125 
L 12.890625 25.390625 
L 37.796875 25.390625 
z
M 35.203125 72.90625 
L 47.609375 72.90625 
L 47.609375 25.390625 
L 58.015625 25.390625 
L 58.015625 17.1875 
L 47.609375 17.1875 
L 47.609375 0 
L 37.796875 0 
L 37.796875 17.1875 
L 4.890625 17.1875 
L 4.890625 26.703125 
z
" id="DejaVuSans-52"/>
       </defs>
       <use xlink:href="#DejaVuSans-52"/>
      </g>
     </g>
    </g>
    <g id="xtick_4">
     <g id="line2d_7">
      <path clip-path="url(#p7861bd9add)" d="M 298.532571 298.944 
L 298.532571 27.648 
" style="fill:none;stroke:#b0b0b0;stroke-linecap:square;stroke-width:0.8;"/>
     </g>
     <g id="line2d_8">
      <g>
       <use style="stroke:#000000;stroke-width:0.8;" x="298.532571" xlink:href="#mb2c7d9f8d6" y="298.944"/>
      </g>
     </g>
     <g id="text_4">
      <!-- 6 -->
      <g transform="translate(292.170071 321.140875)scale(0.2 -0.2)">
       <defs>
        <path d="M 33.015625 40.375 
Q 26.375 40.375 22.484375 35.828125 
Q 18.609375 31.296875 18.609375 23.390625 
Q 18.609375 15.53125 22.484375 10.953125 
Q 26.375 6.390625 33.015625 6.390625 
Q 39.65625 6.390625 43.53125 10.953125 
Q 47.40625 15.53125 47.40625 23.390625 
Q 47.40625 31.296875 43.53125 35.828125 
Q 39.65625 40.375 33.015625 40.375 
z
M 52.59375 71.296875 
L 52.59375 62.3125 
Q 48.875 64.0625 45.09375 64.984375 
Q 41.3125 65.921875 37.59375 65.921875 
Q 27.828125 65.921875 22.671875 59.328125 
Q 17.53125 52.734375 16.796875 39.40625 
Q 19.671875 43.65625 24.015625 45.921875 
Q 28.375 48.1875 33.59375 48.1875 
Q 44.578125 48.1875 50.953125 41.515625 
Q 57.328125 34.859375 57.328125 23.390625 
Q 57.328125 12.15625 50.6875 5.359375 
Q 44.046875 -1.421875 33.015625 -1.421875 
Q 20.359375 -1.421875 13.671875 8.265625 
Q 6.984375 17.96875 6.984375 36.375 
Q 6.984375 53.65625 15.1875 63.9375 
Q 23.390625 74.21875 37.203125 74.21875 
Q 40.921875 74.21875 44.703125 73.484375 
Q 48.484375 72.75 52.59375 71.296875 
z
" id="DejaVuSans-54"/>
       </defs>
       <use xlink:href="#DejaVuSans-54"/>
      </g>
     </g>
    </g>
    <g id="xtick_5">
     <g id="line2d_9">
      <path clip-path="url(#p7861bd9add)" d="M 97.755429 298.944 
L 97.755429 27.648 
" style="fill:none;stroke:#b0b0b0;stroke-linecap:square;stroke-width:0.8;"/>
     </g>
     <g id="line2d_10">
      <defs>
       <path d="M 0 0 
L 0 2 
" id="mc332871630" style="stroke:#000000;stroke-width:0.6;"/>
      </defs>
      <g>
       <use style="stroke:#000000;stroke-width:0.6;" x="97.755429" xlink:href="#mc332871630" y="298.944"/>
      </g>
     </g>
    </g>
    <g id="xtick_6">
     <g id="line2d_11">
      <path clip-path="url(#p7861bd9add)" d="M 178.066286 298.944 
L 178.066286 27.648 
" style="fill:none;stroke:#b0b0b0;stroke-linecap:square;stroke-width:0.8;"/>
     </g>
     <g id="line2d_12">
      <g>
       <use style="stroke:#000000;stroke-width:0.6;" x="178.066286" xlink:href="#mc332871630" y="298.944"/>
      </g>
     </g>
    </g>
    <g id="xtick_7">
     <g id="line2d_13">
      <path clip-path="url(#p7861bd9add)" d="M 258.377143 298.944 
L 258.377143 27.648 
" style="fill:none;stroke:#b0b0b0;stroke-linecap:square;stroke-width:0.8;"/>
     </g>
     <g id="line2d_14">
      <g>
       <use style="stroke:#000000;stroke-width:0.6;" x="258.377143" xlink:href="#mc332871630" y="298.944"/>
      </g>
     </g>
    </g>
    <g id="xtick_8">
     <g id="line2d_15">
      <path clip-path="url(#p7861bd9add)" d="M 338.688 298.944 
L 338.688 27.648 
" style="fill:none;stroke:#b0b0b0;stroke-linecap:square;stroke-width:0.8;"/>
     </g>
     <g id="line2d_16">
      <g>
       <use style="stroke:#000000;stroke-width:0.6;" x="338.688" xlink:href="#mc332871630" y="298.944"/>
      </g>
     </g>
    </g>
    <g id="text_5">
     <!-- log10(# f-evals / dimension) -->
     <g transform="translate(77.764078 342.217594)scale(0.17 -0.17)">
      <defs>
       <path d="M 9.421875 75.984375 
L 18.40625 75.984375 
L 18.40625 0 
L 9.421875 0 
z
" id="DejaVuSans-108"/>
       <path d="M 30.609375 48.390625 
Q 23.390625 48.390625 19.1875 42.75 
Q 14.984375 37.109375 14.984375 27.296875 
Q 14.984375 17.484375 19.15625 11.84375 
Q 23.34375 6.203125 30.609375 6.203125 
Q 37.796875 6.203125 41.984375 11.859375 
Q 46.1875 17.53125 46.1875 27.296875 
Q 46.1875 37.015625 41.984375 42.703125 
Q 37.796875 48.390625 30.609375 48.390625 
z
M 30.609375 56 
Q 42.328125 56 49.015625 48.375 
Q 55.71875 40.765625 55.71875 27.296875 
Q 55.71875 13.875 49.015625 6.21875 
Q 42.328125 -1.421875 30.609375 -1.421875 
Q 18.84375 -1.421875 12.171875 6.21875 
Q 5.515625 13.875 5.515625 27.296875 
Q 5.515625 40.765625 12.171875 48.375 
Q 18.84375 56 30.609375 56 
z
" id="DejaVuSans-111"/>
       <path d="M 45.40625 27.984375 
Q 45.40625 37.75 41.375 43.109375 
Q 37.359375 48.484375 30.078125 48.484375 
Q 22.859375 48.484375 18.828125 43.109375 
Q 14.796875 37.75 14.796875 27.984375 
Q 14.796875 18.265625 18.828125 12.890625 
Q 22.859375 7.515625 30.078125 7.515625 
Q 37.359375 7.515625 41.375 12.890625 
Q 45.40625 18.265625 45.40625 27.984375 
z
M 54.390625 6.78125 
Q 54.390625 -7.171875 48.1875 -13.984375 
Q 42 -20.796875 29.203125 -20.796875 
Q 24.46875 -20.796875 20.265625 -20.09375 
Q 16.0625 -19.390625 12.109375 -17.921875 
L 12.109375 -9.1875 
Q 16.0625 -11.328125 19.921875 -12.34375 
Q 23.78125 -13.375 27.78125 -13.375 
Q 36.625 -13.375 41.015625 -8.765625 
Q 45.40625 -4.15625 45.40625 5.171875 
L 45.40625 9.625 
Q 42.625 4.78125 38.28125 2.390625 
Q 33.9375 0 27.875 0 
Q 17.828125 0 11.671875 7.65625 
Q 5.515625 15.328125 5.515625 27.984375 
Q 5.515625 40.671875 11.671875 48.328125 
Q 17.828125 56 27.875 56 
Q 33.9375 56 38.28125 53.609375 
Q 42.625 51.21875 45.40625 46.390625 
L 45.40625 54.6875 
L 54.390625 54.6875 
z
" id="DejaVuSans-103"/>
       <path d="M 12.40625 8.296875 
L 28.515625 8.296875 
L 28.515625 63.921875 
L 10.984375 60.40625 
L 10.984375 69.390625 
L 28.421875 72.90625 
L 38.28125 72.90625 
L 38.28125 8.296875 
L 54.390625 8.296875 
L 54.390625 0 
L 12.40625 0 
z
" id="DejaVuSans-49"/>
       <path d="M 31 75.875 
Q 24.46875 64.65625 21.28125 53.65625 
Q 18.109375 42.671875 18.109375 31.390625 
Q 18.109375 20.125 21.3125 9.0625 
Q 24.515625 -2 31 -13.1875 
L 23.1875 -13.1875 
Q 15.875 -1.703125 12.234375 9.375 
Q 8.59375 20.453125 8.59375 31.390625 
Q 8.59375 42.28125 12.203125 53.3125 
Q 15.828125 64.359375 23.1875 75.875 
z
" id="DejaVuSans-40"/>
       <path d="M 51.125 44 
L 36.921875 44 
L 32.8125 27.6875 
L 47.125 27.6875 
z
M 43.796875 71.78125 
L 38.71875 51.515625 
L 52.984375 51.515625 
L 58.109375 71.78125 
L 65.921875 71.78125 
L 60.890625 51.515625 
L 76.125 51.515625 
L 76.125 44 
L 58.984375 44 
L 54.984375 27.6875 
L 70.515625 27.6875 
L 70.515625 20.21875 
L 53.078125 20.21875 
L 48 0 
L 40.1875 0 
L 45.21875 20.21875 
L 30.90625 20.21875 
L 25.875 0 
L 18.015625 0 
L 23.09375 20.21875 
L 7.71875 20.21875 
L 7.71875 27.6875 
L 24.90625 27.6875 
L 29 44 
L 13.28125 44 
L 13.28125 51.515625 
L 30.90625 51.515625 
L 35.890625 71.78125 
z
" id="DejaVuSans-35"/>
       <path id="DejaVuSans-32"/>
       <path d="M 37.109375 75.984375 
L 37.109375 68.5 
L 28.515625 68.5 
Q 23.6875 68.5 21.796875 66.546875 
Q 19.921875 64.59375 19.921875 59.515625 
L 19.921875 54.6875 
L 34.71875 54.6875 
L 34.71875 47.703125 
L 19.921875 47.703125 
L 19.921875 0 
L 10.890625 0 
L 10.890625 47.703125 
L 2.296875 47.703125 
L 2.296875 54.6875 
L 10.890625 54.6875 
L 10.890625 58.5 
Q 10.890625 67.625 15.140625 71.796875 
Q 19.390625 75.984375 28.609375 75.984375 
z
" id="DejaVuSans-102"/>
       <path d="M 4.890625 31.390625 
L 31.203125 31.390625 
L 31.203125 23.390625 
L 4.890625 23.390625 
z
" id="DejaVuSans-45"/>
       <path d="M 56.203125 29.59375 
L 56.203125 25.203125 
L 14.890625 25.203125 
Q 15.484375 15.921875 20.484375 11.0625 
Q 25.484375 6.203125 34.421875 6.203125 
Q 39.59375 6.203125 44.453125 7.46875 
Q 49.3125 8.734375 54.109375 11.28125 
L 54.109375 2.78125 
Q 49.265625 0.734375 44.1875 -0.34375 
Q 39.109375 -1.421875 33.890625 -1.421875 
Q 20.796875 -1.421875 13.15625 6.1875 
Q 5.515625 13.8125 5.515625 26.8125 
Q 5.515625 40.234375 12.765625 48.109375 
Q 20.015625 56 32.328125 56 
Q 43.359375 56 49.78125 48.890625 
Q 56.203125 41.796875 56.203125 29.59375 
z
M 47.21875 32.234375 
Q 47.125 39.59375 43.09375 43.984375 
Q 39.0625 48.390625 32.421875 48.390625 
Q 24.90625 48.390625 20.390625 44.140625 
Q 15.875 39.890625 15.1875 32.171875 
z
" id="DejaVuSans-101"/>
       <path d="M 2.984375 54.6875 
L 12.5 54.6875 
L 29.59375 8.796875 
L 46.6875 54.6875 
L 56.203125 54.6875 
L 35.6875 0 
L 23.484375 0 
z
" id="DejaVuSans-118"/>
       <path d="M 34.28125 27.484375 
Q 23.390625 27.484375 19.1875 25 
Q 14.984375 22.515625 14.984375 16.5 
Q 14.984375 11.71875 18.140625 8.90625 
Q 21.296875 6.109375 26.703125 6.109375 
Q 34.1875 6.109375 38.703125 11.40625 
Q 43.21875 16.703125 43.21875 25.484375 
L 43.21875 27.484375 
z
M 52.203125 31.203125 
L 52.203125 0 
L 43.21875 0 
L 43.21875 8.296875 
Q 40.140625 3.328125 35.546875 0.953125 
Q 30.953125 -1.421875 24.3125 -1.421875 
Q 15.921875 -1.421875 10.953125 3.296875 
Q 6 8.015625 6 15.921875 
Q 6 25.140625 12.171875 29.828125 
Q 18.359375 34.515625 30.609375 34.515625 
L 43.21875 34.515625 
L 43.21875 35.40625 
Q 43.21875 41.609375 39.140625 45 
Q 35.0625 48.390625 27.6875 48.390625 
Q 23 48.390625 18.546875 47.265625 
Q 14.109375 46.140625 10.015625 43.890625 
L 10.015625 52.203125 
Q 14.9375 54.109375 19.578125 55.046875 
Q 24.21875 56 28.609375 56 
Q 40.484375 56 46.34375 49.84375 
Q 52.203125 43.703125 52.203125 31.203125 
z
" id="DejaVuSans-97"/>
       <path d="M 44.28125 53.078125 
L 44.28125 44.578125 
Q 40.484375 46.53125 36.375 47.5 
Q 32.28125 48.484375 27.875 48.484375 
Q 21.1875 48.484375 17.84375 46.4375 
Q 14.5 44.390625 14.5 40.28125 
Q 14.5 37.15625 16.890625 35.375 
Q 19.28125 33.59375 26.515625 31.984375 
L 29.59375 31.296875 
Q 39.15625 29.25 43.1875 25.515625 
Q 47.21875 21.78125 47.21875 15.09375 
Q 47.21875 7.46875 41.1875 3.015625 
Q 35.15625 -1.421875 24.609375 -1.421875 
Q 20.21875 -1.421875 15.453125 -0.5625 
Q 10.6875 0.296875 5.421875 2 
L 5.421875 11.28125 
Q 10.40625 8.6875 15.234375 7.390625 
Q 20.0625 6.109375 24.8125 6.109375 
Q 31.15625 6.109375 34.5625 8.28125 
Q 37.984375 10.453125 37.984375 14.40625 
Q 37.984375 18.0625 35.515625 20.015625 
Q 33.0625 21.96875 24.703125 23.78125 
L 21.578125 24.515625 
Q 13.234375 26.265625 9.515625 29.90625 
Q 5.8125 33.546875 5.8125 39.890625 
Q 5.8125 47.609375 11.28125 51.796875 
Q 16.75 56 26.8125 56 
Q 31.78125 56 36.171875 55.265625 
Q 40.578125 54.546875 44.28125 53.078125 
z
" id="DejaVuSans-115"/>
       <path d="M 25.390625 72.90625 
L 33.6875 72.90625 
L 8.296875 -9.28125 
L 0 -9.28125 
z
" id="DejaVuSans-47"/>
       <path d="M 45.40625 46.390625 
L 45.40625 75.984375 
L 54.390625 75.984375 
L 54.390625 0 
L 45.40625 0 
L 45.40625 8.203125 
Q 42.578125 3.328125 38.25 0.953125 
Q 33.9375 -1.421875 27.875 -1.421875 
Q 17.96875 -1.421875 11.734375 6.484375 
Q 5.515625 14.40625 5.515625 27.296875 
Q 5.515625 40.1875 11.734375 48.09375 
Q 17.96875 56 27.875 56 
Q 33.9375 56 38.25 53.625 
Q 42.578125 51.265625 45.40625 46.390625 
z
M 14.796875 27.296875 
Q 14.796875 17.390625 18.875 11.75 
Q 22.953125 6.109375 30.078125 6.109375 
Q 37.203125 6.109375 41.296875 11.75 
Q 45.40625 17.390625 45.40625 27.296875 
Q 45.40625 37.203125 41.296875 42.84375 
Q 37.203125 48.484375 30.078125 48.484375 
Q 22.953125 48.484375 18.875 42.84375 
Q 14.796875 37.203125 14.796875 27.296875 
z
" id="DejaVuSans-100"/>
       <path d="M 9.421875 54.6875 
L 18.40625 54.6875 
L 18.40625 0 
L 9.421875 0 
z
M 9.421875 75.984375 
L 18.40625 75.984375 
L 18.40625 64.59375 
L 9.421875 64.59375 
z
" id="DejaVuSans-105"/>
       <path d="M 52 44.1875 
Q 55.375 50.25 60.0625 53.125 
Q 64.75 56 71.09375 56 
Q 79.640625 56 84.28125 50.015625 
Q 88.921875 44.046875 88.921875 33.015625 
L 88.921875 0 
L 79.890625 0 
L 79.890625 32.71875 
Q 79.890625 40.578125 77.09375 44.375 
Q 74.3125 48.1875 68.609375 48.1875 
Q 61.625 48.1875 57.5625 43.546875 
Q 53.515625 38.921875 53.515625 30.90625 
L 53.515625 0 
L 44.484375 0 
L 44.484375 32.71875 
Q 44.484375 40.625 41.703125 44.40625 
Q 38.921875 48.1875 33.109375 48.1875 
Q 26.21875 48.1875 22.15625 43.53125 
Q 18.109375 38.875 18.109375 30.90625 
L 18.109375 0 
L 9.078125 0 
L 9.078125 54.6875 
L 18.109375 54.6875 
L 18.109375 46.1875 
Q 21.1875 51.21875 25.484375 53.609375 
Q 29.78125 56 35.6875 56 
Q 41.65625 56 45.828125 52.96875 
Q 50 49.953125 52 44.1875 
z
" id="DejaVuSans-109"/>
       <path d="M 54.890625 33.015625 
L 54.890625 0 
L 45.90625 0 
L 45.90625 32.71875 
Q 45.90625 40.484375 42.875 44.328125 
Q 39.84375 48.1875 33.796875 48.1875 
Q 26.515625 48.1875 22.3125 43.546875 
Q 18.109375 38.921875 18.109375 30.90625 
L 18.109375 0 
L 9.078125 0 
L 9.078125 54.6875 
L 18.109375 54.6875 
L 18.109375 46.1875 
Q 21.34375 51.125 25.703125 53.5625 
Q 30.078125 56 35.796875 56 
Q 45.21875 56 50.046875 50.171875 
Q 54.890625 44.34375 54.890625 33.015625 
z
" id="DejaVuSans-110"/>
       <path d="M 8.015625 75.875 
L 15.828125 75.875 
Q 23.140625 64.359375 26.78125 53.3125 
Q 30.421875 42.28125 30.421875 31.390625 
Q 30.421875 20.453125 26.78125 9.375 
Q 23.140625 -1.703125 15.828125 -13.1875 
L 8.015625 -13.1875 
Q 14.5 -2 17.703125 9.0625 
Q 20.90625 20.125 20.90625 31.390625 
Q 20.90625 42.671875 17.703125 53.65625 
Q 14.5 64.65625 8.015625 75.875 
z
" id="DejaVuSans-41"/>
      </defs>
      <use xlink:href="#DejaVuSans-108"/>
      <use x="27.783203" xlink:href="#DejaVuSans-111"/>
      <use x="88.964844" xlink:href="#DejaVuSans-103"/>
      <use x="152.441406" xlink:href="#DejaVuSans-49"/>
      <use x="216.064453" xlink:href="#DejaVuSans-48"/>
      <use x="279.6875" xlink:href="#DejaVuSans-40"/>
      <use x="318.701172" xlink:href="#DejaVuSans-35"/>
      <use x="402.490234" xlink:href="#DejaVuSans-32"/>
      <use x="434.277344" xlink:href="#DejaVuSans-102"/>
      <use x="463.982422" xlink:href="#DejaVuSans-45"/>
      <use x="500.066406" xlink:href="#DejaVuSans-101"/>
      <use x="561.589844" xlink:href="#DejaVuSans-118"/>
      <use x="620.769531" xlink:href="#DejaVuSans-97"/>
      <use x="682.048828" xlink:href="#DejaVuSans-108"/>
      <use x="709.832031" xlink:href="#DejaVuSans-115"/>
      <use x="761.931641" xlink:href="#DejaVuSans-32"/>
      <use x="793.71875" xlink:href="#DejaVuSans-47"/>
      <use x="827.410156" xlink:href="#DejaVuSans-32"/>
      <use x="859.197266" xlink:href="#DejaVuSans-100"/>
      <use x="922.673828" xlink:href="#DejaVuSans-105"/>
      <use x="950.457031" xlink:href="#DejaVuSans-109"/>
      <use x="1047.869141" xlink:href="#DejaVuSans-101"/>
      <use x="1109.392578" xlink:href="#DejaVuSans-110"/>
      <use x="1172.771484" xlink:href="#DejaVuSans-115"/>
      <use x="1224.871094" xlink:href="#DejaVuSans-105"/>
      <use x="1252.654297" xlink:href="#DejaVuSans-111"/>
      <use x="1313.835938" xlink:href="#DejaVuSans-110"/>
      <use x="1377.214844" xlink:href="#DejaVuSans-41"/>
     </g>
    </g>
   </g>
   <g id="matplotlib.axis_2">
    <g id="ytick_1">
     <g id="line2d_17">
      <path clip-path="url(#p7861bd9add)" d="M 57.6 298.944 
L 338.688 298.944 
" style="fill:none;stroke:#b0b0b0;stroke-linecap:square;stroke-width:0.8;"/>
     </g>
     <g id="line2d_18">
      <defs>
       <path d="M 0 0 
L -3.5 0 
" id="ma73a494c8c" style="stroke:#000000;stroke-width:0.8;"/>
      </defs>
      <g>
       <use style="stroke:#000000;stroke-width:0.8;" x="57.6" xlink:href="#ma73a494c8c" y="298.944"/>
      </g>
     </g>
     <g id="text_6">
      <!-- 0.0 -->
      <g transform="translate(25.155 305.02275)scale(0.16 -0.16)">
       <defs>
        <path d="M 10.6875 12.40625 
L 21 12.40625 
L 21 0 
L 10.6875 0 
z
" id="DejaVuSans-46"/>
       </defs>
       <use xlink:href="#DejaVuSans-48"/>
       <use x="63.623047" xlink:href="#DejaVuSans-46"/>
       <use x="95.410156" xlink:href="#DejaVuSans-48"/>
      </g>
     </g>
    </g>
    <g id="ytick_2">
     <g id="line2d_19">
      <path clip-path="url(#p7861bd9add)" d="M 57.6 245.22202 
L 338.688 245.22202 
" style="fill:none;stroke:#b0b0b0;stroke-linecap:square;stroke-width:0.8;"/>
     </g>
     <g id="line2d_20">
      <g>
       <use style="stroke:#000000;stroke-width:0.8;" x="57.6" xlink:href="#ma73a494c8c" y="245.22202"/>
      </g>
     </g>
     <g id="text_7">
      <!-- 0.2 -->
      <g transform="translate(25.155 251.30077)scale(0.16 -0.16)">
       <use xlink:href="#DejaVuSans-48"/>
       <use x="63.623047" xlink:href="#DejaVuSans-46"/>
       <use x="95.410156" xlink:href="#DejaVuSans-50"/>
      </g>
     </g>
    </g>
    <g id="ytick_3">
     <g id="line2d_21">
      <path clip-path="url(#p7861bd9add)" d="M 57.6 191.50004 
L 338.688 191.50004 
" style="fill:none;stroke:#b0b0b0;stroke-linecap:square;stroke-width:0.8;"/>
     </g>
     <g id="line2d_22">
      <g>
       <use style="stroke:#000000;stroke-width:0.8;" x="57.6" xlink:href="#ma73a494c8c" y="191.50004"/>
      </g>
     </g>
     <g id="text_8">
      <!-- 0.4 -->
      <g transform="translate(25.155 197.57879)scale(0.16 -0.16)">
       <use xlink:href="#DejaVuSans-48"/>
       <use x="63.623047" xlink:href="#DejaVuSans-46"/>
       <use x="95.410156" xlink:href="#DejaVuSans-52"/>
      </g>
     </g>
    </g>
    <g id="ytick_4">
     <g id="line2d_23">
      <path clip-path="url(#p7861bd9add)" d="M 57.6 137.778059 
L 338.688 137.778059 
" style="fill:none;stroke:#b0b0b0;stroke-linecap:square;stroke-width:0.8;"/>
     </g>
     <g id="line2d_24">
      <g>
       <use style="stroke:#000000;stroke-width:0.8;" x="57.6" xlink:href="#ma73a494c8c" y="137.778059"/>
      </g>
     </g>
     <g id="text_9">
      <!-- 0.6 -->
      <g transform="translate(25.155 143.856809)scale(0.16 -0.16)">
       <use xlink:href="#DejaVuSans-48"/>
       <use x="63.623047" xlink:href="#DejaVuSans-46"/>
       <use x="95.410156" xlink:href="#DejaVuSans-54"/>
      </g>
     </g>
    </g>
    <g id="ytick_5">
     <g id="line2d_25">
      <path clip-path="url(#p7861bd9add)" d="M 57.6 84.056079 
L 338.688 84.056079 
" style="fill:none;stroke:#b0b0b0;stroke-linecap:square;stroke-width:0.8;"/>
     </g>
     <g id="line2d_26">
      <g>
       <use style="stroke:#000000;stroke-width:0.8;" x="57.6" xlink:href="#ma73a494c8c" y="84.056079"/>
      </g>
     </g>
     <g id="text_10">
      <!-- 0.8 -->
      <g transform="translate(25.155 90.134829)scale(0.16 -0.16)">
       <defs>
        <path d="M 31.78125 34.625 
Q 24.75 34.625 20.71875 30.859375 
Q 16.703125 27.09375 16.703125 20.515625 
Q 16.703125 13.921875 20.71875 10.15625 
Q 24.75 6.390625 31.78125 6.390625 
Q 38.8125 6.390625 42.859375 10.171875 
Q 46.921875 13.96875 46.921875 20.515625 
Q 46.921875 27.09375 42.890625 30.859375 
Q 38.875 34.625 31.78125 34.625 
z
M 21.921875 38.8125 
Q 15.578125 40.375 12.03125 44.71875 
Q 8.5 49.078125 8.5 55.328125 
Q 8.5 64.0625 14.71875 69.140625 
Q 20.953125 74.21875 31.78125 74.21875 
Q 42.671875 74.21875 48.875 69.140625 
Q 55.078125 64.0625 55.078125 55.328125 
Q 55.078125 49.078125 51.53125 44.71875 
Q 48 40.375 41.703125 38.8125 
Q 48.828125 37.15625 52.796875 32.3125 
Q 56.78125 27.484375 56.78125 20.515625 
Q 56.78125 9.90625 50.3125 4.234375 
Q 43.84375 -1.421875 31.78125 -1.421875 
Q 19.734375 -1.421875 13.25 4.234375 
Q 6.78125 9.90625 6.78125 20.515625 
Q 6.78125 27.484375 10.78125 32.3125 
Q 14.796875 37.15625 21.921875 38.8125 
z
M 18.3125 54.390625 
Q 18.3125 48.734375 21.84375 45.5625 
Q 25.390625 42.390625 31.78125 42.390625 
Q 38.140625 42.390625 41.71875 45.5625 
Q 45.3125 48.734375 45.3125 54.390625 
Q 45.3125 60.0625 41.71875 63.234375 
Q 38.140625 66.40625 31.78125 66.40625 
Q 25.390625 66.40625 21.84375 63.234375 
Q 18.3125 60.0625 18.3125 54.390625 
z
" id="DejaVuSans-56"/>
       </defs>
       <use xlink:href="#DejaVuSans-48"/>
       <use x="63.623047" xlink:href="#DejaVuSans-46"/>
       <use x="95.410156" xlink:href="#DejaVuSans-56"/>
      </g>
     </g>
    </g>
    <g id="ytick_6">
     <g id="line2d_27">
      <path clip-path="url(#p7861bd9add)" d="M 57.6 30.334099 
L 338.688 30.334099 
" style="fill:none;stroke:#b0b0b0;stroke-linecap:square;stroke-width:0.8;"/>
     </g>
     <g id="line2d_28">
      <g>
       <use style="stroke:#000000;stroke-width:0.8;" x="57.6" xlink:href="#ma73a494c8c" y="30.334099"/>
      </g>
     </g>
     <g id="text_11">
      <!-- 1.0 -->
      <g transform="translate(25.155 36.412849)scale(0.16 -0.16)">
       <use xlink:href="#DejaVuSans-49"/>
       <use x="63.623047" xlink:href="#DejaVuSans-46"/>
       <use x="95.410156" xlink:href="#DejaVuSans-48"/>
      </g>
     </g>
    </g>
    <g id="text_12">
     <!-- Fraction of function,target pairs -->
     <g transform="translate(17.619531 297.681)rotate(-90)scale(0.17 -0.17)">
      <defs>
       <path d="M 9.8125 72.90625 
L 51.703125 72.90625 
L 51.703125 64.59375 
L 19.671875 64.59375 
L 19.671875 43.109375 
L 48.578125 43.109375 
L 48.578125 34.8125 
L 19.671875 34.8125 
L 19.671875 0 
L 9.8125 0 
z
" id="DejaVuSans-70"/>
       <path d="M 41.109375 46.296875 
Q 39.59375 47.171875 37.8125 47.578125 
Q 36.03125 48 33.890625 48 
Q 26.265625 48 22.1875 43.046875 
Q 18.109375 38.09375 18.109375 28.8125 
L 18.109375 0 
L 9.078125 0 
L 9.078125 54.6875 
L 18.109375 54.6875 
L 18.109375 46.1875 
Q 20.953125 51.171875 25.484375 53.578125 
Q 30.03125 56 36.53125 56 
Q 37.453125 56 38.578125 55.875 
Q 39.703125 55.765625 41.0625 55.515625 
z
" id="DejaVuSans-114"/>
       <path d="M 48.78125 52.59375 
L 48.78125 44.1875 
Q 44.96875 46.296875 41.140625 47.34375 
Q 37.3125 48.390625 33.40625 48.390625 
Q 24.65625 48.390625 19.8125 42.84375 
Q 14.984375 37.3125 14.984375 27.296875 
Q 14.984375 17.28125 19.8125 11.734375 
Q 24.65625 6.203125 33.40625 6.203125 
Q 37.3125 6.203125 41.140625 7.25 
Q 44.96875 8.296875 48.78125 10.40625 
L 48.78125 2.09375 
Q 45.015625 0.34375 40.984375 -0.53125 
Q 36.96875 -1.421875 32.421875 -1.421875 
Q 20.0625 -1.421875 12.78125 6.34375 
Q 5.515625 14.109375 5.515625 27.296875 
Q 5.515625 40.671875 12.859375 48.328125 
Q 20.21875 56 33.015625 56 
Q 37.15625 56 41.109375 55.140625 
Q 45.0625 54.296875 48.78125 52.59375 
z
" id="DejaVuSans-99"/>
       <path d="M 18.3125 70.21875 
L 18.3125 54.6875 
L 36.8125 54.6875 
L 36.8125 47.703125 
L 18.3125 47.703125 
L 18.3125 18.015625 
Q 18.3125 11.328125 20.140625 9.421875 
Q 21.96875 7.515625 27.59375 7.515625 
L 36.8125 7.515625 
L 36.8125 0 
L 27.59375 0 
Q 17.1875 0 13.234375 3.875 
Q 9.28125 7.765625 9.28125 18.015625 
L 9.28125 47.703125 
L 2.6875 47.703125 
L 2.6875 54.6875 
L 9.28125 54.6875 
L 9.28125 70.21875 
z
" id="DejaVuSans-116"/>
       <path d="M 8.5 21.578125 
L 8.5 54.6875 
L 17.484375 54.6875 
L 17.484375 21.921875 
Q 17.484375 14.15625 20.5 10.265625 
Q 23.53125 6.390625 29.59375 6.390625 
Q 36.859375 6.390625 41.078125 11.03125 
Q 45.3125 15.671875 45.3125 23.6875 
L 45.3125 54.6875 
L 54.296875 54.6875 
L 54.296875 0 
L 45.3125 0 
L 45.3125 8.40625 
Q 42.046875 3.421875 37.71875 1 
Q 33.40625 -1.421875 27.6875 -1.421875 
Q 18.265625 -1.421875 13.375 4.4375 
Q 8.5 10.296875 8.5 21.578125 
z
M 31.109375 56 
z
" id="DejaVuSans-117"/>
       <path d="M 11.71875 12.40625 
L 22.015625 12.40625 
L 22.015625 4 
L 14.015625 -11.625 
L 7.71875 -11.625 
L 11.71875 4 
z
" id="DejaVuSans-44"/>
       <path d="M 18.109375 8.203125 
L 18.109375 -20.796875 
L 9.078125 -20.796875 
L 9.078125 54.6875 
L 18.109375 54.6875 
L 18.109375 46.390625 
Q 20.953125 51.265625 25.265625 53.625 
Q 29.59375 56 35.59375 56 
Q 45.5625 56 51.78125 48.09375 
Q 58.015625 40.1875 58.015625 27.296875 
Q 58.015625 14.40625 51.78125 6.484375 
Q 45.5625 -1.421875 35.59375 -1.421875 
Q 29.59375 -1.421875 25.265625 0.953125 
Q 20.953125 3.328125 18.109375 8.203125 
z
M 48.6875 27.296875 
Q 48.6875 37.203125 44.609375 42.84375 
Q 40.53125 48.484375 33.40625 48.484375 
Q 26.265625 48.484375 22.1875 42.84375 
Q 18.109375 37.203125 18.109375 27.296875 
Q 18.109375 17.390625 22.1875 11.75 
Q 26.265625 6.109375 33.40625 6.109375 
Q 40.53125 6.109375 44.609375 11.75 
Q 48.6875 17.390625 48.6875 27.296875 
z
" id="DejaVuSans-112"/>
      </defs>
      <use xlink:href="#DejaVuSans-70"/>
      <use x="50.269531" xlink:href="#DejaVuSans-114"/>
      <use x="91.382812" xlink:href="#DejaVuSans-97"/>
      <use x="152.662109" xlink:href="#DejaVuSans-99"/>
      <use x="207.642578" xlink:href="#DejaVuSans-116"/>
      <use x="246.851562" xlink:href="#DejaVuSans-105"/>
      <use x="274.634766" xlink:href="#DejaVuSans-111"/>
      <use x="335.816406" xlink:href="#DejaVuSans-110"/>
      <use x="399.195312" xlink:href="#DejaVuSans-32"/>
      <use x="430.982422" xlink:href="#DejaVuSans-111"/>
      <use x="492.164062" xlink:href="#DejaVuSans-102"/>
      <use x="527.369141" xlink:href="#DejaVuSans-32"/>
      <use x="559.15625" xlink:href="#DejaVuSans-102"/>
      <use x="594.361328" xlink:href="#DejaVuSans-117"/>
      <use x="657.740234" xlink:href="#DejaVuSans-110"/>
      <use x="721.119141" xlink:href="#DejaVuSans-99"/>
      <use x="776.099609" xlink:href="#DejaVuSans-116"/>
      <use x="815.308594" xlink:href="#DejaVuSans-105"/>
      <use x="843.091797" xlink:href="#DejaVuSans-111"/>
      <use x="904.273438" xlink:href="#DejaVuSans-110"/>
      <use x="967.652344" xlink:href="#DejaVuSans-44"/>
      <use x="999.439453" xlink:href="#DejaVuSans-116"/>
      <use x="1038.648438" xlink:href="#DejaVuSans-97"/>
      <use x="1099.927734" xlink:href="#DejaVuSans-114"/>
      <use x="1139.291016" xlink:href="#DejaVuSans-103"/>
      <use x="1202.767578" xlink:href="#DejaVuSans-101"/>
      <use x="1264.291016" xlink:href="#DejaVuSans-116"/>
      <use x="1303.5" xlink:href="#DejaVuSans-32"/>
      <use x="1335.287109" xlink:href="#DejaVuSans-112"/>
      <use x="1398.763672" xlink:href="#DejaVuSans-97"/>
      <use x="1460.042969" xlink:href="#DejaVuSans-105"/>
      <use x="1487.826172" xlink:href="#DejaVuSans-114"/>
      <use x="1528.939453" xlink:href="#DejaVuSans-115"/>
     </g>
    </g>
   </g>
   <g id="line2d_29">
    <defs>
     <path d="M 0 1.5 
C 0.397805 1.5 0.77937 1.341951 1.06066 1.06066 
C 1.341951 0.77937 1.5 0.397805 1.5 0 
C 1.5 -0.397805 1.341951 -0.77937 1.06066 -1.06066 
C 0.77937 -1.341951 0.397805 -1.5 0 -1.5 
C -0.397805 -1.5 -0.77937 -1.341951 -1.06066 -1.06066 
C -1.341951 -0.77937 -1.5 -0.397805 -1.5 0 
C -1.5 0.397805 -1.341951 0.77937 -1.06066 1.06066 
C -0.77937 1.341951 -0.397805 1.5 0 1.5 
z
" id="m7a0c5bdc97" style="stroke:#00bfbf;"/>
    </defs>
    <g>
     <use style="fill:#00bfbf;stroke:#00bfbf;" x="188.509564" xlink:href="#m7a0c5bdc97" y="30.334099"/>
     <use style="fill:#00bfbf;stroke:#00bfbf;" x="188.509564" xlink:href="#m7a0c5bdc97" y="30.334099"/>
    </g>
   </g>
   <g id="line2d_30">
    <path d="M 45.512012 298.944 
L 45.512012 294.730511 
L 100.192776 294.730511 
L 100.192776 294.203825 
L 101.646892 294.203825 
L 101.646892 293.677139 
L 102.330873 293.677139 
L 102.330873 292.097081 
L 105.951954 292.097081 
L 105.951954 291.570395 
L 106.48859 291.570395 
L 106.48859 291.043709 
L 107.009204 291.043709 
L 107.009204 288.410278 
L 107.514726 288.410278 
L 107.514726 286.303534 
L 108.006005 286.303534 
L 108.006005 280.509987 
L 108.483824 280.509987 
L 108.483824 277.349871 
L 108.948899 277.349871 
L 108.948899 271.029638 
L 110.694282 271.029638 
L 110.694282 270.502952 
L 113.022974 270.502952 
L 113.022974 269.976266 
L 113.73488 269.976266 
L 113.73488 269.449579 
L 114.751048 269.449579 
L 114.751048 268.396207 
L 115.077025 268.396207 
L 115.077025 267.869521 
L 118.039942 267.869521 
L 118.039942 267.342835 
L 118.838828 267.342835 
L 118.838828 263.129347 
L 120.33454 263.129347 
L 120.33454 261.022602 
L 120.571812 261.022602 
L 120.571812 260.495916 
L 120.8059 260.495916 
L 120.8059 258.915858 
L 121.931406 258.915858 
L 121.931406 258.389172 
L 122.148045 258.389172 
L 122.148045 257.3358 
L 122.362027 257.3358 
L 122.362027 256.282427 
L 122.573415 256.282427 
L 122.573415 255.229055 
L 122.782271 255.229055 
L 122.782271 253.648997 
L 123.192626 253.648997 
L 123.192626 252.068939 
L 123.593547 252.068939 
L 123.593547 251.542253 
L 123.985457 251.542253 
L 123.985457 249.962195 
L 124.178158 249.962195 
L 124.178158 248.908822 
L 124.368753 248.908822 
L 124.368753 247.85545 
L 124.557288 247.85545 
L 124.557288 246.275392 
L 124.743806 246.275392 
L 124.743806 242.588589 
L 124.92835 242.588589 
L 124.92835 242.061903 
L 125.110962 242.061903 
L 125.110962 241.535217 
L 125.470548 241.535217 
L 125.470548 240.481845 
L 125.647598 240.481845 
L 125.647598 237.848415 
L 125.822869 237.848415 
L 125.822869 236.795043 
L 125.996395 236.795043 
L 125.996395 236.268356 
L 126.168212 236.268356 
L 126.168212 234.688298 
L 126.50685 234.688298 
L 126.50685 233.10824 
L 126.673734 233.10824 
L 126.673734 227.841379 
L 126.839037 227.841379 
L 126.839037 227.314693 
L 127.002787 227.314693 
L 127.002787 225.207949 
L 127.165014 225.207949 
L 127.165014 224.681263 
L 127.325746 224.681263 
L 127.325746 221.521146 
L 127.48501 221.521146 
L 127.48501 220.99446 
L 127.642832 220.99446 
L 127.642832 220.467774 
L 127.799239 220.467774 
L 127.799239 217.307658 
L 128.107907 217.307658 
L 128.107907 216.254285 
L 128.260216 216.254285 
L 128.260216 214.674227 
L 128.411207 214.674227 
L 128.411207 214.147541 
L 128.560901 214.147541 
L 128.560901 208.88068 
L 128.709321 208.88068 
L 128.709321 206.773936 
L 129.002426 206.773936 
L 129.002426 205.720564 
L 129.290685 205.720564 
L 129.290685 204.140506 
L 129.433047 204.140506 
L 129.433047 200.980389 
L 129.574256 200.980389 
L 129.574256 198.346959 
L 129.714332 198.346959 
L 129.714332 196.240214 
L 129.853291 196.240214 
L 129.853291 194.13347 
L 130.127931 194.13347 
L 130.127931 189.919981 
L 130.263646 189.919981 
L 130.263646 188.866609 
L 130.398313 188.866609 
L 130.398313 187.286551 
L 130.531948 187.286551 
L 130.531948 186.759865 
L 130.664567 186.759865 
L 130.664567 180.439632 
L 130.796184 180.439632 
L 130.796184 179.38626 
L 130.926816 179.38626 
L 130.926816 177.279515 
L 131.185181 177.279515 
L 131.185181 175.172771 
L 131.312942 175.172771 
L 131.312942 172.539341 
L 131.690703 172.539341 
L 131.690703 172.012655 
L 131.814826 172.012655 
L 131.814826 169.379224 
L 131.938072 169.379224 
L 131.938072 168.852538 
L 132.060454 168.852538 
L 132.060454 164.63905 
L 132.181982 164.63905 
L 132.181982 162.532305 
L 132.30267 162.532305 
L 132.30267 158.845503 
L 132.541568 158.845503 
L 132.541568 156.738758 
L 132.659801 156.738758 
L 132.659801 149.891839 
L 132.777237 149.891839 
L 132.777237 149.365153 
L 132.893889 149.365153 
L 132.893889 145.151665 
L 133.009765 145.151665 
L 133.009765 144.098292 
L 133.124876 144.098292 
L 133.124876 139.358118 
L 133.46572 139.358118 
L 133.46572 138.831432 
L 133.689303 138.831432 
L 133.800029 136.198001 
L 133.910056 136.198001 
L 134.019394 133.564571 
L 134.12805 133.564571 
L 134.12805 131.984513 
L 134.450015 131.984513 
L 134.450015 127.771024 
L 134.661403 127.771024 
L 134.766144 123.557535 
L 134.870259 123.557535 
L 134.870259 123.030849 
L 135.076644 123.030849 
L 135.178927 120.924105 
L 135.280614 120.924105 
L 135.381712 119.870733 
L 135.482227 119.870733 
L 135.482227 118.817361 
L 135.878591 118.817361 
L 135.97629 116.710616 
L 136.073445 116.710616 
L 136.170062 113.5505 
L 136.266147 113.5505 
L 136.361705 109.337011 
L 136.456742 109.337011 
L 136.551264 105.123522 
L 136.645276 105.123522 
L 136.738785 101.963406 
L 136.831795 101.963406 
L 136.831795 100.910034 
L 137.107884 100.910034 
L 137.107884 99.856662 
L 137.37967 99.856662 
L 137.469333 95.643173 
L 137.558536 95.643173 
L 137.647286 93.536429 
L 137.735587 93.536429 
L 137.823442 92.483056 
L 138.170504 92.483056 
L 138.256201 90.902998 
L 138.341479 90.902998 
L 138.426341 89.32294 
L 138.510793 89.32294 
L 138.510793 88.796254 
L 138.761723 88.796254 
L 138.84457 83.002707 
L 139.009092 83.002707 
L 139.009092 82.476021 
L 139.652088 82.476021 
L 139.730821 79.842591 
L 139.887228 79.842591 
L 139.887228 79.315904 
L 140.042245 79.315904 
L 140.11924 77.20916 
L 140.423864 77.20916 
L 140.499195 74.049044 
L 140.574203 74.049044 
L 140.574203 73.522358 
L 140.79731 73.522358 
L 140.79731 72.468985 
L 140.944478 72.468985 
L 141.017599 71.415613 
L 141.090414 71.415613 
L 141.090414 70.888927 
L 141.235139 70.888927 
L 141.235139 70.362241 
L 141.45 70.362241 
L 141.521035 69.308869 
L 141.662245 69.308869 
L 141.662245 68.782183 
L 142.010346 68.782183 
L 142.010346 68.255497 
L 142.147664 68.255497 
L 142.147664 66.148752 
L 142.553247 66.148752 
L 142.553247 65.622066 
L 142.818488 65.622066 
L 142.818488 64.568694 
L 143.208936 64.568694 
L 143.208936 61.935264 
L 144.981877 61.935264 
L 144.981877 61.408578 
L 145.327221 61.408578 
L 145.327221 60.881892 
L 146.270114 60.881892 
L 146.270114 60.355206 
L 147.113265 60.355206 
L 147.113265 59.82852 
L 147.419225 59.82852 
L 147.419225 59.301833 
L 147.620256 59.301833 
L 147.620256 58.775147 
L 148.112924 58.775147 
L 148.112924 58.248461 
L 148.354135 58.248461 
L 148.354135 57.721775 
L 148.497276 57.721775 
L 148.497276 57.195089 
L 148.87334 57.195089 
L 148.966103 56.141717 
L 149.646525 56.141717 
L 149.735275 55.088345 
L 150.085825 55.088345 
L 150.129152 54.034973 
L 150.682827 54.034973 
L 150.682827 53.508287 
L 150.891184 53.508287 
L 150.891184 52.9816 
L 151.461678 52.9816 
L 151.541675 51.928228 
L 151.858043 51.928228 
L 151.858043 51.401542 
L 154.405793 51.401542 
L 154.405793 50.874856 
L 154.607795 50.874856 
L 154.607795 50.34817 
L 155.102793 50.34817 
L 155.102793 49.821484 
L 155.520713 49.821484 
L 155.520713 49.294798 
L 155.897793 49.294798 
L 155.897793 48.768112 
L 156.747178 48.768112 
L 156.835778 47.71474 
L 157.1279 47.71474 
L 157.1279 47.188054 
L 157.358125 47.188054 
L 157.358125 46.661368 
L 157.472107 46.661368 
L 157.472107 46.134681 
L 159.072168 46.134681 
L 159.072168 45.607995 
L 159.456591 45.607995 
L 159.456591 45.081309 
L 160.750792 45.081309 
L 160.750792 44.554623 
L 161.756743 44.554623 
L 161.867469 43.501251 
L 162.217141 43.501251 
L 162.217141 42.974565 
L 162.770815 42.974565 
L 162.833584 41.921193 
L 163.185069 41.921193 
L 163.185069 41.394507 
L 166.476842 41.394507 
L 166.476842 40.867821 
L 167.43311 40.867821 
L 167.43311 40.341135 
L 167.892273 40.341135 
L 167.892273 39.814448 
L 169.431813 39.814448 
L 169.431813 39.287762 
L 170.51345 39.287762 
L 170.51345 38.761076 
L 170.700684 38.761076 
L 170.700684 38.23439 
L 171.082245 38.23439 
L 171.082245 37.707704 
L 175.607562 37.707704 
L 175.607562 37.181018 
L 176.257915 37.181018 
L 176.30621 36.127646 
L 176.763161 36.127646 
L 176.763161 35.60096 
L 179.090678 35.60096 
L 179.090678 35.074274 
L 180.343674 35.074274 
L 180.343674 34.547588 
L 181.004389 34.547588 
L 181.004389 34.020902 
L 182.082862 34.020902 
L 182.082862 33.494215 
L 182.947573 33.494215 
L 182.947573 32.967529 
L 184.236667 32.967529 
L 184.236667 32.440843 
L 186.032405 32.440843 
L 186.032405 31.914157 
L 186.355212 31.914157 
L 186.355212 31.387471 
L 187.750682 31.387471 
L 187.750682 30.860785 
L 188.509564 30.860785 
L 188.509564 30.334099 
L 338.688 30.334099 
L 338.688 30.334099 
" style="fill:none;stroke:#00bfbf;stroke-linecap:square;stroke-width:1.5;"/>
   </g>
   <g id="line2d_31">
    <defs>
     <path d="M -6 0 
L 6 0 
M 0 6 
L 0 -6 
" id="m6efb4312c4" style="stroke:#00bfbf;stroke-width:1.5;"/>
    </defs>
    <g>
     <use style="fill-opacity:0;stroke:#00bfbf;stroke-width:1.5;" x="129.574256" xlink:href="#m6efb4312c4" y="198.346959"/>
     <use style="fill-opacity:0;stroke:#00bfbf;stroke-width:1.5;" x="137.469333" xlink:href="#m6efb4312c4" y="97.749917"/>
     <use style="fill-opacity:0;stroke:#00bfbf;stroke-width:1.5;" x="188.509564" xlink:href="#m6efb4312c4" y="30.860785"/>
     <use style="fill-opacity:0;stroke:#00bfbf;stroke-width:1.5;" x="188.509564" xlink:href="#m6efb4312c4" y="30.334099"/>
     <use style="fill-opacity:0;stroke:#00bfbf;stroke-width:1.5;" x="188.509564" xlink:href="#m6efb4312c4" y="30.334099"/>
     <use style="fill-opacity:0;stroke:#00bfbf;stroke-width:1.5;" x="338.688" xlink:href="#m6efb4312c4" y="30.334099"/>
    </g>
   </g>
   <g id="line2d_32">
    <path style="fill:none;stroke:#00bfbf;stroke-linecap:square;stroke-width:1.5;"/>
    <g/>
   </g>
   <g id="line2d_33">
    <path clip-path="url(#p7861bd9add)" d="M 134.12805 131.984513 
" style="fill:none;stroke:#00bfbf;stroke-linecap:square;stroke-width:1.5;"/>
    <defs>
     <path d="M -12 12 
L 12 -12 
M -12 -12 
L 12 12 
" id="m356392bf7d" style="stroke:#00bfbf;"/>
    </defs>
    <g clip-path="url(#p7861bd9add)">
     <use style="fill:#00bfbf;stroke:#00bfbf;" x="134.12805" xlink:href="#m356392bf7d" y="131.984513"/>
    </g>
   </g>
   <g id="line2d_34">
    <defs>
     <path d="M 0 1.5 
C 0.397805 1.5 0.77937 1.341951 1.06066 1.06066 
C 1.341951 0.77937 1.5 0.397805 1.5 0 
C 1.5 -0.397805 1.341951 -0.77937 1.06066 -1.06066 
C 0.77937 -1.341951 0.397805 -1.5 0 -1.5 
C -0.397805 -1.5 -0.77937 -1.341951 -1.06066 -1.06066 
C -1.341951 -0.77937 -1.5 -0.397805 -1.5 0 
C -1.5 0.397805 -1.341951 0.77937 -1.06066 1.06066 
C -0.77937 1.341951 -0.397805 1.5 0 1.5 
z
" id="m5fb765c96a" style="stroke:#008000;"/>
    </defs>
    <g>
     <use style="fill:#008000;stroke:#008000;" x="198.978796" xlink:href="#m5fb765c96a" y="56.668403"/>
     <use style="fill:#008000;stroke:#008000;" x="198.978796" xlink:href="#m5fb765c96a" y="56.668403"/>
    </g>
   </g>
   <g id="line2d_35">
    <path d="M 38.440992 298.944 
L 38.440992 297.890628 
L 86.792945 297.890628 
L 86.792945 297.363942 
L 98.32726 297.363942 
L 98.32726 296.837256 
L 102.772397 296.837256 
L 102.772397 293.677139 
L 104.826449 293.677139 
L 104.826449 293.150453 
L 105.209745 293.150453 
L 105.209745 291.043709 
L 105.584798 291.043709 
L 105.584798 289.990337 
L 105.951954 289.990337 
L 105.951954 288.936964 
L 106.311539 288.936964 
L 106.311539 286.303534 
L 106.66386 286.303534 
L 106.66386 285.776848 
L 112.779064 285.776848 
L 112.779064 284.723476 
L 117.486268 284.723476 
L 117.486268 284.19679 
L 118.751849 284.19679 
L 118.751849 283.143418 
L 119.097192 283.143418 
L 119.097192 282.616732 
L 121.036887 282.616732 
L 121.036887 279.456615 
L 121.785469 279.456615 
L 121.785469 278.929929 
L 122.219665 278.929929 
L 122.219665 277.876557 
L 122.362027 277.876557 
L 122.362027 277.349871 
L 123.192626 277.349871 
L 123.192626 276.823185 
L 123.593547 276.823185 
L 123.593547 276.296499 
L 123.725164 276.296499 
L 123.725164 275.243126 
L 123.855796 275.243126 
L 123.855796 274.71644 
L 124.114161 274.71644 
L 124.114161 274.189754 
L 124.241922 274.189754 
L 124.241922 273.663068 
L 124.494669 273.663068 
L 124.494669 272.609696 
L 124.743806 272.609696 
L 124.743806 272.08301 
L 125.706218 272.08301 
L 125.706218 271.556324 
L 125.938745 271.556324 
L 125.938745 268.922893 
L 126.168212 268.922893 
L 126.168212 267.869521 
L 126.281824 267.869521 
L 126.281824 267.342835 
L 127.165014 267.342835 
L 127.272333 265.762777 
L 127.799239 265.762777 
L 127.799239 265.236091 
L 128.511146 265.236091 
L 128.511146 264.182719 
L 129.002426 264.182719 
L 129.002426 263.656033 
L 129.574256 263.656033 
L 129.574256 263.129347 
L 129.760775 263.129347 
L 129.853291 262.075974 
L 130.30865 262.075974 
L 130.30865 261.549288 
L 130.664567 261.549288 
L 130.664567 260.495916 
L 132.342714 260.495916 
L 132.342714 259.442544 
L 132.501978 259.442544 
L 132.501978 258.915858 
L 132.73818 258.915858 
L 132.73818 258.389172 
L 132.893889 258.389172 
L 132.971225 256.282427 
L 133.201197 256.282427 
L 133.201197 255.755741 
L 133.352844 255.755741 
L 133.352844 253.122311 
L 133.652238 253.122311 
L 133.652238 252.595625 
L 133.946579 252.595625 
L 133.946579 252.068939 
L 134.307653 252.068939 
L 134.307653 251.542253 
L 134.591225 251.542253 
L 134.591225 251.015567 
L 134.7313 251.015567 
L 134.800918 246.275392 
L 135.144899 246.275392 
L 135.144899 245.748706 
L 135.280614 245.748706 
L 135.280614 245.22202 
L 136.073445 245.22202 
L 136.073445 244.168648 
L 136.769843 244.168648 
L 136.831795 243.115275 
L 136.955041 243.115275 
L 136.955041 242.588589 
L 137.319638 242.588589 
L 137.319638 242.061903 
L 137.794206 242.061903 
L 137.852629 241.008531 
L 138.141844 241.008531 
L 138.199116 238.901787 
L 138.369812 238.901787 
L 138.426341 237.321729 
L 138.872098 237.321729 
L 138.981779 235.74167 
L 139.090775 235.74167 
L 139.090775 235.214984 
L 139.306744 235.214984 
L 139.360321 234.161612 
L 139.520072 234.161612 
L 139.520072 233.634926 
L 139.990725 233.634926 
L 140.093612 231.528182 
L 140.195896 231.528182 
L 140.297583 230.47481 
L 140.44901 230.47481 
L 140.44901 229.948123 
L 140.64889 229.948123 
L 140.64889 229.421437 
L 140.944478 229.421437 
L 141.041904 227.841379 
L 141.090414 227.841379 
L 141.187031 226.788007 
L 141.33096 226.788007 
L 141.33096 226.261321 
L 141.521035 226.261321 
L 141.568232 225.207949 
L 141.709062 225.207949 
L 141.80232 223.627891 
L 141.895083 223.627891 
L 141.895083 222.574518 
L 142.07914 222.574518 
L 142.07914 220.99446 
L 142.752555 220.99446 
L 142.796538 219.414402 
L 142.971369 219.414402 
L 142.971369 218.887716 
L 143.527762 218.887716 
L 143.527762 218.36103 
L 144.107744 218.36103 
L 144.107744 217.834344 
L 144.229555 217.834344 
L 144.229555 216.254285 
L 144.94308 216.254285 
L 144.981877 215.200913 
L 145.059213 215.200913 
L 145.136208 214.147541 
L 145.327221 214.147541 
L 145.327221 213.620855 
L 145.516164 213.620855 
L 145.553708 211.514111 
L 145.665858 211.514111 
L 145.703082 210.460738 
L 145.777292 210.460738 
L 145.888018 208.88068 
L 145.998045 208.88068 
L 146.107383 207.827308 
L 146.143677 207.827308 
L 146.252108 206.24725 
L 146.288102 206.24725 
L 146.324022 204.667192 
L 146.538004 204.667192 
L 146.608752 203.613819 
L 146.679213 203.613819 
L 146.749392 201.507075 
L 146.888907 201.507075 
L 146.992815 199.400331 
L 147.027314 199.400331 
L 147.130404 196.240214 
L 147.266916 196.240214 
L 147.266916 195.713528 
L 147.402367 195.713528 
L 147.402367 194.660156 
L 147.536775 194.660156 
L 147.603592 192.553412 
L 147.802521 192.553412 
L 147.901141 190.973354 
L 147.96658 190.973354 
L 147.96658 190.446667 
L 148.096724 190.446667 
L 148.161434 187.813237 
L 148.225905 187.813237 
L 148.258051 186.759865 
L 148.354135 186.759865 
L 148.417899 184.653121 
L 148.48143 184.653121 
L 148.48143 184.126434 
L 148.607802 184.126434 
L 148.701984 182.01969 
L 148.733265 182.01969 
L 148.76449 180.966318 
L 148.857832 180.966318 
L 148.888835 179.38626 
L 149.012299 179.38626 
L 149.043029 178.332888 
L 149.165411 178.332888 
L 149.256637 175.699457 
L 149.497598 175.699457 
L 149.527485 174.119399 
L 149.705742 174.119399 
L 149.735275 173.066027 
L 149.882194 173.066027 
L 149.882194 172.539341 
L 150.401087 172.539341 
L 150.429467 170.959282 
L 150.542526 170.959282 
L 150.542526 170.432596 
L 150.710752 170.432596 
L 150.710752 169.90591 
L 150.987572 169.90591 
L 151.015013 168.852538 
L 152.001148 168.852538 
L 152.001148 168.325852 
L 152.181601 168.325852 
L 152.181601 167.799166 
L 152.385571 167.799166 
L 152.410901 166.219108 
L 152.536999 166.219108 
L 152.562109 165.165736 
L 153.202607 165.165736 
L 153.250915 164.112363 
L 153.418948 164.112363 
L 153.49047 163.058991 
L 153.537988 163.058991 
L 153.632638 160.425561 
L 153.656221 160.425561 
L 153.750233 157.79213 
L 153.867041 157.79213 
L 153.867041 156.738758 
L 154.371897 156.738758 
L 154.371897 156.212072 
L 154.484627 156.212072 
L 154.57429 154.632014 
L 154.663493 154.632014 
L 154.752243 153.051956 
L 154.796449 153.051956 
L 154.906477 151.471897 
L 154.972161 151.471897 
L 155.015814 149.891839 
L 155.102793 149.891839 
L 155.189341 148.311781 
L 155.232454 148.311781 
L 155.275461 146.731723 
L 155.382516 146.731723 
L 155.46769 145.678351 
L 155.6368 145.678351 
L 155.657823 144.624978 
L 155.783437 144.624978 
L 155.783437 143.571606 
L 155.928852 143.571606 
L 155.970177 142.518234 
L 156.216093 142.518234 
L 156.317544 141.464862 
L 156.337763 141.464862 
L 156.398281 139.884804 
L 156.618401 139.884804 
L 156.697761 137.778059 
L 156.816128 137.778059 
L 156.914157 136.198001 
L 156.953214 136.198001 
L 157.050478 134.617943 
L 157.166482 134.617943 
L 157.166482 134.091257 
L 157.415209 134.091257 
L 157.415209 133.564571 
L 157.566527 133.564571 
L 157.58535 131.984513 
L 157.809652 131.984513 
L 157.846757 130.93114 
L 158.249784 130.93114 
L 158.249784 130.404454 
L 158.447857 130.404454 
L 158.537152 128.29771 
L 158.643706 128.29771 
L 158.643706 127.244338 
L 158.802326 127.244338 
L 158.854881 126.190966 
L 159.028927 126.190966 
L 159.028927 125.137593 
L 159.218393 125.137593 
L 159.26971 124.084221 
L 159.354904 124.084221 
L 159.439685 122.504163 
L 159.54088 122.504163 
L 159.641491 119.344047 
L 159.741526 119.344047 
L 159.824452 118.290674 
L 159.857512 118.290674 
L 159.956318 117.237302 
L 160.168498 117.237302 
L 160.217098 116.18393 
L 161.023225 116.18393 
L 161.023225 115.657244 
L 161.161694 115.657244 
L 161.192316 113.023814 
L 161.283861 113.023814 
L 161.283861 112.497128 
L 161.525657 112.497128 
L 161.600536 111.443755 
L 161.675095 111.443755 
L 161.70483 109.863697 
L 162.303474 109.863697 
L 162.375093 108.810325 
L 162.46065 108.810325 
L 162.46065 108.283639 
L 162.574077 108.283639 
L 162.574077 107.756953 
L 162.854457 107.756953 
L 162.9377 106.176895 
L 163.061823 106.176895 
L 163.061823 105.123522 
L 163.21234 105.123522 
L 163.293895 104.07015 
L 163.549667 104.07015 
L 163.642961 101.43672 
L 163.682792 101.43672 
L 163.682792 100.910034 
L 163.814908 100.910034 
L 163.854349 99.856662 
L 163.946031 99.856662 
L 163.946031 99.329976 
L 164.140886 99.329976 
L 164.166702 98.276603 
L 164.346358 98.276603 
L 164.448194 97.223231 
L 164.574657 97.223231 
L 164.574657 96.696545 
L 164.960967 96.696545 
L 164.960967 96.169859 
L 165.157053 96.169859 
L 165.217881 95.116487 
L 165.290595 95.116487 
L 165.290595 94.589801 
L 165.59035 94.589801 
L 165.59035 94.063115 
L 165.744209 94.063115 
L 165.755989 93.009743 
L 166.312239 93.009743 
L 166.380539 91.95637 
L 166.459886 91.95637 
L 166.459886 91.429684 
L 166.751482 91.429684 
L 166.818087 89.849626 
L 166.994465 89.849626 
L 167.04922 88.796254 
L 167.255733 88.796254 
L 167.255733 88.269568 
L 167.40635 88.269568 
L 167.513144 87.216196 
L 167.787784 87.216196 
L 167.798261 86.162824 
L 167.954668 86.162824 
L 168.01684 85.109451 
L 168.161052 85.109451 
L 168.161052 84.582765 
L 168.445948 84.582765 
L 168.445948 84.056079 
L 168.636653 84.056079 
L 168.71633 83.002707 
L 168.904116 83.002707 
L 168.904116 82.476021 
L 169.080173 82.476021 
L 169.080173 81.949335 
L 169.196565 81.949335 
L 169.196565 81.422649 
L 169.379278 81.422649 
L 169.379278 80.895963 
L 169.60737 80.895963 
L 169.66393 79.842591 
L 169.981016 79.842591 
L 169.981016 79.315904 
L 170.137423 79.315904 
L 170.237885 78.262532 
L 170.473066 78.262532 
L 170.473066 77.735846 
L 170.969087 77.735846 
L 170.969087 77.20916 
L 171.134225 77.20916 
L 171.220515 76.155788 
L 171.553027 76.155788 
L 171.553027 75.629102 
L 172.101686 75.629102 
L 172.20775 74.57573 
L 172.744386 74.57573 
L 172.744386 74.049044 
L 172.893608 74.049044 
L 172.893608 73.522358 
L 173.51582 73.522358 
L 173.51582 72.995672 
L 174.240098 72.995672 
L 174.290699 71.942299 
L 174.498781 71.942299 
L 174.577064 70.888927 
L 174.781778 70.888927 
L 174.781778 70.362241 
L 175.074063 70.362241 
L 175.156681 68.782183 
L 175.456309 68.782183 
L 175.456309 68.255497 
L 175.764148 68.255497 
L 175.764148 67.728811 
L 176.131719 67.728811 
L 176.131719 67.202125 
L 176.363988 67.202125 
L 176.376802 66.148752 
L 176.838169 66.148752 
L 176.838169 65.622066 
L 178.547874 65.622066 
L 178.643741 64.568694 
L 179.191791 64.568694 
L 179.191791 64.042008 
L 179.403048 64.042008 
L 179.5104 62.988636 
L 179.595808 62.988636 
L 179.595808 62.46195 
L 180.498578 62.46195 
L 180.549068 61.408578 
L 180.937953 61.408578 
L 180.937953 60.881892 
L 181.519801 60.881892 
L 181.519801 60.355206 
L 181.66228 60.355206 
L 181.66228 59.82852 
L 182.147384 59.82852 
L 182.147384 59.301833 
L 183.209233 59.301833 
L 183.209233 58.775147 
L 188.652705 58.775147 
L 188.652705 58.248461 
L 189.864126 58.248461 
L 189.864126 57.721775 
L 191.792618 57.721775 
L 191.792618 57.195089 
L 198.978796 57.195089 
L 198.978796 56.668403 
L 338.688 56.668403 
L 338.688 56.668403 
" style="fill:none;stroke:#008000;stroke-linecap:square;stroke-width:1.5;"/>
   </g>
   <g id="line2d_36">
    <defs>
     <path d="M -0 6 
L 6 -6 
L -6 -6 
z
" id="m7f3ab05562" style="stroke:#008000;stroke-linejoin:miter;stroke-width:1.5;"/>
    </defs>
    <g>
     <use style="fill-opacity:0;stroke:#008000;stroke-linejoin:miter;stroke-width:1.5;" x="142.796538" xlink:href="#m7f3ab05562" y="220.467774"/>
     <use style="fill-opacity:0;stroke:#008000;stroke-linejoin:miter;stroke-width:1.5;" x="168.636653" xlink:href="#m7f3ab05562" y="83.529393"/>
     <use style="fill-opacity:0;stroke:#008000;stroke-linejoin:miter;stroke-width:1.5;" x="198.978796" xlink:href="#m7f3ab05562" y="57.195089"/>
     <use style="fill-opacity:0;stroke:#008000;stroke-linejoin:miter;stroke-width:1.5;" x="198.978796" xlink:href="#m7f3ab05562" y="56.668403"/>
     <use style="fill-opacity:0;stroke:#008000;stroke-linejoin:miter;stroke-width:1.5;" x="338.688" xlink:href="#m7f3ab05562" y="56.668403"/>
    </g>
   </g>
   <g id="line2d_37">
    <path style="fill:none;stroke:#008000;stroke-linecap:square;stroke-width:1.5;"/>
    <g/>
   </g>
   <g id="line2d_38">
    <path clip-path="url(#p7861bd9add)" d="M 135.076644 246.275392 
" style="fill:none;stroke:#008000;stroke-linecap:square;stroke-width:1.5;"/>
    <defs>
     <path d="M -12 12 
L 12 -12 
M -12 -12 
L 12 12 
" id="m1f34cb848b" style="stroke:#008000;"/>
    </defs>
    <g clip-path="url(#p7861bd9add)">
     <use style="fill:#008000;stroke:#008000;" x="135.076644" xlink:href="#m1f34cb848b" y="246.275392"/>
    </g>
   </g>
   <g id="line2d_39">
    <defs>
     <path d="M 0 1.5 
C 0.397805 1.5 0.77937 1.341951 1.06066 1.06066 
C 1.341951 0.77937 1.5 0.397805 1.5 0 
C 1.5 -0.397805 1.341951 -0.77937 1.06066 -1.06066 
C 0.77937 -1.341951 0.397805 -1.5 0 -1.5 
C -0.397805 -1.5 -0.77937 -1.341951 -1.06066 -1.06066 
C -1.341951 -0.77937 -1.5 -0.397805 -1.5 0 
C -1.5 0.397805 -1.341951 0.77937 -1.06066 1.06066 
C -0.77937 1.341951 -0.397805 1.5 0 1.5 
z
" id="m684b5861aa" style="stroke:#0000ff;"/>
    </defs>
    <g>
     <use style="fill:#0000ff;stroke:#0000ff;" x="182.063459" xlink:href="#m684b5861aa" y="256.809114"/>
     <use style="fill:#0000ff;stroke:#0000ff;" x="182.063459" xlink:href="#m684b5861aa" y="256.809114"/>
    </g>
   </g>
   <g id="line2d_40">
    <path d="M 103.870632 298.944 
L 103.870632 297.890628 
L 105.057436 297.890628 
L 105.057436 297.363942 
L 108.006005 297.363942 
L 108.006005 296.837256 
L 116.562116 296.837256 
L 116.562116 296.31057 
L 119.502775 296.31057 
L 119.502775 295.783884 
L 122.276749 295.783884 
L 122.276749 295.257197 
L 123.907776 295.257197 
L 123.907776 294.730511 
L 125.183475 294.730511 
L 125.255688 293.677139 
L 125.752972 293.677139 
L 125.822869 292.623767 
L 125.892487 292.623767 
L 125.892487 291.570395 
L 126.236468 291.570395 
L 126.236468 291.043709 
L 126.50685 291.043709 
L 126.50685 290.517023 
L 127.357715 290.517023 
L 127.357715 289.990337 
L 129.118302 289.990337 
L 129.118302 289.463651 
L 131.133813 289.463651 
L 131.133813 288.936964 
L 131.540579 288.936964 
L 131.540579 288.410278 
L 131.690703 288.410278 
L 131.690703 287.356906 
L 132.133473 287.356906 
L 132.133473 286.83022 
L 132.326708 286.83022 
L 132.326708 286.303534 
L 133.216421 286.303534 
L 133.216421 285.250162 
L 134.61933 285.250162 
L 134.61933 284.723476 
L 136.342635 284.723476 
L 136.342635 284.19679 
L 139.090775 284.19679 
L 139.090775 283.670104 
L 140.011351 283.670104 
L 140.011351 283.143418 
L 141.71841 283.143418 
L 141.71841 282.616732 
L 143.247504 282.616732 
L 143.273169 281.563359 
L 144.294175 281.563359 
L 144.294175 281.036673 
L 145.051495 281.036673 
L 145.051495 279.983301 
L 145.258697 279.983301 
L 145.258697 279.456615 
L 145.576196 279.456615 
L 145.576196 278.929929 
L 145.954117 278.929929 
L 145.954117 278.403243 
L 146.150926 278.403243 
L 146.259313 277.349871 
L 146.280909 277.349871 
L 146.280909 276.823185 
L 146.40993 276.823185 
L 146.431341 275.769812 
L 147.749695 275.769812 
L 147.749695 275.243126 
L 149.413639 275.243126 
L 149.413639 274.71644 
L 149.557321 274.71644 
L 149.557321 274.189754 
L 149.963932 274.189754 
L 149.963932 273.663068 
L 150.085825 273.663068 
L 150.085825 273.136382 
L 151.080698 273.136382 
L 151.080698 272.609696 
L 151.660987 272.609696 
L 151.660987 272.08301 
L 151.912822 272.08301 
L 152.021866 271.029638 
L 152.855715 271.029638 
L 152.855715 270.502952 
L 152.988446 270.502952 
L 152.988446 269.976266 
L 153.105587 269.976266 
L 153.105587 269.449579 
L 154.029268 269.449579 
L 154.029268 268.922893 
L 154.208275 268.922893 
L 154.208275 268.396207 
L 154.358321 268.396207 
L 154.358321 267.869521 
L 155.450689 267.869521 
L 155.450689 267.342835 
L 156.027868 267.342835 
L 156.126326 266.289463 
L 156.586556 266.289463 
L 156.586556 265.762777 
L 157.652944 265.762777 
L 157.652944 265.236091 
L 158.753132 265.236091 
L 158.753132 264.709405 
L 161.201492 264.709405 
L 161.274728 263.656033 
L 162.737246 263.656033 
L 162.737246 263.129347 
L 163.764822 263.129347 
L 163.764822 262.60266 
L 164.802494 262.60266 
L 164.802494 262.075974 
L 167.564173 262.075974 
L 167.564173 261.549288 
L 167.979563 261.549288 
L 167.979563 261.022602 
L 172.395445 261.022602 
L 172.462909 259.96923 
L 173.964285 259.96923 
L 173.964285 259.442544 
L 174.762117 259.442544 
L 174.762117 258.915858 
L 175.6777 258.915858 
L 175.6777 258.389172 
L 178.645991 258.389172 
L 178.645991 257.862486 
L 179.687158 257.862486 
L 179.687158 257.3358 
L 182.063459 257.3358 
L 182.063459 256.809114 
L 338.688 256.809114 
L 338.688 256.809114 
" style="fill:none;stroke:#0000ff;stroke-linecap:square;stroke-width:1.5;"/>
   </g>
   <g id="line2d_41">
    <defs>
     <path d="M 0 -6 
L -1.347084 -1.854102 
L -5.706339 -1.854102 
L -2.179628 0.708204 
L -3.526712 4.854102 
L -0 2.291796 
L 3.526712 4.854102 
L 2.179628 0.708204 
L 5.706339 -1.854102 
L 1.347084 -1.854102 
z
" id="me7925ffbfc" style="stroke:#0000ff;stroke-linejoin:bevel;stroke-width:1.5;"/>
    </defs>
    <g>
     <use style="fill-opacity:0;stroke:#0000ff;stroke-linejoin:bevel;stroke-width:1.5;" x="182.063459" xlink:href="#me7925ffbfc" y="257.3358"/>
     <use style="fill-opacity:0;stroke:#0000ff;stroke-linejoin:bevel;stroke-width:1.5;" x="182.063459" xlink:href="#me7925ffbfc" y="256.809114"/>
     <use style="fill-opacity:0;stroke:#0000ff;stroke-linejoin:bevel;stroke-width:1.5;" x="182.063459" xlink:href="#me7925ffbfc" y="256.809114"/>
     <use style="fill-opacity:0;stroke:#0000ff;stroke-linejoin:bevel;stroke-width:1.5;" x="182.063459" xlink:href="#me7925ffbfc" y="256.809114"/>
     <use style="fill-opacity:0;stroke:#0000ff;stroke-linejoin:bevel;stroke-width:1.5;" x="338.688" xlink:href="#me7925ffbfc" y="256.809114"/>
    </g>
   </g>
   <g id="line2d_42">
    <path style="fill:none;stroke:#0000ff;stroke-linecap:square;stroke-width:1.5;"/>
    <g/>
   </g>
   <g id="line2d_43">
    <path clip-path="url(#p7861bd9add)" d="M 143.324386 281.563359 
" style="fill:none;stroke:#0000ff;stroke-linecap:square;stroke-width:1.5;"/>
    <defs>
     <path d="M -12 12 
L 12 -12 
M -12 -12 
L 12 12 
" id="mf6933a404e" style="stroke:#0000ff;"/>
    </defs>
    <g clip-path="url(#p7861bd9add)">
     <use style="fill:#0000ff;stroke:#0000ff;" x="143.324386" xlink:href="#mf6933a404e" y="281.563359"/>
    </g>
   </g>
   <g id="line2d_44">
    <defs>
     <path d="M 0 1.5 
C 0.397805 1.5 0.77937 1.341951 1.06066 1.06066 
C 1.341951 0.77937 1.5 0.397805 1.5 0 
C 1.5 -0.397805 1.341951 -0.77937 1.06066 -1.06066 
C 0.77937 -1.341951 0.397805 -1.5 0 -1.5 
C -0.397805 -1.5 -0.77937 -1.341951 -1.06066 -1.06066 
C -1.341951 -0.77937 -1.5 -0.397805 -1.5 0 
C -1.5 0.397805 -1.341951 0.77937 -1.06066 1.06066 
C -0.77937 1.341951 -0.397805 1.5 0 1.5 
z
" id="m2f2f334483" style="stroke:#000000;"/>
    </defs>
    <g>
     <use style="stroke:#000000;" x="210.623373" xlink:href="#m2f2f334483" y="272.609696"/>
     <use style="stroke:#000000;" x="210.623373" xlink:href="#m2f2f334483" y="272.609696"/>
    </g>
   </g>
   <g id="line2d_45">
    <path d="M 125.399222 298.944 
L 125.399222 298.417314 
L 133.57787 298.417314 
L 133.57787 297.890628 
L 138.153314 297.890628 
L 138.153314 297.363942 
L 149.40462 297.363942 
L 149.40462 296.837256 
L 149.458667 296.837256 
L 149.458667 295.783884 
L 151.023238 295.783884 
L 151.023238 295.257197 
L 153.813407 295.257197 
L 153.813407 294.730511 
L 154.173993 294.730511 
L 154.173993 294.203825 
L 161.53766 294.203825 
L 161.53766 293.677139 
L 161.792252 293.677139 
L 161.792252 293.150453 
L 161.92917 293.150453 
L 161.92917 292.623767 
L 165.193576 292.623767 
L 165.193576 292.097081 
L 166.265413 292.097081 
L 166.265413 291.570395 
L 168.001318 291.570395 
L 168.001318 291.043709 
L 168.309168 291.043709 
L 168.309168 290.517023 
L 172.049233 290.517023 
L 172.049233 289.990337 
L 172.054157 289.990337 
L 172.054157 289.463651 
L 172.739653 289.463651 
L 172.739653 288.936964 
L 174.363451 288.936964 
L 174.363451 288.410278 
L 174.513754 288.410278 
L 174.513754 287.883592 
L 175.031915 287.883592 
L 175.031915 287.356906 
L 176.668945 287.356906 
L 176.668945 286.83022 
L 177.044641 286.83022 
L 177.044641 286.303534 
L 177.210275 286.303534 
L 177.210275 285.776848 
L 179.583556 285.776848 
L 179.583556 285.250162 
L 179.853225 285.250162 
L 179.853225 284.723476 
L 180.093965 284.723476 
L 180.093965 284.19679 
L 181.158427 284.19679 
L 181.158427 283.670104 
L 181.575507 283.670104 
L 181.575507 283.143418 
L 181.875241 283.143418 
L 181.875241 282.616732 
L 182.390412 282.616732 
L 182.390412 282.090045 
L 183.450383 282.090045 
L 183.450383 281.563359 
L 184.312405 281.563359 
L 184.312405 281.036673 
L 185.254337 281.036673 
L 185.254337 280.509987 
L 185.475809 280.509987 
L 185.475809 279.983301 
L 185.63133 279.983301 
L 185.63133 279.456615 
L 187.335442 279.456615 
L 187.335442 278.929929 
L 187.494603 278.929929 
L 187.494603 278.403243 
L 188.025729 278.403243 
L 188.025729 277.876557 
L 189.695749 277.876557 
L 189.695749 277.349871 
L 191.043298 277.349871 
L 191.043298 276.823185 
L 191.490767 276.823185 
L 191.490767 276.296499 
L 196.700099 276.296499 
L 196.700099 275.769812 
L 197.162399 275.769812 
L 197.162399 275.243126 
L 197.675187 275.243126 
L 197.675187 274.71644 
L 201.398154 274.71644 
L 201.398154 274.189754 
L 207.411809 274.189754 
L 207.411809 273.663068 
L 209.751559 273.663068 
L 209.751559 273.136382 
L 210.623373 273.136382 
L 210.623373 272.609696 
L 338.688 272.609696 
" style="fill:none;stroke:#000000;stroke-linecap:square;stroke-width:1.5;"/>
   </g>
   <g id="line2d_46">
    <defs>
     <path d="M 0 6 
C 1.591219 6 3.117479 5.367802 4.242641 4.242641 
C 5.367802 3.117479 6 1.591219 6 0 
C 6 -1.591219 5.367802 -3.117479 4.242641 -4.242641 
C 3.117479 -5.367802 1.591219 -6 0 -6 
C -1.591219 -6 -3.117479 -5.367802 -4.242641 -4.242641 
C -5.367802 -3.117479 -6 -1.591219 -6 0 
C -6 1.591219 -5.367802 3.117479 -4.242641 4.242641 
C -3.117479 5.367802 -1.591219 6 0 6 
z
" id="mabdf1cac6d" style="stroke:#000000;stroke-width:1.5;"/>
    </defs>
    <g>
     <use style="fill-opacity:0;stroke:#000000;stroke-width:1.5;" x="191.490767" xlink:href="#mabdf1cac6d" y="276.823185"/>
     <use style="fill-opacity:0;stroke:#000000;stroke-width:1.5;" x="210.623373" xlink:href="#mabdf1cac6d" y="273.136382"/>
     <use style="fill-opacity:0;stroke:#000000;stroke-width:1.5;" x="210.623373" xlink:href="#mabdf1cac6d" y="272.609696"/>
     <use style="fill-opacity:0;stroke:#000000;stroke-width:1.5;" x="210.623373" xlink:href="#mabdf1cac6d" y="272.609696"/>
     <use style="fill-opacity:0;stroke:#000000;stroke-width:1.5;" x="338.688" xlink:href="#mabdf1cac6d" y="272.609696"/>
    </g>
   </g>
   <g id="line2d_47">
    <path style="fill:none;stroke:#000000;stroke-linecap:square;stroke-width:1.5;"/>
    <g/>
   </g>
   <g id="line2d_48">
    <path clip-path="url(#p7861bd9add)" d="M 149.998846 295.783884 
" style="fill:none;stroke:#000000;stroke-linecap:square;stroke-width:1.5;"/>
    <defs>
     <path d="M -12 12 
L 12 -12 
M -12 -12 
L 12 12 
" id="m260b198991" style="stroke:#000000;"/>
    </defs>
    <g clip-path="url(#p7861bd9add)">
     <use style="stroke:#000000;" x="149.998846" xlink:href="#m260b198991" y="295.783884"/>
    </g>
   </g>
   <g id="line2d_49">
    <path clip-path="url(#p7861bd9add)" d="M 57.6 298.944 
L 57.6 298.944 
L 57.6 298.944 
L 57.6 298.944 
L 338.688 298.944 
" style="fill:none;stroke:#ff0000;stroke-linecap:square;stroke-width:1.5;"/>
   </g>
   <g id="line2d_50">
    <defs>
     <path d="M -6 6 
L 6 6 
L 6 -6 
L -6 -6 
z
" id="m0a8a83bd56" style="stroke:#ff0000;stroke-linejoin:miter;stroke-width:1.5;"/>
    </defs>
    <g clip-path="url(#p7861bd9add)">
     <use style="fill-opacity:0;stroke:#ff0000;stroke-linejoin:miter;stroke-width:1.5;" x="57.6" xlink:href="#m0a8a83bd56" y="298.944"/>
    </g>
   </g>
   <g id="line2d_51">
    <path clip-path="url(#p7861bd9add)" style="fill:none;stroke:#ff0000;stroke-linecap:square;stroke-width:1.5;"/>
    <g clip-path="url(#p7861bd9add)">
     <use style="fill-opacity:0;stroke:#ff0000;stroke-linejoin:miter;stroke-width:1.5;" x="-1" xlink:href="#m0a8a83bd56" y="567.553901"/>
     <use style="fill-opacity:0;stroke:#ff0000;stroke-linejoin:miter;stroke-width:1.5;" x="338.688" xlink:href="#m0a8a83bd56" y="567.553901"/>
    </g>
   </g>
   <g id="line2d_52">
    <path clip-path="url(#p7861bd9add)" d="M 57.6 298.944 
L 57.6 298.944 
L 57.6 298.944 
L 57.6 298.944 
L 338.688 298.944 
" style="fill:none;stroke:#bf00bf;stroke-linecap:square;stroke-width:1.5;"/>
   </g>
   <g id="line2d_53">
    <defs>
     <path d="M -0 8.485281 
L 8.485281 0 
L 0 -8.485281 
L -8.485281 -0 
z
" id="m6e10957bc3" style="stroke:#bf00bf;stroke-linejoin:miter;stroke-width:1.5;"/>
    </defs>
    <g clip-path="url(#p7861bd9add)">
     <use style="fill-opacity:0;stroke:#bf00bf;stroke-linejoin:miter;stroke-width:1.5;" x="57.6" xlink:href="#m6e10957bc3" y="298.944"/>
    </g>
   </g>
   <g id="line2d_54">
    <path clip-path="url(#p7861bd9add)" style="fill:none;stroke:#bf00bf;stroke-linecap:square;stroke-width:1.5;"/>
    <g clip-path="url(#p7861bd9add)">
     <use style="fill-opacity:0;stroke:#bf00bf;stroke-linejoin:miter;stroke-width:1.5;" x="-1" xlink:href="#m6e10957bc3" y="567.553901"/>
     <use style="fill-opacity:0;stroke:#bf00bf;stroke-linejoin:miter;stroke-width:1.5;" x="338.688" xlink:href="#m6e10957bc3" y="567.553901"/>
    </g>
   </g>
   <g id="line2d_55">
    <path d="M 338.688 298.944 
L 369.60768 293.571802 
" style="fill:none;stroke:#bf00bf;stroke-linecap:square;stroke-width:1.5;"/>
    <g>
     <use style="fill-opacity:0;stroke:#bf00bf;stroke-linejoin:miter;stroke-width:1.5;" x="338.688" xlink:href="#m6e10957bc3" y="298.944"/>
     <use style="fill-opacity:0;stroke:#bf00bf;stroke-linejoin:miter;stroke-width:1.5;" x="369.60768" xlink:href="#m6e10957bc3" y="293.571802"/>
    </g>
   </g>
   <g id="line2d_56">
    <path d="M 338.688 298.944 
L 369.60768 241.998701 
" style="fill:none;stroke:#ff0000;stroke-linecap:square;stroke-width:1.5;"/>
    <g>
     <use style="fill-opacity:0;stroke:#ff0000;stroke-linejoin:miter;stroke-width:1.5;" x="338.688" xlink:href="#m0a8a83bd56" y="298.944"/>
     <use style="fill-opacity:0;stroke:#ff0000;stroke-linejoin:miter;stroke-width:1.5;" x="369.60768" xlink:href="#m0a8a83bd56" y="241.998701"/>
    </g>
   </g>
   <g id="line2d_57">
    <path d="M 338.688 272.609696 
L 369.60768 190.4256 
" style="fill:none;stroke:#000000;stroke-linecap:square;stroke-width:1.5;"/>
    <g>
     <use style="fill-opacity:0;stroke:#000000;stroke-width:1.5;" x="338.688" xlink:href="#mabdf1cac6d" y="272.609696"/>
     <use style="fill-opacity:0;stroke:#000000;stroke-width:1.5;" x="369.60768" xlink:href="#mabdf1cac6d" y="190.4256"/>
    </g>
   </g>
   <g id="line2d_58">
    <path d="M 338.688 256.809114 
L 369.60768 138.852499 
" style="fill:none;stroke:#0000ff;stroke-linecap:square;stroke-width:1.5;"/>
    <g>
     <use style="fill-opacity:0;stroke:#0000ff;stroke-linejoin:bevel;stroke-width:1.5;" x="338.688" xlink:href="#me7925ffbfc" y="256.809114"/>
     <use style="fill-opacity:0;stroke:#0000ff;stroke-linejoin:bevel;stroke-width:1.5;" x="369.60768" xlink:href="#me7925ffbfc" y="138.852499"/>
    </g>
   </g>
   <g id="line2d_59">
    <path d="M 338.688 56.668403 
L 369.60768 87.279398 
" style="fill:none;stroke:#008000;stroke-linecap:square;stroke-width:1.5;"/>
    <g>
     <use style="fill-opacity:0;stroke:#008000;stroke-linejoin:miter;stroke-width:1.5;" x="338.688" xlink:href="#m7f3ab05562" y="56.668403"/>
     <use style="fill-opacity:0;stroke:#008000;stroke-linejoin:miter;stroke-width:1.5;" x="369.60768" xlink:href="#m7f3ab05562" y="87.279398"/>
    </g>
   </g>
   <g id="line2d_60">
    <path d="M 338.688 30.334099 
L 369.60768 35.706297 
" style="fill:none;stroke:#00bfbf;stroke-linecap:square;stroke-width:1.5;"/>
    <g>
     <use style="fill-opacity:0;stroke:#00bfbf;stroke-width:1.5;" x="338.688" xlink:href="#m6efb4312c4" y="30.334099"/>
     <use style="fill-opacity:0;stroke:#00bfbf;stroke-width:1.5;" x="369.60768" xlink:href="#m6efb4312c4" y="35.706297"/>
    </g>
   </g>
   <g id="line2d_61">
    <path d="M 338.688 298.944 
L 338.688 30.334099 
" style="fill:none;stroke:#000000;stroke-linecap:square;stroke-width:1.5;"/>
   </g>
   <g id="patch_3">
    <path d="M 57.6 298.944 
L 57.6 27.648 
" style="fill:none;stroke:#000000;stroke-linecap:square;stroke-linejoin:miter;stroke-width:0.8;"/>
   </g>
   <g id="patch_4">
    <path d="M 338.688 298.944 
L 338.688 27.648 
" style="fill:none;stroke:#000000;stroke-linecap:square;stroke-linejoin:miter;stroke-width:0.8;"/>
   </g>
   <g id="patch_5">
    <path d="M 57.6 298.944 
L 338.688 298.944 
" style="fill:none;stroke:#000000;stroke-linecap:square;stroke-linejoin:miter;stroke-width:0.8;"/>
   </g>
   <g id="patch_6">
    <path d="M 57.6 27.648 
L 338.688 27.648 
" style="fill:none;stroke:#000000;stroke-linecap:square;stroke-linejoin:miter;stroke-width:0.8;"/>
   </g>
   <g id="text_13">
    <!-- 40-D -->
    <g transform="translate(375.22944 298.262739)scale(0.17 -0.17)">
     <defs>
      <path d="M 19.671875 64.796875 
L 19.671875 8.109375 
L 31.59375 8.109375 
Q 46.6875 8.109375 53.6875 14.9375 
Q 60.6875 21.78125 60.6875 36.53125 
Q 60.6875 51.171875 53.6875 57.984375 
Q 46.6875 64.796875 31.59375 64.796875 
z
M 9.8125 72.90625 
L 30.078125 72.90625 
Q 51.265625 72.90625 61.171875 64.09375 
Q 71.09375 55.28125 71.09375 36.53125 
Q 71.09375 17.671875 61.125 8.828125 
Q 51.171875 0 30.078125 0 
L 9.8125 0 
z
" id="DejaVuSans-68"/>
     </defs>
     <use xlink:href="#DejaVuSans-52"/>
     <use x="63.623047" xlink:href="#DejaVuSans-48"/>
     <use x="127.246094" xlink:href="#DejaVuSans-45"/>
     <use x="163.330078" xlink:href="#DejaVuSans-68"/>
    </g>
   </g>
   <g id="text_14">
    <!-- 20-D -->
    <g transform="translate(375.22944 246.689638)scale(0.17 -0.17)">
     <use xlink:href="#DejaVuSans-50"/>
     <use x="63.623047" xlink:href="#DejaVuSans-48"/>
     <use x="127.246094" xlink:href="#DejaVuSans-45"/>
     <use x="163.330078" xlink:href="#DejaVuSans-68"/>
    </g>
   </g>
   <g id="text_15">
    <!-- 10-D -->
    <g transform="translate(375.22944 195.116537)scale(0.17 -0.17)">
     <use xlink:href="#DejaVuSans-49"/>
     <use x="63.623047" xlink:href="#DejaVuSans-48"/>
     <use x="127.246094" xlink:href="#DejaVuSans-45"/>
     <use x="163.330078" xlink:href="#DejaVuSans-68"/>
    </g>
   </g>
   <g id="text_16">
    <!-- 5-D -->
    <g transform="translate(375.22944 143.543437)scale(0.17 -0.17)">
     <defs>
      <path d="M 10.796875 72.90625 
L 49.515625 72.90625 
L 49.515625 64.59375 
L 19.828125 64.59375 
L 19.828125 46.734375 
Q 21.96875 47.46875 24.109375 47.828125 
Q 26.265625 48.1875 28.421875 48.1875 
Q 40.625 48.1875 47.75 41.5 
Q 54.890625 34.8125 54.890625 23.390625 
Q 54.890625 11.625 47.5625 5.09375 
Q 40.234375 -1.421875 26.90625 -1.421875 
Q 22.3125 -1.421875 17.546875 -0.640625 
Q 12.796875 0.140625 7.71875 1.703125 
L 7.71875 11.625 
Q 12.109375 9.234375 16.796875 8.0625 
Q 21.484375 6.890625 26.703125 6.890625 
Q 35.15625 6.890625 40.078125 11.328125 
Q 45.015625 15.765625 45.015625 23.390625 
Q 45.015625 31 40.078125 35.4375 
Q 35.15625 39.890625 26.703125 39.890625 
Q 22.75 39.890625 18.8125 39.015625 
Q 14.890625 38.140625 10.796875 36.28125 
z
" id="DejaVuSans-53"/>
     </defs>
     <use xlink:href="#DejaVuSans-53"/>
     <use x="63.623047" xlink:href="#DejaVuSans-45"/>
     <use x="99.707031" xlink:href="#DejaVuSans-68"/>
    </g>
   </g>
   <g id="text_17">
    <!-- 3-D -->
    <g transform="translate(375.22944 91.970336)scale(0.17 -0.17)">
     <defs>
      <path d="M 40.578125 39.3125 
Q 47.65625 37.796875 51.625 33 
Q 55.609375 28.21875 55.609375 21.1875 
Q 55.609375 10.40625 48.1875 4.484375 
Q 40.765625 -1.421875 27.09375 -1.421875 
Q 22.515625 -1.421875 17.65625 -0.515625 
Q 12.796875 0.390625 7.625 2.203125 
L 7.625 11.71875 
Q 11.71875 9.328125 16.59375 8.109375 
Q 21.484375 6.890625 26.8125 6.890625 
Q 36.078125 6.890625 40.9375 10.546875 
Q 45.796875 14.203125 45.796875 21.1875 
Q 45.796875 27.640625 41.28125 31.265625 
Q 36.765625 34.90625 28.71875 34.90625 
L 20.21875 34.90625 
L 20.21875 43.015625 
L 29.109375 43.015625 
Q 36.375 43.015625 40.234375 45.921875 
Q 44.09375 48.828125 44.09375 54.296875 
Q 44.09375 59.90625 40.109375 62.90625 
Q 36.140625 65.921875 28.71875 65.921875 
Q 24.65625 65.921875 20.015625 65.03125 
Q 15.375 64.15625 9.8125 62.3125 
L 9.8125 71.09375 
Q 15.4375 72.65625 20.34375 73.4375 
Q 25.25 74.21875 29.59375 74.21875 
Q 40.828125 74.21875 47.359375 69.109375 
Q 53.90625 64.015625 53.90625 55.328125 
Q 53.90625 49.265625 50.4375 45.09375 
Q 46.96875 40.921875 40.578125 39.3125 
z
" id="DejaVuSans-51"/>
     </defs>
     <use xlink:href="#DejaVuSans-51"/>
     <use x="63.623047" xlink:href="#DejaVuSans-45"/>
     <use x="99.707031" xlink:href="#DejaVuSans-68"/>
    </g>
   </g>
   <g id="text_18">
    <!-- 2-D -->
    <g transform="translate(375.22944 40.397235)scale(0.17 -0.17)">
     <use xlink:href="#DejaVuSans-50"/>
     <use x="63.623047" xlink:href="#DejaVuSans-45"/>
     <use x="99.707031" xlink:href="#DejaVuSans-68"/>
    </g>
   </g>
   <g id="text_19">
    <!-- bbob f6 -->
    <g transform="translate(60.41088 38.111366)scale(0.102 -0.102)">
     <defs>
      <path d="M 48.6875 27.296875 
Q 48.6875 37.203125 44.609375 42.84375 
Q 40.53125 48.484375 33.40625 48.484375 
Q 26.265625 48.484375 22.1875 42.84375 
Q 18.109375 37.203125 18.109375 27.296875 
Q 18.109375 17.390625 22.1875 11.75 
Q 26.265625 6.109375 33.40625 6.109375 
Q 40.53125 6.109375 44.609375 11.75 
Q 48.6875 17.390625 48.6875 27.296875 
z
M 18.109375 46.390625 
Q 20.953125 51.265625 25.265625 53.625 
Q 29.59375 56 35.59375 56 
Q 45.5625 56 51.78125 48.09375 
Q 58.015625 40.1875 58.015625 27.296875 
Q 58.015625 14.40625 51.78125 6.484375 
Q 45.5625 -1.421875 35.59375 -1.421875 
Q 29.59375 -1.421875 25.265625 0.953125 
Q 20.953125 3.328125 18.109375 8.203125 
L 18.109375 0 
L 9.078125 0 
L 9.078125 75.984375 
L 18.109375 75.984375 
z
" id="DejaVuSans-98"/>
     </defs>
     <use xlink:href="#DejaVuSans-98"/>
     <use x="63.476562" xlink:href="#DejaVuSans-98"/>
     <use x="126.953125" xlink:href="#DejaVuSans-111"/>
     <use x="188.134766" xlink:href="#DejaVuSans-98"/>
     <use x="251.611328" xlink:href="#DejaVuSans-32"/>
     <use x="283.398438" xlink:href="#DejaVuSans-102"/>
     <use x="318.603516" xlink:href="#DejaVuSans-54"/>
    </g>
    <!-- 51 targets: 100..1e-08 -->
    <g transform="translate(60.41088 49.533135)scale(0.102 -0.102)">
     <defs>
      <path d="M 11.71875 12.40625 
L 22.015625 12.40625 
L 22.015625 0 
L 11.71875 0 
z
M 11.71875 51.703125 
L 22.015625 51.703125 
L 22.015625 39.3125 
L 11.71875 39.3125 
z
" id="DejaVuSans-58"/>
     </defs>
     <use xlink:href="#DejaVuSans-53"/>
     <use x="63.623047" xlink:href="#DejaVuSans-49"/>
     <use x="127.246094" xlink:href="#DejaVuSans-32"/>
     <use x="159.033203" xlink:href="#DejaVuSans-116"/>
     <use x="198.242188" xlink:href="#DejaVuSans-97"/>
     <use x="259.521484" xlink:href="#DejaVuSans-114"/>
     <use x="298.884766" xlink:href="#DejaVuSans-103"/>
     <use x="362.361328" xlink:href="#DejaVuSans-101"/>
     <use x="423.884766" xlink:href="#DejaVuSans-116"/>
     <use x="463.09375" xlink:href="#DejaVuSans-115"/>
     <use x="515.193359" xlink:href="#DejaVuSans-58"/>
     <use x="548.884766" xlink:href="#DejaVuSans-32"/>
     <use x="580.671875" xlink:href="#DejaVuSans-49"/>
     <use x="644.294922" xlink:href="#DejaVuSans-48"/>
     <use x="707.917969" xlink:href="#DejaVuSans-48"/>
     <use x="771.541016" xlink:href="#DejaVuSans-46"/>
     <use x="803.328125" xlink:href="#DejaVuSans-46"/>
     <use x="835.115234" xlink:href="#DejaVuSans-49"/>
     <use x="898.738281" xlink:href="#DejaVuSans-101"/>
     <use x="960.261719" xlink:href="#DejaVuSans-45"/>
     <use x="996.345703" xlink:href="#DejaVuSans-48"/>
     <use x="1059.96875" xlink:href="#DejaVuSans-56"/>
    </g>
    <!-- 15 instances -->
    <g transform="translate(60.41088 60.954904)scale(0.102 -0.102)">
     <use xlink:href="#DejaVuSans-49"/>
     <use x="63.623047" xlink:href="#DejaVuSans-53"/>
     <use x="127.246094" xlink:href="#DejaVuSans-32"/>
     <use x="159.033203" xlink:href="#DejaVuSans-105"/>
     <use x="186.816406" xlink:href="#DejaVuSans-110"/>
     <use x="250.195312" xlink:href="#DejaVuSans-115"/>
     <use x="302.294922" xlink:href="#DejaVuSans-116"/>
     <use x="341.503906" xlink:href="#DejaVuSans-97"/>
     <use x="402.783203" xlink:href="#DejaVuSans-110"/>
     <use x="466.162109" xlink:href="#DejaVuSans-99"/>
     <use x="521.142578" xlink:href="#DejaVuSans-101"/>
     <use x="582.666016" xlink:href="#DejaVuSans-115"/>
    </g>
   </g>
   <g id="text_20">
    <!-- v2.4 -->
    <g style="fill:#808080;" transform="translate(187.233062 294.151352)scale(0.1 -0.1)">
     <use xlink:href="#DejaVuSans-118"/>
     <use x="59.179688" xlink:href="#DejaVuSans-50"/>
     <use x="122.802734" xlink:href="#DejaVuSans-46"/>
     <use x="154.589844" xlink:href="#DejaVuSans-52"/>
    </g>
   </g>
   <g id="text_21">
    <!-- 6 Attractive sector -->
    <g transform="translate(105.40025 21.648)scale(0.2 -0.2)">
     <defs>
      <path d="M 34.1875 63.1875 
L 20.796875 26.90625 
L 47.609375 26.90625 
z
M 28.609375 72.90625 
L 39.796875 72.90625 
L 67.578125 0 
L 57.328125 0 
L 50.6875 18.703125 
L 17.828125 18.703125 
L 11.1875 0 
L 0.78125 0 
z
" id="DejaVuSans-65"/>
     </defs>
     <use xlink:href="#DejaVuSans-54"/>
     <use x="63.623047" xlink:href="#DejaVuSans-32"/>
     <use x="95.410156" xlink:href="#DejaVuSans-65"/>
     <use x="162.068359" xlink:href="#DejaVuSans-116"/>
     <use x="201.277344" xlink:href="#DejaVuSans-116"/>
     <use x="240.486328" xlink:href="#DejaVuSans-114"/>
     <use x="281.599609" xlink:href="#DejaVuSans-97"/>
     <use x="342.878906" xlink:href="#DejaVuSans-99"/>
     <use x="397.859375" xlink:href="#DejaVuSans-116"/>
     <use x="437.068359" xlink:href="#DejaVuSans-105"/>
     <use x="464.851562" xlink:href="#DejaVuSans-118"/>
     <use x="524.03125" xlink:href="#DejaVuSans-101"/>
     <use x="585.554688" xlink:href="#DejaVuSans-32"/>
     <use x="617.341797" xlink:href="#DejaVuSans-115"/>
     <use x="669.441406" xlink:href="#DejaVuSans-101"/>
     <use x="730.964844" xlink:href="#DejaVuSans-99"/>
     <use x="785.945312" xlink:href="#DejaVuSans-116"/>
     <use x="825.154297" xlink:href="#DejaVuSans-111"/>
     <use x="886.335938" xlink:href="#DejaVuSans-114"/>
    </g>
   </g>
  </g>
 </g>
 <defs>
  <clipPath id="p7861bd9add">
   <rect height="271.296" width="281.088" x="57.6" y="27.648"/>
  </clipPath>
 </defs>
</svg>
