<?xml version="1.0" encoding="utf-8" standalone="no"?>
<!DOCTYPE svg PUBLIC "-//W3C//DTD SVG 1.1//EN"
  "http://www.w3.org/Graphics/SVG/1.1/DTD/svg11.dtd">
<!-- Created with matplotlib (https://matplotlib.org/) -->
<svg height="345.6pt" version="1.1" viewBox="0 0 460.8 345.6" width="460.8pt" xmlns="http://www.w3.org/2000/svg" xmlns:xlink="http://www.w3.org/1999/xlink">
 <metadata>
  <rdf:RDF xmlns:cc="http://creativecommons.org/ns#" xmlns:dc="http://purl.org/dc/elements/1.1/" xmlns:rdf="http://www.w3.org/1999/02/22-rdf-syntax-ns#">
   <cc:Work>
    <dc:type rdf:resource="http://purl.org/dc/dcmitype/StillImage"/>
    <dc:date>2021-08-04T15:02:33.394559</dc:date>
    <dc:format>image/svg+xml</dc:format>
    <dc:creator>
     <cc:Agent>
      <dc:title>Matplotlib v3.3.1, https://matplotlib.org/</dc:title>
     </cc:Agent>
    </dc:creator>
   </cc:Work>
  </rdf:RDF>
 </metadata>
 <defs>
  <style type="text/css">*{stroke-linecap:butt;stroke-linejoin:round;}</style>
 </defs>
 <g id="figure_1">
  <g id="patch_1">
   <path d="M 0 345.6 
L 460.8 345.6 
L 460.8 0 
L 0 0 
z
" style="fill:#ffffff;"/>
  </g>
  <g id="axes_1">
   <g id="patch_2">
    <path d="M 57.6 298.944 
L 338.688 298.944 
L 338.688 27.648 
L 57.6 27.648 
z
" style="fill:#ffffff;"/>
   </g>
   <g id="matplotlib.axis_1">
    <g id="xtick_1">
     <g id="line2d_1">
      <path clip-path="url(#pbaf44ee2c7)" d="M 57.6 298.944 
L 57.6 27.648 
" style="fill:none;stroke:#b0b0b0;stroke-linecap:square;stroke-width:0.8;"/>
     </g>
     <g id="line2d_2">
      <defs>
       <path d="M 0 0 
L 0 3.5 
" id="m26ce621a9e" style="stroke:#000000;stroke-width:0.8;"/>
      </defs>
      <g>
       <use style="stroke:#000000;stroke-width:0.8;" x="57.6" xlink:href="#m26ce621a9e" y="298.944"/>
      </g>
     </g>
     <g id="text_1">
      <!-- 0 -->
      <g transform="translate(51.2375 321.140875)scale(0.2 -0.2)">
       <defs>
        <path d="M 31.78125 66.40625 
Q 24.171875 66.40625 20.328125 58.90625 
Q 16.5 51.421875 16.5 36.375 
Q 16.5 21.390625 20.328125 13.890625 
Q 24.171875 6.390625 31.78125 6.390625 
Q 39.453125 6.390625 43.28125 13.890625 
Q 47.125 21.390625 47.125 36.375 
Q 47.125 51.421875 43.28125 58.90625 
Q 39.453125 66.40625 31.78125 66.40625 
z
M 31.78125 74.21875 
Q 44.046875 74.21875 50.515625 64.515625 
Q 56.984375 54.828125 56.984375 36.375 
Q 56.984375 17.96875 50.515625 8.265625 
Q 44.046875 -1.421875 31.78125 -1.421875 
Q 19.53125 -1.421875 13.0625 8.265625 
Q 6.59375 17.96875 6.59375 36.375 
Q 6.59375 54.828125 13.0625 64.515625 
Q 19.53125 74.21875 31.78125 74.21875 
z
" id="DejaVuSans-48"/>
       </defs>
       <use xlink:href="#DejaVuSans-48"/>
      </g>
     </g>
    </g>
    <g id="xtick_2">
     <g id="line2d_3">
      <path clip-path="url(#pbaf44ee2c7)" d="M 137.910857 298.944 
L 137.910857 27.648 
" style="fill:none;stroke:#b0b0b0;stroke-linecap:square;stroke-width:0.8;"/>
     </g>
     <g id="line2d_4">
      <g>
       <use style="stroke:#000000;stroke-width:0.8;" x="137.910857" xlink:href="#m26ce621a9e" y="298.944"/>
      </g>
     </g>
     <g id="text_2">
      <!-- 2 -->
      <g transform="translate(131.548357 321.140875)scale(0.2 -0.2)">
       <defs>
        <path d="M 19.1875 8.296875 
L 53.609375 8.296875 
L 53.609375 0 
L 7.328125 0 
L 7.328125 8.296875 
Q 12.9375 14.109375 22.625 23.890625 
Q 32.328125 33.6875 34.8125 36.53125 
Q 39.546875 41.84375 41.421875 45.53125 
Q 43.3125 49.21875 43.3125 52.78125 
Q 43.3125 58.59375 39.234375 62.25 
Q 35.15625 65.921875 28.609375 65.921875 
Q 23.96875 65.921875 18.8125 64.3125 
Q 13.671875 62.703125 7.8125 59.421875 
L 7.8125 69.390625 
Q 13.765625 71.78125 18.9375 73 
Q 24.125 74.21875 28.421875 74.21875 
Q 39.75 74.21875 46.484375 68.546875 
Q 53.21875 62.890625 53.21875 53.421875 
Q 53.21875 48.921875 51.53125 44.890625 
Q 49.859375 40.875 45.40625 35.40625 
Q 44.1875 33.984375 37.640625 27.21875 
Q 31.109375 20.453125 19.1875 8.296875 
z
" id="DejaVuSans-50"/>
       </defs>
       <use xlink:href="#DejaVuSans-50"/>
      </g>
     </g>
    </g>
    <g id="xtick_3">
     <g id="line2d_5">
      <path clip-path="url(#pbaf44ee2c7)" d="M 218.221714 298.944 
L 218.221714 27.648 
" style="fill:none;stroke:#b0b0b0;stroke-linecap:square;stroke-width:0.8;"/>
     </g>
     <g id="line2d_6">
      <g>
       <use style="stroke:#000000;stroke-width:0.8;" x="218.221714" xlink:href="#m26ce621a9e" y="298.944"/>
      </g>
     </g>
     <g id="text_3">
      <!-- 4 -->
      <g transform="translate(211.859214 321.140875)scale(0.2 -0.2)">
       <defs>
        <path d="M 37.796875 64.3125 
L 12.890625 25.390625 
L 37.796875 25.390625 
z
M 35.203125 72.90625 
L 47.609375 72.90625 
L 47.609375 25.390625 
L 58.015625 25.390625 
L 58.015625 17.1875 
L 47.609375 17.1875 
L 47.609375 0 
L 37.796875 0 
L 37.796875 17.1875 
L 4.890625 17.1875 
L 4.890625 26.703125 
z
" id="DejaVuSans-52"/>
       </defs>
       <use xlink:href="#DejaVuSans-52"/>
      </g>
     </g>
    </g>
    <g id="xtick_4">
     <g id="line2d_7">
      <path clip-path="url(#pbaf44ee2c7)" d="M 298.532571 298.944 
L 298.532571 27.648 
" style="fill:none;stroke:#b0b0b0;stroke-linecap:square;stroke-width:0.8;"/>
     </g>
     <g id="line2d_8">
      <g>
       <use style="stroke:#000000;stroke-width:0.8;" x="298.532571" xlink:href="#m26ce621a9e" y="298.944"/>
      </g>
     </g>
     <g id="text_4">
      <!-- 6 -->
      <g transform="translate(292.170071 321.140875)scale(0.2 -0.2)">
       <defs>
        <path d="M 33.015625 40.375 
Q 26.375 40.375 22.484375 35.828125 
Q 18.609375 31.296875 18.609375 23.390625 
Q 18.609375 15.53125 22.484375 10.953125 
Q 26.375 6.390625 33.015625 6.390625 
Q 39.65625 6.390625 43.53125 10.953125 
Q 47.40625 15.53125 47.40625 23.390625 
Q 47.40625 31.296875 43.53125 35.828125 
Q 39.65625 40.375 33.015625 40.375 
z
M 52.59375 71.296875 
L 52.59375 62.3125 
Q 48.875 64.0625 45.09375 64.984375 
Q 41.3125 65.921875 37.59375 65.921875 
Q 27.828125 65.921875 22.671875 59.328125 
Q 17.53125 52.734375 16.796875 39.40625 
Q 19.671875 43.65625 24.015625 45.921875 
Q 28.375 48.1875 33.59375 48.1875 
Q 44.578125 48.1875 50.953125 41.515625 
Q 57.328125 34.859375 57.328125 23.390625 
Q 57.328125 12.15625 50.6875 5.359375 
Q 44.046875 -1.421875 33.015625 -1.421875 
Q 20.359375 -1.421875 13.671875 8.265625 
Q 6.984375 17.96875 6.984375 36.375 
Q 6.984375 53.65625 15.1875 63.9375 
Q 23.390625 74.21875 37.203125 74.21875 
Q 40.921875 74.21875 44.703125 73.484375 
Q 48.484375 72.75 52.59375 71.296875 
z
" id="DejaVuSans-54"/>
       </defs>
       <use xlink:href="#DejaVuSans-54"/>
      </g>
     </g>
    </g>
    <g id="xtick_5">
     <g id="line2d_9">
      <path clip-path="url(#pbaf44ee2c7)" d="M 97.755429 298.944 
L 97.755429 27.648 
" style="fill:none;stroke:#b0b0b0;stroke-linecap:square;stroke-width:0.8;"/>
     </g>
     <g id="line2d_10">
      <defs>
       <path d="M 0 0 
L 0 2 
" id="m69a49e59f3" style="stroke:#000000;stroke-width:0.6;"/>
      </defs>
      <g>
       <use style="stroke:#000000;stroke-width:0.6;" x="97.755429" xlink:href="#m69a49e59f3" y="298.944"/>
      </g>
     </g>
    </g>
    <g id="xtick_6">
     <g id="line2d_11">
      <path clip-path="url(#pbaf44ee2c7)" d="M 178.066286 298.944 
L 178.066286 27.648 
" style="fill:none;stroke:#b0b0b0;stroke-linecap:square;stroke-width:0.8;"/>
     </g>
     <g id="line2d_12">
      <g>
       <use style="stroke:#000000;stroke-width:0.6;" x="178.066286" xlink:href="#m69a49e59f3" y="298.944"/>
      </g>
     </g>
    </g>
    <g id="xtick_7">
     <g id="line2d_13">
      <path clip-path="url(#pbaf44ee2c7)" d="M 258.377143 298.944 
L 258.377143 27.648 
" style="fill:none;stroke:#b0b0b0;stroke-linecap:square;stroke-width:0.8;"/>
     </g>
     <g id="line2d_14">
      <g>
       <use style="stroke:#000000;stroke-width:0.6;" x="258.377143" xlink:href="#m69a49e59f3" y="298.944"/>
      </g>
     </g>
    </g>
    <g id="xtick_8">
     <g id="line2d_15">
      <path clip-path="url(#pbaf44ee2c7)" d="M 338.688 298.944 
L 338.688 27.648 
" style="fill:none;stroke:#b0b0b0;stroke-linecap:square;stroke-width:0.8;"/>
     </g>
     <g id="line2d_16">
      <g>
       <use style="stroke:#000000;stroke-width:0.6;" x="338.688" xlink:href="#m69a49e59f3" y="298.944"/>
      </g>
     </g>
    </g>
    <g id="text_5">
     <!-- log10(# f-evals / dimension) -->
     <g transform="translate(77.764078 342.217594)scale(0.17 -0.17)">
      <defs>
       <path d="M 9.421875 75.984375 
L 18.40625 75.984375 
L 18.40625 0 
L 9.421875 0 
z
" id="DejaVuSans-108"/>
       <path d="M 30.609375 48.390625 
Q 23.390625 48.390625 19.1875 42.75 
Q 14.984375 37.109375 14.984375 27.296875 
Q 14.984375 17.484375 19.15625 11.84375 
Q 23.34375 6.203125 30.609375 6.203125 
Q 37.796875 6.203125 41.984375 11.859375 
Q 46.1875 17.53125 46.1875 27.296875 
Q 46.1875 37.015625 41.984375 42.703125 
Q 37.796875 48.390625 30.609375 48.390625 
z
M 30.609375 56 
Q 42.328125 56 49.015625 48.375 
Q 55.71875 40.765625 55.71875 27.296875 
Q 55.71875 13.875 49.015625 6.21875 
Q 42.328125 -1.421875 30.609375 -1.421875 
Q 18.84375 -1.421875 12.171875 6.21875 
Q 5.515625 13.875 5.515625 27.296875 
Q 5.515625 40.765625 12.171875 48.375 
Q 18.84375 56 30.609375 56 
z
" id="DejaVuSans-111"/>
       <path d="M 45.40625 27.984375 
Q 45.40625 37.75 41.375 43.109375 
Q 37.359375 48.484375 30.078125 48.484375 
Q 22.859375 48.484375 18.828125 43.109375 
Q 14.796875 37.75 14.796875 27.984375 
Q 14.796875 18.265625 18.828125 12.890625 
Q 22.859375 7.515625 30.078125 7.515625 
Q 37.359375 7.515625 41.375 12.890625 
Q 45.40625 18.265625 45.40625 27.984375 
z
M 54.390625 6.78125 
Q 54.390625 -7.171875 48.1875 -13.984375 
Q 42 -20.796875 29.203125 -20.796875 
Q 24.46875 -20.796875 20.265625 -20.09375 
Q 16.0625 -19.390625 12.109375 -17.921875 
L 12.109375 -9.1875 
Q 16.0625 -11.328125 19.921875 -12.34375 
Q 23.78125 -13.375 27.78125 -13.375 
Q 36.625 -13.375 41.015625 -8.765625 
Q 45.40625 -4.15625 45.40625 5.171875 
L 45.40625 9.625 
Q 42.625 4.78125 38.28125 2.390625 
Q 33.9375 0 27.875 0 
Q 17.828125 0 11.671875 7.65625 
Q 5.515625 15.328125 5.515625 27.984375 
Q 5.515625 40.671875 11.671875 48.328125 
Q 17.828125 56 27.875 56 
Q 33.9375 56 38.28125 53.609375 
Q 42.625 51.21875 45.40625 46.390625 
L 45.40625 54.6875 
L 54.390625 54.6875 
z
" id="DejaVuSans-103"/>
       <path d="M 12.40625 8.296875 
L 28.515625 8.296875 
L 28.515625 63.921875 
L 10.984375 60.40625 
L 10.984375 69.390625 
L 28.421875 72.90625 
L 38.28125 72.90625 
L 38.28125 8.296875 
L 54.390625 8.296875 
L 54.390625 0 
L 12.40625 0 
z
" id="DejaVuSans-49"/>
       <path d="M 31 75.875 
Q 24.46875 64.65625 21.28125 53.65625 
Q 18.109375 42.671875 18.109375 31.390625 
Q 18.109375 20.125 21.3125 9.0625 
Q 24.515625 -2 31 -13.1875 
L 23.1875 -13.1875 
Q 15.875 -1.703125 12.234375 9.375 
Q 8.59375 20.453125 8.59375 31.390625 
Q 8.59375 42.28125 12.203125 53.3125 
Q 15.828125 64.359375 23.1875 75.875 
z
" id="DejaVuSans-40"/>
       <path d="M 51.125 44 
L 36.921875 44 
L 32.8125 27.6875 
L 47.125 27.6875 
z
M 43.796875 71.78125 
L 38.71875 51.515625 
L 52.984375 51.515625 
L 58.109375 71.78125 
L 65.921875 71.78125 
L 60.890625 51.515625 
L 76.125 51.515625 
L 76.125 44 
L 58.984375 44 
L 54.984375 27.6875 
L 70.515625 27.6875 
L 70.515625 20.21875 
L 53.078125 20.21875 
L 48 0 
L 40.1875 0 
L 45.21875 20.21875 
L 30.90625 20.21875 
L 25.875 0 
L 18.015625 0 
L 23.09375 20.21875 
L 7.71875 20.21875 
L 7.71875 27.6875 
L 24.90625 27.6875 
L 29 44 
L 13.28125 44 
L 13.28125 51.515625 
L 30.90625 51.515625 
L 35.890625 71.78125 
z
" id="DejaVuSans-35"/>
       <path id="DejaVuSans-32"/>
       <path d="M 37.109375 75.984375 
L 37.109375 68.5 
L 28.515625 68.5 
Q 23.6875 68.5 21.796875 66.546875 
Q 19.921875 64.59375 19.921875 59.515625 
L 19.921875 54.6875 
L 34.71875 54.6875 
L 34.71875 47.703125 
L 19.921875 47.703125 
L 19.921875 0 
L 10.890625 0 
L 10.890625 47.703125 
L 2.296875 47.703125 
L 2.296875 54.6875 
L 10.890625 54.6875 
L 10.890625 58.5 
Q 10.890625 67.625 15.140625 71.796875 
Q 19.390625 75.984375 28.609375 75.984375 
z
" id="DejaVuSans-102"/>
       <path d="M 4.890625 31.390625 
L 31.203125 31.390625 
L 31.203125 23.390625 
L 4.890625 23.390625 
z
" id="DejaVuSans-45"/>
       <path d="M 56.203125 29.59375 
L 56.203125 25.203125 
L 14.890625 25.203125 
Q 15.484375 15.921875 20.484375 11.0625 
Q 25.484375 6.203125 34.421875 6.203125 
Q 39.59375 6.203125 44.453125 7.46875 
Q 49.3125 8.734375 54.109375 11.28125 
L 54.109375 2.78125 
Q 49.265625 0.734375 44.1875 -0.34375 
Q 39.109375 -1.421875 33.890625 -1.421875 
Q 20.796875 -1.421875 13.15625 6.1875 
Q 5.515625 13.8125 5.515625 26.8125 
Q 5.515625 40.234375 12.765625 48.109375 
Q 20.015625 56 32.328125 56 
Q 43.359375 56 49.78125 48.890625 
Q 56.203125 41.796875 56.203125 29.59375 
z
M 47.21875 32.234375 
Q 47.125 39.59375 43.09375 43.984375 
Q 39.0625 48.390625 32.421875 48.390625 
Q 24.90625 48.390625 20.390625 44.140625 
Q 15.875 39.890625 15.1875 32.171875 
z
" id="DejaVuSans-101"/>
       <path d="M 2.984375 54.6875 
L 12.5 54.6875 
L 29.59375 8.796875 
L 46.6875 54.6875 
L 56.203125 54.6875 
L 35.6875 0 
L 23.484375 0 
z
" id="DejaVuSans-118"/>
       <path d="M 34.28125 27.484375 
Q 23.390625 27.484375 19.1875 25 
Q 14.984375 22.515625 14.984375 16.5 
Q 14.984375 11.71875 18.140625 8.90625 
Q 21.296875 6.109375 26.703125 6.109375 
Q 34.1875 6.109375 38.703125 11.40625 
Q 43.21875 16.703125 43.21875 25.484375 
L 43.21875 27.484375 
z
M 52.203125 31.203125 
L 52.203125 0 
L 43.21875 0 
L 43.21875 8.296875 
Q 40.140625 3.328125 35.546875 0.953125 
Q 30.953125 -1.421875 24.3125 -1.421875 
Q 15.921875 -1.421875 10.953125 3.296875 
Q 6 8.015625 6 15.921875 
Q 6 25.140625 12.171875 29.828125 
Q 18.359375 34.515625 30.609375 34.515625 
L 43.21875 34.515625 
L 43.21875 35.40625 
Q 43.21875 41.609375 39.140625 45 
Q 35.0625 48.390625 27.6875 48.390625 
Q 23 48.390625 18.546875 47.265625 
Q 14.109375 46.140625 10.015625 43.890625 
L 10.015625 52.203125 
Q 14.9375 54.109375 19.578125 55.046875 
Q 24.21875 56 28.609375 56 
Q 40.484375 56 46.34375 49.84375 
Q 52.203125 43.703125 52.203125 31.203125 
z
" id="DejaVuSans-97"/>
       <path d="M 44.28125 53.078125 
L 44.28125 44.578125 
Q 40.484375 46.53125 36.375 47.5 
Q 32.28125 48.484375 27.875 48.484375 
Q 21.1875 48.484375 17.84375 46.4375 
Q 14.5 44.390625 14.5 40.28125 
Q 14.5 37.15625 16.890625 35.375 
Q 19.28125 33.59375 26.515625 31.984375 
L 29.59375 31.296875 
Q 39.15625 29.25 43.1875 25.515625 
Q 47.21875 21.78125 47.21875 15.09375 
Q 47.21875 7.46875 41.1875 3.015625 
Q 35.15625 -1.421875 24.609375 -1.421875 
Q 20.21875 -1.421875 15.453125 -0.5625 
Q 10.6875 0.296875 5.421875 2 
L 5.421875 11.28125 
Q 10.40625 8.6875 15.234375 7.390625 
Q 20.0625 6.109375 24.8125 6.109375 
Q 31.15625 6.109375 34.5625 8.28125 
Q 37.984375 10.453125 37.984375 14.40625 
Q 37.984375 18.0625 35.515625 20.015625 
Q 33.0625 21.96875 24.703125 23.78125 
L 21.578125 24.515625 
Q 13.234375 26.265625 9.515625 29.90625 
Q 5.8125 33.546875 5.8125 39.890625 
Q 5.8125 47.609375 11.28125 51.796875 
Q 16.75 56 26.8125 56 
Q 31.78125 56 36.171875 55.265625 
Q 40.578125 54.546875 44.28125 53.078125 
z
" id="DejaVuSans-115"/>
       <path d="M 25.390625 72.90625 
L 33.6875 72.90625 
L 8.296875 -9.28125 
L 0 -9.28125 
z
" id="DejaVuSans-47"/>
       <path d="M 45.40625 46.390625 
L 45.40625 75.984375 
L 54.390625 75.984375 
L 54.390625 0 
L 45.40625 0 
L 45.40625 8.203125 
Q 42.578125 3.328125 38.25 0.953125 
Q 33.9375 -1.421875 27.875 -1.421875 
Q 17.96875 -1.421875 11.734375 6.484375 
Q 5.515625 14.40625 5.515625 27.296875 
Q 5.515625 40.1875 11.734375 48.09375 
Q 17.96875 56 27.875 56 
Q 33.9375 56 38.25 53.625 
Q 42.578125 51.265625 45.40625 46.390625 
z
M 14.796875 27.296875 
Q 14.796875 17.390625 18.875 11.75 
Q 22.953125 6.109375 30.078125 6.109375 
Q 37.203125 6.109375 41.296875 11.75 
Q 45.40625 17.390625 45.40625 27.296875 
Q 45.40625 37.203125 41.296875 42.84375 
Q 37.203125 48.484375 30.078125 48.484375 
Q 22.953125 48.484375 18.875 42.84375 
Q 14.796875 37.203125 14.796875 27.296875 
z
" id="DejaVuSans-100"/>
       <path d="M 9.421875 54.6875 
L 18.40625 54.6875 
L 18.40625 0 
L 9.421875 0 
z
M 9.421875 75.984375 
L 18.40625 75.984375 
L 18.40625 64.59375 
L 9.421875 64.59375 
z
" id="DejaVuSans-105"/>
       <path d="M 52 44.1875 
Q 55.375 50.25 60.0625 53.125 
Q 64.75 56 71.09375 56 
Q 79.640625 56 84.28125 50.015625 
Q 88.921875 44.046875 88.921875 33.015625 
L 88.921875 0 
L 79.890625 0 
L 79.890625 32.71875 
Q 79.890625 40.578125 77.09375 44.375 
Q 74.3125 48.1875 68.609375 48.1875 
Q 61.625 48.1875 57.5625 43.546875 
Q 53.515625 38.921875 53.515625 30.90625 
L 53.515625 0 
L 44.484375 0 
L 44.484375 32.71875 
Q 44.484375 40.625 41.703125 44.40625 
Q 38.921875 48.1875 33.109375 48.1875 
Q 26.21875 48.1875 22.15625 43.53125 
Q 18.109375 38.875 18.109375 30.90625 
L 18.109375 0 
L 9.078125 0 
L 9.078125 54.6875 
L 18.109375 54.6875 
L 18.109375 46.1875 
Q 21.1875 51.21875 25.484375 53.609375 
Q 29.78125 56 35.6875 56 
Q 41.65625 56 45.828125 52.96875 
Q 50 49.953125 52 44.1875 
z
" id="DejaVuSans-109"/>
       <path d="M 54.890625 33.015625 
L 54.890625 0 
L 45.90625 0 
L 45.90625 32.71875 
Q 45.90625 40.484375 42.875 44.328125 
Q 39.84375 48.1875 33.796875 48.1875 
Q 26.515625 48.1875 22.3125 43.546875 
Q 18.109375 38.921875 18.109375 30.90625 
L 18.109375 0 
L 9.078125 0 
L 9.078125 54.6875 
L 18.109375 54.6875 
L 18.109375 46.1875 
Q 21.34375 51.125 25.703125 53.5625 
Q 30.078125 56 35.796875 56 
Q 45.21875 56 50.046875 50.171875 
Q 54.890625 44.34375 54.890625 33.015625 
z
" id="DejaVuSans-110"/>
       <path d="M 8.015625 75.875 
L 15.828125 75.875 
Q 23.140625 64.359375 26.78125 53.3125 
Q 30.421875 42.28125 30.421875 31.390625 
Q 30.421875 20.453125 26.78125 9.375 
Q 23.140625 -1.703125 15.828125 -13.1875 
L 8.015625 -13.1875 
Q 14.5 -2 17.703125 9.0625 
Q 20.90625 20.125 20.90625 31.390625 
Q 20.90625 42.671875 17.703125 53.65625 
Q 14.5 64.65625 8.015625 75.875 
z
" id="DejaVuSans-41"/>
      </defs>
      <use xlink:href="#DejaVuSans-108"/>
      <use x="27.783203" xlink:href="#DejaVuSans-111"/>
      <use x="88.964844" xlink:href="#DejaVuSans-103"/>
      <use x="152.441406" xlink:href="#DejaVuSans-49"/>
      <use x="216.064453" xlink:href="#DejaVuSans-48"/>
      <use x="279.6875" xlink:href="#DejaVuSans-40"/>
      <use x="318.701172" xlink:href="#DejaVuSans-35"/>
      <use x="402.490234" xlink:href="#DejaVuSans-32"/>
      <use x="434.277344" xlink:href="#DejaVuSans-102"/>
      <use x="463.982422" xlink:href="#DejaVuSans-45"/>
      <use x="500.066406" xlink:href="#DejaVuSans-101"/>
      <use x="561.589844" xlink:href="#DejaVuSans-118"/>
      <use x="620.769531" xlink:href="#DejaVuSans-97"/>
      <use x="682.048828" xlink:href="#DejaVuSans-108"/>
      <use x="709.832031" xlink:href="#DejaVuSans-115"/>
      <use x="761.931641" xlink:href="#DejaVuSans-32"/>
      <use x="793.71875" xlink:href="#DejaVuSans-47"/>
      <use x="827.410156" xlink:href="#DejaVuSans-32"/>
      <use x="859.197266" xlink:href="#DejaVuSans-100"/>
      <use x="922.673828" xlink:href="#DejaVuSans-105"/>
      <use x="950.457031" xlink:href="#DejaVuSans-109"/>
      <use x="1047.869141" xlink:href="#DejaVuSans-101"/>
      <use x="1109.392578" xlink:href="#DejaVuSans-110"/>
      <use x="1172.771484" xlink:href="#DejaVuSans-115"/>
      <use x="1224.871094" xlink:href="#DejaVuSans-105"/>
      <use x="1252.654297" xlink:href="#DejaVuSans-111"/>
      <use x="1313.835938" xlink:href="#DejaVuSans-110"/>
      <use x="1377.214844" xlink:href="#DejaVuSans-41"/>
     </g>
    </g>
   </g>
   <g id="matplotlib.axis_2">
    <g id="ytick_1">
     <g id="line2d_17">
      <path clip-path="url(#pbaf44ee2c7)" d="M 57.6 298.944 
L 338.688 298.944 
" style="fill:none;stroke:#b0b0b0;stroke-linecap:square;stroke-width:0.8;"/>
     </g>
     <g id="line2d_18">
      <defs>
       <path d="M 0 0 
L -3.5 0 
" id="m1460005ee7" style="stroke:#000000;stroke-width:0.8;"/>
      </defs>
      <g>
       <use style="stroke:#000000;stroke-width:0.8;" x="57.6" xlink:href="#m1460005ee7" y="298.944"/>
      </g>
     </g>
     <g id="text_6">
      <!-- 0.0 -->
      <g transform="translate(25.155 305.02275)scale(0.16 -0.16)">
       <defs>
        <path d="M 10.6875 12.40625 
L 21 12.40625 
L 21 0 
L 10.6875 0 
z
" id="DejaVuSans-46"/>
       </defs>
       <use xlink:href="#DejaVuSans-48"/>
       <use x="63.623047" xlink:href="#DejaVuSans-46"/>
       <use x="95.410156" xlink:href="#DejaVuSans-48"/>
      </g>
     </g>
    </g>
    <g id="ytick_2">
     <g id="line2d_19">
      <path clip-path="url(#pbaf44ee2c7)" d="M 57.6 245.22202 
L 338.688 245.22202 
" style="fill:none;stroke:#b0b0b0;stroke-linecap:square;stroke-width:0.8;"/>
     </g>
     <g id="line2d_20">
      <g>
       <use style="stroke:#000000;stroke-width:0.8;" x="57.6" xlink:href="#m1460005ee7" y="245.22202"/>
      </g>
     </g>
     <g id="text_7">
      <!-- 0.2 -->
      <g transform="translate(25.155 251.30077)scale(0.16 -0.16)">
       <use xlink:href="#DejaVuSans-48"/>
       <use x="63.623047" xlink:href="#DejaVuSans-46"/>
       <use x="95.410156" xlink:href="#DejaVuSans-50"/>
      </g>
     </g>
    </g>
    <g id="ytick_3">
     <g id="line2d_21">
      <path clip-path="url(#pbaf44ee2c7)" d="M 57.6 191.50004 
L 338.688 191.50004 
" style="fill:none;stroke:#b0b0b0;stroke-linecap:square;stroke-width:0.8;"/>
     </g>
     <g id="line2d_22">
      <g>
       <use style="stroke:#000000;stroke-width:0.8;" x="57.6" xlink:href="#m1460005ee7" y="191.50004"/>
      </g>
     </g>
     <g id="text_8">
      <!-- 0.4 -->
      <g transform="translate(25.155 197.57879)scale(0.16 -0.16)">
       <use xlink:href="#DejaVuSans-48"/>
       <use x="63.623047" xlink:href="#DejaVuSans-46"/>
       <use x="95.410156" xlink:href="#DejaVuSans-52"/>
      </g>
     </g>
    </g>
    <g id="ytick_4">
     <g id="line2d_23">
      <path clip-path="url(#pbaf44ee2c7)" d="M 57.6 137.778059 
L 338.688 137.778059 
" style="fill:none;stroke:#b0b0b0;stroke-linecap:square;stroke-width:0.8;"/>
     </g>
     <g id="line2d_24">
      <g>
       <use style="stroke:#000000;stroke-width:0.8;" x="57.6" xlink:href="#m1460005ee7" y="137.778059"/>
      </g>
     </g>
     <g id="text_9">
      <!-- 0.6 -->
      <g transform="translate(25.155 143.856809)scale(0.16 -0.16)">
       <use xlink:href="#DejaVuSans-48"/>
       <use x="63.623047" xlink:href="#DejaVuSans-46"/>
       <use x="95.410156" xlink:href="#DejaVuSans-54"/>
      </g>
     </g>
    </g>
    <g id="ytick_5">
     <g id="line2d_25">
      <path clip-path="url(#pbaf44ee2c7)" d="M 57.6 84.056079 
L 338.688 84.056079 
" style="fill:none;stroke:#b0b0b0;stroke-linecap:square;stroke-width:0.8;"/>
     </g>
     <g id="line2d_26">
      <g>
       <use style="stroke:#000000;stroke-width:0.8;" x="57.6" xlink:href="#m1460005ee7" y="84.056079"/>
      </g>
     </g>
     <g id="text_10">
      <!-- 0.8 -->
      <g transform="translate(25.155 90.134829)scale(0.16 -0.16)">
       <defs>
        <path d="M 31.78125 34.625 
Q 24.75 34.625 20.71875 30.859375 
Q 16.703125 27.09375 16.703125 20.515625 
Q 16.703125 13.921875 20.71875 10.15625 
Q 24.75 6.390625 31.78125 6.390625 
Q 38.8125 6.390625 42.859375 10.171875 
Q 46.921875 13.96875 46.921875 20.515625 
Q 46.921875 27.09375 42.890625 30.859375 
Q 38.875 34.625 31.78125 34.625 
z
M 21.921875 38.8125 
Q 15.578125 40.375 12.03125 44.71875 
Q 8.5 49.078125 8.5 55.328125 
Q 8.5 64.0625 14.71875 69.140625 
Q 20.953125 74.21875 31.78125 74.21875 
Q 42.671875 74.21875 48.875 69.140625 
Q 55.078125 64.0625 55.078125 55.328125 
Q 55.078125 49.078125 51.53125 44.71875 
Q 48 40.375 41.703125 38.8125 
Q 48.828125 37.15625 52.796875 32.3125 
Q 56.78125 27.484375 56.78125 20.515625 
Q 56.78125 9.90625 50.3125 4.234375 
Q 43.84375 -1.421875 31.78125 -1.421875 
Q 19.734375 -1.421875 13.25 4.234375 
Q 6.78125 9.90625 6.78125 20.515625 
Q 6.78125 27.484375 10.78125 32.3125 
Q 14.796875 37.15625 21.921875 38.8125 
z
M 18.3125 54.390625 
Q 18.3125 48.734375 21.84375 45.5625 
Q 25.390625 42.390625 31.78125 42.390625 
Q 38.140625 42.390625 41.71875 45.5625 
Q 45.3125 48.734375 45.3125 54.390625 
Q 45.3125 60.0625 41.71875 63.234375 
Q 38.140625 66.40625 31.78125 66.40625 
Q 25.390625 66.40625 21.84375 63.234375 
Q 18.3125 60.0625 18.3125 54.390625 
z
" id="DejaVuSans-56"/>
       </defs>
       <use xlink:href="#DejaVuSans-48"/>
       <use x="63.623047" xlink:href="#DejaVuSans-46"/>
       <use x="95.410156" xlink:href="#DejaVuSans-56"/>
      </g>
     </g>
    </g>
    <g id="ytick_6">
     <g id="line2d_27">
      <path clip-path="url(#pbaf44ee2c7)" d="M 57.6 30.334099 
L 338.688 30.334099 
" style="fill:none;stroke:#b0b0b0;stroke-linecap:square;stroke-width:0.8;"/>
     </g>
     <g id="line2d_28">
      <g>
       <use style="stroke:#000000;stroke-width:0.8;" x="57.6" xlink:href="#m1460005ee7" y="30.334099"/>
      </g>
     </g>
     <g id="text_11">
      <!-- 1.0 -->
      <g transform="translate(25.155 36.412849)scale(0.16 -0.16)">
       <use xlink:href="#DejaVuSans-49"/>
       <use x="63.623047" xlink:href="#DejaVuSans-46"/>
       <use x="95.410156" xlink:href="#DejaVuSans-48"/>
      </g>
     </g>
    </g>
    <g id="text_12">
     <!-- Fraction of function,target pairs -->
     <g transform="translate(17.619531 297.681)rotate(-90)scale(0.17 -0.17)">
      <defs>
       <path d="M 9.8125 72.90625 
L 51.703125 72.90625 
L 51.703125 64.59375 
L 19.671875 64.59375 
L 19.671875 43.109375 
L 48.578125 43.109375 
L 48.578125 34.8125 
L 19.671875 34.8125 
L 19.671875 0 
L 9.8125 0 
z
" id="DejaVuSans-70"/>
       <path d="M 41.109375 46.296875 
Q 39.59375 47.171875 37.8125 47.578125 
Q 36.03125 48 33.890625 48 
Q 26.265625 48 22.1875 43.046875 
Q 18.109375 38.09375 18.109375 28.8125 
L 18.109375 0 
L 9.078125 0 
L 9.078125 54.6875 
L 18.109375 54.6875 
L 18.109375 46.1875 
Q 20.953125 51.171875 25.484375 53.578125 
Q 30.03125 56 36.53125 56 
Q 37.453125 56 38.578125 55.875 
Q 39.703125 55.765625 41.0625 55.515625 
z
" id="DejaVuSans-114"/>
       <path d="M 48.78125 52.59375 
L 48.78125 44.1875 
Q 44.96875 46.296875 41.140625 47.34375 
Q 37.3125 48.390625 33.40625 48.390625 
Q 24.65625 48.390625 19.8125 42.84375 
Q 14.984375 37.3125 14.984375 27.296875 
Q 14.984375 17.28125 19.8125 11.734375 
Q 24.65625 6.203125 33.40625 6.203125 
Q 37.3125 6.203125 41.140625 7.25 
Q 44.96875 8.296875 48.78125 10.40625 
L 48.78125 2.09375 
Q 45.015625 0.34375 40.984375 -0.53125 
Q 36.96875 -1.421875 32.421875 -1.421875 
Q 20.0625 -1.421875 12.78125 6.34375 
Q 5.515625 14.109375 5.515625 27.296875 
Q 5.515625 40.671875 12.859375 48.328125 
Q 20.21875 56 33.015625 56 
Q 37.15625 56 41.109375 55.140625 
Q 45.0625 54.296875 48.78125 52.59375 
z
" id="DejaVuSans-99"/>
       <path d="M 18.3125 70.21875 
L 18.3125 54.6875 
L 36.8125 54.6875 
L 36.8125 47.703125 
L 18.3125 47.703125 
L 18.3125 18.015625 
Q 18.3125 11.328125 20.140625 9.421875 
Q 21.96875 7.515625 27.59375 7.515625 
L 36.8125 7.515625 
L 36.8125 0 
L 27.59375 0 
Q 17.1875 0 13.234375 3.875 
Q 9.28125 7.765625 9.28125 18.015625 
L 9.28125 47.703125 
L 2.6875 47.703125 
L 2.6875 54.6875 
L 9.28125 54.6875 
L 9.28125 70.21875 
z
" id="DejaVuSans-116"/>
       <path d="M 8.5 21.578125 
L 8.5 54.6875 
L 17.484375 54.6875 
L 17.484375 21.921875 
Q 17.484375 14.15625 20.5 10.265625 
Q 23.53125 6.390625 29.59375 6.390625 
Q 36.859375 6.390625 41.078125 11.03125 
Q 45.3125 15.671875 45.3125 23.6875 
L 45.3125 54.6875 
L 54.296875 54.6875 
L 54.296875 0 
L 45.3125 0 
L 45.3125 8.40625 
Q 42.046875 3.421875 37.71875 1 
Q 33.40625 -1.421875 27.6875 -1.421875 
Q 18.265625 -1.421875 13.375 4.4375 
Q 8.5 10.296875 8.5 21.578125 
z
M 31.109375 56 
z
" id="DejaVuSans-117"/>
       <path d="M 11.71875 12.40625 
L 22.015625 12.40625 
L 22.015625 4 
L 14.015625 -11.625 
L 7.71875 -11.625 
L 11.71875 4 
z
" id="DejaVuSans-44"/>
       <path d="M 18.109375 8.203125 
L 18.109375 -20.796875 
L 9.078125 -20.796875 
L 9.078125 54.6875 
L 18.109375 54.6875 
L 18.109375 46.390625 
Q 20.953125 51.265625 25.265625 53.625 
Q 29.59375 56 35.59375 56 
Q 45.5625 56 51.78125 48.09375 
Q 58.015625 40.1875 58.015625 27.296875 
Q 58.015625 14.40625 51.78125 6.484375 
Q 45.5625 -1.421875 35.59375 -1.421875 
Q 29.59375 -1.421875 25.265625 0.953125 
Q 20.953125 3.328125 18.109375 8.203125 
z
M 48.6875 27.296875 
Q 48.6875 37.203125 44.609375 42.84375 
Q 40.53125 48.484375 33.40625 48.484375 
Q 26.265625 48.484375 22.1875 42.84375 
Q 18.109375 37.203125 18.109375 27.296875 
Q 18.109375 17.390625 22.1875 11.75 
Q 26.265625 6.109375 33.40625 6.109375 
Q 40.53125 6.109375 44.609375 11.75 
Q 48.6875 17.390625 48.6875 27.296875 
z
" id="DejaVuSans-112"/>
      </defs>
      <use xlink:href="#DejaVuSans-70"/>
      <use x="50.269531" xlink:href="#DejaVuSans-114"/>
      <use x="91.382812" xlink:href="#DejaVuSans-97"/>
      <use x="152.662109" xlink:href="#DejaVuSans-99"/>
      <use x="207.642578" xlink:href="#DejaVuSans-116"/>
      <use x="246.851562" xlink:href="#DejaVuSans-105"/>
      <use x="274.634766" xlink:href="#DejaVuSans-111"/>
      <use x="335.816406" xlink:href="#DejaVuSans-110"/>
      <use x="399.195312" xlink:href="#DejaVuSans-32"/>
      <use x="430.982422" xlink:href="#DejaVuSans-111"/>
      <use x="492.164062" xlink:href="#DejaVuSans-102"/>
      <use x="527.369141" xlink:href="#DejaVuSans-32"/>
      <use x="559.15625" xlink:href="#DejaVuSans-102"/>
      <use x="594.361328" xlink:href="#DejaVuSans-117"/>
      <use x="657.740234" xlink:href="#DejaVuSans-110"/>
      <use x="721.119141" xlink:href="#DejaVuSans-99"/>
      <use x="776.099609" xlink:href="#DejaVuSans-116"/>
      <use x="815.308594" xlink:href="#DejaVuSans-105"/>
      <use x="843.091797" xlink:href="#DejaVuSans-111"/>
      <use x="904.273438" xlink:href="#DejaVuSans-110"/>
      <use x="967.652344" xlink:href="#DejaVuSans-44"/>
      <use x="999.439453" xlink:href="#DejaVuSans-116"/>
      <use x="1038.648438" xlink:href="#DejaVuSans-97"/>
      <use x="1099.927734" xlink:href="#DejaVuSans-114"/>
      <use x="1139.291016" xlink:href="#DejaVuSans-103"/>
      <use x="1202.767578" xlink:href="#DejaVuSans-101"/>
      <use x="1264.291016" xlink:href="#DejaVuSans-116"/>
      <use x="1303.5" xlink:href="#DejaVuSans-32"/>
      <use x="1335.287109" xlink:href="#DejaVuSans-112"/>
      <use x="1398.763672" xlink:href="#DejaVuSans-97"/>
      <use x="1460.042969" xlink:href="#DejaVuSans-105"/>
      <use x="1487.826172" xlink:href="#DejaVuSans-114"/>
      <use x="1528.939453" xlink:href="#DejaVuSans-115"/>
     </g>
    </g>
   </g>
   <g id="line2d_29">
    <defs>
     <path d="M 0 1.5 
C 0.397805 1.5 0.77937 1.341951 1.06066 1.06066 
C 1.341951 0.77937 1.5 0.397805 1.5 0 
C 1.5 -0.397805 1.341951 -0.77937 1.06066 -1.06066 
C 0.77937 -1.341951 0.397805 -1.5 0 -1.5 
C -0.397805 -1.5 -0.77937 -1.341951 -1.06066 -1.06066 
C -1.341951 -0.77937 -1.5 -0.397805 -1.5 0 
C -1.5 0.397805 -1.341951 0.77937 -1.06066 1.06066 
C -0.77937 1.341951 -0.397805 1.5 0 1.5 
z
" id="m98a7b8c303" style="stroke:#00bfbf;"/>
    </defs>
    <g>
     <use style="fill:#00bfbf;stroke:#00bfbf;" x="133.124876" xlink:href="#m98a7b8c303" y="30.334099"/>
     <use style="fill:#00bfbf;stroke:#00bfbf;" x="133.124876" xlink:href="#m98a7b8c303" y="30.334099"/>
    </g>
   </g>
   <g id="line2d_30">
    <path d="M 45.512012 298.944 
L 45.512012 267.342835 
L 85.66744 267.342835 
L 85.66744 265.762777 
L 87.329581 265.762777 
L 87.329581 263.656033 
L 88.846997 263.656033 
L 88.846997 262.075974 
L 97.755429 262.075974 
L 97.755429 260.495916 
L 98.606294 260.495916 
L 98.606294 258.389172 
L 99.41757 258.389172 
L 99.41757 255.755741 
L 100.192776 255.755741 
L 100.192776 253.122311 
L 100.934985 253.122311 
L 100.934985 245.748706 
L 101.646892 245.748706 
L 101.646892 234.161612 
L 102.330873 234.161612 
L 102.330873 230.47481 
L 102.989037 230.47481 
L 102.989037 224.681263 
L 105.398279 224.681263 
L 105.398279 224.154577 
L 105.951954 224.154577 
L 105.951954 223.101204 
L 106.48859 223.101204 
L 106.48859 222.047832 
L 107.514726 222.047832 
L 107.514726 221.521146 
L 111.104637 221.521146 
L 111.104637 220.99446 
L 116.914437 220.99446 
L 116.914437 220.467774 
L 117.765302 220.467774 
L 117.765302 219.941088 
L 118.310324 219.941088 
L 118.310324 218.887716 
L 119.097192 218.887716 
L 119.097192 217.834344 
L 119.351785 217.834344 
L 119.351785 217.307658 
L 119.602714 217.307658 
L 119.602714 215.727599 
L 120.093994 215.727599 
L 120.093994 215.200913 
L 120.33454 215.200913 
L 120.33454 214.674227 
L 120.571812 214.674227 
L 120.571812 214.147541 
L 120.8059 214.147541 
L 120.8059 213.094169 
L 121.036887 213.094169 
L 121.036887 211.514111 
L 121.264855 211.514111 
L 121.264855 210.987425 
L 121.489881 210.987425 
L 121.489881 209.934052 
L 121.712041 209.934052 
L 121.712041 207.827308 
L 121.931406 207.827308 
L 121.931406 205.193878 
L 122.148045 205.193878 
L 122.148045 204.667192 
L 122.362027 204.667192 
L 122.362027 204.140506 
L 122.573415 204.140506 
L 122.573415 202.560447 
L 122.782271 202.560447 
L 122.782271 199.927017 
L 122.988655 199.927017 
L 122.988655 198.873645 
L 123.192626 198.873645 
L 123.192626 196.7669 
L 123.394238 196.7669 
L 123.394238 195.186842 
L 123.593547 195.186842 
L 123.593547 191.50004 
L 123.790603 191.50004 
L 123.790603 187.813237 
L 123.985457 187.813237 
L 123.985457 186.233179 
L 124.178158 186.233179 
L 124.178158 184.126434 
L 124.368753 184.126434 
L 124.368753 182.546376 
L 124.557288 182.546376 
L 124.557288 180.439632 
L 124.743806 180.439632 
L 124.743806 175.699457 
L 124.92835 175.699457 
L 124.92835 174.646085 
L 125.110962 174.646085 
L 125.110962 172.539341 
L 125.291682 172.539341 
L 125.291682 170.432596 
L 125.470548 170.432596 
L 125.470548 167.799166 
L 125.647598 167.799166 
L 125.647598 165.165736 
L 125.822869 165.165736 
L 125.822869 160.425561 
L 125.996395 160.425561 
L 125.996395 154.632014 
L 126.168212 154.632014 
L 126.168212 152.52527 
L 126.338353 152.52527 
L 126.338353 146.731723 
L 126.50685 146.731723 
L 126.50685 144.624978 
L 126.673734 144.624978 
L 126.673734 141.464862 
L 126.839037 141.464862 
L 126.839037 139.358118 
L 127.002787 139.358118 
L 127.002787 136.198001 
L 127.165014 136.198001 
L 127.165014 134.617943 
L 127.325746 134.617943 
L 127.325746 126.717652 
L 127.48501 126.717652 
L 127.48501 121.977477 
L 127.642832 121.977477 
L 127.642832 118.290674 
L 127.799239 118.290674 
L 127.799239 116.710616 
L 127.954256 116.710616 
L 127.954256 109.337011 
L 128.260216 109.337011 
L 128.260216 107.756953 
L 128.560901 107.756953 
L 128.560901 102.490092 
L 128.709321 102.490092 
L 128.709321 97.749917 
L 128.856489 97.749917 
L 128.856489 94.063115 
L 129.002426 94.063115 
L 129.002426 90.376312 
L 129.147151 90.376312 
L 129.147151 87.742882 
L 129.290685 87.742882 
L 129.290685 83.002707 
L 129.433047 83.002707 
L 129.433047 79.842591 
L 129.574256 79.842591 
L 129.574256 73.522358 
L 129.714332 73.522358 
L 129.714332 67.728811 
L 129.853291 67.728811 
L 129.853291 64.568694 
L 129.991152 64.568694 
L 129.991152 63.515322 
L 130.127931 63.515322 
L 130.127931 61.935264 
L 130.263646 61.935264 
L 130.263646 59.82852 
L 130.398313 59.82852 
L 130.398313 58.775147 
L 130.531948 58.775147 
L 130.531948 55.615031 
L 130.664567 55.615031 
L 130.664567 55.088345 
L 130.796184 55.088345 
L 130.796184 48.768112 
L 130.926816 48.768112 
L 130.926816 45.081309 
L 131.056477 45.081309 
L 131.056477 42.974565 
L 131.185181 42.974565 
L 131.185181 41.394507 
L 131.690703 41.394507 
L 131.690703 40.867821 
L 131.814826 40.867821 
L 131.814826 37.707704 
L 132.060454 37.707704 
L 132.060454 35.60096 
L 132.181982 35.60096 
L 132.181982 34.020902 
L 132.422528 34.020902 
L 132.422528 32.967529 
L 132.659801 32.967529 
L 132.659801 32.440843 
L 132.893889 32.440843 
L 132.893889 31.387471 
L 133.124876 31.387471 
L 133.124876 30.334099 
L 338.688 30.334099 
L 338.688 30.334099 
" style="fill:none;stroke:#00bfbf;stroke-linecap:square;stroke-width:1.5;"/>
   </g>
   <g id="line2d_31">
    <defs>
     <path d="M -6 0 
L 6 0 
M 0 6 
L 0 -6 
" id="m4ebd0858a0" style="stroke:#00bfbf;stroke-width:1.5;"/>
    </defs>
    <g>
     <use style="fill-opacity:0;stroke:#00bfbf;stroke-width:1.5;" x="102.330873" xlink:href="#m4ebd0858a0" y="230.47481"/>
     <use style="fill-opacity:0;stroke:#00bfbf;stroke-width:1.5;" x="127.642832" xlink:href="#m4ebd0858a0" y="121.977477"/>
     <use style="fill-opacity:0;stroke:#00bfbf;stroke-width:1.5;" x="133.124876" xlink:href="#m4ebd0858a0" y="31.387471"/>
     <use style="fill-opacity:0;stroke:#00bfbf;stroke-width:1.5;" x="133.124876" xlink:href="#m4ebd0858a0" y="30.334099"/>
     <use style="fill-opacity:0;stroke:#00bfbf;stroke-width:1.5;" x="133.124876" xlink:href="#m4ebd0858a0" y="30.334099"/>
     <use style="fill-opacity:0;stroke:#00bfbf;stroke-width:1.5;" x="338.688" xlink:href="#m4ebd0858a0" y="30.334099"/>
    </g>
   </g>
   <g id="line2d_32">
    <path style="fill:none;stroke:#00bfbf;stroke-linecap:square;stroke-width:1.5;"/>
    <g/>
   </g>
   <g id="line2d_33">
    <defs>
     <path d="M 0 1.5 
C 0.397805 1.5 0.77937 1.341951 1.06066 1.06066 
C 1.341951 0.77937 1.5 0.397805 1.5 0 
C 1.5 -0.397805 1.341951 -0.77937 1.06066 -1.06066 
C 0.77937 -1.341951 0.397805 -1.5 0 -1.5 
C -0.397805 -1.5 -0.77937 -1.341951 -1.06066 -1.06066 
C -1.341951 -0.77937 -1.5 -0.397805 -1.5 0 
C -1.5 0.397805 -1.341951 0.77937 -1.06066 1.06066 
C -0.77937 1.341951 -0.397805 1.5 0 1.5 
z
" id="mc537afd04d" style="stroke:#008000;"/>
    </defs>
    <g>
     <use style="fill:#008000;stroke:#008000;" x="139.835248" xlink:href="#mc537afd04d" y="30.334099"/>
     <use style="fill:#008000;stroke:#008000;" x="139.835248" xlink:href="#mc537afd04d" y="30.334099"/>
    </g>
   </g>
   <g id="line2d_34">
    <path d="M 38.440992 298.944 
L 38.440992 272.609696 
L 95.259853 272.609696 
L 95.259853 272.08301 
L 95.918017 272.08301 
L 95.918017 269.976266 
L 96.552242 269.976266 
L 96.552242 267.869521 
L 97.16421 267.869521 
L 97.16421 267.342835 
L 98.32726 267.342835 
L 98.32726 265.236091 
L 98.880934 265.236091 
L 98.880934 264.182719 
L 99.41757 264.182719 
L 99.41757 261.022602 
L 99.938184 261.022602 
L 99.938184 256.282427 
L 100.443706 256.282427 
L 100.443706 254.175683 
L 100.934985 254.175683 
L 100.934985 252.595625 
L 103.203018 252.595625 
L 103.203018 251.015567 
L 108.006005 251.015567 
L 108.006005 250.488881 
L 108.948899 250.488881 
L 108.948899 249.962195 
L 110.131676 249.962195 
L 110.131676 249.435508 
L 110.968922 249.435508 
L 110.968922 248.382136 
L 112.026172 248.382136 
L 112.026172 247.85545 
L 112.280765 247.85545 
L 112.280765 247.328764 
L 112.531694 247.328764 
L 112.531694 246.802078 
L 112.779064 246.802078 
L 112.779064 245.748706 
L 113.26352 245.748706 
L 113.26352 244.695334 
L 113.500792 244.695334 
L 113.500792 243.641962 
L 113.73488 243.641962 
L 113.73488 243.115275 
L 114.418861 243.115275 
L 114.418861 242.061903 
L 114.641021 242.061903 
L 114.641021 241.535217 
L 115.077025 241.535217 
L 115.077025 240.481845 
L 115.291007 240.481845 
L 115.291007 238.901787 
L 115.711251 238.901787 
L 115.711251 238.375101 
L 115.917635 238.375101 
L 115.917635 237.848415 
L 116.323218 237.848415 
L 116.323218 236.268356 
L 116.522527 236.268356 
L 116.522527 235.74167 
L 116.719583 235.74167 
L 116.719583 235.214984 
L 116.914437 235.214984 
L 116.914437 234.161612 
L 117.297733 234.161612 
L 117.297733 233.634926 
L 117.672786 233.634926 
L 117.672786 233.10824 
L 117.857331 233.10824 
L 117.857331 232.581554 
L 118.039942 232.581554 
L 118.039942 232.054868 
L 118.399528 232.054868 
L 118.399528 231.528182 
L 118.751849 231.528182 
L 118.751849 231.001496 
L 119.097192 231.001496 
L 119.097192 230.47481 
L 119.43583 230.47481 
L 119.43583 229.948123 
L 120.254726 229.948123 
L 120.254726 229.421437 
L 124.114161 229.421437 
L 124.114161 228.894751 
L 125.351508 228.894751 
L 125.351508 228.368065 
L 125.938745 228.368065 
L 125.938745 227.841379 
L 127.590383 227.841379 
L 127.590383 226.788007 
L 127.799239 226.788007 
L 127.902737 225.734635 
L 128.107907 225.734635 
L 128.209594 224.154577 
L 128.411207 224.154577 
L 128.511146 222.047832 
L 128.807571 222.047832 
L 128.905271 219.941088 
L 129.002426 219.941088 
L 129.002426 218.887716 
L 129.290685 218.887716 
L 129.385722 217.834344 
L 129.480244 217.834344 
L 129.480244 217.307658 
L 129.667765 217.307658 
L 129.667765 216.254285 
L 129.945319 216.254285 
L 130.036864 214.674227 
L 130.127931 214.674227 
L 130.127931 214.147541 
L 130.30865 214.147541 
L 130.30865 213.620855 
L 130.487516 213.620855 
L 130.576266 212.040797 
L 130.664567 212.040797 
L 130.752422 210.987425 
L 130.839837 210.987425 
L 130.839837 209.407366 
L 131.013364 209.407366 
L 131.099484 208.353994 
L 131.185181 208.353994 
L 131.270459 206.24725 
L 131.355321 206.24725 
L 131.439773 203.613819 
L 131.523818 203.613819 
L 131.60746 202.033761 
L 131.690703 202.033761 
L 131.77355 200.453703 
L 131.856005 200.453703 
L 131.856005 199.927017 
L 132.019755 199.927017 
L 132.101058 197.293586 
L 132.181982 197.293586 
L 132.262533 195.186842 
L 132.342714 195.186842 
L 132.422528 194.13347 
L 132.501978 194.13347 
L 132.581068 192.553412 
L 132.659801 192.553412 
L 132.73818 187.813237 
L 132.816208 187.813237 
L 132.893889 185.179807 
L 132.971225 185.179807 
L 133.04822 179.912946 
L 133.124876 179.912946 
L 133.124876 177.806202 
L 133.277185 177.806202 
L 133.352844 176.226143 
L 133.428175 176.226143 
L 133.503183 171.485969 
L 133.57787 171.485969 
L 133.652238 167.799166 
L 133.72629 167.799166 
L 133.800029 163.585677 
L 133.873458 163.585677 
L 133.946579 161.478933 
L 134.019394 161.478933 
L 134.091907 158.845503 
L 134.164119 158.845503 
L 134.236034 156.212072 
L 134.307653 156.212072 
L 134.307653 155.1587 
L 134.450015 155.1587 
L 134.520763 149.891839 
L 134.591225 149.891839 
L 134.661403 146.205037 
L 134.7313 146.205037 
L 134.800918 141.464862 
L 134.870259 141.464862 
L 134.939326 135.671315 
L 135.00812 135.671315 
L 135.076644 133.564571 
L 135.144899 133.564571 
L 135.212889 130.404454 
L 135.280614 130.404454 
L 135.348078 125.137593 
L 135.415281 125.137593 
L 135.482227 120.924105 
L 135.615352 120.924105 
L 135.615352 117.237302 
L 135.747468 117.237302 
L 135.813153 114.603872 
L 135.878591 114.603872 
L 135.943785 110.917069 
L 136.008736 110.917069 
L 136.073445 106.176895 
L 136.137916 106.176895 
L 136.137916 103.016778 
L 136.266147 103.016778 
L 136.32991 98.803289 
L 136.393441 98.803289 
L 136.456742 95.116487 
L 136.519813 95.116487 
L 136.582658 90.902998 
L 136.645276 90.902998 
L 136.707671 86.68951 
L 136.769843 86.68951 
L 136.831795 84.056079 
L 136.893527 84.056079 
L 136.955041 82.476021 
L 137.016339 82.476021 
L 137.077422 78.789218 
L 137.138292 78.789218 
L 137.198951 76.155788 
L 137.259399 76.155788 
L 137.319638 72.995672 
L 137.37967 72.995672 
L 137.439497 68.782183 
L 137.499118 68.782183 
L 137.499118 66.675439 
L 137.617753 66.675439 
L 137.676769 62.46195 
L 137.735587 62.46195 
L 137.794206 59.82852 
L 137.852629 59.82852 
L 137.910857 55.088345 
L 137.968891 55.088345 
L 137.968891 54.034973 
L 138.084384 54.034973 
L 138.141844 51.401542 
L 138.256201 51.401542 
L 138.313099 48.768112 
L 138.369812 48.768112 
L 138.426341 46.134681 
L 138.482688 46.134681 
L 138.538853 41.921193 
L 138.650644 41.921193 
L 138.761723 38.761076 
L 138.872098 38.761076 
L 138.981779 35.60096 
L 139.036363 35.60096 
L 139.145019 34.020902 
L 139.199094 34.020902 
L 139.306744 31.914157 
L 139.360321 31.914157 
L 139.360321 31.387471 
L 139.625765 31.387471 
L 139.625765 30.860785 
L 139.835248 30.860785 
L 139.835248 30.334099 
L 338.688 30.334099 
L 338.688 30.334099 
" style="fill:none;stroke:#008000;stroke-linecap:square;stroke-width:1.5;"/>
   </g>
   <g id="line2d_35">
    <defs>
     <path d="M -0 6 
L 6 -6 
L -6 -6 
z
" id="m78614cff04" style="stroke:#008000;stroke-linejoin:miter;stroke-width:1.5;"/>
    </defs>
    <g>
     <use style="fill-opacity:0;stroke:#008000;stroke-linejoin:miter;stroke-width:1.5;" x="114.418861" xlink:href="#m78614cff04" y="243.115275"/>
     <use style="fill-opacity:0;stroke:#008000;stroke-linejoin:miter;stroke-width:1.5;" x="138.141844" xlink:href="#m78614cff04" y="52.9816"/>
     <use style="fill-opacity:0;stroke:#008000;stroke-linejoin:miter;stroke-width:1.5;" x="139.835248" xlink:href="#m78614cff04" y="30.334099"/>
     <use style="fill-opacity:0;stroke:#008000;stroke-linejoin:miter;stroke-width:1.5;" x="139.835248" xlink:href="#m78614cff04" y="30.334099"/>
     <use style="fill-opacity:0;stroke:#008000;stroke-linejoin:miter;stroke-width:1.5;" x="139.835248" xlink:href="#m78614cff04" y="30.334099"/>
     <use style="fill-opacity:0;stroke:#008000;stroke-linejoin:miter;stroke-width:1.5;" x="338.688" xlink:href="#m78614cff04" y="30.334099"/>
    </g>
   </g>
   <g id="line2d_36">
    <path style="fill:none;stroke:#008000;stroke-linecap:square;stroke-width:1.5;"/>
    <g/>
   </g>
   <g id="line2d_37">
    <defs>
     <path d="M 0 1.5 
C 0.397805 1.5 0.77937 1.341951 1.06066 1.06066 
C 1.341951 0.77937 1.5 0.397805 1.5 0 
C 1.5 -0.397805 1.341951 -0.77937 1.06066 -1.06066 
C 0.77937 -1.341951 0.397805 -1.5 0 -1.5 
C -0.397805 -1.5 -0.77937 -1.341951 -1.06066 -1.06066 
C -1.341951 -0.77937 -1.5 -0.397805 -1.5 0 
C -1.5 0.397805 -1.341951 0.77937 -1.06066 1.06066 
C -0.77937 1.341951 -0.397805 1.5 0 1.5 
z
" id="maabc25c131" style="stroke:#0000ff;"/>
    </defs>
    <g>
     <use style="fill:#0000ff;stroke:#0000ff;" x="210.246995" xlink:href="#maabc25c131" y="30.334099"/>
     <use style="fill:#0000ff;stroke:#0000ff;" x="210.246995" xlink:href="#maabc25c131" y="30.334099"/>
    </g>
   </g>
   <g id="line2d_38">
    <path d="M 29.53256 298.944 
L 29.53256 283.143418 
L 89.418828 283.143418 
L 89.418828 282.616732 
L 89.972502 282.616732 
L 89.972502 281.563359 
L 90.509138 281.563359 
L 90.509138 278.929929 
L 91.029752 278.929929 
L 91.029752 278.403243 
L 91.535274 278.403243 
L 91.535274 277.876557 
L 98.100772 277.876557 
L 98.100772 277.349871 
L 98.43941 277.349871 
L 98.43941 276.823185 
L 98.771596 276.823185 
L 98.771596 275.769812 
L 99.41757 275.769812 
L 99.41757 275.243126 
L 99.731799 275.243126 
L 99.731799 274.71644 
L 100.641881 274.71644 
L 100.641881 273.663068 
L 110.188761 273.663068 
L 110.188761 273.136382 
L 110.527398 273.136382 
L 110.527398 272.609696 
L 110.694282 272.609696 
L 110.694282 272.08301 
L 111.023335 272.08301 
L 111.023335 271.556324 
L 111.505558 271.556324 
L 111.505558 271.029638 
L 112.128456 271.029638 
L 112.128456 270.502952 
L 112.280765 270.502952 
L 112.280765 269.449579 
L 113.873839 269.449579 
L 113.873839 268.396207 
L 114.148479 268.396207 
L 114.148479 267.869521 
L 114.816733 267.869521 
L 114.816733 267.342835 
L 115.586238 267.342835 
L 115.586238 266.816149 
L 118.256582 266.816149 
L 118.256582 266.289463 
L 119.097192 266.289463 
L 119.097192 265.762777 
L 119.40226 265.762777 
L 119.40226 265.236091 
L 119.702083 265.236091 
L 119.702083 264.709405 
L 120.093994 264.709405 
L 120.093994 264.182719 
L 120.759333 264.182719 
L 120.759333 263.656033 
L 121.036887 263.656033 
L 121.036887 263.129347 
L 121.310093 263.129347 
L 121.400219 262.075974 
L 121.579085 262.075974 
L 121.579085 261.549288 
L 122.362027 261.549288 
L 122.362027 261.022602 
L 122.615387 261.022602 
L 122.615387 260.495916 
L 123.029641 260.495916 
L 123.029641 259.96923 
L 123.354102 259.96923 
L 123.354102 259.442544 
L 123.751369 259.442544 
L 123.751369 258.915858 
L 124.062793 258.915858 
L 124.062793 258.389172 
L 124.519744 258.389172 
L 124.519744 257.862486 
L 124.891598 257.862486 
L 124.891598 257.3358 
L 125.399222 257.3358 
L 125.399222 256.809114 
L 126.236468 256.809114 
L 126.236468 255.755741 
L 126.839037 255.755741 
L 126.839037 255.229055 
L 126.97016 255.229055 
L 126.97016 254.702369 
L 127.100304 254.702369 
L 127.100304 254.175683 
L 127.674226 254.175683 
L 127.736845 253.122311 
L 128.046609 253.122311 
L 128.046609 252.595625 
L 128.350967 252.595625 
L 128.350967 252.068939 
L 128.471239 252.068939 
L 128.471239 251.542253 
L 128.827155 251.542253 
L 128.827155 251.015567 
L 129.06046 251.015567 
L 129.118302 249.962195 
L 129.290685 249.962195 
L 129.290685 249.435508 
L 130.018593 249.435508 
L 130.018593 248.908822 
L 130.822389 248.908822 
L 130.822389 248.382136 
L 130.978796 248.382136 
L 131.082294 247.328764 
L 131.287464 247.328764 
L 131.287464 246.802078 
L 131.790072 246.802078 
L 131.790072 246.275392 
L 132.278599 246.275392 
L 132.278599 245.748706 
L 132.517825 245.748706 
L 132.517825 245.22202 
L 133.032848 245.22202 
L 133.032848 244.695334 
L 133.667073 244.695334 
L 133.667073 244.168648 
L 133.931979 244.168648 
L 133.931979 243.641962 
L 134.236034 243.641962 
L 134.321942 242.588589 
L 134.450015 242.588589 
L 134.450015 242.061903 
L 135.035562 242.061903 
L 135.035562 241.535217 
L 135.760625 241.535217 
L 135.760625 241.008531 
L 136.189322 241.008531 
L 136.189322 240.481845 
L 139.604677 240.481845 
L 139.604677 239.955159 
L 140.589166 239.955159 
L 140.589166 239.428473 
L 140.826843 239.428473 
L 140.826843 238.901787 
L 141.71841 238.901787 
L 141.71841 238.375101 
L 142.673105 238.375101 
L 142.673105 237.848415 
L 142.910378 237.848415 
L 142.910378 237.321729 
L 143.324386 237.321729 
L 143.324386 236.795043 
L 143.47714 236.795043 
L 143.47714 236.268356 
L 143.728793 236.268356 
L 143.803587 235.214984 
L 144.026061 235.214984 
L 144.124035 233.634926 
L 144.197155 233.634926 
L 144.269971 232.581554 
L 144.390658 232.581554 
L 144.486611 231.528182 
L 144.605813 231.528182 
L 144.700592 229.421437 
L 144.981877 229.421437 
L 145.074639 228.368065 
L 145.120836 228.368065 
L 145.120836 227.841379 
L 145.304409 227.841379 
L 145.327221 226.261321 
L 145.48607 226.261321 
L 145.531191 224.681263 
L 145.643486 224.681263 
L 145.643486 223.627891 
L 145.755062 223.627891 
L 145.821666 222.574518 
L 145.888018 222.574518 
L 145.932112 221.521146 
L 146.06373 221.521146 
L 146.08557 220.467774 
L 146.216039 220.467774 
L 146.237689 219.414402 
L 146.431341 219.414402 
L 146.495417 216.780971 
L 146.749392 216.780971 
L 146.812312 214.674227 
L 146.875005 214.674227 
L 146.958248 212.040797 
L 147.02042 212.040797 
L 147.12355 209.934052 
L 147.164632 209.934052 
L 147.246507 208.88068 
L 147.327999 208.88068 
L 147.368603 206.24725 
L 147.48985 206.24725 
L 147.570215 204.140506 
L 147.630247 204.140506 
L 147.670154 199.400331 
L 147.78933 199.400331 
L 147.78933 198.873645 
L 147.927346 198.873645 
L 148.005725 197.293586 
L 148.142046 197.293586 
L 148.142046 196.7669 
L 148.430623 196.7669 
L 148.430623 195.713528 
L 148.620389 195.713528 
L 148.639252 194.660156 
L 148.770728 194.660156 
L 148.78943 193.606784 
L 148.956849 193.606784 
L 148.956849 193.080098 
L 149.085961 193.080098 
L 149.085961 192.026726 
L 149.377533 192.026726 
L 149.377533 190.973354 
L 149.717561 190.973354 
L 149.823575 189.393295 
L 150.94908 189.393295 
L 150.94908 188.866609 
L 151.897188 188.866609 
L 151.897188 188.339923 
L 152.037389 188.339923 
L 152.037389 187.813237 
L 152.736878 187.813237 
L 152.751777 186.233179 
L 152.855715 186.233179 
L 152.855715 185.706493 
L 153.017805 185.706493 
L 153.017805 185.179807 
L 153.149313 185.179807 
L 153.149313 184.653121 
L 153.337534 184.653121 
L 153.40939 182.546376 
L 153.679772 182.546376 
L 153.679772 182.01969 
L 153.848404 182.01969 
L 153.946025 179.912946 
L 153.987696 179.912946 
L 153.987696 179.38626 
L 154.208275 179.38626 
L 154.276638 178.332888 
L 154.385464 178.332888 
L 154.399019 177.279515 
L 154.507086 177.279515 
L 154.601099 174.646085 
L 154.641235 174.646085 
L 154.721232 173.592713 
L 154.827327 173.592713 
L 154.93278 172.012655 
L 155.011454 172.012655 
L 155.089774 170.959282 
L 155.141793 170.959282 
L 155.219531 168.852538 
L 155.412374 168.852538 
L 155.514359 167.799166 
L 155.565128 167.799166 
L 155.565128 167.27248 
L 155.678822 167.27248 
L 155.779264 166.219108 
L 155.804285 166.219108 
L 155.879132 164.112363 
L 155.916435 164.112363 
L 155.990803 162.005619 
L 156.040206 162.005619 
L 156.150854 159.898875 
L 156.272978 159.898875 
L 156.382164 158.318817 
L 156.574599 158.318817 
L 156.681918 157.265444 
L 156.741256 157.265444 
L 156.741256 156.738758 
L 157.426604 156.738758 
L 157.426604 156.212072 
L 157.898572 156.212072 
L 157.898572 155.685386 
L 158.433528 155.685386 
L 158.433528 155.1587 
L 158.70027 155.1587 
L 158.742573 154.105328 
L 158.9003 154.105328 
L 158.983842 152.52527 
L 159.087709 152.52527 
L 159.16005 151.471897 
L 159.232092 151.471897 
L 159.283369 149.365153 
L 159.486982 149.365153 
L 159.537516 148.311781 
L 159.668223 148.311781 
L 159.668223 147.785095 
L 159.817832 147.785095 
L 159.926735 145.678351 
L 160.064363 145.678351 
L 160.152267 143.571606 
L 160.210625 143.571606 
L 160.31711 139.884804 
L 160.413354 139.884804 
L 160.509069 137.778059 
L 160.689494 137.778059 
L 160.708377 136.724687 
L 160.802491 136.724687 
L 160.849359 135.144629 
L 160.961329 135.144629 
L 160.961329 134.617943 
L 161.072584 134.617943 
L 161.100288 133.564571 
L 161.320345 133.564571 
L 161.420284 131.984513 
L 161.654251 131.984513 
L 161.654251 131.457826 
L 161.787817 131.457826 
L 161.787817 130.93114 
L 161.92917 130.93114 
L 162.016937 129.877768 
L 162.217141 129.877768 
L 162.217141 129.351082 
L 162.55145 129.351082 
L 162.593851 128.29771 
L 163.315579 128.29771 
L 163.420904 127.244338 
L 163.437051 127.244338 
L 163.437051 126.717652 
L 163.597709 126.717652 
L 163.701348 125.137593 
L 163.733114 125.137593 
L 163.812276 123.030849 
L 163.859601 123.030849 
L 163.922502 119.344047 
L 164.15638 119.344047 
L 164.171861 118.290674 
L 164.279845 118.290674 
L 164.279845 117.763988 
L 164.455807 117.763988 
L 164.455807 117.237302 
L 164.569616 117.237302 
L 164.592289 116.18393 
L 164.6902 116.18393 
L 164.6902 115.657244 
L 164.854652 115.657244 
L 164.951104 114.077186 
L 165.017568 114.077186 
L 165.017568 113.5505 
L 165.222738 113.5505 
L 165.237301 112.497128 
L 165.382267 112.497128 
L 165.382267 111.443755 
L 165.504548 111.443755 
L 165.504548 110.917069 
L 165.887376 110.917069 
L 165.887376 110.390383 
L 166.378267 110.390383 
L 166.480231 108.810325 
L 167.027338 108.810325 
L 167.125588 107.756953 
L 167.442734 107.756953 
L 167.461965 106.176895 
L 167.634096 106.176895 
L 167.741609 103.543464 
L 167.886022 103.543464 
L 167.979563 102.490092 
L 168.010633 102.490092 
L 168.078792 101.43672 
L 168.232714 101.43672 
L 168.318321 100.383348 
L 168.348793 100.383348 
L 168.409578 99.329976 
L 168.488284 99.329976 
L 168.584667 98.276603 
L 168.686493 98.276603 
L 168.740162 96.696545 
L 168.852923 96.696545 
L 168.852923 96.169859 
L 169.05875 96.169859 
L 169.169476 95.116487 
L 169.417501 95.116487 
L 169.503198 94.063115 
L 169.724059 94.063115 
L 169.76902 93.009743 
L 169.942157 93.009743 
L 169.958822 91.95637 
L 170.086056 91.95637 
L 170.179505 90.376312 
L 170.277909 90.376312 
L 170.332339 89.32294 
L 170.440691 89.32294 
L 170.510761 87.216196 
L 170.618014 87.216196 
L 170.703344 86.162824 
L 170.798844 86.162824 
L 170.899085 84.582765 
L 171.175698 84.582765 
L 171.175698 84.056079 
L 171.366236 84.056079 
L 171.417378 83.002707 
L 171.756212 83.002707 
L 171.8212 81.422649 
L 172.419569 81.422649 
L 172.434028 80.369277 
L 172.563617 80.369277 
L 172.616138 79.315904 
L 172.696997 79.315904 
L 172.763306 78.262532 
L 172.937347 78.262532 
L 173.03536 76.682474 
L 173.09576 76.682474 
L 173.09576 76.155788 
L 173.307818 76.155788 
L 173.307818 75.629102 
L 173.670583 75.629102 
L 173.777957 74.57573 
L 173.964285 74.57573 
L 173.964285 74.049044 
L 174.15301 74.049044 
L 174.209666 72.995672 
L 174.313782 72.995672 
L 174.395768 71.942299 
L 174.425876 71.942299 
L 174.425876 71.415613 
L 174.562857 71.415613 
L 174.562857 70.888927 
L 175.141564 70.888927 
L 175.141564 70.362241 
L 175.46036 70.362241 
L 175.565343 68.255497 
L 175.681699 68.255497 
L 175.681699 67.728811 
L 176.452211 67.728811 
L 176.452211 67.202125 
L 176.785697 67.202125 
L 176.785697 66.675439 
L 177.098184 66.675439 
L 177.098184 66.148752 
L 177.256007 66.148752 
L 177.256007 65.622066 
L 177.379793 65.622066 
L 177.379793 65.09538 
L 177.745967 65.09538 
L 177.845155 64.042008 
L 178.101129 64.042008 
L 178.101129 63.515322 
L 178.26052 63.515322 
L 178.31562 61.935264 
L 178.544481 61.935264 
L 178.544481 61.408578 
L 178.943705 61.408578 
L 178.943705 60.881892 
L 179.089033 60.881892 
L 179.089033 60.355206 
L 179.453585 60.355206 
L 179.533929 59.301833 
L 179.883107 59.301833 
L 179.883107 58.775147 
L 180.351324 58.775147 
L 180.357442 57.721775 
L 180.494532 57.721775 
L 180.521822 56.141717 
L 180.630553 56.141717 
L 180.711659 54.561659 
L 180.846003 54.561659 
L 180.937953 53.508287 
L 181.058824 53.508287 
L 181.111626 52.454914 
L 181.222575 52.454914 
L 181.222575 51.928228 
L 181.416491 51.928228 
L 181.485433 50.874856 
L 181.579784 50.874856 
L 181.650924 49.821484 
L 182.237315 49.821484 
L 182.237315 49.294798 
L 182.673896 49.294798 
L 182.673896 48.768112 
L 182.863006 48.768112 
L 182.863006 48.241426 
L 183.021235 48.241426 
L 183.021235 47.71474 
L 183.336027 47.71474 
L 183.336027 47.188054 
L 183.700873 47.188054 
L 183.700873 46.661368 
L 183.889218 46.661368 
L 183.889218 46.134681 
L 184.33068 46.134681 
L 184.406012 45.081309 
L 184.459276 45.081309 
L 184.459276 44.554623 
L 185.015972 44.554623 
L 185.015972 44.027937 
L 185.557716 44.027937 
L 185.607581 42.974565 
L 186.094145 42.974565 
L 186.094145 42.447879 
L 186.597466 42.447879 
L 186.597466 41.921193 
L 187.036691 41.921193 
L 187.036691 41.394507 
L 187.550373 41.394507 
L 187.550373 40.867821 
L 188.715317 40.867821 
L 188.715317 40.341135 
L 189.872989 40.341135 
L 189.872989 39.814448 
L 190.073868 39.814448 
L 190.124602 38.761076 
L 190.583194 38.761076 
L 190.583194 38.23439 
L 192.0745 38.23439 
L 192.0745 37.707704 
L 192.333439 37.707704 
L 192.333439 37.181018 
L 192.834079 37.181018 
L 192.834079 36.654332 
L 193.390417 36.654332 
L 193.390417 36.127646 
L 194.075011 36.127646 
L 194.075011 35.60096 
L 201.068325 35.60096 
L 201.068325 35.074274 
L 201.567557 35.074274 
L 201.567557 34.547588 
L 202.632003 34.547588 
L 202.632003 34.020902 
L 204.206172 34.020902 
L 204.206172 33.494215 
L 204.955684 33.494215 
L 204.955684 32.967529 
L 206.474281 32.967529 
L 206.474281 32.440843 
L 207.290158 32.440843 
L 207.290158 31.914157 
L 208.372198 31.914157 
L 208.372198 31.387471 
L 209.79374 31.387471 
L 209.79374 30.860785 
L 210.246995 30.860785 
L 210.246995 30.334099 
L 338.688 30.334099 
L 338.688 30.334099 
" style="fill:none;stroke:#0000ff;stroke-linecap:square;stroke-width:1.5;"/>
   </g>
   <g id="line2d_39">
    <defs>
     <path d="M 0 -6 
L -1.347084 -1.854102 
L -5.706339 -1.854102 
L -2.179628 0.708204 
L -3.526712 4.854102 
L -0 2.291796 
L 3.526712 4.854102 
L 2.179628 0.708204 
L 5.706339 -1.854102 
L 1.347084 -1.854102 
z
" id="mbc9fde219a" style="stroke:#0000ff;stroke-linejoin:bevel;stroke-width:1.5;"/>
    </defs>
    <g>
     <use style="fill-opacity:0;stroke:#0000ff;stroke-linejoin:bevel;stroke-width:1.5;" x="120.093994" xlink:href="#mbc9fde219a" y="264.182719"/>
     <use style="fill-opacity:0;stroke:#0000ff;stroke-linejoin:bevel;stroke-width:1.5;" x="166.480231" xlink:href="#mbc9fde219a" y="109.863697"/>
     <use style="fill-opacity:0;stroke:#0000ff;stroke-linejoin:bevel;stroke-width:1.5;" x="204.955684" xlink:href="#mbc9fde219a" y="32.967529"/>
     <use style="fill-opacity:0;stroke:#0000ff;stroke-linejoin:bevel;stroke-width:1.5;" x="210.246995" xlink:href="#mbc9fde219a" y="30.334099"/>
     <use style="fill-opacity:0;stroke:#0000ff;stroke-linejoin:bevel;stroke-width:1.5;" x="210.246995" xlink:href="#mbc9fde219a" y="30.334099"/>
     <use style="fill-opacity:0;stroke:#0000ff;stroke-linejoin:bevel;stroke-width:1.5;" x="338.688" xlink:href="#mbc9fde219a" y="30.334099"/>
    </g>
   </g>
   <g id="line2d_40">
    <path style="fill:none;stroke:#0000ff;stroke-linecap:square;stroke-width:1.5;"/>
    <g/>
   </g>
   <g id="line2d_41">
    <path clip-path="url(#pbaf44ee2c7)" d="M 137.469333 240.481845 
" style="fill:none;stroke:#0000ff;stroke-linecap:square;stroke-width:1.5;"/>
    <defs>
     <path d="M -12 12 
L 12 -12 
M -12 -12 
L 12 12 
" id="m8265cc91ca" style="stroke:#0000ff;"/>
    </defs>
    <g clip-path="url(#pbaf44ee2c7)">
     <use style="fill:#0000ff;stroke:#0000ff;" x="137.469333" xlink:href="#m8265cc91ca" y="240.481845"/>
    </g>
   </g>
   <g id="line2d_42">
    <defs>
     <path d="M 0 1.5 
C 0.397805 1.5 0.77937 1.341951 1.06066 1.06066 
C 1.341951 0.77937 1.5 0.397805 1.5 0 
C 1.5 -0.397805 1.341951 -0.77937 1.06066 -1.06066 
C 0.77937 -1.341951 0.397805 -1.5 0 -1.5 
C -0.397805 -1.5 -0.77937 -1.341951 -1.06066 -1.06066 
C -1.341951 -0.77937 -1.5 -0.397805 -1.5 0 
C -1.5 0.397805 -1.341951 0.77937 -1.06066 1.06066 
C -0.77937 1.341951 -0.397805 1.5 0 1.5 
z
" id="m63bae1edbb" style="stroke:#000000;"/>
    </defs>
    <g>
     <use style="stroke:#000000;" x="219.737706" xlink:href="#m63bae1edbb" y="262.075974"/>
     <use style="stroke:#000000;" x="219.737706" xlink:href="#m63bae1edbb" y="262.075974"/>
    </g>
   </g>
   <g id="line2d_43">
    <path d="M 17.444571 298.944 
L 17.444571 288.410278 
L 113.311233 288.410278 
L 113.311233 287.883592 
L 122.489167 287.883592 
L 122.489167 287.356906 
L 122.573415 287.356906 
L 122.573415 286.83022 
L 122.865118 286.83022 
L 122.865118 286.303534 
L 123.354102 286.303534 
L 123.354102 285.776848 
L 124.706662 285.776848 
L 124.706662 285.250162 
L 125.717918 285.250162 
L 125.717918 284.723476 
L 127.861412 284.723476 
L 127.861412 284.19679 
L 130.531948 284.19679 
L 130.531948 283.670104 
L 131.414481 283.670104 
L 131.414481 283.143418 
L 133.101914 283.143418 
L 133.101914 282.616732 
L 133.644815 282.616732 
L 133.644815 282.090045 
L 134.386096 282.090045 
L 134.386096 281.563359 
L 134.577155 281.563359 
L 134.577155 281.036673 
L 135.280614 281.036673 
L 135.280614 280.509987 
L 136.701442 280.509987 
L 136.701442 279.983301 
L 138.443265 279.983301 
L 138.443265 279.456615 
L 138.728473 279.456615 
L 138.728473 278.929929 
L 138.811478 278.929929 
L 138.811478 278.403243 
L 141.774395 278.403243 
L 141.774395 277.876557 
L 143.066785 277.876557 
L 143.066785 277.349871 
L 143.840863 277.349871 
L 143.840863 276.823185 
L 144.438701 276.823185 
L 144.438701 276.296499 
L 145.270136 276.296499 
L 145.270136 275.769812 
L 145.315819 275.769812 
L 145.315819 275.243126 
L 145.665858 275.243126 
L 145.665858 274.71644 
L 145.998045 274.71644 
L 145.998045 274.189754 
L 146.324022 274.189754 
L 146.324022 273.663068 
L 147.590249 273.663068 
L 147.590249 273.136382 
L 149.039959 273.136382 
L 149.039959 272.609696 
L 157.37527 272.609696 
L 157.37527 272.08301 
L 160.20577 272.08301 
L 160.20577 271.556324 
L 160.924085 271.556324 
L 160.924085 271.029638 
L 161.146363 271.029638 
L 161.146363 270.502952 
L 166.719198 270.502952 
L 166.719198 269.976266 
L 166.722541 269.976266 
L 166.722541 269.449579 
L 167.722684 269.449579 
L 167.722684 268.922893 
L 168.641643 268.922893 
L 168.641643 268.396207 
L 171.925672 268.396207 
L 171.925672 267.869521 
L 171.928152 267.869521 
L 171.928152 267.342835 
L 173.607642 267.342835 
L 173.607642 266.816149 
L 176.29077 266.816149 
L 176.29077 266.289463 
L 183.674342 266.289463 
L 183.674342 265.762777 
L 187.795661 265.762777 
L 187.795661 265.236091 
L 187.917023 265.236091 
L 187.917023 264.709405 
L 190.001889 264.709405 
L 190.001889 264.182719 
L 199.303615 264.182719 
L 199.303615 263.656033 
L 213.76307 263.656033 
L 213.76307 263.129347 
L 217.687111 263.129347 
L 217.687111 262.60266 
L 219.737706 262.60266 
L 219.737706 262.075974 
L 338.688 262.075974 
" style="fill:none;stroke:#000000;stroke-linecap:square;stroke-width:1.5;"/>
   </g>
   <g id="line2d_44">
    <defs>
     <path d="M 0 6 
C 1.591219 6 3.117479 5.367802 4.242641 4.242641 
C 5.367802 3.117479 6 1.591219 6 0 
C 6 -1.591219 5.367802 -3.117479 4.242641 -4.242641 
C 3.117479 -5.367802 1.591219 -6 0 -6 
C -1.591219 -6 -3.117479 -5.367802 -4.242641 -4.242641 
C -5.367802 -3.117479 -6 -1.591219 -6 0 
C -6 1.591219 -5.367802 3.117479 -4.242641 4.242641 
C -3.117479 5.367802 -1.591219 6 0 6 
z
" id="md90a29c460" style="stroke:#000000;stroke-width:1.5;"/>
    </defs>
    <g>
     <use style="fill-opacity:0;stroke:#000000;stroke-width:1.5;" x="145.315819" xlink:href="#md90a29c460" y="275.769812"/>
     <use style="fill-opacity:0;stroke:#000000;stroke-width:1.5;" x="199.303615" xlink:href="#md90a29c460" y="264.182719"/>
     <use style="fill-opacity:0;stroke:#000000;stroke-width:1.5;" x="219.737706" xlink:href="#md90a29c460" y="262.075974"/>
     <use style="fill-opacity:0;stroke:#000000;stroke-width:1.5;" x="219.737706" xlink:href="#md90a29c460" y="262.075974"/>
     <use style="fill-opacity:0;stroke:#000000;stroke-width:1.5;" x="338.688" xlink:href="#md90a29c460" y="262.075974"/>
    </g>
   </g>
   <g id="line2d_45">
    <path style="fill:none;stroke:#000000;stroke-linecap:square;stroke-width:1.5;"/>
    <g/>
   </g>
   <g id="line2d_46">
    <path clip-path="url(#pbaf44ee2c7)" d="M 149.998846 272.609696 
" style="fill:none;stroke:#000000;stroke-linecap:square;stroke-width:1.5;"/>
    <defs>
     <path d="M -12 12 
L 12 -12 
M -12 -12 
L 12 12 
" id="m1e7184823f" style="stroke:#000000;"/>
    </defs>
    <g clip-path="url(#pbaf44ee2c7)">
     <use style="stroke:#000000;" x="149.998846" xlink:href="#m1e7184823f" y="272.609696"/>
    </g>
   </g>
   <g id="line2d_47">
    <defs>
     <path d="M 0 1.5 
C 0.397805 1.5 0.77937 1.341951 1.06066 1.06066 
C 1.341951 0.77937 1.5 0.397805 1.5 0 
C 1.5 -0.397805 1.341951 -0.77937 1.06066 -1.06066 
C 0.77937 -1.341951 0.397805 -1.5 0 -1.5 
C -0.397805 -1.5 -0.77937 -1.341951 -1.06066 -1.06066 
C -1.341951 -0.77937 -1.5 -0.397805 -1.5 0 
C -1.5 0.397805 -1.341951 0.77937 -1.06066 1.06066 
C -0.77937 1.341951 -0.397805 1.5 0 1.5 
z
" id="m6ad222ced9" style="stroke:#ff0000;"/>
    </defs>
    <g>
     <use style="fill:#ff0000;stroke:#ff0000;" x="200.249387" xlink:href="#m6ad222ced9" y="288.410278"/>
     <use style="fill:#ff0000;stroke:#ff0000;" x="200.249387" xlink:href="#m6ad222ced9" y="288.410278"/>
    </g>
   </g>
   <g id="line2d_48">
    <path d="M 135.432042 298.944 
L 135.432042 298.417314 
L 135.492247 298.417314 
L 135.492247 297.890628 
L 135.760625 297.890628 
L 135.760625 297.363942 
L 135.956794 297.363942 
L 135.956794 296.837256 
L 136.757427 296.837256 
L 136.757427 296.31057 
L 140.302652 296.31057 
L 140.302652 295.783884 
L 145.378437 295.783884 
L 145.378437 295.257197 
L 146.921878 295.257197 
L 146.921878 294.730511 
L 148.392421 294.730511 
L 148.392421 294.203825 
L 148.975352 294.203825 
L 148.975352 293.677139 
L 149.619812 293.677139 
L 149.619812 293.150453 
L 160.616125 293.150453 
L 160.616125 292.623767 
L 173.454967 292.623767 
L 173.454967 292.097081 
L 173.457239 292.097081 
L 173.457239 291.043709 
L 177.495501 291.043709 
L 177.495501 290.517023 
L 185.908266 290.517023 
L 185.908266 289.990337 
L 188.001083 289.990337 
L 188.001083 289.463651 
L 195.820394 289.463651 
L 195.820394 288.936964 
L 200.249387 288.936964 
L 200.249387 288.410278 
L 338.688 288.410278 
" style="fill:none;stroke:#ff0000;stroke-linecap:square;stroke-width:1.5;"/>
   </g>
   <g id="line2d_49">
    <defs>
     <path d="M -6 6 
L 6 6 
L 6 -6 
L -6 -6 
z
" id="m858d93a0f9" style="stroke:#ff0000;stroke-linejoin:miter;stroke-width:1.5;"/>
    </defs>
    <g>
     <use style="fill-opacity:0;stroke:#ff0000;stroke-linejoin:miter;stroke-width:1.5;" x="200.249387" xlink:href="#m858d93a0f9" y="288.936964"/>
     <use style="fill-opacity:0;stroke:#ff0000;stroke-linejoin:miter;stroke-width:1.5;" x="200.249387" xlink:href="#m858d93a0f9" y="288.936964"/>
     <use style="fill-opacity:0;stroke:#ff0000;stroke-linejoin:miter;stroke-width:1.5;" x="200.249387" xlink:href="#m858d93a0f9" y="288.410278"/>
     <use style="fill-opacity:0;stroke:#ff0000;stroke-linejoin:miter;stroke-width:1.5;" x="200.249387" xlink:href="#m858d93a0f9" y="288.410278"/>
     <use style="fill-opacity:0;stroke:#ff0000;stroke-linejoin:miter;stroke-width:1.5;" x="338.688" xlink:href="#m858d93a0f9" y="288.410278"/>
    </g>
   </g>
   <g id="line2d_50">
    <path style="fill:none;stroke:#ff0000;stroke-linecap:square;stroke-width:1.5;"/>
    <g/>
   </g>
   <g id="line2d_51">
    <path clip-path="url(#pbaf44ee2c7)" d="M 149.998846 293.150453 
" style="fill:none;stroke:#ff0000;stroke-linecap:square;stroke-width:1.5;"/>
    <defs>
     <path d="M -12 12 
L 12 -12 
M -12 -12 
L 12 12 
" id="m586fcbd0bf" style="stroke:#ff0000;"/>
    </defs>
    <g clip-path="url(#pbaf44ee2c7)">
     <use style="fill:#ff0000;stroke:#ff0000;" x="149.998846" xlink:href="#m586fcbd0bf" y="293.150453"/>
    </g>
   </g>
   <g id="line2d_52">
    <path clip-path="url(#pbaf44ee2c7)" d="M 57.6 298.944 
L 57.6 298.944 
L 57.6 298.944 
L 57.6 298.944 
L 338.688 298.944 
" style="fill:none;stroke:#bf00bf;stroke-linecap:square;stroke-width:1.5;"/>
   </g>
   <g id="line2d_53">
    <defs>
     <path d="M -0 8.485281 
L 8.485281 0 
L 0 -8.485281 
L -8.485281 -0 
z
" id="m8dbdc66818" style="stroke:#bf00bf;stroke-linejoin:miter;stroke-width:1.5;"/>
    </defs>
    <g clip-path="url(#pbaf44ee2c7)">
     <use style="fill-opacity:0;stroke:#bf00bf;stroke-linejoin:miter;stroke-width:1.5;" x="57.6" xlink:href="#m8dbdc66818" y="298.944"/>
    </g>
   </g>
   <g id="line2d_54">
    <path clip-path="url(#pbaf44ee2c7)" style="fill:none;stroke:#bf00bf;stroke-linecap:square;stroke-width:1.5;"/>
    <g clip-path="url(#pbaf44ee2c7)">
     <use style="fill-opacity:0;stroke:#bf00bf;stroke-linejoin:miter;stroke-width:1.5;" x="-1" xlink:href="#m8dbdc66818" y="567.553901"/>
     <use style="fill-opacity:0;stroke:#bf00bf;stroke-linejoin:miter;stroke-width:1.5;" x="338.688" xlink:href="#m8dbdc66818" y="567.553901"/>
    </g>
   </g>
   <g id="line2d_55">
    <path d="M 338.688 298.944 
L 369.60768 293.571802 
" style="fill:none;stroke:#bf00bf;stroke-linecap:square;stroke-width:1.5;"/>
    <g>
     <use style="fill-opacity:0;stroke:#bf00bf;stroke-linejoin:miter;stroke-width:1.5;" x="338.688" xlink:href="#m8dbdc66818" y="298.944"/>
     <use style="fill-opacity:0;stroke:#bf00bf;stroke-linejoin:miter;stroke-width:1.5;" x="369.60768" xlink:href="#m8dbdc66818" y="293.571802"/>
    </g>
   </g>
   <g id="line2d_56">
    <path d="M 338.688 288.410278 
L 369.60768 241.998701 
" style="fill:none;stroke:#ff0000;stroke-linecap:square;stroke-width:1.5;"/>
    <g>
     <use style="fill-opacity:0;stroke:#ff0000;stroke-linejoin:miter;stroke-width:1.5;" x="338.688" xlink:href="#m858d93a0f9" y="288.410278"/>
     <use style="fill-opacity:0;stroke:#ff0000;stroke-linejoin:miter;stroke-width:1.5;" x="369.60768" xlink:href="#m858d93a0f9" y="241.998701"/>
    </g>
   </g>
   <g id="line2d_57">
    <path d="M 338.688 262.075974 
L 369.60768 190.4256 
" style="fill:none;stroke:#000000;stroke-linecap:square;stroke-width:1.5;"/>
    <g>
     <use style="fill-opacity:0;stroke:#000000;stroke-width:1.5;" x="338.688" xlink:href="#md90a29c460" y="262.075974"/>
     <use style="fill-opacity:0;stroke:#000000;stroke-width:1.5;" x="369.60768" xlink:href="#md90a29c460" y="190.4256"/>
    </g>
   </g>
   <g id="line2d_58">
    <path d="M 338.688 30.334099 
L 369.60768 138.852499 
" style="fill:none;stroke:#0000ff;stroke-linecap:square;stroke-width:1.5;"/>
    <g>
     <use style="fill-opacity:0;stroke:#0000ff;stroke-linejoin:bevel;stroke-width:1.5;" x="338.688" xlink:href="#mbc9fde219a" y="30.334099"/>
     <use style="fill-opacity:0;stroke:#0000ff;stroke-linejoin:bevel;stroke-width:1.5;" x="369.60768" xlink:href="#mbc9fde219a" y="138.852499"/>
    </g>
   </g>
   <g id="line2d_59">
    <path d="M 338.688 30.334099 
L 369.60768 87.279398 
" style="fill:none;stroke:#008000;stroke-linecap:square;stroke-width:1.5;"/>
    <g>
     <use style="fill-opacity:0;stroke:#008000;stroke-linejoin:miter;stroke-width:1.5;" x="338.688" xlink:href="#m78614cff04" y="30.334099"/>
     <use style="fill-opacity:0;stroke:#008000;stroke-linejoin:miter;stroke-width:1.5;" x="369.60768" xlink:href="#m78614cff04" y="87.279398"/>
    </g>
   </g>
   <g id="line2d_60">
    <path d="M 338.688 30.334099 
L 369.60768 35.706297 
" style="fill:none;stroke:#00bfbf;stroke-linecap:square;stroke-width:1.5;"/>
    <g>
     <use style="fill-opacity:0;stroke:#00bfbf;stroke-width:1.5;" x="338.688" xlink:href="#m4ebd0858a0" y="30.334099"/>
     <use style="fill-opacity:0;stroke:#00bfbf;stroke-width:1.5;" x="369.60768" xlink:href="#m4ebd0858a0" y="35.706297"/>
    </g>
   </g>
   <g id="line2d_61">
    <path d="M 338.688 298.944 
L 338.688 30.334099 
" style="fill:none;stroke:#000000;stroke-linecap:square;stroke-width:1.5;"/>
   </g>
   <g id="patch_3">
    <path d="M 57.6 298.944 
L 57.6 27.648 
" style="fill:none;stroke:#000000;stroke-linecap:square;stroke-linejoin:miter;stroke-width:0.8;"/>
   </g>
   <g id="patch_4">
    <path d="M 338.688 298.944 
L 338.688 27.648 
" style="fill:none;stroke:#000000;stroke-linecap:square;stroke-linejoin:miter;stroke-width:0.8;"/>
   </g>
   <g id="patch_5">
    <path d="M 57.6 298.944 
L 338.688 298.944 
" style="fill:none;stroke:#000000;stroke-linecap:square;stroke-linejoin:miter;stroke-width:0.8;"/>
   </g>
   <g id="patch_6">
    <path d="M 57.6 27.648 
L 338.688 27.648 
" style="fill:none;stroke:#000000;stroke-linecap:square;stroke-linejoin:miter;stroke-width:0.8;"/>
   </g>
   <g id="text_13">
    <!-- 40-D -->
    <g transform="translate(375.22944 298.262739)scale(0.17 -0.17)">
     <defs>
      <path d="M 19.671875 64.796875 
L 19.671875 8.109375 
L 31.59375 8.109375 
Q 46.6875 8.109375 53.6875 14.9375 
Q 60.6875 21.78125 60.6875 36.53125 
Q 60.6875 51.171875 53.6875 57.984375 
Q 46.6875 64.796875 31.59375 64.796875 
z
M 9.8125 72.90625 
L 30.078125 72.90625 
Q 51.265625 72.90625 61.171875 64.09375 
Q 71.09375 55.28125 71.09375 36.53125 
Q 71.09375 17.671875 61.125 8.828125 
Q 51.171875 0 30.078125 0 
L 9.8125 0 
z
" id="DejaVuSans-68"/>
     </defs>
     <use xlink:href="#DejaVuSans-52"/>
     <use x="63.623047" xlink:href="#DejaVuSans-48"/>
     <use x="127.246094" xlink:href="#DejaVuSans-45"/>
     <use x="163.330078" xlink:href="#DejaVuSans-68"/>
    </g>
   </g>
   <g id="text_14">
    <!-- 20-D -->
    <g transform="translate(375.22944 246.689638)scale(0.17 -0.17)">
     <use xlink:href="#DejaVuSans-50"/>
     <use x="63.623047" xlink:href="#DejaVuSans-48"/>
     <use x="127.246094" xlink:href="#DejaVuSans-45"/>
     <use x="163.330078" xlink:href="#DejaVuSans-68"/>
    </g>
   </g>
   <g id="text_15">
    <!-- 10-D -->
    <g transform="translate(375.22944 195.116537)scale(0.17 -0.17)">
     <use xlink:href="#DejaVuSans-49"/>
     <use x="63.623047" xlink:href="#DejaVuSans-48"/>
     <use x="127.246094" xlink:href="#DejaVuSans-45"/>
     <use x="163.330078" xlink:href="#DejaVuSans-68"/>
    </g>
   </g>
   <g id="text_16">
    <!-- 5-D -->
    <g transform="translate(375.22944 143.543437)scale(0.17 -0.17)">
     <defs>
      <path d="M 10.796875 72.90625 
L 49.515625 72.90625 
L 49.515625 64.59375 
L 19.828125 64.59375 
L 19.828125 46.734375 
Q 21.96875 47.46875 24.109375 47.828125 
Q 26.265625 48.1875 28.421875 48.1875 
Q 40.625 48.1875 47.75 41.5 
Q 54.890625 34.8125 54.890625 23.390625 
Q 54.890625 11.625 47.5625 5.09375 
Q 40.234375 -1.421875 26.90625 -1.421875 
Q 22.3125 -1.421875 17.546875 -0.640625 
Q 12.796875 0.140625 7.71875 1.703125 
L 7.71875 11.625 
Q 12.109375 9.234375 16.796875 8.0625 
Q 21.484375 6.890625 26.703125 6.890625 
Q 35.15625 6.890625 40.078125 11.328125 
Q 45.015625 15.765625 45.015625 23.390625 
Q 45.015625 31 40.078125 35.4375 
Q 35.15625 39.890625 26.703125 39.890625 
Q 22.75 39.890625 18.8125 39.015625 
Q 14.890625 38.140625 10.796875 36.28125 
z
" id="DejaVuSans-53"/>
     </defs>
     <use xlink:href="#DejaVuSans-53"/>
     <use x="63.623047" xlink:href="#DejaVuSans-45"/>
     <use x="99.707031" xlink:href="#DejaVuSans-68"/>
    </g>
   </g>
   <g id="text_17">
    <!-- 3-D -->
    <g transform="translate(375.22944 91.970336)scale(0.17 -0.17)">
     <defs>
      <path d="M 40.578125 39.3125 
Q 47.65625 37.796875 51.625 33 
Q 55.609375 28.21875 55.609375 21.1875 
Q 55.609375 10.40625 48.1875 4.484375 
Q 40.765625 -1.421875 27.09375 -1.421875 
Q 22.515625 -1.421875 17.65625 -0.515625 
Q 12.796875 0.390625 7.625 2.203125 
L 7.625 11.71875 
Q 11.71875 9.328125 16.59375 8.109375 
Q 21.484375 6.890625 26.8125 6.890625 
Q 36.078125 6.890625 40.9375 10.546875 
Q 45.796875 14.203125 45.796875 21.1875 
Q 45.796875 27.640625 41.28125 31.265625 
Q 36.765625 34.90625 28.71875 34.90625 
L 20.21875 34.90625 
L 20.21875 43.015625 
L 29.109375 43.015625 
Q 36.375 43.015625 40.234375 45.921875 
Q 44.09375 48.828125 44.09375 54.296875 
Q 44.09375 59.90625 40.109375 62.90625 
Q 36.140625 65.921875 28.71875 65.921875 
Q 24.65625 65.921875 20.015625 65.03125 
Q 15.375 64.15625 9.8125 62.3125 
L 9.8125 71.09375 
Q 15.4375 72.65625 20.34375 73.4375 
Q 25.25 74.21875 29.59375 74.21875 
Q 40.828125 74.21875 47.359375 69.109375 
Q 53.90625 64.015625 53.90625 55.328125 
Q 53.90625 49.265625 50.4375 45.09375 
Q 46.96875 40.921875 40.578125 39.3125 
z
" id="DejaVuSans-51"/>
     </defs>
     <use xlink:href="#DejaVuSans-51"/>
     <use x="63.623047" xlink:href="#DejaVuSans-45"/>
     <use x="99.707031" xlink:href="#DejaVuSans-68"/>
    </g>
   </g>
   <g id="text_18">
    <!-- 2-D -->
    <g transform="translate(375.22944 40.397235)scale(0.17 -0.17)">
     <use xlink:href="#DejaVuSans-50"/>
     <use x="63.623047" xlink:href="#DejaVuSans-45"/>
     <use x="99.707031" xlink:href="#DejaVuSans-68"/>
    </g>
   </g>
   <g id="text_19">
    <!-- bbob f9 -->
    <g transform="translate(60.41088 38.111366)scale(0.102 -0.102)">
     <defs>
      <path d="M 48.6875 27.296875 
Q 48.6875 37.203125 44.609375 42.84375 
Q 40.53125 48.484375 33.40625 48.484375 
Q 26.265625 48.484375 22.1875 42.84375 
Q 18.109375 37.203125 18.109375 27.296875 
Q 18.109375 17.390625 22.1875 11.75 
Q 26.265625 6.109375 33.40625 6.109375 
Q 40.53125 6.109375 44.609375 11.75 
Q 48.6875 17.390625 48.6875 27.296875 
z
M 18.109375 46.390625 
Q 20.953125 51.265625 25.265625 53.625 
Q 29.59375 56 35.59375 56 
Q 45.5625 56 51.78125 48.09375 
Q 58.015625 40.1875 58.015625 27.296875 
Q 58.015625 14.40625 51.78125 6.484375 
Q 45.5625 -1.421875 35.59375 -1.421875 
Q 29.59375 -1.421875 25.265625 0.953125 
Q 20.953125 3.328125 18.109375 8.203125 
L 18.109375 0 
L 9.078125 0 
L 9.078125 75.984375 
L 18.109375 75.984375 
z
" id="DejaVuSans-98"/>
      <path d="M 10.984375 1.515625 
L 10.984375 10.5 
Q 14.703125 8.734375 18.5 7.8125 
Q 22.3125 6.890625 25.984375 6.890625 
Q 35.75 6.890625 40.890625 13.453125 
Q 46.046875 20.015625 46.78125 33.40625 
Q 43.953125 29.203125 39.59375 26.953125 
Q 35.25 24.703125 29.984375 24.703125 
Q 19.046875 24.703125 12.671875 31.3125 
Q 6.296875 37.9375 6.296875 49.421875 
Q 6.296875 60.640625 12.9375 67.421875 
Q 19.578125 74.21875 30.609375 74.21875 
Q 43.265625 74.21875 49.921875 64.515625 
Q 56.59375 54.828125 56.59375 36.375 
Q 56.59375 19.140625 48.40625 8.859375 
Q 40.234375 -1.421875 26.421875 -1.421875 
Q 22.703125 -1.421875 18.890625 -0.6875 
Q 15.09375 0.046875 10.984375 1.515625 
z
M 30.609375 32.421875 
Q 37.25 32.421875 41.125 36.953125 
Q 45.015625 41.5 45.015625 49.421875 
Q 45.015625 57.28125 41.125 61.84375 
Q 37.25 66.40625 30.609375 66.40625 
Q 23.96875 66.40625 20.09375 61.84375 
Q 16.21875 57.28125 16.21875 49.421875 
Q 16.21875 41.5 20.09375 36.953125 
Q 23.96875 32.421875 30.609375 32.421875 
z
" id="DejaVuSans-57"/>
     </defs>
     <use xlink:href="#DejaVuSans-98"/>
     <use x="63.476562" xlink:href="#DejaVuSans-98"/>
     <use x="126.953125" xlink:href="#DejaVuSans-111"/>
     <use x="188.134766" xlink:href="#DejaVuSans-98"/>
     <use x="251.611328" xlink:href="#DejaVuSans-32"/>
     <use x="283.398438" xlink:href="#DejaVuSans-102"/>
     <use x="318.603516" xlink:href="#DejaVuSans-57"/>
    </g>
    <!-- 51 targets: 100..1e-08 -->
    <g transform="translate(60.41088 49.533135)scale(0.102 -0.102)">
     <defs>
      <path d="M 11.71875 12.40625 
L 22.015625 12.40625 
L 22.015625 0 
L 11.71875 0 
z
M 11.71875 51.703125 
L 22.015625 51.703125 
L 22.015625 39.3125 
L 11.71875 39.3125 
z
" id="DejaVuSans-58"/>
     </defs>
     <use xlink:href="#DejaVuSans-53"/>
     <use x="63.623047" xlink:href="#DejaVuSans-49"/>
     <use x="127.246094" xlink:href="#DejaVuSans-32"/>
     <use x="159.033203" xlink:href="#DejaVuSans-116"/>
     <use x="198.242188" xlink:href="#DejaVuSans-97"/>
     <use x="259.521484" xlink:href="#DejaVuSans-114"/>
     <use x="298.884766" xlink:href="#DejaVuSans-103"/>
     <use x="362.361328" xlink:href="#DejaVuSans-101"/>
     <use x="423.884766" xlink:href="#DejaVuSans-116"/>
     <use x="463.09375" xlink:href="#DejaVuSans-115"/>
     <use x="515.193359" xlink:href="#DejaVuSans-58"/>
     <use x="548.884766" xlink:href="#DejaVuSans-32"/>
     <use x="580.671875" xlink:href="#DejaVuSans-49"/>
     <use x="644.294922" xlink:href="#DejaVuSans-48"/>
     <use x="707.917969" xlink:href="#DejaVuSans-48"/>
     <use x="771.541016" xlink:href="#DejaVuSans-46"/>
     <use x="803.328125" xlink:href="#DejaVuSans-46"/>
     <use x="835.115234" xlink:href="#DejaVuSans-49"/>
     <use x="898.738281" xlink:href="#DejaVuSans-101"/>
     <use x="960.261719" xlink:href="#DejaVuSans-45"/>
     <use x="996.345703" xlink:href="#DejaVuSans-48"/>
     <use x="1059.96875" xlink:href="#DejaVuSans-56"/>
    </g>
    <!-- 15 instances -->
    <g transform="translate(60.41088 60.954904)scale(0.102 -0.102)">
     <use xlink:href="#DejaVuSans-49"/>
     <use x="63.623047" xlink:href="#DejaVuSans-53"/>
     <use x="127.246094" xlink:href="#DejaVuSans-32"/>
     <use x="159.033203" xlink:href="#DejaVuSans-105"/>
     <use x="186.816406" xlink:href="#DejaVuSans-110"/>
     <use x="250.195312" xlink:href="#DejaVuSans-115"/>
     <use x="302.294922" xlink:href="#DejaVuSans-116"/>
     <use x="341.503906" xlink:href="#DejaVuSans-97"/>
     <use x="402.783203" xlink:href="#DejaVuSans-110"/>
     <use x="466.162109" xlink:href="#DejaVuSans-99"/>
     <use x="521.142578" xlink:href="#DejaVuSans-101"/>
     <use x="582.666016" xlink:href="#DejaVuSans-115"/>
    </g>
   </g>
   <g id="text_20">
    <!-- v2.4 -->
    <g style="fill:#808080;" transform="translate(187.233062 294.151352)scale(0.1 -0.1)">
     <use xlink:href="#DejaVuSans-118"/>
     <use x="59.179688" xlink:href="#DejaVuSans-50"/>
     <use x="122.802734" xlink:href="#DejaVuSans-46"/>
     <use x="154.589844" xlink:href="#DejaVuSans-52"/>
    </g>
   </g>
   <g id="text_21">
    <!-- 9 Rosenbrock rotated -->
    <g transform="translate(90.990875 21.648)scale(0.2 -0.2)">
     <defs>
      <path d="M 44.390625 34.1875 
Q 47.5625 33.109375 50.5625 29.59375 
Q 53.5625 26.078125 56.59375 19.921875 
L 66.609375 0 
L 56 0 
L 46.6875 18.703125 
Q 43.0625 26.03125 39.671875 28.421875 
Q 36.28125 30.8125 30.421875 30.8125 
L 19.671875 30.8125 
L 19.671875 0 
L 9.8125 0 
L 9.8125 72.90625 
L 32.078125 72.90625 
Q 44.578125 72.90625 50.734375 67.671875 
Q 56.890625 62.453125 56.890625 51.90625 
Q 56.890625 45.015625 53.6875 40.46875 
Q 50.484375 35.9375 44.390625 34.1875 
z
M 19.671875 64.796875 
L 19.671875 38.921875 
L 32.078125 38.921875 
Q 39.203125 38.921875 42.84375 42.21875 
Q 46.484375 45.515625 46.484375 51.90625 
Q 46.484375 58.296875 42.84375 61.546875 
Q 39.203125 64.796875 32.078125 64.796875 
z
" id="DejaVuSans-82"/>
      <path d="M 9.078125 75.984375 
L 18.109375 75.984375 
L 18.109375 31.109375 
L 44.921875 54.6875 
L 56.390625 54.6875 
L 27.390625 29.109375 
L 57.625 0 
L 45.90625 0 
L 18.109375 26.703125 
L 18.109375 0 
L 9.078125 0 
z
" id="DejaVuSans-107"/>
     </defs>
     <use xlink:href="#DejaVuSans-57"/>
     <use x="63.623047" xlink:href="#DejaVuSans-32"/>
     <use x="95.410156" xlink:href="#DejaVuSans-82"/>
     <use x="160.392578" xlink:href="#DejaVuSans-111"/>
     <use x="221.574219" xlink:href="#DejaVuSans-115"/>
     <use x="273.673828" xlink:href="#DejaVuSans-101"/>
     <use x="335.197266" xlink:href="#DejaVuSans-110"/>
     <use x="398.576172" xlink:href="#DejaVuSans-98"/>
     <use x="462.052734" xlink:href="#DejaVuSans-114"/>
     <use x="500.916016" xlink:href="#DejaVuSans-111"/>
     <use x="562.097656" xlink:href="#DejaVuSans-99"/>
     <use x="617.078125" xlink:href="#DejaVuSans-107"/>
     <use x="674.988281" xlink:href="#DejaVuSans-32"/>
     <use x="706.775391" xlink:href="#DejaVuSans-114"/>
     <use x="745.638672" xlink:href="#DejaVuSans-111"/>
     <use x="806.820312" xlink:href="#DejaVuSans-116"/>
     <use x="846.029297" xlink:href="#DejaVuSans-97"/>
     <use x="907.308594" xlink:href="#DejaVuSans-116"/>
     <use x="946.517578" xlink:href="#DejaVuSans-101"/>
     <use x="1008.041016" xlink:href="#DejaVuSans-100"/>
    </g>
   </g>
  </g>
 </g>
 <defs>
  <clipPath id="pbaf44ee2c7">
   <rect height="271.296" width="281.088" x="57.6" y="27.648"/>
  </clipPath>
 </defs>
</svg>
