<?xml version="1.0" encoding="utf-8" standalone="no"?>
<!DOCTYPE svg PUBLIC "-//W3C//DTD SVG 1.1//EN"
  "http://www.w3.org/Graphics/SVG/1.1/DTD/svg11.dtd">
<!-- Created with matplotlib (https://matplotlib.org/) -->
<svg height="345.6pt" version="1.1" viewBox="0 0 460.8 345.6" width="460.8pt" xmlns="http://www.w3.org/2000/svg" xmlns:xlink="http://www.w3.org/1999/xlink">
 <metadata>
  <rdf:RDF xmlns:cc="http://creativecommons.org/ns#" xmlns:dc="http://purl.org/dc/elements/1.1/" xmlns:rdf="http://www.w3.org/1999/02/22-rdf-syntax-ns#">
   <cc:Work>
    <dc:type rdf:resource="http://purl.org/dc/dcmitype/StillImage"/>
    <dc:date>2021-08-04T15:02:11.611042</dc:date>
    <dc:format>image/svg+xml</dc:format>
    <dc:creator>
     <cc:Agent>
      <dc:title>Matplotlib v3.3.1, https://matplotlib.org/</dc:title>
     </cc:Agent>
    </dc:creator>
   </cc:Work>
  </rdf:RDF>
 </metadata>
 <defs>
  <style type="text/css">*{stroke-linecap:butt;stroke-linejoin:round;}</style>
 </defs>
 <g id="figure_1">
  <g id="patch_1">
   <path d="M 0 345.6 
L 460.8 345.6 
L 460.8 0 
L 0 0 
z
" style="fill:#ffffff;"/>
  </g>
  <g id="axes_1">
   <g id="patch_2">
    <path d="M 57.6 298.944 
L 338.688 298.944 
L 338.688 3.456 
L 57.6 3.456 
z
" style="fill:#ffffff;"/>
   </g>
   <g id="matplotlib.axis_1">
    <g id="xtick_1">
     <g id="line2d_1">
      <path clip-path="url(#p1a95192354)" d="M 57.6 298.944 
L 57.6 3.456 
" style="fill:none;stroke:#b0b0b0;stroke-linecap:square;stroke-width:0.8;"/>
     </g>
     <g id="line2d_2">
      <defs>
       <path d="M 0 0 
L 0 3.5 
" id="m6b404bdf20" style="stroke:#000000;stroke-width:0.8;"/>
      </defs>
      <g>
       <use style="stroke:#000000;stroke-width:0.8;" x="57.6" xlink:href="#m6b404bdf20" y="298.944"/>
      </g>
     </g>
     <g id="text_1">
      <!-- 0 -->
      <g transform="translate(51.2375 321.140875)scale(0.2 -0.2)">
       <defs>
        <path d="M 31.78125 66.40625 
Q 24.171875 66.40625 20.328125 58.90625 
Q 16.5 51.421875 16.5 36.375 
Q 16.5 21.390625 20.328125 13.890625 
Q 24.171875 6.390625 31.78125 6.390625 
Q 39.453125 6.390625 43.28125 13.890625 
Q 47.125 21.390625 47.125 36.375 
Q 47.125 51.421875 43.28125 58.90625 
Q 39.453125 66.40625 31.78125 66.40625 
z
M 31.78125 74.21875 
Q 44.046875 74.21875 50.515625 64.515625 
Q 56.984375 54.828125 56.984375 36.375 
Q 56.984375 17.96875 50.515625 8.265625 
Q 44.046875 -1.421875 31.78125 -1.421875 
Q 19.53125 -1.421875 13.0625 8.265625 
Q 6.59375 17.96875 6.59375 36.375 
Q 6.59375 54.828125 13.0625 64.515625 
Q 19.53125 74.21875 31.78125 74.21875 
z
" id="DejaVuSans-48"/>
       </defs>
       <use xlink:href="#DejaVuSans-48"/>
      </g>
     </g>
    </g>
    <g id="xtick_2">
     <g id="line2d_3">
      <path clip-path="url(#p1a95192354)" d="M 137.910857 298.944 
L 137.910857 3.456 
" style="fill:none;stroke:#b0b0b0;stroke-linecap:square;stroke-width:0.8;"/>
     </g>
     <g id="line2d_4">
      <g>
       <use style="stroke:#000000;stroke-width:0.8;" x="137.910857" xlink:href="#m6b404bdf20" y="298.944"/>
      </g>
     </g>
     <g id="text_2">
      <!-- 2 -->
      <g transform="translate(131.548357 321.140875)scale(0.2 -0.2)">
       <defs>
        <path d="M 19.1875 8.296875 
L 53.609375 8.296875 
L 53.609375 0 
L 7.328125 0 
L 7.328125 8.296875 
Q 12.9375 14.109375 22.625 23.890625 
Q 32.328125 33.6875 34.8125 36.53125 
Q 39.546875 41.84375 41.421875 45.53125 
Q 43.3125 49.21875 43.3125 52.78125 
Q 43.3125 58.59375 39.234375 62.25 
Q 35.15625 65.921875 28.609375 65.921875 
Q 23.96875 65.921875 18.8125 64.3125 
Q 13.671875 62.703125 7.8125 59.421875 
L 7.8125 69.390625 
Q 13.765625 71.78125 18.9375 73 
Q 24.125 74.21875 28.421875 74.21875 
Q 39.75 74.21875 46.484375 68.546875 
Q 53.21875 62.890625 53.21875 53.421875 
Q 53.21875 48.921875 51.53125 44.890625 
Q 49.859375 40.875 45.40625 35.40625 
Q 44.1875 33.984375 37.640625 27.21875 
Q 31.109375 20.453125 19.1875 8.296875 
z
" id="DejaVuSans-50"/>
       </defs>
       <use xlink:href="#DejaVuSans-50"/>
      </g>
     </g>
    </g>
    <g id="xtick_3">
     <g id="line2d_5">
      <path clip-path="url(#p1a95192354)" d="M 218.221714 298.944 
L 218.221714 3.456 
" style="fill:none;stroke:#b0b0b0;stroke-linecap:square;stroke-width:0.8;"/>
     </g>
     <g id="line2d_6">
      <g>
       <use style="stroke:#000000;stroke-width:0.8;" x="218.221714" xlink:href="#m6b404bdf20" y="298.944"/>
      </g>
     </g>
     <g id="text_3">
      <!-- 4 -->
      <g transform="translate(211.859214 321.140875)scale(0.2 -0.2)">
       <defs>
        <path d="M 37.796875 64.3125 
L 12.890625 25.390625 
L 37.796875 25.390625 
z
M 35.203125 72.90625 
L 47.609375 72.90625 
L 47.609375 25.390625 
L 58.015625 25.390625 
L 58.015625 17.1875 
L 47.609375 17.1875 
L 47.609375 0 
L 37.796875 0 
L 37.796875 17.1875 
L 4.890625 17.1875 
L 4.890625 26.703125 
z
" id="DejaVuSans-52"/>
       </defs>
       <use xlink:href="#DejaVuSans-52"/>
      </g>
     </g>
    </g>
    <g id="xtick_4">
     <g id="line2d_7">
      <path clip-path="url(#p1a95192354)" d="M 298.532571 298.944 
L 298.532571 3.456 
" style="fill:none;stroke:#b0b0b0;stroke-linecap:square;stroke-width:0.8;"/>
     </g>
     <g id="line2d_8">
      <g>
       <use style="stroke:#000000;stroke-width:0.8;" x="298.532571" xlink:href="#m6b404bdf20" y="298.944"/>
      </g>
     </g>
     <g id="text_4">
      <!-- 6 -->
      <g transform="translate(292.170071 321.140875)scale(0.2 -0.2)">
       <defs>
        <path d="M 33.015625 40.375 
Q 26.375 40.375 22.484375 35.828125 
Q 18.609375 31.296875 18.609375 23.390625 
Q 18.609375 15.53125 22.484375 10.953125 
Q 26.375 6.390625 33.015625 6.390625 
Q 39.65625 6.390625 43.53125 10.953125 
Q 47.40625 15.53125 47.40625 23.390625 
Q 47.40625 31.296875 43.53125 35.828125 
Q 39.65625 40.375 33.015625 40.375 
z
M 52.59375 71.296875 
L 52.59375 62.3125 
Q 48.875 64.0625 45.09375 64.984375 
Q 41.3125 65.921875 37.59375 65.921875 
Q 27.828125 65.921875 22.671875 59.328125 
Q 17.53125 52.734375 16.796875 39.40625 
Q 19.671875 43.65625 24.015625 45.921875 
Q 28.375 48.1875 33.59375 48.1875 
Q 44.578125 48.1875 50.953125 41.515625 
Q 57.328125 34.859375 57.328125 23.390625 
Q 57.328125 12.15625 50.6875 5.359375 
Q 44.046875 -1.421875 33.015625 -1.421875 
Q 20.359375 -1.421875 13.671875 8.265625 
Q 6.984375 17.96875 6.984375 36.375 
Q 6.984375 53.65625 15.1875 63.9375 
Q 23.390625 74.21875 37.203125 74.21875 
Q 40.921875 74.21875 44.703125 73.484375 
Q 48.484375 72.75 52.59375 71.296875 
z
" id="DejaVuSans-54"/>
       </defs>
       <use xlink:href="#DejaVuSans-54"/>
      </g>
     </g>
    </g>
    <g id="xtick_5">
     <g id="line2d_9">
      <path clip-path="url(#p1a95192354)" d="M 97.755429 298.944 
L 97.755429 3.456 
" style="fill:none;stroke:#b0b0b0;stroke-linecap:square;stroke-width:0.8;"/>
     </g>
     <g id="line2d_10">
      <defs>
       <path d="M 0 0 
L 0 2 
" id="mec1f28f139" style="stroke:#000000;stroke-width:0.6;"/>
      </defs>
      <g>
       <use style="stroke:#000000;stroke-width:0.6;" x="97.755429" xlink:href="#mec1f28f139" y="298.944"/>
      </g>
     </g>
    </g>
    <g id="xtick_6">
     <g id="line2d_11">
      <path clip-path="url(#p1a95192354)" d="M 178.066286 298.944 
L 178.066286 3.456 
" style="fill:none;stroke:#b0b0b0;stroke-linecap:square;stroke-width:0.8;"/>
     </g>
     <g id="line2d_12">
      <g>
       <use style="stroke:#000000;stroke-width:0.6;" x="178.066286" xlink:href="#mec1f28f139" y="298.944"/>
      </g>
     </g>
    </g>
    <g id="xtick_7">
     <g id="line2d_13">
      <path clip-path="url(#p1a95192354)" d="M 258.377143 298.944 
L 258.377143 3.456 
" style="fill:none;stroke:#b0b0b0;stroke-linecap:square;stroke-width:0.8;"/>
     </g>
     <g id="line2d_14">
      <g>
       <use style="stroke:#000000;stroke-width:0.6;" x="258.377143" xlink:href="#mec1f28f139" y="298.944"/>
      </g>
     </g>
    </g>
    <g id="xtick_8">
     <g id="line2d_15">
      <path clip-path="url(#p1a95192354)" d="M 338.688 298.944 
L 338.688 3.456 
" style="fill:none;stroke:#b0b0b0;stroke-linecap:square;stroke-width:0.8;"/>
     </g>
     <g id="line2d_16">
      <g>
       <use style="stroke:#000000;stroke-width:0.6;" x="338.688" xlink:href="#mec1f28f139" y="298.944"/>
      </g>
     </g>
    </g>
    <g id="text_5">
     <!-- log10(# f-evals / dimension) -->
     <g transform="translate(77.764078 342.217594)scale(0.17 -0.17)">
      <defs>
       <path d="M 9.421875 75.984375 
L 18.40625 75.984375 
L 18.40625 0 
L 9.421875 0 
z
" id="DejaVuSans-108"/>
       <path d="M 30.609375 48.390625 
Q 23.390625 48.390625 19.1875 42.75 
Q 14.984375 37.109375 14.984375 27.296875 
Q 14.984375 17.484375 19.15625 11.84375 
Q 23.34375 6.203125 30.609375 6.203125 
Q 37.796875 6.203125 41.984375 11.859375 
Q 46.1875 17.53125 46.1875 27.296875 
Q 46.1875 37.015625 41.984375 42.703125 
Q 37.796875 48.390625 30.609375 48.390625 
z
M 30.609375 56 
Q 42.328125 56 49.015625 48.375 
Q 55.71875 40.765625 55.71875 27.296875 
Q 55.71875 13.875 49.015625 6.21875 
Q 42.328125 -1.421875 30.609375 -1.421875 
Q 18.84375 -1.421875 12.171875 6.21875 
Q 5.515625 13.875 5.515625 27.296875 
Q 5.515625 40.765625 12.171875 48.375 
Q 18.84375 56 30.609375 56 
z
" id="DejaVuSans-111"/>
       <path d="M 45.40625 27.984375 
Q 45.40625 37.75 41.375 43.109375 
Q 37.359375 48.484375 30.078125 48.484375 
Q 22.859375 48.484375 18.828125 43.109375 
Q 14.796875 37.75 14.796875 27.984375 
Q 14.796875 18.265625 18.828125 12.890625 
Q 22.859375 7.515625 30.078125 7.515625 
Q 37.359375 7.515625 41.375 12.890625 
Q 45.40625 18.265625 45.40625 27.984375 
z
M 54.390625 6.78125 
Q 54.390625 -7.171875 48.1875 -13.984375 
Q 42 -20.796875 29.203125 -20.796875 
Q 24.46875 -20.796875 20.265625 -20.09375 
Q 16.0625 -19.390625 12.109375 -17.921875 
L 12.109375 -9.1875 
Q 16.0625 -11.328125 19.921875 -12.34375 
Q 23.78125 -13.375 27.78125 -13.375 
Q 36.625 -13.375 41.015625 -8.765625 
Q 45.40625 -4.15625 45.40625 5.171875 
L 45.40625 9.625 
Q 42.625 4.78125 38.28125 2.390625 
Q 33.9375 0 27.875 0 
Q 17.828125 0 11.671875 7.65625 
Q 5.515625 15.328125 5.515625 27.984375 
Q 5.515625 40.671875 11.671875 48.328125 
Q 17.828125 56 27.875 56 
Q 33.9375 56 38.28125 53.609375 
Q 42.625 51.21875 45.40625 46.390625 
L 45.40625 54.6875 
L 54.390625 54.6875 
z
" id="DejaVuSans-103"/>
       <path d="M 12.40625 8.296875 
L 28.515625 8.296875 
L 28.515625 63.921875 
L 10.984375 60.40625 
L 10.984375 69.390625 
L 28.421875 72.90625 
L 38.28125 72.90625 
L 38.28125 8.296875 
L 54.390625 8.296875 
L 54.390625 0 
L 12.40625 0 
z
" id="DejaVuSans-49"/>
       <path d="M 31 75.875 
Q 24.46875 64.65625 21.28125 53.65625 
Q 18.109375 42.671875 18.109375 31.390625 
Q 18.109375 20.125 21.3125 9.0625 
Q 24.515625 -2 31 -13.1875 
L 23.1875 -13.1875 
Q 15.875 -1.703125 12.234375 9.375 
Q 8.59375 20.453125 8.59375 31.390625 
Q 8.59375 42.28125 12.203125 53.3125 
Q 15.828125 64.359375 23.1875 75.875 
z
" id="DejaVuSans-40"/>
       <path d="M 51.125 44 
L 36.921875 44 
L 32.8125 27.6875 
L 47.125 27.6875 
z
M 43.796875 71.78125 
L 38.71875 51.515625 
L 52.984375 51.515625 
L 58.109375 71.78125 
L 65.921875 71.78125 
L 60.890625 51.515625 
L 76.125 51.515625 
L 76.125 44 
L 58.984375 44 
L 54.984375 27.6875 
L 70.515625 27.6875 
L 70.515625 20.21875 
L 53.078125 20.21875 
L 48 0 
L 40.1875 0 
L 45.21875 20.21875 
L 30.90625 20.21875 
L 25.875 0 
L 18.015625 0 
L 23.09375 20.21875 
L 7.71875 20.21875 
L 7.71875 27.6875 
L 24.90625 27.6875 
L 29 44 
L 13.28125 44 
L 13.28125 51.515625 
L 30.90625 51.515625 
L 35.890625 71.78125 
z
" id="DejaVuSans-35"/>
       <path id="DejaVuSans-32"/>
       <path d="M 37.109375 75.984375 
L 37.109375 68.5 
L 28.515625 68.5 
Q 23.6875 68.5 21.796875 66.546875 
Q 19.921875 64.59375 19.921875 59.515625 
L 19.921875 54.6875 
L 34.71875 54.6875 
L 34.71875 47.703125 
L 19.921875 47.703125 
L 19.921875 0 
L 10.890625 0 
L 10.890625 47.703125 
L 2.296875 47.703125 
L 2.296875 54.6875 
L 10.890625 54.6875 
L 10.890625 58.5 
Q 10.890625 67.625 15.140625 71.796875 
Q 19.390625 75.984375 28.609375 75.984375 
z
" id="DejaVuSans-102"/>
       <path d="M 4.890625 31.390625 
L 31.203125 31.390625 
L 31.203125 23.390625 
L 4.890625 23.390625 
z
" id="DejaVuSans-45"/>
       <path d="M 56.203125 29.59375 
L 56.203125 25.203125 
L 14.890625 25.203125 
Q 15.484375 15.921875 20.484375 11.0625 
Q 25.484375 6.203125 34.421875 6.203125 
Q 39.59375 6.203125 44.453125 7.46875 
Q 49.3125 8.734375 54.109375 11.28125 
L 54.109375 2.78125 
Q 49.265625 0.734375 44.1875 -0.34375 
Q 39.109375 -1.421875 33.890625 -1.421875 
Q 20.796875 -1.421875 13.15625 6.1875 
Q 5.515625 13.8125 5.515625 26.8125 
Q 5.515625 40.234375 12.765625 48.109375 
Q 20.015625 56 32.328125 56 
Q 43.359375 56 49.78125 48.890625 
Q 56.203125 41.796875 56.203125 29.59375 
z
M 47.21875 32.234375 
Q 47.125 39.59375 43.09375 43.984375 
Q 39.0625 48.390625 32.421875 48.390625 
Q 24.90625 48.390625 20.390625 44.140625 
Q 15.875 39.890625 15.1875 32.171875 
z
" id="DejaVuSans-101"/>
       <path d="M 2.984375 54.6875 
L 12.5 54.6875 
L 29.59375 8.796875 
L 46.6875 54.6875 
L 56.203125 54.6875 
L 35.6875 0 
L 23.484375 0 
z
" id="DejaVuSans-118"/>
       <path d="M 34.28125 27.484375 
Q 23.390625 27.484375 19.1875 25 
Q 14.984375 22.515625 14.984375 16.5 
Q 14.984375 11.71875 18.140625 8.90625 
Q 21.296875 6.109375 26.703125 6.109375 
Q 34.1875 6.109375 38.703125 11.40625 
Q 43.21875 16.703125 43.21875 25.484375 
L 43.21875 27.484375 
z
M 52.203125 31.203125 
L 52.203125 0 
L 43.21875 0 
L 43.21875 8.296875 
Q 40.140625 3.328125 35.546875 0.953125 
Q 30.953125 -1.421875 24.3125 -1.421875 
Q 15.921875 -1.421875 10.953125 3.296875 
Q 6 8.015625 6 15.921875 
Q 6 25.140625 12.171875 29.828125 
Q 18.359375 34.515625 30.609375 34.515625 
L 43.21875 34.515625 
L 43.21875 35.40625 
Q 43.21875 41.609375 39.140625 45 
Q 35.0625 48.390625 27.6875 48.390625 
Q 23 48.390625 18.546875 47.265625 
Q 14.109375 46.140625 10.015625 43.890625 
L 10.015625 52.203125 
Q 14.9375 54.109375 19.578125 55.046875 
Q 24.21875 56 28.609375 56 
Q 40.484375 56 46.34375 49.84375 
Q 52.203125 43.703125 52.203125 31.203125 
z
" id="DejaVuSans-97"/>
       <path d="M 44.28125 53.078125 
L 44.28125 44.578125 
Q 40.484375 46.53125 36.375 47.5 
Q 32.28125 48.484375 27.875 48.484375 
Q 21.1875 48.484375 17.84375 46.4375 
Q 14.5 44.390625 14.5 40.28125 
Q 14.5 37.15625 16.890625 35.375 
Q 19.28125 33.59375 26.515625 31.984375 
L 29.59375 31.296875 
Q 39.15625 29.25 43.1875 25.515625 
Q 47.21875 21.78125 47.21875 15.09375 
Q 47.21875 7.46875 41.1875 3.015625 
Q 35.15625 -1.421875 24.609375 -1.421875 
Q 20.21875 -1.421875 15.453125 -0.5625 
Q 10.6875 0.296875 5.421875 2 
L 5.421875 11.28125 
Q 10.40625 8.6875 15.234375 7.390625 
Q 20.0625 6.109375 24.8125 6.109375 
Q 31.15625 6.109375 34.5625 8.28125 
Q 37.984375 10.453125 37.984375 14.40625 
Q 37.984375 18.0625 35.515625 20.015625 
Q 33.0625 21.96875 24.703125 23.78125 
L 21.578125 24.515625 
Q 13.234375 26.265625 9.515625 29.90625 
Q 5.8125 33.546875 5.8125 39.890625 
Q 5.8125 47.609375 11.28125 51.796875 
Q 16.75 56 26.8125 56 
Q 31.78125 56 36.171875 55.265625 
Q 40.578125 54.546875 44.28125 53.078125 
z
" id="DejaVuSans-115"/>
       <path d="M 25.390625 72.90625 
L 33.6875 72.90625 
L 8.296875 -9.28125 
L 0 -9.28125 
z
" id="DejaVuSans-47"/>
       <path d="M 45.40625 46.390625 
L 45.40625 75.984375 
L 54.390625 75.984375 
L 54.390625 0 
L 45.40625 0 
L 45.40625 8.203125 
Q 42.578125 3.328125 38.25 0.953125 
Q 33.9375 -1.421875 27.875 -1.421875 
Q 17.96875 -1.421875 11.734375 6.484375 
Q 5.515625 14.40625 5.515625 27.296875 
Q 5.515625 40.1875 11.734375 48.09375 
Q 17.96875 56 27.875 56 
Q 33.9375 56 38.25 53.625 
Q 42.578125 51.265625 45.40625 46.390625 
z
M 14.796875 27.296875 
Q 14.796875 17.390625 18.875 11.75 
Q 22.953125 6.109375 30.078125 6.109375 
Q 37.203125 6.109375 41.296875 11.75 
Q 45.40625 17.390625 45.40625 27.296875 
Q 45.40625 37.203125 41.296875 42.84375 
Q 37.203125 48.484375 30.078125 48.484375 
Q 22.953125 48.484375 18.875 42.84375 
Q 14.796875 37.203125 14.796875 27.296875 
z
" id="DejaVuSans-100"/>
       <path d="M 9.421875 54.6875 
L 18.40625 54.6875 
L 18.40625 0 
L 9.421875 0 
z
M 9.421875 75.984375 
L 18.40625 75.984375 
L 18.40625 64.59375 
L 9.421875 64.59375 
z
" id="DejaVuSans-105"/>
       <path d="M 52 44.1875 
Q 55.375 50.25 60.0625 53.125 
Q 64.75 56 71.09375 56 
Q 79.640625 56 84.28125 50.015625 
Q 88.921875 44.046875 88.921875 33.015625 
L 88.921875 0 
L 79.890625 0 
L 79.890625 32.71875 
Q 79.890625 40.578125 77.09375 44.375 
Q 74.3125 48.1875 68.609375 48.1875 
Q 61.625 48.1875 57.5625 43.546875 
Q 53.515625 38.921875 53.515625 30.90625 
L 53.515625 0 
L 44.484375 0 
L 44.484375 32.71875 
Q 44.484375 40.625 41.703125 44.40625 
Q 38.921875 48.1875 33.109375 48.1875 
Q 26.21875 48.1875 22.15625 43.53125 
Q 18.109375 38.875 18.109375 30.90625 
L 18.109375 0 
L 9.078125 0 
L 9.078125 54.6875 
L 18.109375 54.6875 
L 18.109375 46.1875 
Q 21.1875 51.21875 25.484375 53.609375 
Q 29.78125 56 35.6875 56 
Q 41.65625 56 45.828125 52.96875 
Q 50 49.953125 52 44.1875 
z
" id="DejaVuSans-109"/>
       <path d="M 54.890625 33.015625 
L 54.890625 0 
L 45.90625 0 
L 45.90625 32.71875 
Q 45.90625 40.484375 42.875 44.328125 
Q 39.84375 48.1875 33.796875 48.1875 
Q 26.515625 48.1875 22.3125 43.546875 
Q 18.109375 38.921875 18.109375 30.90625 
L 18.109375 0 
L 9.078125 0 
L 9.078125 54.6875 
L 18.109375 54.6875 
L 18.109375 46.1875 
Q 21.34375 51.125 25.703125 53.5625 
Q 30.078125 56 35.796875 56 
Q 45.21875 56 50.046875 50.171875 
Q 54.890625 44.34375 54.890625 33.015625 
z
" id="DejaVuSans-110"/>
       <path d="M 8.015625 75.875 
L 15.828125 75.875 
Q 23.140625 64.359375 26.78125 53.3125 
Q 30.421875 42.28125 30.421875 31.390625 
Q 30.421875 20.453125 26.78125 9.375 
Q 23.140625 -1.703125 15.828125 -13.1875 
L 8.015625 -13.1875 
Q 14.5 -2 17.703125 9.0625 
Q 20.90625 20.125 20.90625 31.390625 
Q 20.90625 42.671875 17.703125 53.65625 
Q 14.5 64.65625 8.015625 75.875 
z
" id="DejaVuSans-41"/>
      </defs>
      <use xlink:href="#DejaVuSans-108"/>
      <use x="27.783203" xlink:href="#DejaVuSans-111"/>
      <use x="88.964844" xlink:href="#DejaVuSans-103"/>
      <use x="152.441406" xlink:href="#DejaVuSans-49"/>
      <use x="216.064453" xlink:href="#DejaVuSans-48"/>
      <use x="279.6875" xlink:href="#DejaVuSans-40"/>
      <use x="318.701172" xlink:href="#DejaVuSans-35"/>
      <use x="402.490234" xlink:href="#DejaVuSans-32"/>
      <use x="434.277344" xlink:href="#DejaVuSans-102"/>
      <use x="463.982422" xlink:href="#DejaVuSans-45"/>
      <use x="500.066406" xlink:href="#DejaVuSans-101"/>
      <use x="561.589844" xlink:href="#DejaVuSans-118"/>
      <use x="620.769531" xlink:href="#DejaVuSans-97"/>
      <use x="682.048828" xlink:href="#DejaVuSans-108"/>
      <use x="709.832031" xlink:href="#DejaVuSans-115"/>
      <use x="761.931641" xlink:href="#DejaVuSans-32"/>
      <use x="793.71875" xlink:href="#DejaVuSans-47"/>
      <use x="827.410156" xlink:href="#DejaVuSans-32"/>
      <use x="859.197266" xlink:href="#DejaVuSans-100"/>
      <use x="922.673828" xlink:href="#DejaVuSans-105"/>
      <use x="950.457031" xlink:href="#DejaVuSans-109"/>
      <use x="1047.869141" xlink:href="#DejaVuSans-101"/>
      <use x="1109.392578" xlink:href="#DejaVuSans-110"/>
      <use x="1172.771484" xlink:href="#DejaVuSans-115"/>
      <use x="1224.871094" xlink:href="#DejaVuSans-105"/>
      <use x="1252.654297" xlink:href="#DejaVuSans-111"/>
      <use x="1313.835938" xlink:href="#DejaVuSans-110"/>
      <use x="1377.214844" xlink:href="#DejaVuSans-41"/>
     </g>
    </g>
   </g>
   <g id="matplotlib.axis_2">
    <g id="ytick_1">
     <g id="line2d_17">
      <path clip-path="url(#p1a95192354)" d="M 57.6 298.944 
L 338.688 298.944 
" style="fill:none;stroke:#b0b0b0;stroke-linecap:square;stroke-width:0.8;"/>
     </g>
     <g id="line2d_18">
      <defs>
       <path d="M 0 0 
L -3.5 0 
" id="mdf52fad3b4" style="stroke:#000000;stroke-width:0.8;"/>
      </defs>
      <g>
       <use style="stroke:#000000;stroke-width:0.8;" x="57.6" xlink:href="#mdf52fad3b4" y="298.944"/>
      </g>
     </g>
     <g id="text_6">
      <!-- 0.0 -->
      <g transform="translate(25.155 305.02275)scale(0.16 -0.16)">
       <defs>
        <path d="M 10.6875 12.40625 
L 21 12.40625 
L 21 0 
L 10.6875 0 
z
" id="DejaVuSans-46"/>
       </defs>
       <use xlink:href="#DejaVuSans-48"/>
       <use x="63.623047" xlink:href="#DejaVuSans-46"/>
       <use x="95.410156" xlink:href="#DejaVuSans-48"/>
      </g>
     </g>
    </g>
    <g id="ytick_2">
     <g id="line2d_19">
      <path clip-path="url(#p1a95192354)" d="M 57.6 240.431525 
L 338.688 240.431525 
" style="fill:none;stroke:#b0b0b0;stroke-linecap:square;stroke-width:0.8;"/>
     </g>
     <g id="line2d_20">
      <g>
       <use style="stroke:#000000;stroke-width:0.8;" x="57.6" xlink:href="#mdf52fad3b4" y="240.431525"/>
      </g>
     </g>
     <g id="text_7">
      <!-- 0.2 -->
      <g transform="translate(25.155 246.510275)scale(0.16 -0.16)">
       <use xlink:href="#DejaVuSans-48"/>
       <use x="63.623047" xlink:href="#DejaVuSans-46"/>
       <use x="95.410156" xlink:href="#DejaVuSans-50"/>
      </g>
     </g>
    </g>
    <g id="ytick_3">
     <g id="line2d_21">
      <path clip-path="url(#p1a95192354)" d="M 57.6 181.91905 
L 338.688 181.91905 
" style="fill:none;stroke:#b0b0b0;stroke-linecap:square;stroke-width:0.8;"/>
     </g>
     <g id="line2d_22">
      <g>
       <use style="stroke:#000000;stroke-width:0.8;" x="57.6" xlink:href="#mdf52fad3b4" y="181.91905"/>
      </g>
     </g>
     <g id="text_8">
      <!-- 0.4 -->
      <g transform="translate(25.155 187.9978)scale(0.16 -0.16)">
       <use xlink:href="#DejaVuSans-48"/>
       <use x="63.623047" xlink:href="#DejaVuSans-46"/>
       <use x="95.410156" xlink:href="#DejaVuSans-52"/>
      </g>
     </g>
    </g>
    <g id="ytick_4">
     <g id="line2d_23">
      <path clip-path="url(#p1a95192354)" d="M 57.6 123.406574 
L 338.688 123.406574 
" style="fill:none;stroke:#b0b0b0;stroke-linecap:square;stroke-width:0.8;"/>
     </g>
     <g id="line2d_24">
      <g>
       <use style="stroke:#000000;stroke-width:0.8;" x="57.6" xlink:href="#mdf52fad3b4" y="123.406574"/>
      </g>
     </g>
     <g id="text_9">
      <!-- 0.6 -->
      <g transform="translate(25.155 129.485324)scale(0.16 -0.16)">
       <use xlink:href="#DejaVuSans-48"/>
       <use x="63.623047" xlink:href="#DejaVuSans-46"/>
       <use x="95.410156" xlink:href="#DejaVuSans-54"/>
      </g>
     </g>
    </g>
    <g id="ytick_5">
     <g id="line2d_25">
      <path clip-path="url(#p1a95192354)" d="M 57.6 64.894099 
L 338.688 64.894099 
" style="fill:none;stroke:#b0b0b0;stroke-linecap:square;stroke-width:0.8;"/>
     </g>
     <g id="line2d_26">
      <g>
       <use style="stroke:#000000;stroke-width:0.8;" x="57.6" xlink:href="#mdf52fad3b4" y="64.894099"/>
      </g>
     </g>
     <g id="text_10">
      <!-- 0.8 -->
      <g transform="translate(25.155 70.972849)scale(0.16 -0.16)">
       <defs>
        <path d="M 31.78125 34.625 
Q 24.75 34.625 20.71875 30.859375 
Q 16.703125 27.09375 16.703125 20.515625 
Q 16.703125 13.921875 20.71875 10.15625 
Q 24.75 6.390625 31.78125 6.390625 
Q 38.8125 6.390625 42.859375 10.171875 
Q 46.921875 13.96875 46.921875 20.515625 
Q 46.921875 27.09375 42.890625 30.859375 
Q 38.875 34.625 31.78125 34.625 
z
M 21.921875 38.8125 
Q 15.578125 40.375 12.03125 44.71875 
Q 8.5 49.078125 8.5 55.328125 
Q 8.5 64.0625 14.71875 69.140625 
Q 20.953125 74.21875 31.78125 74.21875 
Q 42.671875 74.21875 48.875 69.140625 
Q 55.078125 64.0625 55.078125 55.328125 
Q 55.078125 49.078125 51.53125 44.71875 
Q 48 40.375 41.703125 38.8125 
Q 48.828125 37.15625 52.796875 32.3125 
Q 56.78125 27.484375 56.78125 20.515625 
Q 56.78125 9.90625 50.3125 4.234375 
Q 43.84375 -1.421875 31.78125 -1.421875 
Q 19.734375 -1.421875 13.25 4.234375 
Q 6.78125 9.90625 6.78125 20.515625 
Q 6.78125 27.484375 10.78125 32.3125 
Q 14.796875 37.15625 21.921875 38.8125 
z
M 18.3125 54.390625 
Q 18.3125 48.734375 21.84375 45.5625 
Q 25.390625 42.390625 31.78125 42.390625 
Q 38.140625 42.390625 41.71875 45.5625 
Q 45.3125 48.734375 45.3125 54.390625 
Q 45.3125 60.0625 41.71875 63.234375 
Q 38.140625 66.40625 31.78125 66.40625 
Q 25.390625 66.40625 21.84375 63.234375 
Q 18.3125 60.0625 18.3125 54.390625 
z
" id="DejaVuSans-56"/>
       </defs>
       <use xlink:href="#DejaVuSans-48"/>
       <use x="63.623047" xlink:href="#DejaVuSans-46"/>
       <use x="95.410156" xlink:href="#DejaVuSans-56"/>
      </g>
     </g>
    </g>
    <g id="ytick_6">
     <g id="line2d_27">
      <path clip-path="url(#p1a95192354)" d="M 57.6 6.381624 
L 338.688 6.381624 
" style="fill:none;stroke:#b0b0b0;stroke-linecap:square;stroke-width:0.8;"/>
     </g>
     <g id="line2d_28">
      <g>
       <use style="stroke:#000000;stroke-width:0.8;" x="57.6" xlink:href="#mdf52fad3b4" y="6.381624"/>
      </g>
     </g>
     <g id="text_11">
      <!-- 1.0 -->
      <g transform="translate(25.155 12.460374)scale(0.16 -0.16)">
       <use xlink:href="#DejaVuSans-49"/>
       <use x="63.623047" xlink:href="#DejaVuSans-46"/>
       <use x="95.410156" xlink:href="#DejaVuSans-48"/>
      </g>
     </g>
    </g>
    <g id="text_12">
     <!-- Fraction of function,target pairs -->
     <g transform="translate(17.619531 285.585)rotate(-90)scale(0.17 -0.17)">
      <defs>
       <path d="M 9.8125 72.90625 
L 51.703125 72.90625 
L 51.703125 64.59375 
L 19.671875 64.59375 
L 19.671875 43.109375 
L 48.578125 43.109375 
L 48.578125 34.8125 
L 19.671875 34.8125 
L 19.671875 0 
L 9.8125 0 
z
" id="DejaVuSans-70"/>
       <path d="M 41.109375 46.296875 
Q 39.59375 47.171875 37.8125 47.578125 
Q 36.03125 48 33.890625 48 
Q 26.265625 48 22.1875 43.046875 
Q 18.109375 38.09375 18.109375 28.8125 
L 18.109375 0 
L 9.078125 0 
L 9.078125 54.6875 
L 18.109375 54.6875 
L 18.109375 46.1875 
Q 20.953125 51.171875 25.484375 53.578125 
Q 30.03125 56 36.53125 56 
Q 37.453125 56 38.578125 55.875 
Q 39.703125 55.765625 41.0625 55.515625 
z
" id="DejaVuSans-114"/>
       <path d="M 48.78125 52.59375 
L 48.78125 44.1875 
Q 44.96875 46.296875 41.140625 47.34375 
Q 37.3125 48.390625 33.40625 48.390625 
Q 24.65625 48.390625 19.8125 42.84375 
Q 14.984375 37.3125 14.984375 27.296875 
Q 14.984375 17.28125 19.8125 11.734375 
Q 24.65625 6.203125 33.40625 6.203125 
Q 37.3125 6.203125 41.140625 7.25 
Q 44.96875 8.296875 48.78125 10.40625 
L 48.78125 2.09375 
Q 45.015625 0.34375 40.984375 -0.53125 
Q 36.96875 -1.421875 32.421875 -1.421875 
Q 20.0625 -1.421875 12.78125 6.34375 
Q 5.515625 14.109375 5.515625 27.296875 
Q 5.515625 40.671875 12.859375 48.328125 
Q 20.21875 56 33.015625 56 
Q 37.15625 56 41.109375 55.140625 
Q 45.0625 54.296875 48.78125 52.59375 
z
" id="DejaVuSans-99"/>
       <path d="M 18.3125 70.21875 
L 18.3125 54.6875 
L 36.8125 54.6875 
L 36.8125 47.703125 
L 18.3125 47.703125 
L 18.3125 18.015625 
Q 18.3125 11.328125 20.140625 9.421875 
Q 21.96875 7.515625 27.59375 7.515625 
L 36.8125 7.515625 
L 36.8125 0 
L 27.59375 0 
Q 17.1875 0 13.234375 3.875 
Q 9.28125 7.765625 9.28125 18.015625 
L 9.28125 47.703125 
L 2.6875 47.703125 
L 2.6875 54.6875 
L 9.28125 54.6875 
L 9.28125 70.21875 
z
" id="DejaVuSans-116"/>
       <path d="M 8.5 21.578125 
L 8.5 54.6875 
L 17.484375 54.6875 
L 17.484375 21.921875 
Q 17.484375 14.15625 20.5 10.265625 
Q 23.53125 6.390625 29.59375 6.390625 
Q 36.859375 6.390625 41.078125 11.03125 
Q 45.3125 15.671875 45.3125 23.6875 
L 45.3125 54.6875 
L 54.296875 54.6875 
L 54.296875 0 
L 45.3125 0 
L 45.3125 8.40625 
Q 42.046875 3.421875 37.71875 1 
Q 33.40625 -1.421875 27.6875 -1.421875 
Q 18.265625 -1.421875 13.375 4.4375 
Q 8.5 10.296875 8.5 21.578125 
z
M 31.109375 56 
z
" id="DejaVuSans-117"/>
       <path d="M 11.71875 12.40625 
L 22.015625 12.40625 
L 22.015625 4 
L 14.015625 -11.625 
L 7.71875 -11.625 
L 11.71875 4 
z
" id="DejaVuSans-44"/>
       <path d="M 18.109375 8.203125 
L 18.109375 -20.796875 
L 9.078125 -20.796875 
L 9.078125 54.6875 
L 18.109375 54.6875 
L 18.109375 46.390625 
Q 20.953125 51.265625 25.265625 53.625 
Q 29.59375 56 35.59375 56 
Q 45.5625 56 51.78125 48.09375 
Q 58.015625 40.1875 58.015625 27.296875 
Q 58.015625 14.40625 51.78125 6.484375 
Q 45.5625 -1.421875 35.59375 -1.421875 
Q 29.59375 -1.421875 25.265625 0.953125 
Q 20.953125 3.328125 18.109375 8.203125 
z
M 48.6875 27.296875 
Q 48.6875 37.203125 44.609375 42.84375 
Q 40.53125 48.484375 33.40625 48.484375 
Q 26.265625 48.484375 22.1875 42.84375 
Q 18.109375 37.203125 18.109375 27.296875 
Q 18.109375 17.390625 22.1875 11.75 
Q 26.265625 6.109375 33.40625 6.109375 
Q 40.53125 6.109375 44.609375 11.75 
Q 48.6875 17.390625 48.6875 27.296875 
z
" id="DejaVuSans-112"/>
      </defs>
      <use xlink:href="#DejaVuSans-70"/>
      <use x="50.269531" xlink:href="#DejaVuSans-114"/>
      <use x="91.382812" xlink:href="#DejaVuSans-97"/>
      <use x="152.662109" xlink:href="#DejaVuSans-99"/>
      <use x="207.642578" xlink:href="#DejaVuSans-116"/>
      <use x="246.851562" xlink:href="#DejaVuSans-105"/>
      <use x="274.634766" xlink:href="#DejaVuSans-111"/>
      <use x="335.816406" xlink:href="#DejaVuSans-110"/>
      <use x="399.195312" xlink:href="#DejaVuSans-32"/>
      <use x="430.982422" xlink:href="#DejaVuSans-111"/>
      <use x="492.164062" xlink:href="#DejaVuSans-102"/>
      <use x="527.369141" xlink:href="#DejaVuSans-32"/>
      <use x="559.15625" xlink:href="#DejaVuSans-102"/>
      <use x="594.361328" xlink:href="#DejaVuSans-117"/>
      <use x="657.740234" xlink:href="#DejaVuSans-110"/>
      <use x="721.119141" xlink:href="#DejaVuSans-99"/>
      <use x="776.099609" xlink:href="#DejaVuSans-116"/>
      <use x="815.308594" xlink:href="#DejaVuSans-105"/>
      <use x="843.091797" xlink:href="#DejaVuSans-111"/>
      <use x="904.273438" xlink:href="#DejaVuSans-110"/>
      <use x="967.652344" xlink:href="#DejaVuSans-44"/>
      <use x="999.439453" xlink:href="#DejaVuSans-116"/>
      <use x="1038.648438" xlink:href="#DejaVuSans-97"/>
      <use x="1099.927734" xlink:href="#DejaVuSans-114"/>
      <use x="1139.291016" xlink:href="#DejaVuSans-103"/>
      <use x="1202.767578" xlink:href="#DejaVuSans-101"/>
      <use x="1264.291016" xlink:href="#DejaVuSans-116"/>
      <use x="1303.5" xlink:href="#DejaVuSans-32"/>
      <use x="1335.287109" xlink:href="#DejaVuSans-112"/>
      <use x="1398.763672" xlink:href="#DejaVuSans-97"/>
      <use x="1460.042969" xlink:href="#DejaVuSans-105"/>
      <use x="1487.826172" xlink:href="#DejaVuSans-114"/>
      <use x="1528.939453" xlink:href="#DejaVuSans-115"/>
     </g>
    </g>
   </g>
   <g id="line2d_29">
    <defs>
     <path d="M 0 1.5 
C 0.397805 1.5 0.77937 1.341951 1.06066 1.06066 
C 1.341951 0.77937 1.5 0.397805 1.5 0 
C 1.5 -0.397805 1.341951 -0.77937 1.06066 -1.06066 
C 0.77937 -1.341951 0.397805 -1.5 0 -1.5 
C -0.397805 -1.5 -0.77937 -1.341951 -1.06066 -1.06066 
C -1.341951 -0.77937 -1.5 -0.397805 -1.5 0 
C -1.5 0.397805 -1.341951 0.77937 -1.06066 1.06066 
C -0.77937 1.341951 -0.397805 1.5 0 1.5 
z
" id="m7a80ea8292" style="stroke:#00bfbf;"/>
    </defs>
    <g>
     <use style="fill:#00bfbf;stroke:#00bfbf;" x="196.640088" xlink:href="#m7a80ea8292" y="246.168042"/>
     <use style="fill:#00bfbf;stroke:#00bfbf;" x="196.640088" xlink:href="#m7a80ea8292" y="246.168042"/>
    </g>
   </g>
   <g id="line2d_30">
    <path d="M 45.512012 298.944 
L 45.512012 273.588594 
L 76.759008 273.588594 
L 76.759008 273.244403 
L 79.447285 273.244403 
L 79.447285 272.670751 
L 81.775977 272.670751 
L 81.775977 272.21183 
L 83.830028 272.21183 
L 83.830028 270.605605 
L 85.66744 270.605605 
L 85.66744 269.687762 
L 87.329581 269.687762 
L 87.329581 267.737347 
L 91.535274 267.737347 
L 91.535274 267.622616 
L 94.921215 267.622616 
L 94.921215 267.278425 
L 95.918017 267.278425 
L 95.918017 267.163695 
L 96.86091 267.163695 
L 96.86091 266.704773 
L 97.755429 266.704773 
L 97.755429 266.245852 
L 98.606294 266.245852 
L 98.606294 265.786931 
L 99.41757 265.786931 
L 99.41757 264.754358 
L 100.192776 264.754358 
L 100.192776 264.065976 
L 101.646892 264.065976 
L 101.646892 263.951245 
L 102.330873 263.951245 
L 102.330873 263.607054 
L 103.623262 263.607054 
L 103.623262 263.492324 
L 108.006005 263.492324 
L 108.006005 263.377593 
L 111.104637 263.377593 
L 111.104637 263.262863 
L 111.505558 263.262863 
L 111.505558 263.148133 
L 111.897469 263.148133 
L 111.897469 263.033402 
L 113.382559 263.033402 
L 113.382559 262.918672 
L 113.73488 262.918672 
L 113.73488 262.689211 
L 114.080224 262.689211 
L 114.080224 262.574481 
L 114.751048 262.574481 
L 114.751048 262.459751 
L 115.077025 262.459751 
L 115.077025 261.886099 
L 115.711251 261.886099 
L 115.711251 261.771369 
L 116.621333 261.771369 
L 116.621333 261.656638 
L 116.914437 261.656638 
L 116.914437 261.312447 
L 117.486268 261.312447 
L 117.486268 261.197717 
L 118.576578 261.197717 
L 118.576578 260.853526 
L 118.838828 260.853526 
L 118.838828 260.738796 
L 119.097192 260.738796 
L 119.097192 260.624065 
L 119.351785 260.624065 
L 119.351785 260.509335 
L 119.602714 260.509335 
L 119.602714 260.279874 
L 120.8059 260.279874 
L 120.8059 260.165144 
L 121.264855 260.165144 
L 121.264855 260.050414 
L 121.489881 260.050414 
L 121.489881 259.935683 
L 122.362027 259.935683 
L 122.362027 259.820953 
L 122.573415 259.820953 
L 122.573415 259.706222 
L 122.782271 259.706222 
L 122.782271 259.591492 
L 122.988655 259.591492 
L 122.988655 259.476762 
L 123.985457 259.476762 
L 123.985457 259.132571 
L 124.92835 259.132571 
L 124.92835 258.90311 
L 125.110962 258.90311 
L 125.110962 258.78838 
L 125.822869 258.78838 
L 125.822869 258.558919 
L 126.673734 258.558919 
L 126.673734 258.214728 
L 126.839037 258.214728 
L 126.839037 258.099998 
L 127.48501 258.099998 
L 127.48501 257.985267 
L 127.799239 257.985267 
L 127.799239 257.755807 
L 129.574256 257.755807 
L 129.574256 257.641076 
L 129.853291 257.641076 
L 129.853291 257.526346 
L 130.263646 257.526346 
L 130.263646 257.411616 
L 130.926816 257.411616 
L 130.926816 257.296885 
L 131.690703 257.296885 
L 131.690703 257.182155 
L 131.814826 257.182155 
L 131.814826 257.067425 
L 132.422528 257.067425 
L 132.422528 256.837964 
L 132.541568 256.837964 
L 132.541568 256.723234 
L 132.893889 256.723234 
L 132.893889 256.608503 
L 133.239232 256.608503 
L 133.239232 256.379043 
L 133.800029 256.379043 
L 133.800029 256.264312 
L 134.343353 256.264312 
L 134.343353 256.149582 
L 135.97629 256.149582 
L 135.97629 256.034851 
L 136.361705 256.034851 
L 136.361705 255.920121 
L 136.831795 255.920121 
L 136.924311 255.69066 
L 137.289545 255.69066 
L 137.289545 255.57593 
L 137.735587 255.57593 
L 137.823442 255.346469 
L 138.084384 255.346469 
L 138.084384 255.117009 
L 138.426341 255.117009 
L 138.510793 254.772818 
L 138.84457 254.772818 
L 138.84457 254.658087 
L 139.8092 254.658087 
L 139.8092 254.543357 
L 140.423864 254.543357 
L 140.423864 254.428627 
L 140.79731 254.428627 
L 140.79731 254.313896 
L 141.090414 254.313896 
L 141.090414 254.199166 
L 141.45 254.199166 
L 141.521035 253.969705 
L 141.591783 253.969705 
L 141.591783 253.740245 
L 141.80232 253.740245 
L 141.80232 253.625514 
L 142.07914 253.625514 
L 142.07914 253.510784 
L 142.215919 253.510784 
L 142.215919 253.396054 
L 142.818488 253.396054 
L 142.818488 253.281323 
L 143.273169 253.281323 
L 143.273169 253.166593 
L 143.464461 253.166593 
L 143.527762 252.937132 
L 144.330419 252.937132 
L 144.390658 252.707672 
L 145.097753 252.707672 
L 145.097753 252.592941 
L 146.538004 252.592941 
L 146.644018 252.36348 
L 148.209809 252.36348 
L 148.306159 252.13402 
L 148.54473 252.13402 
L 148.54473 252.019289 
L 149.058374 252.019289 
L 149.058374 251.904559 
L 149.195872 251.904559 
L 149.241465 251.675098 
L 149.512548 251.675098 
L 149.512548 251.560368 
L 149.690956 251.560368 
L 149.690956 251.445638 
L 149.955193 251.445638 
L 149.955193 251.330907 
L 150.258492 251.330907 
L 150.258492 251.216177 
L 151.581536 251.216177 
L 151.581536 251.101447 
L 152.587184 251.101447 
L 152.587184 250.986716 
L 153.430889 250.986716 
L 153.430889 250.871986 
L 154.77436 250.871986 
L 154.77436 250.757256 
L 155.264719 250.757256 
L 155.329071 250.527795 
L 155.488919 250.527795 
L 155.488919 250.413065 
L 156.297301 250.413065 
L 156.297301 250.298334 
L 156.835778 250.298334 
L 156.835778 250.183604 
L 158.705563 250.183604 
L 158.784773 249.839413 
L 159.582872 249.839413 
L 159.582872 249.724683 
L 159.956318 249.724683 
L 159.956318 249.609952 
L 161.911563 249.609952 
L 161.911563 249.495222 
L 162.324991 249.495222 
L 162.324991 249.380492 
L 163.164589 249.380492 
L 163.164589 249.265761 
L 164.429145 249.265761 
L 164.429145 249.151031 
L 164.787563 249.151031 
L 164.787563 249.036301 
L 165.138764 249.036301 
L 165.138764 248.92157 
L 165.643763 248.92157 
L 165.643763 248.80684 
L 165.855793 248.80684 
L 165.855793 248.692109 
L 166.220754 248.692109 
L 166.220754 248.577379 
L 166.779265 248.577379 
L 166.779265 248.462649 
L 167.907893 248.462649 
L 167.907893 248.347918 
L 168.701418 248.347918 
L 168.701418 248.233188 
L 170.337772 248.233188 
L 170.337772 248.118458 
L 171.211906 248.118458 
L 171.211906 248.003727 
L 171.506517 248.003727 
L 171.506517 247.888997 
L 171.994974 247.888997 
L 171.994974 247.774267 
L 172.932666 247.774267 
L 172.932666 247.659536 
L 173.280304 247.659536 
L 173.280304 247.544806 
L 176.734949 247.544806 
L 176.734949 247.430076 
L 178.040107 247.430076 
L 178.040107 247.315345 
L 179.295031 247.315345 
L 179.295031 247.200615 
L 180.967511 247.200615 
L 180.967511 247.085885 
L 181.347276 247.085885 
L 181.347276 246.971154 
L 182.117457 246.971154 
L 182.117457 246.856424 
L 183.299894 246.856424 
L 183.299894 246.741694 
L 189.223003 246.741694 
L 189.223003 246.626963 
L 190.297558 246.626963 
L 190.297558 246.512233 
L 193.355617 246.512233 
L 193.355617 246.397503 
L 194.959602 246.397503 
L 194.959602 246.282772 
L 196.640088 246.282772 
L 196.640088 246.168042 
L 338.688 246.168042 
L 338.688 246.168042 
" style="fill:none;stroke:#00bfbf;stroke-linecap:square;stroke-width:1.5;"/>
   </g>
   <g id="line2d_31">
    <defs>
     <path d="M -6 0 
L 6 0 
M 0 6 
L 0 -6 
" id="mc33ac05b28" style="stroke:#00bfbf;stroke-width:1.5;"/>
    </defs>
    <g>
     <use style="fill-opacity:0;stroke:#00bfbf;stroke-width:1.5;" x="115.711251" xlink:href="#mc33ac05b28" y="261.886099"/>
     <use style="fill-opacity:0;stroke:#00bfbf;stroke-width:1.5;" x="162.324991" xlink:href="#mc33ac05b28" y="249.495222"/>
     <use style="fill-opacity:0;stroke:#00bfbf;stroke-width:1.5;" x="196.640088" xlink:href="#mc33ac05b28" y="246.168042"/>
     <use style="fill-opacity:0;stroke:#00bfbf;stroke-width:1.5;" x="196.640088" xlink:href="#mc33ac05b28" y="246.168042"/>
     <use style="fill-opacity:0;stroke:#00bfbf;stroke-width:1.5;" x="338.688" xlink:href="#mc33ac05b28" y="246.168042"/>
    </g>
   </g>
   <g id="line2d_32">
    <path style="fill:none;stroke:#00bfbf;stroke-linecap:square;stroke-width:1.5;"/>
    <g/>
   </g>
   <g id="line2d_33">
    <path clip-path="url(#p1a95192354)" d="M 116.914437 261.312447 
" style="fill:none;stroke:#00bfbf;stroke-linecap:square;stroke-width:1.5;"/>
    <defs>
     <path d="M -12 12 
L 12 -12 
M -12 -12 
L 12 12 
" id="m9b67fd7859" style="stroke:#00bfbf;"/>
    </defs>
    <g clip-path="url(#p1a95192354)">
     <use style="fill:#00bfbf;stroke:#00bfbf;" x="116.914437" xlink:href="#m9b67fd7859" y="261.312447"/>
    </g>
   </g>
   <g id="line2d_34">
    <defs>
     <path d="M 0 1.5 
C 0.397805 1.5 0.77937 1.341951 1.06066 1.06066 
C 1.341951 0.77937 1.5 0.397805 1.5 0 
C 1.5 -0.397805 1.341951 -0.77937 1.06066 -1.06066 
C 0.77937 -1.341951 0.397805 -1.5 0 -1.5 
C -0.397805 -1.5 -0.77937 -1.341951 -1.06066 -1.06066 
C -1.341951 -0.77937 -1.5 -0.397805 -1.5 0 
C -1.5 0.397805 -1.341951 0.77937 -1.06066 1.06066 
C -0.77937 1.341951 -0.397805 1.5 0 1.5 
z
" id="m5be2867f24" style="stroke:#008000;"/>
    </defs>
    <g>
     <use style="fill:#008000;stroke:#008000;" x="196.896684" xlink:href="#m5be2867f24" y="240.431525"/>
     <use style="fill:#008000;stroke:#008000;" x="196.896684" xlink:href="#m5be2867f24" y="240.431525"/>
    </g>
   </g>
   <g id="line2d_35">
    <path d="M 38.440992 298.944 
L 38.440992 272.21183 
L 50.52898 272.21183 
L 50.52898 272.0971 
L 69.687988 272.0971 
L 69.687988 271.982369 
L 78.59642 271.982369 
L 78.59642 271.867639 
L 80.258561 271.867639 
L 80.258561 271.408718 
L 81.775977 271.408718 
L 81.775977 271.064526 
L 83.171864 271.064526 
L 83.171864 270.605605 
L 84.464254 270.605605 
L 84.464254 270.146684 
L 85.66744 270.146684 
L 85.66744 269.573032 
L 86.792945 269.573032 
L 86.792945 268.99938 
L 87.850195 268.99938 
L 87.850195 268.655189 
L 88.846997 268.655189 
L 88.846997 268.081538 
L 89.78989 268.081538 
L 89.78989 267.737347 
L 90.684409 267.737347 
L 90.684409 267.507886 
L 92.34655 267.507886 
L 92.34655 267.163695 
L 93.121756 267.163695 
L 93.121756 266.590043 
L 93.863965 266.590043 
L 93.863965 266.245852 
L 94.575872 266.245852 
L 94.575872 266.016391 
L 95.259853 266.016391 
L 95.259853 265.55747 
L 95.918017 265.55747 
L 95.918017 265.328009 
L 96.552242 265.328009 
L 96.552242 265.098549 
L 97.16421 265.098549 
L 97.16421 264.639627 
L 97.755429 264.639627 
L 97.755429 264.524897 
L 98.32726 264.524897 
L 98.32726 264.410167 
L 98.880934 264.410167 
L 98.880934 264.295436 
L 99.938184 264.295436 
L 99.938184 264.065976 
L 100.934985 264.065976 
L 100.934985 263.836515 
L 101.877879 263.836515 
L 101.877879 263.607054 
L 103.203018 263.607054 
L 103.203018 263.262863 
L 104.826449 263.262863 
L 104.826449 263.033402 
L 105.209745 263.033402 
L 105.209745 262.803942 
L 105.584798 262.803942 
L 105.584798 262.689211 
L 107.680028 262.689211 
L 107.680028 262.574481 
L 108.006005 262.574481 
L 108.006005 262.459751 
L 109.843417 262.459751 
L 109.843417 262.34502 
L 110.131676 262.34502 
L 110.131676 262.23029 
L 110.694282 262.23029 
L 110.694282 262.11556 
L 110.968922 262.11556 
L 110.968922 262.000829 
L 111.767808 262.000829 
L 111.767808 261.771369 
L 112.026172 261.771369 
L 112.026172 261.541908 
L 112.280765 261.541908 
L 112.280765 261.427178 
L 112.779064 261.427178 
L 112.779064 261.312447 
L 113.965867 261.312447 
L 113.965867 261.197717 
L 114.418861 261.197717 
L 114.418861 261.082987 
L 115.077025 261.082987 
L 115.077025 260.968256 
L 115.291007 260.968256 
L 115.291007 260.853526 
L 117.107138 260.853526 
L 117.107138 260.394605 
L 117.857331 260.394605 
L 117.857331 259.820953 
L 118.576578 259.820953 
L 118.576578 259.591492 
L 120.571812 259.591492 
L 120.571812 259.476762 
L 120.883236 259.476762 
L 120.883236 259.362031 
L 121.189196 259.362031 
L 121.189196 259.247301 
L 121.638301 259.247301 
L 121.638301 259.132571 
L 123.056911 259.132571 
L 123.056911 258.90311 
L 123.725164 258.90311 
L 123.725164 258.78838 
L 124.241922 258.78838 
L 124.241922 258.673649 
L 124.494669 258.673649 
L 124.494669 258.329458 
L 124.743806 258.329458 
L 124.743806 258.099998 
L 124.989434 258.099998 
L 124.989434 257.870537 
L 125.470548 257.870537 
L 125.470548 257.641076 
L 125.706218 257.641076 
L 125.706218 257.526346 
L 125.938745 257.526346 
L 125.938745 257.411616 
L 126.053856 257.411616 
L 126.053856 257.182155 
L 126.839037 257.182155 
L 126.839037 257.067425 
L 127.05703 257.067425 
L 127.05703 256.952694 
L 127.590383 256.952694 
L 127.590383 256.837964 
L 128.209594 256.837964 
L 128.209594 256.723234 
L 128.411207 256.723234 
L 128.411207 256.608503 
L 128.610515 256.608503 
L 128.610515 256.264312 
L 128.905271 256.264312 
L 128.905271 256.034851 
L 129.290685 256.034851 
L 129.290685 255.920121 
L 130.30865 255.920121 
L 130.30865 255.805391 
L 130.664567 255.805391 
L 130.664567 255.69066 
L 132.101058 255.69066 
L 132.101058 255.4612 
L 133.652238 255.4612 
L 133.652238 255.346469 
L 134.091907 255.346469 
L 134.091907 255.231739 
L 134.939326 255.231739 
L 134.939326 255.117009 
L 135.813153 255.117009 
L 135.813153 255.002278 
L 136.073445 255.002278 
L 136.073445 254.887548 
L 136.645276 254.887548 
L 136.645276 254.772818 
L 137.016339 254.772818 
L 137.016339 254.658087 
L 137.138292 254.658087 
L 137.138292 254.543357 
L 137.499118 254.543357 
L 137.499118 254.428627 
L 138.761723 254.428627 
L 138.761723 254.313896 
L 139.145019 254.313896 
L 139.145019 254.199166 
L 139.360321 254.199166 
L 139.360321 254.084436 
L 139.520072 254.084436 
L 139.520072 253.969705 
L 139.887228 253.969705 
L 139.887228 253.625514 
L 140.042245 253.625514 
L 140.042245 253.510784 
L 140.195896 253.510784 
L 140.195896 253.396054 
L 140.39868 253.396054 
L 140.39868 253.281323 
L 140.698504 253.281323 
L 140.698504 253.166593 
L 141.283115 253.166593 
L 141.378673 252.937132 
L 141.615302 252.937132 
L 141.709062 252.707672 
L 142.170445 252.707672 
L 142.261275 252.478211 
L 142.396639 252.478211 
L 142.396639 252.36348 
L 142.708461 252.36348 
L 142.708461 252.13402 
L 143.101352 252.13402 
L 143.101352 252.019289 
L 143.778691 252.019289 
L 143.778691 251.904559 
L 144.350522 251.904559 
L 144.390658 251.560368 
L 144.747789 251.560368 
L 144.747789 251.445638 
L 144.865226 251.445638 
L 144.865226 251.330907 
L 145.440832 251.330907 
L 145.440832 251.216177 
L 145.591172 251.216177 
L 145.591172 251.101447 
L 145.998045 251.101447 
L 145.998045 250.871986 
L 146.179895 250.871986 
L 146.179895 250.757256 
L 146.502522 250.757256 
L 146.502522 250.642525 
L 147.570215 250.642525 
L 147.570215 250.527795 
L 147.70334 250.527795 
L 147.769524 250.298334 
L 147.86833 250.298334 
L 147.901141 250.068874 
L 148.417899 250.068874 
L 148.513109 249.839413 
L 148.576295 249.839413 
L 148.576295 249.724683 
L 149.043029 249.724683 
L 149.043029 249.609952 
L 150.486088 249.609952 
L 150.486088 249.495222 
L 150.766468 249.495222 
L 150.87737 249.265761 
L 151.233007 249.265761 
L 151.287083 249.036301 
L 151.501723 249.036301 
L 151.501723 248.92157 
L 151.818809 248.92157 
L 151.923236 248.692109 
L 152.207228 248.692109 
L 152.207228 248.577379 
L 152.486669 248.577379 
L 152.536999 248.347918 
L 153.081247 248.347918 
L 153.081247 248.233188 
L 153.561699 248.233188 
L 153.561699 248.118458 
L 154.075343 248.118458 
L 154.075343 248.003727 
L 154.417077 248.003727 
L 154.484627 247.774267 
L 154.596634 247.774267 
L 154.596634 247.659536 
L 155.102793 247.659536 
L 155.102793 247.544806 
L 155.531298 247.544806 
L 155.531298 247.430076 
L 155.970177 247.430076 
L 155.970177 247.315345 
L 156.357959 247.315345 
L 156.357959 247.200615 
L 156.638275 247.200615 
L 156.717545 246.856424 
L 156.796456 246.856424 
L 156.796456 246.741694 
L 157.089232 246.741694 
L 157.089232 246.626963 
L 157.28172 246.626963 
L 157.28172 246.512233 
L 157.772468 246.512233 
L 157.772468 246.397503 
L 158.140788 246.397503 
L 158.140788 246.282772 
L 158.376091 246.282772 
L 158.376091 246.168042 
L 158.889829 246.168042 
L 158.994256 245.938581 
L 159.235515 245.938581 
L 159.235515 245.823851 
L 159.507213 245.823851 
L 159.507213 245.709121 
L 159.791329 245.709121 
L 159.791329 245.59439 
L 160.103486 245.59439 
L 160.103486 245.47966 
L 161.084903 245.47966 
L 161.146363 245.250199 
L 161.238149 245.250199 
L 161.329454 245.020738 
L 161.480575 245.020738 
L 161.495615 244.791278 
L 162.616422 244.791278 
L 162.700806 244.561817 
L 162.756836 244.561817 
L 162.756836 244.447087 
L 163.266752 244.447087 
L 163.266752 244.332356 
L 163.696049 244.332356 
L 163.696049 244.217626 
L 164.153799 244.217626 
L 164.153799 244.102896 
L 165.290595 244.102896 
L 165.290595 243.988165 
L 166.917519 243.988165 
L 167.00543 243.758705 
L 168.089095 243.758705 
L 168.089095 243.643974 
L 168.334579 243.643974 
L 168.334579 243.529244 
L 169.616809 243.529244 
L 169.616809 243.414514 
L 170.137423 243.414514 
L 170.137423 243.299783 
L 170.535846 243.299783 
L 170.553741 243.070323 
L 171.978498 243.070323 
L 172.027878 242.840862 
L 173.591119 242.840862 
L 173.591119 242.726132 
L 174.13117 242.726132 
L 174.13117 242.611401 
L 175.197844 242.611401 
L 175.197844 242.496671 
L 176.351165 242.496671 
L 176.351165 242.381941 
L 177.104328 242.381941 
L 177.147274 242.15248 
L 177.725824 242.15248 
L 177.725824 242.03775 
L 178.950337 242.03775 
L 178.977944 241.808289 
L 180.609464 241.808289 
L 180.609464 241.693559 
L 181.812985 241.693559 
L 181.812985 241.578828 
L 183.074532 241.578828 
L 183.074532 241.464098 
L 184.721598 241.464098 
L 184.725567 241.234637 
L 185.283952 241.234637 
L 185.283952 241.119907 
L 188.979093 241.119907 
L 188.979093 241.005176 
L 189.164652 241.005176 
L 189.164652 240.890446 
L 189.41813 240.890446 
L 189.41813 240.775716 
L 190.635863 240.775716 
L 190.635863 240.660985 
L 196.785757 240.660985 
L 196.896684 240.431525 
L 338.688 240.431525 
L 338.688 240.431525 
" style="fill:none;stroke:#008000;stroke-linecap:square;stroke-width:1.5;"/>
   </g>
   <g id="line2d_36">
    <defs>
     <path d="M -0 6 
L 6 -6 
L -6 -6 
z
" id="m4708883aeb" style="stroke:#008000;stroke-linejoin:miter;stroke-width:1.5;"/>
    </defs>
    <g>
     <use style="fill-opacity:0;stroke:#008000;stroke-linejoin:miter;stroke-width:1.5;" x="84.464254" xlink:href="#m4708883aeb" y="270.605605"/>
     <use style="fill-opacity:0;stroke:#008000;stroke-linejoin:miter;stroke-width:1.5;" x="149.043029" xlink:href="#m4708883aeb" y="249.724683"/>
     <use style="fill-opacity:0;stroke:#008000;stroke-linejoin:miter;stroke-width:1.5;" x="196.896684" xlink:href="#m4708883aeb" y="240.546255"/>
     <use style="fill-opacity:0;stroke:#008000;stroke-linejoin:miter;stroke-width:1.5;" x="196.896684" xlink:href="#m4708883aeb" y="240.431525"/>
     <use style="fill-opacity:0;stroke:#008000;stroke-linejoin:miter;stroke-width:1.5;" x="196.896684" xlink:href="#m4708883aeb" y="240.431525"/>
     <use style="fill-opacity:0;stroke:#008000;stroke-linejoin:miter;stroke-width:1.5;" x="338.688" xlink:href="#m4708883aeb" y="240.431525"/>
    </g>
   </g>
   <g id="line2d_37">
    <path style="fill:none;stroke:#008000;stroke-linecap:square;stroke-width:1.5;"/>
    <g/>
   </g>
   <g id="line2d_38">
    <path clip-path="url(#p1a95192354)" d="M 121.489881 259.247301 
" style="fill:none;stroke:#008000;stroke-linecap:square;stroke-width:1.5;"/>
    <defs>
     <path d="M -12 12 
L 12 -12 
M -12 -12 
L 12 12 
" id="me4f8b99d24" style="stroke:#008000;"/>
    </defs>
    <g clip-path="url(#p1a95192354)">
     <use style="fill:#008000;stroke:#008000;" x="121.489881" xlink:href="#me4f8b99d24" y="259.247301"/>
    </g>
   </g>
   <g id="line2d_39">
    <defs>
     <path d="M 0 1.5 
C 0.397805 1.5 0.77937 1.341951 1.06066 1.06066 
C 1.341951 0.77937 1.5 0.397805 1.5 0 
C 1.5 -0.397805 1.341951 -0.77937 1.06066 -1.06066 
C 0.77937 -1.341951 0.397805 -1.5 0 -1.5 
C -0.397805 -1.5 -0.77937 -1.341951 -1.06066 -1.06066 
C -1.341951 -0.77937 -1.5 -0.397805 -1.5 0 
C -1.5 0.397805 -1.341951 0.77937 -1.06066 1.06066 
C -0.77937 1.341951 -0.397805 1.5 0 1.5 
z
" id="m29492a1013" style="stroke:#0000ff;"/>
    </defs>
    <g>
     <use style="fill:#0000ff;stroke:#0000ff;" x="208.169165" xlink:href="#m29492a1013" y="254.199166"/>
     <use style="fill:#0000ff;stroke:#0000ff;" x="208.169165" xlink:href="#m29492a1013" y="254.199166"/>
    </g>
   </g>
   <g id="line2d_40">
    <path d="M 29.53256 298.944 
L 29.53256 275.883201 
L 41.620548 275.883201 
L 41.620548 275.768471 
L 63.467834 275.768471 
L 63.467834 275.65374 
L 65.796525 275.65374 
L 65.796525 275.42428 
L 81.775977 275.42428 
L 81.775977 275.309549 
L 82.626842 275.309549 
L 82.626842 275.194819 
L 84.213325 275.194819 
L 84.213325 274.850628 
L 84.955534 274.850628 
L 84.955534 274.735897 
L 85.66744 274.735897 
L 85.66744 274.506437 
L 88.255778 274.506437 
L 88.255778 274.276976 
L 88.846997 274.276976 
L 88.846997 274.162246 
L 89.418828 274.162246 
L 89.418828 274.047515 
L 91.029752 274.047515 
L 91.029752 273.932785 
L 92.026554 273.932785 
L 92.026554 273.818055 
L 92.504372 273.818055 
L 92.504372 273.703324 
L 93.422441 273.703324 
L 93.422441 273.359133 
L 94.714831 273.359133 
L 94.714831 273.129673 
L 95.125186 273.129673 
L 95.125186 272.785482 
L 95.526106 272.785482 
L 95.526106 272.556021 
L 95.918017 272.556021 
L 95.918017 272.441291 
L 96.301313 272.441291 
L 96.301313 272.21183 
L 96.676366 272.21183 
L 96.676366 271.982369 
L 97.043522 271.982369 
L 97.043522 271.752909 
L 97.403108 271.752909 
L 97.403108 271.523448 
L 97.755429 271.523448 
L 97.755429 271.179257 
L 98.100772 271.179257 
L 98.100772 271.064526 
L 98.43941 271.064526 
L 98.43941 270.605605 
L 98.771596 270.605605 
L 98.771596 270.490875 
L 99.097574 270.490875 
L 99.097574 270.146684 
L 99.731799 270.146684 
L 99.731799 270.031953 
L 100.040467 270.031953 
L 100.040467 269.687762 
L 100.343767 269.687762 
L 100.343767 269.573032 
L 100.641881 269.573032 
L 100.641881 269.458302 
L 101.223245 269.458302 
L 101.223245 269.228841 
L 101.506816 269.228841 
L 101.506816 269.114111 
L 102.060491 269.114111 
L 102.060491 268.655189 
L 102.330873 268.655189 
L 102.330873 268.540459 
L 102.597126 268.540459 
L 102.597126 268.196268 
L 102.859376 268.196268 
L 102.859376 268.081538 
L 104.114542 268.081538 
L 104.114542 267.966807 
L 104.592361 267.966807 
L 104.592361 267.852077 
L 105.285403 267.852077 
L 105.285403 267.737347 
L 106.168594 267.737347 
L 106.168594 267.622616 
L 106.802819 267.622616 
L 106.802819 267.507886 
L 107.213174 267.507886 
L 107.213174 267.393156 
L 107.614095 267.393156 
L 107.614095 267.278425 
L 109.31223 267.278425 
L 109.31223 267.163695 
L 110.358901 267.163695 
L 110.358901 267.048964 
L 110.527398 267.048964 
L 110.527398 266.934234 
L 111.185562 266.934234 
L 111.185562 266.819504 
L 111.505558 266.819504 
L 111.505558 266.704773 
L 111.663381 266.704773 
L 111.663381 266.590043 
L 111.974805 266.590043 
L 111.974805 266.360582 
L 112.58145 266.360582 
L 112.58145 266.245852 
L 112.72987 266.245852 
L 112.72987 266.131122 
L 112.877038 266.131122 
L 112.877038 265.901661 
L 113.873839 265.901661 
L 113.873839 265.786931 
L 114.418861 265.786931 
L 114.418861 265.6722 
L 114.552496 265.6722 
L 114.552496 265.44274 
L 115.586238 265.44274 
L 115.586238 265.328009 
L 115.835374 265.328009 
L 115.835374 265.213279 
L 117.820578 265.213279 
L 117.820578 265.098549 
L 119.89914 265.098549 
L 119.89914 264.983818 
L 120.759333 264.983818 
L 120.759333 264.869088 
L 121.667835 264.869088 
L 121.667835 264.754358 
L 123.514096 264.754358 
L 123.514096 264.639627 
L 123.672636 264.639627 
L 123.672636 264.524897 
L 124.216444 264.524897 
L 124.216444 264.295436 
L 125.327602 264.295436 
L 125.327602 264.180706 
L 126.70692 264.180706 
L 126.773103 263.951245 
L 127.165014 263.951245 
L 127.229484 263.607054 
L 127.54831 263.607054 
L 127.54831 263.492324 
L 127.799239 263.492324 
L 127.799239 263.377593 
L 129.404667 263.377593 
L 129.404667 263.262863 
L 132.753813 263.262863 
L 132.753813 263.148133 
L 134.534878 263.148133 
L 134.534878 263.033402 
L 135.117629 263.033402 
L 135.117629 262.918672 
L 137.558536 262.918672 
L 137.558536 262.803942 
L 138.828032 262.803942 
L 138.828032 262.689211 
L 141.350061 262.689211 
L 141.350061 262.574481 
L 142.297475 262.574481 
L 142.297475 262.459751 
L 142.936543 262.459751 
L 142.936543 262.34502 
L 143.349938 262.34502 
L 143.349938 262.23029 
L 143.828447 262.23029 
L 143.828447 262.11556 
L 144.294175 262.11556 
L 144.294175 262.000829 
L 144.438701 262.000829 
L 144.438701 261.886099 
L 145.166911 261.886099 
L 145.166911 261.771369 
L 145.463466 261.771369 
L 145.463466 261.656638 
L 145.732804 261.656638 
L 145.732804 261.541908 
L 146.041862 261.541908 
L 146.041862 261.427178 
L 147.570215 261.427178 
L 147.570215 261.312447 
L 147.927346 261.312447 
L 147.927346 261.197717 
L 148.354135 261.197717 
L 148.354135 261.082987 
L 148.54473 261.082987 
L 148.54473 260.968256 
L 148.695721 260.968256 
L 148.695721 260.853526 
L 149.030744 260.853526 
L 149.067574 260.624065 
L 150.412445 260.624065 
L 150.412445 260.509335 
L 150.632448 260.509335 
L 150.632448 260.394605 
L 151.031458 260.394605 
L 151.031458 260.279874 
L 151.453659 260.279874 
L 151.453659 260.165144 
L 152.26858 260.165144 
L 152.26858 260.050414 
L 152.662192 260.050414 
L 152.662192 259.935683 
L 154.153391 259.935683 
L 154.153391 259.820953 
L 154.344733 259.820953 
L 154.344733 259.706222 
L 155.539762 259.706222 
L 155.539762 259.591492 
L 155.904009 259.591492 
L 155.904009 259.476762 
L 156.101764 259.476762 
L 156.101764 259.362031 
L 157.953917 259.362031 
L 157.953917 259.247301 
L 159.056614 259.247301 
L 159.056614 259.132571 
L 159.62811 259.132571 
L 159.728221 258.90311 
L 160.849359 258.90311 
L 160.849359 258.78838 
L 161.109513 258.78838 
L 161.109513 258.673649 
L 161.347658 258.673649 
L 161.347658 258.558919 
L 162.147765 258.558919 
L 162.147765 258.444189 
L 163.144084 258.444189 
L 163.152289 258.214728 
L 163.428979 258.214728 
L 163.428979 258.099998 
L 164.6902 258.099998 
L 164.6902 257.985267 
L 166.547878 257.985267 
L 166.547878 257.870537 
L 166.749257 257.870537 
L 166.749257 257.755807 
L 166.888852 257.755807 
L 166.888852 257.641076 
L 167.646779 257.641076 
L 167.646779 257.526346 
L 168.060229 257.526346 
L 168.060229 257.411616 
L 168.536542 257.411616 
L 168.536542 257.296885 
L 168.894283 257.296885 
L 168.894283 257.182155 
L 169.423227 257.182155 
L 169.423227 257.067425 
L 172.22076 257.067425 
L 172.22076 256.952694 
L 172.482136 256.952694 
L 172.482136 256.837964 
L 173.701969 256.837964 
L 173.701969 256.723234 
L 174.283479 256.723234 
L 174.283479 256.608503 
L 176.317781 256.608503 
L 176.317781 256.493773 
L 177.212107 256.493773 
L 177.212107 256.379043 
L 178.07326 256.379043 
L 178.07326 256.264312 
L 179.693513 256.264312 
L 179.693513 256.149582 
L 181.473961 256.149582 
L 181.473961 256.034851 
L 181.974482 256.034851 
L 181.974482 255.920121 
L 182.404016 255.920121 
L 182.404016 255.805391 
L 183.68319 255.805391 
L 183.68319 255.69066 
L 183.93412 255.69066 
L 183.93412 255.57593 
L 185.414125 255.57593 
L 185.414125 255.4612 
L 185.575865 255.4612 
L 185.575865 255.346469 
L 186.175396 255.346469 
L 186.175396 255.231739 
L 186.881693 255.231739 
L 186.915323 255.002278 
L 188.209962 255.002278 
L 188.209962 254.887548 
L 190.737353 254.887548 
L 190.737353 254.772818 
L 192.515634 254.772818 
L 192.515634 254.658087 
L 192.996333 254.658087 
L 192.996333 254.543357 
L 196.42719 254.543357 
L 196.42719 254.428627 
L 200.073279 254.428627 
L 200.073279 254.313896 
L 208.169165 254.313896 
L 208.169165 254.199166 
L 338.688 254.199166 
L 338.688 254.199166 
" style="fill:none;stroke:#0000ff;stroke-linecap:square;stroke-width:1.5;"/>
   </g>
   <g id="line2d_41">
    <defs>
     <path d="M 0 -6 
L -1.347084 -1.854102 
L -5.706339 -1.854102 
L -2.179628 0.708204 
L -3.526712 4.854102 
L -0 2.291796 
L 3.526712 4.854102 
L 2.179628 0.708204 
L 5.706339 -1.854102 
L 1.347084 -1.854102 
z
" id="m565b279c9e" style="stroke:#0000ff;stroke-linejoin:bevel;stroke-width:1.5;"/>
    </defs>
    <g>
     <use style="fill-opacity:0;stroke:#0000ff;stroke-linejoin:bevel;stroke-width:1.5;" x="100.641881" xlink:href="#m565b279c9e" y="269.458302"/>
     <use style="fill-opacity:0;stroke:#0000ff;stroke-linejoin:bevel;stroke-width:1.5;" x="157.953917" xlink:href="#m565b279c9e" y="259.362031"/>
     <use style="fill-opacity:0;stroke:#0000ff;stroke-linejoin:bevel;stroke-width:1.5;" x="208.169165" xlink:href="#m565b279c9e" y="254.313896"/>
     <use style="fill-opacity:0;stroke:#0000ff;stroke-linejoin:bevel;stroke-width:1.5;" x="208.169165" xlink:href="#m565b279c9e" y="254.199166"/>
     <use style="fill-opacity:0;stroke:#0000ff;stroke-linejoin:bevel;stroke-width:1.5;" x="208.169165" xlink:href="#m565b279c9e" y="254.199166"/>
     <use style="fill-opacity:0;stroke:#0000ff;stroke-linejoin:bevel;stroke-width:1.5;" x="338.688" xlink:href="#m565b279c9e" y="254.199166"/>
    </g>
   </g>
   <g id="line2d_42">
    <path style="fill:none;stroke:#0000ff;stroke-linecap:square;stroke-width:1.5;"/>
    <g/>
   </g>
   <g id="line2d_43">
    <path clip-path="url(#p1a95192354)" d="M 137.52291 262.918672 
" style="fill:none;stroke:#0000ff;stroke-linecap:square;stroke-width:1.5;"/>
    <defs>
     <path d="M -12 12 
L 12 -12 
M -12 -12 
L 12 12 
" id="m428f5ce0ef" style="stroke:#0000ff;"/>
    </defs>
    <g clip-path="url(#p1a95192354)">
     <use style="fill:#0000ff;stroke:#0000ff;" x="137.52291" xlink:href="#m428f5ce0ef" y="262.918672"/>
    </g>
   </g>
   <g id="line2d_44">
    <defs>
     <path d="M 0 1.5 
C 0.397805 1.5 0.77937 1.341951 1.06066 1.06066 
C 1.341951 0.77937 1.5 0.397805 1.5 0 
C 1.5 -0.397805 1.341951 -0.77937 1.06066 -1.06066 
C 0.77937 -1.341951 0.397805 -1.5 0 -1.5 
C -0.397805 -1.5 -0.77937 -1.341951 -1.06066 -1.06066 
C -1.341951 -0.77937 -1.5 -0.397805 -1.5 0 
C -1.5 0.397805 -1.341951 0.77937 -1.06066 1.06066 
C -0.77937 1.341951 -0.397805 1.5 0 1.5 
z
" id="me57591178b" style="stroke:#000000;"/>
    </defs>
    <g>
     <use style="stroke:#000000;" x="214.655494" xlink:href="#me57591178b" y="257.641076"/>
     <use style="stroke:#000000;" x="214.655494" xlink:href="#me57591178b" y="257.641076"/>
    </g>
   </g>
   <g id="line2d_45">
    <path d="M 17.444571 298.944 
L 17.444571 275.194819 
L 90.771388 275.194819 
L 90.771388 275.080089 
L 92.267099 275.080089 
L 92.267099 274.965358 
L 93.197415 274.965358 
L 93.197415 274.850628 
L 94.080605 274.850628 
L 94.080605 274.735897 
L 95.125186 274.735897 
L 95.125186 274.621167 
L 95.723163 274.621167 
L 95.723163 274.506437 
L 96.301313 274.506437 
L 96.301313 274.391706 
L 96.489848 274.391706 
L 96.489848 274.276976 
L 96.86091 274.276976 
L 96.86091 274.162246 
L 97.043522 274.162246 
L 97.043522 274.047515 
L 97.580158 274.047515 
L 97.580158 273.932785 
L 98.270913 273.932785 
L 98.270913 273.818055 
L 99.41757 273.818055 
L 99.41757 273.703324 
L 99.731799 273.703324 
L 99.731799 273.588594 
L 100.040467 273.588594 
L 100.040467 273.473864 
L 100.641881 273.473864 
L 100.641881 273.244403 
L 100.934985 273.244403 
L 100.934985 273.129673 
L 101.365607 273.129673 
L 101.365607 273.014942 
L 101.646892 273.014942 
L 101.646892 272.900212 
L 102.859376 272.900212 
L 102.859376 272.785482 
L 102.989037 272.785482 
L 102.989037 272.670751 
L 103.498249 272.670751 
L 103.498249 272.556021 
L 103.747386 272.556021 
L 103.747386 272.441291 
L 104.114542 272.441291 
L 104.114542 272.21183 
L 104.942325 272.21183 
L 104.942325 272.0971 
L 107.314272 272.0971 
L 107.314272 271.867639 
L 108.198707 271.867639 
L 108.294265 271.638178 
L 109.222105 271.638178 
L 109.222105 271.523448 
L 110.016944 271.523448 
L 110.016944 271.408718 
L 110.274038 271.408718 
L 110.274038 271.293987 
L 110.61104 271.293987 
L 110.61104 271.179257 
L 110.859585 271.179257 
L 110.859585 271.064526 
L 111.74176 271.064526 
L 111.74176 270.949796 
L 112.72987 270.949796 
L 112.72987 270.835066 
L 112.877038 270.835066 
L 112.877038 270.720335 
L 113.239614 270.720335 
L 113.239614 270.605605 
L 113.73488 270.605605 
L 113.73488 270.490875 
L 114.216469 270.490875 
L 114.216469 270.376144 
L 114.351658 270.376144 
L 114.418861 270.031953 
L 115.077025 270.031953 
L 115.077025 269.917223 
L 115.397021 269.917223 
L 115.397021 269.802493 
L 115.586238 269.802493 
L 115.586238 269.687762 
L 116.081002 269.687762 
L 116.081002 269.573032 
L 116.680349 269.573032 
L 116.680349 269.458302 
L 117.202696 269.458302 
L 117.202696 269.343571 
L 117.654224 269.343571 
L 117.654224 269.228841 
L 118.039942 269.228841 
L 118.148599 268.99938 
L 118.417314 268.99938 
L 118.417314 268.88465 
L 118.786692 268.88465 
L 118.890808 268.655189 
L 119.301163 268.655189 
L 119.301163 268.540459 
L 119.996839 268.540459 
L 120.045484 268.196268 
L 121.400219 268.196268 
L 121.489881 267.966807 
L 121.931406 267.966807 
L 121.974949 267.737347 
L 122.31944 267.737347 
L 122.31944 267.622616 
L 122.906394 267.622616 
L 122.906394 267.393156 
L 123.111324 267.393156 
L 123.111324 267.278425 
L 124.101333 267.278425 
L 124.101333 267.163695 
L 124.92835 267.163695 
L 124.92835 267.048964 
L 126.338353 267.048964 
L 126.338353 266.934234 
L 127.002787 266.934234 
L 127.002787 266.819504 
L 127.516689 266.819504 
L 127.516689 266.704773 
L 128.827155 266.704773 
L 128.827155 266.590043 
L 129.46138 266.590043 
L 129.46138 266.475313 
L 129.825588 266.475313 
L 129.825588 266.360582 
L 130.018593 266.360582 
L 130.045992 266.131122 
L 130.900768 266.131122 
L 130.900768 266.016391 
L 131.210808 266.016391 
L 131.312942 265.786931 
L 131.540579 265.786931 
L 131.540579 265.6722 
L 132.374684 265.6722 
L 132.374684 265.55747 
L 135.839358 265.55747 
L 135.839358 265.44274 
L 136.513517 265.44274 
L 136.5324 265.213279 
L 141.941279 265.213279 
L 141.941279 265.098549 
L 143.413655 265.098549 
L 143.413655 264.983818 
L 144.486611 264.983818 
L 144.486611 264.869088 
L 145.143889 264.869088 
L 145.143889 264.639627 
L 146.248504 264.639627 
L 146.248504 264.524897 
L 147.113265 264.524897 
L 147.113265 264.410167 
L 147.338159 264.410167 
L 147.338159 264.295436 
L 149.503579 264.295436 
L 149.503579 264.180706 
L 151.015013 264.180706 
L 151.015013 264.065976 
L 152.885298 264.065976 
L 152.885298 263.951245 
L 153.359122 263.951245 
L 153.359122 263.836515 
L 154.480132 263.836515 
L 154.480132 263.721785 
L 155.096285 263.721785 
L 155.096285 263.607054 
L 156.430472 263.607054 
L 156.430472 263.492324 
L 157.61918 263.492324 
L 157.61918 263.377593 
L 159.211539 263.377593 
L 159.211539 263.262863 
L 160.504296 263.262863 
L 160.594766 263.033402 
L 160.727241 263.033402 
L 160.727241 262.918672 
L 160.8961 262.918672 
L 160.8961 262.803942 
L 161.840959 262.803942 
L 161.840959 262.689211 
L 162.091193 262.689211 
L 162.169475 262.23029 
L 162.41935 262.23029 
L 162.41935 262.11556 
L 163.119446 262.11556 
L 163.185069 261.886099 
L 163.49345 261.886099 
L 163.49345 261.771369 
L 164.891812 261.771369 
L 164.891812 261.656638 
L 165.35337 261.656638 
L 165.35337 261.541908 
L 167.297821 261.541908 
L 167.297821 261.427178 
L 167.973343 261.427178 
L 167.973343 261.312447 
L 168.427772 261.312447 
L 168.427772 261.197717 
L 169.611146 261.197717 
L 169.611146 261.082987 
L 173.873588 261.082987 
L 173.873588 260.968256 
L 175.629635 260.968256 
L 175.629635 260.853526 
L 177.619395 260.853526 
L 177.619395 260.738796 
L 178.566525 260.738796 
L 178.61053 260.394605 
L 180.009927 260.394605 
L 180.009927 260.279874 
L 180.750576 260.279874 
L 180.750576 260.165144 
L 182.15888 260.165144 
L 182.15888 260.050414 
L 182.621596 260.050414 
L 182.621596 259.935683 
L 183.588153 259.935683 
L 183.588153 259.820953 
L 185.245095 259.820953 
L 185.245095 259.706222 
L 188.366204 259.706222 
L 188.366204 259.591492 
L 189.147416 259.591492 
L 189.147416 259.476762 
L 190.461106 259.476762 
L 190.461106 259.362031 
L 190.71879 259.362031 
L 190.71879 259.247301 
L 191.665949 259.247301 
L 191.665949 259.132571 
L 194.685393 259.132571 
L 194.685393 259.01784 
L 197.242725 259.01784 
L 197.242725 258.90311 
L 197.767284 258.90311 
L 197.767284 258.78838 
L 198.146329 258.78838 
L 198.146329 258.673649 
L 198.399235 258.673649 
L 198.399235 258.558919 
L 200.214405 258.558919 
L 200.214405 258.444189 
L 200.989335 258.444189 
L 200.989335 258.329458 
L 201.50627 258.329458 
L 201.50627 258.214728 
L 205.453762 258.214728 
L 205.453762 258.099998 
L 207.108055 258.099998 
L 207.123221 257.870537 
L 210.59612 257.870537 
L 210.59612 257.755807 
L 214.655494 257.755807 
L 214.655494 257.641076 
L 338.688 257.641076 
L 338.688 257.641076 
" style="fill:none;stroke:#000000;stroke-linecap:square;stroke-width:1.5;"/>
   </g>
   <g id="line2d_46">
    <defs>
     <path d="M 0 6 
C 1.591219 6 3.117479 5.367802 4.242641 4.242641 
C 5.367802 3.117479 6 1.591219 6 0 
C 6 -1.591219 5.367802 -3.117479 4.242641 -4.242641 
C 3.117479 -5.367802 1.591219 -6 0 -6 
C -1.591219 -6 -3.117479 -5.367802 -4.242641 -4.242641 
C -5.367802 -3.117479 -6 -1.591219 -6 0 
C -6 1.591219 -5.367802 3.117479 -4.242641 4.242641 
C -3.117479 5.367802 -1.591219 6 0 6 
z
" id="mf9b59d27be" style="stroke:#000000;stroke-width:1.5;"/>
    </defs>
    <g>
     <use style="fill-opacity:0;stroke:#000000;stroke-width:1.5;" x="173.873588" xlink:href="#mf9b59d27be" y="261.082987"/>
     <use style="fill-opacity:0;stroke:#000000;stroke-width:1.5;" x="214.655494" xlink:href="#mf9b59d27be" y="257.755807"/>
     <use style="fill-opacity:0;stroke:#000000;stroke-width:1.5;" x="214.655494" xlink:href="#mf9b59d27be" y="257.641076"/>
     <use style="fill-opacity:0;stroke:#000000;stroke-width:1.5;" x="214.655494" xlink:href="#mf9b59d27be" y="257.641076"/>
     <use style="fill-opacity:0;stroke:#000000;stroke-width:1.5;" x="338.688" xlink:href="#mf9b59d27be" y="257.641076"/>
    </g>
   </g>
   <g id="line2d_47">
    <path style="fill:none;stroke:#000000;stroke-linecap:square;stroke-width:1.5;"/>
    <g/>
   </g>
   <g id="line2d_48">
    <path clip-path="url(#p1a95192354)" d="M 147.205618 264.410167 
" style="fill:none;stroke:#000000;stroke-linecap:square;stroke-width:1.5;"/>
    <defs>
     <path d="M -12 12 
L 12 -12 
M -12 -12 
L 12 12 
" id="me21e42f8c5" style="stroke:#000000;"/>
    </defs>
    <g clip-path="url(#p1a95192354)">
     <use style="stroke:#000000;" x="147.205618" xlink:href="#me21e42f8c5" y="264.410167"/>
    </g>
   </g>
   <g id="line2d_49">
    <defs>
     <path d="M 0 1.5 
C 0.397805 1.5 0.77937 1.341951 1.06066 1.06066 
C 1.341951 0.77937 1.5 0.397805 1.5 0 
C 1.5 -0.397805 1.341951 -0.77937 1.06066 -1.06066 
C 0.77937 -1.341951 0.397805 -1.5 0 -1.5 
C -0.397805 -1.5 -0.77937 -1.341951 -1.06066 -1.06066 
C -1.341951 -0.77937 -1.5 -0.397805 -1.5 0 
C -1.5 0.397805 -1.341951 0.77937 -1.06066 1.06066 
C -0.77937 1.341951 -0.397805 1.5 0 1.5 
z
" id="mcb3f3ba6b7" style="stroke:#ff0000;"/>
    </defs>
    <g>
     <use style="fill:#ff0000;stroke:#ff0000;" x="214.649609" xlink:href="#mcb3f3ba6b7" y="261.082987"/>
     <use style="fill:#ff0000;stroke:#ff0000;" x="214.649609" xlink:href="#mcb3f3ba6b7" y="261.082987"/>
    </g>
   </g>
   <g id="line2d_50">
    <path d="M 5.356583 298.944 
L 5.356583 275.194819 
L 93.083804 275.194819 
L 93.083804 275.080089 
L 94.818328 275.080089 
L 94.818328 274.965358 
L 97.043522 274.965358 
L 97.043522 274.850628 
L 103.560868 274.850628 
L 103.560868 274.735897 
L 107.111487 274.735897 
L 107.111487 274.621167 
L 107.514726 274.621167 
L 107.514726 274.506437 
L 108.948899 274.506437 
L 108.948899 274.391706 
L 110.060057 274.391706 
L 110.060057 274.276976 
L 111.145147 274.276976 
L 111.145147 274.162246 
L 113.346933 274.162246 
L 113.346933 274.047515 
L 114.519183 274.047515 
L 114.519183 273.932785 
L 115.897107 273.932785 
L 115.897107 273.818055 
L 116.202531 273.818055 
L 116.202531 273.703324 
L 117.985359 273.703324 
L 117.985359 273.588594 
L 118.523652 273.588594 
L 118.576578 273.244403 
L 119.377041 273.244403 
L 119.377041 273.129673 
L 119.996839 273.129673 
L 120.093994 272.785482 
L 120.286695 272.785482 
L 120.358413 272.556021 
L 121.445108 272.556021 
L 121.445108 272.441291 
L 121.909593 272.441291 
L 121.909593 272.32656 
L 122.104932 272.32656 
L 122.104932 272.21183 
L 122.740699 272.21183 
L 122.740699 272.0971 
L 123.354102 272.0971 
L 123.354102 271.982369 
L 124.311793 271.982369 
L 124.311793 271.867639 
L 124.482119 271.867639 
L 124.482119 271.752909 
L 125.857712 271.752909 
L 125.857712 271.638178 
L 126.030894 271.638178 
L 126.030894 271.523448 
L 128.471239 271.523448 
L 128.545989 271.293987 
L 129.233413 271.293987 
L 129.233413 271.179257 
L 129.700375 271.179257 
L 129.700375 271.064526 
L 130.018593 271.064526 
L 130.018593 270.949796 
L 130.317637 270.949796 
L 130.317637 270.835066 
L 130.952826 270.835066 
L 130.952826 270.720335 
L 131.172353 270.720335 
L 131.172353 270.605605 
L 131.678241 270.605605 
L 131.678241 270.490875 
L 132.577122 270.490875 
L 132.577122 270.376144 
L 132.998212 270.376144 
L 132.998212 270.261414 
L 133.19358 270.261414 
L 133.19358 270.146684 
L 133.711505 270.146684 
L 133.711505 270.031953 
L 134.073807 270.031953 
L 134.073807 269.917223 
L 134.300504 269.917223 
L 134.300504 269.802493 
L 134.587709 269.802493 
L 134.587709 269.687762 
L 135.014985 269.687762 
L 135.014985 269.573032 
L 135.562224 269.573032 
L 135.562224 269.458302 
L 136.776048 269.458302 
L 136.776048 269.343571 
L 137.198951 269.343571 
L 137.253364 268.99938 
L 137.39764 268.99938 
L 137.406618 268.655189 
L 137.753193 268.655189 
L 137.858461 268.310998 
L 137.919575 268.310998 
L 137.919575 268.196268 
L 138.256201 268.196268 
L 138.256201 268.081538 
L 138.561269 268.081538 
L 138.561269 267.966807 
L 139.357646 267.966807 
L 139.389719 267.737347 
L 139.69937 267.737347 
L 139.69937 267.622616 
L 140.11924 267.622616 
L 140.11924 267.507886 
L 140.53674 267.507886 
L 140.53674 267.393156 
L 141.335737 267.393156 
L 141.421504 267.163695 
L 141.577657 267.163695 
L 141.577657 267.048964 
L 144.688773 267.048964 
L 144.688773 266.934234 
L 144.952787 266.934234 
L 144.952787 266.819504 
L 145.637888 266.819504 
L 145.637888 266.704773 
L 146.06373 266.704773 
L 146.06373 266.590043 
L 146.334784 266.590043 
L 146.334784 266.475313 
L 148.156589 266.475313 
L 148.156589 266.360582 
L 148.406757 266.360582 
L 148.406757 266.245852 
L 149.200437 266.245852 
L 149.200437 266.131122 
L 149.593058 266.131122 
L 149.593058 266.016391 
L 150.003205 266.016391 
L 150.007563 265.44274 
L 151.142054 265.44274 
L 151.174689 265.213279 
L 151.353097 265.213279 
L 151.389366 264.983818 
L 151.767673 264.983818 
L 151.767673 264.869088 
L 152.141804 264.869088 
L 152.141804 264.754358 
L 152.870513 264.754358 
L 152.973748 264.410167 
L 154.170561 264.410167 
L 154.170561 264.295436 
L 157.84027 264.295436 
L 157.84027 264.180706 
L 160.632719 264.180706 
L 160.708377 263.721785 
L 163.276936 263.721785 
L 163.276936 263.607054 
L 163.422923 263.607054 
L 163.422923 263.492324 
L 167.560988 263.492324 
L 167.560988 263.377593 
L 167.829655 263.377593 
L 167.829655 263.262863 
L 172.991089 263.262863 
L 172.991089 263.148133 
L 173.121251 263.148133 
L 173.121251 263.033402 
L 178.092425 263.033402 
L 178.092425 262.918672 
L 185.867061 262.918672 
L 185.867061 262.803942 
L 187.214078 262.803942 
L 187.214078 262.689211 
L 187.349273 262.689211 
L 187.349273 262.574481 
L 187.801151 262.574481 
L 187.801151 262.459751 
L 190.339452 262.459751 
L 190.339452 262.34502 
L 191.214396 262.34502 
L 191.214396 262.23029 
L 191.92192 262.23029 
L 191.92192 262.11556 
L 192.943655 262.11556 
L 192.943655 262.000829 
L 198.06259 262.000829 
L 198.115975 261.771369 
L 198.529182 261.771369 
L 198.529182 261.656638 
L 199.137708 261.656638 
L 199.137708 261.541908 
L 202.012961 261.541908 
L 202.012961 261.427178 
L 209.160457 261.427178 
L 209.160457 261.312447 
L 212.3657 261.312447 
L 212.3657 261.197717 
L 214.649609 261.197717 
L 214.649609 261.082987 
L 338.688 261.082987 
L 338.688 261.082987 
" style="fill:none;stroke:#ff0000;stroke-linecap:square;stroke-width:1.5;"/>
   </g>
   <g id="line2d_51">
    <defs>
     <path d="M -6 6 
L 6 6 
L 6 -6 
L -6 -6 
z
" id="m41d35e9a2d" style="stroke:#ff0000;stroke-linejoin:miter;stroke-width:1.5;"/>
    </defs>
    <g>
     <use style="fill-opacity:0;stroke:#ff0000;stroke-linejoin:miter;stroke-width:1.5;" x="103.560868" xlink:href="#m41d35e9a2d" y="274.850628"/>
     <use style="fill-opacity:0;stroke:#ff0000;stroke-linejoin:miter;stroke-width:1.5;" x="192.943655" xlink:href="#m41d35e9a2d" y="262.11556"/>
     <use style="fill-opacity:0;stroke:#ff0000;stroke-linejoin:miter;stroke-width:1.5;" x="214.649609" xlink:href="#m41d35e9a2d" y="261.197717"/>
     <use style="fill-opacity:0;stroke:#ff0000;stroke-linejoin:miter;stroke-width:1.5;" x="214.649609" xlink:href="#m41d35e9a2d" y="261.082987"/>
     <use style="fill-opacity:0;stroke:#ff0000;stroke-linejoin:miter;stroke-width:1.5;" x="214.649609" xlink:href="#m41d35e9a2d" y="261.082987"/>
     <use style="fill-opacity:0;stroke:#ff0000;stroke-linejoin:miter;stroke-width:1.5;" x="338.688" xlink:href="#m41d35e9a2d" y="261.082987"/>
    </g>
   </g>
   <g id="line2d_52">
    <path style="fill:none;stroke:#ff0000;stroke-linecap:square;stroke-width:1.5;"/>
    <g/>
   </g>
   <g id="line2d_53">
    <path clip-path="url(#p1a95192354)" d="M 149.998846 266.016391 
" style="fill:none;stroke:#ff0000;stroke-linecap:square;stroke-width:1.5;"/>
    <defs>
     <path d="M -12 12 
L 12 -12 
M -12 -12 
L 12 12 
" id="m542c8cb9a9" style="stroke:#ff0000;"/>
    </defs>
    <g clip-path="url(#p1a95192354)">
     <use style="fill:#ff0000;stroke:#ff0000;" x="149.998846" xlink:href="#m542c8cb9a9" y="266.016391"/>
    </g>
   </g>
   <g id="line2d_54">
    <defs>
     <path d="M 0 1.5 
C 0.397805 1.5 0.77937 1.341951 1.06066 1.06066 
C 1.341951 0.77937 1.5 0.397805 1.5 0 
C 1.5 -0.397805 1.341951 -0.77937 1.06066 -1.06066 
C 0.77937 -1.341951 0.397805 -1.5 0 -1.5 
C -0.397805 -1.5 -0.77937 -1.341951 -1.06066 -1.06066 
C -1.341951 -0.77937 -1.5 -0.397805 -1.5 0 
C -1.5 0.397805 -1.341951 0.77937 -1.06066 1.06066 
C -0.77937 1.341951 -0.397805 1.5 0 1.5 
z
" id="m101df587c4" style="stroke:#bf00bf;"/>
    </defs>
    <g>
     <use style="fill:#bf00bf;stroke:#bf00bf;" x="189.984728" xlink:href="#m101df587c4" y="266.819504"/>
     <use style="fill:#bf00bf;stroke:#bf00bf;" x="189.984728" xlink:href="#m101df587c4" y="266.819504"/>
    </g>
   </g>
   <g id="line2d_55">
    <path d="M -1 275.53901 
L 93.863965 275.53901 
L 93.863965 275.42428 
L 102.12848 275.42428 
L 102.12848 275.309549 
L 104.768221 275.309549 
L 104.768221 275.194819 
L 105.313691 275.194819 
L 105.313691 275.080089 
L 106.114686 275.080089 
L 106.114686 274.965358 
L 107.187808 274.965358 
L 107.187808 274.850628 
L 109.886961 274.850628 
L 109.886961 274.735897 
L 111.266113 274.735897 
L 111.266113 274.621167 
L 112.877038 274.621167 
L 112.877038 274.506437 
L 113.78712 274.506437 
L 113.78712 274.391706 
L 114.485807 274.391706 
L 114.485807 274.276976 
L 115.10929 274.276976 
L 115.125401 274.047515 
L 115.711251 274.047515 
L 115.711251 273.932785 
L 119.664886 273.932785 
L 119.664886 273.818055 
L 123.849288 273.818055 
L 123.849288 273.703324 
L 124.101333 273.703324 
L 124.101333 273.588594 
L 130.358022 273.588594 
L 130.358022 273.473864 
L 131.765283 273.473864 
L 131.765283 273.359133 
L 132.036046 273.359133 
L 132.036046 273.244403 
L 133.521885 273.244403 
L 133.521885 273.129673 
L 134.165921 273.129673 
L 134.165921 273.014942 
L 134.396766 273.014942 
L 134.396766 272.900212 
L 135.214585 272.900212 
L 135.214585 272.785482 
L 136.988781 272.785482 
L 136.988781 272.670751 
L 137.545185 272.670751 
L 137.545185 272.556021 
L 137.757592 272.556021 
L 137.757592 272.441291 
L 138.670134 272.441291 
L 138.670134 272.32656 
L 141.549369 272.32656 
L 141.549369 272.21183 
L 141.965484 272.21183 
L 141.965484 272.0971 
L 143.018058 272.0971 
L 143.05705 271.867639 
L 143.372265 271.867639 
L 143.372265 271.752909 
L 144.653267 271.752909 
L 144.653267 271.638178 
L 145.621085 271.638178 
L 145.621085 271.523448 
L 146.476753 271.523448 
L 146.476753 271.408718 
L 146.801841 271.408718 
L 146.801841 271.293987 
L 147.033345 271.293987 
L 147.033345 271.179257 
L 147.494884 271.179257 
L 147.494884 271.064526 
L 147.90278 271.064526 
L 147.90278 270.949796 
L 148.231534 270.949796 
L 148.231534 270.835066 
L 149.25512 270.835066 
L 149.28921 270.605605 
L 149.44067 270.605605 
L 149.44067 270.490875 
L 149.937701 270.490875 
L 150.001025 270.146684 
L 154.896603 270.146684 
L 154.896603 269.917223 
L 155.725976 269.917223 
L 155.725976 269.802493 
L 155.976883 269.802493 
L 155.976883 269.687762 
L 158.528689 269.687762 
L 158.530025 269.458302 
L 159.087709 269.458302 
L 159.087709 269.343571 
L 159.636893 269.343571 
L 159.636893 269.228841 
L 160.56149 269.228841 
L 160.56149 269.114111 
L 161.155563 269.114111 
L 161.225557 268.88465 
L 163.310499 268.88465 
L 163.310499 268.76992 
L 167.215979 268.76992 
L 167.215979 268.655189 
L 167.425087 268.655189 
L 167.425889 268.425729 
L 167.62299 268.425729 
L 167.62299 268.310998 
L 168.362488 268.310998 
L 168.362488 268.196268 
L 168.973774 268.196268 
L 168.973774 268.081538 
L 173.581725 268.081538 
L 173.582288 267.852077 
L 174.159557 267.852077 
L 174.159557 267.737347 
L 174.965898 267.737347 
L 174.965898 267.622616 
L 181.15441 267.622616 
L 181.15441 267.507886 
L 182.989375 267.507886 
L 182.989375 267.393156 
L 183.71507 267.393156 
L 183.71507 267.278425 
L 185.968783 267.278425 
L 185.968783 267.163695 
L 186.194008 267.163695 
L 186.194008 267.048964 
L 186.675346 267.048964 
L 186.675346 266.934234 
L 189.984728 266.934234 
L 189.984728 266.819504 
L 338.688 266.819504 
L 338.688 266.819504 
" style="fill:none;stroke:#bf00bf;stroke-linecap:square;stroke-width:1.5;"/>
   </g>
   <g id="line2d_56">
    <defs>
     <path d="M -0 8.485281 
L 8.485281 0 
L 0 -8.485281 
L -8.485281 -0 
z
" id="me4f1762ac8" style="stroke:#bf00bf;stroke-linejoin:miter;stroke-width:1.5;"/>
    </defs>
    <g>
     <use style="fill-opacity:0;stroke:#bf00bf;stroke-linejoin:miter;stroke-width:1.5;" x="150.001025" xlink:href="#me4f1762ac8" y="270.376144"/>
     <use style="fill-opacity:0;stroke:#bf00bf;stroke-linejoin:miter;stroke-width:1.5;" x="189.984728" xlink:href="#me4f1762ac8" y="266.934234"/>
     <use style="fill-opacity:0;stroke:#bf00bf;stroke-linejoin:miter;stroke-width:1.5;" x="189.984728" xlink:href="#me4f1762ac8" y="266.819504"/>
     <use style="fill-opacity:0;stroke:#bf00bf;stroke-linejoin:miter;stroke-width:1.5;" x="189.984728" xlink:href="#me4f1762ac8" y="266.819504"/>
     <use style="fill-opacity:0;stroke:#bf00bf;stroke-linejoin:miter;stroke-width:1.5;" x="338.688" xlink:href="#me4f1762ac8" y="266.819504"/>
    </g>
   </g>
   <g id="line2d_57">
    <path style="fill:none;stroke:#bf00bf;stroke-linecap:square;stroke-width:1.5;"/>
    <g/>
   </g>
   <g id="line2d_58">
    <path clip-path="url(#p1a95192354)" d="M 149.998846 270.376144 
" style="fill:none;stroke:#bf00bf;stroke-linecap:square;stroke-width:1.5;"/>
    <defs>
     <path d="M -12 12 
L 12 -12 
M -12 -12 
L 12 12 
" id="md9765723db" style="stroke:#bf00bf;"/>
    </defs>
    <g clip-path="url(#p1a95192354)">
     <use style="fill:#bf00bf;stroke:#bf00bf;" x="149.998846" xlink:href="#md9765723db" y="270.376144"/>
    </g>
   </g>
   <g id="line2d_59">
    <path d="M 338.688 266.819504 
L 369.60768 293.092752 
" style="fill:none;stroke:#bf00bf;stroke-linecap:square;stroke-width:1.5;"/>
    <g>
     <use style="fill-opacity:0;stroke:#bf00bf;stroke-linejoin:miter;stroke-width:1.5;" x="338.688" xlink:href="#me4f1762ac8" y="266.819504"/>
     <use style="fill-opacity:0;stroke:#bf00bf;stroke-linejoin:miter;stroke-width:1.5;" x="369.60768" xlink:href="#me4f1762ac8" y="293.092752"/>
    </g>
   </g>
   <g id="line2d_60">
    <path d="M 338.688 261.082987 
L 369.60768 236.920776 
" style="fill:none;stroke:#ff0000;stroke-linecap:square;stroke-width:1.5;"/>
    <g>
     <use style="fill-opacity:0;stroke:#ff0000;stroke-linejoin:miter;stroke-width:1.5;" x="338.688" xlink:href="#m41d35e9a2d" y="261.082987"/>
     <use style="fill-opacity:0;stroke:#ff0000;stroke-linejoin:miter;stroke-width:1.5;" x="369.60768" xlink:href="#m41d35e9a2d" y="236.920776"/>
    </g>
   </g>
   <g id="line2d_61">
    <path d="M 338.688 257.641076 
L 369.60768 180.7488 
" style="fill:none;stroke:#000000;stroke-linecap:square;stroke-width:1.5;"/>
    <g>
     <use style="fill-opacity:0;stroke:#000000;stroke-width:1.5;" x="338.688" xlink:href="#mf9b59d27be" y="257.641076"/>
     <use style="fill-opacity:0;stroke:#000000;stroke-width:1.5;" x="369.60768" xlink:href="#mf9b59d27be" y="180.7488"/>
    </g>
   </g>
   <g id="line2d_62">
    <path d="M 338.688 254.199166 
L 369.60768 124.576824 
" style="fill:none;stroke:#0000ff;stroke-linecap:square;stroke-width:1.5;"/>
    <g>
     <use style="fill-opacity:0;stroke:#0000ff;stroke-linejoin:bevel;stroke-width:1.5;" x="338.688" xlink:href="#m565b279c9e" y="254.199166"/>
     <use style="fill-opacity:0;stroke:#0000ff;stroke-linejoin:bevel;stroke-width:1.5;" x="369.60768" xlink:href="#m565b279c9e" y="124.576824"/>
    </g>
   </g>
   <g id="line2d_63">
    <path d="M 338.688 246.168042 
L 369.60768 68.404848 
" style="fill:none;stroke:#00bfbf;stroke-linecap:square;stroke-width:1.5;"/>
    <g>
     <use style="fill-opacity:0;stroke:#00bfbf;stroke-width:1.5;" x="338.688" xlink:href="#mc33ac05b28" y="246.168042"/>
     <use style="fill-opacity:0;stroke:#00bfbf;stroke-width:1.5;" x="369.60768" xlink:href="#mc33ac05b28" y="68.404848"/>
    </g>
   </g>
   <g id="line2d_64">
    <path d="M 338.688 240.431525 
L 369.60768 12.232871 
" style="fill:none;stroke:#008000;stroke-linecap:square;stroke-width:1.5;"/>
    <g>
     <use style="fill-opacity:0;stroke:#008000;stroke-linejoin:miter;stroke-width:1.5;" x="338.688" xlink:href="#m4708883aeb" y="240.431525"/>
     <use style="fill-opacity:0;stroke:#008000;stroke-linejoin:miter;stroke-width:1.5;" x="369.60768" xlink:href="#m4708883aeb" y="12.232871"/>
    </g>
   </g>
   <g id="line2d_65">
    <path d="M 338.688 298.944 
L 338.688 6.381624 
" style="fill:none;stroke:#000000;stroke-linecap:square;stroke-width:1.5;"/>
   </g>
   <g id="patch_3">
    <path d="M 57.6 298.944 
L 57.6 3.456 
" style="fill:none;stroke:#000000;stroke-linecap:square;stroke-linejoin:miter;stroke-width:0.8;"/>
   </g>
   <g id="patch_4">
    <path d="M 338.688 298.944 
L 338.688 3.456 
" style="fill:none;stroke:#000000;stroke-linecap:square;stroke-linejoin:miter;stroke-width:0.8;"/>
   </g>
   <g id="patch_5">
    <path d="M 57.6 298.944 
L 338.688 298.944 
" style="fill:none;stroke:#000000;stroke-linecap:square;stroke-linejoin:miter;stroke-width:0.8;"/>
   </g>
   <g id="patch_6">
    <path d="M 57.6 3.456 
L 338.688 3.456 
" style="fill:none;stroke:#000000;stroke-linecap:square;stroke-linejoin:miter;stroke-width:0.8;"/>
   </g>
   <g id="text_13">
    <!-- 40-D -->
    <g transform="translate(375.22944 297.78369)scale(0.17 -0.17)">
     <defs>
      <path d="M 19.671875 64.796875 
L 19.671875 8.109375 
L 31.59375 8.109375 
Q 46.6875 8.109375 53.6875 14.9375 
Q 60.6875 21.78125 60.6875 36.53125 
Q 60.6875 51.171875 53.6875 57.984375 
Q 46.6875 64.796875 31.59375 64.796875 
z
M 9.8125 72.90625 
L 30.078125 72.90625 
Q 51.265625 72.90625 61.171875 64.09375 
Q 71.09375 55.28125 71.09375 36.53125 
Q 71.09375 17.671875 61.125 8.828125 
Q 51.171875 0 30.078125 0 
L 9.8125 0 
z
" id="DejaVuSans-68"/>
     </defs>
     <use xlink:href="#DejaVuSans-52"/>
     <use x="63.623047" xlink:href="#DejaVuSans-48"/>
     <use x="127.246094" xlink:href="#DejaVuSans-45"/>
     <use x="163.330078" xlink:href="#DejaVuSans-68"/>
    </g>
   </g>
   <g id="text_14">
    <!-- 20-D -->
    <g transform="translate(375.22944 241.611714)scale(0.17 -0.17)">
     <use xlink:href="#DejaVuSans-50"/>
     <use x="63.623047" xlink:href="#DejaVuSans-48"/>
     <use x="127.246094" xlink:href="#DejaVuSans-45"/>
     <use x="163.330078" xlink:href="#DejaVuSans-68"/>
    </g>
   </g>
   <g id="text_15">
    <!-- 10-D -->
    <g transform="translate(375.22944 185.439737)scale(0.17 -0.17)">
     <use xlink:href="#DejaVuSans-49"/>
     <use x="63.623047" xlink:href="#DejaVuSans-48"/>
     <use x="127.246094" xlink:href="#DejaVuSans-45"/>
     <use x="163.330078" xlink:href="#DejaVuSans-68"/>
    </g>
   </g>
   <g id="text_16">
    <!-- 5-D -->
    <g transform="translate(375.22944 129.267761)scale(0.17 -0.17)">
     <defs>
      <path d="M 10.796875 72.90625 
L 49.515625 72.90625 
L 49.515625 64.59375 
L 19.828125 64.59375 
L 19.828125 46.734375 
Q 21.96875 47.46875 24.109375 47.828125 
Q 26.265625 48.1875 28.421875 48.1875 
Q 40.625 48.1875 47.75 41.5 
Q 54.890625 34.8125 54.890625 23.390625 
Q 54.890625 11.625 47.5625 5.09375 
Q 40.234375 -1.421875 26.90625 -1.421875 
Q 22.3125 -1.421875 17.546875 -0.640625 
Q 12.796875 0.140625 7.71875 1.703125 
L 7.71875 11.625 
Q 12.109375 9.234375 16.796875 8.0625 
Q 21.484375 6.890625 26.703125 6.890625 
Q 35.15625 6.890625 40.078125 11.328125 
Q 45.015625 15.765625 45.015625 23.390625 
Q 45.015625 31 40.078125 35.4375 
Q 35.15625 39.890625 26.703125 39.890625 
Q 22.75 39.890625 18.8125 39.015625 
Q 14.890625 38.140625 10.796875 36.28125 
z
" id="DejaVuSans-53"/>
     </defs>
     <use xlink:href="#DejaVuSans-53"/>
     <use x="63.623047" xlink:href="#DejaVuSans-45"/>
     <use x="99.707031" xlink:href="#DejaVuSans-68"/>
    </g>
   </g>
   <g id="text_17">
    <!-- 2-D -->
    <g transform="translate(375.22944 73.095785)scale(0.17 -0.17)">
     <use xlink:href="#DejaVuSans-50"/>
     <use x="63.623047" xlink:href="#DejaVuSans-45"/>
     <use x="99.707031" xlink:href="#DejaVuSans-68"/>
    </g>
   </g>
   <g id="text_18">
    <!-- 3-D -->
    <g transform="translate(375.22944 16.923809)scale(0.17 -0.17)">
     <defs>
      <path d="M 40.578125 39.3125 
Q 47.65625 37.796875 51.625 33 
Q 55.609375 28.21875 55.609375 21.1875 
Q 55.609375 10.40625 48.1875 4.484375 
Q 40.765625 -1.421875 27.09375 -1.421875 
Q 22.515625 -1.421875 17.65625 -0.515625 
Q 12.796875 0.390625 7.625 2.203125 
L 7.625 11.71875 
Q 11.71875 9.328125 16.59375 8.109375 
Q 21.484375 6.890625 26.8125 6.890625 
Q 36.078125 6.890625 40.9375 10.546875 
Q 45.796875 14.203125 45.796875 21.1875 
Q 45.796875 27.640625 41.28125 31.265625 
Q 36.765625 34.90625 28.71875 34.90625 
L 20.21875 34.90625 
L 20.21875 43.015625 
L 29.109375 43.015625 
Q 36.375 43.015625 40.234375 45.921875 
Q 44.09375 48.828125 44.09375 54.296875 
Q 44.09375 59.90625 40.109375 62.90625 
Q 36.140625 65.921875 28.71875 65.921875 
Q 24.65625 65.921875 20.015625 65.03125 
Q 15.375 64.15625 9.8125 62.3125 
L 9.8125 71.09375 
Q 15.4375 72.65625 20.34375 73.4375 
Q 25.25 74.21875 29.59375 74.21875 
Q 40.828125 74.21875 47.359375 69.109375 
Q 53.90625 64.015625 53.90625 55.328125 
Q 53.90625 49.265625 50.4375 45.09375 
Q 46.96875 40.921875 40.578125 39.3125 
z
" id="DejaVuSans-51"/>
     </defs>
     <use xlink:href="#DejaVuSans-51"/>
     <use x="63.623047" xlink:href="#DejaVuSans-45"/>
     <use x="99.707031" xlink:href="#DejaVuSans-68"/>
    </g>
   </g>
   <g id="text_19">
    <!-- bbob f15-f19 -->
    <g transform="translate(60.41088 14.161286)scale(0.102 -0.102)">
     <defs>
      <path d="M 48.6875 27.296875 
Q 48.6875 37.203125 44.609375 42.84375 
Q 40.53125 48.484375 33.40625 48.484375 
Q 26.265625 48.484375 22.1875 42.84375 
Q 18.109375 37.203125 18.109375 27.296875 
Q 18.109375 17.390625 22.1875 11.75 
Q 26.265625 6.109375 33.40625 6.109375 
Q 40.53125 6.109375 44.609375 11.75 
Q 48.6875 17.390625 48.6875 27.296875 
z
M 18.109375 46.390625 
Q 20.953125 51.265625 25.265625 53.625 
Q 29.59375 56 35.59375 56 
Q 45.5625 56 51.78125 48.09375 
Q 58.015625 40.1875 58.015625 27.296875 
Q 58.015625 14.40625 51.78125 6.484375 
Q 45.5625 -1.421875 35.59375 -1.421875 
Q 29.59375 -1.421875 25.265625 0.953125 
Q 20.953125 3.328125 18.109375 8.203125 
L 18.109375 0 
L 9.078125 0 
L 9.078125 75.984375 
L 18.109375 75.984375 
z
" id="DejaVuSans-98"/>
      <path d="M 10.984375 1.515625 
L 10.984375 10.5 
Q 14.703125 8.734375 18.5 7.8125 
Q 22.3125 6.890625 25.984375 6.890625 
Q 35.75 6.890625 40.890625 13.453125 
Q 46.046875 20.015625 46.78125 33.40625 
Q 43.953125 29.203125 39.59375 26.953125 
Q 35.25 24.703125 29.984375 24.703125 
Q 19.046875 24.703125 12.671875 31.3125 
Q 6.296875 37.9375 6.296875 49.421875 
Q 6.296875 60.640625 12.9375 67.421875 
Q 19.578125 74.21875 30.609375 74.21875 
Q 43.265625 74.21875 49.921875 64.515625 
Q 56.59375 54.828125 56.59375 36.375 
Q 56.59375 19.140625 48.40625 8.859375 
Q 40.234375 -1.421875 26.421875 -1.421875 
Q 22.703125 -1.421875 18.890625 -0.6875 
Q 15.09375 0.046875 10.984375 1.515625 
z
M 30.609375 32.421875 
Q 37.25 32.421875 41.125 36.953125 
Q 45.015625 41.5 45.015625 49.421875 
Q 45.015625 57.28125 41.125 61.84375 
Q 37.25 66.40625 30.609375 66.40625 
Q 23.96875 66.40625 20.09375 61.84375 
Q 16.21875 57.28125 16.21875 49.421875 
Q 16.21875 41.5 20.09375 36.953125 
Q 23.96875 32.421875 30.609375 32.421875 
z
" id="DejaVuSans-57"/>
     </defs>
     <use xlink:href="#DejaVuSans-98"/>
     <use x="63.476562" xlink:href="#DejaVuSans-98"/>
     <use x="126.953125" xlink:href="#DejaVuSans-111"/>
     <use x="188.134766" xlink:href="#DejaVuSans-98"/>
     <use x="251.611328" xlink:href="#DejaVuSans-32"/>
     <use x="283.398438" xlink:href="#DejaVuSans-102"/>
     <use x="318.603516" xlink:href="#DejaVuSans-49"/>
     <use x="382.226562" xlink:href="#DejaVuSans-53"/>
     <use x="445.849609" xlink:href="#DejaVuSans-45"/>
     <use x="481.933594" xlink:href="#DejaVuSans-102"/>
     <use x="517.138672" xlink:href="#DejaVuSans-49"/>
     <use x="580.761719" xlink:href="#DejaVuSans-57"/>
    </g>
    <!-- 51 targets: 100..1e-08 -->
    <g transform="translate(60.41088 25.583055)scale(0.102 -0.102)">
     <defs>
      <path d="M 11.71875 12.40625 
L 22.015625 12.40625 
L 22.015625 0 
L 11.71875 0 
z
M 11.71875 51.703125 
L 22.015625 51.703125 
L 22.015625 39.3125 
L 11.71875 39.3125 
z
" id="DejaVuSans-58"/>
     </defs>
     <use xlink:href="#DejaVuSans-53"/>
     <use x="63.623047" xlink:href="#DejaVuSans-49"/>
     <use x="127.246094" xlink:href="#DejaVuSans-32"/>
     <use x="159.033203" xlink:href="#DejaVuSans-116"/>
     <use x="198.242188" xlink:href="#DejaVuSans-97"/>
     <use x="259.521484" xlink:href="#DejaVuSans-114"/>
     <use x="298.884766" xlink:href="#DejaVuSans-103"/>
     <use x="362.361328" xlink:href="#DejaVuSans-101"/>
     <use x="423.884766" xlink:href="#DejaVuSans-116"/>
     <use x="463.09375" xlink:href="#DejaVuSans-115"/>
     <use x="515.193359" xlink:href="#DejaVuSans-58"/>
     <use x="548.884766" xlink:href="#DejaVuSans-32"/>
     <use x="580.671875" xlink:href="#DejaVuSans-49"/>
     <use x="644.294922" xlink:href="#DejaVuSans-48"/>
     <use x="707.917969" xlink:href="#DejaVuSans-48"/>
     <use x="771.541016" xlink:href="#DejaVuSans-46"/>
     <use x="803.328125" xlink:href="#DejaVuSans-46"/>
     <use x="835.115234" xlink:href="#DejaVuSans-49"/>
     <use x="898.738281" xlink:href="#DejaVuSans-101"/>
     <use x="960.261719" xlink:href="#DejaVuSans-45"/>
     <use x="996.345703" xlink:href="#DejaVuSans-48"/>
     <use x="1059.96875" xlink:href="#DejaVuSans-56"/>
    </g>
    <!-- 15 instances -->
    <g transform="translate(60.41088 37.004824)scale(0.102 -0.102)">
     <use xlink:href="#DejaVuSans-49"/>
     <use x="63.623047" xlink:href="#DejaVuSans-53"/>
     <use x="127.246094" xlink:href="#DejaVuSans-32"/>
     <use x="159.033203" xlink:href="#DejaVuSans-105"/>
     <use x="186.816406" xlink:href="#DejaVuSans-110"/>
     <use x="250.195312" xlink:href="#DejaVuSans-115"/>
     <use x="302.294922" xlink:href="#DejaVuSans-116"/>
     <use x="341.503906" xlink:href="#DejaVuSans-97"/>
     <use x="402.783203" xlink:href="#DejaVuSans-110"/>
     <use x="466.162109" xlink:href="#DejaVuSans-99"/>
     <use x="521.142578" xlink:href="#DejaVuSans-101"/>
     <use x="582.666016" xlink:href="#DejaVuSans-115"/>
    </g>
   </g>
   <g id="text_20">
    <!-- v2.4 -->
    <g style="fill:#808080;" transform="translate(187.233062 293.909432)scale(0.1 -0.1)">
     <use xlink:href="#DejaVuSans-118"/>
     <use x="59.179688" xlink:href="#DejaVuSans-50"/>
     <use x="122.802734" xlink:href="#DejaVuSans-46"/>
     <use x="154.589844" xlink:href="#DejaVuSans-52"/>
    </g>
   </g>
  </g>
 </g>
 <defs>
  <clipPath id="p1a95192354">
   <rect height="295.488" width="281.088" x="57.6" y="3.456"/>
  </clipPath>
 </defs>
</svg>
