<?xml version="1.0" encoding="utf-8" standalone="no"?>
<!DOCTYPE svg PUBLIC "-//W3C//DTD SVG 1.1//EN"
  "http://www.w3.org/Graphics/SVG/1.1/DTD/svg11.dtd">
<!-- Created with matplotlib (https://matplotlib.org/) -->
<svg height="345.6pt" version="1.1" viewBox="0 0 460.8 345.6" width="460.8pt" xmlns="http://www.w3.org/2000/svg" xmlns:xlink="http://www.w3.org/1999/xlink">
 <metadata>
  <rdf:RDF xmlns:cc="http://creativecommons.org/ns#" xmlns:dc="http://purl.org/dc/elements/1.1/" xmlns:rdf="http://www.w3.org/1999/02/22-rdf-syntax-ns#">
   <cc:Work>
    <dc:type rdf:resource="http://purl.org/dc/dcmitype/StillImage"/>
    <dc:date>2021-08-04T15:02:15.206087</dc:date>
    <dc:format>image/svg+xml</dc:format>
    <dc:creator>
     <cc:Agent>
      <dc:title>Matplotlib v3.3.1, https://matplotlib.org/</dc:title>
     </cc:Agent>
    </dc:creator>
   </cc:Work>
  </rdf:RDF>
 </metadata>
 <defs>
  <style type="text/css">*{stroke-linecap:butt;stroke-linejoin:round;}</style>
 </defs>
 <g id="figure_1">
  <g id="patch_1">
   <path d="M 0 345.6 
L 460.8 345.6 
L 460.8 0 
L 0 0 
z
" style="fill:#ffffff;"/>
  </g>
  <g id="axes_1">
   <g id="patch_2">
    <path d="M 57.6 298.944 
L 338.688 298.944 
L 338.688 27.648 
L 57.6 27.648 
z
" style="fill:#ffffff;"/>
   </g>
   <g id="matplotlib.axis_1">
    <g id="xtick_1">
     <g id="line2d_1">
      <path clip-path="url(#pe4b71c7d06)" d="M 57.6 298.944 
L 57.6 27.648 
" style="fill:none;stroke:#b0b0b0;stroke-linecap:square;stroke-width:0.8;"/>
     </g>
     <g id="line2d_2">
      <defs>
       <path d="M 0 0 
L 0 3.5 
" id="m59271a8269" style="stroke:#000000;stroke-width:0.8;"/>
      </defs>
      <g>
       <use style="stroke:#000000;stroke-width:0.8;" x="57.6" xlink:href="#m59271a8269" y="298.944"/>
      </g>
     </g>
     <g id="text_1">
      <!-- 0 -->
      <g transform="translate(51.2375 321.140875)scale(0.2 -0.2)">
       <defs>
        <path d="M 31.78125 66.40625 
Q 24.171875 66.40625 20.328125 58.90625 
Q 16.5 51.421875 16.5 36.375 
Q 16.5 21.390625 20.328125 13.890625 
Q 24.171875 6.390625 31.78125 6.390625 
Q 39.453125 6.390625 43.28125 13.890625 
Q 47.125 21.390625 47.125 36.375 
Q 47.125 51.421875 43.28125 58.90625 
Q 39.453125 66.40625 31.78125 66.40625 
z
M 31.78125 74.21875 
Q 44.046875 74.21875 50.515625 64.515625 
Q 56.984375 54.828125 56.984375 36.375 
Q 56.984375 17.96875 50.515625 8.265625 
Q 44.046875 -1.421875 31.78125 -1.421875 
Q 19.53125 -1.421875 13.0625 8.265625 
Q 6.59375 17.96875 6.59375 36.375 
Q 6.59375 54.828125 13.0625 64.515625 
Q 19.53125 74.21875 31.78125 74.21875 
z
" id="DejaVuSans-48"/>
       </defs>
       <use xlink:href="#DejaVuSans-48"/>
      </g>
     </g>
    </g>
    <g id="xtick_2">
     <g id="line2d_3">
      <path clip-path="url(#pe4b71c7d06)" d="M 137.910857 298.944 
L 137.910857 27.648 
" style="fill:none;stroke:#b0b0b0;stroke-linecap:square;stroke-width:0.8;"/>
     </g>
     <g id="line2d_4">
      <g>
       <use style="stroke:#000000;stroke-width:0.8;" x="137.910857" xlink:href="#m59271a8269" y="298.944"/>
      </g>
     </g>
     <g id="text_2">
      <!-- 2 -->
      <g transform="translate(131.548357 321.140875)scale(0.2 -0.2)">
       <defs>
        <path d="M 19.1875 8.296875 
L 53.609375 8.296875 
L 53.609375 0 
L 7.328125 0 
L 7.328125 8.296875 
Q 12.9375 14.109375 22.625 23.890625 
Q 32.328125 33.6875 34.8125 36.53125 
Q 39.546875 41.84375 41.421875 45.53125 
Q 43.3125 49.21875 43.3125 52.78125 
Q 43.3125 58.59375 39.234375 62.25 
Q 35.15625 65.921875 28.609375 65.921875 
Q 23.96875 65.921875 18.8125 64.3125 
Q 13.671875 62.703125 7.8125 59.421875 
L 7.8125 69.390625 
Q 13.765625 71.78125 18.9375 73 
Q 24.125 74.21875 28.421875 74.21875 
Q 39.75 74.21875 46.484375 68.546875 
Q 53.21875 62.890625 53.21875 53.421875 
Q 53.21875 48.921875 51.53125 44.890625 
Q 49.859375 40.875 45.40625 35.40625 
Q 44.1875 33.984375 37.640625 27.21875 
Q 31.109375 20.453125 19.1875 8.296875 
z
" id="DejaVuSans-50"/>
       </defs>
       <use xlink:href="#DejaVuSans-50"/>
      </g>
     </g>
    </g>
    <g id="xtick_3">
     <g id="line2d_5">
      <path clip-path="url(#pe4b71c7d06)" d="M 218.221714 298.944 
L 218.221714 27.648 
" style="fill:none;stroke:#b0b0b0;stroke-linecap:square;stroke-width:0.8;"/>
     </g>
     <g id="line2d_6">
      <g>
       <use style="stroke:#000000;stroke-width:0.8;" x="218.221714" xlink:href="#m59271a8269" y="298.944"/>
      </g>
     </g>
     <g id="text_3">
      <!-- 4 -->
      <g transform="translate(211.859214 321.140875)scale(0.2 -0.2)">
       <defs>
        <path d="M 37.796875 64.3125 
L 12.890625 25.390625 
L 37.796875 25.390625 
z
M 35.203125 72.90625 
L 47.609375 72.90625 
L 47.609375 25.390625 
L 58.015625 25.390625 
L 58.015625 17.1875 
L 47.609375 17.1875 
L 47.609375 0 
L 37.796875 0 
L 37.796875 17.1875 
L 4.890625 17.1875 
L 4.890625 26.703125 
z
" id="DejaVuSans-52"/>
       </defs>
       <use xlink:href="#DejaVuSans-52"/>
      </g>
     </g>
    </g>
    <g id="xtick_4">
     <g id="line2d_7">
      <path clip-path="url(#pe4b71c7d06)" d="M 298.532571 298.944 
L 298.532571 27.648 
" style="fill:none;stroke:#b0b0b0;stroke-linecap:square;stroke-width:0.8;"/>
     </g>
     <g id="line2d_8">
      <g>
       <use style="stroke:#000000;stroke-width:0.8;" x="298.532571" xlink:href="#m59271a8269" y="298.944"/>
      </g>
     </g>
     <g id="text_4">
      <!-- 6 -->
      <g transform="translate(292.170071 321.140875)scale(0.2 -0.2)">
       <defs>
        <path d="M 33.015625 40.375 
Q 26.375 40.375 22.484375 35.828125 
Q 18.609375 31.296875 18.609375 23.390625 
Q 18.609375 15.53125 22.484375 10.953125 
Q 26.375 6.390625 33.015625 6.390625 
Q 39.65625 6.390625 43.53125 10.953125 
Q 47.40625 15.53125 47.40625 23.390625 
Q 47.40625 31.296875 43.53125 35.828125 
Q 39.65625 40.375 33.015625 40.375 
z
M 52.59375 71.296875 
L 52.59375 62.3125 
Q 48.875 64.0625 45.09375 64.984375 
Q 41.3125 65.921875 37.59375 65.921875 
Q 27.828125 65.921875 22.671875 59.328125 
Q 17.53125 52.734375 16.796875 39.40625 
Q 19.671875 43.65625 24.015625 45.921875 
Q 28.375 48.1875 33.59375 48.1875 
Q 44.578125 48.1875 50.953125 41.515625 
Q 57.328125 34.859375 57.328125 23.390625 
Q 57.328125 12.15625 50.6875 5.359375 
Q 44.046875 -1.421875 33.015625 -1.421875 
Q 20.359375 -1.421875 13.671875 8.265625 
Q 6.984375 17.96875 6.984375 36.375 
Q 6.984375 53.65625 15.1875 63.9375 
Q 23.390625 74.21875 37.203125 74.21875 
Q 40.921875 74.21875 44.703125 73.484375 
Q 48.484375 72.75 52.59375 71.296875 
z
" id="DejaVuSans-54"/>
       </defs>
       <use xlink:href="#DejaVuSans-54"/>
      </g>
     </g>
    </g>
    <g id="xtick_5">
     <g id="line2d_9">
      <path clip-path="url(#pe4b71c7d06)" d="M 97.755429 298.944 
L 97.755429 27.648 
" style="fill:none;stroke:#b0b0b0;stroke-linecap:square;stroke-width:0.8;"/>
     </g>
     <g id="line2d_10">
      <defs>
       <path d="M 0 0 
L 0 2 
" id="m2cb9fda74e" style="stroke:#000000;stroke-width:0.6;"/>
      </defs>
      <g>
       <use style="stroke:#000000;stroke-width:0.6;" x="97.755429" xlink:href="#m2cb9fda74e" y="298.944"/>
      </g>
     </g>
    </g>
    <g id="xtick_6">
     <g id="line2d_11">
      <path clip-path="url(#pe4b71c7d06)" d="M 178.066286 298.944 
L 178.066286 27.648 
" style="fill:none;stroke:#b0b0b0;stroke-linecap:square;stroke-width:0.8;"/>
     </g>
     <g id="line2d_12">
      <g>
       <use style="stroke:#000000;stroke-width:0.6;" x="178.066286" xlink:href="#m2cb9fda74e" y="298.944"/>
      </g>
     </g>
    </g>
    <g id="xtick_7">
     <g id="line2d_13">
      <path clip-path="url(#pe4b71c7d06)" d="M 258.377143 298.944 
L 258.377143 27.648 
" style="fill:none;stroke:#b0b0b0;stroke-linecap:square;stroke-width:0.8;"/>
     </g>
     <g id="line2d_14">
      <g>
       <use style="stroke:#000000;stroke-width:0.6;" x="258.377143" xlink:href="#m2cb9fda74e" y="298.944"/>
      </g>
     </g>
    </g>
    <g id="xtick_8">
     <g id="line2d_15">
      <path clip-path="url(#pe4b71c7d06)" d="M 338.688 298.944 
L 338.688 27.648 
" style="fill:none;stroke:#b0b0b0;stroke-linecap:square;stroke-width:0.8;"/>
     </g>
     <g id="line2d_16">
      <g>
       <use style="stroke:#000000;stroke-width:0.6;" x="338.688" xlink:href="#m2cb9fda74e" y="298.944"/>
      </g>
     </g>
    </g>
    <g id="text_5">
     <!-- log10(# f-evals / dimension) -->
     <g transform="translate(77.764078 342.217594)scale(0.17 -0.17)">
      <defs>
       <path d="M 9.421875 75.984375 
L 18.40625 75.984375 
L 18.40625 0 
L 9.421875 0 
z
" id="DejaVuSans-108"/>
       <path d="M 30.609375 48.390625 
Q 23.390625 48.390625 19.1875 42.75 
Q 14.984375 37.109375 14.984375 27.296875 
Q 14.984375 17.484375 19.15625 11.84375 
Q 23.34375 6.203125 30.609375 6.203125 
Q 37.796875 6.203125 41.984375 11.859375 
Q 46.1875 17.53125 46.1875 27.296875 
Q 46.1875 37.015625 41.984375 42.703125 
Q 37.796875 48.390625 30.609375 48.390625 
z
M 30.609375 56 
Q 42.328125 56 49.015625 48.375 
Q 55.71875 40.765625 55.71875 27.296875 
Q 55.71875 13.875 49.015625 6.21875 
Q 42.328125 -1.421875 30.609375 -1.421875 
Q 18.84375 -1.421875 12.171875 6.21875 
Q 5.515625 13.875 5.515625 27.296875 
Q 5.515625 40.765625 12.171875 48.375 
Q 18.84375 56 30.609375 56 
z
" id="DejaVuSans-111"/>
       <path d="M 45.40625 27.984375 
Q 45.40625 37.75 41.375 43.109375 
Q 37.359375 48.484375 30.078125 48.484375 
Q 22.859375 48.484375 18.828125 43.109375 
Q 14.796875 37.75 14.796875 27.984375 
Q 14.796875 18.265625 18.828125 12.890625 
Q 22.859375 7.515625 30.078125 7.515625 
Q 37.359375 7.515625 41.375 12.890625 
Q 45.40625 18.265625 45.40625 27.984375 
z
M 54.390625 6.78125 
Q 54.390625 -7.171875 48.1875 -13.984375 
Q 42 -20.796875 29.203125 -20.796875 
Q 24.46875 -20.796875 20.265625 -20.09375 
Q 16.0625 -19.390625 12.109375 -17.921875 
L 12.109375 -9.1875 
Q 16.0625 -11.328125 19.921875 -12.34375 
Q 23.78125 -13.375 27.78125 -13.375 
Q 36.625 -13.375 41.015625 -8.765625 
Q 45.40625 -4.15625 45.40625 5.171875 
L 45.40625 9.625 
Q 42.625 4.78125 38.28125 2.390625 
Q 33.9375 0 27.875 0 
Q 17.828125 0 11.671875 7.65625 
Q 5.515625 15.328125 5.515625 27.984375 
Q 5.515625 40.671875 11.671875 48.328125 
Q 17.828125 56 27.875 56 
Q 33.9375 56 38.28125 53.609375 
Q 42.625 51.21875 45.40625 46.390625 
L 45.40625 54.6875 
L 54.390625 54.6875 
z
" id="DejaVuSans-103"/>
       <path d="M 12.40625 8.296875 
L 28.515625 8.296875 
L 28.515625 63.921875 
L 10.984375 60.40625 
L 10.984375 69.390625 
L 28.421875 72.90625 
L 38.28125 72.90625 
L 38.28125 8.296875 
L 54.390625 8.296875 
L 54.390625 0 
L 12.40625 0 
z
" id="DejaVuSans-49"/>
       <path d="M 31 75.875 
Q 24.46875 64.65625 21.28125 53.65625 
Q 18.109375 42.671875 18.109375 31.390625 
Q 18.109375 20.125 21.3125 9.0625 
Q 24.515625 -2 31 -13.1875 
L 23.1875 -13.1875 
Q 15.875 -1.703125 12.234375 9.375 
Q 8.59375 20.453125 8.59375 31.390625 
Q 8.59375 42.28125 12.203125 53.3125 
Q 15.828125 64.359375 23.1875 75.875 
z
" id="DejaVuSans-40"/>
       <path d="M 51.125 44 
L 36.921875 44 
L 32.8125 27.6875 
L 47.125 27.6875 
z
M 43.796875 71.78125 
L 38.71875 51.515625 
L 52.984375 51.515625 
L 58.109375 71.78125 
L 65.921875 71.78125 
L 60.890625 51.515625 
L 76.125 51.515625 
L 76.125 44 
L 58.984375 44 
L 54.984375 27.6875 
L 70.515625 27.6875 
L 70.515625 20.21875 
L 53.078125 20.21875 
L 48 0 
L 40.1875 0 
L 45.21875 20.21875 
L 30.90625 20.21875 
L 25.875 0 
L 18.015625 0 
L 23.09375 20.21875 
L 7.71875 20.21875 
L 7.71875 27.6875 
L 24.90625 27.6875 
L 29 44 
L 13.28125 44 
L 13.28125 51.515625 
L 30.90625 51.515625 
L 35.890625 71.78125 
z
" id="DejaVuSans-35"/>
       <path id="DejaVuSans-32"/>
       <path d="M 37.109375 75.984375 
L 37.109375 68.5 
L 28.515625 68.5 
Q 23.6875 68.5 21.796875 66.546875 
Q 19.921875 64.59375 19.921875 59.515625 
L 19.921875 54.6875 
L 34.71875 54.6875 
L 34.71875 47.703125 
L 19.921875 47.703125 
L 19.921875 0 
L 10.890625 0 
L 10.890625 47.703125 
L 2.296875 47.703125 
L 2.296875 54.6875 
L 10.890625 54.6875 
L 10.890625 58.5 
Q 10.890625 67.625 15.140625 71.796875 
Q 19.390625 75.984375 28.609375 75.984375 
z
" id="DejaVuSans-102"/>
       <path d="M 4.890625 31.390625 
L 31.203125 31.390625 
L 31.203125 23.390625 
L 4.890625 23.390625 
z
" id="DejaVuSans-45"/>
       <path d="M 56.203125 29.59375 
L 56.203125 25.203125 
L 14.890625 25.203125 
Q 15.484375 15.921875 20.484375 11.0625 
Q 25.484375 6.203125 34.421875 6.203125 
Q 39.59375 6.203125 44.453125 7.46875 
Q 49.3125 8.734375 54.109375 11.28125 
L 54.109375 2.78125 
Q 49.265625 0.734375 44.1875 -0.34375 
Q 39.109375 -1.421875 33.890625 -1.421875 
Q 20.796875 -1.421875 13.15625 6.1875 
Q 5.515625 13.8125 5.515625 26.8125 
Q 5.515625 40.234375 12.765625 48.109375 
Q 20.015625 56 32.328125 56 
Q 43.359375 56 49.78125 48.890625 
Q 56.203125 41.796875 56.203125 29.59375 
z
M 47.21875 32.234375 
Q 47.125 39.59375 43.09375 43.984375 
Q 39.0625 48.390625 32.421875 48.390625 
Q 24.90625 48.390625 20.390625 44.140625 
Q 15.875 39.890625 15.1875 32.171875 
z
" id="DejaVuSans-101"/>
       <path d="M 2.984375 54.6875 
L 12.5 54.6875 
L 29.59375 8.796875 
L 46.6875 54.6875 
L 56.203125 54.6875 
L 35.6875 0 
L 23.484375 0 
z
" id="DejaVuSans-118"/>
       <path d="M 34.28125 27.484375 
Q 23.390625 27.484375 19.1875 25 
Q 14.984375 22.515625 14.984375 16.5 
Q 14.984375 11.71875 18.140625 8.90625 
Q 21.296875 6.109375 26.703125 6.109375 
Q 34.1875 6.109375 38.703125 11.40625 
Q 43.21875 16.703125 43.21875 25.484375 
L 43.21875 27.484375 
z
M 52.203125 31.203125 
L 52.203125 0 
L 43.21875 0 
L 43.21875 8.296875 
Q 40.140625 3.328125 35.546875 0.953125 
Q 30.953125 -1.421875 24.3125 -1.421875 
Q 15.921875 -1.421875 10.953125 3.296875 
Q 6 8.015625 6 15.921875 
Q 6 25.140625 12.171875 29.828125 
Q 18.359375 34.515625 30.609375 34.515625 
L 43.21875 34.515625 
L 43.21875 35.40625 
Q 43.21875 41.609375 39.140625 45 
Q 35.0625 48.390625 27.6875 48.390625 
Q 23 48.390625 18.546875 47.265625 
Q 14.109375 46.140625 10.015625 43.890625 
L 10.015625 52.203125 
Q 14.9375 54.109375 19.578125 55.046875 
Q 24.21875 56 28.609375 56 
Q 40.484375 56 46.34375 49.84375 
Q 52.203125 43.703125 52.203125 31.203125 
z
" id="DejaVuSans-97"/>
       <path d="M 44.28125 53.078125 
L 44.28125 44.578125 
Q 40.484375 46.53125 36.375 47.5 
Q 32.28125 48.484375 27.875 48.484375 
Q 21.1875 48.484375 17.84375 46.4375 
Q 14.5 44.390625 14.5 40.28125 
Q 14.5 37.15625 16.890625 35.375 
Q 19.28125 33.59375 26.515625 31.984375 
L 29.59375 31.296875 
Q 39.15625 29.25 43.1875 25.515625 
Q 47.21875 21.78125 47.21875 15.09375 
Q 47.21875 7.46875 41.1875 3.015625 
Q 35.15625 -1.421875 24.609375 -1.421875 
Q 20.21875 -1.421875 15.453125 -0.5625 
Q 10.6875 0.296875 5.421875 2 
L 5.421875 11.28125 
Q 10.40625 8.6875 15.234375 7.390625 
Q 20.0625 6.109375 24.8125 6.109375 
Q 31.15625 6.109375 34.5625 8.28125 
Q 37.984375 10.453125 37.984375 14.40625 
Q 37.984375 18.0625 35.515625 20.015625 
Q 33.0625 21.96875 24.703125 23.78125 
L 21.578125 24.515625 
Q 13.234375 26.265625 9.515625 29.90625 
Q 5.8125 33.546875 5.8125 39.890625 
Q 5.8125 47.609375 11.28125 51.796875 
Q 16.75 56 26.8125 56 
Q 31.78125 56 36.171875 55.265625 
Q 40.578125 54.546875 44.28125 53.078125 
z
" id="DejaVuSans-115"/>
       <path d="M 25.390625 72.90625 
L 33.6875 72.90625 
L 8.296875 -9.28125 
L 0 -9.28125 
z
" id="DejaVuSans-47"/>
       <path d="M 45.40625 46.390625 
L 45.40625 75.984375 
L 54.390625 75.984375 
L 54.390625 0 
L 45.40625 0 
L 45.40625 8.203125 
Q 42.578125 3.328125 38.25 0.953125 
Q 33.9375 -1.421875 27.875 -1.421875 
Q 17.96875 -1.421875 11.734375 6.484375 
Q 5.515625 14.40625 5.515625 27.296875 
Q 5.515625 40.1875 11.734375 48.09375 
Q 17.96875 56 27.875 56 
Q 33.9375 56 38.25 53.625 
Q 42.578125 51.265625 45.40625 46.390625 
z
M 14.796875 27.296875 
Q 14.796875 17.390625 18.875 11.75 
Q 22.953125 6.109375 30.078125 6.109375 
Q 37.203125 6.109375 41.296875 11.75 
Q 45.40625 17.390625 45.40625 27.296875 
Q 45.40625 37.203125 41.296875 42.84375 
Q 37.203125 48.484375 30.078125 48.484375 
Q 22.953125 48.484375 18.875 42.84375 
Q 14.796875 37.203125 14.796875 27.296875 
z
" id="DejaVuSans-100"/>
       <path d="M 9.421875 54.6875 
L 18.40625 54.6875 
L 18.40625 0 
L 9.421875 0 
z
M 9.421875 75.984375 
L 18.40625 75.984375 
L 18.40625 64.59375 
L 9.421875 64.59375 
z
" id="DejaVuSans-105"/>
       <path d="M 52 44.1875 
Q 55.375 50.25 60.0625 53.125 
Q 64.75 56 71.09375 56 
Q 79.640625 56 84.28125 50.015625 
Q 88.921875 44.046875 88.921875 33.015625 
L 88.921875 0 
L 79.890625 0 
L 79.890625 32.71875 
Q 79.890625 40.578125 77.09375 44.375 
Q 74.3125 48.1875 68.609375 48.1875 
Q 61.625 48.1875 57.5625 43.546875 
Q 53.515625 38.921875 53.515625 30.90625 
L 53.515625 0 
L 44.484375 0 
L 44.484375 32.71875 
Q 44.484375 40.625 41.703125 44.40625 
Q 38.921875 48.1875 33.109375 48.1875 
Q 26.21875 48.1875 22.15625 43.53125 
Q 18.109375 38.875 18.109375 30.90625 
L 18.109375 0 
L 9.078125 0 
L 9.078125 54.6875 
L 18.109375 54.6875 
L 18.109375 46.1875 
Q 21.1875 51.21875 25.484375 53.609375 
Q 29.78125 56 35.6875 56 
Q 41.65625 56 45.828125 52.96875 
Q 50 49.953125 52 44.1875 
z
" id="DejaVuSans-109"/>
       <path d="M 54.890625 33.015625 
L 54.890625 0 
L 45.90625 0 
L 45.90625 32.71875 
Q 45.90625 40.484375 42.875 44.328125 
Q 39.84375 48.1875 33.796875 48.1875 
Q 26.515625 48.1875 22.3125 43.546875 
Q 18.109375 38.921875 18.109375 30.90625 
L 18.109375 0 
L 9.078125 0 
L 9.078125 54.6875 
L 18.109375 54.6875 
L 18.109375 46.1875 
Q 21.34375 51.125 25.703125 53.5625 
Q 30.078125 56 35.796875 56 
Q 45.21875 56 50.046875 50.171875 
Q 54.890625 44.34375 54.890625 33.015625 
z
" id="DejaVuSans-110"/>
       <path d="M 8.015625 75.875 
L 15.828125 75.875 
Q 23.140625 64.359375 26.78125 53.3125 
Q 30.421875 42.28125 30.421875 31.390625 
Q 30.421875 20.453125 26.78125 9.375 
Q 23.140625 -1.703125 15.828125 -13.1875 
L 8.015625 -13.1875 
Q 14.5 -2 17.703125 9.0625 
Q 20.90625 20.125 20.90625 31.390625 
Q 20.90625 42.671875 17.703125 53.65625 
Q 14.5 64.65625 8.015625 75.875 
z
" id="DejaVuSans-41"/>
      </defs>
      <use xlink:href="#DejaVuSans-108"/>
      <use x="27.783203" xlink:href="#DejaVuSans-111"/>
      <use x="88.964844" xlink:href="#DejaVuSans-103"/>
      <use x="152.441406" xlink:href="#DejaVuSans-49"/>
      <use x="216.064453" xlink:href="#DejaVuSans-48"/>
      <use x="279.6875" xlink:href="#DejaVuSans-40"/>
      <use x="318.701172" xlink:href="#DejaVuSans-35"/>
      <use x="402.490234" xlink:href="#DejaVuSans-32"/>
      <use x="434.277344" xlink:href="#DejaVuSans-102"/>
      <use x="463.982422" xlink:href="#DejaVuSans-45"/>
      <use x="500.066406" xlink:href="#DejaVuSans-101"/>
      <use x="561.589844" xlink:href="#DejaVuSans-118"/>
      <use x="620.769531" xlink:href="#DejaVuSans-97"/>
      <use x="682.048828" xlink:href="#DejaVuSans-108"/>
      <use x="709.832031" xlink:href="#DejaVuSans-115"/>
      <use x="761.931641" xlink:href="#DejaVuSans-32"/>
      <use x="793.71875" xlink:href="#DejaVuSans-47"/>
      <use x="827.410156" xlink:href="#DejaVuSans-32"/>
      <use x="859.197266" xlink:href="#DejaVuSans-100"/>
      <use x="922.673828" xlink:href="#DejaVuSans-105"/>
      <use x="950.457031" xlink:href="#DejaVuSans-109"/>
      <use x="1047.869141" xlink:href="#DejaVuSans-101"/>
      <use x="1109.392578" xlink:href="#DejaVuSans-110"/>
      <use x="1172.771484" xlink:href="#DejaVuSans-115"/>
      <use x="1224.871094" xlink:href="#DejaVuSans-105"/>
      <use x="1252.654297" xlink:href="#DejaVuSans-111"/>
      <use x="1313.835938" xlink:href="#DejaVuSans-110"/>
      <use x="1377.214844" xlink:href="#DejaVuSans-41"/>
     </g>
    </g>
   </g>
   <g id="matplotlib.axis_2">
    <g id="ytick_1">
     <g id="line2d_17">
      <path clip-path="url(#pe4b71c7d06)" d="M 57.6 298.944 
L 338.688 298.944 
" style="fill:none;stroke:#b0b0b0;stroke-linecap:square;stroke-width:0.8;"/>
     </g>
     <g id="line2d_18">
      <defs>
       <path d="M 0 0 
L -3.5 0 
" id="m98a1e8f1e8" style="stroke:#000000;stroke-width:0.8;"/>
      </defs>
      <g>
       <use style="stroke:#000000;stroke-width:0.8;" x="57.6" xlink:href="#m98a1e8f1e8" y="298.944"/>
      </g>
     </g>
     <g id="text_6">
      <!-- 0.0 -->
      <g transform="translate(25.155 305.02275)scale(0.16 -0.16)">
       <defs>
        <path d="M 10.6875 12.40625 
L 21 12.40625 
L 21 0 
L 10.6875 0 
z
" id="DejaVuSans-46"/>
       </defs>
       <use xlink:href="#DejaVuSans-48"/>
       <use x="63.623047" xlink:href="#DejaVuSans-46"/>
       <use x="95.410156" xlink:href="#DejaVuSans-48"/>
      </g>
     </g>
    </g>
    <g id="ytick_2">
     <g id="line2d_19">
      <path clip-path="url(#pe4b71c7d06)" d="M 57.6 245.22202 
L 338.688 245.22202 
" style="fill:none;stroke:#b0b0b0;stroke-linecap:square;stroke-width:0.8;"/>
     </g>
     <g id="line2d_20">
      <g>
       <use style="stroke:#000000;stroke-width:0.8;" x="57.6" xlink:href="#m98a1e8f1e8" y="245.22202"/>
      </g>
     </g>
     <g id="text_7">
      <!-- 0.2 -->
      <g transform="translate(25.155 251.30077)scale(0.16 -0.16)">
       <use xlink:href="#DejaVuSans-48"/>
       <use x="63.623047" xlink:href="#DejaVuSans-46"/>
       <use x="95.410156" xlink:href="#DejaVuSans-50"/>
      </g>
     </g>
    </g>
    <g id="ytick_3">
     <g id="line2d_21">
      <path clip-path="url(#pe4b71c7d06)" d="M 57.6 191.50004 
L 338.688 191.50004 
" style="fill:none;stroke:#b0b0b0;stroke-linecap:square;stroke-width:0.8;"/>
     </g>
     <g id="line2d_22">
      <g>
       <use style="stroke:#000000;stroke-width:0.8;" x="57.6" xlink:href="#m98a1e8f1e8" y="191.50004"/>
      </g>
     </g>
     <g id="text_8">
      <!-- 0.4 -->
      <g transform="translate(25.155 197.57879)scale(0.16 -0.16)">
       <use xlink:href="#DejaVuSans-48"/>
       <use x="63.623047" xlink:href="#DejaVuSans-46"/>
       <use x="95.410156" xlink:href="#DejaVuSans-52"/>
      </g>
     </g>
    </g>
    <g id="ytick_4">
     <g id="line2d_23">
      <path clip-path="url(#pe4b71c7d06)" d="M 57.6 137.778059 
L 338.688 137.778059 
" style="fill:none;stroke:#b0b0b0;stroke-linecap:square;stroke-width:0.8;"/>
     </g>
     <g id="line2d_24">
      <g>
       <use style="stroke:#000000;stroke-width:0.8;" x="57.6" xlink:href="#m98a1e8f1e8" y="137.778059"/>
      </g>
     </g>
     <g id="text_9">
      <!-- 0.6 -->
      <g transform="translate(25.155 143.856809)scale(0.16 -0.16)">
       <use xlink:href="#DejaVuSans-48"/>
       <use x="63.623047" xlink:href="#DejaVuSans-46"/>
       <use x="95.410156" xlink:href="#DejaVuSans-54"/>
      </g>
     </g>
    </g>
    <g id="ytick_5">
     <g id="line2d_25">
      <path clip-path="url(#pe4b71c7d06)" d="M 57.6 84.056079 
L 338.688 84.056079 
" style="fill:none;stroke:#b0b0b0;stroke-linecap:square;stroke-width:0.8;"/>
     </g>
     <g id="line2d_26">
      <g>
       <use style="stroke:#000000;stroke-width:0.8;" x="57.6" xlink:href="#m98a1e8f1e8" y="84.056079"/>
      </g>
     </g>
     <g id="text_10">
      <!-- 0.8 -->
      <g transform="translate(25.155 90.134829)scale(0.16 -0.16)">
       <defs>
        <path d="M 31.78125 34.625 
Q 24.75 34.625 20.71875 30.859375 
Q 16.703125 27.09375 16.703125 20.515625 
Q 16.703125 13.921875 20.71875 10.15625 
Q 24.75 6.390625 31.78125 6.390625 
Q 38.8125 6.390625 42.859375 10.171875 
Q 46.921875 13.96875 46.921875 20.515625 
Q 46.921875 27.09375 42.890625 30.859375 
Q 38.875 34.625 31.78125 34.625 
z
M 21.921875 38.8125 
Q 15.578125 40.375 12.03125 44.71875 
Q 8.5 49.078125 8.5 55.328125 
Q 8.5 64.0625 14.71875 69.140625 
Q 20.953125 74.21875 31.78125 74.21875 
Q 42.671875 74.21875 48.875 69.140625 
Q 55.078125 64.0625 55.078125 55.328125 
Q 55.078125 49.078125 51.53125 44.71875 
Q 48 40.375 41.703125 38.8125 
Q 48.828125 37.15625 52.796875 32.3125 
Q 56.78125 27.484375 56.78125 20.515625 
Q 56.78125 9.90625 50.3125 4.234375 
Q 43.84375 -1.421875 31.78125 -1.421875 
Q 19.734375 -1.421875 13.25 4.234375 
Q 6.78125 9.90625 6.78125 20.515625 
Q 6.78125 27.484375 10.78125 32.3125 
Q 14.796875 37.15625 21.921875 38.8125 
z
M 18.3125 54.390625 
Q 18.3125 48.734375 21.84375 45.5625 
Q 25.390625 42.390625 31.78125 42.390625 
Q 38.140625 42.390625 41.71875 45.5625 
Q 45.3125 48.734375 45.3125 54.390625 
Q 45.3125 60.0625 41.71875 63.234375 
Q 38.140625 66.40625 31.78125 66.40625 
Q 25.390625 66.40625 21.84375 63.234375 
Q 18.3125 60.0625 18.3125 54.390625 
z
" id="DejaVuSans-56"/>
       </defs>
       <use xlink:href="#DejaVuSans-48"/>
       <use x="63.623047" xlink:href="#DejaVuSans-46"/>
       <use x="95.410156" xlink:href="#DejaVuSans-56"/>
      </g>
     </g>
    </g>
    <g id="ytick_6">
     <g id="line2d_27">
      <path clip-path="url(#pe4b71c7d06)" d="M 57.6 30.334099 
L 338.688 30.334099 
" style="fill:none;stroke:#b0b0b0;stroke-linecap:square;stroke-width:0.8;"/>
     </g>
     <g id="line2d_28">
      <g>
       <use style="stroke:#000000;stroke-width:0.8;" x="57.6" xlink:href="#m98a1e8f1e8" y="30.334099"/>
      </g>
     </g>
     <g id="text_11">
      <!-- 1.0 -->
      <g transform="translate(25.155 36.412849)scale(0.16 -0.16)">
       <use xlink:href="#DejaVuSans-49"/>
       <use x="63.623047" xlink:href="#DejaVuSans-46"/>
       <use x="95.410156" xlink:href="#DejaVuSans-48"/>
      </g>
     </g>
    </g>
    <g id="text_12">
     <!-- Fraction of function,target pairs -->
     <g transform="translate(17.619531 297.681)rotate(-90)scale(0.17 -0.17)">
      <defs>
       <path d="M 9.8125 72.90625 
L 51.703125 72.90625 
L 51.703125 64.59375 
L 19.671875 64.59375 
L 19.671875 43.109375 
L 48.578125 43.109375 
L 48.578125 34.8125 
L 19.671875 34.8125 
L 19.671875 0 
L 9.8125 0 
z
" id="DejaVuSans-70"/>
       <path d="M 41.109375 46.296875 
Q 39.59375 47.171875 37.8125 47.578125 
Q 36.03125 48 33.890625 48 
Q 26.265625 48 22.1875 43.046875 
Q 18.109375 38.09375 18.109375 28.8125 
L 18.109375 0 
L 9.078125 0 
L 9.078125 54.6875 
L 18.109375 54.6875 
L 18.109375 46.1875 
Q 20.953125 51.171875 25.484375 53.578125 
Q 30.03125 56 36.53125 56 
Q 37.453125 56 38.578125 55.875 
Q 39.703125 55.765625 41.0625 55.515625 
z
" id="DejaVuSans-114"/>
       <path d="M 48.78125 52.59375 
L 48.78125 44.1875 
Q 44.96875 46.296875 41.140625 47.34375 
Q 37.3125 48.390625 33.40625 48.390625 
Q 24.65625 48.390625 19.8125 42.84375 
Q 14.984375 37.3125 14.984375 27.296875 
Q 14.984375 17.28125 19.8125 11.734375 
Q 24.65625 6.203125 33.40625 6.203125 
Q 37.3125 6.203125 41.140625 7.25 
Q 44.96875 8.296875 48.78125 10.40625 
L 48.78125 2.09375 
Q 45.015625 0.34375 40.984375 -0.53125 
Q 36.96875 -1.421875 32.421875 -1.421875 
Q 20.0625 -1.421875 12.78125 6.34375 
Q 5.515625 14.109375 5.515625 27.296875 
Q 5.515625 40.671875 12.859375 48.328125 
Q 20.21875 56 33.015625 56 
Q 37.15625 56 41.109375 55.140625 
Q 45.0625 54.296875 48.78125 52.59375 
z
" id="DejaVuSans-99"/>
       <path d="M 18.3125 70.21875 
L 18.3125 54.6875 
L 36.8125 54.6875 
L 36.8125 47.703125 
L 18.3125 47.703125 
L 18.3125 18.015625 
Q 18.3125 11.328125 20.140625 9.421875 
Q 21.96875 7.515625 27.59375 7.515625 
L 36.8125 7.515625 
L 36.8125 0 
L 27.59375 0 
Q 17.1875 0 13.234375 3.875 
Q 9.28125 7.765625 9.28125 18.015625 
L 9.28125 47.703125 
L 2.6875 47.703125 
L 2.6875 54.6875 
L 9.28125 54.6875 
L 9.28125 70.21875 
z
" id="DejaVuSans-116"/>
       <path d="M 8.5 21.578125 
L 8.5 54.6875 
L 17.484375 54.6875 
L 17.484375 21.921875 
Q 17.484375 14.15625 20.5 10.265625 
Q 23.53125 6.390625 29.59375 6.390625 
Q 36.859375 6.390625 41.078125 11.03125 
Q 45.3125 15.671875 45.3125 23.6875 
L 45.3125 54.6875 
L 54.296875 54.6875 
L 54.296875 0 
L 45.3125 0 
L 45.3125 8.40625 
Q 42.046875 3.421875 37.71875 1 
Q 33.40625 -1.421875 27.6875 -1.421875 
Q 18.265625 -1.421875 13.375 4.4375 
Q 8.5 10.296875 8.5 21.578125 
z
M 31.109375 56 
z
" id="DejaVuSans-117"/>
       <path d="M 11.71875 12.40625 
L 22.015625 12.40625 
L 22.015625 4 
L 14.015625 -11.625 
L 7.71875 -11.625 
L 11.71875 4 
z
" id="DejaVuSans-44"/>
       <path d="M 18.109375 8.203125 
L 18.109375 -20.796875 
L 9.078125 -20.796875 
L 9.078125 54.6875 
L 18.109375 54.6875 
L 18.109375 46.390625 
Q 20.953125 51.265625 25.265625 53.625 
Q 29.59375 56 35.59375 56 
Q 45.5625 56 51.78125 48.09375 
Q 58.015625 40.1875 58.015625 27.296875 
Q 58.015625 14.40625 51.78125 6.484375 
Q 45.5625 -1.421875 35.59375 -1.421875 
Q 29.59375 -1.421875 25.265625 0.953125 
Q 20.953125 3.328125 18.109375 8.203125 
z
M 48.6875 27.296875 
Q 48.6875 37.203125 44.609375 42.84375 
Q 40.53125 48.484375 33.40625 48.484375 
Q 26.265625 48.484375 22.1875 42.84375 
Q 18.109375 37.203125 18.109375 27.296875 
Q 18.109375 17.390625 22.1875 11.75 
Q 26.265625 6.109375 33.40625 6.109375 
Q 40.53125 6.109375 44.609375 11.75 
Q 48.6875 17.390625 48.6875 27.296875 
z
" id="DejaVuSans-112"/>
      </defs>
      <use xlink:href="#DejaVuSans-70"/>
      <use x="50.269531" xlink:href="#DejaVuSans-114"/>
      <use x="91.382812" xlink:href="#DejaVuSans-97"/>
      <use x="152.662109" xlink:href="#DejaVuSans-99"/>
      <use x="207.642578" xlink:href="#DejaVuSans-116"/>
      <use x="246.851562" xlink:href="#DejaVuSans-105"/>
      <use x="274.634766" xlink:href="#DejaVuSans-111"/>
      <use x="335.816406" xlink:href="#DejaVuSans-110"/>
      <use x="399.195312" xlink:href="#DejaVuSans-32"/>
      <use x="430.982422" xlink:href="#DejaVuSans-111"/>
      <use x="492.164062" xlink:href="#DejaVuSans-102"/>
      <use x="527.369141" xlink:href="#DejaVuSans-32"/>
      <use x="559.15625" xlink:href="#DejaVuSans-102"/>
      <use x="594.361328" xlink:href="#DejaVuSans-117"/>
      <use x="657.740234" xlink:href="#DejaVuSans-110"/>
      <use x="721.119141" xlink:href="#DejaVuSans-99"/>
      <use x="776.099609" xlink:href="#DejaVuSans-116"/>
      <use x="815.308594" xlink:href="#DejaVuSans-105"/>
      <use x="843.091797" xlink:href="#DejaVuSans-111"/>
      <use x="904.273438" xlink:href="#DejaVuSans-110"/>
      <use x="967.652344" xlink:href="#DejaVuSans-44"/>
      <use x="999.439453" xlink:href="#DejaVuSans-116"/>
      <use x="1038.648438" xlink:href="#DejaVuSans-97"/>
      <use x="1099.927734" xlink:href="#DejaVuSans-114"/>
      <use x="1139.291016" xlink:href="#DejaVuSans-103"/>
      <use x="1202.767578" xlink:href="#DejaVuSans-101"/>
      <use x="1264.291016" xlink:href="#DejaVuSans-116"/>
      <use x="1303.5" xlink:href="#DejaVuSans-32"/>
      <use x="1335.287109" xlink:href="#DejaVuSans-112"/>
      <use x="1398.763672" xlink:href="#DejaVuSans-97"/>
      <use x="1460.042969" xlink:href="#DejaVuSans-105"/>
      <use x="1487.826172" xlink:href="#DejaVuSans-114"/>
      <use x="1528.939453" xlink:href="#DejaVuSans-115"/>
     </g>
    </g>
   </g>
   <g id="line2d_29">
    <defs>
     <path d="M 0 1.5 
C 0.397805 1.5 0.77937 1.341951 1.06066 1.06066 
C 1.341951 0.77937 1.5 0.397805 1.5 0 
C 1.5 -0.397805 1.341951 -0.77937 1.06066 -1.06066 
C 0.77937 -1.341951 0.397805 -1.5 0 -1.5 
C -0.397805 -1.5 -0.77937 -1.341951 -1.06066 -1.06066 
C -1.341951 -0.77937 -1.5 -0.397805 -1.5 0 
C -1.5 0.397805 -1.341951 0.77937 -1.06066 1.06066 
C -0.77937 1.341951 -0.397805 1.5 0 1.5 
z
" id="m2cfe6d05c6" style="stroke:#00bfbf;"/>
    </defs>
    <g>
     <use style="fill:#00bfbf;stroke:#00bfbf;" x="131.814826" xlink:href="#m2cfe6d05c6" y="30.334099"/>
     <use style="fill:#00bfbf;stroke:#00bfbf;" x="131.814826" xlink:href="#m2cfe6d05c6" y="30.334099"/>
    </g>
   </g>
   <g id="line2d_30">
    <path d="M 45.512012 298.944 
L 45.512012 268.396207 
L 97.755429 268.396207 
L 97.755429 267.869521 
L 100.192776 267.869521 
L 100.192776 267.342835 
L 102.989037 267.342835 
L 102.989037 266.289463 
L 103.623262 266.289463 
L 103.623262 265.762777 
L 104.23523 265.762777 
L 104.23523 264.709405 
L 105.398279 264.709405 
L 105.398279 261.549288 
L 105.951954 261.549288 
L 105.951954 259.96923 
L 106.48859 259.96923 
L 106.48859 258.915858 
L 107.009204 258.915858 
L 107.009204 257.3358 
L 107.514726 257.3358 
L 107.514726 252.068939 
L 108.006005 252.068939 
L 108.006005 249.435508 
L 108.483824 249.435508 
L 108.483824 243.641962 
L 108.948899 243.641962 
L 108.948899 235.74167 
L 109.843417 235.74167 
L 109.843417 235.214984 
L 111.505558 235.214984 
L 111.505558 230.47481 
L 111.897469 230.47481 
L 111.897469 229.948123 
L 112.655818 229.948123 
L 112.655818 228.894751 
L 114.080224 228.894751 
L 114.080224 227.314693 
L 115.077025 227.314693 
L 115.077025 226.788007 
L 116.914437 226.788007 
L 116.914437 225.734635 
L 117.202696 225.734635 
L 117.202696 224.681263 
L 118.310324 224.681263 
L 118.310324 224.154577 
L 118.576578 224.154577 
L 118.576578 223.627891 
L 118.838828 223.627891 
L 118.838828 221.521146 
L 119.097192 221.521146 
L 119.097192 220.99446 
L 119.351785 220.99446 
L 119.351785 218.887716 
L 119.602714 218.887716 
L 119.602714 217.834344 
L 119.850084 217.834344 
L 119.850084 215.200913 
L 120.093994 215.200913 
L 120.093994 214.147541 
L 120.33454 214.147541 
L 120.33454 207.827308 
L 120.571812 207.827308 
L 120.571812 206.773936 
L 120.8059 206.773936 
L 120.8059 201.507075 
L 121.036887 201.507075 
L 121.036887 199.400331 
L 121.264855 199.400331 
L 121.264855 198.346959 
L 121.489881 198.346959 
L 121.489881 195.713528 
L 121.712041 195.713528 
L 121.712041 189.393295 
L 121.931406 189.393295 
L 121.931406 188.339923 
L 122.148045 188.339923 
L 122.148045 185.179807 
L 122.362027 185.179807 
L 122.362027 183.599748 
L 122.573415 183.599748 
L 122.573415 182.01969 
L 122.782271 182.01969 
L 122.782271 177.806202 
L 122.988655 177.806202 
L 122.988655 174.646085 
L 123.192626 174.646085 
L 123.192626 170.432596 
L 123.394238 170.432596 
L 123.394238 167.27248 
L 123.593547 167.27248 
L 123.593547 163.058991 
L 123.790603 163.058991 
L 123.790603 160.952247 
L 123.985457 160.952247 
L 123.985457 160.425561 
L 124.178158 160.425561 
L 124.178158 158.318817 
L 124.368753 158.318817 
L 124.368753 152.52527 
L 124.557288 152.52527 
L 124.557288 147.258409 
L 124.743806 147.258409 
L 124.743806 137.778059 
L 124.92835 137.778059 
L 124.92835 135.144629 
L 125.110962 135.144629 
L 125.110962 134.091257 
L 125.291682 134.091257 
L 125.291682 131.457826 
L 125.470548 131.457826 
L 125.470548 126.190966 
L 125.647598 126.190966 
L 125.647598 123.030849 
L 125.822869 123.030849 
L 125.822869 119.344047 
L 125.996395 119.344047 
L 125.996395 113.023814 
L 126.168212 113.023814 
L 126.168212 112.497128 
L 126.338353 112.497128 
L 126.338353 108.283639 
L 126.50685 108.283639 
L 126.50685 104.07015 
L 126.673734 104.07015 
L 126.673734 100.910034 
L 126.839037 100.910034 
L 126.839037 99.329976 
L 127.002787 99.329976 
L 127.002787 95.643173 
L 127.165014 95.643173 
L 127.165014 93.536429 
L 127.325746 93.536429 
L 127.325746 89.32294 
L 127.48501 89.32294 
L 127.48501 86.162824 
L 127.642832 86.162824 
L 127.642832 84.582765 
L 127.799239 84.582765 
L 127.799239 78.262532 
L 127.954256 78.262532 
L 127.954256 77.20916 
L 128.107907 77.20916 
L 128.107907 75.102416 
L 128.260216 75.102416 
L 128.260216 74.57573 
L 128.411207 74.57573 
L 128.411207 67.202125 
L 128.560901 67.202125 
L 128.560901 66.148752 
L 128.709321 66.148752 
L 128.709321 61.935264 
L 128.856489 61.935264 
L 128.856489 61.408578 
L 129.002426 61.408578 
L 129.002426 57.721775 
L 129.147151 57.721775 
L 129.147151 56.668403 
L 129.290685 56.668403 
L 129.290685 52.9816 
L 129.433047 52.9816 
L 129.433047 50.34817 
L 129.714332 50.34817 
L 129.714332 48.241426 
L 129.853291 48.241426 
L 129.853291 47.188054 
L 129.991152 47.188054 
L 129.991152 45.607995 
L 130.263646 45.607995 
L 130.263646 42.447879 
L 130.398313 42.447879 
L 130.398313 40.341135 
L 130.531948 40.341135 
L 130.531948 37.707704 
L 130.664567 37.707704 
L 130.664567 36.127646 
L 130.796184 36.127646 
L 130.796184 35.074274 
L 130.926816 35.074274 
L 130.926816 34.020902 
L 131.312942 34.020902 
L 131.312942 31.914157 
L 131.814826 31.914157 
L 131.814826 30.334099 
L 338.688 30.334099 
L 338.688 30.334099 
" style="fill:none;stroke:#00bfbf;stroke-linecap:square;stroke-width:1.5;"/>
   </g>
   <g id="line2d_31">
    <defs>
     <path d="M -6 0 
L 6 0 
M 0 6 
L 0 -6 
" id="m2e461522cc" style="stroke:#00bfbf;stroke-width:1.5;"/>
    </defs>
    <g>
     <use style="fill-opacity:0;stroke:#00bfbf;stroke-width:1.5;" x="120.8059" xlink:href="#m2e461522cc" y="206.773936"/>
     <use style="fill-opacity:0;stroke:#00bfbf;stroke-width:1.5;" x="129.002426" xlink:href="#m2e461522cc" y="57.721775"/>
     <use style="fill-opacity:0;stroke:#00bfbf;stroke-width:1.5;" x="131.814826" xlink:href="#m2e461522cc" y="31.914157"/>
     <use style="fill-opacity:0;stroke:#00bfbf;stroke-width:1.5;" x="131.814826" xlink:href="#m2e461522cc" y="30.334099"/>
     <use style="fill-opacity:0;stroke:#00bfbf;stroke-width:1.5;" x="131.814826" xlink:href="#m2e461522cc" y="30.334099"/>
     <use style="fill-opacity:0;stroke:#00bfbf;stroke-width:1.5;" x="338.688" xlink:href="#m2e461522cc" y="30.334099"/>
    </g>
   </g>
   <g id="line2d_32">
    <path style="fill:none;stroke:#00bfbf;stroke-linecap:square;stroke-width:1.5;"/>
    <g/>
   </g>
   <g id="line2d_33">
    <defs>
     <path d="M 0 1.5 
C 0.397805 1.5 0.77937 1.341951 1.06066 1.06066 
C 1.341951 0.77937 1.5 0.397805 1.5 0 
C 1.5 -0.397805 1.341951 -0.77937 1.06066 -1.06066 
C 0.77937 -1.341951 0.397805 -1.5 0 -1.5 
C -0.397805 -1.5 -0.77937 -1.341951 -1.06066 -1.06066 
C -1.341951 -0.77937 -1.5 -0.397805 -1.5 0 
C -1.5 0.397805 -1.341951 0.77937 -1.06066 1.06066 
C -0.77937 1.341951 -0.397805 1.5 0 1.5 
z
" id="m5d4dec6bbc" style="stroke:#008000;"/>
    </defs>
    <g>
     <use style="fill:#008000;stroke:#008000;" x="141.709062" xlink:href="#m5d4dec6bbc" y="30.334099"/>
     <use style="fill:#008000;stroke:#008000;" x="141.709062" xlink:href="#m5d4dec6bbc" y="30.334099"/>
    </g>
   </g>
   <g id="line2d_34">
    <path d="M 38.440992 298.944 
L 38.440992 275.769812 
L 93.121756 275.769812 
L 93.121756 275.243126 
L 98.32726 275.243126 
L 98.32726 274.71644 
L 99.938184 274.71644 
L 99.938184 274.189754 
L 100.443706 274.189754 
L 100.443706 273.663068 
L 101.877879 273.663068 
L 101.877879 272.609696 
L 102.330873 272.609696 
L 102.330873 272.08301 
L 102.772397 272.08301 
L 102.772397 271.029638 
L 103.203018 271.029638 
L 103.203018 268.922893 
L 103.623262 268.922893 
L 103.623262 267.869521 
L 104.434538 267.869521 
L 104.434538 264.709405 
L 104.826449 264.709405 
L 104.826449 262.60266 
L 105.209745 262.60266 
L 105.209745 261.022602 
L 105.584798 261.022602 
L 105.584798 257.3358 
L 105.951954 257.3358 
L 105.951954 256.809114 
L 107.680028 256.809114 
L 107.680028 256.282427 
L 108.326001 256.282427 
L 108.326001 255.755741 
L 118.220662 255.755741 
L 118.220662 255.229055 
L 118.576578 255.229055 
L 118.576578 254.702369 
L 118.751849 254.702369 
L 118.751849 254.175683 
L 119.097192 254.175683 
L 119.097192 253.648997 
L 119.267333 253.648997 
L 119.267333 252.595625 
L 119.43583 252.595625 
L 119.43583 250.488881 
L 119.931767 250.488881 
L 119.931767 249.962195 
L 120.093994 249.962195 
L 120.093994 249.435508 
L 120.254726 249.435508 
L 120.254726 248.382136 
L 120.41399 248.382136 
L 120.41399 247.85545 
L 120.571812 247.85545 
L 120.571812 247.328764 
L 120.728219 247.328764 
L 120.728219 246.802078 
L 120.883236 246.802078 
L 120.883236 246.275392 
L 121.036887 246.275392 
L 121.036887 243.641962 
L 121.340187 243.641962 
L 121.340187 243.115275 
L 121.489881 243.115275 
L 121.489881 242.588589 
L 121.638301 242.588589 
L 121.638301 242.061903 
L 122.076131 242.061903 
L 122.076131 241.535217 
L 122.219665 241.535217 
L 122.219665 241.008531 
L 123.460928 241.008531 
L 123.460928 240.481845 
L 123.985457 240.481845 
L 123.985457 239.428473 
L 124.368753 239.428473 
L 124.368753 238.901787 
L 124.619683 238.901787 
L 124.619683 238.375101 
L 126.053856 238.375101 
L 126.053856 237.848415 
L 126.618283 237.848415 
L 126.729009 236.795043 
L 127.48501 236.795043 
L 127.590383 235.74167 
L 128.005624 235.74167 
L 128.107907 234.688298 
L 128.209594 234.688298 
L 128.310692 233.10824 
L 128.411207 233.10824 
L 128.511146 230.47481 
L 128.709321 230.47481 
L 128.709321 229.948123 
L 129.002426 229.948123 
L 129.099042 228.368065 
L 129.290685 228.368065 
L 129.385722 225.734635 
L 129.480244 225.734635 
L 129.574256 222.574518 
L 129.760775 222.574518 
L 129.853291 219.941088 
L 130.036864 219.941088 
L 130.127931 218.36103 
L 130.218525 218.36103 
L 130.30865 214.674227 
L 130.398313 214.674227 
L 130.398313 211.514111 
L 130.576266 211.514111 
L 130.576266 210.987425 
L 130.752422 210.987425 
L 130.839837 208.353994 
L 130.926816 208.353994 
L 130.926816 205.193878 
L 131.099484 205.193878 
L 131.185181 203.613819 
L 131.270459 203.613819 
L 131.355321 201.507075 
L 131.439773 201.507075 
L 131.439773 200.453703 
L 131.60746 200.453703 
L 131.690703 194.13347 
L 131.856005 194.13347 
L 131.856005 190.446667 
L 132.101058 190.446667 
L 132.181982 189.393295 
L 132.262533 189.393295 
L 132.342714 187.813237 
L 132.422528 187.813237 
L 132.501978 183.599748 
L 132.581068 183.599748 
L 132.659801 181.493004 
L 132.73818 181.493004 
L 132.816208 178.332888 
L 132.893889 178.332888 
L 132.971225 174.119399 
L 133.04822 174.119399 
L 133.04822 171.485969 
L 133.201197 171.485969 
L 133.277185 167.799166 
L 133.352844 167.799166 
L 133.428175 164.63905 
L 133.503183 164.63905 
L 133.57787 162.005619 
L 133.652238 162.005619 
L 133.72629 158.845503 
L 133.800029 158.845503 
L 133.873458 150.945211 
L 134.019394 150.945211 
L 134.091907 146.731723 
L 134.164119 146.731723 
L 134.164119 144.098292 
L 134.307653 144.098292 
L 134.37898 139.884804 
L 134.450015 139.884804 
L 134.450015 138.304745 
L 134.591225 138.304745 
L 134.661403 135.144629 
L 134.7313 135.144629 
L 134.800918 131.984513 
L 134.870259 131.984513 
L 134.939326 129.877768 
L 135.00812 129.877768 
L 135.076644 127.771024 
L 135.144899 127.771024 
L 135.212889 123.030849 
L 135.280614 123.030849 
L 135.348078 118.817361 
L 135.415281 118.817361 
L 135.482227 114.077186 
L 135.548916 114.077186 
L 135.615352 109.863697 
L 135.681535 109.863697 
L 135.747468 107.230267 
L 135.813153 107.230267 
L 135.878591 104.596836 
L 136.008736 104.596836 
L 136.073445 102.490092 
L 136.137916 102.490092 
L 136.202149 97.749917 
L 136.266147 97.749917 
L 136.32991 93.009743 
L 136.393441 93.009743 
L 136.456742 87.742882 
L 136.519813 87.742882 
L 136.519813 84.582765 
L 136.707671 84.582765 
L 136.769843 81.949335 
L 136.831795 81.949335 
L 136.893527 78.789218 
L 136.955041 78.789218 
L 137.016339 77.735846 
L 137.198951 77.735846 
L 137.198951 77.20916 
L 137.319638 77.20916 
L 137.319638 76.155788 
L 137.439497 76.155788 
L 137.499118 72.995672 
L 137.558536 72.995672 
L 137.558536 71.415613 
L 137.676769 71.415613 
L 137.676769 70.888927 
L 137.794206 70.888927 
L 137.852629 69.835555 
L 137.910857 69.835555 
L 137.910857 68.782183 
L 138.026733 68.782183 
L 138.084384 63.515322 
L 138.141844 63.515322 
L 138.141844 62.988636 
L 138.256201 62.988636 
L 138.256201 60.881892 
L 138.426341 60.881892 
L 138.482688 59.82852 
L 138.538853 59.82852 
L 138.594838 57.195089 
L 138.706272 57.195089 
L 138.706272 56.668403 
L 138.927025 56.668403 
L 139.036363 54.034973 
L 139.145019 54.034973 
L 139.145019 50.34817 
L 139.306744 50.34817 
L 139.306744 49.294798 
L 139.466984 49.294798 
L 139.520072 47.188054 
L 139.678372 47.188054 
L 139.783113 44.554623 
L 139.835248 44.554623 
L 139.887228 41.921193 
L 139.990725 41.921193 
L 140.093612 39.814448 
L 140.144829 39.814448 
L 140.246813 38.23439 
L 140.297583 38.23439 
L 140.297583 36.127646 
L 140.549236 36.127646 
L 140.64889 34.020902 
L 140.846504 34.020902 
L 140.846504 32.967529 
L 141.187031 32.967529 
L 141.235139 30.860785 
L 141.709062 30.860785 
L 141.709062 30.334099 
L 338.688 30.334099 
L 338.688 30.334099 
" style="fill:none;stroke:#008000;stroke-linecap:square;stroke-width:1.5;"/>
   </g>
   <g id="line2d_35">
    <defs>
     <path d="M -0 6 
L 6 -6 
L -6 -6 
z
" id="m727ae8ba34" style="stroke:#008000;stroke-linejoin:miter;stroke-width:1.5;"/>
    </defs>
    <g>
     <use style="fill-opacity:0;stroke:#008000;stroke-linejoin:miter;stroke-width:1.5;" x="108.326001" xlink:href="#m727ae8ba34" y="256.282427"/>
     <use style="fill-opacity:0;stroke:#008000;stroke-linejoin:miter;stroke-width:1.5;" x="136.266147" xlink:href="#m727ae8ba34" y="97.749917"/>
     <use style="fill-opacity:0;stroke:#008000;stroke-linejoin:miter;stroke-width:1.5;" x="141.709062" xlink:href="#m727ae8ba34" y="30.860785"/>
     <use style="fill-opacity:0;stroke:#008000;stroke-linejoin:miter;stroke-width:1.5;" x="141.709062" xlink:href="#m727ae8ba34" y="30.334099"/>
     <use style="fill-opacity:0;stroke:#008000;stroke-linejoin:miter;stroke-width:1.5;" x="141.709062" xlink:href="#m727ae8ba34" y="30.334099"/>
     <use style="fill-opacity:0;stroke:#008000;stroke-linejoin:miter;stroke-width:1.5;" x="338.688" xlink:href="#m727ae8ba34" y="30.334099"/>
    </g>
   </g>
   <g id="line2d_36">
    <path style="fill:none;stroke:#008000;stroke-linecap:square;stroke-width:1.5;"/>
    <g/>
   </g>
   <g id="line2d_37">
    <defs>
     <path d="M 0 1.5 
C 0.397805 1.5 0.77937 1.341951 1.06066 1.06066 
C 1.341951 0.77937 1.5 0.397805 1.5 0 
C 1.5 -0.397805 1.341951 -0.77937 1.06066 -1.06066 
C 0.77937 -1.341951 0.397805 -1.5 0 -1.5 
C -0.397805 -1.5 -0.77937 -1.341951 -1.06066 -1.06066 
C -1.341951 -0.77937 -1.5 -0.397805 -1.5 0 
C -1.5 0.397805 -1.341951 0.77937 -1.06066 1.06066 
C -0.77937 1.341951 -0.397805 1.5 0 1.5 
z
" id="ma2e3fc8619" style="stroke:#0000ff;"/>
    </defs>
    <g>
     <use style="fill:#0000ff;stroke:#0000ff;" x="214.278292" xlink:href="#ma2e3fc8619" y="30.334099"/>
     <use style="fill:#0000ff;stroke:#0000ff;" x="214.278292" xlink:href="#ma2e3fc8619" y="30.334099"/>
    </g>
   </g>
   <g id="line2d_38">
    <path d="M 29.53256 298.944 
L 29.53256 282.616732 
L 95.526106 282.616732 
L 95.526106 282.090045 
L 99.097574 282.090045 
L 99.097574 281.563359 
L 100.343767 281.563359 
L 100.343767 281.036673 
L 100.934985 281.036673 
L 100.934985 279.983301 
L 101.223245 279.983301 
L 101.223245 279.456615 
L 101.506816 279.456615 
L 101.506816 278.929929 
L 101.785851 278.929929 
L 101.785851 278.403243 
L 102.060491 278.403243 
L 102.060491 277.876557 
L 102.597126 277.876557 
L 102.597126 277.349871 
L 102.859376 277.349871 
L 102.859376 275.769812 
L 103.372333 275.769812 
L 103.372333 274.71644 
L 103.623262 274.71644 
L 103.623262 274.189754 
L 103.870632 274.189754 
L 103.870632 272.609696 
L 104.114542 272.609696 
L 104.114542 272.08301 
L 104.592361 272.08301 
L 104.592361 269.976266 
L 104.826449 269.976266 
L 104.826449 268.922893 
L 105.285403 268.922893 
L 105.285403 267.869521 
L 105.51043 267.869521 
L 105.51043 267.342835 
L 113.311233 267.342835 
L 113.311233 266.816149 
L 116.202531 266.816149 
L 116.202531 266.289463 
L 116.323218 266.289463 
L 116.323218 265.762777 
L 117.709852 265.762777 
L 117.709852 264.709405 
L 118.148599 264.709405 
L 118.148599 264.182719 
L 118.681952 264.182719 
L 118.681952 263.656033 
L 118.890808 263.656033 
L 118.890808 263.129347 
L 119.602714 263.129347 
L 119.602714 262.60266 
L 121.219499 262.60266 
L 121.219499 262.075974 
L 121.579085 262.075974 
L 121.579085 261.549288 
L 122.191052 261.549288 
L 122.191052 261.022602 
L 126.439646 261.022602 
L 126.439646 260.495916 
L 127.293718 260.495916 
L 127.293718 259.96923 
L 127.611382 259.96923 
L 127.611382 259.442544 
L 127.736845 259.442544 
L 127.736845 258.915858 
L 128.350967 258.915858 
L 128.350967 258.389172 
L 128.531065 258.389172 
L 128.531065 257.862486 
L 129.06046 257.862486 
L 129.06046 257.3358 
L 129.51791 257.3358 
L 129.51791 256.809114 
L 130.45189 256.809114 
L 130.45189 256.282427 
L 130.717333 256.282427 
L 130.717333 255.755741 
L 131.640805 255.755741 
L 131.640805 255.229055 
L 131.888878 255.229055 
L 131.888878 254.702369 
L 132.470242 254.702369 
L 132.470242 254.175683 
L 135.076644 254.175683 
L 135.076644 253.648997 
L 136.112156 253.648997 
L 136.112156 253.122311 
L 136.570107 253.122311 
L 136.570107 252.595625 
L 136.720123 252.595625 
L 136.757427 251.542253 
L 137.053015 251.542253 
L 137.053015 250.488881 
L 137.910857 250.488881 
L 137.910857 249.962195 
L 138.959898 249.962195 
L 138.959898 249.435508 
L 139.477614 249.435508 
L 139.477614 248.908822 
L 139.730821 248.908822 
L 139.730821 248.382136 
L 140.042245 248.382136 
L 140.134598 246.275392 
L 140.348205 246.275392 
L 140.438956 244.695334 
L 140.499195 244.695334 
L 140.529237 243.641962 
L 140.678675 243.641962 
L 140.767727 242.588589 
L 140.856326 242.588589 
L 140.944478 241.008531 
L 141.148448 241.008531 
L 141.148448 239.955159 
L 142.752555 239.955159 
L 142.752555 239.428473 
L 144.93531 239.428473 
L 144.93531 238.901787 
L 145.843812 238.901787 
L 145.843812 238.375101 
L 146.08557 238.375101 
L 146.08557 237.848415 
L 146.538004 237.848415 
L 146.538004 236.795043 
L 146.77039 236.795043 
L 146.854132 235.214984 
L 146.999721 235.214984 
L 147.082371 233.634926 
L 147.185137 233.634926 
L 147.287301 231.528182 
L 147.307662 231.528182 
L 147.307662 229.948123 
L 147.509976 229.948123 
L 147.590249 227.841379 
L 147.670154 227.841379 
L 147.749695 226.261321 
L 147.828875 226.261321 
L 147.86833 224.681263 
L 147.986163 224.681263 
L 148.064279 222.047832 
L 148.122637 222.047832 
L 148.200145 219.414402 
L 148.23877 219.414402 
L 148.27731 217.834344 
L 148.354135 217.834344 
L 148.449693 215.200913 
L 148.525764 215.200913 
L 148.601505 212.567483 
L 148.639252 212.567483 
L 148.733265 210.460738 
L 148.752007 210.460738 
L 148.845415 207.300622 
L 148.864037 207.300622 
L 148.938326 203.613819 
L 148.975352 203.613819 
L 149.049169 200.453703 
L 149.141003 200.453703 
L 149.25057 195.713528 
L 149.268764 195.713528 
L 149.377533 193.606784 
L 149.413639 193.606784 
L 149.521512 187.286551 
L 149.575199 187.286551 
L 149.664311 184.653121 
L 149.717561 184.653121 
L 149.788308 182.546376 
L 149.85877 182.546376 
L 149.946449 178.332888 
L 149.981398 178.332888 
L 149.981398 177.806202 
L 154.015422 177.806202 
L 154.029268 176.752829 
L 154.290278 176.752829 
L 154.290278 176.226143 
L 154.93278 176.226143 
L 154.93278 175.699457 
L 155.28405 175.699457 
L 155.296925 174.646085 
L 156.705677 174.646085 
L 156.705677 174.119399 
L 157.034952 174.119399 
L 157.139484 172.012655 
L 157.697862 172.012655 
L 157.798506 169.90591 
L 157.876384 169.90591 
L 157.98704 167.799166 
L 158.064083 167.799166 
L 158.173558 165.692422 
L 158.217157 165.692422 
L 158.314856 163.585677 
L 158.358103 163.585677 
L 158.401243 162.005619 
L 158.497919 162.005619 
L 158.583406 160.952247 
L 158.625992 160.952247 
L 158.721434 159.372189 
L 159.466728 159.372189 
L 159.466728 158.845503 
L 160.594766 158.845503 
L 160.594766 158.318817 
L 160.793103 158.318817 
L 160.802491 157.265444 
L 161.007772 157.265444 
L 161.054091 155.1587 
L 161.183135 155.1587 
L 161.247301 153.051956 
L 161.374928 153.051956 
L 161.465522 150.945211 
L 161.492608 150.945211 
L 161.591568 148.311781 
L 161.6095 148.311781 
L 161.7078 143.571606 
L 161.770068 143.571606 
L 161.876297 137.778059 
L 161.92917 137.778059 
L 162.034438 135.671315 
L 162.043181 135.671315 
L 162.043181 135.144629 
L 163.331824 135.144629 
L 163.331824 134.617943 
L 163.867476 134.617943 
L 163.867476 134.091257 
L 164.032036 134.091257 
L 164.032036 133.564571 
L 164.455807 133.564571 
L 164.455807 133.037885 
L 164.569616 133.037885 
L 164.569616 132.511199 
L 164.6902 132.511199 
L 164.727712 131.457826 
L 164.839766 131.457826 
L 164.839766 130.93114 
L 165.142423 130.93114 
L 165.164364 129.877768 
L 165.432722 129.877768 
L 165.461488 128.824396 
L 165.59035 128.824396 
L 165.59035 128.29771 
L 165.746566 128.29771 
L 165.746566 127.771024 
L 165.950372 127.771024 
L 166.047915 126.717652 
L 166.165632 126.717652 
L 166.165632 126.190966 
L 166.364626 126.190966 
L 166.453099 125.137593 
L 166.595075 125.137593 
L 166.695783 122.504163 
L 166.722541 122.504163 
L 166.749257 121.450791 
L 166.888852 121.450791 
L 166.915315 119.870733 
L 167.033906 119.870733 
L 167.033906 119.344047 
L 167.493969 119.344047 
L 167.589632 118.290674 
L 167.621403 118.290674 
L 167.621403 117.763988 
L 168.318321 117.763988 
L 168.33661 116.710616 
L 168.500361 116.710616 
L 168.500361 116.18393 
L 168.769907 116.18393 
L 168.852923 110.390383 
L 168.923766 110.390383 
L 169.006055 106.703581 
L 169.111287 106.703581 
L 169.128764 105.123522 
L 169.291045 105.123522 
L 169.291045 104.596836 
L 169.71843 104.596836 
L 169.746554 103.543464 
L 169.919913 103.543464 
L 170.003182 102.490092 
L 170.091567 102.490092 
L 170.091567 101.963406 
L 170.419074 101.963406 
L 170.505381 100.910034 
L 170.548375 100.910034 
L 170.644724 99.856662 
L 170.909603 99.856662 
L 171.019664 98.803289 
L 171.361114 98.803289 
L 171.361114 98.276603 
L 171.796233 98.276603 
L 171.796233 97.749917 
L 171.910786 97.749917 
L 171.950454 96.696545 
L 172.103323 96.696545 
L 172.103323 96.169859 
L 172.293758 96.169859 
L 172.322872 94.589801 
L 172.414747 94.589801 
L 172.520528 93.009743 
L 172.678005 93.009743 
L 172.678005 92.483056 
L 172.951383 92.483056 
L 172.951383 91.95637 
L 173.105034 91.95637 
L 173.183662 90.902998 
L 173.24815 90.902998 
L 173.24815 90.376312 
L 173.449287 90.376312 
L 173.449287 89.849626 
L 173.607642 89.849626 
L 173.607642 89.32294 
L 173.990742 89.32294 
L 174.025955 87.742882 
L 174.109302 87.742882 
L 174.166101 86.162824 
L 174.888124 86.162824 
L 174.888124 85.636137 
L 175.330276 85.636137 
L 175.38324 84.056079 
L 175.665696 84.056079 
L 175.665696 83.529393 
L 176.398563 83.529393 
L 176.398563 83.002707 
L 176.517133 83.002707 
L 176.604586 80.895963 
L 176.631116 80.895963 
L 176.657605 79.842591 
L 176.763161 79.842591 
L 176.763161 79.315904 
L 177.574607 79.315904 
L 177.667636 78.262532 
L 177.749519 78.262532 
L 177.848687 76.155788 
L 177.862808 76.155788 
L 177.908622 75.102416 
L 177.99989 75.102416 
L 178.052329 74.049044 
L 178.449203 74.049044 
L 178.449203 72.995672 
L 178.706614 72.995672 
L 178.706614 72.468985 
L 179.009913 72.468985 
L 179.072579 71.415613 
L 179.33075 71.415613 
L 179.33075 70.888927 
L 179.476119 70.888927 
L 179.476119 70.362241 
L 179.76327 70.362241 
L 179.76327 69.835555 
L 180.092412 69.835555 
L 180.197673 68.255497 
L 180.406309 68.255497 
L 180.406309 67.728811 
L 180.567209 67.728811 
L 180.567209 67.202125 
L 181.005862 67.202125 
L 181.085245 64.568694 
L 181.274884 64.568694 
L 181.274884 64.042008 
L 181.482565 64.042008 
L 181.482565 63.515322 
L 181.927029 63.515322 
L 181.927029 62.988636 
L 182.333158 62.988636 
L 182.333158 62.46195 
L 182.636363 62.46195 
L 182.681928 61.408578 
L 182.878894 61.408578 
L 182.987073 59.82852 
L 183.533431 59.82852 
L 183.533431 59.301833 
L 183.685718 59.301833 
L 183.700873 58.248461 
L 184.070607 58.248461 
L 184.070607 57.721775 
L 184.594129 57.721775 
L 184.594129 57.195089 
L 184.806326 57.195089 
L 184.874915 54.561659 
L 185.151252 54.561659 
L 185.151252 54.034973 
L 185.359112 54.034973 
L 185.359112 53.508287 
L 186.841673 53.508287 
L 186.841673 52.9816 
L 186.955174 52.9816 
L 186.955174 52.454914 
L 187.887258 52.454914 
L 187.887258 51.928228 
L 188.326548 51.928228 
L 188.357507 50.874856 
L 188.450054 50.874856 
L 188.450054 50.34817 
L 188.807873 50.34817 
L 188.84927 49.294798 
L 189.619491 49.294798 
L 189.635668 48.241426 
L 189.933143 48.241426 
L 189.977242 46.661368 
L 190.052832 46.661368 
L 190.117613 45.081309 
L 190.858366 45.081309 
L 190.858366 44.554623 
L 191.129263 44.554623 
L 191.129263 44.027937 
L 191.350483 44.027937 
L 191.350483 43.501251 
L 191.605878 43.501251 
L 191.605878 42.974565 
L 192.085431 42.974565 
L 192.085431 42.447879 
L 192.445431 42.447879 
L 192.445431 41.921193 
L 192.860977 41.921193 
L 192.860977 41.394507 
L 193.173234 41.394507 
L 193.173234 40.867821 
L 193.802692 40.867821 
L 193.802692 40.341135 
L 194.382872 40.341135 
L 194.382872 39.814448 
L 194.952319 39.814448 
L 194.952319 39.287762 
L 195.557572 39.287762 
L 195.620145 38.23439 
L 196.040783 38.23439 
L 196.040783 37.707704 
L 196.3821 37.707704 
L 196.3821 37.181018 
L 197.929386 37.181018 
L 197.929386 36.654332 
L 198.4291 36.654332 
L 198.4291 36.127646 
L 198.9823 36.127646 
L 198.9823 35.60096 
L 199.177773 35.60096 
L 199.177773 35.074274 
L 200.624361 35.074274 
L 200.624361 34.547588 
L 201.648037 34.547588 
L 201.648037 34.020902 
L 202.008764 34.020902 
L 202.008764 33.494215 
L 202.879229 33.494215 
L 202.879229 32.967529 
L 203.583601 32.967529 
L 203.583601 32.440843 
L 205.60901 32.440843 
L 205.60901 31.914157 
L 206.341751 31.914157 
L 206.341751 31.387471 
L 208.792281 31.387471 
L 208.792281 30.860785 
L 214.278292 30.860785 
L 214.278292 30.334099 
L 338.688 30.334099 
L 338.688 30.334099 
" style="fill:none;stroke:#0000ff;stroke-linecap:square;stroke-width:1.5;"/>
   </g>
   <g id="line2d_39">
    <defs>
     <path d="M 0 -6 
L -1.347084 -1.854102 
L -5.706339 -1.854102 
L -2.179628 0.708204 
L -3.526712 4.854102 
L -0 2.291796 
L 3.526712 4.854102 
L 2.179628 0.708204 
L 5.706339 -1.854102 
L 1.347084 -1.854102 
z
" id="mba87bae178" style="stroke:#0000ff;stroke-linejoin:bevel;stroke-width:1.5;"/>
    </defs>
    <g>
     <use style="fill-opacity:0;stroke:#0000ff;stroke-linejoin:bevel;stroke-width:1.5;" x="132.470242" xlink:href="#mba87bae178" y="254.175683"/>
     <use style="fill-opacity:0;stroke:#0000ff;stroke-linejoin:bevel;stroke-width:1.5;" x="166.635428" xlink:href="#mba87bae178" y="124.610907"/>
     <use style="fill-opacity:0;stroke:#0000ff;stroke-linejoin:bevel;stroke-width:1.5;" x="214.278292" xlink:href="#mba87bae178" y="30.860785"/>
     <use style="fill-opacity:0;stroke:#0000ff;stroke-linejoin:bevel;stroke-width:1.5;" x="214.278292" xlink:href="#mba87bae178" y="30.334099"/>
     <use style="fill-opacity:0;stroke:#0000ff;stroke-linejoin:bevel;stroke-width:1.5;" x="214.278292" xlink:href="#mba87bae178" y="30.334099"/>
     <use style="fill-opacity:0;stroke:#0000ff;stroke-linejoin:bevel;stroke-width:1.5;" x="338.688" xlink:href="#mba87bae178" y="30.334099"/>
    </g>
   </g>
   <g id="line2d_40">
    <path style="fill:none;stroke:#0000ff;stroke-linecap:square;stroke-width:1.5;"/>
    <g/>
   </g>
   <g id="line2d_41">
    <path clip-path="url(#pe4b71c7d06)" d="M 149.998846 177.806202 
" style="fill:none;stroke:#0000ff;stroke-linecap:square;stroke-width:1.5;"/>
    <defs>
     <path d="M -12 12 
L 12 -12 
M -12 -12 
L 12 12 
" id="m5c12ab8976" style="stroke:#0000ff;"/>
    </defs>
    <g clip-path="url(#pe4b71c7d06)">
     <use style="fill:#0000ff;stroke:#0000ff;" x="149.998846" xlink:href="#m5c12ab8976" y="177.806202"/>
    </g>
   </g>
   <g id="line2d_42">
    <defs>
     <path d="M 0 1.5 
C 0.397805 1.5 0.77937 1.341951 1.06066 1.06066 
C 1.341951 0.77937 1.5 0.397805 1.5 0 
C 1.5 -0.397805 1.341951 -0.77937 1.06066 -1.06066 
C 0.77937 -1.341951 0.397805 -1.5 0 -1.5 
C -0.397805 -1.5 -0.77937 -1.341951 -1.06066 -1.06066 
C -1.341951 -0.77937 -1.5 -0.397805 -1.5 0 
C -1.5 0.397805 -1.341951 0.77937 -1.06066 1.06066 
C -0.77937 1.341951 -0.397805 1.5 0 1.5 
z
" id="m6160dcdb08" style="stroke:#000000;"/>
    </defs>
    <g>
     <use style="stroke:#000000;" x="212.889637" xlink:href="#m6160dcdb08" y="256.809114"/>
     <use style="stroke:#000000;" x="212.889637" xlink:href="#m6160dcdb08" y="256.809114"/>
    </g>
   </g>
   <g id="line2d_43">
    <path d="M 17.444571 298.944 
L 17.444571 290.517023 
L 104.474128 290.517023 
L 104.474128 289.990337 
L 104.942325 289.990337 
L 104.942325 288.936964 
L 105.171792 288.936964 
L 105.171792 287.356906 
L 105.285403 287.356906 
L 105.285403 286.83022 
L 105.51043 286.83022 
L 105.51043 286.303534 
L 105.732589 286.303534 
L 105.732589 285.776848 
L 105.842616 285.776848 
L 105.842616 285.250162 
L 106.48859 285.250162 
L 106.48859 284.723476 
L 106.698704 284.723476 
L 106.698704 284.19679 
L 106.802819 284.19679 
L 106.802819 283.670104 
L 106.906317 283.670104 
L 106.906317 283.143418 
L 107.111487 283.143418 
L 107.111487 282.616732 
L 107.514726 282.616732 
L 107.514726 281.563359 
L 107.614095 281.563359 
L 107.614095 280.509987 
L 107.811151 280.509987 
L 107.811151 279.983301 
L 108.483824 279.983301 
L 108.483824 279.456615 
L 117.654224 279.456615 
L 117.654224 278.929929 
L 118.363901 278.929929 
L 118.363901 278.403243 
L 120.618882 278.403243 
L 120.618882 277.876557 
L 125.470548 277.876557 
L 125.470548 277.349871 
L 126.133984 277.349871 
L 126.133984 276.823185 
L 126.405947 276.823185 
L 126.405947 276.296499 
L 128.91501 276.296499 
L 128.91501 275.769812 
L 129.089405 275.769812 
L 129.089405 275.243126 
L 130.76994 275.243126 
L 130.76994 274.71644 
L 131.108073 274.71644 
L 131.108073 274.189754 
L 134.534878 274.189754 
L 134.534878 273.663068 
L 136.227776 273.663068 
L 136.227776 273.136382 
L 140.393639 273.136382 
L 140.393639 272.609696 
L 141.350061 272.609696 
L 141.350061 272.08301 
L 141.506851 272.08301 
L 141.506851 271.556324 
L 144.853518 271.556324 
L 144.853518 271.029638 
L 145.721664 271.029638 
L 145.721664 270.502952 
L 147.590249 270.502952 
L 147.590249 269.976266 
L 149.039959 269.976266 
L 149.039959 269.449579 
L 149.431665 269.449579 
L 149.431665 268.922893 
L 151.461678 268.922893 
L 151.461678 268.396207 
L 152.966394 268.396207 
L 152.966394 267.869521 
L 153.090987 267.869521 
L 153.090987 267.342835 
L 155.083261 267.342835 
L 155.083261 266.816149 
L 155.089774 266.816149 
L 155.089774 266.289463 
L 161.805549 266.289463 
L 161.805549 265.762777 
L 161.809979 265.762777 
L 161.809979 265.236091 
L 164.765143 265.236091 
L 164.765143 264.709405 
L 166.759266 264.709405 
L 166.759266 264.182719 
L 170.25063 264.182719 
L 170.25063 263.656033 
L 173.376414 263.656033 
L 173.376414 263.129347 
L 177.434127 263.129347 
L 177.434127 262.60266 
L 177.957826 262.60266 
L 177.957826 262.075974 
L 187.89123 262.075974 
L 187.89123 261.549288 
L 189.840171 261.549288 
L 189.840171 261.022602 
L 197.191546 261.022602 
L 197.191546 260.495916 
L 198.157354 260.495916 
L 198.157354 259.96923 
L 204.546413 259.96923 
L 204.546413 259.442544 
L 206.010519 259.442544 
L 206.010519 258.915858 
L 207.363771 258.915858 
L 207.363771 258.389172 
L 210.343703 258.389172 
L 210.343703 257.862486 
L 211.407076 257.862486 
L 211.407076 257.3358 
L 212.889637 257.3358 
L 212.889637 256.809114 
L 338.688 256.809114 
" style="fill:none;stroke:#000000;stroke-linecap:square;stroke-width:1.5;"/>
   </g>
   <g id="line2d_44">
    <defs>
     <path d="M 0 6 
C 1.591219 6 3.117479 5.367802 4.242641 4.242641 
C 5.367802 3.117479 6 1.591219 6 0 
C 6 -1.591219 5.367802 -3.117479 4.242641 -4.242641 
C 3.117479 -5.367802 1.591219 -6 0 -6 
C -1.591219 -6 -3.117479 -5.367802 -4.242641 -4.242641 
C -5.367802 -3.117479 -6 -1.591219 -6 0 
C -6 1.591219 -5.367802 3.117479 -4.242641 4.242641 
C -3.117479 5.367802 -1.591219 6 0 6 
z
" id="ma0b3a37a59" style="stroke:#000000;stroke-width:1.5;"/>
    </defs>
    <g>
     <use style="fill-opacity:0;stroke:#000000;stroke-width:1.5;" x="125.470548" xlink:href="#ma0b3a37a59" y="277.876557"/>
     <use style="fill-opacity:0;stroke:#000000;stroke-width:1.5;" x="177.957826" xlink:href="#ma0b3a37a59" y="262.60266"/>
     <use style="fill-opacity:0;stroke:#000000;stroke-width:1.5;" x="212.889637" xlink:href="#ma0b3a37a59" y="257.3358"/>
     <use style="fill-opacity:0;stroke:#000000;stroke-width:1.5;" x="212.889637" xlink:href="#ma0b3a37a59" y="256.809114"/>
     <use style="fill-opacity:0;stroke:#000000;stroke-width:1.5;" x="212.889637" xlink:href="#ma0b3a37a59" y="256.809114"/>
     <use style="fill-opacity:0;stroke:#000000;stroke-width:1.5;" x="338.688" xlink:href="#ma0b3a37a59" y="256.809114"/>
    </g>
   </g>
   <g id="line2d_45">
    <path style="fill:none;stroke:#000000;stroke-linecap:square;stroke-width:1.5;"/>
    <g/>
   </g>
   <g id="line2d_46">
    <path clip-path="url(#pe4b71c7d06)" d="M 149.998846 268.922893 
" style="fill:none;stroke:#000000;stroke-linecap:square;stroke-width:1.5;"/>
    <defs>
     <path d="M -12 12 
L 12 -12 
M -12 -12 
L 12 12 
" id="m50c7ad7064" style="stroke:#000000;"/>
    </defs>
    <g clip-path="url(#pe4b71c7d06)">
     <use style="stroke:#000000;" x="149.998846" xlink:href="#m50c7ad7064" y="268.922893"/>
    </g>
   </g>
   <g id="line2d_47">
    <defs>
     <path d="M 0 1.5 
C 0.397805 1.5 0.77937 1.341951 1.06066 1.06066 
C 1.341951 0.77937 1.5 0.397805 1.5 0 
C 1.5 -0.397805 1.341951 -0.77937 1.06066 -1.06066 
C 0.77937 -1.341951 0.397805 -1.5 0 -1.5 
C -0.397805 -1.5 -0.77937 -1.341951 -1.06066 -1.06066 
C -1.341951 -0.77937 -1.5 -0.397805 -1.5 0 
C -1.5 0.397805 -1.341951 0.77937 -1.06066 1.06066 
C -0.77937 1.341951 -0.397805 1.5 0 1.5 
z
" id="m5958521489" style="stroke:#ff0000;"/>
    </defs>
    <g>
     <use style="fill:#ff0000;stroke:#ff0000;" x="215.546294" xlink:href="#m5958521489" y="283.143418"/>
     <use style="fill:#ff0000;stroke:#ff0000;" x="215.546294" xlink:href="#m5958521489" y="283.143418"/>
    </g>
   </g>
   <g id="line2d_48">
    <path d="M 5.356583 298.944 
L 5.356583 296.31057 
L 110.527398 296.31057 
L 110.527398 295.783884 
L 111.780817 295.783884 
L 111.780817 295.257197 
L 112.766778 295.257197 
L 112.766778 294.730511 
L 113.699967 294.730511 
L 113.699967 293.677139 
L 113.804498 293.677139 
L 113.804498 293.150453 
L 120.33454 293.150453 
L 120.33454 292.623767 
L 123.293723 292.623767 
L 123.293723 292.097081 
L 136.598334 292.097081 
L 136.598334 291.570395 
L 137.585209 291.570395 
L 137.585209 291.043709 
L 137.936996 291.043709 
L 137.936996 290.517023 
L 140.180592 290.517023 
L 140.180592 289.990337 
L 147.90278 289.990337 
L 147.90278 289.463651 
L 152.060646 289.463651 
L 152.060646 288.936964 
L 156.96199 288.936964 
L 156.96199 288.410278 
L 161.070274 288.410278 
L 161.070274 287.356906 
L 166.456493 287.356906 
L 166.456493 286.83022 
L 168.488284 286.83022 
L 168.488284 286.303534 
L 180.91353 286.303534 
L 180.91353 285.776848 
L 183.650936 285.776848 
L 183.650936 285.250162 
L 186.014172 285.250162 
L 186.014172 284.723476 
L 200.296245 284.723476 
L 200.296245 284.19679 
L 204.594862 284.19679 
L 204.594862 283.670104 
L 215.546294 283.670104 
L 215.546294 283.143418 
L 338.688 283.143418 
" style="fill:none;stroke:#ff0000;stroke-linecap:square;stroke-width:1.5;"/>
   </g>
   <g id="line2d_49">
    <defs>
     <path d="M -6 6 
L 6 6 
L 6 -6 
L -6 -6 
z
" id="mc905b66159" style="stroke:#ff0000;stroke-linejoin:miter;stroke-width:1.5;"/>
    </defs>
    <g>
     <use style="fill-opacity:0;stroke:#ff0000;stroke-linejoin:miter;stroke-width:1.5;" x="113.804498" xlink:href="#mc905b66159" y="293.150453"/>
     <use style="fill-opacity:0;stroke:#ff0000;stroke-linejoin:miter;stroke-width:1.5;" x="204.594862" xlink:href="#mc905b66159" y="284.19679"/>
     <use style="fill-opacity:0;stroke:#ff0000;stroke-linejoin:miter;stroke-width:1.5;" x="215.546294" xlink:href="#mc905b66159" y="283.670104"/>
     <use style="fill-opacity:0;stroke:#ff0000;stroke-linejoin:miter;stroke-width:1.5;" x="215.546294" xlink:href="#mc905b66159" y="283.143418"/>
     <use style="fill-opacity:0;stroke:#ff0000;stroke-linejoin:miter;stroke-width:1.5;" x="338.688" xlink:href="#mc905b66159" y="283.143418"/>
    </g>
   </g>
   <g id="line2d_50">
    <path style="fill:none;stroke:#ff0000;stroke-linecap:square;stroke-width:1.5;"/>
    <g/>
   </g>
   <g id="line2d_51">
    <path clip-path="url(#pe4b71c7d06)" d="M 149.998846 289.463651 
" style="fill:none;stroke:#ff0000;stroke-linecap:square;stroke-width:1.5;"/>
    <defs>
     <path d="M -12 12 
L 12 -12 
M -12 -12 
L 12 12 
" id="m49d5848bbf" style="stroke:#ff0000;"/>
    </defs>
    <g clip-path="url(#pe4b71c7d06)">
     <use style="fill:#ff0000;stroke:#ff0000;" x="149.998846" xlink:href="#m49d5848bbf" y="289.463651"/>
    </g>
   </g>
   <g id="line2d_52">
    <defs>
     <path d="M 0 1.5 
C 0.397805 1.5 0.77937 1.341951 1.06066 1.06066 
C 1.341951 0.77937 1.5 0.397805 1.5 0 
C 1.5 -0.397805 1.341951 -0.77937 1.06066 -1.06066 
C 0.77937 -1.341951 0.397805 -1.5 0 -1.5 
C -0.397805 -1.5 -0.77937 -1.341951 -1.06066 -1.06066 
C -1.341951 -0.77937 -1.5 -0.397805 -1.5 0 
C -1.5 0.397805 -1.341951 0.77937 -1.06066 1.06066 
C -0.77937 1.341951 -0.397805 1.5 0 1.5 
z
" id="mdc40d00aec" style="stroke:#bf00bf;"/>
    </defs>
    <g>
     <use style="fill:#bf00bf;stroke:#bf00bf;" x="176.894213" xlink:href="#mdc40d00aec" y="293.677139"/>
     <use style="fill:#bf00bf;stroke:#bf00bf;" x="176.894213" xlink:href="#mdc40d00aec" y="293.677139"/>
    </g>
   </g>
   <g id="line2d_53">
    <path d="M 136.318768 298.944 
L 136.318768 298.417314 
L 142.151083 298.417314 
L 142.151083 297.890628 
L 143.144465 297.890628 
L 143.144465 297.363942 
L 144.029131 297.363942 
L 144.029131 296.837256 
L 149.72642 296.837256 
L 149.72642 296.31057 
L 153.232815 296.31057 
L 153.232815 295.783884 
L 158.600719 295.783884 
L 158.600719 295.257197 
L 159.356179 295.257197 
L 159.356179 294.730511 
L 172.863474 294.730511 
L 172.863474 294.203825 
L 176.894213 294.203825 
L 176.894213 293.677139 
L 338.688 293.677139 
" style="fill:none;stroke:#bf00bf;stroke-linecap:square;stroke-width:1.5;"/>
   </g>
   <g id="line2d_54">
    <defs>
     <path d="M -0 8.485281 
L 8.485281 0 
L 0 -8.485281 
L -8.485281 -0 
z
" id="mae51b8c372" style="stroke:#bf00bf;stroke-linejoin:miter;stroke-width:1.5;"/>
    </defs>
    <g>
     <use style="fill-opacity:0;stroke:#bf00bf;stroke-linejoin:miter;stroke-width:1.5;" x="176.894213" xlink:href="#mae51b8c372" y="294.203825"/>
     <use style="fill-opacity:0;stroke:#bf00bf;stroke-linejoin:miter;stroke-width:1.5;" x="176.894213" xlink:href="#mae51b8c372" y="293.677139"/>
     <use style="fill-opacity:0;stroke:#bf00bf;stroke-linejoin:miter;stroke-width:1.5;" x="176.894213" xlink:href="#mae51b8c372" y="293.677139"/>
     <use style="fill-opacity:0;stroke:#bf00bf;stroke-linejoin:miter;stroke-width:1.5;" x="176.894213" xlink:href="#mae51b8c372" y="293.677139"/>
     <use style="fill-opacity:0;stroke:#bf00bf;stroke-linejoin:miter;stroke-width:1.5;" x="338.688" xlink:href="#mae51b8c372" y="293.677139"/>
    </g>
   </g>
   <g id="line2d_55">
    <path style="fill:none;stroke:#bf00bf;stroke-linecap:square;stroke-width:1.5;"/>
    <g/>
   </g>
   <g id="line2d_56">
    <path clip-path="url(#pe4b71c7d06)" d="M 149.998846 296.31057 
" style="fill:none;stroke:#bf00bf;stroke-linecap:square;stroke-width:1.5;"/>
    <defs>
     <path d="M -12 12 
L 12 -12 
M -12 -12 
L 12 12 
" id="mec71b54e38" style="stroke:#bf00bf;"/>
    </defs>
    <g clip-path="url(#pe4b71c7d06)">
     <use style="fill:#bf00bf;stroke:#bf00bf;" x="149.998846" xlink:href="#mec71b54e38" y="296.31057"/>
    </g>
   </g>
   <g id="line2d_57">
    <path d="M 338.688 293.677139 
L 369.60768 293.571802 
" style="fill:none;stroke:#bf00bf;stroke-linecap:square;stroke-width:1.5;"/>
    <g>
     <use style="fill-opacity:0;stroke:#bf00bf;stroke-linejoin:miter;stroke-width:1.5;" x="338.688" xlink:href="#mae51b8c372" y="293.677139"/>
     <use style="fill-opacity:0;stroke:#bf00bf;stroke-linejoin:miter;stroke-width:1.5;" x="369.60768" xlink:href="#mae51b8c372" y="293.571802"/>
    </g>
   </g>
   <g id="line2d_58">
    <path d="M 338.688 283.143418 
L 369.60768 241.998701 
" style="fill:none;stroke:#ff0000;stroke-linecap:square;stroke-width:1.5;"/>
    <g>
     <use style="fill-opacity:0;stroke:#ff0000;stroke-linejoin:miter;stroke-width:1.5;" x="338.688" xlink:href="#mc905b66159" y="283.143418"/>
     <use style="fill-opacity:0;stroke:#ff0000;stroke-linejoin:miter;stroke-width:1.5;" x="369.60768" xlink:href="#mc905b66159" y="241.998701"/>
    </g>
   </g>
   <g id="line2d_59">
    <path d="M 338.688 256.809114 
L 369.60768 190.4256 
" style="fill:none;stroke:#000000;stroke-linecap:square;stroke-width:1.5;"/>
    <g>
     <use style="fill-opacity:0;stroke:#000000;stroke-width:1.5;" x="338.688" xlink:href="#ma0b3a37a59" y="256.809114"/>
     <use style="fill-opacity:0;stroke:#000000;stroke-width:1.5;" x="369.60768" xlink:href="#ma0b3a37a59" y="190.4256"/>
    </g>
   </g>
   <g id="line2d_60">
    <path d="M 338.688 30.334099 
L 369.60768 138.852499 
" style="fill:none;stroke:#0000ff;stroke-linecap:square;stroke-width:1.5;"/>
    <g>
     <use style="fill-opacity:0;stroke:#0000ff;stroke-linejoin:bevel;stroke-width:1.5;" x="338.688" xlink:href="#mba87bae178" y="30.334099"/>
     <use style="fill-opacity:0;stroke:#0000ff;stroke-linejoin:bevel;stroke-width:1.5;" x="369.60768" xlink:href="#mba87bae178" y="138.852499"/>
    </g>
   </g>
   <g id="line2d_61">
    <path d="M 338.688 30.334099 
L 369.60768 87.279398 
" style="fill:none;stroke:#008000;stroke-linecap:square;stroke-width:1.5;"/>
    <g>
     <use style="fill-opacity:0;stroke:#008000;stroke-linejoin:miter;stroke-width:1.5;" x="338.688" xlink:href="#m727ae8ba34" y="30.334099"/>
     <use style="fill-opacity:0;stroke:#008000;stroke-linejoin:miter;stroke-width:1.5;" x="369.60768" xlink:href="#m727ae8ba34" y="87.279398"/>
    </g>
   </g>
   <g id="line2d_62">
    <path d="M 338.688 30.334099 
L 369.60768 35.706297 
" style="fill:none;stroke:#00bfbf;stroke-linecap:square;stroke-width:1.5;"/>
    <g>
     <use style="fill-opacity:0;stroke:#00bfbf;stroke-width:1.5;" x="338.688" xlink:href="#m2e461522cc" y="30.334099"/>
     <use style="fill-opacity:0;stroke:#00bfbf;stroke-width:1.5;" x="369.60768" xlink:href="#m2e461522cc" y="35.706297"/>
    </g>
   </g>
   <g id="line2d_63">
    <path d="M 338.688 298.944 
L 338.688 30.334099 
" style="fill:none;stroke:#000000;stroke-linecap:square;stroke-width:1.5;"/>
   </g>
   <g id="patch_3">
    <path d="M 57.6 298.944 
L 57.6 27.648 
" style="fill:none;stroke:#000000;stroke-linecap:square;stroke-linejoin:miter;stroke-width:0.8;"/>
   </g>
   <g id="patch_4">
    <path d="M 338.688 298.944 
L 338.688 27.648 
" style="fill:none;stroke:#000000;stroke-linecap:square;stroke-linejoin:miter;stroke-width:0.8;"/>
   </g>
   <g id="patch_5">
    <path d="M 57.6 298.944 
L 338.688 298.944 
" style="fill:none;stroke:#000000;stroke-linecap:square;stroke-linejoin:miter;stroke-width:0.8;"/>
   </g>
   <g id="patch_6">
    <path d="M 57.6 27.648 
L 338.688 27.648 
" style="fill:none;stroke:#000000;stroke-linecap:square;stroke-linejoin:miter;stroke-width:0.8;"/>
   </g>
   <g id="text_13">
    <!-- 40-D -->
    <g transform="translate(375.22944 298.262739)scale(0.17 -0.17)">
     <defs>
      <path d="M 19.671875 64.796875 
L 19.671875 8.109375 
L 31.59375 8.109375 
Q 46.6875 8.109375 53.6875 14.9375 
Q 60.6875 21.78125 60.6875 36.53125 
Q 60.6875 51.171875 53.6875 57.984375 
Q 46.6875 64.796875 31.59375 64.796875 
z
M 9.8125 72.90625 
L 30.078125 72.90625 
Q 51.265625 72.90625 61.171875 64.09375 
Q 71.09375 55.28125 71.09375 36.53125 
Q 71.09375 17.671875 61.125 8.828125 
Q 51.171875 0 30.078125 0 
L 9.8125 0 
z
" id="DejaVuSans-68"/>
     </defs>
     <use xlink:href="#DejaVuSans-52"/>
     <use x="63.623047" xlink:href="#DejaVuSans-48"/>
     <use x="127.246094" xlink:href="#DejaVuSans-45"/>
     <use x="163.330078" xlink:href="#DejaVuSans-68"/>
    </g>
   </g>
   <g id="text_14">
    <!-- 20-D -->
    <g transform="translate(375.22944 246.689638)scale(0.17 -0.17)">
     <use xlink:href="#DejaVuSans-50"/>
     <use x="63.623047" xlink:href="#DejaVuSans-48"/>
     <use x="127.246094" xlink:href="#DejaVuSans-45"/>
     <use x="163.330078" xlink:href="#DejaVuSans-68"/>
    </g>
   </g>
   <g id="text_15">
    <!-- 10-D -->
    <g transform="translate(375.22944 195.116537)scale(0.17 -0.17)">
     <use xlink:href="#DejaVuSans-49"/>
     <use x="63.623047" xlink:href="#DejaVuSans-48"/>
     <use x="127.246094" xlink:href="#DejaVuSans-45"/>
     <use x="163.330078" xlink:href="#DejaVuSans-68"/>
    </g>
   </g>
   <g id="text_16">
    <!-- 5-D -->
    <g transform="translate(375.22944 143.543437)scale(0.17 -0.17)">
     <defs>
      <path d="M 10.796875 72.90625 
L 49.515625 72.90625 
L 49.515625 64.59375 
L 19.828125 64.59375 
L 19.828125 46.734375 
Q 21.96875 47.46875 24.109375 47.828125 
Q 26.265625 48.1875 28.421875 48.1875 
Q 40.625 48.1875 47.75 41.5 
Q 54.890625 34.8125 54.890625 23.390625 
Q 54.890625 11.625 47.5625 5.09375 
Q 40.234375 -1.421875 26.90625 -1.421875 
Q 22.3125 -1.421875 17.546875 -0.640625 
Q 12.796875 0.140625 7.71875 1.703125 
L 7.71875 11.625 
Q 12.109375 9.234375 16.796875 8.0625 
Q 21.484375 6.890625 26.703125 6.890625 
Q 35.15625 6.890625 40.078125 11.328125 
Q 45.015625 15.765625 45.015625 23.390625 
Q 45.015625 31 40.078125 35.4375 
Q 35.15625 39.890625 26.703125 39.890625 
Q 22.75 39.890625 18.8125 39.015625 
Q 14.890625 38.140625 10.796875 36.28125 
z
" id="DejaVuSans-53"/>
     </defs>
     <use xlink:href="#DejaVuSans-53"/>
     <use x="63.623047" xlink:href="#DejaVuSans-45"/>
     <use x="99.707031" xlink:href="#DejaVuSans-68"/>
    </g>
   </g>
   <g id="text_17">
    <!-- 3-D -->
    <g transform="translate(375.22944 91.970336)scale(0.17 -0.17)">
     <defs>
      <path d="M 40.578125 39.3125 
Q 47.65625 37.796875 51.625 33 
Q 55.609375 28.21875 55.609375 21.1875 
Q 55.609375 10.40625 48.1875 4.484375 
Q 40.765625 -1.421875 27.09375 -1.421875 
Q 22.515625 -1.421875 17.65625 -0.515625 
Q 12.796875 0.390625 7.625 2.203125 
L 7.625 11.71875 
Q 11.71875 9.328125 16.59375 8.109375 
Q 21.484375 6.890625 26.8125 6.890625 
Q 36.078125 6.890625 40.9375 10.546875 
Q 45.796875 14.203125 45.796875 21.1875 
Q 45.796875 27.640625 41.28125 31.265625 
Q 36.765625 34.90625 28.71875 34.90625 
L 20.21875 34.90625 
L 20.21875 43.015625 
L 29.109375 43.015625 
Q 36.375 43.015625 40.234375 45.921875 
Q 44.09375 48.828125 44.09375 54.296875 
Q 44.09375 59.90625 40.109375 62.90625 
Q 36.140625 65.921875 28.71875 65.921875 
Q 24.65625 65.921875 20.015625 65.03125 
Q 15.375 64.15625 9.8125 62.3125 
L 9.8125 71.09375 
Q 15.4375 72.65625 20.34375 73.4375 
Q 25.25 74.21875 29.59375 74.21875 
Q 40.828125 74.21875 47.359375 69.109375 
Q 53.90625 64.015625 53.90625 55.328125 
Q 53.90625 49.265625 50.4375 45.09375 
Q 46.96875 40.921875 40.578125 39.3125 
z
" id="DejaVuSans-51"/>
     </defs>
     <use xlink:href="#DejaVuSans-51"/>
     <use x="63.623047" xlink:href="#DejaVuSans-45"/>
     <use x="99.707031" xlink:href="#DejaVuSans-68"/>
    </g>
   </g>
   <g id="text_18">
    <!-- 2-D -->
    <g transform="translate(375.22944 40.397235)scale(0.17 -0.17)">
     <use xlink:href="#DejaVuSans-50"/>
     <use x="63.623047" xlink:href="#DejaVuSans-45"/>
     <use x="99.707031" xlink:href="#DejaVuSans-68"/>
    </g>
   </g>
   <g id="text_19">
    <!-- bbob f1 -->
    <g transform="translate(60.41088 38.111366)scale(0.102 -0.102)">
     <defs>
      <path d="M 48.6875 27.296875 
Q 48.6875 37.203125 44.609375 42.84375 
Q 40.53125 48.484375 33.40625 48.484375 
Q 26.265625 48.484375 22.1875 42.84375 
Q 18.109375 37.203125 18.109375 27.296875 
Q 18.109375 17.390625 22.1875 11.75 
Q 26.265625 6.109375 33.40625 6.109375 
Q 40.53125 6.109375 44.609375 11.75 
Q 48.6875 17.390625 48.6875 27.296875 
z
M 18.109375 46.390625 
Q 20.953125 51.265625 25.265625 53.625 
Q 29.59375 56 35.59375 56 
Q 45.5625 56 51.78125 48.09375 
Q 58.015625 40.1875 58.015625 27.296875 
Q 58.015625 14.40625 51.78125 6.484375 
Q 45.5625 -1.421875 35.59375 -1.421875 
Q 29.59375 -1.421875 25.265625 0.953125 
Q 20.953125 3.328125 18.109375 8.203125 
L 18.109375 0 
L 9.078125 0 
L 9.078125 75.984375 
L 18.109375 75.984375 
z
" id="DejaVuSans-98"/>
     </defs>
     <use xlink:href="#DejaVuSans-98"/>
     <use x="63.476562" xlink:href="#DejaVuSans-98"/>
     <use x="126.953125" xlink:href="#DejaVuSans-111"/>
     <use x="188.134766" xlink:href="#DejaVuSans-98"/>
     <use x="251.611328" xlink:href="#DejaVuSans-32"/>
     <use x="283.398438" xlink:href="#DejaVuSans-102"/>
     <use x="318.603516" xlink:href="#DejaVuSans-49"/>
    </g>
    <!-- 51 targets: 100..1e-08 -->
    <g transform="translate(60.41088 49.533135)scale(0.102 -0.102)">
     <defs>
      <path d="M 11.71875 12.40625 
L 22.015625 12.40625 
L 22.015625 0 
L 11.71875 0 
z
M 11.71875 51.703125 
L 22.015625 51.703125 
L 22.015625 39.3125 
L 11.71875 39.3125 
z
" id="DejaVuSans-58"/>
     </defs>
     <use xlink:href="#DejaVuSans-53"/>
     <use x="63.623047" xlink:href="#DejaVuSans-49"/>
     <use x="127.246094" xlink:href="#DejaVuSans-32"/>
     <use x="159.033203" xlink:href="#DejaVuSans-116"/>
     <use x="198.242188" xlink:href="#DejaVuSans-97"/>
     <use x="259.521484" xlink:href="#DejaVuSans-114"/>
     <use x="298.884766" xlink:href="#DejaVuSans-103"/>
     <use x="362.361328" xlink:href="#DejaVuSans-101"/>
     <use x="423.884766" xlink:href="#DejaVuSans-116"/>
     <use x="463.09375" xlink:href="#DejaVuSans-115"/>
     <use x="515.193359" xlink:href="#DejaVuSans-58"/>
     <use x="548.884766" xlink:href="#DejaVuSans-32"/>
     <use x="580.671875" xlink:href="#DejaVuSans-49"/>
     <use x="644.294922" xlink:href="#DejaVuSans-48"/>
     <use x="707.917969" xlink:href="#DejaVuSans-48"/>
     <use x="771.541016" xlink:href="#DejaVuSans-46"/>
     <use x="803.328125" xlink:href="#DejaVuSans-46"/>
     <use x="835.115234" xlink:href="#DejaVuSans-49"/>
     <use x="898.738281" xlink:href="#DejaVuSans-101"/>
     <use x="960.261719" xlink:href="#DejaVuSans-45"/>
     <use x="996.345703" xlink:href="#DejaVuSans-48"/>
     <use x="1059.96875" xlink:href="#DejaVuSans-56"/>
    </g>
    <!-- 15 instances -->
    <g transform="translate(60.41088 60.954904)scale(0.102 -0.102)">
     <use xlink:href="#DejaVuSans-49"/>
     <use x="63.623047" xlink:href="#DejaVuSans-53"/>
     <use x="127.246094" xlink:href="#DejaVuSans-32"/>
     <use x="159.033203" xlink:href="#DejaVuSans-105"/>
     <use x="186.816406" xlink:href="#DejaVuSans-110"/>
     <use x="250.195312" xlink:href="#DejaVuSans-115"/>
     <use x="302.294922" xlink:href="#DejaVuSans-116"/>
     <use x="341.503906" xlink:href="#DejaVuSans-97"/>
     <use x="402.783203" xlink:href="#DejaVuSans-110"/>
     <use x="466.162109" xlink:href="#DejaVuSans-99"/>
     <use x="521.142578" xlink:href="#DejaVuSans-101"/>
     <use x="582.666016" xlink:href="#DejaVuSans-115"/>
    </g>
   </g>
   <g id="text_20">
    <!-- v2.4 -->
    <g style="fill:#808080;" transform="translate(187.233062 294.151352)scale(0.1 -0.1)">
     <use xlink:href="#DejaVuSans-118"/>
     <use x="59.179688" xlink:href="#DejaVuSans-50"/>
     <use x="122.802734" xlink:href="#DejaVuSans-46"/>
     <use x="154.589844" xlink:href="#DejaVuSans-52"/>
    </g>
   </g>
   <g id="text_21">
    <!-- 1 Sphere -->
    <g transform="translate(153.376812 21.648)scale(0.2 -0.2)">
     <defs>
      <path d="M 53.515625 70.515625 
L 53.515625 60.890625 
Q 47.90625 63.578125 42.921875 64.890625 
Q 37.9375 66.21875 33.296875 66.21875 
Q 25.25 66.21875 20.875 63.09375 
Q 16.5 59.96875 16.5 54.203125 
Q 16.5 49.359375 19.40625 46.890625 
Q 22.3125 44.4375 30.421875 42.921875 
L 36.375 41.703125 
Q 47.40625 39.59375 52.65625 34.296875 
Q 57.90625 29 57.90625 20.125 
Q 57.90625 9.515625 50.796875 4.046875 
Q 43.703125 -1.421875 29.984375 -1.421875 
Q 24.8125 -1.421875 18.96875 -0.25 
Q 13.140625 0.921875 6.890625 3.21875 
L 6.890625 13.375 
Q 12.890625 10.015625 18.65625 8.296875 
Q 24.421875 6.59375 29.984375 6.59375 
Q 38.421875 6.59375 43.015625 9.90625 
Q 47.609375 13.234375 47.609375 19.390625 
Q 47.609375 24.75 44.3125 27.78125 
Q 41.015625 30.8125 33.5 32.328125 
L 27.484375 33.5 
Q 16.453125 35.6875 11.515625 40.375 
Q 6.59375 45.0625 6.59375 53.421875 
Q 6.59375 63.09375 13.40625 68.65625 
Q 20.21875 74.21875 32.171875 74.21875 
Q 37.3125 74.21875 42.625 73.28125 
Q 47.953125 72.359375 53.515625 70.515625 
z
" id="DejaVuSans-83"/>
      <path d="M 54.890625 33.015625 
L 54.890625 0 
L 45.90625 0 
L 45.90625 32.71875 
Q 45.90625 40.484375 42.875 44.328125 
Q 39.84375 48.1875 33.796875 48.1875 
Q 26.515625 48.1875 22.3125 43.546875 
Q 18.109375 38.921875 18.109375 30.90625 
L 18.109375 0 
L 9.078125 0 
L 9.078125 75.984375 
L 18.109375 75.984375 
L 18.109375 46.1875 
Q 21.34375 51.125 25.703125 53.5625 
Q 30.078125 56 35.796875 56 
Q 45.21875 56 50.046875 50.171875 
Q 54.890625 44.34375 54.890625 33.015625 
z
" id="DejaVuSans-104"/>
     </defs>
     <use xlink:href="#DejaVuSans-49"/>
     <use x="63.623047" xlink:href="#DejaVuSans-32"/>
     <use x="95.410156" xlink:href="#DejaVuSans-83"/>
     <use x="158.886719" xlink:href="#DejaVuSans-112"/>
     <use x="222.363281" xlink:href="#DejaVuSans-104"/>
     <use x="285.742188" xlink:href="#DejaVuSans-101"/>
     <use x="347.265625" xlink:href="#DejaVuSans-114"/>
     <use x="386.128906" xlink:href="#DejaVuSans-101"/>
    </g>
   </g>
  </g>
 </g>
 <defs>
  <clipPath id="pe4b71c7d06">
   <rect height="271.296" width="281.088" x="57.6" y="27.648"/>
  </clipPath>
 </defs>
</svg>
