<?xml version="1.0" encoding="utf-8" standalone="no"?>
<!DOCTYPE svg PUBLIC "-//W3C//DTD SVG 1.1//EN"
  "http://www.w3.org/Graphics/SVG/1.1/DTD/svg11.dtd">
<!-- Created with matplotlib (https://matplotlib.org/) -->
<svg height="345.6pt" version="1.1" viewBox="0 0 460.8 345.6" width="460.8pt" xmlns="http://www.w3.org/2000/svg" xmlns:xlink="http://www.w3.org/1999/xlink">
 <metadata>
  <rdf:RDF xmlns:cc="http://creativecommons.org/ns#" xmlns:dc="http://purl.org/dc/elements/1.1/" xmlns:rdf="http://www.w3.org/1999/02/22-rdf-syntax-ns#">
   <cc:Work>
    <dc:type rdf:resource="http://purl.org/dc/dcmitype/StillImage"/>
    <dc:date>2021-08-04T15:03:04.900517</dc:date>
    <dc:format>image/svg+xml</dc:format>
    <dc:creator>
     <cc:Agent>
      <dc:title>Matplotlib v3.3.1, https://matplotlib.org/</dc:title>
     </cc:Agent>
    </dc:creator>
   </cc:Work>
  </rdf:RDF>
 </metadata>
 <defs>
  <style type="text/css">*{stroke-linecap:butt;stroke-linejoin:round;}</style>
 </defs>
 <g id="figure_1">
  <g id="patch_1">
   <path d="M 0 345.6 
L 460.8 345.6 
L 460.8 0 
L 0 0 
z
" style="fill:#ffffff;"/>
  </g>
  <g id="axes_1">
   <g id="patch_2">
    <path d="M 57.6 298.944 
L 338.688 298.944 
L 338.688 3.456 
L 57.6 3.456 
z
" style="fill:#ffffff;"/>
   </g>
   <g id="matplotlib.axis_1">
    <g id="xtick_1">
     <g id="line2d_1">
      <path clip-path="url(#p2af1e7f801)" d="M 57.6 298.944 
L 57.6 3.456 
" style="fill:none;stroke:#b0b0b0;stroke-linecap:square;stroke-width:0.8;"/>
     </g>
     <g id="line2d_2">
      <defs>
       <path d="M 0 0 
L 0 3.5 
" id="m5fcd0ebe97" style="stroke:#000000;stroke-width:0.8;"/>
      </defs>
      <g>
       <use style="stroke:#000000;stroke-width:0.8;" x="57.6" xlink:href="#m5fcd0ebe97" y="298.944"/>
      </g>
     </g>
     <g id="text_1">
      <!-- 0 -->
      <g transform="translate(51.2375 321.140875)scale(0.2 -0.2)">
       <defs>
        <path d="M 31.78125 66.40625 
Q 24.171875 66.40625 20.328125 58.90625 
Q 16.5 51.421875 16.5 36.375 
Q 16.5 21.390625 20.328125 13.890625 
Q 24.171875 6.390625 31.78125 6.390625 
Q 39.453125 6.390625 43.28125 13.890625 
Q 47.125 21.390625 47.125 36.375 
Q 47.125 51.421875 43.28125 58.90625 
Q 39.453125 66.40625 31.78125 66.40625 
z
M 31.78125 74.21875 
Q 44.046875 74.21875 50.515625 64.515625 
Q 56.984375 54.828125 56.984375 36.375 
Q 56.984375 17.96875 50.515625 8.265625 
Q 44.046875 -1.421875 31.78125 -1.421875 
Q 19.53125 -1.421875 13.0625 8.265625 
Q 6.59375 17.96875 6.59375 36.375 
Q 6.59375 54.828125 13.0625 64.515625 
Q 19.53125 74.21875 31.78125 74.21875 
z
" id="DejaVuSans-48"/>
       </defs>
       <use xlink:href="#DejaVuSans-48"/>
      </g>
     </g>
    </g>
    <g id="xtick_2">
     <g id="line2d_3">
      <path clip-path="url(#p2af1e7f801)" d="M 137.910857 298.944 
L 137.910857 3.456 
" style="fill:none;stroke:#b0b0b0;stroke-linecap:square;stroke-width:0.8;"/>
     </g>
     <g id="line2d_4">
      <g>
       <use style="stroke:#000000;stroke-width:0.8;" x="137.910857" xlink:href="#m5fcd0ebe97" y="298.944"/>
      </g>
     </g>
     <g id="text_2">
      <!-- 2 -->
      <g transform="translate(131.548357 321.140875)scale(0.2 -0.2)">
       <defs>
        <path d="M 19.1875 8.296875 
L 53.609375 8.296875 
L 53.609375 0 
L 7.328125 0 
L 7.328125 8.296875 
Q 12.9375 14.109375 22.625 23.890625 
Q 32.328125 33.6875 34.8125 36.53125 
Q 39.546875 41.84375 41.421875 45.53125 
Q 43.3125 49.21875 43.3125 52.78125 
Q 43.3125 58.59375 39.234375 62.25 
Q 35.15625 65.921875 28.609375 65.921875 
Q 23.96875 65.921875 18.8125 64.3125 
Q 13.671875 62.703125 7.8125 59.421875 
L 7.8125 69.390625 
Q 13.765625 71.78125 18.9375 73 
Q 24.125 74.21875 28.421875 74.21875 
Q 39.75 74.21875 46.484375 68.546875 
Q 53.21875 62.890625 53.21875 53.421875 
Q 53.21875 48.921875 51.53125 44.890625 
Q 49.859375 40.875 45.40625 35.40625 
Q 44.1875 33.984375 37.640625 27.21875 
Q 31.109375 20.453125 19.1875 8.296875 
z
" id="DejaVuSans-50"/>
       </defs>
       <use xlink:href="#DejaVuSans-50"/>
      </g>
     </g>
    </g>
    <g id="xtick_3">
     <g id="line2d_5">
      <path clip-path="url(#p2af1e7f801)" d="M 218.221714 298.944 
L 218.221714 3.456 
" style="fill:none;stroke:#b0b0b0;stroke-linecap:square;stroke-width:0.8;"/>
     </g>
     <g id="line2d_6">
      <g>
       <use style="stroke:#000000;stroke-width:0.8;" x="218.221714" xlink:href="#m5fcd0ebe97" y="298.944"/>
      </g>
     </g>
     <g id="text_3">
      <!-- 4 -->
      <g transform="translate(211.859214 321.140875)scale(0.2 -0.2)">
       <defs>
        <path d="M 37.796875 64.3125 
L 12.890625 25.390625 
L 37.796875 25.390625 
z
M 35.203125 72.90625 
L 47.609375 72.90625 
L 47.609375 25.390625 
L 58.015625 25.390625 
L 58.015625 17.1875 
L 47.609375 17.1875 
L 47.609375 0 
L 37.796875 0 
L 37.796875 17.1875 
L 4.890625 17.1875 
L 4.890625 26.703125 
z
" id="DejaVuSans-52"/>
       </defs>
       <use xlink:href="#DejaVuSans-52"/>
      </g>
     </g>
    </g>
    <g id="xtick_4">
     <g id="line2d_7">
      <path clip-path="url(#p2af1e7f801)" d="M 298.532571 298.944 
L 298.532571 3.456 
" style="fill:none;stroke:#b0b0b0;stroke-linecap:square;stroke-width:0.8;"/>
     </g>
     <g id="line2d_8">
      <g>
       <use style="stroke:#000000;stroke-width:0.8;" x="298.532571" xlink:href="#m5fcd0ebe97" y="298.944"/>
      </g>
     </g>
     <g id="text_4">
      <!-- 6 -->
      <g transform="translate(292.170071 321.140875)scale(0.2 -0.2)">
       <defs>
        <path d="M 33.015625 40.375 
Q 26.375 40.375 22.484375 35.828125 
Q 18.609375 31.296875 18.609375 23.390625 
Q 18.609375 15.53125 22.484375 10.953125 
Q 26.375 6.390625 33.015625 6.390625 
Q 39.65625 6.390625 43.53125 10.953125 
Q 47.40625 15.53125 47.40625 23.390625 
Q 47.40625 31.296875 43.53125 35.828125 
Q 39.65625 40.375 33.015625 40.375 
z
M 52.59375 71.296875 
L 52.59375 62.3125 
Q 48.875 64.0625 45.09375 64.984375 
Q 41.3125 65.921875 37.59375 65.921875 
Q 27.828125 65.921875 22.671875 59.328125 
Q 17.53125 52.734375 16.796875 39.40625 
Q 19.671875 43.65625 24.015625 45.921875 
Q 28.375 48.1875 33.59375 48.1875 
Q 44.578125 48.1875 50.953125 41.515625 
Q 57.328125 34.859375 57.328125 23.390625 
Q 57.328125 12.15625 50.6875 5.359375 
Q 44.046875 -1.421875 33.015625 -1.421875 
Q 20.359375 -1.421875 13.671875 8.265625 
Q 6.984375 17.96875 6.984375 36.375 
Q 6.984375 53.65625 15.1875 63.9375 
Q 23.390625 74.21875 37.203125 74.21875 
Q 40.921875 74.21875 44.703125 73.484375 
Q 48.484375 72.75 52.59375 71.296875 
z
" id="DejaVuSans-54"/>
       </defs>
       <use xlink:href="#DejaVuSans-54"/>
      </g>
     </g>
    </g>
    <g id="xtick_5">
     <g id="line2d_9">
      <path clip-path="url(#p2af1e7f801)" d="M 97.755429 298.944 
L 97.755429 3.456 
" style="fill:none;stroke:#b0b0b0;stroke-linecap:square;stroke-width:0.8;"/>
     </g>
     <g id="line2d_10">
      <defs>
       <path d="M 0 0 
L 0 2 
" id="m49706827c0" style="stroke:#000000;stroke-width:0.6;"/>
      </defs>
      <g>
       <use style="stroke:#000000;stroke-width:0.6;" x="97.755429" xlink:href="#m49706827c0" y="298.944"/>
      </g>
     </g>
    </g>
    <g id="xtick_6">
     <g id="line2d_11">
      <path clip-path="url(#p2af1e7f801)" d="M 178.066286 298.944 
L 178.066286 3.456 
" style="fill:none;stroke:#b0b0b0;stroke-linecap:square;stroke-width:0.8;"/>
     </g>
     <g id="line2d_12">
      <g>
       <use style="stroke:#000000;stroke-width:0.6;" x="178.066286" xlink:href="#m49706827c0" y="298.944"/>
      </g>
     </g>
    </g>
    <g id="xtick_7">
     <g id="line2d_13">
      <path clip-path="url(#p2af1e7f801)" d="M 258.377143 298.944 
L 258.377143 3.456 
" style="fill:none;stroke:#b0b0b0;stroke-linecap:square;stroke-width:0.8;"/>
     </g>
     <g id="line2d_14">
      <g>
       <use style="stroke:#000000;stroke-width:0.6;" x="258.377143" xlink:href="#m49706827c0" y="298.944"/>
      </g>
     </g>
    </g>
    <g id="xtick_8">
     <g id="line2d_15">
      <path clip-path="url(#p2af1e7f801)" d="M 338.688 298.944 
L 338.688 3.456 
" style="fill:none;stroke:#b0b0b0;stroke-linecap:square;stroke-width:0.8;"/>
     </g>
     <g id="line2d_16">
      <g>
       <use style="stroke:#000000;stroke-width:0.6;" x="338.688" xlink:href="#m49706827c0" y="298.944"/>
      </g>
     </g>
    </g>
    <g id="text_5">
     <!-- log10(# f-evals / dimension) -->
     <g transform="translate(77.764078 342.217594)scale(0.17 -0.17)">
      <defs>
       <path d="M 9.421875 75.984375 
L 18.40625 75.984375 
L 18.40625 0 
L 9.421875 0 
z
" id="DejaVuSans-108"/>
       <path d="M 30.609375 48.390625 
Q 23.390625 48.390625 19.1875 42.75 
Q 14.984375 37.109375 14.984375 27.296875 
Q 14.984375 17.484375 19.15625 11.84375 
Q 23.34375 6.203125 30.609375 6.203125 
Q 37.796875 6.203125 41.984375 11.859375 
Q 46.1875 17.53125 46.1875 27.296875 
Q 46.1875 37.015625 41.984375 42.703125 
Q 37.796875 48.390625 30.609375 48.390625 
z
M 30.609375 56 
Q 42.328125 56 49.015625 48.375 
Q 55.71875 40.765625 55.71875 27.296875 
Q 55.71875 13.875 49.015625 6.21875 
Q 42.328125 -1.421875 30.609375 -1.421875 
Q 18.84375 -1.421875 12.171875 6.21875 
Q 5.515625 13.875 5.515625 27.296875 
Q 5.515625 40.765625 12.171875 48.375 
Q 18.84375 56 30.609375 56 
z
" id="DejaVuSans-111"/>
       <path d="M 45.40625 27.984375 
Q 45.40625 37.75 41.375 43.109375 
Q 37.359375 48.484375 30.078125 48.484375 
Q 22.859375 48.484375 18.828125 43.109375 
Q 14.796875 37.75 14.796875 27.984375 
Q 14.796875 18.265625 18.828125 12.890625 
Q 22.859375 7.515625 30.078125 7.515625 
Q 37.359375 7.515625 41.375 12.890625 
Q 45.40625 18.265625 45.40625 27.984375 
z
M 54.390625 6.78125 
Q 54.390625 -7.171875 48.1875 -13.984375 
Q 42 -20.796875 29.203125 -20.796875 
Q 24.46875 -20.796875 20.265625 -20.09375 
Q 16.0625 -19.390625 12.109375 -17.921875 
L 12.109375 -9.1875 
Q 16.0625 -11.328125 19.921875 -12.34375 
Q 23.78125 -13.375 27.78125 -13.375 
Q 36.625 -13.375 41.015625 -8.765625 
Q 45.40625 -4.15625 45.40625 5.171875 
L 45.40625 9.625 
Q 42.625 4.78125 38.28125 2.390625 
Q 33.9375 0 27.875 0 
Q 17.828125 0 11.671875 7.65625 
Q 5.515625 15.328125 5.515625 27.984375 
Q 5.515625 40.671875 11.671875 48.328125 
Q 17.828125 56 27.875 56 
Q 33.9375 56 38.28125 53.609375 
Q 42.625 51.21875 45.40625 46.390625 
L 45.40625 54.6875 
L 54.390625 54.6875 
z
" id="DejaVuSans-103"/>
       <path d="M 12.40625 8.296875 
L 28.515625 8.296875 
L 28.515625 63.921875 
L 10.984375 60.40625 
L 10.984375 69.390625 
L 28.421875 72.90625 
L 38.28125 72.90625 
L 38.28125 8.296875 
L 54.390625 8.296875 
L 54.390625 0 
L 12.40625 0 
z
" id="DejaVuSans-49"/>
       <path d="M 31 75.875 
Q 24.46875 64.65625 21.28125 53.65625 
Q 18.109375 42.671875 18.109375 31.390625 
Q 18.109375 20.125 21.3125 9.0625 
Q 24.515625 -2 31 -13.1875 
L 23.1875 -13.1875 
Q 15.875 -1.703125 12.234375 9.375 
Q 8.59375 20.453125 8.59375 31.390625 
Q 8.59375 42.28125 12.203125 53.3125 
Q 15.828125 64.359375 23.1875 75.875 
z
" id="DejaVuSans-40"/>
       <path d="M 51.125 44 
L 36.921875 44 
L 32.8125 27.6875 
L 47.125 27.6875 
z
M 43.796875 71.78125 
L 38.71875 51.515625 
L 52.984375 51.515625 
L 58.109375 71.78125 
L 65.921875 71.78125 
L 60.890625 51.515625 
L 76.125 51.515625 
L 76.125 44 
L 58.984375 44 
L 54.984375 27.6875 
L 70.515625 27.6875 
L 70.515625 20.21875 
L 53.078125 20.21875 
L 48 0 
L 40.1875 0 
L 45.21875 20.21875 
L 30.90625 20.21875 
L 25.875 0 
L 18.015625 0 
L 23.09375 20.21875 
L 7.71875 20.21875 
L 7.71875 27.6875 
L 24.90625 27.6875 
L 29 44 
L 13.28125 44 
L 13.28125 51.515625 
L 30.90625 51.515625 
L 35.890625 71.78125 
z
" id="DejaVuSans-35"/>
       <path id="DejaVuSans-32"/>
       <path d="M 37.109375 75.984375 
L 37.109375 68.5 
L 28.515625 68.5 
Q 23.6875 68.5 21.796875 66.546875 
Q 19.921875 64.59375 19.921875 59.515625 
L 19.921875 54.6875 
L 34.71875 54.6875 
L 34.71875 47.703125 
L 19.921875 47.703125 
L 19.921875 0 
L 10.890625 0 
L 10.890625 47.703125 
L 2.296875 47.703125 
L 2.296875 54.6875 
L 10.890625 54.6875 
L 10.890625 58.5 
Q 10.890625 67.625 15.140625 71.796875 
Q 19.390625 75.984375 28.609375 75.984375 
z
" id="DejaVuSans-102"/>
       <path d="M 4.890625 31.390625 
L 31.203125 31.390625 
L 31.203125 23.390625 
L 4.890625 23.390625 
z
" id="DejaVuSans-45"/>
       <path d="M 56.203125 29.59375 
L 56.203125 25.203125 
L 14.890625 25.203125 
Q 15.484375 15.921875 20.484375 11.0625 
Q 25.484375 6.203125 34.421875 6.203125 
Q 39.59375 6.203125 44.453125 7.46875 
Q 49.3125 8.734375 54.109375 11.28125 
L 54.109375 2.78125 
Q 49.265625 0.734375 44.1875 -0.34375 
Q 39.109375 -1.421875 33.890625 -1.421875 
Q 20.796875 -1.421875 13.15625 6.1875 
Q 5.515625 13.8125 5.515625 26.8125 
Q 5.515625 40.234375 12.765625 48.109375 
Q 20.015625 56 32.328125 56 
Q 43.359375 56 49.78125 48.890625 
Q 56.203125 41.796875 56.203125 29.59375 
z
M 47.21875 32.234375 
Q 47.125 39.59375 43.09375 43.984375 
Q 39.0625 48.390625 32.421875 48.390625 
Q 24.90625 48.390625 20.390625 44.140625 
Q 15.875 39.890625 15.1875 32.171875 
z
" id="DejaVuSans-101"/>
       <path d="M 2.984375 54.6875 
L 12.5 54.6875 
L 29.59375 8.796875 
L 46.6875 54.6875 
L 56.203125 54.6875 
L 35.6875 0 
L 23.484375 0 
z
" id="DejaVuSans-118"/>
       <path d="M 34.28125 27.484375 
Q 23.390625 27.484375 19.1875 25 
Q 14.984375 22.515625 14.984375 16.5 
Q 14.984375 11.71875 18.140625 8.90625 
Q 21.296875 6.109375 26.703125 6.109375 
Q 34.1875 6.109375 38.703125 11.40625 
Q 43.21875 16.703125 43.21875 25.484375 
L 43.21875 27.484375 
z
M 52.203125 31.203125 
L 52.203125 0 
L 43.21875 0 
L 43.21875 8.296875 
Q 40.140625 3.328125 35.546875 0.953125 
Q 30.953125 -1.421875 24.3125 -1.421875 
Q 15.921875 -1.421875 10.953125 3.296875 
Q 6 8.015625 6 15.921875 
Q 6 25.140625 12.171875 29.828125 
Q 18.359375 34.515625 30.609375 34.515625 
L 43.21875 34.515625 
L 43.21875 35.40625 
Q 43.21875 41.609375 39.140625 45 
Q 35.0625 48.390625 27.6875 48.390625 
Q 23 48.390625 18.546875 47.265625 
Q 14.109375 46.140625 10.015625 43.890625 
L 10.015625 52.203125 
Q 14.9375 54.109375 19.578125 55.046875 
Q 24.21875 56 28.609375 56 
Q 40.484375 56 46.34375 49.84375 
Q 52.203125 43.703125 52.203125 31.203125 
z
" id="DejaVuSans-97"/>
       <path d="M 44.28125 53.078125 
L 44.28125 44.578125 
Q 40.484375 46.53125 36.375 47.5 
Q 32.28125 48.484375 27.875 48.484375 
Q 21.1875 48.484375 17.84375 46.4375 
Q 14.5 44.390625 14.5 40.28125 
Q 14.5 37.15625 16.890625 35.375 
Q 19.28125 33.59375 26.515625 31.984375 
L 29.59375 31.296875 
Q 39.15625 29.25 43.1875 25.515625 
Q 47.21875 21.78125 47.21875 15.09375 
Q 47.21875 7.46875 41.1875 3.015625 
Q 35.15625 -1.421875 24.609375 -1.421875 
Q 20.21875 -1.421875 15.453125 -0.5625 
Q 10.6875 0.296875 5.421875 2 
L 5.421875 11.28125 
Q 10.40625 8.6875 15.234375 7.390625 
Q 20.0625 6.109375 24.8125 6.109375 
Q 31.15625 6.109375 34.5625 8.28125 
Q 37.984375 10.453125 37.984375 14.40625 
Q 37.984375 18.0625 35.515625 20.015625 
Q 33.0625 21.96875 24.703125 23.78125 
L 21.578125 24.515625 
Q 13.234375 26.265625 9.515625 29.90625 
Q 5.8125 33.546875 5.8125 39.890625 
Q 5.8125 47.609375 11.28125 51.796875 
Q 16.75 56 26.8125 56 
Q 31.78125 56 36.171875 55.265625 
Q 40.578125 54.546875 44.28125 53.078125 
z
" id="DejaVuSans-115"/>
       <path d="M 25.390625 72.90625 
L 33.6875 72.90625 
L 8.296875 -9.28125 
L 0 -9.28125 
z
" id="DejaVuSans-47"/>
       <path d="M 45.40625 46.390625 
L 45.40625 75.984375 
L 54.390625 75.984375 
L 54.390625 0 
L 45.40625 0 
L 45.40625 8.203125 
Q 42.578125 3.328125 38.25 0.953125 
Q 33.9375 -1.421875 27.875 -1.421875 
Q 17.96875 -1.421875 11.734375 6.484375 
Q 5.515625 14.40625 5.515625 27.296875 
Q 5.515625 40.1875 11.734375 48.09375 
Q 17.96875 56 27.875 56 
Q 33.9375 56 38.25 53.625 
Q 42.578125 51.265625 45.40625 46.390625 
z
M 14.796875 27.296875 
Q 14.796875 17.390625 18.875 11.75 
Q 22.953125 6.109375 30.078125 6.109375 
Q 37.203125 6.109375 41.296875 11.75 
Q 45.40625 17.390625 45.40625 27.296875 
Q 45.40625 37.203125 41.296875 42.84375 
Q 37.203125 48.484375 30.078125 48.484375 
Q 22.953125 48.484375 18.875 42.84375 
Q 14.796875 37.203125 14.796875 27.296875 
z
" id="DejaVuSans-100"/>
       <path d="M 9.421875 54.6875 
L 18.40625 54.6875 
L 18.40625 0 
L 9.421875 0 
z
M 9.421875 75.984375 
L 18.40625 75.984375 
L 18.40625 64.59375 
L 9.421875 64.59375 
z
" id="DejaVuSans-105"/>
       <path d="M 52 44.1875 
Q 55.375 50.25 60.0625 53.125 
Q 64.75 56 71.09375 56 
Q 79.640625 56 84.28125 50.015625 
Q 88.921875 44.046875 88.921875 33.015625 
L 88.921875 0 
L 79.890625 0 
L 79.890625 32.71875 
Q 79.890625 40.578125 77.09375 44.375 
Q 74.3125 48.1875 68.609375 48.1875 
Q 61.625 48.1875 57.5625 43.546875 
Q 53.515625 38.921875 53.515625 30.90625 
L 53.515625 0 
L 44.484375 0 
L 44.484375 32.71875 
Q 44.484375 40.625 41.703125 44.40625 
Q 38.921875 48.1875 33.109375 48.1875 
Q 26.21875 48.1875 22.15625 43.53125 
Q 18.109375 38.875 18.109375 30.90625 
L 18.109375 0 
L 9.078125 0 
L 9.078125 54.6875 
L 18.109375 54.6875 
L 18.109375 46.1875 
Q 21.1875 51.21875 25.484375 53.609375 
Q 29.78125 56 35.6875 56 
Q 41.65625 56 45.828125 52.96875 
Q 50 49.953125 52 44.1875 
z
" id="DejaVuSans-109"/>
       <path d="M 54.890625 33.015625 
L 54.890625 0 
L 45.90625 0 
L 45.90625 32.71875 
Q 45.90625 40.484375 42.875 44.328125 
Q 39.84375 48.1875 33.796875 48.1875 
Q 26.515625 48.1875 22.3125 43.546875 
Q 18.109375 38.921875 18.109375 30.90625 
L 18.109375 0 
L 9.078125 0 
L 9.078125 54.6875 
L 18.109375 54.6875 
L 18.109375 46.1875 
Q 21.34375 51.125 25.703125 53.5625 
Q 30.078125 56 35.796875 56 
Q 45.21875 56 50.046875 50.171875 
Q 54.890625 44.34375 54.890625 33.015625 
z
" id="DejaVuSans-110"/>
       <path d="M 8.015625 75.875 
L 15.828125 75.875 
Q 23.140625 64.359375 26.78125 53.3125 
Q 30.421875 42.28125 30.421875 31.390625 
Q 30.421875 20.453125 26.78125 9.375 
Q 23.140625 -1.703125 15.828125 -13.1875 
L 8.015625 -13.1875 
Q 14.5 -2 17.703125 9.0625 
Q 20.90625 20.125 20.90625 31.390625 
Q 20.90625 42.671875 17.703125 53.65625 
Q 14.5 64.65625 8.015625 75.875 
z
" id="DejaVuSans-41"/>
      </defs>
      <use xlink:href="#DejaVuSans-108"/>
      <use x="27.783203" xlink:href="#DejaVuSans-111"/>
      <use x="88.964844" xlink:href="#DejaVuSans-103"/>
      <use x="152.441406" xlink:href="#DejaVuSans-49"/>
      <use x="216.064453" xlink:href="#DejaVuSans-48"/>
      <use x="279.6875" xlink:href="#DejaVuSans-40"/>
      <use x="318.701172" xlink:href="#DejaVuSans-35"/>
      <use x="402.490234" xlink:href="#DejaVuSans-32"/>
      <use x="434.277344" xlink:href="#DejaVuSans-102"/>
      <use x="463.982422" xlink:href="#DejaVuSans-45"/>
      <use x="500.066406" xlink:href="#DejaVuSans-101"/>
      <use x="561.589844" xlink:href="#DejaVuSans-118"/>
      <use x="620.769531" xlink:href="#DejaVuSans-97"/>
      <use x="682.048828" xlink:href="#DejaVuSans-108"/>
      <use x="709.832031" xlink:href="#DejaVuSans-115"/>
      <use x="761.931641" xlink:href="#DejaVuSans-32"/>
      <use x="793.71875" xlink:href="#DejaVuSans-47"/>
      <use x="827.410156" xlink:href="#DejaVuSans-32"/>
      <use x="859.197266" xlink:href="#DejaVuSans-100"/>
      <use x="922.673828" xlink:href="#DejaVuSans-105"/>
      <use x="950.457031" xlink:href="#DejaVuSans-109"/>
      <use x="1047.869141" xlink:href="#DejaVuSans-101"/>
      <use x="1109.392578" xlink:href="#DejaVuSans-110"/>
      <use x="1172.771484" xlink:href="#DejaVuSans-115"/>
      <use x="1224.871094" xlink:href="#DejaVuSans-105"/>
      <use x="1252.654297" xlink:href="#DejaVuSans-111"/>
      <use x="1313.835938" xlink:href="#DejaVuSans-110"/>
      <use x="1377.214844" xlink:href="#DejaVuSans-41"/>
     </g>
    </g>
   </g>
   <g id="matplotlib.axis_2">
    <g id="ytick_1">
     <g id="line2d_17">
      <path clip-path="url(#p2af1e7f801)" d="M 57.6 298.944 
L 338.688 298.944 
" style="fill:none;stroke:#b0b0b0;stroke-linecap:square;stroke-width:0.8;"/>
     </g>
     <g id="line2d_18">
      <defs>
       <path d="M 0 0 
L -3.5 0 
" id="me21e0e6c14" style="stroke:#000000;stroke-width:0.8;"/>
      </defs>
      <g>
       <use style="stroke:#000000;stroke-width:0.8;" x="57.6" xlink:href="#me21e0e6c14" y="298.944"/>
      </g>
     </g>
     <g id="text_6">
      <!-- 0.0 -->
      <g transform="translate(25.155 305.02275)scale(0.16 -0.16)">
       <defs>
        <path d="M 10.6875 12.40625 
L 21 12.40625 
L 21 0 
L 10.6875 0 
z
" id="DejaVuSans-46"/>
       </defs>
       <use xlink:href="#DejaVuSans-48"/>
       <use x="63.623047" xlink:href="#DejaVuSans-46"/>
       <use x="95.410156" xlink:href="#DejaVuSans-48"/>
      </g>
     </g>
    </g>
    <g id="ytick_2">
     <g id="line2d_19">
      <path clip-path="url(#p2af1e7f801)" d="M 57.6 240.431525 
L 338.688 240.431525 
" style="fill:none;stroke:#b0b0b0;stroke-linecap:square;stroke-width:0.8;"/>
     </g>
     <g id="line2d_20">
      <g>
       <use style="stroke:#000000;stroke-width:0.8;" x="57.6" xlink:href="#me21e0e6c14" y="240.431525"/>
      </g>
     </g>
     <g id="text_7">
      <!-- 0.2 -->
      <g transform="translate(25.155 246.510275)scale(0.16 -0.16)">
       <use xlink:href="#DejaVuSans-48"/>
       <use x="63.623047" xlink:href="#DejaVuSans-46"/>
       <use x="95.410156" xlink:href="#DejaVuSans-50"/>
      </g>
     </g>
    </g>
    <g id="ytick_3">
     <g id="line2d_21">
      <path clip-path="url(#p2af1e7f801)" d="M 57.6 181.91905 
L 338.688 181.91905 
" style="fill:none;stroke:#b0b0b0;stroke-linecap:square;stroke-width:0.8;"/>
     </g>
     <g id="line2d_22">
      <g>
       <use style="stroke:#000000;stroke-width:0.8;" x="57.6" xlink:href="#me21e0e6c14" y="181.91905"/>
      </g>
     </g>
     <g id="text_8">
      <!-- 0.4 -->
      <g transform="translate(25.155 187.9978)scale(0.16 -0.16)">
       <use xlink:href="#DejaVuSans-48"/>
       <use x="63.623047" xlink:href="#DejaVuSans-46"/>
       <use x="95.410156" xlink:href="#DejaVuSans-52"/>
      </g>
     </g>
    </g>
    <g id="ytick_4">
     <g id="line2d_23">
      <path clip-path="url(#p2af1e7f801)" d="M 57.6 123.406574 
L 338.688 123.406574 
" style="fill:none;stroke:#b0b0b0;stroke-linecap:square;stroke-width:0.8;"/>
     </g>
     <g id="line2d_24">
      <g>
       <use style="stroke:#000000;stroke-width:0.8;" x="57.6" xlink:href="#me21e0e6c14" y="123.406574"/>
      </g>
     </g>
     <g id="text_9">
      <!-- 0.6 -->
      <g transform="translate(25.155 129.485324)scale(0.16 -0.16)">
       <use xlink:href="#DejaVuSans-48"/>
       <use x="63.623047" xlink:href="#DejaVuSans-46"/>
       <use x="95.410156" xlink:href="#DejaVuSans-54"/>
      </g>
     </g>
    </g>
    <g id="ytick_5">
     <g id="line2d_25">
      <path clip-path="url(#p2af1e7f801)" d="M 57.6 64.894099 
L 338.688 64.894099 
" style="fill:none;stroke:#b0b0b0;stroke-linecap:square;stroke-width:0.8;"/>
     </g>
     <g id="line2d_26">
      <g>
       <use style="stroke:#000000;stroke-width:0.8;" x="57.6" xlink:href="#me21e0e6c14" y="64.894099"/>
      </g>
     </g>
     <g id="text_10">
      <!-- 0.8 -->
      <g transform="translate(25.155 70.972849)scale(0.16 -0.16)">
       <defs>
        <path d="M 31.78125 34.625 
Q 24.75 34.625 20.71875 30.859375 
Q 16.703125 27.09375 16.703125 20.515625 
Q 16.703125 13.921875 20.71875 10.15625 
Q 24.75 6.390625 31.78125 6.390625 
Q 38.8125 6.390625 42.859375 10.171875 
Q 46.921875 13.96875 46.921875 20.515625 
Q 46.921875 27.09375 42.890625 30.859375 
Q 38.875 34.625 31.78125 34.625 
z
M 21.921875 38.8125 
Q 15.578125 40.375 12.03125 44.71875 
Q 8.5 49.078125 8.5 55.328125 
Q 8.5 64.0625 14.71875 69.140625 
Q 20.953125 74.21875 31.78125 74.21875 
Q 42.671875 74.21875 48.875 69.140625 
Q 55.078125 64.0625 55.078125 55.328125 
Q 55.078125 49.078125 51.53125 44.71875 
Q 48 40.375 41.703125 38.8125 
Q 48.828125 37.15625 52.796875 32.3125 
Q 56.78125 27.484375 56.78125 20.515625 
Q 56.78125 9.90625 50.3125 4.234375 
Q 43.84375 -1.421875 31.78125 -1.421875 
Q 19.734375 -1.421875 13.25 4.234375 
Q 6.78125 9.90625 6.78125 20.515625 
Q 6.78125 27.484375 10.78125 32.3125 
Q 14.796875 37.15625 21.921875 38.8125 
z
M 18.3125 54.390625 
Q 18.3125 48.734375 21.84375 45.5625 
Q 25.390625 42.390625 31.78125 42.390625 
Q 38.140625 42.390625 41.71875 45.5625 
Q 45.3125 48.734375 45.3125 54.390625 
Q 45.3125 60.0625 41.71875 63.234375 
Q 38.140625 66.40625 31.78125 66.40625 
Q 25.390625 66.40625 21.84375 63.234375 
Q 18.3125 60.0625 18.3125 54.390625 
z
" id="DejaVuSans-56"/>
       </defs>
       <use xlink:href="#DejaVuSans-48"/>
       <use x="63.623047" xlink:href="#DejaVuSans-46"/>
       <use x="95.410156" xlink:href="#DejaVuSans-56"/>
      </g>
     </g>
    </g>
    <g id="ytick_6">
     <g id="line2d_27">
      <path clip-path="url(#p2af1e7f801)" d="M 57.6 6.381624 
L 338.688 6.381624 
" style="fill:none;stroke:#b0b0b0;stroke-linecap:square;stroke-width:0.8;"/>
     </g>
     <g id="line2d_28">
      <g>
       <use style="stroke:#000000;stroke-width:0.8;" x="57.6" xlink:href="#me21e0e6c14" y="6.381624"/>
      </g>
     </g>
     <g id="text_11">
      <!-- 1.0 -->
      <g transform="translate(25.155 12.460374)scale(0.16 -0.16)">
       <use xlink:href="#DejaVuSans-49"/>
       <use x="63.623047" xlink:href="#DejaVuSans-46"/>
       <use x="95.410156" xlink:href="#DejaVuSans-48"/>
      </g>
     </g>
    </g>
    <g id="text_12">
     <!-- Fraction of function,target pairs -->
     <g transform="translate(17.619531 285.585)rotate(-90)scale(0.17 -0.17)">
      <defs>
       <path d="M 9.8125 72.90625 
L 51.703125 72.90625 
L 51.703125 64.59375 
L 19.671875 64.59375 
L 19.671875 43.109375 
L 48.578125 43.109375 
L 48.578125 34.8125 
L 19.671875 34.8125 
L 19.671875 0 
L 9.8125 0 
z
" id="DejaVuSans-70"/>
       <path d="M 41.109375 46.296875 
Q 39.59375 47.171875 37.8125 47.578125 
Q 36.03125 48 33.890625 48 
Q 26.265625 48 22.1875 43.046875 
Q 18.109375 38.09375 18.109375 28.8125 
L 18.109375 0 
L 9.078125 0 
L 9.078125 54.6875 
L 18.109375 54.6875 
L 18.109375 46.1875 
Q 20.953125 51.171875 25.484375 53.578125 
Q 30.03125 56 36.53125 56 
Q 37.453125 56 38.578125 55.875 
Q 39.703125 55.765625 41.0625 55.515625 
z
" id="DejaVuSans-114"/>
       <path d="M 48.78125 52.59375 
L 48.78125 44.1875 
Q 44.96875 46.296875 41.140625 47.34375 
Q 37.3125 48.390625 33.40625 48.390625 
Q 24.65625 48.390625 19.8125 42.84375 
Q 14.984375 37.3125 14.984375 27.296875 
Q 14.984375 17.28125 19.8125 11.734375 
Q 24.65625 6.203125 33.40625 6.203125 
Q 37.3125 6.203125 41.140625 7.25 
Q 44.96875 8.296875 48.78125 10.40625 
L 48.78125 2.09375 
Q 45.015625 0.34375 40.984375 -0.53125 
Q 36.96875 -1.421875 32.421875 -1.421875 
Q 20.0625 -1.421875 12.78125 6.34375 
Q 5.515625 14.109375 5.515625 27.296875 
Q 5.515625 40.671875 12.859375 48.328125 
Q 20.21875 56 33.015625 56 
Q 37.15625 56 41.109375 55.140625 
Q 45.0625 54.296875 48.78125 52.59375 
z
" id="DejaVuSans-99"/>
       <path d="M 18.3125 70.21875 
L 18.3125 54.6875 
L 36.8125 54.6875 
L 36.8125 47.703125 
L 18.3125 47.703125 
L 18.3125 18.015625 
Q 18.3125 11.328125 20.140625 9.421875 
Q 21.96875 7.515625 27.59375 7.515625 
L 36.8125 7.515625 
L 36.8125 0 
L 27.59375 0 
Q 17.1875 0 13.234375 3.875 
Q 9.28125 7.765625 9.28125 18.015625 
L 9.28125 47.703125 
L 2.6875 47.703125 
L 2.6875 54.6875 
L 9.28125 54.6875 
L 9.28125 70.21875 
z
" id="DejaVuSans-116"/>
       <path d="M 8.5 21.578125 
L 8.5 54.6875 
L 17.484375 54.6875 
L 17.484375 21.921875 
Q 17.484375 14.15625 20.5 10.265625 
Q 23.53125 6.390625 29.59375 6.390625 
Q 36.859375 6.390625 41.078125 11.03125 
Q 45.3125 15.671875 45.3125 23.6875 
L 45.3125 54.6875 
L 54.296875 54.6875 
L 54.296875 0 
L 45.3125 0 
L 45.3125 8.40625 
Q 42.046875 3.421875 37.71875 1 
Q 33.40625 -1.421875 27.6875 -1.421875 
Q 18.265625 -1.421875 13.375 4.4375 
Q 8.5 10.296875 8.5 21.578125 
z
M 31.109375 56 
z
" id="DejaVuSans-117"/>
       <path d="M 11.71875 12.40625 
L 22.015625 12.40625 
L 22.015625 4 
L 14.015625 -11.625 
L 7.71875 -11.625 
L 11.71875 4 
z
" id="DejaVuSans-44"/>
       <path d="M 18.109375 8.203125 
L 18.109375 -20.796875 
L 9.078125 -20.796875 
L 9.078125 54.6875 
L 18.109375 54.6875 
L 18.109375 46.390625 
Q 20.953125 51.265625 25.265625 53.625 
Q 29.59375 56 35.59375 56 
Q 45.5625 56 51.78125 48.09375 
Q 58.015625 40.1875 58.015625 27.296875 
Q 58.015625 14.40625 51.78125 6.484375 
Q 45.5625 -1.421875 35.59375 -1.421875 
Q 29.59375 -1.421875 25.265625 0.953125 
Q 20.953125 3.328125 18.109375 8.203125 
z
M 48.6875 27.296875 
Q 48.6875 37.203125 44.609375 42.84375 
Q 40.53125 48.484375 33.40625 48.484375 
Q 26.265625 48.484375 22.1875 42.84375 
Q 18.109375 37.203125 18.109375 27.296875 
Q 18.109375 17.390625 22.1875 11.75 
Q 26.265625 6.109375 33.40625 6.109375 
Q 40.53125 6.109375 44.609375 11.75 
Q 48.6875 17.390625 48.6875 27.296875 
z
" id="DejaVuSans-112"/>
      </defs>
      <use xlink:href="#DejaVuSans-70"/>
      <use x="50.269531" xlink:href="#DejaVuSans-114"/>
      <use x="91.382812" xlink:href="#DejaVuSans-97"/>
      <use x="152.662109" xlink:href="#DejaVuSans-99"/>
      <use x="207.642578" xlink:href="#DejaVuSans-116"/>
      <use x="246.851562" xlink:href="#DejaVuSans-105"/>
      <use x="274.634766" xlink:href="#DejaVuSans-111"/>
      <use x="335.816406" xlink:href="#DejaVuSans-110"/>
      <use x="399.195312" xlink:href="#DejaVuSans-32"/>
      <use x="430.982422" xlink:href="#DejaVuSans-111"/>
      <use x="492.164062" xlink:href="#DejaVuSans-102"/>
      <use x="527.369141" xlink:href="#DejaVuSans-32"/>
      <use x="559.15625" xlink:href="#DejaVuSans-102"/>
      <use x="594.361328" xlink:href="#DejaVuSans-117"/>
      <use x="657.740234" xlink:href="#DejaVuSans-110"/>
      <use x="721.119141" xlink:href="#DejaVuSans-99"/>
      <use x="776.099609" xlink:href="#DejaVuSans-116"/>
      <use x="815.308594" xlink:href="#DejaVuSans-105"/>
      <use x="843.091797" xlink:href="#DejaVuSans-111"/>
      <use x="904.273438" xlink:href="#DejaVuSans-110"/>
      <use x="967.652344" xlink:href="#DejaVuSans-44"/>
      <use x="999.439453" xlink:href="#DejaVuSans-116"/>
      <use x="1038.648438" xlink:href="#DejaVuSans-97"/>
      <use x="1099.927734" xlink:href="#DejaVuSans-114"/>
      <use x="1139.291016" xlink:href="#DejaVuSans-103"/>
      <use x="1202.767578" xlink:href="#DejaVuSans-101"/>
      <use x="1264.291016" xlink:href="#DejaVuSans-116"/>
      <use x="1303.5" xlink:href="#DejaVuSans-32"/>
      <use x="1335.287109" xlink:href="#DejaVuSans-112"/>
      <use x="1398.763672" xlink:href="#DejaVuSans-97"/>
      <use x="1460.042969" xlink:href="#DejaVuSans-105"/>
      <use x="1487.826172" xlink:href="#DejaVuSans-114"/>
      <use x="1528.939453" xlink:href="#DejaVuSans-115"/>
     </g>
    </g>
   </g>
   <g id="line2d_29">
    <defs>
     <path d="M 0 1.5 
C 0.397805 1.5 0.77937 1.341951 1.06066 1.06066 
C 1.341951 0.77937 1.5 0.397805 1.5 0 
C 1.5 -0.397805 1.341951 -0.77937 1.06066 -1.06066 
C 0.77937 -1.341951 0.397805 -1.5 0 -1.5 
C -0.397805 -1.5 -0.77937 -1.341951 -1.06066 -1.06066 
C -1.341951 -0.77937 -1.5 -0.397805 -1.5 0 
C -1.5 0.397805 -1.341951 0.77937 -1.06066 1.06066 
C -0.77937 1.341951 -0.397805 1.5 0 1.5 
z
" id="m48c75f073d" style="stroke:#000080;"/>
    </defs>
    <g>
     <use style="fill:#000080;stroke:#000080;" x="186.201667" xlink:href="#m48c75f073d" y="241.578828"/>
     <use style="fill:#000080;stroke:#000080;" x="186.201667" xlink:href="#m48c75f073d" y="241.578828"/>
    </g>
   </g>
   <g id="line2d_30">
    <path d="M 102.859376 298.944 
L 102.859376 288.044617 
L 103.372333 288.044617 
L 103.372333 286.323662 
L 103.623262 286.323662 
L 103.623262 285.75001 
L 104.355088 285.75001 
L 104.355088 284.602707 
L 115.958621 284.602707 
L 115.958621 284.029055 
L 116.202531 284.029055 
L 116.202531 282.3081 
L 116.323218 282.3081 
L 116.323218 277.718886 
L 116.562116 277.718886 
L 116.562116 277.145235 
L 117.709852 277.145235 
L 117.709852 276.571583 
L 117.930605 276.571583 
L 117.930605 275.42428 
L 118.039942 275.42428 
L 118.039942 274.850628 
L 118.256582 274.850628 
L 118.256582 274.276976 
L 118.363901 274.276976 
L 118.363901 273.129673 
L 118.470564 273.129673 
L 118.470564 272.556021 
L 118.576578 272.556021 
L 118.576578 270.835066 
L 118.994305 270.835066 
L 118.994305 269.687762 
L 119.097192 269.687762 
L 119.097192 268.540459 
L 119.199476 268.540459 
L 119.199476 267.966807 
L 119.301163 267.966807 
L 119.301163 265.6722 
L 119.80089 265.6722 
L 119.80089 265.098549 
L 119.89914 265.098549 
L 119.89914 264.524897 
L 120.571812 264.524897 
L 120.571812 263.951245 
L 121.219499 263.951245 
L 121.219499 262.803942 
L 121.310093 262.803942 
L 121.310093 262.23029 
L 121.489881 262.23029 
L 121.489881 260.509335 
L 121.756135 260.509335 
L 121.756135 258.78838 
L 121.931406 258.78838 
L 121.931406 258.214728 
L 122.191052 258.214728 
L 122.191052 257.641076 
L 127.923363 257.641076 
L 127.923363 257.067425 
L 133.57787 257.067425 
L 133.57787 256.493773 
L 134.192921 256.493773 
L 134.192921 255.346469 
L 134.407429 255.346469 
L 134.407429 254.772818 
L 134.577155 254.772818 
L 134.577155 253.625514 
L 134.61933 253.625514 
L 134.61933 253.051863 
L 134.703375 253.051863 
L 134.703375 251.904559 
L 135.035562 251.904559 
L 135.035562 250.757256 
L 137.343676 250.757256 
L 137.343676 250.183604 
L 143.778691 250.183604 
L 143.778691 249.036301 
L 148.563676 249.036301 
L 148.563676 248.462649 
L 149.85877 248.462649 
L 149.85877 247.888997 
L 150.258492 247.888997 
L 150.258492 247.315345 
L 163.501492 247.315345 
L 163.501492 246.741694 
L 168.811464 246.741694 
L 168.811464 246.168042 
L 172.215882 246.168042 
L 172.215882 245.59439 
L 173.769034 245.59439 
L 173.769034 245.020738 
L 174.318106 245.020738 
L 174.318106 244.447087 
L 174.6182 244.447087 
L 174.6182 243.873435 
L 178.920473 243.873435 
L 178.920473 243.299783 
L 179.072579 243.299783 
L 179.072579 242.726132 
L 180.934995 242.726132 
L 180.934995 242.15248 
L 186.201667 242.15248 
L 186.201667 241.578828 
L 338.688 241.578828 
" style="fill:none;stroke:#000080;stroke-linecap:square;stroke-width:1.5;"/>
   </g>
   <g id="line2d_31">
    <defs>
     <path d="M 0 6 
C 1.591219 6 3.117479 5.367802 4.242641 4.242641 
C 5.367802 3.117479 6 1.591219 6 0 
C 6 -1.591219 5.367802 -3.117479 4.242641 -4.242641 
C 3.117479 -5.367802 1.591219 -6 0 -6 
C -1.591219 -6 -3.117479 -5.367802 -4.242641 -4.242641 
C -5.367802 -3.117479 -6 -1.591219 -6 0 
C -6 1.591219 -5.367802 3.117479 -4.242641 4.242641 
C -3.117479 5.367802 -1.591219 6 0 6 
z
" id="m3a01de3ca6" style="stroke:#000080;stroke-width:1.5;"/>
    </defs>
    <g>
     <use style="fill-opacity:0;stroke:#000080;stroke-width:1.5;" x="115.958621" xlink:href="#m3a01de3ca6" y="284.602707"/>
     <use style="fill-opacity:0;stroke:#000080;stroke-width:1.5;" x="135.035562" xlink:href="#m3a01de3ca6" y="251.904559"/>
     <use style="fill-opacity:0;stroke:#000080;stroke-width:1.5;" x="186.201667" xlink:href="#m3a01de3ca6" y="242.15248"/>
     <use style="fill-opacity:0;stroke:#000080;stroke-width:1.5;" x="186.201667" xlink:href="#m3a01de3ca6" y="241.578828"/>
     <use style="fill-opacity:0;stroke:#000080;stroke-width:1.5;" x="338.688" xlink:href="#m3a01de3ca6" y="241.578828"/>
    </g>
   </g>
   <g id="line2d_32">
    <path style="fill:none;stroke:#000080;stroke-linecap:square;stroke-width:1.5;"/>
    <g/>
   </g>
   <g id="line2d_33">
    <path clip-path="url(#p2af1e7f801)" d="M 139.572998 250.183604 
" style="fill:none;stroke:#000080;stroke-linecap:square;stroke-width:1.5;"/>
    <defs>
     <path d="M -12 12 
L 12 -12 
M -12 -12 
L 12 12 
" id="m2db5e73203" style="stroke:#000080;"/>
    </defs>
    <g clip-path="url(#p2af1e7f801)">
     <use style="fill:#000080;stroke:#000080;" x="139.572998" xlink:href="#m2db5e73203" y="250.183604"/>
    </g>
   </g>
   <g id="line2d_34">
    <defs>
     <path d="M 0 1.5 
C 0.397805 1.5 0.77937 1.341951 1.06066 1.06066 
C 1.341951 0.77937 1.5 0.397805 1.5 0 
C 1.5 -0.397805 1.341951 -0.77937 1.06066 -1.06066 
C 0.77937 -1.341951 0.397805 -1.5 0 -1.5 
C -0.397805 -1.5 -0.77937 -1.341951 -1.06066 -1.06066 
C -1.341951 -0.77937 -1.5 -0.397805 -1.5 0 
C -1.5 0.397805 -1.341951 0.77937 -1.06066 1.06066 
C -0.77937 1.341951 -0.397805 1.5 0 1.5 
z
" id="m2e3d1d46d8" style="stroke:#ff00ff;"/>
    </defs>
    <g>
     <use style="fill:#ff00ff;stroke:#ff00ff;" x="212.844831" xlink:href="#m2e3d1d46d8" y="6.381624"/>
     <use style="fill:#ff00ff;stroke:#ff00ff;" x="212.844831" xlink:href="#m2e3d1d46d8" y="6.381624"/>
    </g>
   </g>
   <g id="line2d_35">
    <path d="M 29.53256 298.944 
L 29.53256 285.176359 
L 97.403108 285.176359 
L 97.403108 284.602707 
L 98.43941 284.602707 
L 98.43941 284.029055 
L 98.771596 284.029055 
L 98.771596 283.455404 
L 100.343767 283.455404 
L 100.343767 282.3081 
L 100.641881 282.3081 
L 100.641881 281.734448 
L 102.060491 281.734448 
L 102.060491 281.160797 
L 102.330873 281.160797 
L 102.330873 279.439842 
L 102.597126 279.439842 
L 102.597126 278.292538 
L 103.117741 278.292538 
L 103.117741 277.718886 
L 103.870632 277.718886 
L 103.870632 276.571583 
L 104.114542 276.571583 
L 104.114542 275.997931 
L 104.355088 275.997931 
L 104.355088 275.42428 
L 104.592361 275.42428 
L 104.592361 274.850628 
L 114.816733 274.850628 
L 114.816733 274.276976 
L 116.202531 274.276976 
L 116.202531 273.703324 
L 116.323218 273.703324 
L 116.323218 273.129673 
L 117.259781 273.129673 
L 117.259781 272.556021 
L 117.373392 272.556021 
L 117.373392 271.982369 
L 123.354102 271.982369 
L 123.354102 271.408718 
L 125.752972 271.408718 
L 125.752972 270.835066 
L 125.892487 270.835066 
L 125.892487 270.261414 
L 126.304457 270.261414 
L 126.304457 269.687762 
L 126.640485 269.687762 
L 126.640485 269.114111 
L 127.48501 269.114111 
L 127.48501 268.540459 
L 127.674226 268.540459 
L 127.674226 267.966807 
L 128.411207 267.966807 
L 128.411207 267.393156 
L 128.768338 267.393156 
L 128.768338 266.819504 
L 128.944197 266.819504 
L 128.944197 266.245852 
L 129.233413 266.245852 
L 129.233413 265.6722 
L 130.018593 265.6722 
L 130.073348 264.524897 
L 130.344571 264.524897 
L 130.398313 262.803942 
L 130.505303 262.803942 
L 130.61164 261.082987 
L 130.76994 261.082987 
L 130.874681 259.362031 
L 131.236397 259.362031 
L 131.236397 258.78838 
L 131.790072 258.78838 
L 131.790072 258.214728 
L 131.987128 258.214728 
L 131.987128 257.641076 
L 133.755823 257.641076 
L 133.755823 257.067425 
L 134.450015 257.067425 
L 134.492498 255.920121 
L 137.875944 255.920121 
L 137.875944 255.346469 
L 141.090414 255.346469 
L 141.090414 254.772818 
L 144.510517 254.772818 
L 144.510517 254.199166 
L 144.700592 254.199166 
L 144.700592 253.625514 
L 145.051495 253.625514 
L 145.051495 253.051863 
L 145.235796 253.051863 
L 145.235796 252.478211 
L 145.418169 252.478211 
L 145.418169 251.904559 
L 145.598655 251.904559 
L 145.688202 249.036301 
L 145.732804 249.036301 
L 145.732804 248.462649 
L 145.865929 248.462649 
L 145.932112 244.447087 
L 145.998045 244.447087 
L 145.998045 243.299783 
L 146.129168 243.299783 
L 146.216039 239.284221 
L 146.345539 239.284221 
L 146.40993 235.842311 
L 146.474085 235.842311 
L 146.538004 233.547704 
L 146.665144 233.547704 
L 146.749392 231.826749 
L 146.791364 231.826749 
L 146.833235 229.532142 
L 146.916676 229.532142 
L 146.916676 228.384839 
L 147.205618 228.384839 
L 147.307662 225.51658 
L 147.550159 225.51658 
L 147.550159 223.795625 
L 147.749695 223.795625 
L 147.749695 223.221973 
L 148.315765 223.221973 
L 148.373289 222.07467 
L 148.601505 222.07467 
L 148.601505 221.501018 
L 148.78943 221.501018 
L 148.826773 220.353715 
L 149.177602 220.353715 
L 149.177602 219.780063 
L 149.539426 219.780063 
L 149.539426 219.206411 
L 149.805951 219.206411 
L 149.823575 218.059108 
L 149.946449 218.059108 
L 149.998846 215.764501 
L 151.195055 215.764501 
L 151.195055 215.190849 
L 152.283884 215.190849 
L 152.283884 214.617197 
L 152.707042 214.617197 
L 152.707042 214.043546 
L 153.693887 214.043546 
L 153.693887 213.469894 
L 154.084543 213.469894 
L 154.084543 212.896242 
L 154.276638 212.896242 
L 154.276638 212.322591 
L 154.68128 212.322591 
L 154.68128 211.748939 
L 154.89331 211.748939 
L 154.919633 210.601635 
L 155.128803 210.601635 
L 155.128803 210.027984 
L 156.285144 210.027984 
L 156.30945 208.88068 
L 158.249784 208.88068 
L 158.249784 208.307029 
L 158.562073 208.307029 
L 158.583406 207.159725 
L 158.742573 207.159725 
L 158.742573 206.586073 
L 158.858379 206.586073 
L 158.942121 205.43877 
L 159.004665 205.43877 
L 159.004665 204.865118 
L 159.314063 204.865118 
L 159.385473 201.99686 
L 159.466728 201.99686 
L 159.567767 198.554949 
L 159.678237 198.554949 
L 159.718236 197.407646 
L 159.797958 197.407646 
L 159.906985 196.260342 
L 159.946463 196.260342 
L 160.054568 192.818432 
L 160.064363 192.818432 
L 160.171742 190.523825 
L 160.259108 190.523825 
L 160.355672 188.229218 
L 160.384537 188.229218 
L 160.48041 185.934612 
L 160.518612 185.934612 
L 160.575759 184.787308 
L 160.680044 184.787308 
L 160.746084 183.640005 
L 160.8961 183.640005 
L 160.914762 181.345398 
L 161.035578 181.345398 
L 161.072584 180.198094 
L 161.201492 180.198094 
L 161.292989 179.050791 
L 161.6095 179.050791 
L 161.6095 178.477139 
L 162.078112 178.477139 
L 162.165135 176.182532 
L 162.466339 176.182532 
L 162.466339 175.608881 
L 162.720437 175.608881 
L 162.720437 175.035229 
L 163.7569 175.035229 
L 163.7569 174.461577 
L 164.584735 174.461577 
L 164.584735 173.887925 
L 164.742694 173.887925 
L 164.742694 173.314274 
L 164.921483 173.314274 
L 164.921483 172.740622 
L 165.561796 172.740622 
L 165.561796 172.16697 
L 165.96434 172.16697 
L 166.020101 171.019667 
L 166.514087 171.019667 
L 166.601807 169.872363 
L 166.75593 169.872363 
L 166.835805 168.72506 
L 166.908703 168.72506 
L 166.994465 167.004105 
L 167.073257 167.004105 
L 167.138646 164.135846 
L 167.197288 164.135846 
L 167.275171 161.267588 
L 167.333356 161.267588 
L 167.436318 158.972981 
L 167.55143 158.972981 
L 167.564173 157.252026 
L 167.703739 157.252026 
L 167.798261 156.104722 
L 167.82338 156.104722 
L 167.892273 154.957419 
L 167.948439 154.957419 
L 168.023045 153.236464 
L 168.084975 153.236464 
L 168.084975 152.662812 
L 168.257216 152.662812 
L 168.257216 151.515508 
L 168.488284 151.515508 
L 168.488284 150.941857 
L 168.602679 150.941857 
L 168.602679 150.368205 
L 168.894283 150.368205 
L 168.894283 149.794553 
L 169.175285 149.794553 
L 169.198498 148.64725 
L 169.354388 148.64725 
L 169.354388 148.073598 
L 169.690261 148.073598 
L 169.690261 147.499946 
L 170.075029 147.499946 
L 170.075029 146.926295 
L 170.440691 146.926295 
L 170.440691 146.352643 
L 170.601968 146.352643 
L 170.612667 145.20534 
L 170.883296 145.20534 
L 170.988289 142.910733 
L 171.309807 142.910733 
L 171.412271 141.763429 
L 171.432691 141.763429 
L 171.529365 139.468822 
L 171.67086 139.468822 
L 171.67086 138.895171 
L 172.308321 138.895171 
L 172.380955 136.026912 
L 172.6066 136.026912 
L 172.69225 133.732305 
L 172.749118 133.732305 
L 172.834072 132.585002 
L 172.885786 132.585002 
L 172.913929 131.437698 
L 173.077198 131.437698 
L 173.165193 129.716743 
L 173.197501 129.716743 
L 173.303236 126.848485 
L 173.344436 126.848485 
L 173.417442 125.127529 
L 173.485609 125.127529 
L 173.485609 124.553878 
L 173.955458 124.553878 
L 173.981928 123.406574 
L 174.575644 123.406574 
L 174.660652 122.259271 
L 174.690307 122.259271 
L 174.757901 121.111967 
L 174.963293 121.111967 
L 174.988278 119.964664 
L 175.256675 119.964664 
L 175.256675 119.391012 
L 175.419813 119.391012 
L 175.52504 117.096405 
L 175.573393 117.096405 
L 175.657689 115.949102 
L 175.717652 115.949102 
L 175.77741 114.801798 
L 175.85677 114.801798 
L 175.892364 113.654495 
L 176.045773 113.654495 
L 176.084892 111.93354 
L 176.236623 111.93354 
L 176.279182 110.212585 
L 176.406237 110.212585 
L 176.517133 109.065281 
L 176.578017 109.065281 
L 176.578017 108.49163 
L 176.763161 108.49163 
L 176.841911 105.623371 
L 176.94636 105.623371 
L 177.050188 103.328764 
L 177.101871 103.328764 
L 177.146049 102.181461 
L 177.31801 102.181461 
L 177.31801 101.607809 
L 177.603284 101.607809 
L 177.713965 99.886854 
L 178.083716 99.886854 
L 178.083716 99.313202 
L 178.377401 99.313202 
L 178.428718 98.165899 
L 178.524108 98.165899 
L 178.524108 97.592247 
L 178.699888 97.592247 
L 178.810529 95.871292 
L 178.893883 95.871292 
L 178.893883 95.29764 
L 179.148138 95.29764 
L 179.148138 94.723988 
L 179.366397 94.723988 
L 179.366397 94.150337 
L 179.687158 94.150337 
L 179.769598 91.282078 
L 179.80436 91.282078 
L 179.879964 88.413819 
L 180.051996 88.413819 
L 180.157501 86.119213 
L 180.345204 86.119213 
L 180.418504 84.971909 
L 180.485426 84.971909 
L 180.539991 83.824606 
L 180.621518 83.824606 
L 180.627542 82.677302 
L 180.750576 82.677302 
L 180.843029 81.529999 
L 181.102837 81.529999 
L 181.102837 80.956347 
L 181.263273 80.956347 
L 181.318355 79.809044 
L 181.499761 79.809044 
L 181.596884 77.514437 
L 181.812047 77.514437 
L 181.904653 76.367133 
L 182.780689 76.367133 
L 182.839148 74.072526 
L 183.010731 74.072526 
L 183.052709 72.351571 
L 183.144185 72.351571 
L 183.245554 71.204268 
L 183.34376 71.204268 
L 183.418336 68.909661 
L 183.786508 68.909661 
L 183.786508 68.336009 
L 184.161828 68.336009 
L 184.223196 67.188706 
L 184.56532 67.188706 
L 184.642039 64.894099 
L 184.846566 64.894099 
L 184.905574 63.746796 
L 185.006604 63.746796 
L 185.076744 62.02584 
L 185.227755 62.02584 
L 185.24394 60.878537 
L 185.349926 60.878537 
L 185.349926 60.304885 
L 185.491765 60.304885 
L 185.593996 58.010278 
L 185.607581 58.010278 
L 185.711387 56.289323 
L 185.798914 56.289323 
L 185.798914 55.715672 
L 185.983741 55.715672 
L 185.983741 55.14202 
L 186.410419 55.14202 
L 186.475144 53.994716 
L 186.597466 53.994716 
L 186.597466 53.421065 
L 186.894312 53.421065 
L 186.990754 52.273761 
L 187.194457 52.273761 
L 187.233677 49.979154 
L 187.422344 49.979154 
L 187.444766 48.831851 
L 187.578697 48.831851 
L 187.578697 48.258199 
L 187.753685 48.258199 
L 187.80165 47.110896 
L 188.526803 47.110896 
L 188.526803 46.537244 
L 188.796566 46.537244 
L 188.796566 45.963592 
L 189.202756 45.963592 
L 189.272601 44.242637 
L 189.338514 44.242637 
L 189.338514 43.668985 
L 189.531155 43.668985 
L 189.531155 43.095334 
L 189.693064 43.095334 
L 189.693064 42.521682 
L 189.832179 42.521682 
L 189.832179 41.94803 
L 189.957852 41.94803 
L 190.059847 40.227075 
L 190.162992 40.227075 
L 190.229102 39.079772 
L 190.412203 39.079772 
L 190.468815 37.932468 
L 190.710346 37.932468 
L 190.818121 36.211513 
L 191.137507 36.211513 
L 191.137507 35.637861 
L 191.465712 35.637861 
L 191.465712 35.06421 
L 191.669946 35.06421 
L 191.673143 33.916906 
L 191.887612 33.916906 
L 191.887612 33.343255 
L 192.051053 33.343255 
L 192.118184 31.622299 
L 192.206775 31.622299 
L 192.206775 31.048648 
L 192.367265 31.048648 
L 192.443902 29.901344 
L 192.73359 29.901344 
L 192.73359 29.327692 
L 192.974094 29.327692 
L 193.085008 27.606737 
L 193.272687 27.606737 
L 193.272687 27.033086 
L 193.721866 27.033086 
L 193.721866 26.459434 
L 193.880329 26.459434 
L 193.880329 25.885782 
L 194.030384 25.885782 
L 194.030384 25.31213 
L 194.175005 25.31213 
L 194.175005 24.738479 
L 194.330794 24.738479 
L 194.330794 24.164827 
L 194.516465 24.164827 
L 194.567993 23.017524 
L 194.751169 23.017524 
L 194.751169 22.443872 
L 194.879321 22.443872 
L 194.923157 21.296568 
L 195.110536 21.296568 
L 195.172115 19.575613 
L 195.470362 19.575613 
L 195.470362 19.001962 
L 196.280528 19.001962 
L 196.280528 18.42831 
L 197.038276 18.42831 
L 197.038276 17.854658 
L 197.463164 17.854658 
L 197.463164 17.281006 
L 198.669408 17.281006 
L 198.685454 16.133703 
L 198.821782 16.133703 
L 198.855699 14.9864 
L 199.45722 14.9864 
L 199.45722 14.412748 
L 199.814635 14.412748 
L 199.814635 13.839096 
L 200.757792 13.839096 
L 200.757792 13.265444 
L 201.198414 13.265444 
L 201.198414 12.691793 
L 202.152218 12.691793 
L 202.152218 12.118141 
L 202.639675 12.118141 
L 202.639675 11.544489 
L 202.829557 11.544489 
L 202.829557 10.970838 
L 205.190677 10.970838 
L 205.30151 9.823534 
L 207.628281 9.823534 
L 207.628281 9.249882 
L 207.845893 9.249882 
L 207.937971 8.102579 
L 210.938392 8.102579 
L 210.938392 7.528927 
L 212.733385 7.528927 
L 212.733385 6.955275 
L 212.844831 6.955275 
L 212.844831 6.381624 
L 338.688 6.381624 
L 338.688 6.381624 
" style="fill:none;stroke:#ff00ff;stroke-linecap:square;stroke-width:1.5;"/>
   </g>
   <g id="line2d_36">
    <defs>
     <path d="M -0 8.485281 
L 5.091169 0 
L 0 -8.485281 
L -5.091169 -0 
z
" id="mbec8b7fd68" style="stroke:#ff00ff;stroke-linejoin:miter;stroke-width:1.5;"/>
    </defs>
    <g>
     <use style="fill-opacity:0;stroke:#ff00ff;stroke-linejoin:miter;stroke-width:1.5;" x="141.090414" xlink:href="#mbec8b7fd68" y="255.346469"/>
     <use style="fill-opacity:0;stroke:#ff00ff;stroke-linejoin:miter;stroke-width:1.5;" x="172.913929" xlink:href="#mbec8b7fd68" y="131.437698"/>
     <use style="fill-opacity:0;stroke:#ff00ff;stroke-linejoin:miter;stroke-width:1.5;" x="202.152218" xlink:href="#mbec8b7fd68" y="12.118141"/>
     <use style="fill-opacity:0;stroke:#ff00ff;stroke-linejoin:miter;stroke-width:1.5;" x="212.844831" xlink:href="#mbec8b7fd68" y="6.381624"/>
     <use style="fill-opacity:0;stroke:#ff00ff;stroke-linejoin:miter;stroke-width:1.5;" x="212.844831" xlink:href="#mbec8b7fd68" y="6.381624"/>
     <use style="fill-opacity:0;stroke:#ff00ff;stroke-linejoin:miter;stroke-width:1.5;" x="338.688" xlink:href="#mbec8b7fd68" y="6.381624"/>
    </g>
   </g>
   <g id="line2d_37">
    <path style="fill:none;stroke:#ff00ff;stroke-linecap:square;stroke-width:1.5;"/>
    <g/>
   </g>
   <g id="line2d_38">
    <path clip-path="url(#p2af1e7f801)" d="M 149.646525 219.206411 
" style="fill:none;stroke:#ff00ff;stroke-linecap:square;stroke-width:1.5;"/>
    <defs>
     <path d="M -12 12 
L 12 -12 
M -12 -12 
L 12 12 
" id="m89b72c74a2" style="stroke:#ff00ff;"/>
    </defs>
    <g clip-path="url(#p2af1e7f801)">
     <use style="fill:#ff00ff;stroke:#ff00ff;" x="149.646525" xlink:href="#m89b72c74a2" y="219.206411"/>
    </g>
   </g>
   <g id="line2d_39">
    <defs>
     <path d="M 0 1.5 
C 0.397805 1.5 0.77937 1.341951 1.06066 1.06066 
C 1.341951 0.77937 1.5 0.397805 1.5 0 
C 1.5 -0.397805 1.341951 -0.77937 1.06066 -1.06066 
C 0.77937 -1.341951 0.397805 -1.5 0 -1.5 
C -0.397805 -1.5 -0.77937 -1.341951 -1.06066 -1.06066 
C -1.341951 -0.77937 -1.5 -0.397805 -1.5 0 
C -1.5 0.397805 -1.341951 0.77937 -1.06066 1.06066 
C -0.77937 1.341951 -0.397805 1.5 0 1.5 
z
" id="mf70db2a3c9" style="stroke:#ff7500;"/>
    </defs>
    <g>
     <use style="fill:#ff7500;stroke:#ff7500;" x="210.538235" xlink:href="#mf70db2a3c9" y="149.794553"/>
     <use style="fill:#ff7500;stroke:#ff7500;" x="210.538235" xlink:href="#mf70db2a3c9" y="149.794553"/>
    </g>
   </g>
   <g id="line2d_40">
    <path d="M 29.53256 298.944 
L 29.53256 290.912876 
L 91.535274 290.912876 
L 91.535274 290.339224 
L 97.043522 290.339224 
L 97.043522 289.765573 
L 97.403108 289.765573 
L 97.403108 289.191921 
L 99.41757 289.191921 
L 99.41757 288.618269 
L 100.040467 288.618269 
L 100.040467 286.897314 
L 100.641881 286.897314 
L 100.641881 286.323662 
L 100.934985 286.323662 
L 100.934985 284.602707 
L 101.506816 284.602707 
L 101.506816 284.029055 
L 101.785851 284.029055 
L 101.785851 283.455404 
L 102.060491 283.455404 
L 102.060491 282.881752 
L 102.859376 282.881752 
L 102.859376 281.734448 
L 103.117741 281.734448 
L 103.117741 281.160797 
L 103.372333 281.160797 
L 103.372333 280.587145 
L 103.870632 280.587145 
L 103.870632 280.013493 
L 104.592361 280.013493 
L 104.592361 279.439842 
L 107.811151 279.439842 
L 107.811151 278.86619 
L 116.914437 278.86619 
L 116.914437 278.292538 
L 118.681952 278.292538 
L 118.681952 277.718886 
L 119.996839 277.718886 
L 119.996839 277.145235 
L 120.665825 277.145235 
L 120.665825 276.571583 
L 123.514096 276.571583 
L 123.514096 275.997931 
L 126.439646 275.997931 
L 126.439646 275.42428 
L 126.773103 275.42428 
L 126.773103 274.850628 
L 128.229861 274.850628 
L 128.229861 274.276976 
L 128.650105 274.276976 
L 128.650105 273.703324 
L 130.822389 273.703324 
L 130.822389 273.129673 
L 131.790072 273.129673 
L 131.790072 272.556021 
L 132.422528 272.556021 
L 132.422528 271.982369 
L 135.035562 271.982369 
L 135.035562 271.408718 
L 135.721125 271.408718 
L 135.760625 270.261414 
L 135.956794 270.261414 
L 135.956794 269.687762 
L 136.494612 269.687762 
L 136.494612 269.114111 
L 136.68274 269.114111 
L 136.68274 268.540459 
L 136.831795 268.540459 
L 136.831795 267.393156 
L 137.198951 267.393156 
L 137.198951 266.819504 
L 137.37967 266.819504 
L 137.415591 265.6722 
L 137.558536 265.6722 
L 137.558536 265.098549 
L 137.910857 265.098549 
L 137.910857 264.524897 
L 138.358484 264.524897 
L 138.426341 263.377593 
L 138.527635 263.377593 
L 138.527635 262.803942 
L 138.728473 262.803942 
L 138.828032 258.214728 
L 140.408758 258.214728 
L 140.408758 257.641076 
L 140.856326 257.641076 
L 140.856326 257.067425 
L 140.973763 257.067425 
L 140.973763 256.493773 
L 141.407239 256.493773 
L 141.407239 255.346469 
L 141.80232 255.346469 
L 141.80232 254.772818 
L 141.913576 254.772818 
L 141.913576 254.199166 
L 142.051655 254.199166 
L 142.051655 253.625514 
L 145.418169 253.625514 
L 145.418169 253.051863 
L 145.576196 253.051863 
L 145.576196 252.478211 
L 146.107383 252.478211 
L 146.107383 251.904559 
L 146.791364 251.904559 
L 146.791364 251.330907 
L 148.430623 251.330907 
L 148.430623 250.183604 
L 149.141003 250.183604 
L 149.141003 249.609952 
L 150.615623 249.609952 
L 150.615623 249.036301 
L 150.965587 249.036301 
L 151.031458 247.315345 
L 151.146137 247.315345 
L 151.146137 246.741694 
L 151.437608 246.741694 
L 151.437608 246.168042 
L 152.511852 246.168042 
L 152.511852 245.59439 
L 152.751777 245.59439 
L 152.751777 245.020738 
L 152.944315 245.020738 
L 152.944315 244.447087 
L 153.438049 244.447087 
L 153.438049 243.873435 
L 154.029268 243.873435 
L 154.029268 243.299783 
L 154.46664 243.299783 
L 154.46664 242.726132 
L 154.827327 242.726132 
L 154.906477 241.578828 
L 155.141793 241.578828 
L 155.141793 241.005176 
L 155.653621 241.005176 
L 155.691409 239.857873 
L 155.904009 239.857873 
L 155.904009 239.284221 
L 156.285144 239.284221 
L 156.382164 238.136918 
L 156.622378 238.136918 
L 156.717545 236.415963 
L 156.847557 236.415963 
L 156.894595 234.121356 
L 157.162628 234.121356 
L 157.174189 232.974052 
L 157.358125 232.974052 
L 157.358125 232.400401 
L 157.942862 232.400401 
L 157.942862 231.826749 
L 158.487203 231.826749 
L 158.583406 230.105794 
L 160.594766 230.105794 
L 160.604262 228.95849 
L 160.764907 228.95849 
L 160.764907 228.384839 
L 161.564634 228.384839 
L 161.564634 227.811187 
L 161.725614 227.811187 
L 161.725614 227.237535 
L 162.568423 227.237535 
L 162.644595 224.942928 
L 162.712026 224.942928 
L 162.712026 224.369277 
L 162.896128 224.369277 
L 162.896128 223.795625 
L 163.144084 223.795625 
L 163.234125 222.648321 
L 163.485404 222.648321 
L 163.557683 221.501018 
L 163.605703 221.501018 
L 163.605703 220.927366 
L 163.914652 220.927366 
L 163.953867 219.780063 
L 164.77262 219.780063 
L 164.839766 218.632759 
L 164.921483 218.632759 
L 164.980675 217.485456 
L 165.098459 217.485456 
L 165.098459 216.911804 
L 165.302685 216.911804 
L 165.302685 216.338153 
L 165.576079 216.338153 
L 165.661531 214.617197 
L 165.880363 214.617197 
L 165.985272 213.469894 
L 166.117256 213.469894 
L 166.117256 212.896242 
L 166.357802 212.896242 
L 166.357802 212.322591 
L 166.635428 212.322591 
L 166.729224 211.175287 
L 166.835805 211.175287 
L 166.941739 209.454332 
L 167.06015 209.454332 
L 167.099442 208.307029 
L 167.359153 208.307029 
L 167.359153 207.733377 
L 167.665786 207.733377 
L 167.665786 207.159725 
L 167.785687 207.159725 
L 167.785687 206.586073 
L 167.942207 206.586073 
L 167.979563 205.43877 
L 168.578658 205.43877 
L 168.638649 204.291467 
L 169.023638 204.291467 
L 169.134586 203.144163 
L 169.296813 203.144163 
L 169.296813 202.570511 
L 169.514592 202.570511 
L 169.582803 201.423208 
L 170.036379 201.423208 
L 170.141087 199.702253 
L 170.16305 199.702253 
L 170.16305 199.128601 
L 171.092653 199.128601 
L 171.191225 197.981298 
L 171.427588 197.981298 
L 171.509057 196.260342 
L 171.796233 196.260342 
L 171.796233 195.686691 
L 172.240256 195.686691 
L 172.240256 195.113039 
L 172.83878 195.113039 
L 172.83878 194.539387 
L 173.016733 194.539387 
L 173.016733 193.965736 
L 173.458374 193.965736 
L 173.517329 192.818432 
L 173.777957 192.818432 
L 173.777957 192.24478 
L 173.920102 192.24478 
L 173.920102 191.671129 
L 174.15301 191.671129 
L 174.15301 191.097477 
L 175.42793 191.097477 
L 175.440098 189.950174 
L 175.681699 189.950174 
L 175.681699 189.376522 
L 175.821103 189.376522 
L 175.931828 188.229218 
L 175.975136 188.229218 
L 175.990858 187.081915 
L 176.221122 187.081915 
L 176.263718 185.934612 
L 176.8157 185.934612 
L 176.8157 185.36096 
L 177.208443 185.36096 
L 177.266964 184.213656 
L 177.455813 184.213656 
L 177.535099 182.492701 
L 177.614026 182.492701 
L 177.614026 181.91905 
L 178.513913 181.91905 
L 178.513913 181.345398 
L 178.953652 181.345398 
L 178.953652 180.771746 
L 179.440696 180.771746 
L 179.440696 180.198094 
L 180.04577 180.198094 
L 180.0862 179.050791 
L 180.363558 179.050791 
L 180.363558 178.477139 
L 180.887589 178.477139 
L 180.887589 177.903487 
L 181.079377 177.903487 
L 181.178864 176.756184 
L 181.25456 176.756184 
L 181.292285 175.035229 
L 181.47683 175.035229 
L 181.499761 173.314274 
L 181.76697 173.314274 
L 181.76697 172.740622 
L 182.027367 172.740622 
L 182.027367 172.16697 
L 182.319498 172.16697 
L 182.404016 169.872363 
L 183.057949 169.872363 
L 183.057949 169.298712 
L 183.366939 169.298712 
L 183.366939 168.72506 
L 184.502736 168.72506 
L 184.502736 168.151408 
L 184.68266 168.151408 
L 184.68266 167.577757 
L 184.820539 167.577757 
L 184.820539 167.004105 
L 185.190704 167.004105 
L 185.2185 165.856801 
L 185.514535 165.856801 
L 185.514535 165.28315 
L 185.673096 165.28315 
L 185.673096 164.709498 
L 185.859254 164.709498 
L 185.859254 164.135846 
L 186.635916 164.135846 
L 186.635916 163.562195 
L 186.826905 163.562195 
L 186.826905 162.988543 
L 187.276922 162.988543 
L 187.276922 162.414891 
L 187.797658 162.414891 
L 187.797658 161.841239 
L 188.039516 161.841239 
L 188.127886 160.693936 
L 188.542112 160.693936 
L 188.542112 160.120284 
L 189.043644 160.120284 
L 189.043644 159.546632 
L 189.396894 159.546632 
L 189.440551 158.399329 
L 189.687691 158.399329 
L 189.687691 157.825677 
L 191.335822 157.825677 
L 191.335822 157.252026 
L 192.471408 157.252026 
L 192.471408 156.678374 
L 192.828096 156.678374 
L 192.828096 156.104722 
L 193.774374 156.104722 
L 193.854958 154.957419 
L 195.119721 154.957419 
L 195.119721 154.383767 
L 195.301117 154.383767 
L 195.301117 153.810115 
L 201.222467 153.810115 
L 201.222467 153.236464 
L 201.714671 153.236464 
L 201.714671 152.662812 
L 203.10392 152.662812 
L 203.10392 152.08916 
L 204.127306 152.08916 
L 204.127306 151.515508 
L 205.179629 151.515508 
L 205.179629 150.941857 
L 208.504221 150.941857 
L 208.504221 150.368205 
L 210.538235 150.368205 
L 210.538235 149.794553 
L 338.688 149.794553 
L 338.688 149.794553 
" style="fill:none;stroke:#ff7500;stroke-linecap:square;stroke-width:1.5;"/>
   </g>
   <g id="line2d_41">
    <defs>
     <path d="M 0 -6 
L -1.347084 -1.854102 
L -5.706339 -1.854102 
L -2.179628 0.708204 
L -3.526712 4.854102 
L -0 2.291796 
L 3.526712 4.854102 
L 2.179628 0.708204 
L 5.706339 -1.854102 
L 1.347084 -1.854102 
z
" id="me78a7f5637" style="stroke:#ff7500;stroke-linejoin:bevel;stroke-width:1.5;"/>
    </defs>
    <g>
     <use style="fill-opacity:0;stroke:#ff7500;stroke-linejoin:bevel;stroke-width:1.5;" x="100.934985" xlink:href="#me78a7f5637" y="284.602707"/>
     <use style="fill-opacity:0;stroke:#ff7500;stroke-linejoin:bevel;stroke-width:1.5;" x="156.717545" xlink:href="#me78a7f5637" y="236.989614"/>
     <use style="fill-opacity:0;stroke:#ff7500;stroke-linejoin:bevel;stroke-width:1.5;" x="210.538235" xlink:href="#me78a7f5637" y="150.368205"/>
     <use style="fill-opacity:0;stroke:#ff7500;stroke-linejoin:bevel;stroke-width:1.5;" x="210.538235" xlink:href="#me78a7f5637" y="149.794553"/>
     <use style="fill-opacity:0;stroke:#ff7500;stroke-linejoin:bevel;stroke-width:1.5;" x="210.538235" xlink:href="#me78a7f5637" y="149.794553"/>
     <use style="fill-opacity:0;stroke:#ff7500;stroke-linejoin:bevel;stroke-width:1.5;" x="338.688" xlink:href="#me78a7f5637" y="149.794553"/>
    </g>
   </g>
   <g id="line2d_42">
    <path style="fill:none;stroke:#ff7500;stroke-linecap:square;stroke-width:1.5;"/>
    <g/>
   </g>
   <g id="line2d_43">
    <path clip-path="url(#p2af1e7f801)" d="M 147.205618 251.330907 
" style="fill:none;stroke:#ff7500;stroke-linecap:square;stroke-width:1.5;"/>
    <defs>
     <path d="M -12 12 
L 12 -12 
M -12 -12 
L 12 12 
" id="m4a91869813" style="stroke:#ff7500;"/>
    </defs>
    <g clip-path="url(#p2af1e7f801)">
     <use style="fill:#ff7500;stroke:#ff7500;" x="147.205618" xlink:href="#m4a91869813" y="251.330907"/>
    </g>
   </g>
   <g id="line2d_44">
    <defs>
     <path d="M 0 1.5 
C 0.397805 1.5 0.77937 1.341951 1.06066 1.06066 
C 1.341951 0.77937 1.5 0.397805 1.5 0 
C 1.5 -0.397805 1.341951 -0.77937 1.06066 -1.06066 
C 0.77937 -1.341951 0.397805 -1.5 0 -1.5 
C -0.397805 -1.5 -0.77937 -1.341951 -1.06066 -1.06066 
C -1.341951 -0.77937 -1.5 -0.397805 -1.5 0 
C -1.5 0.397805 -1.341951 0.77937 -1.06066 1.06066 
C -0.77937 1.341951 -0.397805 1.5 0 1.5 
z
" id="md62405dd06" style="stroke:#6495ed;"/>
    </defs>
    <g>
     <use style="fill:#6495ed;stroke:#6495ed;" x="191.160568" xlink:href="#md62405dd06" y="253.051863"/>
     <use style="fill:#6495ed;stroke:#6495ed;" x="191.160568" xlink:href="#md62405dd06" y="253.051863"/>
    </g>
   </g>
   <g id="line2d_45">
    <path d="M 29.53256 298.944 
L 29.53256 274.850628 
L 69.687988 274.850628 
L 69.687988 274.276976 
L 72.867545 274.276976 
L 72.867545 273.703324 
L 77.884514 273.703324 
L 77.884514 273.129673 
L 81.775977 273.129673 
L 81.775977 272.556021 
L 83.438118 272.556021 
L 83.438118 271.982369 
L 88.846997 271.982369 
L 88.846997 271.408718 
L 111.023335 271.408718 
L 111.023335 270.835066 
L 121.667835 270.835066 
L 121.667835 269.687762 
L 123.192626 269.687762 
L 123.192626 269.114111 
L 125.038147 269.114111 
L 125.038147 268.540459 
L 128.350967 268.540459 
L 128.350967 267.966807 
L 129.908566 267.966807 
L 129.908566 267.393156 
L 131.839545 267.393156 
L 131.839545 266.819504 
L 132.70687 266.819504 
L 132.70687 265.6722 
L 140.826843 265.6722 
L 140.826843 265.098549 
L 142.752555 265.098549 
L 142.752555 264.524897 
L 144.050606 264.524897 
L 144.050606 263.951245 
L 146.129168 263.951245 
L 146.129168 263.377593 
L 148.23877 263.377593 
L 148.23877 262.803942 
L 158.774233 262.803942 
L 158.774233 262.23029 
L 162.636148 262.23029 
L 162.636148 261.656638 
L 165.810071 261.656638 
L 165.810071 261.082987 
L 168.146685 261.082987 
L 168.146685 260.509335 
L 168.42171 260.509335 
L 168.42171 259.935683 
L 169.128764 259.935683 
L 169.128764 259.362031 
L 169.250616 259.362031 
L 169.250616 258.78838 
L 169.480386 258.78838 
L 169.480386 258.214728 
L 169.964373 258.214728 
L 169.964373 257.641076 
L 171.503976 257.641076 
L 171.503976 257.067425 
L 173.933369 257.067425 
L 173.933369 256.493773 
L 174.635193 256.493773 
L 174.635193 255.920121 
L 175.912107 255.920121 
L 175.912107 255.346469 
L 182.759383 255.346469 
L 182.759383 254.772818 
L 183.333449 254.772818 
L 183.333449 254.199166 
L 186.763474 254.199166 
L 186.763474 253.625514 
L 191.160568 253.625514 
L 191.160568 253.051863 
L 338.688 253.051863 
" style="fill:none;stroke:#6495ed;stroke-linecap:square;stroke-width:1.5;"/>
   </g>
   <g id="line2d_46">
    <defs>
     <path d="M -0 6 
L 6 -6 
L -6 -6 
z
" id="m10c5d15a4d" style="stroke:#6495ed;stroke-linejoin:miter;stroke-width:1.5;"/>
    </defs>
    <g>
     <use style="fill-opacity:0;stroke:#6495ed;stroke-linejoin:miter;stroke-width:1.5;" x="77.884514" xlink:href="#m10c5d15a4d" y="273.129673"/>
     <use style="fill-opacity:0;stroke:#6495ed;stroke-linejoin:miter;stroke-width:1.5;" x="132.70687" xlink:href="#m10c5d15a4d" y="265.6722"/>
     <use style="fill-opacity:0;stroke:#6495ed;stroke-linejoin:miter;stroke-width:1.5;" x="191.160568" xlink:href="#m10c5d15a4d" y="253.625514"/>
     <use style="fill-opacity:0;stroke:#6495ed;stroke-linejoin:miter;stroke-width:1.5;" x="191.160568" xlink:href="#m10c5d15a4d" y="253.051863"/>
     <use style="fill-opacity:0;stroke:#6495ed;stroke-linejoin:miter;stroke-width:1.5;" x="191.160568" xlink:href="#m10c5d15a4d" y="253.051863"/>
     <use style="fill-opacity:0;stroke:#6495ed;stroke-linejoin:miter;stroke-width:1.5;" x="338.688" xlink:href="#m10c5d15a4d" y="253.051863"/>
    </g>
   </g>
   <g id="line2d_47">
    <path style="fill:none;stroke:#6495ed;stroke-linecap:square;stroke-width:1.5;"/>
    <g/>
   </g>
   <g id="line2d_48">
    <path clip-path="url(#p2af1e7f801)" d="M 124.669438 269.114111 
" style="fill:none;stroke:#6495ed;stroke-linecap:square;stroke-width:1.5;"/>
    <defs>
     <path d="M -12 12 
L 12 -12 
M -12 -12 
L 12 12 
" id="m25b8a617f8" style="stroke:#6495ed;"/>
    </defs>
    <g clip-path="url(#p2af1e7f801)">
     <use style="fill:#6495ed;stroke:#6495ed;" x="124.669438" xlink:href="#m25b8a617f8" y="269.114111"/>
    </g>
   </g>
   <g id="line2d_49">
    <defs>
     <path d="M 0 1.5 
C 0.397805 1.5 0.77937 1.341951 1.06066 1.06066 
C 1.341951 0.77937 1.5 0.397805 1.5 0 
C 1.5 -0.397805 1.341951 -0.77937 1.06066 -1.06066 
C 0.77937 -1.341951 0.397805 -1.5 0 -1.5 
C -0.397805 -1.5 -0.77937 -1.341951 -1.06066 -1.06066 
C -1.341951 -0.77937 -1.5 -0.397805 -1.5 0 
C -1.5 0.397805 -1.341951 0.77937 -1.06066 1.06066 
C -0.77937 1.341951 -0.397805 1.5 0 1.5 
z
" id="ma87d902e05" style="stroke:#ff0000;"/>
    </defs>
    <g>
     <use style="fill:#ff0000;stroke:#ff0000;" x="136.189322" xlink:href="#ma87d902e05" y="281.734448"/>
     <use style="fill:#ff0000;stroke:#ff0000;" x="136.189322" xlink:href="#ma87d902e05" y="281.734448"/>
    </g>
   </g>
   <g id="line2d_50">
    <path d="M 29.53256 298.944 
L 29.53256 292.060179 
L 82.626842 292.060179 
L 82.626842 291.486528 
L 84.213325 291.486528 
L 84.213325 290.912876 
L 87.009585 290.912876 
L 87.009585 290.339224 
L 89.418828 290.339224 
L 89.418828 289.191921 
L 92.026554 289.191921 
L 92.026554 288.618269 
L 105.285403 288.618269 
L 105.285403 288.044617 
L 106.593963 288.044617 
L 106.593963 287.470966 
L 110.358901 287.470966 
L 110.358901 286.897314 
L 114.418861 286.897314 
L 114.418861 286.323662 
L 115.33349 286.323662 
L 115.33349 285.75001 
L 120.190611 285.75001 
L 120.190611 285.176359 
L 123.029641 285.176359 
L 123.029641 284.602707 
L 130.182344 284.602707 
L 130.182344 284.029055 
L 131.338382 284.029055 
L 131.338382 283.455404 
L 133.352844 283.455404 
L 133.352844 282.881752 
L 134.745246 282.881752 
L 134.745246 282.3081 
L 136.189322 282.3081 
L 136.189322 281.734448 
L 338.688 281.734448 
" style="fill:none;stroke:#ff0000;stroke-linecap:square;stroke-width:1.5;"/>
   </g>
   <g id="line2d_51">
    <defs>
     <path d="M 0 -6 
L -5.196152 -3 
L -5.196152 3 
L -0 6 
L 5.196152 3 
L 5.196152 -3 
z
" id="m63ca25e14c" style="stroke:#ff0000;stroke-linejoin:miter;stroke-width:1.5;"/>
    </defs>
    <g>
     <use style="fill-opacity:0;stroke:#ff0000;stroke-linejoin:miter;stroke-width:1.5;" x="110.358901" xlink:href="#m63ca25e14c" y="286.897314"/>
     <use style="fill-opacity:0;stroke:#ff0000;stroke-linejoin:miter;stroke-width:1.5;" x="136.189322" xlink:href="#m63ca25e14c" y="282.3081"/>
     <use style="fill-opacity:0;stroke:#ff0000;stroke-linejoin:miter;stroke-width:1.5;" x="136.189322" xlink:href="#m63ca25e14c" y="281.734448"/>
     <use style="fill-opacity:0;stroke:#ff0000;stroke-linejoin:miter;stroke-width:1.5;" x="136.189322" xlink:href="#m63ca25e14c" y="281.734448"/>
     <use style="fill-opacity:0;stroke:#ff0000;stroke-linejoin:miter;stroke-width:1.5;" x="136.189322" xlink:href="#m63ca25e14c" y="281.734448"/>
     <use style="fill-opacity:0;stroke:#ff0000;stroke-linejoin:miter;stroke-width:1.5;" x="338.688" xlink:href="#m63ca25e14c" y="281.734448"/>
    </g>
   </g>
   <g id="line2d_52">
    <path style="fill:none;stroke:#ff0000;stroke-linecap:square;stroke-width:1.5;"/>
    <g/>
   </g>
   <g id="line2d_53">
    <path clip-path="url(#p2af1e7f801)" d="M 137.558536 281.734448 
" style="fill:none;stroke:#ff0000;stroke-linecap:square;stroke-width:1.5;"/>
    <defs>
     <path d="M -12 12 
L 12 -12 
M -12 -12 
L 12 12 
" id="m28bb34ee15" style="stroke:#ff0000;"/>
    </defs>
    <g clip-path="url(#p2af1e7f801)">
     <use style="fill:#ff0000;stroke:#ff0000;" x="137.558536" xlink:href="#m28bb34ee15" y="281.734448"/>
    </g>
   </g>
   <g id="line2d_54">
    <path d="M 338.688 281.734448 
L 369.60768 293.092752 
" style="fill:none;stroke:#ff0000;stroke-linecap:square;stroke-width:1.5;"/>
    <g>
     <use style="fill-opacity:0;stroke:#ff0000;stroke-linejoin:miter;stroke-width:1.5;" x="338.688" xlink:href="#m63ca25e14c" y="281.734448"/>
     <use style="fill-opacity:0;stroke:#ff0000;stroke-linejoin:miter;stroke-width:1.5;" x="369.60768" xlink:href="#m63ca25e14c" y="293.092752"/>
    </g>
   </g>
   <g id="line2d_55">
    <path d="M 338.688 253.051863 
L 369.60768 222.877782 
" style="fill:none;stroke:#6495ed;stroke-linecap:square;stroke-width:1.5;"/>
    <g>
     <use style="fill-opacity:0;stroke:#6495ed;stroke-linejoin:miter;stroke-width:1.5;" x="338.688" xlink:href="#m10c5d15a4d" y="253.051863"/>
     <use style="fill-opacity:0;stroke:#6495ed;stroke-linejoin:miter;stroke-width:1.5;" x="369.60768" xlink:href="#m10c5d15a4d" y="222.877782"/>
    </g>
   </g>
   <g id="line2d_56">
    <path d="M 338.688 241.578828 
L 369.60768 152.662812 
" style="fill:none;stroke:#000080;stroke-linecap:square;stroke-width:1.5;"/>
    <g>
     <use style="fill-opacity:0;stroke:#000080;stroke-width:1.5;" x="338.688" xlink:href="#m3a01de3ca6" y="241.578828"/>
     <use style="fill-opacity:0;stroke:#000080;stroke-width:1.5;" x="369.60768" xlink:href="#m3a01de3ca6" y="152.662812"/>
    </g>
   </g>
   <g id="line2d_57">
    <path d="M 338.688 149.794553 
L 369.60768 82.447842 
" style="fill:none;stroke:#ff7500;stroke-linecap:square;stroke-width:1.5;"/>
    <g>
     <use style="fill-opacity:0;stroke:#ff7500;stroke-linejoin:bevel;stroke-width:1.5;" x="338.688" xlink:href="#me78a7f5637" y="149.794553"/>
     <use style="fill-opacity:0;stroke:#ff7500;stroke-linejoin:bevel;stroke-width:1.5;" x="369.60768" xlink:href="#me78a7f5637" y="82.447842"/>
    </g>
   </g>
   <g id="line2d_58">
    <path d="M 338.688 6.381624 
L 369.60768 12.232871 
" style="fill:none;stroke:#ff00ff;stroke-linecap:square;stroke-width:1.5;"/>
    <g>
     <use style="fill-opacity:0;stroke:#ff00ff;stroke-linejoin:miter;stroke-width:1.5;" x="338.688" xlink:href="#mbec8b7fd68" y="6.381624"/>
     <use style="fill-opacity:0;stroke:#ff00ff;stroke-linejoin:miter;stroke-width:1.5;" x="369.60768" xlink:href="#mbec8b7fd68" y="12.232871"/>
    </g>
   </g>
   <g id="line2d_59">
    <path d="M 338.688 298.944 
L 338.688 6.381624 
" style="fill:none;stroke:#000000;stroke-linecap:square;stroke-width:1.5;"/>
   </g>
   <g id="patch_3">
    <path d="M 57.6 298.944 
L 57.6 3.456 
" style="fill:none;stroke:#000000;stroke-linecap:square;stroke-linejoin:miter;stroke-width:0.8;"/>
   </g>
   <g id="patch_4">
    <path d="M 338.688 298.944 
L 338.688 3.456 
" style="fill:none;stroke:#000000;stroke-linecap:square;stroke-linejoin:miter;stroke-width:0.8;"/>
   </g>
   <g id="patch_5">
    <path d="M 57.6 298.944 
L 338.688 298.944 
" style="fill:none;stroke:#000000;stroke-linecap:square;stroke-linejoin:miter;stroke-width:0.8;"/>
   </g>
   <g id="patch_6">
    <path d="M 57.6 3.456 
L 338.688 3.456 
" style="fill:none;stroke:#000000;stroke-linecap:square;stroke-linejoin:miter;stroke-width:0.8;"/>
   </g>
   <g id="text_13">
    <!-- f24 -->
    <g transform="translate(375.22944 297.78369)scale(0.17 -0.17)">
     <use xlink:href="#DejaVuSans-102"/>
     <use x="35.205078" xlink:href="#DejaVuSans-50"/>
     <use x="98.828125" xlink:href="#DejaVuSans-52"/>
    </g>
   </g>
   <g id="text_14">
    <!-- f23 -->
    <g transform="translate(375.22944 227.56872)scale(0.17 -0.17)">
     <defs>
      <path d="M 40.578125 39.3125 
Q 47.65625 37.796875 51.625 33 
Q 55.609375 28.21875 55.609375 21.1875 
Q 55.609375 10.40625 48.1875 4.484375 
Q 40.765625 -1.421875 27.09375 -1.421875 
Q 22.515625 -1.421875 17.65625 -0.515625 
Q 12.796875 0.390625 7.625 2.203125 
L 7.625 11.71875 
Q 11.71875 9.328125 16.59375 8.109375 
Q 21.484375 6.890625 26.8125 6.890625 
Q 36.078125 6.890625 40.9375 10.546875 
Q 45.796875 14.203125 45.796875 21.1875 
Q 45.796875 27.640625 41.28125 31.265625 
Q 36.765625 34.90625 28.71875 34.90625 
L 20.21875 34.90625 
L 20.21875 43.015625 
L 29.109375 43.015625 
Q 36.375 43.015625 40.234375 45.921875 
Q 44.09375 48.828125 44.09375 54.296875 
Q 44.09375 59.90625 40.109375 62.90625 
Q 36.140625 65.921875 28.71875 65.921875 
Q 24.65625 65.921875 20.015625 65.03125 
Q 15.375 64.15625 9.8125 62.3125 
L 9.8125 71.09375 
Q 15.4375 72.65625 20.34375 73.4375 
Q 25.25 74.21875 29.59375 74.21875 
Q 40.828125 74.21875 47.359375 69.109375 
Q 53.90625 64.015625 53.90625 55.328125 
Q 53.90625 49.265625 50.4375 45.09375 
Q 46.96875 40.921875 40.578125 39.3125 
z
" id="DejaVuSans-51"/>
     </defs>
     <use xlink:href="#DejaVuSans-102"/>
     <use x="35.205078" xlink:href="#DejaVuSans-50"/>
     <use x="98.828125" xlink:href="#DejaVuSans-51"/>
    </g>
   </g>
   <g id="text_15">
    <!-- f20 -->
    <g transform="translate(375.22944 157.353749)scale(0.17 -0.17)">
     <use xlink:href="#DejaVuSans-102"/>
     <use x="35.205078" xlink:href="#DejaVuSans-50"/>
     <use x="98.828125" xlink:href="#DejaVuSans-48"/>
    </g>
   </g>
   <g id="text_16">
    <!-- f22 -->
    <g transform="translate(375.22944 87.138779)scale(0.17 -0.17)">
     <use xlink:href="#DejaVuSans-102"/>
     <use x="35.205078" xlink:href="#DejaVuSans-50"/>
     <use x="98.828125" xlink:href="#DejaVuSans-50"/>
    </g>
   </g>
   <g id="text_17">
    <!-- f21 -->
    <g transform="translate(375.22944 16.923809)scale(0.17 -0.17)">
     <use xlink:href="#DejaVuSans-102"/>
     <use x="35.205078" xlink:href="#DejaVuSans-50"/>
     <use x="98.828125" xlink:href="#DejaVuSans-49"/>
    </g>
   </g>
   <g id="text_18">
    <!-- bbob -->
    <g transform="translate(60.41088 14.161286)scale(0.102 -0.102)">
     <defs>
      <path d="M 48.6875 27.296875 
Q 48.6875 37.203125 44.609375 42.84375 
Q 40.53125 48.484375 33.40625 48.484375 
Q 26.265625 48.484375 22.1875 42.84375 
Q 18.109375 37.203125 18.109375 27.296875 
Q 18.109375 17.390625 22.1875 11.75 
Q 26.265625 6.109375 33.40625 6.109375 
Q 40.53125 6.109375 44.609375 11.75 
Q 48.6875 17.390625 48.6875 27.296875 
z
M 18.109375 46.390625 
Q 20.953125 51.265625 25.265625 53.625 
Q 29.59375 56 35.59375 56 
Q 45.5625 56 51.78125 48.09375 
Q 58.015625 40.1875 58.015625 27.296875 
Q 58.015625 14.40625 51.78125 6.484375 
Q 45.5625 -1.421875 35.59375 -1.421875 
Q 29.59375 -1.421875 25.265625 0.953125 
Q 20.953125 3.328125 18.109375 8.203125 
L 18.109375 0 
L 9.078125 0 
L 9.078125 75.984375 
L 18.109375 75.984375 
z
" id="DejaVuSans-98"/>
     </defs>
     <use xlink:href="#DejaVuSans-98"/>
     <use x="63.476562" xlink:href="#DejaVuSans-98"/>
     <use x="126.953125" xlink:href="#DejaVuSans-111"/>
     <use x="188.134766" xlink:href="#DejaVuSans-98"/>
    </g>
    <!-- Weak structure functions, 5-D -->
    <g transform="translate(60.41088 25.583055)scale(0.102 -0.102)">
     <defs>
      <path d="M 3.328125 72.90625 
L 13.28125 72.90625 
L 28.609375 11.28125 
L 43.890625 72.90625 
L 54.984375 72.90625 
L 70.3125 11.28125 
L 85.59375 72.90625 
L 95.609375 72.90625 
L 77.296875 0 
L 64.890625 0 
L 49.515625 63.28125 
L 33.984375 0 
L 21.578125 0 
z
" id="DejaVuSans-87"/>
      <path d="M 9.078125 75.984375 
L 18.109375 75.984375 
L 18.109375 31.109375 
L 44.921875 54.6875 
L 56.390625 54.6875 
L 27.390625 29.109375 
L 57.625 0 
L 45.90625 0 
L 18.109375 26.703125 
L 18.109375 0 
L 9.078125 0 
z
" id="DejaVuSans-107"/>
      <path d="M 10.796875 72.90625 
L 49.515625 72.90625 
L 49.515625 64.59375 
L 19.828125 64.59375 
L 19.828125 46.734375 
Q 21.96875 47.46875 24.109375 47.828125 
Q 26.265625 48.1875 28.421875 48.1875 
Q 40.625 48.1875 47.75 41.5 
Q 54.890625 34.8125 54.890625 23.390625 
Q 54.890625 11.625 47.5625 5.09375 
Q 40.234375 -1.421875 26.90625 -1.421875 
Q 22.3125 -1.421875 17.546875 -0.640625 
Q 12.796875 0.140625 7.71875 1.703125 
L 7.71875 11.625 
Q 12.109375 9.234375 16.796875 8.0625 
Q 21.484375 6.890625 26.703125 6.890625 
Q 35.15625 6.890625 40.078125 11.328125 
Q 45.015625 15.765625 45.015625 23.390625 
Q 45.015625 31 40.078125 35.4375 
Q 35.15625 39.890625 26.703125 39.890625 
Q 22.75 39.890625 18.8125 39.015625 
Q 14.890625 38.140625 10.796875 36.28125 
z
" id="DejaVuSans-53"/>
      <path d="M 19.671875 64.796875 
L 19.671875 8.109375 
L 31.59375 8.109375 
Q 46.6875 8.109375 53.6875 14.9375 
Q 60.6875 21.78125 60.6875 36.53125 
Q 60.6875 51.171875 53.6875 57.984375 
Q 46.6875 64.796875 31.59375 64.796875 
z
M 9.8125 72.90625 
L 30.078125 72.90625 
Q 51.265625 72.90625 61.171875 64.09375 
Q 71.09375 55.28125 71.09375 36.53125 
Q 71.09375 17.671875 61.125 8.828125 
Q 51.171875 0 30.078125 0 
L 9.8125 0 
z
" id="DejaVuSans-68"/>
     </defs>
     <use xlink:href="#DejaVuSans-87"/>
     <use x="93.001953" xlink:href="#DejaVuSans-101"/>
     <use x="154.525391" xlink:href="#DejaVuSans-97"/>
     <use x="215.804688" xlink:href="#DejaVuSans-107"/>
     <use x="273.714844" xlink:href="#DejaVuSans-32"/>
     <use x="305.501953" xlink:href="#DejaVuSans-115"/>
     <use x="357.601562" xlink:href="#DejaVuSans-116"/>
     <use x="396.810547" xlink:href="#DejaVuSans-114"/>
     <use x="437.923828" xlink:href="#DejaVuSans-117"/>
     <use x="501.302734" xlink:href="#DejaVuSans-99"/>
     <use x="556.283203" xlink:href="#DejaVuSans-116"/>
     <use x="595.492188" xlink:href="#DejaVuSans-117"/>
     <use x="658.871094" xlink:href="#DejaVuSans-114"/>
     <use x="697.734375" xlink:href="#DejaVuSans-101"/>
     <use x="759.257812" xlink:href="#DejaVuSans-32"/>
     <use x="791.044922" xlink:href="#DejaVuSans-102"/>
     <use x="826.25" xlink:href="#DejaVuSans-117"/>
     <use x="889.628906" xlink:href="#DejaVuSans-110"/>
     <use x="953.007812" xlink:href="#DejaVuSans-99"/>
     <use x="1007.988281" xlink:href="#DejaVuSans-116"/>
     <use x="1047.197266" xlink:href="#DejaVuSans-105"/>
     <use x="1074.980469" xlink:href="#DejaVuSans-111"/>
     <use x="1136.162109" xlink:href="#DejaVuSans-110"/>
     <use x="1199.541016" xlink:href="#DejaVuSans-115"/>
     <use x="1251.640625" xlink:href="#DejaVuSans-44"/>
     <use x="1283.427734" xlink:href="#DejaVuSans-32"/>
     <use x="1315.214844" xlink:href="#DejaVuSans-53"/>
     <use x="1378.837891" xlink:href="#DejaVuSans-45"/>
     <use x="1414.921875" xlink:href="#DejaVuSans-68"/>
    </g>
    <!-- 51 targets: 100..1e-08 -->
    <g transform="translate(60.41088 37.004824)scale(0.102 -0.102)">
     <defs>
      <path d="M 11.71875 12.40625 
L 22.015625 12.40625 
L 22.015625 0 
L 11.71875 0 
z
M 11.71875 51.703125 
L 22.015625 51.703125 
L 22.015625 39.3125 
L 11.71875 39.3125 
z
" id="DejaVuSans-58"/>
     </defs>
     <use xlink:href="#DejaVuSans-53"/>
     <use x="63.623047" xlink:href="#DejaVuSans-49"/>
     <use x="127.246094" xlink:href="#DejaVuSans-32"/>
     <use x="159.033203" xlink:href="#DejaVuSans-116"/>
     <use x="198.242188" xlink:href="#DejaVuSans-97"/>
     <use x="259.521484" xlink:href="#DejaVuSans-114"/>
     <use x="298.884766" xlink:href="#DejaVuSans-103"/>
     <use x="362.361328" xlink:href="#DejaVuSans-101"/>
     <use x="423.884766" xlink:href="#DejaVuSans-116"/>
     <use x="463.09375" xlink:href="#DejaVuSans-115"/>
     <use x="515.193359" xlink:href="#DejaVuSans-58"/>
     <use x="548.884766" xlink:href="#DejaVuSans-32"/>
     <use x="580.671875" xlink:href="#DejaVuSans-49"/>
     <use x="644.294922" xlink:href="#DejaVuSans-48"/>
     <use x="707.917969" xlink:href="#DejaVuSans-48"/>
     <use x="771.541016" xlink:href="#DejaVuSans-46"/>
     <use x="803.328125" xlink:href="#DejaVuSans-46"/>
     <use x="835.115234" xlink:href="#DejaVuSans-49"/>
     <use x="898.738281" xlink:href="#DejaVuSans-101"/>
     <use x="960.261719" xlink:href="#DejaVuSans-45"/>
     <use x="996.345703" xlink:href="#DejaVuSans-48"/>
     <use x="1059.96875" xlink:href="#DejaVuSans-56"/>
    </g>
    <!-- 15 instances -->
    <g transform="translate(60.41088 48.426593)scale(0.102 -0.102)">
     <use xlink:href="#DejaVuSans-49"/>
     <use x="63.623047" xlink:href="#DejaVuSans-53"/>
     <use x="127.246094" xlink:href="#DejaVuSans-32"/>
     <use x="159.033203" xlink:href="#DejaVuSans-105"/>
     <use x="186.816406" xlink:href="#DejaVuSans-110"/>
     <use x="250.195312" xlink:href="#DejaVuSans-115"/>
     <use x="302.294922" xlink:href="#DejaVuSans-116"/>
     <use x="341.503906" xlink:href="#DejaVuSans-97"/>
     <use x="402.783203" xlink:href="#DejaVuSans-110"/>
     <use x="466.162109" xlink:href="#DejaVuSans-99"/>
     <use x="521.142578" xlink:href="#DejaVuSans-101"/>
     <use x="582.666016" xlink:href="#DejaVuSans-115"/>
    </g>
   </g>
   <g id="text_19">
    <!-- v2.4 -->
    <g style="fill:#808080;" transform="translate(187.233062 293.909432)scale(0.1 -0.1)">
     <use xlink:href="#DejaVuSans-118"/>
     <use x="59.179688" xlink:href="#DejaVuSans-50"/>
     <use x="122.802734" xlink:href="#DejaVuSans-46"/>
     <use x="154.589844" xlink:href="#DejaVuSans-52"/>
    </g>
   </g>
  </g>
 </g>
 <defs>
  <clipPath id="p2af1e7f801">
   <rect height="295.488" width="281.088" x="57.6" y="3.456"/>
  </clipPath>
 </defs>
</svg>
