<?xml version="1.0" encoding="utf-8" standalone="no"?>
<!DOCTYPE svg PUBLIC "-//W3C//DTD SVG 1.1//EN"
  "http://www.w3.org/Graphics/SVG/1.1/DTD/svg11.dtd">
<!-- Created with matplotlib (https://matplotlib.org/) -->
<svg height="345.6pt" version="1.1" viewBox="0 0 460.8 345.6" width="460.8pt" xmlns="http://www.w3.org/2000/svg" xmlns:xlink="http://www.w3.org/1999/xlink">
 <metadata>
  <rdf:RDF xmlns:cc="http://creativecommons.org/ns#" xmlns:dc="http://purl.org/dc/elements/1.1/" xmlns:rdf="http://www.w3.org/1999/02/22-rdf-syntax-ns#">
   <cc:Work>
    <dc:type rdf:resource="http://purl.org/dc/dcmitype/StillImage"/>
    <dc:date>2021-08-04T15:02:50.665212</dc:date>
    <dc:format>image/svg+xml</dc:format>
    <dc:creator>
     <cc:Agent>
      <dc:title>Matplotlib v3.3.1, https://matplotlib.org/</dc:title>
     </cc:Agent>
    </dc:creator>
   </cc:Work>
  </rdf:RDF>
 </metadata>
 <defs>
  <style type="text/css">*{stroke-linecap:butt;stroke-linejoin:round;}</style>
 </defs>
 <g id="figure_1">
  <g id="patch_1">
   <path d="M 0 345.6 
L 460.8 345.6 
L 460.8 0 
L 0 0 
z
" style="fill:#ffffff;"/>
  </g>
  <g id="axes_1">
   <g id="patch_2">
    <path d="M 57.6 298.944 
L 338.688 298.944 
L 338.688 27.648 
L 57.6 27.648 
z
" style="fill:#ffffff;"/>
   </g>
   <g id="matplotlib.axis_1">
    <g id="xtick_1">
     <g id="line2d_1">
      <path clip-path="url(#p246e419ea8)" d="M 57.6 298.944 
L 57.6 27.648 
" style="fill:none;stroke:#b0b0b0;stroke-linecap:square;stroke-width:0.8;"/>
     </g>
     <g id="line2d_2">
      <defs>
       <path d="M 0 0 
L 0 3.5 
" id="m3220551ad3" style="stroke:#000000;stroke-width:0.8;"/>
      </defs>
      <g>
       <use style="stroke:#000000;stroke-width:0.8;" x="57.6" xlink:href="#m3220551ad3" y="298.944"/>
      </g>
     </g>
     <g id="text_1">
      <!-- 0 -->
      <g transform="translate(51.2375 321.140875)scale(0.2 -0.2)">
       <defs>
        <path d="M 31.78125 66.40625 
Q 24.171875 66.40625 20.328125 58.90625 
Q 16.5 51.421875 16.5 36.375 
Q 16.5 21.390625 20.328125 13.890625 
Q 24.171875 6.390625 31.78125 6.390625 
Q 39.453125 6.390625 43.28125 13.890625 
Q 47.125 21.390625 47.125 36.375 
Q 47.125 51.421875 43.28125 58.90625 
Q 39.453125 66.40625 31.78125 66.40625 
z
M 31.78125 74.21875 
Q 44.046875 74.21875 50.515625 64.515625 
Q 56.984375 54.828125 56.984375 36.375 
Q 56.984375 17.96875 50.515625 8.265625 
Q 44.046875 -1.421875 31.78125 -1.421875 
Q 19.53125 -1.421875 13.0625 8.265625 
Q 6.59375 17.96875 6.59375 36.375 
Q 6.59375 54.828125 13.0625 64.515625 
Q 19.53125 74.21875 31.78125 74.21875 
z
" id="DejaVuSans-48"/>
       </defs>
       <use xlink:href="#DejaVuSans-48"/>
      </g>
     </g>
    </g>
    <g id="xtick_2">
     <g id="line2d_3">
      <path clip-path="url(#p246e419ea8)" d="M 137.910857 298.944 
L 137.910857 27.648 
" style="fill:none;stroke:#b0b0b0;stroke-linecap:square;stroke-width:0.8;"/>
     </g>
     <g id="line2d_4">
      <g>
       <use style="stroke:#000000;stroke-width:0.8;" x="137.910857" xlink:href="#m3220551ad3" y="298.944"/>
      </g>
     </g>
     <g id="text_2">
      <!-- 2 -->
      <g transform="translate(131.548357 321.140875)scale(0.2 -0.2)">
       <defs>
        <path d="M 19.1875 8.296875 
L 53.609375 8.296875 
L 53.609375 0 
L 7.328125 0 
L 7.328125 8.296875 
Q 12.9375 14.109375 22.625 23.890625 
Q 32.328125 33.6875 34.8125 36.53125 
Q 39.546875 41.84375 41.421875 45.53125 
Q 43.3125 49.21875 43.3125 52.78125 
Q 43.3125 58.59375 39.234375 62.25 
Q 35.15625 65.921875 28.609375 65.921875 
Q 23.96875 65.921875 18.8125 64.3125 
Q 13.671875 62.703125 7.8125 59.421875 
L 7.8125 69.390625 
Q 13.765625 71.78125 18.9375 73 
Q 24.125 74.21875 28.421875 74.21875 
Q 39.75 74.21875 46.484375 68.546875 
Q 53.21875 62.890625 53.21875 53.421875 
Q 53.21875 48.921875 51.53125 44.890625 
Q 49.859375 40.875 45.40625 35.40625 
Q 44.1875 33.984375 37.640625 27.21875 
Q 31.109375 20.453125 19.1875 8.296875 
z
" id="DejaVuSans-50"/>
       </defs>
       <use xlink:href="#DejaVuSans-50"/>
      </g>
     </g>
    </g>
    <g id="xtick_3">
     <g id="line2d_5">
      <path clip-path="url(#p246e419ea8)" d="M 218.221714 298.944 
L 218.221714 27.648 
" style="fill:none;stroke:#b0b0b0;stroke-linecap:square;stroke-width:0.8;"/>
     </g>
     <g id="line2d_6">
      <g>
       <use style="stroke:#000000;stroke-width:0.8;" x="218.221714" xlink:href="#m3220551ad3" y="298.944"/>
      </g>
     </g>
     <g id="text_3">
      <!-- 4 -->
      <g transform="translate(211.859214 321.140875)scale(0.2 -0.2)">
       <defs>
        <path d="M 37.796875 64.3125 
L 12.890625 25.390625 
L 37.796875 25.390625 
z
M 35.203125 72.90625 
L 47.609375 72.90625 
L 47.609375 25.390625 
L 58.015625 25.390625 
L 58.015625 17.1875 
L 47.609375 17.1875 
L 47.609375 0 
L 37.796875 0 
L 37.796875 17.1875 
L 4.890625 17.1875 
L 4.890625 26.703125 
z
" id="DejaVuSans-52"/>
       </defs>
       <use xlink:href="#DejaVuSans-52"/>
      </g>
     </g>
    </g>
    <g id="xtick_4">
     <g id="line2d_7">
      <path clip-path="url(#p246e419ea8)" d="M 298.532571 298.944 
L 298.532571 27.648 
" style="fill:none;stroke:#b0b0b0;stroke-linecap:square;stroke-width:0.8;"/>
     </g>
     <g id="line2d_8">
      <g>
       <use style="stroke:#000000;stroke-width:0.8;" x="298.532571" xlink:href="#m3220551ad3" y="298.944"/>
      </g>
     </g>
     <g id="text_4">
      <!-- 6 -->
      <g transform="translate(292.170071 321.140875)scale(0.2 -0.2)">
       <defs>
        <path d="M 33.015625 40.375 
Q 26.375 40.375 22.484375 35.828125 
Q 18.609375 31.296875 18.609375 23.390625 
Q 18.609375 15.53125 22.484375 10.953125 
Q 26.375 6.390625 33.015625 6.390625 
Q 39.65625 6.390625 43.53125 10.953125 
Q 47.40625 15.53125 47.40625 23.390625 
Q 47.40625 31.296875 43.53125 35.828125 
Q 39.65625 40.375 33.015625 40.375 
z
M 52.59375 71.296875 
L 52.59375 62.3125 
Q 48.875 64.0625 45.09375 64.984375 
Q 41.3125 65.921875 37.59375 65.921875 
Q 27.828125 65.921875 22.671875 59.328125 
Q 17.53125 52.734375 16.796875 39.40625 
Q 19.671875 43.65625 24.015625 45.921875 
Q 28.375 48.1875 33.59375 48.1875 
Q 44.578125 48.1875 50.953125 41.515625 
Q 57.328125 34.859375 57.328125 23.390625 
Q 57.328125 12.15625 50.6875 5.359375 
Q 44.046875 -1.421875 33.015625 -1.421875 
Q 20.359375 -1.421875 13.671875 8.265625 
Q 6.984375 17.96875 6.984375 36.375 
Q 6.984375 53.65625 15.1875 63.9375 
Q 23.390625 74.21875 37.203125 74.21875 
Q 40.921875 74.21875 44.703125 73.484375 
Q 48.484375 72.75 52.59375 71.296875 
z
" id="DejaVuSans-54"/>
       </defs>
       <use xlink:href="#DejaVuSans-54"/>
      </g>
     </g>
    </g>
    <g id="xtick_5">
     <g id="line2d_9">
      <path clip-path="url(#p246e419ea8)" d="M 97.755429 298.944 
L 97.755429 27.648 
" style="fill:none;stroke:#b0b0b0;stroke-linecap:square;stroke-width:0.8;"/>
     </g>
     <g id="line2d_10">
      <defs>
       <path d="M 0 0 
L 0 2 
" id="md3f3a9f3c5" style="stroke:#000000;stroke-width:0.6;"/>
      </defs>
      <g>
       <use style="stroke:#000000;stroke-width:0.6;" x="97.755429" xlink:href="#md3f3a9f3c5" y="298.944"/>
      </g>
     </g>
    </g>
    <g id="xtick_6">
     <g id="line2d_11">
      <path clip-path="url(#p246e419ea8)" d="M 178.066286 298.944 
L 178.066286 27.648 
" style="fill:none;stroke:#b0b0b0;stroke-linecap:square;stroke-width:0.8;"/>
     </g>
     <g id="line2d_12">
      <g>
       <use style="stroke:#000000;stroke-width:0.6;" x="178.066286" xlink:href="#md3f3a9f3c5" y="298.944"/>
      </g>
     </g>
    </g>
    <g id="xtick_7">
     <g id="line2d_13">
      <path clip-path="url(#p246e419ea8)" d="M 258.377143 298.944 
L 258.377143 27.648 
" style="fill:none;stroke:#b0b0b0;stroke-linecap:square;stroke-width:0.8;"/>
     </g>
     <g id="line2d_14">
      <g>
       <use style="stroke:#000000;stroke-width:0.6;" x="258.377143" xlink:href="#md3f3a9f3c5" y="298.944"/>
      </g>
     </g>
    </g>
    <g id="xtick_8">
     <g id="line2d_15">
      <path clip-path="url(#p246e419ea8)" d="M 338.688 298.944 
L 338.688 27.648 
" style="fill:none;stroke:#b0b0b0;stroke-linecap:square;stroke-width:0.8;"/>
     </g>
     <g id="line2d_16">
      <g>
       <use style="stroke:#000000;stroke-width:0.6;" x="338.688" xlink:href="#md3f3a9f3c5" y="298.944"/>
      </g>
     </g>
    </g>
    <g id="text_5">
     <!-- log10(# f-evals / dimension) -->
     <g transform="translate(77.764078 342.217594)scale(0.17 -0.17)">
      <defs>
       <path d="M 9.421875 75.984375 
L 18.40625 75.984375 
L 18.40625 0 
L 9.421875 0 
z
" id="DejaVuSans-108"/>
       <path d="M 30.609375 48.390625 
Q 23.390625 48.390625 19.1875 42.75 
Q 14.984375 37.109375 14.984375 27.296875 
Q 14.984375 17.484375 19.15625 11.84375 
Q 23.34375 6.203125 30.609375 6.203125 
Q 37.796875 6.203125 41.984375 11.859375 
Q 46.1875 17.53125 46.1875 27.296875 
Q 46.1875 37.015625 41.984375 42.703125 
Q 37.796875 48.390625 30.609375 48.390625 
z
M 30.609375 56 
Q 42.328125 56 49.015625 48.375 
Q 55.71875 40.765625 55.71875 27.296875 
Q 55.71875 13.875 49.015625 6.21875 
Q 42.328125 -1.421875 30.609375 -1.421875 
Q 18.84375 -1.421875 12.171875 6.21875 
Q 5.515625 13.875 5.515625 27.296875 
Q 5.515625 40.765625 12.171875 48.375 
Q 18.84375 56 30.609375 56 
z
" id="DejaVuSans-111"/>
       <path d="M 45.40625 27.984375 
Q 45.40625 37.75 41.375 43.109375 
Q 37.359375 48.484375 30.078125 48.484375 
Q 22.859375 48.484375 18.828125 43.109375 
Q 14.796875 37.75 14.796875 27.984375 
Q 14.796875 18.265625 18.828125 12.890625 
Q 22.859375 7.515625 30.078125 7.515625 
Q 37.359375 7.515625 41.375 12.890625 
Q 45.40625 18.265625 45.40625 27.984375 
z
M 54.390625 6.78125 
Q 54.390625 -7.171875 48.1875 -13.984375 
Q 42 -20.796875 29.203125 -20.796875 
Q 24.46875 -20.796875 20.265625 -20.09375 
Q 16.0625 -19.390625 12.109375 -17.921875 
L 12.109375 -9.1875 
Q 16.0625 -11.328125 19.921875 -12.34375 
Q 23.78125 -13.375 27.78125 -13.375 
Q 36.625 -13.375 41.015625 -8.765625 
Q 45.40625 -4.15625 45.40625 5.171875 
L 45.40625 9.625 
Q 42.625 4.78125 38.28125 2.390625 
Q 33.9375 0 27.875 0 
Q 17.828125 0 11.671875 7.65625 
Q 5.515625 15.328125 5.515625 27.984375 
Q 5.515625 40.671875 11.671875 48.328125 
Q 17.828125 56 27.875 56 
Q 33.9375 56 38.28125 53.609375 
Q 42.625 51.21875 45.40625 46.390625 
L 45.40625 54.6875 
L 54.390625 54.6875 
z
" id="DejaVuSans-103"/>
       <path d="M 12.40625 8.296875 
L 28.515625 8.296875 
L 28.515625 63.921875 
L 10.984375 60.40625 
L 10.984375 69.390625 
L 28.421875 72.90625 
L 38.28125 72.90625 
L 38.28125 8.296875 
L 54.390625 8.296875 
L 54.390625 0 
L 12.40625 0 
z
" id="DejaVuSans-49"/>
       <path d="M 31 75.875 
Q 24.46875 64.65625 21.28125 53.65625 
Q 18.109375 42.671875 18.109375 31.390625 
Q 18.109375 20.125 21.3125 9.0625 
Q 24.515625 -2 31 -13.1875 
L 23.1875 -13.1875 
Q 15.875 -1.703125 12.234375 9.375 
Q 8.59375 20.453125 8.59375 31.390625 
Q 8.59375 42.28125 12.203125 53.3125 
Q 15.828125 64.359375 23.1875 75.875 
z
" id="DejaVuSans-40"/>
       <path d="M 51.125 44 
L 36.921875 44 
L 32.8125 27.6875 
L 47.125 27.6875 
z
M 43.796875 71.78125 
L 38.71875 51.515625 
L 52.984375 51.515625 
L 58.109375 71.78125 
L 65.921875 71.78125 
L 60.890625 51.515625 
L 76.125 51.515625 
L 76.125 44 
L 58.984375 44 
L 54.984375 27.6875 
L 70.515625 27.6875 
L 70.515625 20.21875 
L 53.078125 20.21875 
L 48 0 
L 40.1875 0 
L 45.21875 20.21875 
L 30.90625 20.21875 
L 25.875 0 
L 18.015625 0 
L 23.09375 20.21875 
L 7.71875 20.21875 
L 7.71875 27.6875 
L 24.90625 27.6875 
L 29 44 
L 13.28125 44 
L 13.28125 51.515625 
L 30.90625 51.515625 
L 35.890625 71.78125 
z
" id="DejaVuSans-35"/>
       <path id="DejaVuSans-32"/>
       <path d="M 37.109375 75.984375 
L 37.109375 68.5 
L 28.515625 68.5 
Q 23.6875 68.5 21.796875 66.546875 
Q 19.921875 64.59375 19.921875 59.515625 
L 19.921875 54.6875 
L 34.71875 54.6875 
L 34.71875 47.703125 
L 19.921875 47.703125 
L 19.921875 0 
L 10.890625 0 
L 10.890625 47.703125 
L 2.296875 47.703125 
L 2.296875 54.6875 
L 10.890625 54.6875 
L 10.890625 58.5 
Q 10.890625 67.625 15.140625 71.796875 
Q 19.390625 75.984375 28.609375 75.984375 
z
" id="DejaVuSans-102"/>
       <path d="M 4.890625 31.390625 
L 31.203125 31.390625 
L 31.203125 23.390625 
L 4.890625 23.390625 
z
" id="DejaVuSans-45"/>
       <path d="M 56.203125 29.59375 
L 56.203125 25.203125 
L 14.890625 25.203125 
Q 15.484375 15.921875 20.484375 11.0625 
Q 25.484375 6.203125 34.421875 6.203125 
Q 39.59375 6.203125 44.453125 7.46875 
Q 49.3125 8.734375 54.109375 11.28125 
L 54.109375 2.78125 
Q 49.265625 0.734375 44.1875 -0.34375 
Q 39.109375 -1.421875 33.890625 -1.421875 
Q 20.796875 -1.421875 13.15625 6.1875 
Q 5.515625 13.8125 5.515625 26.8125 
Q 5.515625 40.234375 12.765625 48.109375 
Q 20.015625 56 32.328125 56 
Q 43.359375 56 49.78125 48.890625 
Q 56.203125 41.796875 56.203125 29.59375 
z
M 47.21875 32.234375 
Q 47.125 39.59375 43.09375 43.984375 
Q 39.0625 48.390625 32.421875 48.390625 
Q 24.90625 48.390625 20.390625 44.140625 
Q 15.875 39.890625 15.1875 32.171875 
z
" id="DejaVuSans-101"/>
       <path d="M 2.984375 54.6875 
L 12.5 54.6875 
L 29.59375 8.796875 
L 46.6875 54.6875 
L 56.203125 54.6875 
L 35.6875 0 
L 23.484375 0 
z
" id="DejaVuSans-118"/>
       <path d="M 34.28125 27.484375 
Q 23.390625 27.484375 19.1875 25 
Q 14.984375 22.515625 14.984375 16.5 
Q 14.984375 11.71875 18.140625 8.90625 
Q 21.296875 6.109375 26.703125 6.109375 
Q 34.1875 6.109375 38.703125 11.40625 
Q 43.21875 16.703125 43.21875 25.484375 
L 43.21875 27.484375 
z
M 52.203125 31.203125 
L 52.203125 0 
L 43.21875 0 
L 43.21875 8.296875 
Q 40.140625 3.328125 35.546875 0.953125 
Q 30.953125 -1.421875 24.3125 -1.421875 
Q 15.921875 -1.421875 10.953125 3.296875 
Q 6 8.015625 6 15.921875 
Q 6 25.140625 12.171875 29.828125 
Q 18.359375 34.515625 30.609375 34.515625 
L 43.21875 34.515625 
L 43.21875 35.40625 
Q 43.21875 41.609375 39.140625 45 
Q 35.0625 48.390625 27.6875 48.390625 
Q 23 48.390625 18.546875 47.265625 
Q 14.109375 46.140625 10.015625 43.890625 
L 10.015625 52.203125 
Q 14.9375 54.109375 19.578125 55.046875 
Q 24.21875 56 28.609375 56 
Q 40.484375 56 46.34375 49.84375 
Q 52.203125 43.703125 52.203125 31.203125 
z
" id="DejaVuSans-97"/>
       <path d="M 44.28125 53.078125 
L 44.28125 44.578125 
Q 40.484375 46.53125 36.375 47.5 
Q 32.28125 48.484375 27.875 48.484375 
Q 21.1875 48.484375 17.84375 46.4375 
Q 14.5 44.390625 14.5 40.28125 
Q 14.5 37.15625 16.890625 35.375 
Q 19.28125 33.59375 26.515625 31.984375 
L 29.59375 31.296875 
Q 39.15625 29.25 43.1875 25.515625 
Q 47.21875 21.78125 47.21875 15.09375 
Q 47.21875 7.46875 41.1875 3.015625 
Q 35.15625 -1.421875 24.609375 -1.421875 
Q 20.21875 -1.421875 15.453125 -0.5625 
Q 10.6875 0.296875 5.421875 2 
L 5.421875 11.28125 
Q 10.40625 8.6875 15.234375 7.390625 
Q 20.0625 6.109375 24.8125 6.109375 
Q 31.15625 6.109375 34.5625 8.28125 
Q 37.984375 10.453125 37.984375 14.40625 
Q 37.984375 18.0625 35.515625 20.015625 
Q 33.0625 21.96875 24.703125 23.78125 
L 21.578125 24.515625 
Q 13.234375 26.265625 9.515625 29.90625 
Q 5.8125 33.546875 5.8125 39.890625 
Q 5.8125 47.609375 11.28125 51.796875 
Q 16.75 56 26.8125 56 
Q 31.78125 56 36.171875 55.265625 
Q 40.578125 54.546875 44.28125 53.078125 
z
" id="DejaVuSans-115"/>
       <path d="M 25.390625 72.90625 
L 33.6875 72.90625 
L 8.296875 -9.28125 
L 0 -9.28125 
z
" id="DejaVuSans-47"/>
       <path d="M 45.40625 46.390625 
L 45.40625 75.984375 
L 54.390625 75.984375 
L 54.390625 0 
L 45.40625 0 
L 45.40625 8.203125 
Q 42.578125 3.328125 38.25 0.953125 
Q 33.9375 -1.421875 27.875 -1.421875 
Q 17.96875 -1.421875 11.734375 6.484375 
Q 5.515625 14.40625 5.515625 27.296875 
Q 5.515625 40.1875 11.734375 48.09375 
Q 17.96875 56 27.875 56 
Q 33.9375 56 38.25 53.625 
Q 42.578125 51.265625 45.40625 46.390625 
z
M 14.796875 27.296875 
Q 14.796875 17.390625 18.875 11.75 
Q 22.953125 6.109375 30.078125 6.109375 
Q 37.203125 6.109375 41.296875 11.75 
Q 45.40625 17.390625 45.40625 27.296875 
Q 45.40625 37.203125 41.296875 42.84375 
Q 37.203125 48.484375 30.078125 48.484375 
Q 22.953125 48.484375 18.875 42.84375 
Q 14.796875 37.203125 14.796875 27.296875 
z
" id="DejaVuSans-100"/>
       <path d="M 9.421875 54.6875 
L 18.40625 54.6875 
L 18.40625 0 
L 9.421875 0 
z
M 9.421875 75.984375 
L 18.40625 75.984375 
L 18.40625 64.59375 
L 9.421875 64.59375 
z
" id="DejaVuSans-105"/>
       <path d="M 52 44.1875 
Q 55.375 50.25 60.0625 53.125 
Q 64.75 56 71.09375 56 
Q 79.640625 56 84.28125 50.015625 
Q 88.921875 44.046875 88.921875 33.015625 
L 88.921875 0 
L 79.890625 0 
L 79.890625 32.71875 
Q 79.890625 40.578125 77.09375 44.375 
Q 74.3125 48.1875 68.609375 48.1875 
Q 61.625 48.1875 57.5625 43.546875 
Q 53.515625 38.921875 53.515625 30.90625 
L 53.515625 0 
L 44.484375 0 
L 44.484375 32.71875 
Q 44.484375 40.625 41.703125 44.40625 
Q 38.921875 48.1875 33.109375 48.1875 
Q 26.21875 48.1875 22.15625 43.53125 
Q 18.109375 38.875 18.109375 30.90625 
L 18.109375 0 
L 9.078125 0 
L 9.078125 54.6875 
L 18.109375 54.6875 
L 18.109375 46.1875 
Q 21.1875 51.21875 25.484375 53.609375 
Q 29.78125 56 35.6875 56 
Q 41.65625 56 45.828125 52.96875 
Q 50 49.953125 52 44.1875 
z
" id="DejaVuSans-109"/>
       <path d="M 54.890625 33.015625 
L 54.890625 0 
L 45.90625 0 
L 45.90625 32.71875 
Q 45.90625 40.484375 42.875 44.328125 
Q 39.84375 48.1875 33.796875 48.1875 
Q 26.515625 48.1875 22.3125 43.546875 
Q 18.109375 38.921875 18.109375 30.90625 
L 18.109375 0 
L 9.078125 0 
L 9.078125 54.6875 
L 18.109375 54.6875 
L 18.109375 46.1875 
Q 21.34375 51.125 25.703125 53.5625 
Q 30.078125 56 35.796875 56 
Q 45.21875 56 50.046875 50.171875 
Q 54.890625 44.34375 54.890625 33.015625 
z
" id="DejaVuSans-110"/>
       <path d="M 8.015625 75.875 
L 15.828125 75.875 
Q 23.140625 64.359375 26.78125 53.3125 
Q 30.421875 42.28125 30.421875 31.390625 
Q 30.421875 20.453125 26.78125 9.375 
Q 23.140625 -1.703125 15.828125 -13.1875 
L 8.015625 -13.1875 
Q 14.5 -2 17.703125 9.0625 
Q 20.90625 20.125 20.90625 31.390625 
Q 20.90625 42.671875 17.703125 53.65625 
Q 14.5 64.65625 8.015625 75.875 
z
" id="DejaVuSans-41"/>
      </defs>
      <use xlink:href="#DejaVuSans-108"/>
      <use x="27.783203" xlink:href="#DejaVuSans-111"/>
      <use x="88.964844" xlink:href="#DejaVuSans-103"/>
      <use x="152.441406" xlink:href="#DejaVuSans-49"/>
      <use x="216.064453" xlink:href="#DejaVuSans-48"/>
      <use x="279.6875" xlink:href="#DejaVuSans-40"/>
      <use x="318.701172" xlink:href="#DejaVuSans-35"/>
      <use x="402.490234" xlink:href="#DejaVuSans-32"/>
      <use x="434.277344" xlink:href="#DejaVuSans-102"/>
      <use x="463.982422" xlink:href="#DejaVuSans-45"/>
      <use x="500.066406" xlink:href="#DejaVuSans-101"/>
      <use x="561.589844" xlink:href="#DejaVuSans-118"/>
      <use x="620.769531" xlink:href="#DejaVuSans-97"/>
      <use x="682.048828" xlink:href="#DejaVuSans-108"/>
      <use x="709.832031" xlink:href="#DejaVuSans-115"/>
      <use x="761.931641" xlink:href="#DejaVuSans-32"/>
      <use x="793.71875" xlink:href="#DejaVuSans-47"/>
      <use x="827.410156" xlink:href="#DejaVuSans-32"/>
      <use x="859.197266" xlink:href="#DejaVuSans-100"/>
      <use x="922.673828" xlink:href="#DejaVuSans-105"/>
      <use x="950.457031" xlink:href="#DejaVuSans-109"/>
      <use x="1047.869141" xlink:href="#DejaVuSans-101"/>
      <use x="1109.392578" xlink:href="#DejaVuSans-110"/>
      <use x="1172.771484" xlink:href="#DejaVuSans-115"/>
      <use x="1224.871094" xlink:href="#DejaVuSans-105"/>
      <use x="1252.654297" xlink:href="#DejaVuSans-111"/>
      <use x="1313.835938" xlink:href="#DejaVuSans-110"/>
      <use x="1377.214844" xlink:href="#DejaVuSans-41"/>
     </g>
    </g>
   </g>
   <g id="matplotlib.axis_2">
    <g id="ytick_1">
     <g id="line2d_17">
      <path clip-path="url(#p246e419ea8)" d="M 57.6 298.944 
L 338.688 298.944 
" style="fill:none;stroke:#b0b0b0;stroke-linecap:square;stroke-width:0.8;"/>
     </g>
     <g id="line2d_18">
      <defs>
       <path d="M 0 0 
L -3.5 0 
" id="maff65a0a4f" style="stroke:#000000;stroke-width:0.8;"/>
      </defs>
      <g>
       <use style="stroke:#000000;stroke-width:0.8;" x="57.6" xlink:href="#maff65a0a4f" y="298.944"/>
      </g>
     </g>
     <g id="text_6">
      <!-- 0.0 -->
      <g transform="translate(25.155 305.02275)scale(0.16 -0.16)">
       <defs>
        <path d="M 10.6875 12.40625 
L 21 12.40625 
L 21 0 
L 10.6875 0 
z
" id="DejaVuSans-46"/>
       </defs>
       <use xlink:href="#DejaVuSans-48"/>
       <use x="63.623047" xlink:href="#DejaVuSans-46"/>
       <use x="95.410156" xlink:href="#DejaVuSans-48"/>
      </g>
     </g>
    </g>
    <g id="ytick_2">
     <g id="line2d_19">
      <path clip-path="url(#p246e419ea8)" d="M 57.6 245.22202 
L 338.688 245.22202 
" style="fill:none;stroke:#b0b0b0;stroke-linecap:square;stroke-width:0.8;"/>
     </g>
     <g id="line2d_20">
      <g>
       <use style="stroke:#000000;stroke-width:0.8;" x="57.6" xlink:href="#maff65a0a4f" y="245.22202"/>
      </g>
     </g>
     <g id="text_7">
      <!-- 0.2 -->
      <g transform="translate(25.155 251.30077)scale(0.16 -0.16)">
       <use xlink:href="#DejaVuSans-48"/>
       <use x="63.623047" xlink:href="#DejaVuSans-46"/>
       <use x="95.410156" xlink:href="#DejaVuSans-50"/>
      </g>
     </g>
    </g>
    <g id="ytick_3">
     <g id="line2d_21">
      <path clip-path="url(#p246e419ea8)" d="M 57.6 191.50004 
L 338.688 191.50004 
" style="fill:none;stroke:#b0b0b0;stroke-linecap:square;stroke-width:0.8;"/>
     </g>
     <g id="line2d_22">
      <g>
       <use style="stroke:#000000;stroke-width:0.8;" x="57.6" xlink:href="#maff65a0a4f" y="191.50004"/>
      </g>
     </g>
     <g id="text_8">
      <!-- 0.4 -->
      <g transform="translate(25.155 197.57879)scale(0.16 -0.16)">
       <use xlink:href="#DejaVuSans-48"/>
       <use x="63.623047" xlink:href="#DejaVuSans-46"/>
       <use x="95.410156" xlink:href="#DejaVuSans-52"/>
      </g>
     </g>
    </g>
    <g id="ytick_4">
     <g id="line2d_23">
      <path clip-path="url(#p246e419ea8)" d="M 57.6 137.778059 
L 338.688 137.778059 
" style="fill:none;stroke:#b0b0b0;stroke-linecap:square;stroke-width:0.8;"/>
     </g>
     <g id="line2d_24">
      <g>
       <use style="stroke:#000000;stroke-width:0.8;" x="57.6" xlink:href="#maff65a0a4f" y="137.778059"/>
      </g>
     </g>
     <g id="text_9">
      <!-- 0.6 -->
      <g transform="translate(25.155 143.856809)scale(0.16 -0.16)">
       <use xlink:href="#DejaVuSans-48"/>
       <use x="63.623047" xlink:href="#DejaVuSans-46"/>
       <use x="95.410156" xlink:href="#DejaVuSans-54"/>
      </g>
     </g>
    </g>
    <g id="ytick_5">
     <g id="line2d_25">
      <path clip-path="url(#p246e419ea8)" d="M 57.6 84.056079 
L 338.688 84.056079 
" style="fill:none;stroke:#b0b0b0;stroke-linecap:square;stroke-width:0.8;"/>
     </g>
     <g id="line2d_26">
      <g>
       <use style="stroke:#000000;stroke-width:0.8;" x="57.6" xlink:href="#maff65a0a4f" y="84.056079"/>
      </g>
     </g>
     <g id="text_10">
      <!-- 0.8 -->
      <g transform="translate(25.155 90.134829)scale(0.16 -0.16)">
       <defs>
        <path d="M 31.78125 34.625 
Q 24.75 34.625 20.71875 30.859375 
Q 16.703125 27.09375 16.703125 20.515625 
Q 16.703125 13.921875 20.71875 10.15625 
Q 24.75 6.390625 31.78125 6.390625 
Q 38.8125 6.390625 42.859375 10.171875 
Q 46.921875 13.96875 46.921875 20.515625 
Q 46.921875 27.09375 42.890625 30.859375 
Q 38.875 34.625 31.78125 34.625 
z
M 21.921875 38.8125 
Q 15.578125 40.375 12.03125 44.71875 
Q 8.5 49.078125 8.5 55.328125 
Q 8.5 64.0625 14.71875 69.140625 
Q 20.953125 74.21875 31.78125 74.21875 
Q 42.671875 74.21875 48.875 69.140625 
Q 55.078125 64.0625 55.078125 55.328125 
Q 55.078125 49.078125 51.53125 44.71875 
Q 48 40.375 41.703125 38.8125 
Q 48.828125 37.15625 52.796875 32.3125 
Q 56.78125 27.484375 56.78125 20.515625 
Q 56.78125 9.90625 50.3125 4.234375 
Q 43.84375 -1.421875 31.78125 -1.421875 
Q 19.734375 -1.421875 13.25 4.234375 
Q 6.78125 9.90625 6.78125 20.515625 
Q 6.78125 27.484375 10.78125 32.3125 
Q 14.796875 37.15625 21.921875 38.8125 
z
M 18.3125 54.390625 
Q 18.3125 48.734375 21.84375 45.5625 
Q 25.390625 42.390625 31.78125 42.390625 
Q 38.140625 42.390625 41.71875 45.5625 
Q 45.3125 48.734375 45.3125 54.390625 
Q 45.3125 60.0625 41.71875 63.234375 
Q 38.140625 66.40625 31.78125 66.40625 
Q 25.390625 66.40625 21.84375 63.234375 
Q 18.3125 60.0625 18.3125 54.390625 
z
" id="DejaVuSans-56"/>
       </defs>
       <use xlink:href="#DejaVuSans-48"/>
       <use x="63.623047" xlink:href="#DejaVuSans-46"/>
       <use x="95.410156" xlink:href="#DejaVuSans-56"/>
      </g>
     </g>
    </g>
    <g id="ytick_6">
     <g id="line2d_27">
      <path clip-path="url(#p246e419ea8)" d="M 57.6 30.334099 
L 338.688 30.334099 
" style="fill:none;stroke:#b0b0b0;stroke-linecap:square;stroke-width:0.8;"/>
     </g>
     <g id="line2d_28">
      <g>
       <use style="stroke:#000000;stroke-width:0.8;" x="57.6" xlink:href="#maff65a0a4f" y="30.334099"/>
      </g>
     </g>
     <g id="text_11">
      <!-- 1.0 -->
      <g transform="translate(25.155 36.412849)scale(0.16 -0.16)">
       <use xlink:href="#DejaVuSans-49"/>
       <use x="63.623047" xlink:href="#DejaVuSans-46"/>
       <use x="95.410156" xlink:href="#DejaVuSans-48"/>
      </g>
     </g>
    </g>
    <g id="text_12">
     <!-- Fraction of function,target pairs -->
     <g transform="translate(17.619531 297.681)rotate(-90)scale(0.17 -0.17)">
      <defs>
       <path d="M 9.8125 72.90625 
L 51.703125 72.90625 
L 51.703125 64.59375 
L 19.671875 64.59375 
L 19.671875 43.109375 
L 48.578125 43.109375 
L 48.578125 34.8125 
L 19.671875 34.8125 
L 19.671875 0 
L 9.8125 0 
z
" id="DejaVuSans-70"/>
       <path d="M 41.109375 46.296875 
Q 39.59375 47.171875 37.8125 47.578125 
Q 36.03125 48 33.890625 48 
Q 26.265625 48 22.1875 43.046875 
Q 18.109375 38.09375 18.109375 28.8125 
L 18.109375 0 
L 9.078125 0 
L 9.078125 54.6875 
L 18.109375 54.6875 
L 18.109375 46.1875 
Q 20.953125 51.171875 25.484375 53.578125 
Q 30.03125 56 36.53125 56 
Q 37.453125 56 38.578125 55.875 
Q 39.703125 55.765625 41.0625 55.515625 
z
" id="DejaVuSans-114"/>
       <path d="M 48.78125 52.59375 
L 48.78125 44.1875 
Q 44.96875 46.296875 41.140625 47.34375 
Q 37.3125 48.390625 33.40625 48.390625 
Q 24.65625 48.390625 19.8125 42.84375 
Q 14.984375 37.3125 14.984375 27.296875 
Q 14.984375 17.28125 19.8125 11.734375 
Q 24.65625 6.203125 33.40625 6.203125 
Q 37.3125 6.203125 41.140625 7.25 
Q 44.96875 8.296875 48.78125 10.40625 
L 48.78125 2.09375 
Q 45.015625 0.34375 40.984375 -0.53125 
Q 36.96875 -1.421875 32.421875 -1.421875 
Q 20.0625 -1.421875 12.78125 6.34375 
Q 5.515625 14.109375 5.515625 27.296875 
Q 5.515625 40.671875 12.859375 48.328125 
Q 20.21875 56 33.015625 56 
Q 37.15625 56 41.109375 55.140625 
Q 45.0625 54.296875 48.78125 52.59375 
z
" id="DejaVuSans-99"/>
       <path d="M 18.3125 70.21875 
L 18.3125 54.6875 
L 36.8125 54.6875 
L 36.8125 47.703125 
L 18.3125 47.703125 
L 18.3125 18.015625 
Q 18.3125 11.328125 20.140625 9.421875 
Q 21.96875 7.515625 27.59375 7.515625 
L 36.8125 7.515625 
L 36.8125 0 
L 27.59375 0 
Q 17.1875 0 13.234375 3.875 
Q 9.28125 7.765625 9.28125 18.015625 
L 9.28125 47.703125 
L 2.6875 47.703125 
L 2.6875 54.6875 
L 9.28125 54.6875 
L 9.28125 70.21875 
z
" id="DejaVuSans-116"/>
       <path d="M 8.5 21.578125 
L 8.5 54.6875 
L 17.484375 54.6875 
L 17.484375 21.921875 
Q 17.484375 14.15625 20.5 10.265625 
Q 23.53125 6.390625 29.59375 6.390625 
Q 36.859375 6.390625 41.078125 11.03125 
Q 45.3125 15.671875 45.3125 23.6875 
L 45.3125 54.6875 
L 54.296875 54.6875 
L 54.296875 0 
L 45.3125 0 
L 45.3125 8.40625 
Q 42.046875 3.421875 37.71875 1 
Q 33.40625 -1.421875 27.6875 -1.421875 
Q 18.265625 -1.421875 13.375 4.4375 
Q 8.5 10.296875 8.5 21.578125 
z
M 31.109375 56 
z
" id="DejaVuSans-117"/>
       <path d="M 11.71875 12.40625 
L 22.015625 12.40625 
L 22.015625 4 
L 14.015625 -11.625 
L 7.71875 -11.625 
L 11.71875 4 
z
" id="DejaVuSans-44"/>
       <path d="M 18.109375 8.203125 
L 18.109375 -20.796875 
L 9.078125 -20.796875 
L 9.078125 54.6875 
L 18.109375 54.6875 
L 18.109375 46.390625 
Q 20.953125 51.265625 25.265625 53.625 
Q 29.59375 56 35.59375 56 
Q 45.5625 56 51.78125 48.09375 
Q 58.015625 40.1875 58.015625 27.296875 
Q 58.015625 14.40625 51.78125 6.484375 
Q 45.5625 -1.421875 35.59375 -1.421875 
Q 29.59375 -1.421875 25.265625 0.953125 
Q 20.953125 3.328125 18.109375 8.203125 
z
M 48.6875 27.296875 
Q 48.6875 37.203125 44.609375 42.84375 
Q 40.53125 48.484375 33.40625 48.484375 
Q 26.265625 48.484375 22.1875 42.84375 
Q 18.109375 37.203125 18.109375 27.296875 
Q 18.109375 17.390625 22.1875 11.75 
Q 26.265625 6.109375 33.40625 6.109375 
Q 40.53125 6.109375 44.609375 11.75 
Q 48.6875 17.390625 48.6875 27.296875 
z
" id="DejaVuSans-112"/>
      </defs>
      <use xlink:href="#DejaVuSans-70"/>
      <use x="50.269531" xlink:href="#DejaVuSans-114"/>
      <use x="91.382812" xlink:href="#DejaVuSans-97"/>
      <use x="152.662109" xlink:href="#DejaVuSans-99"/>
      <use x="207.642578" xlink:href="#DejaVuSans-116"/>
      <use x="246.851562" xlink:href="#DejaVuSans-105"/>
      <use x="274.634766" xlink:href="#DejaVuSans-111"/>
      <use x="335.816406" xlink:href="#DejaVuSans-110"/>
      <use x="399.195312" xlink:href="#DejaVuSans-32"/>
      <use x="430.982422" xlink:href="#DejaVuSans-111"/>
      <use x="492.164062" xlink:href="#DejaVuSans-102"/>
      <use x="527.369141" xlink:href="#DejaVuSans-32"/>
      <use x="559.15625" xlink:href="#DejaVuSans-102"/>
      <use x="594.361328" xlink:href="#DejaVuSans-117"/>
      <use x="657.740234" xlink:href="#DejaVuSans-110"/>
      <use x="721.119141" xlink:href="#DejaVuSans-99"/>
      <use x="776.099609" xlink:href="#DejaVuSans-116"/>
      <use x="815.308594" xlink:href="#DejaVuSans-105"/>
      <use x="843.091797" xlink:href="#DejaVuSans-111"/>
      <use x="904.273438" xlink:href="#DejaVuSans-110"/>
      <use x="967.652344" xlink:href="#DejaVuSans-44"/>
      <use x="999.439453" xlink:href="#DejaVuSans-116"/>
      <use x="1038.648438" xlink:href="#DejaVuSans-97"/>
      <use x="1099.927734" xlink:href="#DejaVuSans-114"/>
      <use x="1139.291016" xlink:href="#DejaVuSans-103"/>
      <use x="1202.767578" xlink:href="#DejaVuSans-101"/>
      <use x="1264.291016" xlink:href="#DejaVuSans-116"/>
      <use x="1303.5" xlink:href="#DejaVuSans-32"/>
      <use x="1335.287109" xlink:href="#DejaVuSans-112"/>
      <use x="1398.763672" xlink:href="#DejaVuSans-97"/>
      <use x="1460.042969" xlink:href="#DejaVuSans-105"/>
      <use x="1487.826172" xlink:href="#DejaVuSans-114"/>
      <use x="1528.939453" xlink:href="#DejaVuSans-115"/>
     </g>
    </g>
   </g>
   <g id="line2d_29">
    <defs>
     <path d="M 0 1.5 
C 0.397805 1.5 0.77937 1.341951 1.06066 1.06066 
C 1.341951 0.77937 1.5 0.397805 1.5 0 
C 1.5 -0.397805 1.341951 -0.77937 1.06066 -1.06066 
C 0.77937 -1.341951 0.397805 -1.5 0 -1.5 
C -0.397805 -1.5 -0.77937 -1.341951 -1.06066 -1.06066 
C -1.341951 -0.77937 -1.5 -0.397805 -1.5 0 
C -1.5 0.397805 -1.341951 0.77937 -1.06066 1.06066 
C -0.77937 1.341951 -0.397805 1.5 0 1.5 
z
" id="m7c83f74d28" style="stroke:#00bfbf;"/>
    </defs>
    <g>
     <use style="fill:#00bfbf;stroke:#00bfbf;" x="187.498665" xlink:href="#m7c83f74d28" y="30.334099"/>
     <use style="fill:#00bfbf;stroke:#00bfbf;" x="187.498665" xlink:href="#m7c83f74d28" y="30.334099"/>
    </g>
   </g>
   <g id="line2d_30">
    <path d="M 45.512012 298.944 
L 45.512012 283.143418 
L 95.918017 283.143418 
L 95.918017 282.616732 
L 98.606294 282.616732 
L 98.606294 282.090045 
L 99.41757 282.090045 
L 99.41757 281.036673 
L 100.192776 281.036673 
L 100.192776 279.456615 
L 102.989037 279.456615 
L 102.989037 277.876557 
L 103.623262 277.876557 
L 103.623262 276.296499 
L 104.23523 276.296499 
L 104.23523 274.189754 
L 104.826449 274.189754 
L 104.826449 273.136382 
L 105.398279 273.136382 
L 105.398279 272.08301 
L 105.951954 272.08301 
L 105.951954 269.976266 
L 106.48859 269.976266 
L 106.48859 268.396207 
L 107.009204 268.396207 
L 107.009204 267.342835 
L 107.514726 267.342835 
L 107.514726 266.289463 
L 108.006005 266.289463 
L 108.006005 265.762777 
L 108.483824 265.762777 
L 108.483824 265.236091 
L 109.401893 265.236091 
L 109.401893 264.709405 
L 109.843417 264.709405 
L 109.843417 263.656033 
L 112.655818 263.656033 
L 112.655818 263.129347 
L 113.382559 263.129347 
L 113.382559 262.60266 
L 116.323218 262.60266 
L 116.323218 261.549288 
L 116.621333 261.549288 
L 116.621333 259.96923 
L 116.914437 259.96923 
L 116.914437 255.755741 
L 117.765302 255.755741 
L 117.765302 254.175683 
L 118.039942 254.175683 
L 118.039942 253.648997 
L 119.351785 253.648997 
L 119.351785 252.595625 
L 119.602714 252.595625 
L 119.602714 252.068939 
L 120.093994 252.068939 
L 120.093994 251.542253 
L 120.33454 251.542253 
L 120.33454 248.908822 
L 120.8059 248.908822 
L 120.8059 247.85545 
L 121.036887 247.85545 
L 121.036887 247.328764 
L 121.489881 247.328764 
L 121.489881 245.748706 
L 121.712041 245.748706 
L 121.712041 245.22202 
L 121.931406 245.22202 
L 121.931406 241.008531 
L 122.148045 241.008531 
L 122.148045 240.481845 
L 122.362027 240.481845 
L 122.362027 239.955159 
L 122.573415 239.955159 
L 122.573415 237.321729 
L 123.394238 237.321729 
L 123.394238 236.795043 
L 123.593547 236.795043 
L 123.593547 234.161612 
L 123.985457 234.161612 
L 123.985457 233.634926 
L 124.178158 233.634926 
L 124.178158 233.10824 
L 124.368753 233.10824 
L 124.368753 232.054868 
L 124.557288 232.054868 
L 124.557288 231.528182 
L 124.92835 231.528182 
L 124.92835 230.47481 
L 125.110962 230.47481 
L 125.110962 227.841379 
L 125.470548 227.841379 
L 125.470548 225.734635 
L 125.822869 225.734635 
L 125.822869 225.207949 
L 126.168212 225.207949 
L 126.168212 223.101204 
L 126.50685 223.101204 
L 126.50685 220.467774 
L 127.165014 220.467774 
L 127.165014 219.941088 
L 127.325746 219.941088 
L 127.325746 219.414402 
L 127.48501 219.414402 
L 127.48501 218.36103 
L 127.799239 218.36103 
L 127.799239 217.834344 
L 128.560901 217.834344 
L 128.560901 216.254285 
L 128.709321 216.254285 
L 128.709321 215.200913 
L 128.856489 215.200913 
L 128.856489 214.674227 
L 129.002426 214.674227 
L 129.002426 208.353994 
L 129.147151 208.353994 
L 129.147151 207.300622 
L 129.574256 207.300622 
L 129.574256 206.773936 
L 129.853291 206.773936 
L 129.853291 205.193878 
L 130.263646 205.193878 
L 130.263646 204.667192 
L 130.398313 204.667192 
L 130.398313 204.140506 
L 130.664567 204.140506 
L 130.664567 203.613819 
L 130.926816 203.613819 
L 130.926816 200.980389 
L 131.185181 200.980389 
L 131.185181 200.453703 
L 132.541568 200.453703 
L 132.541568 199.927017 
L 133.352844 199.927017 
L 133.352844 199.400331 
L 133.46572 199.400331 
L 133.46572 198.873645 
L 135.582166 198.873645 
L 135.582166 198.346959 
L 136.361705 198.346959 
L 136.361705 197.820273 
L 136.738785 197.820273 
L 136.831795 196.7669 
L 137.016339 196.7669 
L 137.016339 196.240214 
L 137.289545 196.240214 
L 137.37967 195.186842 
L 137.647286 195.186842 
L 137.647286 194.660156 
L 137.823442 194.660156 
L 137.823442 194.13347 
L 138.084384 194.13347 
L 138.084384 193.606784 
L 138.510793 193.606784 
L 138.510793 192.553412 
L 138.67848 192.553412 
L 138.761723 191.50004 
L 138.84457 191.50004 
L 138.927025 189.919981 
L 139.009092 189.919981 
L 139.009092 189.393295 
L 139.253002 189.393295 
L 139.333553 187.813237 
L 139.413734 187.813237 
L 139.493548 186.233179 
L 139.652088 186.233179 
L 139.730821 183.073062 
L 139.8092 183.073062 
L 139.887228 181.493004 
L 139.964909 181.493004 
L 140.042245 180.439632 
L 140.195896 180.439632 
L 140.272217 179.38626 
L 140.423864 179.38626 
L 140.423864 178.859574 
L 140.64889 178.859574 
L 140.723258 177.279515 
L 140.871049 177.279515 
L 140.871049 176.226143 
L 141.162927 176.226143 
L 141.162927 175.172771 
L 141.378673 175.172771 
L 141.45 173.592713 
L 141.591783 173.592713 
L 141.662245 170.959282 
L 141.732423 170.959282 
L 141.80232 168.852538 
L 142.010346 168.852538 
L 142.010346 168.325852 
L 142.147664 168.325852 
L 142.215919 167.27248 
L 142.283909 167.27248 
L 142.351634 166.219108 
L 142.419098 166.219108 
L 142.419098 165.165736 
L 142.884173 165.165736 
L 142.884173 164.63905 
L 143.144465 164.63905 
L 143.144465 164.112363 
L 143.273169 164.112363 
L 143.337167 163.058991 
L 143.40093 163.058991 
L 143.464461 162.005619 
L 143.653678 162.005619 
L 143.716296 160.425561 
L 143.778691 160.425561 
L 143.778691 159.898875 
L 143.964547 159.898875 
L 143.964547 159.372189 
L 144.209312 159.372189 
L 144.209312 158.845503 
L 144.45069 158.845503 
L 144.45069 158.318817 
L 144.806606 158.318817 
L 144.865226 157.265444 
L 145.327221 157.265444 
L 145.327221 156.738758 
L 145.609873 156.738758 
L 145.609873 155.685386 
L 146.052799 155.685386 
L 146.052799 154.632014 
L 146.216039 154.632014 
L 146.216039 154.105328 
L 146.484754 154.105328 
L 146.484754 153.578642 
L 146.644018 153.578642 
L 146.644018 153.051956 
L 146.906268 153.051956 
L 146.906268 152.52527 
L 147.215849 152.52527 
L 147.266916 151.471897 
L 147.419225 151.471897 
L 147.4697 150.418525 
L 147.620256 150.418525 
L 147.71991 149.365153 
L 147.818997 149.365153 
L 147.818997 148.838467 
L 147.96658 148.838467 
L 147.96658 147.785095 
L 148.209809 147.785095 
L 148.258051 146.205037 
L 148.354135 146.205037 
L 148.354135 145.151665 
L 148.497276 145.151665 
L 148.497276 144.098292 
L 148.686322 144.098292 
L 148.686322 143.571606 
L 148.826773 143.571606 
L 148.87334 141.991548 
L 148.966103 141.991548 
L 149.058374 140.938176 
L 149.104327 140.938176 
L 149.195872 138.831432 
L 149.286939 138.831432 
L 149.377533 137.251373 
L 149.557321 137.251373 
L 149.646525 135.671315 
L 149.690956 135.671315 
L 149.735275 133.564571 
L 149.911431 133.564571 
L 149.998846 132.511199 
L 150.085825 132.511199 
L 150.129152 131.457826 
L 150.215485 131.457826 
L 150.215485 130.93114 
L 150.51433 130.93114 
L 150.51433 130.404454 
L 150.932558 130.404454 
L 150.973835 128.824396 
L 151.461678 128.824396 
L 151.461678 128.29771 
L 151.581536 128.29771 
L 151.581536 127.771024 
L 151.818809 127.771024 
L 151.897188 126.717652 
L 152.091608 126.717652 
L 152.091608 126.190966 
L 152.207228 126.190966 
L 152.207228 125.66428 
L 152.549559 125.66428 
L 152.549559 125.137593 
L 152.774102 125.137593 
L 152.774102 124.610907 
L 152.959038 124.610907 
L 152.959038 124.084221 
L 153.178403 124.084221 
L 153.287059 122.504163 
L 153.323128 122.504163 
L 153.395042 119.344047 
L 153.573542 119.344047 
L 153.679772 116.710616 
L 153.820412 116.710616 
L 153.890309 115.130558 
L 154.132765 115.130558 
L 154.201424 114.077186 
L 154.269814 114.077186 
L 154.337936 111.970441 
L 154.641235 111.970441 
L 154.674612 110.917069 
L 154.77436 110.917069 
L 154.873541 109.863697 
L 154.906477 109.863697 
L 154.972161 108.810325 
L 155.070227 108.810325 
L 155.167744 106.703581 
L 155.200129 106.703581 
L 155.200129 106.176895 
L 155.584129 106.176895 
L 155.678822 105.123522 
L 155.804285 105.123522 
L 155.804285 104.596836 
L 156.052535 104.596836 
L 156.052535 104.07015 
L 156.175347 104.07015 
L 156.175347 103.543464 
L 156.38821 103.543464 
L 156.38821 103.016778 
L 156.568618 103.016778 
L 156.568618 102.490092 
L 156.717545 102.490092 
L 156.747178 101.43672 
L 156.894595 101.43672 
L 156.953214 99.856662 
L 157.185742 99.856662 
L 157.272146 98.803289 
L 157.329512 98.803289 
L 157.415209 96.169859 
L 157.557108 96.169859 
L 157.557108 95.116487 
L 157.669802 95.116487 
L 157.753847 94.063115 
L 158.058592 94.063115 
L 158.058592 93.536429 
L 158.222599 93.536429 
L 158.222599 93.009743 
L 158.652556 93.009743 
L 158.732007 91.429684 
L 158.784773 91.429684 
L 158.784773 90.902998 
L 158.942121 90.902998 
L 158.968208 89.849626 
L 159.175513 89.849626 
L 159.278248 87.742882 
L 159.303838 87.742882 
L 159.303838 87.216196 
L 159.582872 87.216196 
L 159.683242 86.162824 
L 159.783038 86.162824 
L 159.882266 83.529393 
L 159.956318 83.529393 
L 160.030058 82.476021 
L 160.079044 82.476021 
L 160.152267 81.422649 
L 160.249422 81.422649 
L 160.321935 80.369277 
L 160.537682 80.369277 
L 160.537682 79.842591 
L 160.797798 79.842591 
L 160.797798 79.315904 
L 160.938061 79.315904 
L 160.938061 78.789218 
L 161.146363 78.789218 
L 161.215247 77.735846 
L 161.306672 77.735846 
L 161.397621 76.682474 
L 161.53316 76.682474 
L 161.622937 75.102416 
L 161.64531 75.102416 
L 161.64531 74.57573 
L 161.778945 74.57573 
L 161.88953 73.522358 
L 162.303474 73.522358 
L 162.303474 72.995672 
L 162.474869 72.995672 
L 162.474869 72.468985 
L 162.62347 72.468985 
L 162.644595 71.415613 
L 162.833584 71.415613 
L 162.833584 70.888927 
L 163.123555 70.888927 
L 163.225959 69.835555 
L 163.408783 69.835555 
L 163.469301 68.255497 
L 163.569701 68.255497 
L 163.569701 67.728811 
L 164.102088 67.728811 
L 164.102088 67.202125 
L 164.371873 67.202125 
L 164.390984 65.622066 
L 164.580957 65.622066 
L 164.580957 65.09538 
L 164.768882 65.09538 
L 164.86209 63.515322 
L 165.065412 63.515322 
L 165.065412 62.988636 
L 165.356985 62.988636 
L 165.46508 61.935264 
L 165.76776 61.935264 
L 165.76776 61.408578 
L 166.255117 61.408578 
L 166.357802 59.301833 
L 166.459886 59.301833 
L 166.459886 58.775147 
L 166.845764 58.775147 
L 166.862349 57.721775 
L 167.043752 57.721775 
L 167.043752 57.195089 
L 167.223287 57.195089 
L 167.223287 56.668403 
L 167.465168 56.668403 
L 167.545055 55.615031 
L 167.782543 55.615031 
L 167.782543 55.088345 
L 167.923499 55.088345 
L 168.032349 54.034973 
L 168.415645 54.034973 
L 168.415645 53.508287 
L 168.551595 53.508287 
L 168.566635 52.454914 
L 168.671556 52.454914 
L 168.671556 51.928228 
L 168.820356 51.928228 
L 168.894283 50.874856 
L 168.982583 50.874856 
L 168.997257 49.294798 
L 169.201398 49.294798 
L 169.27373 48.241426 
L 169.331381 48.241426 
L 169.331381 47.188054 
L 169.86976 47.188054 
L 169.86976 46.661368 
L 170.28336 46.661368 
L 170.28336 46.134681 
L 170.459584 46.134681 
L 170.540321 45.081309 
L 170.899085 45.081309 
L 170.938496 44.027937 
L 171.289242 44.027937 
L 171.289242 43.501251 
L 171.982619 43.501251 
L 172.031987 42.447879 
L 172.932666 42.447879 
L 173.037687 41.394507 
L 173.118935 41.394507 
L 173.165193 40.341135 
L 173.245851 40.341135 
L 173.245851 39.814448 
L 173.474266 39.814448 
L 173.530906 38.761076 
L 173.699729 38.761076 
L 173.699729 38.23439 
L 174.369919 38.23439 
L 174.369919 37.707704 
L 174.520166 37.707704 
L 174.520166 37.181018 
L 174.795808 37.181018 
L 174.795808 36.654332 
L 175.344551 36.654332 
L 175.364924 35.60096 
L 175.567356 35.60096 
L 175.567356 35.074274 
L 176.267585 35.074274 
L 176.267585 34.547588 
L 176.507601 34.547588 
L 176.507601 34.020902 
L 178.783772 34.020902 
L 178.783772 33.494215 
L 179.376106 33.494215 
L 179.376106 32.967529 
L 181.282137 32.967529 
L 181.282137 32.440843 
L 183.733666 32.440843 
L 183.733666 31.914157 
L 186.409338 31.914157 
L 186.409338 31.387471 
L 187.412143 31.387471 
L 187.498665 30.334099 
L 338.688 30.334099 
L 338.688 30.334099 
" style="fill:none;stroke:#00bfbf;stroke-linecap:square;stroke-width:1.5;"/>
   </g>
   <g id="line2d_31">
    <defs>
     <path d="M -6 0 
L 6 0 
M 0 6 
L 0 -6 
" id="m0f37b00901" style="stroke:#00bfbf;stroke-width:1.5;"/>
    </defs>
    <g>
     <use style="fill-opacity:0;stroke:#00bfbf;stroke-width:1.5;" x="99.41757" xlink:href="#m0f37b00901" y="282.090045"/>
     <use style="fill-opacity:0;stroke:#00bfbf;stroke-width:1.5;" x="142.147664" xlink:href="#m0f37b00901" y="167.799166"/>
     <use style="fill-opacity:0;stroke:#00bfbf;stroke-width:1.5;" x="161.397621" xlink:href="#m0f37b00901" y="76.682474"/>
     <use style="fill-opacity:0;stroke:#00bfbf;stroke-width:1.5;" x="187.498665" xlink:href="#m0f37b00901" y="30.334099"/>
     <use style="fill-opacity:0;stroke:#00bfbf;stroke-width:1.5;" x="187.498665" xlink:href="#m0f37b00901" y="30.334099"/>
     <use style="fill-opacity:0;stroke:#00bfbf;stroke-width:1.5;" x="338.688" xlink:href="#m0f37b00901" y="30.334099"/>
    </g>
   </g>
   <g id="line2d_32">
    <path style="fill:none;stroke:#00bfbf;stroke-linecap:square;stroke-width:1.5;"/>
    <g/>
   </g>
   <g id="line2d_33">
    <path clip-path="url(#p246e419ea8)" d="M 132.422528 200.453703 
" style="fill:none;stroke:#00bfbf;stroke-linecap:square;stroke-width:1.5;"/>
    <defs>
     <path d="M -12 12 
L 12 -12 
M -12 -12 
L 12 12 
" id="m5dba2cdae4" style="stroke:#00bfbf;"/>
    </defs>
    <g clip-path="url(#p246e419ea8)">
     <use style="fill:#00bfbf;stroke:#00bfbf;" x="132.422528" xlink:href="#m5dba2cdae4" y="200.453703"/>
    </g>
   </g>
   <g id="line2d_34">
    <defs>
     <path d="M 0 1.5 
C 0.397805 1.5 0.77937 1.341951 1.06066 1.06066 
C 1.341951 0.77937 1.5 0.397805 1.5 0 
C 1.5 -0.397805 1.341951 -0.77937 1.06066 -1.06066 
C 0.77937 -1.341951 0.397805 -1.5 0 -1.5 
C -0.397805 -1.5 -0.77937 -1.341951 -1.06066 -1.06066 
C -1.341951 -0.77937 -1.5 -0.397805 -1.5 0 
C -1.5 0.397805 -1.341951 0.77937 -1.06066 1.06066 
C -0.77937 1.341951 -0.397805 1.5 0 1.5 
z
" id="m6ca53c3611" style="stroke:#008000;"/>
    </defs>
    <g>
     <use style="fill:#008000;stroke:#008000;" x="189.140025" xlink:href="#m6ca53c3611" y="30.334099"/>
     <use style="fill:#008000;stroke:#008000;" x="189.140025" xlink:href="#m6ca53c3611" y="30.334099"/>
    </g>
   </g>
   <g id="line2d_35">
    <path d="M 38.440992 298.944 
L 38.440992 287.883592 
L 85.66744 287.883592 
L 85.66744 287.356906 
L 98.32726 287.356906 
L 98.32726 286.83022 
L 99.41757 286.83022 
L 99.41757 286.303534 
L 99.938184 286.303534 
L 99.938184 285.776848 
L 100.934985 285.776848 
L 100.934985 285.250162 
L 101.877879 285.250162 
L 101.877879 284.19679 
L 102.772397 284.19679 
L 102.772397 281.563359 
L 103.203018 281.563359 
L 103.203018 279.983301 
L 103.623262 279.983301 
L 103.623262 278.929929 
L 104.033617 278.929929 
L 104.033617 278.403243 
L 104.434538 278.403243 
L 104.434538 276.823185 
L 104.826449 276.823185 
L 104.826449 275.769812 
L 105.209745 275.769812 
L 105.209745 272.609696 
L 106.66386 272.609696 
L 106.66386 271.556324 
L 110.415248 271.556324 
L 110.415248 271.029638 
L 114.193835 271.029638 
L 114.193835 270.502952 
L 114.418861 270.502952 
L 114.418861 269.976266 
L 115.291007 269.976266 
L 115.291007 269.449579 
L 116.121606 269.449579 
L 116.121606 264.182719 
L 117.857331 264.182719 
L 117.857331 263.129347 
L 118.399528 263.129347 
L 118.399528 261.022602 
L 119.267333 261.022602 
L 119.267333 259.96923 
L 119.931767 259.96923 
L 119.931767 258.915858 
L 120.093994 258.915858 
L 120.093994 258.389172 
L 120.41399 258.389172 
L 120.41399 257.862486 
L 120.571812 257.862486 
L 120.571812 257.3358 
L 121.340187 257.3358 
L 121.340187 256.809114 
L 122.219665 256.809114 
L 122.219665 256.282427 
L 122.362027 256.282427 
L 122.362027 255.755741 
L 122.643312 255.755741 
L 122.643312 255.229055 
L 122.782271 255.229055 
L 122.782271 254.702369 
L 123.192626 254.702369 
L 123.192626 254.175683 
L 123.327293 254.175683 
L 123.327293 253.648997 
L 123.460928 253.648997 
L 123.460928 253.122311 
L 123.985457 253.122311 
L 123.985457 252.068939 
L 124.241922 252.068939 
L 124.241922 251.542253 
L 124.368753 251.542253 
L 124.368753 249.962195 
L 124.989434 249.962195 
L 124.989434 249.435508 
L 125.351508 249.435508 
L 125.351508 248.908822 
L 125.706218 248.908822 
L 125.706218 248.382136 
L 125.938745 248.382136 
L 125.938745 247.85545 
L 126.618283 247.85545 
L 126.618283 247.328764 
L 134.307653 247.328764 
L 134.37898 246.275392 
L 134.450015 246.275392 
L 134.450015 245.748706 
L 134.661403 245.748706 
L 134.7313 244.695334 
L 134.800918 244.695334 
L 134.800918 243.115275 
L 135.00812 243.115275 
L 135.00812 242.588589 
L 135.144899 242.588589 
L 135.144899 242.061903 
L 135.280614 242.061903 
L 135.280614 241.008531 
L 135.681535 241.008531 
L 135.681535 239.955159 
L 135.813153 239.955159 
L 135.813153 239.428473 
L 136.266147 239.428473 
L 136.266147 238.901787 
L 136.519813 238.901787 
L 136.582658 237.848415 
L 136.707671 237.848415 
L 136.707671 236.795043 
L 136.831795 236.795043 
L 136.831795 234.688298 
L 136.955041 234.688298 
L 136.955041 233.10824 
L 137.077422 233.10824 
L 137.077422 232.581554 
L 137.319638 232.581554 
L 137.37967 228.894751 
L 137.439497 228.894751 
L 137.439497 228.368065 
L 137.558536 228.368065 
L 137.558536 226.261321 
L 137.852629 226.261321 
L 137.852629 222.047832 
L 137.968891 222.047832 
L 137.968891 221.521146 
L 138.141844 221.521146 
L 138.199116 216.780971 
L 138.313099 216.780971 
L 138.313099 216.254285 
L 138.426341 216.254285 
L 138.426341 214.674227 
L 138.538853 214.674227 
L 138.594838 212.040797 
L 138.650644 212.040797 
L 138.761723 207.300622 
L 138.872098 207.300622 
L 138.872098 204.667192 
L 139.090775 204.667192 
L 139.090775 204.140506 
L 139.253002 204.140506 
L 139.360321 202.560447 
L 139.413734 202.560447 
L 139.466984 199.927017 
L 139.835248 199.927017 
L 139.835248 199.400331 
L 139.990725 199.400331 
L 140.093612 197.820273 
L 140.698504 197.820273 
L 140.698504 196.7669 
L 141.426256 196.7669 
L 141.426256 196.240214 
L 142.124852 196.240214 
L 142.124852 195.713528 
L 142.619936 195.713528 
L 142.619936 195.186842 
L 142.971369 195.186842 
L 142.971369 194.660156 
L 143.230373 194.660156 
L 143.31586 193.606784 
L 143.44331 193.606784 
L 143.44331 193.080098 
L 143.653678 193.080098 
L 143.653678 192.553412 
L 144.026061 192.553412 
L 144.026061 192.026726 
L 144.350522 192.026726 
L 144.350522 191.50004 
L 144.708467 191.50004 
L 144.708467 190.973354 
L 144.904196 190.973354 
L 144.904196 190.446667 
L 145.251067 190.446667 
L 145.251067 189.919981 
L 145.777292 189.919981 
L 145.777292 189.393295 
L 146.071013 189.393295 
L 146.071013 188.866609 
L 146.749392 188.866609 
L 146.749392 188.339923 
L 147.368603 188.339923 
L 147.368603 187.813237 
L 147.636905 187.813237 
L 147.70334 186.759865 
L 147.835457 186.759865 
L 147.835457 185.706493 
L 148.096724 185.706493 
L 148.193699 183.073062 
L 148.225905 183.073062 
L 148.225905 182.546376 
L 148.513109 182.546376 
L 148.576295 180.966318 
L 148.733265 180.966318 
L 148.826773 178.332888 
L 148.888835 178.332888 
L 148.888835 177.806202 
L 149.043029 177.806202 
L 149.043029 177.279515 
L 149.165411 177.279515 
L 149.256637 176.226143 
L 149.31719 176.226143 
L 149.377533 175.172771 
L 149.437669 175.172771 
L 149.467659 174.119399 
L 149.616841 174.119399 
L 149.705742 172.539341 
L 149.735275 172.539341 
L 149.823575 169.379224 
L 149.998846 169.379224 
L 150.05688 168.325852 
L 150.172372 168.325852 
L 150.258492 167.27248 
L 150.287105 167.27248 
L 150.372662 165.692422 
L 150.51433 165.692422 
L 150.570677 164.63905 
L 150.710752 164.63905 
L 150.766468 163.058991 
L 150.849711 163.058991 
L 150.849711 162.532305 
L 150.987572 162.532305 
L 151.015013 161.478933 
L 151.124351 161.478933 
L 151.151579 159.898875 
L 151.340991 159.898875 
L 151.421542 157.79213 
L 151.501723 157.79213 
L 151.581536 155.685386 
L 151.634543 155.685386 
L 151.740076 154.632014 
L 151.844975 154.632014 
L 151.949246 151.998584 
L 152.078714 151.998584 
L 152.155936 150.418525 
L 152.309362 150.418525 
L 152.385571 149.365153 
L 152.637225 149.365153 
L 152.712018 147.785095 
L 152.983548 147.785095 
L 153.056874 146.205037 
L 153.275019 146.205037 
L 153.275019 145.151665 
L 153.418948 145.151665 
L 153.442821 144.098292 
L 153.537988 144.098292 
L 153.537988 143.571606 
L 153.890309 143.571606 
L 153.890309 143.04492 
L 154.507086 143.04492 
L 154.507086 142.518234 
L 155.059358 142.518234 
L 155.059358 141.991548 
L 155.210911 141.991548 
L 155.210911 141.464862 
L 155.594676 141.464862 
L 155.6368 139.884804 
L 155.928852 139.884804 
L 155.990803 138.831432 
L 156.114049 138.831432 
L 156.114049 138.304745 
L 156.277034 138.304745 
L 156.277034 137.778059 
L 156.418408 137.778059 
L 156.45859 136.724687 
L 156.677955 136.724687 
L 156.677955 136.198001 
L 156.796456 136.198001 
L 156.894595 134.617943 
L 156.992185 134.617943 
L 157.050478 133.037885 
L 157.1279 133.037885 
L 157.1279 132.511199 
L 157.28172 132.511199 
L 157.28172 131.984513 
L 157.547684 131.984513 
L 157.641697 128.824396 
L 157.660438 128.824396 
L 157.660438 128.29771 
L 157.809652 128.29771 
L 157.883783 126.717652 
L 157.939176 126.717652 
L 157.939176 126.190966 
L 158.122556 126.190966 
L 158.231665 124.084221 
L 158.304027 124.084221 
L 158.39406 123.030849 
L 158.554957 123.030849 
L 158.554957 122.504163 
L 158.749613 122.504163 
L 158.819862 120.924105 
L 158.924708 120.924105 
L 159.028927 118.817361 
L 159.046236 118.817361 
L 159.046236 118.290674 
L 159.166924 118.290674 
L 159.166924 117.763988 
L 159.388866 117.763988 
L 159.490356 116.710616 
L 159.774744 116.710616 
L 159.807898 115.657244 
L 159.89051 115.657244 
L 159.98913 113.5505 
L 160.152267 113.5505 
L 160.249422 112.497128 
L 160.281688 112.497128 
L 160.281688 111.970441 
L 160.426146 111.970441 
L 160.426146 111.443755 
L 160.553557 111.443755 
L 160.632719 110.390383 
L 160.930298 110.390383 
L 160.94582 109.337011 
L 161.161694 109.337011 
L 161.192316 108.283639 
L 161.344625 108.283639 
L 161.344625 107.756953 
L 161.719678 107.756953 
L 161.823263 106.703581 
L 161.999419 106.703581 
L 161.999419 106.176895 
L 162.231559 106.176895 
L 162.231559 105.650209 
L 162.517456 105.650209 
L 162.517456 105.123522 
L 162.840544 105.123522 
L 162.9377 103.543464 
L 163.061823 103.543464 
L 163.157756 102.490092 
L 163.320996 102.490092 
L 163.388564 101.43672 
L 163.616356 101.43672 
L 163.616356 100.910034 
L 163.735759 100.910034 
L 163.814908 99.329976 
L 163.998206 99.329976 
L 163.998206 98.803289 
L 164.11503 98.803289 
L 164.192481 97.223231 
L 164.486229 97.223231 
L 164.536814 95.643173 
L 164.737701 95.643173 
L 164.837283 94.063115 
L 164.960967 94.063115 
L 165.022481 93.009743 
L 165.083779 93.009743 
L 165.193576 91.429684 
L 165.254276 91.429684 
L 165.338904 90.376312 
L 165.483031 90.376312 
L 165.483031 89.849626 
L 165.649687 89.849626 
L 165.720627 88.796254 
L 165.826498 88.796254 
L 165.838222 87.742882 
L 166.140309 87.742882 
L 166.163331 86.68951 
L 166.255117 86.68951 
L 166.255117 86.162824 
L 166.414589 86.162824 
L 166.505065 84.582765 
L 166.538873 84.582765 
L 166.538873 84.056079 
L 166.818087 84.056079 
L 166.829163 83.002707 
L 166.939538 83.002707 
L 167.027338 81.422649 
L 167.288118 81.422649 
L 167.374185 79.842591 
L 167.491837 79.842591 
L 167.513144 78.789218 
L 167.661564 78.789218 
L 167.661564 78.262532 
L 167.902688 78.262532 
L 167.965045 77.20916 
L 168.161052 77.20916 
L 168.253135 75.629102 
L 168.405532 75.629102 
L 168.48627 74.049044 
L 168.546579 74.049044 
L 168.626667 70.888927 
L 168.795644 70.888927 
L 168.795644 70.362241 
L 168.913944 70.362241 
L 169.021685 69.308869 
L 169.041203 69.308869 
L 169.128764 67.728811 
L 169.27373 67.728811 
L 169.321786 66.675439 
L 169.48419 66.675439 
L 169.48419 66.148752 
L 169.720307 66.148752 
L 169.813865 65.09538 
L 169.86976 65.09538 
L 169.925477 63.515322 
L 169.990255 63.515322 
L 170.063995 62.46195 
L 170.18316 62.46195 
L 170.18316 61.935264 
L 170.428085 61.935264 
L 170.428085 61.408578 
L 170.793552 61.408578 
L 170.793552 60.881892 
L 171.056197 60.881892 
L 171.134225 59.301833 
L 171.519214 59.301833 
L 171.519214 58.775147 
L 171.637275 58.775147 
L 171.637275 57.721775 
L 171.812882 57.721775 
L 171.812882 57.195089 
L 172.224011 57.195089 
L 172.280803 56.141717 
L 172.401882 56.141717 
L 172.401882 55.615031 
L 172.62567 55.615031 
L 172.720707 54.034973 
L 172.760154 54.034973 
L 172.760154 53.508287 
L 172.97942 53.508287 
L 172.97942 52.9816 
L 173.157492 52.9816 
L 173.157492 52.454914 
L 173.379457 52.454914 
L 173.440194 50.874856 
L 173.613646 50.874856 
L 173.621148 49.821484 
L 173.844732 49.821484 
L 173.918627 48.768112 
L 173.962814 48.768112 
L 174.058171 47.71474 
L 174.160284 47.71474 
L 174.160284 47.188054 
L 174.802819 47.188054 
L 174.844824 46.134681 
L 175.320753 46.134681 
L 175.347948 45.081309 
L 175.790662 45.081309 
L 175.790662 44.554623 
L 175.922628 44.554623 
L 175.922628 44.027937 
L 177.463036 44.027937 
L 177.553068 42.974565 
L 177.594925 42.974565 
L 177.606866 41.921193 
L 177.984712 41.921193 
L 178.066286 40.867821 
L 178.850589 40.867821 
L 178.850589 40.341135 
L 178.972426 40.341135 
L 178.972426 39.814448 
L 179.093418 39.814448 
L 179.093418 39.287762 
L 179.208133 39.287762 
L 179.316688 38.23439 
L 179.601132 38.23439 
L 179.622413 36.654332 
L 180.016686 36.654332 
L 180.016686 36.127646 
L 180.182234 36.127646 
L 180.182234 35.60096 
L 181.050988 35.60096 
L 181.050988 35.074274 
L 182.681928 35.074274 
L 182.681928 34.547588 
L 182.969529 34.547588 
L 183.052709 33.494215 
L 184.75332 33.494215 
L 184.75332 32.967529 
L 185.071299 32.967529 
L 185.137306 31.914157 
L 185.720384 31.914157 
L 185.720384 31.387471 
L 186.032405 31.387471 
L 186.032405 30.860785 
L 189.140025 30.860785 
L 189.140025 30.334099 
L 338.688 30.334099 
L 338.688 30.334099 
" style="fill:none;stroke:#008000;stroke-linecap:square;stroke-width:1.5;"/>
   </g>
   <g id="line2d_36">
    <defs>
     <path d="M -0 6 
L 6 -6 
L -6 -6 
z
" id="mbf81315304" style="stroke:#008000;stroke-linejoin:miter;stroke-width:1.5;"/>
    </defs>
    <g>
     <use style="fill-opacity:0;stroke:#008000;stroke-linejoin:miter;stroke-width:1.5;" x="138.650644" xlink:href="#mbf81315304" y="211.514111"/>
     <use style="fill-opacity:0;stroke:#008000;stroke-linejoin:miter;stroke-width:1.5;" x="166.939538" xlink:href="#mbf81315304" y="83.002707"/>
     <use style="fill-opacity:0;stroke:#008000;stroke-linejoin:miter;stroke-width:1.5;" x="189.140025" xlink:href="#mbf81315304" y="30.860785"/>
     <use style="fill-opacity:0;stroke:#008000;stroke-linejoin:miter;stroke-width:1.5;" x="189.140025" xlink:href="#mbf81315304" y="30.334099"/>
     <use style="fill-opacity:0;stroke:#008000;stroke-linejoin:miter;stroke-width:1.5;" x="189.140025" xlink:href="#mbf81315304" y="30.334099"/>
     <use style="fill-opacity:0;stroke:#008000;stroke-linejoin:miter;stroke-width:1.5;" x="338.688" xlink:href="#mbf81315304" y="30.334099"/>
    </g>
   </g>
   <g id="line2d_37">
    <path style="fill:none;stroke:#008000;stroke-linecap:square;stroke-width:1.5;"/>
    <g/>
   </g>
   <g id="line2d_38">
    <path clip-path="url(#p246e419ea8)" d="M 138.026733 221.521146 
" style="fill:none;stroke:#008000;stroke-linecap:square;stroke-width:1.5;"/>
    <defs>
     <path d="M -12 12 
L 12 -12 
M -12 -12 
L 12 12 
" id="mba761292f9" style="stroke:#008000;"/>
    </defs>
    <g clip-path="url(#p246e419ea8)">
     <use style="fill:#008000;stroke:#008000;" x="138.026733" xlink:href="#mba761292f9" y="221.521146"/>
    </g>
   </g>
   <g id="line2d_39">
    <defs>
     <path d="M 0 1.5 
C 0.397805 1.5 0.77937 1.341951 1.06066 1.06066 
C 1.341951 0.77937 1.5 0.397805 1.5 0 
C 1.5 -0.397805 1.341951 -0.77937 1.06066 -1.06066 
C 0.77937 -1.341951 0.397805 -1.5 0 -1.5 
C -0.397805 -1.5 -0.77937 -1.341951 -1.06066 -1.06066 
C -1.341951 -0.77937 -1.5 -0.397805 -1.5 0 
C -1.5 0.397805 -1.341951 0.77937 -1.06066 1.06066 
C -0.77937 1.341951 -0.397805 1.5 0 1.5 
z
" id="m3eb427d680" style="stroke:#0000ff;"/>
    </defs>
    <g>
     <use style="fill:#0000ff;stroke:#0000ff;" x="204.732606" xlink:href="#m3eb427d680" y="162.005619"/>
     <use style="fill:#0000ff;stroke:#0000ff;" x="204.732606" xlink:href="#m3eb427d680" y="162.005619"/>
    </g>
   </g>
   <g id="line2d_40">
    <path d="M 29.53256 298.944 
L 29.53256 289.990337 
L 89.972502 289.990337 
L 89.972502 289.463651 
L 91.535274 289.463651 
L 91.535274 288.936964 
L 97.043522 288.936964 
L 97.043522 288.410278 
L 98.100772 288.410278 
L 98.100772 287.883592 
L 99.41757 287.883592 
L 99.41757 287.356906 
L 100.641881 287.356906 
L 100.641881 286.83022 
L 100.934985 286.83022 
L 100.934985 285.250162 
L 101.506816 285.250162 
L 101.506816 283.670104 
L 101.785851 283.670104 
L 101.785851 283.143418 
L 102.859376 283.143418 
L 102.859376 282.616732 
L 103.372333 282.616732 
L 103.372333 282.090045 
L 103.623262 282.090045 
L 103.623262 281.563359 
L 103.870632 281.563359 
L 103.870632 280.509987 
L 107.811151 280.509987 
L 107.811151 279.983301 
L 116.914437 279.983301 
L 116.914437 279.456615 
L 119.996839 279.456615 
L 119.996839 278.929929 
L 120.665825 278.929929 
L 120.665825 278.403243 
L 123.514096 278.403243 
L 123.514096 277.876557 
L 124.062793 277.876557 
L 124.062793 277.349871 
L 128.229861 277.349871 
L 128.229861 276.823185 
L 128.650105 276.823185 
L 128.650105 276.296499 
L 130.822389 276.296499 
L 130.822389 275.769812 
L 131.185181 275.769812 
L 131.185181 275.243126 
L 131.338382 275.243126 
L 131.338382 274.71644 
L 131.790072 274.71644 
L 131.790072 274.189754 
L 131.938072 274.189754 
L 131.938072 273.663068 
L 132.181982 273.663068 
L 132.181982 273.136382 
L 132.422528 273.136382 
L 132.422528 272.609696 
L 133.711505 272.609696 
L 133.711505 272.08301 
L 135.035562 272.08301 
L 135.035562 271.556324 
L 135.401861 271.556324 
L 135.401861 271.029638 
L 135.956794 271.029638 
L 135.956794 270.502952 
L 136.494612 270.502952 
L 136.570107 269.449579 
L 136.68274 269.449579 
L 136.68274 268.922893 
L 136.831795 268.922893 
L 136.831795 267.869521 
L 137.198951 267.869521 
L 137.198951 267.342835 
L 137.37967 267.342835 
L 137.415591 266.289463 
L 137.558536 266.289463 
L 137.558536 265.236091 
L 137.910857 265.236091 
L 137.910857 264.709405 
L 138.187677 264.709405 
L 138.187677 264.182719 
L 138.324456 264.182719 
L 138.426341 263.129347 
L 138.527635 263.129347 
L 138.561269 262.075974 
L 138.728473 262.075974 
L 138.828032 259.442544 
L 140.408758 259.442544 
L 140.408758 258.915858 
L 140.856326 258.915858 
L 140.856326 258.389172 
L 140.973763 258.389172 
L 140.973763 257.862486 
L 141.177393 257.862486 
L 141.177393 257.3358 
L 141.350061 257.3358 
L 141.407239 255.755741 
L 141.80232 255.755741 
L 141.80232 255.229055 
L 142.051655 255.229055 
L 142.161336 254.175683 
L 142.270332 254.175683 
L 142.270332 253.648997 
L 146.107383 253.648997 
L 146.107383 253.122311 
L 146.791364 253.122311 
L 146.833235 252.068939 
L 147.226074 252.068939 
L 147.226074 251.542253 
L 148.392421 251.542253 
L 148.392421 251.015567 
L 149.141003 251.015567 
L 149.141003 250.488881 
L 150.016276 250.488881 
L 150.016276 249.962195 
L 150.18963 249.962195 
L 150.18963 249.435508 
L 150.799813 249.435508 
L 150.799813 248.908822 
L 151.047887 248.908822 
L 151.047887 248.382136 
L 151.178764 248.382136 
L 151.178764 247.85545 
L 151.324836 247.85545 
L 151.324836 247.328764 
L 152.191856 247.328764 
L 152.191856 246.802078 
L 152.481628 246.802078 
L 152.481628 246.275392 
L 152.900071 246.275392 
L 152.900071 245.748706 
L 153.017805 245.748706 
L 153.017805 245.22202 
L 153.178403 245.22202 
L 153.178403 244.695334 
L 153.351929 244.695334 
L 153.351929 244.168648 
L 153.566437 244.168648 
L 153.59484 243.115275 
L 153.750233 243.115275 
L 153.750233 242.588589 
L 154.029268 242.588589 
L 154.029268 242.061903 
L 154.453136 242.061903 
L 154.56087 241.008531 
L 155.437927 241.008531 
L 155.450689 239.955159 
L 156.634302 239.955159 
L 156.670026 238.375101 
L 156.835778 238.375101 
L 156.941506 237.321729 
L 157.15106 237.321729 
L 157.15106 236.795043 
L 157.277891 236.795043 
L 157.346685 235.74167 
L 158.118907 235.74167 
L 158.118907 235.214984 
L 158.70027 235.214984 
L 158.70027 234.688298 
L 158.9003 234.688298 
L 158.9003 234.161612 
L 159.718236 234.161612 
L 159.718236 233.634926 
L 160.556731 233.634926 
L 160.556731 233.10824 
L 160.793103 233.10824 
L 160.802491 232.054868 
L 162.593851 232.054868 
L 162.68677 231.001496 
L 162.728843 231.001496 
L 162.812686 229.421437 
L 162.9543 229.421437 
L 162.970886 228.368065 
L 163.388564 228.368065 
L 163.388564 227.841379 
L 163.717238 227.841379 
L 163.717238 227.314693 
L 164.032036 227.314693 
L 164.055418 226.261321 
L 164.402441 226.261321 
L 164.493826 225.207949 
L 164.516598 225.207949 
L 164.516598 224.681263 
L 164.667654 224.681263 
L 164.667654 224.154577 
L 164.9363 224.154577 
L 164.973287 223.101204 
L 165.157053 223.101204 
L 165.157053 222.574518 
L 165.468672 222.574518 
L 165.576079 220.99446 
L 165.597481 220.99446 
L 165.597481 220.467774 
L 165.824152 220.467774 
L 165.887376 219.414402 
L 165.950372 219.414402 
L 165.950372 218.887716 
L 166.729224 218.887716 
L 166.835805 217.834344 
L 167.151695 217.834344 
L 167.197288 216.780971 
L 167.532297 216.780971 
L 167.55143 215.727599 
L 167.672117 215.727599 
L 167.741609 214.147541 
L 167.798261 214.147541 
L 167.804544 213.094169 
L 168.177458 213.094169 
L 168.177458 212.567483 
L 168.746115 212.567483 
L 168.746115 212.040797 
L 169.377364 212.040797 
L 169.480386 210.460738 
L 170.14658 210.460738 
L 170.14658 209.934052 
L 170.788258 209.934052 
L 170.841121 208.88068 
L 171.03533 208.88068 
L 171.139414 206.773936 
L 171.196397 206.773936 
L 171.196397 206.24725 
L 171.514136 206.24725 
L 171.514136 205.720564 
L 171.645677 205.720564 
L 171.721118 204.140506 
L 171.771231 204.140506 
L 171.771231 203.613819 
L 171.925672 203.613819 
L 171.925672 203.087133 
L 172.390616 203.087133 
L 172.400273 202.033761 
L 173.24815 202.033761 
L 173.307818 200.980389 
L 173.517329 200.980389 
L 173.517329 200.453703 
L 173.666095 200.453703 
L 173.666095 199.400331 
L 173.875806 199.400331 
L 173.880241 198.346959 
L 174.187897 198.346959 
L 174.187897 197.820273 
L 174.305129 197.820273 
L 174.305129 197.293586 
L 174.6182 197.293586 
L 174.6182 196.7669 
L 174.825234 196.7669 
L 174.825234 196.240214 
L 175.268964 196.240214 
L 175.338435 195.186842 
L 175.419813 195.186842 
L 175.419813 194.660156 
L 175.785362 194.660156 
L 175.785362 194.13347 
L 176.120024 194.13347 
L 176.120024 193.606784 
L 176.657605 193.606784 
L 176.725536 192.553412 
L 177.270615 192.553412 
L 177.270615 192.026726 
L 177.656927 192.026726 
L 177.742414 190.973354 
L 178.384252 190.973354 
L 178.384252 190.446667 
L 178.591926 190.446667 
L 178.591926 189.919981 
L 178.827232 189.919981 
L 178.827232 189.393295 
L 179.009913 189.393295 
L 179.009913 188.866609 
L 179.408431 188.866609 
L 179.408431 188.339923 
L 179.581958 188.339923 
L 179.581958 187.813237 
L 179.810673 187.813237 
L 179.810673 187.286551 
L 180.005247 187.286551 
L 180.033312 186.233179 
L 180.225431 186.233179 
L 180.225431 185.706493 
L 180.506666 185.706493 
L 180.518792 184.653121 
L 180.840054 184.653121 
L 180.840054 184.126434 
L 181.413613 184.126434 
L 181.413613 183.599748 
L 181.539819 183.599748 
L 181.539819 183.073062 
L 181.727431 183.073062 
L 181.727431 182.546376 
L 182.53408 182.546376 
L 182.639047 181.493004 
L 182.857707 181.493004 
L 182.857707 180.966318 
L 183.235184 180.966318 
L 183.235184 180.439632 
L 183.364365 180.439632 
L 183.443979 179.38626 
L 183.978906 179.38626 
L 183.978906 178.859574 
L 184.129832 178.859574 
L 184.129832 178.332888 
L 184.439926 178.332888 
L 184.439926 177.806202 
L 184.610913 177.806202 
L 184.610913 177.279515 
L 184.952638 177.279515 
L 184.959686 176.226143 
L 185.283184 176.226143 
L 185.283184 175.699457 
L 185.968229 175.699457 
L 186.045654 174.646085 
L 186.113944 174.646085 
L 186.162246 173.592713 
L 186.833236 173.592713 
L 186.898516 172.539341 
L 187.005383 172.539341 
L 187.005383 172.012655 
L 187.278979 172.012655 
L 187.278979 171.485969 
L 188.041484 171.485969 
L 188.041484 170.959282 
L 188.957938 170.959282 
L 188.96354 169.90591 
L 189.74313 169.90591 
L 189.777022 168.852538 
L 190.09313 168.852538 
L 190.09313 168.325852 
L 190.229102 168.325852 
L 190.229102 167.799166 
L 190.343334 167.799166 
L 190.343334 167.27248 
L 191.468947 167.27248 
L 191.468947 166.745794 
L 191.716249 166.745794 
L 191.716249 166.219108 
L 192.105714 166.219108 
L 192.105714 165.692422 
L 193.277061 165.692422 
L 193.277061 165.165736 
L 194.477039 165.165736 
L 194.477039 164.63905 
L 195.228263 164.63905 
L 195.228263 164.112363 
L 196.173421 164.112363 
L 196.173421 163.585677 
L 201.865902 163.585677 
L 201.95566 162.532305 
L 204.732606 162.532305 
L 204.732606 162.005619 
L 338.688 162.005619 
L 338.688 162.005619 
" style="fill:none;stroke:#0000ff;stroke-linecap:square;stroke-width:1.5;"/>
   </g>
   <g id="line2d_41">
    <defs>
     <path d="M 0 -6 
L -1.347084 -1.854102 
L -5.706339 -1.854102 
L -2.179628 0.708204 
L -3.526712 4.854102 
L -0 2.291796 
L 3.526712 4.854102 
L 2.179628 0.708204 
L 5.706339 -1.854102 
L 1.347084 -1.854102 
z
" id="m6f76ba677e" style="stroke:#0000ff;stroke-linejoin:bevel;stroke-width:1.5;"/>
    </defs>
    <g>
     <use style="fill-opacity:0;stroke:#0000ff;stroke-linejoin:bevel;stroke-width:1.5;" x="124.062793" xlink:href="#m6f76ba677e" y="277.349871"/>
     <use style="fill-opacity:0;stroke:#0000ff;stroke-linejoin:bevel;stroke-width:1.5;" x="171.03533" xlink:href="#m6f76ba677e" y="208.88068"/>
     <use style="fill-opacity:0;stroke:#0000ff;stroke-linejoin:bevel;stroke-width:1.5;" x="204.732606" xlink:href="#m6f76ba677e" y="162.532305"/>
     <use style="fill-opacity:0;stroke:#0000ff;stroke-linejoin:bevel;stroke-width:1.5;" x="204.732606" xlink:href="#m6f76ba677e" y="162.005619"/>
     <use style="fill-opacity:0;stroke:#0000ff;stroke-linejoin:bevel;stroke-width:1.5;" x="204.732606" xlink:href="#m6f76ba677e" y="162.005619"/>
     <use style="fill-opacity:0;stroke:#0000ff;stroke-linejoin:bevel;stroke-width:1.5;" x="338.688" xlink:href="#m6f76ba677e" y="162.005619"/>
    </g>
   </g>
   <g id="line2d_42">
    <path style="fill:none;stroke:#0000ff;stroke-linecap:square;stroke-width:1.5;"/>
    <g/>
   </g>
   <g id="line2d_43">
    <path clip-path="url(#p246e419ea8)" d="M 147.205618 252.068939 
" style="fill:none;stroke:#0000ff;stroke-linecap:square;stroke-width:1.5;"/>
    <defs>
     <path d="M -12 12 
L 12 -12 
M -12 -12 
L 12 12 
" id="m8999769164" style="stroke:#0000ff;"/>
    </defs>
    <g clip-path="url(#p246e419ea8)">
     <use style="fill:#0000ff;stroke:#0000ff;" x="147.205618" xlink:href="#m8999769164" y="252.068939"/>
    </g>
   </g>
   <g id="line2d_44">
    <defs>
     <path d="M 0 1.5 
C 0.397805 1.5 0.77937 1.341951 1.06066 1.06066 
C 1.341951 0.77937 1.5 0.397805 1.5 0 
C 1.5 -0.397805 1.341951 -0.77937 1.06066 -1.06066 
C 0.77937 -1.341951 0.397805 -1.5 0 -1.5 
C -0.397805 -1.5 -0.77937 -1.341951 -1.06066 -1.06066 
C -1.341951 -0.77937 -1.5 -0.397805 -1.5 0 
C -1.5 0.397805 -1.341951 0.77937 -1.06066 1.06066 
C -0.77937 1.341951 -0.397805 1.5 0 1.5 
z
" id="m5242e71335" style="stroke:#000000;"/>
    </defs>
    <g>
     <use style="stroke:#000000;" x="213.429766" xlink:href="#m5242e71335" y="267.342835"/>
     <use style="stroke:#000000;" x="213.429766" xlink:href="#m5242e71335" y="267.342835"/>
    </g>
   </g>
   <g id="line2d_45">
    <path d="M 17.444571 298.944 
L 17.444571 293.677139 
L 102.464508 293.677139 
L 102.464508 293.150453 
L 106.698704 293.150453 
L 106.698704 292.097081 
L 106.802819 292.097081 
L 106.802819 291.570395 
L 107.712901 291.570395 
L 107.712901 291.043709 
L 120.238719 291.043709 
L 120.238719 290.517023 
L 122.276749 290.517023 
L 122.276749 289.990337 
L 128.768338 289.990337 
L 128.768338 289.463651 
L 132.541568 289.463651 
L 132.541568 288.936964 
L 135.097149 288.936964 
L 135.097149 288.410278 
L 137.361683 288.410278 
L 137.361683 287.883592 
L 139.333553 287.883592 
L 139.333553 287.356906 
L 141.162927 287.356906 
L 141.162927 286.83022 
L 141.321401 286.83022 
L 141.321401 286.303534 
L 142.051655 286.303534 
L 142.051655 285.776848 
L 144.282077 285.776848 
L 144.282077 285.250162 
L 145.005114 285.250162 
L 145.005114 284.723476 
L 148.161434 284.723476 
L 148.161434 284.19679 
L 149.177602 284.19679 
L 149.177602 283.670104 
L 149.690956 283.670104 
L 149.690956 283.143418 
L 151.477707 283.143418 
L 151.477707 282.616732 
L 151.517715 282.616732 
L 151.517715 282.090045 
L 152.796398 282.090045 
L 152.796398 281.563359 
L 152.803824 281.563359 
L 152.803824 281.036673 
L 156.753099 281.036673 
L 156.753099 280.509987 
L 157.56276 280.509987 
L 157.56276 279.983301 
L 159.46166 279.983301 
L 159.46166 279.456615 
L 162.862799 279.456615 
L 162.862799 278.929929 
L 164.24906 278.929929 
L 164.24906 278.403243 
L 165.032303 278.403243 
L 165.032303 277.876557 
L 166.892162 277.876557 
L 166.892162 277.349871 
L 166.971417 277.349871 
L 166.971417 276.823185 
L 166.974711 276.823185 
L 166.974711 276.296499 
L 167.255733 276.296499 
L 167.255733 275.769812 
L 167.452352 275.769812 
L 167.452352 275.243126 
L 169.05875 275.243126 
L 169.05875 274.71644 
L 172.563617 274.71644 
L 172.563617 274.189754 
L 175.28738 274.189754 
L 175.28738 273.663068 
L 175.711665 273.663068 
L 175.711665 273.136382 
L 179.6808 273.136382 
L 179.6808 272.609696 
L 181.199276 272.609696 
L 181.199276 272.08301 
L 192.570379 272.08301 
L 192.570379 271.556324 
L 193.309836 271.556324 
L 193.309836 270.502952 
L 196.000919 270.502952 
L 196.000919 269.976266 
L 198.333352 269.976266 
L 198.333352 269.449579 
L 199.120508 269.449579 
L 199.120508 268.922893 
L 203.891716 268.922893 
L 203.891716 268.396207 
L 209.305142 268.396207 
L 209.305142 267.869521 
L 213.429766 267.869521 
L 213.429766 267.342835 
L 338.688 267.342835 
" style="fill:none;stroke:#000000;stroke-linecap:square;stroke-width:1.5;"/>
   </g>
   <g id="line2d_46">
    <defs>
     <path d="M 0 6 
C 1.591219 6 3.117479 5.367802 4.242641 4.242641 
C 5.367802 3.117479 6 1.591219 6 0 
C 6 -1.591219 5.367802 -3.117479 4.242641 -4.242641 
C 3.117479 -5.367802 1.591219 -6 0 -6 
C -1.591219 -6 -3.117479 -5.367802 -4.242641 -4.242641 
C -5.367802 -3.117479 -6 -1.591219 -6 0 
C -6 1.591219 -5.367802 3.117479 -4.242641 4.242641 
C -3.117479 5.367802 -1.591219 6 0 6 
z
" id="mea578abcb2" style="stroke:#000000;stroke-width:1.5;"/>
    </defs>
    <g>
     <use style="fill-opacity:0;stroke:#000000;stroke-width:1.5;" x="137.361683" xlink:href="#mea578abcb2" y="288.410278"/>
     <use style="fill-opacity:0;stroke:#000000;stroke-width:1.5;" x="213.429766" xlink:href="#mea578abcb2" y="267.869521"/>
     <use style="fill-opacity:0;stroke:#000000;stroke-width:1.5;" x="213.429766" xlink:href="#mea578abcb2" y="267.342835"/>
     <use style="fill-opacity:0;stroke:#000000;stroke-width:1.5;" x="213.429766" xlink:href="#mea578abcb2" y="267.342835"/>
     <use style="fill-opacity:0;stroke:#000000;stroke-width:1.5;" x="338.688" xlink:href="#mea578abcb2" y="267.342835"/>
    </g>
   </g>
   <g id="line2d_47">
    <path style="fill:none;stroke:#000000;stroke-linecap:square;stroke-width:1.5;"/>
    <g/>
   </g>
   <g id="line2d_48">
    <path clip-path="url(#p246e419ea8)" d="M 149.998846 283.143418 
" style="fill:none;stroke:#000000;stroke-linecap:square;stroke-width:1.5;"/>
    <defs>
     <path d="M -12 12 
L 12 -12 
M -12 -12 
L 12 12 
" id="m68336dee3e" style="stroke:#000000;"/>
    </defs>
    <g clip-path="url(#p246e419ea8)">
     <use style="stroke:#000000;" x="149.998846" xlink:href="#m68336dee3e" y="283.143418"/>
    </g>
   </g>
   <g id="line2d_49">
    <defs>
     <path d="M 0 1.5 
C 0.397805 1.5 0.77937 1.341951 1.06066 1.06066 
C 1.341951 0.77937 1.5 0.397805 1.5 0 
C 1.5 -0.397805 1.341951 -0.77937 1.06066 -1.06066 
C 0.77937 -1.341951 0.397805 -1.5 0 -1.5 
C -0.397805 -1.5 -0.77937 -1.341951 -1.06066 -1.06066 
C -1.341951 -0.77937 -1.5 -0.397805 -1.5 0 
C -1.5 0.397805 -1.341951 0.77937 -1.06066 1.06066 
C -0.77937 1.341951 -0.397805 1.5 0 1.5 
z
" id="m4af691d250" style="stroke:#ff0000;"/>
    </defs>
    <g>
     <use style="fill:#ff0000;stroke:#ff0000;" x="182.303776" xlink:href="#m4af691d250" y="288.410278"/>
     <use style="fill:#ff0000;stroke:#ff0000;" x="182.303776" xlink:href="#m4af691d250" y="288.410278"/>
    </g>
   </g>
   <g id="line2d_50">
    <path d="M 5.356583 298.944 
L 5.356583 293.677139 
L 114.485807 293.677139 
L 114.485807 293.150453 
L 140.966446 293.150453 
L 140.966446 292.623767 
L 141.584721 292.623767 
L 141.584721 292.097081 
L 152.137948 292.097081 
L 152.137948 291.570395 
L 155.55245 291.570395 
L 155.55245 291.043709 
L 158.168101 291.043709 
L 158.168101 290.517023 
L 169.900426 290.517023 
L 169.900426 289.990337 
L 172.316811 289.990337 
L 172.316811 289.463651 
L 175.737594 289.463651 
L 175.737594 288.936964 
L 182.303776 288.936964 
L 182.303776 288.410278 
L 338.688 288.410278 
" style="fill:none;stroke:#ff0000;stroke-linecap:square;stroke-width:1.5;"/>
   </g>
   <g id="line2d_51">
    <defs>
     <path d="M -6 6 
L 6 6 
L 6 -6 
L -6 -6 
z
" id="mdecd5f9e87" style="stroke:#ff0000;stroke-linejoin:miter;stroke-width:1.5;"/>
    </defs>
    <g>
     <use style="fill-opacity:0;stroke:#ff0000;stroke-linejoin:miter;stroke-width:1.5;" x="141.584721" xlink:href="#mdecd5f9e87" y="292.623767"/>
     <use style="fill-opacity:0;stroke:#ff0000;stroke-linejoin:miter;stroke-width:1.5;" x="182.303776" xlink:href="#mdecd5f9e87" y="288.936964"/>
     <use style="fill-opacity:0;stroke:#ff0000;stroke-linejoin:miter;stroke-width:1.5;" x="182.303776" xlink:href="#mdecd5f9e87" y="288.410278"/>
     <use style="fill-opacity:0;stroke:#ff0000;stroke-linejoin:miter;stroke-width:1.5;" x="182.303776" xlink:href="#mdecd5f9e87" y="288.410278"/>
     <use style="fill-opacity:0;stroke:#ff0000;stroke-linejoin:miter;stroke-width:1.5;" x="338.688" xlink:href="#mdecd5f9e87" y="288.410278"/>
    </g>
   </g>
   <g id="line2d_52">
    <path style="fill:none;stroke:#ff0000;stroke-linecap:square;stroke-width:1.5;"/>
    <g/>
   </g>
   <g id="line2d_53">
    <path clip-path="url(#p246e419ea8)" d="M 149.998846 292.097081 
" style="fill:none;stroke:#ff0000;stroke-linecap:square;stroke-width:1.5;"/>
    <defs>
     <path d="M -12 12 
L 12 -12 
M -12 -12 
L 12 12 
" id="md5cfb3d8f3" style="stroke:#ff0000;"/>
    </defs>
    <g clip-path="url(#p246e419ea8)">
     <use style="fill:#ff0000;stroke:#ff0000;" x="149.998846" xlink:href="#md5cfb3d8f3" y="292.097081"/>
    </g>
   </g>
   <g id="line2d_54">
    <defs>
     <path d="M 0 1.5 
C 0.397805 1.5 0.77937 1.341951 1.06066 1.06066 
C 1.341951 0.77937 1.5 0.397805 1.5 0 
C 1.5 -0.397805 1.341951 -0.77937 1.06066 -1.06066 
C 0.77937 -1.341951 0.397805 -1.5 0 -1.5 
C -0.397805 -1.5 -0.77937 -1.341951 -1.06066 -1.06066 
C -1.341951 -0.77937 -1.5 -0.397805 -1.5 0 
C -1.5 0.397805 -1.341951 0.77937 -1.06066 1.06066 
C -0.77937 1.341951 -0.397805 1.5 0 1.5 
z
" id="m15dae0002e" style="stroke:#bf00bf;"/>
    </defs>
    <g>
     <use style="fill:#bf00bf;stroke:#bf00bf;" x="206.572172" xlink:href="#m15dae0002e" y="288.410278"/>
     <use style="fill:#bf00bf;stroke:#bf00bf;" x="206.572172" xlink:href="#m15dae0002e" y="288.410278"/>
    </g>
   </g>
   <g id="line2d_55">
    <path d="M -1 293.677139 
L 142.120287 293.677139 
L 142.120287 293.150453 
L 166.905396 293.150453 
L 166.905396 292.097081 
L 185.451847 292.097081 
L 185.451847 291.570395 
L 187.59789 291.570395 
L 187.59789 291.043709 
L 197.95017 291.043709 
L 197.95017 290.517023 
L 199.031243 290.517023 
L 199.031243 289.990337 
L 201.011105 289.990337 
L 201.011105 289.463651 
L 201.92261 289.463651 
L 201.92261 288.936964 
L 206.572172 288.936964 
L 206.572172 288.410278 
L 338.688 288.410278 
" style="fill:none;stroke:#bf00bf;stroke-linecap:square;stroke-width:1.5;"/>
   </g>
   <g id="line2d_56">
    <defs>
     <path d="M -0 8.485281 
L 8.485281 0 
L 0 -8.485281 
L -8.485281 -0 
z
" id="m54f91d200c" style="stroke:#bf00bf;stroke-linejoin:miter;stroke-width:1.5;"/>
    </defs>
    <g>
     <use style="fill-opacity:0;stroke:#bf00bf;stroke-linejoin:miter;stroke-width:1.5;" x="142.120287" xlink:href="#m54f91d200c" y="293.677139"/>
     <use style="fill-opacity:0;stroke:#bf00bf;stroke-linejoin:miter;stroke-width:1.5;" x="187.59789" xlink:href="#m54f91d200c" y="291.043709"/>
     <use style="fill-opacity:0;stroke:#bf00bf;stroke-linejoin:miter;stroke-width:1.5;" x="206.572172" xlink:href="#m54f91d200c" y="288.410278"/>
     <use style="fill-opacity:0;stroke:#bf00bf;stroke-linejoin:miter;stroke-width:1.5;" x="206.572172" xlink:href="#m54f91d200c" y="288.410278"/>
     <use style="fill-opacity:0;stroke:#bf00bf;stroke-linejoin:miter;stroke-width:1.5;" x="338.688" xlink:href="#m54f91d200c" y="288.410278"/>
    </g>
   </g>
   <g id="line2d_57">
    <path style="fill:none;stroke:#bf00bf;stroke-linecap:square;stroke-width:1.5;"/>
    <g/>
   </g>
   <g id="line2d_58">
    <path clip-path="url(#p246e419ea8)" d="M 149.998846 293.150453 
" style="fill:none;stroke:#bf00bf;stroke-linecap:square;stroke-width:1.5;"/>
    <defs>
     <path d="M -12 12 
L 12 -12 
M -12 -12 
L 12 12 
" id="m0d95eccd4b" style="stroke:#bf00bf;"/>
    </defs>
    <g clip-path="url(#p246e419ea8)">
     <use style="fill:#bf00bf;stroke:#bf00bf;" x="149.998846" xlink:href="#m0d95eccd4b" y="293.150453"/>
    </g>
   </g>
   <g id="line2d_59">
    <path d="M 338.688 288.410278 
L 369.60768 293.571802 
" style="fill:none;stroke:#bf00bf;stroke-linecap:square;stroke-width:1.5;"/>
    <g>
     <use style="fill-opacity:0;stroke:#bf00bf;stroke-linejoin:miter;stroke-width:1.5;" x="338.688" xlink:href="#m54f91d200c" y="288.410278"/>
     <use style="fill-opacity:0;stroke:#bf00bf;stroke-linejoin:miter;stroke-width:1.5;" x="369.60768" xlink:href="#m54f91d200c" y="293.571802"/>
    </g>
   </g>
   <g id="line2d_60">
    <path d="M 338.688 288.410278 
L 369.60768 241.998701 
" style="fill:none;stroke:#ff0000;stroke-linecap:square;stroke-width:1.5;"/>
    <g>
     <use style="fill-opacity:0;stroke:#ff0000;stroke-linejoin:miter;stroke-width:1.5;" x="338.688" xlink:href="#mdecd5f9e87" y="288.410278"/>
     <use style="fill-opacity:0;stroke:#ff0000;stroke-linejoin:miter;stroke-width:1.5;" x="369.60768" xlink:href="#mdecd5f9e87" y="241.998701"/>
    </g>
   </g>
   <g id="line2d_61">
    <path d="M 338.688 267.342835 
L 369.60768 190.4256 
" style="fill:none;stroke:#000000;stroke-linecap:square;stroke-width:1.5;"/>
    <g>
     <use style="fill-opacity:0;stroke:#000000;stroke-width:1.5;" x="338.688" xlink:href="#mea578abcb2" y="267.342835"/>
     <use style="fill-opacity:0;stroke:#000000;stroke-width:1.5;" x="369.60768" xlink:href="#mea578abcb2" y="190.4256"/>
    </g>
   </g>
   <g id="line2d_62">
    <path d="M 338.688 162.005619 
L 369.60768 138.852499 
" style="fill:none;stroke:#0000ff;stroke-linecap:square;stroke-width:1.5;"/>
    <g>
     <use style="fill-opacity:0;stroke:#0000ff;stroke-linejoin:bevel;stroke-width:1.5;" x="338.688" xlink:href="#m6f76ba677e" y="162.005619"/>
     <use style="fill-opacity:0;stroke:#0000ff;stroke-linejoin:bevel;stroke-width:1.5;" x="369.60768" xlink:href="#m6f76ba677e" y="138.852499"/>
    </g>
   </g>
   <g id="line2d_63">
    <path d="M 338.688 30.334099 
L 369.60768 87.279398 
" style="fill:none;stroke:#008000;stroke-linecap:square;stroke-width:1.5;"/>
    <g>
     <use style="fill-opacity:0;stroke:#008000;stroke-linejoin:miter;stroke-width:1.5;" x="338.688" xlink:href="#mbf81315304" y="30.334099"/>
     <use style="fill-opacity:0;stroke:#008000;stroke-linejoin:miter;stroke-width:1.5;" x="369.60768" xlink:href="#mbf81315304" y="87.279398"/>
    </g>
   </g>
   <g id="line2d_64">
    <path d="M 338.688 30.334099 
L 369.60768 35.706297 
" style="fill:none;stroke:#00bfbf;stroke-linecap:square;stroke-width:1.5;"/>
    <g>
     <use style="fill-opacity:0;stroke:#00bfbf;stroke-width:1.5;" x="338.688" xlink:href="#m0f37b00901" y="30.334099"/>
     <use style="fill-opacity:0;stroke:#00bfbf;stroke-width:1.5;" x="369.60768" xlink:href="#m0f37b00901" y="35.706297"/>
    </g>
   </g>
   <g id="line2d_65">
    <path d="M 338.688 298.944 
L 338.688 30.334099 
" style="fill:none;stroke:#000000;stroke-linecap:square;stroke-width:1.5;"/>
   </g>
   <g id="patch_3">
    <path d="M 57.6 298.944 
L 57.6 27.648 
" style="fill:none;stroke:#000000;stroke-linecap:square;stroke-linejoin:miter;stroke-width:0.8;"/>
   </g>
   <g id="patch_4">
    <path d="M 338.688 298.944 
L 338.688 27.648 
" style="fill:none;stroke:#000000;stroke-linecap:square;stroke-linejoin:miter;stroke-width:0.8;"/>
   </g>
   <g id="patch_5">
    <path d="M 57.6 298.944 
L 338.688 298.944 
" style="fill:none;stroke:#000000;stroke-linecap:square;stroke-linejoin:miter;stroke-width:0.8;"/>
   </g>
   <g id="patch_6">
    <path d="M 57.6 27.648 
L 338.688 27.648 
" style="fill:none;stroke:#000000;stroke-linecap:square;stroke-linejoin:miter;stroke-width:0.8;"/>
   </g>
   <g id="text_13">
    <!-- 40-D -->
    <g transform="translate(375.22944 298.262739)scale(0.17 -0.17)">
     <defs>
      <path d="M 19.671875 64.796875 
L 19.671875 8.109375 
L 31.59375 8.109375 
Q 46.6875 8.109375 53.6875 14.9375 
Q 60.6875 21.78125 60.6875 36.53125 
Q 60.6875 51.171875 53.6875 57.984375 
Q 46.6875 64.796875 31.59375 64.796875 
z
M 9.8125 72.90625 
L 30.078125 72.90625 
Q 51.265625 72.90625 61.171875 64.09375 
Q 71.09375 55.28125 71.09375 36.53125 
Q 71.09375 17.671875 61.125 8.828125 
Q 51.171875 0 30.078125 0 
L 9.8125 0 
z
" id="DejaVuSans-68"/>
     </defs>
     <use xlink:href="#DejaVuSans-52"/>
     <use x="63.623047" xlink:href="#DejaVuSans-48"/>
     <use x="127.246094" xlink:href="#DejaVuSans-45"/>
     <use x="163.330078" xlink:href="#DejaVuSans-68"/>
    </g>
   </g>
   <g id="text_14">
    <!-- 20-D -->
    <g transform="translate(375.22944 246.689638)scale(0.17 -0.17)">
     <use xlink:href="#DejaVuSans-50"/>
     <use x="63.623047" xlink:href="#DejaVuSans-48"/>
     <use x="127.246094" xlink:href="#DejaVuSans-45"/>
     <use x="163.330078" xlink:href="#DejaVuSans-68"/>
    </g>
   </g>
   <g id="text_15">
    <!-- 10-D -->
    <g transform="translate(375.22944 195.116537)scale(0.17 -0.17)">
     <use xlink:href="#DejaVuSans-49"/>
     <use x="63.623047" xlink:href="#DejaVuSans-48"/>
     <use x="127.246094" xlink:href="#DejaVuSans-45"/>
     <use x="163.330078" xlink:href="#DejaVuSans-68"/>
    </g>
   </g>
   <g id="text_16">
    <!-- 5-D -->
    <g transform="translate(375.22944 143.543437)scale(0.17 -0.17)">
     <defs>
      <path d="M 10.796875 72.90625 
L 49.515625 72.90625 
L 49.515625 64.59375 
L 19.828125 64.59375 
L 19.828125 46.734375 
Q 21.96875 47.46875 24.109375 47.828125 
Q 26.265625 48.1875 28.421875 48.1875 
Q 40.625 48.1875 47.75 41.5 
Q 54.890625 34.8125 54.890625 23.390625 
Q 54.890625 11.625 47.5625 5.09375 
Q 40.234375 -1.421875 26.90625 -1.421875 
Q 22.3125 -1.421875 17.546875 -0.640625 
Q 12.796875 0.140625 7.71875 1.703125 
L 7.71875 11.625 
Q 12.109375 9.234375 16.796875 8.0625 
Q 21.484375 6.890625 26.703125 6.890625 
Q 35.15625 6.890625 40.078125 11.328125 
Q 45.015625 15.765625 45.015625 23.390625 
Q 45.015625 31 40.078125 35.4375 
Q 35.15625 39.890625 26.703125 39.890625 
Q 22.75 39.890625 18.8125 39.015625 
Q 14.890625 38.140625 10.796875 36.28125 
z
" id="DejaVuSans-53"/>
     </defs>
     <use xlink:href="#DejaVuSans-53"/>
     <use x="63.623047" xlink:href="#DejaVuSans-45"/>
     <use x="99.707031" xlink:href="#DejaVuSans-68"/>
    </g>
   </g>
   <g id="text_17">
    <!-- 3-D -->
    <g transform="translate(375.22944 91.970336)scale(0.17 -0.17)">
     <defs>
      <path d="M 40.578125 39.3125 
Q 47.65625 37.796875 51.625 33 
Q 55.609375 28.21875 55.609375 21.1875 
Q 55.609375 10.40625 48.1875 4.484375 
Q 40.765625 -1.421875 27.09375 -1.421875 
Q 22.515625 -1.421875 17.65625 -0.515625 
Q 12.796875 0.390625 7.625 2.203125 
L 7.625 11.71875 
Q 11.71875 9.328125 16.59375 8.109375 
Q 21.484375 6.890625 26.8125 6.890625 
Q 36.078125 6.890625 40.9375 10.546875 
Q 45.796875 14.203125 45.796875 21.1875 
Q 45.796875 27.640625 41.28125 31.265625 
Q 36.765625 34.90625 28.71875 34.90625 
L 20.21875 34.90625 
L 20.21875 43.015625 
L 29.109375 43.015625 
Q 36.375 43.015625 40.234375 45.921875 
Q 44.09375 48.828125 44.09375 54.296875 
Q 44.09375 59.90625 40.109375 62.90625 
Q 36.140625 65.921875 28.71875 65.921875 
Q 24.65625 65.921875 20.015625 65.03125 
Q 15.375 64.15625 9.8125 62.3125 
L 9.8125 71.09375 
Q 15.4375 72.65625 20.34375 73.4375 
Q 25.25 74.21875 29.59375 74.21875 
Q 40.828125 74.21875 47.359375 69.109375 
Q 53.90625 64.015625 53.90625 55.328125 
Q 53.90625 49.265625 50.4375 45.09375 
Q 46.96875 40.921875 40.578125 39.3125 
z
" id="DejaVuSans-51"/>
     </defs>
     <use xlink:href="#DejaVuSans-51"/>
     <use x="63.623047" xlink:href="#DejaVuSans-45"/>
     <use x="99.707031" xlink:href="#DejaVuSans-68"/>
    </g>
   </g>
   <g id="text_18">
    <!-- 2-D -->
    <g transform="translate(375.22944 40.397235)scale(0.17 -0.17)">
     <use xlink:href="#DejaVuSans-50"/>
     <use x="63.623047" xlink:href="#DejaVuSans-45"/>
     <use x="99.707031" xlink:href="#DejaVuSans-68"/>
    </g>
   </g>
   <g id="text_19">
    <!-- bbob f22 -->
    <g transform="translate(60.41088 38.111366)scale(0.102 -0.102)">
     <defs>
      <path d="M 48.6875 27.296875 
Q 48.6875 37.203125 44.609375 42.84375 
Q 40.53125 48.484375 33.40625 48.484375 
Q 26.265625 48.484375 22.1875 42.84375 
Q 18.109375 37.203125 18.109375 27.296875 
Q 18.109375 17.390625 22.1875 11.75 
Q 26.265625 6.109375 33.40625 6.109375 
Q 40.53125 6.109375 44.609375 11.75 
Q 48.6875 17.390625 48.6875 27.296875 
z
M 18.109375 46.390625 
Q 20.953125 51.265625 25.265625 53.625 
Q 29.59375 56 35.59375 56 
Q 45.5625 56 51.78125 48.09375 
Q 58.015625 40.1875 58.015625 27.296875 
Q 58.015625 14.40625 51.78125 6.484375 
Q 45.5625 -1.421875 35.59375 -1.421875 
Q 29.59375 -1.421875 25.265625 0.953125 
Q 20.953125 3.328125 18.109375 8.203125 
L 18.109375 0 
L 9.078125 0 
L 9.078125 75.984375 
L 18.109375 75.984375 
z
" id="DejaVuSans-98"/>
     </defs>
     <use xlink:href="#DejaVuSans-98"/>
     <use x="63.476562" xlink:href="#DejaVuSans-98"/>
     <use x="126.953125" xlink:href="#DejaVuSans-111"/>
     <use x="188.134766" xlink:href="#DejaVuSans-98"/>
     <use x="251.611328" xlink:href="#DejaVuSans-32"/>
     <use x="283.398438" xlink:href="#DejaVuSans-102"/>
     <use x="318.603516" xlink:href="#DejaVuSans-50"/>
     <use x="382.226562" xlink:href="#DejaVuSans-50"/>
    </g>
    <!-- 51 targets: 100..1e-08 -->
    <g transform="translate(60.41088 49.533135)scale(0.102 -0.102)">
     <defs>
      <path d="M 11.71875 12.40625 
L 22.015625 12.40625 
L 22.015625 0 
L 11.71875 0 
z
M 11.71875 51.703125 
L 22.015625 51.703125 
L 22.015625 39.3125 
L 11.71875 39.3125 
z
" id="DejaVuSans-58"/>
     </defs>
     <use xlink:href="#DejaVuSans-53"/>
     <use x="63.623047" xlink:href="#DejaVuSans-49"/>
     <use x="127.246094" xlink:href="#DejaVuSans-32"/>
     <use x="159.033203" xlink:href="#DejaVuSans-116"/>
     <use x="198.242188" xlink:href="#DejaVuSans-97"/>
     <use x="259.521484" xlink:href="#DejaVuSans-114"/>
     <use x="298.884766" xlink:href="#DejaVuSans-103"/>
     <use x="362.361328" xlink:href="#DejaVuSans-101"/>
     <use x="423.884766" xlink:href="#DejaVuSans-116"/>
     <use x="463.09375" xlink:href="#DejaVuSans-115"/>
     <use x="515.193359" xlink:href="#DejaVuSans-58"/>
     <use x="548.884766" xlink:href="#DejaVuSans-32"/>
     <use x="580.671875" xlink:href="#DejaVuSans-49"/>
     <use x="644.294922" xlink:href="#DejaVuSans-48"/>
     <use x="707.917969" xlink:href="#DejaVuSans-48"/>
     <use x="771.541016" xlink:href="#DejaVuSans-46"/>
     <use x="803.328125" xlink:href="#DejaVuSans-46"/>
     <use x="835.115234" xlink:href="#DejaVuSans-49"/>
     <use x="898.738281" xlink:href="#DejaVuSans-101"/>
     <use x="960.261719" xlink:href="#DejaVuSans-45"/>
     <use x="996.345703" xlink:href="#DejaVuSans-48"/>
     <use x="1059.96875" xlink:href="#DejaVuSans-56"/>
    </g>
    <!-- 15 instances -->
    <g transform="translate(60.41088 60.954904)scale(0.102 -0.102)">
     <use xlink:href="#DejaVuSans-49"/>
     <use x="63.623047" xlink:href="#DejaVuSans-53"/>
     <use x="127.246094" xlink:href="#DejaVuSans-32"/>
     <use x="159.033203" xlink:href="#DejaVuSans-105"/>
     <use x="186.816406" xlink:href="#DejaVuSans-110"/>
     <use x="250.195312" xlink:href="#DejaVuSans-115"/>
     <use x="302.294922" xlink:href="#DejaVuSans-116"/>
     <use x="341.503906" xlink:href="#DejaVuSans-97"/>
     <use x="402.783203" xlink:href="#DejaVuSans-110"/>
     <use x="466.162109" xlink:href="#DejaVuSans-99"/>
     <use x="521.142578" xlink:href="#DejaVuSans-101"/>
     <use x="582.666016" xlink:href="#DejaVuSans-115"/>
    </g>
   </g>
   <g id="text_20">
    <!-- v2.4 -->
    <g style="fill:#808080;" transform="translate(187.233062 294.151352)scale(0.1 -0.1)">
     <use xlink:href="#DejaVuSans-118"/>
     <use x="59.179688" xlink:href="#DejaVuSans-50"/>
     <use x="122.802734" xlink:href="#DejaVuSans-46"/>
     <use x="154.589844" xlink:href="#DejaVuSans-52"/>
    </g>
   </g>
   <g id="text_21">
    <!-- 22 Gallagher 21 peaks -->
    <g transform="translate(85.019 21.648)scale(0.2 -0.2)">
     <defs>
      <path d="M 59.515625 10.40625 
L 59.515625 29.984375 
L 43.40625 29.984375 
L 43.40625 38.09375 
L 69.28125 38.09375 
L 69.28125 6.78125 
Q 63.578125 2.734375 56.6875 0.65625 
Q 49.8125 -1.421875 42 -1.421875 
Q 24.90625 -1.421875 15.25 8.5625 
Q 5.609375 18.5625 5.609375 36.375 
Q 5.609375 54.25 15.25 64.234375 
Q 24.90625 74.21875 42 74.21875 
Q 49.125 74.21875 55.546875 72.453125 
Q 61.96875 70.703125 67.390625 67.28125 
L 67.390625 56.78125 
Q 61.921875 61.421875 55.765625 63.765625 
Q 49.609375 66.109375 42.828125 66.109375 
Q 29.4375 66.109375 22.71875 58.640625 
Q 16.015625 51.171875 16.015625 36.375 
Q 16.015625 21.625 22.71875 14.15625 
Q 29.4375 6.6875 42.828125 6.6875 
Q 48.046875 6.6875 52.140625 7.59375 
Q 56.25 8.5 59.515625 10.40625 
z
" id="DejaVuSans-71"/>
      <path d="M 54.890625 33.015625 
L 54.890625 0 
L 45.90625 0 
L 45.90625 32.71875 
Q 45.90625 40.484375 42.875 44.328125 
Q 39.84375 48.1875 33.796875 48.1875 
Q 26.515625 48.1875 22.3125 43.546875 
Q 18.109375 38.921875 18.109375 30.90625 
L 18.109375 0 
L 9.078125 0 
L 9.078125 75.984375 
L 18.109375 75.984375 
L 18.109375 46.1875 
Q 21.34375 51.125 25.703125 53.5625 
Q 30.078125 56 35.796875 56 
Q 45.21875 56 50.046875 50.171875 
Q 54.890625 44.34375 54.890625 33.015625 
z
" id="DejaVuSans-104"/>
      <path d="M 9.078125 75.984375 
L 18.109375 75.984375 
L 18.109375 31.109375 
L 44.921875 54.6875 
L 56.390625 54.6875 
L 27.390625 29.109375 
L 57.625 0 
L 45.90625 0 
L 18.109375 26.703125 
L 18.109375 0 
L 9.078125 0 
z
" id="DejaVuSans-107"/>
     </defs>
     <use xlink:href="#DejaVuSans-50"/>
     <use x="63.623047" xlink:href="#DejaVuSans-50"/>
     <use x="127.246094" xlink:href="#DejaVuSans-32"/>
     <use x="159.033203" xlink:href="#DejaVuSans-71"/>
     <use x="236.523438" xlink:href="#DejaVuSans-97"/>
     <use x="297.802734" xlink:href="#DejaVuSans-108"/>
     <use x="325.585938" xlink:href="#DejaVuSans-108"/>
     <use x="353.369141" xlink:href="#DejaVuSans-97"/>
     <use x="414.648438" xlink:href="#DejaVuSans-103"/>
     <use x="478.125" xlink:href="#DejaVuSans-104"/>
     <use x="541.503906" xlink:href="#DejaVuSans-101"/>
     <use x="603.027344" xlink:href="#DejaVuSans-114"/>
     <use x="644.140625" xlink:href="#DejaVuSans-32"/>
     <use x="675.927734" xlink:href="#DejaVuSans-50"/>
     <use x="739.550781" xlink:href="#DejaVuSans-49"/>
     <use x="803.173828" xlink:href="#DejaVuSans-32"/>
     <use x="834.960938" xlink:href="#DejaVuSans-112"/>
     <use x="898.4375" xlink:href="#DejaVuSans-101"/>
     <use x="959.960938" xlink:href="#DejaVuSans-97"/>
     <use x="1021.240234" xlink:href="#DejaVuSans-107"/>
     <use x="1079.150391" xlink:href="#DejaVuSans-115"/>
    </g>
   </g>
  </g>
 </g>
 <defs>
  <clipPath id="p246e419ea8">
   <rect height="271.296" width="281.088" x="57.6" y="27.648"/>
  </clipPath>
 </defs>
</svg>
