<?xml version="1.0" encoding="utf-8" standalone="no"?>
<!DOCTYPE svg PUBLIC "-//W3C//DTD SVG 1.1//EN"
  "http://www.w3.org/Graphics/SVG/1.1/DTD/svg11.dtd">
<!-- Created with matplotlib (https://matplotlib.org/) -->
<svg height="345.6pt" version="1.1" viewBox="0 0 460.8 345.6" width="460.8pt" xmlns="http://www.w3.org/2000/svg" xmlns:xlink="http://www.w3.org/1999/xlink">
 <metadata>
  <rdf:RDF xmlns:cc="http://creativecommons.org/ns#" xmlns:dc="http://purl.org/dc/elements/1.1/" xmlns:rdf="http://www.w3.org/1999/02/22-rdf-syntax-ns#">
   <cc:Work>
    <dc:type rdf:resource="http://purl.org/dc/dcmitype/StillImage"/>
    <dc:date>2021-08-04T15:03:06.841640</dc:date>
    <dc:format>image/svg+xml</dc:format>
    <dc:creator>
     <cc:Agent>
      <dc:title>Matplotlib v3.3.1, https://matplotlib.org/</dc:title>
     </cc:Agent>
    </dc:creator>
   </cc:Work>
  </rdf:RDF>
 </metadata>
 <defs>
  <style type="text/css">*{stroke-linecap:butt;stroke-linejoin:round;}</style>
 </defs>
 <g id="figure_1">
  <g id="patch_1">
   <path d="M 0 345.6 
L 460.8 345.6 
L 460.8 0 
L 0 0 
z
" style="fill:#ffffff;"/>
  </g>
  <g id="axes_1">
   <g id="patch_2">
    <path d="M 57.6 298.944 
L 338.688 298.944 
L 338.688 3.456 
L 57.6 3.456 
z
" style="fill:#ffffff;"/>
   </g>
   <g id="matplotlib.axis_1">
    <g id="xtick_1">
     <g id="line2d_1">
      <path clip-path="url(#pd76a464f18)" d="M 57.6 298.944 
L 57.6 3.456 
" style="fill:none;stroke:#b0b0b0;stroke-linecap:square;stroke-width:0.8;"/>
     </g>
     <g id="line2d_2">
      <defs>
       <path d="M 0 0 
L 0 3.5 
" id="m506ccb5223" style="stroke:#000000;stroke-width:0.8;"/>
      </defs>
      <g>
       <use style="stroke:#000000;stroke-width:0.8;" x="57.6" xlink:href="#m506ccb5223" y="298.944"/>
      </g>
     </g>
     <g id="text_1">
      <!-- 0 -->
      <g transform="translate(51.2375 321.140875)scale(0.2 -0.2)">
       <defs>
        <path d="M 31.78125 66.40625 
Q 24.171875 66.40625 20.328125 58.90625 
Q 16.5 51.421875 16.5 36.375 
Q 16.5 21.390625 20.328125 13.890625 
Q 24.171875 6.390625 31.78125 6.390625 
Q 39.453125 6.390625 43.28125 13.890625 
Q 47.125 21.390625 47.125 36.375 
Q 47.125 51.421875 43.28125 58.90625 
Q 39.453125 66.40625 31.78125 66.40625 
z
M 31.78125 74.21875 
Q 44.046875 74.21875 50.515625 64.515625 
Q 56.984375 54.828125 56.984375 36.375 
Q 56.984375 17.96875 50.515625 8.265625 
Q 44.046875 -1.421875 31.78125 -1.421875 
Q 19.53125 -1.421875 13.0625 8.265625 
Q 6.59375 17.96875 6.59375 36.375 
Q 6.59375 54.828125 13.0625 64.515625 
Q 19.53125 74.21875 31.78125 74.21875 
z
" id="DejaVuSans-48"/>
       </defs>
       <use xlink:href="#DejaVuSans-48"/>
      </g>
     </g>
    </g>
    <g id="xtick_2">
     <g id="line2d_3">
      <path clip-path="url(#pd76a464f18)" d="M 137.910857 298.944 
L 137.910857 3.456 
" style="fill:none;stroke:#b0b0b0;stroke-linecap:square;stroke-width:0.8;"/>
     </g>
     <g id="line2d_4">
      <g>
       <use style="stroke:#000000;stroke-width:0.8;" x="137.910857" xlink:href="#m506ccb5223" y="298.944"/>
      </g>
     </g>
     <g id="text_2">
      <!-- 2 -->
      <g transform="translate(131.548357 321.140875)scale(0.2 -0.2)">
       <defs>
        <path d="M 19.1875 8.296875 
L 53.609375 8.296875 
L 53.609375 0 
L 7.328125 0 
L 7.328125 8.296875 
Q 12.9375 14.109375 22.625 23.890625 
Q 32.328125 33.6875 34.8125 36.53125 
Q 39.546875 41.84375 41.421875 45.53125 
Q 43.3125 49.21875 43.3125 52.78125 
Q 43.3125 58.59375 39.234375 62.25 
Q 35.15625 65.921875 28.609375 65.921875 
Q 23.96875 65.921875 18.8125 64.3125 
Q 13.671875 62.703125 7.8125 59.421875 
L 7.8125 69.390625 
Q 13.765625 71.78125 18.9375 73 
Q 24.125 74.21875 28.421875 74.21875 
Q 39.75 74.21875 46.484375 68.546875 
Q 53.21875 62.890625 53.21875 53.421875 
Q 53.21875 48.921875 51.53125 44.890625 
Q 49.859375 40.875 45.40625 35.40625 
Q 44.1875 33.984375 37.640625 27.21875 
Q 31.109375 20.453125 19.1875 8.296875 
z
" id="DejaVuSans-50"/>
       </defs>
       <use xlink:href="#DejaVuSans-50"/>
      </g>
     </g>
    </g>
    <g id="xtick_3">
     <g id="line2d_5">
      <path clip-path="url(#pd76a464f18)" d="M 218.221714 298.944 
L 218.221714 3.456 
" style="fill:none;stroke:#b0b0b0;stroke-linecap:square;stroke-width:0.8;"/>
     </g>
     <g id="line2d_6">
      <g>
       <use style="stroke:#000000;stroke-width:0.8;" x="218.221714" xlink:href="#m506ccb5223" y="298.944"/>
      </g>
     </g>
     <g id="text_3">
      <!-- 4 -->
      <g transform="translate(211.859214 321.140875)scale(0.2 -0.2)">
       <defs>
        <path d="M 37.796875 64.3125 
L 12.890625 25.390625 
L 37.796875 25.390625 
z
M 35.203125 72.90625 
L 47.609375 72.90625 
L 47.609375 25.390625 
L 58.015625 25.390625 
L 58.015625 17.1875 
L 47.609375 17.1875 
L 47.609375 0 
L 37.796875 0 
L 37.796875 17.1875 
L 4.890625 17.1875 
L 4.890625 26.703125 
z
" id="DejaVuSans-52"/>
       </defs>
       <use xlink:href="#DejaVuSans-52"/>
      </g>
     </g>
    </g>
    <g id="xtick_4">
     <g id="line2d_7">
      <path clip-path="url(#pd76a464f18)" d="M 298.532571 298.944 
L 298.532571 3.456 
" style="fill:none;stroke:#b0b0b0;stroke-linecap:square;stroke-width:0.8;"/>
     </g>
     <g id="line2d_8">
      <g>
       <use style="stroke:#000000;stroke-width:0.8;" x="298.532571" xlink:href="#m506ccb5223" y="298.944"/>
      </g>
     </g>
     <g id="text_4">
      <!-- 6 -->
      <g transform="translate(292.170071 321.140875)scale(0.2 -0.2)">
       <defs>
        <path d="M 33.015625 40.375 
Q 26.375 40.375 22.484375 35.828125 
Q 18.609375 31.296875 18.609375 23.390625 
Q 18.609375 15.53125 22.484375 10.953125 
Q 26.375 6.390625 33.015625 6.390625 
Q 39.65625 6.390625 43.53125 10.953125 
Q 47.40625 15.53125 47.40625 23.390625 
Q 47.40625 31.296875 43.53125 35.828125 
Q 39.65625 40.375 33.015625 40.375 
z
M 52.59375 71.296875 
L 52.59375 62.3125 
Q 48.875 64.0625 45.09375 64.984375 
Q 41.3125 65.921875 37.59375 65.921875 
Q 27.828125 65.921875 22.671875 59.328125 
Q 17.53125 52.734375 16.796875 39.40625 
Q 19.671875 43.65625 24.015625 45.921875 
Q 28.375 48.1875 33.59375 48.1875 
Q 44.578125 48.1875 50.953125 41.515625 
Q 57.328125 34.859375 57.328125 23.390625 
Q 57.328125 12.15625 50.6875 5.359375 
Q 44.046875 -1.421875 33.015625 -1.421875 
Q 20.359375 -1.421875 13.671875 8.265625 
Q 6.984375 17.96875 6.984375 36.375 
Q 6.984375 53.65625 15.1875 63.9375 
Q 23.390625 74.21875 37.203125 74.21875 
Q 40.921875 74.21875 44.703125 73.484375 
Q 48.484375 72.75 52.59375 71.296875 
z
" id="DejaVuSans-54"/>
       </defs>
       <use xlink:href="#DejaVuSans-54"/>
      </g>
     </g>
    </g>
    <g id="xtick_5">
     <g id="line2d_9">
      <path clip-path="url(#pd76a464f18)" d="M 97.755429 298.944 
L 97.755429 3.456 
" style="fill:none;stroke:#b0b0b0;stroke-linecap:square;stroke-width:0.8;"/>
     </g>
     <g id="line2d_10">
      <defs>
       <path d="M 0 0 
L 0 2 
" id="m30dd3741b0" style="stroke:#000000;stroke-width:0.6;"/>
      </defs>
      <g>
       <use style="stroke:#000000;stroke-width:0.6;" x="97.755429" xlink:href="#m30dd3741b0" y="298.944"/>
      </g>
     </g>
    </g>
    <g id="xtick_6">
     <g id="line2d_11">
      <path clip-path="url(#pd76a464f18)" d="M 178.066286 298.944 
L 178.066286 3.456 
" style="fill:none;stroke:#b0b0b0;stroke-linecap:square;stroke-width:0.8;"/>
     </g>
     <g id="line2d_12">
      <g>
       <use style="stroke:#000000;stroke-width:0.6;" x="178.066286" xlink:href="#m30dd3741b0" y="298.944"/>
      </g>
     </g>
    </g>
    <g id="xtick_7">
     <g id="line2d_13">
      <path clip-path="url(#pd76a464f18)" d="M 258.377143 298.944 
L 258.377143 3.456 
" style="fill:none;stroke:#b0b0b0;stroke-linecap:square;stroke-width:0.8;"/>
     </g>
     <g id="line2d_14">
      <g>
       <use style="stroke:#000000;stroke-width:0.6;" x="258.377143" xlink:href="#m30dd3741b0" y="298.944"/>
      </g>
     </g>
    </g>
    <g id="xtick_8">
     <g id="line2d_15">
      <path clip-path="url(#pd76a464f18)" d="M 338.688 298.944 
L 338.688 3.456 
" style="fill:none;stroke:#b0b0b0;stroke-linecap:square;stroke-width:0.8;"/>
     </g>
     <g id="line2d_16">
      <g>
       <use style="stroke:#000000;stroke-width:0.6;" x="338.688" xlink:href="#m30dd3741b0" y="298.944"/>
      </g>
     </g>
    </g>
    <g id="text_5">
     <!-- log10(# f-evals / dimension) -->
     <g transform="translate(77.764078 342.217594)scale(0.17 -0.17)">
      <defs>
       <path d="M 9.421875 75.984375 
L 18.40625 75.984375 
L 18.40625 0 
L 9.421875 0 
z
" id="DejaVuSans-108"/>
       <path d="M 30.609375 48.390625 
Q 23.390625 48.390625 19.1875 42.75 
Q 14.984375 37.109375 14.984375 27.296875 
Q 14.984375 17.484375 19.15625 11.84375 
Q 23.34375 6.203125 30.609375 6.203125 
Q 37.796875 6.203125 41.984375 11.859375 
Q 46.1875 17.53125 46.1875 27.296875 
Q 46.1875 37.015625 41.984375 42.703125 
Q 37.796875 48.390625 30.609375 48.390625 
z
M 30.609375 56 
Q 42.328125 56 49.015625 48.375 
Q 55.71875 40.765625 55.71875 27.296875 
Q 55.71875 13.875 49.015625 6.21875 
Q 42.328125 -1.421875 30.609375 -1.421875 
Q 18.84375 -1.421875 12.171875 6.21875 
Q 5.515625 13.875 5.515625 27.296875 
Q 5.515625 40.765625 12.171875 48.375 
Q 18.84375 56 30.609375 56 
z
" id="DejaVuSans-111"/>
       <path d="M 45.40625 27.984375 
Q 45.40625 37.75 41.375 43.109375 
Q 37.359375 48.484375 30.078125 48.484375 
Q 22.859375 48.484375 18.828125 43.109375 
Q 14.796875 37.75 14.796875 27.984375 
Q 14.796875 18.265625 18.828125 12.890625 
Q 22.859375 7.515625 30.078125 7.515625 
Q 37.359375 7.515625 41.375 12.890625 
Q 45.40625 18.265625 45.40625 27.984375 
z
M 54.390625 6.78125 
Q 54.390625 -7.171875 48.1875 -13.984375 
Q 42 -20.796875 29.203125 -20.796875 
Q 24.46875 -20.796875 20.265625 -20.09375 
Q 16.0625 -19.390625 12.109375 -17.921875 
L 12.109375 -9.1875 
Q 16.0625 -11.328125 19.921875 -12.34375 
Q 23.78125 -13.375 27.78125 -13.375 
Q 36.625 -13.375 41.015625 -8.765625 
Q 45.40625 -4.15625 45.40625 5.171875 
L 45.40625 9.625 
Q 42.625 4.78125 38.28125 2.390625 
Q 33.9375 0 27.875 0 
Q 17.828125 0 11.671875 7.65625 
Q 5.515625 15.328125 5.515625 27.984375 
Q 5.515625 40.671875 11.671875 48.328125 
Q 17.828125 56 27.875 56 
Q 33.9375 56 38.28125 53.609375 
Q 42.625 51.21875 45.40625 46.390625 
L 45.40625 54.6875 
L 54.390625 54.6875 
z
" id="DejaVuSans-103"/>
       <path d="M 12.40625 8.296875 
L 28.515625 8.296875 
L 28.515625 63.921875 
L 10.984375 60.40625 
L 10.984375 69.390625 
L 28.421875 72.90625 
L 38.28125 72.90625 
L 38.28125 8.296875 
L 54.390625 8.296875 
L 54.390625 0 
L 12.40625 0 
z
" id="DejaVuSans-49"/>
       <path d="M 31 75.875 
Q 24.46875 64.65625 21.28125 53.65625 
Q 18.109375 42.671875 18.109375 31.390625 
Q 18.109375 20.125 21.3125 9.0625 
Q 24.515625 -2 31 -13.1875 
L 23.1875 -13.1875 
Q 15.875 -1.703125 12.234375 9.375 
Q 8.59375 20.453125 8.59375 31.390625 
Q 8.59375 42.28125 12.203125 53.3125 
Q 15.828125 64.359375 23.1875 75.875 
z
" id="DejaVuSans-40"/>
       <path d="M 51.125 44 
L 36.921875 44 
L 32.8125 27.6875 
L 47.125 27.6875 
z
M 43.796875 71.78125 
L 38.71875 51.515625 
L 52.984375 51.515625 
L 58.109375 71.78125 
L 65.921875 71.78125 
L 60.890625 51.515625 
L 76.125 51.515625 
L 76.125 44 
L 58.984375 44 
L 54.984375 27.6875 
L 70.515625 27.6875 
L 70.515625 20.21875 
L 53.078125 20.21875 
L 48 0 
L 40.1875 0 
L 45.21875 20.21875 
L 30.90625 20.21875 
L 25.875 0 
L 18.015625 0 
L 23.09375 20.21875 
L 7.71875 20.21875 
L 7.71875 27.6875 
L 24.90625 27.6875 
L 29 44 
L 13.28125 44 
L 13.28125 51.515625 
L 30.90625 51.515625 
L 35.890625 71.78125 
z
" id="DejaVuSans-35"/>
       <path id="DejaVuSans-32"/>
       <path d="M 37.109375 75.984375 
L 37.109375 68.5 
L 28.515625 68.5 
Q 23.6875 68.5 21.796875 66.546875 
Q 19.921875 64.59375 19.921875 59.515625 
L 19.921875 54.6875 
L 34.71875 54.6875 
L 34.71875 47.703125 
L 19.921875 47.703125 
L 19.921875 0 
L 10.890625 0 
L 10.890625 47.703125 
L 2.296875 47.703125 
L 2.296875 54.6875 
L 10.890625 54.6875 
L 10.890625 58.5 
Q 10.890625 67.625 15.140625 71.796875 
Q 19.390625 75.984375 28.609375 75.984375 
z
" id="DejaVuSans-102"/>
       <path d="M 4.890625 31.390625 
L 31.203125 31.390625 
L 31.203125 23.390625 
L 4.890625 23.390625 
z
" id="DejaVuSans-45"/>
       <path d="M 56.203125 29.59375 
L 56.203125 25.203125 
L 14.890625 25.203125 
Q 15.484375 15.921875 20.484375 11.0625 
Q 25.484375 6.203125 34.421875 6.203125 
Q 39.59375 6.203125 44.453125 7.46875 
Q 49.3125 8.734375 54.109375 11.28125 
L 54.109375 2.78125 
Q 49.265625 0.734375 44.1875 -0.34375 
Q 39.109375 -1.421875 33.890625 -1.421875 
Q 20.796875 -1.421875 13.15625 6.1875 
Q 5.515625 13.8125 5.515625 26.8125 
Q 5.515625 40.234375 12.765625 48.109375 
Q 20.015625 56 32.328125 56 
Q 43.359375 56 49.78125 48.890625 
Q 56.203125 41.796875 56.203125 29.59375 
z
M 47.21875 32.234375 
Q 47.125 39.59375 43.09375 43.984375 
Q 39.0625 48.390625 32.421875 48.390625 
Q 24.90625 48.390625 20.390625 44.140625 
Q 15.875 39.890625 15.1875 32.171875 
z
" id="DejaVuSans-101"/>
       <path d="M 2.984375 54.6875 
L 12.5 54.6875 
L 29.59375 8.796875 
L 46.6875 54.6875 
L 56.203125 54.6875 
L 35.6875 0 
L 23.484375 0 
z
" id="DejaVuSans-118"/>
       <path d="M 34.28125 27.484375 
Q 23.390625 27.484375 19.1875 25 
Q 14.984375 22.515625 14.984375 16.5 
Q 14.984375 11.71875 18.140625 8.90625 
Q 21.296875 6.109375 26.703125 6.109375 
Q 34.1875 6.109375 38.703125 11.40625 
Q 43.21875 16.703125 43.21875 25.484375 
L 43.21875 27.484375 
z
M 52.203125 31.203125 
L 52.203125 0 
L 43.21875 0 
L 43.21875 8.296875 
Q 40.140625 3.328125 35.546875 0.953125 
Q 30.953125 -1.421875 24.3125 -1.421875 
Q 15.921875 -1.421875 10.953125 3.296875 
Q 6 8.015625 6 15.921875 
Q 6 25.140625 12.171875 29.828125 
Q 18.359375 34.515625 30.609375 34.515625 
L 43.21875 34.515625 
L 43.21875 35.40625 
Q 43.21875 41.609375 39.140625 45 
Q 35.0625 48.390625 27.6875 48.390625 
Q 23 48.390625 18.546875 47.265625 
Q 14.109375 46.140625 10.015625 43.890625 
L 10.015625 52.203125 
Q 14.9375 54.109375 19.578125 55.046875 
Q 24.21875 56 28.609375 56 
Q 40.484375 56 46.34375 49.84375 
Q 52.203125 43.703125 52.203125 31.203125 
z
" id="DejaVuSans-97"/>
       <path d="M 44.28125 53.078125 
L 44.28125 44.578125 
Q 40.484375 46.53125 36.375 47.5 
Q 32.28125 48.484375 27.875 48.484375 
Q 21.1875 48.484375 17.84375 46.4375 
Q 14.5 44.390625 14.5 40.28125 
Q 14.5 37.15625 16.890625 35.375 
Q 19.28125 33.59375 26.515625 31.984375 
L 29.59375 31.296875 
Q 39.15625 29.25 43.1875 25.515625 
Q 47.21875 21.78125 47.21875 15.09375 
Q 47.21875 7.46875 41.1875 3.015625 
Q 35.15625 -1.421875 24.609375 -1.421875 
Q 20.21875 -1.421875 15.453125 -0.5625 
Q 10.6875 0.296875 5.421875 2 
L 5.421875 11.28125 
Q 10.40625 8.6875 15.234375 7.390625 
Q 20.0625 6.109375 24.8125 6.109375 
Q 31.15625 6.109375 34.5625 8.28125 
Q 37.984375 10.453125 37.984375 14.40625 
Q 37.984375 18.0625 35.515625 20.015625 
Q 33.0625 21.96875 24.703125 23.78125 
L 21.578125 24.515625 
Q 13.234375 26.265625 9.515625 29.90625 
Q 5.8125 33.546875 5.8125 39.890625 
Q 5.8125 47.609375 11.28125 51.796875 
Q 16.75 56 26.8125 56 
Q 31.78125 56 36.171875 55.265625 
Q 40.578125 54.546875 44.28125 53.078125 
z
" id="DejaVuSans-115"/>
       <path d="M 25.390625 72.90625 
L 33.6875 72.90625 
L 8.296875 -9.28125 
L 0 -9.28125 
z
" id="DejaVuSans-47"/>
       <path d="M 45.40625 46.390625 
L 45.40625 75.984375 
L 54.390625 75.984375 
L 54.390625 0 
L 45.40625 0 
L 45.40625 8.203125 
Q 42.578125 3.328125 38.25 0.953125 
Q 33.9375 -1.421875 27.875 -1.421875 
Q 17.96875 -1.421875 11.734375 6.484375 
Q 5.515625 14.40625 5.515625 27.296875 
Q 5.515625 40.1875 11.734375 48.09375 
Q 17.96875 56 27.875 56 
Q 33.9375 56 38.25 53.625 
Q 42.578125 51.265625 45.40625 46.390625 
z
M 14.796875 27.296875 
Q 14.796875 17.390625 18.875 11.75 
Q 22.953125 6.109375 30.078125 6.109375 
Q 37.203125 6.109375 41.296875 11.75 
Q 45.40625 17.390625 45.40625 27.296875 
Q 45.40625 37.203125 41.296875 42.84375 
Q 37.203125 48.484375 30.078125 48.484375 
Q 22.953125 48.484375 18.875 42.84375 
Q 14.796875 37.203125 14.796875 27.296875 
z
" id="DejaVuSans-100"/>
       <path d="M 9.421875 54.6875 
L 18.40625 54.6875 
L 18.40625 0 
L 9.421875 0 
z
M 9.421875 75.984375 
L 18.40625 75.984375 
L 18.40625 64.59375 
L 9.421875 64.59375 
z
" id="DejaVuSans-105"/>
       <path d="M 52 44.1875 
Q 55.375 50.25 60.0625 53.125 
Q 64.75 56 71.09375 56 
Q 79.640625 56 84.28125 50.015625 
Q 88.921875 44.046875 88.921875 33.015625 
L 88.921875 0 
L 79.890625 0 
L 79.890625 32.71875 
Q 79.890625 40.578125 77.09375 44.375 
Q 74.3125 48.1875 68.609375 48.1875 
Q 61.625 48.1875 57.5625 43.546875 
Q 53.515625 38.921875 53.515625 30.90625 
L 53.515625 0 
L 44.484375 0 
L 44.484375 32.71875 
Q 44.484375 40.625 41.703125 44.40625 
Q 38.921875 48.1875 33.109375 48.1875 
Q 26.21875 48.1875 22.15625 43.53125 
Q 18.109375 38.875 18.109375 30.90625 
L 18.109375 0 
L 9.078125 0 
L 9.078125 54.6875 
L 18.109375 54.6875 
L 18.109375 46.1875 
Q 21.1875 51.21875 25.484375 53.609375 
Q 29.78125 56 35.6875 56 
Q 41.65625 56 45.828125 52.96875 
Q 50 49.953125 52 44.1875 
z
" id="DejaVuSans-109"/>
       <path d="M 54.890625 33.015625 
L 54.890625 0 
L 45.90625 0 
L 45.90625 32.71875 
Q 45.90625 40.484375 42.875 44.328125 
Q 39.84375 48.1875 33.796875 48.1875 
Q 26.515625 48.1875 22.3125 43.546875 
Q 18.109375 38.921875 18.109375 30.90625 
L 18.109375 0 
L 9.078125 0 
L 9.078125 54.6875 
L 18.109375 54.6875 
L 18.109375 46.1875 
Q 21.34375 51.125 25.703125 53.5625 
Q 30.078125 56 35.796875 56 
Q 45.21875 56 50.046875 50.171875 
Q 54.890625 44.34375 54.890625 33.015625 
z
" id="DejaVuSans-110"/>
       <path d="M 8.015625 75.875 
L 15.828125 75.875 
Q 23.140625 64.359375 26.78125 53.3125 
Q 30.421875 42.28125 30.421875 31.390625 
Q 30.421875 20.453125 26.78125 9.375 
Q 23.140625 -1.703125 15.828125 -13.1875 
L 8.015625 -13.1875 
Q 14.5 -2 17.703125 9.0625 
Q 20.90625 20.125 20.90625 31.390625 
Q 20.90625 42.671875 17.703125 53.65625 
Q 14.5 64.65625 8.015625 75.875 
z
" id="DejaVuSans-41"/>
      </defs>
      <use xlink:href="#DejaVuSans-108"/>
      <use x="27.783203" xlink:href="#DejaVuSans-111"/>
      <use x="88.964844" xlink:href="#DejaVuSans-103"/>
      <use x="152.441406" xlink:href="#DejaVuSans-49"/>
      <use x="216.064453" xlink:href="#DejaVuSans-48"/>
      <use x="279.6875" xlink:href="#DejaVuSans-40"/>
      <use x="318.701172" xlink:href="#DejaVuSans-35"/>
      <use x="402.490234" xlink:href="#DejaVuSans-32"/>
      <use x="434.277344" xlink:href="#DejaVuSans-102"/>
      <use x="463.982422" xlink:href="#DejaVuSans-45"/>
      <use x="500.066406" xlink:href="#DejaVuSans-101"/>
      <use x="561.589844" xlink:href="#DejaVuSans-118"/>
      <use x="620.769531" xlink:href="#DejaVuSans-97"/>
      <use x="682.048828" xlink:href="#DejaVuSans-108"/>
      <use x="709.832031" xlink:href="#DejaVuSans-115"/>
      <use x="761.931641" xlink:href="#DejaVuSans-32"/>
      <use x="793.71875" xlink:href="#DejaVuSans-47"/>
      <use x="827.410156" xlink:href="#DejaVuSans-32"/>
      <use x="859.197266" xlink:href="#DejaVuSans-100"/>
      <use x="922.673828" xlink:href="#DejaVuSans-105"/>
      <use x="950.457031" xlink:href="#DejaVuSans-109"/>
      <use x="1047.869141" xlink:href="#DejaVuSans-101"/>
      <use x="1109.392578" xlink:href="#DejaVuSans-110"/>
      <use x="1172.771484" xlink:href="#DejaVuSans-115"/>
      <use x="1224.871094" xlink:href="#DejaVuSans-105"/>
      <use x="1252.654297" xlink:href="#DejaVuSans-111"/>
      <use x="1313.835938" xlink:href="#DejaVuSans-110"/>
      <use x="1377.214844" xlink:href="#DejaVuSans-41"/>
     </g>
    </g>
   </g>
   <g id="matplotlib.axis_2">
    <g id="ytick_1">
     <g id="line2d_17">
      <path clip-path="url(#pd76a464f18)" d="M 57.6 298.944 
L 338.688 298.944 
" style="fill:none;stroke:#b0b0b0;stroke-linecap:square;stroke-width:0.8;"/>
     </g>
     <g id="line2d_18">
      <defs>
       <path d="M 0 0 
L -3.5 0 
" id="mfd8505a1c3" style="stroke:#000000;stroke-width:0.8;"/>
      </defs>
      <g>
       <use style="stroke:#000000;stroke-width:0.8;" x="57.6" xlink:href="#mfd8505a1c3" y="298.944"/>
      </g>
     </g>
     <g id="text_6">
      <!-- 0.0 -->
      <g transform="translate(25.155 305.02275)scale(0.16 -0.16)">
       <defs>
        <path d="M 10.6875 12.40625 
L 21 12.40625 
L 21 0 
L 10.6875 0 
z
" id="DejaVuSans-46"/>
       </defs>
       <use xlink:href="#DejaVuSans-48"/>
       <use x="63.623047" xlink:href="#DejaVuSans-46"/>
       <use x="95.410156" xlink:href="#DejaVuSans-48"/>
      </g>
     </g>
    </g>
    <g id="ytick_2">
     <g id="line2d_19">
      <path clip-path="url(#pd76a464f18)" d="M 57.6 240.431525 
L 338.688 240.431525 
" style="fill:none;stroke:#b0b0b0;stroke-linecap:square;stroke-width:0.8;"/>
     </g>
     <g id="line2d_20">
      <g>
       <use style="stroke:#000000;stroke-width:0.8;" x="57.6" xlink:href="#mfd8505a1c3" y="240.431525"/>
      </g>
     </g>
     <g id="text_7">
      <!-- 0.2 -->
      <g transform="translate(25.155 246.510275)scale(0.16 -0.16)">
       <use xlink:href="#DejaVuSans-48"/>
       <use x="63.623047" xlink:href="#DejaVuSans-46"/>
       <use x="95.410156" xlink:href="#DejaVuSans-50"/>
      </g>
     </g>
    </g>
    <g id="ytick_3">
     <g id="line2d_21">
      <path clip-path="url(#pd76a464f18)" d="M 57.6 181.91905 
L 338.688 181.91905 
" style="fill:none;stroke:#b0b0b0;stroke-linecap:square;stroke-width:0.8;"/>
     </g>
     <g id="line2d_22">
      <g>
       <use style="stroke:#000000;stroke-width:0.8;" x="57.6" xlink:href="#mfd8505a1c3" y="181.91905"/>
      </g>
     </g>
     <g id="text_8">
      <!-- 0.4 -->
      <g transform="translate(25.155 187.9978)scale(0.16 -0.16)">
       <use xlink:href="#DejaVuSans-48"/>
       <use x="63.623047" xlink:href="#DejaVuSans-46"/>
       <use x="95.410156" xlink:href="#DejaVuSans-52"/>
      </g>
     </g>
    </g>
    <g id="ytick_4">
     <g id="line2d_23">
      <path clip-path="url(#pd76a464f18)" d="M 57.6 123.406574 
L 338.688 123.406574 
" style="fill:none;stroke:#b0b0b0;stroke-linecap:square;stroke-width:0.8;"/>
     </g>
     <g id="line2d_24">
      <g>
       <use style="stroke:#000000;stroke-width:0.8;" x="57.6" xlink:href="#mfd8505a1c3" y="123.406574"/>
      </g>
     </g>
     <g id="text_9">
      <!-- 0.6 -->
      <g transform="translate(25.155 129.485324)scale(0.16 -0.16)">
       <use xlink:href="#DejaVuSans-48"/>
       <use x="63.623047" xlink:href="#DejaVuSans-46"/>
       <use x="95.410156" xlink:href="#DejaVuSans-54"/>
      </g>
     </g>
    </g>
    <g id="ytick_5">
     <g id="line2d_25">
      <path clip-path="url(#pd76a464f18)" d="M 57.6 64.894099 
L 338.688 64.894099 
" style="fill:none;stroke:#b0b0b0;stroke-linecap:square;stroke-width:0.8;"/>
     </g>
     <g id="line2d_26">
      <g>
       <use style="stroke:#000000;stroke-width:0.8;" x="57.6" xlink:href="#mfd8505a1c3" y="64.894099"/>
      </g>
     </g>
     <g id="text_10">
      <!-- 0.8 -->
      <g transform="translate(25.155 70.972849)scale(0.16 -0.16)">
       <defs>
        <path d="M 31.78125 34.625 
Q 24.75 34.625 20.71875 30.859375 
Q 16.703125 27.09375 16.703125 20.515625 
Q 16.703125 13.921875 20.71875 10.15625 
Q 24.75 6.390625 31.78125 6.390625 
Q 38.8125 6.390625 42.859375 10.171875 
Q 46.921875 13.96875 46.921875 20.515625 
Q 46.921875 27.09375 42.890625 30.859375 
Q 38.875 34.625 31.78125 34.625 
z
M 21.921875 38.8125 
Q 15.578125 40.375 12.03125 44.71875 
Q 8.5 49.078125 8.5 55.328125 
Q 8.5 64.0625 14.71875 69.140625 
Q 20.953125 74.21875 31.78125 74.21875 
Q 42.671875 74.21875 48.875 69.140625 
Q 55.078125 64.0625 55.078125 55.328125 
Q 55.078125 49.078125 51.53125 44.71875 
Q 48 40.375 41.703125 38.8125 
Q 48.828125 37.15625 52.796875 32.3125 
Q 56.78125 27.484375 56.78125 20.515625 
Q 56.78125 9.90625 50.3125 4.234375 
Q 43.84375 -1.421875 31.78125 -1.421875 
Q 19.734375 -1.421875 13.25 4.234375 
Q 6.78125 9.90625 6.78125 20.515625 
Q 6.78125 27.484375 10.78125 32.3125 
Q 14.796875 37.15625 21.921875 38.8125 
z
M 18.3125 54.390625 
Q 18.3125 48.734375 21.84375 45.5625 
Q 25.390625 42.390625 31.78125 42.390625 
Q 38.140625 42.390625 41.71875 45.5625 
Q 45.3125 48.734375 45.3125 54.390625 
Q 45.3125 60.0625 41.71875 63.234375 
Q 38.140625 66.40625 31.78125 66.40625 
Q 25.390625 66.40625 21.84375 63.234375 
Q 18.3125 60.0625 18.3125 54.390625 
z
" id="DejaVuSans-56"/>
       </defs>
       <use xlink:href="#DejaVuSans-48"/>
       <use x="63.623047" xlink:href="#DejaVuSans-46"/>
       <use x="95.410156" xlink:href="#DejaVuSans-56"/>
      </g>
     </g>
    </g>
    <g id="ytick_6">
     <g id="line2d_27">
      <path clip-path="url(#pd76a464f18)" d="M 57.6 6.381624 
L 338.688 6.381624 
" style="fill:none;stroke:#b0b0b0;stroke-linecap:square;stroke-width:0.8;"/>
     </g>
     <g id="line2d_28">
      <g>
       <use style="stroke:#000000;stroke-width:0.8;" x="57.6" xlink:href="#mfd8505a1c3" y="6.381624"/>
      </g>
     </g>
     <g id="text_11">
      <!-- 1.0 -->
      <g transform="translate(25.155 12.460374)scale(0.16 -0.16)">
       <use xlink:href="#DejaVuSans-49"/>
       <use x="63.623047" xlink:href="#DejaVuSans-46"/>
       <use x="95.410156" xlink:href="#DejaVuSans-48"/>
      </g>
     </g>
    </g>
    <g id="text_12">
     <!-- Fraction of function,target pairs -->
     <g transform="translate(17.619531 285.585)rotate(-90)scale(0.17 -0.17)">
      <defs>
       <path d="M 9.8125 72.90625 
L 51.703125 72.90625 
L 51.703125 64.59375 
L 19.671875 64.59375 
L 19.671875 43.109375 
L 48.578125 43.109375 
L 48.578125 34.8125 
L 19.671875 34.8125 
L 19.671875 0 
L 9.8125 0 
z
" id="DejaVuSans-70"/>
       <path d="M 41.109375 46.296875 
Q 39.59375 47.171875 37.8125 47.578125 
Q 36.03125 48 33.890625 48 
Q 26.265625 48 22.1875 43.046875 
Q 18.109375 38.09375 18.109375 28.8125 
L 18.109375 0 
L 9.078125 0 
L 9.078125 54.6875 
L 18.109375 54.6875 
L 18.109375 46.1875 
Q 20.953125 51.171875 25.484375 53.578125 
Q 30.03125 56 36.53125 56 
Q 37.453125 56 38.578125 55.875 
Q 39.703125 55.765625 41.0625 55.515625 
z
" id="DejaVuSans-114"/>
       <path d="M 48.78125 52.59375 
L 48.78125 44.1875 
Q 44.96875 46.296875 41.140625 47.34375 
Q 37.3125 48.390625 33.40625 48.390625 
Q 24.65625 48.390625 19.8125 42.84375 
Q 14.984375 37.3125 14.984375 27.296875 
Q 14.984375 17.28125 19.8125 11.734375 
Q 24.65625 6.203125 33.40625 6.203125 
Q 37.3125 6.203125 41.140625 7.25 
Q 44.96875 8.296875 48.78125 10.40625 
L 48.78125 2.09375 
Q 45.015625 0.34375 40.984375 -0.53125 
Q 36.96875 -1.421875 32.421875 -1.421875 
Q 20.0625 -1.421875 12.78125 6.34375 
Q 5.515625 14.109375 5.515625 27.296875 
Q 5.515625 40.671875 12.859375 48.328125 
Q 20.21875 56 33.015625 56 
Q 37.15625 56 41.109375 55.140625 
Q 45.0625 54.296875 48.78125 52.59375 
z
" id="DejaVuSans-99"/>
       <path d="M 18.3125 70.21875 
L 18.3125 54.6875 
L 36.8125 54.6875 
L 36.8125 47.703125 
L 18.3125 47.703125 
L 18.3125 18.015625 
Q 18.3125 11.328125 20.140625 9.421875 
Q 21.96875 7.515625 27.59375 7.515625 
L 36.8125 7.515625 
L 36.8125 0 
L 27.59375 0 
Q 17.1875 0 13.234375 3.875 
Q 9.28125 7.765625 9.28125 18.015625 
L 9.28125 47.703125 
L 2.6875 47.703125 
L 2.6875 54.6875 
L 9.28125 54.6875 
L 9.28125 70.21875 
z
" id="DejaVuSans-116"/>
       <path d="M 8.5 21.578125 
L 8.5 54.6875 
L 17.484375 54.6875 
L 17.484375 21.921875 
Q 17.484375 14.15625 20.5 10.265625 
Q 23.53125 6.390625 29.59375 6.390625 
Q 36.859375 6.390625 41.078125 11.03125 
Q 45.3125 15.671875 45.3125 23.6875 
L 45.3125 54.6875 
L 54.296875 54.6875 
L 54.296875 0 
L 45.3125 0 
L 45.3125 8.40625 
Q 42.046875 3.421875 37.71875 1 
Q 33.40625 -1.421875 27.6875 -1.421875 
Q 18.265625 -1.421875 13.375 4.4375 
Q 8.5 10.296875 8.5 21.578125 
z
M 31.109375 56 
z
" id="DejaVuSans-117"/>
       <path d="M 11.71875 12.40625 
L 22.015625 12.40625 
L 22.015625 4 
L 14.015625 -11.625 
L 7.71875 -11.625 
L 11.71875 4 
z
" id="DejaVuSans-44"/>
       <path d="M 18.109375 8.203125 
L 18.109375 -20.796875 
L 9.078125 -20.796875 
L 9.078125 54.6875 
L 18.109375 54.6875 
L 18.109375 46.390625 
Q 20.953125 51.265625 25.265625 53.625 
Q 29.59375 56 35.59375 56 
Q 45.5625 56 51.78125 48.09375 
Q 58.015625 40.1875 58.015625 27.296875 
Q 58.015625 14.40625 51.78125 6.484375 
Q 45.5625 -1.421875 35.59375 -1.421875 
Q 29.59375 -1.421875 25.265625 0.953125 
Q 20.953125 3.328125 18.109375 8.203125 
z
M 48.6875 27.296875 
Q 48.6875 37.203125 44.609375 42.84375 
Q 40.53125 48.484375 33.40625 48.484375 
Q 26.265625 48.484375 22.1875 42.84375 
Q 18.109375 37.203125 18.109375 27.296875 
Q 18.109375 17.390625 22.1875 11.75 
Q 26.265625 6.109375 33.40625 6.109375 
Q 40.53125 6.109375 44.609375 11.75 
Q 48.6875 17.390625 48.6875 27.296875 
z
" id="DejaVuSans-112"/>
      </defs>
      <use xlink:href="#DejaVuSans-70"/>
      <use x="50.269531" xlink:href="#DejaVuSans-114"/>
      <use x="91.382812" xlink:href="#DejaVuSans-97"/>
      <use x="152.662109" xlink:href="#DejaVuSans-99"/>
      <use x="207.642578" xlink:href="#DejaVuSans-116"/>
      <use x="246.851562" xlink:href="#DejaVuSans-105"/>
      <use x="274.634766" xlink:href="#DejaVuSans-111"/>
      <use x="335.816406" xlink:href="#DejaVuSans-110"/>
      <use x="399.195312" xlink:href="#DejaVuSans-32"/>
      <use x="430.982422" xlink:href="#DejaVuSans-111"/>
      <use x="492.164062" xlink:href="#DejaVuSans-102"/>
      <use x="527.369141" xlink:href="#DejaVuSans-32"/>
      <use x="559.15625" xlink:href="#DejaVuSans-102"/>
      <use x="594.361328" xlink:href="#DejaVuSans-117"/>
      <use x="657.740234" xlink:href="#DejaVuSans-110"/>
      <use x="721.119141" xlink:href="#DejaVuSans-99"/>
      <use x="776.099609" xlink:href="#DejaVuSans-116"/>
      <use x="815.308594" xlink:href="#DejaVuSans-105"/>
      <use x="843.091797" xlink:href="#DejaVuSans-111"/>
      <use x="904.273438" xlink:href="#DejaVuSans-110"/>
      <use x="967.652344" xlink:href="#DejaVuSans-44"/>
      <use x="999.439453" xlink:href="#DejaVuSans-116"/>
      <use x="1038.648438" xlink:href="#DejaVuSans-97"/>
      <use x="1099.927734" xlink:href="#DejaVuSans-114"/>
      <use x="1139.291016" xlink:href="#DejaVuSans-103"/>
      <use x="1202.767578" xlink:href="#DejaVuSans-101"/>
      <use x="1264.291016" xlink:href="#DejaVuSans-116"/>
      <use x="1303.5" xlink:href="#DejaVuSans-32"/>
      <use x="1335.287109" xlink:href="#DejaVuSans-112"/>
      <use x="1398.763672" xlink:href="#DejaVuSans-97"/>
      <use x="1460.042969" xlink:href="#DejaVuSans-105"/>
      <use x="1487.826172" xlink:href="#DejaVuSans-114"/>
      <use x="1528.939453" xlink:href="#DejaVuSans-115"/>
     </g>
    </g>
   </g>
   <g id="line2d_29">
    <defs>
     <path d="M 0 1.5 
C 0.397805 1.5 0.77937 1.341951 1.06066 1.06066 
C 1.341951 0.77937 1.5 0.397805 1.5 0 
C 1.5 -0.397805 1.341951 -0.77937 1.06066 -1.06066 
C 0.77937 -1.341951 0.397805 -1.5 0 -1.5 
C -0.397805 -1.5 -0.77937 -1.341951 -1.06066 -1.06066 
C -1.341951 -0.77937 -1.5 -0.397805 -1.5 0 
C -1.5 0.397805 -1.341951 0.77937 -1.06066 1.06066 
C -0.77937 1.341951 -0.397805 1.5 0 1.5 
z
" id="m3f81973ae0" style="stroke:#000080;"/>
    </defs>
    <g>
     <use style="fill:#000080;stroke:#000080;" x="217.738285" xlink:href="#m3f81973ae0" y="6.381624"/>
     <use style="fill:#000080;stroke:#000080;" x="217.738285" xlink:href="#m3f81973ae0" y="6.381624"/>
    </g>
   </g>
   <g id="line2d_30">
    <path d="M 29.53256 298.944 
L 29.53256 278.86619 
L 95.526106 278.86619 
L 95.526106 278.292538 
L 97.043522 278.292538 
L 97.043522 277.718886 
L 100.934985 277.718886 
L 100.934985 276.571583 
L 101.785851 276.571583 
L 101.785851 275.997931 
L 102.060491 275.997931 
L 102.060491 275.42428 
L 102.597126 275.42428 
L 102.597126 274.276976 
L 102.859376 274.276976 
L 102.859376 273.129673 
L 103.117741 273.129673 
L 103.117741 272.556021 
L 103.372333 272.556021 
L 103.372333 271.982369 
L 103.623262 271.982369 
L 103.623262 271.408718 
L 103.870632 271.408718 
L 103.870632 270.261414 
L 104.114542 270.261414 
L 104.114542 269.687762 
L 104.592361 269.687762 
L 104.592361 267.393156 
L 104.826449 267.393156 
L 104.826449 266.245852 
L 113.311233 266.245852 
L 113.311233 265.6722 
L 116.797786 265.6722 
L 116.797786 265.098549 
L 117.709852 265.098549 
L 117.709852 263.951245 
L 118.148599 263.951245 
L 118.148599 263.377593 
L 118.890808 263.377593 
L 118.890808 262.803942 
L 119.199476 262.803942 
L 119.199476 262.23029 
L 121.036887 262.23029 
L 121.036887 261.656638 
L 121.219499 261.656638 
L 121.219499 261.082987 
L 121.579085 261.082987 
L 121.579085 260.509335 
L 122.018385 260.509335 
L 122.018385 259.935683 
L 122.191052 259.935683 
L 122.191052 259.362031 
L 123.751369 259.362031 
L 123.751369 258.78838 
L 126.099688 258.78838 
L 126.099688 258.214728 
L 126.439646 258.214728 
L 126.439646 257.641076 
L 127.293718 257.641076 
L 127.293718 257.067425 
L 127.611382 257.067425 
L 127.611382 256.493773 
L 128.350967 256.493773 
L 128.350967 255.920121 
L 128.531065 255.920121 
L 128.531065 255.346469 
L 129.06046 255.346469 
L 129.06046 254.772818 
L 130.45189 254.772818 
L 130.45189 254.199166 
L 131.640805 254.199166 
L 131.640805 253.625514 
L 131.888878 253.625514 
L 131.888878 253.051863 
L 132.084827 253.051863 
L 132.084827 252.478211 
L 135.076644 252.478211 
L 135.076644 251.904559 
L 136.112156 251.904559 
L 136.112156 251.330907 
L 136.456742 251.330907 
L 136.456742 250.757256 
L 136.570107 250.757256 
L 136.570107 250.183604 
L 136.720123 250.183604 
L 136.757427 249.036301 
L 136.831795 249.036301 
L 136.905847 247.888997 
L 137.053015 247.888997 
L 137.053015 246.741694 
L 137.52291 246.741694 
L 137.52291 246.168042 
L 138.153314 246.168042 
L 138.153314 245.59439 
L 138.69516 245.59439 
L 138.69516 245.020738 
L 139.604677 245.020738 
L 139.604677 244.447087 
L 139.9494 244.447087 
L 139.9494 243.873435 
L 140.073083 243.873435 
L 140.073083 242.726132 
L 140.348205 242.726132 
L 140.408758 241.578828 
L 140.499195 241.578828 
L 140.529237 240.431525 
L 140.678675 240.431525 
L 140.678675 239.857873 
L 140.856326 239.857873 
L 140.944478 238.71057 
L 141.148448 238.71057 
L 141.148448 238.136918 
L 141.858037 238.136918 
L 141.858037 237.563266 
L 142.752555 237.563266 
L 142.752555 236.989614 
L 144.93531 236.989614 
L 144.93531 236.415963 
L 145.843812 236.415963 
L 145.843812 235.842311 
L 146.08557 235.842311 
L 146.08557 235.268659 
L 146.216039 235.268659 
L 146.324022 233.547704 
L 146.538004 233.547704 
L 146.538004 232.400401 
L 146.77039 232.400401 
L 146.854132 231.253097 
L 146.895853 231.253097 
L 146.999721 229.532142 
L 147.082371 229.532142 
L 147.082371 228.95849 
L 147.226074 228.95849 
L 147.307662 226.663884 
L 147.509976 226.663884 
L 147.590249 224.369277 
L 147.670154 224.369277 
L 147.749695 223.221973 
L 147.828875 223.221973 
L 147.86833 221.501018 
L 147.986163 221.501018 
L 147.986163 220.353715 
L 148.122637 220.353715 
L 148.161434 218.632759 
L 148.23877 218.632759 
L 148.23877 217.485456 
L 148.354135 217.485456 
L 148.449693 214.043546 
L 148.525764 214.043546 
L 148.620389 210.027984 
L 148.695721 210.027984 
L 148.78943 207.159725 
L 148.808112 207.159725 
L 148.901221 203.717815 
L 148.919783 203.717815 
L 148.993835 200.275904 
L 149.049169 200.275904 
L 149.159312 198.554949 
L 149.177602 198.554949 
L 149.286939 193.392084 
L 149.305096 193.392084 
L 149.413639 189.376522 
L 149.467659 189.376522 
L 149.575199 185.36096 
L 149.593058 185.36096 
L 149.664311 181.91905 
L 149.717561 181.91905 
L 149.823575 178.477139 
L 149.85877 178.477139 
L 149.946449 173.314274 
L 149.981398 173.314274 
L 149.981398 172.16697 
L 151.897188 172.16697 
L 151.897188 171.593319 
L 152.191856 171.593319 
L 152.26858 170.446015 
L 152.360205 170.446015 
L 152.360205 169.872363 
L 152.751777 169.872363 
L 152.751777 168.72506 
L 153.40939 168.72506 
L 153.495227 167.577757 
L 153.848404 167.577757 
L 153.848404 167.004105 
L 154.276638 167.004105 
L 154.276638 166.430453 
L 154.587699 166.430453 
L 154.601099 165.28315 
L 155.180705 165.28315 
L 155.180705 164.709498 
L 155.476185 164.709498 
L 155.476185 164.135846 
L 156.788581 164.135846 
L 156.788581 163.562195 
L 156.918066 163.562195 
L 156.953214 162.414891 
L 157.174189 162.414891 
L 157.174189 161.841239 
L 157.472107 161.841239 
L 157.551454 160.693936 
L 157.675417 160.693936 
L 157.709073 158.972981 
L 157.964965 158.972981 
L 157.98704 157.252026 
L 158.129851 157.252026 
L 158.140788 156.104722 
L 158.260646 156.104722 
L 158.358103 154.957419 
L 158.540715 154.957419 
L 158.540715 154.383767 
L 158.721434 154.383767 
L 158.826871 153.236464 
L 158.847883 153.236464 
L 158.921223 152.08916 
L 159.025463 152.08916 
L 159.025463 151.515508 
L 159.867418 151.515508 
L 159.867418 150.941857 
L 160.239731 150.941857 
L 160.297798 149.794553 
L 160.566247 149.794553 
L 160.566247 149.220902 
L 160.811875 149.220902 
L 160.886762 148.073598 
L 161.091058 148.073598 
L 161.192316 146.352643 
L 161.283861 146.352643 
L 161.374928 143.484384 
L 161.411222 143.484384 
L 161.519653 137.747867 
L 161.528659 137.747867 
L 161.627414 134.305957 
L 161.672119 134.305957 
L 161.734513 130.864047 
L 161.787817 130.864047 
L 161.893939 128.56944 
L 161.92917 128.56944 
L 161.990653 126.848485 
L 162.043181 126.848485 
L 162.086834 123.406574 
L 163.84384 123.406574 
L 163.84384 122.832923 
L 164.15638 122.832923 
L 164.15638 122.259271 
L 164.325919 122.259271 
L 164.325919 121.685619 
L 164.448194 121.685619 
L 164.516598 119.964664 
L 164.787563 119.964664 
L 164.869525 118.817361 
L 165.039666 118.817361 
L 165.039666 118.243709 
L 165.432722 118.243709 
L 165.432722 117.670057 
L 165.718267 117.670057 
L 165.718267 117.096405 
L 165.922402 117.096405 
L 165.950372 115.949102 
L 166.110335 115.949102 
L 166.165632 114.801798 
L 166.316801 114.801798 
L 166.316801 114.228147 
L 166.439517 114.228147 
L 166.541125 111.93354 
L 166.581603 111.93354 
L 166.621987 110.212585 
L 166.742582 110.212585 
L 166.742582 109.638933 
L 166.895472 109.638933 
L 166.921925 107.344326 
L 167.158215 107.344326 
L 167.210292 106.197023 
L 167.372038 106.197023 
L 167.442734 105.049719 
L 167.602347 105.049719 
L 167.602347 104.476068 
L 167.779397 104.476068 
L 167.779397 103.902416 
L 168.22045 103.902416 
L 168.22045 103.328764 
L 168.391365 103.328764 
L 168.476198 101.607809 
L 168.566635 101.607809 
L 168.566635 101.034157 
L 168.68052 101.034157 
L 168.68052 100.460506 
L 168.894283 100.460506 
L 168.988454 95.29764 
L 169.047054 95.29764 
L 169.08212 93.576685 
L 169.942157 93.576685 
L 169.942157 93.003033 
L 170.446091 93.003033 
L 170.446091 92.429381 
L 170.596616 92.429381 
L 170.703344 90.708426 
L 170.767069 90.708426 
L 170.767069 90.134775 
L 170.893823 90.134775 
L 170.967341 88.987471 
L 172.380955 88.987471 
L 172.482136 87.266516 
L 172.568398 87.266516 
L 172.673253 85.545561 
L 173.044666 85.545561 
L 173.044666 84.971909 
L 173.183662 84.971909 
L 173.183662 84.398257 
L 173.371849 84.398257 
L 173.371849 83.824606 
L 173.742239 83.824606 
L 173.831397 82.677302 
L 173.884674 82.677302 
L 173.995148 80.382695 
L 174.030352 80.382695 
L 174.109302 79.235392 
L 174.157375 79.235392 
L 174.157375 78.66174 
L 174.309456 78.66174 
L 174.309456 78.088089 
L 174.69877 78.088089 
L 174.69877 77.514437 
L 174.892309 77.514437 
L 174.892309 76.940785 
L 175.116798 76.940785 
L 175.203325 75.793482 
L 175.268964 75.793482 
L 175.334356 74.072526 
L 175.395439 74.072526 
L 175.476552 72.925223 
L 175.665696 72.925223 
L 175.665696 72.351571 
L 176.394725 72.351571 
L 176.394725 71.77792 
L 176.547601 71.77792 
L 176.638688 70.056964 
L 176.665166 70.056964 
L 176.763161 67.762358 
L 176.883019 67.762358 
L 176.883019 67.188706 
L 177.053884 67.188706 
L 177.164423 65.467751 
L 177.538694 65.467751 
L 177.538694 64.894099 
L 177.788545 64.894099 
L 177.809795 63.746796 
L 177.957826 63.746796 
L 178.055819 62.02584 
L 178.469664 62.02584 
L 178.469664 61.452189 
L 178.629113 61.452189 
L 178.73349 59.731234 
L 179.082454 59.731234 
L 179.115327 58.010278 
L 179.226635 58.010278 
L 179.30478 56.862975 
L 179.424571 56.862975 
L 179.498623 55.14202 
L 179.65853 55.14202 
L 179.65853 54.568368 
L 179.83275 54.568368 
L 179.942718 52.273761 
L 179.9615 52.273761 
L 179.9615 51.700109 
L 180.095517 51.700109 
L 180.191499 49.979154 
L 180.234673 49.979154 
L 180.342143 48.831851 
L 180.381893 48.831851 
L 180.381893 48.258199 
L 180.588349 48.258199 
L 180.588349 47.684547 
L 180.741603 47.684547 
L 180.741603 47.110896 
L 181.213841 47.110896 
L 181.213841 46.537244 
L 181.413613 46.537244 
L 181.439502 45.389941 
L 182.010684 45.389941 
L 182.010684 44.816289 
L 182.229075 44.816289 
L 182.229075 44.242637 
L 182.412173 44.242637 
L 182.412173 43.668985 
L 182.910626 43.668985 
L 182.944937 42.521682 
L 183.159819 42.521682 
L 183.21183 41.374379 
L 183.743743 41.374379 
L 183.743743 40.800727 
L 184.006219 40.800727 
L 184.006219 40.227075 
L 184.134758 40.227075 
L 184.144607 39.079772 
L 184.796844 39.079772 
L 184.83474 37.932468 
L 185.051059 37.932468 
L 185.051059 37.358817 
L 185.345331 37.358817 
L 185.347629 36.211513 
L 185.616632 36.211513 
L 185.616632 35.637861 
L 185.85256 35.637861 
L 185.85256 35.06421 
L 186.080933 35.06421 
L 186.149086 33.916906 
L 186.221344 33.916906 
L 186.221344 33.343255 
L 186.687051 33.343255 
L 186.687051 32.769603 
L 186.84589 32.769603 
L 186.913223 31.622299 
L 187.438654 31.622299 
L 187.438654 31.048648 
L 187.783678 31.048648 
L 187.783678 30.474996 
L 188.84927 30.474996 
L 188.93177 28.754041 
L 189.340341 28.754041 
L 189.340341 28.180389 
L 189.648239 28.180389 
L 189.648239 27.606737 
L 190.082626 27.606737 
L 190.082626 27.033086 
L 190.868413 27.033086 
L 190.868413 26.459434 
L 190.990185 26.459434 
L 190.990185 25.885782 
L 192.054181 25.885782 
L 192.054181 25.31213 
L 192.495822 25.31213 
L 192.495822 24.738479 
L 193.341096 24.738479 
L 193.341096 24.164827 
L 193.684873 24.164827 
L 193.781458 22.443872 
L 193.897222 22.443872 
L 193.897222 21.87022 
L 194.051317 21.87022 
L 194.051317 21.296568 
L 194.600458 21.296568 
L 194.600458 20.722917 
L 194.721668 20.722917 
L 194.721668 20.149265 
L 195.079007 20.149265 
L 195.079007 19.575613 
L 195.935945 19.575613 
L 195.935945 19.001962 
L 196.164774 19.001962 
L 196.164774 18.42831 
L 196.868227 18.42831 
L 196.868227 17.854658 
L 197.505547 17.854658 
L 197.505547 17.281006 
L 197.976221 17.281006 
L 197.976221 16.707355 
L 199.585638 16.707355 
L 199.585638 16.133703 
L 199.980211 16.133703 
L 199.980211 15.560051 
L 201.481239 15.560051 
L 201.481239 14.9864 
L 201.869466 14.9864 
L 201.869466 14.412748 
L 202.59188 14.412748 
L 202.59188 13.839096 
L 203.737138 13.839096 
L 203.737138 13.265444 
L 205.629127 13.265444 
L 205.629127 12.691793 
L 206.113484 12.691793 
L 206.113484 12.118141 
L 206.23042 12.118141 
L 206.314158 10.970838 
L 207.187364 10.970838 
L 207.187364 10.397186 
L 208.684137 10.397186 
L 208.684137 9.823534 
L 210.818293 9.823534 
L 210.818293 9.249882 
L 211.910138 9.249882 
L 211.910138 8.676231 
L 212.209093 8.676231 
L 212.234678 7.528927 
L 212.588975 7.528927 
L 212.588975 6.955275 
L 217.738285 6.955275 
L 217.738285 6.381624 
L 338.688 6.381624 
L 338.688 6.381624 
" style="fill:none;stroke:#000080;stroke-linecap:square;stroke-width:1.5;"/>
   </g>
   <g id="line2d_31">
    <defs>
     <path d="M 0 6 
C 1.591219 6 3.117479 5.367802 4.242641 4.242641 
C 5.367802 3.117479 6 1.591219 6 0 
C 6 -1.591219 5.367802 -3.117479 4.242641 -4.242641 
C 3.117479 -5.367802 1.591219 -6 0 -6 
C -1.591219 -6 -3.117479 -5.367802 -4.242641 -4.242641 
C -5.367802 -3.117479 -6 -1.591219 -6 0 
C -6 1.591219 -5.367802 3.117479 -4.242641 4.242641 
C -3.117479 5.367802 -1.591219 6 0 6 
z
" id="m258f4a56e7" style="stroke:#000080;stroke-width:1.5;"/>
    </defs>
    <g>
     <use style="fill-opacity:0;stroke:#000080;stroke-width:1.5;" x="128.531065" xlink:href="#m258f4a56e7" y="255.920121"/>
     <use style="fill-opacity:0;stroke:#000080;stroke-width:1.5;" x="157.551454" xlink:href="#m258f4a56e7" y="161.267588"/>
     <use style="fill-opacity:0;stroke:#000080;stroke-width:1.5;" x="180.342143" xlink:href="#m258f4a56e7" y="49.405503"/>
     <use style="fill-opacity:0;stroke:#000080;stroke-width:1.5;" x="217.738285" xlink:href="#m258f4a56e7" y="6.381624"/>
     <use style="fill-opacity:0;stroke:#000080;stroke-width:1.5;" x="217.738285" xlink:href="#m258f4a56e7" y="6.381624"/>
     <use style="fill-opacity:0;stroke:#000080;stroke-width:1.5;" x="338.688" xlink:href="#m258f4a56e7" y="6.381624"/>
    </g>
   </g>
   <g id="line2d_32">
    <path style="fill:none;stroke:#000080;stroke-linecap:square;stroke-width:1.5;"/>
    <g/>
   </g>
   <g id="line2d_33">
    <path clip-path="url(#pd76a464f18)" d="M 149.998846 172.16697 
" style="fill:none;stroke:#000080;stroke-linecap:square;stroke-width:1.5;"/>
    <defs>
     <path d="M -12 12 
L 12 -12 
M -12 -12 
L 12 12 
" id="mafec25c4b0" style="stroke:#000080;"/>
    </defs>
    <g clip-path="url(#pd76a464f18)">
     <use style="fill:#000080;stroke:#000080;" x="149.998846" xlink:href="#mafec25c4b0" y="172.16697"/>
    </g>
   </g>
   <g id="line2d_34">
    <defs>
     <path d="M 0 1.5 
C 0.397805 1.5 0.77937 1.341951 1.06066 1.06066 
C 1.341951 0.77937 1.5 0.397805 1.5 0 
C 1.5 -0.397805 1.341951 -0.77937 1.06066 -1.06066 
C 0.77937 -1.341951 0.397805 -1.5 0 -1.5 
C -0.397805 -1.5 -0.77937 -1.341951 -1.06066 -1.06066 
C -1.341951 -0.77937 -1.5 -0.397805 -1.5 0 
C -1.5 0.397805 -1.341951 0.77937 -1.06066 1.06066 
C -0.77937 1.341951 -0.397805 1.5 0 1.5 
z
" id="mc044501108" style="stroke:#ff00ff;"/>
    </defs>
    <g>
     <use style="fill:#ff00ff;stroke:#ff00ff;" x="208.299649" xlink:href="#mc044501108" y="270.261414"/>
     <use style="fill:#ff00ff;stroke:#ff00ff;" x="208.299649" xlink:href="#mc044501108" y="270.261414"/>
    </g>
   </g>
   <g id="line2d_35">
    <path d="M 132.422528 298.944 
L 132.422528 298.370348 
L 133.398082 298.370348 
L 133.398082 297.796697 
L 139.69937 297.796697 
L 139.69937 297.223045 
L 141.521035 297.223045 
L 141.521035 296.649393 
L 145.932112 296.649393 
L 145.932112 296.075741 
L 148.411533 296.075741 
L 148.411533 295.50209 
L 148.658095 295.50209 
L 148.658095 294.928438 
L 148.826773 294.928438 
L 148.826773 294.354786 
L 149.030744 294.354786 
L 149.030744 293.781135 
L 149.377533 293.781135 
L 149.377533 293.207483 
L 151.692666 293.207483 
L 151.692666 292.633831 
L 152.721966 292.633831 
L 152.721966 292.060179 
L 155.841748 292.060179 
L 155.841748 291.486528 
L 163.16049 291.486528 
L 163.16049 290.912876 
L 163.485404 290.912876 
L 163.485404 290.339224 
L 165.164364 290.339224 
L 165.164364 289.765573 
L 165.859305 289.765573 
L 165.859305 289.191921 
L 165.999212 289.191921 
L 165.999212 288.618269 
L 167.640438 288.618269 
L 167.640438 288.044617 
L 167.810825 288.044617 
L 167.810825 287.470966 
L 167.960895 287.470966 
L 167.960895 286.897314 
L 168.177458 286.897314 
L 168.177458 286.323662 
L 168.518461 286.323662 
L 168.518461 285.75001 
L 168.60868 285.75001 
L 168.60868 285.176359 
L 170.277909 285.176359 
L 170.277909 284.602707 
L 171.170519 284.602707 
L 171.170519 284.029055 
L 171.590146 284.029055 
L 171.590146 283.455404 
L 173.539951 283.455404 
L 173.539951 282.881752 
L 173.562544 282.881752 
L 173.562544 282.3081 
L 173.733298 282.3081 
L 173.733298 281.734448 
L 175.252577 281.734448 
L 175.252577 281.160797 
L 175.884461 281.160797 
L 175.884461 280.587145 
L 179.05611 280.587145 
L 179.05611 280.013493 
L 179.693513 280.013493 
L 179.693513 279.439842 
L 180.308438 279.439842 
L 180.308438 278.86619 
L 181.77825 278.86619 
L 181.77825 278.292538 
L 182.679251 278.292538 
L 182.679251 277.718886 
L 182.96075 277.718886 
L 182.96075 277.145235 
L 184.359879 277.145235 
L 184.359879 276.571583 
L 187.412143 276.571583 
L 187.412143 275.997931 
L 189.223003 275.997931 
L 189.223003 275.42428 
L 189.933143 275.42428 
L 189.933143 274.850628 
L 190.530366 274.850628 
L 190.530366 274.276976 
L 191.504491 274.276976 
L 191.504491 273.703324 
L 192.913162 273.703324 
L 192.913162 273.129673 
L 194.441616 273.129673 
L 194.441616 272.556021 
L 196.350346 272.556021 
L 196.350346 271.982369 
L 197.350407 271.982369 
L 197.350407 271.408718 
L 202.462347 271.408718 
L 202.462347 270.835066 
L 208.299649 270.835066 
L 208.299649 270.261414 
L 338.688 270.261414 
" style="fill:none;stroke:#ff00ff;stroke-linecap:square;stroke-width:1.5;"/>
   </g>
   <g id="line2d_36">
    <defs>
     <path d="M -0 8.485281 
L 5.091169 0 
L 0 -8.485281 
L -5.091169 -0 
z
" id="mafdbe5d40f" style="stroke:#ff00ff;stroke-linejoin:miter;stroke-width:1.5;"/>
    </defs>
    <g>
     <use style="fill-opacity:0;stroke:#ff00ff;stroke-linejoin:miter;stroke-width:1.5;" x="182.679251" xlink:href="#mafdbe5d40f" y="278.292538"/>
     <use style="fill-opacity:0;stroke:#ff00ff;stroke-linejoin:miter;stroke-width:1.5;" x="208.299649" xlink:href="#mafdbe5d40f" y="270.835066"/>
     <use style="fill-opacity:0;stroke:#ff00ff;stroke-linejoin:miter;stroke-width:1.5;" x="208.299649" xlink:href="#mafdbe5d40f" y="270.261414"/>
     <use style="fill-opacity:0;stroke:#ff00ff;stroke-linejoin:miter;stroke-width:1.5;" x="208.299649" xlink:href="#mafdbe5d40f" y="270.261414"/>
     <use style="fill-opacity:0;stroke:#ff00ff;stroke-linejoin:miter;stroke-width:1.5;" x="338.688" xlink:href="#mafdbe5d40f" y="270.261414"/>
    </g>
   </g>
   <g id="line2d_37">
    <path style="fill:none;stroke:#ff00ff;stroke-linecap:square;stroke-width:1.5;"/>
    <g/>
   </g>
   <g id="line2d_38">
    <path clip-path="url(#pd76a464f18)" d="M 143.349938 296.649393 
" style="fill:none;stroke:#ff00ff;stroke-linecap:square;stroke-width:1.5;"/>
    <defs>
     <path d="M -12 12 
L 12 -12 
M -12 -12 
L 12 12 
" id="m1f13917941" style="stroke:#ff00ff;"/>
    </defs>
    <g clip-path="url(#pd76a464f18)">
     <use style="fill:#ff00ff;stroke:#ff00ff;" x="143.349938" xlink:href="#m1f13917941" y="296.649393"/>
    </g>
   </g>
   <g id="line2d_39">
    <defs>
     <path d="M 0 1.5 
C 0.397805 1.5 0.77937 1.341951 1.06066 1.06066 
C 1.341951 0.77937 1.5 0.397805 1.5 0 
C 1.5 -0.397805 1.341951 -0.77937 1.06066 -1.06066 
C 0.77937 -1.341951 0.397805 -1.5 0 -1.5 
C -0.397805 -1.5 -0.77937 -1.341951 -1.06066 -1.06066 
C -1.341951 -0.77937 -1.5 -0.397805 -1.5 0 
C -1.5 0.397805 -1.341951 0.77937 -1.06066 1.06066 
C -0.77937 1.341951 -0.397805 1.5 0 1.5 
z
" id="mfbd2815923" style="stroke:#ff7500;"/>
    </defs>
    <g>
     <use style="fill:#ff7500;stroke:#ff7500;" x="186.976112" xlink:href="#mfbd2815923" y="287.470966"/>
     <use style="fill:#ff7500;stroke:#ff7500;" x="186.976112" xlink:href="#mfbd2815923" y="287.470966"/>
    </g>
   </g>
   <g id="line2d_40">
    <path d="M 29.53256 298.944 
L 29.53256 298.370348 
L 110.358901 298.370348 
L 110.358901 297.796697 
L 110.527398 297.796697 
L 110.527398 297.223045 
L 137.735587 297.223045 
L 137.735587 296.649393 
L 139.02546 296.649393 
L 139.02546 296.075741 
L 143.42637 296.075741 
L 143.42637 295.50209 
L 149.286939 295.50209 
L 149.286939 294.928438 
L 149.341352 294.928438 
L 149.341352 294.354786 
L 149.377533 294.354786 
L 149.377533 293.781135 
L 153.40939 293.781135 
L 153.40939 293.207483 
L 153.806399 293.207483 
L 153.806399 292.633831 
L 154.029268 292.633831 
L 154.029268 292.060179 
L 154.56087 292.060179 
L 154.56087 291.486528 
L 161.210663 291.486528 
L 161.210663 290.912876 
L 170.708663 290.912876 
L 170.708663 290.339224 
L 176.088799 290.339224 
L 176.088799 289.765573 
L 180.329895 289.765573 
L 180.329895 289.191921 
L 183.966477 289.191921 
L 183.966477 288.618269 
L 184.478605 288.618269 
L 184.478605 288.044617 
L 186.976112 288.044617 
L 186.976112 287.470966 
L 338.688 287.470966 
" style="fill:none;stroke:#ff7500;stroke-linecap:square;stroke-width:1.5;"/>
   </g>
   <g id="line2d_41">
    <defs>
     <path d="M 0 -6 
L -1.347084 -1.854102 
L -5.706339 -1.854102 
L -2.179628 0.708204 
L -3.526712 4.854102 
L -0 2.291796 
L 3.526712 4.854102 
L 2.179628 0.708204 
L 5.706339 -1.854102 
L 1.347084 -1.854102 
z
" id="m83bc53d61e" style="stroke:#ff7500;stroke-linejoin:bevel;stroke-width:1.5;"/>
    </defs>
    <g>
     <use style="fill-opacity:0;stroke:#ff7500;stroke-linejoin:bevel;stroke-width:1.5;" x="154.029268" xlink:href="#m83bc53d61e" y="292.633831"/>
     <use style="fill-opacity:0;stroke:#ff7500;stroke-linejoin:bevel;stroke-width:1.5;" x="186.976112" xlink:href="#m83bc53d61e" y="288.044617"/>
     <use style="fill-opacity:0;stroke:#ff7500;stroke-linejoin:bevel;stroke-width:1.5;" x="186.976112" xlink:href="#m83bc53d61e" y="287.470966"/>
     <use style="fill-opacity:0;stroke:#ff7500;stroke-linejoin:bevel;stroke-width:1.5;" x="186.976112" xlink:href="#m83bc53d61e" y="287.470966"/>
     <use style="fill-opacity:0;stroke:#ff7500;stroke-linejoin:bevel;stroke-width:1.5;" x="338.688" xlink:href="#m83bc53d61e" y="287.470966"/>
    </g>
   </g>
   <g id="line2d_42">
    <path style="fill:none;stroke:#ff7500;stroke-linecap:square;stroke-width:1.5;"/>
    <g/>
   </g>
   <g id="line2d_43">
    <path clip-path="url(#pd76a464f18)" d="M 141.032186 296.075741 
" style="fill:none;stroke:#ff7500;stroke-linecap:square;stroke-width:1.5;"/>
    <defs>
     <path d="M -12 12 
L 12 -12 
M -12 -12 
L 12 12 
" id="m512cec36ab" style="stroke:#ff7500;"/>
    </defs>
    <g clip-path="url(#pd76a464f18)">
     <use style="fill:#ff7500;stroke:#ff7500;" x="141.032186" xlink:href="#m512cec36ab" y="296.075741"/>
    </g>
   </g>
   <g id="line2d_44">
    <defs>
     <path d="M 0 1.5 
C 0.397805 1.5 0.77937 1.341951 1.06066 1.06066 
C 1.341951 0.77937 1.5 0.397805 1.5 0 
C 1.5 -0.397805 1.341951 -0.77937 1.06066 -1.06066 
C 0.77937 -1.341951 0.397805 -1.5 0 -1.5 
C -0.397805 -1.5 -0.77937 -1.341951 -1.06066 -1.06066 
C -1.341951 -0.77937 -1.5 -0.397805 -1.5 0 
C -1.5 0.397805 -1.341951 0.77937 -1.06066 1.06066 
C -0.77937 1.341951 -0.397805 1.5 0 1.5 
z
" id="mc7dba3077b" style="stroke:#6495ed;"/>
    </defs>
    <g>
     <use style="fill:#6495ed;stroke:#6495ed;" x="201.030978" xlink:href="#mc7dba3077b" y="287.470966"/>
     <use style="fill:#6495ed;stroke:#6495ed;" x="201.030978" xlink:href="#mc7dba3077b" y="287.470966"/>
    </g>
   </g>
   <g id="line2d_45">
    <path d="M 29.53256 298.944 
L 29.53256 297.796697 
L 102.330873 297.796697 
L 102.330873 297.223045 
L 109.843417 297.223045 
L 109.843417 296.649393 
L 110.358901 296.649393 
L 110.358901 296.075741 
L 110.527398 296.075741 
L 110.527398 295.50209 
L 154.412564 295.50209 
L 154.412564 294.928438 
L 157.909655 294.928438 
L 157.909655 294.354786 
L 159.758143 294.354786 
L 159.758143 293.781135 
L 165.411116 293.781135 
L 165.411116 293.207483 
L 165.985272 293.207483 
L 165.985272 292.633831 
L 172.44366 292.633831 
L 172.44366 292.060179 
L 175.091997 292.060179 
L 175.091997 291.486528 
L 177.142371 291.486528 
L 177.142371 290.912876 
L 177.915659 290.912876 
L 177.915659 290.339224 
L 178.222537 290.339224 
L 178.222537 289.765573 
L 181.851394 289.765573 
L 181.851394 289.191921 
L 193.168833 289.191921 
L 193.168833 288.618269 
L 196.162303 288.618269 
L 196.162303 288.044617 
L 201.030978 288.044617 
L 201.030978 287.470966 
L 338.688 287.470966 
" style="fill:none;stroke:#6495ed;stroke-linecap:square;stroke-width:1.5;"/>
   </g>
   <g id="line2d_46">
    <defs>
     <path d="M -0 6 
L 6 -6 
L -6 -6 
z
" id="maee6fd814d" style="stroke:#6495ed;stroke-linejoin:miter;stroke-width:1.5;"/>
    </defs>
    <g>
     <use style="fill-opacity:0;stroke:#6495ed;stroke-linejoin:miter;stroke-width:1.5;" x="110.527398" xlink:href="#maee6fd814d" y="295.50209"/>
     <use style="fill-opacity:0;stroke:#6495ed;stroke-linejoin:miter;stroke-width:1.5;" x="178.222537" xlink:href="#maee6fd814d" y="289.765573"/>
     <use style="fill-opacity:0;stroke:#6495ed;stroke-linejoin:miter;stroke-width:1.5;" x="201.030978" xlink:href="#maee6fd814d" y="288.044617"/>
     <use style="fill-opacity:0;stroke:#6495ed;stroke-linejoin:miter;stroke-width:1.5;" x="201.030978" xlink:href="#maee6fd814d" y="287.470966"/>
     <use style="fill-opacity:0;stroke:#6495ed;stroke-linejoin:miter;stroke-width:1.5;" x="201.030978" xlink:href="#maee6fd814d" y="287.470966"/>
     <use style="fill-opacity:0;stroke:#6495ed;stroke-linejoin:miter;stroke-width:1.5;" x="338.688" xlink:href="#maee6fd814d" y="287.470966"/>
    </g>
   </g>
   <g id="line2d_47">
    <path style="fill:none;stroke:#6495ed;stroke-linecap:square;stroke-width:1.5;"/>
    <g/>
   </g>
   <g id="line2d_48">
    <path clip-path="url(#pd76a464f18)" d="M 139.9494 295.50209 
" style="fill:none;stroke:#6495ed;stroke-linecap:square;stroke-width:1.5;"/>
    <defs>
     <path d="M -12 12 
L 12 -12 
M -12 -12 
L 12 12 
" id="mdafbab799b" style="stroke:#6495ed;"/>
    </defs>
    <g clip-path="url(#pd76a464f18)">
     <use style="fill:#6495ed;stroke:#6495ed;" x="139.9494" xlink:href="#mdafbab799b" y="295.50209"/>
    </g>
   </g>
   <g id="line2d_49">
    <defs>
     <path d="M 0 1.5 
C 0.397805 1.5 0.77937 1.341951 1.06066 1.06066 
C 1.341951 0.77937 1.5 0.397805 1.5 0 
C 1.5 -0.397805 1.341951 -0.77937 1.06066 -1.06066 
C 0.77937 -1.341951 0.397805 -1.5 0 -1.5 
C -0.397805 -1.5 -0.77937 -1.341951 -1.06066 -1.06066 
C -1.341951 -0.77937 -1.5 -0.397805 -1.5 0 
C -1.5 0.397805 -1.341951 0.77937 -1.06066 1.06066 
C -0.77937 1.341951 -0.397805 1.5 0 1.5 
z
" id="m8af1f8d277" style="stroke:#ff0000;"/>
    </defs>
    <g>
     <use style="fill:#ff0000;stroke:#ff0000;" x="177.002059" xlink:href="#m8af1f8d277" y="6.381624"/>
     <use style="fill:#ff0000;stroke:#ff0000;" x="177.002059" xlink:href="#m8af1f8d277" y="6.381624"/>
    </g>
   </g>
   <g id="line2d_50">
    <path d="M 100.934985 298.944 
L 100.934985 297.796697 
L 101.785851 297.796697 
L 101.785851 295.50209 
L 102.060491 295.50209 
L 102.060491 293.207483 
L 104.592361 293.207483 
L 104.592361 292.633831 
L 104.826449 292.633831 
L 104.826449 290.912876 
L 105.057436 290.912876 
L 105.057436 289.191921 
L 105.285403 289.191921 
L 105.285403 288.618269 
L 105.51043 288.618269 
L 105.51043 286.323662 
L 105.732589 286.323662 
L 105.732589 284.029055 
L 105.951954 284.029055 
L 105.951954 282.3081 
L 106.168594 282.3081 
L 106.168594 281.734448 
L 106.382575 281.734448 
L 106.382575 279.439842 
L 106.593963 279.439842 
L 106.593963 277.718886 
L 107.009204 277.718886 
L 107.009204 276.571583 
L 107.414787 276.571583 
L 107.414787 274.850628 
L 107.614095 274.850628 
L 107.614095 274.276976 
L 107.811151 274.276976 
L 107.811151 273.703324 
L 108.577836 273.703324 
L 108.577836 272.556021 
L 108.764355 272.556021 
L 108.764355 271.982369 
L 108.948899 271.982369 
L 108.948899 271.408718 
L 109.131511 271.408718 
L 109.131511 270.835066 
L 109.31223 270.835066 
L 109.31223 270.261414 
L 109.491096 270.261414 
L 109.491096 267.393156 
L 109.843417 267.393156 
L 109.843417 239.284221 
L 110.016944 239.284221 
L 110.016944 238.136918 
L 110.358901 238.136918 
L 110.358901 236.989614 
L 110.527398 236.989614 
L 110.527398 235.842311 
L 110.694282 235.842311 
L 110.694282 222.07467 
L 110.859585 222.07467 
L 110.859585 221.501018 
L 111.023335 221.501018 
L 111.023335 187.081915 
L 121.219499 187.081915 
L 121.219499 186.508263 
L 121.400219 186.508263 
L 121.400219 171.019667 
L 122.362027 171.019667 
L 122.362027 170.446015 
L 122.947573 170.446015 
L 122.947573 169.872363 
L 123.192626 169.872363 
L 123.192626 169.298712 
L 125.752972 169.298712 
L 125.752972 168.72506 
L 126.50685 168.72506 
L 126.50685 168.151408 
L 129.347769 168.151408 
L 129.347769 167.577757 
L 129.630422 167.577757 
L 129.630422 167.004105 
L 130.236587 167.004105 
L 130.344571 165.28315 
L 130.558552 165.28315 
L 130.664567 163.562195 
L 130.717333 163.562195 
L 130.822389 161.267588 
L 130.926816 161.267588 
L 130.978796 131.437698 
L 131.839545 131.437698 
L 131.938072 117.670057 
L 132.470242 117.670057 
L 132.470242 117.096405 
L 132.70687 117.096405 
L 132.80063 114.801798 
L 133.262014 114.801798 
L 133.262014 114.228147 
L 136.380754 114.228147 
L 136.456742 110.786236 
L 139.762215 110.786236 
L 139.856059 108.49163 
L 140.011351 108.49163 
L 140.073083 105.049719 
L 140.738093 105.049719 
L 140.738093 104.476068 
L 141.148448 104.476068 
L 141.148448 101.607809 
L 141.69035 101.607809 
L 141.69035 99.886854 
L 142.566605 99.886854 
L 142.566605 98.73955 
L 143.273169 98.73955 
L 143.273169 98.165899 
L 143.451774 98.165899 
L 143.451774 96.444944 
L 143.578237 96.444944 
L 143.628567 94.150337 
L 145.508645 94.150337 
L 145.553708 92.429381 
L 145.688202 92.429381 
L 145.688202 91.85573 
L 145.932112 91.85573 
L 146.041862 86.692864 
L 146.08557 86.692864 
L 146.08557 84.398257 
L 146.40993 84.398257 
L 146.40993 83.824606 
L 146.749392 83.824606 
L 146.791364 82.677302 
L 147.769524 82.677302 
L 147.769524 82.103651 
L 147.888024 82.103651 
L 147.888024 80.382695 
L 148.449693 80.382695 
L 148.54473 78.66174 
L 148.601505 78.66174 
L 148.601505 75.793482 
L 148.956849 75.793482 
L 148.956849 74.072526 
L 149.141003 74.072526 
L 149.25057 72.925223 
L 149.286939 72.925223 
L 149.286939 71.77792 
L 149.998846 71.77792 
L 149.998846 68.909661 
L 150.120495 68.909661 
L 150.120495 67.188706 
L 150.309961 67.188706 
L 150.37835 66.041402 
L 150.463462 66.041402 
L 150.480434 62.599492 
L 150.799813 62.599492 
L 150.799813 61.452189 
L 151.097081 61.452189 
L 151.097081 60.304885 
L 151.581536 60.304885 
L 151.660987 56.862975 
L 151.740076 56.862975 
L 151.771612 54.568368 
L 152.375429 54.568368 
L 152.481628 51.700109 
L 153.017805 51.700109 
L 153.090987 50.552806 
L 153.609024 50.552806 
L 153.693887 48.831851 
L 153.904255 48.831851 
L 154.001564 45.963592 
L 154.112115 45.963592 
L 154.112115 45.389941 
L 155.050658 45.389941 
L 155.050658 43.095334 
L 155.296925 43.095334 
L 155.296925 41.94803 
L 155.527065 41.94803 
L 155.527065 40.800727 
L 155.641006 40.800727 
L 155.641006 40.227075 
L 156.586556 40.227075 
L 156.622378 39.079772 
L 156.753099 39.079772 
L 156.753099 38.50612 
L 156.964915 38.50612 
L 157.023299 37.358817 
L 157.139484 37.358817 
L 157.185742 35.637861 
L 157.742664 35.637861 
L 157.742664 35.06421 
L 158.053098 35.06421 
L 158.053098 34.490558 
L 158.422772 34.490558 
L 158.422772 33.916906 
L 158.562073 33.916906 
L 158.562073 33.343255 
L 159.118749 33.343255 
L 159.190962 31.622299 
L 159.242359 31.622299 
L 159.242359 30.474996 
L 159.385473 30.474996 
L 159.385473 29.901344 
L 160.113253 29.901344 
L 160.200913 27.033086 
L 160.470846 27.033086 
L 160.470846 26.459434 
L 160.613753 26.459434 
L 160.680044 24.738479 
L 161.192316 24.738479 
L 161.192316 23.591175 
L 162.034438 23.591175 
L 162.034438 23.017524 
L 162.268992 23.017524 
L 162.329291 21.296568 
L 162.491916 21.296568 
L 162.542958 20.149265 
L 162.995734 20.149265 
L 162.995734 19.575613 
L 163.412824 19.575613 
L 163.501492 18.42831 
L 163.58171 18.42831 
L 163.58171 17.854658 
L 164.109855 17.854658 
L 164.109855 17.281006 
L 164.387164 17.281006 
L 164.478629 16.133703 
L 164.712717 16.133703 
L 164.712717 15.560051 
L 165.069087 15.560051 
L 165.069087 14.9864 
L 166.08262 14.9864 
L 166.08262 14.412748 
L 167.229781 14.412748 
L 167.229781 13.839096 
L 167.410635 13.839096 
L 167.46837 12.691793 
L 167.608702 12.691793 
L 167.608702 12.118141 
L 167.948439 12.118141 
L 168.041647 10.970838 
L 169.582803 10.970838 
L 169.582803 10.397186 
L 170.141087 10.397186 
L 170.141087 9.823534 
L 170.676723 9.823534 
L 170.676723 9.249882 
L 171.118647 9.249882 
L 171.118647 8.676231 
L 174.021557 8.676231 
L 174.021557 8.102579 
L 174.425876 8.102579 
L 174.425876 7.528927 
L 176.390886 7.528927 
L 176.390886 6.955275 
L 177.002059 6.955275 
L 177.002059 6.381624 
L 338.688 6.381624 
L 338.688 6.381624 
" style="fill:none;stroke:#ff0000;stroke-linecap:square;stroke-width:1.5;"/>
   </g>
   <g id="line2d_51">
    <defs>
     <path d="M 0 -6 
L -5.196152 -3 
L -5.196152 3 
L -0 6 
L 5.196152 3 
L 5.196152 -3 
z
" id="m10836a8a99" style="stroke:#ff0000;stroke-linejoin:miter;stroke-width:1.5;"/>
    </defs>
    <g>
     <use style="fill-opacity:0;stroke:#ff0000;stroke-linejoin:miter;stroke-width:1.5;" x="149.286939" xlink:href="#m10836a8a99" y="71.77792"/>
     <use style="fill-opacity:0;stroke:#ff0000;stroke-linejoin:miter;stroke-width:1.5;" x="177.002059" xlink:href="#m10836a8a99" y="6.955275"/>
     <use style="fill-opacity:0;stroke:#ff0000;stroke-linejoin:miter;stroke-width:1.5;" x="177.002059" xlink:href="#m10836a8a99" y="6.381624"/>
     <use style="fill-opacity:0;stroke:#ff0000;stroke-linejoin:miter;stroke-width:1.5;" x="177.002059" xlink:href="#m10836a8a99" y="6.381624"/>
     <use style="fill-opacity:0;stroke:#ff0000;stroke-linejoin:miter;stroke-width:1.5;" x="338.688" xlink:href="#m10836a8a99" y="6.381624"/>
    </g>
   </g>
   <g id="line2d_52">
    <path style="fill:none;stroke:#ff0000;stroke-linecap:square;stroke-width:1.5;"/>
    <g/>
   </g>
   <g id="line2d_53">
    <path clip-path="url(#pd76a464f18)" d="M 140.708409 105.049719 
" style="fill:none;stroke:#ff0000;stroke-linecap:square;stroke-width:1.5;"/>
    <defs>
     <path d="M -12 12 
L 12 -12 
M -12 -12 
L 12 12 
" id="m29ec0ddcfd" style="stroke:#ff0000;"/>
    </defs>
    <g clip-path="url(#pd76a464f18)">
     <use style="fill:#ff0000;stroke:#ff0000;" x="140.708409" xlink:href="#m29ec0ddcfd" y="105.049719"/>
    </g>
   </g>
   <g id="line2d_54">
    <path d="M 338.688 287.470966 
L 369.60768 293.092752 
" style="fill:none;stroke:#6495ed;stroke-linecap:square;stroke-width:1.5;"/>
    <g>
     <use style="fill-opacity:0;stroke:#6495ed;stroke-linejoin:miter;stroke-width:1.5;" x="338.688" xlink:href="#maee6fd814d" y="287.470966"/>
     <use style="fill-opacity:0;stroke:#6495ed;stroke-linejoin:miter;stroke-width:1.5;" x="369.60768" xlink:href="#maee6fd814d" y="293.092752"/>
    </g>
   </g>
   <g id="line2d_55">
    <path d="M 338.688 287.470966 
L 369.60768 222.877782 
" style="fill:none;stroke:#ff7500;stroke-linecap:square;stroke-width:1.5;"/>
    <g>
     <use style="fill-opacity:0;stroke:#ff7500;stroke-linejoin:bevel;stroke-width:1.5;" x="338.688" xlink:href="#m83bc53d61e" y="287.470966"/>
     <use style="fill-opacity:0;stroke:#ff7500;stroke-linejoin:bevel;stroke-width:1.5;" x="369.60768" xlink:href="#m83bc53d61e" y="222.877782"/>
    </g>
   </g>
   <g id="line2d_56">
    <path d="M 338.688 270.261414 
L 369.60768 152.662812 
" style="fill:none;stroke:#ff00ff;stroke-linecap:square;stroke-width:1.5;"/>
    <g>
     <use style="fill-opacity:0;stroke:#ff00ff;stroke-linejoin:miter;stroke-width:1.5;" x="338.688" xlink:href="#mafdbe5d40f" y="270.261414"/>
     <use style="fill-opacity:0;stroke:#ff00ff;stroke-linejoin:miter;stroke-width:1.5;" x="369.60768" xlink:href="#mafdbe5d40f" y="152.662812"/>
    </g>
   </g>
   <g id="line2d_57">
    <path d="M 338.688 6.381624 
L 369.60768 82.447842 
" style="fill:none;stroke:#000080;stroke-linecap:square;stroke-width:1.5;"/>
    <g>
     <use style="fill-opacity:0;stroke:#000080;stroke-width:1.5;" x="338.688" xlink:href="#m258f4a56e7" y="6.381624"/>
     <use style="fill-opacity:0;stroke:#000080;stroke-width:1.5;" x="369.60768" xlink:href="#m258f4a56e7" y="82.447842"/>
    </g>
   </g>
   <g id="line2d_58">
    <path d="M 338.688 6.381624 
L 369.60768 12.232871 
" style="fill:none;stroke:#ff0000;stroke-linecap:square;stroke-width:1.5;"/>
    <g>
     <use style="fill-opacity:0;stroke:#ff0000;stroke-linejoin:miter;stroke-width:1.5;" x="338.688" xlink:href="#m10836a8a99" y="6.381624"/>
     <use style="fill-opacity:0;stroke:#ff0000;stroke-linejoin:miter;stroke-width:1.5;" x="369.60768" xlink:href="#m10836a8a99" y="12.232871"/>
    </g>
   </g>
   <g id="line2d_59">
    <path d="M 338.688 298.944 
L 338.688 6.381624 
" style="fill:none;stroke:#000000;stroke-linecap:square;stroke-width:1.5;"/>
   </g>
   <g id="patch_3">
    <path d="M 57.6 298.944 
L 57.6 3.456 
" style="fill:none;stroke:#000000;stroke-linecap:square;stroke-linejoin:miter;stroke-width:0.8;"/>
   </g>
   <g id="patch_4">
    <path d="M 338.688 298.944 
L 338.688 3.456 
" style="fill:none;stroke:#000000;stroke-linecap:square;stroke-linejoin:miter;stroke-width:0.8;"/>
   </g>
   <g id="patch_5">
    <path d="M 57.6 298.944 
L 338.688 298.944 
" style="fill:none;stroke:#000000;stroke-linecap:square;stroke-linejoin:miter;stroke-width:0.8;"/>
   </g>
   <g id="patch_6">
    <path d="M 57.6 3.456 
L 338.688 3.456 
" style="fill:none;stroke:#000000;stroke-linecap:square;stroke-linejoin:miter;stroke-width:0.8;"/>
   </g>
   <g id="text_13">
    <!-- f4 -->
    <g transform="translate(375.22944 297.78369)scale(0.17 -0.17)">
     <use xlink:href="#DejaVuSans-102"/>
     <use x="35.205078" xlink:href="#DejaVuSans-52"/>
    </g>
   </g>
   <g id="text_14">
    <!-- f3 -->
    <g transform="translate(375.22944 227.56872)scale(0.17 -0.17)">
     <defs>
      <path d="M 40.578125 39.3125 
Q 47.65625 37.796875 51.625 33 
Q 55.609375 28.21875 55.609375 21.1875 
Q 55.609375 10.40625 48.1875 4.484375 
Q 40.765625 -1.421875 27.09375 -1.421875 
Q 22.515625 -1.421875 17.65625 -0.515625 
Q 12.796875 0.390625 7.625 2.203125 
L 7.625 11.71875 
Q 11.71875 9.328125 16.59375 8.109375 
Q 21.484375 6.890625 26.8125 6.890625 
Q 36.078125 6.890625 40.9375 10.546875 
Q 45.796875 14.203125 45.796875 21.1875 
Q 45.796875 27.640625 41.28125 31.265625 
Q 36.765625 34.90625 28.71875 34.90625 
L 20.21875 34.90625 
L 20.21875 43.015625 
L 29.109375 43.015625 
Q 36.375 43.015625 40.234375 45.921875 
Q 44.09375 48.828125 44.09375 54.296875 
Q 44.09375 59.90625 40.109375 62.90625 
Q 36.140625 65.921875 28.71875 65.921875 
Q 24.65625 65.921875 20.015625 65.03125 
Q 15.375 64.15625 9.8125 62.3125 
L 9.8125 71.09375 
Q 15.4375 72.65625 20.34375 73.4375 
Q 25.25 74.21875 29.59375 74.21875 
Q 40.828125 74.21875 47.359375 69.109375 
Q 53.90625 64.015625 53.90625 55.328125 
Q 53.90625 49.265625 50.4375 45.09375 
Q 46.96875 40.921875 40.578125 39.3125 
z
" id="DejaVuSans-51"/>
     </defs>
     <use xlink:href="#DejaVuSans-102"/>
     <use x="35.205078" xlink:href="#DejaVuSans-51"/>
    </g>
   </g>
   <g id="text_15">
    <!-- f2 -->
    <g transform="translate(375.22944 157.353749)scale(0.17 -0.17)">
     <use xlink:href="#DejaVuSans-102"/>
     <use x="35.205078" xlink:href="#DejaVuSans-50"/>
    </g>
   </g>
   <g id="text_16">
    <!-- f1 -->
    <g transform="translate(375.22944 87.138779)scale(0.17 -0.17)">
     <use xlink:href="#DejaVuSans-102"/>
     <use x="35.205078" xlink:href="#DejaVuSans-49"/>
    </g>
   </g>
   <g id="text_17">
    <!-- f5 -->
    <g transform="translate(375.22944 16.923809)scale(0.17 -0.17)">
     <defs>
      <path d="M 10.796875 72.90625 
L 49.515625 72.90625 
L 49.515625 64.59375 
L 19.828125 64.59375 
L 19.828125 46.734375 
Q 21.96875 47.46875 24.109375 47.828125 
Q 26.265625 48.1875 28.421875 48.1875 
Q 40.625 48.1875 47.75 41.5 
Q 54.890625 34.8125 54.890625 23.390625 
Q 54.890625 11.625 47.5625 5.09375 
Q 40.234375 -1.421875 26.90625 -1.421875 
Q 22.3125 -1.421875 17.546875 -0.640625 
Q 12.796875 0.140625 7.71875 1.703125 
L 7.71875 11.625 
Q 12.109375 9.234375 16.796875 8.0625 
Q 21.484375 6.890625 26.703125 6.890625 
Q 35.15625 6.890625 40.078125 11.328125 
Q 45.015625 15.765625 45.015625 23.390625 
Q 45.015625 31 40.078125 35.4375 
Q 35.15625 39.890625 26.703125 39.890625 
Q 22.75 39.890625 18.8125 39.015625 
Q 14.890625 38.140625 10.796875 36.28125 
z
" id="DejaVuSans-53"/>
     </defs>
     <use xlink:href="#DejaVuSans-102"/>
     <use x="35.205078" xlink:href="#DejaVuSans-53"/>
    </g>
   </g>
   <g id="text_18">
    <!-- bbob -->
    <g transform="translate(60.41088 14.161286)scale(0.102 -0.102)">
     <defs>
      <path d="M 48.6875 27.296875 
Q 48.6875 37.203125 44.609375 42.84375 
Q 40.53125 48.484375 33.40625 48.484375 
Q 26.265625 48.484375 22.1875 42.84375 
Q 18.109375 37.203125 18.109375 27.296875 
Q 18.109375 17.390625 22.1875 11.75 
Q 26.265625 6.109375 33.40625 6.109375 
Q 40.53125 6.109375 44.609375 11.75 
Q 48.6875 17.390625 48.6875 27.296875 
z
M 18.109375 46.390625 
Q 20.953125 51.265625 25.265625 53.625 
Q 29.59375 56 35.59375 56 
Q 45.5625 56 51.78125 48.09375 
Q 58.015625 40.1875 58.015625 27.296875 
Q 58.015625 14.40625 51.78125 6.484375 
Q 45.5625 -1.421875 35.59375 -1.421875 
Q 29.59375 -1.421875 25.265625 0.953125 
Q 20.953125 3.328125 18.109375 8.203125 
L 18.109375 0 
L 9.078125 0 
L 9.078125 75.984375 
L 18.109375 75.984375 
z
" id="DejaVuSans-98"/>
     </defs>
     <use xlink:href="#DejaVuSans-98"/>
     <use x="63.476562" xlink:href="#DejaVuSans-98"/>
     <use x="126.953125" xlink:href="#DejaVuSans-111"/>
     <use x="188.134766" xlink:href="#DejaVuSans-98"/>
    </g>
    <!-- Separable functions, 5-D -->
    <g transform="translate(60.41088 25.583055)scale(0.102 -0.102)">
     <defs>
      <path d="M 53.515625 70.515625 
L 53.515625 60.890625 
Q 47.90625 63.578125 42.921875 64.890625 
Q 37.9375 66.21875 33.296875 66.21875 
Q 25.25 66.21875 20.875 63.09375 
Q 16.5 59.96875 16.5 54.203125 
Q 16.5 49.359375 19.40625 46.890625 
Q 22.3125 44.4375 30.421875 42.921875 
L 36.375 41.703125 
Q 47.40625 39.59375 52.65625 34.296875 
Q 57.90625 29 57.90625 20.125 
Q 57.90625 9.515625 50.796875 4.046875 
Q 43.703125 -1.421875 29.984375 -1.421875 
Q 24.8125 -1.421875 18.96875 -0.25 
Q 13.140625 0.921875 6.890625 3.21875 
L 6.890625 13.375 
Q 12.890625 10.015625 18.65625 8.296875 
Q 24.421875 6.59375 29.984375 6.59375 
Q 38.421875 6.59375 43.015625 9.90625 
Q 47.609375 13.234375 47.609375 19.390625 
Q 47.609375 24.75 44.3125 27.78125 
Q 41.015625 30.8125 33.5 32.328125 
L 27.484375 33.5 
Q 16.453125 35.6875 11.515625 40.375 
Q 6.59375 45.0625 6.59375 53.421875 
Q 6.59375 63.09375 13.40625 68.65625 
Q 20.21875 74.21875 32.171875 74.21875 
Q 37.3125 74.21875 42.625 73.28125 
Q 47.953125 72.359375 53.515625 70.515625 
z
" id="DejaVuSans-83"/>
      <path d="M 19.671875 64.796875 
L 19.671875 8.109375 
L 31.59375 8.109375 
Q 46.6875 8.109375 53.6875 14.9375 
Q 60.6875 21.78125 60.6875 36.53125 
Q 60.6875 51.171875 53.6875 57.984375 
Q 46.6875 64.796875 31.59375 64.796875 
z
M 9.8125 72.90625 
L 30.078125 72.90625 
Q 51.265625 72.90625 61.171875 64.09375 
Q 71.09375 55.28125 71.09375 36.53125 
Q 71.09375 17.671875 61.125 8.828125 
Q 51.171875 0 30.078125 0 
L 9.8125 0 
z
" id="DejaVuSans-68"/>
     </defs>
     <use xlink:href="#DejaVuSans-83"/>
     <use x="63.476562" xlink:href="#DejaVuSans-101"/>
     <use x="125" xlink:href="#DejaVuSans-112"/>
     <use x="188.476562" xlink:href="#DejaVuSans-97"/>
     <use x="249.755859" xlink:href="#DejaVuSans-114"/>
     <use x="290.869141" xlink:href="#DejaVuSans-97"/>
     <use x="352.148438" xlink:href="#DejaVuSans-98"/>
     <use x="415.625" xlink:href="#DejaVuSans-108"/>
     <use x="443.408203" xlink:href="#DejaVuSans-101"/>
     <use x="504.931641" xlink:href="#DejaVuSans-32"/>
     <use x="536.71875" xlink:href="#DejaVuSans-102"/>
     <use x="571.923828" xlink:href="#DejaVuSans-117"/>
     <use x="635.302734" xlink:href="#DejaVuSans-110"/>
     <use x="698.681641" xlink:href="#DejaVuSans-99"/>
     <use x="753.662109" xlink:href="#DejaVuSans-116"/>
     <use x="792.871094" xlink:href="#DejaVuSans-105"/>
     <use x="820.654297" xlink:href="#DejaVuSans-111"/>
     <use x="881.835938" xlink:href="#DejaVuSans-110"/>
     <use x="945.214844" xlink:href="#DejaVuSans-115"/>
     <use x="997.314453" xlink:href="#DejaVuSans-44"/>
     <use x="1029.101562" xlink:href="#DejaVuSans-32"/>
     <use x="1060.888672" xlink:href="#DejaVuSans-53"/>
     <use x="1124.511719" xlink:href="#DejaVuSans-45"/>
     <use x="1160.595703" xlink:href="#DejaVuSans-68"/>
    </g>
    <!-- 51 targets: 100..1e-08 -->
    <g transform="translate(60.41088 37.004824)scale(0.102 -0.102)">
     <defs>
      <path d="M 11.71875 12.40625 
L 22.015625 12.40625 
L 22.015625 0 
L 11.71875 0 
z
M 11.71875 51.703125 
L 22.015625 51.703125 
L 22.015625 39.3125 
L 11.71875 39.3125 
z
" id="DejaVuSans-58"/>
     </defs>
     <use xlink:href="#DejaVuSans-53"/>
     <use x="63.623047" xlink:href="#DejaVuSans-49"/>
     <use x="127.246094" xlink:href="#DejaVuSans-32"/>
     <use x="159.033203" xlink:href="#DejaVuSans-116"/>
     <use x="198.242188" xlink:href="#DejaVuSans-97"/>
     <use x="259.521484" xlink:href="#DejaVuSans-114"/>
     <use x="298.884766" xlink:href="#DejaVuSans-103"/>
     <use x="362.361328" xlink:href="#DejaVuSans-101"/>
     <use x="423.884766" xlink:href="#DejaVuSans-116"/>
     <use x="463.09375" xlink:href="#DejaVuSans-115"/>
     <use x="515.193359" xlink:href="#DejaVuSans-58"/>
     <use x="548.884766" xlink:href="#DejaVuSans-32"/>
     <use x="580.671875" xlink:href="#DejaVuSans-49"/>
     <use x="644.294922" xlink:href="#DejaVuSans-48"/>
     <use x="707.917969" xlink:href="#DejaVuSans-48"/>
     <use x="771.541016" xlink:href="#DejaVuSans-46"/>
     <use x="803.328125" xlink:href="#DejaVuSans-46"/>
     <use x="835.115234" xlink:href="#DejaVuSans-49"/>
     <use x="898.738281" xlink:href="#DejaVuSans-101"/>
     <use x="960.261719" xlink:href="#DejaVuSans-45"/>
     <use x="996.345703" xlink:href="#DejaVuSans-48"/>
     <use x="1059.96875" xlink:href="#DejaVuSans-56"/>
    </g>
    <!-- 15 instances -->
    <g transform="translate(60.41088 48.426593)scale(0.102 -0.102)">
     <use xlink:href="#DejaVuSans-49"/>
     <use x="63.623047" xlink:href="#DejaVuSans-53"/>
     <use x="127.246094" xlink:href="#DejaVuSans-32"/>
     <use x="159.033203" xlink:href="#DejaVuSans-105"/>
     <use x="186.816406" xlink:href="#DejaVuSans-110"/>
     <use x="250.195312" xlink:href="#DejaVuSans-115"/>
     <use x="302.294922" xlink:href="#DejaVuSans-116"/>
     <use x="341.503906" xlink:href="#DejaVuSans-97"/>
     <use x="402.783203" xlink:href="#DejaVuSans-110"/>
     <use x="466.162109" xlink:href="#DejaVuSans-99"/>
     <use x="521.142578" xlink:href="#DejaVuSans-101"/>
     <use x="582.666016" xlink:href="#DejaVuSans-115"/>
    </g>
   </g>
   <g id="text_19">
    <!-- v2.4 -->
    <g style="fill:#808080;" transform="translate(187.233062 293.909432)scale(0.1 -0.1)">
     <use xlink:href="#DejaVuSans-118"/>
     <use x="59.179688" xlink:href="#DejaVuSans-50"/>
     <use x="122.802734" xlink:href="#DejaVuSans-46"/>
     <use x="154.589844" xlink:href="#DejaVuSans-52"/>
    </g>
   </g>
  </g>
 </g>
 <defs>
  <clipPath id="pd76a464f18">
   <rect height="295.488" width="281.088" x="57.6" y="3.456"/>
  </clipPath>
 </defs>
</svg>
