<?xml version="1.0" encoding="utf-8" standalone="no"?>
<!DOCTYPE svg PUBLIC "-//W3C//DTD SVG 1.1//EN"
  "http://www.w3.org/Graphics/SVG/1.1/DTD/svg11.dtd">
<!-- Created with matplotlib (https://matplotlib.org/) -->
<svg height="345.6pt" version="1.1" viewBox="0 0 460.8 345.6" width="460.8pt" xmlns="http://www.w3.org/2000/svg" xmlns:xlink="http://www.w3.org/1999/xlink">
 <metadata>
  <rdf:RDF xmlns:cc="http://creativecommons.org/ns#" xmlns:dc="http://purl.org/dc/elements/1.1/" xmlns:rdf="http://www.w3.org/1999/02/22-rdf-syntax-ns#">
   <cc:Work>
    <dc:type rdf:resource="http://purl.org/dc/dcmitype/StillImage"/>
    <dc:date>2021-08-04T15:03:03.124316</dc:date>
    <dc:format>image/svg+xml</dc:format>
    <dc:creator>
     <cc:Agent>
      <dc:title>Matplotlib v3.3.1, https://matplotlib.org/</dc:title>
     </cc:Agent>
    </dc:creator>
   </cc:Work>
  </rdf:RDF>
 </metadata>
 <defs>
  <style type="text/css">*{stroke-linecap:butt;stroke-linejoin:round;}</style>
 </defs>
 <g id="figure_1">
  <g id="patch_1">
   <path d="M 0 345.6 
L 460.8 345.6 
L 460.8 0 
L 0 0 
z
" style="fill:#ffffff;"/>
  </g>
  <g id="axes_1">
   <g id="patch_2">
    <path d="M 57.6 298.944 
L 338.688 298.944 
L 338.688 3.456 
L 57.6 3.456 
z
" style="fill:#ffffff;"/>
   </g>
   <g id="matplotlib.axis_1">
    <g id="xtick_1">
     <g id="line2d_1">
      <path clip-path="url(#pf710633c78)" d="M 57.6 298.944 
L 57.6 3.456 
" style="fill:none;stroke:#b0b0b0;stroke-linecap:square;stroke-width:0.8;"/>
     </g>
     <g id="line2d_2">
      <defs>
       <path d="M 0 0 
L 0 3.5 
" id="m416630625c" style="stroke:#000000;stroke-width:0.8;"/>
      </defs>
      <g>
       <use style="stroke:#000000;stroke-width:0.8;" x="57.6" xlink:href="#m416630625c" y="298.944"/>
      </g>
     </g>
     <g id="text_1">
      <!-- 0 -->
      <g transform="translate(51.2375 321.140875)scale(0.2 -0.2)">
       <defs>
        <path d="M 31.78125 66.40625 
Q 24.171875 66.40625 20.328125 58.90625 
Q 16.5 51.421875 16.5 36.375 
Q 16.5 21.390625 20.328125 13.890625 
Q 24.171875 6.390625 31.78125 6.390625 
Q 39.453125 6.390625 43.28125 13.890625 
Q 47.125 21.390625 47.125 36.375 
Q 47.125 51.421875 43.28125 58.90625 
Q 39.453125 66.40625 31.78125 66.40625 
z
M 31.78125 74.21875 
Q 44.046875 74.21875 50.515625 64.515625 
Q 56.984375 54.828125 56.984375 36.375 
Q 56.984375 17.96875 50.515625 8.265625 
Q 44.046875 -1.421875 31.78125 -1.421875 
Q 19.53125 -1.421875 13.0625 8.265625 
Q 6.59375 17.96875 6.59375 36.375 
Q 6.59375 54.828125 13.0625 64.515625 
Q 19.53125 74.21875 31.78125 74.21875 
z
" id="DejaVuSans-48"/>
       </defs>
       <use xlink:href="#DejaVuSans-48"/>
      </g>
     </g>
    </g>
    <g id="xtick_2">
     <g id="line2d_3">
      <path clip-path="url(#pf710633c78)" d="M 137.910857 298.944 
L 137.910857 3.456 
" style="fill:none;stroke:#b0b0b0;stroke-linecap:square;stroke-width:0.8;"/>
     </g>
     <g id="line2d_4">
      <g>
       <use style="stroke:#000000;stroke-width:0.8;" x="137.910857" xlink:href="#m416630625c" y="298.944"/>
      </g>
     </g>
     <g id="text_2">
      <!-- 2 -->
      <g transform="translate(131.548357 321.140875)scale(0.2 -0.2)">
       <defs>
        <path d="M 19.1875 8.296875 
L 53.609375 8.296875 
L 53.609375 0 
L 7.328125 0 
L 7.328125 8.296875 
Q 12.9375 14.109375 22.625 23.890625 
Q 32.328125 33.6875 34.8125 36.53125 
Q 39.546875 41.84375 41.421875 45.53125 
Q 43.3125 49.21875 43.3125 52.78125 
Q 43.3125 58.59375 39.234375 62.25 
Q 35.15625 65.921875 28.609375 65.921875 
Q 23.96875 65.921875 18.8125 64.3125 
Q 13.671875 62.703125 7.8125 59.421875 
L 7.8125 69.390625 
Q 13.765625 71.78125 18.9375 73 
Q 24.125 74.21875 28.421875 74.21875 
Q 39.75 74.21875 46.484375 68.546875 
Q 53.21875 62.890625 53.21875 53.421875 
Q 53.21875 48.921875 51.53125 44.890625 
Q 49.859375 40.875 45.40625 35.40625 
Q 44.1875 33.984375 37.640625 27.21875 
Q 31.109375 20.453125 19.1875 8.296875 
z
" id="DejaVuSans-50"/>
       </defs>
       <use xlink:href="#DejaVuSans-50"/>
      </g>
     </g>
    </g>
    <g id="xtick_3">
     <g id="line2d_5">
      <path clip-path="url(#pf710633c78)" d="M 218.221714 298.944 
L 218.221714 3.456 
" style="fill:none;stroke:#b0b0b0;stroke-linecap:square;stroke-width:0.8;"/>
     </g>
     <g id="line2d_6">
      <g>
       <use style="stroke:#000000;stroke-width:0.8;" x="218.221714" xlink:href="#m416630625c" y="298.944"/>
      </g>
     </g>
     <g id="text_3">
      <!-- 4 -->
      <g transform="translate(211.859214 321.140875)scale(0.2 -0.2)">
       <defs>
        <path d="M 37.796875 64.3125 
L 12.890625 25.390625 
L 37.796875 25.390625 
z
M 35.203125 72.90625 
L 47.609375 72.90625 
L 47.609375 25.390625 
L 58.015625 25.390625 
L 58.015625 17.1875 
L 47.609375 17.1875 
L 47.609375 0 
L 37.796875 0 
L 37.796875 17.1875 
L 4.890625 17.1875 
L 4.890625 26.703125 
z
" id="DejaVuSans-52"/>
       </defs>
       <use xlink:href="#DejaVuSans-52"/>
      </g>
     </g>
    </g>
    <g id="xtick_4">
     <g id="line2d_7">
      <path clip-path="url(#pf710633c78)" d="M 298.532571 298.944 
L 298.532571 3.456 
" style="fill:none;stroke:#b0b0b0;stroke-linecap:square;stroke-width:0.8;"/>
     </g>
     <g id="line2d_8">
      <g>
       <use style="stroke:#000000;stroke-width:0.8;" x="298.532571" xlink:href="#m416630625c" y="298.944"/>
      </g>
     </g>
     <g id="text_4">
      <!-- 6 -->
      <g transform="translate(292.170071 321.140875)scale(0.2 -0.2)">
       <defs>
        <path d="M 33.015625 40.375 
Q 26.375 40.375 22.484375 35.828125 
Q 18.609375 31.296875 18.609375 23.390625 
Q 18.609375 15.53125 22.484375 10.953125 
Q 26.375 6.390625 33.015625 6.390625 
Q 39.65625 6.390625 43.53125 10.953125 
Q 47.40625 15.53125 47.40625 23.390625 
Q 47.40625 31.296875 43.53125 35.828125 
Q 39.65625 40.375 33.015625 40.375 
z
M 52.59375 71.296875 
L 52.59375 62.3125 
Q 48.875 64.0625 45.09375 64.984375 
Q 41.3125 65.921875 37.59375 65.921875 
Q 27.828125 65.921875 22.671875 59.328125 
Q 17.53125 52.734375 16.796875 39.40625 
Q 19.671875 43.65625 24.015625 45.921875 
Q 28.375 48.1875 33.59375 48.1875 
Q 44.578125 48.1875 50.953125 41.515625 
Q 57.328125 34.859375 57.328125 23.390625 
Q 57.328125 12.15625 50.6875 5.359375 
Q 44.046875 -1.421875 33.015625 -1.421875 
Q 20.359375 -1.421875 13.671875 8.265625 
Q 6.984375 17.96875 6.984375 36.375 
Q 6.984375 53.65625 15.1875 63.9375 
Q 23.390625 74.21875 37.203125 74.21875 
Q 40.921875 74.21875 44.703125 73.484375 
Q 48.484375 72.75 52.59375 71.296875 
z
" id="DejaVuSans-54"/>
       </defs>
       <use xlink:href="#DejaVuSans-54"/>
      </g>
     </g>
    </g>
    <g id="xtick_5">
     <g id="line2d_9">
      <path clip-path="url(#pf710633c78)" d="M 97.755429 298.944 
L 97.755429 3.456 
" style="fill:none;stroke:#b0b0b0;stroke-linecap:square;stroke-width:0.8;"/>
     </g>
     <g id="line2d_10">
      <defs>
       <path d="M 0 0 
L 0 2 
" id="m42af5bce52" style="stroke:#000000;stroke-width:0.6;"/>
      </defs>
      <g>
       <use style="stroke:#000000;stroke-width:0.6;" x="97.755429" xlink:href="#m42af5bce52" y="298.944"/>
      </g>
     </g>
    </g>
    <g id="xtick_6">
     <g id="line2d_11">
      <path clip-path="url(#pf710633c78)" d="M 178.066286 298.944 
L 178.066286 3.456 
" style="fill:none;stroke:#b0b0b0;stroke-linecap:square;stroke-width:0.8;"/>
     </g>
     <g id="line2d_12">
      <g>
       <use style="stroke:#000000;stroke-width:0.6;" x="178.066286" xlink:href="#m42af5bce52" y="298.944"/>
      </g>
     </g>
    </g>
    <g id="xtick_7">
     <g id="line2d_13">
      <path clip-path="url(#pf710633c78)" d="M 258.377143 298.944 
L 258.377143 3.456 
" style="fill:none;stroke:#b0b0b0;stroke-linecap:square;stroke-width:0.8;"/>
     </g>
     <g id="line2d_14">
      <g>
       <use style="stroke:#000000;stroke-width:0.6;" x="258.377143" xlink:href="#m42af5bce52" y="298.944"/>
      </g>
     </g>
    </g>
    <g id="xtick_8">
     <g id="line2d_15">
      <path clip-path="url(#pf710633c78)" d="M 338.688 298.944 
L 338.688 3.456 
" style="fill:none;stroke:#b0b0b0;stroke-linecap:square;stroke-width:0.8;"/>
     </g>
     <g id="line2d_16">
      <g>
       <use style="stroke:#000000;stroke-width:0.6;" x="338.688" xlink:href="#m42af5bce52" y="298.944"/>
      </g>
     </g>
    </g>
    <g id="text_5">
     <!-- log10(# f-evals / dimension) -->
     <g transform="translate(77.764078 342.217594)scale(0.17 -0.17)">
      <defs>
       <path d="M 9.421875 75.984375 
L 18.40625 75.984375 
L 18.40625 0 
L 9.421875 0 
z
" id="DejaVuSans-108"/>
       <path d="M 30.609375 48.390625 
Q 23.390625 48.390625 19.1875 42.75 
Q 14.984375 37.109375 14.984375 27.296875 
Q 14.984375 17.484375 19.15625 11.84375 
Q 23.34375 6.203125 30.609375 6.203125 
Q 37.796875 6.203125 41.984375 11.859375 
Q 46.1875 17.53125 46.1875 27.296875 
Q 46.1875 37.015625 41.984375 42.703125 
Q 37.796875 48.390625 30.609375 48.390625 
z
M 30.609375 56 
Q 42.328125 56 49.015625 48.375 
Q 55.71875 40.765625 55.71875 27.296875 
Q 55.71875 13.875 49.015625 6.21875 
Q 42.328125 -1.421875 30.609375 -1.421875 
Q 18.84375 -1.421875 12.171875 6.21875 
Q 5.515625 13.875 5.515625 27.296875 
Q 5.515625 40.765625 12.171875 48.375 
Q 18.84375 56 30.609375 56 
z
" id="DejaVuSans-111"/>
       <path d="M 45.40625 27.984375 
Q 45.40625 37.75 41.375 43.109375 
Q 37.359375 48.484375 30.078125 48.484375 
Q 22.859375 48.484375 18.828125 43.109375 
Q 14.796875 37.75 14.796875 27.984375 
Q 14.796875 18.265625 18.828125 12.890625 
Q 22.859375 7.515625 30.078125 7.515625 
Q 37.359375 7.515625 41.375 12.890625 
Q 45.40625 18.265625 45.40625 27.984375 
z
M 54.390625 6.78125 
Q 54.390625 -7.171875 48.1875 -13.984375 
Q 42 -20.796875 29.203125 -20.796875 
Q 24.46875 -20.796875 20.265625 -20.09375 
Q 16.0625 -19.390625 12.109375 -17.921875 
L 12.109375 -9.1875 
Q 16.0625 -11.328125 19.921875 -12.34375 
Q 23.78125 -13.375 27.78125 -13.375 
Q 36.625 -13.375 41.015625 -8.765625 
Q 45.40625 -4.15625 45.40625 5.171875 
L 45.40625 9.625 
Q 42.625 4.78125 38.28125 2.390625 
Q 33.9375 0 27.875 0 
Q 17.828125 0 11.671875 7.65625 
Q 5.515625 15.328125 5.515625 27.984375 
Q 5.515625 40.671875 11.671875 48.328125 
Q 17.828125 56 27.875 56 
Q 33.9375 56 38.28125 53.609375 
Q 42.625 51.21875 45.40625 46.390625 
L 45.40625 54.6875 
L 54.390625 54.6875 
z
" id="DejaVuSans-103"/>
       <path d="M 12.40625 8.296875 
L 28.515625 8.296875 
L 28.515625 63.921875 
L 10.984375 60.40625 
L 10.984375 69.390625 
L 28.421875 72.90625 
L 38.28125 72.90625 
L 38.28125 8.296875 
L 54.390625 8.296875 
L 54.390625 0 
L 12.40625 0 
z
" id="DejaVuSans-49"/>
       <path d="M 31 75.875 
Q 24.46875 64.65625 21.28125 53.65625 
Q 18.109375 42.671875 18.109375 31.390625 
Q 18.109375 20.125 21.3125 9.0625 
Q 24.515625 -2 31 -13.1875 
L 23.1875 -13.1875 
Q 15.875 -1.703125 12.234375 9.375 
Q 8.59375 20.453125 8.59375 31.390625 
Q 8.59375 42.28125 12.203125 53.3125 
Q 15.828125 64.359375 23.1875 75.875 
z
" id="DejaVuSans-40"/>
       <path d="M 51.125 44 
L 36.921875 44 
L 32.8125 27.6875 
L 47.125 27.6875 
z
M 43.796875 71.78125 
L 38.71875 51.515625 
L 52.984375 51.515625 
L 58.109375 71.78125 
L 65.921875 71.78125 
L 60.890625 51.515625 
L 76.125 51.515625 
L 76.125 44 
L 58.984375 44 
L 54.984375 27.6875 
L 70.515625 27.6875 
L 70.515625 20.21875 
L 53.078125 20.21875 
L 48 0 
L 40.1875 0 
L 45.21875 20.21875 
L 30.90625 20.21875 
L 25.875 0 
L 18.015625 0 
L 23.09375 20.21875 
L 7.71875 20.21875 
L 7.71875 27.6875 
L 24.90625 27.6875 
L 29 44 
L 13.28125 44 
L 13.28125 51.515625 
L 30.90625 51.515625 
L 35.890625 71.78125 
z
" id="DejaVuSans-35"/>
       <path id="DejaVuSans-32"/>
       <path d="M 37.109375 75.984375 
L 37.109375 68.5 
L 28.515625 68.5 
Q 23.6875 68.5 21.796875 66.546875 
Q 19.921875 64.59375 19.921875 59.515625 
L 19.921875 54.6875 
L 34.71875 54.6875 
L 34.71875 47.703125 
L 19.921875 47.703125 
L 19.921875 0 
L 10.890625 0 
L 10.890625 47.703125 
L 2.296875 47.703125 
L 2.296875 54.6875 
L 10.890625 54.6875 
L 10.890625 58.5 
Q 10.890625 67.625 15.140625 71.796875 
Q 19.390625 75.984375 28.609375 75.984375 
z
" id="DejaVuSans-102"/>
       <path d="M 4.890625 31.390625 
L 31.203125 31.390625 
L 31.203125 23.390625 
L 4.890625 23.390625 
z
" id="DejaVuSans-45"/>
       <path d="M 56.203125 29.59375 
L 56.203125 25.203125 
L 14.890625 25.203125 
Q 15.484375 15.921875 20.484375 11.0625 
Q 25.484375 6.203125 34.421875 6.203125 
Q 39.59375 6.203125 44.453125 7.46875 
Q 49.3125 8.734375 54.109375 11.28125 
L 54.109375 2.78125 
Q 49.265625 0.734375 44.1875 -0.34375 
Q 39.109375 -1.421875 33.890625 -1.421875 
Q 20.796875 -1.421875 13.15625 6.1875 
Q 5.515625 13.8125 5.515625 26.8125 
Q 5.515625 40.234375 12.765625 48.109375 
Q 20.015625 56 32.328125 56 
Q 43.359375 56 49.78125 48.890625 
Q 56.203125 41.796875 56.203125 29.59375 
z
M 47.21875 32.234375 
Q 47.125 39.59375 43.09375 43.984375 
Q 39.0625 48.390625 32.421875 48.390625 
Q 24.90625 48.390625 20.390625 44.140625 
Q 15.875 39.890625 15.1875 32.171875 
z
" id="DejaVuSans-101"/>
       <path d="M 2.984375 54.6875 
L 12.5 54.6875 
L 29.59375 8.796875 
L 46.6875 54.6875 
L 56.203125 54.6875 
L 35.6875 0 
L 23.484375 0 
z
" id="DejaVuSans-118"/>
       <path d="M 34.28125 27.484375 
Q 23.390625 27.484375 19.1875 25 
Q 14.984375 22.515625 14.984375 16.5 
Q 14.984375 11.71875 18.140625 8.90625 
Q 21.296875 6.109375 26.703125 6.109375 
Q 34.1875 6.109375 38.703125 11.40625 
Q 43.21875 16.703125 43.21875 25.484375 
L 43.21875 27.484375 
z
M 52.203125 31.203125 
L 52.203125 0 
L 43.21875 0 
L 43.21875 8.296875 
Q 40.140625 3.328125 35.546875 0.953125 
Q 30.953125 -1.421875 24.3125 -1.421875 
Q 15.921875 -1.421875 10.953125 3.296875 
Q 6 8.015625 6 15.921875 
Q 6 25.140625 12.171875 29.828125 
Q 18.359375 34.515625 30.609375 34.515625 
L 43.21875 34.515625 
L 43.21875 35.40625 
Q 43.21875 41.609375 39.140625 45 
Q 35.0625 48.390625 27.6875 48.390625 
Q 23 48.390625 18.546875 47.265625 
Q 14.109375 46.140625 10.015625 43.890625 
L 10.015625 52.203125 
Q 14.9375 54.109375 19.578125 55.046875 
Q 24.21875 56 28.609375 56 
Q 40.484375 56 46.34375 49.84375 
Q 52.203125 43.703125 52.203125 31.203125 
z
" id="DejaVuSans-97"/>
       <path d="M 44.28125 53.078125 
L 44.28125 44.578125 
Q 40.484375 46.53125 36.375 47.5 
Q 32.28125 48.484375 27.875 48.484375 
Q 21.1875 48.484375 17.84375 46.4375 
Q 14.5 44.390625 14.5 40.28125 
Q 14.5 37.15625 16.890625 35.375 
Q 19.28125 33.59375 26.515625 31.984375 
L 29.59375 31.296875 
Q 39.15625 29.25 43.1875 25.515625 
Q 47.21875 21.78125 47.21875 15.09375 
Q 47.21875 7.46875 41.1875 3.015625 
Q 35.15625 -1.421875 24.609375 -1.421875 
Q 20.21875 -1.421875 15.453125 -0.5625 
Q 10.6875 0.296875 5.421875 2 
L 5.421875 11.28125 
Q 10.40625 8.6875 15.234375 7.390625 
Q 20.0625 6.109375 24.8125 6.109375 
Q 31.15625 6.109375 34.5625 8.28125 
Q 37.984375 10.453125 37.984375 14.40625 
Q 37.984375 18.0625 35.515625 20.015625 
Q 33.0625 21.96875 24.703125 23.78125 
L 21.578125 24.515625 
Q 13.234375 26.265625 9.515625 29.90625 
Q 5.8125 33.546875 5.8125 39.890625 
Q 5.8125 47.609375 11.28125 51.796875 
Q 16.75 56 26.8125 56 
Q 31.78125 56 36.171875 55.265625 
Q 40.578125 54.546875 44.28125 53.078125 
z
" id="DejaVuSans-115"/>
       <path d="M 25.390625 72.90625 
L 33.6875 72.90625 
L 8.296875 -9.28125 
L 0 -9.28125 
z
" id="DejaVuSans-47"/>
       <path d="M 45.40625 46.390625 
L 45.40625 75.984375 
L 54.390625 75.984375 
L 54.390625 0 
L 45.40625 0 
L 45.40625 8.203125 
Q 42.578125 3.328125 38.25 0.953125 
Q 33.9375 -1.421875 27.875 -1.421875 
Q 17.96875 -1.421875 11.734375 6.484375 
Q 5.515625 14.40625 5.515625 27.296875 
Q 5.515625 40.1875 11.734375 48.09375 
Q 17.96875 56 27.875 56 
Q 33.9375 56 38.25 53.625 
Q 42.578125 51.265625 45.40625 46.390625 
z
M 14.796875 27.296875 
Q 14.796875 17.390625 18.875 11.75 
Q 22.953125 6.109375 30.078125 6.109375 
Q 37.203125 6.109375 41.296875 11.75 
Q 45.40625 17.390625 45.40625 27.296875 
Q 45.40625 37.203125 41.296875 42.84375 
Q 37.203125 48.484375 30.078125 48.484375 
Q 22.953125 48.484375 18.875 42.84375 
Q 14.796875 37.203125 14.796875 27.296875 
z
" id="DejaVuSans-100"/>
       <path d="M 9.421875 54.6875 
L 18.40625 54.6875 
L 18.40625 0 
L 9.421875 0 
z
M 9.421875 75.984375 
L 18.40625 75.984375 
L 18.40625 64.59375 
L 9.421875 64.59375 
z
" id="DejaVuSans-105"/>
       <path d="M 52 44.1875 
Q 55.375 50.25 60.0625 53.125 
Q 64.75 56 71.09375 56 
Q 79.640625 56 84.28125 50.015625 
Q 88.921875 44.046875 88.921875 33.015625 
L 88.921875 0 
L 79.890625 0 
L 79.890625 32.71875 
Q 79.890625 40.578125 77.09375 44.375 
Q 74.3125 48.1875 68.609375 48.1875 
Q 61.625 48.1875 57.5625 43.546875 
Q 53.515625 38.921875 53.515625 30.90625 
L 53.515625 0 
L 44.484375 0 
L 44.484375 32.71875 
Q 44.484375 40.625 41.703125 44.40625 
Q 38.921875 48.1875 33.109375 48.1875 
Q 26.21875 48.1875 22.15625 43.53125 
Q 18.109375 38.875 18.109375 30.90625 
L 18.109375 0 
L 9.078125 0 
L 9.078125 54.6875 
L 18.109375 54.6875 
L 18.109375 46.1875 
Q 21.1875 51.21875 25.484375 53.609375 
Q 29.78125 56 35.6875 56 
Q 41.65625 56 45.828125 52.96875 
Q 50 49.953125 52 44.1875 
z
" id="DejaVuSans-109"/>
       <path d="M 54.890625 33.015625 
L 54.890625 0 
L 45.90625 0 
L 45.90625 32.71875 
Q 45.90625 40.484375 42.875 44.328125 
Q 39.84375 48.1875 33.796875 48.1875 
Q 26.515625 48.1875 22.3125 43.546875 
Q 18.109375 38.921875 18.109375 30.90625 
L 18.109375 0 
L 9.078125 0 
L 9.078125 54.6875 
L 18.109375 54.6875 
L 18.109375 46.1875 
Q 21.34375 51.125 25.703125 53.5625 
Q 30.078125 56 35.796875 56 
Q 45.21875 56 50.046875 50.171875 
Q 54.890625 44.34375 54.890625 33.015625 
z
" id="DejaVuSans-110"/>
       <path d="M 8.015625 75.875 
L 15.828125 75.875 
Q 23.140625 64.359375 26.78125 53.3125 
Q 30.421875 42.28125 30.421875 31.390625 
Q 30.421875 20.453125 26.78125 9.375 
Q 23.140625 -1.703125 15.828125 -13.1875 
L 8.015625 -13.1875 
Q 14.5 -2 17.703125 9.0625 
Q 20.90625 20.125 20.90625 31.390625 
Q 20.90625 42.671875 17.703125 53.65625 
Q 14.5 64.65625 8.015625 75.875 
z
" id="DejaVuSans-41"/>
      </defs>
      <use xlink:href="#DejaVuSans-108"/>
      <use x="27.783203" xlink:href="#DejaVuSans-111"/>
      <use x="88.964844" xlink:href="#DejaVuSans-103"/>
      <use x="152.441406" xlink:href="#DejaVuSans-49"/>
      <use x="216.064453" xlink:href="#DejaVuSans-48"/>
      <use x="279.6875" xlink:href="#DejaVuSans-40"/>
      <use x="318.701172" xlink:href="#DejaVuSans-35"/>
      <use x="402.490234" xlink:href="#DejaVuSans-32"/>
      <use x="434.277344" xlink:href="#DejaVuSans-102"/>
      <use x="463.982422" xlink:href="#DejaVuSans-45"/>
      <use x="500.066406" xlink:href="#DejaVuSans-101"/>
      <use x="561.589844" xlink:href="#DejaVuSans-118"/>
      <use x="620.769531" xlink:href="#DejaVuSans-97"/>
      <use x="682.048828" xlink:href="#DejaVuSans-108"/>
      <use x="709.832031" xlink:href="#DejaVuSans-115"/>
      <use x="761.931641" xlink:href="#DejaVuSans-32"/>
      <use x="793.71875" xlink:href="#DejaVuSans-47"/>
      <use x="827.410156" xlink:href="#DejaVuSans-32"/>
      <use x="859.197266" xlink:href="#DejaVuSans-100"/>
      <use x="922.673828" xlink:href="#DejaVuSans-105"/>
      <use x="950.457031" xlink:href="#DejaVuSans-109"/>
      <use x="1047.869141" xlink:href="#DejaVuSans-101"/>
      <use x="1109.392578" xlink:href="#DejaVuSans-110"/>
      <use x="1172.771484" xlink:href="#DejaVuSans-115"/>
      <use x="1224.871094" xlink:href="#DejaVuSans-105"/>
      <use x="1252.654297" xlink:href="#DejaVuSans-111"/>
      <use x="1313.835938" xlink:href="#DejaVuSans-110"/>
      <use x="1377.214844" xlink:href="#DejaVuSans-41"/>
     </g>
    </g>
   </g>
   <g id="matplotlib.axis_2">
    <g id="ytick_1">
     <g id="line2d_17">
      <path clip-path="url(#pf710633c78)" d="M 57.6 298.944 
L 338.688 298.944 
" style="fill:none;stroke:#b0b0b0;stroke-linecap:square;stroke-width:0.8;"/>
     </g>
     <g id="line2d_18">
      <defs>
       <path d="M 0 0 
L -3.5 0 
" id="md5e332b08f" style="stroke:#000000;stroke-width:0.8;"/>
      </defs>
      <g>
       <use style="stroke:#000000;stroke-width:0.8;" x="57.6" xlink:href="#md5e332b08f" y="298.944"/>
      </g>
     </g>
     <g id="text_6">
      <!-- 0.0 -->
      <g transform="translate(25.155 305.02275)scale(0.16 -0.16)">
       <defs>
        <path d="M 10.6875 12.40625 
L 21 12.40625 
L 21 0 
L 10.6875 0 
z
" id="DejaVuSans-46"/>
       </defs>
       <use xlink:href="#DejaVuSans-48"/>
       <use x="63.623047" xlink:href="#DejaVuSans-46"/>
       <use x="95.410156" xlink:href="#DejaVuSans-48"/>
      </g>
     </g>
    </g>
    <g id="ytick_2">
     <g id="line2d_19">
      <path clip-path="url(#pf710633c78)" d="M 57.6 240.431525 
L 338.688 240.431525 
" style="fill:none;stroke:#b0b0b0;stroke-linecap:square;stroke-width:0.8;"/>
     </g>
     <g id="line2d_20">
      <g>
       <use style="stroke:#000000;stroke-width:0.8;" x="57.6" xlink:href="#md5e332b08f" y="240.431525"/>
      </g>
     </g>
     <g id="text_7">
      <!-- 0.2 -->
      <g transform="translate(25.155 246.510275)scale(0.16 -0.16)">
       <use xlink:href="#DejaVuSans-48"/>
       <use x="63.623047" xlink:href="#DejaVuSans-46"/>
       <use x="95.410156" xlink:href="#DejaVuSans-50"/>
      </g>
     </g>
    </g>
    <g id="ytick_3">
     <g id="line2d_21">
      <path clip-path="url(#pf710633c78)" d="M 57.6 181.91905 
L 338.688 181.91905 
" style="fill:none;stroke:#b0b0b0;stroke-linecap:square;stroke-width:0.8;"/>
     </g>
     <g id="line2d_22">
      <g>
       <use style="stroke:#000000;stroke-width:0.8;" x="57.6" xlink:href="#md5e332b08f" y="181.91905"/>
      </g>
     </g>
     <g id="text_8">
      <!-- 0.4 -->
      <g transform="translate(25.155 187.9978)scale(0.16 -0.16)">
       <use xlink:href="#DejaVuSans-48"/>
       <use x="63.623047" xlink:href="#DejaVuSans-46"/>
       <use x="95.410156" xlink:href="#DejaVuSans-52"/>
      </g>
     </g>
    </g>
    <g id="ytick_4">
     <g id="line2d_23">
      <path clip-path="url(#pf710633c78)" d="M 57.6 123.406574 
L 338.688 123.406574 
" style="fill:none;stroke:#b0b0b0;stroke-linecap:square;stroke-width:0.8;"/>
     </g>
     <g id="line2d_24">
      <g>
       <use style="stroke:#000000;stroke-width:0.8;" x="57.6" xlink:href="#md5e332b08f" y="123.406574"/>
      </g>
     </g>
     <g id="text_9">
      <!-- 0.6 -->
      <g transform="translate(25.155 129.485324)scale(0.16 -0.16)">
       <use xlink:href="#DejaVuSans-48"/>
       <use x="63.623047" xlink:href="#DejaVuSans-46"/>
       <use x="95.410156" xlink:href="#DejaVuSans-54"/>
      </g>
     </g>
    </g>
    <g id="ytick_5">
     <g id="line2d_25">
      <path clip-path="url(#pf710633c78)" d="M 57.6 64.894099 
L 338.688 64.894099 
" style="fill:none;stroke:#b0b0b0;stroke-linecap:square;stroke-width:0.8;"/>
     </g>
     <g id="line2d_26">
      <g>
       <use style="stroke:#000000;stroke-width:0.8;" x="57.6" xlink:href="#md5e332b08f" y="64.894099"/>
      </g>
     </g>
     <g id="text_10">
      <!-- 0.8 -->
      <g transform="translate(25.155 70.972849)scale(0.16 -0.16)">
       <defs>
        <path d="M 31.78125 34.625 
Q 24.75 34.625 20.71875 30.859375 
Q 16.703125 27.09375 16.703125 20.515625 
Q 16.703125 13.921875 20.71875 10.15625 
Q 24.75 6.390625 31.78125 6.390625 
Q 38.8125 6.390625 42.859375 10.171875 
Q 46.921875 13.96875 46.921875 20.515625 
Q 46.921875 27.09375 42.890625 30.859375 
Q 38.875 34.625 31.78125 34.625 
z
M 21.921875 38.8125 
Q 15.578125 40.375 12.03125 44.71875 
Q 8.5 49.078125 8.5 55.328125 
Q 8.5 64.0625 14.71875 69.140625 
Q 20.953125 74.21875 31.78125 74.21875 
Q 42.671875 74.21875 48.875 69.140625 
Q 55.078125 64.0625 55.078125 55.328125 
Q 55.078125 49.078125 51.53125 44.71875 
Q 48 40.375 41.703125 38.8125 
Q 48.828125 37.15625 52.796875 32.3125 
Q 56.78125 27.484375 56.78125 20.515625 
Q 56.78125 9.90625 50.3125 4.234375 
Q 43.84375 -1.421875 31.78125 -1.421875 
Q 19.734375 -1.421875 13.25 4.234375 
Q 6.78125 9.90625 6.78125 20.515625 
Q 6.78125 27.484375 10.78125 32.3125 
Q 14.796875 37.15625 21.921875 38.8125 
z
M 18.3125 54.390625 
Q 18.3125 48.734375 21.84375 45.5625 
Q 25.390625 42.390625 31.78125 42.390625 
Q 38.140625 42.390625 41.71875 45.5625 
Q 45.3125 48.734375 45.3125 54.390625 
Q 45.3125 60.0625 41.71875 63.234375 
Q 38.140625 66.40625 31.78125 66.40625 
Q 25.390625 66.40625 21.84375 63.234375 
Q 18.3125 60.0625 18.3125 54.390625 
z
" id="DejaVuSans-56"/>
       </defs>
       <use xlink:href="#DejaVuSans-48"/>
       <use x="63.623047" xlink:href="#DejaVuSans-46"/>
       <use x="95.410156" xlink:href="#DejaVuSans-56"/>
      </g>
     </g>
    </g>
    <g id="ytick_6">
     <g id="line2d_27">
      <path clip-path="url(#pf710633c78)" d="M 57.6 6.381624 
L 338.688 6.381624 
" style="fill:none;stroke:#b0b0b0;stroke-linecap:square;stroke-width:0.8;"/>
     </g>
     <g id="line2d_28">
      <g>
       <use style="stroke:#000000;stroke-width:0.8;" x="57.6" xlink:href="#md5e332b08f" y="6.381624"/>
      </g>
     </g>
     <g id="text_11">
      <!-- 1.0 -->
      <g transform="translate(25.155 12.460374)scale(0.16 -0.16)">
       <use xlink:href="#DejaVuSans-49"/>
       <use x="63.623047" xlink:href="#DejaVuSans-46"/>
       <use x="95.410156" xlink:href="#DejaVuSans-48"/>
      </g>
     </g>
    </g>
    <g id="text_12">
     <!-- Fraction of function,target pairs -->
     <g transform="translate(17.619531 285.585)rotate(-90)scale(0.17 -0.17)">
      <defs>
       <path d="M 9.8125 72.90625 
L 51.703125 72.90625 
L 51.703125 64.59375 
L 19.671875 64.59375 
L 19.671875 43.109375 
L 48.578125 43.109375 
L 48.578125 34.8125 
L 19.671875 34.8125 
L 19.671875 0 
L 9.8125 0 
z
" id="DejaVuSans-70"/>
       <path d="M 41.109375 46.296875 
Q 39.59375 47.171875 37.8125 47.578125 
Q 36.03125 48 33.890625 48 
Q 26.265625 48 22.1875 43.046875 
Q 18.109375 38.09375 18.109375 28.8125 
L 18.109375 0 
L 9.078125 0 
L 9.078125 54.6875 
L 18.109375 54.6875 
L 18.109375 46.1875 
Q 20.953125 51.171875 25.484375 53.578125 
Q 30.03125 56 36.53125 56 
Q 37.453125 56 38.578125 55.875 
Q 39.703125 55.765625 41.0625 55.515625 
z
" id="DejaVuSans-114"/>
       <path d="M 48.78125 52.59375 
L 48.78125 44.1875 
Q 44.96875 46.296875 41.140625 47.34375 
Q 37.3125 48.390625 33.40625 48.390625 
Q 24.65625 48.390625 19.8125 42.84375 
Q 14.984375 37.3125 14.984375 27.296875 
Q 14.984375 17.28125 19.8125 11.734375 
Q 24.65625 6.203125 33.40625 6.203125 
Q 37.3125 6.203125 41.140625 7.25 
Q 44.96875 8.296875 48.78125 10.40625 
L 48.78125 2.09375 
Q 45.015625 0.34375 40.984375 -0.53125 
Q 36.96875 -1.421875 32.421875 -1.421875 
Q 20.0625 -1.421875 12.78125 6.34375 
Q 5.515625 14.109375 5.515625 27.296875 
Q 5.515625 40.671875 12.859375 48.328125 
Q 20.21875 56 33.015625 56 
Q 37.15625 56 41.109375 55.140625 
Q 45.0625 54.296875 48.78125 52.59375 
z
" id="DejaVuSans-99"/>
       <path d="M 18.3125 70.21875 
L 18.3125 54.6875 
L 36.8125 54.6875 
L 36.8125 47.703125 
L 18.3125 47.703125 
L 18.3125 18.015625 
Q 18.3125 11.328125 20.140625 9.421875 
Q 21.96875 7.515625 27.59375 7.515625 
L 36.8125 7.515625 
L 36.8125 0 
L 27.59375 0 
Q 17.1875 0 13.234375 3.875 
Q 9.28125 7.765625 9.28125 18.015625 
L 9.28125 47.703125 
L 2.6875 47.703125 
L 2.6875 54.6875 
L 9.28125 54.6875 
L 9.28125 70.21875 
z
" id="DejaVuSans-116"/>
       <path d="M 8.5 21.578125 
L 8.5 54.6875 
L 17.484375 54.6875 
L 17.484375 21.921875 
Q 17.484375 14.15625 20.5 10.265625 
Q 23.53125 6.390625 29.59375 6.390625 
Q 36.859375 6.390625 41.078125 11.03125 
Q 45.3125 15.671875 45.3125 23.6875 
L 45.3125 54.6875 
L 54.296875 54.6875 
L 54.296875 0 
L 45.3125 0 
L 45.3125 8.40625 
Q 42.046875 3.421875 37.71875 1 
Q 33.40625 -1.421875 27.6875 -1.421875 
Q 18.265625 -1.421875 13.375 4.4375 
Q 8.5 10.296875 8.5 21.578125 
z
M 31.109375 56 
z
" id="DejaVuSans-117"/>
       <path d="M 11.71875 12.40625 
L 22.015625 12.40625 
L 22.015625 4 
L 14.015625 -11.625 
L 7.71875 -11.625 
L 11.71875 4 
z
" id="DejaVuSans-44"/>
       <path d="M 18.109375 8.203125 
L 18.109375 -20.796875 
L 9.078125 -20.796875 
L 9.078125 54.6875 
L 18.109375 54.6875 
L 18.109375 46.390625 
Q 20.953125 51.265625 25.265625 53.625 
Q 29.59375 56 35.59375 56 
Q 45.5625 56 51.78125 48.09375 
Q 58.015625 40.1875 58.015625 27.296875 
Q 58.015625 14.40625 51.78125 6.484375 
Q 45.5625 -1.421875 35.59375 -1.421875 
Q 29.59375 -1.421875 25.265625 0.953125 
Q 20.953125 3.328125 18.109375 8.203125 
z
M 48.6875 27.296875 
Q 48.6875 37.203125 44.609375 42.84375 
Q 40.53125 48.484375 33.40625 48.484375 
Q 26.265625 48.484375 22.1875 42.84375 
Q 18.109375 37.203125 18.109375 27.296875 
Q 18.109375 17.390625 22.1875 11.75 
Q 26.265625 6.109375 33.40625 6.109375 
Q 40.53125 6.109375 44.609375 11.75 
Q 48.6875 17.390625 48.6875 27.296875 
z
" id="DejaVuSans-112"/>
      </defs>
      <use xlink:href="#DejaVuSans-70"/>
      <use x="50.269531" xlink:href="#DejaVuSans-114"/>
      <use x="91.382812" xlink:href="#DejaVuSans-97"/>
      <use x="152.662109" xlink:href="#DejaVuSans-99"/>
      <use x="207.642578" xlink:href="#DejaVuSans-116"/>
      <use x="246.851562" xlink:href="#DejaVuSans-105"/>
      <use x="274.634766" xlink:href="#DejaVuSans-111"/>
      <use x="335.816406" xlink:href="#DejaVuSans-110"/>
      <use x="399.195312" xlink:href="#DejaVuSans-32"/>
      <use x="430.982422" xlink:href="#DejaVuSans-111"/>
      <use x="492.164062" xlink:href="#DejaVuSans-102"/>
      <use x="527.369141" xlink:href="#DejaVuSans-32"/>
      <use x="559.15625" xlink:href="#DejaVuSans-102"/>
      <use x="594.361328" xlink:href="#DejaVuSans-117"/>
      <use x="657.740234" xlink:href="#DejaVuSans-110"/>
      <use x="721.119141" xlink:href="#DejaVuSans-99"/>
      <use x="776.099609" xlink:href="#DejaVuSans-116"/>
      <use x="815.308594" xlink:href="#DejaVuSans-105"/>
      <use x="843.091797" xlink:href="#DejaVuSans-111"/>
      <use x="904.273438" xlink:href="#DejaVuSans-110"/>
      <use x="967.652344" xlink:href="#DejaVuSans-44"/>
      <use x="999.439453" xlink:href="#DejaVuSans-116"/>
      <use x="1038.648438" xlink:href="#DejaVuSans-97"/>
      <use x="1099.927734" xlink:href="#DejaVuSans-114"/>
      <use x="1139.291016" xlink:href="#DejaVuSans-103"/>
      <use x="1202.767578" xlink:href="#DejaVuSans-101"/>
      <use x="1264.291016" xlink:href="#DejaVuSans-116"/>
      <use x="1303.5" xlink:href="#DejaVuSans-32"/>
      <use x="1335.287109" xlink:href="#DejaVuSans-112"/>
      <use x="1398.763672" xlink:href="#DejaVuSans-97"/>
      <use x="1460.042969" xlink:href="#DejaVuSans-105"/>
      <use x="1487.826172" xlink:href="#DejaVuSans-114"/>
      <use x="1528.939453" xlink:href="#DejaVuSans-115"/>
     </g>
    </g>
   </g>
   <g id="line2d_29">
    <defs>
     <path d="M 0 1.5 
C 0.397805 1.5 0.77937 1.341951 1.06066 1.06066 
C 1.341951 0.77937 1.5 0.397805 1.5 0 
C 1.5 -0.397805 1.341951 -0.77937 1.06066 -1.06066 
C 0.77937 -1.341951 0.397805 -1.5 0 -1.5 
C -0.397805 -1.5 -0.77937 -1.341951 -1.06066 -1.06066 
C -1.341951 -0.77937 -1.5 -0.397805 -1.5 0 
C -1.5 0.397805 -1.341951 0.77937 -1.06066 1.06066 
C -0.77937 1.341951 -0.397805 1.5 0 1.5 
z
" id="m745a8b00c0" style="stroke:#000080;"/>
    </defs>
    <g>
     <use style="fill:#000080;stroke:#000080;" x="212.194316" xlink:href="#m745a8b00c0" y="212.896242"/>
     <use style="fill:#000080;stroke:#000080;" x="212.194316" xlink:href="#m745a8b00c0" y="212.896242"/>
    </g>
   </g>
   <g id="line2d_30">
    <path d="M 137.415591 298.944 
L 137.451437 297.796697 
L 137.594091 297.796697 
L 137.594091 297.223045 
L 138.493936 297.223045 
L 138.493936 296.649393 
L 139.253002 296.649393 
L 139.253002 296.075741 
L 139.541262 296.075741 
L 139.541262 295.50209 
L 145.281568 295.50209 
L 145.281568 294.928438 
L 145.531191 294.928438 
L 145.531191 294.354786 
L 145.976095 294.354786 
L 145.976095 293.781135 
L 146.388493 293.781135 
L 146.452726 292.633831 
L 147.061745 292.633831 
L 147.061745 292.060179 
L 147.226074 292.060179 
L 147.307662 290.339224 
L 147.348313 290.339224 
L 147.368603 289.191921 
L 147.86833 289.191921 
L 147.86833 288.618269 
L 148.219468 288.618269 
L 148.219468 288.044617 
L 148.695721 288.044617 
L 148.78943 286.897314 
L 148.975352 286.897314 
L 149.085961 285.75001 
L 149.122675 285.75001 
L 149.122675 285.176359 
L 149.341352 285.176359 
L 149.341352 284.602707 
L 149.521512 284.602707 
L 149.521512 284.029055 
L 152.840905 284.029055 
L 152.840905 283.455404 
L 154.331136 283.455404 
L 154.331136 282.881752 
L 155.678822 282.881752 
L 155.766741 281.734448 
L 156.32159 281.734448 
L 156.32159 281.160797 
L 156.466616 281.160797 
L 156.466616 280.587145 
L 156.847557 280.587145 
L 156.847557 280.013493 
L 157.208825 280.013493 
L 157.277891 278.292538 
L 157.909655 278.292538 
L 157.909655 277.718886 
L 158.096998 277.718886 
L 158.195371 276.571583 
L 158.422772 276.571583 
L 158.465753 275.42428 
L 158.572743 275.42428 
L 158.572743 274.850628 
L 159.087709 274.850628 
L 159.087709 274.276976 
L 159.778062 274.276976 
L 159.778062 273.703324 
L 159.985851 273.703324 
L 159.985851 273.129673 
L 160.717812 273.129673 
L 160.717812 272.556021 
L 160.961329 272.556021 
L 160.961329 271.982369 
L 161.402155 271.982369 
L 161.402155 271.408718 
L 161.573617 271.408718 
L 161.582595 270.261414 
L 162.508946 270.261414 
L 162.508946 269.687762 
L 163.875347 269.687762 
L 163.875347 269.114111 
L 164.086545 269.114111 
L 164.086545 268.540459 
L 164.854652 268.540459 
L 164.854652 267.966807 
L 165.14974 267.966807 
L 165.14974 267.393156 
L 165.35337 267.393156 
L 165.35337 266.819504 
L 165.810071 266.819504 
L 165.810071 266.245852 
L 165.922402 266.245852 
L 165.922402 265.098549 
L 167.860992 265.098549 
L 167.860992 264.524897 
L 168.415645 264.524897 
L 168.464104 263.377593 
L 168.668567 263.377593 
L 168.668567 262.803942 
L 169.947714 262.803942 
L 169.947714 262.23029 
L 170.288808 262.23029 
L 170.288808 261.656638 
L 170.909603 261.656638 
L 170.909603 261.082987 
L 171.268652 261.082987 
L 171.304668 259.935683 
L 171.67086 259.935683 
L 171.706056 258.78838 
L 171.806224 258.78838 
L 171.806224 258.214728 
L 172.054157 258.214728 
L 172.054157 257.641076 
L 172.951383 257.641076 
L 172.951383 257.067425 
L 173.197501 257.067425 
L 173.197501 256.493773 
L 173.380978 256.493773 
L 173.380978 255.920121 
L 173.512801 255.920121 
L 173.512801 255.346469 
L 176.676501 255.346469 
L 176.785697 254.199166 
L 177.277915 254.199166 
L 177.277915 253.625514 
L 178.917151 253.625514 
L 178.917151 253.051863 
L 179.033027 253.051863 
L 179.033027 252.478211 
L 179.414889 252.478211 
L 179.414889 251.904559 
L 180.064442 251.904559 
L 180.064442 251.330907 
L 180.949782 251.330907 
L 180.949782 250.757256 
L 181.522662 250.757256 
L 181.522662 250.183604 
L 181.949376 250.183604 
L 181.963328 248.462649 
L 182.64173 248.462649 
L 182.727374 246.741694 
L 182.950209 246.741694 
L 183.015983 245.59439 
L 184.413285 245.59439 
L 184.413285 245.020738 
L 184.999574 245.020738 
L 184.999574 244.447087 
L 185.349926 244.447087 
L 185.349926 243.873435 
L 186.00809 243.873435 
L 186.00809 243.299783 
L 187.188257 243.299783 
L 187.283092 242.15248 
L 187.737667 242.15248 
L 187.737667 241.578828 
L 188.254746 241.578828 
L 188.254746 241.005176 
L 188.39034 241.005176 
L 188.484633 239.857873 
L 188.79091 239.857873 
L 188.79091 239.284221 
L 188.93177 239.284221 
L 189.034348 237.563266 
L 190.336432 237.563266 
L 190.336432 236.989614 
L 191.613899 236.989614 
L 191.674742 235.268659 
L 192.652175 235.268659 
L 192.652175 234.695008 
L 193.619231 234.695008 
L 193.619231 234.121356 
L 193.81966 234.121356 
L 193.845082 232.974052 
L 193.936575 232.974052 
L 193.936575 232.400401 
L 194.235832 232.400401 
L 194.235832 231.826749 
L 194.609916 231.826749 
L 194.609916 231.253097 
L 195.767387 231.253097 
L 195.792649 230.105794 
L 196.164774 230.105794 
L 196.164774 229.532142 
L 197.610486 229.532142 
L 197.664987 228.384839 
L 197.98624 228.384839 
L 197.98624 227.811187 
L 198.395431 227.811187 
L 198.395431 227.237535 
L 199.013807 227.237535 
L 199.013807 226.663884 
L 199.203741 226.663884 
L 199.203741 226.090232 
L 200.296976 226.090232 
L 200.296976 225.51658 
L 200.522652 225.51658 
L 200.522652 224.942928 
L 201.061795 224.942928 
L 201.119547 223.795625 
L 202.021132 223.795625 
L 202.021132 223.221973 
L 202.29711 223.221973 
L 202.29711 222.648321 
L 202.489878 222.648321 
L 202.565366 221.501018 
L 202.632003 221.501018 
L 202.632003 220.927366 
L 203.333128 220.927366 
L 203.333128 220.353715 
L 203.703492 220.353715 
L 203.706699 219.206411 
L 203.970074 219.206411 
L 203.970074 218.632759 
L 204.357438 218.632759 
L 204.357438 218.059108 
L 204.802013 218.059108 
L 204.802013 217.485456 
L 205.935893 217.485456 
L 205.935893 216.911804 
L 206.632948 216.911804 
L 206.632948 216.338153 
L 209.113333 216.338153 
L 209.113333 215.764501 
L 210.378737 215.764501 
L 210.488311 214.043546 
L 212.01899 214.043546 
L 212.01899 213.469894 
L 212.194316 213.469894 
L 212.194316 212.896242 
L 338.688 212.896242 
L 338.688 212.896242 
" style="fill:none;stroke:#000080;stroke-linecap:square;stroke-width:1.5;"/>
   </g>
   <g id="line2d_31">
    <defs>
     <path d="M 0 6 
C 1.591219 6 3.117479 5.367802 4.242641 4.242641 
C 5.367802 3.117479 6 1.591219 6 0 
C 6 -1.591219 5.367802 -3.117479 4.242641 -4.242641 
C 3.117479 -5.367802 1.591219 -6 0 -6 
C -1.591219 -6 -3.117479 -5.367802 -4.242641 -4.242641 
C -5.367802 -3.117479 -6 -1.591219 -6 0 
C -6 1.591219 -5.367802 3.117479 -4.242641 4.242641 
C -3.117479 5.367802 -1.591219 6 0 6 
z
" id="m0db876b7f4" style="stroke:#000080;stroke-width:1.5;"/>
    </defs>
    <g>
     <use style="fill-opacity:0;stroke:#000080;stroke-width:1.5;" x="173.512801" xlink:href="#m0db876b7f4" y="255.346469"/>
     <use style="fill-opacity:0;stroke:#000080;stroke-width:1.5;" x="206.632948" xlink:href="#m0db876b7f4" y="216.338153"/>
     <use style="fill-opacity:0;stroke:#000080;stroke-width:1.5;" x="212.194316" xlink:href="#m0db876b7f4" y="212.896242"/>
     <use style="fill-opacity:0;stroke:#000080;stroke-width:1.5;" x="212.194316" xlink:href="#m0db876b7f4" y="212.896242"/>
     <use style="fill-opacity:0;stroke:#000080;stroke-width:1.5;" x="338.688" xlink:href="#m0db876b7f4" y="212.896242"/>
    </g>
   </g>
   <g id="line2d_32">
    <path style="fill:none;stroke:#000080;stroke-linecap:square;stroke-width:1.5;"/>
    <g/>
   </g>
   <g id="line2d_33">
    <path clip-path="url(#pf710633c78)" d="M 143.527762 295.50209 
" style="fill:none;stroke:#000080;stroke-linecap:square;stroke-width:1.5;"/>
    <defs>
     <path d="M -12 12 
L 12 -12 
M -12 -12 
L 12 12 
" id="mf91b2f871e" style="stroke:#000080;"/>
    </defs>
    <g clip-path="url(#pf710633c78)">
     <use style="fill:#000080;stroke:#000080;" x="143.527762" xlink:href="#mf91b2f871e" y="295.50209"/>
    </g>
   </g>
   <g id="line2d_34">
    <defs>
     <path d="M 0 1.5 
C 0.397805 1.5 0.77937 1.341951 1.06066 1.06066 
C 1.341951 0.77937 1.5 0.397805 1.5 0 
C 1.5 -0.397805 1.341951 -0.77937 1.06066 -1.06066 
C 0.77937 -1.341951 0.397805 -1.5 0 -1.5 
C -0.397805 -1.5 -0.77937 -1.341951 -1.06066 -1.06066 
C -1.341951 -0.77937 -1.5 -0.397805 -1.5 0 
C -1.5 0.397805 -1.341951 0.77937 -1.06066 1.06066 
C -0.77937 1.341951 -0.397805 1.5 0 1.5 
z
" id="m02beb9a937" style="stroke:#ff00ff;"/>
    </defs>
    <g>
     <use style="fill:#ff00ff;stroke:#ff00ff;" x="184.255021" xlink:href="#m02beb9a937" y="264.524897"/>
     <use style="fill:#ff00ff;stroke:#ff00ff;" x="184.255021" xlink:href="#m02beb9a937" y="264.524897"/>
    </g>
   </g>
   <g id="line2d_35">
    <path d="M 92.026554 298.944 
L 92.026554 298.370348 
L 93.863965 298.370348 
L 93.863965 297.796697 
L 98.43941 297.796697 
L 98.43941 296.649393 
L 105.951954 296.649393 
L 105.951954 296.075741 
L 106.382575 296.075741 
L 106.382575 295.50209 
L 107.213174 295.50209 
L 107.213174 294.928438 
L 108.006005 294.928438 
L 108.006005 294.354786 
L 109.131511 294.354786 
L 109.131511 292.633831 
L 109.31223 292.633831 
L 109.31223 292.060179 
L 109.491096 292.060179 
L 109.491096 290.912876 
L 111.023335 290.912876 
L 111.023335 289.765573 
L 111.185562 289.765573 
L 111.185562 289.191921 
L 111.505558 289.191921 
L 111.505558 288.618269 
L 112.128456 288.618269 
L 112.128456 287.470966 
L 112.431755 287.470966 
L 112.431755 286.897314 
L 113.167699 286.897314 
L 113.167699 286.323662 
L 113.73488 286.323662 
L 113.73488 285.75001 
L 113.873839 285.75001 
L 113.873839 285.176359 
L 114.284194 285.176359 
L 114.284194 284.602707 
L 114.552496 284.602707 
L 114.552496 284.029055 
L 114.685115 284.029055 
L 114.685115 282.3081 
L 115.077025 282.3081 
L 115.077025 281.734448 
L 115.835374 281.734448 
L 115.835374 280.587145 
L 116.081002 280.587145 
L 116.081002 280.013493 
L 116.797786 280.013493 
L 116.797786 279.439842 
L 117.259781 279.439842 
L 117.259781 278.292538 
L 118.363901 278.292538 
L 118.363901 277.718886 
L 118.786692 277.718886 
L 118.786692 277.145235 
L 124.743806 277.145235 
L 124.743806 276.571583 
L 130.558552 276.571583 
L 130.558552 275.997931 
L 131.439773 275.997931 
L 131.439773 275.42428 
L 132.084827 275.42428 
L 132.084827 274.850628 
L 132.326708 274.850628 
L 132.326708 274.276976 
L 136.86886 274.276976 
L 136.86886 273.703324 
L 139.887228 273.703324 
L 139.887228 273.129673 
L 140.317849 273.129673 
L 140.317849 272.556021 
L 140.767727 272.556021 
L 140.767727 271.982369 
L 146.495417 271.982369 
L 146.495417 271.408718 
L 148.083753 271.408718 
L 148.083753 270.835066 
L 149.646525 270.835066 
L 149.646525 269.687762 
L 157.551454 269.687762 
L 157.551454 269.114111 
L 160.442124 269.114111 
L 160.442124 268.540459 
L 160.727241 268.540459 
L 160.727241 267.966807 
L 160.793103 267.966807 
L 160.793103 267.393156 
L 170.392016 267.393156 
L 170.392016 266.819504 
L 172.434028 266.819504 
L 172.434028 266.245852 
L 175.19099 266.245852 
L 175.19099 265.6722 
L 184.215843 265.6722 
L 184.215843 265.098549 
L 184.255021 265.098549 
L 184.255021 264.524897 
L 338.688 264.524897 
" style="fill:none;stroke:#ff00ff;stroke-linecap:square;stroke-width:1.5;"/>
   </g>
   <g id="line2d_36">
    <defs>
     <path d="M -0 8.485281 
L 5.091169 0 
L 0 -8.485281 
L -5.091169 -0 
z
" id="m808d1690eb" style="stroke:#ff00ff;stroke-linejoin:miter;stroke-width:1.5;"/>
    </defs>
    <g>
     <use style="fill-opacity:0;stroke:#ff00ff;stroke-linejoin:miter;stroke-width:1.5;" x="131.439773" xlink:href="#m808d1690eb" y="275.997931"/>
     <use style="fill-opacity:0;stroke:#ff00ff;stroke-linejoin:miter;stroke-width:1.5;" x="184.255021" xlink:href="#m808d1690eb" y="265.098549"/>
     <use style="fill-opacity:0;stroke:#ff00ff;stroke-linejoin:miter;stroke-width:1.5;" x="184.255021" xlink:href="#m808d1690eb" y="264.524897"/>
     <use style="fill-opacity:0;stroke:#ff00ff;stroke-linejoin:miter;stroke-width:1.5;" x="184.255021" xlink:href="#m808d1690eb" y="264.524897"/>
     <use style="fill-opacity:0;stroke:#ff00ff;stroke-linejoin:miter;stroke-width:1.5;" x="338.688" xlink:href="#m808d1690eb" y="264.524897"/>
    </g>
   </g>
   <g id="line2d_37">
    <path style="fill:none;stroke:#ff00ff;stroke-linecap:square;stroke-width:1.5;"/>
    <g/>
   </g>
   <g id="line2d_38">
    <path clip-path="url(#pf710633c78)" d="M 122.865118 277.145235 
" style="fill:none;stroke:#ff00ff;stroke-linecap:square;stroke-width:1.5;"/>
    <defs>
     <path d="M -12 12 
L 12 -12 
M -12 -12 
L 12 12 
" id="m3077046fdd" style="stroke:#ff00ff;"/>
    </defs>
    <g clip-path="url(#pf710633c78)">
     <use style="fill:#ff00ff;stroke:#ff00ff;" x="122.865118" xlink:href="#m3077046fdd" y="277.145235"/>
    </g>
   </g>
   <g id="line2d_39">
    <defs>
     <path d="M 0 1.5 
C 0.397805 1.5 0.77937 1.341951 1.06066 1.06066 
C 1.341951 0.77937 1.5 0.397805 1.5 0 
C 1.5 -0.397805 1.341951 -0.77937 1.06066 -1.06066 
C 0.77937 -1.341951 0.397805 -1.5 0 -1.5 
C -0.397805 -1.5 -0.77937 -1.341951 -1.06066 -1.06066 
C -1.341951 -0.77937 -1.5 -0.397805 -1.5 0 
C -1.5 0.397805 -1.341951 0.77937 -1.06066 1.06066 
C -0.77937 1.341951 -0.397805 1.5 0 1.5 
z
" id="ma44a68a693" style="stroke:#ff7500;"/>
    </defs>
    <g>
     <use style="fill:#ff7500;stroke:#ff7500;" x="200.104849" xlink:href="#ma44a68a693" y="224.369277"/>
     <use style="fill:#ff7500;stroke:#ff7500;" x="200.104849" xlink:href="#ma44a68a693" y="224.369277"/>
    </g>
   </g>
   <g id="line2d_40">
    <path d="M 137.875944 298.944 
L 137.875944 298.370348 
L 139.058148 298.370348 
L 139.123342 297.223045 
L 139.188293 297.223045 
L 139.188293 296.649393 
L 139.918342 296.649393 
L 139.9494 294.928438 
L 140.042245 294.928438 
L 140.134598 293.207483 
L 140.348205 293.207483 
L 140.348205 292.060179 
L 140.469102 292.060179 
L 140.469102 290.912876 
L 140.738093 290.912876 
L 140.738093 289.765573 
L 140.944478 289.765573 
L 140.973763 288.618269 
L 141.061324 288.618269 
L 141.148448 286.897314 
L 141.235139 286.897314 
L 141.292695 285.75001 
L 141.521035 285.75001 
L 141.605898 284.602707 
L 141.71841 284.602707 
L 141.80232 282.881752 
L 142.106582 282.881752 
L 142.215919 281.734448 
L 142.593291 281.734448 
L 142.593291 281.160797 
L 143.247504 281.160797 
L 143.298796 280.013493 
L 143.703791 280.013493 
L 143.703791 279.439842 
L 144.075117 279.439842 
L 144.075117 278.86619 
L 144.245733 278.86619 
L 144.245733 278.292538 
L 144.486611 278.292538 
L 144.486611 277.718886 
L 144.865226 277.718886 
L 144.865226 277.145235 
L 145.799493 277.145235 
L 145.865929 275.997931 
L 146.019967 275.997931 
L 146.019967 275.42428 
L 153.105587 275.42428 
L 153.105587 274.850628 
L 153.395042 274.850628 
L 153.395042 274.276976 
L 153.959927 274.276976 
L 153.959927 273.703324 
L 154.139643 273.703324 
L 154.139643 273.129673 
L 154.614488 273.129673 
L 154.614488 272.556021 
L 154.8141 272.556021 
L 154.906477 271.408718 
L 154.959044 271.408718 
L 154.959044 270.835066 
L 155.412374 270.835066 
L 155.412374 270.261414 
L 155.691409 270.261414 
L 155.691409 269.687762 
L 155.816782 269.687762 
L 155.879132 268.540459 
L 155.97843 268.540459 
L 155.97843 267.966807 
L 156.187581 267.966807 
L 156.187581 267.393156 
L 156.918066 267.393156 
L 156.918066 266.245852 
L 157.093102 266.245852 
L 157.093102 265.6722 
L 157.277891 265.6722 
L 157.380981 264.524897 
L 158.689678 264.524897 
L 158.689678 263.951245 
L 162.829407 263.951245 
L 162.829407 263.377593 
L 163.037069 263.377593 
L 163.037069 262.803942 
L 163.2749 262.803942 
L 163.2749 262.23029 
L 163.453184 262.23029 
L 163.453184 261.656638 
L 163.653591 261.656638 
L 163.653591 261.082987 
L 163.77274 261.082987 
L 163.77274 260.509335 
L 164.256762 260.509335 
L 164.256762 259.935683 
L 164.425332 259.935683 
L 164.448194 258.78838 
L 164.765143 258.78838 
L 164.765143 258.214728 
L 165.504548 258.214728 
L 165.504548 257.641076 
L 167.397779 257.641076 
L 167.397779 257.067425 
L 167.595991 257.067425 
L 167.595991 256.493773 
L 167.929737 256.493773 
L 167.929737 255.920121 
L 168.674545 255.920121 
L 168.674545 255.346469 
L 168.906082 255.346469 
L 168.906082 254.772818 
L 169.128764 254.772818 
L 169.128764 254.199166 
L 169.342888 254.199166 
L 169.342888 253.625514 
L 169.678981 253.625514 
L 169.678981 253.051863 
L 170.04743 253.051863 
L 170.04743 252.478211 
L 171.396939 252.478211 
L 171.396939 251.904559 
L 171.994974 251.904559 
L 171.994974 251.330907 
L 172.9233 251.330907 
L 172.9233 250.757256 
L 173.31698 250.757256 
L 173.31698 250.183604 
L 173.431097 250.183604 
L 173.431097 249.609952 
L 173.849174 249.609952 
L 173.849174 249.036301 
L 174.008357 249.036301 
L 174.008357 248.462649 
L 174.464511 248.462649 
L 174.464511 247.888997 
L 174.925749 247.888997 
L 174.925749 247.315345 
L 175.063018 247.315345 
L 175.063018 246.741694 
L 175.203325 246.741694 
L 175.203325 246.168042 
L 175.496772 246.168042 
L 175.496772 245.59439 
L 175.963336 245.59439 
L 175.963336 245.020738 
L 176.375521 245.020738 
L 176.440729 243.873435 
L 176.543796 243.873435 
L 176.543796 243.299783 
L 176.830682 243.299783 
L 176.924031 241.578828 
L 177.296151 241.578828 
L 177.296151 241.005176 
L 177.48108 241.005176 
L 177.48108 240.431525 
L 179.236422 240.431525 
L 179.236422 239.857873 
L 180.070661 239.857873 
L 180.070661 239.284221 
L 180.488462 239.284221 
L 180.488462 238.71057 
L 181.123338 238.71057 
L 181.123338 238.136918 
L 181.514078 238.136918 
L 181.514078 237.563266 
L 183.044846 237.563266 
L 183.107652 236.415963 
L 183.299894 236.415963 
L 183.299894 235.842311 
L 183.705922 235.842311 
L 183.705922 235.268659 
L 184.548492 235.268659 
L 184.62768 234.121356 
L 184.67311 234.121356 
L 184.67311 233.547704 
L 185.62794 233.547704 
L 185.62794 232.974052 
L 186.05448 232.974052 
L 186.05448 232.400401 
L 187.753685 232.400401 
L 187.753685 231.826749 
L 188.972874 231.826749 
L 189.069645 230.679446 
L 189.376848 230.679446 
L 189.376848 230.105794 
L 190.206514 230.105794 
L 190.206514 229.532142 
L 192.52477 229.532142 
L 192.52477 228.95849 
L 192.872919 228.95849 
L 192.908695 227.811187 
L 193.696264 227.811187 
L 193.696264 227.237535 
L 194.4784 227.237535 
L 194.4784 226.663884 
L 196.170951 226.663884 
L 196.170951 226.090232 
L 199.395735 226.090232 
L 199.395735 225.51658 
L 199.684869 225.51658 
L 199.684869 224.942928 
L 200.104849 224.942928 
L 200.104849 224.369277 
L 338.688 224.369277 
L 338.688 224.369277 
" style="fill:none;stroke:#ff7500;stroke-linecap:square;stroke-width:1.5;"/>
   </g>
   <g id="line2d_41">
    <defs>
     <path d="M 0 -6 
L -1.347084 -1.854102 
L -5.706339 -1.854102 
L -2.179628 0.708204 
L -3.526712 4.854102 
L -0 2.291796 
L 3.526712 4.854102 
L 2.179628 0.708204 
L 5.706339 -1.854102 
L 1.347084 -1.854102 
z
" id="m6656427ef3" style="stroke:#ff7500;stroke-linejoin:bevel;stroke-width:1.5;"/>
    </defs>
    <g>
     <use style="fill-opacity:0;stroke:#ff7500;stroke-linejoin:bevel;stroke-width:1.5;" x="185.62794" xlink:href="#m6656427ef3" y="233.547704"/>
     <use style="fill-opacity:0;stroke:#ff7500;stroke-linejoin:bevel;stroke-width:1.5;" x="200.104849" xlink:href="#m6656427ef3" y="224.942928"/>
     <use style="fill-opacity:0;stroke:#ff7500;stroke-linejoin:bevel;stroke-width:1.5;" x="200.104849" xlink:href="#m6656427ef3" y="224.369277"/>
     <use style="fill-opacity:0;stroke:#ff7500;stroke-linejoin:bevel;stroke-width:1.5;" x="200.104849" xlink:href="#m6656427ef3" y="224.369277"/>
     <use style="fill-opacity:0;stroke:#ff7500;stroke-linejoin:bevel;stroke-width:1.5;" x="338.688" xlink:href="#m6656427ef3" y="224.369277"/>
    </g>
   </g>
   <g id="line2d_42">
    <path style="fill:none;stroke:#ff7500;stroke-linecap:square;stroke-width:1.5;"/>
    <g/>
   </g>
   <g id="line2d_43">
    <path clip-path="url(#pf710633c78)" d="M 145.097753 277.145235 
" style="fill:none;stroke:#ff7500;stroke-linecap:square;stroke-width:1.5;"/>
    <defs>
     <path d="M -12 12 
L 12 -12 
M -12 -12 
L 12 12 
" id="m9c5a94bce0" style="stroke:#ff7500;"/>
    </defs>
    <g clip-path="url(#pf710633c78)">
     <use style="fill:#ff7500;stroke:#ff7500;" x="145.097753" xlink:href="#m9c5a94bce0" y="277.145235"/>
    </g>
   </g>
   <g id="line2d_44">
    <defs>
     <path d="M 0 1.5 
C 0.397805 1.5 0.77937 1.341951 1.06066 1.06066 
C 1.341951 0.77937 1.5 0.397805 1.5 0 
C 1.5 -0.397805 1.341951 -0.77937 1.06066 -1.06066 
C 0.77937 -1.341951 0.397805 -1.5 0 -1.5 
C -0.397805 -1.5 -0.77937 -1.341951 -1.06066 -1.06066 
C -1.341951 -0.77937 -1.5 -0.397805 -1.5 0 
C -1.5 0.397805 -1.341951 0.77937 -1.06066 1.06066 
C -0.77937 1.341951 -0.397805 1.5 0 1.5 
z
" id="m004704e1de" style="stroke:#6495ed;"/>
    </defs>
    <g>
     <use style="fill:#6495ed;stroke:#6495ed;" x="220.928716" xlink:href="#m004704e1de" y="247.315345"/>
     <use style="fill:#6495ed;stroke:#6495ed;" x="220.928716" xlink:href="#m004704e1de" y="247.315345"/>
    </g>
   </g>
   <g id="line2d_45">
    <path d="M 133.57787 298.944 
L 133.57787 298.370348 
L 134.236034 298.370348 
L 134.236034 297.796697 
L 136.905847 297.796697 
L 136.905847 297.223045 
L 138.426341 297.223045 
L 138.426341 296.649393 
L 138.761723 296.649393 
L 138.761723 296.075741 
L 139.188293 296.075741 
L 139.188293 295.50209 
L 139.856059 295.50209 
L 139.856059 294.928438 
L 141.350061 294.928438 
L 141.435758 293.781135 
L 142.215919 293.781135 
L 142.215919 293.207483 
L 142.699628 293.207483 
L 142.699628 292.060179 
L 143.040814 292.060179 
L 143.040814 291.486528 
L 143.298796 291.486528 
L 143.298796 290.912876 
L 143.75376 290.912876 
L 143.75376 290.339224 
L 143.87806 290.339224 
L 143.952218 289.191921 
L 146.516724 289.191921 
L 146.516724 288.618269 
L 146.895853 288.618269 
L 146.895853 288.044617 
L 147.530079 288.044617 
L 147.530079 287.470966 
L 153.40939 287.470966 
L 153.40939 286.897314 
L 154.985269 286.897314 
L 154.985269 286.323662 
L 156.163105 286.323662 
L 156.163105 285.75001 
L 156.30945 285.75001 
L 156.418408 284.602707 
L 156.430472 284.602707 
L 156.430472 284.029055 
L 156.764934 284.029055 
L 156.764934 283.455404 
L 156.906335 283.455404 
L 156.906335 282.881752 
L 157.266399 282.881752 
L 157.266399 282.3081 
L 157.392398 282.3081 
L 157.392398 281.734448 
L 157.920731 281.734448 
L 157.942862 280.587145 
L 158.217157 280.587145 
L 158.293192 279.439842 
L 158.942121 279.439842 
L 159.025463 278.292538 
L 159.976013 278.292538 
L 159.976013 277.718886 
L 164.202782 277.718886 
L 164.256762 276.571583 
L 164.599841 276.571583 
L 164.607388 275.42428 
L 164.921483 275.42428 
L 164.943704 274.276976 
L 166.432722 274.276976 
L 166.432722 273.703324 
L 166.581603 273.703324 
L 166.65557 272.556021 
L 167.249248 272.556021 
L 167.249248 271.408718 
L 167.417059 271.408718 
L 167.417059 270.835066 
L 167.873511 270.835066 
L 167.873511 270.261414 
L 169.616809 270.261414 
L 169.616809 269.687762 
L 169.892068 269.687762 
L 169.892068 269.114111 
L 170.190466 269.114111 
L 170.190466 268.540459 
L 171.082245 268.540459 
L 171.082245 267.966807 
L 171.422484 267.966807 
L 171.422484 267.393156 
L 174.248782 267.393156 
L 174.248782 266.819504 
L 175.009071 266.819504 
L 175.009071 266.245852 
L 175.601537 266.245852 
L 175.649678 265.098549 
L 176.627328 265.098549 
L 176.627328 264.524897 
L 177.452201 264.524897 
L 177.452201 263.951245 
L 180.65763 263.951245 
L 180.65763 263.377593 
L 181.064699 263.377593 
L 181.064699 262.23029 
L 181.494031 262.23029 
L 181.494031 261.656638 
L 182.157501 261.656638 
L 182.157501 261.082987 
L 183.154609 261.082987 
L 183.154609 260.509335 
L 183.364365 260.509335 
L 183.364365 259.935683 
L 183.53598 259.935683 
L 183.53598 259.362031 
L 183.786508 259.362031 
L 183.786508 258.78838 
L 185.368293 258.78838 
L 185.368293 258.214728 
L 185.59173 258.214728 
L 185.59173 257.641076 
L 186.177587 257.641076 
L 186.177587 257.067425 
L 186.55893 257.067425 
L 186.55893 256.493773 
L 187.225427 256.493773 
L 187.225427 255.920121 
L 188.639395 255.920121 
L 188.639395 255.346469 
L 190.735666 255.346469 
L 190.735666 254.772818 
L 193.713336 254.772818 
L 193.713336 254.199166 
L 193.99404 254.199166 
L 193.99404 253.625514 
L 194.95894 253.625514 
L 194.95894 253.051863 
L 195.281632 253.051863 
L 195.281632 252.478211 
L 196.961723 252.478211 
L 196.961723 251.904559 
L 198.632983 251.904559 
L 198.632983 251.330907 
L 200.80804 251.330907 
L 200.80804 250.757256 
L 201.121407 250.757256 
L 201.121407 250.183604 
L 202.146959 250.183604 
L 202.146959 249.609952 
L 204.728826 249.609952 
L 204.728826 249.036301 
L 205.647069 249.036301 
L 205.647069 248.462649 
L 216.988357 248.462649 
L 216.988357 247.888997 
L 220.928716 247.888997 
L 220.928716 247.315345 
L 338.688 247.315345 
L 338.688 247.315345 
" style="fill:none;stroke:#6495ed;stroke-linecap:square;stroke-width:1.5;"/>
   </g>
   <g id="line2d_46">
    <defs>
     <path d="M -0 6 
L 6 -6 
L -6 -6 
z
" id="mf9b1ac9696" style="stroke:#6495ed;stroke-linejoin:miter;stroke-width:1.5;"/>
    </defs>
    <g>
     <use style="fill-opacity:0;stroke:#6495ed;stroke-linejoin:miter;stroke-width:1.5;" x="167.873511" xlink:href="#mf9b1ac9696" y="270.261414"/>
     <use style="fill-opacity:0;stroke:#6495ed;stroke-linejoin:miter;stroke-width:1.5;" x="220.928716" xlink:href="#mf9b1ac9696" y="247.888997"/>
     <use style="fill-opacity:0;stroke:#6495ed;stroke-linejoin:miter;stroke-width:1.5;" x="220.928716" xlink:href="#mf9b1ac9696" y="247.315345"/>
     <use style="fill-opacity:0;stroke:#6495ed;stroke-linejoin:miter;stroke-width:1.5;" x="220.928716" xlink:href="#mf9b1ac9696" y="247.315345"/>
     <use style="fill-opacity:0;stroke:#6495ed;stroke-linejoin:miter;stroke-width:1.5;" x="338.688" xlink:href="#mf9b1ac9696" y="247.315345"/>
    </g>
   </g>
   <g id="line2d_47">
    <path style="fill:none;stroke:#6495ed;stroke-linecap:square;stroke-width:1.5;"/>
    <g/>
   </g>
   <g id="line2d_48">
    <path clip-path="url(#pf710633c78)" d="M 147.429332 288.044617 
" style="fill:none;stroke:#6495ed;stroke-linecap:square;stroke-width:1.5;"/>
    <defs>
     <path d="M -12 12 
L 12 -12 
M -12 -12 
L 12 12 
" id="m74f3854e84" style="stroke:#6495ed;"/>
    </defs>
    <g clip-path="url(#pf710633c78)">
     <use style="fill:#6495ed;stroke:#6495ed;" x="147.429332" xlink:href="#m74f3854e84" y="288.044617"/>
    </g>
   </g>
   <g id="line2d_49">
    <defs>
     <path d="M 0 1.5 
C 0.397805 1.5 0.77937 1.341951 1.06066 1.06066 
C 1.341951 0.77937 1.5 0.397805 1.5 0 
C 1.5 -0.397805 1.341951 -0.77937 1.06066 -1.06066 
C 0.77937 -1.341951 0.397805 -1.5 0 -1.5 
C -0.397805 -1.5 -0.77937 -1.341951 -1.06066 -1.06066 
C -1.341951 -0.77937 -1.5 -0.397805 -1.5 0 
C -1.5 0.397805 -1.341951 0.77937 -1.06066 1.06066 
C -0.77937 1.341951 -0.397805 1.5 0 1.5 
z
" id="m89fffeb438" style="stroke:#ff0000;"/>
    </defs>
    <g>
     <use style="fill:#ff0000;stroke:#ff0000;" x="221.059921" xlink:href="#m89fffeb438" y="92.429381"/>
     <use style="fill:#ff0000;stroke:#ff0000;" x="221.059921" xlink:href="#m89fffeb438" y="92.429381"/>
    </g>
   </g>
   <g id="line2d_50">
    <path d="M 29.53256 298.944 
L 29.53256 275.42428 
L 91.029752 275.42428 
L 91.029752 274.850628 
L 97.403108 274.850628 
L 97.403108 274.276976 
L 98.43941 274.276976 
L 98.43941 273.703324 
L 99.41757 273.703324 
L 99.41757 273.129673 
L 99.731799 273.129673 
L 99.731799 272.556021 
L 100.641881 272.556021 
L 100.641881 271.982369 
L 100.934985 271.982369 
L 100.934985 271.408718 
L 101.506816 271.408718 
L 101.506816 270.835066 
L 102.060491 270.835066 
L 102.060491 270.261414 
L 102.330873 270.261414 
L 102.330873 269.687762 
L 102.597126 269.687762 
L 102.597126 269.114111 
L 102.859376 269.114111 
L 102.859376 268.540459 
L 103.372333 268.540459 
L 103.372333 266.245852 
L 103.870632 266.245852 
L 103.870632 264.524897 
L 104.114542 264.524897 
L 104.114542 263.377593 
L 104.355088 263.377593 
L 104.355088 262.803942 
L 104.826449 262.803942 
L 104.826449 262.23029 
L 105.057436 262.23029 
L 105.057436 261.656638 
L 105.51043 261.656638 
L 105.51043 261.082987 
L 114.947365 261.082987 
L 114.947365 260.509335 
L 115.33349 260.509335 
L 115.33349 259.935683 
L 115.711251 259.935683 
L 115.711251 258.78838 
L 115.958621 258.78838 
L 115.958621 258.214728 
L 116.081002 258.214728 
L 116.081002 257.641076 
L 118.470564 257.641076 
L 118.470564 257.067425 
L 119.097192 257.067425 
L 119.097192 256.493773 
L 120.286695 256.493773 
L 120.286695 255.920121 
L 122.782271 255.920121 
L 122.782271 255.346469 
L 125.183475 255.346469 
L 125.183475 254.772818 
L 126.304457 254.772818 
L 126.304457 254.199166 
L 127.923363 254.199166 
L 127.923363 253.625514 
L 128.411207 253.625514 
L 128.411207 253.051863 
L 128.590686 253.051863 
L 128.590686 252.478211 
L 129.46138 252.478211 
L 129.46138 251.904559 
L 129.574256 251.904559 
L 129.574256 251.330907 
L 130.182344 251.330907 
L 130.182344 250.757256 
L 130.978796 250.757256 
L 130.978796 250.183604 
L 135.482227 250.183604 
L 135.482227 249.609952 
L 136.150782 249.609952 
L 136.227776 248.462649 
L 136.304433 248.462649 
L 136.304433 247.888997 
L 136.418789 247.888997 
L 136.494612 246.741694 
L 136.5324 246.741694 
L 136.5324 245.59439 
L 136.645276 245.59439 
L 136.720123 244.447087 
L 136.757427 244.447087 
L 136.831795 243.299783 
L 137.126135 243.299783 
L 137.126135 242.726132 
L 137.558536 242.726132 
L 137.558536 242.15248 
L 137.70032 242.15248 
L 137.70032 241.578828 
L 138.118883 241.578828 
L 138.187677 240.431525 
L 138.89409 240.431525 
L 138.89409 239.857873 
L 140.973763 239.857873 
L 140.973763 239.284221 
L 141.80232 239.284221 
L 141.80232 238.71057 
L 142.106582 238.71057 
L 142.106582 238.136918 
L 142.619936 238.136918 
L 142.726112 236.989614 
L 143.144465 236.989614 
L 143.247504 235.842311 
L 143.273169 235.842311 
L 143.273169 235.268659 
L 143.703791 235.268659 
L 143.703791 234.695008 
L 144.099593 234.695008 
L 144.099593 234.121356 
L 145.865929 234.121356 
L 145.888018 232.974052 
L 146.302479 232.974052 
L 146.302479 232.400401 
L 146.516724 232.400401 
L 146.516724 231.826749 
L 146.791364 231.826749 
L 146.791364 231.253097 
L 147.082371 231.253097 
L 147.082371 230.679446 
L 147.429332 230.679446 
L 147.48985 229.532142 
L 147.550159 229.532142 
L 147.550159 228.95849 
L 147.927346 228.95849 
L 148.005725 227.811187 
L 148.161434 227.811187 
L 148.161434 227.237535 
L 148.296548 227.237535 
L 148.373289 225.51658 
L 148.563676 225.51658 
L 148.639252 223.795625 
L 148.78943 223.795625 
L 148.78943 223.221973 
L 148.975352 223.221973 
L 149.030744 220.927366 
L 149.141003 220.927366 
L 149.232356 218.059108 
L 149.305096 218.059108 
L 149.377533 216.338153 
L 149.467659 216.338153 
L 149.467659 215.190849 
L 149.593058 215.190849 
L 149.682079 212.896242 
L 149.717561 212.896242 
L 149.770648 211.748939 
L 149.876341 211.748939 
L 149.893895 210.027984 
L 151.031458 210.027984 
L 151.031458 209.454332 
L 151.276281 209.454332 
L 151.276281 208.88068 
L 152.344968 208.88068 
L 152.344968 208.307029 
L 152.647216 208.307029 
L 152.647216 207.733377 
L 155.55245 207.733377 
L 155.590458 206.586073 
L 156.430472 206.586073 
L 156.430472 206.012422 
L 156.550661 206.012422 
L 156.658127 204.865118 
L 156.976607 204.865118 
L 156.976607 204.291467 
L 157.472107 204.291467 
L 157.472107 203.717815 
L 158.83738 203.717815 
L 158.83738 203.144163 
L 159.056614 203.144163 
L 159.129083 201.99686 
L 159.221818 201.99686 
L 159.221818 201.423208 
L 159.426147 201.423208 
L 159.426147 200.849556 
L 159.648178 200.849556 
L 159.648178 200.275904 
L 160.442124 200.275904 
L 160.442124 199.702253 
L 160.613753 199.702253 
L 160.613753 199.128601 
L 160.811875 199.128601 
L 160.914762 197.981298 
L 161.118732 197.981298 
L 161.192316 196.260342 
L 161.238149 196.260342 
L 161.320345 195.113039 
L 161.393084 195.113039 
L 161.438393 191.671129 
L 161.53766 191.671129 
L 161.53766 191.097477 
L 161.698887 191.097477 
L 161.778945 187.655567 
L 161.823263 187.655567 
L 161.823263 187.081915 
L 161.937967 187.081915 
L 162.034438 185.36096 
L 162.086834 185.36096 
L 162.086834 184.787308 
L 162.260361 184.787308 
L 162.260361 184.213656 
L 163.629664 184.213656 
L 163.629664 183.640005 
L 163.922502 183.640005 
L 163.922502 183.066353 
L 164.225937 183.066353 
L 164.225937 182.492701 
L 164.973287 182.492701 
L 165.069087 181.345398 
L 165.54035 181.345398 
L 165.54035 180.771746 
L 165.682828 180.771746 
L 165.682828 180.198094 
L 165.845252 180.198094 
L 165.936393 178.477139 
L 166.541125 178.477139 
L 166.635428 177.329836 
L 167.105982 177.329836 
L 167.164734 176.182532 
L 167.365597 176.182532 
L 167.417059 174.461577 
L 167.570541 174.461577 
L 167.570541 173.887925 
L 167.973343 173.887925 
L 168.060229 172.16697 
L 168.189752 172.16697 
L 168.189752 171.593319 
L 168.433833 171.593319 
L 168.506396 170.446015 
L 168.584667 170.446015 
L 168.620674 168.72506 
L 168.740162 168.72506 
L 168.847006 167.577757 
L 168.900184 167.577757 
L 168.911979 166.430453 
L 169.093793 166.430453 
L 169.140406 164.709498 
L 170.113593 164.709498 
L 170.113593 164.135846 
L 170.740545 164.135846 
L 170.740545 163.562195 
L 171.092653 163.562195 
L 171.092653 162.988543 
L 171.885947 162.988543 
L 171.925672 161.841239 
L 171.999913 161.841239 
L 171.999913 161.267588 
L 172.635197 161.267588 
L 172.725446 158.399329 
L 172.768032 158.399329 
L 172.768032 157.825677 
L 172.9233 157.825677 
L 172.9233 157.252026 
L 173.390101 157.252026 
L 173.390101 156.678374 
L 173.701969 156.678374 
L 173.746708 154.957419 
L 173.933369 154.957419 
L 173.990742 152.662812 
L 174.339714 152.662812 
L 174.352665 151.515508 
L 174.451642 151.515508 
L 174.451642 150.941857 
L 174.875564 150.941857 
L 174.963293 149.794553 
L 175.876553 149.794553 
L 175.947589 148.64725 
L 176.120024 148.64725 
L 176.120024 148.073598 
L 176.375521 148.073598 
L 176.375521 147.499946 
L 176.559013 147.499946 
L 176.559013 146.926295 
L 177.042792 146.926295 
L 177.042792 146.352643 
L 177.219431 146.352643 
L 177.219431 145.778991 
L 177.40517 145.778991 
L 177.40517 145.20534 
L 177.542289 145.20534 
L 177.646212 144.058036 
L 177.813334 144.058036 
L 177.887492 142.910733 
L 178.052329 142.910733 
L 178.052329 142.337081 
L 179.075871 142.337081 
L 179.075871 141.763429 
L 179.453585 141.763429 
L 179.546749 140.616126 
L 179.706217 140.616126 
L 179.706217 140.042474 
L 180.014607 140.042474 
L 180.039542 138.895171 
L 180.302303 138.895171 
L 180.345204 137.747867 
L 180.558141 137.747867 
L 180.603434 136.600564 
L 180.672655 136.600564 
L 180.735618 134.879609 
L 180.819217 134.879609 
L 180.819217 134.305957 
L 181.070572 134.305957 
L 181.070572 133.732305 
L 181.237121 133.732305 
L 181.237121 133.158653 
L 181.531243 133.158653 
L 181.531243 132.585002 
L 181.985629 132.585002 
L 182.052361 131.437698 
L 182.129894 131.437698 
L 182.140942 130.290395 
L 182.357718 130.290395 
L 182.357718 129.716743 
L 182.644413 129.716743 
L 182.644413 129.143091 
L 182.886832 129.143091 
L 182.886832 128.56944 
L 183.32829 128.56944 
L 183.35149 127.422136 
L 183.525781 127.422136 
L 183.60974 125.701181 
L 184.284347 125.701181 
L 184.284347 125.127529 
L 184.406012 125.127529 
L 184.46411 123.980226 
L 184.646823 123.980226 
L 184.646823 123.406574 
L 185.206924 123.406574 
L 185.206924 122.832923 
L 185.478089 122.832923 
L 185.478089 122.259271 
L 185.724881 122.259271 
L 185.742857 121.111967 
L 185.974879 121.111967 
L 185.974879 120.538316 
L 186.406095 120.538316 
L 186.406095 119.964664 
L 186.610292 119.964664 
L 186.610292 119.391012 
L 186.858534 119.391012 
L 186.858534 118.817361 
L 186.984481 118.817361 
L 187.057531 117.096405 
L 187.21511 117.096405 
L 187.21511 116.522754 
L 187.540246 116.522754 
L 187.540246 115.949102 
L 187.867387 115.949102 
L 187.958609 114.801798 
L 188.015875 114.801798 
L 188.015875 114.228147 
L 188.599403 114.228147 
L 188.664106 113.080843 
L 188.984067 113.080843 
L 188.984067 112.507192 
L 189.487724 112.507192 
L 189.487724 111.93354 
L 190.644343 111.93354 
L 190.720479 110.212585 
L 190.925234 110.212585 
L 190.925234 109.638933 
L 191.291765 109.638933 
L 191.291765 109.065281 
L 191.904972 109.065281 
L 191.904972 108.49163 
L 192.082309 108.49163 
L 192.178848 107.344326 
L 192.754635 107.344326 
L 192.798149 105.623371 
L 193.011144 105.623371 
L 193.114466 104.476068 
L 193.182032 104.476068 
L 193.182032 103.902416 
L 193.670624 103.902416 
L 193.670624 103.328764 
L 193.888777 103.328764 
L 193.888777 102.755112 
L 194.345885 102.755112 
L 194.345885 102.181461 
L 196.042027 102.181461 
L 196.042027 101.607809 
L 197.160066 101.607809 
L 197.160066 101.034157 
L 197.630944 101.034157 
L 197.630944 100.460506 
L 198.235977 100.460506 
L 198.235977 99.886854 
L 198.515691 99.886854 
L 198.584655 98.73955 
L 199.152808 98.73955 
L 199.152808 98.165899 
L 200.008977 98.165899 
L 200.008977 97.592247 
L 202.001693 97.592247 
L 202.001693 97.018595 
L 205.357029 97.018595 
L 205.458114 95.871292 
L 205.912595 95.871292 
L 205.912595 95.29764 
L 206.519372 95.29764 
L 206.564347 94.150337 
L 213.179149 94.150337 
L 213.179149 93.576685 
L 217.610158 93.576685 
L 217.610158 93.003033 
L 221.059921 93.003033 
L 221.059921 92.429381 
L 338.688 92.429381 
L 338.688 92.429381 
" style="fill:none;stroke:#ff0000;stroke-linecap:square;stroke-width:1.5;"/>
   </g>
   <g id="line2d_51">
    <defs>
     <path d="M 0 -6 
L -5.196152 -3 
L -5.196152 3 
L -0 6 
L 5.196152 3 
L 5.196152 -3 
z
" id="mbe4c02176b" style="stroke:#ff0000;stroke-linejoin:miter;stroke-width:1.5;"/>
    </defs>
    <g>
     <use style="fill-opacity:0;stroke:#ff0000;stroke-linejoin:miter;stroke-width:1.5;" x="102.330873" xlink:href="#mbe4c02176b" y="269.687762"/>
     <use style="fill-opacity:0;stroke:#ff0000;stroke-linejoin:miter;stroke-width:1.5;" x="164.225937" xlink:href="#mbe4c02176b" y="182.492701"/>
     <use style="fill-opacity:0;stroke:#ff0000;stroke-linejoin:miter;stroke-width:1.5;" x="217.610158" xlink:href="#mbe4c02176b" y="93.003033"/>
     <use style="fill-opacity:0;stroke:#ff0000;stroke-linejoin:miter;stroke-width:1.5;" x="221.059921" xlink:href="#mbe4c02176b" y="92.429381"/>
     <use style="fill-opacity:0;stroke:#ff0000;stroke-linejoin:miter;stroke-width:1.5;" x="221.059921" xlink:href="#mbe4c02176b" y="92.429381"/>
     <use style="fill-opacity:0;stroke:#ff0000;stroke-linejoin:miter;stroke-width:1.5;" x="338.688" xlink:href="#mbe4c02176b" y="92.429381"/>
    </g>
   </g>
   <g id="line2d_52">
    <path style="fill:none;stroke:#ff0000;stroke-linecap:square;stroke-width:1.5;"/>
    <g/>
   </g>
   <g id="line2d_53">
    <path clip-path="url(#pf710633c78)" d="M 149.998846 210.027984 
" style="fill:none;stroke:#ff0000;stroke-linecap:square;stroke-width:1.5;"/>
    <defs>
     <path d="M -12 12 
L 12 -12 
M -12 -12 
L 12 12 
" id="md0b9561b68" style="stroke:#ff0000;"/>
    </defs>
    <g clip-path="url(#pf710633c78)">
     <use style="fill:#ff0000;stroke:#ff0000;" x="149.998846" xlink:href="#md0b9561b68" y="210.027984"/>
    </g>
   </g>
   <g id="line2d_54">
    <path d="M 338.688 264.524897 
L 369.60768 293.092752 
" style="fill:none;stroke:#ff00ff;stroke-linecap:square;stroke-width:1.5;"/>
    <g>
     <use style="fill-opacity:0;stroke:#ff00ff;stroke-linejoin:miter;stroke-width:1.5;" x="338.688" xlink:href="#m808d1690eb" y="264.524897"/>
     <use style="fill-opacity:0;stroke:#ff00ff;stroke-linejoin:miter;stroke-width:1.5;" x="369.60768" xlink:href="#m808d1690eb" y="293.092752"/>
    </g>
   </g>
   <g id="line2d_55">
    <path d="M 338.688 247.315345 
L 369.60768 222.877782 
" style="fill:none;stroke:#6495ed;stroke-linecap:square;stroke-width:1.5;"/>
    <g>
     <use style="fill-opacity:0;stroke:#6495ed;stroke-linejoin:miter;stroke-width:1.5;" x="338.688" xlink:href="#mf9b1ac9696" y="247.315345"/>
     <use style="fill-opacity:0;stroke:#6495ed;stroke-linejoin:miter;stroke-width:1.5;" x="369.60768" xlink:href="#mf9b1ac9696" y="222.877782"/>
    </g>
   </g>
   <g id="line2d_56">
    <path d="M 338.688 224.369277 
L 369.60768 152.662812 
" style="fill:none;stroke:#ff7500;stroke-linecap:square;stroke-width:1.5;"/>
    <g>
     <use style="fill-opacity:0;stroke:#ff7500;stroke-linejoin:bevel;stroke-width:1.5;" x="338.688" xlink:href="#m6656427ef3" y="224.369277"/>
     <use style="fill-opacity:0;stroke:#ff7500;stroke-linejoin:bevel;stroke-width:1.5;" x="369.60768" xlink:href="#m6656427ef3" y="152.662812"/>
    </g>
   </g>
   <g id="line2d_57">
    <path d="M 338.688 212.896242 
L 369.60768 82.447842 
" style="fill:none;stroke:#000080;stroke-linecap:square;stroke-width:1.5;"/>
    <g>
     <use style="fill-opacity:0;stroke:#000080;stroke-width:1.5;" x="338.688" xlink:href="#m0db876b7f4" y="212.896242"/>
     <use style="fill-opacity:0;stroke:#000080;stroke-width:1.5;" x="369.60768" xlink:href="#m0db876b7f4" y="82.447842"/>
    </g>
   </g>
   <g id="line2d_58">
    <path d="M 338.688 92.429381 
L 369.60768 12.232871 
" style="fill:none;stroke:#ff0000;stroke-linecap:square;stroke-width:1.5;"/>
    <g>
     <use style="fill-opacity:0;stroke:#ff0000;stroke-linejoin:miter;stroke-width:1.5;" x="338.688" xlink:href="#mbe4c02176b" y="92.429381"/>
     <use style="fill-opacity:0;stroke:#ff0000;stroke-linejoin:miter;stroke-width:1.5;" x="369.60768" xlink:href="#mbe4c02176b" y="12.232871"/>
    </g>
   </g>
   <g id="line2d_59">
    <path d="M 338.688 298.944 
L 338.688 6.381624 
" style="fill:none;stroke:#000000;stroke-linecap:square;stroke-width:1.5;"/>
   </g>
   <g id="patch_3">
    <path d="M 57.6 298.944 
L 57.6 3.456 
" style="fill:none;stroke:#000000;stroke-linecap:square;stroke-linejoin:miter;stroke-width:0.8;"/>
   </g>
   <g id="patch_4">
    <path d="M 338.688 298.944 
L 338.688 3.456 
" style="fill:none;stroke:#000000;stroke-linecap:square;stroke-linejoin:miter;stroke-width:0.8;"/>
   </g>
   <g id="patch_5">
    <path d="M 57.6 298.944 
L 338.688 298.944 
" style="fill:none;stroke:#000000;stroke-linecap:square;stroke-linejoin:miter;stroke-width:0.8;"/>
   </g>
   <g id="patch_6">
    <path d="M 57.6 3.456 
L 338.688 3.456 
" style="fill:none;stroke:#000000;stroke-linecap:square;stroke-linejoin:miter;stroke-width:0.8;"/>
   </g>
   <g id="text_13">
    <!-- f11 -->
    <g transform="translate(375.22944 297.78369)scale(0.17 -0.17)">
     <use xlink:href="#DejaVuSans-102"/>
     <use x="35.205078" xlink:href="#DejaVuSans-49"/>
     <use x="98.828125" xlink:href="#DejaVuSans-49"/>
    </g>
   </g>
   <g id="text_14">
    <!-- f13 -->
    <g transform="translate(375.22944 227.56872)scale(0.17 -0.17)">
     <defs>
      <path d="M 40.578125 39.3125 
Q 47.65625 37.796875 51.625 33 
Q 55.609375 28.21875 55.609375 21.1875 
Q 55.609375 10.40625 48.1875 4.484375 
Q 40.765625 -1.421875 27.09375 -1.421875 
Q 22.515625 -1.421875 17.65625 -0.515625 
Q 12.796875 0.390625 7.625 2.203125 
L 7.625 11.71875 
Q 11.71875 9.328125 16.59375 8.109375 
Q 21.484375 6.890625 26.8125 6.890625 
Q 36.078125 6.890625 40.9375 10.546875 
Q 45.796875 14.203125 45.796875 21.1875 
Q 45.796875 27.640625 41.28125 31.265625 
Q 36.765625 34.90625 28.71875 34.90625 
L 20.21875 34.90625 
L 20.21875 43.015625 
L 29.109375 43.015625 
Q 36.375 43.015625 40.234375 45.921875 
Q 44.09375 48.828125 44.09375 54.296875 
Q 44.09375 59.90625 40.109375 62.90625 
Q 36.140625 65.921875 28.71875 65.921875 
Q 24.65625 65.921875 20.015625 65.03125 
Q 15.375 64.15625 9.8125 62.3125 
L 9.8125 71.09375 
Q 15.4375 72.65625 20.34375 73.4375 
Q 25.25 74.21875 29.59375 74.21875 
Q 40.828125 74.21875 47.359375 69.109375 
Q 53.90625 64.015625 53.90625 55.328125 
Q 53.90625 49.265625 50.4375 45.09375 
Q 46.96875 40.921875 40.578125 39.3125 
z
" id="DejaVuSans-51"/>
     </defs>
     <use xlink:href="#DejaVuSans-102"/>
     <use x="35.205078" xlink:href="#DejaVuSans-49"/>
     <use x="98.828125" xlink:href="#DejaVuSans-51"/>
    </g>
   </g>
   <g id="text_15">
    <!-- f12 -->
    <g transform="translate(375.22944 157.353749)scale(0.17 -0.17)">
     <use xlink:href="#DejaVuSans-102"/>
     <use x="35.205078" xlink:href="#DejaVuSans-49"/>
     <use x="98.828125" xlink:href="#DejaVuSans-50"/>
    </g>
   </g>
   <g id="text_16">
    <!-- f10 -->
    <g transform="translate(375.22944 87.138779)scale(0.17 -0.17)">
     <use xlink:href="#DejaVuSans-102"/>
     <use x="35.205078" xlink:href="#DejaVuSans-49"/>
     <use x="98.828125" xlink:href="#DejaVuSans-48"/>
    </g>
   </g>
   <g id="text_17">
    <!-- f14 -->
    <g transform="translate(375.22944 16.923809)scale(0.17 -0.17)">
     <use xlink:href="#DejaVuSans-102"/>
     <use x="35.205078" xlink:href="#DejaVuSans-49"/>
     <use x="98.828125" xlink:href="#DejaVuSans-52"/>
    </g>
   </g>
   <g id="text_18">
    <!-- bbob -->
    <g transform="translate(60.41088 14.161286)scale(0.102 -0.102)">
     <defs>
      <path d="M 48.6875 27.296875 
Q 48.6875 37.203125 44.609375 42.84375 
Q 40.53125 48.484375 33.40625 48.484375 
Q 26.265625 48.484375 22.1875 42.84375 
Q 18.109375 37.203125 18.109375 27.296875 
Q 18.109375 17.390625 22.1875 11.75 
Q 26.265625 6.109375 33.40625 6.109375 
Q 40.53125 6.109375 44.609375 11.75 
Q 48.6875 17.390625 48.6875 27.296875 
z
M 18.109375 46.390625 
Q 20.953125 51.265625 25.265625 53.625 
Q 29.59375 56 35.59375 56 
Q 45.5625 56 51.78125 48.09375 
Q 58.015625 40.1875 58.015625 27.296875 
Q 58.015625 14.40625 51.78125 6.484375 
Q 45.5625 -1.421875 35.59375 -1.421875 
Q 29.59375 -1.421875 25.265625 0.953125 
Q 20.953125 3.328125 18.109375 8.203125 
L 18.109375 0 
L 9.078125 0 
L 9.078125 75.984375 
L 18.109375 75.984375 
z
" id="DejaVuSans-98"/>
     </defs>
     <use xlink:href="#DejaVuSans-98"/>
     <use x="63.476562" xlink:href="#DejaVuSans-98"/>
     <use x="126.953125" xlink:href="#DejaVuSans-111"/>
     <use x="188.134766" xlink:href="#DejaVuSans-98"/>
    </g>
    <!-- Ill-conditioned functions, 5-D -->
    <g transform="translate(60.41088 25.583055)scale(0.102 -0.102)">
     <defs>
      <path d="M 9.8125 72.90625 
L 19.671875 72.90625 
L 19.671875 0 
L 9.8125 0 
z
" id="DejaVuSans-73"/>
      <path d="M 10.796875 72.90625 
L 49.515625 72.90625 
L 49.515625 64.59375 
L 19.828125 64.59375 
L 19.828125 46.734375 
Q 21.96875 47.46875 24.109375 47.828125 
Q 26.265625 48.1875 28.421875 48.1875 
Q 40.625 48.1875 47.75 41.5 
Q 54.890625 34.8125 54.890625 23.390625 
Q 54.890625 11.625 47.5625 5.09375 
Q 40.234375 -1.421875 26.90625 -1.421875 
Q 22.3125 -1.421875 17.546875 -0.640625 
Q 12.796875 0.140625 7.71875 1.703125 
L 7.71875 11.625 
Q 12.109375 9.234375 16.796875 8.0625 
Q 21.484375 6.890625 26.703125 6.890625 
Q 35.15625 6.890625 40.078125 11.328125 
Q 45.015625 15.765625 45.015625 23.390625 
Q 45.015625 31 40.078125 35.4375 
Q 35.15625 39.890625 26.703125 39.890625 
Q 22.75 39.890625 18.8125 39.015625 
Q 14.890625 38.140625 10.796875 36.28125 
z
" id="DejaVuSans-53"/>
      <path d="M 19.671875 64.796875 
L 19.671875 8.109375 
L 31.59375 8.109375 
Q 46.6875 8.109375 53.6875 14.9375 
Q 60.6875 21.78125 60.6875 36.53125 
Q 60.6875 51.171875 53.6875 57.984375 
Q 46.6875 64.796875 31.59375 64.796875 
z
M 9.8125 72.90625 
L 30.078125 72.90625 
Q 51.265625 72.90625 61.171875 64.09375 
Q 71.09375 55.28125 71.09375 36.53125 
Q 71.09375 17.671875 61.125 8.828125 
Q 51.171875 0 30.078125 0 
L 9.8125 0 
z
" id="DejaVuSans-68"/>
     </defs>
     <use xlink:href="#DejaVuSans-73"/>
     <use x="29.492188" xlink:href="#DejaVuSans-108"/>
     <use x="57.275391" xlink:href="#DejaVuSans-108"/>
     <use x="85.058594" xlink:href="#DejaVuSans-45"/>
     <use x="121.142578" xlink:href="#DejaVuSans-99"/>
     <use x="176.123047" xlink:href="#DejaVuSans-111"/>
     <use x="237.304688" xlink:href="#DejaVuSans-110"/>
     <use x="300.683594" xlink:href="#DejaVuSans-100"/>
     <use x="364.160156" xlink:href="#DejaVuSans-105"/>
     <use x="391.943359" xlink:href="#DejaVuSans-116"/>
     <use x="431.152344" xlink:href="#DejaVuSans-105"/>
     <use x="458.935547" xlink:href="#DejaVuSans-111"/>
     <use x="520.117188" xlink:href="#DejaVuSans-110"/>
     <use x="583.496094" xlink:href="#DejaVuSans-101"/>
     <use x="645.019531" xlink:href="#DejaVuSans-100"/>
     <use x="708.496094" xlink:href="#DejaVuSans-32"/>
     <use x="740.283203" xlink:href="#DejaVuSans-102"/>
     <use x="775.488281" xlink:href="#DejaVuSans-117"/>
     <use x="838.867188" xlink:href="#DejaVuSans-110"/>
     <use x="902.246094" xlink:href="#DejaVuSans-99"/>
     <use x="957.226562" xlink:href="#DejaVuSans-116"/>
     <use x="996.435547" xlink:href="#DejaVuSans-105"/>
     <use x="1024.21875" xlink:href="#DejaVuSans-111"/>
     <use x="1085.400391" xlink:href="#DejaVuSans-110"/>
     <use x="1148.779297" xlink:href="#DejaVuSans-115"/>
     <use x="1200.878906" xlink:href="#DejaVuSans-44"/>
     <use x="1232.666016" xlink:href="#DejaVuSans-32"/>
     <use x="1264.453125" xlink:href="#DejaVuSans-53"/>
     <use x="1328.076172" xlink:href="#DejaVuSans-45"/>
     <use x="1364.160156" xlink:href="#DejaVuSans-68"/>
    </g>
    <!-- 51 targets: 100..1e-08 -->
    <g transform="translate(60.41088 37.004824)scale(0.102 -0.102)">
     <defs>
      <path d="M 11.71875 12.40625 
L 22.015625 12.40625 
L 22.015625 0 
L 11.71875 0 
z
M 11.71875 51.703125 
L 22.015625 51.703125 
L 22.015625 39.3125 
L 11.71875 39.3125 
z
" id="DejaVuSans-58"/>
     </defs>
     <use xlink:href="#DejaVuSans-53"/>
     <use x="63.623047" xlink:href="#DejaVuSans-49"/>
     <use x="127.246094" xlink:href="#DejaVuSans-32"/>
     <use x="159.033203" xlink:href="#DejaVuSans-116"/>
     <use x="198.242188" xlink:href="#DejaVuSans-97"/>
     <use x="259.521484" xlink:href="#DejaVuSans-114"/>
     <use x="298.884766" xlink:href="#DejaVuSans-103"/>
     <use x="362.361328" xlink:href="#DejaVuSans-101"/>
     <use x="423.884766" xlink:href="#DejaVuSans-116"/>
     <use x="463.09375" xlink:href="#DejaVuSans-115"/>
     <use x="515.193359" xlink:href="#DejaVuSans-58"/>
     <use x="548.884766" xlink:href="#DejaVuSans-32"/>
     <use x="580.671875" xlink:href="#DejaVuSans-49"/>
     <use x="644.294922" xlink:href="#DejaVuSans-48"/>
     <use x="707.917969" xlink:href="#DejaVuSans-48"/>
     <use x="771.541016" xlink:href="#DejaVuSans-46"/>
     <use x="803.328125" xlink:href="#DejaVuSans-46"/>
     <use x="835.115234" xlink:href="#DejaVuSans-49"/>
     <use x="898.738281" xlink:href="#DejaVuSans-101"/>
     <use x="960.261719" xlink:href="#DejaVuSans-45"/>
     <use x="996.345703" xlink:href="#DejaVuSans-48"/>
     <use x="1059.96875" xlink:href="#DejaVuSans-56"/>
    </g>
    <!-- 15 instances -->
    <g transform="translate(60.41088 48.426593)scale(0.102 -0.102)">
     <use xlink:href="#DejaVuSans-49"/>
     <use x="63.623047" xlink:href="#DejaVuSans-53"/>
     <use x="127.246094" xlink:href="#DejaVuSans-32"/>
     <use x="159.033203" xlink:href="#DejaVuSans-105"/>
     <use x="186.816406" xlink:href="#DejaVuSans-110"/>
     <use x="250.195312" xlink:href="#DejaVuSans-115"/>
     <use x="302.294922" xlink:href="#DejaVuSans-116"/>
     <use x="341.503906" xlink:href="#DejaVuSans-97"/>
     <use x="402.783203" xlink:href="#DejaVuSans-110"/>
     <use x="466.162109" xlink:href="#DejaVuSans-99"/>
     <use x="521.142578" xlink:href="#DejaVuSans-101"/>
     <use x="582.666016" xlink:href="#DejaVuSans-115"/>
    </g>
   </g>
   <g id="text_19">
    <!-- v2.4 -->
    <g style="fill:#808080;" transform="translate(187.233062 293.909432)scale(0.1 -0.1)">
     <use xlink:href="#DejaVuSans-118"/>
     <use x="59.179688" xlink:href="#DejaVuSans-50"/>
     <use x="122.802734" xlink:href="#DejaVuSans-46"/>
     <use x="154.589844" xlink:href="#DejaVuSans-52"/>
    </g>
   </g>
  </g>
 </g>
 <defs>
  <clipPath id="pf710633c78">
   <rect height="295.488" width="281.088" x="57.6" y="3.456"/>
  </clipPath>
 </defs>
</svg>
