<?xml version="1.0" encoding="utf-8" standalone="no"?>
<!DOCTYPE svg PUBLIC "-//W3C//DTD SVG 1.1//EN"
  "http://www.w3.org/Graphics/SVG/1.1/DTD/svg11.dtd">
<!-- Created with matplotlib (https://matplotlib.org/) -->
<svg height="345.6pt" version="1.1" viewBox="0 0 460.8 345.6" width="460.8pt" xmlns="http://www.w3.org/2000/svg" xmlns:xlink="http://www.w3.org/1999/xlink">
 <metadata>
  <rdf:RDF xmlns:cc="http://creativecommons.org/ns#" xmlns:dc="http://purl.org/dc/elements/1.1/" xmlns:rdf="http://www.w3.org/1999/02/22-rdf-syntax-ns#">
   <cc:Work>
    <dc:type rdf:resource="http://purl.org/dc/dcmitype/StillImage"/>
    <dc:date>2021-08-04T10:26:10.327782</dc:date>
    <dc:format>image/svg+xml</dc:format>
    <dc:creator>
     <cc:Agent>
      <dc:title>Matplotlib v3.3.1, https://matplotlib.org/</dc:title>
     </cc:Agent>
    </dc:creator>
   </cc:Work>
  </rdf:RDF>
 </metadata>
 <defs>
  <style type="text/css">*{stroke-linecap:butt;stroke-linejoin:round;}</style>
 </defs>
 <g id="figure_1">
  <g id="patch_1">
   <path d="M 0 345.6 
L 460.8 345.6 
L 460.8 0 
L 0 0 
z
" style="fill:#ffffff;"/>
  </g>
  <g id="axes_1">
   <g id="patch_2">
    <path d="M 57.6 298.944 
L 338.688 298.944 
L 338.688 3.456 
L 57.6 3.456 
z
" style="fill:#ffffff;"/>
   </g>
   <g id="matplotlib.axis_1">
    <g id="xtick_1">
     <g id="line2d_1">
      <path clip-path="url(#pf08fff02cc)" d="M 57.6 298.944 
L 57.6 3.456 
" style="fill:none;stroke:#b0b0b0;stroke-linecap:square;stroke-width:0.8;"/>
     </g>
     <g id="line2d_2">
      <defs>
       <path d="M 0 0 
L 0 3.5 
" id="m74d28b6c4d" style="stroke:#000000;stroke-width:0.8;"/>
      </defs>
      <g>
       <use style="stroke:#000000;stroke-width:0.8;" x="57.6" xlink:href="#m74d28b6c4d" y="298.944"/>
      </g>
     </g>
     <g id="text_1">
      <!-- 0 -->
      <g transform="translate(51.2375 321.140875)scale(0.2 -0.2)">
       <defs>
        <path d="M 31.78125 66.40625 
Q 24.171875 66.40625 20.328125 58.90625 
Q 16.5 51.421875 16.5 36.375 
Q 16.5 21.390625 20.328125 13.890625 
Q 24.171875 6.390625 31.78125 6.390625 
Q 39.453125 6.390625 43.28125 13.890625 
Q 47.125 21.390625 47.125 36.375 
Q 47.125 51.421875 43.28125 58.90625 
Q 39.453125 66.40625 31.78125 66.40625 
z
M 31.78125 74.21875 
Q 44.046875 74.21875 50.515625 64.515625 
Q 56.984375 54.828125 56.984375 36.375 
Q 56.984375 17.96875 50.515625 8.265625 
Q 44.046875 -1.421875 31.78125 -1.421875 
Q 19.53125 -1.421875 13.0625 8.265625 
Q 6.59375 17.96875 6.59375 36.375 
Q 6.59375 54.828125 13.0625 64.515625 
Q 19.53125 74.21875 31.78125 74.21875 
z
" id="DejaVuSans-48"/>
       </defs>
       <use xlink:href="#DejaVuSans-48"/>
      </g>
     </g>
    </g>
    <g id="xtick_2">
     <g id="line2d_3">
      <path clip-path="url(#pf08fff02cc)" d="M 137.910857 298.944 
L 137.910857 3.456 
" style="fill:none;stroke:#b0b0b0;stroke-linecap:square;stroke-width:0.8;"/>
     </g>
     <g id="line2d_4">
      <g>
       <use style="stroke:#000000;stroke-width:0.8;" x="137.910857" xlink:href="#m74d28b6c4d" y="298.944"/>
      </g>
     </g>
     <g id="text_2">
      <!-- 2 -->
      <g transform="translate(131.548357 321.140875)scale(0.2 -0.2)">
       <defs>
        <path d="M 19.1875 8.296875 
L 53.609375 8.296875 
L 53.609375 0 
L 7.328125 0 
L 7.328125 8.296875 
Q 12.9375 14.109375 22.625 23.890625 
Q 32.328125 33.6875 34.8125 36.53125 
Q 39.546875 41.84375 41.421875 45.53125 
Q 43.3125 49.21875 43.3125 52.78125 
Q 43.3125 58.59375 39.234375 62.25 
Q 35.15625 65.921875 28.609375 65.921875 
Q 23.96875 65.921875 18.8125 64.3125 
Q 13.671875 62.703125 7.8125 59.421875 
L 7.8125 69.390625 
Q 13.765625 71.78125 18.9375 73 
Q 24.125 74.21875 28.421875 74.21875 
Q 39.75 74.21875 46.484375 68.546875 
Q 53.21875 62.890625 53.21875 53.421875 
Q 53.21875 48.921875 51.53125 44.890625 
Q 49.859375 40.875 45.40625 35.40625 
Q 44.1875 33.984375 37.640625 27.21875 
Q 31.109375 20.453125 19.1875 8.296875 
z
" id="DejaVuSans-50"/>
       </defs>
       <use xlink:href="#DejaVuSans-50"/>
      </g>
     </g>
    </g>
    <g id="xtick_3">
     <g id="line2d_5">
      <path clip-path="url(#pf08fff02cc)" d="M 218.221714 298.944 
L 218.221714 3.456 
" style="fill:none;stroke:#b0b0b0;stroke-linecap:square;stroke-width:0.8;"/>
     </g>
     <g id="line2d_6">
      <g>
       <use style="stroke:#000000;stroke-width:0.8;" x="218.221714" xlink:href="#m74d28b6c4d" y="298.944"/>
      </g>
     </g>
     <g id="text_3">
      <!-- 4 -->
      <g transform="translate(211.859214 321.140875)scale(0.2 -0.2)">
       <defs>
        <path d="M 37.796875 64.3125 
L 12.890625 25.390625 
L 37.796875 25.390625 
z
M 35.203125 72.90625 
L 47.609375 72.90625 
L 47.609375 25.390625 
L 58.015625 25.390625 
L 58.015625 17.1875 
L 47.609375 17.1875 
L 47.609375 0 
L 37.796875 0 
L 37.796875 17.1875 
L 4.890625 17.1875 
L 4.890625 26.703125 
z
" id="DejaVuSans-52"/>
       </defs>
       <use xlink:href="#DejaVuSans-52"/>
      </g>
     </g>
    </g>
    <g id="xtick_4">
     <g id="line2d_7">
      <path clip-path="url(#pf08fff02cc)" d="M 298.532571 298.944 
L 298.532571 3.456 
" style="fill:none;stroke:#b0b0b0;stroke-linecap:square;stroke-width:0.8;"/>
     </g>
     <g id="line2d_8">
      <g>
       <use style="stroke:#000000;stroke-width:0.8;" x="298.532571" xlink:href="#m74d28b6c4d" y="298.944"/>
      </g>
     </g>
     <g id="text_4">
      <!-- 6 -->
      <g transform="translate(292.170071 321.140875)scale(0.2 -0.2)">
       <defs>
        <path d="M 33.015625 40.375 
Q 26.375 40.375 22.484375 35.828125 
Q 18.609375 31.296875 18.609375 23.390625 
Q 18.609375 15.53125 22.484375 10.953125 
Q 26.375 6.390625 33.015625 6.390625 
Q 39.65625 6.390625 43.53125 10.953125 
Q 47.40625 15.53125 47.40625 23.390625 
Q 47.40625 31.296875 43.53125 35.828125 
Q 39.65625 40.375 33.015625 40.375 
z
M 52.59375 71.296875 
L 52.59375 62.3125 
Q 48.875 64.0625 45.09375 64.984375 
Q 41.3125 65.921875 37.59375 65.921875 
Q 27.828125 65.921875 22.671875 59.328125 
Q 17.53125 52.734375 16.796875 39.40625 
Q 19.671875 43.65625 24.015625 45.921875 
Q 28.375 48.1875 33.59375 48.1875 
Q 44.578125 48.1875 50.953125 41.515625 
Q 57.328125 34.859375 57.328125 23.390625 
Q 57.328125 12.15625 50.6875 5.359375 
Q 44.046875 -1.421875 33.015625 -1.421875 
Q 20.359375 -1.421875 13.671875 8.265625 
Q 6.984375 17.96875 6.984375 36.375 
Q 6.984375 53.65625 15.1875 63.9375 
Q 23.390625 74.21875 37.203125 74.21875 
Q 40.921875 74.21875 44.703125 73.484375 
Q 48.484375 72.75 52.59375 71.296875 
z
" id="DejaVuSans-54"/>
       </defs>
       <use xlink:href="#DejaVuSans-54"/>
      </g>
     </g>
    </g>
    <g id="xtick_5">
     <g id="line2d_9">
      <path clip-path="url(#pf08fff02cc)" d="M 97.755429 298.944 
L 97.755429 3.456 
" style="fill:none;stroke:#b0b0b0;stroke-linecap:square;stroke-width:0.8;"/>
     </g>
     <g id="line2d_10">
      <defs>
       <path d="M 0 0 
L 0 2 
" id="me85643ddc8" style="stroke:#000000;stroke-width:0.6;"/>
      </defs>
      <g>
       <use style="stroke:#000000;stroke-width:0.6;" x="97.755429" xlink:href="#me85643ddc8" y="298.944"/>
      </g>
     </g>
    </g>
    <g id="xtick_6">
     <g id="line2d_11">
      <path clip-path="url(#pf08fff02cc)" d="M 178.066286 298.944 
L 178.066286 3.456 
" style="fill:none;stroke:#b0b0b0;stroke-linecap:square;stroke-width:0.8;"/>
     </g>
     <g id="line2d_12">
      <g>
       <use style="stroke:#000000;stroke-width:0.6;" x="178.066286" xlink:href="#me85643ddc8" y="298.944"/>
      </g>
     </g>
    </g>
    <g id="xtick_7">
     <g id="line2d_13">
      <path clip-path="url(#pf08fff02cc)" d="M 258.377143 298.944 
L 258.377143 3.456 
" style="fill:none;stroke:#b0b0b0;stroke-linecap:square;stroke-width:0.8;"/>
     </g>
     <g id="line2d_14">
      <g>
       <use style="stroke:#000000;stroke-width:0.6;" x="258.377143" xlink:href="#me85643ddc8" y="298.944"/>
      </g>
     </g>
    </g>
    <g id="xtick_8">
     <g id="line2d_15">
      <path clip-path="url(#pf08fff02cc)" d="M 338.688 298.944 
L 338.688 3.456 
" style="fill:none;stroke:#b0b0b0;stroke-linecap:square;stroke-width:0.8;"/>
     </g>
     <g id="line2d_16">
      <g>
       <use style="stroke:#000000;stroke-width:0.6;" x="338.688" xlink:href="#me85643ddc8" y="298.944"/>
      </g>
     </g>
    </g>
    <g id="text_5">
     <!-- log10(# f-evals / dimension) -->
     <g transform="translate(77.764078 342.217594)scale(0.17 -0.17)">
      <defs>
       <path d="M 9.421875 75.984375 
L 18.40625 75.984375 
L 18.40625 0 
L 9.421875 0 
z
" id="DejaVuSans-108"/>
       <path d="M 30.609375 48.390625 
Q 23.390625 48.390625 19.1875 42.75 
Q 14.984375 37.109375 14.984375 27.296875 
Q 14.984375 17.484375 19.15625 11.84375 
Q 23.34375 6.203125 30.609375 6.203125 
Q 37.796875 6.203125 41.984375 11.859375 
Q 46.1875 17.53125 46.1875 27.296875 
Q 46.1875 37.015625 41.984375 42.703125 
Q 37.796875 48.390625 30.609375 48.390625 
z
M 30.609375 56 
Q 42.328125 56 49.015625 48.375 
Q 55.71875 40.765625 55.71875 27.296875 
Q 55.71875 13.875 49.015625 6.21875 
Q 42.328125 -1.421875 30.609375 -1.421875 
Q 18.84375 -1.421875 12.171875 6.21875 
Q 5.515625 13.875 5.515625 27.296875 
Q 5.515625 40.765625 12.171875 48.375 
Q 18.84375 56 30.609375 56 
z
" id="DejaVuSans-111"/>
       <path d="M 45.40625 27.984375 
Q 45.40625 37.75 41.375 43.109375 
Q 37.359375 48.484375 30.078125 48.484375 
Q 22.859375 48.484375 18.828125 43.109375 
Q 14.796875 37.75 14.796875 27.984375 
Q 14.796875 18.265625 18.828125 12.890625 
Q 22.859375 7.515625 30.078125 7.515625 
Q 37.359375 7.515625 41.375 12.890625 
Q 45.40625 18.265625 45.40625 27.984375 
z
M 54.390625 6.78125 
Q 54.390625 -7.171875 48.1875 -13.984375 
Q 42 -20.796875 29.203125 -20.796875 
Q 24.46875 -20.796875 20.265625 -20.09375 
Q 16.0625 -19.390625 12.109375 -17.921875 
L 12.109375 -9.1875 
Q 16.0625 -11.328125 19.921875 -12.34375 
Q 23.78125 -13.375 27.78125 -13.375 
Q 36.625 -13.375 41.015625 -8.765625 
Q 45.40625 -4.15625 45.40625 5.171875 
L 45.40625 9.625 
Q 42.625 4.78125 38.28125 2.390625 
Q 33.9375 0 27.875 0 
Q 17.828125 0 11.671875 7.65625 
Q 5.515625 15.328125 5.515625 27.984375 
Q 5.515625 40.671875 11.671875 48.328125 
Q 17.828125 56 27.875 56 
Q 33.9375 56 38.28125 53.609375 
Q 42.625 51.21875 45.40625 46.390625 
L 45.40625 54.6875 
L 54.390625 54.6875 
z
" id="DejaVuSans-103"/>
       <path d="M 12.40625 8.296875 
L 28.515625 8.296875 
L 28.515625 63.921875 
L 10.984375 60.40625 
L 10.984375 69.390625 
L 28.421875 72.90625 
L 38.28125 72.90625 
L 38.28125 8.296875 
L 54.390625 8.296875 
L 54.390625 0 
L 12.40625 0 
z
" id="DejaVuSans-49"/>
       <path d="M 31 75.875 
Q 24.46875 64.65625 21.28125 53.65625 
Q 18.109375 42.671875 18.109375 31.390625 
Q 18.109375 20.125 21.3125 9.0625 
Q 24.515625 -2 31 -13.1875 
L 23.1875 -13.1875 
Q 15.875 -1.703125 12.234375 9.375 
Q 8.59375 20.453125 8.59375 31.390625 
Q 8.59375 42.28125 12.203125 53.3125 
Q 15.828125 64.359375 23.1875 75.875 
z
" id="DejaVuSans-40"/>
       <path d="M 51.125 44 
L 36.921875 44 
L 32.8125 27.6875 
L 47.125 27.6875 
z
M 43.796875 71.78125 
L 38.71875 51.515625 
L 52.984375 51.515625 
L 58.109375 71.78125 
L 65.921875 71.78125 
L 60.890625 51.515625 
L 76.125 51.515625 
L 76.125 44 
L 58.984375 44 
L 54.984375 27.6875 
L 70.515625 27.6875 
L 70.515625 20.21875 
L 53.078125 20.21875 
L 48 0 
L 40.1875 0 
L 45.21875 20.21875 
L 30.90625 20.21875 
L 25.875 0 
L 18.015625 0 
L 23.09375 20.21875 
L 7.71875 20.21875 
L 7.71875 27.6875 
L 24.90625 27.6875 
L 29 44 
L 13.28125 44 
L 13.28125 51.515625 
L 30.90625 51.515625 
L 35.890625 71.78125 
z
" id="DejaVuSans-35"/>
       <path id="DejaVuSans-32"/>
       <path d="M 37.109375 75.984375 
L 37.109375 68.5 
L 28.515625 68.5 
Q 23.6875 68.5 21.796875 66.546875 
Q 19.921875 64.59375 19.921875 59.515625 
L 19.921875 54.6875 
L 34.71875 54.6875 
L 34.71875 47.703125 
L 19.921875 47.703125 
L 19.921875 0 
L 10.890625 0 
L 10.890625 47.703125 
L 2.296875 47.703125 
L 2.296875 54.6875 
L 10.890625 54.6875 
L 10.890625 58.5 
Q 10.890625 67.625 15.140625 71.796875 
Q 19.390625 75.984375 28.609375 75.984375 
z
" id="DejaVuSans-102"/>
       <path d="M 4.890625 31.390625 
L 31.203125 31.390625 
L 31.203125 23.390625 
L 4.890625 23.390625 
z
" id="DejaVuSans-45"/>
       <path d="M 56.203125 29.59375 
L 56.203125 25.203125 
L 14.890625 25.203125 
Q 15.484375 15.921875 20.484375 11.0625 
Q 25.484375 6.203125 34.421875 6.203125 
Q 39.59375 6.203125 44.453125 7.46875 
Q 49.3125 8.734375 54.109375 11.28125 
L 54.109375 2.78125 
Q 49.265625 0.734375 44.1875 -0.34375 
Q 39.109375 -1.421875 33.890625 -1.421875 
Q 20.796875 -1.421875 13.15625 6.1875 
Q 5.515625 13.8125 5.515625 26.8125 
Q 5.515625 40.234375 12.765625 48.109375 
Q 20.015625 56 32.328125 56 
Q 43.359375 56 49.78125 48.890625 
Q 56.203125 41.796875 56.203125 29.59375 
z
M 47.21875 32.234375 
Q 47.125 39.59375 43.09375 43.984375 
Q 39.0625 48.390625 32.421875 48.390625 
Q 24.90625 48.390625 20.390625 44.140625 
Q 15.875 39.890625 15.1875 32.171875 
z
" id="DejaVuSans-101"/>
       <path d="M 2.984375 54.6875 
L 12.5 54.6875 
L 29.59375 8.796875 
L 46.6875 54.6875 
L 56.203125 54.6875 
L 35.6875 0 
L 23.484375 0 
z
" id="DejaVuSans-118"/>
       <path d="M 34.28125 27.484375 
Q 23.390625 27.484375 19.1875 25 
Q 14.984375 22.515625 14.984375 16.5 
Q 14.984375 11.71875 18.140625 8.90625 
Q 21.296875 6.109375 26.703125 6.109375 
Q 34.1875 6.109375 38.703125 11.40625 
Q 43.21875 16.703125 43.21875 25.484375 
L 43.21875 27.484375 
z
M 52.203125 31.203125 
L 52.203125 0 
L 43.21875 0 
L 43.21875 8.296875 
Q 40.140625 3.328125 35.546875 0.953125 
Q 30.953125 -1.421875 24.3125 -1.421875 
Q 15.921875 -1.421875 10.953125 3.296875 
Q 6 8.015625 6 15.921875 
Q 6 25.140625 12.171875 29.828125 
Q 18.359375 34.515625 30.609375 34.515625 
L 43.21875 34.515625 
L 43.21875 35.40625 
Q 43.21875 41.609375 39.140625 45 
Q 35.0625 48.390625 27.6875 48.390625 
Q 23 48.390625 18.546875 47.265625 
Q 14.109375 46.140625 10.015625 43.890625 
L 10.015625 52.203125 
Q 14.9375 54.109375 19.578125 55.046875 
Q 24.21875 56 28.609375 56 
Q 40.484375 56 46.34375 49.84375 
Q 52.203125 43.703125 52.203125 31.203125 
z
" id="DejaVuSans-97"/>
       <path d="M 44.28125 53.078125 
L 44.28125 44.578125 
Q 40.484375 46.53125 36.375 47.5 
Q 32.28125 48.484375 27.875 48.484375 
Q 21.1875 48.484375 17.84375 46.4375 
Q 14.5 44.390625 14.5 40.28125 
Q 14.5 37.15625 16.890625 35.375 
Q 19.28125 33.59375 26.515625 31.984375 
L 29.59375 31.296875 
Q 39.15625 29.25 43.1875 25.515625 
Q 47.21875 21.78125 47.21875 15.09375 
Q 47.21875 7.46875 41.1875 3.015625 
Q 35.15625 -1.421875 24.609375 -1.421875 
Q 20.21875 -1.421875 15.453125 -0.5625 
Q 10.6875 0.296875 5.421875 2 
L 5.421875 11.28125 
Q 10.40625 8.6875 15.234375 7.390625 
Q 20.0625 6.109375 24.8125 6.109375 
Q 31.15625 6.109375 34.5625 8.28125 
Q 37.984375 10.453125 37.984375 14.40625 
Q 37.984375 18.0625 35.515625 20.015625 
Q 33.0625 21.96875 24.703125 23.78125 
L 21.578125 24.515625 
Q 13.234375 26.265625 9.515625 29.90625 
Q 5.8125 33.546875 5.8125 39.890625 
Q 5.8125 47.609375 11.28125 51.796875 
Q 16.75 56 26.8125 56 
Q 31.78125 56 36.171875 55.265625 
Q 40.578125 54.546875 44.28125 53.078125 
z
" id="DejaVuSans-115"/>
       <path d="M 25.390625 72.90625 
L 33.6875 72.90625 
L 8.296875 -9.28125 
L 0 -9.28125 
z
" id="DejaVuSans-47"/>
       <path d="M 45.40625 46.390625 
L 45.40625 75.984375 
L 54.390625 75.984375 
L 54.390625 0 
L 45.40625 0 
L 45.40625 8.203125 
Q 42.578125 3.328125 38.25 0.953125 
Q 33.9375 -1.421875 27.875 -1.421875 
Q 17.96875 -1.421875 11.734375 6.484375 
Q 5.515625 14.40625 5.515625 27.296875 
Q 5.515625 40.1875 11.734375 48.09375 
Q 17.96875 56 27.875 56 
Q 33.9375 56 38.25 53.625 
Q 42.578125 51.265625 45.40625 46.390625 
z
M 14.796875 27.296875 
Q 14.796875 17.390625 18.875 11.75 
Q 22.953125 6.109375 30.078125 6.109375 
Q 37.203125 6.109375 41.296875 11.75 
Q 45.40625 17.390625 45.40625 27.296875 
Q 45.40625 37.203125 41.296875 42.84375 
Q 37.203125 48.484375 30.078125 48.484375 
Q 22.953125 48.484375 18.875 42.84375 
Q 14.796875 37.203125 14.796875 27.296875 
z
" id="DejaVuSans-100"/>
       <path d="M 9.421875 54.6875 
L 18.40625 54.6875 
L 18.40625 0 
L 9.421875 0 
z
M 9.421875 75.984375 
L 18.40625 75.984375 
L 18.40625 64.59375 
L 9.421875 64.59375 
z
" id="DejaVuSans-105"/>
       <path d="M 52 44.1875 
Q 55.375 50.25 60.0625 53.125 
Q 64.75 56 71.09375 56 
Q 79.640625 56 84.28125 50.015625 
Q 88.921875 44.046875 88.921875 33.015625 
L 88.921875 0 
L 79.890625 0 
L 79.890625 32.71875 
Q 79.890625 40.578125 77.09375 44.375 
Q 74.3125 48.1875 68.609375 48.1875 
Q 61.625 48.1875 57.5625 43.546875 
Q 53.515625 38.921875 53.515625 30.90625 
L 53.515625 0 
L 44.484375 0 
L 44.484375 32.71875 
Q 44.484375 40.625 41.703125 44.40625 
Q 38.921875 48.1875 33.109375 48.1875 
Q 26.21875 48.1875 22.15625 43.53125 
Q 18.109375 38.875 18.109375 30.90625 
L 18.109375 0 
L 9.078125 0 
L 9.078125 54.6875 
L 18.109375 54.6875 
L 18.109375 46.1875 
Q 21.1875 51.21875 25.484375 53.609375 
Q 29.78125 56 35.6875 56 
Q 41.65625 56 45.828125 52.96875 
Q 50 49.953125 52 44.1875 
z
" id="DejaVuSans-109"/>
       <path d="M 54.890625 33.015625 
L 54.890625 0 
L 45.90625 0 
L 45.90625 32.71875 
Q 45.90625 40.484375 42.875 44.328125 
Q 39.84375 48.1875 33.796875 48.1875 
Q 26.515625 48.1875 22.3125 43.546875 
Q 18.109375 38.921875 18.109375 30.90625 
L 18.109375 0 
L 9.078125 0 
L 9.078125 54.6875 
L 18.109375 54.6875 
L 18.109375 46.1875 
Q 21.34375 51.125 25.703125 53.5625 
Q 30.078125 56 35.796875 56 
Q 45.21875 56 50.046875 50.171875 
Q 54.890625 44.34375 54.890625 33.015625 
z
" id="DejaVuSans-110"/>
       <path d="M 8.015625 75.875 
L 15.828125 75.875 
Q 23.140625 64.359375 26.78125 53.3125 
Q 30.421875 42.28125 30.421875 31.390625 
Q 30.421875 20.453125 26.78125 9.375 
Q 23.140625 -1.703125 15.828125 -13.1875 
L 8.015625 -13.1875 
Q 14.5 -2 17.703125 9.0625 
Q 20.90625 20.125 20.90625 31.390625 
Q 20.90625 42.671875 17.703125 53.65625 
Q 14.5 64.65625 8.015625 75.875 
z
" id="DejaVuSans-41"/>
      </defs>
      <use xlink:href="#DejaVuSans-108"/>
      <use x="27.783203" xlink:href="#DejaVuSans-111"/>
      <use x="88.964844" xlink:href="#DejaVuSans-103"/>
      <use x="152.441406" xlink:href="#DejaVuSans-49"/>
      <use x="216.064453" xlink:href="#DejaVuSans-48"/>
      <use x="279.6875" xlink:href="#DejaVuSans-40"/>
      <use x="318.701172" xlink:href="#DejaVuSans-35"/>
      <use x="402.490234" xlink:href="#DejaVuSans-32"/>
      <use x="434.277344" xlink:href="#DejaVuSans-102"/>
      <use x="463.982422" xlink:href="#DejaVuSans-45"/>
      <use x="500.066406" xlink:href="#DejaVuSans-101"/>
      <use x="561.589844" xlink:href="#DejaVuSans-118"/>
      <use x="620.769531" xlink:href="#DejaVuSans-97"/>
      <use x="682.048828" xlink:href="#DejaVuSans-108"/>
      <use x="709.832031" xlink:href="#DejaVuSans-115"/>
      <use x="761.931641" xlink:href="#DejaVuSans-32"/>
      <use x="793.71875" xlink:href="#DejaVuSans-47"/>
      <use x="827.410156" xlink:href="#DejaVuSans-32"/>
      <use x="859.197266" xlink:href="#DejaVuSans-100"/>
      <use x="922.673828" xlink:href="#DejaVuSans-105"/>
      <use x="950.457031" xlink:href="#DejaVuSans-109"/>
      <use x="1047.869141" xlink:href="#DejaVuSans-101"/>
      <use x="1109.392578" xlink:href="#DejaVuSans-110"/>
      <use x="1172.771484" xlink:href="#DejaVuSans-115"/>
      <use x="1224.871094" xlink:href="#DejaVuSans-105"/>
      <use x="1252.654297" xlink:href="#DejaVuSans-111"/>
      <use x="1313.835938" xlink:href="#DejaVuSans-110"/>
      <use x="1377.214844" xlink:href="#DejaVuSans-41"/>
     </g>
    </g>
   </g>
   <g id="matplotlib.axis_2">
    <g id="ytick_1">
     <g id="line2d_17">
      <path clip-path="url(#pf08fff02cc)" d="M 57.6 298.944 
L 338.688 298.944 
" style="fill:none;stroke:#b0b0b0;stroke-linecap:square;stroke-width:0.8;"/>
     </g>
     <g id="line2d_18">
      <defs>
       <path d="M 0 0 
L -3.5 0 
" id="m49a3c00801" style="stroke:#000000;stroke-width:0.8;"/>
      </defs>
      <g>
       <use style="stroke:#000000;stroke-width:0.8;" x="57.6" xlink:href="#m49a3c00801" y="298.944"/>
      </g>
     </g>
     <g id="text_6">
      <!-- 0.0 -->
      <g transform="translate(25.155 305.02275)scale(0.16 -0.16)">
       <defs>
        <path d="M 10.6875 12.40625 
L 21 12.40625 
L 21 0 
L 10.6875 0 
z
" id="DejaVuSans-46"/>
       </defs>
       <use xlink:href="#DejaVuSans-48"/>
       <use x="63.623047" xlink:href="#DejaVuSans-46"/>
       <use x="95.410156" xlink:href="#DejaVuSans-48"/>
      </g>
     </g>
    </g>
    <g id="ytick_2">
     <g id="line2d_19">
      <path clip-path="url(#pf08fff02cc)" d="M 57.6 240.431525 
L 338.688 240.431525 
" style="fill:none;stroke:#b0b0b0;stroke-linecap:square;stroke-width:0.8;"/>
     </g>
     <g id="line2d_20">
      <g>
       <use style="stroke:#000000;stroke-width:0.8;" x="57.6" xlink:href="#m49a3c00801" y="240.431525"/>
      </g>
     </g>
     <g id="text_7">
      <!-- 0.2 -->
      <g transform="translate(25.155 246.510275)scale(0.16 -0.16)">
       <use xlink:href="#DejaVuSans-48"/>
       <use x="63.623047" xlink:href="#DejaVuSans-46"/>
       <use x="95.410156" xlink:href="#DejaVuSans-50"/>
      </g>
     </g>
    </g>
    <g id="ytick_3">
     <g id="line2d_21">
      <path clip-path="url(#pf08fff02cc)" d="M 57.6 181.91905 
L 338.688 181.91905 
" style="fill:none;stroke:#b0b0b0;stroke-linecap:square;stroke-width:0.8;"/>
     </g>
     <g id="line2d_22">
      <g>
       <use style="stroke:#000000;stroke-width:0.8;" x="57.6" xlink:href="#m49a3c00801" y="181.91905"/>
      </g>
     </g>
     <g id="text_8">
      <!-- 0.4 -->
      <g transform="translate(25.155 187.9978)scale(0.16 -0.16)">
       <use xlink:href="#DejaVuSans-48"/>
       <use x="63.623047" xlink:href="#DejaVuSans-46"/>
       <use x="95.410156" xlink:href="#DejaVuSans-52"/>
      </g>
     </g>
    </g>
    <g id="ytick_4">
     <g id="line2d_23">
      <path clip-path="url(#pf08fff02cc)" d="M 57.6 123.406574 
L 338.688 123.406574 
" style="fill:none;stroke:#b0b0b0;stroke-linecap:square;stroke-width:0.8;"/>
     </g>
     <g id="line2d_24">
      <g>
       <use style="stroke:#000000;stroke-width:0.8;" x="57.6" xlink:href="#m49a3c00801" y="123.406574"/>
      </g>
     </g>
     <g id="text_9">
      <!-- 0.6 -->
      <g transform="translate(25.155 129.485324)scale(0.16 -0.16)">
       <use xlink:href="#DejaVuSans-48"/>
       <use x="63.623047" xlink:href="#DejaVuSans-46"/>
       <use x="95.410156" xlink:href="#DejaVuSans-54"/>
      </g>
     </g>
    </g>
    <g id="ytick_5">
     <g id="line2d_25">
      <path clip-path="url(#pf08fff02cc)" d="M 57.6 64.894099 
L 338.688 64.894099 
" style="fill:none;stroke:#b0b0b0;stroke-linecap:square;stroke-width:0.8;"/>
     </g>
     <g id="line2d_26">
      <g>
       <use style="stroke:#000000;stroke-width:0.8;" x="57.6" xlink:href="#m49a3c00801" y="64.894099"/>
      </g>
     </g>
     <g id="text_10">
      <!-- 0.8 -->
      <g transform="translate(25.155 70.972849)scale(0.16 -0.16)">
       <defs>
        <path d="M 31.78125 34.625 
Q 24.75 34.625 20.71875 30.859375 
Q 16.703125 27.09375 16.703125 20.515625 
Q 16.703125 13.921875 20.71875 10.15625 
Q 24.75 6.390625 31.78125 6.390625 
Q 38.8125 6.390625 42.859375 10.171875 
Q 46.921875 13.96875 46.921875 20.515625 
Q 46.921875 27.09375 42.890625 30.859375 
Q 38.875 34.625 31.78125 34.625 
z
M 21.921875 38.8125 
Q 15.578125 40.375 12.03125 44.71875 
Q 8.5 49.078125 8.5 55.328125 
Q 8.5 64.0625 14.71875 69.140625 
Q 20.953125 74.21875 31.78125 74.21875 
Q 42.671875 74.21875 48.875 69.140625 
Q 55.078125 64.0625 55.078125 55.328125 
Q 55.078125 49.078125 51.53125 44.71875 
Q 48 40.375 41.703125 38.8125 
Q 48.828125 37.15625 52.796875 32.3125 
Q 56.78125 27.484375 56.78125 20.515625 
Q 56.78125 9.90625 50.3125 4.234375 
Q 43.84375 -1.421875 31.78125 -1.421875 
Q 19.734375 -1.421875 13.25 4.234375 
Q 6.78125 9.90625 6.78125 20.515625 
Q 6.78125 27.484375 10.78125 32.3125 
Q 14.796875 37.15625 21.921875 38.8125 
z
M 18.3125 54.390625 
Q 18.3125 48.734375 21.84375 45.5625 
Q 25.390625 42.390625 31.78125 42.390625 
Q 38.140625 42.390625 41.71875 45.5625 
Q 45.3125 48.734375 45.3125 54.390625 
Q 45.3125 60.0625 41.71875 63.234375 
Q 38.140625 66.40625 31.78125 66.40625 
Q 25.390625 66.40625 21.84375 63.234375 
Q 18.3125 60.0625 18.3125 54.390625 
z
" id="DejaVuSans-56"/>
       </defs>
       <use xlink:href="#DejaVuSans-48"/>
       <use x="63.623047" xlink:href="#DejaVuSans-46"/>
       <use x="95.410156" xlink:href="#DejaVuSans-56"/>
      </g>
     </g>
    </g>
    <g id="ytick_6">
     <g id="line2d_27">
      <path clip-path="url(#pf08fff02cc)" d="M 57.6 6.381624 
L 338.688 6.381624 
" style="fill:none;stroke:#b0b0b0;stroke-linecap:square;stroke-width:0.8;"/>
     </g>
     <g id="line2d_28">
      <g>
       <use style="stroke:#000000;stroke-width:0.8;" x="57.6" xlink:href="#m49a3c00801" y="6.381624"/>
      </g>
     </g>
     <g id="text_11">
      <!-- 1.0 -->
      <g transform="translate(25.155 12.460374)scale(0.16 -0.16)">
       <use xlink:href="#DejaVuSans-49"/>
       <use x="63.623047" xlink:href="#DejaVuSans-46"/>
       <use x="95.410156" xlink:href="#DejaVuSans-48"/>
      </g>
     </g>
    </g>
    <g id="text_12">
     <!-- Fraction of function,target pairs -->
     <g transform="translate(17.619531 285.585)rotate(-90)scale(0.17 -0.17)">
      <defs>
       <path d="M 9.8125 72.90625 
L 51.703125 72.90625 
L 51.703125 64.59375 
L 19.671875 64.59375 
L 19.671875 43.109375 
L 48.578125 43.109375 
L 48.578125 34.8125 
L 19.671875 34.8125 
L 19.671875 0 
L 9.8125 0 
z
" id="DejaVuSans-70"/>
       <path d="M 41.109375 46.296875 
Q 39.59375 47.171875 37.8125 47.578125 
Q 36.03125 48 33.890625 48 
Q 26.265625 48 22.1875 43.046875 
Q 18.109375 38.09375 18.109375 28.8125 
L 18.109375 0 
L 9.078125 0 
L 9.078125 54.6875 
L 18.109375 54.6875 
L 18.109375 46.1875 
Q 20.953125 51.171875 25.484375 53.578125 
Q 30.03125 56 36.53125 56 
Q 37.453125 56 38.578125 55.875 
Q 39.703125 55.765625 41.0625 55.515625 
z
" id="DejaVuSans-114"/>
       <path d="M 48.78125 52.59375 
L 48.78125 44.1875 
Q 44.96875 46.296875 41.140625 47.34375 
Q 37.3125 48.390625 33.40625 48.390625 
Q 24.65625 48.390625 19.8125 42.84375 
Q 14.984375 37.3125 14.984375 27.296875 
Q 14.984375 17.28125 19.8125 11.734375 
Q 24.65625 6.203125 33.40625 6.203125 
Q 37.3125 6.203125 41.140625 7.25 
Q 44.96875 8.296875 48.78125 10.40625 
L 48.78125 2.09375 
Q 45.015625 0.34375 40.984375 -0.53125 
Q 36.96875 -1.421875 32.421875 -1.421875 
Q 20.0625 -1.421875 12.78125 6.34375 
Q 5.515625 14.109375 5.515625 27.296875 
Q 5.515625 40.671875 12.859375 48.328125 
Q 20.21875 56 33.015625 56 
Q 37.15625 56 41.109375 55.140625 
Q 45.0625 54.296875 48.78125 52.59375 
z
" id="DejaVuSans-99"/>
       <path d="M 18.3125 70.21875 
L 18.3125 54.6875 
L 36.8125 54.6875 
L 36.8125 47.703125 
L 18.3125 47.703125 
L 18.3125 18.015625 
Q 18.3125 11.328125 20.140625 9.421875 
Q 21.96875 7.515625 27.59375 7.515625 
L 36.8125 7.515625 
L 36.8125 0 
L 27.59375 0 
Q 17.1875 0 13.234375 3.875 
Q 9.28125 7.765625 9.28125 18.015625 
L 9.28125 47.703125 
L 2.6875 47.703125 
L 2.6875 54.6875 
L 9.28125 54.6875 
L 9.28125 70.21875 
z
" id="DejaVuSans-116"/>
       <path d="M 8.5 21.578125 
L 8.5 54.6875 
L 17.484375 54.6875 
L 17.484375 21.921875 
Q 17.484375 14.15625 20.5 10.265625 
Q 23.53125 6.390625 29.59375 6.390625 
Q 36.859375 6.390625 41.078125 11.03125 
Q 45.3125 15.671875 45.3125 23.6875 
L 45.3125 54.6875 
L 54.296875 54.6875 
L 54.296875 0 
L 45.3125 0 
L 45.3125 8.40625 
Q 42.046875 3.421875 37.71875 1 
Q 33.40625 -1.421875 27.6875 -1.421875 
Q 18.265625 -1.421875 13.375 4.4375 
Q 8.5 10.296875 8.5 21.578125 
z
M 31.109375 56 
z
" id="DejaVuSans-117"/>
       <path d="M 11.71875 12.40625 
L 22.015625 12.40625 
L 22.015625 4 
L 14.015625 -11.625 
L 7.71875 -11.625 
L 11.71875 4 
z
" id="DejaVuSans-44"/>
       <path d="M 18.109375 8.203125 
L 18.109375 -20.796875 
L 9.078125 -20.796875 
L 9.078125 54.6875 
L 18.109375 54.6875 
L 18.109375 46.390625 
Q 20.953125 51.265625 25.265625 53.625 
Q 29.59375 56 35.59375 56 
Q 45.5625 56 51.78125 48.09375 
Q 58.015625 40.1875 58.015625 27.296875 
Q 58.015625 14.40625 51.78125 6.484375 
Q 45.5625 -1.421875 35.59375 -1.421875 
Q 29.59375 -1.421875 25.265625 0.953125 
Q 20.953125 3.328125 18.109375 8.203125 
z
M 48.6875 27.296875 
Q 48.6875 37.203125 44.609375 42.84375 
Q 40.53125 48.484375 33.40625 48.484375 
Q 26.265625 48.484375 22.1875 42.84375 
Q 18.109375 37.203125 18.109375 27.296875 
Q 18.109375 17.390625 22.1875 11.75 
Q 26.265625 6.109375 33.40625 6.109375 
Q 40.53125 6.109375 44.609375 11.75 
Q 48.6875 17.390625 48.6875 27.296875 
z
" id="DejaVuSans-112"/>
      </defs>
      <use xlink:href="#DejaVuSans-70"/>
      <use x="50.269531" xlink:href="#DejaVuSans-114"/>
      <use x="91.382812" xlink:href="#DejaVuSans-97"/>
      <use x="152.662109" xlink:href="#DejaVuSans-99"/>
      <use x="207.642578" xlink:href="#DejaVuSans-116"/>
      <use x="246.851562" xlink:href="#DejaVuSans-105"/>
      <use x="274.634766" xlink:href="#DejaVuSans-111"/>
      <use x="335.816406" xlink:href="#DejaVuSans-110"/>
      <use x="399.195312" xlink:href="#DejaVuSans-32"/>
      <use x="430.982422" xlink:href="#DejaVuSans-111"/>
      <use x="492.164062" xlink:href="#DejaVuSans-102"/>
      <use x="527.369141" xlink:href="#DejaVuSans-32"/>
      <use x="559.15625" xlink:href="#DejaVuSans-102"/>
      <use x="594.361328" xlink:href="#DejaVuSans-117"/>
      <use x="657.740234" xlink:href="#DejaVuSans-110"/>
      <use x="721.119141" xlink:href="#DejaVuSans-99"/>
      <use x="776.099609" xlink:href="#DejaVuSans-116"/>
      <use x="815.308594" xlink:href="#DejaVuSans-105"/>
      <use x="843.091797" xlink:href="#DejaVuSans-111"/>
      <use x="904.273438" xlink:href="#DejaVuSans-110"/>
      <use x="967.652344" xlink:href="#DejaVuSans-44"/>
      <use x="999.439453" xlink:href="#DejaVuSans-116"/>
      <use x="1038.648438" xlink:href="#DejaVuSans-97"/>
      <use x="1099.927734" xlink:href="#DejaVuSans-114"/>
      <use x="1139.291016" xlink:href="#DejaVuSans-103"/>
      <use x="1202.767578" xlink:href="#DejaVuSans-101"/>
      <use x="1264.291016" xlink:href="#DejaVuSans-116"/>
      <use x="1303.5" xlink:href="#DejaVuSans-32"/>
      <use x="1335.287109" xlink:href="#DejaVuSans-112"/>
      <use x="1398.763672" xlink:href="#DejaVuSans-97"/>
      <use x="1460.042969" xlink:href="#DejaVuSans-105"/>
      <use x="1487.826172" xlink:href="#DejaVuSans-114"/>
      <use x="1528.939453" xlink:href="#DejaVuSans-115"/>
     </g>
    </g>
   </g>
   <g id="line2d_29">
    <defs>
     <path d="M 0 1.5 
C 0.397805 1.5 0.77937 1.341951 1.06066 1.06066 
C 1.341951 0.77937 1.5 0.397805 1.5 0 
C 1.5 -0.397805 1.341951 -0.77937 1.06066 -1.06066 
C 0.77937 -1.341951 0.397805 -1.5 0 -1.5 
C -0.397805 -1.5 -0.77937 -1.341951 -1.06066 -1.06066 
C -1.341951 -0.77937 -1.5 -0.397805 -1.5 0 
C -1.5 0.397805 -1.341951 0.77937 -1.06066 1.06066 
C -0.77937 1.341951 -0.397805 1.5 0 1.5 
z
" id="ma805b60ba5" style="stroke:#00bfbf;"/>
    </defs>
    <g>
     <use style="fill:#00bfbf;stroke:#00bfbf;" x="192.130645" xlink:href="#ma805b60ba5" y="246.168042"/>
     <use style="fill:#00bfbf;stroke:#00bfbf;" x="192.130645" xlink:href="#ma805b60ba5" y="246.168042"/>
    </g>
   </g>
   <g id="line2d_30">
    <path d="M 45.512012 298.944 
L 45.512012 273.588594 
L 76.759008 273.588594 
L 76.759008 273.473864 
L 79.447285 273.473864 
L 79.447285 272.670751 
L 81.775977 272.670751 
L 81.775977 272.0971 
L 83.830028 272.0971 
L 83.830028 270.605605 
L 85.66744 270.605605 
L 85.66744 269.687762 
L 87.329581 269.687762 
L 87.329581 267.966807 
L 88.846997 267.966807 
L 88.846997 267.852077 
L 90.242884 267.852077 
L 90.242884 267.737347 
L 91.535274 267.737347 
L 91.535274 267.622616 
L 92.73846 267.622616 
L 92.73846 267.507886 
L 93.863965 267.507886 
L 93.863965 267.393156 
L 94.921215 267.393156 
L 94.921215 266.934234 
L 96.86091 266.934234 
L 96.86091 266.475313 
L 97.755429 266.475313 
L 97.755429 266.245852 
L 98.606294 266.245852 
L 98.606294 265.6722 
L 99.41757 265.6722 
L 99.41757 265.098549 
L 100.192776 265.098549 
L 100.192776 264.410167 
L 100.934985 264.410167 
L 100.934985 264.180706 
L 101.646892 264.180706 
L 101.646892 264.065976 
L 102.330873 264.065976 
L 102.330873 263.721785 
L 102.989037 263.721785 
L 102.989037 263.607054 
L 103.623262 263.607054 
L 103.623262 263.492324 
L 105.398279 263.492324 
L 105.398279 263.377593 
L 108.006005 263.377593 
L 108.006005 263.262863 
L 108.948899 263.262863 
L 108.948899 263.148133 
L 111.505558 263.148133 
L 111.505558 263.033402 
L 111.897469 263.033402 
L 111.897469 262.918672 
L 113.382559 262.918672 
L 113.382559 262.803942 
L 113.73488 262.803942 
L 113.73488 262.689211 
L 114.418861 262.689211 
L 114.418861 262.574481 
L 115.077025 262.574481 
L 115.077025 262.459751 
L 115.711251 262.459751 
L 115.711251 262.34502 
L 116.621333 262.34502 
L 116.621333 262.11556 
L 117.486268 262.11556 
L 117.486268 262.000829 
L 117.765302 262.000829 
L 117.765302 261.771369 
L 118.039942 261.771369 
L 118.039942 261.541908 
L 118.576578 261.541908 
L 118.576578 261.427178 
L 119.097192 261.427178 
L 119.097192 261.197717 
L 119.351785 261.197717 
L 119.351785 261.082987 
L 119.602714 261.082987 
L 119.602714 260.738796 
L 119.850084 260.738796 
L 119.850084 260.624065 
L 121.036887 260.624065 
L 121.036887 260.394605 
L 121.489881 260.394605 
L 121.489881 260.165144 
L 121.712041 260.165144 
L 121.712041 260.050414 
L 122.148045 260.050414 
L 122.148045 259.935683 
L 122.362027 259.935683 
L 122.362027 259.820953 
L 122.573415 259.820953 
L 122.573415 259.706222 
L 123.985457 259.706222 
L 123.985457 259.476762 
L 124.92835 259.476762 
L 124.92835 259.01784 
L 125.291682 259.01784 
L 125.291682 258.90311 
L 125.647598 258.90311 
L 125.647598 258.78838 
L 125.822869 258.78838 
L 125.822869 258.673649 
L 125.996395 258.673649 
L 125.996395 258.558919 
L 126.338353 258.558919 
L 126.338353 258.444189 
L 127.002787 258.444189 
L 127.002787 258.329458 
L 127.642832 258.329458 
L 127.642832 258.214728 
L 127.954256 258.214728 
L 127.954256 257.985267 
L 128.107907 257.985267 
L 128.107907 257.870537 
L 128.260216 257.870537 
L 128.260216 257.755807 
L 128.411207 257.755807 
L 128.411207 257.526346 
L 128.709321 257.526346 
L 128.709321 257.411616 
L 129.714332 257.411616 
L 129.714332 257.296885 
L 129.991152 257.296885 
L 129.991152 257.182155 
L 130.127931 257.182155 
L 130.127931 257.067425 
L 130.796184 257.067425 
L 130.796184 256.952694 
L 131.185181 256.952694 
L 131.185181 256.837964 
L 131.439773 256.837964 
L 131.439773 256.608503 
L 131.814826 256.608503 
L 131.814826 256.493773 
L 132.30267 256.493773 
L 132.30267 256.379043 
L 133.689303 256.379043 
L 133.800029 256.149582 
L 133.910056 256.149582 
L 133.910056 256.034851 
L 137.647286 256.034851 
L 137.647286 255.920121 
L 137.997836 255.920121 
L 137.997836 255.57593 
L 138.341479 255.57593 
L 138.341479 255.4612 
L 138.67848 255.4612 
L 138.761723 255.117009 
L 139.009092 255.117009 
L 139.009092 255.002278 
L 139.493548 255.002278 
L 139.493548 254.772818 
L 140.042245 254.772818 
L 140.042245 254.658087 
L 141.235139 254.658087 
L 141.235139 254.543357 
L 141.732423 254.543357 
L 141.732423 254.428627 
L 141.871938 254.428627 
L 141.871938 254.313896 
L 142.010346 254.313896 
L 142.010346 254.199166 
L 142.147664 254.199166 
L 142.147664 254.084436 
L 144.981877 254.084436 
L 144.981877 253.969705 
L 146.749392 253.969705 
L 146.854132 253.740245 
L 147.215849 253.740245 
L 147.266916 253.510784 
L 147.52003 253.510784 
L 147.52003 253.396054 
L 147.71991 253.396054 
L 147.71991 253.281323 
L 148.209809 253.281323 
L 148.209809 253.166593 
L 148.497276 253.166593 
L 148.497276 253.051863 
L 148.780082 253.051863 
L 148.780082 252.937132 
L 149.012299 252.937132 
L 149.012299 252.822402 
L 149.557321 252.822402 
L 149.557321 252.707672 
L 150.129152 252.707672 
L 150.129152 252.592941 
L 151.178764 252.592941 
L 151.178764 252.478211 
L 152.995791 252.478211 
L 153.105587 252.24875 
L 153.537988 252.24875 
L 153.537988 252.13402 
L 154.807483 252.13402 
L 154.807483 252.019289 
L 155.710272 252.019289 
L 155.804285 251.789829 
L 156.747178 251.789829 
L 156.747178 251.675098 
L 156.953214 251.675098 
L 156.953214 251.560368 
L 160.005512 251.560368 
L 160.005512 251.445638 
L 160.418152 251.445638 
L 160.418152 251.330907 
L 161.578106 251.330907 
L 161.578106 251.216177 
L 161.88953 251.216177 
L 161.88953 251.101447 
L 163.103002 251.101447 
L 163.103002 250.986716 
L 163.50953 250.986716 
L 163.50953 250.871986 
L 164.237502 250.871986 
L 164.237502 250.757256 
L 164.693955 250.757256 
L 164.712717 250.527795 
L 164.880672 250.527795 
L 164.880672 250.413065 
L 165.375047 250.413065 
L 165.375047 250.298334 
L 165.838222 250.298334 
L 165.890882 250.068874 
L 165.995728 250.068874 
L 166.013141 249.839413 
L 166.134549 249.839413 
L 166.203547 249.609952 
L 166.425924 249.609952 
L 166.425924 249.495222 
L 167.158215 249.495222 
L 167.255733 249.265761 
L 167.545055 249.265761 
L 167.545055 249.151031 
L 168.506396 249.151031 
L 168.506396 249.036301 
L 168.71633 249.036301 
L 168.71633 248.92157 
L 169.128764 248.92157 
L 169.128764 248.80684 
L 169.574291 248.80684 
L 169.574291 248.692109 
L 169.967148 248.692109 
L 169.967148 248.577379 
L 171.404607 248.577379 
L 171.404607 248.462649 
L 172.118046 248.462649 
L 172.118046 248.347918 
L 172.850543 248.347918 
L 172.850543 248.233188 
L 173.777957 248.233188 
L 173.777957 248.118458 
L 175.004915 248.118458 
L 175.004915 248.003727 
L 175.667697 248.003727 
L 175.667697 247.888997 
L 176.875552 247.888997 
L 176.875552 247.774267 
L 177.199282 247.774267 
L 177.199282 247.659536 
L 177.354379 247.659536 
L 177.435935 247.430076 
L 178.833909 247.430076 
L 178.833909 247.315345 
L 179.862667 247.315345 
L 179.862667 247.200615 
L 180.08154 247.200615 
L 180.08154 247.085885 
L 180.58684 247.085885 
L 180.58684 246.971154 
L 181.845779 246.971154 
L 181.845779 246.856424 
L 185.114038 246.856424 
L 185.114038 246.741694 
L 186.76771 246.741694 
L 186.76771 246.626963 
L 187.175849 246.626963 
L 187.175849 246.512233 
L 187.875338 246.512233 
L 187.875338 246.397503 
L 191.350483 246.397503 
L 191.350483 246.282772 
L 192.130645 246.282772 
L 192.130645 246.168042 
L 338.688 246.168042 
L 338.688 246.168042 
" style="fill:none;stroke:#00bfbf;stroke-linecap:square;stroke-width:1.5;"/>
   </g>
   <g id="line2d_31">
    <defs>
     <path d="M -6 0 
L 6 0 
M 0 6 
L 0 -6 
" id="m7c92c96af1" style="stroke:#00bfbf;stroke-width:1.5;"/>
    </defs>
    <g>
     <use style="fill-opacity:0;stroke:#00bfbf;stroke-width:1.5;" x="96.86091" xlink:href="#m7c92c96af1" y="266.934234"/>
     <use style="fill-opacity:0;stroke:#00bfbf;stroke-width:1.5;" x="140.042245" xlink:href="#m7c92c96af1" y="254.772818"/>
     <use style="fill-opacity:0;stroke:#00bfbf;stroke-width:1.5;" x="192.130645" xlink:href="#m7c92c96af1" y="246.282772"/>
     <use style="fill-opacity:0;stroke:#00bfbf;stroke-width:1.5;" x="192.130645" xlink:href="#m7c92c96af1" y="246.168042"/>
     <use style="fill-opacity:0;stroke:#00bfbf;stroke-width:1.5;" x="338.688" xlink:href="#m7c92c96af1" y="246.168042"/>
    </g>
   </g>
   <g id="line2d_32">
    <path style="fill:none;stroke:#00bfbf;stroke-linecap:square;stroke-width:1.5;"/>
    <g/>
   </g>
   <g id="line2d_33">
    <path clip-path="url(#pf08fff02cc)" d="M 116.914437 262.11556 
" style="fill:none;stroke:#00bfbf;stroke-linecap:square;stroke-width:1.5;"/>
    <defs>
     <path d="M -12 12 
L 12 -12 
M -12 -12 
L 12 12 
" id="m186da7a92f" style="stroke:#00bfbf;"/>
    </defs>
    <g clip-path="url(#pf08fff02cc)">
     <use style="fill:#00bfbf;stroke:#00bfbf;" x="116.914437" xlink:href="#m186da7a92f" y="262.11556"/>
    </g>
   </g>
   <g id="line2d_34">
    <defs>
     <path d="M 0 1.5 
C 0.397805 1.5 0.77937 1.341951 1.06066 1.06066 
C 1.341951 0.77937 1.5 0.397805 1.5 0 
C 1.5 -0.397805 1.341951 -0.77937 1.06066 -1.06066 
C 0.77937 -1.341951 0.397805 -1.5 0 -1.5 
C -0.397805 -1.5 -0.77937 -1.341951 -1.06066 -1.06066 
C -1.341951 -0.77937 -1.5 -0.397805 -1.5 0 
C -1.5 0.397805 -1.341951 0.77937 -1.06066 1.06066 
C -0.77937 1.341951 -0.397805 1.5 0 1.5 
z
" id="mb1f0dbdcdc" style="stroke:#008000;"/>
    </defs>
    <g>
     <use style="fill:#008000;stroke:#008000;" x="189.578083" xlink:href="#mb1f0dbdcdc" y="240.431525"/>
     <use style="fill:#008000;stroke:#008000;" x="189.578083" xlink:href="#mb1f0dbdcdc" y="240.431525"/>
    </g>
   </g>
   <g id="line2d_35">
    <path d="M 38.440992 298.944 
L 38.440992 271.638178 
L 50.52898 271.638178 
L 50.52898 271.523448 
L 69.687988 271.523448 
L 69.687988 271.408718 
L 78.59642 271.408718 
L 78.59642 271.293987 
L 80.258561 271.293987 
L 80.258561 270.835066 
L 81.775977 270.835066 
L 81.775977 270.261414 
L 83.171864 270.261414 
L 83.171864 269.917223 
L 84.464254 269.917223 
L 84.464254 269.687762 
L 85.66744 269.687762 
L 85.66744 269.228841 
L 86.792945 269.228841 
L 86.792945 268.196268 
L 87.850195 268.196268 
L 87.850195 267.737347 
L 88.846997 267.737347 
L 88.846997 267.048964 
L 89.78989 267.048964 
L 89.78989 266.934234 
L 90.684409 266.934234 
L 90.684409 266.704773 
L 91.535274 266.704773 
L 91.535274 266.360582 
L 92.34655 266.360582 
L 92.34655 266.016391 
L 93.121756 266.016391 
L 93.121756 265.44274 
L 93.863965 265.44274 
L 93.863965 265.213279 
L 94.575872 265.213279 
L 94.575872 264.983818 
L 95.259853 264.983818 
L 95.259853 264.524897 
L 95.918017 264.524897 
L 95.918017 264.295436 
L 96.552242 264.295436 
L 96.552242 264.180706 
L 97.16421 264.180706 
L 97.16421 263.721785 
L 97.755429 263.721785 
L 97.755429 263.262863 
L 98.32726 263.262863 
L 98.32726 263.148133 
L 98.880934 263.148133 
L 98.880934 263.033402 
L 99.938184 263.033402 
L 99.938184 262.803942 
L 100.934985 262.803942 
L 100.934985 262.459751 
L 101.877879 262.459751 
L 101.877879 262.34502 
L 103.203018 262.34502 
L 103.203018 261.886099 
L 104.826449 261.886099 
L 104.826449 261.771369 
L 105.209745 261.771369 
L 105.209745 261.656638 
L 105.951954 261.656638 
L 105.951954 261.541908 
L 107.347841 261.541908 
L 107.347841 261.427178 
L 107.680028 261.427178 
L 107.680028 261.312447 
L 108.006005 261.312447 
L 108.006005 261.197717 
L 110.131676 261.197717 
L 110.131676 261.082987 
L 111.767808 261.082987 
L 111.767808 260.968256 
L 112.026172 260.968256 
L 112.026172 260.738796 
L 112.280765 260.738796 
L 112.280765 260.624065 
L 112.779064 260.624065 
L 112.779064 260.509335 
L 113.965867 260.509335 
L 113.965867 260.394605 
L 114.418861 260.394605 
L 114.418861 260.165144 
L 114.641021 260.165144 
L 114.641021 260.050414 
L 115.291007 260.050414 
L 115.291007 259.935683 
L 115.502395 259.935683 
L 115.502395 259.820953 
L 115.711251 259.820953 
L 115.711251 259.706222 
L 117.107138 259.706222 
L 117.107138 259.476762 
L 117.857331 259.476762 
L 117.857331 259.247301 
L 120.883236 259.247301 
L 120.883236 259.132571 
L 121.036887 259.132571 
L 121.036887 259.01784 
L 121.189196 259.01784 
L 121.189196 258.78838 
L 121.638301 258.78838 
L 121.638301 258.673649 
L 123.056911 258.673649 
L 123.056911 258.558919 
L 124.743806 258.558919 
L 124.743806 258.444189 
L 124.989434 258.444189 
L 124.989434 258.329458 
L 125.588781 258.329458 
L 125.588781 258.214728 
L 125.822869 258.214728 
L 125.822869 258.099998 
L 125.938745 258.099998 
L 125.938745 257.985267 
L 126.053856 257.985267 
L 126.053856 257.870537 
L 126.3947 257.870537 
L 126.3947 257.755807 
L 126.729009 257.755807 
L 126.729009 257.641076 
L 126.948374 257.641076 
L 126.948374 257.526346 
L 127.378995 257.526346 
L 127.378995 257.411616 
L 128.905271 257.411616 
L 128.905271 257.296885 
L 130.036864 257.296885 
L 130.036864 257.182155 
L 130.218525 257.182155 
L 130.218525 257.067425 
L 130.664567 257.067425 
L 130.664567 256.952694 
L 131.690703 256.952694 
L 131.690703 256.837964 
L 131.856005 256.837964 
L 131.856005 256.723234 
L 133.277185 256.723234 
L 133.277185 256.493773 
L 134.091907 256.493773 
L 134.091907 256.379043 
L 134.37898 256.379043 
L 134.37898 256.264312 
L 134.800918 256.264312 
L 134.800918 256.149582 
L 135.212889 256.149582 
L 135.280614 255.805391 
L 135.747468 255.805391 
L 135.813153 255.4612 
L 136.008736 255.4612 
L 136.008736 255.346469 
L 136.202149 255.346469 
L 136.202149 255.231739 
L 136.519813 255.231739 
L 136.519813 255.117009 
L 136.707671 255.117009 
L 136.707671 255.002278 
L 137.016339 255.002278 
L 137.016339 254.887548 
L 137.319638 254.887548 
L 137.319638 254.772818 
L 138.369812 254.772818 
L 138.426341 254.543357 
L 138.927025 254.543357 
L 139.036363 254.313896 
L 139.413734 254.313896 
L 139.413734 254.199166 
L 139.730821 254.199166 
L 139.730821 254.084436 
L 139.887228 254.084436 
L 139.887228 253.969705 
L 140.246813 253.969705 
L 140.297583 253.625514 
L 140.846504 253.625514 
L 140.846504 253.510784 
L 141.090414 253.510784 
L 141.090414 253.396054 
L 142.033307 253.396054 
L 142.033307 253.281323 
L 142.170445 253.281323 
L 142.170445 253.166593 
L 142.486301 253.166593 
L 142.53096 252.937132 
L 142.664255 252.937132 
L 142.664255 252.822402 
L 143.861538 252.822402 
L 143.861538 252.707672 
L 145.212864 252.707672 
L 145.212864 252.592941 
L 145.327221 252.592941 
L 145.327221 252.36348 
L 145.553708 252.36348 
L 145.553708 252.24875 
L 145.703082 252.24875 
L 145.777292 252.019289 
L 145.814278 252.019289 
L 145.814278 251.904559 
L 146.288102 251.904559 
L 146.288102 251.789829 
L 146.679213 251.789829 
L 146.679213 251.675098 
L 147.232888 251.675098 
L 147.232888 251.560368 
L 147.4697 251.560368 
L 147.4697 251.445638 
L 147.70334 251.445638 
L 147.802521 251.216177 
L 147.835457 251.216177 
L 147.835457 251.101447 
L 148.322166 251.101447 
L 148.354135 250.871986 
L 148.701984 250.871986 
L 148.701984 250.757256 
L 149.226281 250.757256 
L 149.286939 250.527795 
L 150.027887 250.527795 
L 150.027887 250.298334 
L 151.367883 250.298334 
L 151.367883 250.183604 
L 151.60806 250.183604 
L 151.60806 250.068874 
L 152.207228 250.068874 
L 152.283884 249.839413 
L 152.385571 249.839413 
L 152.385571 249.724683 
L 153.178403 249.724683 
L 153.178403 249.609952 
L 153.750233 249.609952 
L 153.750233 249.495222 
L 153.890309 249.495222 
L 153.890309 249.380492 
L 154.303908 249.380492 
L 154.394502 249.151031 
L 154.57429 249.151031 
L 154.641235 248.92157 
L 155.102793 248.92157 
L 155.102793 248.692109 
L 155.296925 248.692109 
L 155.296925 248.577379 
L 155.446436 248.577379 
L 155.531298 248.347918 
L 156.658127 248.347918 
L 156.658127 248.233188 
L 156.855406 248.233188 
L 156.855406 248.118458 
L 156.972711 248.118458 
L 156.972711 248.003727 
L 157.166482 248.003727 
L 157.262567 247.774267 
L 157.641697 247.774267 
L 157.641697 247.659536 
L 157.902267 247.659536 
L 157.902267 247.544806 
L 158.067744 247.544806 
L 158.067744 247.430076 
L 158.48363 247.430076 
L 158.48363 247.315345 
L 158.889829 247.315345 
L 158.889829 247.200615 
L 159.063529 247.200615 
L 159.063529 247.085885 
L 159.26971 247.085885 
L 159.320876 246.856424 
L 159.69158 246.856424 
L 159.69158 246.741694 
L 160.184713 246.741694 
L 160.184713 246.626963 
L 161.069504 246.626963 
L 161.177012 246.397503 
L 161.64531 246.397503 
L 161.64531 246.282772 
L 161.79373 246.282772 
L 161.79373 246.168042 
L 161.911563 246.168042 
L 161.911563 246.053312 
L 162.028606 246.053312 
L 162.072295 245.823851 
L 162.616422 245.823851 
L 162.700806 245.59439 
L 162.854457 245.59439 
L 162.882249 245.36493 
L 163.985177 245.36493 
L 163.985177 245.250199 
L 164.127963 245.250199 
L 164.127963 245.135469 
L 164.549438 245.135469 
L 164.549438 245.020738 
L 165.338904 245.020738 
L 165.435121 244.791278 
L 165.471066 244.791278 
L 165.471066 244.676547 
L 166.829163 244.676547 
L 166.829163 244.561817 
L 167.363449 244.561817 
L 167.363449 244.447087 
L 167.735303 244.447087 
L 167.735303 244.332356 
L 168.027181 244.332356 
L 168.027181 244.217626 
L 168.736192 244.217626 
L 168.736192 244.102896 
L 169.832517 244.102896 
L 169.832517 243.988165 
L 170.634045 243.988165 
L 170.634045 243.873435 
L 171.064884 243.873435 
L 171.064884 243.758705 
L 171.603625 243.758705 
L 171.603625 243.643974 
L 171.80456 243.643974 
L 171.80456 243.529244 
L 172.696997 243.529244 
L 172.696997 243.414514 
L 173.126653 243.414514 
L 173.126653 243.299783 
L 173.38706 243.299783 
L 173.38706 243.185053 
L 173.651125 243.185053 
L 173.651125 243.070323 
L 174.276256 243.070323 
L 174.276256 242.955592 
L 174.809827 242.955592 
L 174.809827 242.840862 
L 175.19099 242.840862 
L 175.19099 242.726132 
L 175.604215 242.726132 
L 175.711 242.496671 
L 176.491702 242.496671 
L 176.491702 242.381941 
L 176.605851 242.381941 
L 176.712976 242.15248 
L 177.708032 242.15248 
L 177.708032 242.03775 
L 177.832198 242.03775 
L 177.832198 241.923019 
L 178.013889 241.923019 
L 178.013889 241.808289 
L 178.176386 241.808289 
L 178.176386 241.693559 
L 180.61951 241.693559 
L 180.61951 241.578828 
L 181.495941 241.578828 
L 181.495941 241.464098 
L 182.348626 241.464098 
L 182.348626 241.349368 
L 184.27132 241.349368 
L 184.27132 241.234637 
L 184.673906 241.234637 
L 184.673906 241.119907 
L 185.071299 241.119907 
L 185.071299 241.005176 
L 187.179296 241.005176 
L 187.179296 240.890446 
L 187.984303 240.890446 
L 187.997465 240.660985 
L 188.235938 240.660985 
L 188.235938 240.546255 
L 189.578083 240.546255 
L 189.578083 240.431525 
L 338.688 240.431525 
L 338.688 240.431525 
" style="fill:none;stroke:#008000;stroke-linecap:square;stroke-width:1.5;"/>
   </g>
   <g id="line2d_36">
    <defs>
     <path d="M -0 6 
L 6 -6 
L -6 -6 
z
" id="me4a7c5dfd5" style="stroke:#008000;stroke-linejoin:miter;stroke-width:1.5;"/>
    </defs>
    <g>
     <use style="fill-opacity:0;stroke:#008000;stroke-linejoin:miter;stroke-width:1.5;" x="105.209745" xlink:href="#me4a7c5dfd5" y="261.771369"/>
     <use style="fill-opacity:0;stroke:#008000;stroke-linejoin:miter;stroke-width:1.5;" x="160.184713" xlink:href="#me4a7c5dfd5" y="246.741694"/>
     <use style="fill-opacity:0;stroke:#008000;stroke-linejoin:miter;stroke-width:1.5;" x="189.578083" xlink:href="#me4a7c5dfd5" y="240.546255"/>
     <use style="fill-opacity:0;stroke:#008000;stroke-linejoin:miter;stroke-width:1.5;" x="189.578083" xlink:href="#me4a7c5dfd5" y="240.431525"/>
     <use style="fill-opacity:0;stroke:#008000;stroke-linejoin:miter;stroke-width:1.5;" x="189.578083" xlink:href="#me4a7c5dfd5" y="240.431525"/>
     <use style="fill-opacity:0;stroke:#008000;stroke-linejoin:miter;stroke-width:1.5;" x="338.688" xlink:href="#me4a7c5dfd5" y="240.431525"/>
    </g>
   </g>
   <g id="line2d_37">
    <path style="fill:none;stroke:#008000;stroke-linecap:square;stroke-width:1.5;"/>
    <g/>
   </g>
   <g id="line2d_38">
    <path clip-path="url(#pf08fff02cc)" d="M 121.489881 258.78838 
" style="fill:none;stroke:#008000;stroke-linecap:square;stroke-width:1.5;"/>
    <defs>
     <path d="M -12 12 
L 12 -12 
M -12 -12 
L 12 12 
" id="mfae74c928c" style="stroke:#008000;"/>
    </defs>
    <g clip-path="url(#pf08fff02cc)">
     <use style="fill:#008000;stroke:#008000;" x="121.489881" xlink:href="#mfae74c928c" y="258.78838"/>
    </g>
   </g>
   <g id="line2d_39">
    <defs>
     <path d="M 0 1.5 
C 0.397805 1.5 0.77937 1.341951 1.06066 1.06066 
C 1.341951 0.77937 1.5 0.397805 1.5 0 
C 1.5 -0.397805 1.341951 -0.77937 1.06066 -1.06066 
C 0.77937 -1.341951 0.397805 -1.5 0 -1.5 
C -0.397805 -1.5 -0.77937 -1.341951 -1.06066 -1.06066 
C -1.341951 -0.77937 -1.5 -0.397805 -1.5 0 
C -1.5 0.397805 -1.341951 0.77937 -1.06066 1.06066 
C -0.77937 1.341951 -0.397805 1.5 0 1.5 
z
" id="md4c4f07652" style="stroke:#0000ff;"/>
    </defs>
    <g>
     <use style="fill:#0000ff;stroke:#0000ff;" x="207.753962" xlink:href="#md4c4f07652" y="254.199166"/>
     <use style="fill:#0000ff;stroke:#0000ff;" x="207.753962" xlink:href="#md4c4f07652" y="254.199166"/>
    </g>
   </g>
   <g id="line2d_40">
    <path d="M 29.53256 298.944 
L 29.53256 276.112662 
L 41.620548 276.112662 
L 41.620548 275.997931 
L 63.467834 275.997931 
L 63.467834 275.883201 
L 65.796525 275.883201 
L 65.796525 275.65374 
L 81.775977 275.65374 
L 81.775977 275.53901 
L 82.626842 275.53901 
L 82.626842 275.42428 
L 84.213325 275.42428 
L 84.213325 275.194819 
L 85.66744 275.194819 
L 85.66744 274.965358 
L 86.351421 274.965358 
L 86.351421 274.850628 
L 88.255778 274.850628 
L 88.255778 274.621167 
L 88.846997 274.621167 
L 88.846997 274.506437 
L 89.418828 274.506437 
L 89.418828 274.391706 
L 89.972502 274.391706 
L 89.972502 274.276976 
L 91.029752 274.276976 
L 91.029752 274.162246 
L 92.026554 274.162246 
L 92.026554 273.818055 
L 92.504372 273.818055 
L 92.504372 273.703324 
L 92.969447 273.703324 
L 92.969447 273.588594 
L 93.422441 273.588594 
L 93.422441 273.244403 
L 95.125186 273.244403 
L 95.125186 272.900212 
L 95.526106 272.900212 
L 95.526106 272.785482 
L 95.918017 272.785482 
L 95.918017 272.670751 
L 96.301313 272.670751 
L 96.301313 272.21183 
L 96.676366 272.21183 
L 96.676366 271.867639 
L 97.043522 271.867639 
L 97.043522 271.752909 
L 97.403108 271.752909 
L 97.403108 271.638178 
L 97.755429 271.638178 
L 97.755429 271.064526 
L 98.100772 271.064526 
L 98.100772 270.949796 
L 98.43941 270.949796 
L 98.43941 270.605605 
L 98.771596 270.605605 
L 98.771596 270.490875 
L 99.097574 270.490875 
L 99.097574 270.146684 
L 99.41757 270.146684 
L 99.41757 270.031953 
L 99.731799 270.031953 
L 99.731799 269.917223 
L 100.040467 269.917223 
L 100.040467 269.802493 
L 100.343767 269.802493 
L 100.343767 269.687762 
L 100.641881 269.687762 
L 100.641881 269.573032 
L 101.223245 269.573032 
L 101.223245 269.343571 
L 101.506816 269.343571 
L 101.506816 269.228841 
L 102.060491 269.228841 
L 102.060491 268.655189 
L 102.597126 268.655189 
L 102.597126 268.425729 
L 102.859376 268.425729 
L 102.859376 268.310998 
L 104.114542 268.310998 
L 104.114542 268.196268 
L 104.355088 268.196268 
L 104.355088 268.081538 
L 104.592361 268.081538 
L 104.592361 267.966807 
L 105.057436 267.966807 
L 105.057436 267.852077 
L 105.285403 267.852077 
L 105.285403 267.737347 
L 106.168594 267.737347 
L 106.168594 267.507886 
L 106.802819 267.507886 
L 106.802819 267.393156 
L 107.614095 267.393156 
L 107.614095 267.278425 
L 108.577836 267.278425 
L 108.577836 267.163695 
L 109.31223 267.163695 
L 109.31223 267.048964 
L 110.358901 267.048964 
L 110.358901 266.934234 
L 110.527398 266.934234 
L 110.527398 266.819504 
L 111.023335 266.819504 
L 111.023335 266.704773 
L 111.185562 266.704773 
L 111.185562 266.475313 
L 111.505558 266.475313 
L 111.505558 266.360582 
L 111.663381 266.360582 
L 111.663381 266.245852 
L 111.974805 266.245852 
L 111.974805 266.016391 
L 112.877038 266.016391 
L 112.877038 265.901661 
L 114.552496 265.901661 
L 114.552496 265.786931 
L 115.586238 265.786931 
L 115.586238 265.6722 
L 115.835374 265.6722 
L 115.835374 265.55747 
L 116.797786 265.55747 
L 116.797786 265.44274 
L 116.914437 265.44274 
L 116.914437 265.328009 
L 118.039942 265.328009 
L 118.148599 265.098549 
L 119.40226 265.098549 
L 119.40226 264.983818 
L 119.89914 264.983818 
L 119.89914 264.869088 
L 123.434283 264.869088 
L 123.434283 264.754358 
L 123.593547 264.754358 
L 123.672636 264.524897 
L 124.216444 264.524897 
L 124.216444 264.295436 
L 125.327602 264.295436 
L 125.327602 264.180706 
L 126.70692 264.180706 
L 126.773103 263.951245 
L 127.165014 263.951245 
L 127.165014 263.836515 
L 127.293718 263.836515 
L 127.293718 263.721785 
L 128.590686 263.721785 
L 128.590686 263.607054 
L 129.853291 263.607054 
L 129.853291 263.492324 
L 130.45189 263.492324 
L 130.45189 263.377593 
L 130.978796 263.377593 
L 130.978796 263.262863 
L 131.338382 263.262863 
L 131.338382 262.918672 
L 134.870259 262.918672 
L 134.870259 262.803942 
L 135.117629 262.803942 
L 135.117629 262.689211 
L 137.980475 262.689211 
L 137.980475 262.574481 
L 140.438956 262.574481 
L 140.438956 262.459751 
L 141.002999 262.459751 
L 141.002999 262.34502 
L 141.235139 262.34502 
L 141.235139 262.23029 
L 141.46423 262.23029 
L 141.46423 262.11556 
L 141.746425 262.11556 
L 141.746425 262.000829 
L 142.07914 262.000829 
L 142.07914 261.886099 
L 142.459451 261.886099 
L 142.459451 261.771369 
L 142.699628 261.771369 
L 142.699628 261.656638 
L 142.962669 261.656638 
L 142.962669 261.541908 
L 143.527762 261.541908 
L 143.527762 261.427178 
L 144.172816 261.427178 
L 144.172816 261.312447 
L 145.976095 261.312447 
L 145.976095 261.197717 
L 146.302479 261.197717 
L 146.302479 261.082987 
L 147.48985 261.082987 
L 147.530079 260.853526 
L 148.826773 260.853526 
L 148.826773 260.738796 
L 149.25057 260.738796 
L 149.25057 260.624065 
L 150.344189 260.624065 
L 150.344189 260.509335 
L 150.982078 260.509335 
L 150.982078 260.394605 
L 152.083873 260.394605 
L 152.083873 260.279874 
L 153.580644 260.279874 
L 153.679772 260.050414 
L 153.848404 260.050414 
L 153.848404 259.935683 
L 154.153391 259.935683 
L 154.153391 259.820953 
L 154.906477 259.820953 
L 154.906477 259.706222 
L 155.450689 259.706222 
L 155.450689 259.591492 
L 156.040206 259.591492 
L 156.040206 259.476762 
L 156.953214 259.476762 
L 156.953214 259.362031 
L 157.765022 259.362031 
L 157.765022 259.247301 
L 157.920731 259.247301 
L 157.920731 259.132571 
L 158.774233 259.132571 
L 158.774233 259.01784 
L 158.921223 259.01784 
L 158.921223 258.90311 
L 160.413354 258.90311 
L 160.413354 258.78838 
L 161.035578 258.78838 
L 161.054091 258.558919 
L 161.155563 258.558919 
L 161.155563 258.444189 
L 161.374928 258.444189 
L 161.374928 258.329458 
L 161.823263 258.329458 
L 161.867469 258.099998 
L 161.946759 258.099998 
L 162.02569 257.870537 
L 162.095552 257.870537 
L 162.095552 257.755807 
L 162.260361 257.755807 
L 162.355069 257.526346 
L 164.705214 257.526346 
L 164.705214 257.411616 
L 164.951104 257.411616 
L 164.951104 257.296885 
L 165.490206 257.296885 
L 165.490206 257.182155 
L 165.96434 257.182155 
L 165.96434 257.067425 
L 168.397438 257.067425 
L 168.397438 256.952694 
L 169.099626 256.952694 
L 169.099626 256.837964 
L 170.510761 256.837964 
L 170.510761 256.723234 
L 170.920115 256.723234 
L 170.920115 256.608503 
L 171.299527 256.608503 
L 171.299527 256.493773 
L 173.211329 256.493773 
L 173.211329 256.379043 
L 173.835843 256.379043 
L 173.835843 256.264312 
L 175.829035 256.264312 
L 175.829035 256.149582 
L 176.371677 256.149582 
L 176.371677 256.034851 
L 177.368906 256.034851 
L 177.368906 255.920121 
L 178.111569 255.920121 
L 178.111569 255.805391 
L 180.816238 255.805391 
L 180.816238 255.69066 
L 181.30967 255.69066 
L 181.30967 255.57593 
L 182.060685 255.57593 
L 182.060685 255.4612 
L 183.191044 255.4612 
L 183.191044 255.346469 
L 183.986359 255.346469 
L 183.986359 255.231739 
L 185.760815 255.231739 
L 185.760815 255.117009 
L 187.903139 255.117009 
L 187.903139 255.002278 
L 189.110426 255.002278 
L 189.206439 254.772818 
L 189.880077 254.772818 
L 189.880077 254.658087 
L 194.559867 254.658087 
L 194.559867 254.543357 
L 194.727035 254.543357 
L 194.727035 254.428627 
L 199.159053 254.428627 
L 199.159053 254.313896 
L 207.753962 254.313896 
L 207.753962 254.199166 
L 338.688 254.199166 
L 338.688 254.199166 
" style="fill:none;stroke:#0000ff;stroke-linecap:square;stroke-width:1.5;"/>
   </g>
   <g id="line2d_41">
    <defs>
     <path d="M 0 -6 
L -1.347084 -1.854102 
L -5.706339 -1.854102 
L -2.179628 0.708204 
L -3.526712 4.854102 
L -0 2.291796 
L 3.526712 4.854102 
L 2.179628 0.708204 
L 5.706339 -1.854102 
L 1.347084 -1.854102 
z
" id="m8353585c52" style="stroke:#0000ff;stroke-linejoin:bevel;stroke-width:1.5;"/>
    </defs>
    <g>
     <use style="fill-opacity:0;stroke:#0000ff;stroke-linejoin:bevel;stroke-width:1.5;" x="119.89914" xlink:href="#m8353585c52" y="264.869088"/>
     <use style="fill-opacity:0;stroke:#0000ff;stroke-linejoin:bevel;stroke-width:1.5;" x="199.159053" xlink:href="#m8353585c52" y="254.428627"/>
     <use style="fill-opacity:0;stroke:#0000ff;stroke-linejoin:bevel;stroke-width:1.5;" x="207.753962" xlink:href="#m8353585c52" y="254.313896"/>
     <use style="fill-opacity:0;stroke:#0000ff;stroke-linejoin:bevel;stroke-width:1.5;" x="207.753962" xlink:href="#m8353585c52" y="254.199166"/>
     <use style="fill-opacity:0;stroke:#0000ff;stroke-linejoin:bevel;stroke-width:1.5;" x="207.753962" xlink:href="#m8353585c52" y="254.199166"/>
     <use style="fill-opacity:0;stroke:#0000ff;stroke-linejoin:bevel;stroke-width:1.5;" x="338.688" xlink:href="#m8353585c52" y="254.199166"/>
    </g>
   </g>
   <g id="line2d_42">
    <path style="fill:none;stroke:#0000ff;stroke-linecap:square;stroke-width:1.5;"/>
    <g/>
   </g>
   <g id="line2d_43">
    <path clip-path="url(#pf08fff02cc)" d="M 137.52291 262.689211 
" style="fill:none;stroke:#0000ff;stroke-linecap:square;stroke-width:1.5;"/>
    <defs>
     <path d="M -12 12 
L 12 -12 
M -12 -12 
L 12 12 
" id="m1c94b1bdec" style="stroke:#0000ff;"/>
    </defs>
    <g clip-path="url(#pf08fff02cc)">
     <use style="fill:#0000ff;stroke:#0000ff;" x="137.52291" xlink:href="#m1c94b1bdec" y="262.689211"/>
    </g>
   </g>
   <g id="line2d_44">
    <defs>
     <path d="M 0 1.5 
C 0.397805 1.5 0.77937 1.341951 1.06066 1.06066 
C 1.341951 0.77937 1.5 0.397805 1.5 0 
C 1.5 -0.397805 1.341951 -0.77937 1.06066 -1.06066 
C 0.77937 -1.341951 0.397805 -1.5 0 -1.5 
C -0.397805 -1.5 -0.77937 -1.341951 -1.06066 -1.06066 
C -1.341951 -0.77937 -1.5 -0.397805 -1.5 0 
C -1.5 0.397805 -1.341951 0.77937 -1.06066 1.06066 
C -0.77937 1.341951 -0.397805 1.5 0 1.5 
z
" id="m83f5f02324" style="stroke:#000000;"/>
    </defs>
    <g>
     <use style="stroke:#000000;" x="219.804724" xlink:href="#m83f5f02324" y="257.641076"/>
     <use style="stroke:#000000;" x="219.804724" xlink:href="#m83f5f02324" y="257.641076"/>
    </g>
   </g>
   <g id="line2d_45">
    <path d="M 17.444571 298.944 
L 17.444571 274.850628 
L 81.775977 274.850628 
L 81.775977 274.735897 
L 90.771388 274.735897 
L 90.771388 274.621167 
L 92.267099 274.621167 
L 92.267099 274.506437 
L 93.197415 274.506437 
L 93.197415 274.391706 
L 94.080605 274.391706 
L 94.080605 274.276976 
L 96.110718 274.276976 
L 96.110718 274.162246 
L 96.301313 274.162246 
L 96.301313 274.047515 
L 96.489848 274.047515 
L 96.489848 273.818055 
L 96.86091 273.818055 
L 96.86091 273.703324 
L 97.580158 273.703324 
L 97.580158 273.588594 
L 99.41757 273.588594 
L 99.41757 273.473864 
L 99.731799 273.473864 
L 99.731799 273.359133 
L 100.641881 273.359133 
L 100.641881 273.244403 
L 100.934985 273.244403 
L 100.934985 273.129673 
L 101.365607 273.129673 
L 101.365607 272.900212 
L 101.646892 272.900212 
L 101.646892 272.785482 
L 102.859376 272.785482 
L 102.859376 272.670751 
L 102.989037 272.670751 
L 102.989037 272.556021 
L 103.747386 272.556021 
L 103.747386 272.441291 
L 104.114542 272.441291 
L 104.114542 272.21183 
L 105.398279 272.21183 
L 105.398279 272.0971 
L 106.275913 272.0971 
L 106.275913 271.982369 
L 107.314272 271.982369 
L 107.314272 271.752909 
L 108.198707 271.752909 
L 108.294265 271.523448 
L 109.222105 271.523448 
L 109.222105 271.408718 
L 109.930396 271.408718 
L 109.930396 271.293987 
L 110.274038 271.293987 
L 110.274038 271.179257 
L 110.61104 271.179257 
L 110.61104 271.064526 
L 111.74176 271.064526 
L 111.74176 270.949796 
L 112.72987 270.949796 
L 112.72987 270.835066 
L 112.877038 270.835066 
L 112.877038 270.720335 
L 113.239614 270.720335 
L 113.239614 270.605605 
L 113.942906 270.605605 
L 113.942906 270.490875 
L 114.216469 270.490875 
L 114.216469 270.376144 
L 114.351658 270.376144 
L 114.351658 270.261414 
L 114.685115 270.261414 
L 114.685115 270.146684 
L 114.816733 270.146684 
L 114.816733 270.031953 
L 115.012316 270.031953 
L 115.012316 269.917223 
L 116.081002 269.917223 
L 116.081002 269.802493 
L 116.38325 269.802493 
L 116.38325 269.687762 
L 116.680349 269.687762 
L 116.680349 269.573032 
L 117.202696 269.573032 
L 117.202696 269.458302 
L 117.654224 269.458302 
L 117.654224 269.343571 
L 118.039942 269.343571 
L 118.148599 269.114111 
L 118.417314 269.114111 
L 118.417314 268.99938 
L 118.786692 268.99938 
L 118.890808 268.655189 
L 119.301163 268.655189 
L 119.301163 268.425729 
L 119.996839 268.425729 
L 120.045484 268.196268 
L 120.618882 268.196268 
L 120.618882 268.081538 
L 121.489881 268.081538 
L 121.489881 267.966807 
L 121.974949 267.966807 
L 121.974949 267.852077 
L 122.906394 267.852077 
L 122.906394 267.622616 
L 123.111324 267.622616 
L 123.111324 267.507886 
L 125.074593 267.507886 
L 125.147256 267.278425 
L 125.857712 267.278425 
L 125.857712 267.163695 
L 126.338353 267.163695 
L 126.338353 267.048964 
L 127.165014 267.048964 
L 127.165014 266.934234 
L 127.674226 266.934234 
L 127.674226 266.819504 
L 128.679738 266.819504 
L 128.679738 266.704773 
L 129.46138 266.704773 
L 129.46138 266.590043 
L 130.018593 266.590043 
L 130.045992 266.360582 
L 130.182344 266.360582 
L 130.182344 266.245852 
L 130.638123 266.245852 
L 130.638123 266.131122 
L 130.900768 266.131122 
L 130.900768 266.016391 
L 131.210808 266.016391 
L 131.210808 265.901661 
L 132.230358 265.901661 
L 132.230358 265.786931 
L 132.374684 265.786931 
L 132.374684 265.6722 
L 133.0559 265.6722 
L 133.0559 265.55747 
L 135.839358 265.55747 
L 135.839358 265.44274 
L 136.5324 265.44274 
L 136.5324 265.328009 
L 137.469333 265.328009 
L 137.469333 265.213279 
L 140.856326 265.213279 
L 140.856326 265.098549 
L 143.678752 265.098549 
L 143.678752 264.983818 
L 145.143889 264.983818 
L 145.143889 264.869088 
L 146.527367 264.869088 
L 146.527367 264.754358 
L 147.154371 264.754358 
L 147.154371 264.639627 
L 147.338159 264.639627 
L 147.338159 264.524897 
L 149.998846 264.524897 
L 150.007563 263.836515 
L 151.13797 263.836515 
L 151.13797 263.721785 
L 151.795227 263.721785 
L 151.795227 263.607054 
L 152.766663 263.607054 
L 152.766663 263.492324 
L 153.980758 263.492324 
L 153.980758 263.377593 
L 154.453136 263.377593 
L 154.453136 263.262863 
L 154.707925 263.262863 
L 154.707925 263.148133 
L 154.906477 263.148133 
L 154.906477 263.033402 
L 155.031067 263.033402 
L 155.031067 262.918672 
L 155.450689 262.918672 
L 155.450689 262.803942 
L 156.98245 262.803942 
L 156.98245 262.689211 
L 157.964965 262.689211 
L 157.964965 262.574481 
L 158.889829 262.574481 
L 158.889829 262.459751 
L 159.562728 262.459751 
L 159.562728 262.34502 
L 160.807184 262.34502 
L 160.807184 262.23029 
L 161.077205 262.23029 
L 161.077205 262.11556 
L 162.030064 262.11556 
L 162.030064 262.000829 
L 162.281931 262.000829 
L 162.281931 261.886099 
L 162.436452 261.886099 
L 162.500433 261.656638 
L 162.602318 261.656638 
L 162.602318 261.541908 
L 164.113737 261.541908 
L 164.113737 261.427178 
L 165.967831 261.427178 
L 166.027059 261.197717 
L 170.000413 261.197717 
L 170.000413 261.082987 
L 173.079519 261.082987 
L 173.079519 260.968256 
L 173.701969 260.968256 
L 173.701969 260.853526 
L 174.155192 260.853526 
L 174.155192 260.738796 
L 177.345294 260.738796 
L 177.381607 260.509335 
L 177.511711 260.509335 
L 177.511711 260.394605 
L 178.141114 260.394605 
L 178.141114 260.279874 
L 178.792138 260.279874 
L 178.792138 260.165144 
L 179.796466 260.165144 
L 179.796466 260.050414 
L 181.196361 260.050414 
L 181.196361 259.935683 
L 182.18231 259.935683 
L 182.18231 259.820953 
L 184.295332 259.820953 
L 184.295332 259.706222 
L 185.903816 259.706222 
L 185.903816 259.591492 
L 187.694546 259.591492 
L 187.694546 259.476762 
L 190.300152 259.476762 
L 190.300152 259.362031 
L 194.294384 259.362031 
L 194.294384 259.247301 
L 194.681358 259.247301 
L 194.681358 259.132571 
L 194.832708 259.132571 
L 194.832708 259.01784 
L 196.0526 259.01784 
L 196.0526 258.90311 
L 196.481265 258.90311 
L 196.481265 258.78838 
L 198.172226 258.78838 
L 198.172226 258.673649 
L 201.2571 258.673649 
L 201.2571 258.558919 
L 202.96686 258.558919 
L 202.96686 258.444189 
L 203.333947 258.444189 
L 203.333947 258.329458 
L 205.400371 258.329458 
L 205.400371 258.214728 
L 206.952673 258.214728 
L 206.952673 258.099998 
L 207.83166 258.099998 
L 207.83166 257.985267 
L 211.717996 257.985267 
L 211.717996 257.870537 
L 212.713785 257.870537 
L 212.713785 257.755807 
L 219.804724 257.755807 
L 219.804724 257.641076 
L 338.688 257.641076 
L 338.688 257.641076 
" style="fill:none;stroke:#000000;stroke-linecap:square;stroke-width:1.5;"/>
   </g>
   <g id="line2d_46">
    <defs>
     <path d="M 0 6 
C 1.591219 6 3.117479 5.367802 4.242641 4.242641 
C 5.367802 3.117479 6 1.591219 6 0 
C 6 -1.591219 5.367802 -3.117479 4.242641 -4.242641 
C 3.117479 -5.367802 1.591219 -6 0 -6 
C -1.591219 -6 -3.117479 -5.367802 -4.242641 -4.242641 
C -5.367802 -3.117479 -6 -1.591219 -6 0 
C -6 1.591219 -5.367802 3.117479 -4.242641 4.242641 
C -3.117479 5.367802 -1.591219 6 0 6 
z
" id="m40d6b20837" style="stroke:#000000;stroke-width:1.5;"/>
    </defs>
    <g>
     <use style="fill-opacity:0;stroke:#000000;stroke-width:1.5;" x="136.5324" xlink:href="#m40d6b20837" y="265.44274"/>
     <use style="fill-opacity:0;stroke:#000000;stroke-width:1.5;" x="207.83166" xlink:href="#m40d6b20837" y="257.985267"/>
     <use style="fill-opacity:0;stroke:#000000;stroke-width:1.5;" x="219.804724" xlink:href="#m40d6b20837" y="257.641076"/>
     <use style="fill-opacity:0;stroke:#000000;stroke-width:1.5;" x="219.804724" xlink:href="#m40d6b20837" y="257.641076"/>
     <use style="fill-opacity:0;stroke:#000000;stroke-width:1.5;" x="338.688" xlink:href="#m40d6b20837" y="257.641076"/>
    </g>
   </g>
   <g id="line2d_47">
    <path style="fill:none;stroke:#000000;stroke-linecap:square;stroke-width:1.5;"/>
    <g/>
   </g>
   <g id="line2d_48">
    <path clip-path="url(#pf08fff02cc)" d="M 147.205618 264.639627 
" style="fill:none;stroke:#000000;stroke-linecap:square;stroke-width:1.5;"/>
    <defs>
     <path d="M -12 12 
L 12 -12 
M -12 -12 
L 12 12 
" id="me3d3752406" style="stroke:#000000;"/>
    </defs>
    <g clip-path="url(#pf08fff02cc)">
     <use style="stroke:#000000;" x="147.205618" xlink:href="#me3d3752406" y="264.639627"/>
    </g>
   </g>
   <g id="line2d_49">
    <defs>
     <path d="M 0 1.5 
C 0.397805 1.5 0.77937 1.341951 1.06066 1.06066 
C 1.341951 0.77937 1.5 0.397805 1.5 0 
C 1.5 -0.397805 1.341951 -0.77937 1.06066 -1.06066 
C 0.77937 -1.341951 0.397805 -1.5 0 -1.5 
C -0.397805 -1.5 -0.77937 -1.341951 -1.06066 -1.06066 
C -1.341951 -0.77937 -1.5 -0.397805 -1.5 0 
C -1.5 0.397805 -1.341951 0.77937 -1.06066 1.06066 
C -0.77937 1.341951 -0.397805 1.5 0 1.5 
z
" id="mb530b332a1" style="stroke:#ff0000;"/>
    </defs>
    <g>
     <use style="fill:#ff0000;stroke:#ff0000;" x="215.888438" xlink:href="#mb530b332a1" y="261.082987"/>
     <use style="fill:#ff0000;stroke:#ff0000;" x="215.888438" xlink:href="#mb530b332a1" y="261.082987"/>
    </g>
   </g>
   <g id="line2d_50">
    <path d="M 5.356583 298.944 
L 5.356583 275.080089 
L 94.818328 275.080089 
L 94.818328 274.965358 
L 97.043522 274.965358 
L 97.043522 274.850628 
L 106.114686 274.850628 
L 106.114686 274.735897 
L 106.593963 274.735897 
L 106.593963 274.621167 
L 107.111487 274.621167 
L 107.111487 274.506437 
L 107.514726 274.506437 
L 107.514726 274.391706 
L 108.948899 274.391706 
L 108.948899 274.276976 
L 110.060057 274.276976 
L 110.060057 274.162246 
L 111.145147 274.162246 
L 111.145147 273.932785 
L 114.519183 273.932785 
L 114.519183 273.818055 
L 115.523393 273.818055 
L 115.523393 273.703324 
L 115.866268 273.703324 
L 115.897107 273.473864 
L 116.202531 273.473864 
L 116.202531 273.359133 
L 118.523652 273.359133 
L 118.602981 273.014942 
L 119.020084 273.014942 
L 119.020084 272.900212 
L 119.377041 272.900212 
L 119.377041 272.785482 
L 120.286695 272.785482 
L 120.358413 272.556021 
L 120.642369 272.556021 
L 120.642369 272.441291 
L 121.445108 272.441291 
L 121.445108 272.32656 
L 121.909593 272.32656 
L 121.909593 272.21183 
L 122.740699 272.21183 
L 122.740699 272.0971 
L 123.354102 272.0971 
L 123.354102 271.982369 
L 124.311793 271.982369 
L 124.311793 271.867639 
L 124.482119 271.867639 
L 124.482119 271.752909 
L 124.762349 271.752909 
L 124.762349 271.638178 
L 126.030894 271.638178 
L 126.030894 271.523448 
L 126.219429 271.523448 
L 126.219429 271.408718 
L 127.799239 271.408718 
L 127.799239 271.293987 
L 129.233413 271.293987 
L 129.233413 271.179257 
L 130.018593 271.179257 
L 130.018593 271.064526 
L 130.236587 271.064526 
L 130.317637 270.835066 
L 131.490249 270.835066 
L 131.490249 270.720335 
L 131.678241 270.720335 
L 131.678241 270.605605 
L 131.876558 270.605605 
L 131.876558 270.490875 
L 132.577122 270.490875 
L 132.577122 270.376144 
L 132.812315 270.376144 
L 132.812315 270.261414 
L 133.19358 270.261414 
L 133.19358 270.146684 
L 133.711505 270.146684 
L 133.711505 270.031953 
L 134.073807 270.031953 
L 134.073807 269.917223 
L 134.587709 269.917223 
L 134.587709 269.802493 
L 135.014985 269.802493 
L 135.014985 269.687762 
L 136.121821 269.687762 
L 136.121821 269.573032 
L 137.198951 269.573032 
L 137.198951 269.458302 
L 137.37967 269.458302 
L 137.406618 268.99938 
L 137.753193 268.99938 
L 137.753193 268.88465 
L 138.256201 268.88465 
L 138.256201 268.76992 
L 138.561269 268.76992 
L 138.561269 268.655189 
L 138.836303 268.655189 
L 138.836303 268.540459 
L 139.147727 268.540459 
L 139.147727 268.425729 
L 139.357646 268.425729 
L 139.421732 268.081538 
L 140.11924 268.081538 
L 140.11924 267.966807 
L 141.335737 267.966807 
L 141.421504 267.737347 
L 141.577657 267.737347 
L 141.577657 267.622616 
L 142.778958 267.622616 
L 142.778958 267.507886 
L 144.688773 267.507886 
L 144.688773 267.393156 
L 144.952787 267.393156 
L 144.952787 267.278425 
L 145.604265 267.278425 
L 145.604265 267.163695 
L 146.06373 267.163695 
L 146.06373 267.048964 
L 146.38313 267.048964 
L 146.38313 266.934234 
L 146.958248 266.934234 
L 146.958248 266.819504 
L 147.645223 266.819504 
L 147.645223 266.704773 
L 148.406757 266.704773 
L 148.406757 266.590043 
L 149.200437 266.590043 
L 149.200437 266.475313 
L 149.593058 266.475313 
L 149.593058 266.360582 
L 150.003205 266.360582 
L 150.003205 265.786931 
L 150.920156 265.786931 
L 150.920156 265.6722 
L 152.141804 265.6722 
L 152.141804 265.55747 
L 152.885298 265.55747 
L 152.885298 265.44274 
L 153.420143 265.44274 
L 153.420143 265.213279 
L 154.136205 265.213279 
L 154.136205 265.098549 
L 154.470014 265.098549 
L 154.470014 264.983818 
L 154.870244 264.983818 
L 154.870244 264.869088 
L 155.53024 264.869088 
L 155.53024 264.754358 
L 157.38669 264.754358 
L 157.38669 264.639627 
L 158.355403 264.639627 
L 158.355403 264.524897 
L 162.089014 264.524897 
L 162.089014 264.410167 
L 162.41935 264.410167 
L 162.41935 264.295436 
L 164.480529 264.295436 
L 164.480529 264.180706 
L 165.289991 264.180706 
L 165.289991 264.065976 
L 165.758932 264.065976 
L 165.758932 263.951245 
L 167.501961 263.951245 
L 167.501961 263.836515 
L 172.265812 263.836515 
L 172.265812 263.721785 
L 176.283045 263.721785 
L 176.283045 263.607054 
L 177.125814 263.607054 
L 177.125814 263.492324 
L 179.62826 263.492324 
L 179.62826 263.377593 
L 180.221578 263.377593 
L 180.221578 263.262863 
L 181.889252 263.262863 
L 181.889252 263.148133 
L 184.683853 263.148133 
L 184.683853 263.033402 
L 185.114038 263.033402 
L 185.114038 262.918672 
L 185.912159 262.918672 
L 185.912159 262.803942 
L 187.726145 262.803942 
L 187.726145 262.689211 
L 188.71579 262.689211 
L 188.71579 262.574481 
L 189.691273 262.574481 
L 189.691273 262.459751 
L 190.221287 262.459751 
L 190.221287 262.34502 
L 191.395205 262.34502 
L 191.395205 262.23029 
L 191.66235 262.23029 
L 191.66235 262.11556 
L 192.928043 262.11556 
L 192.928043 262.000829 
L 193.047376 262.000829 
L 193.047376 261.886099 
L 194.374317 261.886099 
L 194.374317 261.771369 
L 202.012299 261.771369 
L 202.012299 261.656638 
L 204.98905 261.656638 
L 204.98905 261.541908 
L 208.564248 261.541908 
L 208.564248 261.427178 
L 210.295279 261.427178 
L 210.295279 261.312447 
L 211.871151 261.312447 
L 211.871151 261.197717 
L 215.888438 261.197717 
L 215.888438 261.082987 
L 338.688 261.082987 
L 338.688 261.082987 
" style="fill:none;stroke:#ff0000;stroke-linecap:square;stroke-width:1.5;"/>
   </g>
   <g id="line2d_51">
    <defs>
     <path d="M -6 6 
L 6 6 
L 6 -6 
L -6 -6 
z
" id="m01ec9a7d20" style="stroke:#ff0000;stroke-linejoin:miter;stroke-width:1.5;"/>
    </defs>
    <g>
     <use style="fill-opacity:0;stroke:#ff0000;stroke-linejoin:miter;stroke-width:1.5;" x="121.445108" xlink:href="#m01ec9a7d20" y="272.441291"/>
     <use style="fill-opacity:0;stroke:#ff0000;stroke-linejoin:miter;stroke-width:1.5;" x="208.564248" xlink:href="#m01ec9a7d20" y="261.541908"/>
     <use style="fill-opacity:0;stroke:#ff0000;stroke-linejoin:miter;stroke-width:1.5;" x="215.888438" xlink:href="#m01ec9a7d20" y="261.082987"/>
     <use style="fill-opacity:0;stroke:#ff0000;stroke-linejoin:miter;stroke-width:1.5;" x="215.888438" xlink:href="#m01ec9a7d20" y="261.082987"/>
     <use style="fill-opacity:0;stroke:#ff0000;stroke-linejoin:miter;stroke-width:1.5;" x="338.688" xlink:href="#m01ec9a7d20" y="261.082987"/>
    </g>
   </g>
   <g id="line2d_52">
    <path style="fill:none;stroke:#ff0000;stroke-linecap:square;stroke-width:1.5;"/>
    <g/>
   </g>
   <g id="line2d_53">
    <path clip-path="url(#pf08fff02cc)" d="M 149.998846 266.360582 
" style="fill:none;stroke:#ff0000;stroke-linecap:square;stroke-width:1.5;"/>
    <defs>
     <path d="M -12 12 
L 12 -12 
M -12 -12 
L 12 12 
" id="mda2cc22105" style="stroke:#ff0000;"/>
    </defs>
    <g clip-path="url(#pf08fff02cc)">
     <use style="fill:#ff0000;stroke:#ff0000;" x="149.998846" xlink:href="#mda2cc22105" y="266.360582"/>
    </g>
   </g>
   <g id="line2d_54">
    <defs>
     <path d="M 0 1.5 
C 0.397805 1.5 0.77937 1.341951 1.06066 1.06066 
C 1.341951 0.77937 1.5 0.397805 1.5 0 
C 1.5 -0.397805 1.341951 -0.77937 1.06066 -1.06066 
C 0.77937 -1.341951 0.397805 -1.5 0 -1.5 
C -0.397805 -1.5 -0.77937 -1.341951 -1.06066 -1.06066 
C -1.341951 -0.77937 -1.5 -0.397805 -1.5 0 
C -1.5 0.397805 -1.341951 0.77937 -1.06066 1.06066 
C -0.77937 1.341951 -0.397805 1.5 0 1.5 
z
" id="m92e4923728" style="stroke:#bf00bf;"/>
    </defs>
    <g>
     <use style="fill:#bf00bf;stroke:#bf00bf;" x="201.2586" xlink:href="#m92e4923728" y="266.819504"/>
     <use style="fill:#bf00bf;stroke:#bf00bf;" x="201.2586" xlink:href="#m92e4923728" y="266.819504"/>
    </g>
   </g>
   <g id="line2d_55">
    <path d="M -1 274.965358 
L 106.114686 274.965358 
L 106.114686 274.850628 
L 107.439825 274.850628 
L 107.439825 274.735897 
L 109.886961 274.735897 
L 109.886961 274.621167 
L 113.78712 274.621167 
L 113.78712 274.506437 
L 114.485807 274.506437 
L 114.485807 274.391706 
L 115.125401 274.391706 
L 115.125401 274.276976 
L 119.664886 274.276976 
L 119.664886 274.162246 
L 124.101333 274.162246 
L 124.101333 274.047515 
L 125.918522 274.047515 
L 125.918522 273.932785 
L 130.256885 273.932785 
L 130.256885 273.818055 
L 133.521885 273.818055 
L 133.521885 273.703324 
L 134.165921 273.703324 
L 134.165921 273.588594 
L 134.396766 273.588594 
L 134.396766 273.473864 
L 135.214585 273.473864 
L 135.214585 273.359133 
L 136.034648 273.359133 
L 136.034648 273.244403 
L 136.988781 273.244403 
L 136.988781 273.129673 
L 137.545185 273.129673 
L 137.545185 273.014942 
L 137.757592 273.014942 
L 137.757592 272.900212 
L 139.337571 272.900212 
L 139.337571 272.785482 
L 141.549369 272.785482 
L 141.549369 272.670751 
L 143.018058 272.670751 
L 143.05705 272.441291 
L 143.372265 272.441291 
L 143.372265 272.32656 
L 144.178904 272.32656 
L 144.209312 272.0971 
L 145.621085 272.0971 
L 145.621085 271.982369 
L 145.890777 271.982369 
L 145.890777 271.867639 
L 146.080112 271.867639 
L 146.080112 271.752909 
L 146.801841 271.752909 
L 146.801841 271.638178 
L 146.981588 271.638178 
L 147.033345 271.408718 
L 147.494884 271.408718 
L 147.577731 271.179257 
L 148.083753 271.179257 
L 148.083753 271.064526 
L 148.219468 271.064526 
L 148.231534 270.835066 
L 149.44067 270.835066 
L 149.44067 270.720335 
L 149.937701 270.720335 
L 149.937701 270.605605 
L 151.4356 270.605605 
L 151.4356 270.490875 
L 152.371625 270.490875 
L 152.371625 270.376144 
L 152.822374 270.376144 
L 152.822374 270.261414 
L 153.559329 270.261414 
L 153.559329 270.146684 
L 155.79647 270.146684 
L 155.79647 270.031953 
L 156.767892 270.031953 
L 156.767892 269.917223 
L 159.087709 269.917223 
L 159.087709 269.802493 
L 160.414554 269.802493 
L 160.414554 269.687762 
L 160.879755 269.687762 
L 160.879755 269.573032 
L 162.087924 269.573032 
L 162.089014 269.343571 
L 162.942889 269.343571 
L 162.942889 269.228841 
L 166.273988 269.228841 
L 166.273988 269.114111 
L 167.710846 269.114111 
L 167.710846 268.99938 
L 168.061003 268.99938 
L 168.061003 268.88465 
L 168.208945 268.88465 
L 168.208945 268.76992 
L 168.973774 268.76992 
L 168.973774 268.540459 
L 169.926868 268.540459 
L 169.926868 268.425729 
L 170.185672 268.425729 
L 170.185672 268.310998 
L 173.428822 268.310998 
L 173.428822 268.196268 
L 173.7495 268.196268 
L 173.7495 268.081538 
L 175.685198 268.081538 
L 175.685198 267.966807 
L 178.06585 267.966807 
L 178.066722 267.737347 
L 180.264678 267.737347 
L 180.264678 267.622616 
L 180.853437 267.622616 
L 180.96345 267.393156 
L 183.855466 267.393156 
L 183.855466 267.278425 
L 185.532161 267.278425 
L 185.532161 267.163695 
L 186.141953 267.163695 
L 186.141953 267.048964 
L 188.255961 267.048964 
L 188.255961 266.934234 
L 201.2586 266.934234 
L 201.2586 266.819504 
L 338.688 266.819504 
L 338.688 266.819504 
" style="fill:none;stroke:#bf00bf;stroke-linecap:square;stroke-width:1.5;"/>
   </g>
   <g id="line2d_56">
    <defs>
     <path d="M -0 8.485281 
L 8.485281 0 
L 0 -8.485281 
L -8.485281 -0 
z
" id="m2105728358" style="stroke:#bf00bf;stroke-linejoin:miter;stroke-width:1.5;"/>
    </defs>
    <g>
     <use style="fill-opacity:0;stroke:#bf00bf;stroke-linejoin:miter;stroke-width:1.5;" x="170.185672" xlink:href="#m2105728358" y="268.425729"/>
     <use style="fill-opacity:0;stroke:#bf00bf;stroke-linejoin:miter;stroke-width:1.5;" x="201.2586" xlink:href="#m2105728358" y="266.934234"/>
     <use style="fill-opacity:0;stroke:#bf00bf;stroke-linejoin:miter;stroke-width:1.5;" x="201.2586" xlink:href="#m2105728358" y="266.819504"/>
     <use style="fill-opacity:0;stroke:#bf00bf;stroke-linejoin:miter;stroke-width:1.5;" x="201.2586" xlink:href="#m2105728358" y="266.819504"/>
     <use style="fill-opacity:0;stroke:#bf00bf;stroke-linejoin:miter;stroke-width:1.5;" x="338.688" xlink:href="#m2105728358" y="266.819504"/>
    </g>
   </g>
   <g id="line2d_57">
    <path style="fill:none;stroke:#bf00bf;stroke-linecap:square;stroke-width:1.5;"/>
    <g/>
   </g>
   <g id="line2d_58">
    <path clip-path="url(#pf08fff02cc)" d="M 149.998846 270.605605 
" style="fill:none;stroke:#bf00bf;stroke-linecap:square;stroke-width:1.5;"/>
    <defs>
     <path d="M -12 12 
L 12 -12 
M -12 -12 
L 12 12 
" id="m9f5b5deba2" style="stroke:#bf00bf;"/>
    </defs>
    <g clip-path="url(#pf08fff02cc)">
     <use style="fill:#bf00bf;stroke:#bf00bf;" x="149.998846" xlink:href="#m9f5b5deba2" y="270.605605"/>
    </g>
   </g>
   <g id="line2d_59">
    <path d="M 338.688 266.819504 
L 369.60768 293.092752 
" style="fill:none;stroke:#bf00bf;stroke-linecap:square;stroke-width:1.5;"/>
    <g>
     <use style="fill-opacity:0;stroke:#bf00bf;stroke-linejoin:miter;stroke-width:1.5;" x="338.688" xlink:href="#m2105728358" y="266.819504"/>
     <use style="fill-opacity:0;stroke:#bf00bf;stroke-linejoin:miter;stroke-width:1.5;" x="369.60768" xlink:href="#m2105728358" y="293.092752"/>
    </g>
   </g>
   <g id="line2d_60">
    <path d="M 338.688 261.082987 
L 369.60768 236.920776 
" style="fill:none;stroke:#ff0000;stroke-linecap:square;stroke-width:1.5;"/>
    <g>
     <use style="fill-opacity:0;stroke:#ff0000;stroke-linejoin:miter;stroke-width:1.5;" x="338.688" xlink:href="#m01ec9a7d20" y="261.082987"/>
     <use style="fill-opacity:0;stroke:#ff0000;stroke-linejoin:miter;stroke-width:1.5;" x="369.60768" xlink:href="#m01ec9a7d20" y="236.920776"/>
    </g>
   </g>
   <g id="line2d_61">
    <path d="M 338.688 257.641076 
L 369.60768 180.7488 
" style="fill:none;stroke:#000000;stroke-linecap:square;stroke-width:1.5;"/>
    <g>
     <use style="fill-opacity:0;stroke:#000000;stroke-width:1.5;" x="338.688" xlink:href="#m40d6b20837" y="257.641076"/>
     <use style="fill-opacity:0;stroke:#000000;stroke-width:1.5;" x="369.60768" xlink:href="#m40d6b20837" y="180.7488"/>
    </g>
   </g>
   <g id="line2d_62">
    <path d="M 338.688 254.199166 
L 369.60768 124.576824 
" style="fill:none;stroke:#0000ff;stroke-linecap:square;stroke-width:1.5;"/>
    <g>
     <use style="fill-opacity:0;stroke:#0000ff;stroke-linejoin:bevel;stroke-width:1.5;" x="338.688" xlink:href="#m8353585c52" y="254.199166"/>
     <use style="fill-opacity:0;stroke:#0000ff;stroke-linejoin:bevel;stroke-width:1.5;" x="369.60768" xlink:href="#m8353585c52" y="124.576824"/>
    </g>
   </g>
   <g id="line2d_63">
    <path d="M 338.688 246.168042 
L 369.60768 68.404848 
" style="fill:none;stroke:#00bfbf;stroke-linecap:square;stroke-width:1.5;"/>
    <g>
     <use style="fill-opacity:0;stroke:#00bfbf;stroke-width:1.5;" x="338.688" xlink:href="#m7c92c96af1" y="246.168042"/>
     <use style="fill-opacity:0;stroke:#00bfbf;stroke-width:1.5;" x="369.60768" xlink:href="#m7c92c96af1" y="68.404848"/>
    </g>
   </g>
   <g id="line2d_64">
    <path d="M 338.688 240.431525 
L 369.60768 12.232871 
" style="fill:none;stroke:#008000;stroke-linecap:square;stroke-width:1.5;"/>
    <g>
     <use style="fill-opacity:0;stroke:#008000;stroke-linejoin:miter;stroke-width:1.5;" x="338.688" xlink:href="#me4a7c5dfd5" y="240.431525"/>
     <use style="fill-opacity:0;stroke:#008000;stroke-linejoin:miter;stroke-width:1.5;" x="369.60768" xlink:href="#me4a7c5dfd5" y="12.232871"/>
    </g>
   </g>
   <g id="line2d_65">
    <path d="M 338.688 298.944 
L 338.688 6.381624 
" style="fill:none;stroke:#000000;stroke-linecap:square;stroke-width:1.5;"/>
   </g>
   <g id="patch_3">
    <path d="M 57.6 298.944 
L 57.6 3.456 
" style="fill:none;stroke:#000000;stroke-linecap:square;stroke-linejoin:miter;stroke-width:0.8;"/>
   </g>
   <g id="patch_4">
    <path d="M 338.688 298.944 
L 338.688 3.456 
" style="fill:none;stroke:#000000;stroke-linecap:square;stroke-linejoin:miter;stroke-width:0.8;"/>
   </g>
   <g id="patch_5">
    <path d="M 57.6 298.944 
L 338.688 298.944 
" style="fill:none;stroke:#000000;stroke-linecap:square;stroke-linejoin:miter;stroke-width:0.8;"/>
   </g>
   <g id="patch_6">
    <path d="M 57.6 3.456 
L 338.688 3.456 
" style="fill:none;stroke:#000000;stroke-linecap:square;stroke-linejoin:miter;stroke-width:0.8;"/>
   </g>
   <g id="text_13">
    <!-- 40-D -->
    <g transform="translate(375.22944 297.78369)scale(0.17 -0.17)">
     <defs>
      <path d="M 19.671875 64.796875 
L 19.671875 8.109375 
L 31.59375 8.109375 
Q 46.6875 8.109375 53.6875 14.9375 
Q 60.6875 21.78125 60.6875 36.53125 
Q 60.6875 51.171875 53.6875 57.984375 
Q 46.6875 64.796875 31.59375 64.796875 
z
M 9.8125 72.90625 
L 30.078125 72.90625 
Q 51.265625 72.90625 61.171875 64.09375 
Q 71.09375 55.28125 71.09375 36.53125 
Q 71.09375 17.671875 61.125 8.828125 
Q 51.171875 0 30.078125 0 
L 9.8125 0 
z
" id="DejaVuSans-68"/>
     </defs>
     <use xlink:href="#DejaVuSans-52"/>
     <use x="63.623047" xlink:href="#DejaVuSans-48"/>
     <use x="127.246094" xlink:href="#DejaVuSans-45"/>
     <use x="163.330078" xlink:href="#DejaVuSans-68"/>
    </g>
   </g>
   <g id="text_14">
    <!-- 20-D -->
    <g transform="translate(375.22944 241.611714)scale(0.17 -0.17)">
     <use xlink:href="#DejaVuSans-50"/>
     <use x="63.623047" xlink:href="#DejaVuSans-48"/>
     <use x="127.246094" xlink:href="#DejaVuSans-45"/>
     <use x="163.330078" xlink:href="#DejaVuSans-68"/>
    </g>
   </g>
   <g id="text_15">
    <!-- 10-D -->
    <g transform="translate(375.22944 185.439737)scale(0.17 -0.17)">
     <use xlink:href="#DejaVuSans-49"/>
     <use x="63.623047" xlink:href="#DejaVuSans-48"/>
     <use x="127.246094" xlink:href="#DejaVuSans-45"/>
     <use x="163.330078" xlink:href="#DejaVuSans-68"/>
    </g>
   </g>
   <g id="text_16">
    <!-- 5-D -->
    <g transform="translate(375.22944 129.267761)scale(0.17 -0.17)">
     <defs>
      <path d="M 10.796875 72.90625 
L 49.515625 72.90625 
L 49.515625 64.59375 
L 19.828125 64.59375 
L 19.828125 46.734375 
Q 21.96875 47.46875 24.109375 47.828125 
Q 26.265625 48.1875 28.421875 48.1875 
Q 40.625 48.1875 47.75 41.5 
Q 54.890625 34.8125 54.890625 23.390625 
Q 54.890625 11.625 47.5625 5.09375 
Q 40.234375 -1.421875 26.90625 -1.421875 
Q 22.3125 -1.421875 17.546875 -0.640625 
Q 12.796875 0.140625 7.71875 1.703125 
L 7.71875 11.625 
Q 12.109375 9.234375 16.796875 8.0625 
Q 21.484375 6.890625 26.703125 6.890625 
Q 35.15625 6.890625 40.078125 11.328125 
Q 45.015625 15.765625 45.015625 23.390625 
Q 45.015625 31 40.078125 35.4375 
Q 35.15625 39.890625 26.703125 39.890625 
Q 22.75 39.890625 18.8125 39.015625 
Q 14.890625 38.140625 10.796875 36.28125 
z
" id="DejaVuSans-53"/>
     </defs>
     <use xlink:href="#DejaVuSans-53"/>
     <use x="63.623047" xlink:href="#DejaVuSans-45"/>
     <use x="99.707031" xlink:href="#DejaVuSans-68"/>
    </g>
   </g>
   <g id="text_17">
    <!-- 2-D -->
    <g transform="translate(375.22944 73.095785)scale(0.17 -0.17)">
     <use xlink:href="#DejaVuSans-50"/>
     <use x="63.623047" xlink:href="#DejaVuSans-45"/>
     <use x="99.707031" xlink:href="#DejaVuSans-68"/>
    </g>
   </g>
   <g id="text_18">
    <!-- 3-D -->
    <g transform="translate(375.22944 16.923809)scale(0.17 -0.17)">
     <defs>
      <path d="M 40.578125 39.3125 
Q 47.65625 37.796875 51.625 33 
Q 55.609375 28.21875 55.609375 21.1875 
Q 55.609375 10.40625 48.1875 4.484375 
Q 40.765625 -1.421875 27.09375 -1.421875 
Q 22.515625 -1.421875 17.65625 -0.515625 
Q 12.796875 0.390625 7.625 2.203125 
L 7.625 11.71875 
Q 11.71875 9.328125 16.59375 8.109375 
Q 21.484375 6.890625 26.8125 6.890625 
Q 36.078125 6.890625 40.9375 10.546875 
Q 45.796875 14.203125 45.796875 21.1875 
Q 45.796875 27.640625 41.28125 31.265625 
Q 36.765625 34.90625 28.71875 34.90625 
L 20.21875 34.90625 
L 20.21875 43.015625 
L 29.109375 43.015625 
Q 36.375 43.015625 40.234375 45.921875 
Q 44.09375 48.828125 44.09375 54.296875 
Q 44.09375 59.90625 40.109375 62.90625 
Q 36.140625 65.921875 28.71875 65.921875 
Q 24.65625 65.921875 20.015625 65.03125 
Q 15.375 64.15625 9.8125 62.3125 
L 9.8125 71.09375 
Q 15.4375 72.65625 20.34375 73.4375 
Q 25.25 74.21875 29.59375 74.21875 
Q 40.828125 74.21875 47.359375 69.109375 
Q 53.90625 64.015625 53.90625 55.328125 
Q 53.90625 49.265625 50.4375 45.09375 
Q 46.96875 40.921875 40.578125 39.3125 
z
" id="DejaVuSans-51"/>
     </defs>
     <use xlink:href="#DejaVuSans-51"/>
     <use x="63.623047" xlink:href="#DejaVuSans-45"/>
     <use x="99.707031" xlink:href="#DejaVuSans-68"/>
    </g>
   </g>
   <g id="text_19">
    <!-- bbob f15-f19 -->
    <g transform="translate(60.41088 14.161286)scale(0.102 -0.102)">
     <defs>
      <path d="M 48.6875 27.296875 
Q 48.6875 37.203125 44.609375 42.84375 
Q 40.53125 48.484375 33.40625 48.484375 
Q 26.265625 48.484375 22.1875 42.84375 
Q 18.109375 37.203125 18.109375 27.296875 
Q 18.109375 17.390625 22.1875 11.75 
Q 26.265625 6.109375 33.40625 6.109375 
Q 40.53125 6.109375 44.609375 11.75 
Q 48.6875 17.390625 48.6875 27.296875 
z
M 18.109375 46.390625 
Q 20.953125 51.265625 25.265625 53.625 
Q 29.59375 56 35.59375 56 
Q 45.5625 56 51.78125 48.09375 
Q 58.015625 40.1875 58.015625 27.296875 
Q 58.015625 14.40625 51.78125 6.484375 
Q 45.5625 -1.421875 35.59375 -1.421875 
Q 29.59375 -1.421875 25.265625 0.953125 
Q 20.953125 3.328125 18.109375 8.203125 
L 18.109375 0 
L 9.078125 0 
L 9.078125 75.984375 
L 18.109375 75.984375 
z
" id="DejaVuSans-98"/>
      <path d="M 10.984375 1.515625 
L 10.984375 10.5 
Q 14.703125 8.734375 18.5 7.8125 
Q 22.3125 6.890625 25.984375 6.890625 
Q 35.75 6.890625 40.890625 13.453125 
Q 46.046875 20.015625 46.78125 33.40625 
Q 43.953125 29.203125 39.59375 26.953125 
Q 35.25 24.703125 29.984375 24.703125 
Q 19.046875 24.703125 12.671875 31.3125 
Q 6.296875 37.9375 6.296875 49.421875 
Q 6.296875 60.640625 12.9375 67.421875 
Q 19.578125 74.21875 30.609375 74.21875 
Q 43.265625 74.21875 49.921875 64.515625 
Q 56.59375 54.828125 56.59375 36.375 
Q 56.59375 19.140625 48.40625 8.859375 
Q 40.234375 -1.421875 26.421875 -1.421875 
Q 22.703125 -1.421875 18.890625 -0.6875 
Q 15.09375 0.046875 10.984375 1.515625 
z
M 30.609375 32.421875 
Q 37.25 32.421875 41.125 36.953125 
Q 45.015625 41.5 45.015625 49.421875 
Q 45.015625 57.28125 41.125 61.84375 
Q 37.25 66.40625 30.609375 66.40625 
Q 23.96875 66.40625 20.09375 61.84375 
Q 16.21875 57.28125 16.21875 49.421875 
Q 16.21875 41.5 20.09375 36.953125 
Q 23.96875 32.421875 30.609375 32.421875 
z
" id="DejaVuSans-57"/>
     </defs>
     <use xlink:href="#DejaVuSans-98"/>
     <use x="63.476562" xlink:href="#DejaVuSans-98"/>
     <use x="126.953125" xlink:href="#DejaVuSans-111"/>
     <use x="188.134766" xlink:href="#DejaVuSans-98"/>
     <use x="251.611328" xlink:href="#DejaVuSans-32"/>
     <use x="283.398438" xlink:href="#DejaVuSans-102"/>
     <use x="318.603516" xlink:href="#DejaVuSans-49"/>
     <use x="382.226562" xlink:href="#DejaVuSans-53"/>
     <use x="445.849609" xlink:href="#DejaVuSans-45"/>
     <use x="481.933594" xlink:href="#DejaVuSans-102"/>
     <use x="517.138672" xlink:href="#DejaVuSans-49"/>
     <use x="580.761719" xlink:href="#DejaVuSans-57"/>
    </g>
    <!-- 51 targets: 100..1e-08 -->
    <g transform="translate(60.41088 25.583055)scale(0.102 -0.102)">
     <defs>
      <path d="M 11.71875 12.40625 
L 22.015625 12.40625 
L 22.015625 0 
L 11.71875 0 
z
M 11.71875 51.703125 
L 22.015625 51.703125 
L 22.015625 39.3125 
L 11.71875 39.3125 
z
" id="DejaVuSans-58"/>
     </defs>
     <use xlink:href="#DejaVuSans-53"/>
     <use x="63.623047" xlink:href="#DejaVuSans-49"/>
     <use x="127.246094" xlink:href="#DejaVuSans-32"/>
     <use x="159.033203" xlink:href="#DejaVuSans-116"/>
     <use x="198.242188" xlink:href="#DejaVuSans-97"/>
     <use x="259.521484" xlink:href="#DejaVuSans-114"/>
     <use x="298.884766" xlink:href="#DejaVuSans-103"/>
     <use x="362.361328" xlink:href="#DejaVuSans-101"/>
     <use x="423.884766" xlink:href="#DejaVuSans-116"/>
     <use x="463.09375" xlink:href="#DejaVuSans-115"/>
     <use x="515.193359" xlink:href="#DejaVuSans-58"/>
     <use x="548.884766" xlink:href="#DejaVuSans-32"/>
     <use x="580.671875" xlink:href="#DejaVuSans-49"/>
     <use x="644.294922" xlink:href="#DejaVuSans-48"/>
     <use x="707.917969" xlink:href="#DejaVuSans-48"/>
     <use x="771.541016" xlink:href="#DejaVuSans-46"/>
     <use x="803.328125" xlink:href="#DejaVuSans-46"/>
     <use x="835.115234" xlink:href="#DejaVuSans-49"/>
     <use x="898.738281" xlink:href="#DejaVuSans-101"/>
     <use x="960.261719" xlink:href="#DejaVuSans-45"/>
     <use x="996.345703" xlink:href="#DejaVuSans-48"/>
     <use x="1059.96875" xlink:href="#DejaVuSans-56"/>
    </g>
    <!-- 15 instances -->
    <g transform="translate(60.41088 37.004824)scale(0.102 -0.102)">
     <use xlink:href="#DejaVuSans-49"/>
     <use x="63.623047" xlink:href="#DejaVuSans-53"/>
     <use x="127.246094" xlink:href="#DejaVuSans-32"/>
     <use x="159.033203" xlink:href="#DejaVuSans-105"/>
     <use x="186.816406" xlink:href="#DejaVuSans-110"/>
     <use x="250.195312" xlink:href="#DejaVuSans-115"/>
     <use x="302.294922" xlink:href="#DejaVuSans-116"/>
     <use x="341.503906" xlink:href="#DejaVuSans-97"/>
     <use x="402.783203" xlink:href="#DejaVuSans-110"/>
     <use x="466.162109" xlink:href="#DejaVuSans-99"/>
     <use x="521.142578" xlink:href="#DejaVuSans-101"/>
     <use x="582.666016" xlink:href="#DejaVuSans-115"/>
    </g>
   </g>
   <g id="text_20">
    <!-- v2.4 -->
    <g style="fill:#808080;" transform="translate(187.233062 293.909432)scale(0.1 -0.1)">
     <use xlink:href="#DejaVuSans-118"/>
     <use x="59.179688" xlink:href="#DejaVuSans-50"/>
     <use x="122.802734" xlink:href="#DejaVuSans-46"/>
     <use x="154.589844" xlink:href="#DejaVuSans-52"/>
    </g>
   </g>
  </g>
 </g>
 <defs>
  <clipPath id="pf08fff02cc">
   <rect height="295.488" width="281.088" x="57.6" y="3.456"/>
  </clipPath>
 </defs>
</svg>
