<?xml version="1.0" encoding="utf-8" standalone="no"?>
<!DOCTYPE svg PUBLIC "-//W3C//DTD SVG 1.1//EN"
  "http://www.w3.org/Graphics/SVG/1.1/DTD/svg11.dtd">
<!-- Created with matplotlib (https://matplotlib.org/) -->
<svg height="345.6pt" version="1.1" viewBox="0 0 460.8 345.6" width="460.8pt" xmlns="http://www.w3.org/2000/svg" xmlns:xlink="http://www.w3.org/1999/xlink">
 <metadata>
  <rdf:RDF xmlns:cc="http://creativecommons.org/ns#" xmlns:dc="http://purl.org/dc/elements/1.1/" xmlns:rdf="http://www.w3.org/1999/02/22-rdf-syntax-ns#">
   <cc:Work>
    <dc:type rdf:resource="http://purl.org/dc/dcmitype/StillImage"/>
    <dc:date>2021-08-04T10:26:36.268420</dc:date>
    <dc:format>image/svg+xml</dc:format>
    <dc:creator>
     <cc:Agent>
      <dc:title>Matplotlib v3.3.1, https://matplotlib.org/</dc:title>
     </cc:Agent>
    </dc:creator>
   </cc:Work>
  </rdf:RDF>
 </metadata>
 <defs>
  <style type="text/css">*{stroke-linecap:butt;stroke-linejoin:round;}</style>
 </defs>
 <g id="figure_1">
  <g id="patch_1">
   <path d="M 0 345.6 
L 460.8 345.6 
L 460.8 0 
L 0 0 
z
" style="fill:#ffffff;"/>
  </g>
  <g id="axes_1">
   <g id="patch_2">
    <path d="M 57.6 298.944 
L 338.688 298.944 
L 338.688 3.456 
L 57.6 3.456 
z
" style="fill:#ffffff;"/>
   </g>
   <g id="matplotlib.axis_1">
    <g id="xtick_1">
     <g id="line2d_1">
      <path clip-path="url(#pfe049ad248)" d="M 57.6 298.944 
L 57.6 3.456 
" style="fill:none;stroke:#b0b0b0;stroke-linecap:square;stroke-width:0.8;"/>
     </g>
     <g id="line2d_2">
      <defs>
       <path d="M 0 0 
L 0 3.5 
" id="mee3fb2527a" style="stroke:#000000;stroke-width:0.8;"/>
      </defs>
      <g>
       <use style="stroke:#000000;stroke-width:0.8;" x="57.6" xlink:href="#mee3fb2527a" y="298.944"/>
      </g>
     </g>
     <g id="text_1">
      <!-- 0 -->
      <g transform="translate(51.2375 321.140875)scale(0.2 -0.2)">
       <defs>
        <path d="M 31.78125 66.40625 
Q 24.171875 66.40625 20.328125 58.90625 
Q 16.5 51.421875 16.5 36.375 
Q 16.5 21.390625 20.328125 13.890625 
Q 24.171875 6.390625 31.78125 6.390625 
Q 39.453125 6.390625 43.28125 13.890625 
Q 47.125 21.390625 47.125 36.375 
Q 47.125 51.421875 43.28125 58.90625 
Q 39.453125 66.40625 31.78125 66.40625 
z
M 31.78125 74.21875 
Q 44.046875 74.21875 50.515625 64.515625 
Q 56.984375 54.828125 56.984375 36.375 
Q 56.984375 17.96875 50.515625 8.265625 
Q 44.046875 -1.421875 31.78125 -1.421875 
Q 19.53125 -1.421875 13.0625 8.265625 
Q 6.59375 17.96875 6.59375 36.375 
Q 6.59375 54.828125 13.0625 64.515625 
Q 19.53125 74.21875 31.78125 74.21875 
z
" id="DejaVuSans-48"/>
       </defs>
       <use xlink:href="#DejaVuSans-48"/>
      </g>
     </g>
    </g>
    <g id="xtick_2">
     <g id="line2d_3">
      <path clip-path="url(#pfe049ad248)" d="M 137.910857 298.944 
L 137.910857 3.456 
" style="fill:none;stroke:#b0b0b0;stroke-linecap:square;stroke-width:0.8;"/>
     </g>
     <g id="line2d_4">
      <g>
       <use style="stroke:#000000;stroke-width:0.8;" x="137.910857" xlink:href="#mee3fb2527a" y="298.944"/>
      </g>
     </g>
     <g id="text_2">
      <!-- 2 -->
      <g transform="translate(131.548357 321.140875)scale(0.2 -0.2)">
       <defs>
        <path d="M 19.1875 8.296875 
L 53.609375 8.296875 
L 53.609375 0 
L 7.328125 0 
L 7.328125 8.296875 
Q 12.9375 14.109375 22.625 23.890625 
Q 32.328125 33.6875 34.8125 36.53125 
Q 39.546875 41.84375 41.421875 45.53125 
Q 43.3125 49.21875 43.3125 52.78125 
Q 43.3125 58.59375 39.234375 62.25 
Q 35.15625 65.921875 28.609375 65.921875 
Q 23.96875 65.921875 18.8125 64.3125 
Q 13.671875 62.703125 7.8125 59.421875 
L 7.8125 69.390625 
Q 13.765625 71.78125 18.9375 73 
Q 24.125 74.21875 28.421875 74.21875 
Q 39.75 74.21875 46.484375 68.546875 
Q 53.21875 62.890625 53.21875 53.421875 
Q 53.21875 48.921875 51.53125 44.890625 
Q 49.859375 40.875 45.40625 35.40625 
Q 44.1875 33.984375 37.640625 27.21875 
Q 31.109375 20.453125 19.1875 8.296875 
z
" id="DejaVuSans-50"/>
       </defs>
       <use xlink:href="#DejaVuSans-50"/>
      </g>
     </g>
    </g>
    <g id="xtick_3">
     <g id="line2d_5">
      <path clip-path="url(#pfe049ad248)" d="M 218.221714 298.944 
L 218.221714 3.456 
" style="fill:none;stroke:#b0b0b0;stroke-linecap:square;stroke-width:0.8;"/>
     </g>
     <g id="line2d_6">
      <g>
       <use style="stroke:#000000;stroke-width:0.8;" x="218.221714" xlink:href="#mee3fb2527a" y="298.944"/>
      </g>
     </g>
     <g id="text_3">
      <!-- 4 -->
      <g transform="translate(211.859214 321.140875)scale(0.2 -0.2)">
       <defs>
        <path d="M 37.796875 64.3125 
L 12.890625 25.390625 
L 37.796875 25.390625 
z
M 35.203125 72.90625 
L 47.609375 72.90625 
L 47.609375 25.390625 
L 58.015625 25.390625 
L 58.015625 17.1875 
L 47.609375 17.1875 
L 47.609375 0 
L 37.796875 0 
L 37.796875 17.1875 
L 4.890625 17.1875 
L 4.890625 26.703125 
z
" id="DejaVuSans-52"/>
       </defs>
       <use xlink:href="#DejaVuSans-52"/>
      </g>
     </g>
    </g>
    <g id="xtick_4">
     <g id="line2d_7">
      <path clip-path="url(#pfe049ad248)" d="M 298.532571 298.944 
L 298.532571 3.456 
" style="fill:none;stroke:#b0b0b0;stroke-linecap:square;stroke-width:0.8;"/>
     </g>
     <g id="line2d_8">
      <g>
       <use style="stroke:#000000;stroke-width:0.8;" x="298.532571" xlink:href="#mee3fb2527a" y="298.944"/>
      </g>
     </g>
     <g id="text_4">
      <!-- 6 -->
      <g transform="translate(292.170071 321.140875)scale(0.2 -0.2)">
       <defs>
        <path d="M 33.015625 40.375 
Q 26.375 40.375 22.484375 35.828125 
Q 18.609375 31.296875 18.609375 23.390625 
Q 18.609375 15.53125 22.484375 10.953125 
Q 26.375 6.390625 33.015625 6.390625 
Q 39.65625 6.390625 43.53125 10.953125 
Q 47.40625 15.53125 47.40625 23.390625 
Q 47.40625 31.296875 43.53125 35.828125 
Q 39.65625 40.375 33.015625 40.375 
z
M 52.59375 71.296875 
L 52.59375 62.3125 
Q 48.875 64.0625 45.09375 64.984375 
Q 41.3125 65.921875 37.59375 65.921875 
Q 27.828125 65.921875 22.671875 59.328125 
Q 17.53125 52.734375 16.796875 39.40625 
Q 19.671875 43.65625 24.015625 45.921875 
Q 28.375 48.1875 33.59375 48.1875 
Q 44.578125 48.1875 50.953125 41.515625 
Q 57.328125 34.859375 57.328125 23.390625 
Q 57.328125 12.15625 50.6875 5.359375 
Q 44.046875 -1.421875 33.015625 -1.421875 
Q 20.359375 -1.421875 13.671875 8.265625 
Q 6.984375 17.96875 6.984375 36.375 
Q 6.984375 53.65625 15.1875 63.9375 
Q 23.390625 74.21875 37.203125 74.21875 
Q 40.921875 74.21875 44.703125 73.484375 
Q 48.484375 72.75 52.59375 71.296875 
z
" id="DejaVuSans-54"/>
       </defs>
       <use xlink:href="#DejaVuSans-54"/>
      </g>
     </g>
    </g>
    <g id="xtick_5">
     <g id="line2d_9">
      <path clip-path="url(#pfe049ad248)" d="M 97.755429 298.944 
L 97.755429 3.456 
" style="fill:none;stroke:#b0b0b0;stroke-linecap:square;stroke-width:0.8;"/>
     </g>
     <g id="line2d_10">
      <defs>
       <path d="M 0 0 
L 0 2 
" id="m5c8969180a" style="stroke:#000000;stroke-width:0.6;"/>
      </defs>
      <g>
       <use style="stroke:#000000;stroke-width:0.6;" x="97.755429" xlink:href="#m5c8969180a" y="298.944"/>
      </g>
     </g>
    </g>
    <g id="xtick_6">
     <g id="line2d_11">
      <path clip-path="url(#pfe049ad248)" d="M 178.066286 298.944 
L 178.066286 3.456 
" style="fill:none;stroke:#b0b0b0;stroke-linecap:square;stroke-width:0.8;"/>
     </g>
     <g id="line2d_12">
      <g>
       <use style="stroke:#000000;stroke-width:0.6;" x="178.066286" xlink:href="#m5c8969180a" y="298.944"/>
      </g>
     </g>
    </g>
    <g id="xtick_7">
     <g id="line2d_13">
      <path clip-path="url(#pfe049ad248)" d="M 258.377143 298.944 
L 258.377143 3.456 
" style="fill:none;stroke:#b0b0b0;stroke-linecap:square;stroke-width:0.8;"/>
     </g>
     <g id="line2d_14">
      <g>
       <use style="stroke:#000000;stroke-width:0.6;" x="258.377143" xlink:href="#m5c8969180a" y="298.944"/>
      </g>
     </g>
    </g>
    <g id="xtick_8">
     <g id="line2d_15">
      <path clip-path="url(#pfe049ad248)" d="M 338.688 298.944 
L 338.688 3.456 
" style="fill:none;stroke:#b0b0b0;stroke-linecap:square;stroke-width:0.8;"/>
     </g>
     <g id="line2d_16">
      <g>
       <use style="stroke:#000000;stroke-width:0.6;" x="338.688" xlink:href="#m5c8969180a" y="298.944"/>
      </g>
     </g>
    </g>
    <g id="text_5">
     <!-- log10(# f-evals / dimension) -->
     <g transform="translate(77.764078 342.217594)scale(0.17 -0.17)">
      <defs>
       <path d="M 9.421875 75.984375 
L 18.40625 75.984375 
L 18.40625 0 
L 9.421875 0 
z
" id="DejaVuSans-108"/>
       <path d="M 30.609375 48.390625 
Q 23.390625 48.390625 19.1875 42.75 
Q 14.984375 37.109375 14.984375 27.296875 
Q 14.984375 17.484375 19.15625 11.84375 
Q 23.34375 6.203125 30.609375 6.203125 
Q 37.796875 6.203125 41.984375 11.859375 
Q 46.1875 17.53125 46.1875 27.296875 
Q 46.1875 37.015625 41.984375 42.703125 
Q 37.796875 48.390625 30.609375 48.390625 
z
M 30.609375 56 
Q 42.328125 56 49.015625 48.375 
Q 55.71875 40.765625 55.71875 27.296875 
Q 55.71875 13.875 49.015625 6.21875 
Q 42.328125 -1.421875 30.609375 -1.421875 
Q 18.84375 -1.421875 12.171875 6.21875 
Q 5.515625 13.875 5.515625 27.296875 
Q 5.515625 40.765625 12.171875 48.375 
Q 18.84375 56 30.609375 56 
z
" id="DejaVuSans-111"/>
       <path d="M 45.40625 27.984375 
Q 45.40625 37.75 41.375 43.109375 
Q 37.359375 48.484375 30.078125 48.484375 
Q 22.859375 48.484375 18.828125 43.109375 
Q 14.796875 37.75 14.796875 27.984375 
Q 14.796875 18.265625 18.828125 12.890625 
Q 22.859375 7.515625 30.078125 7.515625 
Q 37.359375 7.515625 41.375 12.890625 
Q 45.40625 18.265625 45.40625 27.984375 
z
M 54.390625 6.78125 
Q 54.390625 -7.171875 48.1875 -13.984375 
Q 42 -20.796875 29.203125 -20.796875 
Q 24.46875 -20.796875 20.265625 -20.09375 
Q 16.0625 -19.390625 12.109375 -17.921875 
L 12.109375 -9.1875 
Q 16.0625 -11.328125 19.921875 -12.34375 
Q 23.78125 -13.375 27.78125 -13.375 
Q 36.625 -13.375 41.015625 -8.765625 
Q 45.40625 -4.15625 45.40625 5.171875 
L 45.40625 9.625 
Q 42.625 4.78125 38.28125 2.390625 
Q 33.9375 0 27.875 0 
Q 17.828125 0 11.671875 7.65625 
Q 5.515625 15.328125 5.515625 27.984375 
Q 5.515625 40.671875 11.671875 48.328125 
Q 17.828125 56 27.875 56 
Q 33.9375 56 38.28125 53.609375 
Q 42.625 51.21875 45.40625 46.390625 
L 45.40625 54.6875 
L 54.390625 54.6875 
z
" id="DejaVuSans-103"/>
       <path d="M 12.40625 8.296875 
L 28.515625 8.296875 
L 28.515625 63.921875 
L 10.984375 60.40625 
L 10.984375 69.390625 
L 28.421875 72.90625 
L 38.28125 72.90625 
L 38.28125 8.296875 
L 54.390625 8.296875 
L 54.390625 0 
L 12.40625 0 
z
" id="DejaVuSans-49"/>
       <path d="M 31 75.875 
Q 24.46875 64.65625 21.28125 53.65625 
Q 18.109375 42.671875 18.109375 31.390625 
Q 18.109375 20.125 21.3125 9.0625 
Q 24.515625 -2 31 -13.1875 
L 23.1875 -13.1875 
Q 15.875 -1.703125 12.234375 9.375 
Q 8.59375 20.453125 8.59375 31.390625 
Q 8.59375 42.28125 12.203125 53.3125 
Q 15.828125 64.359375 23.1875 75.875 
z
" id="DejaVuSans-40"/>
       <path d="M 51.125 44 
L 36.921875 44 
L 32.8125 27.6875 
L 47.125 27.6875 
z
M 43.796875 71.78125 
L 38.71875 51.515625 
L 52.984375 51.515625 
L 58.109375 71.78125 
L 65.921875 71.78125 
L 60.890625 51.515625 
L 76.125 51.515625 
L 76.125 44 
L 58.984375 44 
L 54.984375 27.6875 
L 70.515625 27.6875 
L 70.515625 20.21875 
L 53.078125 20.21875 
L 48 0 
L 40.1875 0 
L 45.21875 20.21875 
L 30.90625 20.21875 
L 25.875 0 
L 18.015625 0 
L 23.09375 20.21875 
L 7.71875 20.21875 
L 7.71875 27.6875 
L 24.90625 27.6875 
L 29 44 
L 13.28125 44 
L 13.28125 51.515625 
L 30.90625 51.515625 
L 35.890625 71.78125 
z
" id="DejaVuSans-35"/>
       <path id="DejaVuSans-32"/>
       <path d="M 37.109375 75.984375 
L 37.109375 68.5 
L 28.515625 68.5 
Q 23.6875 68.5 21.796875 66.546875 
Q 19.921875 64.59375 19.921875 59.515625 
L 19.921875 54.6875 
L 34.71875 54.6875 
L 34.71875 47.703125 
L 19.921875 47.703125 
L 19.921875 0 
L 10.890625 0 
L 10.890625 47.703125 
L 2.296875 47.703125 
L 2.296875 54.6875 
L 10.890625 54.6875 
L 10.890625 58.5 
Q 10.890625 67.625 15.140625 71.796875 
Q 19.390625 75.984375 28.609375 75.984375 
z
" id="DejaVuSans-102"/>
       <path d="M 4.890625 31.390625 
L 31.203125 31.390625 
L 31.203125 23.390625 
L 4.890625 23.390625 
z
" id="DejaVuSans-45"/>
       <path d="M 56.203125 29.59375 
L 56.203125 25.203125 
L 14.890625 25.203125 
Q 15.484375 15.921875 20.484375 11.0625 
Q 25.484375 6.203125 34.421875 6.203125 
Q 39.59375 6.203125 44.453125 7.46875 
Q 49.3125 8.734375 54.109375 11.28125 
L 54.109375 2.78125 
Q 49.265625 0.734375 44.1875 -0.34375 
Q 39.109375 -1.421875 33.890625 -1.421875 
Q 20.796875 -1.421875 13.15625 6.1875 
Q 5.515625 13.8125 5.515625 26.8125 
Q 5.515625 40.234375 12.765625 48.109375 
Q 20.015625 56 32.328125 56 
Q 43.359375 56 49.78125 48.890625 
Q 56.203125 41.796875 56.203125 29.59375 
z
M 47.21875 32.234375 
Q 47.125 39.59375 43.09375 43.984375 
Q 39.0625 48.390625 32.421875 48.390625 
Q 24.90625 48.390625 20.390625 44.140625 
Q 15.875 39.890625 15.1875 32.171875 
z
" id="DejaVuSans-101"/>
       <path d="M 2.984375 54.6875 
L 12.5 54.6875 
L 29.59375 8.796875 
L 46.6875 54.6875 
L 56.203125 54.6875 
L 35.6875 0 
L 23.484375 0 
z
" id="DejaVuSans-118"/>
       <path d="M 34.28125 27.484375 
Q 23.390625 27.484375 19.1875 25 
Q 14.984375 22.515625 14.984375 16.5 
Q 14.984375 11.71875 18.140625 8.90625 
Q 21.296875 6.109375 26.703125 6.109375 
Q 34.1875 6.109375 38.703125 11.40625 
Q 43.21875 16.703125 43.21875 25.484375 
L 43.21875 27.484375 
z
M 52.203125 31.203125 
L 52.203125 0 
L 43.21875 0 
L 43.21875 8.296875 
Q 40.140625 3.328125 35.546875 0.953125 
Q 30.953125 -1.421875 24.3125 -1.421875 
Q 15.921875 -1.421875 10.953125 3.296875 
Q 6 8.015625 6 15.921875 
Q 6 25.140625 12.171875 29.828125 
Q 18.359375 34.515625 30.609375 34.515625 
L 43.21875 34.515625 
L 43.21875 35.40625 
Q 43.21875 41.609375 39.140625 45 
Q 35.0625 48.390625 27.6875 48.390625 
Q 23 48.390625 18.546875 47.265625 
Q 14.109375 46.140625 10.015625 43.890625 
L 10.015625 52.203125 
Q 14.9375 54.109375 19.578125 55.046875 
Q 24.21875 56 28.609375 56 
Q 40.484375 56 46.34375 49.84375 
Q 52.203125 43.703125 52.203125 31.203125 
z
" id="DejaVuSans-97"/>
       <path d="M 44.28125 53.078125 
L 44.28125 44.578125 
Q 40.484375 46.53125 36.375 47.5 
Q 32.28125 48.484375 27.875 48.484375 
Q 21.1875 48.484375 17.84375 46.4375 
Q 14.5 44.390625 14.5 40.28125 
Q 14.5 37.15625 16.890625 35.375 
Q 19.28125 33.59375 26.515625 31.984375 
L 29.59375 31.296875 
Q 39.15625 29.25 43.1875 25.515625 
Q 47.21875 21.78125 47.21875 15.09375 
Q 47.21875 7.46875 41.1875 3.015625 
Q 35.15625 -1.421875 24.609375 -1.421875 
Q 20.21875 -1.421875 15.453125 -0.5625 
Q 10.6875 0.296875 5.421875 2 
L 5.421875 11.28125 
Q 10.40625 8.6875 15.234375 7.390625 
Q 20.0625 6.109375 24.8125 6.109375 
Q 31.15625 6.109375 34.5625 8.28125 
Q 37.984375 10.453125 37.984375 14.40625 
Q 37.984375 18.0625 35.515625 20.015625 
Q 33.0625 21.96875 24.703125 23.78125 
L 21.578125 24.515625 
Q 13.234375 26.265625 9.515625 29.90625 
Q 5.8125 33.546875 5.8125 39.890625 
Q 5.8125 47.609375 11.28125 51.796875 
Q 16.75 56 26.8125 56 
Q 31.78125 56 36.171875 55.265625 
Q 40.578125 54.546875 44.28125 53.078125 
z
" id="DejaVuSans-115"/>
       <path d="M 25.390625 72.90625 
L 33.6875 72.90625 
L 8.296875 -9.28125 
L 0 -9.28125 
z
" id="DejaVuSans-47"/>
       <path d="M 45.40625 46.390625 
L 45.40625 75.984375 
L 54.390625 75.984375 
L 54.390625 0 
L 45.40625 0 
L 45.40625 8.203125 
Q 42.578125 3.328125 38.25 0.953125 
Q 33.9375 -1.421875 27.875 -1.421875 
Q 17.96875 -1.421875 11.734375 6.484375 
Q 5.515625 14.40625 5.515625 27.296875 
Q 5.515625 40.1875 11.734375 48.09375 
Q 17.96875 56 27.875 56 
Q 33.9375 56 38.25 53.625 
Q 42.578125 51.265625 45.40625 46.390625 
z
M 14.796875 27.296875 
Q 14.796875 17.390625 18.875 11.75 
Q 22.953125 6.109375 30.078125 6.109375 
Q 37.203125 6.109375 41.296875 11.75 
Q 45.40625 17.390625 45.40625 27.296875 
Q 45.40625 37.203125 41.296875 42.84375 
Q 37.203125 48.484375 30.078125 48.484375 
Q 22.953125 48.484375 18.875 42.84375 
Q 14.796875 37.203125 14.796875 27.296875 
z
" id="DejaVuSans-100"/>
       <path d="M 9.421875 54.6875 
L 18.40625 54.6875 
L 18.40625 0 
L 9.421875 0 
z
M 9.421875 75.984375 
L 18.40625 75.984375 
L 18.40625 64.59375 
L 9.421875 64.59375 
z
" id="DejaVuSans-105"/>
       <path d="M 52 44.1875 
Q 55.375 50.25 60.0625 53.125 
Q 64.75 56 71.09375 56 
Q 79.640625 56 84.28125 50.015625 
Q 88.921875 44.046875 88.921875 33.015625 
L 88.921875 0 
L 79.890625 0 
L 79.890625 32.71875 
Q 79.890625 40.578125 77.09375 44.375 
Q 74.3125 48.1875 68.609375 48.1875 
Q 61.625 48.1875 57.5625 43.546875 
Q 53.515625 38.921875 53.515625 30.90625 
L 53.515625 0 
L 44.484375 0 
L 44.484375 32.71875 
Q 44.484375 40.625 41.703125 44.40625 
Q 38.921875 48.1875 33.109375 48.1875 
Q 26.21875 48.1875 22.15625 43.53125 
Q 18.109375 38.875 18.109375 30.90625 
L 18.109375 0 
L 9.078125 0 
L 9.078125 54.6875 
L 18.109375 54.6875 
L 18.109375 46.1875 
Q 21.1875 51.21875 25.484375 53.609375 
Q 29.78125 56 35.6875 56 
Q 41.65625 56 45.828125 52.96875 
Q 50 49.953125 52 44.1875 
z
" id="DejaVuSans-109"/>
       <path d="M 54.890625 33.015625 
L 54.890625 0 
L 45.90625 0 
L 45.90625 32.71875 
Q 45.90625 40.484375 42.875 44.328125 
Q 39.84375 48.1875 33.796875 48.1875 
Q 26.515625 48.1875 22.3125 43.546875 
Q 18.109375 38.921875 18.109375 30.90625 
L 18.109375 0 
L 9.078125 0 
L 9.078125 54.6875 
L 18.109375 54.6875 
L 18.109375 46.1875 
Q 21.34375 51.125 25.703125 53.5625 
Q 30.078125 56 35.796875 56 
Q 45.21875 56 50.046875 50.171875 
Q 54.890625 44.34375 54.890625 33.015625 
z
" id="DejaVuSans-110"/>
       <path d="M 8.015625 75.875 
L 15.828125 75.875 
Q 23.140625 64.359375 26.78125 53.3125 
Q 30.421875 42.28125 30.421875 31.390625 
Q 30.421875 20.453125 26.78125 9.375 
Q 23.140625 -1.703125 15.828125 -13.1875 
L 8.015625 -13.1875 
Q 14.5 -2 17.703125 9.0625 
Q 20.90625 20.125 20.90625 31.390625 
Q 20.90625 42.671875 17.703125 53.65625 
Q 14.5 64.65625 8.015625 75.875 
z
" id="DejaVuSans-41"/>
      </defs>
      <use xlink:href="#DejaVuSans-108"/>
      <use x="27.783203" xlink:href="#DejaVuSans-111"/>
      <use x="88.964844" xlink:href="#DejaVuSans-103"/>
      <use x="152.441406" xlink:href="#DejaVuSans-49"/>
      <use x="216.064453" xlink:href="#DejaVuSans-48"/>
      <use x="279.6875" xlink:href="#DejaVuSans-40"/>
      <use x="318.701172" xlink:href="#DejaVuSans-35"/>
      <use x="402.490234" xlink:href="#DejaVuSans-32"/>
      <use x="434.277344" xlink:href="#DejaVuSans-102"/>
      <use x="463.982422" xlink:href="#DejaVuSans-45"/>
      <use x="500.066406" xlink:href="#DejaVuSans-101"/>
      <use x="561.589844" xlink:href="#DejaVuSans-118"/>
      <use x="620.769531" xlink:href="#DejaVuSans-97"/>
      <use x="682.048828" xlink:href="#DejaVuSans-108"/>
      <use x="709.832031" xlink:href="#DejaVuSans-115"/>
      <use x="761.931641" xlink:href="#DejaVuSans-32"/>
      <use x="793.71875" xlink:href="#DejaVuSans-47"/>
      <use x="827.410156" xlink:href="#DejaVuSans-32"/>
      <use x="859.197266" xlink:href="#DejaVuSans-100"/>
      <use x="922.673828" xlink:href="#DejaVuSans-105"/>
      <use x="950.457031" xlink:href="#DejaVuSans-109"/>
      <use x="1047.869141" xlink:href="#DejaVuSans-101"/>
      <use x="1109.392578" xlink:href="#DejaVuSans-110"/>
      <use x="1172.771484" xlink:href="#DejaVuSans-115"/>
      <use x="1224.871094" xlink:href="#DejaVuSans-105"/>
      <use x="1252.654297" xlink:href="#DejaVuSans-111"/>
      <use x="1313.835938" xlink:href="#DejaVuSans-110"/>
      <use x="1377.214844" xlink:href="#DejaVuSans-41"/>
     </g>
    </g>
   </g>
   <g id="matplotlib.axis_2">
    <g id="ytick_1">
     <g id="line2d_17">
      <path clip-path="url(#pfe049ad248)" d="M 57.6 298.944 
L 338.688 298.944 
" style="fill:none;stroke:#b0b0b0;stroke-linecap:square;stroke-width:0.8;"/>
     </g>
     <g id="line2d_18">
      <defs>
       <path d="M 0 0 
L -3.5 0 
" id="ma149b51bd5" style="stroke:#000000;stroke-width:0.8;"/>
      </defs>
      <g>
       <use style="stroke:#000000;stroke-width:0.8;" x="57.6" xlink:href="#ma149b51bd5" y="298.944"/>
      </g>
     </g>
     <g id="text_6">
      <!-- 0.0 -->
      <g transform="translate(25.155 305.02275)scale(0.16 -0.16)">
       <defs>
        <path d="M 10.6875 12.40625 
L 21 12.40625 
L 21 0 
L 10.6875 0 
z
" id="DejaVuSans-46"/>
       </defs>
       <use xlink:href="#DejaVuSans-48"/>
       <use x="63.623047" xlink:href="#DejaVuSans-46"/>
       <use x="95.410156" xlink:href="#DejaVuSans-48"/>
      </g>
     </g>
    </g>
    <g id="ytick_2">
     <g id="line2d_19">
      <path clip-path="url(#pfe049ad248)" d="M 57.6 240.431525 
L 338.688 240.431525 
" style="fill:none;stroke:#b0b0b0;stroke-linecap:square;stroke-width:0.8;"/>
     </g>
     <g id="line2d_20">
      <g>
       <use style="stroke:#000000;stroke-width:0.8;" x="57.6" xlink:href="#ma149b51bd5" y="240.431525"/>
      </g>
     </g>
     <g id="text_7">
      <!-- 0.2 -->
      <g transform="translate(25.155 246.510275)scale(0.16 -0.16)">
       <use xlink:href="#DejaVuSans-48"/>
       <use x="63.623047" xlink:href="#DejaVuSans-46"/>
       <use x="95.410156" xlink:href="#DejaVuSans-50"/>
      </g>
     </g>
    </g>
    <g id="ytick_3">
     <g id="line2d_21">
      <path clip-path="url(#pfe049ad248)" d="M 57.6 181.91905 
L 338.688 181.91905 
" style="fill:none;stroke:#b0b0b0;stroke-linecap:square;stroke-width:0.8;"/>
     </g>
     <g id="line2d_22">
      <g>
       <use style="stroke:#000000;stroke-width:0.8;" x="57.6" xlink:href="#ma149b51bd5" y="181.91905"/>
      </g>
     </g>
     <g id="text_8">
      <!-- 0.4 -->
      <g transform="translate(25.155 187.9978)scale(0.16 -0.16)">
       <use xlink:href="#DejaVuSans-48"/>
       <use x="63.623047" xlink:href="#DejaVuSans-46"/>
       <use x="95.410156" xlink:href="#DejaVuSans-52"/>
      </g>
     </g>
    </g>
    <g id="ytick_4">
     <g id="line2d_23">
      <path clip-path="url(#pfe049ad248)" d="M 57.6 123.406574 
L 338.688 123.406574 
" style="fill:none;stroke:#b0b0b0;stroke-linecap:square;stroke-width:0.8;"/>
     </g>
     <g id="line2d_24">
      <g>
       <use style="stroke:#000000;stroke-width:0.8;" x="57.6" xlink:href="#ma149b51bd5" y="123.406574"/>
      </g>
     </g>
     <g id="text_9">
      <!-- 0.6 -->
      <g transform="translate(25.155 129.485324)scale(0.16 -0.16)">
       <use xlink:href="#DejaVuSans-48"/>
       <use x="63.623047" xlink:href="#DejaVuSans-46"/>
       <use x="95.410156" xlink:href="#DejaVuSans-54"/>
      </g>
     </g>
    </g>
    <g id="ytick_5">
     <g id="line2d_25">
      <path clip-path="url(#pfe049ad248)" d="M 57.6 64.894099 
L 338.688 64.894099 
" style="fill:none;stroke:#b0b0b0;stroke-linecap:square;stroke-width:0.8;"/>
     </g>
     <g id="line2d_26">
      <g>
       <use style="stroke:#000000;stroke-width:0.8;" x="57.6" xlink:href="#ma149b51bd5" y="64.894099"/>
      </g>
     </g>
     <g id="text_10">
      <!-- 0.8 -->
      <g transform="translate(25.155 70.972849)scale(0.16 -0.16)">
       <defs>
        <path d="M 31.78125 34.625 
Q 24.75 34.625 20.71875 30.859375 
Q 16.703125 27.09375 16.703125 20.515625 
Q 16.703125 13.921875 20.71875 10.15625 
Q 24.75 6.390625 31.78125 6.390625 
Q 38.8125 6.390625 42.859375 10.171875 
Q 46.921875 13.96875 46.921875 20.515625 
Q 46.921875 27.09375 42.890625 30.859375 
Q 38.875 34.625 31.78125 34.625 
z
M 21.921875 38.8125 
Q 15.578125 40.375 12.03125 44.71875 
Q 8.5 49.078125 8.5 55.328125 
Q 8.5 64.0625 14.71875 69.140625 
Q 20.953125 74.21875 31.78125 74.21875 
Q 42.671875 74.21875 48.875 69.140625 
Q 55.078125 64.0625 55.078125 55.328125 
Q 55.078125 49.078125 51.53125 44.71875 
Q 48 40.375 41.703125 38.8125 
Q 48.828125 37.15625 52.796875 32.3125 
Q 56.78125 27.484375 56.78125 20.515625 
Q 56.78125 9.90625 50.3125 4.234375 
Q 43.84375 -1.421875 31.78125 -1.421875 
Q 19.734375 -1.421875 13.25 4.234375 
Q 6.78125 9.90625 6.78125 20.515625 
Q 6.78125 27.484375 10.78125 32.3125 
Q 14.796875 37.15625 21.921875 38.8125 
z
M 18.3125 54.390625 
Q 18.3125 48.734375 21.84375 45.5625 
Q 25.390625 42.390625 31.78125 42.390625 
Q 38.140625 42.390625 41.71875 45.5625 
Q 45.3125 48.734375 45.3125 54.390625 
Q 45.3125 60.0625 41.71875 63.234375 
Q 38.140625 66.40625 31.78125 66.40625 
Q 25.390625 66.40625 21.84375 63.234375 
Q 18.3125 60.0625 18.3125 54.390625 
z
" id="DejaVuSans-56"/>
       </defs>
       <use xlink:href="#DejaVuSans-48"/>
       <use x="63.623047" xlink:href="#DejaVuSans-46"/>
       <use x="95.410156" xlink:href="#DejaVuSans-56"/>
      </g>
     </g>
    </g>
    <g id="ytick_6">
     <g id="line2d_27">
      <path clip-path="url(#pfe049ad248)" d="M 57.6 6.381624 
L 338.688 6.381624 
" style="fill:none;stroke:#b0b0b0;stroke-linecap:square;stroke-width:0.8;"/>
     </g>
     <g id="line2d_28">
      <g>
       <use style="stroke:#000000;stroke-width:0.8;" x="57.6" xlink:href="#ma149b51bd5" y="6.381624"/>
      </g>
     </g>
     <g id="text_11">
      <!-- 1.0 -->
      <g transform="translate(25.155 12.460374)scale(0.16 -0.16)">
       <use xlink:href="#DejaVuSans-49"/>
       <use x="63.623047" xlink:href="#DejaVuSans-46"/>
       <use x="95.410156" xlink:href="#DejaVuSans-48"/>
      </g>
     </g>
    </g>
    <g id="text_12">
     <!-- Fraction of function,target pairs -->
     <g transform="translate(17.619531 285.585)rotate(-90)scale(0.17 -0.17)">
      <defs>
       <path d="M 9.8125 72.90625 
L 51.703125 72.90625 
L 51.703125 64.59375 
L 19.671875 64.59375 
L 19.671875 43.109375 
L 48.578125 43.109375 
L 48.578125 34.8125 
L 19.671875 34.8125 
L 19.671875 0 
L 9.8125 0 
z
" id="DejaVuSans-70"/>
       <path d="M 41.109375 46.296875 
Q 39.59375 47.171875 37.8125 47.578125 
Q 36.03125 48 33.890625 48 
Q 26.265625 48 22.1875 43.046875 
Q 18.109375 38.09375 18.109375 28.8125 
L 18.109375 0 
L 9.078125 0 
L 9.078125 54.6875 
L 18.109375 54.6875 
L 18.109375 46.1875 
Q 20.953125 51.171875 25.484375 53.578125 
Q 30.03125 56 36.53125 56 
Q 37.453125 56 38.578125 55.875 
Q 39.703125 55.765625 41.0625 55.515625 
z
" id="DejaVuSans-114"/>
       <path d="M 48.78125 52.59375 
L 48.78125 44.1875 
Q 44.96875 46.296875 41.140625 47.34375 
Q 37.3125 48.390625 33.40625 48.390625 
Q 24.65625 48.390625 19.8125 42.84375 
Q 14.984375 37.3125 14.984375 27.296875 
Q 14.984375 17.28125 19.8125 11.734375 
Q 24.65625 6.203125 33.40625 6.203125 
Q 37.3125 6.203125 41.140625 7.25 
Q 44.96875 8.296875 48.78125 10.40625 
L 48.78125 2.09375 
Q 45.015625 0.34375 40.984375 -0.53125 
Q 36.96875 -1.421875 32.421875 -1.421875 
Q 20.0625 -1.421875 12.78125 6.34375 
Q 5.515625 14.109375 5.515625 27.296875 
Q 5.515625 40.671875 12.859375 48.328125 
Q 20.21875 56 33.015625 56 
Q 37.15625 56 41.109375 55.140625 
Q 45.0625 54.296875 48.78125 52.59375 
z
" id="DejaVuSans-99"/>
       <path d="M 18.3125 70.21875 
L 18.3125 54.6875 
L 36.8125 54.6875 
L 36.8125 47.703125 
L 18.3125 47.703125 
L 18.3125 18.015625 
Q 18.3125 11.328125 20.140625 9.421875 
Q 21.96875 7.515625 27.59375 7.515625 
L 36.8125 7.515625 
L 36.8125 0 
L 27.59375 0 
Q 17.1875 0 13.234375 3.875 
Q 9.28125 7.765625 9.28125 18.015625 
L 9.28125 47.703125 
L 2.6875 47.703125 
L 2.6875 54.6875 
L 9.28125 54.6875 
L 9.28125 70.21875 
z
" id="DejaVuSans-116"/>
       <path d="M 8.5 21.578125 
L 8.5 54.6875 
L 17.484375 54.6875 
L 17.484375 21.921875 
Q 17.484375 14.15625 20.5 10.265625 
Q 23.53125 6.390625 29.59375 6.390625 
Q 36.859375 6.390625 41.078125 11.03125 
Q 45.3125 15.671875 45.3125 23.6875 
L 45.3125 54.6875 
L 54.296875 54.6875 
L 54.296875 0 
L 45.3125 0 
L 45.3125 8.40625 
Q 42.046875 3.421875 37.71875 1 
Q 33.40625 -1.421875 27.6875 -1.421875 
Q 18.265625 -1.421875 13.375 4.4375 
Q 8.5 10.296875 8.5 21.578125 
z
M 31.109375 56 
z
" id="DejaVuSans-117"/>
       <path d="M 11.71875 12.40625 
L 22.015625 12.40625 
L 22.015625 4 
L 14.015625 -11.625 
L 7.71875 -11.625 
L 11.71875 4 
z
" id="DejaVuSans-44"/>
       <path d="M 18.109375 8.203125 
L 18.109375 -20.796875 
L 9.078125 -20.796875 
L 9.078125 54.6875 
L 18.109375 54.6875 
L 18.109375 46.390625 
Q 20.953125 51.265625 25.265625 53.625 
Q 29.59375 56 35.59375 56 
Q 45.5625 56 51.78125 48.09375 
Q 58.015625 40.1875 58.015625 27.296875 
Q 58.015625 14.40625 51.78125 6.484375 
Q 45.5625 -1.421875 35.59375 -1.421875 
Q 29.59375 -1.421875 25.265625 0.953125 
Q 20.953125 3.328125 18.109375 8.203125 
z
M 48.6875 27.296875 
Q 48.6875 37.203125 44.609375 42.84375 
Q 40.53125 48.484375 33.40625 48.484375 
Q 26.265625 48.484375 22.1875 42.84375 
Q 18.109375 37.203125 18.109375 27.296875 
Q 18.109375 17.390625 22.1875 11.75 
Q 26.265625 6.109375 33.40625 6.109375 
Q 40.53125 6.109375 44.609375 11.75 
Q 48.6875 17.390625 48.6875 27.296875 
z
" id="DejaVuSans-112"/>
      </defs>
      <use xlink:href="#DejaVuSans-70"/>
      <use x="50.269531" xlink:href="#DejaVuSans-114"/>
      <use x="91.382812" xlink:href="#DejaVuSans-97"/>
      <use x="152.662109" xlink:href="#DejaVuSans-99"/>
      <use x="207.642578" xlink:href="#DejaVuSans-116"/>
      <use x="246.851562" xlink:href="#DejaVuSans-105"/>
      <use x="274.634766" xlink:href="#DejaVuSans-111"/>
      <use x="335.816406" xlink:href="#DejaVuSans-110"/>
      <use x="399.195312" xlink:href="#DejaVuSans-32"/>
      <use x="430.982422" xlink:href="#DejaVuSans-111"/>
      <use x="492.164062" xlink:href="#DejaVuSans-102"/>
      <use x="527.369141" xlink:href="#DejaVuSans-32"/>
      <use x="559.15625" xlink:href="#DejaVuSans-102"/>
      <use x="594.361328" xlink:href="#DejaVuSans-117"/>
      <use x="657.740234" xlink:href="#DejaVuSans-110"/>
      <use x="721.119141" xlink:href="#DejaVuSans-99"/>
      <use x="776.099609" xlink:href="#DejaVuSans-116"/>
      <use x="815.308594" xlink:href="#DejaVuSans-105"/>
      <use x="843.091797" xlink:href="#DejaVuSans-111"/>
      <use x="904.273438" xlink:href="#DejaVuSans-110"/>
      <use x="967.652344" xlink:href="#DejaVuSans-44"/>
      <use x="999.439453" xlink:href="#DejaVuSans-116"/>
      <use x="1038.648438" xlink:href="#DejaVuSans-97"/>
      <use x="1099.927734" xlink:href="#DejaVuSans-114"/>
      <use x="1139.291016" xlink:href="#DejaVuSans-103"/>
      <use x="1202.767578" xlink:href="#DejaVuSans-101"/>
      <use x="1264.291016" xlink:href="#DejaVuSans-116"/>
      <use x="1303.5" xlink:href="#DejaVuSans-32"/>
      <use x="1335.287109" xlink:href="#DejaVuSans-112"/>
      <use x="1398.763672" xlink:href="#DejaVuSans-97"/>
      <use x="1460.042969" xlink:href="#DejaVuSans-105"/>
      <use x="1487.826172" xlink:href="#DejaVuSans-114"/>
      <use x="1528.939453" xlink:href="#DejaVuSans-115"/>
     </g>
    </g>
   </g>
   <g id="line2d_29">
    <defs>
     <path d="M 0 1.5 
C 0.397805 1.5 0.77937 1.341951 1.06066 1.06066 
C 1.341951 0.77937 1.5 0.397805 1.5 0 
C 1.5 -0.397805 1.341951 -0.77937 1.06066 -1.06066 
C 0.77937 -1.341951 0.397805 -1.5 0 -1.5 
C -0.397805 -1.5 -0.77937 -1.341951 -1.06066 -1.06066 
C -1.341951 -0.77937 -1.5 -0.397805 -1.5 0 
C -1.5 0.397805 -1.341951 0.77937 -1.06066 1.06066 
C -0.77937 1.341951 -0.397805 1.5 0 1.5 
z
" id="m485165dd63" style="stroke:#000080;"/>
    </defs>
    <g>
     <use style="fill:#000080;stroke:#000080;" x="141.709062" xlink:href="#m485165dd63" y="6.381624"/>
     <use style="fill:#000080;stroke:#000080;" x="141.709062" xlink:href="#m485165dd63" y="6.381624"/>
    </g>
   </g>
   <g id="line2d_30">
    <path d="M 38.440992 298.944 
L 38.440992 273.129673 
L 93.121756 273.129673 
L 93.121756 272.556021 
L 98.32726 272.556021 
L 98.32726 271.982369 
L 98.880934 271.982369 
L 98.880934 271.408718 
L 99.938184 271.408718 
L 99.938184 270.835066 
L 100.443706 270.835066 
L 100.443706 270.261414 
L 101.877879 270.261414 
L 101.877879 269.114111 
L 102.330873 269.114111 
L 102.330873 268.540459 
L 102.772397 268.540459 
L 102.772397 266.819504 
L 103.203018 266.819504 
L 103.203018 266.245852 
L 103.623262 266.245852 
L 103.623262 265.098549 
L 104.033617 265.098549 
L 104.033617 264.524897 
L 104.434538 264.524897 
L 104.434538 263.377593 
L 104.826449 263.377593 
L 104.826449 261.082987 
L 105.209745 261.082987 
L 105.209745 259.935683 
L 105.584798 259.935683 
L 105.584798 255.920121 
L 105.951954 255.920121 
L 105.951954 254.772818 
L 107.009204 254.772818 
L 107.009204 254.199166 
L 107.680028 254.199166 
L 107.680028 253.625514 
L 108.326001 253.625514 
L 108.326001 253.051863 
L 118.220662 253.051863 
L 118.220662 252.478211 
L 118.576578 252.478211 
L 118.576578 251.904559 
L 118.751849 251.904559 
L 118.751849 251.330907 
L 119.097192 251.330907 
L 119.097192 250.183604 
L 119.267333 250.183604 
L 119.267333 247.888997 
L 119.43583 247.888997 
L 119.43583 246.168042 
L 119.931767 246.168042 
L 119.931767 245.59439 
L 120.254726 245.59439 
L 120.254726 245.020738 
L 120.41399 245.020738 
L 120.41399 244.447087 
L 120.571812 244.447087 
L 120.571812 243.873435 
L 120.728219 243.873435 
L 120.728219 243.299783 
L 120.883236 243.299783 
L 120.883236 242.15248 
L 121.036887 242.15248 
L 121.036887 238.71057 
L 121.189196 238.71057 
L 121.189196 238.136918 
L 121.489881 238.136918 
L 121.489881 237.563266 
L 121.638301 237.563266 
L 121.638301 236.989614 
L 121.785469 236.989614 
L 121.785469 236.415963 
L 122.076131 236.415963 
L 122.076131 235.842311 
L 122.219665 235.842311 
L 122.219665 235.268659 
L 123.985457 235.268659 
L 123.985457 234.121356 
L 124.114161 234.121356 
L 124.114161 233.547704 
L 124.241922 233.547704 
L 124.241922 232.974052 
L 124.619683 232.974052 
L 124.619683 232.400401 
L 126.053856 232.400401 
L 126.053856 231.826749 
L 126.50685 231.826749 
L 126.50685 231.253097 
L 126.618283 231.253097 
L 126.729009 229.532142 
L 127.48501 229.532142 
L 127.590383 228.384839 
L 127.902737 228.384839 
L 128.005624 227.237535 
L 128.107907 227.237535 
L 128.209594 225.51658 
L 128.310692 225.51658 
L 128.411207 224.369277 
L 128.511146 224.369277 
L 128.610515 222.07467 
L 128.709321 222.07467 
L 128.709321 220.927366 
L 129.002426 220.927366 
L 129.099042 219.206411 
L 129.290685 219.206411 
L 129.385722 217.485456 
L 129.480244 217.485456 
L 129.574256 214.617197 
L 129.760775 214.617197 
L 129.853291 212.322591 
L 129.945319 212.322591 
L 130.036864 211.175287 
L 130.127931 211.175287 
L 130.218525 208.307029 
L 130.30865 208.307029 
L 130.398313 204.291467 
L 130.487516 204.291467 
L 130.576266 202.570511 
L 130.664567 202.570511 
L 130.752422 201.423208 
L 130.839837 201.423208 
L 130.926816 195.113039 
L 131.099484 195.113039 
L 131.185181 193.965736 
L 131.270459 193.965736 
L 131.355321 191.671129 
L 131.439773 191.671129 
L 131.523818 189.376522 
L 131.60746 189.376522 
L 131.690703 184.787308 
L 131.856005 184.787308 
L 131.856005 180.771746 
L 132.101058 180.771746 
L 132.181982 179.624443 
L 132.262533 179.624443 
L 132.342714 176.756184 
L 132.422528 176.756184 
L 132.501978 172.740622 
L 132.581068 172.740622 
L 132.659801 171.593319 
L 132.73818 171.593319 
L 132.816208 168.72506 
L 132.893889 168.72506 
L 132.971225 164.709498 
L 133.04822 164.709498 
L 133.04822 161.841239 
L 133.201197 161.841239 
L 133.277185 159.546632 
L 133.352844 159.546632 
L 133.428175 156.678374 
L 133.503183 156.678374 
L 133.57787 153.810115 
L 133.652238 153.810115 
L 133.72629 150.368205 
L 133.800029 150.368205 
L 133.873458 142.910733 
L 134.019394 142.910733 
L 134.091907 139.468822 
L 134.164119 139.468822 
L 134.236034 136.026912 
L 134.307653 136.026912 
L 134.37898 133.158653 
L 134.450015 133.158653 
L 134.520763 130.864047 
L 134.591225 130.864047 
L 134.661403 127.422136 
L 134.7313 127.422136 
L 134.7313 122.832923 
L 134.870259 122.832923 
L 134.870259 121.685619 
L 135.00812 121.685619 
L 135.076644 119.964664 
L 135.144899 119.964664 
L 135.212889 115.949102 
L 135.280614 115.949102 
L 135.348078 108.49163 
L 135.415281 108.49163 
L 135.482227 103.328764 
L 135.548916 103.328764 
L 135.615352 98.73955 
L 135.681535 98.73955 
L 135.747468 94.723988 
L 135.813153 94.723988 
L 135.878591 93.003033 
L 136.008736 93.003033 
L 136.073445 89.561123 
L 136.137916 89.561123 
L 136.202149 85.545561 
L 136.266147 85.545561 
L 136.32991 80.956347 
L 136.393441 80.956347 
L 136.456742 75.793482 
L 136.519813 75.793482 
L 136.519813 72.351571 
L 136.645276 72.351571 
L 136.707671 70.056964 
L 136.831795 70.056964 
L 136.893527 64.894099 
L 136.955041 64.894099 
L 137.016339 63.173144 
L 137.198951 63.173144 
L 137.198951 62.599492 
L 137.319638 62.599492 
L 137.319638 59.731234 
L 137.439497 59.731234 
L 137.439497 55.715672 
L 137.558536 55.715672 
L 137.617753 53.994716 
L 137.676769 53.994716 
L 137.676769 52.847413 
L 137.794206 52.847413 
L 137.852629 51.700109 
L 137.910857 51.700109 
L 137.910857 51.126458 
L 138.026733 51.126458 
L 138.084384 44.816289 
L 138.141844 44.816289 
L 138.141844 43.668985 
L 138.256201 43.668985 
L 138.313099 41.374379 
L 138.426341 41.374379 
L 138.482688 39.653423 
L 138.538853 39.653423 
L 138.594838 37.358817 
L 138.706272 37.358817 
L 138.706272 36.785165 
L 138.927025 36.785165 
L 139.036363 33.343255 
L 139.145019 33.343255 
L 139.253002 28.180389 
L 139.306744 28.180389 
L 139.306744 27.033086 
L 139.466984 27.033086 
L 139.520072 24.738479 
L 139.678372 24.738479 
L 139.783113 23.017524 
L 139.835248 23.017524 
L 139.887228 21.296568 
L 139.990725 21.296568 
L 140.093612 19.001962 
L 140.144829 19.001962 
L 140.246813 15.560051 
L 140.297583 15.560051 
L 140.39868 12.118141 
L 140.549236 12.118141 
L 140.64889 9.823534 
L 140.846504 9.823534 
L 140.846504 9.249882 
L 141.138789 9.249882 
L 141.235139 6.955275 
L 141.709062 6.955275 
L 141.709062 6.381624 
L 338.688 6.381624 
L 338.688 6.381624 
" style="fill:none;stroke:#000080;stroke-linecap:square;stroke-width:1.5;"/>
   </g>
   <g id="line2d_31">
    <defs>
     <path d="M 0 6 
C 1.591219 6 3.117479 5.367802 4.242641 4.242641 
C 5.367802 3.117479 6 1.591219 6 0 
C 6 -1.591219 5.367802 -3.117479 4.242641 -4.242641 
C 3.117479 -5.367802 1.591219 -6 0 -6 
C -1.591219 -6 -3.117479 -5.367802 -4.242641 -4.242641 
C -5.367802 -3.117479 -6 -1.591219 -6 0 
C -6 1.591219 -5.367802 3.117479 -4.242641 4.242641 
C -3.117479 5.367802 -1.591219 6 0 6 
z
" id="m2a1617c715" style="stroke:#000080;stroke-width:1.5;"/>
    </defs>
    <g>
     <use style="fill-opacity:0;stroke:#000080;stroke-width:1.5;" x="131.60746" xlink:href="#m2a1617c715" y="187.081915"/>
     <use style="fill-opacity:0;stroke:#000080;stroke-width:1.5;" x="137.198951" xlink:href="#m2a1617c715" y="62.599492"/>
     <use style="fill-opacity:0;stroke:#000080;stroke-width:1.5;" x="141.709062" xlink:href="#m2a1617c715" y="6.955275"/>
     <use style="fill-opacity:0;stroke:#000080;stroke-width:1.5;" x="141.709062" xlink:href="#m2a1617c715" y="6.381624"/>
     <use style="fill-opacity:0;stroke:#000080;stroke-width:1.5;" x="141.709062" xlink:href="#m2a1617c715" y="6.381624"/>
     <use style="fill-opacity:0;stroke:#000080;stroke-width:1.5;" x="338.688" xlink:href="#m2a1617c715" y="6.381624"/>
    </g>
   </g>
   <g id="line2d_32">
    <path style="fill:none;stroke:#000080;stroke-linecap:square;stroke-width:1.5;"/>
    <g/>
   </g>
   <g id="line2d_33">
    <defs>
     <path d="M 0 1.5 
C 0.397805 1.5 0.77937 1.341951 1.06066 1.06066 
C 1.341951 0.77937 1.5 0.397805 1.5 0 
C 1.5 -0.397805 1.341951 -0.77937 1.06066 -1.06066 
C 0.77937 -1.341951 0.397805 -1.5 0 -1.5 
C -0.397805 -1.5 -0.77937 -1.341951 -1.06066 -1.06066 
C -1.341951 -0.77937 -1.5 -0.397805 -1.5 0 
C -1.5 0.397805 -1.341951 0.77937 -1.06066 1.06066 
C -0.77937 1.341951 -0.397805 1.5 0 1.5 
z
" id="m9d749c44e5" style="stroke:#ff00ff;"/>
    </defs>
    <g>
     <use style="fill:#ff00ff;stroke:#ff00ff;" x="213.866354" xlink:href="#m9d749c44e5" y="6.381624"/>
     <use style="fill:#ff00ff;stroke:#ff00ff;" x="213.866354" xlink:href="#m9d749c44e5" y="6.381624"/>
    </g>
   </g>
   <g id="line2d_34">
    <path d="M 113.500792 298.944 
L 113.500792 298.370348 
L 113.73488 298.370348 
L 113.73488 297.796697 
L 114.193835 297.796697 
L 114.193835 297.223045 
L 114.418861 297.223045 
L 114.418861 296.649393 
L 115.077025 296.649393 
L 115.077025 296.075741 
L 115.291007 296.075741 
L 115.291007 295.50209 
L 115.711251 295.50209 
L 115.711251 294.928438 
L 115.917635 294.928438 
L 115.917635 293.781135 
L 116.914437 293.781135 
L 116.914437 293.207483 
L 117.297733 293.207483 
L 117.297733 292.633831 
L 122.362027 292.633831 
L 122.362027 292.060179 
L 122.643312 292.060179 
L 122.643312 291.486528 
L 127.272333 291.486528 
L 127.378995 289.191921 
L 127.590383 289.191921 
L 127.590383 288.618269 
L 128.511146 288.618269 
L 128.511146 288.044617 
L 130.487516 288.044617 
L 130.487516 286.897314 
L 131.099484 286.897314 
L 131.099484 286.323662 
L 131.439773 286.323662 
L 131.439773 285.75001 
L 131.856005 285.75001 
L 131.856005 284.602707 
L 132.342714 284.602707 
L 132.342714 284.029055 
L 132.816208 284.029055 
L 132.893889 280.587145 
L 133.800029 280.587145 
L 133.800029 280.013493 
L 135.076644 280.013493 
L 135.076644 278.86619 
L 135.681535 278.86619 
L 135.681535 278.292538 
L 135.813153 278.292538 
L 135.813153 276.571583 
L 136.008736 276.571583 
L 136.008736 274.850628 
L 136.393441 274.850628 
L 136.393441 274.276976 
L 136.769843 274.276976 
L 136.769843 273.703324 
L 136.893527 273.703324 
L 136.893527 273.129673 
L 137.077422 273.129673 
L 137.077422 271.982369 
L 137.676769 271.982369 
L 137.676769 270.835066 
L 137.852629 270.835066 
L 137.852629 270.261414 
L 138.026733 270.261414 
L 138.026733 269.687762 
L 138.313099 269.687762 
L 138.313099 269.114111 
L 138.426341 269.114111 
L 138.426341 268.540459 
L 138.594838 268.540459 
L 138.594838 267.966807 
L 139.783113 267.966807 
L 139.783113 267.393156 
L 141.187031 267.393156 
L 141.187031 266.245852 
L 141.568232 266.245852 
L 141.568232 265.6722 
L 142.351634 265.6722 
L 142.351634 265.098549 
L 142.619936 265.098549 
L 142.664255 263.951245 
L 143.101352 263.951245 
L 143.187472 262.803942 
L 143.31586 262.803942 
L 143.40093 261.656638 
L 143.527762 261.656638 
L 143.611807 260.509335 
L 143.653678 260.509335 
L 143.695448 258.214728 
L 143.943994 258.214728 
L 143.943994 257.641076 
L 144.06695 257.641076 
L 144.148442 255.920121 
L 144.390658 255.920121 
L 144.390658 255.346469 
L 144.589967 255.346469 
L 144.589967 253.051863 
L 145.020588 253.051863 
L 145.020588 252.478211 
L 145.327221 252.478211 
L 145.403044 251.330907 
L 145.440832 251.330907 
L 145.516164 249.609952 
L 145.591172 249.609952 
L 145.591172 249.036301 
L 145.851187 249.036301 
L 145.851187 246.168042 
L 146.252108 246.168042 
L 146.324022 243.873435 
L 146.431341 243.873435 
L 146.502522 242.726132 
L 146.679213 242.726132 
L 146.749392 241.578828 
L 146.888907 241.578828 
L 146.992815 239.284221 
L 147.130404 239.284221 
L 147.198794 237.563266 
L 147.300877 237.563266 
L 147.300877 236.989614 
L 147.4697 236.989614 
L 147.4697 236.415963 
L 147.670154 236.415963 
L 147.670154 235.842311 
L 148.417899 235.842311 
L 148.417899 235.268659 
L 148.54473 235.268659 
L 148.54473 234.695008 
L 148.950676 234.695008 
L 149.012299 232.974052 
L 149.165411 232.974052 
L 149.165411 232.400401 
L 149.377533 232.400401 
L 149.377533 231.826749 
L 149.676158 231.826749 
L 149.705742 230.105794 
L 150.05688 230.105794 
L 150.05688 229.532142 
L 150.429467 229.532142 
L 150.457801 227.811187 
L 151.205907 227.811187 
L 151.205907 227.237535 
L 151.421542 227.237535 
L 151.421542 226.663884 
L 151.634543 226.663884 
L 151.660987 225.51658 
L 151.871101 225.51658 
L 151.871101 224.942928 
L 152.078714 224.942928 
L 152.155936 223.795625 
L 152.334802 223.795625 
L 152.334802 223.221973 
L 152.811246 223.221973 
L 152.811246 222.07467 
L 152.934492 222.07467 
L 153.032466 220.927366 
L 153.129893 220.927366 
L 153.129893 220.353715 
L 153.843742 220.353715 
L 153.843742 219.206411 
L 154.05232 219.206411 
L 154.075343 218.059108 
L 154.167129 218.059108 
L 154.167129 217.485456 
L 154.326601 217.485456 
L 154.326601 216.911804 
L 154.484627 216.911804 
L 154.57429 215.764501 
L 154.618949 215.764501 
L 154.618949 215.190849 
L 154.884527 215.190849 
L 154.994001 214.043546 
L 155.275461 214.043546 
L 155.275461 213.469894 
L 155.510121 213.469894 
L 155.510121 212.896242 
L 155.6368 212.896242 
L 155.6368 212.322591 
L 155.804285 212.322591 
L 155.86668 210.601635 
L 156.073064 210.601635 
L 156.175347 208.307029 
L 156.357959 208.307029 
L 156.45859 206.012422 
L 156.498681 206.012422 
L 156.538679 204.291467 
L 156.757045 204.291467 
L 156.816128 203.144163 
L 157.319964 203.144163 
L 157.415209 201.99686 
L 157.528821 201.99686 
L 157.528821 201.423208 
L 157.67916 201.423208 
L 157.772468 200.275904 
L 157.957601 200.275904 
L 157.957601 199.702253 
L 158.086033 199.702253 
L 158.140788 198.554949 
L 158.447857 198.554949 
L 158.447857 197.981298 
L 158.83738 197.981298 
L 158.83738 197.407646 
L 159.098062 197.407646 
L 159.098062 196.833994 
L 159.26971 196.833994 
L 159.303838 195.686691 
L 159.456591 195.686691 
L 159.54088 194.539387 
L 159.591258 194.539387 
L 159.591258 193.965736 
L 159.708245 193.965736 
L 159.708245 192.818432 
L 159.874019 192.818432 
L 159.93989 191.671129 
L 159.98913 191.671129 
L 160.070889 189.950174 
L 160.378126 189.950174 
L 160.410154 188.229218 
L 160.553557 188.229218 
L 160.648508 187.081915 
L 160.727241 187.081915 
L 160.727241 186.508263 
L 161.084903 186.508263 
L 161.161694 184.787308 
L 161.314269 184.787308 
L 161.314269 184.213656 
L 161.615474 184.213656 
L 161.70483 183.066353 
L 161.896878 183.066353 
L 161.896878 182.492701 
L 162.144868 182.492701 
L 162.231559 180.198094 
L 162.346481 180.198094 
L 162.44642 178.477139 
L 162.474869 178.477139 
L 162.474869 177.903487 
L 162.602318 177.903487 
L 162.672723 176.756184 
L 162.882249 176.756184 
L 162.896128 175.608881 
L 163.171418 175.608881 
L 163.239567 174.461577 
L 163.44243 174.461577 
L 163.44243 173.887925 
L 163.642961 173.887925 
L 163.642961 173.314274 
L 164.11503 173.314274 
L 164.11503 172.740622 
L 164.269589 172.740622 
L 164.269589 172.16697 
L 164.410075 172.16697 
L 164.435497 171.019667 
L 164.700211 171.019667 
L 164.700211 170.446015 
L 164.911599 170.446015 
L 164.911599 169.872363 
L 165.254276 169.872363 
L 165.314766 168.151408 
L 165.447111 168.151408 
L 165.471066 166.430453 
L 166.128786 166.430453 
L 166.209284 164.709498 
L 166.414589 164.709498 
L 166.448573 162.988543 
L 167.027338 162.988543 
L 167.0929 161.267588 
L 167.363449 161.267588 
L 167.417059 160.120284 
L 167.534424 160.120284 
L 167.534424 159.546632 
L 167.661564 159.546632 
L 167.714267 157.825677 
L 167.871425 157.825677 
L 167.975417 155.53107 
L 168.253135 155.53107 
L 168.253135 154.957419 
L 168.666574 154.957419 
L 168.77585 153.810115 
L 168.795644 153.810115 
L 168.795644 153.236464 
L 168.933583 153.236464 
L 168.933583 152.662812 
L 169.050954 152.662812 
L 169.109344 150.941857 
L 169.196565 150.941857 
L 169.215888 149.794553 
L 169.379278 149.794553 
L 169.379278 149.220902 
L 169.588476 149.220902 
L 169.692141 148.073598 
L 169.701534 148.073598 
L 169.804532 146.352643 
L 170.054794 146.352643 
L 170.082381 145.20534 
L 170.301516 145.20534 
L 170.346825 143.484384 
L 170.43709 143.484384 
L 170.43709 142.910733 
L 170.660731 142.910733 
L 170.758232 141.763429 
L 170.775901 141.763429 
L 170.88154 140.042474 
L 171.142873 140.042474 
L 171.203291 138.895171 
L 171.374771 138.895171 
L 171.476854 137.747867 
L 171.502282 137.747867 
L 171.578344 135.45326 
L 171.737838 135.45326 
L 171.737838 134.879609 
L 171.928978 134.879609 
L 172.003206 133.732305 
L 172.264595 133.732305 
L 172.337411 132.585002 
L 172.442055 132.585002 
L 172.450079 131.437698 
L 172.60978 131.437698 
L 172.60978 130.864047 
L 172.791647 130.864047 
L 172.791647 130.290395 
L 172.932666 130.290395 
L 173.01052 129.143091 
L 173.195964 129.143091 
L 173.295595 126.848485 
L 173.394661 126.848485 
L 173.485609 125.701181 
L 173.523365 125.701181 
L 173.530906 123.980226 
L 173.933369 123.980226 
L 174.043535 122.259271 
L 174.072796 122.259271 
L 174.15301 119.964664 
L 174.189349 119.964664 
L 174.297915 118.243709 
L 174.341153 118.243709 
L 174.341153 117.670057 
L 174.520166 117.670057 
L 174.626698 115.949102 
L 174.872772 115.949102 
L 174.872772 115.37545 
L 175.080963 115.37545 
L 175.080963 114.801798 
L 175.368318 114.801798 
L 175.368318 114.228147 
L 175.483295 114.228147 
L 175.503506 113.080843 
L 175.651014 113.080843 
L 175.651014 112.507192 
L 175.968581 112.507192 
L 175.968581 111.93354 
L 176.131719 111.93354 
L 176.235332 109.065281 
L 176.370396 109.065281 
L 176.453486 106.197023 
L 176.536182 106.197023 
L 176.536182 105.623371 
L 176.738086 105.623371 
L 176.738086 105.049719 
L 176.887995 105.049719 
L 176.919065 103.328764 
L 177.08589 103.328764 
L 177.104328 102.181461 
L 177.372536 102.181461 
L 177.372536 101.607809 
L 177.517111 101.607809 
L 177.517111 101.034157 
L 177.761354 101.034157 
L 177.773182 99.313202 
L 177.902755 99.313202 
L 177.990551 98.165899 
L 178.176386 98.165899 
L 178.199477 97.018595 
L 178.593054 97.018595 
L 178.643741 95.871292 
L 179.13174 95.871292 
L 179.19724 94.150337 
L 179.251636 94.150337 
L 179.332913 93.003033 
L 179.5104 93.003033 
L 179.51575 91.85573 
L 179.648977 91.85573 
L 179.738993 90.134775 
L 179.770653 90.134775 
L 179.770653 89.561123 
L 179.933319 89.561123 
L 179.933319 88.413819 
L 180.120337 88.413819 
L 180.135832 87.266516 
L 180.279789 87.266516 
L 180.346224 86.119213 
L 180.584324 86.119213 
L 180.644598 84.971909 
L 180.769504 84.971909 
L 180.839063 82.677302 
L 180.91822 82.677302 
L 180.91822 82.103651 
L 181.718947 82.103651 
L 181.751918 80.956347 
L 182.013465 80.956347 
L 182.115152 79.235392 
L 182.161179 79.235392 
L 182.179555 78.088089 
L 182.32132 78.088089 
L 182.32132 77.514437 
L 182.457423 77.514437 
L 182.565546 75.793482 
L 182.574526 75.793482 
L 182.659607 73.498875 
L 182.766488 73.498875 
L 182.810829 71.77792 
L 182.934387 71.77792 
L 182.934387 71.204268 
L 183.048341 71.204268 
L 183.048341 70.056964 
L 183.161555 70.056964 
L 183.161555 69.483313 
L 183.586035 69.483313 
L 183.586035 68.909661 
L 183.763043 68.909661 
L 183.834181 67.762358 
L 183.909189 67.762358 
L 183.909189 67.188706 
L 184.095309 67.188706 
L 184.099422 66.041402 
L 184.259097 66.041402 
L 184.259097 65.467751 
L 184.397118 65.467751 
L 184.397118 64.894099 
L 184.509968 64.894099 
L 184.598127 63.173144 
L 184.665945 63.173144 
L 184.76916 61.452189 
L 184.965949 61.452189 
L 185.044047 60.304885 
L 185.283952 60.304885 
L 185.391224 58.010278 
L 185.421753 58.010278 
L 185.421753 57.436627 
L 185.566037 57.436627 
L 185.566037 56.862975 
L 185.943825 56.862975 
L 185.943825 56.289323 
L 186.149817 56.289323 
L 186.149817 55.715672 
L 186.270076 55.715672 
L 186.270076 55.14202 
L 186.439935 55.14202 
L 186.439935 54.568368 
L 186.714687 54.568368 
L 186.714687 53.994716 
L 186.876783 53.994716 
L 186.876783 53.421065 
L 187.037386 53.421065 
L 187.07904 51.700109 
L 187.189635 51.700109 
L 187.272123 49.405503 
L 187.313221 49.405503 
L 187.313221 48.831851 
L 187.698897 48.831851 
L 187.698897 48.258199 
L 188.161154 48.258199 
L 188.161154 47.684547 
L 188.410267 47.684547 
L 188.519143 46.537244 
L 188.640029 46.537244 
L 188.728569 45.389941 
L 188.775817 45.389941 
L 188.775817 44.816289 
L 189.065933 44.816289 
L 189.164652 43.668985 
L 189.201528 43.668985 
L 189.290324 42.521682 
L 189.31779 42.521682 
L 189.31779 41.374379 
L 189.67694 41.374379 
L 189.682914 40.227075 
L 190.058093 40.227075 
L 190.0727 39.079772 
L 190.235468 39.079772 
L 190.235468 38.50612 
L 190.459678 38.50612 
L 190.536623 37.358817 
L 190.593401 37.358817 
L 190.627379 35.637861 
L 190.745784 35.637861 
L 190.745784 35.06421 
L 190.86618 35.06421 
L 190.949689 33.916906 
L 191.309728 33.916906 
L 191.309728 33.343255 
L 191.507181 33.343255 
L 191.507181 32.769603 
L 191.619779 32.769603 
L 191.619779 32.195951 
L 191.739619 32.195951 
L 191.739619 31.622299 
L 192.130645 31.622299 
L 192.138429 30.474996 
L 192.401027 30.474996 
L 192.44696 29.327692 
L 192.775155 29.327692 
L 192.847533 28.180389 
L 193.161007 28.180389 
L 193.24885 27.033086 
L 193.667297 27.033086 
L 193.717127 25.885782 
L 194.022469 25.885782 
L 194.022469 25.31213 
L 194.66027 25.31213 
L 194.731954 24.164827 
L 194.903245 24.164827 
L 194.903245 23.591175 
L 195.201735 23.591175 
L 195.201735 23.017524 
L 195.435184 23.017524 
L 195.435184 22.443872 
L 195.97221 22.443872 
L 195.97221 21.87022 
L 196.912474 21.87022 
L 196.971556 20.722917 
L 197.387306 20.722917 
L 197.387306 20.149265 
L 197.750182 20.149265 
L 197.830846 19.001962 
L 198.171859 19.001962 
L 198.171859 18.42831 
L 198.569233 18.42831 
L 198.576408 17.281006 
L 198.763689 17.281006 
L 198.763689 16.707355 
L 198.9823 16.707355 
L 198.9823 16.133703 
L 199.220686 16.133703 
L 199.220686 15.560051 
L 199.863673 15.560051 
L 199.918553 14.412748 
L 199.999724 14.412748 
L 199.999724 13.839096 
L 200.249142 13.839096 
L 200.260543 12.691793 
L 200.907789 12.691793 
L 200.907789 12.118141 
L 201.22031 12.118141 
L 201.294121 10.970838 
L 201.462101 10.970838 
L 201.462101 10.397186 
L 202.464643 10.397186 
L 202.464643 9.823534 
L 203.468299 9.823534 
L 203.468299 9.249882 
L 204.941747 9.249882 
L 204.941747 8.676231 
L 206.025266 8.676231 
L 206.025266 8.102579 
L 209.54427 8.102579 
L 209.54427 7.528927 
L 211.617008 7.528927 
L 211.617008 6.955275 
L 213.866354 6.955275 
L 213.866354 6.381624 
L 338.688 6.381624 
L 338.688 6.381624 
" style="fill:none;stroke:#ff00ff;stroke-linecap:square;stroke-width:1.5;"/>
   </g>
   <g id="line2d_35">
    <defs>
     <path d="M -0 8.485281 
L 5.091169 0 
L 0 -8.485281 
L -5.091169 -0 
z
" id="m2061ff271c" style="stroke:#ff00ff;stroke-linejoin:miter;stroke-width:1.5;"/>
    </defs>
    <g>
     <use style="fill-opacity:0;stroke:#ff00ff;stroke-linejoin:miter;stroke-width:1.5;" x="138.026733" xlink:href="#m2061ff271c" y="269.687762"/>
     <use style="fill-opacity:0;stroke:#ff00ff;stroke-linejoin:miter;stroke-width:1.5;" x="173.485609" xlink:href="#m2061ff271c" y="125.701181"/>
     <use style="fill-opacity:0;stroke:#ff00ff;stroke-linejoin:miter;stroke-width:1.5;" x="213.866354" xlink:href="#m2061ff271c" y="6.955275"/>
     <use style="fill-opacity:0;stroke:#ff00ff;stroke-linejoin:miter;stroke-width:1.5;" x="213.866354" xlink:href="#m2061ff271c" y="6.381624"/>
     <use style="fill-opacity:0;stroke:#ff00ff;stroke-linejoin:miter;stroke-width:1.5;" x="338.688" xlink:href="#m2061ff271c" y="6.381624"/>
    </g>
   </g>
   <g id="line2d_36">
    <path style="fill:none;stroke:#ff00ff;stroke-linecap:square;stroke-width:1.5;"/>
    <g/>
   </g>
   <g id="line2d_37">
    <path clip-path="url(#pfe049ad248)" d="M 133.946579 280.013493 
" style="fill:none;stroke:#ff00ff;stroke-linecap:square;stroke-width:1.5;"/>
    <defs>
     <path d="M -12 12 
L 12 -12 
M -12 -12 
L 12 12 
" id="m51f0678112" style="stroke:#ff00ff;"/>
    </defs>
    <g clip-path="url(#pfe049ad248)">
     <use style="fill:#ff00ff;stroke:#ff00ff;" x="133.946579" xlink:href="#m51f0678112" y="280.013493"/>
    </g>
   </g>
   <g id="line2d_38">
    <defs>
     <path d="M 0 1.5 
C 0.397805 1.5 0.77937 1.341951 1.06066 1.06066 
C 1.341951 0.77937 1.5 0.397805 1.5 0 
C 1.5 -0.397805 1.341951 -0.77937 1.06066 -1.06066 
C 0.77937 -1.341951 0.397805 -1.5 0 -1.5 
C -0.397805 -1.5 -0.77937 -1.341951 -1.06066 -1.06066 
C -1.341951 -0.77937 -1.5 -0.397805 -1.5 0 
C -1.5 0.397805 -1.341951 0.77937 -1.06066 1.06066 
C -0.77937 1.341951 -0.397805 1.5 0 1.5 
z
" id="mcb86d4921f" style="stroke:#ff7500;"/>
    </defs>
    <g>
     <use style="fill:#ff7500;stroke:#ff7500;" x="168.283721" xlink:href="#mcb86d4921f" y="264.524897"/>
     <use style="fill:#ff7500;stroke:#ff7500;" x="168.283721" xlink:href="#mcb86d4921f" y="264.524897"/>
    </g>
   </g>
   <g id="line2d_39">
    <path d="M 38.440992 298.944 
L 38.440992 290.912876 
L 84.464254 290.912876 
L 84.464254 290.339224 
L 93.863965 290.339224 
L 93.863965 289.765573 
L 96.552242 289.765573 
L 96.552242 289.191921 
L 97.16421 289.191921 
L 97.16421 288.618269 
L 100.443706 288.618269 
L 100.443706 288.044617 
L 100.934985 288.044617 
L 100.934985 287.470966 
L 111.239304 287.470966 
L 111.239304 286.897314 
L 111.767808 286.897314 
L 111.767808 286.323662 
L 112.026172 286.323662 
L 112.026172 285.75001 
L 114.193835 285.75001 
L 114.193835 285.176359 
L 115.291007 285.176359 
L 115.291007 284.602707 
L 119.931767 284.602707 
L 119.931767 284.029055 
L 123.056911 284.029055 
L 123.056911 283.455404 
L 123.725164 283.455404 
L 123.725164 282.881752 
L 126.50685 282.881752 
L 126.50685 282.3081 
L 127.590383 282.3081 
L 127.590383 281.734448 
L 127.902737 281.734448 
L 127.902737 281.160797 
L 130.398313 281.160797 
L 130.398313 280.587145 
L 130.487516 280.587145 
L 130.487516 280.013493 
L 133.277185 280.013493 
L 133.277185 279.439842 
L 134.091907 279.439842 
L 134.091907 278.86619 
L 134.236034 278.86619 
L 134.236034 278.292538 
L 136.893527 278.292538 
L 136.893527 277.718886 
L 138.084384 277.718886 
L 138.084384 277.145235 
L 138.761723 277.145235 
L 138.761723 276.571583 
L 138.981779 276.571583 
L 138.981779 275.997931 
L 141.80232 275.997931 
L 141.80232 275.42428 
L 144.510517 275.42428 
L 144.510517 274.850628 
L 146.252108 274.850628 
L 146.252108 274.276976 
L 146.502522 274.276976 
L 146.502522 273.703324 
L 148.733265 273.703324 
L 148.733265 273.129673 
L 148.888835 273.129673 
L 148.888835 272.556021 
L 150.344189 272.556021 
L 150.344189 271.982369 
L 150.429467 271.982369 
L 150.429467 271.408718 
L 151.367883 271.408718 
L 151.367883 270.835066 
L 153.29909 270.835066 
L 153.29909 270.261414 
L 155.102793 270.261414 
L 155.102793 269.687762 
L 157.147202 269.687762 
L 157.147202 269.114111 
L 157.957601 269.114111 
L 157.957601 268.540459 
L 158.572743 268.540459 
L 158.572743 267.966807 
L 159.6749 267.966807 
L 159.6749 267.393156 
L 162.812686 267.393156 
L 162.812686 266.819504 
L 163.171418 266.819504 
L 163.171418 266.245852 
L 164.737701 266.245852 
L 164.737701 265.6722 
L 167.7773 265.6722 
L 167.7773 265.098549 
L 168.283721 265.098549 
L 168.283721 264.524897 
L 338.688 264.524897 
" style="fill:none;stroke:#ff7500;stroke-linecap:square;stroke-width:1.5;"/>
   </g>
   <g id="line2d_40">
    <defs>
     <path d="M 0 -6 
L -1.347084 -1.854102 
L -5.706339 -1.854102 
L -2.179628 0.708204 
L -3.526712 4.854102 
L -0 2.291796 
L 3.526712 4.854102 
L 2.179628 0.708204 
L 5.706339 -1.854102 
L 1.347084 -1.854102 
z
" id="mc6eb37762c" style="stroke:#ff7500;stroke-linejoin:bevel;stroke-width:1.5;"/>
    </defs>
    <g>
     <use style="fill-opacity:0;stroke:#ff7500;stroke-linejoin:bevel;stroke-width:1.5;" x="114.193835" xlink:href="#mc6eb37762c" y="285.176359"/>
     <use style="fill-opacity:0;stroke:#ff7500;stroke-linejoin:bevel;stroke-width:1.5;" x="168.283721" xlink:href="#mc6eb37762c" y="265.098549"/>
     <use style="fill-opacity:0;stroke:#ff7500;stroke-linejoin:bevel;stroke-width:1.5;" x="168.283721" xlink:href="#mc6eb37762c" y="265.098549"/>
     <use style="fill-opacity:0;stroke:#ff7500;stroke-linejoin:bevel;stroke-width:1.5;" x="168.283721" xlink:href="#mc6eb37762c" y="264.524897"/>
     <use style="fill-opacity:0;stroke:#ff7500;stroke-linejoin:bevel;stroke-width:1.5;" x="168.283721" xlink:href="#mc6eb37762c" y="264.524897"/>
     <use style="fill-opacity:0;stroke:#ff7500;stroke-linejoin:bevel;stroke-width:1.5;" x="338.688" xlink:href="#mc6eb37762c" y="264.524897"/>
    </g>
   </g>
   <g id="line2d_41">
    <path style="fill:none;stroke:#ff7500;stroke-linecap:square;stroke-width:1.5;"/>
    <g/>
   </g>
   <g id="line2d_42">
    <path clip-path="url(#pfe049ad248)" d="M 130.576266 280.013493 
" style="fill:none;stroke:#ff7500;stroke-linecap:square;stroke-width:1.5;"/>
    <defs>
     <path d="M -12 12 
L 12 -12 
M -12 -12 
L 12 12 
" id="ma01ebaf574" style="stroke:#ff7500;"/>
    </defs>
    <g clip-path="url(#pfe049ad248)">
     <use style="fill:#ff7500;stroke:#ff7500;" x="130.576266" xlink:href="#ma01ebaf574" y="280.013493"/>
    </g>
   </g>
   <g id="line2d_43">
    <defs>
     <path d="M 0 1.5 
C 0.397805 1.5 0.77937 1.341951 1.06066 1.06066 
C 1.341951 0.77937 1.5 0.397805 1.5 0 
C 1.5 -0.397805 1.341951 -0.77937 1.06066 -1.06066 
C 0.77937 -1.341951 0.397805 -1.5 0 -1.5 
C -0.397805 -1.5 -0.77937 -1.341951 -1.06066 -1.06066 
C -1.341951 -0.77937 -1.5 -0.397805 -1.5 0 
C -1.5 0.397805 -1.341951 0.77937 -1.06066 1.06066 
C -0.77937 1.341951 -0.397805 1.5 0 1.5 
z
" id="m4969c5e4f5" style="stroke:#6495ed;"/>
    </defs>
    <g>
     <use style="fill:#6495ed;stroke:#6495ed;" x="168.222494" xlink:href="#m4969c5e4f5" y="264.524897"/>
     <use style="fill:#6495ed;stroke:#6495ed;" x="168.222494" xlink:href="#m4969c5e4f5" y="264.524897"/>
    </g>
   </g>
   <g id="line2d_44">
    <path d="M 38.440992 298.944 
L 38.440992 292.060179 
L 93.863965 292.060179 
L 93.863965 291.486528 
L 94.575872 291.486528 
L 94.575872 290.912876 
L 95.259853 290.912876 
L 95.259853 290.339224 
L 95.918017 290.339224 
L 95.918017 289.191921 
L 97.755429 289.191921 
L 97.755429 288.618269 
L 98.32726 288.618269 
L 98.32726 288.044617 
L 99.938184 288.044617 
L 99.938184 287.470966 
L 100.443706 287.470966 
L 100.443706 286.897314 
L 108.006005 286.897314 
L 108.006005 286.323662 
L 112.779064 286.323662 
L 112.779064 285.75001 
L 120.728219 285.75001 
L 120.728219 285.176359 
L 122.362027 285.176359 
L 122.362027 284.602707 
L 122.782271 284.602707 
L 122.782271 284.029055 
L 123.056911 284.029055 
L 123.056911 283.455404 
L 123.725164 283.455404 
L 123.725164 282.881752 
L 124.494669 282.881752 
L 124.494669 281.734448 
L 128.005624 281.734448 
L 128.005624 281.160797 
L 128.107907 281.160797 
L 128.107907 280.587145 
L 129.195127 280.587145 
L 129.195127 279.439842 
L 130.398313 279.439842 
L 130.398313 278.86619 
L 130.839837 278.86619 
L 130.839837 278.292538 
L 130.926816 278.292538 
L 130.926816 277.718886 
L 131.270459 277.718886 
L 131.270459 277.145235 
L 132.893889 277.145235 
L 132.893889 276.571583 
L 133.277185 276.571583 
L 133.277185 275.997931 
L 137.499118 275.997931 
L 137.499118 275.42428 
L 138.872098 275.42428 
L 138.872098 274.850628 
L 139.520072 274.850628 
L 139.520072 274.276976 
L 141.568232 274.276976 
L 141.568232 273.703324 
L 142.884173 273.703324 
L 142.884173 273.129673 
L 144.310293 273.129673 
L 144.310293 272.556021 
L 144.430703 272.556021 
L 144.430703 271.982369 
L 145.961446 271.982369 
L 145.961446 271.408718 
L 146.538004 271.408718 
L 146.538004 270.835066 
L 146.573414 270.835066 
L 146.573414 270.261414 
L 147.901141 270.261414 
L 147.901141 269.687762 
L 148.031773 269.687762 
L 148.031773 269.114111 
L 149.557321 269.114111 
L 149.557321 268.540459 
L 150.429467 268.540459 
L 150.429467 267.966807 
L 150.738632 267.966807 
L 150.738632 267.393156 
L 151.097081 267.393156 
L 151.097081 266.819504 
L 154.371897 266.819504 
L 154.371897 266.245852 
L 163.50953 266.245852 
L 163.50953 265.6722 
L 168.027181 265.6722 
L 168.027181 265.098549 
L 168.222494 265.098549 
L 168.222494 264.524897 
L 338.688 264.524897 
" style="fill:none;stroke:#6495ed;stroke-linecap:square;stroke-width:1.5;"/>
   </g>
   <g id="line2d_45">
    <defs>
     <path d="M -0 6 
L 6 -6 
L -6 -6 
z
" id="mf11cbfef99" style="stroke:#6495ed;stroke-linejoin:miter;stroke-width:1.5;"/>
    </defs>
    <g>
     <use style="fill-opacity:0;stroke:#6495ed;stroke-linejoin:miter;stroke-width:1.5;" x="108.006005" xlink:href="#mf11cbfef99" y="286.897314"/>
     <use style="fill-opacity:0;stroke:#6495ed;stroke-linejoin:miter;stroke-width:1.5;" x="168.222494" xlink:href="#mf11cbfef99" y="265.098549"/>
     <use style="fill-opacity:0;stroke:#6495ed;stroke-linejoin:miter;stroke-width:1.5;" x="168.222494" xlink:href="#mf11cbfef99" y="265.098549"/>
     <use style="fill-opacity:0;stroke:#6495ed;stroke-linejoin:miter;stroke-width:1.5;" x="168.222494" xlink:href="#mf11cbfef99" y="264.524897"/>
     <use style="fill-opacity:0;stroke:#6495ed;stroke-linejoin:miter;stroke-width:1.5;" x="168.222494" xlink:href="#mf11cbfef99" y="264.524897"/>
     <use style="fill-opacity:0;stroke:#6495ed;stroke-linejoin:miter;stroke-width:1.5;" x="338.688" xlink:href="#mf11cbfef99" y="264.524897"/>
    </g>
   </g>
   <g id="line2d_46">
    <path style="fill:none;stroke:#6495ed;stroke-linecap:square;stroke-width:1.5;"/>
    <g/>
   </g>
   <g id="line2d_47">
    <path clip-path="url(#pfe049ad248)" d="M 131.938072 277.145235 
" style="fill:none;stroke:#6495ed;stroke-linecap:square;stroke-width:1.5;"/>
    <defs>
     <path d="M -12 12 
L 12 -12 
M -12 -12 
L 12 12 
" id="mee66684785" style="stroke:#6495ed;"/>
    </defs>
    <g clip-path="url(#pfe049ad248)">
     <use style="fill:#6495ed;stroke:#6495ed;" x="131.938072" xlink:href="#mee66684785" y="277.145235"/>
    </g>
   </g>
   <g id="line2d_48">
    <defs>
     <path d="M 0 1.5 
C 0.397805 1.5 0.77937 1.341951 1.06066 1.06066 
C 1.341951 0.77937 1.5 0.397805 1.5 0 
C 1.5 -0.397805 1.341951 -0.77937 1.06066 -1.06066 
C 0.77937 -1.341951 0.397805 -1.5 0 -1.5 
C -0.397805 -1.5 -0.77937 -1.341951 -1.06066 -1.06066 
C -1.341951 -0.77937 -1.5 -0.397805 -1.5 0 
C -1.5 0.397805 -1.341951 0.77937 -1.06066 1.06066 
C -0.77937 1.341951 -0.397805 1.5 0 1.5 
z
" id="m7c74138cef" style="stroke:#ff0000;"/>
    </defs>
    <g>
     <use style="fill:#ff0000;stroke:#ff0000;" x="185.19534" xlink:href="#m7c74138cef" y="6.381624"/>
     <use style="fill:#ff0000;stroke:#ff0000;" x="185.19534" xlink:href="#m7c74138cef" y="6.381624"/>
    </g>
   </g>
   <g id="line2d_49">
    <path d="M 38.440992 298.944 
L 38.440992 293.207483 
L 102.772397 293.207483 
L 102.772397 292.633831 
L 103.203018 292.633831 
L 103.203018 292.060179 
L 103.623262 292.060179 
L 103.623262 287.470966 
L 105.584798 287.470966 
L 105.584798 286.323662 
L 105.951954 286.323662 
L 105.951954 282.881752 
L 106.311539 282.881752 
L 106.311539 281.160797 
L 106.66386 281.160797 
L 106.66386 278.292538 
L 107.009204 278.292538 
L 107.009204 277.145235 
L 107.680028 277.145235 
L 107.680028 274.850628 
L 108.006005 274.850628 
L 108.006005 274.276976 
L 108.326001 274.276976 
L 108.326001 271.408718 
L 108.640231 271.408718 
L 108.640231 257.641076 
L 108.948899 257.641076 
L 108.948899 257.067425 
L 109.550313 257.067425 
L 109.550313 255.920121 
L 110.131676 255.920121 
L 110.131676 215.764501 
L 120.728219 215.764501 
L 120.728219 214.043546 
L 122.503236 214.043546 
L 122.503236 212.896242 
L 126.729009 212.896242 
L 126.729009 211.748939 
L 126.948374 211.748939 
L 127.05703 208.307029 
L 127.48501 208.307029 
L 127.590383 206.012422 
L 127.799239 206.012422 
L 127.902737 161.841239 
L 129.667765 161.841239 
L 129.667765 161.267588 
L 129.853291 161.267588 
L 129.853291 160.120284 
L 139.413734 160.120284 
L 139.520072 157.252026 
L 139.625765 157.252026 
L 139.625765 149.794553 
L 139.783113 149.794553 
L 139.887228 141.763429 
L 141.138789 141.763429 
L 141.138789 137.747867 
L 141.378673 137.747867 
L 141.378673 132.01135 
L 144.629556 132.01135 
L 144.708467 122.259271 
L 144.747789 122.259271 
L 144.747789 114.228147 
L 145.440832 114.228147 
L 145.440832 113.654495 
L 145.851187 113.654495 
L 145.888018 99.313202 
L 150.114722 99.313202 
L 150.201126 95.871292 
L 150.258492 95.871292 
L 150.31567 93.003033 
L 150.960087 93.003033 
L 151.015013 91.282078 
L 151.097081 91.282078 
L 151.151579 87.840168 
L 151.949246 87.840168 
L 151.949246 86.692864 
L 152.983548 86.692864 
L 153.081247 83.824606 
L 153.105587 83.824606 
L 153.154164 77.514437 
L 153.773658 77.514437 
L 153.867041 68.909661 
L 154.281186 68.909661 
L 154.281186 68.336009 
L 154.551917 68.336009 
L 154.551917 67.188706 
L 156.658127 67.188706 
L 156.757045 63.173144 
L 157.185742 63.173144 
L 157.28172 60.304885 
L 157.339055 60.304885 
L 157.377174 56.289323 
L 157.809652 56.289323 
L 157.902267 54.568368 
L 157.939176 54.568368 
L 157.939176 53.421065 
L 158.714382 53.421065 
L 158.802326 49.405503 
L 159.235515 49.405503 
L 159.320876 43.095334 
L 159.791329 43.095334 
L 159.824452 41.374379 
L 161.405178 41.374379 
L 161.510643 39.653423 
L 161.852746 39.653423 
L 161.955547 36.211513 
L 162.360793 36.211513 
L 162.360793 35.637861 
L 162.742845 35.637861 
L 162.812686 34.490558 
L 163.034316 34.490558 
L 163.034316 33.343255 
L 163.415518 33.343255 
L 163.469301 28.754041 
L 163.841212 28.754041 
L 163.867476 25.31213 
L 165.169236 25.31213 
L 165.169236 24.738479 
L 165.826498 24.738479 
L 165.873346 23.591175 
L 166.277988 23.591175 
L 166.277988 23.017524 
L 166.773712 23.017524 
L 166.795913 21.87022 
L 167.0929 21.87022 
L 167.147346 20.722917 
L 167.470505 20.722917 
L 167.470505 20.149265 
L 167.76681 20.149265 
L 167.76681 19.575613 
L 168.456037 19.575613 
L 168.456037 19.001962 
L 169.148163 19.001962 
L 169.244833 17.854658 
L 169.417501 17.854658 
L 169.417501 17.281006 
L 169.60737 17.281006 
L 169.60737 16.133703 
L 170.705117 16.133703 
L 170.705117 15.560051 
L 171.056197 15.560051 
L 171.099589 14.412748 
L 171.340609 14.412748 
L 171.391826 12.691793 
L 171.595202 12.691793 
L 171.595202 12.118141 
L 171.746192 12.118141 
L 171.746192 11.544489 
L 171.986738 11.544489 
L 171.986738 10.970838 
L 172.256486 10.970838 
L 172.256486 10.397186 
L 172.482136 10.397186 
L 172.506141 9.249882 
L 173.545979 9.249882 
L 173.545979 8.676231 
L 174.384284 8.676231 
L 174.384284 8.102579 
L 176.125223 8.102579 
L 176.125223 7.528927 
L 176.637426 7.528927 
L 176.637426 6.955275 
L 185.19534 6.955275 
L 185.19534 6.381624 
L 338.688 6.381624 
L 338.688 6.381624 
" style="fill:none;stroke:#ff0000;stroke-linecap:square;stroke-width:1.5;"/>
   </g>
   <g id="line2d_50">
    <defs>
     <path d="M 0 -6 
L -5.196152 -3 
L -5.196152 3 
L -0 6 
L 5.196152 3 
L 5.196152 -3 
z
" id="m6f3b43a4bf" style="stroke:#ff0000;stroke-linejoin:miter;stroke-width:1.5;"/>
    </defs>
    <g>
     <use style="fill-opacity:0;stroke:#ff0000;stroke-linejoin:miter;stroke-width:1.5;" x="110.131676" xlink:href="#m6f3b43a4bf" y="255.920121"/>
     <use style="fill-opacity:0;stroke:#ff0000;stroke-linejoin:miter;stroke-width:1.5;" x="145.888018" xlink:href="#m6f3b43a4bf" y="113.080843"/>
     <use style="fill-opacity:0;stroke:#ff0000;stroke-linejoin:miter;stroke-width:1.5;" x="185.19534" xlink:href="#m6f3b43a4bf" y="6.955275"/>
     <use style="fill-opacity:0;stroke:#ff0000;stroke-linejoin:miter;stroke-width:1.5;" x="185.19534" xlink:href="#m6f3b43a4bf" y="6.381624"/>
     <use style="fill-opacity:0;stroke:#ff0000;stroke-linejoin:miter;stroke-width:1.5;" x="185.19534" xlink:href="#m6f3b43a4bf" y="6.381624"/>
     <use style="fill-opacity:0;stroke:#ff0000;stroke-linejoin:miter;stroke-width:1.5;" x="338.688" xlink:href="#m6f3b43a4bf" y="6.381624"/>
    </g>
   </g>
   <g id="line2d_51">
    <path style="fill:none;stroke:#ff0000;stroke-linecap:square;stroke-width:1.5;"/>
    <g/>
   </g>
   <g id="line2d_52">
    <path clip-path="url(#pfe049ad248)" d="M 136.393441 160.120284 
" style="fill:none;stroke:#ff0000;stroke-linecap:square;stroke-width:1.5;"/>
    <defs>
     <path d="M -12 12 
L 12 -12 
M -12 -12 
L 12 12 
" id="m39019dc493" style="stroke:#ff0000;"/>
    </defs>
    <g clip-path="url(#pfe049ad248)">
     <use style="fill:#ff0000;stroke:#ff0000;" x="136.393441" xlink:href="#m39019dc493" y="160.120284"/>
    </g>
   </g>
   <g id="line2d_53">
    <path d="M 338.688 264.524897 
L 369.60768 293.092752 
" style="fill:none;stroke:#ff7500;stroke-linecap:square;stroke-width:1.5;"/>
    <g>
     <use style="fill-opacity:0;stroke:#ff7500;stroke-linejoin:bevel;stroke-width:1.5;" x="338.688" xlink:href="#mc6eb37762c" y="264.524897"/>
     <use style="fill-opacity:0;stroke:#ff7500;stroke-linejoin:bevel;stroke-width:1.5;" x="369.60768" xlink:href="#mc6eb37762c" y="293.092752"/>
    </g>
   </g>
   <g id="line2d_54">
    <path d="M 338.688 264.524897 
L 369.60768 222.877782 
" style="fill:none;stroke:#6495ed;stroke-linecap:square;stroke-width:1.5;"/>
    <g>
     <use style="fill-opacity:0;stroke:#6495ed;stroke-linejoin:miter;stroke-width:1.5;" x="338.688" xlink:href="#mf11cbfef99" y="264.524897"/>
     <use style="fill-opacity:0;stroke:#6495ed;stroke-linejoin:miter;stroke-width:1.5;" x="369.60768" xlink:href="#mf11cbfef99" y="222.877782"/>
    </g>
   </g>
   <g id="line2d_55">
    <path d="M 338.688 6.381624 
L 369.60768 152.662812 
" style="fill:none;stroke:#ff00ff;stroke-linecap:square;stroke-width:1.5;"/>
    <g>
     <use style="fill-opacity:0;stroke:#ff00ff;stroke-linejoin:miter;stroke-width:1.5;" x="338.688" xlink:href="#m2061ff271c" y="6.381624"/>
     <use style="fill-opacity:0;stroke:#ff00ff;stroke-linejoin:miter;stroke-width:1.5;" x="369.60768" xlink:href="#m2061ff271c" y="152.662812"/>
    </g>
   </g>
   <g id="line2d_56">
    <path d="M 338.688 6.381624 
L 369.60768 82.447842 
" style="fill:none;stroke:#ff0000;stroke-linecap:square;stroke-width:1.5;"/>
    <g>
     <use style="fill-opacity:0;stroke:#ff0000;stroke-linejoin:miter;stroke-width:1.5;" x="338.688" xlink:href="#m6f3b43a4bf" y="6.381624"/>
     <use style="fill-opacity:0;stroke:#ff0000;stroke-linejoin:miter;stroke-width:1.5;" x="369.60768" xlink:href="#m6f3b43a4bf" y="82.447842"/>
    </g>
   </g>
   <g id="line2d_57">
    <path d="M 338.688 6.381624 
L 369.60768 12.232871 
" style="fill:none;stroke:#000080;stroke-linecap:square;stroke-width:1.5;"/>
    <g>
     <use style="fill-opacity:0;stroke:#000080;stroke-width:1.5;" x="338.688" xlink:href="#m2a1617c715" y="6.381624"/>
     <use style="fill-opacity:0;stroke:#000080;stroke-width:1.5;" x="369.60768" xlink:href="#m2a1617c715" y="12.232871"/>
    </g>
   </g>
   <g id="line2d_58">
    <path d="M 338.688 298.944 
L 338.688 6.381624 
" style="fill:none;stroke:#000000;stroke-linecap:square;stroke-width:1.5;"/>
   </g>
   <g id="patch_3">
    <path d="M 57.6 298.944 
L 57.6 3.456 
" style="fill:none;stroke:#000000;stroke-linecap:square;stroke-linejoin:miter;stroke-width:0.8;"/>
   </g>
   <g id="patch_4">
    <path d="M 338.688 298.944 
L 338.688 3.456 
" style="fill:none;stroke:#000000;stroke-linecap:square;stroke-linejoin:miter;stroke-width:0.8;"/>
   </g>
   <g id="patch_5">
    <path d="M 57.6 298.944 
L 338.688 298.944 
" style="fill:none;stroke:#000000;stroke-linecap:square;stroke-linejoin:miter;stroke-width:0.8;"/>
   </g>
   <g id="patch_6">
    <path d="M 57.6 3.456 
L 338.688 3.456 
" style="fill:none;stroke:#000000;stroke-linecap:square;stroke-linejoin:miter;stroke-width:0.8;"/>
   </g>
   <g id="text_13">
    <!-- f3 -->
    <g transform="translate(375.22944 297.78369)scale(0.17 -0.17)">
     <defs>
      <path d="M 40.578125 39.3125 
Q 47.65625 37.796875 51.625 33 
Q 55.609375 28.21875 55.609375 21.1875 
Q 55.609375 10.40625 48.1875 4.484375 
Q 40.765625 -1.421875 27.09375 -1.421875 
Q 22.515625 -1.421875 17.65625 -0.515625 
Q 12.796875 0.390625 7.625 2.203125 
L 7.625 11.71875 
Q 11.71875 9.328125 16.59375 8.109375 
Q 21.484375 6.890625 26.8125 6.890625 
Q 36.078125 6.890625 40.9375 10.546875 
Q 45.796875 14.203125 45.796875 21.1875 
Q 45.796875 27.640625 41.28125 31.265625 
Q 36.765625 34.90625 28.71875 34.90625 
L 20.21875 34.90625 
L 20.21875 43.015625 
L 29.109375 43.015625 
Q 36.375 43.015625 40.234375 45.921875 
Q 44.09375 48.828125 44.09375 54.296875 
Q 44.09375 59.90625 40.109375 62.90625 
Q 36.140625 65.921875 28.71875 65.921875 
Q 24.65625 65.921875 20.015625 65.03125 
Q 15.375 64.15625 9.8125 62.3125 
L 9.8125 71.09375 
Q 15.4375 72.65625 20.34375 73.4375 
Q 25.25 74.21875 29.59375 74.21875 
Q 40.828125 74.21875 47.359375 69.109375 
Q 53.90625 64.015625 53.90625 55.328125 
Q 53.90625 49.265625 50.4375 45.09375 
Q 46.96875 40.921875 40.578125 39.3125 
z
" id="DejaVuSans-51"/>
     </defs>
     <use xlink:href="#DejaVuSans-102"/>
     <use x="35.205078" xlink:href="#DejaVuSans-51"/>
    </g>
   </g>
   <g id="text_14">
    <!-- f4 -->
    <g transform="translate(375.22944 227.56872)scale(0.17 -0.17)">
     <use xlink:href="#DejaVuSans-102"/>
     <use x="35.205078" xlink:href="#DejaVuSans-52"/>
    </g>
   </g>
   <g id="text_15">
    <!-- f2 -->
    <g transform="translate(375.22944 157.353749)scale(0.17 -0.17)">
     <use xlink:href="#DejaVuSans-102"/>
     <use x="35.205078" xlink:href="#DejaVuSans-50"/>
    </g>
   </g>
   <g id="text_16">
    <!-- f5 -->
    <g transform="translate(375.22944 87.138779)scale(0.17 -0.17)">
     <defs>
      <path d="M 10.796875 72.90625 
L 49.515625 72.90625 
L 49.515625 64.59375 
L 19.828125 64.59375 
L 19.828125 46.734375 
Q 21.96875 47.46875 24.109375 47.828125 
Q 26.265625 48.1875 28.421875 48.1875 
Q 40.625 48.1875 47.75 41.5 
Q 54.890625 34.8125 54.890625 23.390625 
Q 54.890625 11.625 47.5625 5.09375 
Q 40.234375 -1.421875 26.90625 -1.421875 
Q 22.3125 -1.421875 17.546875 -0.640625 
Q 12.796875 0.140625 7.71875 1.703125 
L 7.71875 11.625 
Q 12.109375 9.234375 16.796875 8.0625 
Q 21.484375 6.890625 26.703125 6.890625 
Q 35.15625 6.890625 40.078125 11.328125 
Q 45.015625 15.765625 45.015625 23.390625 
Q 45.015625 31 40.078125 35.4375 
Q 35.15625 39.890625 26.703125 39.890625 
Q 22.75 39.890625 18.8125 39.015625 
Q 14.890625 38.140625 10.796875 36.28125 
z
" id="DejaVuSans-53"/>
     </defs>
     <use xlink:href="#DejaVuSans-102"/>
     <use x="35.205078" xlink:href="#DejaVuSans-53"/>
    </g>
   </g>
   <g id="text_17">
    <!-- f1 -->
    <g transform="translate(375.22944 16.923809)scale(0.17 -0.17)">
     <use xlink:href="#DejaVuSans-102"/>
     <use x="35.205078" xlink:href="#DejaVuSans-49"/>
    </g>
   </g>
   <g id="text_18">
    <!-- bbob -->
    <g transform="translate(60.41088 14.161286)scale(0.102 -0.102)">
     <defs>
      <path d="M 48.6875 27.296875 
Q 48.6875 37.203125 44.609375 42.84375 
Q 40.53125 48.484375 33.40625 48.484375 
Q 26.265625 48.484375 22.1875 42.84375 
Q 18.109375 37.203125 18.109375 27.296875 
Q 18.109375 17.390625 22.1875 11.75 
Q 26.265625 6.109375 33.40625 6.109375 
Q 40.53125 6.109375 44.609375 11.75 
Q 48.6875 17.390625 48.6875 27.296875 
z
M 18.109375 46.390625 
Q 20.953125 51.265625 25.265625 53.625 
Q 29.59375 56 35.59375 56 
Q 45.5625 56 51.78125 48.09375 
Q 58.015625 40.1875 58.015625 27.296875 
Q 58.015625 14.40625 51.78125 6.484375 
Q 45.5625 -1.421875 35.59375 -1.421875 
Q 29.59375 -1.421875 25.265625 0.953125 
Q 20.953125 3.328125 18.109375 8.203125 
L 18.109375 0 
L 9.078125 0 
L 9.078125 75.984375 
L 18.109375 75.984375 
z
" id="DejaVuSans-98"/>
     </defs>
     <use xlink:href="#DejaVuSans-98"/>
     <use x="63.476562" xlink:href="#DejaVuSans-98"/>
     <use x="126.953125" xlink:href="#DejaVuSans-111"/>
     <use x="188.134766" xlink:href="#DejaVuSans-98"/>
    </g>
    <!-- Separable functions, 3-D -->
    <g transform="translate(60.41088 25.583055)scale(0.102 -0.102)">
     <defs>
      <path d="M 53.515625 70.515625 
L 53.515625 60.890625 
Q 47.90625 63.578125 42.921875 64.890625 
Q 37.9375 66.21875 33.296875 66.21875 
Q 25.25 66.21875 20.875 63.09375 
Q 16.5 59.96875 16.5 54.203125 
Q 16.5 49.359375 19.40625 46.890625 
Q 22.3125 44.4375 30.421875 42.921875 
L 36.375 41.703125 
Q 47.40625 39.59375 52.65625 34.296875 
Q 57.90625 29 57.90625 20.125 
Q 57.90625 9.515625 50.796875 4.046875 
Q 43.703125 -1.421875 29.984375 -1.421875 
Q 24.8125 -1.421875 18.96875 -0.25 
Q 13.140625 0.921875 6.890625 3.21875 
L 6.890625 13.375 
Q 12.890625 10.015625 18.65625 8.296875 
Q 24.421875 6.59375 29.984375 6.59375 
Q 38.421875 6.59375 43.015625 9.90625 
Q 47.609375 13.234375 47.609375 19.390625 
Q 47.609375 24.75 44.3125 27.78125 
Q 41.015625 30.8125 33.5 32.328125 
L 27.484375 33.5 
Q 16.453125 35.6875 11.515625 40.375 
Q 6.59375 45.0625 6.59375 53.421875 
Q 6.59375 63.09375 13.40625 68.65625 
Q 20.21875 74.21875 32.171875 74.21875 
Q 37.3125 74.21875 42.625 73.28125 
Q 47.953125 72.359375 53.515625 70.515625 
z
" id="DejaVuSans-83"/>
      <path d="M 19.671875 64.796875 
L 19.671875 8.109375 
L 31.59375 8.109375 
Q 46.6875 8.109375 53.6875 14.9375 
Q 60.6875 21.78125 60.6875 36.53125 
Q 60.6875 51.171875 53.6875 57.984375 
Q 46.6875 64.796875 31.59375 64.796875 
z
M 9.8125 72.90625 
L 30.078125 72.90625 
Q 51.265625 72.90625 61.171875 64.09375 
Q 71.09375 55.28125 71.09375 36.53125 
Q 71.09375 17.671875 61.125 8.828125 
Q 51.171875 0 30.078125 0 
L 9.8125 0 
z
" id="DejaVuSans-68"/>
     </defs>
     <use xlink:href="#DejaVuSans-83"/>
     <use x="63.476562" xlink:href="#DejaVuSans-101"/>
     <use x="125" xlink:href="#DejaVuSans-112"/>
     <use x="188.476562" xlink:href="#DejaVuSans-97"/>
     <use x="249.755859" xlink:href="#DejaVuSans-114"/>
     <use x="290.869141" xlink:href="#DejaVuSans-97"/>
     <use x="352.148438" xlink:href="#DejaVuSans-98"/>
     <use x="415.625" xlink:href="#DejaVuSans-108"/>
     <use x="443.408203" xlink:href="#DejaVuSans-101"/>
     <use x="504.931641" xlink:href="#DejaVuSans-32"/>
     <use x="536.71875" xlink:href="#DejaVuSans-102"/>
     <use x="571.923828" xlink:href="#DejaVuSans-117"/>
     <use x="635.302734" xlink:href="#DejaVuSans-110"/>
     <use x="698.681641" xlink:href="#DejaVuSans-99"/>
     <use x="753.662109" xlink:href="#DejaVuSans-116"/>
     <use x="792.871094" xlink:href="#DejaVuSans-105"/>
     <use x="820.654297" xlink:href="#DejaVuSans-111"/>
     <use x="881.835938" xlink:href="#DejaVuSans-110"/>
     <use x="945.214844" xlink:href="#DejaVuSans-115"/>
     <use x="997.314453" xlink:href="#DejaVuSans-44"/>
     <use x="1029.101562" xlink:href="#DejaVuSans-32"/>
     <use x="1060.888672" xlink:href="#DejaVuSans-51"/>
     <use x="1124.511719" xlink:href="#DejaVuSans-45"/>
     <use x="1160.595703" xlink:href="#DejaVuSans-68"/>
    </g>
    <!-- 51 targets: 100..1e-08 -->
    <g transform="translate(60.41088 37.004824)scale(0.102 -0.102)">
     <defs>
      <path d="M 11.71875 12.40625 
L 22.015625 12.40625 
L 22.015625 0 
L 11.71875 0 
z
M 11.71875 51.703125 
L 22.015625 51.703125 
L 22.015625 39.3125 
L 11.71875 39.3125 
z
" id="DejaVuSans-58"/>
     </defs>
     <use xlink:href="#DejaVuSans-53"/>
     <use x="63.623047" xlink:href="#DejaVuSans-49"/>
     <use x="127.246094" xlink:href="#DejaVuSans-32"/>
     <use x="159.033203" xlink:href="#DejaVuSans-116"/>
     <use x="198.242188" xlink:href="#DejaVuSans-97"/>
     <use x="259.521484" xlink:href="#DejaVuSans-114"/>
     <use x="298.884766" xlink:href="#DejaVuSans-103"/>
     <use x="362.361328" xlink:href="#DejaVuSans-101"/>
     <use x="423.884766" xlink:href="#DejaVuSans-116"/>
     <use x="463.09375" xlink:href="#DejaVuSans-115"/>
     <use x="515.193359" xlink:href="#DejaVuSans-58"/>
     <use x="548.884766" xlink:href="#DejaVuSans-32"/>
     <use x="580.671875" xlink:href="#DejaVuSans-49"/>
     <use x="644.294922" xlink:href="#DejaVuSans-48"/>
     <use x="707.917969" xlink:href="#DejaVuSans-48"/>
     <use x="771.541016" xlink:href="#DejaVuSans-46"/>
     <use x="803.328125" xlink:href="#DejaVuSans-46"/>
     <use x="835.115234" xlink:href="#DejaVuSans-49"/>
     <use x="898.738281" xlink:href="#DejaVuSans-101"/>
     <use x="960.261719" xlink:href="#DejaVuSans-45"/>
     <use x="996.345703" xlink:href="#DejaVuSans-48"/>
     <use x="1059.96875" xlink:href="#DejaVuSans-56"/>
    </g>
    <!-- 15 instances -->
    <g transform="translate(60.41088 48.426593)scale(0.102 -0.102)">
     <use xlink:href="#DejaVuSans-49"/>
     <use x="63.623047" xlink:href="#DejaVuSans-53"/>
     <use x="127.246094" xlink:href="#DejaVuSans-32"/>
     <use x="159.033203" xlink:href="#DejaVuSans-105"/>
     <use x="186.816406" xlink:href="#DejaVuSans-110"/>
     <use x="250.195312" xlink:href="#DejaVuSans-115"/>
     <use x="302.294922" xlink:href="#DejaVuSans-116"/>
     <use x="341.503906" xlink:href="#DejaVuSans-97"/>
     <use x="402.783203" xlink:href="#DejaVuSans-110"/>
     <use x="466.162109" xlink:href="#DejaVuSans-99"/>
     <use x="521.142578" xlink:href="#DejaVuSans-101"/>
     <use x="582.666016" xlink:href="#DejaVuSans-115"/>
    </g>
   </g>
   <g id="text_19">
    <!-- v2.4 -->
    <g style="fill:#808080;" transform="translate(187.233062 293.909432)scale(0.1 -0.1)">
     <use xlink:href="#DejaVuSans-118"/>
     <use x="59.179688" xlink:href="#DejaVuSans-50"/>
     <use x="122.802734" xlink:href="#DejaVuSans-46"/>
     <use x="154.589844" xlink:href="#DejaVuSans-52"/>
    </g>
   </g>
  </g>
 </g>
 <defs>
  <clipPath id="pfe049ad248">
   <rect height="295.488" width="281.088" x="57.6" y="3.456"/>
  </clipPath>
 </defs>
</svg>
