<?xml version="1.0" encoding="utf-8" standalone="no"?>
<!DOCTYPE svg PUBLIC "-//W3C//DTD SVG 1.1//EN"
  "http://www.w3.org/Graphics/SVG/1.1/DTD/svg11.dtd">
<!-- Created with matplotlib (https://matplotlib.org/) -->
<svg height="345.6pt" version="1.1" viewBox="0 0 460.8 345.6" width="460.8pt" xmlns="http://www.w3.org/2000/svg" xmlns:xlink="http://www.w3.org/1999/xlink">
 <metadata>
  <rdf:RDF xmlns:cc="http://creativecommons.org/ns#" xmlns:dc="http://purl.org/dc/elements/1.1/" xmlns:rdf="http://www.w3.org/1999/02/22-rdf-syntax-ns#">
   <cc:Work>
    <dc:type rdf:resource="http://purl.org/dc/dcmitype/StillImage"/>
    <dc:date>2021-08-04T10:26:20.713218</dc:date>
    <dc:format>image/svg+xml</dc:format>
    <dc:creator>
     <cc:Agent>
      <dc:title>Matplotlib v3.3.1, https://matplotlib.org/</dc:title>
     </cc:Agent>
    </dc:creator>
   </cc:Work>
  </rdf:RDF>
 </metadata>
 <defs>
  <style type="text/css">*{stroke-linecap:butt;stroke-linejoin:round;}</style>
 </defs>
 <g id="figure_1">
  <g id="patch_1">
   <path d="M 0 345.6 
L 460.8 345.6 
L 460.8 0 
L 0 0 
z
" style="fill:#ffffff;"/>
  </g>
  <g id="axes_1">
   <g id="patch_2">
    <path d="M 57.6 298.944 
L 338.688 298.944 
L 338.688 27.648 
L 57.6 27.648 
z
" style="fill:#ffffff;"/>
   </g>
   <g id="matplotlib.axis_1">
    <g id="xtick_1">
     <g id="line2d_1">
      <path clip-path="url(#peceba42299)" d="M 57.6 298.944 
L 57.6 27.648 
" style="fill:none;stroke:#b0b0b0;stroke-linecap:square;stroke-width:0.8;"/>
     </g>
     <g id="line2d_2">
      <defs>
       <path d="M 0 0 
L 0 3.5 
" id="mf1cc1760a8" style="stroke:#000000;stroke-width:0.8;"/>
      </defs>
      <g>
       <use style="stroke:#000000;stroke-width:0.8;" x="57.6" xlink:href="#mf1cc1760a8" y="298.944"/>
      </g>
     </g>
     <g id="text_1">
      <!-- 0 -->
      <g transform="translate(51.2375 321.140875)scale(0.2 -0.2)">
       <defs>
        <path d="M 31.78125 66.40625 
Q 24.171875 66.40625 20.328125 58.90625 
Q 16.5 51.421875 16.5 36.375 
Q 16.5 21.390625 20.328125 13.890625 
Q 24.171875 6.390625 31.78125 6.390625 
Q 39.453125 6.390625 43.28125 13.890625 
Q 47.125 21.390625 47.125 36.375 
Q 47.125 51.421875 43.28125 58.90625 
Q 39.453125 66.40625 31.78125 66.40625 
z
M 31.78125 74.21875 
Q 44.046875 74.21875 50.515625 64.515625 
Q 56.984375 54.828125 56.984375 36.375 
Q 56.984375 17.96875 50.515625 8.265625 
Q 44.046875 -1.421875 31.78125 -1.421875 
Q 19.53125 -1.421875 13.0625 8.265625 
Q 6.59375 17.96875 6.59375 36.375 
Q 6.59375 54.828125 13.0625 64.515625 
Q 19.53125 74.21875 31.78125 74.21875 
z
" id="DejaVuSans-48"/>
       </defs>
       <use xlink:href="#DejaVuSans-48"/>
      </g>
     </g>
    </g>
    <g id="xtick_2">
     <g id="line2d_3">
      <path clip-path="url(#peceba42299)" d="M 137.910857 298.944 
L 137.910857 27.648 
" style="fill:none;stroke:#b0b0b0;stroke-linecap:square;stroke-width:0.8;"/>
     </g>
     <g id="line2d_4">
      <g>
       <use style="stroke:#000000;stroke-width:0.8;" x="137.910857" xlink:href="#mf1cc1760a8" y="298.944"/>
      </g>
     </g>
     <g id="text_2">
      <!-- 2 -->
      <g transform="translate(131.548357 321.140875)scale(0.2 -0.2)">
       <defs>
        <path d="M 19.1875 8.296875 
L 53.609375 8.296875 
L 53.609375 0 
L 7.328125 0 
L 7.328125 8.296875 
Q 12.9375 14.109375 22.625 23.890625 
Q 32.328125 33.6875 34.8125 36.53125 
Q 39.546875 41.84375 41.421875 45.53125 
Q 43.3125 49.21875 43.3125 52.78125 
Q 43.3125 58.59375 39.234375 62.25 
Q 35.15625 65.921875 28.609375 65.921875 
Q 23.96875 65.921875 18.8125 64.3125 
Q 13.671875 62.703125 7.8125 59.421875 
L 7.8125 69.390625 
Q 13.765625 71.78125 18.9375 73 
Q 24.125 74.21875 28.421875 74.21875 
Q 39.75 74.21875 46.484375 68.546875 
Q 53.21875 62.890625 53.21875 53.421875 
Q 53.21875 48.921875 51.53125 44.890625 
Q 49.859375 40.875 45.40625 35.40625 
Q 44.1875 33.984375 37.640625 27.21875 
Q 31.109375 20.453125 19.1875 8.296875 
z
" id="DejaVuSans-50"/>
       </defs>
       <use xlink:href="#DejaVuSans-50"/>
      </g>
     </g>
    </g>
    <g id="xtick_3">
     <g id="line2d_5">
      <path clip-path="url(#peceba42299)" d="M 218.221714 298.944 
L 218.221714 27.648 
" style="fill:none;stroke:#b0b0b0;stroke-linecap:square;stroke-width:0.8;"/>
     </g>
     <g id="line2d_6">
      <g>
       <use style="stroke:#000000;stroke-width:0.8;" x="218.221714" xlink:href="#mf1cc1760a8" y="298.944"/>
      </g>
     </g>
     <g id="text_3">
      <!-- 4 -->
      <g transform="translate(211.859214 321.140875)scale(0.2 -0.2)">
       <defs>
        <path d="M 37.796875 64.3125 
L 12.890625 25.390625 
L 37.796875 25.390625 
z
M 35.203125 72.90625 
L 47.609375 72.90625 
L 47.609375 25.390625 
L 58.015625 25.390625 
L 58.015625 17.1875 
L 47.609375 17.1875 
L 47.609375 0 
L 37.796875 0 
L 37.796875 17.1875 
L 4.890625 17.1875 
L 4.890625 26.703125 
z
" id="DejaVuSans-52"/>
       </defs>
       <use xlink:href="#DejaVuSans-52"/>
      </g>
     </g>
    </g>
    <g id="xtick_4">
     <g id="line2d_7">
      <path clip-path="url(#peceba42299)" d="M 298.532571 298.944 
L 298.532571 27.648 
" style="fill:none;stroke:#b0b0b0;stroke-linecap:square;stroke-width:0.8;"/>
     </g>
     <g id="line2d_8">
      <g>
       <use style="stroke:#000000;stroke-width:0.8;" x="298.532571" xlink:href="#mf1cc1760a8" y="298.944"/>
      </g>
     </g>
     <g id="text_4">
      <!-- 6 -->
      <g transform="translate(292.170071 321.140875)scale(0.2 -0.2)">
       <defs>
        <path d="M 33.015625 40.375 
Q 26.375 40.375 22.484375 35.828125 
Q 18.609375 31.296875 18.609375 23.390625 
Q 18.609375 15.53125 22.484375 10.953125 
Q 26.375 6.390625 33.015625 6.390625 
Q 39.65625 6.390625 43.53125 10.953125 
Q 47.40625 15.53125 47.40625 23.390625 
Q 47.40625 31.296875 43.53125 35.828125 
Q 39.65625 40.375 33.015625 40.375 
z
M 52.59375 71.296875 
L 52.59375 62.3125 
Q 48.875 64.0625 45.09375 64.984375 
Q 41.3125 65.921875 37.59375 65.921875 
Q 27.828125 65.921875 22.671875 59.328125 
Q 17.53125 52.734375 16.796875 39.40625 
Q 19.671875 43.65625 24.015625 45.921875 
Q 28.375 48.1875 33.59375 48.1875 
Q 44.578125 48.1875 50.953125 41.515625 
Q 57.328125 34.859375 57.328125 23.390625 
Q 57.328125 12.15625 50.6875 5.359375 
Q 44.046875 -1.421875 33.015625 -1.421875 
Q 20.359375 -1.421875 13.671875 8.265625 
Q 6.984375 17.96875 6.984375 36.375 
Q 6.984375 53.65625 15.1875 63.9375 
Q 23.390625 74.21875 37.203125 74.21875 
Q 40.921875 74.21875 44.703125 73.484375 
Q 48.484375 72.75 52.59375 71.296875 
z
" id="DejaVuSans-54"/>
       </defs>
       <use xlink:href="#DejaVuSans-54"/>
      </g>
     </g>
    </g>
    <g id="xtick_5">
     <g id="line2d_9">
      <path clip-path="url(#peceba42299)" d="M 97.755429 298.944 
L 97.755429 27.648 
" style="fill:none;stroke:#b0b0b0;stroke-linecap:square;stroke-width:0.8;"/>
     </g>
     <g id="line2d_10">
      <defs>
       <path d="M 0 0 
L 0 2 
" id="m8e6d87cbf7" style="stroke:#000000;stroke-width:0.6;"/>
      </defs>
      <g>
       <use style="stroke:#000000;stroke-width:0.6;" x="97.755429" xlink:href="#m8e6d87cbf7" y="298.944"/>
      </g>
     </g>
    </g>
    <g id="xtick_6">
     <g id="line2d_11">
      <path clip-path="url(#peceba42299)" d="M 178.066286 298.944 
L 178.066286 27.648 
" style="fill:none;stroke:#b0b0b0;stroke-linecap:square;stroke-width:0.8;"/>
     </g>
     <g id="line2d_12">
      <g>
       <use style="stroke:#000000;stroke-width:0.6;" x="178.066286" xlink:href="#m8e6d87cbf7" y="298.944"/>
      </g>
     </g>
    </g>
    <g id="xtick_7">
     <g id="line2d_13">
      <path clip-path="url(#peceba42299)" d="M 258.377143 298.944 
L 258.377143 27.648 
" style="fill:none;stroke:#b0b0b0;stroke-linecap:square;stroke-width:0.8;"/>
     </g>
     <g id="line2d_14">
      <g>
       <use style="stroke:#000000;stroke-width:0.6;" x="258.377143" xlink:href="#m8e6d87cbf7" y="298.944"/>
      </g>
     </g>
    </g>
    <g id="xtick_8">
     <g id="line2d_15">
      <path clip-path="url(#peceba42299)" d="M 338.688 298.944 
L 338.688 27.648 
" style="fill:none;stroke:#b0b0b0;stroke-linecap:square;stroke-width:0.8;"/>
     </g>
     <g id="line2d_16">
      <g>
       <use style="stroke:#000000;stroke-width:0.6;" x="338.688" xlink:href="#m8e6d87cbf7" y="298.944"/>
      </g>
     </g>
    </g>
    <g id="text_5">
     <!-- log10(# f-evals / dimension) -->
     <g transform="translate(77.764078 342.217594)scale(0.17 -0.17)">
      <defs>
       <path d="M 9.421875 75.984375 
L 18.40625 75.984375 
L 18.40625 0 
L 9.421875 0 
z
" id="DejaVuSans-108"/>
       <path d="M 30.609375 48.390625 
Q 23.390625 48.390625 19.1875 42.75 
Q 14.984375 37.109375 14.984375 27.296875 
Q 14.984375 17.484375 19.15625 11.84375 
Q 23.34375 6.203125 30.609375 6.203125 
Q 37.796875 6.203125 41.984375 11.859375 
Q 46.1875 17.53125 46.1875 27.296875 
Q 46.1875 37.015625 41.984375 42.703125 
Q 37.796875 48.390625 30.609375 48.390625 
z
M 30.609375 56 
Q 42.328125 56 49.015625 48.375 
Q 55.71875 40.765625 55.71875 27.296875 
Q 55.71875 13.875 49.015625 6.21875 
Q 42.328125 -1.421875 30.609375 -1.421875 
Q 18.84375 -1.421875 12.171875 6.21875 
Q 5.515625 13.875 5.515625 27.296875 
Q 5.515625 40.765625 12.171875 48.375 
Q 18.84375 56 30.609375 56 
z
" id="DejaVuSans-111"/>
       <path d="M 45.40625 27.984375 
Q 45.40625 37.75 41.375 43.109375 
Q 37.359375 48.484375 30.078125 48.484375 
Q 22.859375 48.484375 18.828125 43.109375 
Q 14.796875 37.75 14.796875 27.984375 
Q 14.796875 18.265625 18.828125 12.890625 
Q 22.859375 7.515625 30.078125 7.515625 
Q 37.359375 7.515625 41.375 12.890625 
Q 45.40625 18.265625 45.40625 27.984375 
z
M 54.390625 6.78125 
Q 54.390625 -7.171875 48.1875 -13.984375 
Q 42 -20.796875 29.203125 -20.796875 
Q 24.46875 -20.796875 20.265625 -20.09375 
Q 16.0625 -19.390625 12.109375 -17.921875 
L 12.109375 -9.1875 
Q 16.0625 -11.328125 19.921875 -12.34375 
Q 23.78125 -13.375 27.78125 -13.375 
Q 36.625 -13.375 41.015625 -8.765625 
Q 45.40625 -4.15625 45.40625 5.171875 
L 45.40625 9.625 
Q 42.625 4.78125 38.28125 2.390625 
Q 33.9375 0 27.875 0 
Q 17.828125 0 11.671875 7.65625 
Q 5.515625 15.328125 5.515625 27.984375 
Q 5.515625 40.671875 11.671875 48.328125 
Q 17.828125 56 27.875 56 
Q 33.9375 56 38.28125 53.609375 
Q 42.625 51.21875 45.40625 46.390625 
L 45.40625 54.6875 
L 54.390625 54.6875 
z
" id="DejaVuSans-103"/>
       <path d="M 12.40625 8.296875 
L 28.515625 8.296875 
L 28.515625 63.921875 
L 10.984375 60.40625 
L 10.984375 69.390625 
L 28.421875 72.90625 
L 38.28125 72.90625 
L 38.28125 8.296875 
L 54.390625 8.296875 
L 54.390625 0 
L 12.40625 0 
z
" id="DejaVuSans-49"/>
       <path d="M 31 75.875 
Q 24.46875 64.65625 21.28125 53.65625 
Q 18.109375 42.671875 18.109375 31.390625 
Q 18.109375 20.125 21.3125 9.0625 
Q 24.515625 -2 31 -13.1875 
L 23.1875 -13.1875 
Q 15.875 -1.703125 12.234375 9.375 
Q 8.59375 20.453125 8.59375 31.390625 
Q 8.59375 42.28125 12.203125 53.3125 
Q 15.828125 64.359375 23.1875 75.875 
z
" id="DejaVuSans-40"/>
       <path d="M 51.125 44 
L 36.921875 44 
L 32.8125 27.6875 
L 47.125 27.6875 
z
M 43.796875 71.78125 
L 38.71875 51.515625 
L 52.984375 51.515625 
L 58.109375 71.78125 
L 65.921875 71.78125 
L 60.890625 51.515625 
L 76.125 51.515625 
L 76.125 44 
L 58.984375 44 
L 54.984375 27.6875 
L 70.515625 27.6875 
L 70.515625 20.21875 
L 53.078125 20.21875 
L 48 0 
L 40.1875 0 
L 45.21875 20.21875 
L 30.90625 20.21875 
L 25.875 0 
L 18.015625 0 
L 23.09375 20.21875 
L 7.71875 20.21875 
L 7.71875 27.6875 
L 24.90625 27.6875 
L 29 44 
L 13.28125 44 
L 13.28125 51.515625 
L 30.90625 51.515625 
L 35.890625 71.78125 
z
" id="DejaVuSans-35"/>
       <path id="DejaVuSans-32"/>
       <path d="M 37.109375 75.984375 
L 37.109375 68.5 
L 28.515625 68.5 
Q 23.6875 68.5 21.796875 66.546875 
Q 19.921875 64.59375 19.921875 59.515625 
L 19.921875 54.6875 
L 34.71875 54.6875 
L 34.71875 47.703125 
L 19.921875 47.703125 
L 19.921875 0 
L 10.890625 0 
L 10.890625 47.703125 
L 2.296875 47.703125 
L 2.296875 54.6875 
L 10.890625 54.6875 
L 10.890625 58.5 
Q 10.890625 67.625 15.140625 71.796875 
Q 19.390625 75.984375 28.609375 75.984375 
z
" id="DejaVuSans-102"/>
       <path d="M 4.890625 31.390625 
L 31.203125 31.390625 
L 31.203125 23.390625 
L 4.890625 23.390625 
z
" id="DejaVuSans-45"/>
       <path d="M 56.203125 29.59375 
L 56.203125 25.203125 
L 14.890625 25.203125 
Q 15.484375 15.921875 20.484375 11.0625 
Q 25.484375 6.203125 34.421875 6.203125 
Q 39.59375 6.203125 44.453125 7.46875 
Q 49.3125 8.734375 54.109375 11.28125 
L 54.109375 2.78125 
Q 49.265625 0.734375 44.1875 -0.34375 
Q 39.109375 -1.421875 33.890625 -1.421875 
Q 20.796875 -1.421875 13.15625 6.1875 
Q 5.515625 13.8125 5.515625 26.8125 
Q 5.515625 40.234375 12.765625 48.109375 
Q 20.015625 56 32.328125 56 
Q 43.359375 56 49.78125 48.890625 
Q 56.203125 41.796875 56.203125 29.59375 
z
M 47.21875 32.234375 
Q 47.125 39.59375 43.09375 43.984375 
Q 39.0625 48.390625 32.421875 48.390625 
Q 24.90625 48.390625 20.390625 44.140625 
Q 15.875 39.890625 15.1875 32.171875 
z
" id="DejaVuSans-101"/>
       <path d="M 2.984375 54.6875 
L 12.5 54.6875 
L 29.59375 8.796875 
L 46.6875 54.6875 
L 56.203125 54.6875 
L 35.6875 0 
L 23.484375 0 
z
" id="DejaVuSans-118"/>
       <path d="M 34.28125 27.484375 
Q 23.390625 27.484375 19.1875 25 
Q 14.984375 22.515625 14.984375 16.5 
Q 14.984375 11.71875 18.140625 8.90625 
Q 21.296875 6.109375 26.703125 6.109375 
Q 34.1875 6.109375 38.703125 11.40625 
Q 43.21875 16.703125 43.21875 25.484375 
L 43.21875 27.484375 
z
M 52.203125 31.203125 
L 52.203125 0 
L 43.21875 0 
L 43.21875 8.296875 
Q 40.140625 3.328125 35.546875 0.953125 
Q 30.953125 -1.421875 24.3125 -1.421875 
Q 15.921875 -1.421875 10.953125 3.296875 
Q 6 8.015625 6 15.921875 
Q 6 25.140625 12.171875 29.828125 
Q 18.359375 34.515625 30.609375 34.515625 
L 43.21875 34.515625 
L 43.21875 35.40625 
Q 43.21875 41.609375 39.140625 45 
Q 35.0625 48.390625 27.6875 48.390625 
Q 23 48.390625 18.546875 47.265625 
Q 14.109375 46.140625 10.015625 43.890625 
L 10.015625 52.203125 
Q 14.9375 54.109375 19.578125 55.046875 
Q 24.21875 56 28.609375 56 
Q 40.484375 56 46.34375 49.84375 
Q 52.203125 43.703125 52.203125 31.203125 
z
" id="DejaVuSans-97"/>
       <path d="M 44.28125 53.078125 
L 44.28125 44.578125 
Q 40.484375 46.53125 36.375 47.5 
Q 32.28125 48.484375 27.875 48.484375 
Q 21.1875 48.484375 17.84375 46.4375 
Q 14.5 44.390625 14.5 40.28125 
Q 14.5 37.15625 16.890625 35.375 
Q 19.28125 33.59375 26.515625 31.984375 
L 29.59375 31.296875 
Q 39.15625 29.25 43.1875 25.515625 
Q 47.21875 21.78125 47.21875 15.09375 
Q 47.21875 7.46875 41.1875 3.015625 
Q 35.15625 -1.421875 24.609375 -1.421875 
Q 20.21875 -1.421875 15.453125 -0.5625 
Q 10.6875 0.296875 5.421875 2 
L 5.421875 11.28125 
Q 10.40625 8.6875 15.234375 7.390625 
Q 20.0625 6.109375 24.8125 6.109375 
Q 31.15625 6.109375 34.5625 8.28125 
Q 37.984375 10.453125 37.984375 14.40625 
Q 37.984375 18.0625 35.515625 20.015625 
Q 33.0625 21.96875 24.703125 23.78125 
L 21.578125 24.515625 
Q 13.234375 26.265625 9.515625 29.90625 
Q 5.8125 33.546875 5.8125 39.890625 
Q 5.8125 47.609375 11.28125 51.796875 
Q 16.75 56 26.8125 56 
Q 31.78125 56 36.171875 55.265625 
Q 40.578125 54.546875 44.28125 53.078125 
z
" id="DejaVuSans-115"/>
       <path d="M 25.390625 72.90625 
L 33.6875 72.90625 
L 8.296875 -9.28125 
L 0 -9.28125 
z
" id="DejaVuSans-47"/>
       <path d="M 45.40625 46.390625 
L 45.40625 75.984375 
L 54.390625 75.984375 
L 54.390625 0 
L 45.40625 0 
L 45.40625 8.203125 
Q 42.578125 3.328125 38.25 0.953125 
Q 33.9375 -1.421875 27.875 -1.421875 
Q 17.96875 -1.421875 11.734375 6.484375 
Q 5.515625 14.40625 5.515625 27.296875 
Q 5.515625 40.1875 11.734375 48.09375 
Q 17.96875 56 27.875 56 
Q 33.9375 56 38.25 53.625 
Q 42.578125 51.265625 45.40625 46.390625 
z
M 14.796875 27.296875 
Q 14.796875 17.390625 18.875 11.75 
Q 22.953125 6.109375 30.078125 6.109375 
Q 37.203125 6.109375 41.296875 11.75 
Q 45.40625 17.390625 45.40625 27.296875 
Q 45.40625 37.203125 41.296875 42.84375 
Q 37.203125 48.484375 30.078125 48.484375 
Q 22.953125 48.484375 18.875 42.84375 
Q 14.796875 37.203125 14.796875 27.296875 
z
" id="DejaVuSans-100"/>
       <path d="M 9.421875 54.6875 
L 18.40625 54.6875 
L 18.40625 0 
L 9.421875 0 
z
M 9.421875 75.984375 
L 18.40625 75.984375 
L 18.40625 64.59375 
L 9.421875 64.59375 
z
" id="DejaVuSans-105"/>
       <path d="M 52 44.1875 
Q 55.375 50.25 60.0625 53.125 
Q 64.75 56 71.09375 56 
Q 79.640625 56 84.28125 50.015625 
Q 88.921875 44.046875 88.921875 33.015625 
L 88.921875 0 
L 79.890625 0 
L 79.890625 32.71875 
Q 79.890625 40.578125 77.09375 44.375 
Q 74.3125 48.1875 68.609375 48.1875 
Q 61.625 48.1875 57.5625 43.546875 
Q 53.515625 38.921875 53.515625 30.90625 
L 53.515625 0 
L 44.484375 0 
L 44.484375 32.71875 
Q 44.484375 40.625 41.703125 44.40625 
Q 38.921875 48.1875 33.109375 48.1875 
Q 26.21875 48.1875 22.15625 43.53125 
Q 18.109375 38.875 18.109375 30.90625 
L 18.109375 0 
L 9.078125 0 
L 9.078125 54.6875 
L 18.109375 54.6875 
L 18.109375 46.1875 
Q 21.1875 51.21875 25.484375 53.609375 
Q 29.78125 56 35.6875 56 
Q 41.65625 56 45.828125 52.96875 
Q 50 49.953125 52 44.1875 
z
" id="DejaVuSans-109"/>
       <path d="M 54.890625 33.015625 
L 54.890625 0 
L 45.90625 0 
L 45.90625 32.71875 
Q 45.90625 40.484375 42.875 44.328125 
Q 39.84375 48.1875 33.796875 48.1875 
Q 26.515625 48.1875 22.3125 43.546875 
Q 18.109375 38.921875 18.109375 30.90625 
L 18.109375 0 
L 9.078125 0 
L 9.078125 54.6875 
L 18.109375 54.6875 
L 18.109375 46.1875 
Q 21.34375 51.125 25.703125 53.5625 
Q 30.078125 56 35.796875 56 
Q 45.21875 56 50.046875 50.171875 
Q 54.890625 44.34375 54.890625 33.015625 
z
" id="DejaVuSans-110"/>
       <path d="M 8.015625 75.875 
L 15.828125 75.875 
Q 23.140625 64.359375 26.78125 53.3125 
Q 30.421875 42.28125 30.421875 31.390625 
Q 30.421875 20.453125 26.78125 9.375 
Q 23.140625 -1.703125 15.828125 -13.1875 
L 8.015625 -13.1875 
Q 14.5 -2 17.703125 9.0625 
Q 20.90625 20.125 20.90625 31.390625 
Q 20.90625 42.671875 17.703125 53.65625 
Q 14.5 64.65625 8.015625 75.875 
z
" id="DejaVuSans-41"/>
      </defs>
      <use xlink:href="#DejaVuSans-108"/>
      <use x="27.783203" xlink:href="#DejaVuSans-111"/>
      <use x="88.964844" xlink:href="#DejaVuSans-103"/>
      <use x="152.441406" xlink:href="#DejaVuSans-49"/>
      <use x="216.064453" xlink:href="#DejaVuSans-48"/>
      <use x="279.6875" xlink:href="#DejaVuSans-40"/>
      <use x="318.701172" xlink:href="#DejaVuSans-35"/>
      <use x="402.490234" xlink:href="#DejaVuSans-32"/>
      <use x="434.277344" xlink:href="#DejaVuSans-102"/>
      <use x="463.982422" xlink:href="#DejaVuSans-45"/>
      <use x="500.066406" xlink:href="#DejaVuSans-101"/>
      <use x="561.589844" xlink:href="#DejaVuSans-118"/>
      <use x="620.769531" xlink:href="#DejaVuSans-97"/>
      <use x="682.048828" xlink:href="#DejaVuSans-108"/>
      <use x="709.832031" xlink:href="#DejaVuSans-115"/>
      <use x="761.931641" xlink:href="#DejaVuSans-32"/>
      <use x="793.71875" xlink:href="#DejaVuSans-47"/>
      <use x="827.410156" xlink:href="#DejaVuSans-32"/>
      <use x="859.197266" xlink:href="#DejaVuSans-100"/>
      <use x="922.673828" xlink:href="#DejaVuSans-105"/>
      <use x="950.457031" xlink:href="#DejaVuSans-109"/>
      <use x="1047.869141" xlink:href="#DejaVuSans-101"/>
      <use x="1109.392578" xlink:href="#DejaVuSans-110"/>
      <use x="1172.771484" xlink:href="#DejaVuSans-115"/>
      <use x="1224.871094" xlink:href="#DejaVuSans-105"/>
      <use x="1252.654297" xlink:href="#DejaVuSans-111"/>
      <use x="1313.835938" xlink:href="#DejaVuSans-110"/>
      <use x="1377.214844" xlink:href="#DejaVuSans-41"/>
     </g>
    </g>
   </g>
   <g id="matplotlib.axis_2">
    <g id="ytick_1">
     <g id="line2d_17">
      <path clip-path="url(#peceba42299)" d="M 57.6 298.944 
L 338.688 298.944 
" style="fill:none;stroke:#b0b0b0;stroke-linecap:square;stroke-width:0.8;"/>
     </g>
     <g id="line2d_18">
      <defs>
       <path d="M 0 0 
L -3.5 0 
" id="mce094e0fba" style="stroke:#000000;stroke-width:0.8;"/>
      </defs>
      <g>
       <use style="stroke:#000000;stroke-width:0.8;" x="57.6" xlink:href="#mce094e0fba" y="298.944"/>
      </g>
     </g>
     <g id="text_6">
      <!-- 0.0 -->
      <g transform="translate(25.155 305.02275)scale(0.16 -0.16)">
       <defs>
        <path d="M 10.6875 12.40625 
L 21 12.40625 
L 21 0 
L 10.6875 0 
z
" id="DejaVuSans-46"/>
       </defs>
       <use xlink:href="#DejaVuSans-48"/>
       <use x="63.623047" xlink:href="#DejaVuSans-46"/>
       <use x="95.410156" xlink:href="#DejaVuSans-48"/>
      </g>
     </g>
    </g>
    <g id="ytick_2">
     <g id="line2d_19">
      <path clip-path="url(#peceba42299)" d="M 57.6 245.22202 
L 338.688 245.22202 
" style="fill:none;stroke:#b0b0b0;stroke-linecap:square;stroke-width:0.8;"/>
     </g>
     <g id="line2d_20">
      <g>
       <use style="stroke:#000000;stroke-width:0.8;" x="57.6" xlink:href="#mce094e0fba" y="245.22202"/>
      </g>
     </g>
     <g id="text_7">
      <!-- 0.2 -->
      <g transform="translate(25.155 251.30077)scale(0.16 -0.16)">
       <use xlink:href="#DejaVuSans-48"/>
       <use x="63.623047" xlink:href="#DejaVuSans-46"/>
       <use x="95.410156" xlink:href="#DejaVuSans-50"/>
      </g>
     </g>
    </g>
    <g id="ytick_3">
     <g id="line2d_21">
      <path clip-path="url(#peceba42299)" d="M 57.6 191.50004 
L 338.688 191.50004 
" style="fill:none;stroke:#b0b0b0;stroke-linecap:square;stroke-width:0.8;"/>
     </g>
     <g id="line2d_22">
      <g>
       <use style="stroke:#000000;stroke-width:0.8;" x="57.6" xlink:href="#mce094e0fba" y="191.50004"/>
      </g>
     </g>
     <g id="text_8">
      <!-- 0.4 -->
      <g transform="translate(25.155 197.57879)scale(0.16 -0.16)">
       <use xlink:href="#DejaVuSans-48"/>
       <use x="63.623047" xlink:href="#DejaVuSans-46"/>
       <use x="95.410156" xlink:href="#DejaVuSans-52"/>
      </g>
     </g>
    </g>
    <g id="ytick_4">
     <g id="line2d_23">
      <path clip-path="url(#peceba42299)" d="M 57.6 137.778059 
L 338.688 137.778059 
" style="fill:none;stroke:#b0b0b0;stroke-linecap:square;stroke-width:0.8;"/>
     </g>
     <g id="line2d_24">
      <g>
       <use style="stroke:#000000;stroke-width:0.8;" x="57.6" xlink:href="#mce094e0fba" y="137.778059"/>
      </g>
     </g>
     <g id="text_9">
      <!-- 0.6 -->
      <g transform="translate(25.155 143.856809)scale(0.16 -0.16)">
       <use xlink:href="#DejaVuSans-48"/>
       <use x="63.623047" xlink:href="#DejaVuSans-46"/>
       <use x="95.410156" xlink:href="#DejaVuSans-54"/>
      </g>
     </g>
    </g>
    <g id="ytick_5">
     <g id="line2d_25">
      <path clip-path="url(#peceba42299)" d="M 57.6 84.056079 
L 338.688 84.056079 
" style="fill:none;stroke:#b0b0b0;stroke-linecap:square;stroke-width:0.8;"/>
     </g>
     <g id="line2d_26">
      <g>
       <use style="stroke:#000000;stroke-width:0.8;" x="57.6" xlink:href="#mce094e0fba" y="84.056079"/>
      </g>
     </g>
     <g id="text_10">
      <!-- 0.8 -->
      <g transform="translate(25.155 90.134829)scale(0.16 -0.16)">
       <defs>
        <path d="M 31.78125 34.625 
Q 24.75 34.625 20.71875 30.859375 
Q 16.703125 27.09375 16.703125 20.515625 
Q 16.703125 13.921875 20.71875 10.15625 
Q 24.75 6.390625 31.78125 6.390625 
Q 38.8125 6.390625 42.859375 10.171875 
Q 46.921875 13.96875 46.921875 20.515625 
Q 46.921875 27.09375 42.890625 30.859375 
Q 38.875 34.625 31.78125 34.625 
z
M 21.921875 38.8125 
Q 15.578125 40.375 12.03125 44.71875 
Q 8.5 49.078125 8.5 55.328125 
Q 8.5 64.0625 14.71875 69.140625 
Q 20.953125 74.21875 31.78125 74.21875 
Q 42.671875 74.21875 48.875 69.140625 
Q 55.078125 64.0625 55.078125 55.328125 
Q 55.078125 49.078125 51.53125 44.71875 
Q 48 40.375 41.703125 38.8125 
Q 48.828125 37.15625 52.796875 32.3125 
Q 56.78125 27.484375 56.78125 20.515625 
Q 56.78125 9.90625 50.3125 4.234375 
Q 43.84375 -1.421875 31.78125 -1.421875 
Q 19.734375 -1.421875 13.25 4.234375 
Q 6.78125 9.90625 6.78125 20.515625 
Q 6.78125 27.484375 10.78125 32.3125 
Q 14.796875 37.15625 21.921875 38.8125 
z
M 18.3125 54.390625 
Q 18.3125 48.734375 21.84375 45.5625 
Q 25.390625 42.390625 31.78125 42.390625 
Q 38.140625 42.390625 41.71875 45.5625 
Q 45.3125 48.734375 45.3125 54.390625 
Q 45.3125 60.0625 41.71875 63.234375 
Q 38.140625 66.40625 31.78125 66.40625 
Q 25.390625 66.40625 21.84375 63.234375 
Q 18.3125 60.0625 18.3125 54.390625 
z
" id="DejaVuSans-56"/>
       </defs>
       <use xlink:href="#DejaVuSans-48"/>
       <use x="63.623047" xlink:href="#DejaVuSans-46"/>
       <use x="95.410156" xlink:href="#DejaVuSans-56"/>
      </g>
     </g>
    </g>
    <g id="ytick_6">
     <g id="line2d_27">
      <path clip-path="url(#peceba42299)" d="M 57.6 30.334099 
L 338.688 30.334099 
" style="fill:none;stroke:#b0b0b0;stroke-linecap:square;stroke-width:0.8;"/>
     </g>
     <g id="line2d_28">
      <g>
       <use style="stroke:#000000;stroke-width:0.8;" x="57.6" xlink:href="#mce094e0fba" y="30.334099"/>
      </g>
     </g>
     <g id="text_11">
      <!-- 1.0 -->
      <g transform="translate(25.155 36.412849)scale(0.16 -0.16)">
       <use xlink:href="#DejaVuSans-49"/>
       <use x="63.623047" xlink:href="#DejaVuSans-46"/>
       <use x="95.410156" xlink:href="#DejaVuSans-48"/>
      </g>
     </g>
    </g>
    <g id="text_12">
     <!-- Fraction of function,target pairs -->
     <g transform="translate(17.619531 297.681)rotate(-90)scale(0.17 -0.17)">
      <defs>
       <path d="M 9.8125 72.90625 
L 51.703125 72.90625 
L 51.703125 64.59375 
L 19.671875 64.59375 
L 19.671875 43.109375 
L 48.578125 43.109375 
L 48.578125 34.8125 
L 19.671875 34.8125 
L 19.671875 0 
L 9.8125 0 
z
" id="DejaVuSans-70"/>
       <path d="M 41.109375 46.296875 
Q 39.59375 47.171875 37.8125 47.578125 
Q 36.03125 48 33.890625 48 
Q 26.265625 48 22.1875 43.046875 
Q 18.109375 38.09375 18.109375 28.8125 
L 18.109375 0 
L 9.078125 0 
L 9.078125 54.6875 
L 18.109375 54.6875 
L 18.109375 46.1875 
Q 20.953125 51.171875 25.484375 53.578125 
Q 30.03125 56 36.53125 56 
Q 37.453125 56 38.578125 55.875 
Q 39.703125 55.765625 41.0625 55.515625 
z
" id="DejaVuSans-114"/>
       <path d="M 48.78125 52.59375 
L 48.78125 44.1875 
Q 44.96875 46.296875 41.140625 47.34375 
Q 37.3125 48.390625 33.40625 48.390625 
Q 24.65625 48.390625 19.8125 42.84375 
Q 14.984375 37.3125 14.984375 27.296875 
Q 14.984375 17.28125 19.8125 11.734375 
Q 24.65625 6.203125 33.40625 6.203125 
Q 37.3125 6.203125 41.140625 7.25 
Q 44.96875 8.296875 48.78125 10.40625 
L 48.78125 2.09375 
Q 45.015625 0.34375 40.984375 -0.53125 
Q 36.96875 -1.421875 32.421875 -1.421875 
Q 20.0625 -1.421875 12.78125 6.34375 
Q 5.515625 14.109375 5.515625 27.296875 
Q 5.515625 40.671875 12.859375 48.328125 
Q 20.21875 56 33.015625 56 
Q 37.15625 56 41.109375 55.140625 
Q 45.0625 54.296875 48.78125 52.59375 
z
" id="DejaVuSans-99"/>
       <path d="M 18.3125 70.21875 
L 18.3125 54.6875 
L 36.8125 54.6875 
L 36.8125 47.703125 
L 18.3125 47.703125 
L 18.3125 18.015625 
Q 18.3125 11.328125 20.140625 9.421875 
Q 21.96875 7.515625 27.59375 7.515625 
L 36.8125 7.515625 
L 36.8125 0 
L 27.59375 0 
Q 17.1875 0 13.234375 3.875 
Q 9.28125 7.765625 9.28125 18.015625 
L 9.28125 47.703125 
L 2.6875 47.703125 
L 2.6875 54.6875 
L 9.28125 54.6875 
L 9.28125 70.21875 
z
" id="DejaVuSans-116"/>
       <path d="M 8.5 21.578125 
L 8.5 54.6875 
L 17.484375 54.6875 
L 17.484375 21.921875 
Q 17.484375 14.15625 20.5 10.265625 
Q 23.53125 6.390625 29.59375 6.390625 
Q 36.859375 6.390625 41.078125 11.03125 
Q 45.3125 15.671875 45.3125 23.6875 
L 45.3125 54.6875 
L 54.296875 54.6875 
L 54.296875 0 
L 45.3125 0 
L 45.3125 8.40625 
Q 42.046875 3.421875 37.71875 1 
Q 33.40625 -1.421875 27.6875 -1.421875 
Q 18.265625 -1.421875 13.375 4.4375 
Q 8.5 10.296875 8.5 21.578125 
z
M 31.109375 56 
z
" id="DejaVuSans-117"/>
       <path d="M 11.71875 12.40625 
L 22.015625 12.40625 
L 22.015625 4 
L 14.015625 -11.625 
L 7.71875 -11.625 
L 11.71875 4 
z
" id="DejaVuSans-44"/>
       <path d="M 18.109375 8.203125 
L 18.109375 -20.796875 
L 9.078125 -20.796875 
L 9.078125 54.6875 
L 18.109375 54.6875 
L 18.109375 46.390625 
Q 20.953125 51.265625 25.265625 53.625 
Q 29.59375 56 35.59375 56 
Q 45.5625 56 51.78125 48.09375 
Q 58.015625 40.1875 58.015625 27.296875 
Q 58.015625 14.40625 51.78125 6.484375 
Q 45.5625 -1.421875 35.59375 -1.421875 
Q 29.59375 -1.421875 25.265625 0.953125 
Q 20.953125 3.328125 18.109375 8.203125 
z
M 48.6875 27.296875 
Q 48.6875 37.203125 44.609375 42.84375 
Q 40.53125 48.484375 33.40625 48.484375 
Q 26.265625 48.484375 22.1875 42.84375 
Q 18.109375 37.203125 18.109375 27.296875 
Q 18.109375 17.390625 22.1875 11.75 
Q 26.265625 6.109375 33.40625 6.109375 
Q 40.53125 6.109375 44.609375 11.75 
Q 48.6875 17.390625 48.6875 27.296875 
z
" id="DejaVuSans-112"/>
      </defs>
      <use xlink:href="#DejaVuSans-70"/>
      <use x="50.269531" xlink:href="#DejaVuSans-114"/>
      <use x="91.382812" xlink:href="#DejaVuSans-97"/>
      <use x="152.662109" xlink:href="#DejaVuSans-99"/>
      <use x="207.642578" xlink:href="#DejaVuSans-116"/>
      <use x="246.851562" xlink:href="#DejaVuSans-105"/>
      <use x="274.634766" xlink:href="#DejaVuSans-111"/>
      <use x="335.816406" xlink:href="#DejaVuSans-110"/>
      <use x="399.195312" xlink:href="#DejaVuSans-32"/>
      <use x="430.982422" xlink:href="#DejaVuSans-111"/>
      <use x="492.164062" xlink:href="#DejaVuSans-102"/>
      <use x="527.369141" xlink:href="#DejaVuSans-32"/>
      <use x="559.15625" xlink:href="#DejaVuSans-102"/>
      <use x="594.361328" xlink:href="#DejaVuSans-117"/>
      <use x="657.740234" xlink:href="#DejaVuSans-110"/>
      <use x="721.119141" xlink:href="#DejaVuSans-99"/>
      <use x="776.099609" xlink:href="#DejaVuSans-116"/>
      <use x="815.308594" xlink:href="#DejaVuSans-105"/>
      <use x="843.091797" xlink:href="#DejaVuSans-111"/>
      <use x="904.273438" xlink:href="#DejaVuSans-110"/>
      <use x="967.652344" xlink:href="#DejaVuSans-44"/>
      <use x="999.439453" xlink:href="#DejaVuSans-116"/>
      <use x="1038.648438" xlink:href="#DejaVuSans-97"/>
      <use x="1099.927734" xlink:href="#DejaVuSans-114"/>
      <use x="1139.291016" xlink:href="#DejaVuSans-103"/>
      <use x="1202.767578" xlink:href="#DejaVuSans-101"/>
      <use x="1264.291016" xlink:href="#DejaVuSans-116"/>
      <use x="1303.5" xlink:href="#DejaVuSans-32"/>
      <use x="1335.287109" xlink:href="#DejaVuSans-112"/>
      <use x="1398.763672" xlink:href="#DejaVuSans-97"/>
      <use x="1460.042969" xlink:href="#DejaVuSans-105"/>
      <use x="1487.826172" xlink:href="#DejaVuSans-114"/>
      <use x="1528.939453" xlink:href="#DejaVuSans-115"/>
     </g>
    </g>
   </g>
   <g id="line2d_29">
    <defs>
     <path d="M 0 1.5 
C 0.397805 1.5 0.77937 1.341951 1.06066 1.06066 
C 1.341951 0.77937 1.5 0.397805 1.5 0 
C 1.5 -0.397805 1.341951 -0.77937 1.06066 -1.06066 
C 0.77937 -1.341951 0.397805 -1.5 0 -1.5 
C -0.397805 -1.5 -0.77937 -1.341951 -1.06066 -1.06066 
C -1.341951 -0.77937 -1.5 -0.397805 -1.5 0 
C -1.5 0.397805 -1.341951 0.77937 -1.06066 1.06066 
C -0.77937 1.341951 -0.397805 1.5 0 1.5 
z
" id="m1c94f71e0f" style="stroke:#00bfbf;"/>
    </defs>
    <g>
     <use style="fill:#00bfbf;stroke:#00bfbf;" x="180.62453" xlink:href="#m1c94f71e0f" y="30.334099"/>
     <use style="fill:#00bfbf;stroke:#00bfbf;" x="180.62453" xlink:href="#m1c94f71e0f" y="30.334099"/>
    </g>
   </g>
   <g id="line2d_30">
    <path d="M 105.398279 298.944 
L 105.398279 298.417314 
L 110.274038 298.417314 
L 110.274038 296.837256 
L 110.694282 296.837256 
L 110.694282 292.623767 
L 112.280765 292.623767 
L 112.280765 291.043709 
L 113.022974 291.043709 
L 113.022974 287.883592 
L 113.73488 287.883592 
L 113.73488 287.356906 
L 114.080224 287.356906 
L 114.080224 283.143418 
L 114.418861 283.143418 
L 114.418861 282.090045 
L 114.751048 282.090045 
L 114.751048 277.876557 
L 115.077025 277.876557 
L 115.077025 276.823185 
L 115.397021 276.823185 
L 115.397021 272.609696 
L 115.711251 272.609696 
L 115.711251 271.029638 
L 116.019919 271.029638 
L 116.019919 270.502952 
L 116.323218 270.502952 
L 116.323218 266.289463 
L 116.914437 266.289463 
L 116.914437 264.709405 
L 117.202696 264.709405 
L 117.202696 263.129347 
L 117.486268 263.129347 
L 117.486268 262.075974 
L 118.039942 262.075974 
L 118.039942 261.549288 
L 118.310324 261.549288 
L 118.310324 260.495916 
L 118.576578 260.495916 
L 118.576578 259.96923 
L 118.838828 259.96923 
L 118.838828 259.442544 
L 119.097192 259.442544 
L 119.097192 258.915858 
L 123.790603 258.915858 
L 123.790603 258.389172 
L 124.368753 258.389172 
L 124.368753 257.862486 
L 124.557288 257.862486 
L 124.557288 257.3358 
L 124.743806 257.3358 
L 124.743806 256.809114 
L 124.92835 256.809114 
L 124.92835 255.229055 
L 125.291682 255.229055 
L 125.291682 254.702369 
L 125.996395 254.702369 
L 125.996395 251.542253 
L 126.673734 251.542253 
L 126.673734 251.015567 
L 127.165014 251.015567 
L 127.165014 249.962195 
L 127.48501 249.962195 
L 127.48501 248.908822 
L 127.642832 248.908822 
L 127.642832 247.85545 
L 127.799239 247.85545 
L 127.799239 246.802078 
L 127.954256 246.802078 
L 127.954256 246.275392 
L 128.260216 246.275392 
L 128.260216 244.168648 
L 128.411207 244.168648 
L 128.411207 243.641962 
L 128.560901 243.641962 
L 128.560901 243.115275 
L 129.002426 243.115275 
L 129.002426 239.955159 
L 129.290685 239.955159 
L 129.290685 239.428473 
L 129.433047 239.428473 
L 129.433047 238.375101 
L 129.574256 238.375101 
L 129.574256 237.848415 
L 129.714332 237.848415 
L 129.714332 236.795043 
L 129.853291 236.795043 
L 129.853291 233.10824 
L 129.991152 233.10824 
L 129.991152 229.948123 
L 130.531948 229.948123 
L 130.531948 229.421437 
L 130.664567 229.421437 
L 130.664567 228.368065 
L 130.926816 228.368065 
L 130.926816 227.841379 
L 131.056477 227.841379 
L 131.056477 226.261321 
L 131.185181 226.261321 
L 131.185181 224.681263 
L 131.439773 224.681263 
L 131.439773 220.467774 
L 131.690703 220.467774 
L 131.690703 217.307658 
L 131.814826 217.307658 
L 131.814826 215.727599 
L 131.938072 215.727599 
L 131.938072 213.620855 
L 132.060454 213.620855 
L 132.060454 213.094169 
L 132.181982 213.094169 
L 132.181982 211.514111 
L 132.30267 211.514111 
L 132.30267 209.934052 
L 132.422528 209.934052 
L 132.422528 207.827308 
L 132.541568 207.827308 
L 132.541568 206.24725 
L 132.659801 206.24725 
L 132.659801 202.560447 
L 132.777237 202.560447 
L 132.777237 200.980389 
L 132.893889 200.980389 
L 132.893889 198.873645 
L 133.009765 198.873645 
L 133.009765 198.346959 
L 133.124876 198.346959 
L 133.124876 194.13347 
L 133.239232 194.13347 
L 133.239232 193.606784 
L 133.352844 193.606784 
L 133.352844 192.553412 
L 133.46572 192.553412 
L 133.46572 190.973354 
L 133.57787 190.973354 
L 133.57787 189.919981 
L 133.689303 189.919981 
L 133.689303 189.393295 
L 133.910056 189.393295 
L 133.910056 188.339923 
L 134.12805 188.339923 
L 134.236034 185.179807 
L 134.343353 185.179807 
L 134.450015 177.806202 
L 134.55603 177.806202 
L 134.661403 170.959282 
L 134.766144 170.959282 
L 134.870259 169.90591 
L 134.973757 169.90591 
L 134.973757 168.852538 
L 135.178927 168.852538 
L 135.280614 165.692422 
L 135.381712 165.692422 
L 135.482227 160.952247 
L 135.582166 160.952247 
L 135.681535 158.845503 
L 135.780341 158.845503 
L 135.878591 153.578642 
L 135.97629 153.578642 
L 136.073445 151.471897 
L 136.170062 151.471897 
L 136.266147 150.418525 
L 136.361705 150.418525 
L 136.361705 145.678351 
L 136.551264 145.678351 
L 136.551264 142.518234 
L 136.831795 142.518234 
L 136.924311 139.358118 
L 137.016339 139.358118 
L 137.107884 136.724687 
L 137.37967 136.724687 
L 137.469333 134.617943 
L 137.558536 134.617943 
L 137.647286 130.404454 
L 137.735587 130.404454 
L 137.823442 129.351082 
L 137.997836 129.351082 
L 137.997836 127.771024 
L 138.170504 127.771024 
L 138.170504 127.244338 
L 138.510793 127.244338 
L 138.594838 122.504163 
L 138.927025 122.504163 
L 138.927025 121.450791 
L 139.090775 121.450791 
L 139.090775 120.397419 
L 139.253002 120.397419 
L 139.333553 118.290674 
L 139.413734 118.290674 
L 139.413734 115.657244 
L 139.8092 115.657244 
L 139.8092 114.603872 
L 139.964909 114.603872 
L 139.964909 113.5505 
L 140.11924 113.5505 
L 140.195896 111.443755 
L 140.348205 111.443755 
L 140.423864 108.810325 
L 140.499195 108.810325 
L 140.499195 108.283639 
L 140.723258 108.283639 
L 140.723258 107.230267 
L 140.944478 107.230267 
L 141.017599 106.176895 
L 141.162927 106.176895 
L 141.235139 104.07015 
L 141.307054 104.07015 
L 141.307054 103.016778 
L 141.45 103.016778 
L 141.521035 100.383348 
L 141.662245 100.383348 
L 141.732423 99.329976 
L 142.010346 99.329976 
L 142.010346 98.803289 
L 142.147664 98.803289 
L 142.215919 97.749917 
L 142.283909 97.749917 
L 142.351634 96.696545 
L 142.419098 96.696545 
L 142.486301 95.643173 
L 142.619936 95.643173 
L 142.619936 95.116487 
L 142.949611 95.116487 
L 143.014805 94.063115 
L 143.079756 94.063115 
L 143.079756 92.483056 
L 143.337167 92.483056 
L 143.40093 89.849626 
L 143.527762 89.849626 
L 143.527762 88.796254 
L 143.653678 88.796254 
L 143.716296 87.742882 
L 143.840863 87.742882 
L 143.902815 86.68951 
L 143.964547 86.68951 
L 143.964547 85.636137 
L 144.087359 85.636137 
L 144.087359 85.109451 
L 144.209312 85.109451 
L 144.269971 83.529393 
L 144.629556 83.529393 
L 144.629556 82.476021 
L 144.806606 82.476021 
L 144.865226 80.369277 
L 144.981877 80.369277 
L 144.981877 78.789218 
L 145.155404 78.789218 
L 145.155404 78.262532 
L 145.270136 78.262532 
L 145.270136 77.735846 
L 145.497361 77.735846 
L 145.497361 77.20916 
L 145.777292 77.20916 
L 145.832743 75.629102 
L 145.943118 75.629102 
L 145.943118 75.102416 
L 146.161795 75.102416 
L 146.216039 74.049044 
L 146.958248 74.049044 
L 147.061745 71.942299 
L 147.570215 71.942299 
L 147.570215 70.888927 
L 147.917524 70.888927 
L 147.917524 69.835555 
L 148.064279 69.835555 
L 148.064279 69.308869 
L 148.209809 69.308869 
L 148.306159 68.255497 
L 149.286939 68.255497 
L 149.377533 66.675439 
L 149.422654 66.675439 
L 149.467659 65.622066 
L 149.646525 65.622066 
L 149.690956 64.568694 
L 149.779481 64.568694 
L 149.779481 64.042008 
L 149.955193 64.042008 
L 149.955193 63.515322 
L 151.015013 63.515322 
L 151.015013 62.988636 
L 151.13797 62.988636 
L 151.13797 62.46195 
L 152.052897 62.46195 
L 152.052897 61.935264 
L 152.436193 61.935264 
L 152.436193 61.408578 
L 152.885298 61.408578 
L 152.885298 60.881892 
L 153.032466 60.881892 
L 153.032466 60.355206 
L 153.466662 60.355206 
L 153.502361 59.301833 
L 154.201424 59.301833 
L 154.201424 58.775147 
L 155.070227 58.775147 
L 155.070227 58.248461 
L 155.264719 58.248461 
L 155.264719 57.195089 
L 155.393186 57.195089 
L 155.457066 56.141717 
L 155.520713 56.141717 
L 155.584129 54.034973 
L 155.647315 54.034973 
L 155.647315 53.508287 
L 155.773004 53.508287 
L 155.86668 52.454914 
L 156.021696 52.454914 
L 156.083319 49.821484 
L 156.266892 49.821484 
L 156.357959 48.241426 
L 156.418408 48.241426 
L 156.418408 47.71474 
L 156.598505 47.71474 
L 156.598505 47.188054 
L 156.923929 47.188054 
L 156.923929 46.661368 
L 157.214591 46.661368 
L 157.243392 45.607995 
L 157.557108 45.607995 
L 157.557108 45.081309 
L 157.976006 45.081309 
L 158.086033 44.027937 
L 158.113432 44.027937 
L 158.140788 42.974565 
L 158.249784 42.974565 
L 158.249784 42.447879 
L 158.889829 42.447879 
L 158.889829 41.921193 
L 159.582872 41.921193 
L 159.582872 41.394507 
L 159.783038 41.394507 
L 159.783038 40.867821 
L 160.054568 40.867821 
L 160.054568 40.341135 
L 160.176607 40.341135 
L 160.176607 39.814448 
L 160.703658 39.814448 
L 160.703658 39.287762 
L 161.030947 39.287762 
L 161.030947 38.761076 
L 161.867469 38.761076 
L 161.867469 38.23439 
L 162.10862 38.23439 
L 162.10862 37.707704 
L 162.602318 37.707704 
L 162.602318 37.181018 
L 162.791763 37.181018 
L 162.791763 36.654332 
L 163.847782 36.654332 
L 163.847782 36.127646 
L 164.562052 36.127646 
L 164.562052 35.60096 
L 165.375047 35.60096 
L 165.375047 35.074274 
L 165.697012 35.074274 
L 165.7501 34.020902 
L 166.645502 34.020902 
L 166.729224 32.967529 
L 166.878918 32.967529 
L 166.878918 32.440843 
L 167.907893 32.440843 
L 167.907893 31.914157 
L 168.71633 31.914157 
L 168.71633 31.387471 
L 171.982619 31.387471 
L 171.982619 30.860785 
L 180.62453 30.860785 
L 180.62453 30.334099 
L 338.688 30.334099 
L 338.688 30.334099 
" style="fill:none;stroke:#00bfbf;stroke-linecap:square;stroke-width:1.5;"/>
   </g>
   <g id="line2d_31">
    <defs>
     <path d="M -6 0 
L 6 0 
M 0 6 
L 0 -6 
" id="mf21a59c867" style="stroke:#00bfbf;stroke-width:1.5;"/>
    </defs>
    <g>
     <use style="fill-opacity:0;stroke:#00bfbf;stroke-width:1.5;" x="135.178927" xlink:href="#mf21a59c867" y="167.799166"/>
     <use style="fill-opacity:0;stroke:#00bfbf;stroke-width:1.5;" x="153.466662" xlink:href="#mf21a59c867" y="59.82852"/>
     <use style="fill-opacity:0;stroke:#00bfbf;stroke-width:1.5;" x="180.62453" xlink:href="#mf21a59c867" y="30.334099"/>
     <use style="fill-opacity:0;stroke:#00bfbf;stroke-width:1.5;" x="180.62453" xlink:href="#mf21a59c867" y="30.334099"/>
     <use style="fill-opacity:0;stroke:#00bfbf;stroke-width:1.5;" x="338.688" xlink:href="#mf21a59c867" y="30.334099"/>
    </g>
   </g>
   <g id="line2d_32">
    <path style="fill:none;stroke:#00bfbf;stroke-linecap:square;stroke-width:1.5;"/>
    <g/>
   </g>
   <g id="line2d_33">
    <path clip-path="url(#peceba42299)" d="M 124.178158 258.389172 
" style="fill:none;stroke:#00bfbf;stroke-linecap:square;stroke-width:1.5;"/>
    <defs>
     <path d="M -12 12 
L 12 -12 
M -12 -12 
L 12 12 
" id="m241dc350d2" style="stroke:#00bfbf;"/>
    </defs>
    <g clip-path="url(#peceba42299)">
     <use style="fill:#00bfbf;stroke:#00bfbf;" x="124.178158" xlink:href="#m241dc350d2" y="258.389172"/>
    </g>
   </g>
   <g id="line2d_34">
    <defs>
     <path d="M 0 1.5 
C 0.397805 1.5 0.77937 1.341951 1.06066 1.06066 
C 1.341951 0.77937 1.5 0.397805 1.5 0 
C 1.5 -0.397805 1.341951 -0.77937 1.06066 -1.06066 
C 0.77937 -1.341951 0.397805 -1.5 0 -1.5 
C -0.397805 -1.5 -0.77937 -1.341951 -1.06066 -1.06066 
C -1.341951 -0.77937 -1.5 -0.397805 -1.5 0 
C -1.5 0.397805 -1.341951 0.77937 -1.06066 1.06066 
C -0.77937 1.341951 -0.397805 1.5 0 1.5 
z
" id="m1b72d80667" style="stroke:#008000;"/>
    </defs>
    <g>
     <use style="fill:#008000;stroke:#008000;" x="203.90044" xlink:href="#m1b72d80667" y="209.407366"/>
     <use style="fill:#008000;stroke:#008000;" x="203.90044" xlink:href="#m1b72d80667" y="209.407366"/>
    </g>
   </g>
   <g id="line2d_35">
    <path d="M 122.076131 298.944 
L 122.076131 298.417314 
L 122.643312 298.417314 
L 122.643312 297.890628 
L 122.920132 297.890628 
L 122.920132 297.363942 
L 123.056911 297.363942 
L 123.056911 296.837256 
L 123.192626 296.837256 
L 123.192626 296.31057 
L 123.460928 296.31057 
L 123.460928 294.730511 
L 123.725164 294.730511 
L 123.725164 293.677139 
L 123.985457 293.677139 
L 123.985457 293.150453 
L 124.114161 293.150453 
L 124.114161 292.623767 
L 124.241922 292.623767 
L 124.241922 292.097081 
L 124.619683 292.097081 
L 124.619683 290.517023 
L 124.743806 290.517023 
L 124.743806 289.990337 
L 124.867052 289.990337 
L 124.867052 288.936964 
L 125.351508 288.936964 
L 125.351508 288.410278 
L 125.470548 288.410278 
L 125.470548 286.303534 
L 125.588781 286.303534 
L 125.588781 285.776848 
L 125.938745 285.776848 
L 125.938745 284.723476 
L 126.281824 284.723476 
L 126.281824 283.670104 
L 126.50685 283.670104 
L 126.50685 283.143418 
L 126.729009 283.143418 
L 126.729009 279.983301 
L 127.05703 279.983301 
L 127.165014 278.403243 
L 127.590383 278.403243 
L 127.590383 277.876557 
L 127.799239 277.876557 
L 127.902737 276.296499 
L 128.005624 276.296499 
L 128.107907 274.189754 
L 128.411207 274.189754 
L 128.511146 273.136382 
L 128.610515 273.136382 
L 128.709321 272.08301 
L 129.002426 272.08301 
L 129.002426 271.556324 
L 129.195127 271.556324 
L 129.195127 270.502952 
L 129.480244 270.502952 
L 129.574256 269.449579 
L 129.760775 269.449579 
L 129.760775 266.816149 
L 129.945319 266.816149 
L 129.945319 265.236091 
L 130.30865 265.236091 
L 130.398313 264.182719 
L 130.487516 264.182719 
L 130.487516 263.129347 
L 131.013364 263.129347 
L 131.013364 262.60266 
L 131.185181 262.60266 
L 131.185181 262.075974 
L 131.439773 262.075974 
L 131.523818 261.022602 
L 131.690703 261.022602 
L 131.690703 259.96923 
L 132.181982 259.96923 
L 132.181982 259.442544 
L 132.342714 259.442544 
L 132.342714 258.915858 
L 133.201197 258.915858 
L 133.201197 258.389172 
L 135.615352 258.389172 
L 135.615352 257.862486 
L 137.910857 257.862486 
L 137.910857 256.809114 
L 138.256201 256.809114 
L 138.256201 256.282427 
L 138.369812 256.282427 
L 138.369812 255.755741 
L 138.761723 255.755741 
L 138.761723 255.229055 
L 139.990725 255.229055 
L 139.990725 254.702369 
L 140.246813 254.702369 
L 140.246813 254.175683 
L 142.033307 254.175683 
L 142.07914 253.122311 
L 142.575505 253.122311 
L 142.575505 252.595625 
L 142.752555 252.595625 
L 142.752555 252.068939 
L 142.927826 252.068939 
L 142.971369 251.015567 
L 143.40093 251.015567 
L 143.40093 250.488881 
L 144.026061 250.488881 
L 144.026061 249.435508 
L 144.229555 249.435508 
L 144.229555 248.908822 
L 144.350522 248.908822 
L 144.430703 247.85545 
L 145.136208 247.85545 
L 145.136208 247.328764 
L 145.403044 247.328764 
L 145.403044 246.802078 
L 145.628555 246.802078 
L 145.628555 246.275392 
L 147.164632 246.275392 
L 147.164632 245.748706 
L 148.607802 245.748706 
L 148.607802 245.22202 
L 148.919783 245.22202 
L 148.919783 244.695334 
L 149.165411 244.695334 
L 149.256637 243.115275 
L 149.467659 243.115275 
L 149.467659 242.588589 
L 149.616841 242.588589 
L 149.616841 242.061903 
L 150.710752 242.061903 
L 150.710752 241.535217 
L 151.069768 241.535217 
L 151.069768 241.008531 
L 151.367883 241.008531 
L 151.367883 240.481845 
L 151.528368 240.481845 
L 151.528368 239.955159 
L 151.76636 239.955159 
L 151.76636 239.428473 
L 151.975216 239.428473 
L 152.052897 238.375101 
L 152.283884 238.375101 
L 152.283884 237.848415 
L 154.029268 237.848415 
L 154.029268 237.321729 
L 154.326601 237.321729 
L 154.326601 236.795043 
L 154.507086 236.795043 
L 154.507086 236.268356 
L 155.382516 236.268356 
L 155.382516 235.74167 
L 156.134506 235.74167 
L 156.134506 235.214984 
L 156.677955 235.214984 
L 156.677955 234.688298 
L 158.572743 234.688298 
L 158.572743 234.161612 
L 158.994256 234.161612 
L 159.063529 233.10824 
L 159.235515 233.10824 
L 159.235515 232.581554 
L 159.439685 232.581554 
L 159.439685 232.054868 
L 159.791329 232.054868 
L 159.791329 231.528182 
L 159.93989 231.528182 
L 159.93989 231.001496 
L 160.648508 231.001496 
L 160.648508 230.47481 
L 161.054091 230.47481 
L 161.054091 229.948123 
L 162.68677 229.948123 
L 162.68677 229.421437 
L 162.992975 229.421437 
L 162.992975 228.894751 
L 163.157756 228.894751 
L 163.185069 227.841379 
L 164.824867 227.841379 
L 164.824867 227.314693 
L 165.144862 227.314693 
L 165.144862 226.788007 
L 165.518877 226.788007 
L 165.518877 226.261321 
L 165.685193 226.261321 
L 165.685193 225.734635 
L 167.438457 225.734635 
L 167.438457 225.207949 
L 168.109685 225.207949 
L 168.109685 224.681263 
L 168.666574 224.681263 
L 168.666574 224.154577 
L 168.884444 224.154577 
L 168.884444 223.627891 
L 169.493697 223.627891 
L 169.493697 223.101204 
L 169.75779 223.101204 
L 169.75779 222.574518 
L 172.052516 222.574518 
L 172.052516 222.047832 
L 172.909242 222.047832 
L 172.917053 220.99446 
L 173.080293 220.99446 
L 173.180585 219.941088 
L 174.448781 219.941088 
L 174.448781 219.414402 
L 177.838089 219.414402 
L 177.838089 218.887716 
L 178.400227 218.887716 
L 178.400227 218.36103 
L 179.049518 218.36103 
L 179.049518 217.834344 
L 179.531791 217.834344 
L 179.531791 217.307658 
L 179.701984 217.307658 
L 179.701984 216.780971 
L 182.863889 216.780971 
L 182.863889 216.254285 
L 183.90087 216.254285 
L 183.90087 215.727599 
L 184.087079 215.727599 
L 184.087079 215.200913 
L 186.182697 215.200913 
L 186.182697 214.674227 
L 189.424193 214.674227 
L 189.424193 214.147541 
L 190.160086 214.147541 
L 190.160086 213.620855 
L 190.740163 213.620855 
L 190.740163 213.094169 
L 191.758187 213.094169 
L 191.758187 212.567483 
L 192.010859 212.567483 
L 192.010859 212.040797 
L 192.247037 212.040797 
L 192.247037 211.514111 
L 198.057696 211.514111 
L 198.057696 210.987425 
L 201.1632 210.987425 
L 201.1632 210.460738 
L 203.791742 210.460738 
L 203.90044 209.407366 
L 338.688 209.407366 
L 338.688 209.407366 
" style="fill:none;stroke:#008000;stroke-linecap:square;stroke-width:1.5;"/>
   </g>
   <g id="line2d_36">
    <defs>
     <path d="M -0 6 
L 6 -6 
L -6 -6 
z
" id="mba9cece312" style="stroke:#008000;stroke-linejoin:miter;stroke-width:1.5;"/>
    </defs>
    <g>
     <use style="fill-opacity:0;stroke:#008000;stroke-linejoin:miter;stroke-width:1.5;" x="140.246813" xlink:href="#mba9cece312" y="254.175683"/>
     <use style="fill-opacity:0;stroke:#008000;stroke-linejoin:miter;stroke-width:1.5;" x="190.740163" xlink:href="#mba9cece312" y="213.094169"/>
     <use style="fill-opacity:0;stroke:#008000;stroke-linejoin:miter;stroke-width:1.5;" x="203.90044" xlink:href="#mba9cece312" y="209.407366"/>
     <use style="fill-opacity:0;stroke:#008000;stroke-linejoin:miter;stroke-width:1.5;" x="203.90044" xlink:href="#mba9cece312" y="209.407366"/>
     <use style="fill-opacity:0;stroke:#008000;stroke-linejoin:miter;stroke-width:1.5;" x="338.688" xlink:href="#mba9cece312" y="209.407366"/>
    </g>
   </g>
   <g id="line2d_37">
    <path style="fill:none;stroke:#008000;stroke-linecap:square;stroke-width:1.5;"/>
    <g/>
   </g>
   <g id="line2d_38">
    <path clip-path="url(#peceba42299)" d="M 132.581068 258.915858 
" style="fill:none;stroke:#008000;stroke-linecap:square;stroke-width:1.5;"/>
    <defs>
     <path d="M -12 12 
L 12 -12 
M -12 -12 
L 12 12 
" id="mbffeab6f59" style="stroke:#008000;"/>
    </defs>
    <g clip-path="url(#peceba42299)">
     <use style="fill:#008000;stroke:#008000;" x="132.581068" xlink:href="#mbffeab6f59" y="258.915858"/>
    </g>
   </g>
   <g id="line2d_39">
    <defs>
     <path d="M 0 1.5 
C 0.397805 1.5 0.77937 1.341951 1.06066 1.06066 
C 1.341951 0.77937 1.5 0.397805 1.5 0 
C 1.5 -0.397805 1.341951 -0.77937 1.06066 -1.06066 
C 0.77937 -1.341951 0.397805 -1.5 0 -1.5 
C -0.397805 -1.5 -0.77937 -1.341951 -1.06066 -1.06066 
C -1.341951 -0.77937 -1.5 -0.397805 -1.5 0 
C -1.5 0.397805 -1.341951 0.77937 -1.06066 1.06066 
C -0.77937 1.341951 -0.397805 1.5 0 1.5 
z
" id="ma126acd7c6" style="stroke:#0000ff;"/>
    </defs>
    <g>
     <use style="fill:#0000ff;stroke:#0000ff;" x="197.29028" xlink:href="#ma126acd7c6" y="230.47481"/>
     <use style="fill:#0000ff;stroke:#0000ff;" x="197.29028" xlink:href="#ma126acd7c6" y="230.47481"/>
    </g>
   </g>
   <g id="line2d_40">
    <path d="M 137.558536 298.944 
L 137.558536 298.417314 
L 137.875944 298.417314 
L 137.875944 297.890628 
L 138.256201 297.890628 
L 138.256201 297.363942 
L 139.058148 297.363942 
L 139.123342 296.31057 
L 139.188293 296.31057 
L 139.253002 295.257197 
L 139.918342 295.257197 
L 139.9494 293.677139 
L 140.042245 293.677139 
L 140.134598 292.623767 
L 140.287441 292.623767 
L 140.287441 292.097081 
L 140.469102 292.097081 
L 140.469102 291.043709 
L 140.64889 291.043709 
L 140.738093 289.463651 
L 140.944478 289.463651 
L 140.944478 288.936964 
L 141.061324 288.936964 
L 141.148448 287.356906 
L 141.521035 287.356906 
L 141.605898 286.303534 
L 141.634094 286.303534 
L 141.634094 285.776848 
L 141.968939 285.776848 
L 141.968939 285.250162 
L 142.106582 285.250162 
L 142.215919 284.19679 
L 142.378651 284.19679 
L 142.378651 283.670104 
L 142.539878 283.670104 
L 142.593291 281.036673 
L 143.298796 281.036673 
L 143.349938 279.983301 
L 143.703791 279.983301 
L 143.703791 279.456615 
L 144.001481 279.456615 
L 144.075117 278.403243 
L 144.245733 278.403243 
L 144.245733 277.876557 
L 144.486611 277.876557 
L 144.486611 277.349871 
L 145.954117 277.349871 
L 145.954117 276.823185 
L 146.302479 276.823185 
L 146.302479 276.296499 
L 146.580487 276.296499 
L 146.580487 275.769812 
L 153.017805 275.769812 
L 153.017805 275.243126 
L 154.098334 275.243126 
L 154.153391 274.189754 
L 154.507086 274.189754 
L 154.57429 273.136382 
L 154.68128 273.136382 
L 154.787617 272.08301 
L 155.128803 272.08301 
L 155.206599 271.029638 
L 155.245367 271.029638 
L 155.245367 270.502952 
L 155.425155 270.502952 
L 155.425155 269.976266 
L 155.791779 269.976266 
L 155.804285 268.922893 
L 155.904009 268.922893 
L 155.904009 268.396207 
L 156.052535 268.396207 
L 156.052535 267.869521 
L 156.199806 267.869521 
L 156.199806 267.342835 
L 156.333721 267.342835 
L 156.406335 266.289463 
L 156.859328 266.289463 
L 156.859328 265.762777 
L 157.277891 265.762777 
L 157.277891 265.236091 
L 157.494815 265.236091 
L 157.506157 264.182719 
L 157.876384 264.182719 
L 157.876384 263.656033 
L 158.238915 263.656033 
L 158.238915 263.129347 
L 158.390468 263.129347 
L 158.390468 262.60266 
L 161.725614 262.60266 
L 161.725614 262.075974 
L 161.937967 262.075974 
L 161.937967 261.549288 
L 162.121678 261.549288 
L 162.121678 261.022602 
L 162.286241 261.022602 
L 162.337888 259.96923 
L 162.559939 259.96923 
L 162.585379 258.915858 
L 163.2749 258.915858 
L 163.2749 258.389172 
L 163.412824 258.389172 
L 163.412824 257.862486 
L 163.621681 257.862486 
L 163.637643 256.809114 
L 163.867476 256.809114 
L 163.867476 256.282427 
L 164.272154 256.282427 
L 164.272154 255.755741 
L 164.980675 255.755741 
L 165.054383 254.702369 
L 165.682828 254.702369 
L 165.682828 254.175683 
L 166.110335 254.175683 
L 166.110335 253.648997 
L 167.716371 253.648997 
L 167.716371 253.122311 
L 168.500361 253.122311 
L 168.500361 252.595625 
L 168.68052 252.595625 
L 168.734207 251.542253 
L 169.250616 251.542253 
L 169.302579 249.435508 
L 169.847424 249.435508 
L 169.858596 248.382136 
L 170.201421 248.382136 
L 170.201421 247.85545 
L 171.74118 247.85545 
L 171.74118 247.328764 
L 172.171924 247.328764 
L 172.171924 246.802078 
L 173.275715 246.802078 
L 173.275715 246.275392 
L 173.818053 246.275392 
L 173.82695 245.22202 
L 174.139909 245.22202 
L 174.139909 244.695334 
L 174.261802 244.695334 
L 174.261802 244.168648 
L 175.833 244.168648 
L 175.833 243.641962 
L 176.740595 243.641962 
L 176.826938 242.588589 
L 178.055819 242.588589 
L 178.055819 242.061903 
L 178.339672 242.061903 
L 178.339672 241.535217 
L 178.787119 241.535217 
L 178.787119 241.008531 
L 180.083094 241.008531 
L 180.083094 240.481845 
L 181.47683 240.481845 
L 181.47683 239.955159 
L 182.444765 239.955159 
L 182.444765 239.428473 
L 182.59606 239.428473 
L 182.59606 238.901787 
L 182.971284 238.901787 
L 182.971284 238.375101 
L 183.395226 238.375101 
L 183.395226 237.848415 
L 183.604663 237.848415 
L 183.604663 237.321729 
L 183.801577 237.321729 
L 183.801577 236.795043 
L 184.230545 236.795043 
L 184.230545 236.268356 
L 184.374461 236.268356 
L 184.374461 235.74167 
L 185.074411 235.74167 
L 185.074411 235.214984 
L 185.593996 235.214984 
L 185.593996 234.688298 
L 185.985956 234.688298 
L 185.985956 234.161612 
L 188.841751 234.161612 
L 188.841751 233.634926 
L 189.536576 233.634926 
L 189.536576 233.10824 
L 190.866738 233.10824 
L 190.866738 232.581554 
L 191.273784 232.581554 
L 191.273784 232.054868 
L 192.18661 232.054868 
L 192.18661 231.528182 
L 192.31496 231.528182 
L 192.31496 231.001496 
L 197.29028 231.001496 
L 197.29028 230.47481 
L 338.688 230.47481 
L 338.688 230.47481 
" style="fill:none;stroke:#0000ff;stroke-linecap:square;stroke-width:1.5;"/>
   </g>
   <g id="line2d_41">
    <defs>
     <path d="M 0 -6 
L -1.347084 -1.854102 
L -5.706339 -1.854102 
L -2.179628 0.708204 
L -3.526712 4.854102 
L -0 2.291796 
L 3.526712 4.854102 
L 2.179628 0.708204 
L 5.706339 -1.854102 
L 1.347084 -1.854102 
z
" id="m6a32b8660c" style="stroke:#0000ff;stroke-linejoin:bevel;stroke-width:1.5;"/>
    </defs>
    <g>
     <use style="fill-opacity:0;stroke:#0000ff;stroke-linejoin:bevel;stroke-width:1.5;" x="197.29028" xlink:href="#m6a32b8660c" y="231.001496"/>
     <use style="fill-opacity:0;stroke:#0000ff;stroke-linejoin:bevel;stroke-width:1.5;" x="197.29028" xlink:href="#m6a32b8660c" y="230.47481"/>
     <use style="fill-opacity:0;stroke:#0000ff;stroke-linejoin:bevel;stroke-width:1.5;" x="197.29028" xlink:href="#m6a32b8660c" y="230.47481"/>
     <use style="fill-opacity:0;stroke:#0000ff;stroke-linejoin:bevel;stroke-width:1.5;" x="197.29028" xlink:href="#m6a32b8660c" y="230.47481"/>
     <use style="fill-opacity:0;stroke:#0000ff;stroke-linejoin:bevel;stroke-width:1.5;" x="338.688" xlink:href="#m6a32b8660c" y="230.47481"/>
    </g>
   </g>
   <g id="line2d_42">
    <path style="fill:none;stroke:#0000ff;stroke-linecap:square;stroke-width:1.5;"/>
    <g/>
   </g>
   <g id="line2d_43">
    <path clip-path="url(#peceba42299)" d="M 145.097753 277.349871 
" style="fill:none;stroke:#0000ff;stroke-linecap:square;stroke-width:1.5;"/>
    <defs>
     <path d="M -12 12 
L 12 -12 
M -12 -12 
L 12 12 
" id="m327017f9a4" style="stroke:#0000ff;"/>
    </defs>
    <g clip-path="url(#peceba42299)">
     <use style="fill:#0000ff;stroke:#0000ff;" x="145.097753" xlink:href="#m327017f9a4" y="277.349871"/>
    </g>
   </g>
   <g id="line2d_44">
    <path clip-path="url(#peceba42299)" d="M 57.6 298.944 
L 57.6 298.944 
L 57.6 298.944 
L 57.6 298.944 
L 338.688 298.944 
" style="fill:none;stroke:#000000;stroke-linecap:square;stroke-width:1.5;"/>
   </g>
   <g id="line2d_45">
    <defs>
     <path d="M 0 6 
C 1.591219 6 3.117479 5.367802 4.242641 4.242641 
C 5.367802 3.117479 6 1.591219 6 0 
C 6 -1.591219 5.367802 -3.117479 4.242641 -4.242641 
C 3.117479 -5.367802 1.591219 -6 0 -6 
C -1.591219 -6 -3.117479 -5.367802 -4.242641 -4.242641 
C -5.367802 -3.117479 -6 -1.591219 -6 0 
C -6 1.591219 -5.367802 3.117479 -4.242641 4.242641 
C -3.117479 5.367802 -1.591219 6 0 6 
z
" id="m02228eeedc" style="stroke:#000000;stroke-width:1.5;"/>
    </defs>
    <g clip-path="url(#peceba42299)">
     <use style="fill-opacity:0;stroke:#000000;stroke-width:1.5;" x="57.6" xlink:href="#m02228eeedc" y="298.944"/>
    </g>
   </g>
   <g id="line2d_46">
    <path clip-path="url(#peceba42299)" style="fill:none;stroke:#000000;stroke-linecap:square;stroke-width:1.5;"/>
    <g clip-path="url(#peceba42299)">
     <use style="fill-opacity:0;stroke:#000000;stroke-width:1.5;" x="-1" xlink:href="#m02228eeedc" y="567.553901"/>
     <use style="fill-opacity:0;stroke:#000000;stroke-width:1.5;" x="338.688" xlink:href="#m02228eeedc" y="567.553901"/>
    </g>
   </g>
   <g id="line2d_47">
    <path clip-path="url(#peceba42299)" d="M 57.6 298.944 
L 57.6 298.944 
L 57.6 298.944 
L 57.6 298.944 
L 338.688 298.944 
" style="fill:none;stroke:#ff0000;stroke-linecap:square;stroke-width:1.5;"/>
   </g>
   <g id="line2d_48">
    <defs>
     <path d="M -6 6 
L 6 6 
L 6 -6 
L -6 -6 
z
" id="mf5c6b90f3d" style="stroke:#ff0000;stroke-linejoin:miter;stroke-width:1.5;"/>
    </defs>
    <g clip-path="url(#peceba42299)">
     <use style="fill-opacity:0;stroke:#ff0000;stroke-linejoin:miter;stroke-width:1.5;" x="57.6" xlink:href="#mf5c6b90f3d" y="298.944"/>
    </g>
   </g>
   <g id="line2d_49">
    <path clip-path="url(#peceba42299)" style="fill:none;stroke:#ff0000;stroke-linecap:square;stroke-width:1.5;"/>
    <g clip-path="url(#peceba42299)">
     <use style="fill-opacity:0;stroke:#ff0000;stroke-linejoin:miter;stroke-width:1.5;" x="-1" xlink:href="#mf5c6b90f3d" y="567.553901"/>
     <use style="fill-opacity:0;stroke:#ff0000;stroke-linejoin:miter;stroke-width:1.5;" x="338.688" xlink:href="#mf5c6b90f3d" y="567.553901"/>
    </g>
   </g>
   <g id="line2d_50">
    <path clip-path="url(#peceba42299)" d="M 57.6 298.944 
L 57.6 298.944 
L 57.6 298.944 
L 57.6 298.944 
L 338.688 298.944 
" style="fill:none;stroke:#bf00bf;stroke-linecap:square;stroke-width:1.5;"/>
   </g>
   <g id="line2d_51">
    <defs>
     <path d="M -0 8.485281 
L 8.485281 0 
L 0 -8.485281 
L -8.485281 -0 
z
" id="m2c7c7d21b3" style="stroke:#bf00bf;stroke-linejoin:miter;stroke-width:1.5;"/>
    </defs>
    <g clip-path="url(#peceba42299)">
     <use style="fill-opacity:0;stroke:#bf00bf;stroke-linejoin:miter;stroke-width:1.5;" x="57.6" xlink:href="#m2c7c7d21b3" y="298.944"/>
    </g>
   </g>
   <g id="line2d_52">
    <path clip-path="url(#peceba42299)" style="fill:none;stroke:#bf00bf;stroke-linecap:square;stroke-width:1.5;"/>
    <g clip-path="url(#peceba42299)">
     <use style="fill-opacity:0;stroke:#bf00bf;stroke-linejoin:miter;stroke-width:1.5;" x="-1" xlink:href="#m2c7c7d21b3" y="567.553901"/>
     <use style="fill-opacity:0;stroke:#bf00bf;stroke-linejoin:miter;stroke-width:1.5;" x="338.688" xlink:href="#m2c7c7d21b3" y="567.553901"/>
    </g>
   </g>
   <g id="line2d_53">
    <path d="M 338.688 298.944 
L 369.60768 293.571802 
" style="fill:none;stroke:#bf00bf;stroke-linecap:square;stroke-width:1.5;"/>
    <g>
     <use style="fill-opacity:0;stroke:#bf00bf;stroke-linejoin:miter;stroke-width:1.5;" x="338.688" xlink:href="#m2c7c7d21b3" y="298.944"/>
     <use style="fill-opacity:0;stroke:#bf00bf;stroke-linejoin:miter;stroke-width:1.5;" x="369.60768" xlink:href="#m2c7c7d21b3" y="293.571802"/>
    </g>
   </g>
   <g id="line2d_54">
    <path d="M 338.688 298.944 
L 369.60768 241.998701 
" style="fill:none;stroke:#ff0000;stroke-linecap:square;stroke-width:1.5;"/>
    <g>
     <use style="fill-opacity:0;stroke:#ff0000;stroke-linejoin:miter;stroke-width:1.5;" x="338.688" xlink:href="#mf5c6b90f3d" y="298.944"/>
     <use style="fill-opacity:0;stroke:#ff0000;stroke-linejoin:miter;stroke-width:1.5;" x="369.60768" xlink:href="#mf5c6b90f3d" y="241.998701"/>
    </g>
   </g>
   <g id="line2d_55">
    <path d="M 338.688 298.944 
L 369.60768 190.4256 
" style="fill:none;stroke:#000000;stroke-linecap:square;stroke-width:1.5;"/>
    <g>
     <use style="fill-opacity:0;stroke:#000000;stroke-width:1.5;" x="338.688" xlink:href="#m02228eeedc" y="298.944"/>
     <use style="fill-opacity:0;stroke:#000000;stroke-width:1.5;" x="369.60768" xlink:href="#m02228eeedc" y="190.4256"/>
    </g>
   </g>
   <g id="line2d_56">
    <path d="M 338.688 230.47481 
L 369.60768 138.852499 
" style="fill:none;stroke:#0000ff;stroke-linecap:square;stroke-width:1.5;"/>
    <g>
     <use style="fill-opacity:0;stroke:#0000ff;stroke-linejoin:bevel;stroke-width:1.5;" x="338.688" xlink:href="#m6a32b8660c" y="230.47481"/>
     <use style="fill-opacity:0;stroke:#0000ff;stroke-linejoin:bevel;stroke-width:1.5;" x="369.60768" xlink:href="#m6a32b8660c" y="138.852499"/>
    </g>
   </g>
   <g id="line2d_57">
    <path d="M 338.688 209.407366 
L 369.60768 87.279398 
" style="fill:none;stroke:#008000;stroke-linecap:square;stroke-width:1.5;"/>
    <g>
     <use style="fill-opacity:0;stroke:#008000;stroke-linejoin:miter;stroke-width:1.5;" x="338.688" xlink:href="#mba9cece312" y="209.407366"/>
     <use style="fill-opacity:0;stroke:#008000;stroke-linejoin:miter;stroke-width:1.5;" x="369.60768" xlink:href="#mba9cece312" y="87.279398"/>
    </g>
   </g>
   <g id="line2d_58">
    <path d="M 338.688 30.334099 
L 369.60768 35.706297 
" style="fill:none;stroke:#00bfbf;stroke-linecap:square;stroke-width:1.5;"/>
    <g>
     <use style="fill-opacity:0;stroke:#00bfbf;stroke-width:1.5;" x="338.688" xlink:href="#mf21a59c867" y="30.334099"/>
     <use style="fill-opacity:0;stroke:#00bfbf;stroke-width:1.5;" x="369.60768" xlink:href="#mf21a59c867" y="35.706297"/>
    </g>
   </g>
   <g id="line2d_59">
    <path d="M 338.688 298.944 
L 338.688 30.334099 
" style="fill:none;stroke:#000000;stroke-linecap:square;stroke-width:1.5;"/>
   </g>
   <g id="patch_3">
    <path d="M 57.6 298.944 
L 57.6 27.648 
" style="fill:none;stroke:#000000;stroke-linecap:square;stroke-linejoin:miter;stroke-width:0.8;"/>
   </g>
   <g id="patch_4">
    <path d="M 338.688 298.944 
L 338.688 27.648 
" style="fill:none;stroke:#000000;stroke-linecap:square;stroke-linejoin:miter;stroke-width:0.8;"/>
   </g>
   <g id="patch_5">
    <path d="M 57.6 298.944 
L 338.688 298.944 
" style="fill:none;stroke:#000000;stroke-linecap:square;stroke-linejoin:miter;stroke-width:0.8;"/>
   </g>
   <g id="patch_6">
    <path d="M 57.6 27.648 
L 338.688 27.648 
" style="fill:none;stroke:#000000;stroke-linecap:square;stroke-linejoin:miter;stroke-width:0.8;"/>
   </g>
   <g id="text_13">
    <!-- 40-D -->
    <g transform="translate(375.22944 298.262739)scale(0.17 -0.17)">
     <defs>
      <path d="M 19.671875 64.796875 
L 19.671875 8.109375 
L 31.59375 8.109375 
Q 46.6875 8.109375 53.6875 14.9375 
Q 60.6875 21.78125 60.6875 36.53125 
Q 60.6875 51.171875 53.6875 57.984375 
Q 46.6875 64.796875 31.59375 64.796875 
z
M 9.8125 72.90625 
L 30.078125 72.90625 
Q 51.265625 72.90625 61.171875 64.09375 
Q 71.09375 55.28125 71.09375 36.53125 
Q 71.09375 17.671875 61.125 8.828125 
Q 51.171875 0 30.078125 0 
L 9.8125 0 
z
" id="DejaVuSans-68"/>
     </defs>
     <use xlink:href="#DejaVuSans-52"/>
     <use x="63.623047" xlink:href="#DejaVuSans-48"/>
     <use x="127.246094" xlink:href="#DejaVuSans-45"/>
     <use x="163.330078" xlink:href="#DejaVuSans-68"/>
    </g>
   </g>
   <g id="text_14">
    <!-- 20-D -->
    <g transform="translate(375.22944 246.689638)scale(0.17 -0.17)">
     <use xlink:href="#DejaVuSans-50"/>
     <use x="63.623047" xlink:href="#DejaVuSans-48"/>
     <use x="127.246094" xlink:href="#DejaVuSans-45"/>
     <use x="163.330078" xlink:href="#DejaVuSans-68"/>
    </g>
   </g>
   <g id="text_15">
    <!-- 10-D -->
    <g transform="translate(375.22944 195.116537)scale(0.17 -0.17)">
     <use xlink:href="#DejaVuSans-49"/>
     <use x="63.623047" xlink:href="#DejaVuSans-48"/>
     <use x="127.246094" xlink:href="#DejaVuSans-45"/>
     <use x="163.330078" xlink:href="#DejaVuSans-68"/>
    </g>
   </g>
   <g id="text_16">
    <!-- 5-D -->
    <g transform="translate(375.22944 143.543437)scale(0.17 -0.17)">
     <defs>
      <path d="M 10.796875 72.90625 
L 49.515625 72.90625 
L 49.515625 64.59375 
L 19.828125 64.59375 
L 19.828125 46.734375 
Q 21.96875 47.46875 24.109375 47.828125 
Q 26.265625 48.1875 28.421875 48.1875 
Q 40.625 48.1875 47.75 41.5 
Q 54.890625 34.8125 54.890625 23.390625 
Q 54.890625 11.625 47.5625 5.09375 
Q 40.234375 -1.421875 26.90625 -1.421875 
Q 22.3125 -1.421875 17.546875 -0.640625 
Q 12.796875 0.140625 7.71875 1.703125 
L 7.71875 11.625 
Q 12.109375 9.234375 16.796875 8.0625 
Q 21.484375 6.890625 26.703125 6.890625 
Q 35.15625 6.890625 40.078125 11.328125 
Q 45.015625 15.765625 45.015625 23.390625 
Q 45.015625 31 40.078125 35.4375 
Q 35.15625 39.890625 26.703125 39.890625 
Q 22.75 39.890625 18.8125 39.015625 
Q 14.890625 38.140625 10.796875 36.28125 
z
" id="DejaVuSans-53"/>
     </defs>
     <use xlink:href="#DejaVuSans-53"/>
     <use x="63.623047" xlink:href="#DejaVuSans-45"/>
     <use x="99.707031" xlink:href="#DejaVuSans-68"/>
    </g>
   </g>
   <g id="text_17">
    <!-- 3-D -->
    <g transform="translate(375.22944 91.970336)scale(0.17 -0.17)">
     <defs>
      <path d="M 40.578125 39.3125 
Q 47.65625 37.796875 51.625 33 
Q 55.609375 28.21875 55.609375 21.1875 
Q 55.609375 10.40625 48.1875 4.484375 
Q 40.765625 -1.421875 27.09375 -1.421875 
Q 22.515625 -1.421875 17.65625 -0.515625 
Q 12.796875 0.390625 7.625 2.203125 
L 7.625 11.71875 
Q 11.71875 9.328125 16.59375 8.109375 
Q 21.484375 6.890625 26.8125 6.890625 
Q 36.078125 6.890625 40.9375 10.546875 
Q 45.796875 14.203125 45.796875 21.1875 
Q 45.796875 27.640625 41.28125 31.265625 
Q 36.765625 34.90625 28.71875 34.90625 
L 20.21875 34.90625 
L 20.21875 43.015625 
L 29.109375 43.015625 
Q 36.375 43.015625 40.234375 45.921875 
Q 44.09375 48.828125 44.09375 54.296875 
Q 44.09375 59.90625 40.109375 62.90625 
Q 36.140625 65.921875 28.71875 65.921875 
Q 24.65625 65.921875 20.015625 65.03125 
Q 15.375 64.15625 9.8125 62.3125 
L 9.8125 71.09375 
Q 15.4375 72.65625 20.34375 73.4375 
Q 25.25 74.21875 29.59375 74.21875 
Q 40.828125 74.21875 47.359375 69.109375 
Q 53.90625 64.015625 53.90625 55.328125 
Q 53.90625 49.265625 50.4375 45.09375 
Q 46.96875 40.921875 40.578125 39.3125 
z
" id="DejaVuSans-51"/>
     </defs>
     <use xlink:href="#DejaVuSans-51"/>
     <use x="63.623047" xlink:href="#DejaVuSans-45"/>
     <use x="99.707031" xlink:href="#DejaVuSans-68"/>
    </g>
   </g>
   <g id="text_18">
    <!-- 2-D -->
    <g transform="translate(375.22944 40.397235)scale(0.17 -0.17)">
     <use xlink:href="#DejaVuSans-50"/>
     <use x="63.623047" xlink:href="#DejaVuSans-45"/>
     <use x="99.707031" xlink:href="#DejaVuSans-68"/>
    </g>
   </g>
   <g id="text_19">
    <!-- bbob f12 -->
    <g transform="translate(60.41088 38.111366)scale(0.102 -0.102)">
     <defs>
      <path d="M 48.6875 27.296875 
Q 48.6875 37.203125 44.609375 42.84375 
Q 40.53125 48.484375 33.40625 48.484375 
Q 26.265625 48.484375 22.1875 42.84375 
Q 18.109375 37.203125 18.109375 27.296875 
Q 18.109375 17.390625 22.1875 11.75 
Q 26.265625 6.109375 33.40625 6.109375 
Q 40.53125 6.109375 44.609375 11.75 
Q 48.6875 17.390625 48.6875 27.296875 
z
M 18.109375 46.390625 
Q 20.953125 51.265625 25.265625 53.625 
Q 29.59375 56 35.59375 56 
Q 45.5625 56 51.78125 48.09375 
Q 58.015625 40.1875 58.015625 27.296875 
Q 58.015625 14.40625 51.78125 6.484375 
Q 45.5625 -1.421875 35.59375 -1.421875 
Q 29.59375 -1.421875 25.265625 0.953125 
Q 20.953125 3.328125 18.109375 8.203125 
L 18.109375 0 
L 9.078125 0 
L 9.078125 75.984375 
L 18.109375 75.984375 
z
" id="DejaVuSans-98"/>
     </defs>
     <use xlink:href="#DejaVuSans-98"/>
     <use x="63.476562" xlink:href="#DejaVuSans-98"/>
     <use x="126.953125" xlink:href="#DejaVuSans-111"/>
     <use x="188.134766" xlink:href="#DejaVuSans-98"/>
     <use x="251.611328" xlink:href="#DejaVuSans-32"/>
     <use x="283.398438" xlink:href="#DejaVuSans-102"/>
     <use x="318.603516" xlink:href="#DejaVuSans-49"/>
     <use x="382.226562" xlink:href="#DejaVuSans-50"/>
    </g>
    <!-- 51 targets: 100..1e-08 -->
    <g transform="translate(60.41088 49.533135)scale(0.102 -0.102)">
     <defs>
      <path d="M 11.71875 12.40625 
L 22.015625 12.40625 
L 22.015625 0 
L 11.71875 0 
z
M 11.71875 51.703125 
L 22.015625 51.703125 
L 22.015625 39.3125 
L 11.71875 39.3125 
z
" id="DejaVuSans-58"/>
     </defs>
     <use xlink:href="#DejaVuSans-53"/>
     <use x="63.623047" xlink:href="#DejaVuSans-49"/>
     <use x="127.246094" xlink:href="#DejaVuSans-32"/>
     <use x="159.033203" xlink:href="#DejaVuSans-116"/>
     <use x="198.242188" xlink:href="#DejaVuSans-97"/>
     <use x="259.521484" xlink:href="#DejaVuSans-114"/>
     <use x="298.884766" xlink:href="#DejaVuSans-103"/>
     <use x="362.361328" xlink:href="#DejaVuSans-101"/>
     <use x="423.884766" xlink:href="#DejaVuSans-116"/>
     <use x="463.09375" xlink:href="#DejaVuSans-115"/>
     <use x="515.193359" xlink:href="#DejaVuSans-58"/>
     <use x="548.884766" xlink:href="#DejaVuSans-32"/>
     <use x="580.671875" xlink:href="#DejaVuSans-49"/>
     <use x="644.294922" xlink:href="#DejaVuSans-48"/>
     <use x="707.917969" xlink:href="#DejaVuSans-48"/>
     <use x="771.541016" xlink:href="#DejaVuSans-46"/>
     <use x="803.328125" xlink:href="#DejaVuSans-46"/>
     <use x="835.115234" xlink:href="#DejaVuSans-49"/>
     <use x="898.738281" xlink:href="#DejaVuSans-101"/>
     <use x="960.261719" xlink:href="#DejaVuSans-45"/>
     <use x="996.345703" xlink:href="#DejaVuSans-48"/>
     <use x="1059.96875" xlink:href="#DejaVuSans-56"/>
    </g>
    <!-- 15 instances -->
    <g transform="translate(60.41088 60.954904)scale(0.102 -0.102)">
     <use xlink:href="#DejaVuSans-49"/>
     <use x="63.623047" xlink:href="#DejaVuSans-53"/>
     <use x="127.246094" xlink:href="#DejaVuSans-32"/>
     <use x="159.033203" xlink:href="#DejaVuSans-105"/>
     <use x="186.816406" xlink:href="#DejaVuSans-110"/>
     <use x="250.195312" xlink:href="#DejaVuSans-115"/>
     <use x="302.294922" xlink:href="#DejaVuSans-116"/>
     <use x="341.503906" xlink:href="#DejaVuSans-97"/>
     <use x="402.783203" xlink:href="#DejaVuSans-110"/>
     <use x="466.162109" xlink:href="#DejaVuSans-99"/>
     <use x="521.142578" xlink:href="#DejaVuSans-101"/>
     <use x="582.666016" xlink:href="#DejaVuSans-115"/>
    </g>
   </g>
   <g id="text_20">
    <!-- v2.4 -->
    <g style="fill:#808080;" transform="translate(187.233062 294.151352)scale(0.1 -0.1)">
     <use xlink:href="#DejaVuSans-118"/>
     <use x="59.179688" xlink:href="#DejaVuSans-50"/>
     <use x="122.802734" xlink:href="#DejaVuSans-46"/>
     <use x="154.589844" xlink:href="#DejaVuSans-52"/>
    </g>
   </g>
   <g id="text_21">
    <!-- 12 Bent cigar -->
    <g transform="translate(130.926812 21.648)scale(0.2 -0.2)">
     <defs>
      <path d="M 19.671875 34.8125 
L 19.671875 8.109375 
L 35.5 8.109375 
Q 43.453125 8.109375 47.28125 11.40625 
Q 51.125 14.703125 51.125 21.484375 
Q 51.125 28.328125 47.28125 31.5625 
Q 43.453125 34.8125 35.5 34.8125 
z
M 19.671875 64.796875 
L 19.671875 42.828125 
L 34.28125 42.828125 
Q 41.5 42.828125 45.03125 45.53125 
Q 48.578125 48.25 48.578125 53.8125 
Q 48.578125 59.328125 45.03125 62.0625 
Q 41.5 64.796875 34.28125 64.796875 
z
M 9.8125 72.90625 
L 35.015625 72.90625 
Q 46.296875 72.90625 52.390625 68.21875 
Q 58.5 63.53125 58.5 54.890625 
Q 58.5 48.1875 55.375 44.234375 
Q 52.25 40.28125 46.1875 39.3125 
Q 53.46875 37.75 57.5 32.78125 
Q 61.53125 27.828125 61.53125 20.40625 
Q 61.53125 10.640625 54.890625 5.3125 
Q 48.25 0 35.984375 0 
L 9.8125 0 
z
" id="DejaVuSans-66"/>
     </defs>
     <use xlink:href="#DejaVuSans-49"/>
     <use x="63.623047" xlink:href="#DejaVuSans-50"/>
     <use x="127.246094" xlink:href="#DejaVuSans-32"/>
     <use x="159.033203" xlink:href="#DejaVuSans-66"/>
     <use x="227.636719" xlink:href="#DejaVuSans-101"/>
     <use x="289.160156" xlink:href="#DejaVuSans-110"/>
     <use x="352.539062" xlink:href="#DejaVuSans-116"/>
     <use x="391.748047" xlink:href="#DejaVuSans-32"/>
     <use x="423.535156" xlink:href="#DejaVuSans-99"/>
     <use x="478.515625" xlink:href="#DejaVuSans-105"/>
     <use x="506.298828" xlink:href="#DejaVuSans-103"/>
     <use x="569.775391" xlink:href="#DejaVuSans-97"/>
     <use x="631.054688" xlink:href="#DejaVuSans-114"/>
    </g>
   </g>
  </g>
 </g>
 <defs>
  <clipPath id="peceba42299">
   <rect height="271.296" width="281.088" x="57.6" y="27.648"/>
  </clipPath>
 </defs>
</svg>
