<?xml version="1.0" encoding="utf-8" standalone="no"?>
<!DOCTYPE svg PUBLIC "-//W3C//DTD SVG 1.1//EN"
  "http://www.w3.org/Graphics/SVG/1.1/DTD/svg11.dtd">
<!-- Created with matplotlib (https://matplotlib.org/) -->
<svg height="345.6pt" version="1.1" viewBox="0 0 460.8 345.6" width="460.8pt" xmlns="http://www.w3.org/2000/svg" xmlns:xlink="http://www.w3.org/1999/xlink">
 <metadata>
  <rdf:RDF xmlns:cc="http://creativecommons.org/ns#" xmlns:dc="http://purl.org/dc/elements/1.1/" xmlns:rdf="http://www.w3.org/1999/02/22-rdf-syntax-ns#">
   <cc:Work>
    <dc:type rdf:resource="http://purl.org/dc/dcmitype/StillImage"/>
    <dc:date>2021-08-04T10:26:28.034191</dc:date>
    <dc:format>image/svg+xml</dc:format>
    <dc:creator>
     <cc:Agent>
      <dc:title>Matplotlib v3.3.1, https://matplotlib.org/</dc:title>
     </cc:Agent>
    </dc:creator>
   </cc:Work>
  </rdf:RDF>
 </metadata>
 <defs>
  <style type="text/css">*{stroke-linecap:butt;stroke-linejoin:round;}</style>
 </defs>
 <g id="figure_1">
  <g id="patch_1">
   <path d="M 0 345.6 
L 460.8 345.6 
L 460.8 0 
L 0 0 
z
" style="fill:#ffffff;"/>
  </g>
  <g id="axes_1">
   <g id="patch_2">
    <path d="M 57.6 298.944 
L 338.688 298.944 
L 338.688 27.648 
L 57.6 27.648 
z
" style="fill:#ffffff;"/>
   </g>
   <g id="matplotlib.axis_1">
    <g id="xtick_1">
     <g id="line2d_1">
      <path clip-path="url(#p8bd4908dea)" d="M 57.6 298.944 
L 57.6 27.648 
" style="fill:none;stroke:#b0b0b0;stroke-linecap:square;stroke-width:0.8;"/>
     </g>
     <g id="line2d_2">
      <defs>
       <path d="M 0 0 
L 0 3.5 
" id="md24ebcdf0c" style="stroke:#000000;stroke-width:0.8;"/>
      </defs>
      <g>
       <use style="stroke:#000000;stroke-width:0.8;" x="57.6" xlink:href="#md24ebcdf0c" y="298.944"/>
      </g>
     </g>
     <g id="text_1">
      <!-- 0 -->
      <g transform="translate(51.2375 321.140875)scale(0.2 -0.2)">
       <defs>
        <path d="M 31.78125 66.40625 
Q 24.171875 66.40625 20.328125 58.90625 
Q 16.5 51.421875 16.5 36.375 
Q 16.5 21.390625 20.328125 13.890625 
Q 24.171875 6.390625 31.78125 6.390625 
Q 39.453125 6.390625 43.28125 13.890625 
Q 47.125 21.390625 47.125 36.375 
Q 47.125 51.421875 43.28125 58.90625 
Q 39.453125 66.40625 31.78125 66.40625 
z
M 31.78125 74.21875 
Q 44.046875 74.21875 50.515625 64.515625 
Q 56.984375 54.828125 56.984375 36.375 
Q 56.984375 17.96875 50.515625 8.265625 
Q 44.046875 -1.421875 31.78125 -1.421875 
Q 19.53125 -1.421875 13.0625 8.265625 
Q 6.59375 17.96875 6.59375 36.375 
Q 6.59375 54.828125 13.0625 64.515625 
Q 19.53125 74.21875 31.78125 74.21875 
z
" id="DejaVuSans-48"/>
       </defs>
       <use xlink:href="#DejaVuSans-48"/>
      </g>
     </g>
    </g>
    <g id="xtick_2">
     <g id="line2d_3">
      <path clip-path="url(#p8bd4908dea)" d="M 137.910857 298.944 
L 137.910857 27.648 
" style="fill:none;stroke:#b0b0b0;stroke-linecap:square;stroke-width:0.8;"/>
     </g>
     <g id="line2d_4">
      <g>
       <use style="stroke:#000000;stroke-width:0.8;" x="137.910857" xlink:href="#md24ebcdf0c" y="298.944"/>
      </g>
     </g>
     <g id="text_2">
      <!-- 2 -->
      <g transform="translate(131.548357 321.140875)scale(0.2 -0.2)">
       <defs>
        <path d="M 19.1875 8.296875 
L 53.609375 8.296875 
L 53.609375 0 
L 7.328125 0 
L 7.328125 8.296875 
Q 12.9375 14.109375 22.625 23.890625 
Q 32.328125 33.6875 34.8125 36.53125 
Q 39.546875 41.84375 41.421875 45.53125 
Q 43.3125 49.21875 43.3125 52.78125 
Q 43.3125 58.59375 39.234375 62.25 
Q 35.15625 65.921875 28.609375 65.921875 
Q 23.96875 65.921875 18.8125 64.3125 
Q 13.671875 62.703125 7.8125 59.421875 
L 7.8125 69.390625 
Q 13.765625 71.78125 18.9375 73 
Q 24.125 74.21875 28.421875 74.21875 
Q 39.75 74.21875 46.484375 68.546875 
Q 53.21875 62.890625 53.21875 53.421875 
Q 53.21875 48.921875 51.53125 44.890625 
Q 49.859375 40.875 45.40625 35.40625 
Q 44.1875 33.984375 37.640625 27.21875 
Q 31.109375 20.453125 19.1875 8.296875 
z
" id="DejaVuSans-50"/>
       </defs>
       <use xlink:href="#DejaVuSans-50"/>
      </g>
     </g>
    </g>
    <g id="xtick_3">
     <g id="line2d_5">
      <path clip-path="url(#p8bd4908dea)" d="M 218.221714 298.944 
L 218.221714 27.648 
" style="fill:none;stroke:#b0b0b0;stroke-linecap:square;stroke-width:0.8;"/>
     </g>
     <g id="line2d_6">
      <g>
       <use style="stroke:#000000;stroke-width:0.8;" x="218.221714" xlink:href="#md24ebcdf0c" y="298.944"/>
      </g>
     </g>
     <g id="text_3">
      <!-- 4 -->
      <g transform="translate(211.859214 321.140875)scale(0.2 -0.2)">
       <defs>
        <path d="M 37.796875 64.3125 
L 12.890625 25.390625 
L 37.796875 25.390625 
z
M 35.203125 72.90625 
L 47.609375 72.90625 
L 47.609375 25.390625 
L 58.015625 25.390625 
L 58.015625 17.1875 
L 47.609375 17.1875 
L 47.609375 0 
L 37.796875 0 
L 37.796875 17.1875 
L 4.890625 17.1875 
L 4.890625 26.703125 
z
" id="DejaVuSans-52"/>
       </defs>
       <use xlink:href="#DejaVuSans-52"/>
      </g>
     </g>
    </g>
    <g id="xtick_4">
     <g id="line2d_7">
      <path clip-path="url(#p8bd4908dea)" d="M 298.532571 298.944 
L 298.532571 27.648 
" style="fill:none;stroke:#b0b0b0;stroke-linecap:square;stroke-width:0.8;"/>
     </g>
     <g id="line2d_8">
      <g>
       <use style="stroke:#000000;stroke-width:0.8;" x="298.532571" xlink:href="#md24ebcdf0c" y="298.944"/>
      </g>
     </g>
     <g id="text_4">
      <!-- 6 -->
      <g transform="translate(292.170071 321.140875)scale(0.2 -0.2)">
       <defs>
        <path d="M 33.015625 40.375 
Q 26.375 40.375 22.484375 35.828125 
Q 18.609375 31.296875 18.609375 23.390625 
Q 18.609375 15.53125 22.484375 10.953125 
Q 26.375 6.390625 33.015625 6.390625 
Q 39.65625 6.390625 43.53125 10.953125 
Q 47.40625 15.53125 47.40625 23.390625 
Q 47.40625 31.296875 43.53125 35.828125 
Q 39.65625 40.375 33.015625 40.375 
z
M 52.59375 71.296875 
L 52.59375 62.3125 
Q 48.875 64.0625 45.09375 64.984375 
Q 41.3125 65.921875 37.59375 65.921875 
Q 27.828125 65.921875 22.671875 59.328125 
Q 17.53125 52.734375 16.796875 39.40625 
Q 19.671875 43.65625 24.015625 45.921875 
Q 28.375 48.1875 33.59375 48.1875 
Q 44.578125 48.1875 50.953125 41.515625 
Q 57.328125 34.859375 57.328125 23.390625 
Q 57.328125 12.15625 50.6875 5.359375 
Q 44.046875 -1.421875 33.015625 -1.421875 
Q 20.359375 -1.421875 13.671875 8.265625 
Q 6.984375 17.96875 6.984375 36.375 
Q 6.984375 53.65625 15.1875 63.9375 
Q 23.390625 74.21875 37.203125 74.21875 
Q 40.921875 74.21875 44.703125 73.484375 
Q 48.484375 72.75 52.59375 71.296875 
z
" id="DejaVuSans-54"/>
       </defs>
       <use xlink:href="#DejaVuSans-54"/>
      </g>
     </g>
    </g>
    <g id="xtick_5">
     <g id="line2d_9">
      <path clip-path="url(#p8bd4908dea)" d="M 97.755429 298.944 
L 97.755429 27.648 
" style="fill:none;stroke:#b0b0b0;stroke-linecap:square;stroke-width:0.8;"/>
     </g>
     <g id="line2d_10">
      <defs>
       <path d="M 0 0 
L 0 2 
" id="m6c36fff64d" style="stroke:#000000;stroke-width:0.6;"/>
      </defs>
      <g>
       <use style="stroke:#000000;stroke-width:0.6;" x="97.755429" xlink:href="#m6c36fff64d" y="298.944"/>
      </g>
     </g>
    </g>
    <g id="xtick_6">
     <g id="line2d_11">
      <path clip-path="url(#p8bd4908dea)" d="M 178.066286 298.944 
L 178.066286 27.648 
" style="fill:none;stroke:#b0b0b0;stroke-linecap:square;stroke-width:0.8;"/>
     </g>
     <g id="line2d_12">
      <g>
       <use style="stroke:#000000;stroke-width:0.6;" x="178.066286" xlink:href="#m6c36fff64d" y="298.944"/>
      </g>
     </g>
    </g>
    <g id="xtick_7">
     <g id="line2d_13">
      <path clip-path="url(#p8bd4908dea)" d="M 258.377143 298.944 
L 258.377143 27.648 
" style="fill:none;stroke:#b0b0b0;stroke-linecap:square;stroke-width:0.8;"/>
     </g>
     <g id="line2d_14">
      <g>
       <use style="stroke:#000000;stroke-width:0.6;" x="258.377143" xlink:href="#m6c36fff64d" y="298.944"/>
      </g>
     </g>
    </g>
    <g id="xtick_8">
     <g id="line2d_15">
      <path clip-path="url(#p8bd4908dea)" d="M 338.688 298.944 
L 338.688 27.648 
" style="fill:none;stroke:#b0b0b0;stroke-linecap:square;stroke-width:0.8;"/>
     </g>
     <g id="line2d_16">
      <g>
       <use style="stroke:#000000;stroke-width:0.6;" x="338.688" xlink:href="#m6c36fff64d" y="298.944"/>
      </g>
     </g>
    </g>
    <g id="text_5">
     <!-- log10(# f-evals / dimension) -->
     <g transform="translate(77.764078 342.217594)scale(0.17 -0.17)">
      <defs>
       <path d="M 9.421875 75.984375 
L 18.40625 75.984375 
L 18.40625 0 
L 9.421875 0 
z
" id="DejaVuSans-108"/>
       <path d="M 30.609375 48.390625 
Q 23.390625 48.390625 19.1875 42.75 
Q 14.984375 37.109375 14.984375 27.296875 
Q 14.984375 17.484375 19.15625 11.84375 
Q 23.34375 6.203125 30.609375 6.203125 
Q 37.796875 6.203125 41.984375 11.859375 
Q 46.1875 17.53125 46.1875 27.296875 
Q 46.1875 37.015625 41.984375 42.703125 
Q 37.796875 48.390625 30.609375 48.390625 
z
M 30.609375 56 
Q 42.328125 56 49.015625 48.375 
Q 55.71875 40.765625 55.71875 27.296875 
Q 55.71875 13.875 49.015625 6.21875 
Q 42.328125 -1.421875 30.609375 -1.421875 
Q 18.84375 -1.421875 12.171875 6.21875 
Q 5.515625 13.875 5.515625 27.296875 
Q 5.515625 40.765625 12.171875 48.375 
Q 18.84375 56 30.609375 56 
z
" id="DejaVuSans-111"/>
       <path d="M 45.40625 27.984375 
Q 45.40625 37.75 41.375 43.109375 
Q 37.359375 48.484375 30.078125 48.484375 
Q 22.859375 48.484375 18.828125 43.109375 
Q 14.796875 37.75 14.796875 27.984375 
Q 14.796875 18.265625 18.828125 12.890625 
Q 22.859375 7.515625 30.078125 7.515625 
Q 37.359375 7.515625 41.375 12.890625 
Q 45.40625 18.265625 45.40625 27.984375 
z
M 54.390625 6.78125 
Q 54.390625 -7.171875 48.1875 -13.984375 
Q 42 -20.796875 29.203125 -20.796875 
Q 24.46875 -20.796875 20.265625 -20.09375 
Q 16.0625 -19.390625 12.109375 -17.921875 
L 12.109375 -9.1875 
Q 16.0625 -11.328125 19.921875 -12.34375 
Q 23.78125 -13.375 27.78125 -13.375 
Q 36.625 -13.375 41.015625 -8.765625 
Q 45.40625 -4.15625 45.40625 5.171875 
L 45.40625 9.625 
Q 42.625 4.78125 38.28125 2.390625 
Q 33.9375 0 27.875 0 
Q 17.828125 0 11.671875 7.65625 
Q 5.515625 15.328125 5.515625 27.984375 
Q 5.515625 40.671875 11.671875 48.328125 
Q 17.828125 56 27.875 56 
Q 33.9375 56 38.28125 53.609375 
Q 42.625 51.21875 45.40625 46.390625 
L 45.40625 54.6875 
L 54.390625 54.6875 
z
" id="DejaVuSans-103"/>
       <path d="M 12.40625 8.296875 
L 28.515625 8.296875 
L 28.515625 63.921875 
L 10.984375 60.40625 
L 10.984375 69.390625 
L 28.421875 72.90625 
L 38.28125 72.90625 
L 38.28125 8.296875 
L 54.390625 8.296875 
L 54.390625 0 
L 12.40625 0 
z
" id="DejaVuSans-49"/>
       <path d="M 31 75.875 
Q 24.46875 64.65625 21.28125 53.65625 
Q 18.109375 42.671875 18.109375 31.390625 
Q 18.109375 20.125 21.3125 9.0625 
Q 24.515625 -2 31 -13.1875 
L 23.1875 -13.1875 
Q 15.875 -1.703125 12.234375 9.375 
Q 8.59375 20.453125 8.59375 31.390625 
Q 8.59375 42.28125 12.203125 53.3125 
Q 15.828125 64.359375 23.1875 75.875 
z
" id="DejaVuSans-40"/>
       <path d="M 51.125 44 
L 36.921875 44 
L 32.8125 27.6875 
L 47.125 27.6875 
z
M 43.796875 71.78125 
L 38.71875 51.515625 
L 52.984375 51.515625 
L 58.109375 71.78125 
L 65.921875 71.78125 
L 60.890625 51.515625 
L 76.125 51.515625 
L 76.125 44 
L 58.984375 44 
L 54.984375 27.6875 
L 70.515625 27.6875 
L 70.515625 20.21875 
L 53.078125 20.21875 
L 48 0 
L 40.1875 0 
L 45.21875 20.21875 
L 30.90625 20.21875 
L 25.875 0 
L 18.015625 0 
L 23.09375 20.21875 
L 7.71875 20.21875 
L 7.71875 27.6875 
L 24.90625 27.6875 
L 29 44 
L 13.28125 44 
L 13.28125 51.515625 
L 30.90625 51.515625 
L 35.890625 71.78125 
z
" id="DejaVuSans-35"/>
       <path id="DejaVuSans-32"/>
       <path d="M 37.109375 75.984375 
L 37.109375 68.5 
L 28.515625 68.5 
Q 23.6875 68.5 21.796875 66.546875 
Q 19.921875 64.59375 19.921875 59.515625 
L 19.921875 54.6875 
L 34.71875 54.6875 
L 34.71875 47.703125 
L 19.921875 47.703125 
L 19.921875 0 
L 10.890625 0 
L 10.890625 47.703125 
L 2.296875 47.703125 
L 2.296875 54.6875 
L 10.890625 54.6875 
L 10.890625 58.5 
Q 10.890625 67.625 15.140625 71.796875 
Q 19.390625 75.984375 28.609375 75.984375 
z
" id="DejaVuSans-102"/>
       <path d="M 4.890625 31.390625 
L 31.203125 31.390625 
L 31.203125 23.390625 
L 4.890625 23.390625 
z
" id="DejaVuSans-45"/>
       <path d="M 56.203125 29.59375 
L 56.203125 25.203125 
L 14.890625 25.203125 
Q 15.484375 15.921875 20.484375 11.0625 
Q 25.484375 6.203125 34.421875 6.203125 
Q 39.59375 6.203125 44.453125 7.46875 
Q 49.3125 8.734375 54.109375 11.28125 
L 54.109375 2.78125 
Q 49.265625 0.734375 44.1875 -0.34375 
Q 39.109375 -1.421875 33.890625 -1.421875 
Q 20.796875 -1.421875 13.15625 6.1875 
Q 5.515625 13.8125 5.515625 26.8125 
Q 5.515625 40.234375 12.765625 48.109375 
Q 20.015625 56 32.328125 56 
Q 43.359375 56 49.78125 48.890625 
Q 56.203125 41.796875 56.203125 29.59375 
z
M 47.21875 32.234375 
Q 47.125 39.59375 43.09375 43.984375 
Q 39.0625 48.390625 32.421875 48.390625 
Q 24.90625 48.390625 20.390625 44.140625 
Q 15.875 39.890625 15.1875 32.171875 
z
" id="DejaVuSans-101"/>
       <path d="M 2.984375 54.6875 
L 12.5 54.6875 
L 29.59375 8.796875 
L 46.6875 54.6875 
L 56.203125 54.6875 
L 35.6875 0 
L 23.484375 0 
z
" id="DejaVuSans-118"/>
       <path d="M 34.28125 27.484375 
Q 23.390625 27.484375 19.1875 25 
Q 14.984375 22.515625 14.984375 16.5 
Q 14.984375 11.71875 18.140625 8.90625 
Q 21.296875 6.109375 26.703125 6.109375 
Q 34.1875 6.109375 38.703125 11.40625 
Q 43.21875 16.703125 43.21875 25.484375 
L 43.21875 27.484375 
z
M 52.203125 31.203125 
L 52.203125 0 
L 43.21875 0 
L 43.21875 8.296875 
Q 40.140625 3.328125 35.546875 0.953125 
Q 30.953125 -1.421875 24.3125 -1.421875 
Q 15.921875 -1.421875 10.953125 3.296875 
Q 6 8.015625 6 15.921875 
Q 6 25.140625 12.171875 29.828125 
Q 18.359375 34.515625 30.609375 34.515625 
L 43.21875 34.515625 
L 43.21875 35.40625 
Q 43.21875 41.609375 39.140625 45 
Q 35.0625 48.390625 27.6875 48.390625 
Q 23 48.390625 18.546875 47.265625 
Q 14.109375 46.140625 10.015625 43.890625 
L 10.015625 52.203125 
Q 14.9375 54.109375 19.578125 55.046875 
Q 24.21875 56 28.609375 56 
Q 40.484375 56 46.34375 49.84375 
Q 52.203125 43.703125 52.203125 31.203125 
z
" id="DejaVuSans-97"/>
       <path d="M 44.28125 53.078125 
L 44.28125 44.578125 
Q 40.484375 46.53125 36.375 47.5 
Q 32.28125 48.484375 27.875 48.484375 
Q 21.1875 48.484375 17.84375 46.4375 
Q 14.5 44.390625 14.5 40.28125 
Q 14.5 37.15625 16.890625 35.375 
Q 19.28125 33.59375 26.515625 31.984375 
L 29.59375 31.296875 
Q 39.15625 29.25 43.1875 25.515625 
Q 47.21875 21.78125 47.21875 15.09375 
Q 47.21875 7.46875 41.1875 3.015625 
Q 35.15625 -1.421875 24.609375 -1.421875 
Q 20.21875 -1.421875 15.453125 -0.5625 
Q 10.6875 0.296875 5.421875 2 
L 5.421875 11.28125 
Q 10.40625 8.6875 15.234375 7.390625 
Q 20.0625 6.109375 24.8125 6.109375 
Q 31.15625 6.109375 34.5625 8.28125 
Q 37.984375 10.453125 37.984375 14.40625 
Q 37.984375 18.0625 35.515625 20.015625 
Q 33.0625 21.96875 24.703125 23.78125 
L 21.578125 24.515625 
Q 13.234375 26.265625 9.515625 29.90625 
Q 5.8125 33.546875 5.8125 39.890625 
Q 5.8125 47.609375 11.28125 51.796875 
Q 16.75 56 26.8125 56 
Q 31.78125 56 36.171875 55.265625 
Q 40.578125 54.546875 44.28125 53.078125 
z
" id="DejaVuSans-115"/>
       <path d="M 25.390625 72.90625 
L 33.6875 72.90625 
L 8.296875 -9.28125 
L 0 -9.28125 
z
" id="DejaVuSans-47"/>
       <path d="M 45.40625 46.390625 
L 45.40625 75.984375 
L 54.390625 75.984375 
L 54.390625 0 
L 45.40625 0 
L 45.40625 8.203125 
Q 42.578125 3.328125 38.25 0.953125 
Q 33.9375 -1.421875 27.875 -1.421875 
Q 17.96875 -1.421875 11.734375 6.484375 
Q 5.515625 14.40625 5.515625 27.296875 
Q 5.515625 40.1875 11.734375 48.09375 
Q 17.96875 56 27.875 56 
Q 33.9375 56 38.25 53.625 
Q 42.578125 51.265625 45.40625 46.390625 
z
M 14.796875 27.296875 
Q 14.796875 17.390625 18.875 11.75 
Q 22.953125 6.109375 30.078125 6.109375 
Q 37.203125 6.109375 41.296875 11.75 
Q 45.40625 17.390625 45.40625 27.296875 
Q 45.40625 37.203125 41.296875 42.84375 
Q 37.203125 48.484375 30.078125 48.484375 
Q 22.953125 48.484375 18.875 42.84375 
Q 14.796875 37.203125 14.796875 27.296875 
z
" id="DejaVuSans-100"/>
       <path d="M 9.421875 54.6875 
L 18.40625 54.6875 
L 18.40625 0 
L 9.421875 0 
z
M 9.421875 75.984375 
L 18.40625 75.984375 
L 18.40625 64.59375 
L 9.421875 64.59375 
z
" id="DejaVuSans-105"/>
       <path d="M 52 44.1875 
Q 55.375 50.25 60.0625 53.125 
Q 64.75 56 71.09375 56 
Q 79.640625 56 84.28125 50.015625 
Q 88.921875 44.046875 88.921875 33.015625 
L 88.921875 0 
L 79.890625 0 
L 79.890625 32.71875 
Q 79.890625 40.578125 77.09375 44.375 
Q 74.3125 48.1875 68.609375 48.1875 
Q 61.625 48.1875 57.5625 43.546875 
Q 53.515625 38.921875 53.515625 30.90625 
L 53.515625 0 
L 44.484375 0 
L 44.484375 32.71875 
Q 44.484375 40.625 41.703125 44.40625 
Q 38.921875 48.1875 33.109375 48.1875 
Q 26.21875 48.1875 22.15625 43.53125 
Q 18.109375 38.875 18.109375 30.90625 
L 18.109375 0 
L 9.078125 0 
L 9.078125 54.6875 
L 18.109375 54.6875 
L 18.109375 46.1875 
Q 21.1875 51.21875 25.484375 53.609375 
Q 29.78125 56 35.6875 56 
Q 41.65625 56 45.828125 52.96875 
Q 50 49.953125 52 44.1875 
z
" id="DejaVuSans-109"/>
       <path d="M 54.890625 33.015625 
L 54.890625 0 
L 45.90625 0 
L 45.90625 32.71875 
Q 45.90625 40.484375 42.875 44.328125 
Q 39.84375 48.1875 33.796875 48.1875 
Q 26.515625 48.1875 22.3125 43.546875 
Q 18.109375 38.921875 18.109375 30.90625 
L 18.109375 0 
L 9.078125 0 
L 9.078125 54.6875 
L 18.109375 54.6875 
L 18.109375 46.1875 
Q 21.34375 51.125 25.703125 53.5625 
Q 30.078125 56 35.796875 56 
Q 45.21875 56 50.046875 50.171875 
Q 54.890625 44.34375 54.890625 33.015625 
z
" id="DejaVuSans-110"/>
       <path d="M 8.015625 75.875 
L 15.828125 75.875 
Q 23.140625 64.359375 26.78125 53.3125 
Q 30.421875 42.28125 30.421875 31.390625 
Q 30.421875 20.453125 26.78125 9.375 
Q 23.140625 -1.703125 15.828125 -13.1875 
L 8.015625 -13.1875 
Q 14.5 -2 17.703125 9.0625 
Q 20.90625 20.125 20.90625 31.390625 
Q 20.90625 42.671875 17.703125 53.65625 
Q 14.5 64.65625 8.015625 75.875 
z
" id="DejaVuSans-41"/>
      </defs>
      <use xlink:href="#DejaVuSans-108"/>
      <use x="27.783203" xlink:href="#DejaVuSans-111"/>
      <use x="88.964844" xlink:href="#DejaVuSans-103"/>
      <use x="152.441406" xlink:href="#DejaVuSans-49"/>
      <use x="216.064453" xlink:href="#DejaVuSans-48"/>
      <use x="279.6875" xlink:href="#DejaVuSans-40"/>
      <use x="318.701172" xlink:href="#DejaVuSans-35"/>
      <use x="402.490234" xlink:href="#DejaVuSans-32"/>
      <use x="434.277344" xlink:href="#DejaVuSans-102"/>
      <use x="463.982422" xlink:href="#DejaVuSans-45"/>
      <use x="500.066406" xlink:href="#DejaVuSans-101"/>
      <use x="561.589844" xlink:href="#DejaVuSans-118"/>
      <use x="620.769531" xlink:href="#DejaVuSans-97"/>
      <use x="682.048828" xlink:href="#DejaVuSans-108"/>
      <use x="709.832031" xlink:href="#DejaVuSans-115"/>
      <use x="761.931641" xlink:href="#DejaVuSans-32"/>
      <use x="793.71875" xlink:href="#DejaVuSans-47"/>
      <use x="827.410156" xlink:href="#DejaVuSans-32"/>
      <use x="859.197266" xlink:href="#DejaVuSans-100"/>
      <use x="922.673828" xlink:href="#DejaVuSans-105"/>
      <use x="950.457031" xlink:href="#DejaVuSans-109"/>
      <use x="1047.869141" xlink:href="#DejaVuSans-101"/>
      <use x="1109.392578" xlink:href="#DejaVuSans-110"/>
      <use x="1172.771484" xlink:href="#DejaVuSans-115"/>
      <use x="1224.871094" xlink:href="#DejaVuSans-105"/>
      <use x="1252.654297" xlink:href="#DejaVuSans-111"/>
      <use x="1313.835938" xlink:href="#DejaVuSans-110"/>
      <use x="1377.214844" xlink:href="#DejaVuSans-41"/>
     </g>
    </g>
   </g>
   <g id="matplotlib.axis_2">
    <g id="ytick_1">
     <g id="line2d_17">
      <path clip-path="url(#p8bd4908dea)" d="M 57.6 298.944 
L 338.688 298.944 
" style="fill:none;stroke:#b0b0b0;stroke-linecap:square;stroke-width:0.8;"/>
     </g>
     <g id="line2d_18">
      <defs>
       <path d="M 0 0 
L -3.5 0 
" id="maeb4b80338" style="stroke:#000000;stroke-width:0.8;"/>
      </defs>
      <g>
       <use style="stroke:#000000;stroke-width:0.8;" x="57.6" xlink:href="#maeb4b80338" y="298.944"/>
      </g>
     </g>
     <g id="text_6">
      <!-- 0.0 -->
      <g transform="translate(25.155 305.02275)scale(0.16 -0.16)">
       <defs>
        <path d="M 10.6875 12.40625 
L 21 12.40625 
L 21 0 
L 10.6875 0 
z
" id="DejaVuSans-46"/>
       </defs>
       <use xlink:href="#DejaVuSans-48"/>
       <use x="63.623047" xlink:href="#DejaVuSans-46"/>
       <use x="95.410156" xlink:href="#DejaVuSans-48"/>
      </g>
     </g>
    </g>
    <g id="ytick_2">
     <g id="line2d_19">
      <path clip-path="url(#p8bd4908dea)" d="M 57.6 245.22202 
L 338.688 245.22202 
" style="fill:none;stroke:#b0b0b0;stroke-linecap:square;stroke-width:0.8;"/>
     </g>
     <g id="line2d_20">
      <g>
       <use style="stroke:#000000;stroke-width:0.8;" x="57.6" xlink:href="#maeb4b80338" y="245.22202"/>
      </g>
     </g>
     <g id="text_7">
      <!-- 0.2 -->
      <g transform="translate(25.155 251.30077)scale(0.16 -0.16)">
       <use xlink:href="#DejaVuSans-48"/>
       <use x="63.623047" xlink:href="#DejaVuSans-46"/>
       <use x="95.410156" xlink:href="#DejaVuSans-50"/>
      </g>
     </g>
    </g>
    <g id="ytick_3">
     <g id="line2d_21">
      <path clip-path="url(#p8bd4908dea)" d="M 57.6 191.50004 
L 338.688 191.50004 
" style="fill:none;stroke:#b0b0b0;stroke-linecap:square;stroke-width:0.8;"/>
     </g>
     <g id="line2d_22">
      <g>
       <use style="stroke:#000000;stroke-width:0.8;" x="57.6" xlink:href="#maeb4b80338" y="191.50004"/>
      </g>
     </g>
     <g id="text_8">
      <!-- 0.4 -->
      <g transform="translate(25.155 197.57879)scale(0.16 -0.16)">
       <use xlink:href="#DejaVuSans-48"/>
       <use x="63.623047" xlink:href="#DejaVuSans-46"/>
       <use x="95.410156" xlink:href="#DejaVuSans-52"/>
      </g>
     </g>
    </g>
    <g id="ytick_4">
     <g id="line2d_23">
      <path clip-path="url(#p8bd4908dea)" d="M 57.6 137.778059 
L 338.688 137.778059 
" style="fill:none;stroke:#b0b0b0;stroke-linecap:square;stroke-width:0.8;"/>
     </g>
     <g id="line2d_24">
      <g>
       <use style="stroke:#000000;stroke-width:0.8;" x="57.6" xlink:href="#maeb4b80338" y="137.778059"/>
      </g>
     </g>
     <g id="text_9">
      <!-- 0.6 -->
      <g transform="translate(25.155 143.856809)scale(0.16 -0.16)">
       <use xlink:href="#DejaVuSans-48"/>
       <use x="63.623047" xlink:href="#DejaVuSans-46"/>
       <use x="95.410156" xlink:href="#DejaVuSans-54"/>
      </g>
     </g>
    </g>
    <g id="ytick_5">
     <g id="line2d_25">
      <path clip-path="url(#p8bd4908dea)" d="M 57.6 84.056079 
L 338.688 84.056079 
" style="fill:none;stroke:#b0b0b0;stroke-linecap:square;stroke-width:0.8;"/>
     </g>
     <g id="line2d_26">
      <g>
       <use style="stroke:#000000;stroke-width:0.8;" x="57.6" xlink:href="#maeb4b80338" y="84.056079"/>
      </g>
     </g>
     <g id="text_10">
      <!-- 0.8 -->
      <g transform="translate(25.155 90.134829)scale(0.16 -0.16)">
       <defs>
        <path d="M 31.78125 34.625 
Q 24.75 34.625 20.71875 30.859375 
Q 16.703125 27.09375 16.703125 20.515625 
Q 16.703125 13.921875 20.71875 10.15625 
Q 24.75 6.390625 31.78125 6.390625 
Q 38.8125 6.390625 42.859375 10.171875 
Q 46.921875 13.96875 46.921875 20.515625 
Q 46.921875 27.09375 42.890625 30.859375 
Q 38.875 34.625 31.78125 34.625 
z
M 21.921875 38.8125 
Q 15.578125 40.375 12.03125 44.71875 
Q 8.5 49.078125 8.5 55.328125 
Q 8.5 64.0625 14.71875 69.140625 
Q 20.953125 74.21875 31.78125 74.21875 
Q 42.671875 74.21875 48.875 69.140625 
Q 55.078125 64.0625 55.078125 55.328125 
Q 55.078125 49.078125 51.53125 44.71875 
Q 48 40.375 41.703125 38.8125 
Q 48.828125 37.15625 52.796875 32.3125 
Q 56.78125 27.484375 56.78125 20.515625 
Q 56.78125 9.90625 50.3125 4.234375 
Q 43.84375 -1.421875 31.78125 -1.421875 
Q 19.734375 -1.421875 13.25 4.234375 
Q 6.78125 9.90625 6.78125 20.515625 
Q 6.78125 27.484375 10.78125 32.3125 
Q 14.796875 37.15625 21.921875 38.8125 
z
M 18.3125 54.390625 
Q 18.3125 48.734375 21.84375 45.5625 
Q 25.390625 42.390625 31.78125 42.390625 
Q 38.140625 42.390625 41.71875 45.5625 
Q 45.3125 48.734375 45.3125 54.390625 
Q 45.3125 60.0625 41.71875 63.234375 
Q 38.140625 66.40625 31.78125 66.40625 
Q 25.390625 66.40625 21.84375 63.234375 
Q 18.3125 60.0625 18.3125 54.390625 
z
" id="DejaVuSans-56"/>
       </defs>
       <use xlink:href="#DejaVuSans-48"/>
       <use x="63.623047" xlink:href="#DejaVuSans-46"/>
       <use x="95.410156" xlink:href="#DejaVuSans-56"/>
      </g>
     </g>
    </g>
    <g id="ytick_6">
     <g id="line2d_27">
      <path clip-path="url(#p8bd4908dea)" d="M 57.6 30.334099 
L 338.688 30.334099 
" style="fill:none;stroke:#b0b0b0;stroke-linecap:square;stroke-width:0.8;"/>
     </g>
     <g id="line2d_28">
      <g>
       <use style="stroke:#000000;stroke-width:0.8;" x="57.6" xlink:href="#maeb4b80338" y="30.334099"/>
      </g>
     </g>
     <g id="text_11">
      <!-- 1.0 -->
      <g transform="translate(25.155 36.412849)scale(0.16 -0.16)">
       <use xlink:href="#DejaVuSans-49"/>
       <use x="63.623047" xlink:href="#DejaVuSans-46"/>
       <use x="95.410156" xlink:href="#DejaVuSans-48"/>
      </g>
     </g>
    </g>
    <g id="text_12">
     <!-- Fraction of function,target pairs -->
     <g transform="translate(17.619531 297.681)rotate(-90)scale(0.17 -0.17)">
      <defs>
       <path d="M 9.8125 72.90625 
L 51.703125 72.90625 
L 51.703125 64.59375 
L 19.671875 64.59375 
L 19.671875 43.109375 
L 48.578125 43.109375 
L 48.578125 34.8125 
L 19.671875 34.8125 
L 19.671875 0 
L 9.8125 0 
z
" id="DejaVuSans-70"/>
       <path d="M 41.109375 46.296875 
Q 39.59375 47.171875 37.8125 47.578125 
Q 36.03125 48 33.890625 48 
Q 26.265625 48 22.1875 43.046875 
Q 18.109375 38.09375 18.109375 28.8125 
L 18.109375 0 
L 9.078125 0 
L 9.078125 54.6875 
L 18.109375 54.6875 
L 18.109375 46.1875 
Q 20.953125 51.171875 25.484375 53.578125 
Q 30.03125 56 36.53125 56 
Q 37.453125 56 38.578125 55.875 
Q 39.703125 55.765625 41.0625 55.515625 
z
" id="DejaVuSans-114"/>
       <path d="M 48.78125 52.59375 
L 48.78125 44.1875 
Q 44.96875 46.296875 41.140625 47.34375 
Q 37.3125 48.390625 33.40625 48.390625 
Q 24.65625 48.390625 19.8125 42.84375 
Q 14.984375 37.3125 14.984375 27.296875 
Q 14.984375 17.28125 19.8125 11.734375 
Q 24.65625 6.203125 33.40625 6.203125 
Q 37.3125 6.203125 41.140625 7.25 
Q 44.96875 8.296875 48.78125 10.40625 
L 48.78125 2.09375 
Q 45.015625 0.34375 40.984375 -0.53125 
Q 36.96875 -1.421875 32.421875 -1.421875 
Q 20.0625 -1.421875 12.78125 6.34375 
Q 5.515625 14.109375 5.515625 27.296875 
Q 5.515625 40.671875 12.859375 48.328125 
Q 20.21875 56 33.015625 56 
Q 37.15625 56 41.109375 55.140625 
Q 45.0625 54.296875 48.78125 52.59375 
z
" id="DejaVuSans-99"/>
       <path d="M 18.3125 70.21875 
L 18.3125 54.6875 
L 36.8125 54.6875 
L 36.8125 47.703125 
L 18.3125 47.703125 
L 18.3125 18.015625 
Q 18.3125 11.328125 20.140625 9.421875 
Q 21.96875 7.515625 27.59375 7.515625 
L 36.8125 7.515625 
L 36.8125 0 
L 27.59375 0 
Q 17.1875 0 13.234375 3.875 
Q 9.28125 7.765625 9.28125 18.015625 
L 9.28125 47.703125 
L 2.6875 47.703125 
L 2.6875 54.6875 
L 9.28125 54.6875 
L 9.28125 70.21875 
z
" id="DejaVuSans-116"/>
       <path d="M 8.5 21.578125 
L 8.5 54.6875 
L 17.484375 54.6875 
L 17.484375 21.921875 
Q 17.484375 14.15625 20.5 10.265625 
Q 23.53125 6.390625 29.59375 6.390625 
Q 36.859375 6.390625 41.078125 11.03125 
Q 45.3125 15.671875 45.3125 23.6875 
L 45.3125 54.6875 
L 54.296875 54.6875 
L 54.296875 0 
L 45.3125 0 
L 45.3125 8.40625 
Q 42.046875 3.421875 37.71875 1 
Q 33.40625 -1.421875 27.6875 -1.421875 
Q 18.265625 -1.421875 13.375 4.4375 
Q 8.5 10.296875 8.5 21.578125 
z
M 31.109375 56 
z
" id="DejaVuSans-117"/>
       <path d="M 11.71875 12.40625 
L 22.015625 12.40625 
L 22.015625 4 
L 14.015625 -11.625 
L 7.71875 -11.625 
L 11.71875 4 
z
" id="DejaVuSans-44"/>
       <path d="M 18.109375 8.203125 
L 18.109375 -20.796875 
L 9.078125 -20.796875 
L 9.078125 54.6875 
L 18.109375 54.6875 
L 18.109375 46.390625 
Q 20.953125 51.265625 25.265625 53.625 
Q 29.59375 56 35.59375 56 
Q 45.5625 56 51.78125 48.09375 
Q 58.015625 40.1875 58.015625 27.296875 
Q 58.015625 14.40625 51.78125 6.484375 
Q 45.5625 -1.421875 35.59375 -1.421875 
Q 29.59375 -1.421875 25.265625 0.953125 
Q 20.953125 3.328125 18.109375 8.203125 
z
M 48.6875 27.296875 
Q 48.6875 37.203125 44.609375 42.84375 
Q 40.53125 48.484375 33.40625 48.484375 
Q 26.265625 48.484375 22.1875 42.84375 
Q 18.109375 37.203125 18.109375 27.296875 
Q 18.109375 17.390625 22.1875 11.75 
Q 26.265625 6.109375 33.40625 6.109375 
Q 40.53125 6.109375 44.609375 11.75 
Q 48.6875 17.390625 48.6875 27.296875 
z
" id="DejaVuSans-112"/>
      </defs>
      <use xlink:href="#DejaVuSans-70"/>
      <use x="50.269531" xlink:href="#DejaVuSans-114"/>
      <use x="91.382812" xlink:href="#DejaVuSans-97"/>
      <use x="152.662109" xlink:href="#DejaVuSans-99"/>
      <use x="207.642578" xlink:href="#DejaVuSans-116"/>
      <use x="246.851562" xlink:href="#DejaVuSans-105"/>
      <use x="274.634766" xlink:href="#DejaVuSans-111"/>
      <use x="335.816406" xlink:href="#DejaVuSans-110"/>
      <use x="399.195312" xlink:href="#DejaVuSans-32"/>
      <use x="430.982422" xlink:href="#DejaVuSans-111"/>
      <use x="492.164062" xlink:href="#DejaVuSans-102"/>
      <use x="527.369141" xlink:href="#DejaVuSans-32"/>
      <use x="559.15625" xlink:href="#DejaVuSans-102"/>
      <use x="594.361328" xlink:href="#DejaVuSans-117"/>
      <use x="657.740234" xlink:href="#DejaVuSans-110"/>
      <use x="721.119141" xlink:href="#DejaVuSans-99"/>
      <use x="776.099609" xlink:href="#DejaVuSans-116"/>
      <use x="815.308594" xlink:href="#DejaVuSans-105"/>
      <use x="843.091797" xlink:href="#DejaVuSans-111"/>
      <use x="904.273438" xlink:href="#DejaVuSans-110"/>
      <use x="967.652344" xlink:href="#DejaVuSans-44"/>
      <use x="999.439453" xlink:href="#DejaVuSans-116"/>
      <use x="1038.648438" xlink:href="#DejaVuSans-97"/>
      <use x="1099.927734" xlink:href="#DejaVuSans-114"/>
      <use x="1139.291016" xlink:href="#DejaVuSans-103"/>
      <use x="1202.767578" xlink:href="#DejaVuSans-101"/>
      <use x="1264.291016" xlink:href="#DejaVuSans-116"/>
      <use x="1303.5" xlink:href="#DejaVuSans-32"/>
      <use x="1335.287109" xlink:href="#DejaVuSans-112"/>
      <use x="1398.763672" xlink:href="#DejaVuSans-97"/>
      <use x="1460.042969" xlink:href="#DejaVuSans-105"/>
      <use x="1487.826172" xlink:href="#DejaVuSans-114"/>
      <use x="1528.939453" xlink:href="#DejaVuSans-115"/>
     </g>
    </g>
   </g>
   <g id="line2d_29">
    <defs>
     <path d="M 0 1.5 
C 0.397805 1.5 0.77937 1.341951 1.06066 1.06066 
C 1.341951 0.77937 1.5 0.397805 1.5 0 
C 1.5 -0.397805 1.341951 -0.77937 1.06066 -1.06066 
C 0.77937 -1.341951 0.397805 -1.5 0 -1.5 
C -0.397805 -1.5 -0.77937 -1.341951 -1.06066 -1.06066 
C -1.341951 -0.77937 -1.5 -0.397805 -1.5 0 
C -1.5 0.397805 -1.341951 0.77937 -1.06066 1.06066 
C -0.77937 1.341951 -0.397805 1.5 0 1.5 
z
" id="mced340254c" style="stroke:#00bfbf;"/>
    </defs>
    <g>
     <use style="fill:#00bfbf;stroke:#00bfbf;" x="186.457908" xlink:href="#mced340254c" y="30.334099"/>
     <use style="fill:#00bfbf;stroke:#00bfbf;" x="186.457908" xlink:href="#mced340254c" y="30.334099"/>
    </g>
   </g>
   <g id="line2d_30">
    <path d="M 45.512012 298.944 
L 45.512012 278.403243 
L 92.73846 278.403243 
L 92.73846 277.876557 
L 95.918017 277.876557 
L 95.918017 277.349871 
L 98.606294 277.349871 
L 98.606294 276.823185 
L 99.41757 276.823185 
L 99.41757 275.243126 
L 100.192776 275.243126 
L 100.192776 274.71644 
L 100.934985 274.71644 
L 100.934985 274.189754 
L 101.646892 274.189754 
L 101.646892 273.663068 
L 102.989037 273.663068 
L 102.989037 272.609696 
L 103.623262 272.609696 
L 103.623262 271.556324 
L 104.23523 271.556324 
L 104.23523 269.449579 
L 105.398279 269.449579 
L 105.398279 267.869521 
L 105.951954 267.869521 
L 105.951954 266.289463 
L 106.48859 266.289463 
L 106.48859 265.236091 
L 107.009204 265.236091 
L 107.009204 264.709405 
L 107.514726 264.709405 
L 107.514726 264.182719 
L 108.483824 264.182719 
L 108.483824 263.656033 
L 109.401893 263.656033 
L 109.401893 263.129347 
L 109.843417 263.129347 
L 109.843417 262.60266 
L 110.694282 262.60266 
L 110.694282 262.075974 
L 113.382559 262.075974 
L 113.382559 261.549288 
L 115.077025 261.549288 
L 115.077025 261.022602 
L 115.711251 261.022602 
L 115.711251 260.495916 
L 116.323218 260.495916 
L 116.323218 259.96923 
L 116.621333 259.96923 
L 116.621333 257.862486 
L 116.914437 257.862486 
L 116.914437 254.702369 
L 117.202696 254.702369 
L 117.202696 254.175683 
L 117.765302 254.175683 
L 117.765302 252.595625 
L 118.039942 252.595625 
L 118.039942 252.068939 
L 119.351785 252.068939 
L 119.351785 251.015567 
L 119.602714 251.015567 
L 119.602714 250.488881 
L 120.093994 250.488881 
L 120.093994 249.962195 
L 120.33454 249.962195 
L 120.33454 247.328764 
L 120.8059 247.328764 
L 120.8059 245.748706 
L 121.489881 245.748706 
L 121.489881 244.695334 
L 121.931406 244.695334 
L 121.931406 240.481845 
L 122.148045 240.481845 
L 122.148045 239.955159 
L 122.362027 239.955159 
L 122.362027 239.428473 
L 122.573415 239.428473 
L 122.573415 236.795043 
L 122.782271 236.795043 
L 122.782271 235.74167 
L 123.192626 235.74167 
L 123.192626 235.214984 
L 123.394238 235.214984 
L 123.394238 234.688298 
L 123.593547 234.688298 
L 123.593547 229.421437 
L 123.790603 229.421437 
L 123.790603 228.894751 
L 123.985457 228.894751 
L 123.985457 228.368065 
L 124.178158 228.368065 
L 124.178158 227.314693 
L 124.557288 227.314693 
L 124.557288 226.788007 
L 124.92835 226.788007 
L 124.92835 225.207949 
L 125.110962 225.207949 
L 125.110962 222.047832 
L 125.291682 222.047832 
L 125.291682 221.521146 
L 125.470548 221.521146 
L 125.470548 218.887716 
L 125.822869 218.887716 
L 125.822869 218.36103 
L 126.168212 218.36103 
L 126.168212 215.727599 
L 126.50685 215.727599 
L 126.50685 211.514111 
L 127.165014 211.514111 
L 127.165014 210.987425 
L 127.325746 210.987425 
L 127.325746 210.460738 
L 127.48501 210.460738 
L 127.48501 208.88068 
L 127.799239 208.88068 
L 127.799239 208.353994 
L 128.560901 208.353994 
L 128.560901 207.300622 
L 128.709321 207.300622 
L 128.709321 206.773936 
L 128.856489 206.773936 
L 128.856489 206.24725 
L 129.002426 206.24725 
L 129.002426 200.980389 
L 129.147151 200.980389 
L 129.147151 200.453703 
L 129.290685 200.453703 
L 129.290685 199.400331 
L 129.433047 199.400331 
L 129.433047 198.873645 
L 129.574256 198.873645 
L 129.574256 197.820273 
L 129.853291 197.820273 
L 129.853291 195.713528 
L 130.263646 195.713528 
L 130.263646 195.186842 
L 130.398313 195.186842 
L 130.398313 194.660156 
L 130.664567 194.660156 
L 130.664567 194.13347 
L 130.926816 194.13347 
L 130.926816 192.026726 
L 131.185181 192.026726 
L 131.185181 191.50004 
L 132.541568 191.50004 
L 132.541568 190.973354 
L 135.780341 190.973354 
L 135.780341 190.446667 
L 136.738785 190.446667 
L 136.738785 189.919981 
L 137.289545 189.919981 
L 137.289545 189.393295 
L 137.647286 189.393295 
L 137.647286 188.339923 
L 137.823442 188.339923 
L 137.910857 187.286551 
L 137.997836 187.286551 
L 138.084384 185.179807 
L 138.256201 185.179807 
L 138.256201 184.653121 
L 138.426341 184.653121 
L 138.426341 184.126434 
L 139.090775 184.126434 
L 139.090775 183.599748 
L 139.253002 183.599748 
L 139.253002 183.073062 
L 139.413734 183.073062 
L 139.493548 179.912946 
L 139.652088 179.912946 
L 139.652088 178.859574 
L 139.8092 178.859574 
L 139.887228 177.279515 
L 140.042245 177.279515 
L 140.042245 176.226143 
L 140.272217 176.226143 
L 140.272217 174.119399 
L 140.423864 174.119399 
L 140.499195 172.012655 
L 140.574203 172.012655 
L 140.64889 170.959282 
L 140.79731 170.959282 
L 140.871049 169.379224 
L 140.944478 169.379224 
L 141.017599 166.745794 
L 141.090414 166.745794 
L 141.090414 165.165736 
L 141.235139 165.165736 
L 141.235139 164.63905 
L 141.45 164.63905 
L 141.45 164.112363 
L 141.591783 164.112363 
L 141.662245 162.532305 
L 141.80232 162.532305 
L 141.80232 160.952247 
L 141.941279 160.952247 
L 141.941279 160.425561 
L 142.147664 160.425561 
L 142.215919 158.845503 
L 142.419098 158.845503 
L 142.419098 158.318817 
L 142.553247 158.318817 
L 142.553247 156.738758 
L 142.752555 156.738758 
L 142.752555 155.685386 
L 142.884173 155.685386 
L 142.949611 153.051956 
L 143.014805 153.051956 
L 143.014805 152.52527 
L 143.144465 152.52527 
L 143.144465 151.471897 
L 143.273169 151.471897 
L 143.273169 150.945211 
L 143.40093 150.945211 
L 143.40093 149.891839 
L 143.590833 149.891839 
L 143.653678 148.838467 
L 143.840863 148.838467 
L 143.840863 148.311781 
L 144.269971 148.311781 
L 144.269971 147.258409 
L 145.270136 147.258409 
L 145.270136 146.731723 
L 145.832743 146.731723 
L 145.888018 145.678351 
L 146.216039 145.678351 
L 146.324022 144.098292 
L 146.431341 144.098292 
L 146.538004 142.518234 
L 146.591092 142.518234 
L 146.591092 141.991548 
L 146.801841 141.991548 
L 146.906268 140.41149 
L 147.061745 140.41149 
L 147.164632 139.358118 
L 147.215849 139.358118 
L 147.317833 137.251373 
L 147.570215 137.251373 
L 147.670154 135.671315 
L 147.71991 135.671315 
L 147.818997 133.037885 
L 148.161434 133.037885 
L 148.161434 131.984513 
L 148.354135 131.984513 
L 148.40198 130.93114 
L 148.592055 130.93114 
L 148.639252 129.351082 
L 148.780082 129.351082 
L 148.780082 128.824396 
L 149.058374 128.824396 
L 149.104327 127.244338 
L 149.422654 127.244338 
L 149.422654 126.717652 
L 149.60198 126.717652 
L 149.690956 125.137593 
L 149.911431 125.137593 
L 149.998846 123.557535 
L 150.129152 123.557535 
L 150.215485 121.977477 
L 150.598782 121.977477 
L 150.682827 120.397419 
L 150.932558 120.397419 
L 150.932558 119.344047 
L 151.097081 119.344047 
L 151.13797 117.237302 
L 151.381313 117.237302 
L 151.381313 116.710616 
L 151.660987 116.710616 
L 151.660987 116.18393 
L 151.858043 116.18393 
L 151.858043 115.657244 
L 152.130233 115.657244 
L 152.130233 115.130558 
L 152.736878 115.130558 
L 152.774102 114.077186 
L 152.848312 114.077186 
L 152.959038 112.497128 
L 152.995791 112.497128 
L 153.105587 111.443755 
L 153.142033 111.443755 
L 153.142033 110.917069 
L 153.287059 110.917069 
L 153.395042 109.337011 
L 153.679772 109.337011 
L 153.679772 108.283639 
L 153.925152 108.283639 
L 154.029268 107.230267 
L 154.063835 107.230267 
L 154.063835 106.703581 
L 154.303908 106.703581 
L 154.371897 105.650209 
L 154.473387 105.650209 
L 154.57429 103.016778 
L 154.707925 103.016778 
L 154.707925 102.490092 
L 155.070227 102.490092 
L 155.167744 100.910034 
L 155.329071 100.910034 
L 155.329071 100.383348 
L 155.457066 100.383348 
L 155.520713 97.749917 
L 155.61575 97.749917 
L 155.61575 97.223231 
L 155.804285 97.223231 
L 155.804285 96.696545 
L 156.266892 96.696545 
L 156.266892 96.169859 
L 156.776762 96.169859 
L 156.865211 94.589801 
L 156.894595 94.589801 
L 156.894595 94.063115 
L 157.243392 94.063115 
L 157.329512 91.95637 
L 157.669802 91.95637 
L 157.725877 90.902998 
L 157.809652 90.902998 
L 157.809652 90.376312 
L 157.94839 90.376312 
L 158.058592 87.742882 
L 158.195371 87.742882 
L 158.222599 86.68951 
L 158.385078 86.68951 
L 158.385078 86.162824 
L 158.705563 86.162824 
L 158.705563 85.636137 
L 158.83738 85.636137 
L 158.915995 83.529393 
L 159.201253 83.529393 
L 159.278248 81.949335 
L 159.683242 81.949335 
L 159.783038 80.369277 
L 159.832723 80.369277 
L 159.832723 79.842591 
L 160.005512 79.842591 
L 160.103486 78.789218 
L 160.152267 78.789218 
L 160.225184 77.735846 
L 160.37011 77.735846 
L 160.37011 77.20916 
L 160.513841 77.20916 
L 160.56149 74.57573 
L 160.774311 74.57573 
L 160.774311 74.049044 
L 160.891432 74.049044 
L 160.891432 73.522358 
L 161.030947 73.522358 
L 161.030947 72.995672 
L 161.329454 72.995672 
L 161.374928 71.942299 
L 161.53316 71.942299 
L 161.600536 70.362241 
L 161.712255 70.362241 
L 161.734513 69.308869 
L 161.88953 69.308869 
L 161.88953 68.782183 
L 162.043181 68.782183 
L 162.043181 68.255497 
L 162.173813 68.255497 
L 162.238764 67.202125 
L 162.581141 67.202125 
L 162.665696 65.622066 
L 162.833584 65.622066 
L 162.896128 64.042008 
L 162.979172 64.042008 
L 162.979172 62.988636 
L 163.103002 62.988636 
L 163.103002 62.46195 
L 163.225959 62.46195 
L 163.225959 61.935264 
L 163.649606 61.935264 
L 163.709295 60.881892 
L 163.828065 60.881892 
L 163.828065 60.355206 
L 164.004716 60.355206 
L 164.004716 59.82852 
L 164.218222 59.82852 
L 164.218222 58.248461 
L 164.712717 58.248461 
L 164.787563 57.195089 
L 164.880672 57.195089 
L 164.880672 56.668403 
L 165.230021 56.668403 
L 165.338904 55.615031 
L 165.46508 55.615031 
L 165.55465 54.034973 
L 165.697012 54.034973 
L 165.7501 52.454914 
L 165.978297 52.454914 
L 165.978297 51.928228 
L 166.459886 51.928228 
L 166.459886 51.401542 
L 166.578233 51.401542 
L 166.578233 50.874856 
L 166.7626 50.874856 
L 166.812546 49.821484 
L 166.91201 49.821484 
L 166.91201 49.294798 
L 167.207042 49.294798 
L 167.239518 48.241426 
L 167.43311 48.241426 
L 167.529106 47.188054 
L 167.656285 47.188054 
L 167.687935 46.134681 
L 167.892273 46.134681 
L 167.892273 45.081309 
L 168.263336 45.081309 
L 168.309168 42.974565 
L 168.430803 42.974565 
L 168.430803 42.447879 
L 168.71633 42.447879 
L 168.71633 41.921193 
L 169.201398 41.921193 
L 169.201398 41.394507 
L 169.374494 41.394507 
L 169.374494 40.867821 
L 170.119095 40.867821 
L 170.119095 40.341135 
L 170.256089 40.341135 
L 170.256089 39.814448 
L 170.806779 39.814448 
L 170.806779 39.287762 
L 171.314944 39.287762 
L 171.366236 38.23439 
L 171.645677 38.23439 
L 171.645677 37.707704 
L 172.093501 37.707704 
L 172.093501 37.181018 
L 172.60183 37.181018 
L 172.60183 36.654332 
L 173.14208 36.654332 
L 173.199806 35.60096 
L 173.440194 35.60096 
L 173.462916 34.547588 
L 173.621148 34.547588 
L 173.621148 34.020902 
L 173.878023 34.020902 
L 173.878023 33.494215 
L 175.262821 33.494215 
L 175.262821 32.967529 
L 175.886437 32.967529 
L 175.886437 32.440843 
L 177.92621 32.440843 
L 177.92621 31.914157 
L 184.242788 31.914157 
L 184.255021 30.860785 
L 186.457908 30.860785 
L 186.457908 30.334099 
L 338.688 30.334099 
L 338.688 30.334099 
" style="fill:none;stroke:#00bfbf;stroke-linecap:square;stroke-width:1.5;"/>
   </g>
   <g id="line2d_31">
    <defs>
     <path d="M -6 0 
L 6 0 
M 0 6 
L 0 -6 
" id="m907a7ab9df" style="stroke:#00bfbf;stroke-width:1.5;"/>
    </defs>
    <g>
     <use style="fill-opacity:0;stroke:#00bfbf;stroke-width:1.5;" x="116.621333" xlink:href="#m907a7ab9df" y="257.862486"/>
     <use style="fill-opacity:0;stroke:#00bfbf;stroke-width:1.5;" x="140.423864" xlink:href="#m907a7ab9df" y="173.592713"/>
     <use style="fill-opacity:0;stroke:#00bfbf;stroke-width:1.5;" x="168.71633" xlink:href="#m907a7ab9df" y="42.447879"/>
     <use style="fill-opacity:0;stroke:#00bfbf;stroke-width:1.5;" x="186.457908" xlink:href="#m907a7ab9df" y="30.860785"/>
     <use style="fill-opacity:0;stroke:#00bfbf;stroke-width:1.5;" x="186.457908" xlink:href="#m907a7ab9df" y="30.334099"/>
     <use style="fill-opacity:0;stroke:#00bfbf;stroke-width:1.5;" x="338.688" xlink:href="#m907a7ab9df" y="30.334099"/>
    </g>
   </g>
   <g id="line2d_32">
    <path style="fill:none;stroke:#00bfbf;stroke-linecap:square;stroke-width:1.5;"/>
    <g/>
   </g>
   <g id="line2d_33">
    <path clip-path="url(#p8bd4908dea)" d="M 132.422528 191.50004 
" style="fill:none;stroke:#00bfbf;stroke-linecap:square;stroke-width:1.5;"/>
    <defs>
     <path d="M -12 12 
L 12 -12 
M -12 -12 
L 12 12 
" id="m8e695fdf90" style="stroke:#00bfbf;"/>
    </defs>
    <g clip-path="url(#p8bd4908dea)">
     <use style="fill:#00bfbf;stroke:#00bfbf;" x="132.422528" xlink:href="#m8e695fdf90" y="191.50004"/>
    </g>
   </g>
   <g id="line2d_34">
    <defs>
     <path d="M 0 1.5 
C 0.397805 1.5 0.77937 1.341951 1.06066 1.06066 
C 1.341951 0.77937 1.5 0.397805 1.5 0 
C 1.5 -0.397805 1.341951 -0.77937 1.06066 -1.06066 
C 0.77937 -1.341951 0.397805 -1.5 0 -1.5 
C -0.397805 -1.5 -0.77937 -1.341951 -1.06066 -1.06066 
C -1.341951 -0.77937 -1.5 -0.397805 -1.5 0 
C -1.5 0.397805 -1.341951 0.77937 -1.06066 1.06066 
C -0.77937 1.341951 -0.397805 1.5 0 1.5 
z
" id="m5aea5f7120" style="stroke:#008000;"/>
    </defs>
    <g>
     <use style="fill:#008000;stroke:#008000;" x="189.442368" xlink:href="#m5aea5f7120" y="30.334099"/>
     <use style="fill:#008000;stroke:#008000;" x="189.442368" xlink:href="#m5aea5f7120" y="30.334099"/>
    </g>
   </g>
   <g id="line2d_35">
    <path d="M 38.440992 298.944 
L 38.440992 288.936964 
L 78.59642 288.936964 
L 78.59642 288.410278 
L 85.66744 288.410278 
L 85.66744 287.883592 
L 97.755429 287.883592 
L 97.755429 287.356906 
L 98.32726 287.356906 
L 98.32726 286.83022 
L 99.41757 286.83022 
L 99.41757 285.250162 
L 101.877879 285.250162 
L 101.877879 282.616732 
L 102.772397 282.616732 
L 102.772397 280.509987 
L 103.203018 280.509987 
L 103.203018 279.456615 
L 103.623262 279.456615 
L 103.623262 277.349871 
L 104.033617 277.349871 
L 104.033617 276.823185 
L 104.434538 276.823185 
L 104.434538 275.769812 
L 104.826449 275.769812 
L 104.826449 274.71644 
L 105.209745 274.71644 
L 105.209745 272.609696 
L 106.66386 272.609696 
L 106.66386 272.08301 
L 110.415248 272.08301 
L 110.415248 271.556324 
L 114.193835 271.556324 
L 114.193835 271.029638 
L 114.418861 271.029638 
L 114.418861 270.502952 
L 115.291007 270.502952 
L 115.291007 269.976266 
L 115.917635 269.976266 
L 115.917635 269.449579 
L 116.121606 269.449579 
L 116.121606 267.342835 
L 117.297733 267.342835 
L 117.297733 266.816149 
L 117.857331 266.816149 
L 117.857331 265.762777 
L 118.399528 265.762777 
L 118.399528 264.709405 
L 119.267333 264.709405 
L 119.267333 263.656033 
L 119.43583 263.656033 
L 119.43583 263.129347 
L 119.931767 263.129347 
L 119.931767 261.022602 
L 120.093994 261.022602 
L 120.093994 260.495916 
L 120.41399 260.495916 
L 120.41399 259.96923 
L 120.571812 259.96923 
L 120.571812 259.442544 
L 121.340187 259.442544 
L 121.340187 258.915858 
L 122.219665 258.915858 
L 122.219665 258.389172 
L 122.362027 258.389172 
L 122.362027 257.862486 
L 122.643312 257.862486 
L 122.643312 257.3358 
L 122.920132 257.3358 
L 122.920132 256.809114 
L 123.192626 256.809114 
L 123.192626 256.282427 
L 123.327293 256.282427 
L 123.327293 255.755741 
L 123.460928 255.755741 
L 123.460928 254.702369 
L 123.985457 254.702369 
L 123.985457 253.122311 
L 124.368753 253.122311 
L 124.368753 251.015567 
L 125.351508 251.015567 
L 125.351508 250.488881 
L 125.706218 250.488881 
L 125.706218 249.962195 
L 125.938745 249.962195 
L 125.938745 249.435508 
L 126.618283 249.435508 
L 126.618283 248.908822 
L 131.856005 248.908822 
L 131.856005 248.382136 
L 132.501978 248.382136 
L 132.501978 247.85545 
L 134.37898 247.85545 
L 134.37898 247.328764 
L 134.661403 247.328764 
L 134.7313 246.275392 
L 134.800918 246.275392 
L 134.800918 245.748706 
L 135.00812 245.748706 
L 135.00812 244.695334 
L 135.144899 244.695334 
L 135.144899 243.641962 
L 135.280614 243.641962 
L 135.280614 243.115275 
L 135.681535 243.115275 
L 135.681535 241.535217 
L 135.813153 241.535217 
L 135.813153 239.955159 
L 136.073445 239.955159 
L 136.073445 239.428473 
L 136.266147 239.428473 
L 136.32991 238.375101 
L 136.519813 238.375101 
L 136.582658 236.795043 
L 136.645276 236.795043 
L 136.707671 235.74167 
L 136.831795 235.74167 
L 136.831795 234.161612 
L 137.077422 234.161612 
L 137.077422 233.634926 
L 137.259399 233.634926 
L 137.319638 232.054868 
L 137.37967 232.054868 
L 137.37967 229.948123 
L 137.558536 229.948123 
L 137.558536 226.261321 
L 137.852629 226.261321 
L 137.852629 223.101204 
L 137.968891 223.101204 
L 137.968891 222.574518 
L 138.141844 222.574518 
L 138.199116 217.307658 
L 138.313099 217.307658 
L 138.313099 216.254285 
L 138.426341 216.254285 
L 138.426341 215.727599 
L 138.538853 215.727599 
L 138.594838 213.620855 
L 138.650644 213.620855 
L 138.761723 207.827308 
L 138.872098 207.827308 
L 138.927025 206.24725 
L 139.090775 206.24725 
L 139.090775 205.720564 
L 139.306744 205.720564 
L 139.360321 204.667192 
L 139.466984 204.667192 
L 139.572998 202.560447 
L 139.783113 202.560447 
L 139.835248 201.507075 
L 139.990725 201.507075 
L 139.990725 200.980389 
L 140.297583 200.980389 
L 140.39868 199.400331 
L 141.709062 199.400331 
L 141.709062 198.873645 
L 141.895083 198.873645 
L 141.895083 198.346959 
L 142.215919 198.346959 
L 142.215919 197.820273 
L 142.396639 197.820273 
L 142.396639 197.293586 
L 142.708461 197.293586 
L 142.708461 196.7669 
L 142.840411 196.7669 
L 142.840411 196.240214 
L 142.971369 196.240214 
L 142.971369 195.713528 
L 143.101352 195.713528 
L 143.101352 195.186842 
L 143.611807 195.186842 
L 143.653678 194.13347 
L 144.350522 194.13347 
L 144.350522 193.606784 
L 144.510517 193.606784 
L 144.589967 192.553412 
L 144.747789 192.553412 
L 144.747789 192.026726 
L 145.059213 192.026726 
L 145.097753 190.973354 
L 145.174578 190.973354 
L 145.251067 189.919981 
L 145.289185 189.919981 
L 145.289185 189.393295 
L 145.703082 189.393295 
L 145.703082 188.866609 
L 145.851187 188.866609 
L 145.851187 188.339923 
L 145.998045 188.339923 
L 145.998045 187.813237 
L 146.288102 187.813237 
L 146.288102 187.286551 
L 146.573414 187.286551 
L 146.573414 186.759865 
L 146.888907 186.759865 
L 146.992815 185.179807 
L 147.50327 185.179807 
L 147.603592 183.599748 
L 147.769524 183.599748 
L 147.86833 182.546376 
L 147.901141 182.546376 
L 147.901141 181.493004 
L 148.258051 181.493004 
L 148.258051 180.966318 
L 148.386046 180.966318 
L 148.48143 179.38626 
L 148.607802 179.38626 
L 148.701984 178.332888 
L 148.76449 178.332888 
L 148.826773 176.752829 
L 149.347388 176.752829 
L 149.437669 174.646085 
L 149.467659 174.646085 
L 149.497598 173.592713 
L 149.587107 173.592713 
L 149.646525 172.012655 
L 149.735275 172.012655 
L 149.823575 170.432596 
L 149.882194 170.432596 
L 149.882194 168.852538 
L 150.05688 168.852538 
L 150.05688 168.325852 
L 150.344189 168.325852 
L 150.344189 167.799166 
L 150.457801 167.799166 
L 150.51433 165.692422 
L 150.849711 165.692422 
L 150.932558 163.585677 
L 150.987572 163.585677 
L 150.987572 163.058991 
L 151.124351 163.058991 
L 151.151579 161.478933 
L 151.68739 161.478933 
L 151.68739 160.952247 
L 151.949246 160.952247 
L 151.949246 160.425561 
L 152.181601 160.425561 
L 152.283884 159.372189 
L 152.637225 159.372189 
L 152.687123 158.318817 
L 152.959038 158.318817 
L 152.959038 157.79213 
L 153.129893 157.79213 
L 153.202607 156.212072 
L 153.395042 156.212072 
L 153.395042 155.685386 
L 153.609024 155.685386 
L 153.679772 154.105328 
L 154.006185 154.105328 
L 154.075343 153.051956 
L 154.371897 153.051956 
L 154.417077 151.471897 
L 154.507086 151.471897 
L 154.507086 150.945211 
L 154.663493 150.945211 
L 154.663493 150.418525 
L 154.796449 150.418525 
L 154.796449 149.891839 
L 155.0376 149.891839 
L 155.0376 149.365153 
L 155.296925 149.365153 
L 155.382516 147.785095 
L 155.425155 147.785095 
L 155.510121 146.205037 
L 155.6368 146.205037 
L 155.699795 145.151665 
L 155.762564 145.151665 
L 155.762564 144.624978 
L 155.970177 144.624978 
L 156.011405 143.04492 
L 156.114049 143.04492 
L 156.114049 142.518234 
L 156.297301 142.518234 
L 156.297301 141.991548 
L 156.578586 141.991548 
L 156.638275 139.884804 
L 156.757045 139.884804 
L 156.757045 138.304745 
L 156.933697 138.304745 
L 156.933697 137.778059 
L 157.108577 137.778059 
L 157.108577 137.251373 
L 157.300853 137.251373 
L 157.358125 135.144629 
L 157.509937 135.144629 
L 157.509937 134.091257 
L 157.622935 134.091257 
L 157.697862 131.984513 
L 157.976006 131.984513 
L 158.049435 130.404454 
L 158.122556 130.404454 
L 158.122556 129.877768 
L 158.267884 129.877768 
L 158.304027 127.771024 
L 158.39406 127.771024 
L 158.48363 126.717652 
L 158.67908 126.717652 
L 158.732007 125.66428 
L 158.854881 125.66428 
L 158.959517 124.610907 
L 158.994256 124.610907 
L 158.994256 124.084221 
L 159.166924 124.084221 
L 159.26971 122.504163 
L 159.439685 122.504163 
L 159.439685 121.977477 
L 159.574482 121.977477 
L 159.6749 119.870733 
L 159.857512 119.870733 
L 159.93989 118.817361 
L 160.217098 118.817361 
L 160.313893 116.710616 
L 160.648508 116.710616 
L 160.648508 116.18393 
L 160.821253 116.18393 
L 160.821253 115.657244 
L 160.976823 115.657244 
L 160.976823 115.130558 
L 161.161694 115.130558 
L 161.238149 114.077186 
L 161.344625 114.077186 
L 161.405178 112.497128 
L 161.585586 112.497128 
L 161.675095 110.917069 
L 161.70483 110.917069 
L 161.808503 109.337011 
L 161.823263 109.337011 
L 161.823263 108.810325 
L 162.188268 108.810325 
L 162.188268 108.283639 
L 162.44642 108.283639 
L 162.517456 106.703581 
L 162.574077 106.703581 
L 162.644595 105.650209 
L 162.854457 105.650209 
L 162.951535 104.07015 
L 163.103002 104.07015 
L 163.19871 100.910034 
L 163.225959 100.910034 
L 163.280329 98.276603 
L 163.482721 98.276603 
L 163.482721 97.749917 
L 163.696049 97.749917 
L 163.696049 97.223231 
L 163.946031 97.223231 
L 163.946031 96.696545 
L 164.102088 96.696545 
L 164.127963 95.643173 
L 164.269589 95.643173 
L 164.371873 93.536429 
L 164.410075 93.536429 
L 164.410075 93.009743 
L 164.524182 93.009743 
L 164.549438 91.95637 
L 164.66264 91.95637 
L 164.66264 91.429684 
L 164.874481 91.429684 
L 164.9363 90.376312 
L 164.997901 90.376312 
L 165.096013 89.32294 
L 165.435121 89.32294 
L 165.518877 87.742882 
L 165.566558 87.742882 
L 165.661531 85.636137 
L 165.943384 85.636137 
L 165.955029 84.582765 
L 166.369174 84.582765 
L 166.369174 84.056079 
L 166.538873 84.056079 
L 166.628709 82.476021 
L 166.818087 82.476021 
L 166.895472 80.895963 
L 167.158215 80.895963 
L 167.234109 79.842591 
L 167.459829 79.842591 
L 167.459829 79.315904 
L 167.640438 79.315904 
L 167.735303 78.262532 
L 167.76681 78.262532 
L 167.76681 77.735846 
L 167.944284 77.735846 
L 167.944284 77.20916 
L 168.11997 77.20916 
L 168.11997 76.682474 
L 168.273531 76.682474 
L 168.334579 75.629102 
L 168.425752 75.629102 
L 168.496336 74.57573 
L 168.546579 74.57573 
L 168.616676 72.468985 
L 168.726264 72.468985 
L 168.815417 71.415613 
L 168.9532 71.415613 
L 169.041203 70.362241 
L 169.16754 70.362241 
L 169.206229 69.308869 
L 169.427043 69.308869 
L 169.474679 67.202125 
L 169.626243 67.202125 
L 169.626243 66.675439 
L 169.934746 66.675439 
L 170.045589 65.622066 
L 170.219663 65.622066 
L 170.219663 65.09538 
L 170.464079 65.09538 
L 170.464079 64.568694 
L 170.678499 64.568694 
L 170.678499 64.042008 
L 171.108254 64.042008 
L 171.116915 62.988636 
L 171.237722 62.988636 
L 171.237722 62.46195 
L 171.357698 62.46195 
L 171.357698 61.935264 
L 171.595202 61.935264 
L 171.595202 61.408578 
L 171.8212 61.408578 
L 171.8212 60.881892 
L 171.953756 60.881892 
L 171.978498 59.301833 
L 172.296995 59.301833 
L 172.296995 58.775147 
L 172.791647 58.775147 
L 172.791647 58.248461 
L 172.97942 58.248461 
L 173.00275 57.195089 
L 173.118935 57.195089 
L 173.118935 56.668403 
L 173.356625 56.668403 
L 173.409852 55.088345 
L 173.681051 55.088345 
L 173.785389 54.034973 
L 173.837325 54.034973 
L 173.925999 52.9816 
L 174.123884 52.9816 
L 174.123884 52.454914 
L 174.362732 52.454914 
L 174.362732 51.928228 
L 174.997985 51.928228 
L 175.039523 49.821484 
L 175.23891 49.821484 
L 175.23891 49.294798 
L 175.6777 49.294798 
L 175.77078 48.241426 
L 175.896315 48.241426 
L 175.896315 47.71474 
L 176.066647 47.71474 
L 176.066647 47.188054 
L 176.196549 47.188054 
L 176.28047 45.607995 
L 176.618488 45.607995 
L 176.618488 45.081309 
L 176.881775 45.081309 
L 176.981038 44.027937 
L 177.018116 44.027937 
L 177.018116 43.501251 
L 177.684281 43.501251 
L 177.684281 42.974565 
L 177.914487 42.974565 
L 178.019719 41.921193 
L 178.14748 41.921193 
L 178.182162 40.867821 
L 178.468527 40.867821 
L 178.496907 39.814448 
L 178.722297 39.814448 
L 178.722297 39.287762 
L 179.611776 39.287762 
L 179.701984 38.23439 
L 179.823292 38.23439 
L 179.823292 37.707704 
L 180.05822 37.707704 
L 180.084129 36.654332 
L 180.634567 36.654332 
L 180.634567 36.127646 
L 180.997019 36.127646 
L 181.041188 35.074274 
L 181.827047 35.074274 
L 181.873839 34.020902 
L 184.058243 34.020902 
L 184.058243 33.494215 
L 184.737466 33.494215 
L 184.737466 32.967529 
L 185.005042 32.967529 
L 185.005042 32.440843 
L 185.1528 32.440843 
L 185.1528 31.914157 
L 185.88452 31.914157 
L 185.88452 31.387471 
L 189.059744 31.387471 
L 189.059744 30.860785 
L 189.442368 30.860785 
L 189.442368 30.334099 
L 338.688 30.334099 
L 338.688 30.334099 
" style="fill:none;stroke:#008000;stroke-linecap:square;stroke-width:1.5;"/>
   </g>
   <g id="line2d_36">
    <defs>
     <path d="M -0 6 
L 6 -6 
L -6 -6 
z
" id="md5ce5b34b0" style="stroke:#008000;stroke-linejoin:miter;stroke-width:1.5;"/>
    </defs>
    <g>
     <use style="fill-opacity:0;stroke:#008000;stroke-linejoin:miter;stroke-width:1.5;" x="118.399528" xlink:href="#md5ce5b34b0" y="265.762777"/>
     <use style="fill-opacity:0;stroke:#008000;stroke-linejoin:miter;stroke-width:1.5;" x="157.358125" xlink:href="#md5ce5b34b0" y="135.144629"/>
     <use style="fill-opacity:0;stroke:#008000;stroke-linejoin:miter;stroke-width:1.5;" x="181.873839" xlink:href="#md5ce5b34b0" y="34.547588"/>
     <use style="fill-opacity:0;stroke:#008000;stroke-linejoin:miter;stroke-width:1.5;" x="189.442368" xlink:href="#md5ce5b34b0" y="30.334099"/>
     <use style="fill-opacity:0;stroke:#008000;stroke-linejoin:miter;stroke-width:1.5;" x="189.442368" xlink:href="#md5ce5b34b0" y="30.334099"/>
     <use style="fill-opacity:0;stroke:#008000;stroke-linejoin:miter;stroke-width:1.5;" x="338.688" xlink:href="#md5ce5b34b0" y="30.334099"/>
    </g>
   </g>
   <g id="line2d_37">
    <path style="fill:none;stroke:#008000;stroke-linecap:square;stroke-width:1.5;"/>
    <g/>
   </g>
   <g id="line2d_38">
    <path clip-path="url(#p8bd4908dea)" d="M 138.026733 222.574518 
" style="fill:none;stroke:#008000;stroke-linecap:square;stroke-width:1.5;"/>
    <defs>
     <path d="M -12 12 
L 12 -12 
M -12 -12 
L 12 12 
" id="mcff84973ee" style="stroke:#008000;"/>
    </defs>
    <g clip-path="url(#p8bd4908dea)">
     <use style="fill:#008000;stroke:#008000;" x="138.026733" xlink:href="#mcff84973ee" y="222.574518"/>
    </g>
   </g>
   <g id="line2d_39">
    <defs>
     <path d="M 0 1.5 
C 0.397805 1.5 0.77937 1.341951 1.06066 1.06066 
C 1.341951 0.77937 1.5 0.397805 1.5 0 
C 1.5 -0.397805 1.341951 -0.77937 1.06066 -1.06066 
C 0.77937 -1.341951 0.397805 -1.5 0 -1.5 
C -0.397805 -1.5 -0.77937 -1.341951 -1.06066 -1.06066 
C -1.341951 -0.77937 -1.5 -0.397805 -1.5 0 
C -1.5 0.397805 -1.341951 0.77937 -1.06066 1.06066 
C -0.77937 1.341951 -0.397805 1.5 0 1.5 
z
" id="m4f632a609e" style="stroke:#0000ff;"/>
    </defs>
    <g>
     <use style="fill:#0000ff;stroke:#0000ff;" x="206.814353" xlink:href="#m4f632a609e" y="162.005619"/>
     <use style="fill:#0000ff;stroke:#0000ff;" x="206.814353" xlink:href="#m4f632a609e" y="162.005619"/>
    </g>
   </g>
   <g id="line2d_40">
    <path d="M 29.53256 298.944 
L 29.53256 291.043709 
L 89.972502 291.043709 
L 89.972502 290.517023 
L 91.535274 290.517023 
L 91.535274 289.990337 
L 97.043522 289.990337 
L 97.043522 289.463651 
L 97.403108 289.463651 
L 97.403108 288.936964 
L 98.100772 288.936964 
L 98.100772 288.410278 
L 100.040467 288.410278 
L 100.040467 287.356906 
L 100.934985 287.356906 
L 100.934985 285.250162 
L 101.506816 285.250162 
L 101.506816 284.723476 
L 102.060491 284.723476 
L 102.060491 284.19679 
L 102.859376 284.19679 
L 102.859376 283.143418 
L 103.117741 283.143418 
L 103.117741 282.616732 
L 103.372333 282.616732 
L 103.372333 282.090045 
L 103.623262 282.090045 
L 103.623262 281.563359 
L 103.870632 281.563359 
L 103.870632 280.509987 
L 104.592361 280.509987 
L 104.592361 279.983301 
L 107.811151 279.983301 
L 107.811151 279.456615 
L 116.914437 279.456615 
L 116.914437 278.929929 
L 119.996839 278.929929 
L 119.996839 278.403243 
L 123.514096 278.403243 
L 123.514096 277.876557 
L 124.062793 277.876557 
L 124.062793 277.349871 
L 126.773103 277.349871 
L 126.773103 276.823185 
L 128.229861 276.823185 
L 128.229861 276.296499 
L 128.650105 276.296499 
L 128.650105 275.769812 
L 130.822389 275.769812 
L 130.822389 275.243126 
L 131.185181 275.243126 
L 131.185181 274.71644 
L 131.338382 274.71644 
L 131.338382 274.189754 
L 132.181982 274.189754 
L 132.181982 273.663068 
L 132.422528 273.663068 
L 132.422528 273.136382 
L 133.711505 273.136382 
L 133.711505 272.609696 
L 135.401861 272.609696 
L 135.401861 272.08301 
L 135.956794 272.08301 
L 135.956794 271.556324 
L 136.494612 271.556324 
L 136.570107 270.502952 
L 136.68274 270.502952 
L 136.68274 269.976266 
L 136.831795 269.976266 
L 136.831795 269.449579 
L 137.198951 269.449579 
L 137.198951 268.922893 
L 137.37967 268.922893 
L 137.415591 267.869521 
L 137.558536 267.869521 
L 137.558536 267.342835 
L 137.910857 267.342835 
L 137.910857 266.816149 
L 138.153314 266.816149 
L 138.187677 265.762777 
L 138.324456 265.762777 
L 138.426341 263.656033 
L 138.728473 263.656033 
L 138.761723 260.495916 
L 140.973763 260.495916 
L 140.973763 259.96923 
L 141.177393 259.96923 
L 141.177393 259.442544 
L 141.350061 259.442544 
L 141.407239 257.3358 
L 141.80232 257.3358 
L 141.80232 256.809114 
L 142.051655 256.809114 
L 142.161336 255.229055 
L 145.463466 255.229055 
L 145.531191 254.175683 
L 145.688202 254.175683 
L 145.688202 253.648997 
L 146.107383 253.648997 
L 146.107383 253.122311 
L 146.791364 253.122311 
L 146.791364 252.595625 
L 148.882639 252.595625 
L 148.882639 252.068939 
L 149.141003 252.068939 
L 149.141003 251.542253 
L 150.54816 251.542253 
L 150.56505 250.488881 
L 150.699587 250.488881 
L 150.699587 249.962195 
L 150.982078 249.962195 
L 151.0643 247.328764 
L 151.113448 247.328764 
L 151.113448 246.802078 
L 153.806399 246.802078 
L 153.806399 246.275392 
L 154.098334 246.275392 
L 154.098334 245.748706 
L 154.221969 245.748706 
L 154.317527 244.695334 
L 154.880133 244.695334 
L 154.906477 243.641962 
L 155.245367 243.641962 
L 155.245367 243.115275 
L 155.590458 243.115275 
L 155.590458 242.588589 
L 156.382164 242.588589 
L 156.382164 242.061903 
L 156.598505 242.061903 
L 156.705677 240.481845 
L 156.835778 240.481845 
L 156.835778 239.955159 
L 157.243392 239.955159 
L 157.2549 238.901787 
L 157.358125 238.901787 
L 157.358125 238.375101 
L 157.84305 238.375101 
L 157.953917 237.321729 
L 158.151718 237.321729 
L 158.151718 236.795043 
L 158.28235 236.795043 
L 158.304027 235.74167 
L 158.455018 235.74167 
L 158.562073 232.581554 
L 158.83738 232.581554 
L 158.83738 232.054868 
L 160.566247 232.054868 
L 160.566247 231.528182 
L 161.338558 231.528182 
L 161.338558 231.001496 
L 161.88512 231.001496 
L 161.88512 230.47481 
L 162.440724 230.47481 
L 162.440724 229.948123 
L 162.602318 229.948123 
L 162.619242 228.894751 
L 162.871137 228.894751 
L 162.887802 227.841379 
L 163.135875 227.841379 
L 163.135875 227.314693 
L 163.315579 227.314693 
L 163.315579 226.788007 
L 163.89108 226.788007 
L 163.89108 226.261321 
L 164.417705 226.261321 
L 164.417705 225.734635 
L 164.592289 225.734635 
L 164.660132 224.681263 
L 165.468672 224.681263 
L 165.468672 224.154577 
L 165.922402 224.154577 
L 165.922402 223.627891 
L 166.047915 223.627891 
L 166.144916 222.047832 
L 166.330478 222.047832 
L 166.330478 221.521146 
L 166.702476 221.521146 
L 166.702476 220.99446 
L 167.506754 220.99446 
L 167.506754 220.467774 
L 167.785687 220.467774 
L 167.848464 219.414402 
L 167.954668 219.414402 
L 167.960895 218.36103 
L 168.644637 218.36103 
L 168.644637 217.834344 
L 168.829244 217.834344 
L 168.829244 217.307658 
L 169.256398 217.307658 
L 169.36588 216.254285 
L 169.588476 216.254285 
L 169.588476 215.727599 
L 169.847424 215.727599 
L 169.847424 215.200913 
L 170.499999 215.200913 
L 170.499999 214.674227 
L 170.612667 214.674227 
L 170.612667 214.147541 
L 170.788258 214.147541 
L 170.788258 213.620855 
L 171.108254 213.620855 
L 171.18605 211.514111 
L 171.268652 211.514111 
L 171.371357 209.934052 
L 171.590146 209.934052 
L 171.696007 208.88068 
L 171.876001 208.88068 
L 171.876001 208.353994 
L 172.147455 208.353994 
L 172.147455 207.827308 
L 172.496543 207.827308 
L 172.496543 207.300622 
L 172.848191 207.300622 
L 172.848191 206.773936 
L 173.00275 206.773936 
L 173.00275 206.24725 
L 173.257343 206.24725 
L 173.257343 205.720564 
L 173.630147 205.720564 
L 173.630147 205.193878 
L 173.880241 205.193878 
L 173.880241 204.667192 
L 174.261802 204.667192 
L 174.261802 204.140506 
L 174.425876 204.140506 
L 174.425876 203.613819 
L 174.626698 203.613819 
L 174.626698 203.087133 
L 174.778971 203.087133 
L 174.778971 202.560447 
L 175.000757 202.560447 
L 175.000757 202.033761 
L 175.260772 202.033761 
L 175.260772 201.507075 
L 175.431987 201.507075 
L 175.516968 200.453703 
L 175.939711 200.453703 
L 175.947589 199.400331 
L 176.570418 199.400331 
L 176.570418 198.873645 
L 176.826938 198.873645 
L 176.879286 197.820273 
L 177.869864 197.820273 
L 177.883967 196.7669 
L 178.083716 196.7669 
L 178.177541 195.713528 
L 178.270865 195.713528 
L 178.322496 194.660156 
L 178.483291 194.660156 
L 178.541087 193.080098 
L 178.642617 193.080098 
L 178.720057 192.026726 
L 178.767027 192.026726 
L 178.767027 191.50004 
L 179.772761 191.50004 
L 179.820138 190.446667 
L 179.898814 190.446667 
L 179.898814 189.919981 
L 180.345204 189.919981 
L 180.348265 188.866609 
L 181.114555 188.866609 
L 181.114555 188.339923 
L 181.248749 188.339923 
L 181.248749 187.813237 
L 181.545534 187.813237 
L 181.545534 187.286551 
L 182.002336 187.286551 
L 182.002336 186.759865 
L 182.118839 186.759865 
L 182.118839 186.233179 
L 182.270235 186.233179 
L 182.29762 185.179807 
L 182.681928 185.179807 
L 182.716692 184.126434 
L 182.793992 184.126434 
L 182.825879 183.073062 
L 183.515577 183.073062 
L 183.607202 182.01969 
L 183.988843 182.01969 
L 183.988843 181.493004 
L 184.223196 181.493004 
L 184.223196 180.439632 
L 184.422977 180.439632 
L 184.422977 179.912946 
L 184.685046 179.912946 
L 184.685046 179.38626 
L 184.983161 179.38626 
L 185.058068 178.332888 
L 185.111709 178.332888 
L 185.111709 177.806202 
L 185.407258 177.806202 
L 185.509984 176.226143 
L 185.609844 176.226143 
L 185.609844 175.699457 
L 185.832462 175.699457 
L 185.832462 175.172771 
L 186.317224 175.172771 
L 186.317224 174.646085 
L 186.693433 174.646085 
L 186.693433 174.119399 
L 187.528087 174.119399 
L 187.528087 173.592713 
L 187.743675 173.592713 
L 187.743675 173.066027 
L 188.582236 173.066027 
L 188.582236 172.539341 
L 189.416917 172.539341 
L 189.416917 172.012655 
L 190.073868 172.012655 
L 190.100128 170.959282 
L 190.475665 170.959282 
L 190.542309 169.90591 
L 190.742412 169.90591 
L 190.742412 169.379224 
L 191.122665 169.379224 
L 191.122665 168.852538 
L 191.857587 168.852538 
L 191.857587 168.325852 
L 192.81762 168.325852 
L 192.81762 167.799166 
L 193.21279 167.799166 
L 193.21279 167.27248 
L 194.710927 167.27248 
L 194.710927 166.745794 
L 195.408539 166.745794 
L 195.408539 166.219108 
L 195.952211 166.219108 
L 195.952211 165.692422 
L 196.894315 165.692422 
L 196.894315 165.165736 
L 197.125021 165.165736 
L 197.125021 164.63905 
L 198.624401 164.63905 
L 198.624401 164.112363 
L 198.927552 164.112363 
L 198.927552 163.585677 
L 201.025369 163.585677 
L 201.025369 163.058991 
L 205.297852 163.058991 
L 205.297852 162.532305 
L 206.814353 162.532305 
L 206.814353 162.005619 
L 338.688 162.005619 
L 338.688 162.005619 
" style="fill:none;stroke:#0000ff;stroke-linecap:square;stroke-width:1.5;"/>
   </g>
   <g id="line2d_41">
    <defs>
     <path d="M 0 -6 
L -1.347084 -1.854102 
L -5.706339 -1.854102 
L -2.179628 0.708204 
L -3.526712 4.854102 
L -0 2.291796 
L 3.526712 4.854102 
L 2.179628 0.708204 
L 5.706339 -1.854102 
L 1.347084 -1.854102 
z
" id="m33ce703f22" style="stroke:#0000ff;stroke-linejoin:bevel;stroke-width:1.5;"/>
    </defs>
    <g>
     <use style="fill-opacity:0;stroke:#0000ff;stroke-linejoin:bevel;stroke-width:1.5;" x="137.558536" xlink:href="#m33ce703f22" y="267.869521"/>
     <use style="fill-opacity:0;stroke:#0000ff;stroke-linejoin:bevel;stroke-width:1.5;" x="190.100128" xlink:href="#m33ce703f22" y="170.959282"/>
     <use style="fill-opacity:0;stroke:#0000ff;stroke-linejoin:bevel;stroke-width:1.5;" x="206.814353" xlink:href="#m33ce703f22" y="162.532305"/>
     <use style="fill-opacity:0;stroke:#0000ff;stroke-linejoin:bevel;stroke-width:1.5;" x="206.814353" xlink:href="#m33ce703f22" y="162.005619"/>
     <use style="fill-opacity:0;stroke:#0000ff;stroke-linejoin:bevel;stroke-width:1.5;" x="206.814353" xlink:href="#m33ce703f22" y="162.005619"/>
     <use style="fill-opacity:0;stroke:#0000ff;stroke-linejoin:bevel;stroke-width:1.5;" x="338.688" xlink:href="#m33ce703f22" y="162.005619"/>
    </g>
   </g>
   <g id="line2d_42">
    <path style="fill:none;stroke:#0000ff;stroke-linecap:square;stroke-width:1.5;"/>
    <g/>
   </g>
   <g id="line2d_43">
    <path clip-path="url(#p8bd4908dea)" d="M 147.205618 252.595625 
" style="fill:none;stroke:#0000ff;stroke-linecap:square;stroke-width:1.5;"/>
    <defs>
     <path d="M -12 12 
L 12 -12 
M -12 -12 
L 12 12 
" id="mba6cf69cce" style="stroke:#0000ff;"/>
    </defs>
    <g clip-path="url(#p8bd4908dea)">
     <use style="fill:#0000ff;stroke:#0000ff;" x="147.205618" xlink:href="#mba6cf69cce" y="252.595625"/>
    </g>
   </g>
   <g id="line2d_44">
    <defs>
     <path d="M 0 1.5 
C 0.397805 1.5 0.77937 1.341951 1.06066 1.06066 
C 1.341951 0.77937 1.5 0.397805 1.5 0 
C 1.5 -0.397805 1.341951 -0.77937 1.06066 -1.06066 
C 0.77937 -1.341951 0.397805 -1.5 0 -1.5 
C -0.397805 -1.5 -0.77937 -1.341951 -1.06066 -1.06066 
C -1.341951 -0.77937 -1.5 -0.397805 -1.5 0 
C -1.5 0.397805 -1.341951 0.77937 -1.06066 1.06066 
C -0.77937 1.341951 -0.397805 1.5 0 1.5 
z
" id="mb06df4c98c" style="stroke:#000000;"/>
    </defs>
    <g>
     <use style="stroke:#000000;" x="215.986842" xlink:href="#mb06df4c98c" y="267.342835"/>
     <use style="stroke:#000000;" x="215.986842" xlink:href="#mb06df4c98c" y="267.342835"/>
    </g>
   </g>
   <g id="line2d_45">
    <path d="M 17.444571 298.944 
L 17.444571 293.677139 
L 106.698704 293.677139 
L 106.698704 293.150453 
L 106.802819 293.150453 
L 106.802819 292.623767 
L 107.90885 292.623767 
L 107.90885 292.097081 
L 108.198707 292.097081 
L 108.198707 291.043709 
L 119.502775 291.043709 
L 119.502775 290.517023 
L 120.759333 290.517023 
L 120.759333 289.990337 
L 122.276749 289.990337 
L 122.276749 289.463651 
L 126.740043 289.463651 
L 126.740043 288.936964 
L 136.942755 288.936964 
L 136.942755 288.410278 
L 137.361683 288.410278 
L 137.361683 287.883592 
L 139.333553 287.883592 
L 139.333553 287.356906 
L 141.321401 287.356906 
L 141.321401 286.83022 
L 142.051655 286.83022 
L 142.051655 286.303534 
L 142.392144 286.303534 
L 142.392144 285.776848 
L 144.282077 285.776848 
L 144.282077 285.250162 
L 145.005114 285.250162 
L 145.005114 284.723476 
L 148.161434 284.723476 
L 148.161434 284.19679 
L 148.61095 284.19679 
L 148.61095 283.670104 
L 149.177602 283.670104 
L 149.177602 283.143418 
L 149.690956 283.143418 
L 149.690956 282.616732 
L 151.525705 282.616732 
L 151.525705 282.090045 
L 152.988446 282.090045 
L 152.988446 281.563359 
L 155.457066 281.563359 
L 155.457066 281.036673 
L 155.966049 281.036673 
L 155.966049 280.509987 
L 158.222599 280.509987 
L 158.222599 279.983301 
L 158.694975 279.983301 
L 158.694975 279.456615 
L 159.144574 279.456615 
L 159.144574 278.929929 
L 159.46166 278.929929 
L 159.46166 278.403243 
L 161.411222 278.403243 
L 161.411222 277.876557 
L 161.933569 277.876557 
L 161.933569 277.349871 
L 166.275702 277.349871 
L 166.275702 276.823185 
L 166.971417 276.823185 
L 166.971417 276.296499 
L 167.252491 276.296499 
L 167.252491 275.769812 
L 169.678981 275.769812 
L 169.678981 275.243126 
L 170.626031 275.243126 
L 170.626031 274.189754 
L 171.716099 274.189754 
L 171.716099 273.663068 
L 181.196361 273.663068 
L 181.196361 273.136382 
L 183.891716 273.136382 
L 183.891716 272.609696 
L 185.476949 272.609696 
L 185.476949 272.08301 
L 185.644887 272.08301 
L 185.644887 271.556324 
L 187.61908 271.556324 
L 187.61908 271.029638 
L 187.766688 271.029638 
L 187.766688 270.502952 
L 188.287773 270.502952 
L 188.287773 269.976266 
L 191.791824 269.976266 
L 191.791824 269.449579 
L 199.391115 269.449579 
L 199.391115 268.922893 
L 204.667475 268.922893 
L 204.667475 268.396207 
L 213.883584 268.396207 
L 213.883584 267.869521 
L 215.986842 267.869521 
L 215.986842 267.342835 
L 338.688 267.342835 
" style="fill:none;stroke:#000000;stroke-linecap:square;stroke-width:1.5;"/>
   </g>
   <g id="line2d_46">
    <defs>
     <path d="M 0 6 
C 1.591219 6 3.117479 5.367802 4.242641 4.242641 
C 5.367802 3.117479 6 1.591219 6 0 
C 6 -1.591219 5.367802 -3.117479 4.242641 -4.242641 
C 3.117479 -5.367802 1.591219 -6 0 -6 
C -1.591219 -6 -3.117479 -5.367802 -4.242641 -4.242641 
C -5.367802 -3.117479 -6 -1.591219 -6 0 
C -6 1.591219 -5.367802 3.117479 -4.242641 4.242641 
C -3.117479 5.367802 -1.591219 6 0 6 
z
" id="mfccaf97ee3" style="stroke:#000000;stroke-width:1.5;"/>
    </defs>
    <g>
     <use style="fill-opacity:0;stroke:#000000;stroke-width:1.5;" x="161.933569" xlink:href="#mfccaf97ee3" y="277.876557"/>
     <use style="fill-opacity:0;stroke:#000000;stroke-width:1.5;" x="204.667475" xlink:href="#mfccaf97ee3" y="268.396207"/>
     <use style="fill-opacity:0;stroke:#000000;stroke-width:1.5;" x="215.986842" xlink:href="#mfccaf97ee3" y="267.342835"/>
     <use style="fill-opacity:0;stroke:#000000;stroke-width:1.5;" x="215.986842" xlink:href="#mfccaf97ee3" y="267.342835"/>
     <use style="fill-opacity:0;stroke:#000000;stroke-width:1.5;" x="338.688" xlink:href="#mfccaf97ee3" y="267.342835"/>
    </g>
   </g>
   <g id="line2d_47">
    <path style="fill:none;stroke:#000000;stroke-linecap:square;stroke-width:1.5;"/>
    <g/>
   </g>
   <g id="line2d_48">
    <path clip-path="url(#p8bd4908dea)" d="M 149.998846 282.616732 
" style="fill:none;stroke:#000000;stroke-linecap:square;stroke-width:1.5;"/>
    <defs>
     <path d="M -12 12 
L 12 -12 
M -12 -12 
L 12 12 
" id="m812b2bba40" style="stroke:#000000;"/>
    </defs>
    <g clip-path="url(#p8bd4908dea)">
     <use style="stroke:#000000;" x="149.998846" xlink:href="#m812b2bba40" y="282.616732"/>
    </g>
   </g>
   <g id="line2d_49">
    <defs>
     <path d="M 0 1.5 
C 0.397805 1.5 0.77937 1.341951 1.06066 1.06066 
C 1.341951 0.77937 1.5 0.397805 1.5 0 
C 1.5 -0.397805 1.341951 -0.77937 1.06066 -1.06066 
C 0.77937 -1.341951 0.397805 -1.5 0 -1.5 
C -0.397805 -1.5 -0.77937 -1.341951 -1.06066 -1.06066 
C -1.341951 -0.77937 -1.5 -0.397805 -1.5 0 
C -1.5 0.397805 -1.341951 0.77937 -1.06066 1.06066 
C -0.77937 1.341951 -0.397805 1.5 0 1.5 
z
" id="mec673d91a6" style="stroke:#ff0000;"/>
    </defs>
    <g>
     <use style="fill:#ff0000;stroke:#ff0000;" x="185.407831" xlink:href="#mec673d91a6" y="288.410278"/>
     <use style="fill:#ff0000;stroke:#ff0000;" x="185.407831" xlink:href="#mec673d91a6" y="288.410278"/>
    </g>
   </g>
   <g id="line2d_50">
    <path d="M 5.356583 298.944 
L 5.356583 293.677139 
L 114.485807 293.677139 
L 114.485807 293.150453 
L 132.893889 293.150453 
L 132.893889 292.623767 
L 140.966446 292.623767 
L 140.966446 292.097081 
L 155.55245 292.097081 
L 155.55245 291.570395 
L 158.148986 291.570395 
L 158.148986 291.043709 
L 163.189163 291.043709 
L 163.189163 290.517023 
L 176.677445 290.517023 
L 176.677445 289.990337 
L 180.096293 289.990337 
L 180.096293 289.463651 
L 185.363129 289.463651 
L 185.363129 288.936964 
L 185.407831 288.936964 
L 185.407831 288.410278 
L 338.688 288.410278 
" style="fill:none;stroke:#ff0000;stroke-linecap:square;stroke-width:1.5;"/>
   </g>
   <g id="line2d_51">
    <defs>
     <path d="M -6 6 
L 6 6 
L 6 -6 
L -6 -6 
z
" id="m96a99cb6b4" style="stroke:#ff0000;stroke-linejoin:miter;stroke-width:1.5;"/>
    </defs>
    <g>
     <use style="fill-opacity:0;stroke:#ff0000;stroke-linejoin:miter;stroke-width:1.5;" x="163.189163" xlink:href="#m96a99cb6b4" y="291.043709"/>
     <use style="fill-opacity:0;stroke:#ff0000;stroke-linejoin:miter;stroke-width:1.5;" x="185.407831" xlink:href="#m96a99cb6b4" y="288.936964"/>
     <use style="fill-opacity:0;stroke:#ff0000;stroke-linejoin:miter;stroke-width:1.5;" x="185.407831" xlink:href="#m96a99cb6b4" y="288.410278"/>
     <use style="fill-opacity:0;stroke:#ff0000;stroke-linejoin:miter;stroke-width:1.5;" x="185.407831" xlink:href="#m96a99cb6b4" y="288.410278"/>
     <use style="fill-opacity:0;stroke:#ff0000;stroke-linejoin:miter;stroke-width:1.5;" x="338.688" xlink:href="#m96a99cb6b4" y="288.410278"/>
    </g>
   </g>
   <g id="line2d_52">
    <path style="fill:none;stroke:#ff0000;stroke-linecap:square;stroke-width:1.5;"/>
    <g/>
   </g>
   <g id="line2d_53">
    <path clip-path="url(#p8bd4908dea)" d="M 149.998846 292.097081 
" style="fill:none;stroke:#ff0000;stroke-linecap:square;stroke-width:1.5;"/>
    <defs>
     <path d="M -12 12 
L 12 -12 
M -12 -12 
L 12 12 
" id="m1a19841047" style="stroke:#ff0000;"/>
    </defs>
    <g clip-path="url(#p8bd4908dea)">
     <use style="fill:#ff0000;stroke:#ff0000;" x="149.998846" xlink:href="#m1a19841047" y="292.097081"/>
    </g>
   </g>
   <g id="line2d_54">
    <defs>
     <path d="M 0 1.5 
C 0.397805 1.5 0.77937 1.341951 1.06066 1.06066 
C 1.341951 0.77937 1.5 0.397805 1.5 0 
C 1.5 -0.397805 1.341951 -0.77937 1.06066 -1.06066 
C 0.77937 -1.341951 0.397805 -1.5 0 -1.5 
C -0.397805 -1.5 -0.77937 -1.341951 -1.06066 -1.06066 
C -1.341951 -0.77937 -1.5 -0.397805 -1.5 0 
C -1.5 0.397805 -1.341951 0.77937 -1.06066 1.06066 
C -0.77937 1.341951 -0.397805 1.5 0 1.5 
z
" id="mb79f51278b" style="stroke:#bf00bf;"/>
    </defs>
    <g>
     <use style="fill:#bf00bf;stroke:#bf00bf;" x="209.100907" xlink:href="#mb79f51278b" y="288.410278"/>
     <use style="fill:#bf00bf;stroke:#bf00bf;" x="209.100907" xlink:href="#mb79f51278b" y="288.410278"/>
    </g>
   </g>
   <g id="line2d_55">
    <path d="M -1 293.677139 
L 166.905396 293.677139 
L 166.905396 293.150453 
L 172.513336 293.150453 
L 172.513336 292.623767 
L 176.750001 292.623767 
L 176.750001 292.097081 
L 187.59789 292.097081 
L 187.59789 291.570395 
L 189.508548 291.570395 
L 189.508548 291.043709 
L 191.230594 291.043709 
L 191.230594 290.517023 
L 195.563328 290.517023 
L 195.563328 289.990337 
L 205.155943 289.990337 
L 205.155943 289.463651 
L 207.882215 289.463651 
L 207.882215 288.936964 
L 209.100907 288.936964 
L 209.100907 288.410278 
L 338.688 288.410278 
" style="fill:none;stroke:#bf00bf;stroke-linecap:square;stroke-width:1.5;"/>
   </g>
   <g id="line2d_56">
    <defs>
     <path d="M -0 8.485281 
L 8.485281 0 
L 0 -8.485281 
L -8.485281 -0 
z
" id="m329fa4fd42" style="stroke:#bf00bf;stroke-linejoin:miter;stroke-width:1.5;"/>
    </defs>
    <g>
     <use style="fill-opacity:0;stroke:#bf00bf;stroke-linejoin:miter;stroke-width:1.5;" x="176.750001" xlink:href="#m329fa4fd42" y="292.623767"/>
     <use style="fill-opacity:0;stroke:#bf00bf;stroke-linejoin:miter;stroke-width:1.5;" x="209.100907" xlink:href="#m329fa4fd42" y="288.936964"/>
     <use style="fill-opacity:0;stroke:#bf00bf;stroke-linejoin:miter;stroke-width:1.5;" x="209.100907" xlink:href="#m329fa4fd42" y="288.410278"/>
     <use style="fill-opacity:0;stroke:#bf00bf;stroke-linejoin:miter;stroke-width:1.5;" x="338.688" xlink:href="#m329fa4fd42" y="288.410278"/>
    </g>
   </g>
   <g id="line2d_57">
    <path style="fill:none;stroke:#bf00bf;stroke-linecap:square;stroke-width:1.5;"/>
    <g/>
   </g>
   <g id="line2d_58">
    <path clip-path="url(#p8bd4908dea)" d="M 149.998846 293.677139 
" style="fill:none;stroke:#bf00bf;stroke-linecap:square;stroke-width:1.5;"/>
    <defs>
     <path d="M -12 12 
L 12 -12 
M -12 -12 
L 12 12 
" id="mfdd5c68f39" style="stroke:#bf00bf;"/>
    </defs>
    <g clip-path="url(#p8bd4908dea)">
     <use style="fill:#bf00bf;stroke:#bf00bf;" x="149.998846" xlink:href="#mfdd5c68f39" y="293.677139"/>
    </g>
   </g>
   <g id="line2d_59">
    <path d="M 338.688 288.410278 
L 369.60768 293.571802 
" style="fill:none;stroke:#bf00bf;stroke-linecap:square;stroke-width:1.5;"/>
    <g>
     <use style="fill-opacity:0;stroke:#bf00bf;stroke-linejoin:miter;stroke-width:1.5;" x="338.688" xlink:href="#m329fa4fd42" y="288.410278"/>
     <use style="fill-opacity:0;stroke:#bf00bf;stroke-linejoin:miter;stroke-width:1.5;" x="369.60768" xlink:href="#m329fa4fd42" y="293.571802"/>
    </g>
   </g>
   <g id="line2d_60">
    <path d="M 338.688 288.410278 
L 369.60768 241.998701 
" style="fill:none;stroke:#ff0000;stroke-linecap:square;stroke-width:1.5;"/>
    <g>
     <use style="fill-opacity:0;stroke:#ff0000;stroke-linejoin:miter;stroke-width:1.5;" x="338.688" xlink:href="#m96a99cb6b4" y="288.410278"/>
     <use style="fill-opacity:0;stroke:#ff0000;stroke-linejoin:miter;stroke-width:1.5;" x="369.60768" xlink:href="#m96a99cb6b4" y="241.998701"/>
    </g>
   </g>
   <g id="line2d_61">
    <path d="M 338.688 267.342835 
L 369.60768 190.4256 
" style="fill:none;stroke:#000000;stroke-linecap:square;stroke-width:1.5;"/>
    <g>
     <use style="fill-opacity:0;stroke:#000000;stroke-width:1.5;" x="338.688" xlink:href="#mfccaf97ee3" y="267.342835"/>
     <use style="fill-opacity:0;stroke:#000000;stroke-width:1.5;" x="369.60768" xlink:href="#mfccaf97ee3" y="190.4256"/>
    </g>
   </g>
   <g id="line2d_62">
    <path d="M 338.688 162.005619 
L 369.60768 138.852499 
" style="fill:none;stroke:#0000ff;stroke-linecap:square;stroke-width:1.5;"/>
    <g>
     <use style="fill-opacity:0;stroke:#0000ff;stroke-linejoin:bevel;stroke-width:1.5;" x="338.688" xlink:href="#m33ce703f22" y="162.005619"/>
     <use style="fill-opacity:0;stroke:#0000ff;stroke-linejoin:bevel;stroke-width:1.5;" x="369.60768" xlink:href="#m33ce703f22" y="138.852499"/>
    </g>
   </g>
   <g id="line2d_63">
    <path d="M 338.688 30.334099 
L 369.60768 87.279398 
" style="fill:none;stroke:#008000;stroke-linecap:square;stroke-width:1.5;"/>
    <g>
     <use style="fill-opacity:0;stroke:#008000;stroke-linejoin:miter;stroke-width:1.5;" x="338.688" xlink:href="#md5ce5b34b0" y="30.334099"/>
     <use style="fill-opacity:0;stroke:#008000;stroke-linejoin:miter;stroke-width:1.5;" x="369.60768" xlink:href="#md5ce5b34b0" y="87.279398"/>
    </g>
   </g>
   <g id="line2d_64">
    <path d="M 338.688 30.334099 
L 369.60768 35.706297 
" style="fill:none;stroke:#00bfbf;stroke-linecap:square;stroke-width:1.5;"/>
    <g>
     <use style="fill-opacity:0;stroke:#00bfbf;stroke-width:1.5;" x="338.688" xlink:href="#m907a7ab9df" y="30.334099"/>
     <use style="fill-opacity:0;stroke:#00bfbf;stroke-width:1.5;" x="369.60768" xlink:href="#m907a7ab9df" y="35.706297"/>
    </g>
   </g>
   <g id="line2d_65">
    <path d="M 338.688 298.944 
L 338.688 30.334099 
" style="fill:none;stroke:#000000;stroke-linecap:square;stroke-width:1.5;"/>
   </g>
   <g id="patch_3">
    <path d="M 57.6 298.944 
L 57.6 27.648 
" style="fill:none;stroke:#000000;stroke-linecap:square;stroke-linejoin:miter;stroke-width:0.8;"/>
   </g>
   <g id="patch_4">
    <path d="M 338.688 298.944 
L 338.688 27.648 
" style="fill:none;stroke:#000000;stroke-linecap:square;stroke-linejoin:miter;stroke-width:0.8;"/>
   </g>
   <g id="patch_5">
    <path d="M 57.6 298.944 
L 338.688 298.944 
" style="fill:none;stroke:#000000;stroke-linecap:square;stroke-linejoin:miter;stroke-width:0.8;"/>
   </g>
   <g id="patch_6">
    <path d="M 57.6 27.648 
L 338.688 27.648 
" style="fill:none;stroke:#000000;stroke-linecap:square;stroke-linejoin:miter;stroke-width:0.8;"/>
   </g>
   <g id="text_13">
    <!-- 40-D -->
    <g transform="translate(375.22944 298.262739)scale(0.17 -0.17)">
     <defs>
      <path d="M 19.671875 64.796875 
L 19.671875 8.109375 
L 31.59375 8.109375 
Q 46.6875 8.109375 53.6875 14.9375 
Q 60.6875 21.78125 60.6875 36.53125 
Q 60.6875 51.171875 53.6875 57.984375 
Q 46.6875 64.796875 31.59375 64.796875 
z
M 9.8125 72.90625 
L 30.078125 72.90625 
Q 51.265625 72.90625 61.171875 64.09375 
Q 71.09375 55.28125 71.09375 36.53125 
Q 71.09375 17.671875 61.125 8.828125 
Q 51.171875 0 30.078125 0 
L 9.8125 0 
z
" id="DejaVuSans-68"/>
     </defs>
     <use xlink:href="#DejaVuSans-52"/>
     <use x="63.623047" xlink:href="#DejaVuSans-48"/>
     <use x="127.246094" xlink:href="#DejaVuSans-45"/>
     <use x="163.330078" xlink:href="#DejaVuSans-68"/>
    </g>
   </g>
   <g id="text_14">
    <!-- 20-D -->
    <g transform="translate(375.22944 246.689638)scale(0.17 -0.17)">
     <use xlink:href="#DejaVuSans-50"/>
     <use x="63.623047" xlink:href="#DejaVuSans-48"/>
     <use x="127.246094" xlink:href="#DejaVuSans-45"/>
     <use x="163.330078" xlink:href="#DejaVuSans-68"/>
    </g>
   </g>
   <g id="text_15">
    <!-- 10-D -->
    <g transform="translate(375.22944 195.116537)scale(0.17 -0.17)">
     <use xlink:href="#DejaVuSans-49"/>
     <use x="63.623047" xlink:href="#DejaVuSans-48"/>
     <use x="127.246094" xlink:href="#DejaVuSans-45"/>
     <use x="163.330078" xlink:href="#DejaVuSans-68"/>
    </g>
   </g>
   <g id="text_16">
    <!-- 5-D -->
    <g transform="translate(375.22944 143.543437)scale(0.17 -0.17)">
     <defs>
      <path d="M 10.796875 72.90625 
L 49.515625 72.90625 
L 49.515625 64.59375 
L 19.828125 64.59375 
L 19.828125 46.734375 
Q 21.96875 47.46875 24.109375 47.828125 
Q 26.265625 48.1875 28.421875 48.1875 
Q 40.625 48.1875 47.75 41.5 
Q 54.890625 34.8125 54.890625 23.390625 
Q 54.890625 11.625 47.5625 5.09375 
Q 40.234375 -1.421875 26.90625 -1.421875 
Q 22.3125 -1.421875 17.546875 -0.640625 
Q 12.796875 0.140625 7.71875 1.703125 
L 7.71875 11.625 
Q 12.109375 9.234375 16.796875 8.0625 
Q 21.484375 6.890625 26.703125 6.890625 
Q 35.15625 6.890625 40.078125 11.328125 
Q 45.015625 15.765625 45.015625 23.390625 
Q 45.015625 31 40.078125 35.4375 
Q 35.15625 39.890625 26.703125 39.890625 
Q 22.75 39.890625 18.8125 39.015625 
Q 14.890625 38.140625 10.796875 36.28125 
z
" id="DejaVuSans-53"/>
     </defs>
     <use xlink:href="#DejaVuSans-53"/>
     <use x="63.623047" xlink:href="#DejaVuSans-45"/>
     <use x="99.707031" xlink:href="#DejaVuSans-68"/>
    </g>
   </g>
   <g id="text_17">
    <!-- 3-D -->
    <g transform="translate(375.22944 91.970336)scale(0.17 -0.17)">
     <defs>
      <path d="M 40.578125 39.3125 
Q 47.65625 37.796875 51.625 33 
Q 55.609375 28.21875 55.609375 21.1875 
Q 55.609375 10.40625 48.1875 4.484375 
Q 40.765625 -1.421875 27.09375 -1.421875 
Q 22.515625 -1.421875 17.65625 -0.515625 
Q 12.796875 0.390625 7.625 2.203125 
L 7.625 11.71875 
Q 11.71875 9.328125 16.59375 8.109375 
Q 21.484375 6.890625 26.8125 6.890625 
Q 36.078125 6.890625 40.9375 10.546875 
Q 45.796875 14.203125 45.796875 21.1875 
Q 45.796875 27.640625 41.28125 31.265625 
Q 36.765625 34.90625 28.71875 34.90625 
L 20.21875 34.90625 
L 20.21875 43.015625 
L 29.109375 43.015625 
Q 36.375 43.015625 40.234375 45.921875 
Q 44.09375 48.828125 44.09375 54.296875 
Q 44.09375 59.90625 40.109375 62.90625 
Q 36.140625 65.921875 28.71875 65.921875 
Q 24.65625 65.921875 20.015625 65.03125 
Q 15.375 64.15625 9.8125 62.3125 
L 9.8125 71.09375 
Q 15.4375 72.65625 20.34375 73.4375 
Q 25.25 74.21875 29.59375 74.21875 
Q 40.828125 74.21875 47.359375 69.109375 
Q 53.90625 64.015625 53.90625 55.328125 
Q 53.90625 49.265625 50.4375 45.09375 
Q 46.96875 40.921875 40.578125 39.3125 
z
" id="DejaVuSans-51"/>
     </defs>
     <use xlink:href="#DejaVuSans-51"/>
     <use x="63.623047" xlink:href="#DejaVuSans-45"/>
     <use x="99.707031" xlink:href="#DejaVuSans-68"/>
    </g>
   </g>
   <g id="text_18">
    <!-- 2-D -->
    <g transform="translate(375.22944 40.397235)scale(0.17 -0.17)">
     <use xlink:href="#DejaVuSans-50"/>
     <use x="63.623047" xlink:href="#DejaVuSans-45"/>
     <use x="99.707031" xlink:href="#DejaVuSans-68"/>
    </g>
   </g>
   <g id="text_19">
    <!-- bbob f22 -->
    <g transform="translate(60.41088 38.111366)scale(0.102 -0.102)">
     <defs>
      <path d="M 48.6875 27.296875 
Q 48.6875 37.203125 44.609375 42.84375 
Q 40.53125 48.484375 33.40625 48.484375 
Q 26.265625 48.484375 22.1875 42.84375 
Q 18.109375 37.203125 18.109375 27.296875 
Q 18.109375 17.390625 22.1875 11.75 
Q 26.265625 6.109375 33.40625 6.109375 
Q 40.53125 6.109375 44.609375 11.75 
Q 48.6875 17.390625 48.6875 27.296875 
z
M 18.109375 46.390625 
Q 20.953125 51.265625 25.265625 53.625 
Q 29.59375 56 35.59375 56 
Q 45.5625 56 51.78125 48.09375 
Q 58.015625 40.1875 58.015625 27.296875 
Q 58.015625 14.40625 51.78125 6.484375 
Q 45.5625 -1.421875 35.59375 -1.421875 
Q 29.59375 -1.421875 25.265625 0.953125 
Q 20.953125 3.328125 18.109375 8.203125 
L 18.109375 0 
L 9.078125 0 
L 9.078125 75.984375 
L 18.109375 75.984375 
z
" id="DejaVuSans-98"/>
     </defs>
     <use xlink:href="#DejaVuSans-98"/>
     <use x="63.476562" xlink:href="#DejaVuSans-98"/>
     <use x="126.953125" xlink:href="#DejaVuSans-111"/>
     <use x="188.134766" xlink:href="#DejaVuSans-98"/>
     <use x="251.611328" xlink:href="#DejaVuSans-32"/>
     <use x="283.398438" xlink:href="#DejaVuSans-102"/>
     <use x="318.603516" xlink:href="#DejaVuSans-50"/>
     <use x="382.226562" xlink:href="#DejaVuSans-50"/>
    </g>
    <!-- 51 targets: 100..1e-08 -->
    <g transform="translate(60.41088 49.533135)scale(0.102 -0.102)">
     <defs>
      <path d="M 11.71875 12.40625 
L 22.015625 12.40625 
L 22.015625 0 
L 11.71875 0 
z
M 11.71875 51.703125 
L 22.015625 51.703125 
L 22.015625 39.3125 
L 11.71875 39.3125 
z
" id="DejaVuSans-58"/>
     </defs>
     <use xlink:href="#DejaVuSans-53"/>
     <use x="63.623047" xlink:href="#DejaVuSans-49"/>
     <use x="127.246094" xlink:href="#DejaVuSans-32"/>
     <use x="159.033203" xlink:href="#DejaVuSans-116"/>
     <use x="198.242188" xlink:href="#DejaVuSans-97"/>
     <use x="259.521484" xlink:href="#DejaVuSans-114"/>
     <use x="298.884766" xlink:href="#DejaVuSans-103"/>
     <use x="362.361328" xlink:href="#DejaVuSans-101"/>
     <use x="423.884766" xlink:href="#DejaVuSans-116"/>
     <use x="463.09375" xlink:href="#DejaVuSans-115"/>
     <use x="515.193359" xlink:href="#DejaVuSans-58"/>
     <use x="548.884766" xlink:href="#DejaVuSans-32"/>
     <use x="580.671875" xlink:href="#DejaVuSans-49"/>
     <use x="644.294922" xlink:href="#DejaVuSans-48"/>
     <use x="707.917969" xlink:href="#DejaVuSans-48"/>
     <use x="771.541016" xlink:href="#DejaVuSans-46"/>
     <use x="803.328125" xlink:href="#DejaVuSans-46"/>
     <use x="835.115234" xlink:href="#DejaVuSans-49"/>
     <use x="898.738281" xlink:href="#DejaVuSans-101"/>
     <use x="960.261719" xlink:href="#DejaVuSans-45"/>
     <use x="996.345703" xlink:href="#DejaVuSans-48"/>
     <use x="1059.96875" xlink:href="#DejaVuSans-56"/>
    </g>
    <!-- 15 instances -->
    <g transform="translate(60.41088 60.954904)scale(0.102 -0.102)">
     <use xlink:href="#DejaVuSans-49"/>
     <use x="63.623047" xlink:href="#DejaVuSans-53"/>
     <use x="127.246094" xlink:href="#DejaVuSans-32"/>
     <use x="159.033203" xlink:href="#DejaVuSans-105"/>
     <use x="186.816406" xlink:href="#DejaVuSans-110"/>
     <use x="250.195312" xlink:href="#DejaVuSans-115"/>
     <use x="302.294922" xlink:href="#DejaVuSans-116"/>
     <use x="341.503906" xlink:href="#DejaVuSans-97"/>
     <use x="402.783203" xlink:href="#DejaVuSans-110"/>
     <use x="466.162109" xlink:href="#DejaVuSans-99"/>
     <use x="521.142578" xlink:href="#DejaVuSans-101"/>
     <use x="582.666016" xlink:href="#DejaVuSans-115"/>
    </g>
   </g>
   <g id="text_20">
    <!-- v2.4 -->
    <g style="fill:#808080;" transform="translate(187.233062 294.151352)scale(0.1 -0.1)">
     <use xlink:href="#DejaVuSans-118"/>
     <use x="59.179688" xlink:href="#DejaVuSans-50"/>
     <use x="122.802734" xlink:href="#DejaVuSans-46"/>
     <use x="154.589844" xlink:href="#DejaVuSans-52"/>
    </g>
   </g>
   <g id="text_21">
    <!-- 22 Gallagher 21 peaks -->
    <g transform="translate(85.019 21.648)scale(0.2 -0.2)">
     <defs>
      <path d="M 59.515625 10.40625 
L 59.515625 29.984375 
L 43.40625 29.984375 
L 43.40625 38.09375 
L 69.28125 38.09375 
L 69.28125 6.78125 
Q 63.578125 2.734375 56.6875 0.65625 
Q 49.8125 -1.421875 42 -1.421875 
Q 24.90625 -1.421875 15.25 8.5625 
Q 5.609375 18.5625 5.609375 36.375 
Q 5.609375 54.25 15.25 64.234375 
Q 24.90625 74.21875 42 74.21875 
Q 49.125 74.21875 55.546875 72.453125 
Q 61.96875 70.703125 67.390625 67.28125 
L 67.390625 56.78125 
Q 61.921875 61.421875 55.765625 63.765625 
Q 49.609375 66.109375 42.828125 66.109375 
Q 29.4375 66.109375 22.71875 58.640625 
Q 16.015625 51.171875 16.015625 36.375 
Q 16.015625 21.625 22.71875 14.15625 
Q 29.4375 6.6875 42.828125 6.6875 
Q 48.046875 6.6875 52.140625 7.59375 
Q 56.25 8.5 59.515625 10.40625 
z
" id="DejaVuSans-71"/>
      <path d="M 54.890625 33.015625 
L 54.890625 0 
L 45.90625 0 
L 45.90625 32.71875 
Q 45.90625 40.484375 42.875 44.328125 
Q 39.84375 48.1875 33.796875 48.1875 
Q 26.515625 48.1875 22.3125 43.546875 
Q 18.109375 38.921875 18.109375 30.90625 
L 18.109375 0 
L 9.078125 0 
L 9.078125 75.984375 
L 18.109375 75.984375 
L 18.109375 46.1875 
Q 21.34375 51.125 25.703125 53.5625 
Q 30.078125 56 35.796875 56 
Q 45.21875 56 50.046875 50.171875 
Q 54.890625 44.34375 54.890625 33.015625 
z
" id="DejaVuSans-104"/>
      <path d="M 9.078125 75.984375 
L 18.109375 75.984375 
L 18.109375 31.109375 
L 44.921875 54.6875 
L 56.390625 54.6875 
L 27.390625 29.109375 
L 57.625 0 
L 45.90625 0 
L 18.109375 26.703125 
L 18.109375 0 
L 9.078125 0 
z
" id="DejaVuSans-107"/>
     </defs>
     <use xlink:href="#DejaVuSans-50"/>
     <use x="63.623047" xlink:href="#DejaVuSans-50"/>
     <use x="127.246094" xlink:href="#DejaVuSans-32"/>
     <use x="159.033203" xlink:href="#DejaVuSans-71"/>
     <use x="236.523438" xlink:href="#DejaVuSans-97"/>
     <use x="297.802734" xlink:href="#DejaVuSans-108"/>
     <use x="325.585938" xlink:href="#DejaVuSans-108"/>
     <use x="353.369141" xlink:href="#DejaVuSans-97"/>
     <use x="414.648438" xlink:href="#DejaVuSans-103"/>
     <use x="478.125" xlink:href="#DejaVuSans-104"/>
     <use x="541.503906" xlink:href="#DejaVuSans-101"/>
     <use x="603.027344" xlink:href="#DejaVuSans-114"/>
     <use x="644.140625" xlink:href="#DejaVuSans-32"/>
     <use x="675.927734" xlink:href="#DejaVuSans-50"/>
     <use x="739.550781" xlink:href="#DejaVuSans-49"/>
     <use x="803.173828" xlink:href="#DejaVuSans-32"/>
     <use x="834.960938" xlink:href="#DejaVuSans-112"/>
     <use x="898.4375" xlink:href="#DejaVuSans-101"/>
     <use x="959.960938" xlink:href="#DejaVuSans-97"/>
     <use x="1021.240234" xlink:href="#DejaVuSans-107"/>
     <use x="1079.150391" xlink:href="#DejaVuSans-115"/>
    </g>
   </g>
  </g>
 </g>
 <defs>
  <clipPath id="p8bd4908dea">
   <rect height="271.296" width="281.088" x="57.6" y="27.648"/>
  </clipPath>
 </defs>
</svg>
