<?xml version="1.0" encoding="utf-8" standalone="no"?>
<!DOCTYPE svg PUBLIC "-//W3C//DTD SVG 1.1//EN"
  "http://www.w3.org/Graphics/SVG/1.1/DTD/svg11.dtd">
<!-- Created with matplotlib (https://matplotlib.org/) -->
<svg height="345.6pt" version="1.1" viewBox="0 0 460.8 345.6" width="460.8pt" xmlns="http://www.w3.org/2000/svg" xmlns:xlink="http://www.w3.org/1999/xlink">
 <metadata>
  <rdf:RDF xmlns:cc="http://creativecommons.org/ns#" xmlns:dc="http://purl.org/dc/elements/1.1/" xmlns:rdf="http://www.w3.org/1999/02/22-rdf-syntax-ns#">
   <cc:Work>
    <dc:type rdf:resource="http://purl.org/dc/dcmitype/StillImage"/>
    <dc:date>2021-08-04T10:26:31.256159</dc:date>
    <dc:format>image/svg+xml</dc:format>
    <dc:creator>
     <cc:Agent>
      <dc:title>Matplotlib v3.3.1, https://matplotlib.org/</dc:title>
     </cc:Agent>
    </dc:creator>
   </cc:Work>
  </rdf:RDF>
 </metadata>
 <defs>
  <style type="text/css">*{stroke-linecap:butt;stroke-linejoin:round;}</style>
 </defs>
 <g id="figure_1">
  <g id="patch_1">
   <path d="M 0 345.6 
L 460.8 345.6 
L 460.8 0 
L 0 0 
z
" style="fill:#ffffff;"/>
  </g>
  <g id="axes_1">
   <g id="patch_2">
    <path d="M 57.6 298.944 
L 338.688 298.944 
L 338.688 3.456 
L 57.6 3.456 
z
" style="fill:#ffffff;"/>
   </g>
   <g id="matplotlib.axis_1">
    <g id="xtick_1">
     <g id="line2d_1">
      <path clip-path="url(#pd11115dad0)" d="M 57.6 298.944 
L 57.6 3.456 
" style="fill:none;stroke:#b0b0b0;stroke-linecap:square;stroke-width:0.8;"/>
     </g>
     <g id="line2d_2">
      <defs>
       <path d="M 0 0 
L 0 3.5 
" id="md6aea34d5d" style="stroke:#000000;stroke-width:0.8;"/>
      </defs>
      <g>
       <use style="stroke:#000000;stroke-width:0.8;" x="57.6" xlink:href="#md6aea34d5d" y="298.944"/>
      </g>
     </g>
     <g id="text_1">
      <!-- 0 -->
      <g transform="translate(51.2375 321.140875)scale(0.2 -0.2)">
       <defs>
        <path d="M 31.78125 66.40625 
Q 24.171875 66.40625 20.328125 58.90625 
Q 16.5 51.421875 16.5 36.375 
Q 16.5 21.390625 20.328125 13.890625 
Q 24.171875 6.390625 31.78125 6.390625 
Q 39.453125 6.390625 43.28125 13.890625 
Q 47.125 21.390625 47.125 36.375 
Q 47.125 51.421875 43.28125 58.90625 
Q 39.453125 66.40625 31.78125 66.40625 
z
M 31.78125 74.21875 
Q 44.046875 74.21875 50.515625 64.515625 
Q 56.984375 54.828125 56.984375 36.375 
Q 56.984375 17.96875 50.515625 8.265625 
Q 44.046875 -1.421875 31.78125 -1.421875 
Q 19.53125 -1.421875 13.0625 8.265625 
Q 6.59375 17.96875 6.59375 36.375 
Q 6.59375 54.828125 13.0625 64.515625 
Q 19.53125 74.21875 31.78125 74.21875 
z
" id="DejaVuSans-48"/>
       </defs>
       <use xlink:href="#DejaVuSans-48"/>
      </g>
     </g>
    </g>
    <g id="xtick_2">
     <g id="line2d_3">
      <path clip-path="url(#pd11115dad0)" d="M 137.910857 298.944 
L 137.910857 3.456 
" style="fill:none;stroke:#b0b0b0;stroke-linecap:square;stroke-width:0.8;"/>
     </g>
     <g id="line2d_4">
      <g>
       <use style="stroke:#000000;stroke-width:0.8;" x="137.910857" xlink:href="#md6aea34d5d" y="298.944"/>
      </g>
     </g>
     <g id="text_2">
      <!-- 2 -->
      <g transform="translate(131.548357 321.140875)scale(0.2 -0.2)">
       <defs>
        <path d="M 19.1875 8.296875 
L 53.609375 8.296875 
L 53.609375 0 
L 7.328125 0 
L 7.328125 8.296875 
Q 12.9375 14.109375 22.625 23.890625 
Q 32.328125 33.6875 34.8125 36.53125 
Q 39.546875 41.84375 41.421875 45.53125 
Q 43.3125 49.21875 43.3125 52.78125 
Q 43.3125 58.59375 39.234375 62.25 
Q 35.15625 65.921875 28.609375 65.921875 
Q 23.96875 65.921875 18.8125 64.3125 
Q 13.671875 62.703125 7.8125 59.421875 
L 7.8125 69.390625 
Q 13.765625 71.78125 18.9375 73 
Q 24.125 74.21875 28.421875 74.21875 
Q 39.75 74.21875 46.484375 68.546875 
Q 53.21875 62.890625 53.21875 53.421875 
Q 53.21875 48.921875 51.53125 44.890625 
Q 49.859375 40.875 45.40625 35.40625 
Q 44.1875 33.984375 37.640625 27.21875 
Q 31.109375 20.453125 19.1875 8.296875 
z
" id="DejaVuSans-50"/>
       </defs>
       <use xlink:href="#DejaVuSans-50"/>
      </g>
     </g>
    </g>
    <g id="xtick_3">
     <g id="line2d_5">
      <path clip-path="url(#pd11115dad0)" d="M 218.221714 298.944 
L 218.221714 3.456 
" style="fill:none;stroke:#b0b0b0;stroke-linecap:square;stroke-width:0.8;"/>
     </g>
     <g id="line2d_6">
      <g>
       <use style="stroke:#000000;stroke-width:0.8;" x="218.221714" xlink:href="#md6aea34d5d" y="298.944"/>
      </g>
     </g>
     <g id="text_3">
      <!-- 4 -->
      <g transform="translate(211.859214 321.140875)scale(0.2 -0.2)">
       <defs>
        <path d="M 37.796875 64.3125 
L 12.890625 25.390625 
L 37.796875 25.390625 
z
M 35.203125 72.90625 
L 47.609375 72.90625 
L 47.609375 25.390625 
L 58.015625 25.390625 
L 58.015625 17.1875 
L 47.609375 17.1875 
L 47.609375 0 
L 37.796875 0 
L 37.796875 17.1875 
L 4.890625 17.1875 
L 4.890625 26.703125 
z
" id="DejaVuSans-52"/>
       </defs>
       <use xlink:href="#DejaVuSans-52"/>
      </g>
     </g>
    </g>
    <g id="xtick_4">
     <g id="line2d_7">
      <path clip-path="url(#pd11115dad0)" d="M 298.532571 298.944 
L 298.532571 3.456 
" style="fill:none;stroke:#b0b0b0;stroke-linecap:square;stroke-width:0.8;"/>
     </g>
     <g id="line2d_8">
      <g>
       <use style="stroke:#000000;stroke-width:0.8;" x="298.532571" xlink:href="#md6aea34d5d" y="298.944"/>
      </g>
     </g>
     <g id="text_4">
      <!-- 6 -->
      <g transform="translate(292.170071 321.140875)scale(0.2 -0.2)">
       <defs>
        <path d="M 33.015625 40.375 
Q 26.375 40.375 22.484375 35.828125 
Q 18.609375 31.296875 18.609375 23.390625 
Q 18.609375 15.53125 22.484375 10.953125 
Q 26.375 6.390625 33.015625 6.390625 
Q 39.65625 6.390625 43.53125 10.953125 
Q 47.40625 15.53125 47.40625 23.390625 
Q 47.40625 31.296875 43.53125 35.828125 
Q 39.65625 40.375 33.015625 40.375 
z
M 52.59375 71.296875 
L 52.59375 62.3125 
Q 48.875 64.0625 45.09375 64.984375 
Q 41.3125 65.921875 37.59375 65.921875 
Q 27.828125 65.921875 22.671875 59.328125 
Q 17.53125 52.734375 16.796875 39.40625 
Q 19.671875 43.65625 24.015625 45.921875 
Q 28.375 48.1875 33.59375 48.1875 
Q 44.578125 48.1875 50.953125 41.515625 
Q 57.328125 34.859375 57.328125 23.390625 
Q 57.328125 12.15625 50.6875 5.359375 
Q 44.046875 -1.421875 33.015625 -1.421875 
Q 20.359375 -1.421875 13.671875 8.265625 
Q 6.984375 17.96875 6.984375 36.375 
Q 6.984375 53.65625 15.1875 63.9375 
Q 23.390625 74.21875 37.203125 74.21875 
Q 40.921875 74.21875 44.703125 73.484375 
Q 48.484375 72.75 52.59375 71.296875 
z
" id="DejaVuSans-54"/>
       </defs>
       <use xlink:href="#DejaVuSans-54"/>
      </g>
     </g>
    </g>
    <g id="xtick_5">
     <g id="line2d_9">
      <path clip-path="url(#pd11115dad0)" d="M 97.755429 298.944 
L 97.755429 3.456 
" style="fill:none;stroke:#b0b0b0;stroke-linecap:square;stroke-width:0.8;"/>
     </g>
     <g id="line2d_10">
      <defs>
       <path d="M 0 0 
L 0 2 
" id="mb6d72297d5" style="stroke:#000000;stroke-width:0.6;"/>
      </defs>
      <g>
       <use style="stroke:#000000;stroke-width:0.6;" x="97.755429" xlink:href="#mb6d72297d5" y="298.944"/>
      </g>
     </g>
    </g>
    <g id="xtick_6">
     <g id="line2d_11">
      <path clip-path="url(#pd11115dad0)" d="M 178.066286 298.944 
L 178.066286 3.456 
" style="fill:none;stroke:#b0b0b0;stroke-linecap:square;stroke-width:0.8;"/>
     </g>
     <g id="line2d_12">
      <g>
       <use style="stroke:#000000;stroke-width:0.6;" x="178.066286" xlink:href="#mb6d72297d5" y="298.944"/>
      </g>
     </g>
    </g>
    <g id="xtick_7">
     <g id="line2d_13">
      <path clip-path="url(#pd11115dad0)" d="M 258.377143 298.944 
L 258.377143 3.456 
" style="fill:none;stroke:#b0b0b0;stroke-linecap:square;stroke-width:0.8;"/>
     </g>
     <g id="line2d_14">
      <g>
       <use style="stroke:#000000;stroke-width:0.6;" x="258.377143" xlink:href="#mb6d72297d5" y="298.944"/>
      </g>
     </g>
    </g>
    <g id="xtick_8">
     <g id="line2d_15">
      <path clip-path="url(#pd11115dad0)" d="M 338.688 298.944 
L 338.688 3.456 
" style="fill:none;stroke:#b0b0b0;stroke-linecap:square;stroke-width:0.8;"/>
     </g>
     <g id="line2d_16">
      <g>
       <use style="stroke:#000000;stroke-width:0.6;" x="338.688" xlink:href="#mb6d72297d5" y="298.944"/>
      </g>
     </g>
    </g>
    <g id="text_5">
     <!-- log10(# f-evals / dimension) -->
     <g transform="translate(77.764078 342.217594)scale(0.17 -0.17)">
      <defs>
       <path d="M 9.421875 75.984375 
L 18.40625 75.984375 
L 18.40625 0 
L 9.421875 0 
z
" id="DejaVuSans-108"/>
       <path d="M 30.609375 48.390625 
Q 23.390625 48.390625 19.1875 42.75 
Q 14.984375 37.109375 14.984375 27.296875 
Q 14.984375 17.484375 19.15625 11.84375 
Q 23.34375 6.203125 30.609375 6.203125 
Q 37.796875 6.203125 41.984375 11.859375 
Q 46.1875 17.53125 46.1875 27.296875 
Q 46.1875 37.015625 41.984375 42.703125 
Q 37.796875 48.390625 30.609375 48.390625 
z
M 30.609375 56 
Q 42.328125 56 49.015625 48.375 
Q 55.71875 40.765625 55.71875 27.296875 
Q 55.71875 13.875 49.015625 6.21875 
Q 42.328125 -1.421875 30.609375 -1.421875 
Q 18.84375 -1.421875 12.171875 6.21875 
Q 5.515625 13.875 5.515625 27.296875 
Q 5.515625 40.765625 12.171875 48.375 
Q 18.84375 56 30.609375 56 
z
" id="DejaVuSans-111"/>
       <path d="M 45.40625 27.984375 
Q 45.40625 37.75 41.375 43.109375 
Q 37.359375 48.484375 30.078125 48.484375 
Q 22.859375 48.484375 18.828125 43.109375 
Q 14.796875 37.75 14.796875 27.984375 
Q 14.796875 18.265625 18.828125 12.890625 
Q 22.859375 7.515625 30.078125 7.515625 
Q 37.359375 7.515625 41.375 12.890625 
Q 45.40625 18.265625 45.40625 27.984375 
z
M 54.390625 6.78125 
Q 54.390625 -7.171875 48.1875 -13.984375 
Q 42 -20.796875 29.203125 -20.796875 
Q 24.46875 -20.796875 20.265625 -20.09375 
Q 16.0625 -19.390625 12.109375 -17.921875 
L 12.109375 -9.1875 
Q 16.0625 -11.328125 19.921875 -12.34375 
Q 23.78125 -13.375 27.78125 -13.375 
Q 36.625 -13.375 41.015625 -8.765625 
Q 45.40625 -4.15625 45.40625 5.171875 
L 45.40625 9.625 
Q 42.625 4.78125 38.28125 2.390625 
Q 33.9375 0 27.875 0 
Q 17.828125 0 11.671875 7.65625 
Q 5.515625 15.328125 5.515625 27.984375 
Q 5.515625 40.671875 11.671875 48.328125 
Q 17.828125 56 27.875 56 
Q 33.9375 56 38.28125 53.609375 
Q 42.625 51.21875 45.40625 46.390625 
L 45.40625 54.6875 
L 54.390625 54.6875 
z
" id="DejaVuSans-103"/>
       <path d="M 12.40625 8.296875 
L 28.515625 8.296875 
L 28.515625 63.921875 
L 10.984375 60.40625 
L 10.984375 69.390625 
L 28.421875 72.90625 
L 38.28125 72.90625 
L 38.28125 8.296875 
L 54.390625 8.296875 
L 54.390625 0 
L 12.40625 0 
z
" id="DejaVuSans-49"/>
       <path d="M 31 75.875 
Q 24.46875 64.65625 21.28125 53.65625 
Q 18.109375 42.671875 18.109375 31.390625 
Q 18.109375 20.125 21.3125 9.0625 
Q 24.515625 -2 31 -13.1875 
L 23.1875 -13.1875 
Q 15.875 -1.703125 12.234375 9.375 
Q 8.59375 20.453125 8.59375 31.390625 
Q 8.59375 42.28125 12.203125 53.3125 
Q 15.828125 64.359375 23.1875 75.875 
z
" id="DejaVuSans-40"/>
       <path d="M 51.125 44 
L 36.921875 44 
L 32.8125 27.6875 
L 47.125 27.6875 
z
M 43.796875 71.78125 
L 38.71875 51.515625 
L 52.984375 51.515625 
L 58.109375 71.78125 
L 65.921875 71.78125 
L 60.890625 51.515625 
L 76.125 51.515625 
L 76.125 44 
L 58.984375 44 
L 54.984375 27.6875 
L 70.515625 27.6875 
L 70.515625 20.21875 
L 53.078125 20.21875 
L 48 0 
L 40.1875 0 
L 45.21875 20.21875 
L 30.90625 20.21875 
L 25.875 0 
L 18.015625 0 
L 23.09375 20.21875 
L 7.71875 20.21875 
L 7.71875 27.6875 
L 24.90625 27.6875 
L 29 44 
L 13.28125 44 
L 13.28125 51.515625 
L 30.90625 51.515625 
L 35.890625 71.78125 
z
" id="DejaVuSans-35"/>
       <path id="DejaVuSans-32"/>
       <path d="M 37.109375 75.984375 
L 37.109375 68.5 
L 28.515625 68.5 
Q 23.6875 68.5 21.796875 66.546875 
Q 19.921875 64.59375 19.921875 59.515625 
L 19.921875 54.6875 
L 34.71875 54.6875 
L 34.71875 47.703125 
L 19.921875 47.703125 
L 19.921875 0 
L 10.890625 0 
L 10.890625 47.703125 
L 2.296875 47.703125 
L 2.296875 54.6875 
L 10.890625 54.6875 
L 10.890625 58.5 
Q 10.890625 67.625 15.140625 71.796875 
Q 19.390625 75.984375 28.609375 75.984375 
z
" id="DejaVuSans-102"/>
       <path d="M 4.890625 31.390625 
L 31.203125 31.390625 
L 31.203125 23.390625 
L 4.890625 23.390625 
z
" id="DejaVuSans-45"/>
       <path d="M 56.203125 29.59375 
L 56.203125 25.203125 
L 14.890625 25.203125 
Q 15.484375 15.921875 20.484375 11.0625 
Q 25.484375 6.203125 34.421875 6.203125 
Q 39.59375 6.203125 44.453125 7.46875 
Q 49.3125 8.734375 54.109375 11.28125 
L 54.109375 2.78125 
Q 49.265625 0.734375 44.1875 -0.34375 
Q 39.109375 -1.421875 33.890625 -1.421875 
Q 20.796875 -1.421875 13.15625 6.1875 
Q 5.515625 13.8125 5.515625 26.8125 
Q 5.515625 40.234375 12.765625 48.109375 
Q 20.015625 56 32.328125 56 
Q 43.359375 56 49.78125 48.890625 
Q 56.203125 41.796875 56.203125 29.59375 
z
M 47.21875 32.234375 
Q 47.125 39.59375 43.09375 43.984375 
Q 39.0625 48.390625 32.421875 48.390625 
Q 24.90625 48.390625 20.390625 44.140625 
Q 15.875 39.890625 15.1875 32.171875 
z
" id="DejaVuSans-101"/>
       <path d="M 2.984375 54.6875 
L 12.5 54.6875 
L 29.59375 8.796875 
L 46.6875 54.6875 
L 56.203125 54.6875 
L 35.6875 0 
L 23.484375 0 
z
" id="DejaVuSans-118"/>
       <path d="M 34.28125 27.484375 
Q 23.390625 27.484375 19.1875 25 
Q 14.984375 22.515625 14.984375 16.5 
Q 14.984375 11.71875 18.140625 8.90625 
Q 21.296875 6.109375 26.703125 6.109375 
Q 34.1875 6.109375 38.703125 11.40625 
Q 43.21875 16.703125 43.21875 25.484375 
L 43.21875 27.484375 
z
M 52.203125 31.203125 
L 52.203125 0 
L 43.21875 0 
L 43.21875 8.296875 
Q 40.140625 3.328125 35.546875 0.953125 
Q 30.953125 -1.421875 24.3125 -1.421875 
Q 15.921875 -1.421875 10.953125 3.296875 
Q 6 8.015625 6 15.921875 
Q 6 25.140625 12.171875 29.828125 
Q 18.359375 34.515625 30.609375 34.515625 
L 43.21875 34.515625 
L 43.21875 35.40625 
Q 43.21875 41.609375 39.140625 45 
Q 35.0625 48.390625 27.6875 48.390625 
Q 23 48.390625 18.546875 47.265625 
Q 14.109375 46.140625 10.015625 43.890625 
L 10.015625 52.203125 
Q 14.9375 54.109375 19.578125 55.046875 
Q 24.21875 56 28.609375 56 
Q 40.484375 56 46.34375 49.84375 
Q 52.203125 43.703125 52.203125 31.203125 
z
" id="DejaVuSans-97"/>
       <path d="M 44.28125 53.078125 
L 44.28125 44.578125 
Q 40.484375 46.53125 36.375 47.5 
Q 32.28125 48.484375 27.875 48.484375 
Q 21.1875 48.484375 17.84375 46.4375 
Q 14.5 44.390625 14.5 40.28125 
Q 14.5 37.15625 16.890625 35.375 
Q 19.28125 33.59375 26.515625 31.984375 
L 29.59375 31.296875 
Q 39.15625 29.25 43.1875 25.515625 
Q 47.21875 21.78125 47.21875 15.09375 
Q 47.21875 7.46875 41.1875 3.015625 
Q 35.15625 -1.421875 24.609375 -1.421875 
Q 20.21875 -1.421875 15.453125 -0.5625 
Q 10.6875 0.296875 5.421875 2 
L 5.421875 11.28125 
Q 10.40625 8.6875 15.234375 7.390625 
Q 20.0625 6.109375 24.8125 6.109375 
Q 31.15625 6.109375 34.5625 8.28125 
Q 37.984375 10.453125 37.984375 14.40625 
Q 37.984375 18.0625 35.515625 20.015625 
Q 33.0625 21.96875 24.703125 23.78125 
L 21.578125 24.515625 
Q 13.234375 26.265625 9.515625 29.90625 
Q 5.8125 33.546875 5.8125 39.890625 
Q 5.8125 47.609375 11.28125 51.796875 
Q 16.75 56 26.8125 56 
Q 31.78125 56 36.171875 55.265625 
Q 40.578125 54.546875 44.28125 53.078125 
z
" id="DejaVuSans-115"/>
       <path d="M 25.390625 72.90625 
L 33.6875 72.90625 
L 8.296875 -9.28125 
L 0 -9.28125 
z
" id="DejaVuSans-47"/>
       <path d="M 45.40625 46.390625 
L 45.40625 75.984375 
L 54.390625 75.984375 
L 54.390625 0 
L 45.40625 0 
L 45.40625 8.203125 
Q 42.578125 3.328125 38.25 0.953125 
Q 33.9375 -1.421875 27.875 -1.421875 
Q 17.96875 -1.421875 11.734375 6.484375 
Q 5.515625 14.40625 5.515625 27.296875 
Q 5.515625 40.1875 11.734375 48.09375 
Q 17.96875 56 27.875 56 
Q 33.9375 56 38.25 53.625 
Q 42.578125 51.265625 45.40625 46.390625 
z
M 14.796875 27.296875 
Q 14.796875 17.390625 18.875 11.75 
Q 22.953125 6.109375 30.078125 6.109375 
Q 37.203125 6.109375 41.296875 11.75 
Q 45.40625 17.390625 45.40625 27.296875 
Q 45.40625 37.203125 41.296875 42.84375 
Q 37.203125 48.484375 30.078125 48.484375 
Q 22.953125 48.484375 18.875 42.84375 
Q 14.796875 37.203125 14.796875 27.296875 
z
" id="DejaVuSans-100"/>
       <path d="M 9.421875 54.6875 
L 18.40625 54.6875 
L 18.40625 0 
L 9.421875 0 
z
M 9.421875 75.984375 
L 18.40625 75.984375 
L 18.40625 64.59375 
L 9.421875 64.59375 
z
" id="DejaVuSans-105"/>
       <path d="M 52 44.1875 
Q 55.375 50.25 60.0625 53.125 
Q 64.75 56 71.09375 56 
Q 79.640625 56 84.28125 50.015625 
Q 88.921875 44.046875 88.921875 33.015625 
L 88.921875 0 
L 79.890625 0 
L 79.890625 32.71875 
Q 79.890625 40.578125 77.09375 44.375 
Q 74.3125 48.1875 68.609375 48.1875 
Q 61.625 48.1875 57.5625 43.546875 
Q 53.515625 38.921875 53.515625 30.90625 
L 53.515625 0 
L 44.484375 0 
L 44.484375 32.71875 
Q 44.484375 40.625 41.703125 44.40625 
Q 38.921875 48.1875 33.109375 48.1875 
Q 26.21875 48.1875 22.15625 43.53125 
Q 18.109375 38.875 18.109375 30.90625 
L 18.109375 0 
L 9.078125 0 
L 9.078125 54.6875 
L 18.109375 54.6875 
L 18.109375 46.1875 
Q 21.1875 51.21875 25.484375 53.609375 
Q 29.78125 56 35.6875 56 
Q 41.65625 56 45.828125 52.96875 
Q 50 49.953125 52 44.1875 
z
" id="DejaVuSans-109"/>
       <path d="M 54.890625 33.015625 
L 54.890625 0 
L 45.90625 0 
L 45.90625 32.71875 
Q 45.90625 40.484375 42.875 44.328125 
Q 39.84375 48.1875 33.796875 48.1875 
Q 26.515625 48.1875 22.3125 43.546875 
Q 18.109375 38.921875 18.109375 30.90625 
L 18.109375 0 
L 9.078125 0 
L 9.078125 54.6875 
L 18.109375 54.6875 
L 18.109375 46.1875 
Q 21.34375 51.125 25.703125 53.5625 
Q 30.078125 56 35.796875 56 
Q 45.21875 56 50.046875 50.171875 
Q 54.890625 44.34375 54.890625 33.015625 
z
" id="DejaVuSans-110"/>
       <path d="M 8.015625 75.875 
L 15.828125 75.875 
Q 23.140625 64.359375 26.78125 53.3125 
Q 30.421875 42.28125 30.421875 31.390625 
Q 30.421875 20.453125 26.78125 9.375 
Q 23.140625 -1.703125 15.828125 -13.1875 
L 8.015625 -13.1875 
Q 14.5 -2 17.703125 9.0625 
Q 20.90625 20.125 20.90625 31.390625 
Q 20.90625 42.671875 17.703125 53.65625 
Q 14.5 64.65625 8.015625 75.875 
z
" id="DejaVuSans-41"/>
      </defs>
      <use xlink:href="#DejaVuSans-108"/>
      <use x="27.783203" xlink:href="#DejaVuSans-111"/>
      <use x="88.964844" xlink:href="#DejaVuSans-103"/>
      <use x="152.441406" xlink:href="#DejaVuSans-49"/>
      <use x="216.064453" xlink:href="#DejaVuSans-48"/>
      <use x="279.6875" xlink:href="#DejaVuSans-40"/>
      <use x="318.701172" xlink:href="#DejaVuSans-35"/>
      <use x="402.490234" xlink:href="#DejaVuSans-32"/>
      <use x="434.277344" xlink:href="#DejaVuSans-102"/>
      <use x="463.982422" xlink:href="#DejaVuSans-45"/>
      <use x="500.066406" xlink:href="#DejaVuSans-101"/>
      <use x="561.589844" xlink:href="#DejaVuSans-118"/>
      <use x="620.769531" xlink:href="#DejaVuSans-97"/>
      <use x="682.048828" xlink:href="#DejaVuSans-108"/>
      <use x="709.832031" xlink:href="#DejaVuSans-115"/>
      <use x="761.931641" xlink:href="#DejaVuSans-32"/>
      <use x="793.71875" xlink:href="#DejaVuSans-47"/>
      <use x="827.410156" xlink:href="#DejaVuSans-32"/>
      <use x="859.197266" xlink:href="#DejaVuSans-100"/>
      <use x="922.673828" xlink:href="#DejaVuSans-105"/>
      <use x="950.457031" xlink:href="#DejaVuSans-109"/>
      <use x="1047.869141" xlink:href="#DejaVuSans-101"/>
      <use x="1109.392578" xlink:href="#DejaVuSans-110"/>
      <use x="1172.771484" xlink:href="#DejaVuSans-115"/>
      <use x="1224.871094" xlink:href="#DejaVuSans-105"/>
      <use x="1252.654297" xlink:href="#DejaVuSans-111"/>
      <use x="1313.835938" xlink:href="#DejaVuSans-110"/>
      <use x="1377.214844" xlink:href="#DejaVuSans-41"/>
     </g>
    </g>
   </g>
   <g id="matplotlib.axis_2">
    <g id="ytick_1">
     <g id="line2d_17">
      <path clip-path="url(#pd11115dad0)" d="M 57.6 298.944 
L 338.688 298.944 
" style="fill:none;stroke:#b0b0b0;stroke-linecap:square;stroke-width:0.8;"/>
     </g>
     <g id="line2d_18">
      <defs>
       <path d="M 0 0 
L -3.5 0 
" id="m8cf3eb6101" style="stroke:#000000;stroke-width:0.8;"/>
      </defs>
      <g>
       <use style="stroke:#000000;stroke-width:0.8;" x="57.6" xlink:href="#m8cf3eb6101" y="298.944"/>
      </g>
     </g>
     <g id="text_6">
      <!-- 0.0 -->
      <g transform="translate(25.155 305.02275)scale(0.16 -0.16)">
       <defs>
        <path d="M 10.6875 12.40625 
L 21 12.40625 
L 21 0 
L 10.6875 0 
z
" id="DejaVuSans-46"/>
       </defs>
       <use xlink:href="#DejaVuSans-48"/>
       <use x="63.623047" xlink:href="#DejaVuSans-46"/>
       <use x="95.410156" xlink:href="#DejaVuSans-48"/>
      </g>
     </g>
    </g>
    <g id="ytick_2">
     <g id="line2d_19">
      <path clip-path="url(#pd11115dad0)" d="M 57.6 240.431525 
L 338.688 240.431525 
" style="fill:none;stroke:#b0b0b0;stroke-linecap:square;stroke-width:0.8;"/>
     </g>
     <g id="line2d_20">
      <g>
       <use style="stroke:#000000;stroke-width:0.8;" x="57.6" xlink:href="#m8cf3eb6101" y="240.431525"/>
      </g>
     </g>
     <g id="text_7">
      <!-- 0.2 -->
      <g transform="translate(25.155 246.510275)scale(0.16 -0.16)">
       <use xlink:href="#DejaVuSans-48"/>
       <use x="63.623047" xlink:href="#DejaVuSans-46"/>
       <use x="95.410156" xlink:href="#DejaVuSans-50"/>
      </g>
     </g>
    </g>
    <g id="ytick_3">
     <g id="line2d_21">
      <path clip-path="url(#pd11115dad0)" d="M 57.6 181.91905 
L 338.688 181.91905 
" style="fill:none;stroke:#b0b0b0;stroke-linecap:square;stroke-width:0.8;"/>
     </g>
     <g id="line2d_22">
      <g>
       <use style="stroke:#000000;stroke-width:0.8;" x="57.6" xlink:href="#m8cf3eb6101" y="181.91905"/>
      </g>
     </g>
     <g id="text_8">
      <!-- 0.4 -->
      <g transform="translate(25.155 187.9978)scale(0.16 -0.16)">
       <use xlink:href="#DejaVuSans-48"/>
       <use x="63.623047" xlink:href="#DejaVuSans-46"/>
       <use x="95.410156" xlink:href="#DejaVuSans-52"/>
      </g>
     </g>
    </g>
    <g id="ytick_4">
     <g id="line2d_23">
      <path clip-path="url(#pd11115dad0)" d="M 57.6 123.406574 
L 338.688 123.406574 
" style="fill:none;stroke:#b0b0b0;stroke-linecap:square;stroke-width:0.8;"/>
     </g>
     <g id="line2d_24">
      <g>
       <use style="stroke:#000000;stroke-width:0.8;" x="57.6" xlink:href="#m8cf3eb6101" y="123.406574"/>
      </g>
     </g>
     <g id="text_9">
      <!-- 0.6 -->
      <g transform="translate(25.155 129.485324)scale(0.16 -0.16)">
       <use xlink:href="#DejaVuSans-48"/>
       <use x="63.623047" xlink:href="#DejaVuSans-46"/>
       <use x="95.410156" xlink:href="#DejaVuSans-54"/>
      </g>
     </g>
    </g>
    <g id="ytick_5">
     <g id="line2d_25">
      <path clip-path="url(#pd11115dad0)" d="M 57.6 64.894099 
L 338.688 64.894099 
" style="fill:none;stroke:#b0b0b0;stroke-linecap:square;stroke-width:0.8;"/>
     </g>
     <g id="line2d_26">
      <g>
       <use style="stroke:#000000;stroke-width:0.8;" x="57.6" xlink:href="#m8cf3eb6101" y="64.894099"/>
      </g>
     </g>
     <g id="text_10">
      <!-- 0.8 -->
      <g transform="translate(25.155 70.972849)scale(0.16 -0.16)">
       <defs>
        <path d="M 31.78125 34.625 
Q 24.75 34.625 20.71875 30.859375 
Q 16.703125 27.09375 16.703125 20.515625 
Q 16.703125 13.921875 20.71875 10.15625 
Q 24.75 6.390625 31.78125 6.390625 
Q 38.8125 6.390625 42.859375 10.171875 
Q 46.921875 13.96875 46.921875 20.515625 
Q 46.921875 27.09375 42.890625 30.859375 
Q 38.875 34.625 31.78125 34.625 
z
M 21.921875 38.8125 
Q 15.578125 40.375 12.03125 44.71875 
Q 8.5 49.078125 8.5 55.328125 
Q 8.5 64.0625 14.71875 69.140625 
Q 20.953125 74.21875 31.78125 74.21875 
Q 42.671875 74.21875 48.875 69.140625 
Q 55.078125 64.0625 55.078125 55.328125 
Q 55.078125 49.078125 51.53125 44.71875 
Q 48 40.375 41.703125 38.8125 
Q 48.828125 37.15625 52.796875 32.3125 
Q 56.78125 27.484375 56.78125 20.515625 
Q 56.78125 9.90625 50.3125 4.234375 
Q 43.84375 -1.421875 31.78125 -1.421875 
Q 19.734375 -1.421875 13.25 4.234375 
Q 6.78125 9.90625 6.78125 20.515625 
Q 6.78125 27.484375 10.78125 32.3125 
Q 14.796875 37.15625 21.921875 38.8125 
z
M 18.3125 54.390625 
Q 18.3125 48.734375 21.84375 45.5625 
Q 25.390625 42.390625 31.78125 42.390625 
Q 38.140625 42.390625 41.71875 45.5625 
Q 45.3125 48.734375 45.3125 54.390625 
Q 45.3125 60.0625 41.71875 63.234375 
Q 38.140625 66.40625 31.78125 66.40625 
Q 25.390625 66.40625 21.84375 63.234375 
Q 18.3125 60.0625 18.3125 54.390625 
z
" id="DejaVuSans-56"/>
       </defs>
       <use xlink:href="#DejaVuSans-48"/>
       <use x="63.623047" xlink:href="#DejaVuSans-46"/>
       <use x="95.410156" xlink:href="#DejaVuSans-56"/>
      </g>
     </g>
    </g>
    <g id="ytick_6">
     <g id="line2d_27">
      <path clip-path="url(#pd11115dad0)" d="M 57.6 6.381624 
L 338.688 6.381624 
" style="fill:none;stroke:#b0b0b0;stroke-linecap:square;stroke-width:0.8;"/>
     </g>
     <g id="line2d_28">
      <g>
       <use style="stroke:#000000;stroke-width:0.8;" x="57.6" xlink:href="#m8cf3eb6101" y="6.381624"/>
      </g>
     </g>
     <g id="text_11">
      <!-- 1.0 -->
      <g transform="translate(25.155 12.460374)scale(0.16 -0.16)">
       <use xlink:href="#DejaVuSans-49"/>
       <use x="63.623047" xlink:href="#DejaVuSans-46"/>
       <use x="95.410156" xlink:href="#DejaVuSans-48"/>
      </g>
     </g>
    </g>
    <g id="text_12">
     <!-- Fraction of function,target pairs -->
     <g transform="translate(17.619531 285.585)rotate(-90)scale(0.17 -0.17)">
      <defs>
       <path d="M 9.8125 72.90625 
L 51.703125 72.90625 
L 51.703125 64.59375 
L 19.671875 64.59375 
L 19.671875 43.109375 
L 48.578125 43.109375 
L 48.578125 34.8125 
L 19.671875 34.8125 
L 19.671875 0 
L 9.8125 0 
z
" id="DejaVuSans-70"/>
       <path d="M 41.109375 46.296875 
Q 39.59375 47.171875 37.8125 47.578125 
Q 36.03125 48 33.890625 48 
Q 26.265625 48 22.1875 43.046875 
Q 18.109375 38.09375 18.109375 28.8125 
L 18.109375 0 
L 9.078125 0 
L 9.078125 54.6875 
L 18.109375 54.6875 
L 18.109375 46.1875 
Q 20.953125 51.171875 25.484375 53.578125 
Q 30.03125 56 36.53125 56 
Q 37.453125 56 38.578125 55.875 
Q 39.703125 55.765625 41.0625 55.515625 
z
" id="DejaVuSans-114"/>
       <path d="M 48.78125 52.59375 
L 48.78125 44.1875 
Q 44.96875 46.296875 41.140625 47.34375 
Q 37.3125 48.390625 33.40625 48.390625 
Q 24.65625 48.390625 19.8125 42.84375 
Q 14.984375 37.3125 14.984375 27.296875 
Q 14.984375 17.28125 19.8125 11.734375 
Q 24.65625 6.203125 33.40625 6.203125 
Q 37.3125 6.203125 41.140625 7.25 
Q 44.96875 8.296875 48.78125 10.40625 
L 48.78125 2.09375 
Q 45.015625 0.34375 40.984375 -0.53125 
Q 36.96875 -1.421875 32.421875 -1.421875 
Q 20.0625 -1.421875 12.78125 6.34375 
Q 5.515625 14.109375 5.515625 27.296875 
Q 5.515625 40.671875 12.859375 48.328125 
Q 20.21875 56 33.015625 56 
Q 37.15625 56 41.109375 55.140625 
Q 45.0625 54.296875 48.78125 52.59375 
z
" id="DejaVuSans-99"/>
       <path d="M 18.3125 70.21875 
L 18.3125 54.6875 
L 36.8125 54.6875 
L 36.8125 47.703125 
L 18.3125 47.703125 
L 18.3125 18.015625 
Q 18.3125 11.328125 20.140625 9.421875 
Q 21.96875 7.515625 27.59375 7.515625 
L 36.8125 7.515625 
L 36.8125 0 
L 27.59375 0 
Q 17.1875 0 13.234375 3.875 
Q 9.28125 7.765625 9.28125 18.015625 
L 9.28125 47.703125 
L 2.6875 47.703125 
L 2.6875 54.6875 
L 9.28125 54.6875 
L 9.28125 70.21875 
z
" id="DejaVuSans-116"/>
       <path d="M 8.5 21.578125 
L 8.5 54.6875 
L 17.484375 54.6875 
L 17.484375 21.921875 
Q 17.484375 14.15625 20.5 10.265625 
Q 23.53125 6.390625 29.59375 6.390625 
Q 36.859375 6.390625 41.078125 11.03125 
Q 45.3125 15.671875 45.3125 23.6875 
L 45.3125 54.6875 
L 54.296875 54.6875 
L 54.296875 0 
L 45.3125 0 
L 45.3125 8.40625 
Q 42.046875 3.421875 37.71875 1 
Q 33.40625 -1.421875 27.6875 -1.421875 
Q 18.265625 -1.421875 13.375 4.4375 
Q 8.5 10.296875 8.5 21.578125 
z
M 31.109375 56 
z
" id="DejaVuSans-117"/>
       <path d="M 11.71875 12.40625 
L 22.015625 12.40625 
L 22.015625 4 
L 14.015625 -11.625 
L 7.71875 -11.625 
L 11.71875 4 
z
" id="DejaVuSans-44"/>
       <path d="M 18.109375 8.203125 
L 18.109375 -20.796875 
L 9.078125 -20.796875 
L 9.078125 54.6875 
L 18.109375 54.6875 
L 18.109375 46.390625 
Q 20.953125 51.265625 25.265625 53.625 
Q 29.59375 56 35.59375 56 
Q 45.5625 56 51.78125 48.09375 
Q 58.015625 40.1875 58.015625 27.296875 
Q 58.015625 14.40625 51.78125 6.484375 
Q 45.5625 -1.421875 35.59375 -1.421875 
Q 29.59375 -1.421875 25.265625 0.953125 
Q 20.953125 3.328125 18.109375 8.203125 
z
M 48.6875 27.296875 
Q 48.6875 37.203125 44.609375 42.84375 
Q 40.53125 48.484375 33.40625 48.484375 
Q 26.265625 48.484375 22.1875 42.84375 
Q 18.109375 37.203125 18.109375 27.296875 
Q 18.109375 17.390625 22.1875 11.75 
Q 26.265625 6.109375 33.40625 6.109375 
Q 40.53125 6.109375 44.609375 11.75 
Q 48.6875 17.390625 48.6875 27.296875 
z
" id="DejaVuSans-112"/>
      </defs>
      <use xlink:href="#DejaVuSans-70"/>
      <use x="50.269531" xlink:href="#DejaVuSans-114"/>
      <use x="91.382812" xlink:href="#DejaVuSans-97"/>
      <use x="152.662109" xlink:href="#DejaVuSans-99"/>
      <use x="207.642578" xlink:href="#DejaVuSans-116"/>
      <use x="246.851562" xlink:href="#DejaVuSans-105"/>
      <use x="274.634766" xlink:href="#DejaVuSans-111"/>
      <use x="335.816406" xlink:href="#DejaVuSans-110"/>
      <use x="399.195312" xlink:href="#DejaVuSans-32"/>
      <use x="430.982422" xlink:href="#DejaVuSans-111"/>
      <use x="492.164062" xlink:href="#DejaVuSans-102"/>
      <use x="527.369141" xlink:href="#DejaVuSans-32"/>
      <use x="559.15625" xlink:href="#DejaVuSans-102"/>
      <use x="594.361328" xlink:href="#DejaVuSans-117"/>
      <use x="657.740234" xlink:href="#DejaVuSans-110"/>
      <use x="721.119141" xlink:href="#DejaVuSans-99"/>
      <use x="776.099609" xlink:href="#DejaVuSans-116"/>
      <use x="815.308594" xlink:href="#DejaVuSans-105"/>
      <use x="843.091797" xlink:href="#DejaVuSans-111"/>
      <use x="904.273438" xlink:href="#DejaVuSans-110"/>
      <use x="967.652344" xlink:href="#DejaVuSans-44"/>
      <use x="999.439453" xlink:href="#DejaVuSans-116"/>
      <use x="1038.648438" xlink:href="#DejaVuSans-97"/>
      <use x="1099.927734" xlink:href="#DejaVuSans-114"/>
      <use x="1139.291016" xlink:href="#DejaVuSans-103"/>
      <use x="1202.767578" xlink:href="#DejaVuSans-101"/>
      <use x="1264.291016" xlink:href="#DejaVuSans-116"/>
      <use x="1303.5" xlink:href="#DejaVuSans-32"/>
      <use x="1335.287109" xlink:href="#DejaVuSans-112"/>
      <use x="1398.763672" xlink:href="#DejaVuSans-97"/>
      <use x="1460.042969" xlink:href="#DejaVuSans-105"/>
      <use x="1487.826172" xlink:href="#DejaVuSans-114"/>
      <use x="1528.939453" xlink:href="#DejaVuSans-115"/>
     </g>
    </g>
   </g>
   <g id="line2d_29">
    <defs>
     <path d="M 0 1.5 
C 0.397805 1.5 0.77937 1.341951 1.06066 1.06066 
C 1.341951 0.77937 1.5 0.397805 1.5 0 
C 1.5 -0.397805 1.341951 -0.77937 1.06066 -1.06066 
C 0.77937 -1.341951 0.397805 -1.5 0 -1.5 
C -0.397805 -1.5 -0.77937 -1.341951 -1.06066 -1.06066 
C -1.341951 -0.77937 -1.5 -0.397805 -1.5 0 
C -1.5 0.397805 -1.341951 0.77937 -1.06066 1.06066 
C -0.77937 1.341951 -0.397805 1.5 0 1.5 
z
" id="m43f117f1df" style="stroke:#000080;"/>
    </defs>
    <g>
     <use style="fill:#000080;stroke:#000080;" x="136.361705" xlink:href="#m43f117f1df" y="247.315345"/>
     <use style="fill:#000080;stroke:#000080;" x="136.361705" xlink:href="#m43f117f1df" y="247.315345"/>
    </g>
   </g>
   <g id="line2d_30">
    <path d="M 106.48859 298.944 
L 106.48859 267.966807 
L 107.009204 267.966807 
L 107.009204 255.346469 
L 107.514726 255.346469 
L 107.514726 254.772818 
L 109.401893 254.772818 
L 109.401893 251.904559 
L 111.104637 251.904559 
L 111.104637 251.330907 
L 114.751048 251.330907 
L 114.751048 249.036301 
L 134.973757 249.036301 
L 134.973757 248.462649 
L 135.381712 248.462649 
L 135.381712 247.888997 
L 136.361705 247.888997 
L 136.361705 247.315345 
L 338.688 247.315345 
" style="fill:none;stroke:#000080;stroke-linecap:square;stroke-width:1.5;"/>
   </g>
   <g id="line2d_31">
    <defs>
     <path d="M 0 6 
C 1.591219 6 3.117479 5.367802 4.242641 4.242641 
C 5.367802 3.117479 6 1.591219 6 0 
C 6 -1.591219 5.367802 -3.117479 4.242641 -4.242641 
C 3.117479 -5.367802 1.591219 -6 0 -6 
C -1.591219 -6 -3.117479 -5.367802 -4.242641 -4.242641 
C -5.367802 -3.117479 -6 -1.591219 -6 0 
C -6 1.591219 -5.367802 3.117479 -4.242641 4.242641 
C -3.117479 5.367802 -1.591219 6 0 6 
z
" id="m58f89adf23" style="stroke:#000080;stroke-width:1.5;"/>
    </defs>
    <g>
     <use style="fill-opacity:0;stroke:#000080;stroke-width:1.5;" x="106.48859" xlink:href="#m58f89adf23" y="267.966807"/>
     <use style="fill-opacity:0;stroke:#000080;stroke-width:1.5;" x="136.361705" xlink:href="#m58f89adf23" y="247.888997"/>
     <use style="fill-opacity:0;stroke:#000080;stroke-width:1.5;" x="136.361705" xlink:href="#m58f89adf23" y="247.315345"/>
     <use style="fill-opacity:0;stroke:#000080;stroke-width:1.5;" x="136.361705" xlink:href="#m58f89adf23" y="247.315345"/>
     <use style="fill-opacity:0;stroke:#000080;stroke-width:1.5;" x="338.688" xlink:href="#m58f89adf23" y="247.315345"/>
    </g>
   </g>
   <g id="line2d_32">
    <path style="fill:none;stroke:#000080;stroke-linecap:square;stroke-width:1.5;"/>
    <g/>
   </g>
   <g id="line2d_33">
    <path clip-path="url(#pd11115dad0)" d="M 131.056477 249.036301 
" style="fill:none;stroke:#000080;stroke-linecap:square;stroke-width:1.5;"/>
    <defs>
     <path d="M -12 12 
L 12 -12 
M -12 -12 
L 12 12 
" id="mf0c6ccaa76" style="stroke:#000080;"/>
    </defs>
    <g clip-path="url(#pd11115dad0)">
     <use style="fill:#000080;stroke:#000080;" x="131.056477" xlink:href="#mf0c6ccaa76" y="249.036301"/>
    </g>
   </g>
   <g id="line2d_34">
    <defs>
     <path d="M 0 1.5 
C 0.397805 1.5 0.77937 1.341951 1.06066 1.06066 
C 1.341951 0.77937 1.5 0.397805 1.5 0 
C 1.5 -0.397805 1.341951 -0.77937 1.06066 -1.06066 
C 0.77937 -1.341951 0.397805 -1.5 0 -1.5 
C -0.397805 -1.5 -0.77937 -1.341951 -1.06066 -1.06066 
C -1.341951 -0.77937 -1.5 -0.397805 -1.5 0 
C -1.5 0.397805 -1.341951 0.77937 -1.06066 1.06066 
C -0.77937 1.341951 -0.397805 1.5 0 1.5 
z
" id="mc2d49f2fa0" style="stroke:#ff00ff;"/>
    </defs>
    <g>
     <use style="fill:#ff00ff;stroke:#ff00ff;" x="177.417845" xlink:href="#mc2d49f2fa0" y="6.381624"/>
     <use style="fill:#ff00ff;stroke:#ff00ff;" x="177.417845" xlink:href="#mc2d49f2fa0" y="6.381624"/>
    </g>
   </g>
   <g id="line2d_35">
    <path d="M 45.512012 298.944 
L 45.512012 266.245852 
L 93.863965 266.245852 
L 93.863965 265.6722 
L 94.921215 265.6722 
L 94.921215 265.098549 
L 97.755429 265.098549 
L 97.755429 264.524897 
L 99.41757 264.524897 
L 99.41757 263.377593 
L 100.192776 263.377593 
L 100.192776 262.803942 
L 101.646892 262.803942 
L 101.646892 262.23029 
L 102.330873 262.23029 
L 102.330873 261.656638 
L 102.989037 261.656638 
L 102.989037 260.509335 
L 103.623262 260.509335 
L 103.623262 259.362031 
L 104.23523 259.362031 
L 104.23523 258.78838 
L 104.826449 258.78838 
L 104.826449 257.641076 
L 105.398279 257.641076 
L 105.398279 256.493773 
L 113.382559 256.493773 
L 113.382559 255.920121 
L 114.418861 255.920121 
L 114.418861 255.346469 
L 117.202696 255.346469 
L 117.202696 254.772818 
L 118.039942 254.772818 
L 118.039942 254.199166 
L 118.310324 254.199166 
L 118.310324 253.051863 
L 118.576578 253.051863 
L 118.576578 252.478211 
L 118.838828 252.478211 
L 118.838828 251.904559 
L 119.097192 251.904559 
L 119.097192 250.757256 
L 119.351785 250.757256 
L 119.351785 249.609952 
L 119.602714 249.609952 
L 119.602714 249.036301 
L 119.850084 249.036301 
L 119.850084 248.462649 
L 120.093994 248.462649 
L 120.093994 247.888997 
L 120.33454 247.888997 
L 120.33454 245.020738 
L 120.571812 245.020738 
L 120.571812 241.578828 
L 120.8059 241.578828 
L 120.8059 241.005176 
L 121.036887 241.005176 
L 121.036887 240.431525 
L 121.264855 240.431525 
L 121.264855 239.857873 
L 121.931406 239.857873 
L 121.931406 237.563266 
L 122.362027 237.563266 
L 122.362027 235.268659 
L 122.988655 235.268659 
L 122.988655 234.695008 
L 123.192626 234.695008 
L 123.192626 233.547704 
L 123.394238 233.547704 
L 123.394238 232.974052 
L 123.593547 232.974052 
L 123.593547 227.237535 
L 123.790603 227.237535 
L 123.790603 226.663884 
L 123.985457 226.663884 
L 123.985457 222.07467 
L 124.178158 222.07467 
L 124.178158 218.059108 
L 124.368753 218.059108 
L 124.368753 215.764501 
L 124.557288 215.764501 
L 124.557288 215.190849 
L 124.743806 215.190849 
L 124.743806 212.896242 
L 125.110962 212.896242 
L 125.110962 210.027984 
L 125.470548 210.027984 
L 125.470548 209.454332 
L 125.647598 209.454332 
L 125.647598 204.865118 
L 125.996395 204.865118 
L 125.996395 203.717815 
L 126.338353 203.717815 
L 126.338353 199.702253 
L 126.839037 199.702253 
L 126.839037 197.407646 
L 127.165014 197.407646 
L 127.165014 193.965736 
L 127.48501 193.965736 
L 127.48501 193.392084 
L 127.799239 193.392084 
L 127.799239 192.818432 
L 128.107907 192.818432 
L 128.107907 190.523825 
L 128.260216 190.523825 
L 128.260216 188.80287 
L 128.709321 188.80287 
L 128.709321 188.229218 
L 129.002426 188.229218 
L 129.002426 187.655567 
L 129.147151 187.655567 
L 129.147151 187.081915 
L 129.433047 187.081915 
L 129.433047 185.934612 
L 132.777237 185.934612 
L 132.777237 185.36096 
L 132.893889 185.36096 
L 132.893889 184.787308 
L 134.973757 184.787308 
L 134.973757 184.213656 
L 135.482227 184.213656 
L 135.582166 182.492701 
L 135.780341 182.492701 
L 135.780341 181.345398 
L 135.97629 181.345398 
L 135.97629 180.771746 
L 136.170062 180.771746 
L 136.170062 180.198094 
L 136.361705 180.198094 
L 136.456742 179.050791 
L 136.551264 179.050791 
L 136.645276 176.182532 
L 136.738785 176.182532 
L 136.738785 174.461577 
L 136.924311 174.461577 
L 136.924311 173.314274 
L 137.198951 173.314274 
L 137.289545 171.019667 
L 137.37967 171.019667 
L 137.469333 169.298712 
L 137.558536 169.298712 
L 137.647286 168.151408 
L 137.735587 168.151408 
L 137.823442 167.004105 
L 137.997836 167.004105 
L 138.084384 163.562195 
L 138.170504 163.562195 
L 138.256201 159.546632 
L 138.341479 159.546632 
L 138.426341 157.252026 
L 138.510793 157.252026 
L 138.510793 156.104722 
L 138.67848 156.104722 
L 138.761723 153.810115 
L 138.84457 153.810115 
L 138.927025 152.08916 
L 139.090775 152.08916 
L 139.172077 150.941857 
L 139.413734 150.941857 
L 139.493548 149.220902 
L 139.572998 149.220902 
L 139.572998 148.073598 
L 139.730821 148.073598 
L 139.8092 145.778991 
L 139.887228 145.778991 
L 139.887228 145.20534 
L 140.11924 145.20534 
L 140.195896 143.484384 
L 140.272217 143.484384 
L 140.272217 142.910733 
L 140.574203 142.910733 
L 140.64889 141.763429 
L 140.79731 141.763429 
L 140.79731 141.189778 
L 141.090414 141.189778 
L 141.090414 140.616126 
L 141.235139 140.616126 
L 141.307054 138.895171 
L 141.591783 138.895171 
L 141.591783 137.174215 
L 141.941279 137.174215 
L 141.941279 136.026912 
L 142.147664 136.026912 
L 142.147664 134.879609 
L 142.283909 134.879609 
L 142.283909 134.305957 
L 142.553247 134.305957 
L 142.553247 133.732305 
L 142.752555 133.732305 
L 142.752555 133.158653 
L 143.902815 133.158653 
L 143.964547 132.01135 
L 144.510517 132.01135 
L 144.510517 130.864047 
L 144.688773 130.864047 
L 144.747789 129.716743 
L 144.923649 129.716743 
L 144.923649 129.143091 
L 145.039911 129.143091 
L 145.039911 128.56944 
L 145.212864 128.56944 
L 145.270136 127.422136 
L 145.440832 127.422136 
L 145.440832 126.848485 
L 145.553708 126.848485 
L 145.609873 125.127529 
L 145.665858 125.127529 
L 145.721664 123.406574 
L 145.832743 123.406574 
L 145.943118 121.111967 
L 146.107383 121.111967 
L 146.107383 120.538316 
L 146.270114 120.538316 
L 146.324022 119.391012 
L 146.431341 119.391012 
L 146.538004 117.670057 
L 146.591092 117.670057 
L 146.696785 115.949102 
L 146.801841 115.949102 
L 146.801841 115.37545 
L 146.958248 115.37545 
L 147.010073 114.228147 
L 147.113265 114.228147 
L 147.113265 112.507192 
L 147.368603 112.507192 
L 147.419225 111.359888 
L 147.570215 111.359888 
L 147.570215 110.212585 
L 147.71991 110.212585 
L 147.818997 108.49163 
L 147.86833 108.49163 
L 147.86833 107.917978 
L 148.015498 107.917978 
L 148.112924 106.770674 
L 148.161434 106.770674 
L 148.161434 106.197023 
L 148.306159 106.197023 
L 148.354135 105.049719 
L 148.733265 105.049719 
L 148.733265 103.902416 
L 148.87334 103.902416 
L 148.87334 103.328764 
L 149.286939 103.328764 
L 149.286939 102.755112 
L 149.735275 102.755112 
L 149.735275 101.607809 
L 149.911431 101.607809 
L 149.911431 101.034157 
L 150.258492 101.034157 
L 150.344189 99.886854 
L 150.38688 99.886854 
L 150.38688 99.313202 
L 150.556607 99.313202 
L 150.556607 98.165899 
L 150.682827 98.165899 
L 150.766468 96.444944 
L 150.891184 96.444944 
L 150.973835 94.723988 
L 151.097081 94.723988 
L 151.178764 93.003033 
L 151.461678 93.003033 
L 151.461678 92.429381 
L 151.660987 92.429381 
L 151.740076 91.282078 
L 151.779487 91.282078 
L 151.779487 90.708426 
L 151.897188 90.708426 
L 151.897188 90.134775 
L 152.052897 90.134775 
L 152.091608 88.987471 
L 152.207228 88.987471 
L 152.245598 87.840168 
L 152.322086 87.840168 
L 152.322086 86.119213 
L 152.511852 86.119213 
L 152.511852 85.545561 
L 152.624728 85.545561 
L 152.624728 84.971909 
L 152.922207 84.971909 
L 152.922207 84.398257 
L 153.105587 84.398257 
L 153.105587 83.250954 
L 153.250915 83.250954 
L 153.359122 82.103651 
L 153.395042 82.103651 
L 153.395042 81.529999 
L 153.890309 81.529999 
L 153.890309 80.956347 
L 154.029268 80.956347 
L 154.029268 80.382695 
L 154.337936 80.382695 
L 154.337936 79.809044 
L 154.741174 79.809044 
L 154.77436 78.66174 
L 154.93935 78.66174 
L 155.0376 75.21983 
L 155.135299 75.21983 
L 155.135299 74.646178 
L 155.296925 74.646178 
L 155.393186 72.925223 
L 155.425155 72.925223 
L 155.425155 71.77792 
L 155.55245 71.77792 
L 155.647315 68.909661 
L 155.710272 68.909661 
L 155.773004 67.762358 
L 155.990803 67.762358 
L 156.052535 66.615054 
L 156.205916 66.615054 
L 156.266892 65.467751 
L 156.327657 65.467751 
L 156.327657 64.894099 
L 156.448553 64.894099 
L 156.478647 63.746796 
L 156.598505 63.746796 
L 156.598505 63.173144 
L 156.776762 63.173144 
L 156.865211 60.878537 
L 157.214591 60.878537 
L 157.272146 59.731234 
L 157.358125 59.731234 
L 157.415209 58.58393 
L 157.893028 58.58393 
L 157.976006 56.289323 
L 158.058592 56.289323 
L 158.058592 55.715672 
L 158.222599 55.715672 
L 158.222599 55.14202 
L 158.412011 55.14202 
L 158.438903 53.994716 
L 158.599388 53.994716 
L 158.67908 52.847413 
L 158.83738 52.847413 
L 158.942121 50.552806 
L 159.149734 50.552806 
L 159.252621 48.831851 
L 159.354904 48.831851 
L 159.431225 46.537244 
L 159.481921 46.537244 
L 159.582872 45.389941 
L 159.683242 45.389941 
L 159.683242 44.242637 
L 160.005512 44.242637 
L 160.030058 43.095334 
L 160.297798 43.095334 
L 160.297798 42.521682 
L 160.537682 42.521682 
L 160.609008 41.374379 
L 160.821253 41.374379 
L 160.844678 40.227075 
L 161.030947 40.227075 
L 161.12334 39.079772 
L 161.306672 39.079772 
L 161.306672 38.50612 
L 161.734513 38.50612 
L 161.84538 36.211513 
L 161.977497 36.211513 
L 162.021314 35.06421 
L 162.152109 35.06421 
L 162.152109 34.490558 
L 162.770815 34.490558 
L 162.770815 33.916906 
L 163.123555 33.916906 
L 163.123555 33.343255 
L 163.287113 33.343255 
L 163.388564 31.622299 
L 163.469301 31.622299 
L 163.569701 30.474996 
L 164.140886 30.474996 
L 164.19892 29.327692 
L 164.333587 29.327692 
L 164.429145 27.606737 
L 164.618704 27.606737 
L 164.618704 27.033086 
L 164.787563 27.033086 
L 164.787563 25.885782 
L 164.954803 25.885782 
L 165.047026 24.738479 
L 165.284547 24.738479 
L 165.284547 24.164827 
L 165.518877 24.164827 
L 165.625977 23.017524 
L 165.643763 23.017524 
L 165.643763 21.87022 
L 165.873346 21.87022 
L 165.873346 21.296568 
L 166.357802 21.296568 
L 166.459886 20.149265 
L 166.945039 20.149265 
L 166.978005 19.001962 
L 167.076532 19.001962 
L 167.076532 18.42831 
L 167.672117 18.42831 
L 167.782543 17.281006 
L 168.263336 17.281006 
L 168.263336 16.707355 
L 168.909031 16.707355 
L 168.909031 16.133703 
L 169.114201 16.133703 
L 169.114201 15.560051 
L 169.27373 15.560051 
L 169.27373 14.9864 
L 169.994873 14.9864 
L 170.063995 13.839096 
L 170.28336 13.839096 
L 170.28336 13.265444 
L 171.276376 13.265444 
L 171.276376 12.691793 
L 172.850543 12.691793 
L 172.850543 12.118141 
L 173.349008 12.118141 
L 173.349008 11.544489 
L 173.643636 11.544489 
L 173.643636 10.970838 
L 174.229235 10.970838 
L 174.229235 10.397186 
L 174.498781 10.397186 
L 174.498781 9.823534 
L 174.858804 9.823534 
L 174.858804 9.249882 
L 176.092705 9.249882 
L 176.170646 8.102579 
L 176.286908 8.102579 
L 176.286908 7.528927 
L 176.968661 7.528927 
L 176.968661 6.955275 
L 177.417845 6.955275 
L 177.417845 6.381624 
L 338.688 6.381624 
L 338.688 6.381624 
" style="fill:none;stroke:#ff00ff;stroke-linecap:square;stroke-width:1.5;"/>
   </g>
   <g id="line2d_36">
    <defs>
     <path d="M -0 8.485281 
L 5.091169 0 
L 0 -8.485281 
L -5.091169 -0 
z
" id="m916e7b7438" style="stroke:#ff00ff;stroke-linejoin:miter;stroke-width:1.5;"/>
    </defs>
    <g>
     <use style="fill-opacity:0;stroke:#ff00ff;stroke-linejoin:miter;stroke-width:1.5;" x="113.382559" xlink:href="#m916e7b7438" y="256.493773"/>
     <use style="fill-opacity:0;stroke:#ff00ff;stroke-linejoin:miter;stroke-width:1.5;" x="153.105587" xlink:href="#m916e7b7438" y="83.250954"/>
     <use style="fill-opacity:0;stroke:#ff00ff;stroke-linejoin:miter;stroke-width:1.5;" x="177.417845" xlink:href="#m916e7b7438" y="6.955275"/>
     <use style="fill-opacity:0;stroke:#ff00ff;stroke-linejoin:miter;stroke-width:1.5;" x="177.417845" xlink:href="#m916e7b7438" y="6.381624"/>
     <use style="fill-opacity:0;stroke:#ff00ff;stroke-linejoin:miter;stroke-width:1.5;" x="177.417845" xlink:href="#m916e7b7438" y="6.381624"/>
     <use style="fill-opacity:0;stroke:#ff00ff;stroke-linejoin:miter;stroke-width:1.5;" x="338.688" xlink:href="#m916e7b7438" y="6.381624"/>
    </g>
   </g>
   <g id="line2d_37">
    <path style="fill:none;stroke:#ff00ff;stroke-linecap:square;stroke-width:1.5;"/>
    <g/>
   </g>
   <g id="line2d_38">
    <path clip-path="url(#pd11115dad0)" d="M 128.260216 188.80287 
" style="fill:none;stroke:#ff00ff;stroke-linecap:square;stroke-width:1.5;"/>
    <defs>
     <path d="M -12 12 
L 12 -12 
M -12 -12 
L 12 12 
" id="m45cb8c9b3c" style="stroke:#ff00ff;"/>
    </defs>
    <g clip-path="url(#pd11115dad0)">
     <use style="fill:#ff00ff;stroke:#ff00ff;" x="128.260216" xlink:href="#m45cb8c9b3c" y="188.80287"/>
    </g>
   </g>
   <g id="line2d_39">
    <defs>
     <path d="M 0 1.5 
C 0.397805 1.5 0.77937 1.341951 1.06066 1.06066 
C 1.341951 0.77937 1.5 0.397805 1.5 0 
C 1.5 -0.397805 1.341951 -0.77937 1.06066 -1.06066 
C 0.77937 -1.341951 0.397805 -1.5 0 -1.5 
C -0.397805 -1.5 -0.77937 -1.341951 -1.06066 -1.06066 
C -1.341951 -0.77937 -1.5 -0.397805 -1.5 0 
C -1.5 0.397805 -1.341951 0.77937 -1.06066 1.06066 
C -0.77937 1.341951 -0.397805 1.5 0 1.5 
z
" id="md34bd87b37" style="stroke:#ff7500;"/>
    </defs>
    <g>
     <use style="fill:#ff7500;stroke:#ff7500;" x="185.253182" xlink:href="#md34bd87b37" y="6.381624"/>
     <use style="fill:#ff7500;stroke:#ff7500;" x="185.253182" xlink:href="#md34bd87b37" y="6.381624"/>
    </g>
   </g>
   <g id="line2d_40">
    <path d="M 45.512012 298.944 
L 45.512012 276.571583 
L 76.759008 276.571583 
L 76.759008 275.997931 
L 92.73846 275.997931 
L 92.73846 275.42428 
L 98.606294 275.42428 
L 98.606294 274.850628 
L 99.41757 274.850628 
L 99.41757 273.703324 
L 100.192776 273.703324 
L 100.192776 272.556021 
L 100.934985 272.556021 
L 100.934985 271.982369 
L 101.646892 271.982369 
L 101.646892 271.408718 
L 102.989037 271.408718 
L 102.989037 269.687762 
L 103.623262 269.687762 
L 103.623262 268.540459 
L 104.23523 268.540459 
L 104.23523 266.819504 
L 104.826449 266.819504 
L 104.826449 265.6722 
L 105.398279 265.6722 
L 105.398279 264.524897 
L 105.951954 264.524897 
L 105.951954 262.23029 
L 106.48859 262.23029 
L 106.48859 261.082987 
L 107.514726 261.082987 
L 107.514726 259.935683 
L 108.006005 259.935683 
L 108.006005 259.362031 
L 109.843417 259.362031 
L 109.843417 258.214728 
L 110.694282 258.214728 
L 110.694282 257.641076 
L 115.077025 257.641076 
L 115.077025 257.067425 
L 115.711251 257.067425 
L 115.711251 256.493773 
L 116.323218 256.493773 
L 116.323218 255.920121 
L 116.621333 255.920121 
L 116.621333 254.199166 
L 116.914437 254.199166 
L 116.914437 249.036301 
L 117.202696 249.036301 
L 117.202696 248.462649 
L 117.765302 248.462649 
L 117.765302 246.741694 
L 118.039942 246.741694 
L 118.039942 246.168042 
L 118.576578 246.168042 
L 118.576578 245.59439 
L 119.351785 245.59439 
L 119.351785 244.447087 
L 119.602714 244.447087 
L 119.602714 243.873435 
L 120.093994 243.873435 
L 120.093994 243.299783 
L 120.33454 243.299783 
L 120.33454 241.578828 
L 120.8059 241.578828 
L 120.8059 239.857873 
L 121.036887 239.857873 
L 121.036887 239.284221 
L 121.489881 239.284221 
L 121.489881 238.71057 
L 121.931406 238.71057 
L 121.931406 235.268659 
L 122.148045 235.268659 
L 122.148045 234.695008 
L 122.362027 234.695008 
L 122.362027 234.121356 
L 122.573415 234.121356 
L 122.573415 231.826749 
L 122.782271 231.826749 
L 122.782271 231.253097 
L 123.394238 231.253097 
L 123.394238 230.679446 
L 123.593547 230.679446 
L 123.593547 226.663884 
L 123.985457 226.663884 
L 123.985457 225.51658 
L 124.178158 225.51658 
L 124.178158 223.795625 
L 124.368753 223.795625 
L 124.368753 222.07467 
L 124.557288 222.07467 
L 124.557288 221.501018 
L 124.92835 221.501018 
L 124.92835 220.353715 
L 125.110962 220.353715 
L 125.110962 216.911804 
L 125.470548 216.911804 
L 125.470548 215.190849 
L 125.822869 215.190849 
L 125.822869 214.617197 
L 126.168212 214.617197 
L 126.168212 212.322591 
L 126.50685 212.322591 
L 126.50685 208.307029 
L 127.165014 208.307029 
L 127.165014 206.586073 
L 127.325746 206.586073 
L 127.325746 206.012422 
L 127.48501 206.012422 
L 127.48501 204.865118 
L 127.799239 204.865118 
L 127.799239 204.291467 
L 127.954256 204.291467 
L 127.954256 203.717815 
L 128.560901 203.717815 
L 128.560901 202.570511 
L 128.709321 202.570511 
L 128.709321 200.849556 
L 128.856489 200.849556 
L 128.856489 200.275904 
L 129.002426 200.275904 
L 129.002426 193.965736 
L 129.147151 193.965736 
L 129.147151 192.818432 
L 129.290685 192.818432 
L 129.290685 191.097477 
L 129.574256 191.097477 
L 129.574256 190.523825 
L 129.853291 190.523825 
L 129.853291 187.081915 
L 130.127931 187.081915 
L 130.127931 186.508263 
L 130.263646 186.508263 
L 130.263646 185.934612 
L 130.398313 185.934612 
L 130.398313 185.36096 
L 130.664567 185.36096 
L 130.664567 184.787308 
L 130.926816 184.787308 
L 130.926816 181.345398 
L 131.185181 181.345398 
L 131.185181 180.771746 
L 132.541568 180.771746 
L 132.541568 180.198094 
L 133.352844 180.198094 
L 133.352844 179.624443 
L 134.55603 179.624443 
L 134.55603 179.050791 
L 135.780341 179.050791 
L 135.780341 178.477139 
L 136.738785 178.477139 
L 136.738785 177.903487 
L 137.016339 177.903487 
L 137.016339 177.329836 
L 137.289545 177.329836 
L 137.289545 176.756184 
L 138.170504 176.756184 
L 138.170504 176.182532 
L 138.341479 176.182532 
L 138.426341 174.461577 
L 138.927025 174.461577 
L 139.009092 172.740622 
L 139.090775 172.740622 
L 139.090775 172.16697 
L 139.253002 172.16697 
L 139.253002 171.593319 
L 139.413734 171.593319 
L 139.493548 169.872363 
L 139.652088 169.872363 
L 139.652088 169.298712 
L 139.887228 169.298712 
L 139.964909 167.577757 
L 140.042245 167.577757 
L 140.042245 165.856801 
L 140.195896 165.856801 
L 140.272217 164.135846 
L 140.423864 164.135846 
L 140.499195 162.988543 
L 140.574203 162.988543 
L 140.64889 161.841239 
L 140.871049 161.841239 
L 140.871049 160.693936 
L 141.017599 160.693936 
L 141.017599 160.120284 
L 141.235139 160.120284 
L 141.307054 158.972981 
L 141.378673 158.972981 
L 141.378673 158.399329 
L 141.521035 158.399329 
L 141.591783 156.104722 
L 141.662245 156.104722 
L 141.662245 154.383767 
L 141.871938 154.383767 
L 141.871938 153.810115 
L 142.07914 153.810115 
L 142.147664 152.662812 
L 142.283909 152.662812 
L 142.283909 152.08916 
L 142.419098 152.08916 
L 142.419098 151.515508 
L 142.553247 151.515508 
L 142.553247 150.941857 
L 142.884173 150.941857 
L 142.884173 149.220902 
L 143.014805 149.220902 
L 143.014805 148.64725 
L 143.273169 148.64725 
L 143.337167 145.778991 
L 143.464461 145.778991 
L 143.527762 144.631688 
L 143.716296 144.631688 
L 143.778691 143.484384 
L 143.840863 143.484384 
L 143.902815 141.763429 
L 144.026061 141.763429 
L 144.026061 141.189778 
L 144.330419 141.189778 
L 144.330419 140.616126 
L 145.832743 140.616126 
L 145.832743 140.042474 
L 146.161795 140.042474 
L 146.216039 138.895171 
L 146.431341 138.895171 
L 146.538004 137.747867 
L 146.591092 137.747867 
L 146.696785 136.600564 
L 146.749392 136.600564 
L 146.801841 134.879609 
L 147.164632 134.879609 
L 147.266916 133.158653 
L 147.419225 133.158653 
L 147.419225 131.437698 
L 147.570215 131.437698 
L 147.670154 129.716743 
L 147.71991 129.716743 
L 147.818997 126.848485 
L 147.917524 126.848485 
L 148.015498 125.127529 
L 148.209809 125.127529 
L 148.306159 122.832923 
L 148.40198 122.832923 
L 148.449693 121.685619 
L 148.54473 121.685619 
L 148.54473 121.111967 
L 148.686322 121.111967 
L 148.733265 118.243709 
L 148.87334 118.243709 
L 148.87334 117.670057 
L 149.012299 117.670057 
L 149.104327 116.522754 
L 149.195872 116.522754 
L 149.241465 115.37545 
L 149.557321 115.37545 
L 149.557321 114.801798 
L 149.690956 114.801798 
L 149.690956 114.228147 
L 149.867558 114.228147 
L 149.955193 113.080843 
L 150.640855 113.080843 
L 150.724698 111.93354 
L 150.849711 111.93354 
L 150.849711 111.359888 
L 150.973835 111.359888 
L 151.056095 110.212585 
L 151.13797 110.212585 
L 151.13797 109.638933 
L 151.740076 109.638933 
L 151.779487 108.49163 
L 152.0141 108.49163 
L 152.0141 107.917978 
L 152.360205 107.917978 
L 152.360205 107.344326 
L 152.587184 107.344326 
L 152.587184 106.770674 
L 152.699575 106.770674 
L 152.774102 105.049719 
L 152.922207 105.049719 
L 153.032466 102.755112 
L 153.105587 102.755112 
L 153.178403 101.607809 
L 153.466662 101.607809 
L 153.573542 100.460506 
L 153.750233 100.460506 
L 153.855395 98.73955 
L 153.959927 98.73955 
L 154.029268 97.592247 
L 154.167129 97.592247 
L 154.167129 97.018595 
L 154.337936 97.018595 
L 154.337936 95.871292 
L 154.473387 95.871292 
L 154.507086 94.723988 
L 154.674612 94.723988 
L 154.741174 93.576685 
L 154.906477 93.576685 
L 155.004911 91.282078 
L 155.102793 91.282078 
L 155.200129 89.561123 
L 155.264719 89.561123 
L 155.361158 86.692864 
L 155.393186 86.692864 
L 155.457066 84.971909 
L 155.520713 84.971909 
L 155.520713 84.398257 
L 155.647315 84.398257 
L 155.647315 83.824606 
L 155.83551 83.824606 
L 155.83551 83.250954 
L 155.959855 83.250954 
L 155.959855 82.677302 
L 156.508689 82.677302 
L 156.538679 80.956347 
L 156.658127 80.956347 
L 156.747178 79.809044 
L 156.806295 79.809044 
L 156.894595 78.66174 
L 156.98245 78.66174 
L 157.069866 76.940785 
L 157.1279 76.940785 
L 157.1279 76.367133 
L 157.272146 76.367133 
L 157.329512 73.498875 
L 157.725877 73.498875 
L 157.725877 72.925223 
L 157.837488 72.925223 
L 157.94839 71.204268 
L 157.976006 71.204268 
L 158.031107 70.056964 
L 158.195371 70.056964 
L 158.195371 69.483313 
L 158.385078 69.483313 
L 158.385078 68.909661 
L 158.572743 68.909661 
L 158.572743 68.336009 
L 158.732007 68.336009 
L 158.83738 66.615054 
L 158.863624 66.615054 
L 158.863624 66.041402 
L 159.149734 66.041402 
L 159.175513 64.894099 
L 159.354904 64.894099 
L 159.354904 64.320447 
L 159.683242 64.320447 
L 159.733212 63.173144 
L 160.054568 63.173144 
L 160.054568 62.599492 
L 160.346039 62.599492 
L 160.418152 61.452189 
L 160.609008 61.452189 
L 160.609008 60.878537 
L 160.891432 60.878537 
L 160.891432 60.304885 
L 161.215247 60.304885 
L 161.306672 58.010278 
L 161.465522 58.010278 
L 161.465522 57.436627 
L 161.600536 57.436627 
L 161.600536 56.862975 
L 161.712255 56.862975 
L 161.734513 55.715672 
L 161.955547 55.715672 
L 162.043181 54.568368 
L 162.260361 54.568368 
L 162.324991 53.421065 
L 162.432178 53.421065 
L 162.432178 52.847413 
L 162.68677 52.847413 
L 162.68677 52.273761 
L 162.812686 52.273761 
L 162.812686 51.700109 
L 162.9377 51.700109 
L 163.041197 49.979154 
L 163.205526 49.979154 
L 163.266752 48.831851 
L 163.327764 48.831851 
L 163.327764 48.258199 
L 163.629664 48.258199 
L 163.629664 47.684547 
L 163.788565 47.684547 
L 163.788565 47.110896 
L 164.004716 47.110896 
L 164.063205 45.963592 
L 164.179597 45.963592 
L 164.256762 44.816289 
L 164.314412 44.816289 
L 164.314412 44.242637 
L 165.572509 44.242637 
L 165.572509 43.668985 
L 165.820633 43.668985 
L 165.820633 43.095334 
L 165.943384 43.095334 
L 165.995728 41.94803 
L 166.391896 41.94803 
L 166.408919 40.800727 
L 166.578233 40.800727 
L 166.578233 40.227075 
L 166.845764 40.227075 
L 166.91201 39.079772 
L 166.978005 39.079772 
L 167.010909 37.932468 
L 167.0929 37.932468 
L 167.0929 37.358817 
L 167.207042 37.358817 
L 167.271933 36.211513 
L 167.497166 36.211513 
L 167.560988 35.06421 
L 167.76681 35.06421 
L 167.76681 34.490558 
L 167.985782 34.490558 
L 168.01684 33.343255 
L 168.232714 33.343255 
L 168.232714 32.769603 
L 168.626667 32.769603 
L 168.731229 31.622299 
L 169.157854 31.622299 
L 169.157854 31.048648 
L 169.331381 31.048648 
L 169.331381 29.901344 
L 169.53167 29.901344 
L 169.53167 29.327692 
L 169.743743 29.327692 
L 169.743743 28.754041 
L 170.036379 28.754041 
L 170.077786 27.606737 
L 170.228776 27.606737 
L 170.26973 26.459434 
L 170.419074 26.459434 
L 170.419074 25.885782 
L 170.806779 25.885782 
L 170.912232 24.738479 
L 170.925369 24.738479 
L 171.030109 23.017524 
L 171.056197 23.017524 
L 171.082245 21.87022 
L 171.54458 21.87022 
L 171.620458 20.149265 
L 171.783736 20.149265 
L 171.871027 19.001962 
L 172.179258 19.001962 
L 172.179258 18.42831 
L 172.932666 18.42831 
L 172.991089 16.707355 
L 173.049317 16.707355 
L 173.049317 16.133703 
L 173.496944 16.133703 
L 173.496944 15.560051 
L 174.305129 15.560051 
L 174.326753 14.412748 
L 175.025688 14.412748 
L 175.025688 13.839096 
L 175.139502 13.839096 
L 175.139502 13.265444 
L 175.747557 13.265444 
L 175.747557 12.691793 
L 176.141459 12.691793 
L 176.180364 11.544489 
L 176.55521 11.544489 
L 176.55521 10.970838 
L 176.725536 10.970838 
L 176.725536 10.397186 
L 177.687252 10.397186 
L 177.687252 9.823534 
L 178.248444 9.823534 
L 178.248444 9.249882 
L 178.850589 9.249882 
L 178.850589 8.676231 
L 179.823292 8.676231 
L 179.823292 8.102579 
L 180.503634 8.102579 
L 180.503634 7.528927 
L 184.790916 7.528927 
L 184.790916 6.955275 
L 185.253182 6.955275 
L 185.253182 6.381624 
L 338.688 6.381624 
L 338.688 6.381624 
" style="fill:none;stroke:#ff7500;stroke-linecap:square;stroke-width:1.5;"/>
   </g>
   <g id="line2d_41">
    <defs>
     <path d="M 0 -6 
L -1.347084 -1.854102 
L -5.706339 -1.854102 
L -2.179628 0.708204 
L -3.526712 4.854102 
L -0 2.291796 
L 3.526712 4.854102 
L 2.179628 0.708204 
L 5.706339 -1.854102 
L 1.347084 -1.854102 
z
" id="mba6bce5f0d" style="stroke:#ff7500;stroke-linejoin:bevel;stroke-width:1.5;"/>
    </defs>
    <g>
     <use style="fill-opacity:0;stroke:#ff7500;stroke-linejoin:bevel;stroke-width:1.5;" x="76.759008" xlink:href="#mba6bce5f0d" y="276.571583"/>
     <use style="fill-opacity:0;stroke:#ff7500;stroke-linejoin:bevel;stroke-width:1.5;" x="129.147151" xlink:href="#mba6bce5f0d" y="193.965736"/>
     <use style="fill-opacity:0;stroke:#ff7500;stroke-linejoin:bevel;stroke-width:1.5;" x="172.932666" xlink:href="#mba6bce5f0d" y="17.854658"/>
     <use style="fill-opacity:0;stroke:#ff7500;stroke-linejoin:bevel;stroke-width:1.5;" x="185.253182" xlink:href="#mba6bce5f0d" y="6.381624"/>
     <use style="fill-opacity:0;stroke:#ff7500;stroke-linejoin:bevel;stroke-width:1.5;" x="185.253182" xlink:href="#mba6bce5f0d" y="6.381624"/>
     <use style="fill-opacity:0;stroke:#ff7500;stroke-linejoin:bevel;stroke-width:1.5;" x="338.688" xlink:href="#mba6bce5f0d" y="6.381624"/>
    </g>
   </g>
   <g id="line2d_42">
    <path style="fill:none;stroke:#ff7500;stroke-linecap:square;stroke-width:1.5;"/>
    <g/>
   </g>
   <g id="line2d_43">
    <path clip-path="url(#pd11115dad0)" d="M 132.422528 180.771746 
" style="fill:none;stroke:#ff7500;stroke-linecap:square;stroke-width:1.5;"/>
    <defs>
     <path d="M -12 12 
L 12 -12 
M -12 -12 
L 12 12 
" id="maede61015b" style="stroke:#ff7500;"/>
    </defs>
    <g clip-path="url(#pd11115dad0)">
     <use style="fill:#ff7500;stroke:#ff7500;" x="132.422528" xlink:href="#maede61015b" y="180.771746"/>
    </g>
   </g>
   <g id="line2d_44">
    <defs>
     <path d="M 0 1.5 
C 0.397805 1.5 0.77937 1.341951 1.06066 1.06066 
C 1.341951 0.77937 1.5 0.397805 1.5 0 
C 1.5 -0.397805 1.341951 -0.77937 1.06066 -1.06066 
C 0.77937 -1.341951 0.397805 -1.5 0 -1.5 
C -0.397805 -1.5 -0.77937 -1.341951 -1.06066 -1.06066 
C -1.341951 -0.77937 -1.5 -0.397805 -1.5 0 
C -1.5 0.397805 -1.341951 0.77937 -1.06066 1.06066 
C -0.77937 1.341951 -0.397805 1.5 0 1.5 
z
" id="md2d71c8757" style="stroke:#6495ed;"/>
    </defs>
    <g>
     <use style="fill:#6495ed;stroke:#6495ed;" x="198.288014" xlink:href="#md2d71c8757" y="258.78838"/>
     <use style="fill:#6495ed;stroke:#6495ed;" x="198.288014" xlink:href="#md2d71c8757" y="258.78838"/>
    </g>
   </g>
   <g id="line2d_45">
    <path d="M 45.512012 298.944 
L 45.512012 282.881752 
L 76.759008 282.881752 
L 76.759008 281.734448 
L 88.846997 281.734448 
L 88.846997 281.160797 
L 92.73846 281.160797 
L 92.73846 280.013493 
L 93.863965 280.013493 
L 93.863965 279.439842 
L 103.623262 279.439842 
L 103.623262 278.86619 
L 119.850084 278.86619 
L 119.850084 278.292538 
L 122.362027 278.292538 
L 122.362027 277.718886 
L 122.988655 277.718886 
L 122.988655 277.145235 
L 127.325746 277.145235 
L 127.325746 275.997931 
L 127.48501 275.997931 
L 127.48501 275.42428 
L 129.002426 275.42428 
L 129.002426 274.850628 
L 131.938072 274.850628 
L 131.938072 274.276976 
L 132.181982 274.276976 
L 132.181982 273.703324 
L 136.073445 273.703324 
L 136.073445 273.129673 
L 138.341479 273.129673 
L 138.341479 272.556021 
L 139.090775 272.556021 
L 139.090775 271.982369 
L 140.723258 271.982369 
L 140.723258 271.408718 
L 143.079756 271.408718 
L 143.079756 270.835066 
L 147.113265 270.835066 
L 147.113265 270.261414 
L 151.13797 270.261414 
L 151.13797 269.687762 
L 153.069065 269.687762 
L 153.069065 269.114111 
L 158.358103 269.114111 
L 158.358103 268.540459 
L 163.164589 268.540459 
L 163.164589 267.966807 
L 166.306535 267.966807 
L 166.306535 267.393156 
L 169.701534 267.393156 
L 169.701534 266.819504 
L 170.473066 266.819504 
L 170.473066 266.245852 
L 172.397859 266.245852 
L 172.397859 265.6722 
L 173.889107 265.6722 
L 173.889107 265.098549 
L 174.043535 265.098549 
L 174.043535 264.524897 
L 174.66913 264.524897 
L 174.66913 263.951245 
L 178.808858 263.951245 
L 178.808858 263.377593 
L 180.62453 263.377593 
L 180.62453 262.803942 
L 182.337254 262.803942 
L 182.337254 262.23029 
L 182.344078 262.23029 
L 182.344078 261.656638 
L 183.802832 261.656638 
L 183.802832 261.082987 
L 187.28412 261.082987 
L 187.28412 260.509335 
L 191.585005 260.509335 
L 191.585005 259.935683 
L 197.704055 259.935683 
L 197.704055 259.362031 
L 198.288014 259.362031 
L 198.288014 258.78838 
L 338.688 258.78838 
" style="fill:none;stroke:#6495ed;stroke-linecap:square;stroke-width:1.5;"/>
   </g>
   <g id="line2d_46">
    <defs>
     <path d="M -0 6 
L 6 -6 
L -6 -6 
z
" id="mf87b4463d4" style="stroke:#6495ed;stroke-linejoin:miter;stroke-width:1.5;"/>
    </defs>
    <g>
     <use style="fill-opacity:0;stroke:#6495ed;stroke-linejoin:miter;stroke-width:1.5;" x="119.850084" xlink:href="#mf87b4463d4" y="278.292538"/>
     <use style="fill-opacity:0;stroke:#6495ed;stroke-linejoin:miter;stroke-width:1.5;" x="187.28412" xlink:href="#mf87b4463d4" y="260.509335"/>
     <use style="fill-opacity:0;stroke:#6495ed;stroke-linejoin:miter;stroke-width:1.5;" x="198.288014" xlink:href="#mf87b4463d4" y="258.78838"/>
     <use style="fill-opacity:0;stroke:#6495ed;stroke-linejoin:miter;stroke-width:1.5;" x="198.288014" xlink:href="#mf87b4463d4" y="258.78838"/>
     <use style="fill-opacity:0;stroke:#6495ed;stroke-linejoin:miter;stroke-width:1.5;" x="198.288014" xlink:href="#mf87b4463d4" y="258.78838"/>
     <use style="fill-opacity:0;stroke:#6495ed;stroke-linejoin:miter;stroke-width:1.5;" x="338.688" xlink:href="#mf87b4463d4" y="258.78838"/>
    </g>
   </g>
   <g id="line2d_47">
    <path style="fill:none;stroke:#6495ed;stroke-linecap:square;stroke-width:1.5;"/>
    <g/>
   </g>
   <g id="line2d_48">
    <path clip-path="url(#pd11115dad0)" d="M 125.470548 277.145235 
" style="fill:none;stroke:#6495ed;stroke-linecap:square;stroke-width:1.5;"/>
    <defs>
     <path d="M -12 12 
L 12 -12 
M -12 -12 
L 12 12 
" id="m3ff497976a" style="stroke:#6495ed;"/>
    </defs>
    <g clip-path="url(#pd11115dad0)">
     <use style="fill:#6495ed;stroke:#6495ed;" x="125.470548" xlink:href="#m3ff497976a" y="277.145235"/>
    </g>
   </g>
   <g id="line2d_49">
    <defs>
     <path d="M 0 1.5 
C 0.397805 1.5 0.77937 1.341951 1.06066 1.06066 
C 1.341951 0.77937 1.5 0.397805 1.5 0 
C 1.5 -0.397805 1.341951 -0.77937 1.06066 -1.06066 
C 0.77937 -1.341951 0.397805 -1.5 0 -1.5 
C -0.397805 -1.5 -0.77937 -1.341951 -1.06066 -1.06066 
C -1.341951 -0.77937 -1.5 -0.397805 -1.5 0 
C -1.5 0.397805 -1.341951 0.77937 -1.06066 1.06066 
C -0.77937 1.341951 -0.397805 1.5 0 1.5 
z
" id="m08d0fa63e2" style="stroke:#ff0000;"/>
    </defs>
    <g>
     <use style="fill:#ff0000;stroke:#ff0000;" x="171.519214" xlink:href="#m08d0fa63e2" y="264.524897"/>
     <use style="fill:#ff0000;stroke:#ff0000;" x="171.519214" xlink:href="#m08d0fa63e2" y="264.524897"/>
    </g>
   </g>
   <g id="line2d_50">
    <path d="M 45.512012 298.944 
L 45.512012 284.029055 
L 76.759008 284.029055 
L 76.759008 283.455404 
L 83.830028 283.455404 
L 83.830028 282.881752 
L 87.329581 282.881752 
L 87.329581 282.3081 
L 88.846997 282.3081 
L 88.846997 281.734448 
L 91.535274 281.734448 
L 91.535274 281.160797 
L 93.863965 281.160797 
L 93.863965 280.013493 
L 94.921215 280.013493 
L 94.921215 279.439842 
L 95.918017 279.439842 
L 95.918017 278.86619 
L 96.86091 278.86619 
L 96.86091 277.718886 
L 97.755429 277.718886 
L 97.755429 277.145235 
L 105.398279 277.145235 
L 105.398279 276.571583 
L 108.948899 276.571583 
L 108.948899 275.997931 
L 110.694282 275.997931 
L 110.694282 275.42428 
L 112.655818 275.42428 
L 112.655818 273.703324 
L 113.382559 273.703324 
L 113.382559 273.129673 
L 114.751048 273.129673 
L 114.751048 272.556021 
L 115.711251 272.556021 
L 115.711251 271.408718 
L 116.621333 271.408718 
L 116.621333 270.835066 
L 116.914437 270.835066 
L 116.914437 270.261414 
L 117.486268 270.261414 
L 117.486268 269.687762 
L 121.489881 269.687762 
L 121.489881 269.114111 
L 132.659801 269.114111 
L 132.659801 268.540459 
L 134.870259 268.540459 
L 134.870259 267.966807 
L 148.592055 267.966807 
L 148.592055 267.393156 
L 149.911431 267.393156 
L 149.911431 266.819504 
L 158.058592 266.819504 
L 158.058592 266.245852 
L 158.811096 266.245852 
L 158.811096 265.6722 
L 159.658204 265.6722 
L 159.658204 265.098549 
L 171.519214 265.098549 
L 171.519214 264.524897 
L 338.688 264.524897 
" style="fill:none;stroke:#ff0000;stroke-linecap:square;stroke-width:1.5;"/>
   </g>
   <g id="line2d_51">
    <defs>
     <path d="M 0 -6 
L -5.196152 -3 
L -5.196152 3 
L -0 6 
L 5.196152 3 
L 5.196152 -3 
z
" id="m1d1458dcac" style="stroke:#ff0000;stroke-linejoin:miter;stroke-width:1.5;"/>
    </defs>
    <g>
     <use style="fill-opacity:0;stroke:#ff0000;stroke-linejoin:miter;stroke-width:1.5;" x="134.870259" xlink:href="#m1d1458dcac" y="268.540459"/>
     <use style="fill-opacity:0;stroke:#ff0000;stroke-linejoin:miter;stroke-width:1.5;" x="171.519214" xlink:href="#m1d1458dcac" y="265.098549"/>
     <use style="fill-opacity:0;stroke:#ff0000;stroke-linejoin:miter;stroke-width:1.5;" x="171.519214" xlink:href="#m1d1458dcac" y="264.524897"/>
     <use style="fill-opacity:0;stroke:#ff0000;stroke-linejoin:miter;stroke-width:1.5;" x="171.519214" xlink:href="#m1d1458dcac" y="264.524897"/>
     <use style="fill-opacity:0;stroke:#ff0000;stroke-linejoin:miter;stroke-width:1.5;" x="338.688" xlink:href="#m1d1458dcac" y="264.524897"/>
    </g>
   </g>
   <g id="line2d_52">
    <path style="fill:none;stroke:#ff0000;stroke-linecap:square;stroke-width:1.5;"/>
    <g/>
   </g>
   <g id="line2d_53">
    <path clip-path="url(#pd11115dad0)" d="M 123.985457 269.114111 
" style="fill:none;stroke:#ff0000;stroke-linecap:square;stroke-width:1.5;"/>
    <defs>
     <path d="M -12 12 
L 12 -12 
M -12 -12 
L 12 12 
" id="m298b28a553" style="stroke:#ff0000;"/>
    </defs>
    <g clip-path="url(#pd11115dad0)">
     <use style="fill:#ff0000;stroke:#ff0000;" x="123.985457" xlink:href="#m298b28a553" y="269.114111"/>
    </g>
   </g>
   <g id="line2d_54">
    <path d="M 338.688 264.524897 
L 369.60768 293.092752 
" style="fill:none;stroke:#ff0000;stroke-linecap:square;stroke-width:1.5;"/>
    <g>
     <use style="fill-opacity:0;stroke:#ff0000;stroke-linejoin:miter;stroke-width:1.5;" x="338.688" xlink:href="#m1d1458dcac" y="264.524897"/>
     <use style="fill-opacity:0;stroke:#ff0000;stroke-linejoin:miter;stroke-width:1.5;" x="369.60768" xlink:href="#m1d1458dcac" y="293.092752"/>
    </g>
   </g>
   <g id="line2d_55">
    <path d="M 338.688 258.78838 
L 369.60768 222.877782 
" style="fill:none;stroke:#6495ed;stroke-linecap:square;stroke-width:1.5;"/>
    <g>
     <use style="fill-opacity:0;stroke:#6495ed;stroke-linejoin:miter;stroke-width:1.5;" x="338.688" xlink:href="#mf87b4463d4" y="258.78838"/>
     <use style="fill-opacity:0;stroke:#6495ed;stroke-linejoin:miter;stroke-width:1.5;" x="369.60768" xlink:href="#mf87b4463d4" y="222.877782"/>
    </g>
   </g>
   <g id="line2d_56">
    <path d="M 338.688 247.315345 
L 369.60768 152.662812 
" style="fill:none;stroke:#000080;stroke-linecap:square;stroke-width:1.5;"/>
    <g>
     <use style="fill-opacity:0;stroke:#000080;stroke-width:1.5;" x="338.688" xlink:href="#m58f89adf23" y="247.315345"/>
     <use style="fill-opacity:0;stroke:#000080;stroke-width:1.5;" x="369.60768" xlink:href="#m58f89adf23" y="152.662812"/>
    </g>
   </g>
   <g id="line2d_57">
    <path d="M 338.688 6.381624 
L 369.60768 82.447842 
" style="fill:none;stroke:#ff7500;stroke-linecap:square;stroke-width:1.5;"/>
    <g>
     <use style="fill-opacity:0;stroke:#ff7500;stroke-linejoin:bevel;stroke-width:1.5;" x="338.688" xlink:href="#mba6bce5f0d" y="6.381624"/>
     <use style="fill-opacity:0;stroke:#ff7500;stroke-linejoin:bevel;stroke-width:1.5;" x="369.60768" xlink:href="#mba6bce5f0d" y="82.447842"/>
    </g>
   </g>
   <g id="line2d_58">
    <path d="M 338.688 6.381624 
L 369.60768 12.232871 
" style="fill:none;stroke:#ff00ff;stroke-linecap:square;stroke-width:1.5;"/>
    <g>
     <use style="fill-opacity:0;stroke:#ff00ff;stroke-linejoin:miter;stroke-width:1.5;" x="338.688" xlink:href="#m916e7b7438" y="6.381624"/>
     <use style="fill-opacity:0;stroke:#ff00ff;stroke-linejoin:miter;stroke-width:1.5;" x="369.60768" xlink:href="#m916e7b7438" y="12.232871"/>
    </g>
   </g>
   <g id="line2d_59">
    <path d="M 338.688 298.944 
L 338.688 6.381624 
" style="fill:none;stroke:#000000;stroke-linecap:square;stroke-width:1.5;"/>
   </g>
   <g id="patch_3">
    <path d="M 57.6 298.944 
L 57.6 3.456 
" style="fill:none;stroke:#000000;stroke-linecap:square;stroke-linejoin:miter;stroke-width:0.8;"/>
   </g>
   <g id="patch_4">
    <path d="M 338.688 298.944 
L 338.688 3.456 
" style="fill:none;stroke:#000000;stroke-linecap:square;stroke-linejoin:miter;stroke-width:0.8;"/>
   </g>
   <g id="patch_5">
    <path d="M 57.6 298.944 
L 338.688 298.944 
" style="fill:none;stroke:#000000;stroke-linecap:square;stroke-linejoin:miter;stroke-width:0.8;"/>
   </g>
   <g id="patch_6">
    <path d="M 57.6 3.456 
L 338.688 3.456 
" style="fill:none;stroke:#000000;stroke-linecap:square;stroke-linejoin:miter;stroke-width:0.8;"/>
   </g>
   <g id="text_13">
    <!-- f24 -->
    <g transform="translate(375.22944 297.78369)scale(0.17 -0.17)">
     <use xlink:href="#DejaVuSans-102"/>
     <use x="35.205078" xlink:href="#DejaVuSans-50"/>
     <use x="98.828125" xlink:href="#DejaVuSans-52"/>
    </g>
   </g>
   <g id="text_14">
    <!-- f23 -->
    <g transform="translate(375.22944 227.56872)scale(0.17 -0.17)">
     <defs>
      <path d="M 40.578125 39.3125 
Q 47.65625 37.796875 51.625 33 
Q 55.609375 28.21875 55.609375 21.1875 
Q 55.609375 10.40625 48.1875 4.484375 
Q 40.765625 -1.421875 27.09375 -1.421875 
Q 22.515625 -1.421875 17.65625 -0.515625 
Q 12.796875 0.390625 7.625 2.203125 
L 7.625 11.71875 
Q 11.71875 9.328125 16.59375 8.109375 
Q 21.484375 6.890625 26.8125 6.890625 
Q 36.078125 6.890625 40.9375 10.546875 
Q 45.796875 14.203125 45.796875 21.1875 
Q 45.796875 27.640625 41.28125 31.265625 
Q 36.765625 34.90625 28.71875 34.90625 
L 20.21875 34.90625 
L 20.21875 43.015625 
L 29.109375 43.015625 
Q 36.375 43.015625 40.234375 45.921875 
Q 44.09375 48.828125 44.09375 54.296875 
Q 44.09375 59.90625 40.109375 62.90625 
Q 36.140625 65.921875 28.71875 65.921875 
Q 24.65625 65.921875 20.015625 65.03125 
Q 15.375 64.15625 9.8125 62.3125 
L 9.8125 71.09375 
Q 15.4375 72.65625 20.34375 73.4375 
Q 25.25 74.21875 29.59375 74.21875 
Q 40.828125 74.21875 47.359375 69.109375 
Q 53.90625 64.015625 53.90625 55.328125 
Q 53.90625 49.265625 50.4375 45.09375 
Q 46.96875 40.921875 40.578125 39.3125 
z
" id="DejaVuSans-51"/>
     </defs>
     <use xlink:href="#DejaVuSans-102"/>
     <use x="35.205078" xlink:href="#DejaVuSans-50"/>
     <use x="98.828125" xlink:href="#DejaVuSans-51"/>
    </g>
   </g>
   <g id="text_15">
    <!-- f20 -->
    <g transform="translate(375.22944 157.353749)scale(0.17 -0.17)">
     <use xlink:href="#DejaVuSans-102"/>
     <use x="35.205078" xlink:href="#DejaVuSans-50"/>
     <use x="98.828125" xlink:href="#DejaVuSans-48"/>
    </g>
   </g>
   <g id="text_16">
    <!-- f22 -->
    <g transform="translate(375.22944 87.138779)scale(0.17 -0.17)">
     <use xlink:href="#DejaVuSans-102"/>
     <use x="35.205078" xlink:href="#DejaVuSans-50"/>
     <use x="98.828125" xlink:href="#DejaVuSans-50"/>
    </g>
   </g>
   <g id="text_17">
    <!-- f21 -->
    <g transform="translate(375.22944 16.923809)scale(0.17 -0.17)">
     <use xlink:href="#DejaVuSans-102"/>
     <use x="35.205078" xlink:href="#DejaVuSans-50"/>
     <use x="98.828125" xlink:href="#DejaVuSans-49"/>
    </g>
   </g>
   <g id="text_18">
    <!-- bbob -->
    <g transform="translate(60.41088 14.161286)scale(0.102 -0.102)">
     <defs>
      <path d="M 48.6875 27.296875 
Q 48.6875 37.203125 44.609375 42.84375 
Q 40.53125 48.484375 33.40625 48.484375 
Q 26.265625 48.484375 22.1875 42.84375 
Q 18.109375 37.203125 18.109375 27.296875 
Q 18.109375 17.390625 22.1875 11.75 
Q 26.265625 6.109375 33.40625 6.109375 
Q 40.53125 6.109375 44.609375 11.75 
Q 48.6875 17.390625 48.6875 27.296875 
z
M 18.109375 46.390625 
Q 20.953125 51.265625 25.265625 53.625 
Q 29.59375 56 35.59375 56 
Q 45.5625 56 51.78125 48.09375 
Q 58.015625 40.1875 58.015625 27.296875 
Q 58.015625 14.40625 51.78125 6.484375 
Q 45.5625 -1.421875 35.59375 -1.421875 
Q 29.59375 -1.421875 25.265625 0.953125 
Q 20.953125 3.328125 18.109375 8.203125 
L 18.109375 0 
L 9.078125 0 
L 9.078125 75.984375 
L 18.109375 75.984375 
z
" id="DejaVuSans-98"/>
     </defs>
     <use xlink:href="#DejaVuSans-98"/>
     <use x="63.476562" xlink:href="#DejaVuSans-98"/>
     <use x="126.953125" xlink:href="#DejaVuSans-111"/>
     <use x="188.134766" xlink:href="#DejaVuSans-98"/>
    </g>
    <!-- Weak structure functions, 2-D -->
    <g transform="translate(60.41088 25.583055)scale(0.102 -0.102)">
     <defs>
      <path d="M 3.328125 72.90625 
L 13.28125 72.90625 
L 28.609375 11.28125 
L 43.890625 72.90625 
L 54.984375 72.90625 
L 70.3125 11.28125 
L 85.59375 72.90625 
L 95.609375 72.90625 
L 77.296875 0 
L 64.890625 0 
L 49.515625 63.28125 
L 33.984375 0 
L 21.578125 0 
z
" id="DejaVuSans-87"/>
      <path d="M 9.078125 75.984375 
L 18.109375 75.984375 
L 18.109375 31.109375 
L 44.921875 54.6875 
L 56.390625 54.6875 
L 27.390625 29.109375 
L 57.625 0 
L 45.90625 0 
L 18.109375 26.703125 
L 18.109375 0 
L 9.078125 0 
z
" id="DejaVuSans-107"/>
      <path d="M 19.671875 64.796875 
L 19.671875 8.109375 
L 31.59375 8.109375 
Q 46.6875 8.109375 53.6875 14.9375 
Q 60.6875 21.78125 60.6875 36.53125 
Q 60.6875 51.171875 53.6875 57.984375 
Q 46.6875 64.796875 31.59375 64.796875 
z
M 9.8125 72.90625 
L 30.078125 72.90625 
Q 51.265625 72.90625 61.171875 64.09375 
Q 71.09375 55.28125 71.09375 36.53125 
Q 71.09375 17.671875 61.125 8.828125 
Q 51.171875 0 30.078125 0 
L 9.8125 0 
z
" id="DejaVuSans-68"/>
     </defs>
     <use xlink:href="#DejaVuSans-87"/>
     <use x="93.001953" xlink:href="#DejaVuSans-101"/>
     <use x="154.525391" xlink:href="#DejaVuSans-97"/>
     <use x="215.804688" xlink:href="#DejaVuSans-107"/>
     <use x="273.714844" xlink:href="#DejaVuSans-32"/>
     <use x="305.501953" xlink:href="#DejaVuSans-115"/>
     <use x="357.601562" xlink:href="#DejaVuSans-116"/>
     <use x="396.810547" xlink:href="#DejaVuSans-114"/>
     <use x="437.923828" xlink:href="#DejaVuSans-117"/>
     <use x="501.302734" xlink:href="#DejaVuSans-99"/>
     <use x="556.283203" xlink:href="#DejaVuSans-116"/>
     <use x="595.492188" xlink:href="#DejaVuSans-117"/>
     <use x="658.871094" xlink:href="#DejaVuSans-114"/>
     <use x="697.734375" xlink:href="#DejaVuSans-101"/>
     <use x="759.257812" xlink:href="#DejaVuSans-32"/>
     <use x="791.044922" xlink:href="#DejaVuSans-102"/>
     <use x="826.25" xlink:href="#DejaVuSans-117"/>
     <use x="889.628906" xlink:href="#DejaVuSans-110"/>
     <use x="953.007812" xlink:href="#DejaVuSans-99"/>
     <use x="1007.988281" xlink:href="#DejaVuSans-116"/>
     <use x="1047.197266" xlink:href="#DejaVuSans-105"/>
     <use x="1074.980469" xlink:href="#DejaVuSans-111"/>
     <use x="1136.162109" xlink:href="#DejaVuSans-110"/>
     <use x="1199.541016" xlink:href="#DejaVuSans-115"/>
     <use x="1251.640625" xlink:href="#DejaVuSans-44"/>
     <use x="1283.427734" xlink:href="#DejaVuSans-32"/>
     <use x="1315.214844" xlink:href="#DejaVuSans-50"/>
     <use x="1378.837891" xlink:href="#DejaVuSans-45"/>
     <use x="1414.921875" xlink:href="#DejaVuSans-68"/>
    </g>
    <!-- 51 targets: 100..1e-08 -->
    <g transform="translate(60.41088 37.004824)scale(0.102 -0.102)">
     <defs>
      <path d="M 10.796875 72.90625 
L 49.515625 72.90625 
L 49.515625 64.59375 
L 19.828125 64.59375 
L 19.828125 46.734375 
Q 21.96875 47.46875 24.109375 47.828125 
Q 26.265625 48.1875 28.421875 48.1875 
Q 40.625 48.1875 47.75 41.5 
Q 54.890625 34.8125 54.890625 23.390625 
Q 54.890625 11.625 47.5625 5.09375 
Q 40.234375 -1.421875 26.90625 -1.421875 
Q 22.3125 -1.421875 17.546875 -0.640625 
Q 12.796875 0.140625 7.71875 1.703125 
L 7.71875 11.625 
Q 12.109375 9.234375 16.796875 8.0625 
Q 21.484375 6.890625 26.703125 6.890625 
Q 35.15625 6.890625 40.078125 11.328125 
Q 45.015625 15.765625 45.015625 23.390625 
Q 45.015625 31 40.078125 35.4375 
Q 35.15625 39.890625 26.703125 39.890625 
Q 22.75 39.890625 18.8125 39.015625 
Q 14.890625 38.140625 10.796875 36.28125 
z
" id="DejaVuSans-53"/>
      <path d="M 11.71875 12.40625 
L 22.015625 12.40625 
L 22.015625 0 
L 11.71875 0 
z
M 11.71875 51.703125 
L 22.015625 51.703125 
L 22.015625 39.3125 
L 11.71875 39.3125 
z
" id="DejaVuSans-58"/>
     </defs>
     <use xlink:href="#DejaVuSans-53"/>
     <use x="63.623047" xlink:href="#DejaVuSans-49"/>
     <use x="127.246094" xlink:href="#DejaVuSans-32"/>
     <use x="159.033203" xlink:href="#DejaVuSans-116"/>
     <use x="198.242188" xlink:href="#DejaVuSans-97"/>
     <use x="259.521484" xlink:href="#DejaVuSans-114"/>
     <use x="298.884766" xlink:href="#DejaVuSans-103"/>
     <use x="362.361328" xlink:href="#DejaVuSans-101"/>
     <use x="423.884766" xlink:href="#DejaVuSans-116"/>
     <use x="463.09375" xlink:href="#DejaVuSans-115"/>
     <use x="515.193359" xlink:href="#DejaVuSans-58"/>
     <use x="548.884766" xlink:href="#DejaVuSans-32"/>
     <use x="580.671875" xlink:href="#DejaVuSans-49"/>
     <use x="644.294922" xlink:href="#DejaVuSans-48"/>
     <use x="707.917969" xlink:href="#DejaVuSans-48"/>
     <use x="771.541016" xlink:href="#DejaVuSans-46"/>
     <use x="803.328125" xlink:href="#DejaVuSans-46"/>
     <use x="835.115234" xlink:href="#DejaVuSans-49"/>
     <use x="898.738281" xlink:href="#DejaVuSans-101"/>
     <use x="960.261719" xlink:href="#DejaVuSans-45"/>
     <use x="996.345703" xlink:href="#DejaVuSans-48"/>
     <use x="1059.96875" xlink:href="#DejaVuSans-56"/>
    </g>
    <!-- 15 instances -->
    <g transform="translate(60.41088 48.426593)scale(0.102 -0.102)">
     <use xlink:href="#DejaVuSans-49"/>
     <use x="63.623047" xlink:href="#DejaVuSans-53"/>
     <use x="127.246094" xlink:href="#DejaVuSans-32"/>
     <use x="159.033203" xlink:href="#DejaVuSans-105"/>
     <use x="186.816406" xlink:href="#DejaVuSans-110"/>
     <use x="250.195312" xlink:href="#DejaVuSans-115"/>
     <use x="302.294922" xlink:href="#DejaVuSans-116"/>
     <use x="341.503906" xlink:href="#DejaVuSans-97"/>
     <use x="402.783203" xlink:href="#DejaVuSans-110"/>
     <use x="466.162109" xlink:href="#DejaVuSans-99"/>
     <use x="521.142578" xlink:href="#DejaVuSans-101"/>
     <use x="582.666016" xlink:href="#DejaVuSans-115"/>
    </g>
   </g>
   <g id="text_19">
    <!-- v2.4 -->
    <g style="fill:#808080;" transform="translate(187.233062 293.909432)scale(0.1 -0.1)">
     <use xlink:href="#DejaVuSans-118"/>
     <use x="59.179688" xlink:href="#DejaVuSans-50"/>
     <use x="122.802734" xlink:href="#DejaVuSans-46"/>
     <use x="154.589844" xlink:href="#DejaVuSans-52"/>
    </g>
   </g>
  </g>
 </g>
 <defs>
  <clipPath id="pd11115dad0">
   <rect height="295.488" width="281.088" x="57.6" y="3.456"/>
  </clipPath>
 </defs>
</svg>
