<?xml version="1.0" encoding="utf-8" standalone="no"?>
<!DOCTYPE svg PUBLIC "-//W3C//DTD SVG 1.1//EN"
  "http://www.w3.org/Graphics/SVG/1.1/DTD/svg11.dtd">
<!-- Created with matplotlib (https://matplotlib.org/) -->
<svg height="345.6pt" version="1.1" viewBox="0 0 460.8 345.6" width="460.8pt" xmlns="http://www.w3.org/2000/svg" xmlns:xlink="http://www.w3.org/1999/xlink">
 <metadata>
  <rdf:RDF xmlns:cc="http://creativecommons.org/ns#" xmlns:dc="http://purl.org/dc/elements/1.1/" xmlns:rdf="http://www.w3.org/1999/02/22-rdf-syntax-ns#">
   <cc:Work>
    <dc:type rdf:resource="http://purl.org/dc/dcmitype/StillImage"/>
    <dc:date>2021-08-04T10:26:30.070267</dc:date>
    <dc:format>image/svg+xml</dc:format>
    <dc:creator>
     <cc:Agent>
      <dc:title>Matplotlib v3.3.1, https://matplotlib.org/</dc:title>
     </cc:Agent>
    </dc:creator>
   </cc:Work>
  </rdf:RDF>
 </metadata>
 <defs>
  <style type="text/css">*{stroke-linecap:butt;stroke-linejoin:round;}</style>
 </defs>
 <g id="figure_1">
  <g id="patch_1">
   <path d="M 0 345.6 
L 460.8 345.6 
L 460.8 0 
L 0 0 
z
" style="fill:#ffffff;"/>
  </g>
  <g id="axes_1">
   <g id="patch_2">
    <path d="M 57.6 298.944 
L 338.688 298.944 
L 338.688 3.456 
L 57.6 3.456 
z
" style="fill:#ffffff;"/>
   </g>
   <g id="matplotlib.axis_1">
    <g id="xtick_1">
     <g id="line2d_1">
      <path clip-path="url(#pd137300ce5)" d="M 57.6 298.944 
L 57.6 3.456 
" style="fill:none;stroke:#b0b0b0;stroke-linecap:square;stroke-width:0.8;"/>
     </g>
     <g id="line2d_2">
      <defs>
       <path d="M 0 0 
L 0 3.5 
" id="m863e45ba48" style="stroke:#000000;stroke-width:0.8;"/>
      </defs>
      <g>
       <use style="stroke:#000000;stroke-width:0.8;" x="57.6" xlink:href="#m863e45ba48" y="298.944"/>
      </g>
     </g>
     <g id="text_1">
      <!-- 0 -->
      <g transform="translate(51.2375 321.140875)scale(0.2 -0.2)">
       <defs>
        <path d="M 31.78125 66.40625 
Q 24.171875 66.40625 20.328125 58.90625 
Q 16.5 51.421875 16.5 36.375 
Q 16.5 21.390625 20.328125 13.890625 
Q 24.171875 6.390625 31.78125 6.390625 
Q 39.453125 6.390625 43.28125 13.890625 
Q 47.125 21.390625 47.125 36.375 
Q 47.125 51.421875 43.28125 58.90625 
Q 39.453125 66.40625 31.78125 66.40625 
z
M 31.78125 74.21875 
Q 44.046875 74.21875 50.515625 64.515625 
Q 56.984375 54.828125 56.984375 36.375 
Q 56.984375 17.96875 50.515625 8.265625 
Q 44.046875 -1.421875 31.78125 -1.421875 
Q 19.53125 -1.421875 13.0625 8.265625 
Q 6.59375 17.96875 6.59375 36.375 
Q 6.59375 54.828125 13.0625 64.515625 
Q 19.53125 74.21875 31.78125 74.21875 
z
" id="DejaVuSans-48"/>
       </defs>
       <use xlink:href="#DejaVuSans-48"/>
      </g>
     </g>
    </g>
    <g id="xtick_2">
     <g id="line2d_3">
      <path clip-path="url(#pd137300ce5)" d="M 137.910857 298.944 
L 137.910857 3.456 
" style="fill:none;stroke:#b0b0b0;stroke-linecap:square;stroke-width:0.8;"/>
     </g>
     <g id="line2d_4">
      <g>
       <use style="stroke:#000000;stroke-width:0.8;" x="137.910857" xlink:href="#m863e45ba48" y="298.944"/>
      </g>
     </g>
     <g id="text_2">
      <!-- 2 -->
      <g transform="translate(131.548357 321.140875)scale(0.2 -0.2)">
       <defs>
        <path d="M 19.1875 8.296875 
L 53.609375 8.296875 
L 53.609375 0 
L 7.328125 0 
L 7.328125 8.296875 
Q 12.9375 14.109375 22.625 23.890625 
Q 32.328125 33.6875 34.8125 36.53125 
Q 39.546875 41.84375 41.421875 45.53125 
Q 43.3125 49.21875 43.3125 52.78125 
Q 43.3125 58.59375 39.234375 62.25 
Q 35.15625 65.921875 28.609375 65.921875 
Q 23.96875 65.921875 18.8125 64.3125 
Q 13.671875 62.703125 7.8125 59.421875 
L 7.8125 69.390625 
Q 13.765625 71.78125 18.9375 73 
Q 24.125 74.21875 28.421875 74.21875 
Q 39.75 74.21875 46.484375 68.546875 
Q 53.21875 62.890625 53.21875 53.421875 
Q 53.21875 48.921875 51.53125 44.890625 
Q 49.859375 40.875 45.40625 35.40625 
Q 44.1875 33.984375 37.640625 27.21875 
Q 31.109375 20.453125 19.1875 8.296875 
z
" id="DejaVuSans-50"/>
       </defs>
       <use xlink:href="#DejaVuSans-50"/>
      </g>
     </g>
    </g>
    <g id="xtick_3">
     <g id="line2d_5">
      <path clip-path="url(#pd137300ce5)" d="M 218.221714 298.944 
L 218.221714 3.456 
" style="fill:none;stroke:#b0b0b0;stroke-linecap:square;stroke-width:0.8;"/>
     </g>
     <g id="line2d_6">
      <g>
       <use style="stroke:#000000;stroke-width:0.8;" x="218.221714" xlink:href="#m863e45ba48" y="298.944"/>
      </g>
     </g>
     <g id="text_3">
      <!-- 4 -->
      <g transform="translate(211.859214 321.140875)scale(0.2 -0.2)">
       <defs>
        <path d="M 37.796875 64.3125 
L 12.890625 25.390625 
L 37.796875 25.390625 
z
M 35.203125 72.90625 
L 47.609375 72.90625 
L 47.609375 25.390625 
L 58.015625 25.390625 
L 58.015625 17.1875 
L 47.609375 17.1875 
L 47.609375 0 
L 37.796875 0 
L 37.796875 17.1875 
L 4.890625 17.1875 
L 4.890625 26.703125 
z
" id="DejaVuSans-52"/>
       </defs>
       <use xlink:href="#DejaVuSans-52"/>
      </g>
     </g>
    </g>
    <g id="xtick_4">
     <g id="line2d_7">
      <path clip-path="url(#pd137300ce5)" d="M 298.532571 298.944 
L 298.532571 3.456 
" style="fill:none;stroke:#b0b0b0;stroke-linecap:square;stroke-width:0.8;"/>
     </g>
     <g id="line2d_8">
      <g>
       <use style="stroke:#000000;stroke-width:0.8;" x="298.532571" xlink:href="#m863e45ba48" y="298.944"/>
      </g>
     </g>
     <g id="text_4">
      <!-- 6 -->
      <g transform="translate(292.170071 321.140875)scale(0.2 -0.2)">
       <defs>
        <path d="M 33.015625 40.375 
Q 26.375 40.375 22.484375 35.828125 
Q 18.609375 31.296875 18.609375 23.390625 
Q 18.609375 15.53125 22.484375 10.953125 
Q 26.375 6.390625 33.015625 6.390625 
Q 39.65625 6.390625 43.53125 10.953125 
Q 47.40625 15.53125 47.40625 23.390625 
Q 47.40625 31.296875 43.53125 35.828125 
Q 39.65625 40.375 33.015625 40.375 
z
M 52.59375 71.296875 
L 52.59375 62.3125 
Q 48.875 64.0625 45.09375 64.984375 
Q 41.3125 65.921875 37.59375 65.921875 
Q 27.828125 65.921875 22.671875 59.328125 
Q 17.53125 52.734375 16.796875 39.40625 
Q 19.671875 43.65625 24.015625 45.921875 
Q 28.375 48.1875 33.59375 48.1875 
Q 44.578125 48.1875 50.953125 41.515625 
Q 57.328125 34.859375 57.328125 23.390625 
Q 57.328125 12.15625 50.6875 5.359375 
Q 44.046875 -1.421875 33.015625 -1.421875 
Q 20.359375 -1.421875 13.671875 8.265625 
Q 6.984375 17.96875 6.984375 36.375 
Q 6.984375 53.65625 15.1875 63.9375 
Q 23.390625 74.21875 37.203125 74.21875 
Q 40.921875 74.21875 44.703125 73.484375 
Q 48.484375 72.75 52.59375 71.296875 
z
" id="DejaVuSans-54"/>
       </defs>
       <use xlink:href="#DejaVuSans-54"/>
      </g>
     </g>
    </g>
    <g id="xtick_5">
     <g id="line2d_9">
      <path clip-path="url(#pd137300ce5)" d="M 97.755429 298.944 
L 97.755429 3.456 
" style="fill:none;stroke:#b0b0b0;stroke-linecap:square;stroke-width:0.8;"/>
     </g>
     <g id="line2d_10">
      <defs>
       <path d="M 0 0 
L 0 2 
" id="m444bafcf79" style="stroke:#000000;stroke-width:0.6;"/>
      </defs>
      <g>
       <use style="stroke:#000000;stroke-width:0.6;" x="97.755429" xlink:href="#m444bafcf79" y="298.944"/>
      </g>
     </g>
    </g>
    <g id="xtick_6">
     <g id="line2d_11">
      <path clip-path="url(#pd137300ce5)" d="M 178.066286 298.944 
L 178.066286 3.456 
" style="fill:none;stroke:#b0b0b0;stroke-linecap:square;stroke-width:0.8;"/>
     </g>
     <g id="line2d_12">
      <g>
       <use style="stroke:#000000;stroke-width:0.6;" x="178.066286" xlink:href="#m444bafcf79" y="298.944"/>
      </g>
     </g>
    </g>
    <g id="xtick_7">
     <g id="line2d_13">
      <path clip-path="url(#pd137300ce5)" d="M 258.377143 298.944 
L 258.377143 3.456 
" style="fill:none;stroke:#b0b0b0;stroke-linecap:square;stroke-width:0.8;"/>
     </g>
     <g id="line2d_14">
      <g>
       <use style="stroke:#000000;stroke-width:0.6;" x="258.377143" xlink:href="#m444bafcf79" y="298.944"/>
      </g>
     </g>
    </g>
    <g id="xtick_8">
     <g id="line2d_15">
      <path clip-path="url(#pd137300ce5)" d="M 338.688 298.944 
L 338.688 3.456 
" style="fill:none;stroke:#b0b0b0;stroke-linecap:square;stroke-width:0.8;"/>
     </g>
     <g id="line2d_16">
      <g>
       <use style="stroke:#000000;stroke-width:0.6;" x="338.688" xlink:href="#m444bafcf79" y="298.944"/>
      </g>
     </g>
    </g>
    <g id="text_5">
     <!-- log10(# f-evals / dimension) -->
     <g transform="translate(77.764078 342.217594)scale(0.17 -0.17)">
      <defs>
       <path d="M 9.421875 75.984375 
L 18.40625 75.984375 
L 18.40625 0 
L 9.421875 0 
z
" id="DejaVuSans-108"/>
       <path d="M 30.609375 48.390625 
Q 23.390625 48.390625 19.1875 42.75 
Q 14.984375 37.109375 14.984375 27.296875 
Q 14.984375 17.484375 19.15625 11.84375 
Q 23.34375 6.203125 30.609375 6.203125 
Q 37.796875 6.203125 41.984375 11.859375 
Q 46.1875 17.53125 46.1875 27.296875 
Q 46.1875 37.015625 41.984375 42.703125 
Q 37.796875 48.390625 30.609375 48.390625 
z
M 30.609375 56 
Q 42.328125 56 49.015625 48.375 
Q 55.71875 40.765625 55.71875 27.296875 
Q 55.71875 13.875 49.015625 6.21875 
Q 42.328125 -1.421875 30.609375 -1.421875 
Q 18.84375 -1.421875 12.171875 6.21875 
Q 5.515625 13.875 5.515625 27.296875 
Q 5.515625 40.765625 12.171875 48.375 
Q 18.84375 56 30.609375 56 
z
" id="DejaVuSans-111"/>
       <path d="M 45.40625 27.984375 
Q 45.40625 37.75 41.375 43.109375 
Q 37.359375 48.484375 30.078125 48.484375 
Q 22.859375 48.484375 18.828125 43.109375 
Q 14.796875 37.75 14.796875 27.984375 
Q 14.796875 18.265625 18.828125 12.890625 
Q 22.859375 7.515625 30.078125 7.515625 
Q 37.359375 7.515625 41.375 12.890625 
Q 45.40625 18.265625 45.40625 27.984375 
z
M 54.390625 6.78125 
Q 54.390625 -7.171875 48.1875 -13.984375 
Q 42 -20.796875 29.203125 -20.796875 
Q 24.46875 -20.796875 20.265625 -20.09375 
Q 16.0625 -19.390625 12.109375 -17.921875 
L 12.109375 -9.1875 
Q 16.0625 -11.328125 19.921875 -12.34375 
Q 23.78125 -13.375 27.78125 -13.375 
Q 36.625 -13.375 41.015625 -8.765625 
Q 45.40625 -4.15625 45.40625 5.171875 
L 45.40625 9.625 
Q 42.625 4.78125 38.28125 2.390625 
Q 33.9375 0 27.875 0 
Q 17.828125 0 11.671875 7.65625 
Q 5.515625 15.328125 5.515625 27.984375 
Q 5.515625 40.671875 11.671875 48.328125 
Q 17.828125 56 27.875 56 
Q 33.9375 56 38.28125 53.609375 
Q 42.625 51.21875 45.40625 46.390625 
L 45.40625 54.6875 
L 54.390625 54.6875 
z
" id="DejaVuSans-103"/>
       <path d="M 12.40625 8.296875 
L 28.515625 8.296875 
L 28.515625 63.921875 
L 10.984375 60.40625 
L 10.984375 69.390625 
L 28.421875 72.90625 
L 38.28125 72.90625 
L 38.28125 8.296875 
L 54.390625 8.296875 
L 54.390625 0 
L 12.40625 0 
z
" id="DejaVuSans-49"/>
       <path d="M 31 75.875 
Q 24.46875 64.65625 21.28125 53.65625 
Q 18.109375 42.671875 18.109375 31.390625 
Q 18.109375 20.125 21.3125 9.0625 
Q 24.515625 -2 31 -13.1875 
L 23.1875 -13.1875 
Q 15.875 -1.703125 12.234375 9.375 
Q 8.59375 20.453125 8.59375 31.390625 
Q 8.59375 42.28125 12.203125 53.3125 
Q 15.828125 64.359375 23.1875 75.875 
z
" id="DejaVuSans-40"/>
       <path d="M 51.125 44 
L 36.921875 44 
L 32.8125 27.6875 
L 47.125 27.6875 
z
M 43.796875 71.78125 
L 38.71875 51.515625 
L 52.984375 51.515625 
L 58.109375 71.78125 
L 65.921875 71.78125 
L 60.890625 51.515625 
L 76.125 51.515625 
L 76.125 44 
L 58.984375 44 
L 54.984375 27.6875 
L 70.515625 27.6875 
L 70.515625 20.21875 
L 53.078125 20.21875 
L 48 0 
L 40.1875 0 
L 45.21875 20.21875 
L 30.90625 20.21875 
L 25.875 0 
L 18.015625 0 
L 23.09375 20.21875 
L 7.71875 20.21875 
L 7.71875 27.6875 
L 24.90625 27.6875 
L 29 44 
L 13.28125 44 
L 13.28125 51.515625 
L 30.90625 51.515625 
L 35.890625 71.78125 
z
" id="DejaVuSans-35"/>
       <path id="DejaVuSans-32"/>
       <path d="M 37.109375 75.984375 
L 37.109375 68.5 
L 28.515625 68.5 
Q 23.6875 68.5 21.796875 66.546875 
Q 19.921875 64.59375 19.921875 59.515625 
L 19.921875 54.6875 
L 34.71875 54.6875 
L 34.71875 47.703125 
L 19.921875 47.703125 
L 19.921875 0 
L 10.890625 0 
L 10.890625 47.703125 
L 2.296875 47.703125 
L 2.296875 54.6875 
L 10.890625 54.6875 
L 10.890625 58.5 
Q 10.890625 67.625 15.140625 71.796875 
Q 19.390625 75.984375 28.609375 75.984375 
z
" id="DejaVuSans-102"/>
       <path d="M 4.890625 31.390625 
L 31.203125 31.390625 
L 31.203125 23.390625 
L 4.890625 23.390625 
z
" id="DejaVuSans-45"/>
       <path d="M 56.203125 29.59375 
L 56.203125 25.203125 
L 14.890625 25.203125 
Q 15.484375 15.921875 20.484375 11.0625 
Q 25.484375 6.203125 34.421875 6.203125 
Q 39.59375 6.203125 44.453125 7.46875 
Q 49.3125 8.734375 54.109375 11.28125 
L 54.109375 2.78125 
Q 49.265625 0.734375 44.1875 -0.34375 
Q 39.109375 -1.421875 33.890625 -1.421875 
Q 20.796875 -1.421875 13.15625 6.1875 
Q 5.515625 13.8125 5.515625 26.8125 
Q 5.515625 40.234375 12.765625 48.109375 
Q 20.015625 56 32.328125 56 
Q 43.359375 56 49.78125 48.890625 
Q 56.203125 41.796875 56.203125 29.59375 
z
M 47.21875 32.234375 
Q 47.125 39.59375 43.09375 43.984375 
Q 39.0625 48.390625 32.421875 48.390625 
Q 24.90625 48.390625 20.390625 44.140625 
Q 15.875 39.890625 15.1875 32.171875 
z
" id="DejaVuSans-101"/>
       <path d="M 2.984375 54.6875 
L 12.5 54.6875 
L 29.59375 8.796875 
L 46.6875 54.6875 
L 56.203125 54.6875 
L 35.6875 0 
L 23.484375 0 
z
" id="DejaVuSans-118"/>
       <path d="M 34.28125 27.484375 
Q 23.390625 27.484375 19.1875 25 
Q 14.984375 22.515625 14.984375 16.5 
Q 14.984375 11.71875 18.140625 8.90625 
Q 21.296875 6.109375 26.703125 6.109375 
Q 34.1875 6.109375 38.703125 11.40625 
Q 43.21875 16.703125 43.21875 25.484375 
L 43.21875 27.484375 
z
M 52.203125 31.203125 
L 52.203125 0 
L 43.21875 0 
L 43.21875 8.296875 
Q 40.140625 3.328125 35.546875 0.953125 
Q 30.953125 -1.421875 24.3125 -1.421875 
Q 15.921875 -1.421875 10.953125 3.296875 
Q 6 8.015625 6 15.921875 
Q 6 25.140625 12.171875 29.828125 
Q 18.359375 34.515625 30.609375 34.515625 
L 43.21875 34.515625 
L 43.21875 35.40625 
Q 43.21875 41.609375 39.140625 45 
Q 35.0625 48.390625 27.6875 48.390625 
Q 23 48.390625 18.546875 47.265625 
Q 14.109375 46.140625 10.015625 43.890625 
L 10.015625 52.203125 
Q 14.9375 54.109375 19.578125 55.046875 
Q 24.21875 56 28.609375 56 
Q 40.484375 56 46.34375 49.84375 
Q 52.203125 43.703125 52.203125 31.203125 
z
" id="DejaVuSans-97"/>
       <path d="M 44.28125 53.078125 
L 44.28125 44.578125 
Q 40.484375 46.53125 36.375 47.5 
Q 32.28125 48.484375 27.875 48.484375 
Q 21.1875 48.484375 17.84375 46.4375 
Q 14.5 44.390625 14.5 40.28125 
Q 14.5 37.15625 16.890625 35.375 
Q 19.28125 33.59375 26.515625 31.984375 
L 29.59375 31.296875 
Q 39.15625 29.25 43.1875 25.515625 
Q 47.21875 21.78125 47.21875 15.09375 
Q 47.21875 7.46875 41.1875 3.015625 
Q 35.15625 -1.421875 24.609375 -1.421875 
Q 20.21875 -1.421875 15.453125 -0.5625 
Q 10.6875 0.296875 5.421875 2 
L 5.421875 11.28125 
Q 10.40625 8.6875 15.234375 7.390625 
Q 20.0625 6.109375 24.8125 6.109375 
Q 31.15625 6.109375 34.5625 8.28125 
Q 37.984375 10.453125 37.984375 14.40625 
Q 37.984375 18.0625 35.515625 20.015625 
Q 33.0625 21.96875 24.703125 23.78125 
L 21.578125 24.515625 
Q 13.234375 26.265625 9.515625 29.90625 
Q 5.8125 33.546875 5.8125 39.890625 
Q 5.8125 47.609375 11.28125 51.796875 
Q 16.75 56 26.8125 56 
Q 31.78125 56 36.171875 55.265625 
Q 40.578125 54.546875 44.28125 53.078125 
z
" id="DejaVuSans-115"/>
       <path d="M 25.390625 72.90625 
L 33.6875 72.90625 
L 8.296875 -9.28125 
L 0 -9.28125 
z
" id="DejaVuSans-47"/>
       <path d="M 45.40625 46.390625 
L 45.40625 75.984375 
L 54.390625 75.984375 
L 54.390625 0 
L 45.40625 0 
L 45.40625 8.203125 
Q 42.578125 3.328125 38.25 0.953125 
Q 33.9375 -1.421875 27.875 -1.421875 
Q 17.96875 -1.421875 11.734375 6.484375 
Q 5.515625 14.40625 5.515625 27.296875 
Q 5.515625 40.1875 11.734375 48.09375 
Q 17.96875 56 27.875 56 
Q 33.9375 56 38.25 53.625 
Q 42.578125 51.265625 45.40625 46.390625 
z
M 14.796875 27.296875 
Q 14.796875 17.390625 18.875 11.75 
Q 22.953125 6.109375 30.078125 6.109375 
Q 37.203125 6.109375 41.296875 11.75 
Q 45.40625 17.390625 45.40625 27.296875 
Q 45.40625 37.203125 41.296875 42.84375 
Q 37.203125 48.484375 30.078125 48.484375 
Q 22.953125 48.484375 18.875 42.84375 
Q 14.796875 37.203125 14.796875 27.296875 
z
" id="DejaVuSans-100"/>
       <path d="M 9.421875 54.6875 
L 18.40625 54.6875 
L 18.40625 0 
L 9.421875 0 
z
M 9.421875 75.984375 
L 18.40625 75.984375 
L 18.40625 64.59375 
L 9.421875 64.59375 
z
" id="DejaVuSans-105"/>
       <path d="M 52 44.1875 
Q 55.375 50.25 60.0625 53.125 
Q 64.75 56 71.09375 56 
Q 79.640625 56 84.28125 50.015625 
Q 88.921875 44.046875 88.921875 33.015625 
L 88.921875 0 
L 79.890625 0 
L 79.890625 32.71875 
Q 79.890625 40.578125 77.09375 44.375 
Q 74.3125 48.1875 68.609375 48.1875 
Q 61.625 48.1875 57.5625 43.546875 
Q 53.515625 38.921875 53.515625 30.90625 
L 53.515625 0 
L 44.484375 0 
L 44.484375 32.71875 
Q 44.484375 40.625 41.703125 44.40625 
Q 38.921875 48.1875 33.109375 48.1875 
Q 26.21875 48.1875 22.15625 43.53125 
Q 18.109375 38.875 18.109375 30.90625 
L 18.109375 0 
L 9.078125 0 
L 9.078125 54.6875 
L 18.109375 54.6875 
L 18.109375 46.1875 
Q 21.1875 51.21875 25.484375 53.609375 
Q 29.78125 56 35.6875 56 
Q 41.65625 56 45.828125 52.96875 
Q 50 49.953125 52 44.1875 
z
" id="DejaVuSans-109"/>
       <path d="M 54.890625 33.015625 
L 54.890625 0 
L 45.90625 0 
L 45.90625 32.71875 
Q 45.90625 40.484375 42.875 44.328125 
Q 39.84375 48.1875 33.796875 48.1875 
Q 26.515625 48.1875 22.3125 43.546875 
Q 18.109375 38.921875 18.109375 30.90625 
L 18.109375 0 
L 9.078125 0 
L 9.078125 54.6875 
L 18.109375 54.6875 
L 18.109375 46.1875 
Q 21.34375 51.125 25.703125 53.5625 
Q 30.078125 56 35.796875 56 
Q 45.21875 56 50.046875 50.171875 
Q 54.890625 44.34375 54.890625 33.015625 
z
" id="DejaVuSans-110"/>
       <path d="M 8.015625 75.875 
L 15.828125 75.875 
Q 23.140625 64.359375 26.78125 53.3125 
Q 30.421875 42.28125 30.421875 31.390625 
Q 30.421875 20.453125 26.78125 9.375 
Q 23.140625 -1.703125 15.828125 -13.1875 
L 8.015625 -13.1875 
Q 14.5 -2 17.703125 9.0625 
Q 20.90625 20.125 20.90625 31.390625 
Q 20.90625 42.671875 17.703125 53.65625 
Q 14.5 64.65625 8.015625 75.875 
z
" id="DejaVuSans-41"/>
      </defs>
      <use xlink:href="#DejaVuSans-108"/>
      <use x="27.783203" xlink:href="#DejaVuSans-111"/>
      <use x="88.964844" xlink:href="#DejaVuSans-103"/>
      <use x="152.441406" xlink:href="#DejaVuSans-49"/>
      <use x="216.064453" xlink:href="#DejaVuSans-48"/>
      <use x="279.6875" xlink:href="#DejaVuSans-40"/>
      <use x="318.701172" xlink:href="#DejaVuSans-35"/>
      <use x="402.490234" xlink:href="#DejaVuSans-32"/>
      <use x="434.277344" xlink:href="#DejaVuSans-102"/>
      <use x="463.982422" xlink:href="#DejaVuSans-45"/>
      <use x="500.066406" xlink:href="#DejaVuSans-101"/>
      <use x="561.589844" xlink:href="#DejaVuSans-118"/>
      <use x="620.769531" xlink:href="#DejaVuSans-97"/>
      <use x="682.048828" xlink:href="#DejaVuSans-108"/>
      <use x="709.832031" xlink:href="#DejaVuSans-115"/>
      <use x="761.931641" xlink:href="#DejaVuSans-32"/>
      <use x="793.71875" xlink:href="#DejaVuSans-47"/>
      <use x="827.410156" xlink:href="#DejaVuSans-32"/>
      <use x="859.197266" xlink:href="#DejaVuSans-100"/>
      <use x="922.673828" xlink:href="#DejaVuSans-105"/>
      <use x="950.457031" xlink:href="#DejaVuSans-109"/>
      <use x="1047.869141" xlink:href="#DejaVuSans-101"/>
      <use x="1109.392578" xlink:href="#DejaVuSans-110"/>
      <use x="1172.771484" xlink:href="#DejaVuSans-115"/>
      <use x="1224.871094" xlink:href="#DejaVuSans-105"/>
      <use x="1252.654297" xlink:href="#DejaVuSans-111"/>
      <use x="1313.835938" xlink:href="#DejaVuSans-110"/>
      <use x="1377.214844" xlink:href="#DejaVuSans-41"/>
     </g>
    </g>
   </g>
   <g id="matplotlib.axis_2">
    <g id="ytick_1">
     <g id="line2d_17">
      <path clip-path="url(#pd137300ce5)" d="M 57.6 298.944 
L 338.688 298.944 
" style="fill:none;stroke:#b0b0b0;stroke-linecap:square;stroke-width:0.8;"/>
     </g>
     <g id="line2d_18">
      <defs>
       <path d="M 0 0 
L -3.5 0 
" id="m6f5ed7ad1f" style="stroke:#000000;stroke-width:0.8;"/>
      </defs>
      <g>
       <use style="stroke:#000000;stroke-width:0.8;" x="57.6" xlink:href="#m6f5ed7ad1f" y="298.944"/>
      </g>
     </g>
     <g id="text_6">
      <!-- 0.0 -->
      <g transform="translate(25.155 305.02275)scale(0.16 -0.16)">
       <defs>
        <path d="M 10.6875 12.40625 
L 21 12.40625 
L 21 0 
L 10.6875 0 
z
" id="DejaVuSans-46"/>
       </defs>
       <use xlink:href="#DejaVuSans-48"/>
       <use x="63.623047" xlink:href="#DejaVuSans-46"/>
       <use x="95.410156" xlink:href="#DejaVuSans-48"/>
      </g>
     </g>
    </g>
    <g id="ytick_2">
     <g id="line2d_19">
      <path clip-path="url(#pd137300ce5)" d="M 57.6 240.431525 
L 338.688 240.431525 
" style="fill:none;stroke:#b0b0b0;stroke-linecap:square;stroke-width:0.8;"/>
     </g>
     <g id="line2d_20">
      <g>
       <use style="stroke:#000000;stroke-width:0.8;" x="57.6" xlink:href="#m6f5ed7ad1f" y="240.431525"/>
      </g>
     </g>
     <g id="text_7">
      <!-- 0.2 -->
      <g transform="translate(25.155 246.510275)scale(0.16 -0.16)">
       <use xlink:href="#DejaVuSans-48"/>
       <use x="63.623047" xlink:href="#DejaVuSans-46"/>
       <use x="95.410156" xlink:href="#DejaVuSans-50"/>
      </g>
     </g>
    </g>
    <g id="ytick_3">
     <g id="line2d_21">
      <path clip-path="url(#pd137300ce5)" d="M 57.6 181.91905 
L 338.688 181.91905 
" style="fill:none;stroke:#b0b0b0;stroke-linecap:square;stroke-width:0.8;"/>
     </g>
     <g id="line2d_22">
      <g>
       <use style="stroke:#000000;stroke-width:0.8;" x="57.6" xlink:href="#m6f5ed7ad1f" y="181.91905"/>
      </g>
     </g>
     <g id="text_8">
      <!-- 0.4 -->
      <g transform="translate(25.155 187.9978)scale(0.16 -0.16)">
       <use xlink:href="#DejaVuSans-48"/>
       <use x="63.623047" xlink:href="#DejaVuSans-46"/>
       <use x="95.410156" xlink:href="#DejaVuSans-52"/>
      </g>
     </g>
    </g>
    <g id="ytick_4">
     <g id="line2d_23">
      <path clip-path="url(#pd137300ce5)" d="M 57.6 123.406574 
L 338.688 123.406574 
" style="fill:none;stroke:#b0b0b0;stroke-linecap:square;stroke-width:0.8;"/>
     </g>
     <g id="line2d_24">
      <g>
       <use style="stroke:#000000;stroke-width:0.8;" x="57.6" xlink:href="#m6f5ed7ad1f" y="123.406574"/>
      </g>
     </g>
     <g id="text_9">
      <!-- 0.6 -->
      <g transform="translate(25.155 129.485324)scale(0.16 -0.16)">
       <use xlink:href="#DejaVuSans-48"/>
       <use x="63.623047" xlink:href="#DejaVuSans-46"/>
       <use x="95.410156" xlink:href="#DejaVuSans-54"/>
      </g>
     </g>
    </g>
    <g id="ytick_5">
     <g id="line2d_25">
      <path clip-path="url(#pd137300ce5)" d="M 57.6 64.894099 
L 338.688 64.894099 
" style="fill:none;stroke:#b0b0b0;stroke-linecap:square;stroke-width:0.8;"/>
     </g>
     <g id="line2d_26">
      <g>
       <use style="stroke:#000000;stroke-width:0.8;" x="57.6" xlink:href="#m6f5ed7ad1f" y="64.894099"/>
      </g>
     </g>
     <g id="text_10">
      <!-- 0.8 -->
      <g transform="translate(25.155 70.972849)scale(0.16 -0.16)">
       <defs>
        <path d="M 31.78125 34.625 
Q 24.75 34.625 20.71875 30.859375 
Q 16.703125 27.09375 16.703125 20.515625 
Q 16.703125 13.921875 20.71875 10.15625 
Q 24.75 6.390625 31.78125 6.390625 
Q 38.8125 6.390625 42.859375 10.171875 
Q 46.921875 13.96875 46.921875 20.515625 
Q 46.921875 27.09375 42.890625 30.859375 
Q 38.875 34.625 31.78125 34.625 
z
M 21.921875 38.8125 
Q 15.578125 40.375 12.03125 44.71875 
Q 8.5 49.078125 8.5 55.328125 
Q 8.5 64.0625 14.71875 69.140625 
Q 20.953125 74.21875 31.78125 74.21875 
Q 42.671875 74.21875 48.875 69.140625 
Q 55.078125 64.0625 55.078125 55.328125 
Q 55.078125 49.078125 51.53125 44.71875 
Q 48 40.375 41.703125 38.8125 
Q 48.828125 37.15625 52.796875 32.3125 
Q 56.78125 27.484375 56.78125 20.515625 
Q 56.78125 9.90625 50.3125 4.234375 
Q 43.84375 -1.421875 31.78125 -1.421875 
Q 19.734375 -1.421875 13.25 4.234375 
Q 6.78125 9.90625 6.78125 20.515625 
Q 6.78125 27.484375 10.78125 32.3125 
Q 14.796875 37.15625 21.921875 38.8125 
z
M 18.3125 54.390625 
Q 18.3125 48.734375 21.84375 45.5625 
Q 25.390625 42.390625 31.78125 42.390625 
Q 38.140625 42.390625 41.71875 45.5625 
Q 45.3125 48.734375 45.3125 54.390625 
Q 45.3125 60.0625 41.71875 63.234375 
Q 38.140625 66.40625 31.78125 66.40625 
Q 25.390625 66.40625 21.84375 63.234375 
Q 18.3125 60.0625 18.3125 54.390625 
z
" id="DejaVuSans-56"/>
       </defs>
       <use xlink:href="#DejaVuSans-48"/>
       <use x="63.623047" xlink:href="#DejaVuSans-46"/>
       <use x="95.410156" xlink:href="#DejaVuSans-56"/>
      </g>
     </g>
    </g>
    <g id="ytick_6">
     <g id="line2d_27">
      <path clip-path="url(#pd137300ce5)" d="M 57.6 6.381624 
L 338.688 6.381624 
" style="fill:none;stroke:#b0b0b0;stroke-linecap:square;stroke-width:0.8;"/>
     </g>
     <g id="line2d_28">
      <g>
       <use style="stroke:#000000;stroke-width:0.8;" x="57.6" xlink:href="#m6f5ed7ad1f" y="6.381624"/>
      </g>
     </g>
     <g id="text_11">
      <!-- 1.0 -->
      <g transform="translate(25.155 12.460374)scale(0.16 -0.16)">
       <use xlink:href="#DejaVuSans-49"/>
       <use x="63.623047" xlink:href="#DejaVuSans-46"/>
       <use x="95.410156" xlink:href="#DejaVuSans-48"/>
      </g>
     </g>
    </g>
    <g id="text_12">
     <!-- Fraction of function,target pairs -->
     <g transform="translate(17.619531 285.585)rotate(-90)scale(0.17 -0.17)">
      <defs>
       <path d="M 9.8125 72.90625 
L 51.703125 72.90625 
L 51.703125 64.59375 
L 19.671875 64.59375 
L 19.671875 43.109375 
L 48.578125 43.109375 
L 48.578125 34.8125 
L 19.671875 34.8125 
L 19.671875 0 
L 9.8125 0 
z
" id="DejaVuSans-70"/>
       <path d="M 41.109375 46.296875 
Q 39.59375 47.171875 37.8125 47.578125 
Q 36.03125 48 33.890625 48 
Q 26.265625 48 22.1875 43.046875 
Q 18.109375 38.09375 18.109375 28.8125 
L 18.109375 0 
L 9.078125 0 
L 9.078125 54.6875 
L 18.109375 54.6875 
L 18.109375 46.1875 
Q 20.953125 51.171875 25.484375 53.578125 
Q 30.03125 56 36.53125 56 
Q 37.453125 56 38.578125 55.875 
Q 39.703125 55.765625 41.0625 55.515625 
z
" id="DejaVuSans-114"/>
       <path d="M 48.78125 52.59375 
L 48.78125 44.1875 
Q 44.96875 46.296875 41.140625 47.34375 
Q 37.3125 48.390625 33.40625 48.390625 
Q 24.65625 48.390625 19.8125 42.84375 
Q 14.984375 37.3125 14.984375 27.296875 
Q 14.984375 17.28125 19.8125 11.734375 
Q 24.65625 6.203125 33.40625 6.203125 
Q 37.3125 6.203125 41.140625 7.25 
Q 44.96875 8.296875 48.78125 10.40625 
L 48.78125 2.09375 
Q 45.015625 0.34375 40.984375 -0.53125 
Q 36.96875 -1.421875 32.421875 -1.421875 
Q 20.0625 -1.421875 12.78125 6.34375 
Q 5.515625 14.109375 5.515625 27.296875 
Q 5.515625 40.671875 12.859375 48.328125 
Q 20.21875 56 33.015625 56 
Q 37.15625 56 41.109375 55.140625 
Q 45.0625 54.296875 48.78125 52.59375 
z
" id="DejaVuSans-99"/>
       <path d="M 18.3125 70.21875 
L 18.3125 54.6875 
L 36.8125 54.6875 
L 36.8125 47.703125 
L 18.3125 47.703125 
L 18.3125 18.015625 
Q 18.3125 11.328125 20.140625 9.421875 
Q 21.96875 7.515625 27.59375 7.515625 
L 36.8125 7.515625 
L 36.8125 0 
L 27.59375 0 
Q 17.1875 0 13.234375 3.875 
Q 9.28125 7.765625 9.28125 18.015625 
L 9.28125 47.703125 
L 2.6875 47.703125 
L 2.6875 54.6875 
L 9.28125 54.6875 
L 9.28125 70.21875 
z
" id="DejaVuSans-116"/>
       <path d="M 8.5 21.578125 
L 8.5 54.6875 
L 17.484375 54.6875 
L 17.484375 21.921875 
Q 17.484375 14.15625 20.5 10.265625 
Q 23.53125 6.390625 29.59375 6.390625 
Q 36.859375 6.390625 41.078125 11.03125 
Q 45.3125 15.671875 45.3125 23.6875 
L 45.3125 54.6875 
L 54.296875 54.6875 
L 54.296875 0 
L 45.3125 0 
L 45.3125 8.40625 
Q 42.046875 3.421875 37.71875 1 
Q 33.40625 -1.421875 27.6875 -1.421875 
Q 18.265625 -1.421875 13.375 4.4375 
Q 8.5 10.296875 8.5 21.578125 
z
M 31.109375 56 
z
" id="DejaVuSans-117"/>
       <path d="M 11.71875 12.40625 
L 22.015625 12.40625 
L 22.015625 4 
L 14.015625 -11.625 
L 7.71875 -11.625 
L 11.71875 4 
z
" id="DejaVuSans-44"/>
       <path d="M 18.109375 8.203125 
L 18.109375 -20.796875 
L 9.078125 -20.796875 
L 9.078125 54.6875 
L 18.109375 54.6875 
L 18.109375 46.390625 
Q 20.953125 51.265625 25.265625 53.625 
Q 29.59375 56 35.59375 56 
Q 45.5625 56 51.78125 48.09375 
Q 58.015625 40.1875 58.015625 27.296875 
Q 58.015625 14.40625 51.78125 6.484375 
Q 45.5625 -1.421875 35.59375 -1.421875 
Q 29.59375 -1.421875 25.265625 0.953125 
Q 20.953125 3.328125 18.109375 8.203125 
z
M 48.6875 27.296875 
Q 48.6875 37.203125 44.609375 42.84375 
Q 40.53125 48.484375 33.40625 48.484375 
Q 26.265625 48.484375 22.1875 42.84375 
Q 18.109375 37.203125 18.109375 27.296875 
Q 18.109375 17.390625 22.1875 11.75 
Q 26.265625 6.109375 33.40625 6.109375 
Q 40.53125 6.109375 44.609375 11.75 
Q 48.6875 17.390625 48.6875 27.296875 
z
" id="DejaVuSans-112"/>
      </defs>
      <use xlink:href="#DejaVuSans-70"/>
      <use x="50.269531" xlink:href="#DejaVuSans-114"/>
      <use x="91.382812" xlink:href="#DejaVuSans-97"/>
      <use x="152.662109" xlink:href="#DejaVuSans-99"/>
      <use x="207.642578" xlink:href="#DejaVuSans-116"/>
      <use x="246.851562" xlink:href="#DejaVuSans-105"/>
      <use x="274.634766" xlink:href="#DejaVuSans-111"/>
      <use x="335.816406" xlink:href="#DejaVuSans-110"/>
      <use x="399.195312" xlink:href="#DejaVuSans-32"/>
      <use x="430.982422" xlink:href="#DejaVuSans-111"/>
      <use x="492.164062" xlink:href="#DejaVuSans-102"/>
      <use x="527.369141" xlink:href="#DejaVuSans-32"/>
      <use x="559.15625" xlink:href="#DejaVuSans-102"/>
      <use x="594.361328" xlink:href="#DejaVuSans-117"/>
      <use x="657.740234" xlink:href="#DejaVuSans-110"/>
      <use x="721.119141" xlink:href="#DejaVuSans-99"/>
      <use x="776.099609" xlink:href="#DejaVuSans-116"/>
      <use x="815.308594" xlink:href="#DejaVuSans-105"/>
      <use x="843.091797" xlink:href="#DejaVuSans-111"/>
      <use x="904.273438" xlink:href="#DejaVuSans-110"/>
      <use x="967.652344" xlink:href="#DejaVuSans-44"/>
      <use x="999.439453" xlink:href="#DejaVuSans-116"/>
      <use x="1038.648438" xlink:href="#DejaVuSans-97"/>
      <use x="1099.927734" xlink:href="#DejaVuSans-114"/>
      <use x="1139.291016" xlink:href="#DejaVuSans-103"/>
      <use x="1202.767578" xlink:href="#DejaVuSans-101"/>
      <use x="1264.291016" xlink:href="#DejaVuSans-116"/>
      <use x="1303.5" xlink:href="#DejaVuSans-32"/>
      <use x="1335.287109" xlink:href="#DejaVuSans-112"/>
      <use x="1398.763672" xlink:href="#DejaVuSans-97"/>
      <use x="1460.042969" xlink:href="#DejaVuSans-105"/>
      <use x="1487.826172" xlink:href="#DejaVuSans-114"/>
      <use x="1528.939453" xlink:href="#DejaVuSans-115"/>
     </g>
    </g>
   </g>
   <g id="line2d_29">
    <defs>
     <path d="M 0 1.5 
C 0.397805 1.5 0.77937 1.341951 1.06066 1.06066 
C 1.341951 0.77937 1.5 0.397805 1.5 0 
C 1.5 -0.397805 1.341951 -0.77937 1.06066 -1.06066 
C 0.77937 -1.341951 0.397805 -1.5 0 -1.5 
C -0.397805 -1.5 -0.77937 -1.341951 -1.06066 -1.06066 
C -1.341951 -0.77937 -1.5 -0.397805 -1.5 0 
C -1.5 0.397805 -1.341951 0.77937 -1.06066 1.06066 
C -0.77937 1.341951 -0.397805 1.5 0 1.5 
z
" id="m4f024fcd85" style="stroke:#000080;"/>
    </defs>
    <g>
     <use style="fill:#000080;stroke:#000080;" x="156.538679" xlink:href="#m4f024fcd85" y="6.381624"/>
     <use style="fill:#000080;stroke:#000080;" x="156.538679" xlink:href="#m4f024fcd85" y="6.381624"/>
    </g>
   </g>
   <g id="line2d_30">
    <path d="M 102.330873 298.944 
L 102.330873 297.796697 
L 104.826449 297.796697 
L 104.826449 297.223045 
L 107.514726 297.223045 
L 107.514726 296.649393 
L 109.843417 296.649393 
L 109.843417 294.354786 
L 110.694282 294.354786 
L 110.694282 292.060179 
L 111.897469 292.060179 
L 111.897469 290.339224 
L 112.655818 290.339224 
L 112.655818 286.323662 
L 113.022974 286.323662 
L 113.022974 282.881752 
L 113.382559 282.881752 
L 113.382559 280.587145 
L 113.73488 280.587145 
L 113.73488 280.013493 
L 114.751048 280.013493 
L 114.751048 279.439842 
L 115.077025 279.439842 
L 115.077025 278.292538 
L 115.397021 278.292538 
L 115.397021 273.703324 
L 115.711251 273.703324 
L 115.711251 268.540459 
L 116.019919 268.540459 
L 116.019919 265.6722 
L 116.323218 265.6722 
L 116.323218 263.951245 
L 116.621333 263.951245 
L 116.621333 261.656638 
L 116.914437 261.656638 
L 116.914437 261.082987 
L 117.202696 261.082987 
L 117.202696 259.362031 
L 117.486268 259.362031 
L 117.486268 257.067425 
L 117.765302 257.067425 
L 117.765302 256.493773 
L 118.039942 256.493773 
L 118.039942 254.199166 
L 118.310324 254.199166 
L 118.310324 252.478211 
L 118.576578 252.478211 
L 118.576578 250.757256 
L 118.838828 250.757256 
L 118.838828 250.183604 
L 119.097192 250.183604 
L 119.097192 249.036301 
L 120.33454 249.036301 
L 120.33454 246.741694 
L 124.368753 246.741694 
L 124.368753 246.168042 
L 124.743806 246.168042 
L 124.743806 245.020738 
L 124.92835 245.020738 
L 124.92835 244.447087 
L 125.470548 244.447087 
L 125.470548 243.299783 
L 126.168212 243.299783 
L 126.168212 241.578828 
L 126.673734 241.578828 
L 126.673734 241.005176 
L 126.839037 241.005176 
L 126.839037 240.431525 
L 127.002787 240.431525 
L 127.002787 239.857873 
L 127.325746 239.857873 
L 127.325746 239.284221 
L 127.48501 239.284221 
L 127.48501 238.136918 
L 127.642832 238.136918 
L 127.642832 236.415963 
L 127.799239 236.415963 
L 127.799239 234.695008 
L 127.954256 234.695008 
L 127.954256 233.547704 
L 128.260216 233.547704 
L 128.260216 228.95849 
L 128.560901 228.95849 
L 128.560901 228.384839 
L 128.709321 228.384839 
L 128.709321 226.090232 
L 128.856489 226.090232 
L 128.856489 224.942928 
L 129.002426 224.942928 
L 129.002426 223.221973 
L 129.147151 223.221973 
L 129.147151 222.07467 
L 129.290685 222.07467 
L 129.290685 219.206411 
L 129.433047 219.206411 
L 129.433047 215.764501 
L 129.574256 215.764501 
L 129.574256 215.190849 
L 129.714332 215.190849 
L 129.714332 213.469894 
L 129.853291 213.469894 
L 129.853291 210.601635 
L 129.991152 210.601635 
L 129.991152 208.307029 
L 130.127931 208.307029 
L 130.127931 207.159725 
L 130.263646 207.159725 
L 130.263646 203.717815 
L 130.398313 203.717815 
L 130.398313 201.423208 
L 130.531948 201.423208 
L 130.531948 199.702253 
L 130.664567 199.702253 
L 130.664567 196.260342 
L 130.796184 196.260342 
L 130.796184 195.686691 
L 130.926816 195.686691 
L 130.926816 195.113039 
L 131.056477 195.113039 
L 131.056477 189.950174 
L 131.185181 189.950174 
L 131.185181 187.081915 
L 131.312942 187.081915 
L 131.312942 185.934612 
L 131.439773 185.934612 
L 131.439773 184.213656 
L 131.565689 184.213656 
L 131.565689 176.182532 
L 131.690703 176.182532 
L 131.690703 173.887925 
L 131.814826 173.887925 
L 131.814826 169.298712 
L 131.938072 169.298712 
L 131.938072 168.151408 
L 132.181982 168.151408 
L 132.181982 167.004105 
L 132.30267 167.004105 
L 132.30267 165.856801 
L 132.422528 165.856801 
L 132.422528 161.267588 
L 132.541568 161.267588 
L 132.541568 158.399329 
L 132.659801 158.399329 
L 132.659801 156.678374 
L 132.777237 156.678374 
L 132.777237 152.662812 
L 132.893889 152.662812 
L 132.893889 151.515508 
L 133.009765 151.515508 
L 133.009765 150.941857 
L 133.124876 150.941857 
L 133.124876 150.368205 
L 133.239232 150.368205 
L 133.239232 144.631688 
L 133.352844 144.631688 
L 133.352844 140.616126 
L 133.46572 140.616126 
L 133.46572 140.042474 
L 133.57787 140.042474 
L 133.57787 136.600564 
L 133.689303 136.600564 
L 133.800029 133.158653 
L 133.910056 133.158653 
L 134.019394 125.701181 
L 134.12805 125.701181 
L 134.236034 120.538316 
L 134.343353 120.538316 
L 134.450015 117.096405 
L 134.55603 117.096405 
L 134.661403 115.37545 
L 134.766144 115.37545 
L 134.870259 112.507192 
L 134.973757 112.507192 
L 135.076644 108.49163 
L 135.178927 108.49163 
L 135.280614 103.902416 
L 135.381712 103.902416 
L 135.482227 100.460506 
L 135.582166 100.460506 
L 135.582166 97.592247 
L 135.780341 97.592247 
L 135.780341 91.282078 
L 136.170062 91.282078 
L 136.170062 86.119213 
L 136.361705 86.119213 
L 136.361705 85.545561 
L 136.551264 85.545561 
L 136.551264 84.971909 
L 136.738785 84.971909 
L 136.738785 83.824606 
L 136.924311 83.824606 
L 137.016339 81.529999 
L 137.107884 81.529999 
L 137.107884 80.956347 
L 137.289545 80.956347 
L 137.37967 79.809044 
L 137.469333 79.809044 
L 137.469333 79.235392 
L 137.997836 79.235392 
L 138.084384 78.088089 
L 138.170504 78.088089 
L 138.170504 77.514437 
L 138.341479 77.514437 
L 138.426341 75.793482 
L 138.510793 75.793482 
L 138.510793 75.21983 
L 138.761723 75.21983 
L 138.84457 73.498875 
L 138.927025 73.498875 
L 138.927025 72.925223 
L 139.090775 72.925223 
L 139.172077 70.630616 
L 139.333553 70.630616 
L 139.333553 70.056964 
L 139.572998 70.056964 
L 139.652088 68.909661 
L 139.8092 68.909661 
L 139.887228 66.615054 
L 140.042245 66.615054 
L 140.11924 64.320447 
L 140.272217 64.320447 
L 140.348205 60.304885 
L 140.499195 60.304885 
L 140.574203 57.436627 
L 140.64889 57.436627 
L 140.723258 53.994716 
L 141.090414 53.994716 
L 141.090414 52.847413 
L 141.235139 52.847413 
L 141.307054 51.126458 
L 141.45 51.126458 
L 141.521035 48.831851 
L 141.591783 48.831851 
L 141.662245 46.537244 
L 141.732423 46.537244 
L 141.80232 44.816289 
L 142.010346 44.816289 
L 142.010346 43.668985 
L 142.147664 43.668985 
L 142.215919 42.521682 
L 142.283909 42.521682 
L 142.351634 40.227075 
L 142.486301 40.227075 
L 142.486301 39.079772 
L 142.619936 39.079772 
L 142.619936 37.932468 
L 142.818488 37.932468 
L 142.818488 37.358817 
L 142.949611 37.358817 
L 142.949611 36.785165 
L 143.208936 36.785165 
L 143.208936 36.211513 
L 143.716296 36.211513 
L 143.716296 35.637861 
L 143.840863 35.637861 
L 143.840863 33.916906 
L 144.026061 33.916906 
L 144.026061 33.343255 
L 144.390658 33.343255 
L 144.45069 32.195951 
L 144.688773 32.195951 
L 144.688773 31.622299 
L 145.155404 31.622299 
L 145.155404 31.048648 
L 145.270136 31.048648 
L 145.270136 30.474996 
L 145.440832 30.474996 
L 145.497361 28.754041 
L 145.721664 28.754041 
L 145.832743 25.885782 
L 146.052799 25.885782 
L 146.052799 24.738479 
L 146.431341 24.738479 
L 146.431341 24.164827 
L 146.591092 24.164827 
L 146.591092 23.591175 
L 146.801841 23.591175 
L 146.854132 21.296568 
L 147.164632 21.296568 
L 147.164632 20.722917 
L 147.317833 20.722917 
L 147.368603 19.001962 
L 147.4697 19.001962 
L 147.570215 17.854658 
L 147.670154 17.854658 
L 147.670154 17.281006 
L 147.96658 17.281006 
L 147.96658 16.707355 
L 149.60198 16.707355 
L 149.646525 15.560051 
L 149.823575 15.560051 
L 149.823575 14.9864 
L 150.682827 14.9864 
L 150.766468 13.839096 
L 150.973835 13.839096 
L 151.015013 12.691793 
L 151.421542 12.691793 
L 151.461678 11.544489 
L 152.436193 11.544489 
L 152.436193 10.970838 
L 153.142033 10.970838 
L 153.142033 10.397186 
L 153.502361 10.397186 
L 153.609024 9.249882 
L 153.959927 9.249882 
L 153.959927 8.676231 
L 154.337936 8.676231 
L 154.337936 8.102579 
L 156.052535 8.102579 
L 156.052535 7.528927 
L 156.205916 7.528927 
L 156.205916 6.955275 
L 156.538679 6.955275 
L 156.538679 6.381624 
L 338.688 6.381624 
L 338.688 6.381624 
" style="fill:none;stroke:#000080;stroke-linecap:square;stroke-width:1.5;"/>
   </g>
   <g id="line2d_31">
    <defs>
     <path d="M 0 6 
C 1.591219 6 3.117479 5.367802 4.242641 4.242641 
C 5.367802 3.117479 6 1.591219 6 0 
C 6 -1.591219 5.367802 -3.117479 4.242641 -4.242641 
C 3.117479 -5.367802 1.591219 -6 0 -6 
C -1.591219 -6 -3.117479 -5.367802 -4.242641 -4.242641 
C -5.367802 -3.117479 -6 -1.591219 -6 0 
C -6 1.591219 -5.367802 3.117479 -4.242641 4.242641 
C -3.117479 5.367802 -1.591219 6 0 6 
z
" id="m6aefde1c99" style="stroke:#000080;stroke-width:1.5;"/>
    </defs>
    <g>
     <use style="fill-opacity:0;stroke:#000080;stroke-width:1.5;" x="129.290685" xlink:href="#m6aefde1c99" y="219.206411"/>
     <use style="fill-opacity:0;stroke:#000080;stroke-width:1.5;" x="142.949611" xlink:href="#m6aefde1c99" y="37.358817"/>
     <use style="fill-opacity:0;stroke:#000080;stroke-width:1.5;" x="156.538679" xlink:href="#m6aefde1c99" y="6.955275"/>
     <use style="fill-opacity:0;stroke:#000080;stroke-width:1.5;" x="156.538679" xlink:href="#m6aefde1c99" y="6.381624"/>
     <use style="fill-opacity:0;stroke:#000080;stroke-width:1.5;" x="338.688" xlink:href="#m6aefde1c99" y="6.381624"/>
    </g>
   </g>
   <g id="line2d_32">
    <path style="fill:none;stroke:#000080;stroke-linecap:square;stroke-width:1.5;"/>
    <g/>
   </g>
   <g id="line2d_33">
    <path clip-path="url(#pd137300ce5)" d="M 123.593547 246.741694 
" style="fill:none;stroke:#000080;stroke-linecap:square;stroke-width:1.5;"/>
    <defs>
     <path d="M -12 12 
L 12 -12 
M -12 -12 
L 12 12 
" id="mac3a04d377" style="stroke:#000080;"/>
    </defs>
    <g clip-path="url(#pd137300ce5)">
     <use style="fill:#000080;stroke:#000080;" x="123.593547" xlink:href="#mac3a04d377" y="246.741694"/>
    </g>
   </g>
   <g id="line2d_34">
    <defs>
     <path d="M 0 1.5 
C 0.397805 1.5 0.77937 1.341951 1.06066 1.06066 
C 1.341951 0.77937 1.5 0.397805 1.5 0 
C 1.5 -0.397805 1.341951 -0.77937 1.06066 -1.06066 
C 0.77937 -1.341951 0.397805 -1.5 0 -1.5 
C -0.397805 -1.5 -0.77937 -1.341951 -1.06066 -1.06066 
C -1.341951 -0.77937 -1.5 -0.397805 -1.5 0 
C -1.5 0.397805 -1.341951 0.77937 -1.06066 1.06066 
C -0.77937 1.341951 -0.397805 1.5 0 1.5 
z
" id="mfa371206a5" style="stroke:#ff00ff;"/>
    </defs>
    <g>
     <use style="fill:#ff00ff;stroke:#ff00ff;" x="156.083319" xlink:href="#mfa371206a5" y="6.381624"/>
     <use style="fill:#ff00ff;stroke:#ff00ff;" x="156.083319" xlink:href="#mfa371206a5" y="6.381624"/>
    </g>
   </g>
   <g id="line2d_35">
    <path d="M 94.921215 298.944 
L 94.921215 297.796697 
L 96.86091 297.796697 
L 96.86091 296.075741 
L 106.48859 296.075741 
L 106.48859 293.207483 
L 109.843417 293.207483 
L 109.843417 292.633831 
L 110.694282 292.633831 
L 110.694282 289.191921 
L 111.104637 289.191921 
L 111.104637 287.470966 
L 111.897469 287.470966 
L 111.897469 285.75001 
L 112.280765 285.75001 
L 112.280765 285.176359 
L 113.73488 285.176359 
L 113.73488 281.734448 
L 114.418861 281.734448 
L 114.418861 281.160797 
L 114.751048 281.160797 
L 114.751048 279.439842 
L 115.077025 279.439842 
L 115.077025 278.86619 
L 115.397021 278.86619 
L 115.397021 276.571583 
L 116.019919 276.571583 
L 116.019919 269.687762 
L 116.323218 269.687762 
L 116.323218 264.524897 
L 116.621333 264.524897 
L 116.621333 262.803942 
L 117.202696 262.803942 
L 117.202696 261.082987 
L 117.486268 261.082987 
L 117.486268 258.214728 
L 117.765302 258.214728 
L 117.765302 257.067425 
L 118.039942 257.067425 
L 118.039942 253.625514 
L 118.310324 253.625514 
L 118.310324 253.051863 
L 118.576578 253.051863 
L 118.576578 251.330907 
L 119.097192 251.330907 
L 119.097192 250.757256 
L 119.351785 250.757256 
L 119.351785 250.183604 
L 119.602714 250.183604 
L 119.602714 249.609952 
L 119.850084 249.609952 
L 119.850084 249.036301 
L 121.036887 249.036301 
L 121.036887 248.462649 
L 125.110962 248.462649 
L 125.110962 247.888997 
L 125.822869 247.888997 
L 125.822869 247.315345 
L 126.50685 247.315345 
L 126.50685 246.741694 
L 126.673734 246.741694 
L 126.673734 245.59439 
L 126.839037 245.59439 
L 126.839037 245.020738 
L 127.165014 245.020738 
L 127.165014 244.447087 
L 127.325746 244.447087 
L 127.325746 243.299783 
L 127.48501 243.299783 
L 127.48501 242.15248 
L 127.642832 242.15248 
L 127.642832 240.431525 
L 127.799239 240.431525 
L 127.799239 239.857873 
L 127.954256 239.857873 
L 127.954256 237.563266 
L 128.107907 237.563266 
L 128.107907 235.842311 
L 128.260216 235.842311 
L 128.260216 235.268659 
L 128.411207 235.268659 
L 128.411207 232.974052 
L 128.560901 232.974052 
L 128.560901 228.384839 
L 128.709321 228.384839 
L 128.709321 226.090232 
L 128.856489 226.090232 
L 128.856489 224.369277 
L 129.002426 224.369277 
L 129.002426 223.221973 
L 129.147151 223.221973 
L 129.147151 222.648321 
L 129.290685 222.648321 
L 129.290685 218.059108 
L 129.433047 218.059108 
L 129.433047 216.338153 
L 129.574256 216.338153 
L 129.574256 212.896242 
L 129.714332 212.896242 
L 129.714332 211.748939 
L 129.853291 211.748939 
L 129.853291 210.027984 
L 129.991152 210.027984 
L 129.991152 207.733377 
L 130.127931 207.733377 
L 130.127931 207.159725 
L 130.263646 207.159725 
L 130.263646 203.717815 
L 130.398313 203.717815 
L 130.398313 200.849556 
L 130.531948 200.849556 
L 130.531948 196.833994 
L 130.664567 196.833994 
L 130.664567 193.965736 
L 130.796184 193.965736 
L 130.796184 186.508263 
L 131.056477 186.508263 
L 131.056477 184.213656 
L 131.185181 184.213656 
L 131.185181 183.640005 
L 131.312942 183.640005 
L 131.312942 180.771746 
L 131.439773 180.771746 
L 131.439773 179.624443 
L 131.565689 179.624443 
L 131.565689 173.887925 
L 131.690703 173.887925 
L 131.690703 172.740622 
L 131.814826 172.740622 
L 131.814826 167.577757 
L 131.938072 167.577757 
L 131.938072 165.856801 
L 132.060454 165.856801 
L 132.060454 164.135846 
L 132.181982 164.135846 
L 132.181982 160.693936 
L 132.30267 160.693936 
L 132.30267 157.825677 
L 132.422528 157.825677 
L 132.422528 156.678374 
L 132.541568 156.678374 
L 132.541568 155.53107 
L 132.659801 155.53107 
L 132.659801 153.236464 
L 132.777237 153.236464 
L 132.777237 150.941857 
L 132.893889 150.941857 
L 132.893889 148.073598 
L 133.009765 148.073598 
L 133.009765 145.20534 
L 133.124876 145.20534 
L 133.124876 142.910733 
L 133.239232 142.910733 
L 133.239232 136.026912 
L 133.352844 136.026912 
L 133.352844 130.864047 
L 133.46572 130.864047 
L 133.46572 127.422136 
L 133.57787 127.422136 
L 133.57787 125.127529 
L 133.800029 125.127529 
L 133.910056 118.817361 
L 134.019394 118.817361 
L 134.12805 107.917978 
L 134.236034 107.917978 
L 134.236034 104.476068 
L 134.450015 104.476068 
L 134.450015 102.181461 
L 134.661403 102.181461 
L 134.661403 101.034157 
L 134.870259 101.034157 
L 134.973757 96.444944 
L 135.076644 96.444944 
L 135.178927 94.723988 
L 135.280614 94.723988 
L 135.381712 87.840168 
L 135.482227 87.840168 
L 135.582166 86.119213 
L 135.780341 86.119213 
L 135.878591 83.824606 
L 136.073445 83.824606 
L 136.170062 82.103651 
L 136.361705 82.103651 
L 136.456742 76.940785 
L 136.924311 76.940785 
L 136.924311 75.21983 
L 137.107884 75.21983 
L 137.198951 73.498875 
L 137.289545 73.498875 
L 137.289545 72.925223 
L 137.558536 72.925223 
L 137.647286 71.204268 
L 137.735587 71.204268 
L 137.823442 70.056964 
L 137.910857 70.056964 
L 137.997836 68.909661 
L 138.170504 68.909661 
L 138.170504 65.467751 
L 138.341479 65.467751 
L 138.426341 63.746796 
L 138.594838 63.746796 
L 138.594838 63.173144 
L 138.761723 63.173144 
L 138.84457 62.02584 
L 138.927025 62.02584 
L 139.009092 60.878537 
L 139.172077 60.878537 
L 139.253002 59.157582 
L 139.333553 59.157582 
L 139.413734 56.289323 
L 139.493548 56.289323 
L 139.493548 55.715672 
L 139.652088 55.715672 
L 139.730821 54.568368 
L 139.8092 54.568368 
L 139.887228 51.126458 
L 139.964909 51.126458 
L 140.042245 49.405503 
L 140.11924 49.405503 
L 140.11924 48.831851 
L 140.272217 48.831851 
L 140.348205 47.110896 
L 140.499195 47.110896 
L 140.574203 45.963592 
L 140.64889 45.963592 
L 140.723258 44.816289 
L 140.871049 44.816289 
L 140.944478 43.095334 
L 141.017599 43.095334 
L 141.090414 41.374379 
L 141.162927 41.374379 
L 141.235139 37.358817 
L 141.521035 37.358817 
L 141.591783 35.06421 
L 141.662245 35.06421 
L 141.732423 32.195951 
L 141.80232 32.195951 
L 141.80232 31.048648 
L 141.941279 31.048648 
L 142.010346 29.901344 
L 142.147664 29.901344 
L 142.215919 28.754041 
L 142.351634 28.754041 
L 142.351634 27.606737 
L 142.486301 27.606737 
L 142.486301 27.033086 
L 142.686372 27.033086 
L 142.686372 25.31213 
L 143.079756 25.31213 
L 143.144465 23.017524 
L 143.337167 23.017524 
L 143.337167 22.443872 
L 143.653678 22.443872 
L 143.653678 21.87022 
L 143.902815 21.87022 
L 143.902815 21.296568 
L 144.087359 21.296568 
L 144.148442 20.149265 
L 144.209312 20.149265 
L 144.209312 19.575613 
L 144.629556 19.575613 
L 144.629556 19.001962 
L 144.865226 19.001962 
L 144.865226 18.42831 
L 145.097753 18.42831 
L 145.097753 17.854658 
L 145.212864 17.854658 
L 145.212864 17.281006 
L 145.384119 17.281006 
L 145.384119 16.133703 
L 145.553708 16.133703 
L 145.553708 15.560051 
L 145.998045 15.560051 
L 146.052799 13.839096 
L 146.270114 13.839096 
L 146.270114 13.265444 
L 146.591092 13.265444 
L 146.591092 12.691793 
L 146.906268 12.691793 
L 146.906268 12.118141 
L 147.061745 12.118141 
L 147.061745 11.544489 
L 147.215849 11.544489 
L 147.317833 10.397186 
L 147.620256 10.397186 
L 147.620256 9.823534 
L 147.86833 9.823534 
L 147.86833 9.249882 
L 149.60198 9.249882 
L 149.60198 8.676231 
L 150.258492 8.676231 
L 150.258492 8.102579 
L 152.091608 8.102579 
L 152.091608 7.528927 
L 155.928852 7.528927 
L 155.928852 6.955275 
L 156.083319 6.955275 
L 156.083319 6.381624 
L 338.688 6.381624 
L 338.688 6.381624 
" style="fill:none;stroke:#ff00ff;stroke-linecap:square;stroke-width:1.5;"/>
   </g>
   <g id="line2d_36">
    <defs>
     <path d="M -0 8.485281 
L 5.091169 0 
L 0 -8.485281 
L -5.091169 -0 
z
" id="mac7113951c" style="stroke:#ff00ff;stroke-linejoin:miter;stroke-width:1.5;"/>
    </defs>
    <g>
     <use style="fill-opacity:0;stroke:#ff00ff;stroke-linejoin:miter;stroke-width:1.5;" x="129.853291" xlink:href="#mac7113951c" y="210.027984"/>
     <use style="fill-opacity:0;stroke:#ff00ff;stroke-linejoin:miter;stroke-width:1.5;" x="140.944478" xlink:href="#mac7113951c" y="43.095334"/>
     <use style="fill-opacity:0;stroke:#ff00ff;stroke-linejoin:miter;stroke-width:1.5;" x="156.083319" xlink:href="#mac7113951c" y="6.381624"/>
     <use style="fill-opacity:0;stroke:#ff00ff;stroke-linejoin:miter;stroke-width:1.5;" x="156.083319" xlink:href="#mac7113951c" y="6.381624"/>
     <use style="fill-opacity:0;stroke:#ff00ff;stroke-linejoin:miter;stroke-width:1.5;" x="338.688" xlink:href="#mac7113951c" y="6.381624"/>
    </g>
   </g>
   <g id="line2d_37">
    <path style="fill:none;stroke:#ff00ff;stroke-linecap:square;stroke-width:1.5;"/>
    <g/>
   </g>
   <g id="line2d_38">
    <path clip-path="url(#pd137300ce5)" d="M 121.931406 248.462649 
" style="fill:none;stroke:#ff00ff;stroke-linecap:square;stroke-width:1.5;"/>
    <defs>
     <path d="M -12 12 
L 12 -12 
M -12 -12 
L 12 12 
" id="mb4a9d1486b" style="stroke:#ff00ff;"/>
    </defs>
    <g clip-path="url(#pd137300ce5)">
     <use style="fill:#ff00ff;stroke:#ff00ff;" x="121.931406" xlink:href="#mb4a9d1486b" y="248.462649"/>
    </g>
   </g>
   <g id="line2d_39">
    <defs>
     <path d="M 0 1.5 
C 0.397805 1.5 0.77937 1.341951 1.06066 1.06066 
C 1.341951 0.77937 1.5 0.397805 1.5 0 
C 1.5 -0.397805 1.341951 -0.77937 1.06066 -1.06066 
C 0.77937 -1.341951 0.397805 -1.5 0 -1.5 
C -0.397805 -1.5 -0.77937 -1.341951 -1.06066 -1.06066 
C -1.341951 -0.77937 -1.5 -0.397805 -1.5 0 
C -1.5 0.397805 -1.341951 0.77937 -1.06066 1.06066 
C -0.77937 1.341951 -0.397805 1.5 0 1.5 
z
" id="m4277d1b0c3" style="stroke:#ff7500;"/>
    </defs>
    <g>
     <use style="fill:#ff7500;stroke:#ff7500;" x="172.031987" xlink:href="#m4277d1b0c3" y="6.381624"/>
     <use style="fill:#ff7500;stroke:#ff7500;" x="172.031987" xlink:href="#m4277d1b0c3" y="6.381624"/>
    </g>
   </g>
   <g id="line2d_40">
    <path d="M 110.274038 298.944 
L 110.274038 297.796697 
L 110.694282 297.796697 
L 110.694282 294.354786 
L 112.280765 294.354786 
L 112.280765 293.781135 
L 112.655818 293.781135 
L 112.655818 293.207483 
L 113.022974 293.207483 
L 113.022974 292.060179 
L 114.080224 292.060179 
L 114.080224 288.618269 
L 114.418861 288.618269 
L 114.418861 286.323662 
L 114.751048 286.323662 
L 114.751048 281.734448 
L 115.077025 281.734448 
L 115.077025 281.160797 
L 115.397021 281.160797 
L 115.397021 275.997931 
L 115.711251 275.997931 
L 115.711251 273.703324 
L 116.019919 273.703324 
L 116.019919 271.408718 
L 116.323218 271.408718 
L 116.323218 266.819504 
L 116.621333 266.819504 
L 116.621333 266.245852 
L 116.914437 266.245852 
L 116.914437 264.524897 
L 117.202696 264.524897 
L 117.202696 262.803942 
L 117.486268 262.803942 
L 117.486268 262.23029 
L 118.039942 262.23029 
L 118.039942 261.082987 
L 118.310324 261.082987 
L 118.310324 259.362031 
L 118.576578 259.362031 
L 118.576578 258.78838 
L 118.838828 258.78838 
L 118.838828 257.641076 
L 119.097192 257.641076 
L 119.097192 256.493773 
L 123.790603 256.493773 
L 123.790603 255.920121 
L 124.557288 255.920121 
L 124.557288 255.346469 
L 124.743806 255.346469 
L 124.743806 254.772818 
L 125.996395 254.772818 
L 125.996395 250.757256 
L 127.165014 250.757256 
L 127.165014 249.609952 
L 127.48501 249.609952 
L 127.48501 249.036301 
L 127.642832 249.036301 
L 127.642832 247.888997 
L 127.799239 247.888997 
L 127.799239 245.59439 
L 127.954256 245.59439 
L 127.954256 244.447087 
L 128.107907 244.447087 
L 128.107907 243.873435 
L 128.260216 243.873435 
L 128.260216 242.726132 
L 128.411207 242.726132 
L 128.411207 242.15248 
L 128.560901 242.15248 
L 128.560901 241.578828 
L 129.002426 241.578828 
L 129.002426 238.136918 
L 129.290685 238.136918 
L 129.290685 236.989614 
L 129.433047 236.989614 
L 129.433047 234.695008 
L 129.574256 234.695008 
L 129.574256 234.121356 
L 129.714332 234.121356 
L 129.714332 232.400401 
L 129.853291 232.400401 
L 129.853291 228.384839 
L 129.991152 228.384839 
L 129.991152 223.221973 
L 130.398313 223.221973 
L 130.398313 222.648321 
L 130.531948 222.648321 
L 130.531948 221.501018 
L 130.664567 221.501018 
L 130.664567 219.780063 
L 130.796184 219.780063 
L 130.796184 218.632759 
L 130.926816 218.632759 
L 130.926816 217.485456 
L 131.056477 217.485456 
L 131.056477 215.764501 
L 131.185181 215.764501 
L 131.185181 212.896242 
L 131.439773 212.896242 
L 131.439773 210.601635 
L 131.565689 210.601635 
L 131.565689 210.027984 
L 131.690703 210.027984 
L 131.690703 208.307029 
L 131.814826 208.307029 
L 131.814826 207.159725 
L 131.938072 207.159725 
L 131.938072 204.865118 
L 132.060454 204.865118 
L 132.060454 204.291467 
L 132.181982 204.291467 
L 132.181982 200.849556 
L 132.30267 200.849556 
L 132.30267 197.981298 
L 132.422528 197.981298 
L 132.422528 196.260342 
L 132.541568 196.260342 
L 132.541568 195.113039 
L 132.659801 195.113039 
L 132.659801 191.097477 
L 132.777237 191.097477 
L 132.777237 188.229218 
L 132.893889 188.229218 
L 132.893889 184.787308 
L 133.124876 184.787308 
L 133.124876 178.477139 
L 133.239232 178.477139 
L 133.239232 177.903487 
L 133.352844 177.903487 
L 133.352844 176.182532 
L 133.46572 176.182532 
L 133.46572 173.887925 
L 133.57787 173.887925 
L 133.57787 172.740622 
L 133.689303 172.740622 
L 133.689303 172.16697 
L 133.910056 172.16697 
L 133.910056 169.872363 
L 134.12805 169.872363 
L 134.236034 167.004105 
L 134.343353 167.004105 
L 134.450015 161.267588 
L 134.55603 161.267588 
L 134.661403 154.957419 
L 134.766144 154.957419 
L 134.766144 153.810115 
L 135.178927 153.810115 
L 135.280614 152.08916 
L 135.381712 152.08916 
L 135.482227 147.499946 
L 135.582166 147.499946 
L 135.681535 145.20534 
L 135.780341 145.20534 
L 135.878591 139.468822 
L 136.073445 139.468822 
L 136.170062 134.879609 
L 136.266147 134.879609 
L 136.361705 129.143091 
L 136.551264 129.143091 
L 136.645276 125.127529 
L 136.831795 125.127529 
L 136.924311 121.111967 
L 137.016339 121.111967 
L 137.107884 118.817361 
L 137.37967 118.817361 
L 137.469333 116.522754 
L 137.558536 116.522754 
L 137.647286 111.93354 
L 137.735587 111.93354 
L 137.823442 110.786236 
L 138.170504 110.786236 
L 138.170504 110.212585 
L 138.510793 110.212585 
L 138.594838 104.476068 
L 138.67848 104.476068 
L 138.67848 103.902416 
L 138.927025 103.902416 
L 138.927025 103.328764 
L 139.090775 103.328764 
L 139.090775 102.755112 
L 139.333553 102.755112 
L 139.413734 98.73955 
L 139.493548 98.73955 
L 139.493548 98.165899 
L 139.8092 98.165899 
L 139.887228 96.444944 
L 139.964909 96.444944 
L 140.042245 94.150337 
L 140.195896 94.150337 
L 140.272217 93.003033 
L 140.348205 93.003033 
L 140.423864 91.282078 
L 140.499195 91.282078 
L 140.574203 88.987471 
L 140.723258 88.987471 
L 140.79731 87.840168 
L 141.017599 87.840168 
L 141.090414 86.119213 
L 141.162927 86.119213 
L 141.162927 85.545561 
L 141.307054 85.545561 
L 141.307054 83.250954 
L 141.45 83.250954 
L 141.521035 82.103651 
L 141.871938 82.103651 
L 141.941279 80.382695 
L 142.010346 80.382695 
L 142.07914 78.66174 
L 142.215919 78.66174 
L 142.283909 77.514437 
L 142.686372 77.514437 
L 142.752555 74.646178 
L 142.818488 74.646178 
L 142.818488 73.498875 
L 143.014805 73.498875 
L 143.014805 72.925223 
L 143.144465 72.925223 
L 143.144465 72.351571 
L 143.273169 72.351571 
L 143.273169 71.77792 
L 143.527762 71.77792 
L 143.527762 71.204268 
L 143.653678 71.204268 
L 143.653678 70.056964 
L 143.840863 70.056964 
L 143.840863 69.483313 
L 144.148442 69.483313 
L 144.148442 68.909661 
L 144.269971 68.909661 
L 144.269971 67.762358 
L 144.629556 67.762358 
L 144.629556 67.188706 
L 144.806606 67.188706 
L 144.865226 63.746796 
L 144.981877 63.746796 
L 145.039911 62.02584 
L 145.155404 62.02584 
L 145.155404 60.878537 
L 145.270136 60.878537 
L 145.270136 60.304885 
L 145.497361 60.304885 
L 145.497361 59.157582 
L 145.609873 59.157582 
L 145.609873 58.58393 
L 145.777292 58.58393 
L 145.832743 56.862975 
L 146.052799 56.862975 
L 146.052799 56.289323 
L 146.538004 56.289323 
L 146.538004 55.715672 
L 146.749392 55.715672 
L 146.749392 55.14202 
L 147.061745 55.14202 
L 147.061745 54.568368 
L 147.86833 54.568368 
L 147.917524 52.847413 
L 148.161434 52.847413 
L 148.258051 50.552806 
L 148.686322 50.552806 
L 148.686322 49.979154 
L 148.966103 49.979154 
L 149.012299 48.831851 
L 149.195872 48.831851 
L 149.286939 47.110896 
L 149.332295 47.110896 
L 149.332295 45.963592 
L 150.258492 45.963592 
L 150.258492 45.389941 
L 152.398241 45.389941 
L 152.398241 44.816289 
L 152.662192 44.816289 
L 152.662192 44.242637 
L 152.774102 44.242637 
L 152.774102 43.668985 
L 153.750233 43.668985 
L 153.750233 43.095334 
L 154.167129 43.095334 
L 154.167129 42.521682 
L 154.337936 42.521682 
L 154.337936 41.94803 
L 154.741174 41.94803 
L 154.840544 40.227075 
L 155.070227 40.227075 
L 155.167744 39.079772 
L 155.264719 39.079772 
L 155.361158 37.932468 
L 155.425155 37.932468 
L 155.425155 37.358817 
L 155.584129 37.358817 
L 155.647315 35.06421 
L 155.710272 35.06421 
L 155.741666 33.916906 
L 155.86668 33.916906 
L 155.86668 33.343255 
L 156.114049 33.343255 
L 156.175347 32.195951 
L 156.236431 32.195951 
L 156.266892 30.474996 
L 156.357959 30.474996 
L 156.357959 29.327692 
L 156.598505 29.327692 
L 156.658127 28.180389 
L 156.835778 28.180389 
L 156.894595 27.033086 
L 156.98245 27.033086 
L 156.98245 26.459434 
L 157.329512 26.459434 
L 157.329512 25.885782 
L 157.613546 25.885782 
L 157.669802 24.738479 
L 157.86528 24.738479 
L 157.94839 23.591175 
L 158.331086 23.591175 
L 158.331086 23.017524 
L 158.652556 23.017524 
L 158.75841 21.296568 
L 159.149734 21.296568 
L 159.201253 20.149265 
L 160.152267 20.149265 
L 160.152267 19.575613 
L 160.656397 19.575613 
L 160.656397 19.001962 
L 161.283861 19.001962 
L 161.352206 17.854658 
L 161.420284 17.854658 
L 161.420284 17.281006 
L 161.756743 17.281006 
L 161.778945 16.133703 
L 162.043181 16.133703 
L 162.043181 15.560051 
L 162.602318 15.560051 
L 162.602318 14.9864 
L 163.103002 14.9864 
L 163.103002 14.412748 
L 163.428979 14.412748 
L 163.428979 13.839096 
L 163.609699 13.839096 
L 163.609699 13.265444 
L 164.954803 13.265444 
L 164.954803 12.691793 
L 165.211808 12.691793 
L 165.211808 12.118141 
L 165.356985 12.118141 
L 165.356985 11.544489 
L 165.572509 11.544489 
L 165.572509 10.970838 
L 165.9084 10.970838 
L 165.9084 10.397186 
L 166.374858 10.397186 
L 166.374858 9.823534 
L 167.174506 9.823534 
L 167.207042 8.676231 
L 167.288118 8.676231 
L 167.288118 8.102579 
L 169.157854 8.102579 
L 169.157854 7.528927 
L 171.250617 7.528927 
L 171.250617 6.955275 
L 172.031987 6.955275 
L 172.031987 6.381624 
L 338.688 6.381624 
L 338.688 6.381624 
" style="fill:none;stroke:#ff7500;stroke-linecap:square;stroke-width:1.5;"/>
   </g>
   <g id="line2d_41">
    <defs>
     <path d="M 0 -6 
L -1.347084 -1.854102 
L -5.706339 -1.854102 
L -2.179628 0.708204 
L -3.526712 4.854102 
L -0 2.291796 
L 3.526712 4.854102 
L 2.179628 0.708204 
L 5.706339 -1.854102 
L 1.347084 -1.854102 
z
" id="m451ab2244a" style="stroke:#ff7500;stroke-linejoin:bevel;stroke-width:1.5;"/>
    </defs>
    <g>
     <use style="fill-opacity:0;stroke:#ff7500;stroke-linejoin:bevel;stroke-width:1.5;" x="136.924311" xlink:href="#m451ab2244a" y="124.553878"/>
     <use style="fill-opacity:0;stroke:#ff7500;stroke-linejoin:bevel;stroke-width:1.5;" x="172.031987" xlink:href="#m451ab2244a" y="6.955275"/>
     <use style="fill-opacity:0;stroke:#ff7500;stroke-linejoin:bevel;stroke-width:1.5;" x="172.031987" xlink:href="#m451ab2244a" y="6.381624"/>
     <use style="fill-opacity:0;stroke:#ff7500;stroke-linejoin:bevel;stroke-width:1.5;" x="172.031987" xlink:href="#m451ab2244a" y="6.381624"/>
     <use style="fill-opacity:0;stroke:#ff7500;stroke-linejoin:bevel;stroke-width:1.5;" x="338.688" xlink:href="#m451ab2244a" y="6.381624"/>
    </g>
   </g>
   <g id="line2d_42">
    <path style="fill:none;stroke:#ff7500;stroke-linecap:square;stroke-width:1.5;"/>
    <g/>
   </g>
   <g id="line2d_43">
    <path clip-path="url(#pd137300ce5)" d="M 124.178158 255.920121 
" style="fill:none;stroke:#ff7500;stroke-linecap:square;stroke-width:1.5;"/>
    <defs>
     <path d="M -12 12 
L 12 -12 
M -12 -12 
L 12 12 
" id="mef2e5c1476" style="stroke:#ff7500;"/>
    </defs>
    <g clip-path="url(#pd137300ce5)">
     <use style="fill:#ff7500;stroke:#ff7500;" x="124.178158" xlink:href="#mef2e5c1476" y="255.920121"/>
    </g>
   </g>
   <g id="line2d_44">
    <defs>
     <path d="M 0 1.5 
C 0.397805 1.5 0.77937 1.341951 1.06066 1.06066 
C 1.341951 0.77937 1.5 0.397805 1.5 0 
C 1.5 -0.397805 1.341951 -0.77937 1.06066 -1.06066 
C 0.77937 -1.341951 0.397805 -1.5 0 -1.5 
C -0.397805 -1.5 -0.77937 -1.341951 -1.06066 -1.06066 
C -1.341951 -0.77937 -1.5 -0.397805 -1.5 0 
C -1.5 0.397805 -1.341951 0.77937 -1.06066 1.06066 
C -0.77937 1.341951 -0.397805 1.5 0 1.5 
z
" id="macbae020d6" style="stroke:#6495ed;"/>
    </defs>
    <g>
     <use style="fill:#6495ed;stroke:#6495ed;" x="207.02275" xlink:href="#macbae020d6" y="17.854658"/>
     <use style="fill:#6495ed;stroke:#6495ed;" x="207.02275" xlink:href="#macbae020d6" y="17.854658"/>
    </g>
   </g>
   <g id="line2d_45">
    <path d="M 45.512012 298.944 
L 45.512012 298.370348 
L 104.826449 298.370348 
L 104.826449 297.796697 
L 105.951954 297.796697 
L 105.951954 296.649393 
L 106.48859 296.649393 
L 106.48859 294.928438 
L 107.009204 294.928438 
L 107.009204 290.339224 
L 107.514726 290.339224 
L 107.514726 289.191921 
L 108.006005 289.191921 
L 108.006005 286.897314 
L 108.483824 286.897314 
L 108.483824 286.323662 
L 108.948899 286.323662 
L 108.948899 284.029055 
L 109.401893 284.029055 
L 109.401893 283.455404 
L 109.843417 283.455404 
L 109.843417 280.013493 
L 110.274038 280.013493 
L 110.274038 279.439842 
L 110.694282 279.439842 
L 110.694282 277.718886 
L 111.104637 277.718886 
L 111.104637 276.571583 
L 111.505558 276.571583 
L 111.505558 274.276976 
L 111.897469 274.276976 
L 111.897469 270.835066 
L 112.655818 270.835066 
L 112.655818 269.687762 
L 113.382559 269.687762 
L 113.382559 269.114111 
L 114.080224 269.114111 
L 114.080224 267.966807 
L 114.751048 267.966807 
L 114.751048 263.377593 
L 115.397021 263.377593 
L 115.397021 262.803942 
L 116.323218 262.803942 
L 116.323218 262.23029 
L 118.838828 262.23029 
L 118.838828 261.656638 
L 121.931406 261.656638 
L 121.931406 261.082987 
L 124.743806 261.082987 
L 124.743806 260.509335 
L 124.92835 260.509335 
L 124.92835 259.935683 
L 125.110962 259.935683 
L 125.110962 258.78838 
L 125.291682 258.78838 
L 125.291682 258.214728 
L 125.470548 258.214728 
L 125.470548 257.641076 
L 125.647598 257.641076 
L 125.647598 257.067425 
L 126.168212 257.067425 
L 126.168212 256.493773 
L 126.338353 256.493773 
L 126.338353 255.920121 
L 126.50685 255.920121 
L 126.50685 255.346469 
L 126.839037 255.346469 
L 126.839037 253.625514 
L 127.325746 253.625514 
L 127.325746 251.904559 
L 127.48501 251.904559 
L 127.48501 251.330907 
L 127.642832 251.330907 
L 127.642832 249.609952 
L 127.954256 249.609952 
L 127.954256 248.462649 
L 128.107907 248.462649 
L 128.107907 247.888997 
L 128.411207 247.888997 
L 128.411207 247.315345 
L 128.560901 247.315345 
L 128.560901 245.59439 
L 128.709321 245.59439 
L 128.709321 245.020738 
L 129.147151 245.020738 
L 129.147151 244.447087 
L 129.290685 244.447087 
L 129.290685 243.873435 
L 129.433047 243.873435 
L 129.433047 243.299783 
L 129.574256 243.299783 
L 129.574256 242.726132 
L 129.714332 242.726132 
L 129.714332 239.284221 
L 129.853291 239.284221 
L 129.853291 238.136918 
L 129.991152 238.136918 
L 129.991152 235.842311 
L 130.127931 235.842311 
L 130.127931 231.826749 
L 130.263646 231.826749 
L 130.263646 231.253097 
L 130.398313 231.253097 
L 130.398313 230.105794 
L 130.531948 230.105794 
L 130.531948 229.532142 
L 130.796184 229.532142 
L 130.796184 228.384839 
L 131.185181 228.384839 
L 131.185181 227.811187 
L 131.312942 227.811187 
L 131.312942 225.51658 
L 131.565689 225.51658 
L 131.565689 222.648321 
L 131.690703 222.648321 
L 131.690703 220.353715 
L 131.814826 220.353715 
L 131.814826 219.780063 
L 132.181982 219.780063 
L 132.181982 219.206411 
L 132.30267 219.206411 
L 132.30267 217.485456 
L 132.659801 217.485456 
L 132.659801 216.911804 
L 132.777237 216.911804 
L 132.777237 215.190849 
L 132.893889 215.190849 
L 132.893889 214.617197 
L 133.009765 214.617197 
L 133.009765 213.469894 
L 133.239232 213.469894 
L 133.239232 211.748939 
L 133.352844 211.748939 
L 133.352844 211.175287 
L 133.46572 211.175287 
L 133.46572 206.012422 
L 133.57787 206.012422 
L 133.57787 203.717815 
L 133.689303 203.717815 
L 133.800029 200.275904 
L 133.910056 200.275904 
L 134.019394 194.539387 
L 134.343353 194.539387 
L 134.450015 188.229218 
L 134.55603 188.229218 
L 134.661403 186.508263 
L 134.766144 186.508263 
L 134.870259 181.91905 
L 134.973757 181.91905 
L 135.076644 179.050791 
L 135.178927 179.050791 
L 135.280614 173.314274 
L 135.482227 173.314274 
L 135.582166 169.872363 
L 135.681535 169.872363 
L 135.780341 165.856801 
L 135.878591 165.856801 
L 135.97629 162.988543 
L 136.073445 162.988543 
L 136.170062 158.399329 
L 136.266147 158.399329 
L 136.361705 156.678374 
L 136.456742 156.678374 
L 136.551264 152.662812 
L 136.738785 152.662812 
L 136.831795 148.073598 
L 136.924311 148.073598 
L 137.016339 145.20534 
L 137.107884 145.20534 
L 137.198951 141.189778 
L 137.289545 141.189778 
L 137.37967 138.321519 
L 137.469333 138.321519 
L 137.558536 133.732305 
L 137.647286 133.732305 
L 137.735587 127.422136 
L 137.823442 127.422136 
L 137.910857 125.127529 
L 137.997836 125.127529 
L 137.997836 123.406574 
L 138.170504 123.406574 
L 138.256201 121.685619 
L 138.341479 121.685619 
L 138.426341 117.096405 
L 138.594838 117.096405 
L 138.67848 114.228147 
L 138.761723 114.228147 
L 138.84457 111.93354 
L 138.927025 111.93354 
L 139.009092 109.065281 
L 139.172077 109.065281 
L 139.253002 106.770674 
L 139.333553 106.770674 
L 139.413734 101.034157 
L 139.493548 101.034157 
L 139.493548 99.313202 
L 139.652088 99.313202 
L 139.730821 97.018595 
L 139.8092 97.018595 
L 139.887228 88.413819 
L 139.964909 88.413819 
L 139.964909 87.266516 
L 140.11924 87.266516 
L 140.195896 84.398257 
L 140.272217 84.398257 
L 140.348205 81.529999 
L 140.423864 81.529999 
L 140.423864 80.382695 
L 140.574203 80.382695 
L 140.64889 79.235392 
L 140.871049 79.235392 
L 140.871049 77.514437 
L 141.017599 77.514437 
L 141.090414 75.793482 
L 141.162927 75.793482 
L 141.235139 73.498875 
L 141.45 73.498875 
L 141.45 71.204268 
L 142.010346 71.204268 
L 142.07914 69.483313 
L 142.419098 69.483313 
L 142.486301 68.336009 
L 142.686372 68.336009 
L 142.752555 67.188706 
L 142.818488 67.188706 
L 142.818488 66.041402 
L 142.949611 66.041402 
L 143.014805 64.894099 
L 143.079756 64.894099 
L 143.079756 64.320447 
L 143.273169 64.320447 
L 143.273169 63.746796 
L 143.40093 63.746796 
L 143.464461 61.452189 
L 143.653678 61.452189 
L 143.653678 60.304885 
L 143.964547 60.304885 
L 144.026061 58.58393 
L 144.209312 58.58393 
L 144.209312 58.010278 
L 144.390658 58.010278 
L 144.390658 57.436627 
L 144.510517 57.436627 
L 144.570138 56.289323 
L 144.629556 56.289323 
L 144.688773 54.568368 
L 144.747789 54.568368 
L 144.806606 53.421065 
L 145.155404 53.421065 
L 145.155404 52.273761 
L 145.998045 52.273761 
L 145.998045 51.700109 
L 146.161795 51.700109 
L 146.270114 50.552806 
L 146.377764 50.552806 
L 146.484754 49.405503 
L 146.801841 49.405503 
L 146.801841 48.831851 
L 147.215849 48.831851 
L 147.266916 45.963592 
L 147.71991 45.963592 
L 147.818997 43.668985 
L 147.86833 43.668985 
L 147.86833 43.095334 
L 148.064279 43.095334 
L 148.064279 42.521682 
L 148.780082 42.521682 
L 148.780082 41.374379 
L 149.104327 41.374379 
L 149.104327 40.800727 
L 149.512548 40.800727 
L 149.512548 40.227075 
L 149.823575 40.227075 
L 149.823575 39.653423 
L 150.042389 39.653423 
L 150.042389 39.079772 
L 150.38688 39.079772 
L 150.38688 38.50612 
L 151.097081 38.50612 
L 151.097081 37.932468 
L 151.897188 37.932468 
L 151.897188 37.358817 
L 152.207228 37.358817 
L 152.283884 35.637861 
L 152.959038 35.637861 
L 153.069065 34.490558 
L 153.925152 34.490558 
L 153.925152 33.916906 
L 154.132765 33.916906 
L 154.201424 32.769603 
L 154.371897 32.769603 
L 154.371897 32.195951 
L 154.972161 32.195951 
L 155.070227 31.048648 
L 156.236431 31.048648 
L 156.236431 30.474996 
L 156.448553 30.474996 
L 156.448553 29.901344 
L 160.680044 29.901344 
L 160.680044 29.327692 
L 161.622937 29.327692 
L 161.622937 28.754041 
L 161.933569 28.754041 
L 161.933569 28.180389 
L 163.205526 28.180389 
L 163.205526 27.606737 
L 163.748975 27.606737 
L 163.748975 27.033086 
L 163.965615 27.033086 
L 163.965615 26.459434 
L 164.314412 26.459434 
L 164.314412 25.885782 
L 167.624577 25.885782 
L 167.624577 25.31213 
L 173.383259 25.31213 
L 173.383259 24.738479 
L 174.827334 24.738479 
L 174.827334 24.164827 
L 175.252577 24.164827 
L 175.252577 23.591175 
L 176.488521 23.591175 
L 176.488521 23.017524 
L 179.20541 23.017524 
L 179.20541 22.443872 
L 186.894312 22.443872 
L 186.894312 21.87022 
L 189.487724 21.87022 
L 189.487724 21.296568 
L 192.836322 21.296568 
L 192.836322 20.722917 
L 195.111192 20.722917 
L 195.111192 20.149265 
L 198.858345 20.149265 
L 198.858345 19.575613 
L 203.874652 19.575613 
L 203.874652 19.001962 
L 205.420003 19.001962 
L 205.420003 18.42831 
L 207.02275 18.42831 
L 207.02275 17.854658 
L 338.688 17.854658 
L 338.688 17.854658 
" style="fill:none;stroke:#6495ed;stroke-linecap:square;stroke-width:1.5;"/>
   </g>
   <g id="line2d_46">
    <defs>
     <path d="M -0 6 
L 6 -6 
L -6 -6 
z
" id="m5ed4b9a5be" style="stroke:#6495ed;stroke-linejoin:miter;stroke-width:1.5;"/>
    </defs>
    <g>
     <use style="fill-opacity:0;stroke:#6495ed;stroke-linejoin:miter;stroke-width:1.5;" x="112.655818" xlink:href="#m5ed4b9a5be" y="269.687762"/>
     <use style="fill-opacity:0;stroke:#6495ed;stroke-linejoin:miter;stroke-width:1.5;" x="139.652088" xlink:href="#m5ed4b9a5be" y="98.73955"/>
     <use style="fill-opacity:0;stroke:#6495ed;stroke-linejoin:miter;stroke-width:1.5;" x="192.836322" xlink:href="#m5ed4b9a5be" y="20.722917"/>
     <use style="fill-opacity:0;stroke:#6495ed;stroke-linejoin:miter;stroke-width:1.5;" x="207.02275" xlink:href="#m5ed4b9a5be" y="17.854658"/>
     <use style="fill-opacity:0;stroke:#6495ed;stroke-linejoin:miter;stroke-width:1.5;" x="207.02275" xlink:href="#m5ed4b9a5be" y="17.854658"/>
     <use style="fill-opacity:0;stroke:#6495ed;stroke-linejoin:miter;stroke-width:1.5;" x="338.688" xlink:href="#m5ed4b9a5be" y="17.854658"/>
    </g>
   </g>
   <g id="line2d_47">
    <path style="fill:none;stroke:#6495ed;stroke-linecap:square;stroke-width:1.5;"/>
    <g/>
   </g>
   <g id="line2d_48">
    <path clip-path="url(#pd137300ce5)" d="M 126.839037 253.625514 
" style="fill:none;stroke:#6495ed;stroke-linecap:square;stroke-width:1.5;"/>
    <defs>
     <path d="M -12 12 
L 12 -12 
M -12 -12 
L 12 12 
" id="m2029f9c20e" style="stroke:#6495ed;"/>
    </defs>
    <g clip-path="url(#pd137300ce5)">
     <use style="fill:#6495ed;stroke:#6495ed;" x="126.839037" xlink:href="#m2029f9c20e" y="253.625514"/>
    </g>
   </g>
   <g id="line2d_49">
    <defs>
     <path d="M 0 1.5 
C 0.397805 1.5 0.77937 1.341951 1.06066 1.06066 
C 1.341951 0.77937 1.5 0.397805 1.5 0 
C 1.5 -0.397805 1.341951 -0.77937 1.06066 -1.06066 
C 0.77937 -1.341951 0.397805 -1.5 0 -1.5 
C -0.397805 -1.5 -0.77937 -1.341951 -1.06066 -1.06066 
C -1.341951 -0.77937 -1.5 -0.397805 -1.5 0 
C -1.5 0.397805 -1.341951 0.77937 -1.06066 1.06066 
C -0.77937 1.341951 -0.397805 1.5 0 1.5 
z
" id="m8c1a7e9719" style="stroke:#ff0000;"/>
    </defs>
    <g>
     <use style="fill:#ff0000;stroke:#ff0000;" x="137.735587" xlink:href="#m8c1a7e9719" y="6.381624"/>
     <use style="fill:#ff0000;stroke:#ff0000;" x="137.735587" xlink:href="#m8c1a7e9719" y="6.381624"/>
    </g>
   </g>
   <g id="line2d_50">
    <path d="M 45.512012 298.944 
L 45.512012 264.524897 
L 95.918017 264.524897 
L 95.918017 263.951245 
L 98.606294 263.951245 
L 98.606294 263.377593 
L 100.192776 263.377593 
L 100.192776 262.803942 
L 103.623262 262.803942 
L 103.623262 261.656638 
L 104.23523 261.656638 
L 104.23523 259.362031 
L 104.826449 259.362031 
L 104.826449 258.78838 
L 105.398279 258.78838 
L 105.398279 255.920121 
L 105.951954 255.920121 
L 105.951954 254.199166 
L 106.48859 254.199166 
L 106.48859 252.478211 
L 107.009204 252.478211 
L 107.009204 249.609952 
L 107.514726 249.609952 
L 107.514726 246.168042 
L 108.006005 246.168042 
L 108.006005 242.726132 
L 108.483824 242.726132 
L 108.483824 239.284221 
L 116.323218 239.284221 
L 116.323218 238.71057 
L 117.202696 238.71057 
L 117.202696 238.136918 
L 117.486268 238.136918 
L 117.486268 237.563266 
L 117.765302 237.563266 
L 117.765302 236.989614 
L 118.310324 236.989614 
L 118.310324 235.842311 
L 118.838828 235.842311 
L 118.838828 235.268659 
L 119.097192 235.268659 
L 119.097192 234.121356 
L 119.351785 234.121356 
L 119.351785 232.400401 
L 119.602714 232.400401 
L 119.602714 231.253097 
L 119.850084 231.253097 
L 119.850084 226.090232 
L 120.33454 226.090232 
L 120.33454 224.369277 
L 120.571812 224.369277 
L 120.571812 223.221973 
L 120.8059 223.221973 
L 120.8059 222.07467 
L 121.036887 222.07467 
L 121.036887 220.353715 
L 121.264855 220.353715 
L 121.264855 219.780063 
L 121.489881 219.780063 
L 121.489881 218.059108 
L 121.712041 218.059108 
L 121.712041 217.485456 
L 121.931406 217.485456 
L 121.931406 213.469894 
L 122.148045 213.469894 
L 122.148045 211.748939 
L 122.362027 211.748939 
L 122.362027 206.012422 
L 122.573415 206.012422 
L 122.573415 203.717815 
L 122.782271 203.717815 
L 122.782271 201.99686 
L 122.988655 201.99686 
L 122.988655 201.423208 
L 123.192626 201.423208 
L 123.192626 200.849556 
L 123.593547 200.849556 
L 123.593547 195.686691 
L 123.790603 195.686691 
L 123.790603 195.113039 
L 123.985457 195.113039 
L 123.985457 193.965736 
L 124.178158 193.965736 
L 124.178158 191.671129 
L 124.368753 191.671129 
L 124.368753 189.376522 
L 124.557288 189.376522 
L 124.557288 186.508263 
L 124.743806 186.508263 
L 124.743806 185.934612 
L 124.92835 185.934612 
L 124.92835 185.36096 
L 125.110962 185.36096 
L 125.110962 182.492701 
L 125.291682 182.492701 
L 125.291682 177.903487 
L 125.470548 177.903487 
L 125.470548 175.035229 
L 125.647598 175.035229 
L 125.647598 169.298712 
L 125.822869 169.298712 
L 125.822869 168.151408 
L 125.996395 168.151408 
L 125.996395 167.004105 
L 126.168212 167.004105 
L 126.168212 165.28315 
L 126.338353 165.28315 
L 126.338353 162.988543 
L 126.50685 162.988543 
L 126.50685 160.120284 
L 126.673734 160.120284 
L 126.673734 157.825677 
L 127.002787 157.825677 
L 127.002787 157.252026 
L 127.165014 157.252026 
L 127.165014 156.678374 
L 127.325746 156.678374 
L 127.325746 154.957419 
L 127.48501 154.957419 
L 127.48501 154.383767 
L 127.642832 154.383767 
L 127.642832 152.08916 
L 127.799239 152.08916 
L 127.799239 150.941857 
L 127.954256 150.941857 
L 127.954256 148.073598 
L 128.107907 148.073598 
L 128.107907 146.926295 
L 128.260216 146.926295 
L 128.260216 145.20534 
L 128.411207 145.20534 
L 128.411207 142.337081 
L 128.560901 142.337081 
L 128.560901 138.321519 
L 128.709321 138.321519 
L 128.709321 137.174215 
L 128.856489 137.174215 
L 128.856489 135.45326 
L 129.002426 135.45326 
L 129.002426 134.305957 
L 129.147151 134.305957 
L 129.147151 131.437698 
L 129.290685 131.437698 
L 129.290685 126.848485 
L 129.433047 126.848485 
L 129.433047 125.701181 
L 129.574256 125.701181 
L 129.574256 122.259271 
L 129.714332 122.259271 
L 129.714332 117.670057 
L 129.853291 117.670057 
L 129.853291 115.37545 
L 129.991152 115.37545 
L 129.991152 113.080843 
L 130.127931 113.080843 
L 130.127931 111.359888 
L 130.263646 111.359888 
L 130.263646 110.786236 
L 130.398313 110.786236 
L 130.398313 102.755112 
L 130.531948 102.755112 
L 130.531948 101.034157 
L 130.664567 101.034157 
L 130.664567 98.73955 
L 130.796184 98.73955 
L 130.796184 96.444944 
L 130.926816 96.444944 
L 130.926816 95.871292 
L 131.056477 95.871292 
L 131.056477 93.003033 
L 131.185181 93.003033 
L 131.185181 92.429381 
L 131.312942 92.429381 
L 131.312942 89.561123 
L 131.439773 89.561123 
L 131.439773 88.987471 
L 131.565689 88.987471 
L 131.565689 88.413819 
L 131.690703 88.413819 
L 131.690703 87.266516 
L 131.814826 87.266516 
L 131.814826 83.250954 
L 131.938072 83.250954 
L 131.938072 80.382695 
L 132.060454 80.382695 
L 132.060454 76.940785 
L 132.181982 76.940785 
L 132.181982 75.21983 
L 132.30267 75.21983 
L 132.30267 72.351571 
L 132.422528 72.351571 
L 132.422528 70.056964 
L 132.541568 70.056964 
L 132.541568 68.909661 
L 132.659801 68.909661 
L 132.659801 67.762358 
L 132.777237 67.762358 
L 132.777237 65.467751 
L 132.893889 65.467751 
L 132.893889 59.731234 
L 133.009765 59.731234 
L 133.009765 58.010278 
L 133.124876 58.010278 
L 133.124876 57.436627 
L 133.239232 57.436627 
L 133.239232 53.421065 
L 133.352844 53.421065 
L 133.352844 49.979154 
L 133.46572 49.979154 
L 133.46572 46.537244 
L 133.57787 46.537244 
L 133.57787 45.963592 
L 133.689303 45.963592 
L 133.800029 43.668985 
L 133.910056 43.668985 
L 134.019394 35.637861 
L 134.12805 35.637861 
L 134.12805 33.916906 
L 134.343353 33.916906 
L 134.450015 32.769603 
L 134.766144 32.769603 
L 134.870259 26.459434 
L 134.973757 26.459434 
L 135.076644 21.87022 
L 135.178927 21.87022 
L 135.280614 19.001962 
L 135.381712 19.001962 
L 135.381712 17.854658 
L 135.681535 17.854658 
L 135.780341 16.707355 
L 135.878591 16.707355 
L 135.97629 14.9864 
L 136.170062 14.9864 
L 136.266147 13.265444 
L 136.361705 13.265444 
L 136.361705 12.691793 
L 136.551264 12.691793 
L 136.645276 11.544489 
L 136.738785 11.544489 
L 136.738785 9.249882 
L 137.016339 9.249882 
L 137.016339 8.676231 
L 137.198951 8.676231 
L 137.198951 7.528927 
L 137.735587 7.528927 
L 137.735587 6.381624 
L 338.688 6.381624 
L 338.688 6.381624 
" style="fill:none;stroke:#ff0000;stroke-linecap:square;stroke-width:1.5;"/>
   </g>
   <g id="line2d_51">
    <defs>
     <path d="M 0 -6 
L -5.196152 -3 
L -5.196152 3 
L -0 6 
L 5.196152 3 
L 5.196152 -3 
z
" id="m412483c5e3" style="stroke:#ff0000;stroke-linejoin:miter;stroke-width:1.5;"/>
    </defs>
    <g>
     <use style="fill-opacity:0;stroke:#ff0000;stroke-linejoin:miter;stroke-width:1.5;" x="108.006005" xlink:href="#m412483c5e3" y="246.168042"/>
     <use style="fill-opacity:0;stroke:#ff0000;stroke-linejoin:miter;stroke-width:1.5;" x="134.343353" xlink:href="#m412483c5e3" y="33.916906"/>
     <use style="fill-opacity:0;stroke:#ff0000;stroke-linejoin:miter;stroke-width:1.5;" x="137.735587" xlink:href="#m412483c5e3" y="7.528927"/>
     <use style="fill-opacity:0;stroke:#ff0000;stroke-linejoin:miter;stroke-width:1.5;" x="137.735587" xlink:href="#m412483c5e3" y="6.381624"/>
     <use style="fill-opacity:0;stroke:#ff0000;stroke-linejoin:miter;stroke-width:1.5;" x="137.735587" xlink:href="#m412483c5e3" y="6.381624"/>
     <use style="fill-opacity:0;stroke:#ff0000;stroke-linejoin:miter;stroke-width:1.5;" x="338.688" xlink:href="#m412483c5e3" y="6.381624"/>
    </g>
   </g>
   <g id="line2d_52">
    <path style="fill:none;stroke:#ff0000;stroke-linecap:square;stroke-width:1.5;"/>
    <g/>
   </g>
   <g id="line2d_53">
    <path d="M 338.688 17.854658 
L 369.60768 293.092752 
" style="fill:none;stroke:#6495ed;stroke-linecap:square;stroke-width:1.5;"/>
    <g>
     <use style="fill-opacity:0;stroke:#6495ed;stroke-linejoin:miter;stroke-width:1.5;" x="338.688" xlink:href="#m5ed4b9a5be" y="17.854658"/>
     <use style="fill-opacity:0;stroke:#6495ed;stroke-linejoin:miter;stroke-width:1.5;" x="369.60768" xlink:href="#m5ed4b9a5be" y="293.092752"/>
    </g>
   </g>
   <g id="line2d_54">
    <path d="M 338.688 6.381624 
L 369.60768 222.877782 
" style="fill:none;stroke:#ff7500;stroke-linecap:square;stroke-width:1.5;"/>
    <g>
     <use style="fill-opacity:0;stroke:#ff7500;stroke-linejoin:bevel;stroke-width:1.5;" x="338.688" xlink:href="#m451ab2244a" y="6.381624"/>
     <use style="fill-opacity:0;stroke:#ff7500;stroke-linejoin:bevel;stroke-width:1.5;" x="369.60768" xlink:href="#m451ab2244a" y="222.877782"/>
    </g>
   </g>
   <g id="line2d_55">
    <path d="M 338.688 6.381624 
L 369.60768 152.662812 
" style="fill:none;stroke:#000080;stroke-linecap:square;stroke-width:1.5;"/>
    <g>
     <use style="fill-opacity:0;stroke:#000080;stroke-width:1.5;" x="338.688" xlink:href="#m6aefde1c99" y="6.381624"/>
     <use style="fill-opacity:0;stroke:#000080;stroke-width:1.5;" x="369.60768" xlink:href="#m6aefde1c99" y="152.662812"/>
    </g>
   </g>
   <g id="line2d_56">
    <path d="M 338.688 6.381624 
L 369.60768 82.447842 
" style="fill:none;stroke:#ff00ff;stroke-linecap:square;stroke-width:1.5;"/>
    <g>
     <use style="fill-opacity:0;stroke:#ff00ff;stroke-linejoin:miter;stroke-width:1.5;" x="338.688" xlink:href="#mac7113951c" y="6.381624"/>
     <use style="fill-opacity:0;stroke:#ff00ff;stroke-linejoin:miter;stroke-width:1.5;" x="369.60768" xlink:href="#mac7113951c" y="82.447842"/>
    </g>
   </g>
   <g id="line2d_57">
    <path d="M 338.688 6.381624 
L 369.60768 12.232871 
" style="fill:none;stroke:#ff0000;stroke-linecap:square;stroke-width:1.5;"/>
    <g>
     <use style="fill-opacity:0;stroke:#ff0000;stroke-linejoin:miter;stroke-width:1.5;" x="338.688" xlink:href="#m412483c5e3" y="6.381624"/>
     <use style="fill-opacity:0;stroke:#ff0000;stroke-linejoin:miter;stroke-width:1.5;" x="369.60768" xlink:href="#m412483c5e3" y="12.232871"/>
    </g>
   </g>
   <g id="line2d_58">
    <path d="M 338.688 298.944 
L 338.688 6.381624 
" style="fill:none;stroke:#000000;stroke-linecap:square;stroke-width:1.5;"/>
   </g>
   <g id="patch_3">
    <path d="M 57.6 298.944 
L 57.6 3.456 
" style="fill:none;stroke:#000000;stroke-linecap:square;stroke-linejoin:miter;stroke-width:0.8;"/>
   </g>
   <g id="patch_4">
    <path d="M 338.688 298.944 
L 338.688 3.456 
" style="fill:none;stroke:#000000;stroke-linecap:square;stroke-linejoin:miter;stroke-width:0.8;"/>
   </g>
   <g id="patch_5">
    <path d="M 57.6 298.944 
L 338.688 298.944 
" style="fill:none;stroke:#000000;stroke-linecap:square;stroke-linejoin:miter;stroke-width:0.8;"/>
   </g>
   <g id="patch_6">
    <path d="M 57.6 3.456 
L 338.688 3.456 
" style="fill:none;stroke:#000000;stroke-linecap:square;stroke-linejoin:miter;stroke-width:0.8;"/>
   </g>
   <g id="text_13">
    <!-- f13 -->
    <g transform="translate(375.22944 297.78369)scale(0.17 -0.17)">
     <defs>
      <path d="M 40.578125 39.3125 
Q 47.65625 37.796875 51.625 33 
Q 55.609375 28.21875 55.609375 21.1875 
Q 55.609375 10.40625 48.1875 4.484375 
Q 40.765625 -1.421875 27.09375 -1.421875 
Q 22.515625 -1.421875 17.65625 -0.515625 
Q 12.796875 0.390625 7.625 2.203125 
L 7.625 11.71875 
Q 11.71875 9.328125 16.59375 8.109375 
Q 21.484375 6.890625 26.8125 6.890625 
Q 36.078125 6.890625 40.9375 10.546875 
Q 45.796875 14.203125 45.796875 21.1875 
Q 45.796875 27.640625 41.28125 31.265625 
Q 36.765625 34.90625 28.71875 34.90625 
L 20.21875 34.90625 
L 20.21875 43.015625 
L 29.109375 43.015625 
Q 36.375 43.015625 40.234375 45.921875 
Q 44.09375 48.828125 44.09375 54.296875 
Q 44.09375 59.90625 40.109375 62.90625 
Q 36.140625 65.921875 28.71875 65.921875 
Q 24.65625 65.921875 20.015625 65.03125 
Q 15.375 64.15625 9.8125 62.3125 
L 9.8125 71.09375 
Q 15.4375 72.65625 20.34375 73.4375 
Q 25.25 74.21875 29.59375 74.21875 
Q 40.828125 74.21875 47.359375 69.109375 
Q 53.90625 64.015625 53.90625 55.328125 
Q 53.90625 49.265625 50.4375 45.09375 
Q 46.96875 40.921875 40.578125 39.3125 
z
" id="DejaVuSans-51"/>
     </defs>
     <use xlink:href="#DejaVuSans-102"/>
     <use x="35.205078" xlink:href="#DejaVuSans-49"/>
     <use x="98.828125" xlink:href="#DejaVuSans-51"/>
    </g>
   </g>
   <g id="text_14">
    <!-- f12 -->
    <g transform="translate(375.22944 227.56872)scale(0.17 -0.17)">
     <use xlink:href="#DejaVuSans-102"/>
     <use x="35.205078" xlink:href="#DejaVuSans-49"/>
     <use x="98.828125" xlink:href="#DejaVuSans-50"/>
    </g>
   </g>
   <g id="text_15">
    <!-- f10 -->
    <g transform="translate(375.22944 157.353749)scale(0.17 -0.17)">
     <use xlink:href="#DejaVuSans-102"/>
     <use x="35.205078" xlink:href="#DejaVuSans-49"/>
     <use x="98.828125" xlink:href="#DejaVuSans-48"/>
    </g>
   </g>
   <g id="text_16">
    <!-- f11 -->
    <g transform="translate(375.22944 87.138779)scale(0.17 -0.17)">
     <use xlink:href="#DejaVuSans-102"/>
     <use x="35.205078" xlink:href="#DejaVuSans-49"/>
     <use x="98.828125" xlink:href="#DejaVuSans-49"/>
    </g>
   </g>
   <g id="text_17">
    <!-- f14 -->
    <g transform="translate(375.22944 16.923809)scale(0.17 -0.17)">
     <use xlink:href="#DejaVuSans-102"/>
     <use x="35.205078" xlink:href="#DejaVuSans-49"/>
     <use x="98.828125" xlink:href="#DejaVuSans-52"/>
    </g>
   </g>
   <g id="text_18">
    <!-- bbob -->
    <g transform="translate(60.41088 14.161286)scale(0.102 -0.102)">
     <defs>
      <path d="M 48.6875 27.296875 
Q 48.6875 37.203125 44.609375 42.84375 
Q 40.53125 48.484375 33.40625 48.484375 
Q 26.265625 48.484375 22.1875 42.84375 
Q 18.109375 37.203125 18.109375 27.296875 
Q 18.109375 17.390625 22.1875 11.75 
Q 26.265625 6.109375 33.40625 6.109375 
Q 40.53125 6.109375 44.609375 11.75 
Q 48.6875 17.390625 48.6875 27.296875 
z
M 18.109375 46.390625 
Q 20.953125 51.265625 25.265625 53.625 
Q 29.59375 56 35.59375 56 
Q 45.5625 56 51.78125 48.09375 
Q 58.015625 40.1875 58.015625 27.296875 
Q 58.015625 14.40625 51.78125 6.484375 
Q 45.5625 -1.421875 35.59375 -1.421875 
Q 29.59375 -1.421875 25.265625 0.953125 
Q 20.953125 3.328125 18.109375 8.203125 
L 18.109375 0 
L 9.078125 0 
L 9.078125 75.984375 
L 18.109375 75.984375 
z
" id="DejaVuSans-98"/>
     </defs>
     <use xlink:href="#DejaVuSans-98"/>
     <use x="63.476562" xlink:href="#DejaVuSans-98"/>
     <use x="126.953125" xlink:href="#DejaVuSans-111"/>
     <use x="188.134766" xlink:href="#DejaVuSans-98"/>
    </g>
    <!-- Ill-conditioned functions, 2-D -->
    <g transform="translate(60.41088 25.583055)scale(0.102 -0.102)">
     <defs>
      <path d="M 9.8125 72.90625 
L 19.671875 72.90625 
L 19.671875 0 
L 9.8125 0 
z
" id="DejaVuSans-73"/>
      <path d="M 19.671875 64.796875 
L 19.671875 8.109375 
L 31.59375 8.109375 
Q 46.6875 8.109375 53.6875 14.9375 
Q 60.6875 21.78125 60.6875 36.53125 
Q 60.6875 51.171875 53.6875 57.984375 
Q 46.6875 64.796875 31.59375 64.796875 
z
M 9.8125 72.90625 
L 30.078125 72.90625 
Q 51.265625 72.90625 61.171875 64.09375 
Q 71.09375 55.28125 71.09375 36.53125 
Q 71.09375 17.671875 61.125 8.828125 
Q 51.171875 0 30.078125 0 
L 9.8125 0 
z
" id="DejaVuSans-68"/>
     </defs>
     <use xlink:href="#DejaVuSans-73"/>
     <use x="29.492188" xlink:href="#DejaVuSans-108"/>
     <use x="57.275391" xlink:href="#DejaVuSans-108"/>
     <use x="85.058594" xlink:href="#DejaVuSans-45"/>
     <use x="121.142578" xlink:href="#DejaVuSans-99"/>
     <use x="176.123047" xlink:href="#DejaVuSans-111"/>
     <use x="237.304688" xlink:href="#DejaVuSans-110"/>
     <use x="300.683594" xlink:href="#DejaVuSans-100"/>
     <use x="364.160156" xlink:href="#DejaVuSans-105"/>
     <use x="391.943359" xlink:href="#DejaVuSans-116"/>
     <use x="431.152344" xlink:href="#DejaVuSans-105"/>
     <use x="458.935547" xlink:href="#DejaVuSans-111"/>
     <use x="520.117188" xlink:href="#DejaVuSans-110"/>
     <use x="583.496094" xlink:href="#DejaVuSans-101"/>
     <use x="645.019531" xlink:href="#DejaVuSans-100"/>
     <use x="708.496094" xlink:href="#DejaVuSans-32"/>
     <use x="740.283203" xlink:href="#DejaVuSans-102"/>
     <use x="775.488281" xlink:href="#DejaVuSans-117"/>
     <use x="838.867188" xlink:href="#DejaVuSans-110"/>
     <use x="902.246094" xlink:href="#DejaVuSans-99"/>
     <use x="957.226562" xlink:href="#DejaVuSans-116"/>
     <use x="996.435547" xlink:href="#DejaVuSans-105"/>
     <use x="1024.21875" xlink:href="#DejaVuSans-111"/>
     <use x="1085.400391" xlink:href="#DejaVuSans-110"/>
     <use x="1148.779297" xlink:href="#DejaVuSans-115"/>
     <use x="1200.878906" xlink:href="#DejaVuSans-44"/>
     <use x="1232.666016" xlink:href="#DejaVuSans-32"/>
     <use x="1264.453125" xlink:href="#DejaVuSans-50"/>
     <use x="1328.076172" xlink:href="#DejaVuSans-45"/>
     <use x="1364.160156" xlink:href="#DejaVuSans-68"/>
    </g>
    <!-- 51 targets: 100..1e-08 -->
    <g transform="translate(60.41088 37.004824)scale(0.102 -0.102)">
     <defs>
      <path d="M 10.796875 72.90625 
L 49.515625 72.90625 
L 49.515625 64.59375 
L 19.828125 64.59375 
L 19.828125 46.734375 
Q 21.96875 47.46875 24.109375 47.828125 
Q 26.265625 48.1875 28.421875 48.1875 
Q 40.625 48.1875 47.75 41.5 
Q 54.890625 34.8125 54.890625 23.390625 
Q 54.890625 11.625 47.5625 5.09375 
Q 40.234375 -1.421875 26.90625 -1.421875 
Q 22.3125 -1.421875 17.546875 -0.640625 
Q 12.796875 0.140625 7.71875 1.703125 
L 7.71875 11.625 
Q 12.109375 9.234375 16.796875 8.0625 
Q 21.484375 6.890625 26.703125 6.890625 
Q 35.15625 6.890625 40.078125 11.328125 
Q 45.015625 15.765625 45.015625 23.390625 
Q 45.015625 31 40.078125 35.4375 
Q 35.15625 39.890625 26.703125 39.890625 
Q 22.75 39.890625 18.8125 39.015625 
Q 14.890625 38.140625 10.796875 36.28125 
z
" id="DejaVuSans-53"/>
      <path d="M 11.71875 12.40625 
L 22.015625 12.40625 
L 22.015625 0 
L 11.71875 0 
z
M 11.71875 51.703125 
L 22.015625 51.703125 
L 22.015625 39.3125 
L 11.71875 39.3125 
z
" id="DejaVuSans-58"/>
     </defs>
     <use xlink:href="#DejaVuSans-53"/>
     <use x="63.623047" xlink:href="#DejaVuSans-49"/>
     <use x="127.246094" xlink:href="#DejaVuSans-32"/>
     <use x="159.033203" xlink:href="#DejaVuSans-116"/>
     <use x="198.242188" xlink:href="#DejaVuSans-97"/>
     <use x="259.521484" xlink:href="#DejaVuSans-114"/>
     <use x="298.884766" xlink:href="#DejaVuSans-103"/>
     <use x="362.361328" xlink:href="#DejaVuSans-101"/>
     <use x="423.884766" xlink:href="#DejaVuSans-116"/>
     <use x="463.09375" xlink:href="#DejaVuSans-115"/>
     <use x="515.193359" xlink:href="#DejaVuSans-58"/>
     <use x="548.884766" xlink:href="#DejaVuSans-32"/>
     <use x="580.671875" xlink:href="#DejaVuSans-49"/>
     <use x="644.294922" xlink:href="#DejaVuSans-48"/>
     <use x="707.917969" xlink:href="#DejaVuSans-48"/>
     <use x="771.541016" xlink:href="#DejaVuSans-46"/>
     <use x="803.328125" xlink:href="#DejaVuSans-46"/>
     <use x="835.115234" xlink:href="#DejaVuSans-49"/>
     <use x="898.738281" xlink:href="#DejaVuSans-101"/>
     <use x="960.261719" xlink:href="#DejaVuSans-45"/>
     <use x="996.345703" xlink:href="#DejaVuSans-48"/>
     <use x="1059.96875" xlink:href="#DejaVuSans-56"/>
    </g>
    <!-- 15 instances -->
    <g transform="translate(60.41088 48.426593)scale(0.102 -0.102)">
     <use xlink:href="#DejaVuSans-49"/>
     <use x="63.623047" xlink:href="#DejaVuSans-53"/>
     <use x="127.246094" xlink:href="#DejaVuSans-32"/>
     <use x="159.033203" xlink:href="#DejaVuSans-105"/>
     <use x="186.816406" xlink:href="#DejaVuSans-110"/>
     <use x="250.195312" xlink:href="#DejaVuSans-115"/>
     <use x="302.294922" xlink:href="#DejaVuSans-116"/>
     <use x="341.503906" xlink:href="#DejaVuSans-97"/>
     <use x="402.783203" xlink:href="#DejaVuSans-110"/>
     <use x="466.162109" xlink:href="#DejaVuSans-99"/>
     <use x="521.142578" xlink:href="#DejaVuSans-101"/>
     <use x="582.666016" xlink:href="#DejaVuSans-115"/>
    </g>
   </g>
   <g id="text_19">
    <!-- v2.4 -->
    <g style="fill:#808080;" transform="translate(187.233062 293.909432)scale(0.1 -0.1)">
     <use xlink:href="#DejaVuSans-118"/>
     <use x="59.179688" xlink:href="#DejaVuSans-50"/>
     <use x="122.802734" xlink:href="#DejaVuSans-46"/>
     <use x="154.589844" xlink:href="#DejaVuSans-52"/>
    </g>
   </g>
  </g>
 </g>
 <defs>
  <clipPath id="pd137300ce5">
   <rect height="295.488" width="281.088" x="57.6" y="3.456"/>
  </clipPath>
 </defs>
</svg>
