<?xml version="1.0" encoding="utf-8" standalone="no"?>
<!DOCTYPE svg PUBLIC "-//W3C//DTD SVG 1.1//EN"
  "http://www.w3.org/Graphics/SVG/1.1/DTD/svg11.dtd">
<!-- Created with matplotlib (https://matplotlib.org/) -->
<svg height="345.6pt" version="1.1" viewBox="0 0 460.8 345.6" width="460.8pt" xmlns="http://www.w3.org/2000/svg" xmlns:xlink="http://www.w3.org/1999/xlink">
 <metadata>
  <rdf:RDF xmlns:cc="http://creativecommons.org/ns#" xmlns:dc="http://purl.org/dc/elements/1.1/" xmlns:rdf="http://www.w3.org/1999/02/22-rdf-syntax-ns#">
   <cc:Work>
    <dc:type rdf:resource="http://purl.org/dc/dcmitype/StillImage"/>
    <dc:date>2021-08-04T10:26:22.242291</dc:date>
    <dc:format>image/svg+xml</dc:format>
    <dc:creator>
     <cc:Agent>
      <dc:title>Matplotlib v3.3.1, https://matplotlib.org/</dc:title>
     </cc:Agent>
    </dc:creator>
   </cc:Work>
  </rdf:RDF>
 </metadata>
 <defs>
  <style type="text/css">*{stroke-linecap:butt;stroke-linejoin:round;}</style>
 </defs>
 <g id="figure_1">
  <g id="patch_1">
   <path d="M 0 345.6 
L 460.8 345.6 
L 460.8 0 
L 0 0 
z
" style="fill:#ffffff;"/>
  </g>
  <g id="axes_1">
   <g id="patch_2">
    <path d="M 57.6 298.944 
L 338.688 298.944 
L 338.688 27.648 
L 57.6 27.648 
z
" style="fill:#ffffff;"/>
   </g>
   <g id="matplotlib.axis_1">
    <g id="xtick_1">
     <g id="line2d_1">
      <path clip-path="url(#p59da56c774)" d="M 57.6 298.944 
L 57.6 27.648 
" style="fill:none;stroke:#b0b0b0;stroke-linecap:square;stroke-width:0.8;"/>
     </g>
     <g id="line2d_2">
      <defs>
       <path d="M 0 0 
L 0 3.5 
" id="m4321e1d733" style="stroke:#000000;stroke-width:0.8;"/>
      </defs>
      <g>
       <use style="stroke:#000000;stroke-width:0.8;" x="57.6" xlink:href="#m4321e1d733" y="298.944"/>
      </g>
     </g>
     <g id="text_1">
      <!-- 0 -->
      <g transform="translate(51.2375 321.140875)scale(0.2 -0.2)">
       <defs>
        <path d="M 31.78125 66.40625 
Q 24.171875 66.40625 20.328125 58.90625 
Q 16.5 51.421875 16.5 36.375 
Q 16.5 21.390625 20.328125 13.890625 
Q 24.171875 6.390625 31.78125 6.390625 
Q 39.453125 6.390625 43.28125 13.890625 
Q 47.125 21.390625 47.125 36.375 
Q 47.125 51.421875 43.28125 58.90625 
Q 39.453125 66.40625 31.78125 66.40625 
z
M 31.78125 74.21875 
Q 44.046875 74.21875 50.515625 64.515625 
Q 56.984375 54.828125 56.984375 36.375 
Q 56.984375 17.96875 50.515625 8.265625 
Q 44.046875 -1.421875 31.78125 -1.421875 
Q 19.53125 -1.421875 13.0625 8.265625 
Q 6.59375 17.96875 6.59375 36.375 
Q 6.59375 54.828125 13.0625 64.515625 
Q 19.53125 74.21875 31.78125 74.21875 
z
" id="DejaVuSans-48"/>
       </defs>
       <use xlink:href="#DejaVuSans-48"/>
      </g>
     </g>
    </g>
    <g id="xtick_2">
     <g id="line2d_3">
      <path clip-path="url(#p59da56c774)" d="M 137.910857 298.944 
L 137.910857 27.648 
" style="fill:none;stroke:#b0b0b0;stroke-linecap:square;stroke-width:0.8;"/>
     </g>
     <g id="line2d_4">
      <g>
       <use style="stroke:#000000;stroke-width:0.8;" x="137.910857" xlink:href="#m4321e1d733" y="298.944"/>
      </g>
     </g>
     <g id="text_2">
      <!-- 2 -->
      <g transform="translate(131.548357 321.140875)scale(0.2 -0.2)">
       <defs>
        <path d="M 19.1875 8.296875 
L 53.609375 8.296875 
L 53.609375 0 
L 7.328125 0 
L 7.328125 8.296875 
Q 12.9375 14.109375 22.625 23.890625 
Q 32.328125 33.6875 34.8125 36.53125 
Q 39.546875 41.84375 41.421875 45.53125 
Q 43.3125 49.21875 43.3125 52.78125 
Q 43.3125 58.59375 39.234375 62.25 
Q 35.15625 65.921875 28.609375 65.921875 
Q 23.96875 65.921875 18.8125 64.3125 
Q 13.671875 62.703125 7.8125 59.421875 
L 7.8125 69.390625 
Q 13.765625 71.78125 18.9375 73 
Q 24.125 74.21875 28.421875 74.21875 
Q 39.75 74.21875 46.484375 68.546875 
Q 53.21875 62.890625 53.21875 53.421875 
Q 53.21875 48.921875 51.53125 44.890625 
Q 49.859375 40.875 45.40625 35.40625 
Q 44.1875 33.984375 37.640625 27.21875 
Q 31.109375 20.453125 19.1875 8.296875 
z
" id="DejaVuSans-50"/>
       </defs>
       <use xlink:href="#DejaVuSans-50"/>
      </g>
     </g>
    </g>
    <g id="xtick_3">
     <g id="line2d_5">
      <path clip-path="url(#p59da56c774)" d="M 218.221714 298.944 
L 218.221714 27.648 
" style="fill:none;stroke:#b0b0b0;stroke-linecap:square;stroke-width:0.8;"/>
     </g>
     <g id="line2d_6">
      <g>
       <use style="stroke:#000000;stroke-width:0.8;" x="218.221714" xlink:href="#m4321e1d733" y="298.944"/>
      </g>
     </g>
     <g id="text_3">
      <!-- 4 -->
      <g transform="translate(211.859214 321.140875)scale(0.2 -0.2)">
       <defs>
        <path d="M 37.796875 64.3125 
L 12.890625 25.390625 
L 37.796875 25.390625 
z
M 35.203125 72.90625 
L 47.609375 72.90625 
L 47.609375 25.390625 
L 58.015625 25.390625 
L 58.015625 17.1875 
L 47.609375 17.1875 
L 47.609375 0 
L 37.796875 0 
L 37.796875 17.1875 
L 4.890625 17.1875 
L 4.890625 26.703125 
z
" id="DejaVuSans-52"/>
       </defs>
       <use xlink:href="#DejaVuSans-52"/>
      </g>
     </g>
    </g>
    <g id="xtick_4">
     <g id="line2d_7">
      <path clip-path="url(#p59da56c774)" d="M 298.532571 298.944 
L 298.532571 27.648 
" style="fill:none;stroke:#b0b0b0;stroke-linecap:square;stroke-width:0.8;"/>
     </g>
     <g id="line2d_8">
      <g>
       <use style="stroke:#000000;stroke-width:0.8;" x="298.532571" xlink:href="#m4321e1d733" y="298.944"/>
      </g>
     </g>
     <g id="text_4">
      <!-- 6 -->
      <g transform="translate(292.170071 321.140875)scale(0.2 -0.2)">
       <defs>
        <path d="M 33.015625 40.375 
Q 26.375 40.375 22.484375 35.828125 
Q 18.609375 31.296875 18.609375 23.390625 
Q 18.609375 15.53125 22.484375 10.953125 
Q 26.375 6.390625 33.015625 6.390625 
Q 39.65625 6.390625 43.53125 10.953125 
Q 47.40625 15.53125 47.40625 23.390625 
Q 47.40625 31.296875 43.53125 35.828125 
Q 39.65625 40.375 33.015625 40.375 
z
M 52.59375 71.296875 
L 52.59375 62.3125 
Q 48.875 64.0625 45.09375 64.984375 
Q 41.3125 65.921875 37.59375 65.921875 
Q 27.828125 65.921875 22.671875 59.328125 
Q 17.53125 52.734375 16.796875 39.40625 
Q 19.671875 43.65625 24.015625 45.921875 
Q 28.375 48.1875 33.59375 48.1875 
Q 44.578125 48.1875 50.953125 41.515625 
Q 57.328125 34.859375 57.328125 23.390625 
Q 57.328125 12.15625 50.6875 5.359375 
Q 44.046875 -1.421875 33.015625 -1.421875 
Q 20.359375 -1.421875 13.671875 8.265625 
Q 6.984375 17.96875 6.984375 36.375 
Q 6.984375 53.65625 15.1875 63.9375 
Q 23.390625 74.21875 37.203125 74.21875 
Q 40.921875 74.21875 44.703125 73.484375 
Q 48.484375 72.75 52.59375 71.296875 
z
" id="DejaVuSans-54"/>
       </defs>
       <use xlink:href="#DejaVuSans-54"/>
      </g>
     </g>
    </g>
    <g id="xtick_5">
     <g id="line2d_9">
      <path clip-path="url(#p59da56c774)" d="M 97.755429 298.944 
L 97.755429 27.648 
" style="fill:none;stroke:#b0b0b0;stroke-linecap:square;stroke-width:0.8;"/>
     </g>
     <g id="line2d_10">
      <defs>
       <path d="M 0 0 
L 0 2 
" id="md5d42af749" style="stroke:#000000;stroke-width:0.6;"/>
      </defs>
      <g>
       <use style="stroke:#000000;stroke-width:0.6;" x="97.755429" xlink:href="#md5d42af749" y="298.944"/>
      </g>
     </g>
    </g>
    <g id="xtick_6">
     <g id="line2d_11">
      <path clip-path="url(#p59da56c774)" d="M 178.066286 298.944 
L 178.066286 27.648 
" style="fill:none;stroke:#b0b0b0;stroke-linecap:square;stroke-width:0.8;"/>
     </g>
     <g id="line2d_12">
      <g>
       <use style="stroke:#000000;stroke-width:0.6;" x="178.066286" xlink:href="#md5d42af749" y="298.944"/>
      </g>
     </g>
    </g>
    <g id="xtick_7">
     <g id="line2d_13">
      <path clip-path="url(#p59da56c774)" d="M 258.377143 298.944 
L 258.377143 27.648 
" style="fill:none;stroke:#b0b0b0;stroke-linecap:square;stroke-width:0.8;"/>
     </g>
     <g id="line2d_14">
      <g>
       <use style="stroke:#000000;stroke-width:0.6;" x="258.377143" xlink:href="#md5d42af749" y="298.944"/>
      </g>
     </g>
    </g>
    <g id="xtick_8">
     <g id="line2d_15">
      <path clip-path="url(#p59da56c774)" d="M 338.688 298.944 
L 338.688 27.648 
" style="fill:none;stroke:#b0b0b0;stroke-linecap:square;stroke-width:0.8;"/>
     </g>
     <g id="line2d_16">
      <g>
       <use style="stroke:#000000;stroke-width:0.6;" x="338.688" xlink:href="#md5d42af749" y="298.944"/>
      </g>
     </g>
    </g>
    <g id="text_5">
     <!-- log10(# f-evals / dimension) -->
     <g transform="translate(77.764078 342.217594)scale(0.17 -0.17)">
      <defs>
       <path d="M 9.421875 75.984375 
L 18.40625 75.984375 
L 18.40625 0 
L 9.421875 0 
z
" id="DejaVuSans-108"/>
       <path d="M 30.609375 48.390625 
Q 23.390625 48.390625 19.1875 42.75 
Q 14.984375 37.109375 14.984375 27.296875 
Q 14.984375 17.484375 19.15625 11.84375 
Q 23.34375 6.203125 30.609375 6.203125 
Q 37.796875 6.203125 41.984375 11.859375 
Q 46.1875 17.53125 46.1875 27.296875 
Q 46.1875 37.015625 41.984375 42.703125 
Q 37.796875 48.390625 30.609375 48.390625 
z
M 30.609375 56 
Q 42.328125 56 49.015625 48.375 
Q 55.71875 40.765625 55.71875 27.296875 
Q 55.71875 13.875 49.015625 6.21875 
Q 42.328125 -1.421875 30.609375 -1.421875 
Q 18.84375 -1.421875 12.171875 6.21875 
Q 5.515625 13.875 5.515625 27.296875 
Q 5.515625 40.765625 12.171875 48.375 
Q 18.84375 56 30.609375 56 
z
" id="DejaVuSans-111"/>
       <path d="M 45.40625 27.984375 
Q 45.40625 37.75 41.375 43.109375 
Q 37.359375 48.484375 30.078125 48.484375 
Q 22.859375 48.484375 18.828125 43.109375 
Q 14.796875 37.75 14.796875 27.984375 
Q 14.796875 18.265625 18.828125 12.890625 
Q 22.859375 7.515625 30.078125 7.515625 
Q 37.359375 7.515625 41.375 12.890625 
Q 45.40625 18.265625 45.40625 27.984375 
z
M 54.390625 6.78125 
Q 54.390625 -7.171875 48.1875 -13.984375 
Q 42 -20.796875 29.203125 -20.796875 
Q 24.46875 -20.796875 20.265625 -20.09375 
Q 16.0625 -19.390625 12.109375 -17.921875 
L 12.109375 -9.1875 
Q 16.0625 -11.328125 19.921875 -12.34375 
Q 23.78125 -13.375 27.78125 -13.375 
Q 36.625 -13.375 41.015625 -8.765625 
Q 45.40625 -4.15625 45.40625 5.171875 
L 45.40625 9.625 
Q 42.625 4.78125 38.28125 2.390625 
Q 33.9375 0 27.875 0 
Q 17.828125 0 11.671875 7.65625 
Q 5.515625 15.328125 5.515625 27.984375 
Q 5.515625 40.671875 11.671875 48.328125 
Q 17.828125 56 27.875 56 
Q 33.9375 56 38.28125 53.609375 
Q 42.625 51.21875 45.40625 46.390625 
L 45.40625 54.6875 
L 54.390625 54.6875 
z
" id="DejaVuSans-103"/>
       <path d="M 12.40625 8.296875 
L 28.515625 8.296875 
L 28.515625 63.921875 
L 10.984375 60.40625 
L 10.984375 69.390625 
L 28.421875 72.90625 
L 38.28125 72.90625 
L 38.28125 8.296875 
L 54.390625 8.296875 
L 54.390625 0 
L 12.40625 0 
z
" id="DejaVuSans-49"/>
       <path d="M 31 75.875 
Q 24.46875 64.65625 21.28125 53.65625 
Q 18.109375 42.671875 18.109375 31.390625 
Q 18.109375 20.125 21.3125 9.0625 
Q 24.515625 -2 31 -13.1875 
L 23.1875 -13.1875 
Q 15.875 -1.703125 12.234375 9.375 
Q 8.59375 20.453125 8.59375 31.390625 
Q 8.59375 42.28125 12.203125 53.3125 
Q 15.828125 64.359375 23.1875 75.875 
z
" id="DejaVuSans-40"/>
       <path d="M 51.125 44 
L 36.921875 44 
L 32.8125 27.6875 
L 47.125 27.6875 
z
M 43.796875 71.78125 
L 38.71875 51.515625 
L 52.984375 51.515625 
L 58.109375 71.78125 
L 65.921875 71.78125 
L 60.890625 51.515625 
L 76.125 51.515625 
L 76.125 44 
L 58.984375 44 
L 54.984375 27.6875 
L 70.515625 27.6875 
L 70.515625 20.21875 
L 53.078125 20.21875 
L 48 0 
L 40.1875 0 
L 45.21875 20.21875 
L 30.90625 20.21875 
L 25.875 0 
L 18.015625 0 
L 23.09375 20.21875 
L 7.71875 20.21875 
L 7.71875 27.6875 
L 24.90625 27.6875 
L 29 44 
L 13.28125 44 
L 13.28125 51.515625 
L 30.90625 51.515625 
L 35.890625 71.78125 
z
" id="DejaVuSans-35"/>
       <path id="DejaVuSans-32"/>
       <path d="M 37.109375 75.984375 
L 37.109375 68.5 
L 28.515625 68.5 
Q 23.6875 68.5 21.796875 66.546875 
Q 19.921875 64.59375 19.921875 59.515625 
L 19.921875 54.6875 
L 34.71875 54.6875 
L 34.71875 47.703125 
L 19.921875 47.703125 
L 19.921875 0 
L 10.890625 0 
L 10.890625 47.703125 
L 2.296875 47.703125 
L 2.296875 54.6875 
L 10.890625 54.6875 
L 10.890625 58.5 
Q 10.890625 67.625 15.140625 71.796875 
Q 19.390625 75.984375 28.609375 75.984375 
z
" id="DejaVuSans-102"/>
       <path d="M 4.890625 31.390625 
L 31.203125 31.390625 
L 31.203125 23.390625 
L 4.890625 23.390625 
z
" id="DejaVuSans-45"/>
       <path d="M 56.203125 29.59375 
L 56.203125 25.203125 
L 14.890625 25.203125 
Q 15.484375 15.921875 20.484375 11.0625 
Q 25.484375 6.203125 34.421875 6.203125 
Q 39.59375 6.203125 44.453125 7.46875 
Q 49.3125 8.734375 54.109375 11.28125 
L 54.109375 2.78125 
Q 49.265625 0.734375 44.1875 -0.34375 
Q 39.109375 -1.421875 33.890625 -1.421875 
Q 20.796875 -1.421875 13.15625 6.1875 
Q 5.515625 13.8125 5.515625 26.8125 
Q 5.515625 40.234375 12.765625 48.109375 
Q 20.015625 56 32.328125 56 
Q 43.359375 56 49.78125 48.890625 
Q 56.203125 41.796875 56.203125 29.59375 
z
M 47.21875 32.234375 
Q 47.125 39.59375 43.09375 43.984375 
Q 39.0625 48.390625 32.421875 48.390625 
Q 24.90625 48.390625 20.390625 44.140625 
Q 15.875 39.890625 15.1875 32.171875 
z
" id="DejaVuSans-101"/>
       <path d="M 2.984375 54.6875 
L 12.5 54.6875 
L 29.59375 8.796875 
L 46.6875 54.6875 
L 56.203125 54.6875 
L 35.6875 0 
L 23.484375 0 
z
" id="DejaVuSans-118"/>
       <path d="M 34.28125 27.484375 
Q 23.390625 27.484375 19.1875 25 
Q 14.984375 22.515625 14.984375 16.5 
Q 14.984375 11.71875 18.140625 8.90625 
Q 21.296875 6.109375 26.703125 6.109375 
Q 34.1875 6.109375 38.703125 11.40625 
Q 43.21875 16.703125 43.21875 25.484375 
L 43.21875 27.484375 
z
M 52.203125 31.203125 
L 52.203125 0 
L 43.21875 0 
L 43.21875 8.296875 
Q 40.140625 3.328125 35.546875 0.953125 
Q 30.953125 -1.421875 24.3125 -1.421875 
Q 15.921875 -1.421875 10.953125 3.296875 
Q 6 8.015625 6 15.921875 
Q 6 25.140625 12.171875 29.828125 
Q 18.359375 34.515625 30.609375 34.515625 
L 43.21875 34.515625 
L 43.21875 35.40625 
Q 43.21875 41.609375 39.140625 45 
Q 35.0625 48.390625 27.6875 48.390625 
Q 23 48.390625 18.546875 47.265625 
Q 14.109375 46.140625 10.015625 43.890625 
L 10.015625 52.203125 
Q 14.9375 54.109375 19.578125 55.046875 
Q 24.21875 56 28.609375 56 
Q 40.484375 56 46.34375 49.84375 
Q 52.203125 43.703125 52.203125 31.203125 
z
" id="DejaVuSans-97"/>
       <path d="M 44.28125 53.078125 
L 44.28125 44.578125 
Q 40.484375 46.53125 36.375 47.5 
Q 32.28125 48.484375 27.875 48.484375 
Q 21.1875 48.484375 17.84375 46.4375 
Q 14.5 44.390625 14.5 40.28125 
Q 14.5 37.15625 16.890625 35.375 
Q 19.28125 33.59375 26.515625 31.984375 
L 29.59375 31.296875 
Q 39.15625 29.25 43.1875 25.515625 
Q 47.21875 21.78125 47.21875 15.09375 
Q 47.21875 7.46875 41.1875 3.015625 
Q 35.15625 -1.421875 24.609375 -1.421875 
Q 20.21875 -1.421875 15.453125 -0.5625 
Q 10.6875 0.296875 5.421875 2 
L 5.421875 11.28125 
Q 10.40625 8.6875 15.234375 7.390625 
Q 20.0625 6.109375 24.8125 6.109375 
Q 31.15625 6.109375 34.5625 8.28125 
Q 37.984375 10.453125 37.984375 14.40625 
Q 37.984375 18.0625 35.515625 20.015625 
Q 33.0625 21.96875 24.703125 23.78125 
L 21.578125 24.515625 
Q 13.234375 26.265625 9.515625 29.90625 
Q 5.8125 33.546875 5.8125 39.890625 
Q 5.8125 47.609375 11.28125 51.796875 
Q 16.75 56 26.8125 56 
Q 31.78125 56 36.171875 55.265625 
Q 40.578125 54.546875 44.28125 53.078125 
z
" id="DejaVuSans-115"/>
       <path d="M 25.390625 72.90625 
L 33.6875 72.90625 
L 8.296875 -9.28125 
L 0 -9.28125 
z
" id="DejaVuSans-47"/>
       <path d="M 45.40625 46.390625 
L 45.40625 75.984375 
L 54.390625 75.984375 
L 54.390625 0 
L 45.40625 0 
L 45.40625 8.203125 
Q 42.578125 3.328125 38.25 0.953125 
Q 33.9375 -1.421875 27.875 -1.421875 
Q 17.96875 -1.421875 11.734375 6.484375 
Q 5.515625 14.40625 5.515625 27.296875 
Q 5.515625 40.1875 11.734375 48.09375 
Q 17.96875 56 27.875 56 
Q 33.9375 56 38.25 53.625 
Q 42.578125 51.265625 45.40625 46.390625 
z
M 14.796875 27.296875 
Q 14.796875 17.390625 18.875 11.75 
Q 22.953125 6.109375 30.078125 6.109375 
Q 37.203125 6.109375 41.296875 11.75 
Q 45.40625 17.390625 45.40625 27.296875 
Q 45.40625 37.203125 41.296875 42.84375 
Q 37.203125 48.484375 30.078125 48.484375 
Q 22.953125 48.484375 18.875 42.84375 
Q 14.796875 37.203125 14.796875 27.296875 
z
" id="DejaVuSans-100"/>
       <path d="M 9.421875 54.6875 
L 18.40625 54.6875 
L 18.40625 0 
L 9.421875 0 
z
M 9.421875 75.984375 
L 18.40625 75.984375 
L 18.40625 64.59375 
L 9.421875 64.59375 
z
" id="DejaVuSans-105"/>
       <path d="M 52 44.1875 
Q 55.375 50.25 60.0625 53.125 
Q 64.75 56 71.09375 56 
Q 79.640625 56 84.28125 50.015625 
Q 88.921875 44.046875 88.921875 33.015625 
L 88.921875 0 
L 79.890625 0 
L 79.890625 32.71875 
Q 79.890625 40.578125 77.09375 44.375 
Q 74.3125 48.1875 68.609375 48.1875 
Q 61.625 48.1875 57.5625 43.546875 
Q 53.515625 38.921875 53.515625 30.90625 
L 53.515625 0 
L 44.484375 0 
L 44.484375 32.71875 
Q 44.484375 40.625 41.703125 44.40625 
Q 38.921875 48.1875 33.109375 48.1875 
Q 26.21875 48.1875 22.15625 43.53125 
Q 18.109375 38.875 18.109375 30.90625 
L 18.109375 0 
L 9.078125 0 
L 9.078125 54.6875 
L 18.109375 54.6875 
L 18.109375 46.1875 
Q 21.1875 51.21875 25.484375 53.609375 
Q 29.78125 56 35.6875 56 
Q 41.65625 56 45.828125 52.96875 
Q 50 49.953125 52 44.1875 
z
" id="DejaVuSans-109"/>
       <path d="M 54.890625 33.015625 
L 54.890625 0 
L 45.90625 0 
L 45.90625 32.71875 
Q 45.90625 40.484375 42.875 44.328125 
Q 39.84375 48.1875 33.796875 48.1875 
Q 26.515625 48.1875 22.3125 43.546875 
Q 18.109375 38.921875 18.109375 30.90625 
L 18.109375 0 
L 9.078125 0 
L 9.078125 54.6875 
L 18.109375 54.6875 
L 18.109375 46.1875 
Q 21.34375 51.125 25.703125 53.5625 
Q 30.078125 56 35.796875 56 
Q 45.21875 56 50.046875 50.171875 
Q 54.890625 44.34375 54.890625 33.015625 
z
" id="DejaVuSans-110"/>
       <path d="M 8.015625 75.875 
L 15.828125 75.875 
Q 23.140625 64.359375 26.78125 53.3125 
Q 30.421875 42.28125 30.421875 31.390625 
Q 30.421875 20.453125 26.78125 9.375 
Q 23.140625 -1.703125 15.828125 -13.1875 
L 8.015625 -13.1875 
Q 14.5 -2 17.703125 9.0625 
Q 20.90625 20.125 20.90625 31.390625 
Q 20.90625 42.671875 17.703125 53.65625 
Q 14.5 64.65625 8.015625 75.875 
z
" id="DejaVuSans-41"/>
      </defs>
      <use xlink:href="#DejaVuSans-108"/>
      <use x="27.783203" xlink:href="#DejaVuSans-111"/>
      <use x="88.964844" xlink:href="#DejaVuSans-103"/>
      <use x="152.441406" xlink:href="#DejaVuSans-49"/>
      <use x="216.064453" xlink:href="#DejaVuSans-48"/>
      <use x="279.6875" xlink:href="#DejaVuSans-40"/>
      <use x="318.701172" xlink:href="#DejaVuSans-35"/>
      <use x="402.490234" xlink:href="#DejaVuSans-32"/>
      <use x="434.277344" xlink:href="#DejaVuSans-102"/>
      <use x="463.982422" xlink:href="#DejaVuSans-45"/>
      <use x="500.066406" xlink:href="#DejaVuSans-101"/>
      <use x="561.589844" xlink:href="#DejaVuSans-118"/>
      <use x="620.769531" xlink:href="#DejaVuSans-97"/>
      <use x="682.048828" xlink:href="#DejaVuSans-108"/>
      <use x="709.832031" xlink:href="#DejaVuSans-115"/>
      <use x="761.931641" xlink:href="#DejaVuSans-32"/>
      <use x="793.71875" xlink:href="#DejaVuSans-47"/>
      <use x="827.410156" xlink:href="#DejaVuSans-32"/>
      <use x="859.197266" xlink:href="#DejaVuSans-100"/>
      <use x="922.673828" xlink:href="#DejaVuSans-105"/>
      <use x="950.457031" xlink:href="#DejaVuSans-109"/>
      <use x="1047.869141" xlink:href="#DejaVuSans-101"/>
      <use x="1109.392578" xlink:href="#DejaVuSans-110"/>
      <use x="1172.771484" xlink:href="#DejaVuSans-115"/>
      <use x="1224.871094" xlink:href="#DejaVuSans-105"/>
      <use x="1252.654297" xlink:href="#DejaVuSans-111"/>
      <use x="1313.835938" xlink:href="#DejaVuSans-110"/>
      <use x="1377.214844" xlink:href="#DejaVuSans-41"/>
     </g>
    </g>
   </g>
   <g id="matplotlib.axis_2">
    <g id="ytick_1">
     <g id="line2d_17">
      <path clip-path="url(#p59da56c774)" d="M 57.6 298.944 
L 338.688 298.944 
" style="fill:none;stroke:#b0b0b0;stroke-linecap:square;stroke-width:0.8;"/>
     </g>
     <g id="line2d_18">
      <defs>
       <path d="M 0 0 
L -3.5 0 
" id="mb15560a2f6" style="stroke:#000000;stroke-width:0.8;"/>
      </defs>
      <g>
       <use style="stroke:#000000;stroke-width:0.8;" x="57.6" xlink:href="#mb15560a2f6" y="298.944"/>
      </g>
     </g>
     <g id="text_6">
      <!-- 0.0 -->
      <g transform="translate(25.155 305.02275)scale(0.16 -0.16)">
       <defs>
        <path d="M 10.6875 12.40625 
L 21 12.40625 
L 21 0 
L 10.6875 0 
z
" id="DejaVuSans-46"/>
       </defs>
       <use xlink:href="#DejaVuSans-48"/>
       <use x="63.623047" xlink:href="#DejaVuSans-46"/>
       <use x="95.410156" xlink:href="#DejaVuSans-48"/>
      </g>
     </g>
    </g>
    <g id="ytick_2">
     <g id="line2d_19">
      <path clip-path="url(#p59da56c774)" d="M 57.6 245.22202 
L 338.688 245.22202 
" style="fill:none;stroke:#b0b0b0;stroke-linecap:square;stroke-width:0.8;"/>
     </g>
     <g id="line2d_20">
      <g>
       <use style="stroke:#000000;stroke-width:0.8;" x="57.6" xlink:href="#mb15560a2f6" y="245.22202"/>
      </g>
     </g>
     <g id="text_7">
      <!-- 0.2 -->
      <g transform="translate(25.155 251.30077)scale(0.16 -0.16)">
       <use xlink:href="#DejaVuSans-48"/>
       <use x="63.623047" xlink:href="#DejaVuSans-46"/>
       <use x="95.410156" xlink:href="#DejaVuSans-50"/>
      </g>
     </g>
    </g>
    <g id="ytick_3">
     <g id="line2d_21">
      <path clip-path="url(#p59da56c774)" d="M 57.6 191.50004 
L 338.688 191.50004 
" style="fill:none;stroke:#b0b0b0;stroke-linecap:square;stroke-width:0.8;"/>
     </g>
     <g id="line2d_22">
      <g>
       <use style="stroke:#000000;stroke-width:0.8;" x="57.6" xlink:href="#mb15560a2f6" y="191.50004"/>
      </g>
     </g>
     <g id="text_8">
      <!-- 0.4 -->
      <g transform="translate(25.155 197.57879)scale(0.16 -0.16)">
       <use xlink:href="#DejaVuSans-48"/>
       <use x="63.623047" xlink:href="#DejaVuSans-46"/>
       <use x="95.410156" xlink:href="#DejaVuSans-52"/>
      </g>
     </g>
    </g>
    <g id="ytick_4">
     <g id="line2d_23">
      <path clip-path="url(#p59da56c774)" d="M 57.6 137.778059 
L 338.688 137.778059 
" style="fill:none;stroke:#b0b0b0;stroke-linecap:square;stroke-width:0.8;"/>
     </g>
     <g id="line2d_24">
      <g>
       <use style="stroke:#000000;stroke-width:0.8;" x="57.6" xlink:href="#mb15560a2f6" y="137.778059"/>
      </g>
     </g>
     <g id="text_9">
      <!-- 0.6 -->
      <g transform="translate(25.155 143.856809)scale(0.16 -0.16)">
       <use xlink:href="#DejaVuSans-48"/>
       <use x="63.623047" xlink:href="#DejaVuSans-46"/>
       <use x="95.410156" xlink:href="#DejaVuSans-54"/>
      </g>
     </g>
    </g>
    <g id="ytick_5">
     <g id="line2d_25">
      <path clip-path="url(#p59da56c774)" d="M 57.6 84.056079 
L 338.688 84.056079 
" style="fill:none;stroke:#b0b0b0;stroke-linecap:square;stroke-width:0.8;"/>
     </g>
     <g id="line2d_26">
      <g>
       <use style="stroke:#000000;stroke-width:0.8;" x="57.6" xlink:href="#mb15560a2f6" y="84.056079"/>
      </g>
     </g>
     <g id="text_10">
      <!-- 0.8 -->
      <g transform="translate(25.155 90.134829)scale(0.16 -0.16)">
       <defs>
        <path d="M 31.78125 34.625 
Q 24.75 34.625 20.71875 30.859375 
Q 16.703125 27.09375 16.703125 20.515625 
Q 16.703125 13.921875 20.71875 10.15625 
Q 24.75 6.390625 31.78125 6.390625 
Q 38.8125 6.390625 42.859375 10.171875 
Q 46.921875 13.96875 46.921875 20.515625 
Q 46.921875 27.09375 42.890625 30.859375 
Q 38.875 34.625 31.78125 34.625 
z
M 21.921875 38.8125 
Q 15.578125 40.375 12.03125 44.71875 
Q 8.5 49.078125 8.5 55.328125 
Q 8.5 64.0625 14.71875 69.140625 
Q 20.953125 74.21875 31.78125 74.21875 
Q 42.671875 74.21875 48.875 69.140625 
Q 55.078125 64.0625 55.078125 55.328125 
Q 55.078125 49.078125 51.53125 44.71875 
Q 48 40.375 41.703125 38.8125 
Q 48.828125 37.15625 52.796875 32.3125 
Q 56.78125 27.484375 56.78125 20.515625 
Q 56.78125 9.90625 50.3125 4.234375 
Q 43.84375 -1.421875 31.78125 -1.421875 
Q 19.734375 -1.421875 13.25 4.234375 
Q 6.78125 9.90625 6.78125 20.515625 
Q 6.78125 27.484375 10.78125 32.3125 
Q 14.796875 37.15625 21.921875 38.8125 
z
M 18.3125 54.390625 
Q 18.3125 48.734375 21.84375 45.5625 
Q 25.390625 42.390625 31.78125 42.390625 
Q 38.140625 42.390625 41.71875 45.5625 
Q 45.3125 48.734375 45.3125 54.390625 
Q 45.3125 60.0625 41.71875 63.234375 
Q 38.140625 66.40625 31.78125 66.40625 
Q 25.390625 66.40625 21.84375 63.234375 
Q 18.3125 60.0625 18.3125 54.390625 
z
" id="DejaVuSans-56"/>
       </defs>
       <use xlink:href="#DejaVuSans-48"/>
       <use x="63.623047" xlink:href="#DejaVuSans-46"/>
       <use x="95.410156" xlink:href="#DejaVuSans-56"/>
      </g>
     </g>
    </g>
    <g id="ytick_6">
     <g id="line2d_27">
      <path clip-path="url(#p59da56c774)" d="M 57.6 30.334099 
L 338.688 30.334099 
" style="fill:none;stroke:#b0b0b0;stroke-linecap:square;stroke-width:0.8;"/>
     </g>
     <g id="line2d_28">
      <g>
       <use style="stroke:#000000;stroke-width:0.8;" x="57.6" xlink:href="#mb15560a2f6" y="30.334099"/>
      </g>
     </g>
     <g id="text_11">
      <!-- 1.0 -->
      <g transform="translate(25.155 36.412849)scale(0.16 -0.16)">
       <use xlink:href="#DejaVuSans-49"/>
       <use x="63.623047" xlink:href="#DejaVuSans-46"/>
       <use x="95.410156" xlink:href="#DejaVuSans-48"/>
      </g>
     </g>
    </g>
    <g id="text_12">
     <!-- Fraction of function,target pairs -->
     <g transform="translate(17.619531 297.681)rotate(-90)scale(0.17 -0.17)">
      <defs>
       <path d="M 9.8125 72.90625 
L 51.703125 72.90625 
L 51.703125 64.59375 
L 19.671875 64.59375 
L 19.671875 43.109375 
L 48.578125 43.109375 
L 48.578125 34.8125 
L 19.671875 34.8125 
L 19.671875 0 
L 9.8125 0 
z
" id="DejaVuSans-70"/>
       <path d="M 41.109375 46.296875 
Q 39.59375 47.171875 37.8125 47.578125 
Q 36.03125 48 33.890625 48 
Q 26.265625 48 22.1875 43.046875 
Q 18.109375 38.09375 18.109375 28.8125 
L 18.109375 0 
L 9.078125 0 
L 9.078125 54.6875 
L 18.109375 54.6875 
L 18.109375 46.1875 
Q 20.953125 51.171875 25.484375 53.578125 
Q 30.03125 56 36.53125 56 
Q 37.453125 56 38.578125 55.875 
Q 39.703125 55.765625 41.0625 55.515625 
z
" id="DejaVuSans-114"/>
       <path d="M 48.78125 52.59375 
L 48.78125 44.1875 
Q 44.96875 46.296875 41.140625 47.34375 
Q 37.3125 48.390625 33.40625 48.390625 
Q 24.65625 48.390625 19.8125 42.84375 
Q 14.984375 37.3125 14.984375 27.296875 
Q 14.984375 17.28125 19.8125 11.734375 
Q 24.65625 6.203125 33.40625 6.203125 
Q 37.3125 6.203125 41.140625 7.25 
Q 44.96875 8.296875 48.78125 10.40625 
L 48.78125 2.09375 
Q 45.015625 0.34375 40.984375 -0.53125 
Q 36.96875 -1.421875 32.421875 -1.421875 
Q 20.0625 -1.421875 12.78125 6.34375 
Q 5.515625 14.109375 5.515625 27.296875 
Q 5.515625 40.671875 12.859375 48.328125 
Q 20.21875 56 33.015625 56 
Q 37.15625 56 41.109375 55.140625 
Q 45.0625 54.296875 48.78125 52.59375 
z
" id="DejaVuSans-99"/>
       <path d="M 18.3125 70.21875 
L 18.3125 54.6875 
L 36.8125 54.6875 
L 36.8125 47.703125 
L 18.3125 47.703125 
L 18.3125 18.015625 
Q 18.3125 11.328125 20.140625 9.421875 
Q 21.96875 7.515625 27.59375 7.515625 
L 36.8125 7.515625 
L 36.8125 0 
L 27.59375 0 
Q 17.1875 0 13.234375 3.875 
Q 9.28125 7.765625 9.28125 18.015625 
L 9.28125 47.703125 
L 2.6875 47.703125 
L 2.6875 54.6875 
L 9.28125 54.6875 
L 9.28125 70.21875 
z
" id="DejaVuSans-116"/>
       <path d="M 8.5 21.578125 
L 8.5 54.6875 
L 17.484375 54.6875 
L 17.484375 21.921875 
Q 17.484375 14.15625 20.5 10.265625 
Q 23.53125 6.390625 29.59375 6.390625 
Q 36.859375 6.390625 41.078125 11.03125 
Q 45.3125 15.671875 45.3125 23.6875 
L 45.3125 54.6875 
L 54.296875 54.6875 
L 54.296875 0 
L 45.3125 0 
L 45.3125 8.40625 
Q 42.046875 3.421875 37.71875 1 
Q 33.40625 -1.421875 27.6875 -1.421875 
Q 18.265625 -1.421875 13.375 4.4375 
Q 8.5 10.296875 8.5 21.578125 
z
M 31.109375 56 
z
" id="DejaVuSans-117"/>
       <path d="M 11.71875 12.40625 
L 22.015625 12.40625 
L 22.015625 4 
L 14.015625 -11.625 
L 7.71875 -11.625 
L 11.71875 4 
z
" id="DejaVuSans-44"/>
       <path d="M 18.109375 8.203125 
L 18.109375 -20.796875 
L 9.078125 -20.796875 
L 9.078125 54.6875 
L 18.109375 54.6875 
L 18.109375 46.390625 
Q 20.953125 51.265625 25.265625 53.625 
Q 29.59375 56 35.59375 56 
Q 45.5625 56 51.78125 48.09375 
Q 58.015625 40.1875 58.015625 27.296875 
Q 58.015625 14.40625 51.78125 6.484375 
Q 45.5625 -1.421875 35.59375 -1.421875 
Q 29.59375 -1.421875 25.265625 0.953125 
Q 20.953125 3.328125 18.109375 8.203125 
z
M 48.6875 27.296875 
Q 48.6875 37.203125 44.609375 42.84375 
Q 40.53125 48.484375 33.40625 48.484375 
Q 26.265625 48.484375 22.1875 42.84375 
Q 18.109375 37.203125 18.109375 27.296875 
Q 18.109375 17.390625 22.1875 11.75 
Q 26.265625 6.109375 33.40625 6.109375 
Q 40.53125 6.109375 44.609375 11.75 
Q 48.6875 17.390625 48.6875 27.296875 
z
" id="DejaVuSans-112"/>
      </defs>
      <use xlink:href="#DejaVuSans-70"/>
      <use x="50.269531" xlink:href="#DejaVuSans-114"/>
      <use x="91.382812" xlink:href="#DejaVuSans-97"/>
      <use x="152.662109" xlink:href="#DejaVuSans-99"/>
      <use x="207.642578" xlink:href="#DejaVuSans-116"/>
      <use x="246.851562" xlink:href="#DejaVuSans-105"/>
      <use x="274.634766" xlink:href="#DejaVuSans-111"/>
      <use x="335.816406" xlink:href="#DejaVuSans-110"/>
      <use x="399.195312" xlink:href="#DejaVuSans-32"/>
      <use x="430.982422" xlink:href="#DejaVuSans-111"/>
      <use x="492.164062" xlink:href="#DejaVuSans-102"/>
      <use x="527.369141" xlink:href="#DejaVuSans-32"/>
      <use x="559.15625" xlink:href="#DejaVuSans-102"/>
      <use x="594.361328" xlink:href="#DejaVuSans-117"/>
      <use x="657.740234" xlink:href="#DejaVuSans-110"/>
      <use x="721.119141" xlink:href="#DejaVuSans-99"/>
      <use x="776.099609" xlink:href="#DejaVuSans-116"/>
      <use x="815.308594" xlink:href="#DejaVuSans-105"/>
      <use x="843.091797" xlink:href="#DejaVuSans-111"/>
      <use x="904.273438" xlink:href="#DejaVuSans-110"/>
      <use x="967.652344" xlink:href="#DejaVuSans-44"/>
      <use x="999.439453" xlink:href="#DejaVuSans-116"/>
      <use x="1038.648438" xlink:href="#DejaVuSans-97"/>
      <use x="1099.927734" xlink:href="#DejaVuSans-114"/>
      <use x="1139.291016" xlink:href="#DejaVuSans-103"/>
      <use x="1202.767578" xlink:href="#DejaVuSans-101"/>
      <use x="1264.291016" xlink:href="#DejaVuSans-116"/>
      <use x="1303.5" xlink:href="#DejaVuSans-32"/>
      <use x="1335.287109" xlink:href="#DejaVuSans-112"/>
      <use x="1398.763672" xlink:href="#DejaVuSans-97"/>
      <use x="1460.042969" xlink:href="#DejaVuSans-105"/>
      <use x="1487.826172" xlink:href="#DejaVuSans-114"/>
      <use x="1528.939453" xlink:href="#DejaVuSans-115"/>
     </g>
    </g>
   </g>
   <g id="line2d_29">
    <defs>
     <path d="M 0 1.5 
C 0.397805 1.5 0.77937 1.341951 1.06066 1.06066 
C 1.341951 0.77937 1.5 0.397805 1.5 0 
C 1.5 -0.397805 1.341951 -0.77937 1.06066 -1.06066 
C 0.77937 -1.341951 0.397805 -1.5 0 -1.5 
C -0.397805 -1.5 -0.77937 -1.341951 -1.06066 -1.06066 
C -1.341951 -0.77937 -1.5 -0.397805 -1.5 0 
C -1.5 0.397805 -1.341951 0.77937 -1.06066 1.06066 
C -0.77937 1.341951 -0.397805 1.5 0 1.5 
z
" id="m4c33e65667" style="stroke:#00bfbf;"/>
    </defs>
    <g>
     <use style="fill:#00bfbf;stroke:#00bfbf;" x="137.997836" xlink:href="#m4c33e65667" y="30.334099"/>
     <use style="fill:#00bfbf;stroke:#00bfbf;" x="137.997836" xlink:href="#m4c33e65667" y="30.334099"/>
    </g>
   </g>
   <g id="line2d_30">
    <path d="M 45.512012 298.944 
L 45.512012 266.289463 
L 83.830028 266.289463 
L 83.830028 265.762777 
L 98.606294 265.762777 
L 98.606294 265.236091 
L 100.192776 265.236091 
L 100.192776 264.709405 
L 101.646892 264.709405 
L 101.646892 264.182719 
L 103.623262 264.182719 
L 103.623262 263.656033 
L 104.23523 263.656033 
L 104.23523 262.075974 
L 104.826449 262.075974 
L 104.826449 261.022602 
L 105.398279 261.022602 
L 105.398279 257.3358 
L 105.951954 257.3358 
L 105.951954 255.755741 
L 106.48859 255.755741 
L 106.48859 252.595625 
L 107.009204 252.595625 
L 107.009204 249.962195 
L 107.514726 249.962195 
L 107.514726 247.328764 
L 108.006005 247.328764 
L 108.006005 245.22202 
L 108.483824 245.22202 
L 108.483824 241.535217 
L 114.418861 241.535217 
L 114.418861 241.008531 
L 116.323218 241.008531 
L 116.323218 240.481845 
L 116.621333 240.481845 
L 116.621333 239.955159 
L 117.202696 239.955159 
L 117.202696 239.428473 
L 117.486268 239.428473 
L 117.486268 238.901787 
L 118.310324 238.901787 
L 118.310324 237.848415 
L 118.576578 237.848415 
L 118.576578 237.321729 
L 119.097192 237.321729 
L 119.097192 236.268356 
L 119.351785 236.268356 
L 119.351785 235.214984 
L 119.602714 235.214984 
L 119.602714 234.161612 
L 119.850084 234.161612 
L 119.850084 230.47481 
L 120.093994 230.47481 
L 120.093994 229.948123 
L 120.33454 229.948123 
L 120.33454 228.368065 
L 120.571812 228.368065 
L 120.571812 227.314693 
L 120.8059 227.314693 
L 120.8059 226.788007 
L 121.036887 226.788007 
L 121.036887 224.154577 
L 121.264855 224.154577 
L 121.264855 223.101204 
L 121.489881 223.101204 
L 121.489881 222.047832 
L 121.712041 222.047832 
L 121.712041 219.941088 
L 121.931406 219.941088 
L 121.931406 215.727599 
L 122.148045 215.727599 
L 122.148045 214.147541 
L 122.362027 214.147541 
L 122.362027 210.987425 
L 122.573415 210.987425 
L 122.573415 209.407366 
L 122.782271 209.407366 
L 122.782271 207.300622 
L 122.988655 207.300622 
L 122.988655 206.773936 
L 123.192626 206.773936 
L 123.192626 205.720564 
L 123.593547 205.720564 
L 123.593547 201.507075 
L 123.790603 201.507075 
L 123.790603 200.980389 
L 123.985457 200.980389 
L 123.985457 199.400331 
L 124.178158 199.400331 
L 124.178158 196.7669 
L 124.368753 196.7669 
L 124.368753 194.660156 
L 124.557288 194.660156 
L 124.557288 192.553412 
L 124.743806 192.553412 
L 124.743806 192.026726 
L 124.92835 192.026726 
L 124.92835 190.973354 
L 125.110962 190.973354 
L 125.110962 188.866609 
L 125.291682 188.866609 
L 125.291682 185.179807 
L 125.470548 185.179807 
L 125.470548 182.01969 
L 125.647598 182.01969 
L 125.647598 177.806202 
L 125.822869 177.806202 
L 125.822869 177.279515 
L 126.168212 177.279515 
L 126.168212 176.226143 
L 126.338353 176.226143 
L 126.338353 174.119399 
L 126.50685 174.119399 
L 126.50685 172.012655 
L 126.673734 172.012655 
L 126.673734 167.27248 
L 127.002787 167.27248 
L 127.002787 165.165736 
L 127.165014 165.165736 
L 127.165014 164.63905 
L 127.325746 164.63905 
L 127.325746 163.585677 
L 127.48501 163.585677 
L 127.48501 162.005619 
L 127.642832 162.005619 
L 127.642832 159.372189 
L 127.799239 159.372189 
L 127.799239 157.265444 
L 127.954256 157.265444 
L 127.954256 154.105328 
L 128.260216 154.105328 
L 128.260216 152.52527 
L 128.411207 152.52527 
L 128.411207 150.945211 
L 128.560901 150.945211 
L 128.560901 146.731723 
L 128.709321 146.731723 
L 128.709321 146.205037 
L 128.856489 146.205037 
L 128.856489 144.098292 
L 129.002426 144.098292 
L 129.002426 141.991548 
L 129.147151 141.991548 
L 129.147151 139.884804 
L 129.290685 139.884804 
L 129.290685 136.198001 
L 129.433047 136.198001 
L 129.433047 135.144629 
L 129.574256 135.144629 
L 129.574256 133.037885 
L 129.714332 133.037885 
L 129.714332 129.351082 
L 129.853291 129.351082 
L 129.853291 127.771024 
L 129.991152 127.771024 
L 129.991152 125.137593 
L 130.127931 125.137593 
L 130.127931 123.030849 
L 130.398313 123.030849 
L 130.398313 116.710616 
L 130.531948 116.710616 
L 130.531948 114.077186 
L 130.664567 114.077186 
L 130.664567 111.443755 
L 130.796184 111.443755 
L 130.796184 110.390383 
L 130.926816 110.390383 
L 130.926816 109.863697 
L 131.056477 109.863697 
L 131.056477 106.176895 
L 131.312942 106.176895 
L 131.312942 102.490092 
L 131.439773 102.490092 
L 131.439773 101.43672 
L 131.565689 101.43672 
L 131.565689 99.856662 
L 131.690703 99.856662 
L 131.690703 98.276603 
L 131.814826 98.276603 
L 131.814826 94.589801 
L 131.938072 94.589801 
L 131.938072 92.483056 
L 132.060454 92.483056 
L 132.060454 90.902998 
L 132.181982 90.902998 
L 132.181982 88.796254 
L 132.30267 88.796254 
L 132.30267 86.68951 
L 132.422528 86.68951 
L 132.422528 84.582765 
L 132.541568 84.582765 
L 132.541568 83.002707 
L 132.659801 83.002707 
L 132.659801 82.476021 
L 132.777237 82.476021 
L 132.777237 79.315904 
L 132.893889 79.315904 
L 132.893889 74.57573 
L 133.009765 74.57573 
L 133.009765 73.522358 
L 133.239232 73.522358 
L 133.239232 71.415613 
L 133.352844 71.415613 
L 133.352844 66.675439 
L 133.46572 66.675439 
L 133.46572 63.515322 
L 133.57787 63.515322 
L 133.57787 62.46195 
L 133.689303 62.46195 
L 133.800029 60.881892 
L 133.910056 60.881892 
L 134.019394 54.561659 
L 134.12805 54.561659 
L 134.12805 53.508287 
L 134.343353 53.508287 
L 134.343353 52.9816 
L 134.55603 52.9816 
L 134.55603 51.928228 
L 134.766144 51.928228 
L 134.870259 47.71474 
L 134.973757 47.71474 
L 135.076644 45.081309 
L 135.178927 45.081309 
L 135.178927 43.501251 
L 135.381712 43.501251 
L 135.381712 42.447879 
L 135.780341 42.447879 
L 135.878591 40.867821 
L 136.170062 40.867821 
L 136.266147 38.23439 
L 136.361705 38.23439 
L 136.361705 37.707704 
L 136.551264 37.707704 
L 136.645276 36.654332 
L 136.738785 36.654332 
L 136.738785 35.074274 
L 137.016339 35.074274 
L 137.016339 34.020902 
L 137.198951 34.020902 
L 137.289545 32.440843 
L 137.37967 32.440843 
L 137.37967 31.914157 
L 137.735587 31.914157 
L 137.735587 30.860785 
L 137.997836 30.860785 
L 137.997836 30.334099 
L 338.688 30.334099 
L 338.688 30.334099 
" style="fill:none;stroke:#00bfbf;stroke-linecap:square;stroke-width:1.5;"/>
   </g>
   <g id="line2d_31">
    <defs>
     <path d="M -6 0 
L 6 0 
M 0 6 
L 0 -6 
" id="m967c1c16b8" style="stroke:#00bfbf;stroke-width:1.5;"/>
    </defs>
    <g>
     <use style="fill-opacity:0;stroke:#00bfbf;stroke-width:1.5;" x="108.483824" xlink:href="#m967c1c16b8" y="241.535217"/>
     <use style="fill-opacity:0;stroke:#00bfbf;stroke-width:1.5;" x="129.714332" xlink:href="#m967c1c16b8" y="129.351082"/>
     <use style="fill-opacity:0;stroke:#00bfbf;stroke-width:1.5;" x="137.997836" xlink:href="#m967c1c16b8" y="30.860785"/>
     <use style="fill-opacity:0;stroke:#00bfbf;stroke-width:1.5;" x="137.997836" xlink:href="#m967c1c16b8" y="30.334099"/>
     <use style="fill-opacity:0;stroke:#00bfbf;stroke-width:1.5;" x="137.997836" xlink:href="#m967c1c16b8" y="30.334099"/>
     <use style="fill-opacity:0;stroke:#00bfbf;stroke-width:1.5;" x="338.688" xlink:href="#m967c1c16b8" y="30.334099"/>
    </g>
   </g>
   <g id="line2d_32">
    <path style="fill:none;stroke:#00bfbf;stroke-linecap:square;stroke-width:1.5;"/>
    <g/>
   </g>
   <g id="line2d_33">
    <defs>
     <path d="M 0 1.5 
C 0.397805 1.5 0.77937 1.341951 1.06066 1.06066 
C 1.341951 0.77937 1.5 0.397805 1.5 0 
C 1.5 -0.397805 1.341951 -0.77937 1.06066 -1.06066 
C 0.77937 -1.341951 0.397805 -1.5 0 -1.5 
C -0.397805 -1.5 -0.77937 -1.341951 -1.06066 -1.06066 
C -1.341951 -0.77937 -1.5 -0.397805 -1.5 0 
C -1.5 0.397805 -1.341951 0.77937 -1.06066 1.06066 
C -0.77937 1.341951 -0.397805 1.5 0 1.5 
z
" id="mb349f1a43c" style="stroke:#008000;"/>
    </defs>
    <g>
     <use style="fill:#008000;stroke:#008000;" x="159.857512" xlink:href="#mb349f1a43c" y="30.334099"/>
     <use style="fill:#008000;stroke:#008000;" x="159.857512" xlink:href="#mb349f1a43c" y="30.334099"/>
    </g>
   </g>
   <g id="line2d_34">
    <path d="M 38.440992 298.944 
L 38.440992 271.556324 
L 93.863965 271.556324 
L 93.863965 271.029638 
L 99.938184 271.029638 
L 99.938184 270.502952 
L 100.934985 270.502952 
L 100.934985 269.976266 
L 101.877879 269.976266 
L 101.877879 267.869521 
L 102.330873 267.869521 
L 102.330873 267.342835 
L 102.772397 267.342835 
L 102.772397 266.289463 
L 103.203018 266.289463 
L 103.203018 265.236091 
L 103.623262 265.236091 
L 103.623262 263.656033 
L 104.033617 263.656033 
L 104.033617 261.549288 
L 104.434538 261.549288 
L 104.434538 259.96923 
L 104.826449 259.96923 
L 104.826449 256.809114 
L 105.209745 256.809114 
L 105.209745 255.755741 
L 105.584798 255.755741 
L 105.584798 253.648997 
L 105.951954 253.648997 
L 105.951954 252.595625 
L 106.311539 252.595625 
L 106.311539 252.068939 
L 106.66386 252.068939 
L 106.66386 249.962195 
L 108.640231 249.962195 
L 108.640231 249.435508 
L 112.531694 249.435508 
L 112.531694 248.908822 
L 117.857331 248.908822 
L 117.857331 247.85545 
L 118.220662 247.85545 
L 118.220662 247.328764 
L 118.399528 247.328764 
L 118.399528 246.802078 
L 118.925375 246.802078 
L 118.925375 246.275392 
L 120.41399 246.275392 
L 120.41399 245.748706 
L 120.571812 245.748706 
L 120.571812 245.22202 
L 121.189196 245.22202 
L 121.189196 244.168648 
L 121.638301 244.168648 
L 121.638301 243.641962 
L 121.931406 243.641962 
L 121.931406 243.115275 
L 122.219665 243.115275 
L 122.219665 242.061903 
L 122.362027 242.061903 
L 122.362027 241.535217 
L 122.920132 241.535217 
L 122.920132 241.008531 
L 123.056911 241.008531 
L 123.056911 240.481845 
L 123.192626 240.481845 
L 123.192626 238.901787 
L 123.593547 238.901787 
L 123.593547 238.375101 
L 124.619683 238.375101 
L 124.619683 237.848415 
L 125.110962 237.848415 
L 125.110962 237.321729 
L 126.053856 237.321729 
L 126.053856 236.795043 
L 126.618283 236.795043 
L 126.618283 236.268356 
L 127.272333 236.268356 
L 127.272333 235.214984 
L 127.48501 235.214984 
L 127.590383 234.161612 
L 127.799239 234.161612 
L 127.902737 233.10824 
L 128.209594 233.10824 
L 128.209594 232.054868 
L 128.610515 232.054868 
L 128.610515 231.528182 
L 128.905271 231.528182 
L 128.905271 231.001496 
L 129.385722 231.001496 
L 129.385722 229.948123 
L 129.574256 229.948123 
L 129.667765 228.894751 
L 129.853291 228.894751 
L 129.945319 226.788007 
L 130.036864 226.788007 
L 130.127931 225.734635 
L 130.218525 225.734635 
L 130.30865 222.574518 
L 130.398313 222.574518 
L 130.398313 219.941088 
L 130.576266 219.941088 
L 130.664567 218.887716 
L 130.752422 218.887716 
L 130.752422 218.36103 
L 130.926816 218.36103 
L 131.013364 216.780971 
L 131.099484 216.780971 
L 131.185181 214.147541 
L 131.270459 214.147541 
L 131.270459 213.620855 
L 131.439773 213.620855 
L 131.523818 210.987425 
L 131.60746 210.987425 
L 131.690703 208.88068 
L 131.77355 208.88068 
L 131.856005 205.193878 
L 132.101058 205.193878 
L 132.101058 202.560447 
L 132.262533 202.560447 
L 132.342714 200.980389 
L 132.422528 200.980389 
L 132.501978 199.927017 
L 132.581068 199.927017 
L 132.581068 199.400331 
L 132.816208 199.400331 
L 132.893889 197.820273 
L 133.124876 197.820273 
L 133.124876 197.293586 
L 133.277185 197.293586 
L 133.352844 194.13347 
L 133.428175 194.13347 
L 133.428175 193.080098 
L 133.57787 193.080098 
L 133.652238 191.50004 
L 133.72629 191.50004 
L 133.72629 190.446667 
L 133.873458 190.446667 
L 133.946579 187.813237 
L 134.164119 187.813237 
L 134.236034 186.759865 
L 134.307653 186.759865 
L 134.37898 184.653121 
L 134.450015 184.653121 
L 134.450015 184.126434 
L 134.591225 184.126434 
L 134.661403 182.01969 
L 134.7313 182.01969 
L 134.800918 179.38626 
L 134.939326 179.38626 
L 134.939326 178.859574 
L 135.076644 178.859574 
L 135.144899 176.226143 
L 135.280614 176.226143 
L 135.280614 175.699457 
L 135.415281 175.699457 
L 135.482227 173.066027 
L 135.615352 173.066027 
L 135.681535 170.959282 
L 135.747468 170.959282 
L 135.813153 168.325852 
L 135.878591 168.325852 
L 135.878591 167.799166 
L 136.073445 167.799166 
L 136.137916 165.692422 
L 136.202149 165.692422 
L 136.266147 163.058991 
L 136.32991 163.058991 
L 136.32991 162.005619 
L 136.456742 162.005619 
L 136.519813 160.425561 
L 136.582658 160.425561 
L 136.645276 156.738758 
L 136.769843 156.738758 
L 136.831795 155.1587 
L 136.893527 155.1587 
L 136.893527 154.632014 
L 137.016339 154.632014 
L 137.077422 151.998584 
L 137.138292 151.998584 
L 137.198951 150.945211 
L 137.259399 150.945211 
L 137.319638 149.891839 
L 137.37967 149.891839 
L 137.439497 147.258409 
L 137.499118 147.258409 
L 137.558536 146.205037 
L 137.676769 146.205037 
L 137.676769 144.624978 
L 137.852629 144.624978 
L 137.910857 140.41149 
L 137.968891 140.41149 
L 138.026733 137.251373 
L 138.199116 137.251373 
L 138.256201 135.671315 
L 138.313099 135.671315 
L 138.313099 133.564571 
L 138.426341 133.564571 
L 138.482688 131.984513 
L 138.538853 131.984513 
L 138.538853 131.457826 
L 138.650644 131.457826 
L 138.706272 130.404454 
L 138.816998 130.404454 
L 138.872098 128.824396 
L 138.981779 128.824396 
L 139.090775 121.977477 
L 139.145019 121.977477 
L 139.199094 118.817361 
L 139.306744 118.817361 
L 139.413734 117.763988 
L 139.466984 117.763988 
L 139.572998 113.023814 
L 139.625765 113.023814 
L 139.678372 110.917069 
L 139.835248 110.917069 
L 139.939053 106.703581 
L 139.990725 106.703581 
L 140.042245 104.596836 
L 140.144829 104.596836 
L 140.246813 102.490092 
L 140.348205 102.490092 
L 140.44901 99.856662 
L 140.499195 99.856662 
L 140.599134 96.169859 
L 140.64889 96.169859 
L 140.747977 94.589801 
L 140.846504 94.589801 
L 140.846504 92.483056 
L 141.041904 92.483056 
L 141.090414 90.376312 
L 141.235139 90.376312 
L 141.33096 87.216196 
L 141.426256 87.216196 
L 141.521035 83.529393 
L 141.568232 83.529393 
L 141.662245 82.476021 
L 141.755753 82.476021 
L 141.848763 79.842591 
L 141.895083 79.842591 
L 141.941279 77.20916 
L 142.033307 77.20916 
L 142.033307 76.682474 
L 142.170445 76.682474 
L 142.261275 73.522358 
L 142.351634 73.522358 
L 142.441528 70.888927 
L 142.486301 70.888927 
L 142.486301 69.308869 
L 142.619936 69.308869 
L 142.664255 67.728811 
L 142.752555 67.728811 
L 142.796538 65.09538 
L 142.884173 65.09538 
L 142.971369 61.935264 
L 143.014805 61.935264 
L 143.101352 60.355206 
L 143.187472 60.355206 
L 143.273169 57.721775 
L 143.358447 57.721775 
L 143.44331 55.088345 
L 143.527762 55.088345 
L 143.569835 53.508287 
L 143.820164 53.508287 
L 143.902815 50.34817 
L 144.148442 50.34817 
L 144.148442 49.294798 
L 144.390658 49.294798 
L 144.390658 48.241426 
L 144.510517 48.241426 
L 144.589967 46.661368 
L 144.669057 46.661368 
L 144.708467 45.081309 
L 144.787023 45.081309 
L 144.787023 44.554623 
L 144.981877 44.554623 
L 144.981877 44.027937 
L 145.365173 44.027937 
L 145.403044 42.447879 
L 145.591172 42.447879 
L 145.665858 41.394507 
L 145.814278 41.394507 
L 145.924771 40.341135 
L 146.143677 40.341135 
L 146.252108 39.287762 
L 146.359869 39.287762 
L 146.359869 38.761076 
L 146.644018 38.761076 
L 146.644018 38.23439 
L 146.958248 38.23439 
L 146.958248 37.707704 
L 149.969756 37.707704 
L 149.969756 37.181018 
L 150.710752 37.181018 
L 150.710752 36.654332 
L 151.528368 36.654332 
L 151.528368 36.127646 
L 152.027042 36.127646 
L 152.027042 35.60096 
L 152.536999 35.60096 
L 152.612222 34.020902 
L 153.49047 34.020902 
L 153.49047 33.494215 
L 153.703291 33.494215 
L 153.703291 32.967529 
L 154.098334 32.967529 
L 154.121296 31.914157 
L 154.439623 31.914157 
L 154.507086 30.860785 
L 159.857512 30.860785 
L 159.857512 30.334099 
L 338.688 30.334099 
L 338.688 30.334099 
" style="fill:none;stroke:#008000;stroke-linecap:square;stroke-width:1.5;"/>
   </g>
   <g id="line2d_35">
    <defs>
     <path d="M -0 6 
L 6 -6 
L -6 -6 
z
" id="mf20768ca92" style="stroke:#008000;stroke-linejoin:miter;stroke-width:1.5;"/>
    </defs>
    <g>
     <use style="fill-opacity:0;stroke:#008000;stroke-linejoin:miter;stroke-width:1.5;" x="100.934985" xlink:href="#mf20768ca92" y="270.502952"/>
     <use style="fill-opacity:0;stroke:#008000;stroke-linejoin:miter;stroke-width:1.5;" x="136.519813" xlink:href="#mf20768ca92" y="160.425561"/>
     <use style="fill-opacity:0;stroke:#008000;stroke-linejoin:miter;stroke-width:1.5;" x="152.612222" xlink:href="#mf20768ca92" y="34.547588"/>
     <use style="fill-opacity:0;stroke:#008000;stroke-linejoin:miter;stroke-width:1.5;" x="159.857512" xlink:href="#mf20768ca92" y="30.334099"/>
     <use style="fill-opacity:0;stroke:#008000;stroke-linejoin:miter;stroke-width:1.5;" x="159.857512" xlink:href="#mf20768ca92" y="30.334099"/>
     <use style="fill-opacity:0;stroke:#008000;stroke-linejoin:miter;stroke-width:1.5;" x="338.688" xlink:href="#mf20768ca92" y="30.334099"/>
    </g>
   </g>
   <g id="line2d_36">
    <path style="fill:none;stroke:#008000;stroke-linecap:square;stroke-width:1.5;"/>
    <g/>
   </g>
   <g id="line2d_37">
    <path clip-path="url(#p59da56c774)" d="M 138.872098 128.824396 
" style="fill:none;stroke:#008000;stroke-linecap:square;stroke-width:1.5;"/>
    <defs>
     <path d="M -12 12 
L 12 -12 
M -12 -12 
L 12 12 
" id="m4ff52cc112" style="stroke:#008000;"/>
    </defs>
    <g clip-path="url(#p59da56c774)">
     <use style="fill:#008000;stroke:#008000;" x="138.872098" xlink:href="#m4ff52cc112" y="128.824396"/>
    </g>
   </g>
   <g id="line2d_38">
    <defs>
     <path d="M 0 1.5 
C 0.397805 1.5 0.77937 1.341951 1.06066 1.06066 
C 1.341951 0.77937 1.5 0.397805 1.5 0 
C 1.5 -0.397805 1.341951 -0.77937 1.06066 -1.06066 
C 0.77937 -1.341951 0.397805 -1.5 0 -1.5 
C -0.397805 -1.5 -0.77937 -1.341951 -1.06066 -1.06066 
C -1.341951 -0.77937 -1.5 -0.397805 -1.5 0 
C -1.5 0.397805 -1.341951 0.77937 -1.06066 1.06066 
C -0.77937 1.341951 -0.397805 1.5 0 1.5 
z
" id="mfaa654bbe8" style="stroke:#0000ff;"/>
    </defs>
    <g>
     <use style="fill:#0000ff;stroke:#0000ff;" x="215.521575" xlink:href="#mfaa654bbe8" y="109.337011"/>
     <use style="fill:#0000ff;stroke:#0000ff;" x="215.521575" xlink:href="#mfaa654bbe8" y="109.337011"/>
    </g>
   </g>
   <g id="line2d_39">
    <path d="M 29.53256 298.944 
L 29.53256 279.983301 
L 91.029752 279.983301 
L 91.029752 279.456615 
L 97.403108 279.456615 
L 97.403108 278.929929 
L 98.43941 278.929929 
L 98.43941 278.403243 
L 99.731799 278.403243 
L 99.731799 277.349871 
L 100.641881 277.349871 
L 100.641881 276.823185 
L 100.934985 276.823185 
L 100.934985 276.296499 
L 101.506816 276.296499 
L 101.506816 275.243126 
L 102.060491 275.243126 
L 102.060491 274.189754 
L 102.330873 274.189754 
L 102.330873 273.663068 
L 102.859376 273.663068 
L 102.859376 273.136382 
L 103.117741 273.136382 
L 103.117741 272.609696 
L 103.372333 272.609696 
L 103.372333 269.976266 
L 103.623262 269.976266 
L 103.623262 269.449579 
L 103.870632 269.449579 
L 103.870632 268.922893 
L 104.114542 268.922893 
L 104.114542 268.396207 
L 104.355088 268.396207 
L 104.355088 266.816149 
L 104.826449 266.816149 
L 104.826449 266.289463 
L 105.057436 266.289463 
L 105.057436 265.236091 
L 105.51043 265.236091 
L 105.51043 264.709405 
L 113.311233 264.709405 
L 113.311233 264.182719 
L 114.148479 264.182719 
L 114.148479 263.656033 
L 115.077025 263.656033 
L 115.077025 263.129347 
L 115.33349 263.129347 
L 115.33349 262.60266 
L 115.711251 262.60266 
L 115.711251 262.075974 
L 115.958621 262.075974 
L 115.958621 261.549288 
L 116.081002 261.549288 
L 116.081002 261.022602 
L 119.097192 261.022602 
L 119.097192 260.495916 
L 122.782271 260.495916 
L 122.782271 259.96923 
L 125.110962 259.96923 
L 125.183475 258.915858 
L 127.923363 258.915858 
L 127.923363 258.389172 
L 128.411207 258.389172 
L 128.411207 257.862486 
L 129.46138 257.862486 
L 129.46138 257.3358 
L 129.853291 257.3358 
L 129.853291 256.809114 
L 130.182344 256.809114 
L 130.182344 256.282427 
L 130.978796 256.282427 
L 130.978796 255.755741 
L 132.133473 255.755741 
L 132.133473 255.229055 
L 132.659801 255.229055 
L 132.659801 254.702369 
L 135.917737 254.702369 
L 135.917737 254.175683 
L 136.150782 254.175683 
L 136.150782 253.648997 
L 136.304433 253.648997 
L 136.304433 253.122311 
L 136.418789 253.122311 
L 136.494612 252.068939 
L 136.645276 252.068939 
L 136.720123 251.015567 
L 136.831795 251.015567 
L 136.831795 250.488881 
L 137.126135 250.488881 
L 137.126135 249.962195 
L 137.343676 249.962195 
L 137.343676 249.435508 
L 137.558536 249.435508 
L 137.558536 248.908822 
L 138.118883 248.908822 
L 138.187677 247.85545 
L 138.527635 247.85545 
L 138.527635 247.328764 
L 138.89409 247.328764 
L 138.89409 246.802078 
L 141.119455 246.802078 
L 141.119455 246.275392 
L 141.80232 246.275392 
L 141.80232 245.748706 
L 142.106582 245.748706 
L 142.106582 245.22202 
L 142.619936 245.22202 
L 142.726112 244.168648 
L 143.144465 244.168648 
L 143.144465 243.641962 
L 144.099593 243.641962 
L 144.099593 243.115275 
L 145.372754 243.115275 
L 145.372754 242.588589 
L 145.865929 242.588589 
L 145.888018 241.535217 
L 146.041862 241.535217 
L 146.041862 241.008531 
L 146.388493 241.008531 
L 146.388493 240.481845 
L 146.516724 240.481845 
L 146.516724 239.955159 
L 147.02042 239.955159 
L 147.02042 239.428473 
L 147.348313 239.428473 
L 147.429332 238.375101 
L 147.550159 238.375101 
L 147.570215 237.321729 
L 147.927346 237.321729 
L 147.927346 236.795043 
L 148.103206 236.795043 
L 148.161434 235.214984 
L 148.23877 235.214984 
L 148.334961 233.634926 
L 148.373289 233.634926 
L 148.373289 233.10824 
L 148.582601 233.10824 
L 148.601505 232.054868 
L 148.733265 232.054868 
L 148.78943 230.47481 
L 148.975352 230.47481 
L 149.030744 228.368065 
L 149.141003 228.368065 
L 149.25057 223.101204 
L 149.305096 223.101204 
L 149.377533 221.521146 
L 149.467659 221.521146 
L 149.467659 219.941088 
L 149.593058 219.941088 
L 149.682079 217.307658 
L 149.717561 217.307658 
L 149.770648 216.254285 
L 149.876341 216.254285 
L 149.946449 214.147541 
L 149.998846 214.147541 
L 149.998846 213.620855 
L 151.080698 213.620855 
L 151.080698 213.094169 
L 151.834513 213.094169 
L 151.834513 212.567483 
L 152.344968 212.567483 
L 152.344968 212.040797 
L 153.722083 212.040797 
L 153.722083 211.514111 
L 153.862384 211.514111 
L 153.862384 210.987425 
L 154.93278 210.987425 
L 154.93278 210.460738 
L 155.488919 210.460738 
L 155.488919 209.934052 
L 156.260804 209.934052 
L 156.333721 208.88068 
L 156.514691 208.88068 
L 156.526689 207.827308 
L 156.634302 207.827308 
L 156.681918 206.24725 
L 156.988292 206.24725 
L 156.999969 205.193878 
L 157.15106 205.193878 
L 157.15106 204.667192 
L 158.162642 204.667192 
L 158.206267 203.613819 
L 158.83738 203.613819 
L 158.83738 203.087133 
L 159.035853 203.087133 
L 159.035853 202.560447 
L 159.415988 202.560447 
L 159.51732 201.507075 
L 159.688246 201.507075 
L 159.748174 200.453703 
L 159.857512 200.453703 
L 159.887213 199.400331 
L 160.413354 199.400331 
L 160.442124 197.820273 
L 160.556731 197.820273 
L 160.556731 197.293586 
L 160.670589 197.293586 
L 160.689494 196.240214 
L 160.877419 196.240214 
L 160.914762 194.660156 
L 161.118732 194.660156 
L 161.21983 193.080098 
L 161.238149 193.080098 
L 161.238149 192.553412 
L 161.393084 192.553412 
L 161.447441 190.973354 
L 161.582595 190.973354 
L 161.618459 189.393295 
L 161.698887 189.393295 
L 161.787817 187.286551 
L 161.858637 187.286551 
L 161.946759 185.706493 
L 161.973109 185.706493 
L 162.02569 184.653121 
L 162.346481 184.653121 
L 162.346481 184.126434 
L 162.653039 184.126434 
L 162.653039 183.599748 
L 164.765143 183.599748 
L 164.765143 183.073062 
L 165.302685 183.073062 
L 165.302685 182.546376 
L 165.915403 182.546376 
L 165.943384 181.493004 
L 166.117256 181.493004 
L 166.227632 180.439632 
L 166.316801 180.439632 
L 166.316801 179.912946 
L 166.921925 179.912946 
L 166.921925 179.38626 
L 167.177763 179.38626 
L 167.177763 178.859574 
L 167.481174 178.859574 
L 167.481174 178.332888 
L 167.615054 178.332888 
L 167.716371 176.752829 
L 167.898523 176.752829 
L 167.898523 175.699457 
L 168.041647 175.699457 
L 168.054037 174.646085 
L 168.152844 174.646085 
L 168.152844 174.119399 
L 168.27557 174.119399 
L 168.324419 173.066027 
L 168.506396 173.066027 
L 168.60868 170.959282 
L 168.668567 170.959282 
L 168.704401 169.379224 
L 168.911979 169.379224 
L 168.911979 168.852538 
L 169.041203 168.852538 
L 169.041203 168.325852 
L 170.505381 168.325852 
L 170.596616 167.27248 
L 171.635594 167.27248 
L 171.74118 166.219108 
L 172.678005 166.219108 
L 172.715968 165.165736 
L 173.058616 165.165736 
L 173.137453 163.585677 
L 173.358148 163.585677 
L 173.462916 161.478933 
L 173.666095 161.478933 
L 173.751176 159.898875 
L 173.80915 159.898875 
L 173.80915 159.372189 
L 173.990742 159.372189 
L 174.052318 158.318817 
L 174.305129 158.318817 
L 174.35698 157.265444 
L 175.289425 157.265444 
L 175.289425 156.738758 
L 175.617599 156.738758 
L 175.617599 156.212072 
L 175.797284 156.212072 
L 175.896315 155.1587 
L 175.951527 155.1587 
L 175.951527 154.632014 
L 176.228874 154.632014 
L 176.302352 153.578642 
L 176.356295 153.578642 
L 176.371677 152.52527 
L 176.604586 152.52527 
L 176.604586 151.998584 
L 177.039093 151.998584 
L 177.149725 150.945211 
L 177.397923 150.945211 
L 177.397923 150.418525 
L 177.820411 150.418525 
L 177.855749 148.838467 
L 178.013889 148.838467 
L 178.013889 148.311781 
L 178.713337 148.311781 
L 178.713337 147.785095 
L 179.079163 147.785095 
L 179.079163 147.258409 
L 180.107931 147.258409 
L 180.185323 146.205037 
L 180.442869 146.205037 
L 180.442869 145.678351 
L 180.558141 145.678351 
L 180.612478 144.624978 
L 180.741603 144.624978 
L 180.741603 144.098292 
L 181.120411 144.098292 
L 181.120411 143.571606 
L 182.049586 143.571606 
L 182.049586 143.04492 
L 182.352263 143.04492 
L 182.442052 141.991548 
L 182.507063 141.991548 
L 182.507063 141.464862 
L 182.997592 141.464862 
L 182.997592 140.938176 
L 183.138971 140.938176 
L 183.224808 139.884804 
L 183.356641 139.884804 
L 183.356641 139.358118 
L 183.49004 139.358118 
L 183.49004 138.831432 
L 183.698348 138.831432 
L 183.781483 137.778059 
L 184.220745 137.778059 
L 184.220745 137.251373 
L 184.38903 137.251373 
L 184.38903 136.724687 
L 184.680273 136.724687 
L 184.680273 136.198001 
L 184.870193 136.198001 
L 184.957337 134.617943 
L 185.001918 134.617943 
L 185.072077 133.564571 
L 185.566793 133.564571 
L 185.566793 133.037885 
L 186.063302 133.037885 
L 186.063302 132.511199 
L 186.40177 132.511199 
L 186.40177 131.984513 
L 187.005383 131.984513 
L 187.005383 131.457826 
L 187.229553 131.457826 
L 187.229553 130.93114 
L 188.580327 130.93114 
L 188.580327 130.404454 
L 189.606899 130.404454 
L 189.606899 129.877768 
L 189.750271 129.877768 
L 189.750271 129.351082 
L 189.977242 129.351082 
L 189.977242 128.824396 
L 190.274192 128.824396 
L 190.381245 127.771024 
L 190.607 127.771024 
L 190.715413 126.717652 
L 191.18853 126.717652 
L 191.18853 126.190966 
L 191.802141 126.190966 
L 191.802141 125.66428 
L 192.11195 125.66428 
L 192.11195 125.137593 
L 192.420946 125.137593 
L 192.486671 124.084221 
L 192.825103 124.084221 
L 192.901248 123.030849 
L 193.014104 123.030849 
L 193.014104 122.504163 
L 193.168833 122.504163 
L 193.168833 121.977477 
L 193.399106 121.977477 
L 193.399106 121.450791 
L 194.015017 121.450791 
L 194.015017 120.924105 
L 194.500162 120.924105 
L 194.603161 119.870733 
L 194.761884 119.870733 
L 194.761884 119.344047 
L 195.70661 119.344047 
L 195.716754 118.290674 
L 195.820394 118.290674 
L 195.820394 117.763988 
L 196.249817 117.763988 
L 196.346678 116.710616 
L 197.204354 116.710616 
L 197.204354 116.18393 
L 198.090548 116.18393 
L 198.090548 115.657244 
L 198.449705 115.657244 
L 198.449705 115.130558 
L 198.831328 115.130558 
L 198.831328 114.603872 
L 200.630101 114.603872 
L 200.630101 114.077186 
L 200.980432 114.077186 
L 200.980432 113.5505 
L 203.170189 113.5505 
L 203.170189 113.023814 
L 203.329032 113.023814 
L 203.329032 112.497128 
L 204.51812 112.497128 
L 204.51812 111.970441 
L 206.030178 111.970441 
L 206.030178 111.443755 
L 206.17205 111.443755 
L 206.17205 110.917069 
L 208.877719 110.917069 
L 208.877719 110.390383 
L 211.527298 110.390383 
L 211.527298 109.863697 
L 215.521575 109.863697 
L 215.521575 109.337011 
L 338.688 109.337011 
L 338.688 109.337011 
" style="fill:none;stroke:#0000ff;stroke-linecap:square;stroke-width:1.5;"/>
   </g>
   <g id="line2d_40">
    <defs>
     <path d="M 0 -6 
L -1.347084 -1.854102 
L -5.706339 -1.854102 
L -2.179628 0.708204 
L -3.526712 4.854102 
L -0 2.291796 
L 3.526712 4.854102 
L 2.179628 0.708204 
L 5.706339 -1.854102 
L 1.347084 -1.854102 
z
" id="md103917ee1" style="stroke:#0000ff;stroke-linejoin:bevel;stroke-width:1.5;"/>
    </defs>
    <g>
     <use style="fill-opacity:0;stroke:#0000ff;stroke-linejoin:bevel;stroke-width:1.5;" x="130.978796" xlink:href="#md103917ee1" y="256.282427"/>
     <use style="fill-opacity:0;stroke:#0000ff;stroke-linejoin:bevel;stroke-width:1.5;" x="186.40177" xlink:href="#md103917ee1" y="131.984513"/>
     <use style="fill-opacity:0;stroke:#0000ff;stroke-linejoin:bevel;stroke-width:1.5;" x="215.521575" xlink:href="#md103917ee1" y="109.863697"/>
     <use style="fill-opacity:0;stroke:#0000ff;stroke-linejoin:bevel;stroke-width:1.5;" x="215.521575" xlink:href="#md103917ee1" y="109.337011"/>
     <use style="fill-opacity:0;stroke:#0000ff;stroke-linejoin:bevel;stroke-width:1.5;" x="338.688" xlink:href="#md103917ee1" y="109.337011"/>
    </g>
   </g>
   <g id="line2d_41">
    <path style="fill:none;stroke:#0000ff;stroke-linecap:square;stroke-width:1.5;"/>
    <g/>
   </g>
   <g id="line2d_42">
    <path clip-path="url(#p59da56c774)" d="M 149.998846 213.620855 
" style="fill:none;stroke:#0000ff;stroke-linecap:square;stroke-width:1.5;"/>
    <defs>
     <path d="M -12 12 
L 12 -12 
M -12 -12 
L 12 12 
" id="mb906072fdc" style="stroke:#0000ff;"/>
    </defs>
    <g clip-path="url(#p59da56c774)">
     <use style="fill:#0000ff;stroke:#0000ff;" x="149.998846" xlink:href="#mb906072fdc" y="213.620855"/>
    </g>
   </g>
   <g id="line2d_43">
    <defs>
     <path d="M 0 1.5 
C 0.397805 1.5 0.77937 1.341951 1.06066 1.06066 
C 1.341951 0.77937 1.5 0.397805 1.5 0 
C 1.5 -0.397805 1.341951 -0.77937 1.06066 -1.06066 
C 0.77937 -1.341951 0.397805 -1.5 0 -1.5 
C -0.397805 -1.5 -0.77937 -1.341951 -1.06066 -1.06066 
C -1.341951 -0.77937 -1.5 -0.397805 -1.5 0 
C -1.5 0.397805 -1.341951 0.77937 -1.06066 1.06066 
C -0.77937 1.341951 -0.397805 1.5 0 1.5 
z
" id="m52e9cc7a0a" style="stroke:#000000;"/>
    </defs>
    <g>
     <use style="stroke:#000000;" x="197.757702" xlink:href="#m52e9cc7a0a" y="246.275392"/>
     <use style="stroke:#000000;" x="197.757702" xlink:href="#m52e9cc7a0a" y="246.275392"/>
    </g>
   </g>
   <g id="line2d_44">
    <path d="M 17.444571 298.944 
L 17.444571 285.776848 
L 100.934985 285.776848 
L 100.934985 285.250162 
L 101.506816 285.250162 
L 101.506816 284.723476 
L 101.646892 284.723476 
L 101.646892 284.19679 
L 102.989037 284.19679 
L 102.989037 283.670104 
L 103.245502 283.670104 
L 103.245502 283.143418 
L 103.498249 283.143418 
L 103.498249 282.616732 
L 103.747386 282.616732 
L 103.747386 282.090045 
L 103.870632 282.090045 
L 103.870632 281.563359 
L 104.114542 281.563359 
L 104.114542 281.036673 
L 104.709797 281.036673 
L 104.709797 280.509987 
L 105.057436 280.509987 
L 105.057436 279.983301 
L 105.171792 279.983301 
L 105.171792 279.456615 
L 105.285403 279.456615 
L 105.285403 278.929929 
L 106.168594 278.929929 
L 106.275913 277.876557 
L 106.48859 277.876557 
L 106.48859 277.349871 
L 106.698704 277.349871 
L 106.698704 276.823185 
L 107.111487 276.823185 
L 107.111487 276.296499 
L 107.314272 276.296499 
L 107.314272 274.71644 
L 117.985359 274.71644 
L 117.985359 274.189754 
L 119.045825 274.189754 
L 119.045825 273.663068 
L 119.751557 273.663068 
L 119.751557 273.136382 
L 119.89914 273.136382 
L 119.948058 272.08301 
L 120.093994 272.08301 
L 120.093994 271.556324 
L 120.238719 271.556324 
L 120.238719 271.029638 
L 120.382253 271.029638 
L 120.382253 270.502952 
L 121.264855 270.502952 
L 121.264855 269.976266 
L 130.585116 269.976266 
L 130.585116 269.449579 
L 133.009765 269.449579 
L 133.009765 268.922893 
L 133.888106 268.922893 
L 133.888106 268.396207 
L 134.932432 268.396207 
L 134.932432 267.869521 
L 137.980475 267.869521 
L 137.980475 267.342835 
L 138.187677 267.342835 
L 138.187677 266.816149 
L 140.088482 266.816149 
L 140.088482 266.289463 
L 141.002999 266.289463 
L 141.002999 265.762777 
L 141.407239 265.762777 
L 141.407239 265.236091 
L 142.188649 265.236091 
L 142.188649 264.709405 
L 142.405626 264.709405 
L 142.405626 264.182719 
L 142.857929 264.182719 
L 142.857929 263.656033 
L 143.716296 263.656033 
L 143.716296 263.129347 
L 145.350002 263.129347 
L 145.406826 262.075974 
L 145.598655 262.075974 
L 145.598655 261.549288 
L 147.113265 261.549288 
L 147.113265 261.022602 
L 152.833495 261.022602 
L 152.833495 260.495916 
L 157.162628 260.495916 
L 157.226117 259.442544 
L 157.826359 259.442544 
L 157.826359 258.915858 
L 158.858379 258.915858 
L 158.858379 258.389172 
L 159.577838 258.389172 
L 159.577838 257.862486 
L 159.941533 257.862486 
L 160.030058 256.282427 
L 162.615012 256.282427 
L 162.615012 255.755741 
L 163.428979 255.755741 
L 163.428979 255.229055 
L 166.344146 255.229055 
L 166.344146 254.702369 
L 166.645502 254.702369 
L 166.645502 254.175683 
L 166.775933 254.175683 
L 166.775933 253.648997 
L 167.741609 253.648997 
L 167.741609 253.122311 
L 171.224819 253.122311 
L 171.224819 252.595625 
L 172.563617 252.595625 
L 172.563617 252.068939 
L 172.991089 252.068939 
L 172.991089 251.542253 
L 173.135139 251.542253 
L 173.135139 251.015567 
L 176.981657 251.015567 
L 176.981657 250.488881 
L 177.526107 250.488881 
L 177.526107 249.962195 
L 179.207044 249.962195 
L 179.207044 249.435508 
L 182.202957 249.435508 
L 182.202957 248.908822 
L 185.169829 248.908822 
L 185.169829 248.382136 
L 187.431521 248.382136 
L 187.431521 247.85545 
L 188.942989 247.85545 
L 188.942989 247.328764 
L 193.980042 247.328764 
L 193.980042 246.802078 
L 197.757702 246.802078 
L 197.757702 246.275392 
L 338.688 246.275392 
L 338.688 246.275392 
" style="fill:none;stroke:#000000;stroke-linecap:square;stroke-width:1.5;"/>
   </g>
   <g id="line2d_45">
    <defs>
     <path d="M 0 6 
C 1.591219 6 3.117479 5.367802 4.242641 4.242641 
C 5.367802 3.117479 6 1.591219 6 0 
C 6 -1.591219 5.367802 -3.117479 4.242641 -4.242641 
C 3.117479 -5.367802 1.591219 -6 0 -6 
C -1.591219 -6 -3.117479 -5.367802 -4.242641 -4.242641 
C -5.367802 -3.117479 -6 -1.591219 -6 0 
C -6 1.591219 -5.367802 3.117479 -4.242641 4.242641 
C -3.117479 5.367802 -1.591219 6 0 6 
z
" id="m10739d9c74" style="stroke:#000000;stroke-width:1.5;"/>
    </defs>
    <g>
     <use style="fill-opacity:0;stroke:#000000;stroke-width:1.5;" x="121.264855" xlink:href="#m10739d9c74" y="269.976266"/>
     <use style="fill-opacity:0;stroke:#000000;stroke-width:1.5;" x="197.757702" xlink:href="#m10739d9c74" y="246.802078"/>
     <use style="fill-opacity:0;stroke:#000000;stroke-width:1.5;" x="197.757702" xlink:href="#m10739d9c74" y="246.275392"/>
     <use style="fill-opacity:0;stroke:#000000;stroke-width:1.5;" x="197.757702" xlink:href="#m10739d9c74" y="246.275392"/>
     <use style="fill-opacity:0;stroke:#000000;stroke-width:1.5;" x="338.688" xlink:href="#m10739d9c74" y="246.275392"/>
    </g>
   </g>
   <g id="line2d_46">
    <path style="fill:none;stroke:#000000;stroke-linecap:square;stroke-width:1.5;"/>
    <g/>
   </g>
   <g id="line2d_47">
    <path clip-path="url(#p59da56c774)" d="M 149.998846 261.022602 
" style="fill:none;stroke:#000000;stroke-linecap:square;stroke-width:1.5;"/>
    <defs>
     <path d="M -12 12 
L 12 -12 
M -12 -12 
L 12 12 
" id="m9001f03121" style="stroke:#000000;"/>
    </defs>
    <g clip-path="url(#p59da56c774)">
     <use style="stroke:#000000;" x="149.998846" xlink:href="#m9001f03121" y="261.022602"/>
    </g>
   </g>
   <g id="line2d_48">
    <defs>
     <path d="M 0 1.5 
C 0.397805 1.5 0.77937 1.341951 1.06066 1.06066 
C 1.341951 0.77937 1.5 0.397805 1.5 0 
C 1.5 -0.397805 1.341951 -0.77937 1.06066 -1.06066 
C 0.77937 -1.341951 0.397805 -1.5 0 -1.5 
C -0.397805 -1.5 -0.77937 -1.341951 -1.06066 -1.06066 
C -1.341951 -0.77937 -1.5 -0.397805 -1.5 0 
C -1.5 0.397805 -1.341951 0.77937 -1.06066 1.06066 
C -0.77937 1.341951 -0.397805 1.5 0 1.5 
z
" id="m658d594909" style="stroke:#ff0000;"/>
    </defs>
    <g>
     <use style="fill:#ff0000;stroke:#ff0000;" x="196.930712" xlink:href="#m658d594909" y="267.342835"/>
     <use style="fill:#ff0000;stroke:#ff0000;" x="196.930712" xlink:href="#m658d594909" y="267.342835"/>
    </g>
   </g>
   <g id="line2d_49">
    <path d="M 5.356583 298.944 
L 5.356583 286.303534 
L 107.111487 286.303534 
L 107.111487 285.776848 
L 110.358901 285.776848 
L 110.358901 285.250162 
L 111.104637 285.250162 
L 111.104637 284.723476 
L 111.545148 284.723476 
L 111.545148 284.19679 
L 112.051799 284.19679 
L 112.051799 283.670104 
L 112.242812 283.670104 
L 112.242812 283.143418 
L 112.655818 283.143418 
L 112.655818 282.616732 
L 112.950158 282.616732 
L 112.950158 282.090045 
L 124.101333 282.090045 
L 124.101333 281.563359 
L 124.273716 281.563359 
L 124.273716 281.036673 
L 124.444412 281.036673 
L 124.444412 280.509987 
L 125.559298 280.509987 
L 125.559298 279.983301 
L 131.236397 279.983301 
L 131.236397 279.456615 
L 133.800029 279.456615 
L 133.800029 278.929929 
L 133.997581 278.929929 
L 133.997581 278.403243 
L 134.04118 278.403243 
L 134.04118 277.876557 
L 135.280614 277.876557 
L 135.280614 277.349871 
L 139.123342 277.349871 
L 139.123342 276.823185 
L 139.139602 276.823185 
L 139.139602 276.296499 
L 143.060296 276.296499 
L 143.060296 275.769812 
L 144.93531 275.769812 
L 144.93531 275.243126 
L 148.330164 275.243126 
L 148.330164 274.71644 
L 149.521512 274.71644 
L 149.521512 274.189754 
L 153.559329 274.189754 
L 153.559329 273.663068 
L 155.872907 273.663068 
L 155.872907 273.136382 
L 157.483465 273.136382 
L 157.483465 272.609696 
L 159.738201 272.609696 
L 159.738201 271.556324 
L 160.935732 271.556324 
L 160.935732 270.502952 
L 161.85201 270.502952 
L 161.85201 269.976266 
L 166.227632 269.976266 
L 166.227632 269.449579 
L 167.629337 269.449579 
L 167.629337 268.922893 
L 177.971858 268.922893 
L 177.971858 268.396207 
L 191.288089 268.396207 
L 191.288089 267.869521 
L 196.930712 267.869521 
L 196.930712 267.342835 
L 338.688 267.342835 
" style="fill:none;stroke:#ff0000;stroke-linecap:square;stroke-width:1.5;"/>
   </g>
   <g id="line2d_50">
    <defs>
     <path d="M -6 6 
L 6 6 
L 6 -6 
L -6 -6 
z
" id="macf6f7adb2" style="stroke:#ff0000;stroke-linejoin:miter;stroke-width:1.5;"/>
    </defs>
    <g>
     <use style="fill-opacity:0;stroke:#ff0000;stroke-linejoin:miter;stroke-width:1.5;" x="112.950158" xlink:href="#macf6f7adb2" y="282.090045"/>
     <use style="fill-opacity:0;stroke:#ff0000;stroke-linejoin:miter;stroke-width:1.5;" x="196.930712" xlink:href="#macf6f7adb2" y="267.869521"/>
     <use style="fill-opacity:0;stroke:#ff0000;stroke-linejoin:miter;stroke-width:1.5;" x="196.930712" xlink:href="#macf6f7adb2" y="267.342835"/>
     <use style="fill-opacity:0;stroke:#ff0000;stroke-linejoin:miter;stroke-width:1.5;" x="196.930712" xlink:href="#macf6f7adb2" y="267.342835"/>
     <use style="fill-opacity:0;stroke:#ff0000;stroke-linejoin:miter;stroke-width:1.5;" x="338.688" xlink:href="#macf6f7adb2" y="267.342835"/>
    </g>
   </g>
   <g id="line2d_51">
    <path style="fill:none;stroke:#ff0000;stroke-linecap:square;stroke-width:1.5;"/>
    <g/>
   </g>
   <g id="line2d_52">
    <path clip-path="url(#p59da56c774)" d="M 149.998846 274.189754 
" style="fill:none;stroke:#ff0000;stroke-linecap:square;stroke-width:1.5;"/>
    <defs>
     <path d="M -12 12 
L 12 -12 
M -12 -12 
L 12 12 
" id="md3cc92dac3" style="stroke:#ff0000;"/>
    </defs>
    <g clip-path="url(#p59da56c774)">
     <use style="fill:#ff0000;stroke:#ff0000;" x="149.998846" xlink:href="#md3cc92dac3" y="274.189754"/>
    </g>
   </g>
   <g id="line2d_53">
    <defs>
     <path d="M 0 1.5 
C 0.397805 1.5 0.77937 1.341951 1.06066 1.06066 
C 1.341951 0.77937 1.5 0.397805 1.5 0 
C 1.5 -0.397805 1.341951 -0.77937 1.06066 -1.06066 
C 0.77937 -1.341951 0.397805 -1.5 0 -1.5 
C -0.397805 -1.5 -0.77937 -1.341951 -1.06066 -1.06066 
C -1.341951 -0.77937 -1.5 -0.397805 -1.5 0 
C -1.5 0.397805 -1.341951 0.77937 -1.06066 1.06066 
C -0.77937 1.341951 -0.397805 1.5 0 1.5 
z
" id="me5fd389842" style="stroke:#bf00bf;"/>
    </defs>
    <g>
     <use style="fill:#bf00bf;stroke:#bf00bf;" x="161.681046" xlink:href="#me5fd389842" y="277.876557"/>
     <use style="fill:#bf00bf;stroke:#bf00bf;" x="161.681046" xlink:href="#me5fd389842" y="277.876557"/>
    </g>
   </g>
   <g id="line2d_54">
    <path d="M -1 294.730511 
L 116.957981 294.730511 
L 116.957981 294.203825 
L 117.345058 294.203825 
L 117.345058 293.677139 
L 118.890808 293.677139 
L 118.890808 293.150453 
L 118.903779 293.150453 
L 118.903779 292.623767 
L 119.590253 292.623767 
L 119.590253 292.097081 
L 120.069756 292.097081 
L 120.069756 291.570395 
L 120.178563 291.570395 
L 120.178563 291.043709 
L 120.921776 291.043709 
L 120.921776 290.517023 
L 121.355214 290.517023 
L 121.355214 289.990337 
L 121.601315 289.990337 
L 121.601315 289.463651 
L 121.656766 289.463651 
L 121.656766 288.936964 
L 121.854941 288.936964 
L 121.854941 288.410278 
L 122.158807 288.410278 
L 122.158807 287.883592 
L 124.062793 287.883592 
L 124.062793 287.356906 
L 130.384893 287.356906 
L 130.384893 286.83022 
L 132.488101 286.83022 
L 132.488101 286.303534 
L 133.02708 286.303534 
L 133.02708 285.776848 
L 133.510666 285.776848 
L 133.510666 285.250162 
L 135.552244 285.250162 
L 135.552244 284.723476 
L 137.717962 284.723476 
L 137.717962 284.19679 
L 142.75916 284.19679 
L 142.75916 283.670104 
L 144.688773 283.670104 
L 144.688773 283.143418 
L 145.984329 283.143418 
L 145.984329 282.616732 
L 148.200145 282.616732 
L 148.200145 282.090045 
L 149.175317 282.090045 
L 149.175317 281.563359 
L 149.60198 281.563359 
L 149.60198 281.036673 
L 155.862008 281.036673 
L 155.862008 280.509987 
L 158.564741 280.509987 
L 158.564741 279.456615 
L 158.566075 279.456615 
L 158.566075 278.929929 
L 161.67993 278.929929 
L 161.67993 278.403243 
L 161.681046 278.403243 
L 161.681046 277.876557 
L 338.688 277.876557 
" style="fill:none;stroke:#bf00bf;stroke-linecap:square;stroke-width:1.5;"/>
   </g>
   <g id="line2d_55">
    <defs>
     <path d="M -0 8.485281 
L 8.485281 0 
L 0 -8.485281 
L -8.485281 -0 
z
" id="m58345292c9" style="stroke:#bf00bf;stroke-linejoin:miter;stroke-width:1.5;"/>
    </defs>
    <g>
     <use style="fill-opacity:0;stroke:#bf00bf;stroke-linejoin:miter;stroke-width:1.5;" x="137.717962" xlink:href="#m58345292c9" y="284.19679"/>
     <use style="fill-opacity:0;stroke:#bf00bf;stroke-linejoin:miter;stroke-width:1.5;" x="161.681046" xlink:href="#m58345292c9" y="278.403243"/>
     <use style="fill-opacity:0;stroke:#bf00bf;stroke-linejoin:miter;stroke-width:1.5;" x="161.681046" xlink:href="#m58345292c9" y="277.876557"/>
     <use style="fill-opacity:0;stroke:#bf00bf;stroke-linejoin:miter;stroke-width:1.5;" x="161.681046" xlink:href="#m58345292c9" y="277.876557"/>
     <use style="fill-opacity:0;stroke:#bf00bf;stroke-linejoin:miter;stroke-width:1.5;" x="338.688" xlink:href="#m58345292c9" y="277.876557"/>
    </g>
   </g>
   <g id="line2d_56">
    <path style="fill:none;stroke:#bf00bf;stroke-linecap:square;stroke-width:1.5;"/>
    <g/>
   </g>
   <g id="line2d_57">
    <path clip-path="url(#p59da56c774)" d="M 149.998846 281.036673 
" style="fill:none;stroke:#bf00bf;stroke-linecap:square;stroke-width:1.5;"/>
    <defs>
     <path d="M -12 12 
L 12 -12 
M -12 -12 
L 12 12 
" id="mf13a550275" style="stroke:#bf00bf;"/>
    </defs>
    <g clip-path="url(#p59da56c774)">
     <use style="fill:#bf00bf;stroke:#bf00bf;" x="149.998846" xlink:href="#mf13a550275" y="281.036673"/>
    </g>
   </g>
   <g id="line2d_58">
    <path d="M 338.688 277.876557 
L 369.60768 293.571802 
" style="fill:none;stroke:#bf00bf;stroke-linecap:square;stroke-width:1.5;"/>
    <g>
     <use style="fill-opacity:0;stroke:#bf00bf;stroke-linejoin:miter;stroke-width:1.5;" x="338.688" xlink:href="#m58345292c9" y="277.876557"/>
     <use style="fill-opacity:0;stroke:#bf00bf;stroke-linejoin:miter;stroke-width:1.5;" x="369.60768" xlink:href="#m58345292c9" y="293.571802"/>
    </g>
   </g>
   <g id="line2d_59">
    <path d="M 338.688 267.342835 
L 369.60768 241.998701 
" style="fill:none;stroke:#ff0000;stroke-linecap:square;stroke-width:1.5;"/>
    <g>
     <use style="fill-opacity:0;stroke:#ff0000;stroke-linejoin:miter;stroke-width:1.5;" x="338.688" xlink:href="#macf6f7adb2" y="267.342835"/>
     <use style="fill-opacity:0;stroke:#ff0000;stroke-linejoin:miter;stroke-width:1.5;" x="369.60768" xlink:href="#macf6f7adb2" y="241.998701"/>
    </g>
   </g>
   <g id="line2d_60">
    <path d="M 338.688 246.275392 
L 369.60768 190.4256 
" style="fill:none;stroke:#000000;stroke-linecap:square;stroke-width:1.5;"/>
    <g>
     <use style="fill-opacity:0;stroke:#000000;stroke-width:1.5;" x="338.688" xlink:href="#m10739d9c74" y="246.275392"/>
     <use style="fill-opacity:0;stroke:#000000;stroke-width:1.5;" x="369.60768" xlink:href="#m10739d9c74" y="190.4256"/>
    </g>
   </g>
   <g id="line2d_61">
    <path d="M 338.688 109.337011 
L 369.60768 138.852499 
" style="fill:none;stroke:#0000ff;stroke-linecap:square;stroke-width:1.5;"/>
    <g>
     <use style="fill-opacity:0;stroke:#0000ff;stroke-linejoin:bevel;stroke-width:1.5;" x="338.688" xlink:href="#md103917ee1" y="109.337011"/>
     <use style="fill-opacity:0;stroke:#0000ff;stroke-linejoin:bevel;stroke-width:1.5;" x="369.60768" xlink:href="#md103917ee1" y="138.852499"/>
    </g>
   </g>
   <g id="line2d_62">
    <path d="M 338.688 30.334099 
L 369.60768 87.279398 
" style="fill:none;stroke:#008000;stroke-linecap:square;stroke-width:1.5;"/>
    <g>
     <use style="fill-opacity:0;stroke:#008000;stroke-linejoin:miter;stroke-width:1.5;" x="338.688" xlink:href="#mf20768ca92" y="30.334099"/>
     <use style="fill-opacity:0;stroke:#008000;stroke-linejoin:miter;stroke-width:1.5;" x="369.60768" xlink:href="#mf20768ca92" y="87.279398"/>
    </g>
   </g>
   <g id="line2d_63">
    <path d="M 338.688 30.334099 
L 369.60768 35.706297 
" style="fill:none;stroke:#00bfbf;stroke-linecap:square;stroke-width:1.5;"/>
    <g>
     <use style="fill-opacity:0;stroke:#00bfbf;stroke-width:1.5;" x="338.688" xlink:href="#m967c1c16b8" y="30.334099"/>
     <use style="fill-opacity:0;stroke:#00bfbf;stroke-width:1.5;" x="369.60768" xlink:href="#m967c1c16b8" y="35.706297"/>
    </g>
   </g>
   <g id="line2d_64">
    <path d="M 338.688 298.944 
L 338.688 30.334099 
" style="fill:none;stroke:#000000;stroke-linecap:square;stroke-width:1.5;"/>
   </g>
   <g id="patch_3">
    <path d="M 57.6 298.944 
L 57.6 27.648 
" style="fill:none;stroke:#000000;stroke-linecap:square;stroke-linejoin:miter;stroke-width:0.8;"/>
   </g>
   <g id="patch_4">
    <path d="M 338.688 298.944 
L 338.688 27.648 
" style="fill:none;stroke:#000000;stroke-linecap:square;stroke-linejoin:miter;stroke-width:0.8;"/>
   </g>
   <g id="patch_5">
    <path d="M 57.6 298.944 
L 338.688 298.944 
" style="fill:none;stroke:#000000;stroke-linecap:square;stroke-linejoin:miter;stroke-width:0.8;"/>
   </g>
   <g id="patch_6">
    <path d="M 57.6 27.648 
L 338.688 27.648 
" style="fill:none;stroke:#000000;stroke-linecap:square;stroke-linejoin:miter;stroke-width:0.8;"/>
   </g>
   <g id="text_13">
    <!-- 40-D -->
    <g transform="translate(375.22944 298.262739)scale(0.17 -0.17)">
     <defs>
      <path d="M 19.671875 64.796875 
L 19.671875 8.109375 
L 31.59375 8.109375 
Q 46.6875 8.109375 53.6875 14.9375 
Q 60.6875 21.78125 60.6875 36.53125 
Q 60.6875 51.171875 53.6875 57.984375 
Q 46.6875 64.796875 31.59375 64.796875 
z
M 9.8125 72.90625 
L 30.078125 72.90625 
Q 51.265625 72.90625 61.171875 64.09375 
Q 71.09375 55.28125 71.09375 36.53125 
Q 71.09375 17.671875 61.125 8.828125 
Q 51.171875 0 30.078125 0 
L 9.8125 0 
z
" id="DejaVuSans-68"/>
     </defs>
     <use xlink:href="#DejaVuSans-52"/>
     <use x="63.623047" xlink:href="#DejaVuSans-48"/>
     <use x="127.246094" xlink:href="#DejaVuSans-45"/>
     <use x="163.330078" xlink:href="#DejaVuSans-68"/>
    </g>
   </g>
   <g id="text_14">
    <!-- 20-D -->
    <g transform="translate(375.22944 246.689638)scale(0.17 -0.17)">
     <use xlink:href="#DejaVuSans-50"/>
     <use x="63.623047" xlink:href="#DejaVuSans-48"/>
     <use x="127.246094" xlink:href="#DejaVuSans-45"/>
     <use x="163.330078" xlink:href="#DejaVuSans-68"/>
    </g>
   </g>
   <g id="text_15">
    <!-- 10-D -->
    <g transform="translate(375.22944 195.116537)scale(0.17 -0.17)">
     <use xlink:href="#DejaVuSans-49"/>
     <use x="63.623047" xlink:href="#DejaVuSans-48"/>
     <use x="127.246094" xlink:href="#DejaVuSans-45"/>
     <use x="163.330078" xlink:href="#DejaVuSans-68"/>
    </g>
   </g>
   <g id="text_16">
    <!-- 5-D -->
    <g transform="translate(375.22944 143.543437)scale(0.17 -0.17)">
     <defs>
      <path d="M 10.796875 72.90625 
L 49.515625 72.90625 
L 49.515625 64.59375 
L 19.828125 64.59375 
L 19.828125 46.734375 
Q 21.96875 47.46875 24.109375 47.828125 
Q 26.265625 48.1875 28.421875 48.1875 
Q 40.625 48.1875 47.75 41.5 
Q 54.890625 34.8125 54.890625 23.390625 
Q 54.890625 11.625 47.5625 5.09375 
Q 40.234375 -1.421875 26.90625 -1.421875 
Q 22.3125 -1.421875 17.546875 -0.640625 
Q 12.796875 0.140625 7.71875 1.703125 
L 7.71875 11.625 
Q 12.109375 9.234375 16.796875 8.0625 
Q 21.484375 6.890625 26.703125 6.890625 
Q 35.15625 6.890625 40.078125 11.328125 
Q 45.015625 15.765625 45.015625 23.390625 
Q 45.015625 31 40.078125 35.4375 
Q 35.15625 39.890625 26.703125 39.890625 
Q 22.75 39.890625 18.8125 39.015625 
Q 14.890625 38.140625 10.796875 36.28125 
z
" id="DejaVuSans-53"/>
     </defs>
     <use xlink:href="#DejaVuSans-53"/>
     <use x="63.623047" xlink:href="#DejaVuSans-45"/>
     <use x="99.707031" xlink:href="#DejaVuSans-68"/>
    </g>
   </g>
   <g id="text_17">
    <!-- 3-D -->
    <g transform="translate(375.22944 91.970336)scale(0.17 -0.17)">
     <defs>
      <path d="M 40.578125 39.3125 
Q 47.65625 37.796875 51.625 33 
Q 55.609375 28.21875 55.609375 21.1875 
Q 55.609375 10.40625 48.1875 4.484375 
Q 40.765625 -1.421875 27.09375 -1.421875 
Q 22.515625 -1.421875 17.65625 -0.515625 
Q 12.796875 0.390625 7.625 2.203125 
L 7.625 11.71875 
Q 11.71875 9.328125 16.59375 8.109375 
Q 21.484375 6.890625 26.8125 6.890625 
Q 36.078125 6.890625 40.9375 10.546875 
Q 45.796875 14.203125 45.796875 21.1875 
Q 45.796875 27.640625 41.28125 31.265625 
Q 36.765625 34.90625 28.71875 34.90625 
L 20.21875 34.90625 
L 20.21875 43.015625 
L 29.109375 43.015625 
Q 36.375 43.015625 40.234375 45.921875 
Q 44.09375 48.828125 44.09375 54.296875 
Q 44.09375 59.90625 40.109375 62.90625 
Q 36.140625 65.921875 28.71875 65.921875 
Q 24.65625 65.921875 20.015625 65.03125 
Q 15.375 64.15625 9.8125 62.3125 
L 9.8125 71.09375 
Q 15.4375 72.65625 20.34375 73.4375 
Q 25.25 74.21875 29.59375 74.21875 
Q 40.828125 74.21875 47.359375 69.109375 
Q 53.90625 64.015625 53.90625 55.328125 
Q 53.90625 49.265625 50.4375 45.09375 
Q 46.96875 40.921875 40.578125 39.3125 
z
" id="DejaVuSans-51"/>
     </defs>
     <use xlink:href="#DejaVuSans-51"/>
     <use x="63.623047" xlink:href="#DejaVuSans-45"/>
     <use x="99.707031" xlink:href="#DejaVuSans-68"/>
    </g>
   </g>
   <g id="text_18">
    <!-- 2-D -->
    <g transform="translate(375.22944 40.397235)scale(0.17 -0.17)">
     <use xlink:href="#DejaVuSans-50"/>
     <use x="63.623047" xlink:href="#DejaVuSans-45"/>
     <use x="99.707031" xlink:href="#DejaVuSans-68"/>
    </g>
   </g>
   <g id="text_19">
    <!-- bbob f14 -->
    <g transform="translate(60.41088 38.111366)scale(0.102 -0.102)">
     <defs>
      <path d="M 48.6875 27.296875 
Q 48.6875 37.203125 44.609375 42.84375 
Q 40.53125 48.484375 33.40625 48.484375 
Q 26.265625 48.484375 22.1875 42.84375 
Q 18.109375 37.203125 18.109375 27.296875 
Q 18.109375 17.390625 22.1875 11.75 
Q 26.265625 6.109375 33.40625 6.109375 
Q 40.53125 6.109375 44.609375 11.75 
Q 48.6875 17.390625 48.6875 27.296875 
z
M 18.109375 46.390625 
Q 20.953125 51.265625 25.265625 53.625 
Q 29.59375 56 35.59375 56 
Q 45.5625 56 51.78125 48.09375 
Q 58.015625 40.1875 58.015625 27.296875 
Q 58.015625 14.40625 51.78125 6.484375 
Q 45.5625 -1.421875 35.59375 -1.421875 
Q 29.59375 -1.421875 25.265625 0.953125 
Q 20.953125 3.328125 18.109375 8.203125 
L 18.109375 0 
L 9.078125 0 
L 9.078125 75.984375 
L 18.109375 75.984375 
z
" id="DejaVuSans-98"/>
     </defs>
     <use xlink:href="#DejaVuSans-98"/>
     <use x="63.476562" xlink:href="#DejaVuSans-98"/>
     <use x="126.953125" xlink:href="#DejaVuSans-111"/>
     <use x="188.134766" xlink:href="#DejaVuSans-98"/>
     <use x="251.611328" xlink:href="#DejaVuSans-32"/>
     <use x="283.398438" xlink:href="#DejaVuSans-102"/>
     <use x="318.603516" xlink:href="#DejaVuSans-49"/>
     <use x="382.226562" xlink:href="#DejaVuSans-52"/>
    </g>
    <!-- 51 targets: 100..1e-08 -->
    <g transform="translate(60.41088 49.533135)scale(0.102 -0.102)">
     <defs>
      <path d="M 11.71875 12.40625 
L 22.015625 12.40625 
L 22.015625 0 
L 11.71875 0 
z
M 11.71875 51.703125 
L 22.015625 51.703125 
L 22.015625 39.3125 
L 11.71875 39.3125 
z
" id="DejaVuSans-58"/>
     </defs>
     <use xlink:href="#DejaVuSans-53"/>
     <use x="63.623047" xlink:href="#DejaVuSans-49"/>
     <use x="127.246094" xlink:href="#DejaVuSans-32"/>
     <use x="159.033203" xlink:href="#DejaVuSans-116"/>
     <use x="198.242188" xlink:href="#DejaVuSans-97"/>
     <use x="259.521484" xlink:href="#DejaVuSans-114"/>
     <use x="298.884766" xlink:href="#DejaVuSans-103"/>
     <use x="362.361328" xlink:href="#DejaVuSans-101"/>
     <use x="423.884766" xlink:href="#DejaVuSans-116"/>
     <use x="463.09375" xlink:href="#DejaVuSans-115"/>
     <use x="515.193359" xlink:href="#DejaVuSans-58"/>
     <use x="548.884766" xlink:href="#DejaVuSans-32"/>
     <use x="580.671875" xlink:href="#DejaVuSans-49"/>
     <use x="644.294922" xlink:href="#DejaVuSans-48"/>
     <use x="707.917969" xlink:href="#DejaVuSans-48"/>
     <use x="771.541016" xlink:href="#DejaVuSans-46"/>
     <use x="803.328125" xlink:href="#DejaVuSans-46"/>
     <use x="835.115234" xlink:href="#DejaVuSans-49"/>
     <use x="898.738281" xlink:href="#DejaVuSans-101"/>
     <use x="960.261719" xlink:href="#DejaVuSans-45"/>
     <use x="996.345703" xlink:href="#DejaVuSans-48"/>
     <use x="1059.96875" xlink:href="#DejaVuSans-56"/>
    </g>
    <!-- 15 instances -->
    <g transform="translate(60.41088 60.954904)scale(0.102 -0.102)">
     <use xlink:href="#DejaVuSans-49"/>
     <use x="63.623047" xlink:href="#DejaVuSans-53"/>
     <use x="127.246094" xlink:href="#DejaVuSans-32"/>
     <use x="159.033203" xlink:href="#DejaVuSans-105"/>
     <use x="186.816406" xlink:href="#DejaVuSans-110"/>
     <use x="250.195312" xlink:href="#DejaVuSans-115"/>
     <use x="302.294922" xlink:href="#DejaVuSans-116"/>
     <use x="341.503906" xlink:href="#DejaVuSans-97"/>
     <use x="402.783203" xlink:href="#DejaVuSans-110"/>
     <use x="466.162109" xlink:href="#DejaVuSans-99"/>
     <use x="521.142578" xlink:href="#DejaVuSans-101"/>
     <use x="582.666016" xlink:href="#DejaVuSans-115"/>
    </g>
   </g>
   <g id="text_20">
    <!-- v2.4 -->
    <g style="fill:#808080;" transform="translate(187.233062 294.151352)scale(0.1 -0.1)">
     <use xlink:href="#DejaVuSans-118"/>
     <use x="59.179688" xlink:href="#DejaVuSans-50"/>
     <use x="122.802734" xlink:href="#DejaVuSans-46"/>
     <use x="154.589844" xlink:href="#DejaVuSans-52"/>
    </g>
   </g>
   <g id="text_21">
    <!-- 14 Sum of different powers -->
    <g transform="translate(61.904937 21.648)scale(0.2 -0.2)">
     <defs>
      <path d="M 53.515625 70.515625 
L 53.515625 60.890625 
Q 47.90625 63.578125 42.921875 64.890625 
Q 37.9375 66.21875 33.296875 66.21875 
Q 25.25 66.21875 20.875 63.09375 
Q 16.5 59.96875 16.5 54.203125 
Q 16.5 49.359375 19.40625 46.890625 
Q 22.3125 44.4375 30.421875 42.921875 
L 36.375 41.703125 
Q 47.40625 39.59375 52.65625 34.296875 
Q 57.90625 29 57.90625 20.125 
Q 57.90625 9.515625 50.796875 4.046875 
Q 43.703125 -1.421875 29.984375 -1.421875 
Q 24.8125 -1.421875 18.96875 -0.25 
Q 13.140625 0.921875 6.890625 3.21875 
L 6.890625 13.375 
Q 12.890625 10.015625 18.65625 8.296875 
Q 24.421875 6.59375 29.984375 6.59375 
Q 38.421875 6.59375 43.015625 9.90625 
Q 47.609375 13.234375 47.609375 19.390625 
Q 47.609375 24.75 44.3125 27.78125 
Q 41.015625 30.8125 33.5 32.328125 
L 27.484375 33.5 
Q 16.453125 35.6875 11.515625 40.375 
Q 6.59375 45.0625 6.59375 53.421875 
Q 6.59375 63.09375 13.40625 68.65625 
Q 20.21875 74.21875 32.171875 74.21875 
Q 37.3125 74.21875 42.625 73.28125 
Q 47.953125 72.359375 53.515625 70.515625 
z
" id="DejaVuSans-83"/>
      <path d="M 4.203125 54.6875 
L 13.1875 54.6875 
L 24.421875 12.015625 
L 35.59375 54.6875 
L 46.1875 54.6875 
L 57.421875 12.015625 
L 68.609375 54.6875 
L 77.59375 54.6875 
L 63.28125 0 
L 52.6875 0 
L 40.921875 44.828125 
L 29.109375 0 
L 18.5 0 
z
" id="DejaVuSans-119"/>
     </defs>
     <use xlink:href="#DejaVuSans-49"/>
     <use x="63.623047" xlink:href="#DejaVuSans-52"/>
     <use x="127.246094" xlink:href="#DejaVuSans-32"/>
     <use x="159.033203" xlink:href="#DejaVuSans-83"/>
     <use x="222.509766" xlink:href="#DejaVuSans-117"/>
     <use x="285.888672" xlink:href="#DejaVuSans-109"/>
     <use x="383.300781" xlink:href="#DejaVuSans-32"/>
     <use x="415.087891" xlink:href="#DejaVuSans-111"/>
     <use x="476.269531" xlink:href="#DejaVuSans-102"/>
     <use x="511.474609" xlink:href="#DejaVuSans-32"/>
     <use x="543.261719" xlink:href="#DejaVuSans-100"/>
     <use x="606.738281" xlink:href="#DejaVuSans-105"/>
     <use x="634.521484" xlink:href="#DejaVuSans-102"/>
     <use x="669.726562" xlink:href="#DejaVuSans-102"/>
     <use x="704.931641" xlink:href="#DejaVuSans-101"/>
     <use x="766.455078" xlink:href="#DejaVuSans-114"/>
     <use x="805.318359" xlink:href="#DejaVuSans-101"/>
     <use x="866.841797" xlink:href="#DejaVuSans-110"/>
     <use x="930.220703" xlink:href="#DejaVuSans-116"/>
     <use x="969.429688" xlink:href="#DejaVuSans-32"/>
     <use x="1001.216797" xlink:href="#DejaVuSans-112"/>
     <use x="1064.693359" xlink:href="#DejaVuSans-111"/>
     <use x="1125.875" xlink:href="#DejaVuSans-119"/>
     <use x="1207.662109" xlink:href="#DejaVuSans-101"/>
     <use x="1269.185547" xlink:href="#DejaVuSans-114"/>
     <use x="1310.298828" xlink:href="#DejaVuSans-115"/>
    </g>
   </g>
  </g>
 </g>
 <defs>
  <clipPath id="p59da56c774">
   <rect height="271.296" width="281.088" x="57.6" y="27.648"/>
  </clipPath>
 </defs>
</svg>
