<?xml version="1.0" encoding="utf-8" standalone="no"?>
<!DOCTYPE svg PUBLIC "-//W3C//DTD SVG 1.1//EN"
  "http://www.w3.org/Graphics/SVG/1.1/DTD/svg11.dtd">
<!-- Created with matplotlib (https://matplotlib.org/) -->
<svg height="345.6pt" version="1.1" viewBox="0 0 460.8 345.6" width="460.8pt" xmlns="http://www.w3.org/2000/svg" xmlns:xlink="http://www.w3.org/1999/xlink">
 <metadata>
  <rdf:RDF xmlns:cc="http://creativecommons.org/ns#" xmlns:dc="http://purl.org/dc/elements/1.1/" xmlns:rdf="http://www.w3.org/1999/02/22-rdf-syntax-ns#">
   <cc:Work>
    <dc:type rdf:resource="http://purl.org/dc/dcmitype/StillImage"/>
    <dc:date>2021-08-04T10:26:33.395676</dc:date>
    <dc:format>image/svg+xml</dc:format>
    <dc:creator>
     <cc:Agent>
      <dc:title>Matplotlib v3.3.1, https://matplotlib.org/</dc:title>
     </cc:Agent>
    </dc:creator>
   </cc:Work>
  </rdf:RDF>
 </metadata>
 <defs>
  <style type="text/css">*{stroke-linecap:butt;stroke-linejoin:round;}</style>
 </defs>
 <g id="figure_1">
  <g id="patch_1">
   <path d="M 0 345.6 
L 460.8 345.6 
L 460.8 0 
L 0 0 
z
" style="fill:#ffffff;"/>
  </g>
  <g id="axes_1">
   <g id="patch_2">
    <path d="M 57.6 298.944 
L 338.688 298.944 
L 338.688 3.456 
L 57.6 3.456 
z
" style="fill:#ffffff;"/>
   </g>
   <g id="matplotlib.axis_1">
    <g id="xtick_1">
     <g id="line2d_1">
      <path clip-path="url(#peaab709359)" d="M 57.6 298.944 
L 57.6 3.456 
" style="fill:none;stroke:#b0b0b0;stroke-linecap:square;stroke-width:0.8;"/>
     </g>
     <g id="line2d_2">
      <defs>
       <path d="M 0 0 
L 0 3.5 
" id="mdf8b550103" style="stroke:#000000;stroke-width:0.8;"/>
      </defs>
      <g>
       <use style="stroke:#000000;stroke-width:0.8;" x="57.6" xlink:href="#mdf8b550103" y="298.944"/>
      </g>
     </g>
     <g id="text_1">
      <!-- 0 -->
      <g transform="translate(51.2375 321.140875)scale(0.2 -0.2)">
       <defs>
        <path d="M 31.78125 66.40625 
Q 24.171875 66.40625 20.328125 58.90625 
Q 16.5 51.421875 16.5 36.375 
Q 16.5 21.390625 20.328125 13.890625 
Q 24.171875 6.390625 31.78125 6.390625 
Q 39.453125 6.390625 43.28125 13.890625 
Q 47.125 21.390625 47.125 36.375 
Q 47.125 51.421875 43.28125 58.90625 
Q 39.453125 66.40625 31.78125 66.40625 
z
M 31.78125 74.21875 
Q 44.046875 74.21875 50.515625 64.515625 
Q 56.984375 54.828125 56.984375 36.375 
Q 56.984375 17.96875 50.515625 8.265625 
Q 44.046875 -1.421875 31.78125 -1.421875 
Q 19.53125 -1.421875 13.0625 8.265625 
Q 6.59375 17.96875 6.59375 36.375 
Q 6.59375 54.828125 13.0625 64.515625 
Q 19.53125 74.21875 31.78125 74.21875 
z
" id="DejaVuSans-48"/>
       </defs>
       <use xlink:href="#DejaVuSans-48"/>
      </g>
     </g>
    </g>
    <g id="xtick_2">
     <g id="line2d_3">
      <path clip-path="url(#peaab709359)" d="M 137.910857 298.944 
L 137.910857 3.456 
" style="fill:none;stroke:#b0b0b0;stroke-linecap:square;stroke-width:0.8;"/>
     </g>
     <g id="line2d_4">
      <g>
       <use style="stroke:#000000;stroke-width:0.8;" x="137.910857" xlink:href="#mdf8b550103" y="298.944"/>
      </g>
     </g>
     <g id="text_2">
      <!-- 2 -->
      <g transform="translate(131.548357 321.140875)scale(0.2 -0.2)">
       <defs>
        <path d="M 19.1875 8.296875 
L 53.609375 8.296875 
L 53.609375 0 
L 7.328125 0 
L 7.328125 8.296875 
Q 12.9375 14.109375 22.625 23.890625 
Q 32.328125 33.6875 34.8125 36.53125 
Q 39.546875 41.84375 41.421875 45.53125 
Q 43.3125 49.21875 43.3125 52.78125 
Q 43.3125 58.59375 39.234375 62.25 
Q 35.15625 65.921875 28.609375 65.921875 
Q 23.96875 65.921875 18.8125 64.3125 
Q 13.671875 62.703125 7.8125 59.421875 
L 7.8125 69.390625 
Q 13.765625 71.78125 18.9375 73 
Q 24.125 74.21875 28.421875 74.21875 
Q 39.75 74.21875 46.484375 68.546875 
Q 53.21875 62.890625 53.21875 53.421875 
Q 53.21875 48.921875 51.53125 44.890625 
Q 49.859375 40.875 45.40625 35.40625 
Q 44.1875 33.984375 37.640625 27.21875 
Q 31.109375 20.453125 19.1875 8.296875 
z
" id="DejaVuSans-50"/>
       </defs>
       <use xlink:href="#DejaVuSans-50"/>
      </g>
     </g>
    </g>
    <g id="xtick_3">
     <g id="line2d_5">
      <path clip-path="url(#peaab709359)" d="M 218.221714 298.944 
L 218.221714 3.456 
" style="fill:none;stroke:#b0b0b0;stroke-linecap:square;stroke-width:0.8;"/>
     </g>
     <g id="line2d_6">
      <g>
       <use style="stroke:#000000;stroke-width:0.8;" x="218.221714" xlink:href="#mdf8b550103" y="298.944"/>
      </g>
     </g>
     <g id="text_3">
      <!-- 4 -->
      <g transform="translate(211.859214 321.140875)scale(0.2 -0.2)">
       <defs>
        <path d="M 37.796875 64.3125 
L 12.890625 25.390625 
L 37.796875 25.390625 
z
M 35.203125 72.90625 
L 47.609375 72.90625 
L 47.609375 25.390625 
L 58.015625 25.390625 
L 58.015625 17.1875 
L 47.609375 17.1875 
L 47.609375 0 
L 37.796875 0 
L 37.796875 17.1875 
L 4.890625 17.1875 
L 4.890625 26.703125 
z
" id="DejaVuSans-52"/>
       </defs>
       <use xlink:href="#DejaVuSans-52"/>
      </g>
     </g>
    </g>
    <g id="xtick_4">
     <g id="line2d_7">
      <path clip-path="url(#peaab709359)" d="M 298.532571 298.944 
L 298.532571 3.456 
" style="fill:none;stroke:#b0b0b0;stroke-linecap:square;stroke-width:0.8;"/>
     </g>
     <g id="line2d_8">
      <g>
       <use style="stroke:#000000;stroke-width:0.8;" x="298.532571" xlink:href="#mdf8b550103" y="298.944"/>
      </g>
     </g>
     <g id="text_4">
      <!-- 6 -->
      <g transform="translate(292.170071 321.140875)scale(0.2 -0.2)">
       <defs>
        <path d="M 33.015625 40.375 
Q 26.375 40.375 22.484375 35.828125 
Q 18.609375 31.296875 18.609375 23.390625 
Q 18.609375 15.53125 22.484375 10.953125 
Q 26.375 6.390625 33.015625 6.390625 
Q 39.65625 6.390625 43.53125 10.953125 
Q 47.40625 15.53125 47.40625 23.390625 
Q 47.40625 31.296875 43.53125 35.828125 
Q 39.65625 40.375 33.015625 40.375 
z
M 52.59375 71.296875 
L 52.59375 62.3125 
Q 48.875 64.0625 45.09375 64.984375 
Q 41.3125 65.921875 37.59375 65.921875 
Q 27.828125 65.921875 22.671875 59.328125 
Q 17.53125 52.734375 16.796875 39.40625 
Q 19.671875 43.65625 24.015625 45.921875 
Q 28.375 48.1875 33.59375 48.1875 
Q 44.578125 48.1875 50.953125 41.515625 
Q 57.328125 34.859375 57.328125 23.390625 
Q 57.328125 12.15625 50.6875 5.359375 
Q 44.046875 -1.421875 33.015625 -1.421875 
Q 20.359375 -1.421875 13.671875 8.265625 
Q 6.984375 17.96875 6.984375 36.375 
Q 6.984375 53.65625 15.1875 63.9375 
Q 23.390625 74.21875 37.203125 74.21875 
Q 40.921875 74.21875 44.703125 73.484375 
Q 48.484375 72.75 52.59375 71.296875 
z
" id="DejaVuSans-54"/>
       </defs>
       <use xlink:href="#DejaVuSans-54"/>
      </g>
     </g>
    </g>
    <g id="xtick_5">
     <g id="line2d_9">
      <path clip-path="url(#peaab709359)" d="M 97.755429 298.944 
L 97.755429 3.456 
" style="fill:none;stroke:#b0b0b0;stroke-linecap:square;stroke-width:0.8;"/>
     </g>
     <g id="line2d_10">
      <defs>
       <path d="M 0 0 
L 0 2 
" id="m8feef7e190" style="stroke:#000000;stroke-width:0.6;"/>
      </defs>
      <g>
       <use style="stroke:#000000;stroke-width:0.6;" x="97.755429" xlink:href="#m8feef7e190" y="298.944"/>
      </g>
     </g>
    </g>
    <g id="xtick_6">
     <g id="line2d_11">
      <path clip-path="url(#peaab709359)" d="M 178.066286 298.944 
L 178.066286 3.456 
" style="fill:none;stroke:#b0b0b0;stroke-linecap:square;stroke-width:0.8;"/>
     </g>
     <g id="line2d_12">
      <g>
       <use style="stroke:#000000;stroke-width:0.6;" x="178.066286" xlink:href="#m8feef7e190" y="298.944"/>
      </g>
     </g>
    </g>
    <g id="xtick_7">
     <g id="line2d_13">
      <path clip-path="url(#peaab709359)" d="M 258.377143 298.944 
L 258.377143 3.456 
" style="fill:none;stroke:#b0b0b0;stroke-linecap:square;stroke-width:0.8;"/>
     </g>
     <g id="line2d_14">
      <g>
       <use style="stroke:#000000;stroke-width:0.6;" x="258.377143" xlink:href="#m8feef7e190" y="298.944"/>
      </g>
     </g>
    </g>
    <g id="xtick_8">
     <g id="line2d_15">
      <path clip-path="url(#peaab709359)" d="M 338.688 298.944 
L 338.688 3.456 
" style="fill:none;stroke:#b0b0b0;stroke-linecap:square;stroke-width:0.8;"/>
     </g>
     <g id="line2d_16">
      <g>
       <use style="stroke:#000000;stroke-width:0.6;" x="338.688" xlink:href="#m8feef7e190" y="298.944"/>
      </g>
     </g>
    </g>
    <g id="text_5">
     <!-- log10(# f-evals / dimension) -->
     <g transform="translate(77.764078 342.217594)scale(0.17 -0.17)">
      <defs>
       <path d="M 9.421875 75.984375 
L 18.40625 75.984375 
L 18.40625 0 
L 9.421875 0 
z
" id="DejaVuSans-108"/>
       <path d="M 30.609375 48.390625 
Q 23.390625 48.390625 19.1875 42.75 
Q 14.984375 37.109375 14.984375 27.296875 
Q 14.984375 17.484375 19.15625 11.84375 
Q 23.34375 6.203125 30.609375 6.203125 
Q 37.796875 6.203125 41.984375 11.859375 
Q 46.1875 17.53125 46.1875 27.296875 
Q 46.1875 37.015625 41.984375 42.703125 
Q 37.796875 48.390625 30.609375 48.390625 
z
M 30.609375 56 
Q 42.328125 56 49.015625 48.375 
Q 55.71875 40.765625 55.71875 27.296875 
Q 55.71875 13.875 49.015625 6.21875 
Q 42.328125 -1.421875 30.609375 -1.421875 
Q 18.84375 -1.421875 12.171875 6.21875 
Q 5.515625 13.875 5.515625 27.296875 
Q 5.515625 40.765625 12.171875 48.375 
Q 18.84375 56 30.609375 56 
z
" id="DejaVuSans-111"/>
       <path d="M 45.40625 27.984375 
Q 45.40625 37.75 41.375 43.109375 
Q 37.359375 48.484375 30.078125 48.484375 
Q 22.859375 48.484375 18.828125 43.109375 
Q 14.796875 37.75 14.796875 27.984375 
Q 14.796875 18.265625 18.828125 12.890625 
Q 22.859375 7.515625 30.078125 7.515625 
Q 37.359375 7.515625 41.375 12.890625 
Q 45.40625 18.265625 45.40625 27.984375 
z
M 54.390625 6.78125 
Q 54.390625 -7.171875 48.1875 -13.984375 
Q 42 -20.796875 29.203125 -20.796875 
Q 24.46875 -20.796875 20.265625 -20.09375 
Q 16.0625 -19.390625 12.109375 -17.921875 
L 12.109375 -9.1875 
Q 16.0625 -11.328125 19.921875 -12.34375 
Q 23.78125 -13.375 27.78125 -13.375 
Q 36.625 -13.375 41.015625 -8.765625 
Q 45.40625 -4.15625 45.40625 5.171875 
L 45.40625 9.625 
Q 42.625 4.78125 38.28125 2.390625 
Q 33.9375 0 27.875 0 
Q 17.828125 0 11.671875 7.65625 
Q 5.515625 15.328125 5.515625 27.984375 
Q 5.515625 40.671875 11.671875 48.328125 
Q 17.828125 56 27.875 56 
Q 33.9375 56 38.28125 53.609375 
Q 42.625 51.21875 45.40625 46.390625 
L 45.40625 54.6875 
L 54.390625 54.6875 
z
" id="DejaVuSans-103"/>
       <path d="M 12.40625 8.296875 
L 28.515625 8.296875 
L 28.515625 63.921875 
L 10.984375 60.40625 
L 10.984375 69.390625 
L 28.421875 72.90625 
L 38.28125 72.90625 
L 38.28125 8.296875 
L 54.390625 8.296875 
L 54.390625 0 
L 12.40625 0 
z
" id="DejaVuSans-49"/>
       <path d="M 31 75.875 
Q 24.46875 64.65625 21.28125 53.65625 
Q 18.109375 42.671875 18.109375 31.390625 
Q 18.109375 20.125 21.3125 9.0625 
Q 24.515625 -2 31 -13.1875 
L 23.1875 -13.1875 
Q 15.875 -1.703125 12.234375 9.375 
Q 8.59375 20.453125 8.59375 31.390625 
Q 8.59375 42.28125 12.203125 53.3125 
Q 15.828125 64.359375 23.1875 75.875 
z
" id="DejaVuSans-40"/>
       <path d="M 51.125 44 
L 36.921875 44 
L 32.8125 27.6875 
L 47.125 27.6875 
z
M 43.796875 71.78125 
L 38.71875 51.515625 
L 52.984375 51.515625 
L 58.109375 71.78125 
L 65.921875 71.78125 
L 60.890625 51.515625 
L 76.125 51.515625 
L 76.125 44 
L 58.984375 44 
L 54.984375 27.6875 
L 70.515625 27.6875 
L 70.515625 20.21875 
L 53.078125 20.21875 
L 48 0 
L 40.1875 0 
L 45.21875 20.21875 
L 30.90625 20.21875 
L 25.875 0 
L 18.015625 0 
L 23.09375 20.21875 
L 7.71875 20.21875 
L 7.71875 27.6875 
L 24.90625 27.6875 
L 29 44 
L 13.28125 44 
L 13.28125 51.515625 
L 30.90625 51.515625 
L 35.890625 71.78125 
z
" id="DejaVuSans-35"/>
       <path id="DejaVuSans-32"/>
       <path d="M 37.109375 75.984375 
L 37.109375 68.5 
L 28.515625 68.5 
Q 23.6875 68.5 21.796875 66.546875 
Q 19.921875 64.59375 19.921875 59.515625 
L 19.921875 54.6875 
L 34.71875 54.6875 
L 34.71875 47.703125 
L 19.921875 47.703125 
L 19.921875 0 
L 10.890625 0 
L 10.890625 47.703125 
L 2.296875 47.703125 
L 2.296875 54.6875 
L 10.890625 54.6875 
L 10.890625 58.5 
Q 10.890625 67.625 15.140625 71.796875 
Q 19.390625 75.984375 28.609375 75.984375 
z
" id="DejaVuSans-102"/>
       <path d="M 4.890625 31.390625 
L 31.203125 31.390625 
L 31.203125 23.390625 
L 4.890625 23.390625 
z
" id="DejaVuSans-45"/>
       <path d="M 56.203125 29.59375 
L 56.203125 25.203125 
L 14.890625 25.203125 
Q 15.484375 15.921875 20.484375 11.0625 
Q 25.484375 6.203125 34.421875 6.203125 
Q 39.59375 6.203125 44.453125 7.46875 
Q 49.3125 8.734375 54.109375 11.28125 
L 54.109375 2.78125 
Q 49.265625 0.734375 44.1875 -0.34375 
Q 39.109375 -1.421875 33.890625 -1.421875 
Q 20.796875 -1.421875 13.15625 6.1875 
Q 5.515625 13.8125 5.515625 26.8125 
Q 5.515625 40.234375 12.765625 48.109375 
Q 20.015625 56 32.328125 56 
Q 43.359375 56 49.78125 48.890625 
Q 56.203125 41.796875 56.203125 29.59375 
z
M 47.21875 32.234375 
Q 47.125 39.59375 43.09375 43.984375 
Q 39.0625 48.390625 32.421875 48.390625 
Q 24.90625 48.390625 20.390625 44.140625 
Q 15.875 39.890625 15.1875 32.171875 
z
" id="DejaVuSans-101"/>
       <path d="M 2.984375 54.6875 
L 12.5 54.6875 
L 29.59375 8.796875 
L 46.6875 54.6875 
L 56.203125 54.6875 
L 35.6875 0 
L 23.484375 0 
z
" id="DejaVuSans-118"/>
       <path d="M 34.28125 27.484375 
Q 23.390625 27.484375 19.1875 25 
Q 14.984375 22.515625 14.984375 16.5 
Q 14.984375 11.71875 18.140625 8.90625 
Q 21.296875 6.109375 26.703125 6.109375 
Q 34.1875 6.109375 38.703125 11.40625 
Q 43.21875 16.703125 43.21875 25.484375 
L 43.21875 27.484375 
z
M 52.203125 31.203125 
L 52.203125 0 
L 43.21875 0 
L 43.21875 8.296875 
Q 40.140625 3.328125 35.546875 0.953125 
Q 30.953125 -1.421875 24.3125 -1.421875 
Q 15.921875 -1.421875 10.953125 3.296875 
Q 6 8.015625 6 15.921875 
Q 6 25.140625 12.171875 29.828125 
Q 18.359375 34.515625 30.609375 34.515625 
L 43.21875 34.515625 
L 43.21875 35.40625 
Q 43.21875 41.609375 39.140625 45 
Q 35.0625 48.390625 27.6875 48.390625 
Q 23 48.390625 18.546875 47.265625 
Q 14.109375 46.140625 10.015625 43.890625 
L 10.015625 52.203125 
Q 14.9375 54.109375 19.578125 55.046875 
Q 24.21875 56 28.609375 56 
Q 40.484375 56 46.34375 49.84375 
Q 52.203125 43.703125 52.203125 31.203125 
z
" id="DejaVuSans-97"/>
       <path d="M 44.28125 53.078125 
L 44.28125 44.578125 
Q 40.484375 46.53125 36.375 47.5 
Q 32.28125 48.484375 27.875 48.484375 
Q 21.1875 48.484375 17.84375 46.4375 
Q 14.5 44.390625 14.5 40.28125 
Q 14.5 37.15625 16.890625 35.375 
Q 19.28125 33.59375 26.515625 31.984375 
L 29.59375 31.296875 
Q 39.15625 29.25 43.1875 25.515625 
Q 47.21875 21.78125 47.21875 15.09375 
Q 47.21875 7.46875 41.1875 3.015625 
Q 35.15625 -1.421875 24.609375 -1.421875 
Q 20.21875 -1.421875 15.453125 -0.5625 
Q 10.6875 0.296875 5.421875 2 
L 5.421875 11.28125 
Q 10.40625 8.6875 15.234375 7.390625 
Q 20.0625 6.109375 24.8125 6.109375 
Q 31.15625 6.109375 34.5625 8.28125 
Q 37.984375 10.453125 37.984375 14.40625 
Q 37.984375 18.0625 35.515625 20.015625 
Q 33.0625 21.96875 24.703125 23.78125 
L 21.578125 24.515625 
Q 13.234375 26.265625 9.515625 29.90625 
Q 5.8125 33.546875 5.8125 39.890625 
Q 5.8125 47.609375 11.28125 51.796875 
Q 16.75 56 26.8125 56 
Q 31.78125 56 36.171875 55.265625 
Q 40.578125 54.546875 44.28125 53.078125 
z
" id="DejaVuSans-115"/>
       <path d="M 25.390625 72.90625 
L 33.6875 72.90625 
L 8.296875 -9.28125 
L 0 -9.28125 
z
" id="DejaVuSans-47"/>
       <path d="M 45.40625 46.390625 
L 45.40625 75.984375 
L 54.390625 75.984375 
L 54.390625 0 
L 45.40625 0 
L 45.40625 8.203125 
Q 42.578125 3.328125 38.25 0.953125 
Q 33.9375 -1.421875 27.875 -1.421875 
Q 17.96875 -1.421875 11.734375 6.484375 
Q 5.515625 14.40625 5.515625 27.296875 
Q 5.515625 40.1875 11.734375 48.09375 
Q 17.96875 56 27.875 56 
Q 33.9375 56 38.25 53.625 
Q 42.578125 51.265625 45.40625 46.390625 
z
M 14.796875 27.296875 
Q 14.796875 17.390625 18.875 11.75 
Q 22.953125 6.109375 30.078125 6.109375 
Q 37.203125 6.109375 41.296875 11.75 
Q 45.40625 17.390625 45.40625 27.296875 
Q 45.40625 37.203125 41.296875 42.84375 
Q 37.203125 48.484375 30.078125 48.484375 
Q 22.953125 48.484375 18.875 42.84375 
Q 14.796875 37.203125 14.796875 27.296875 
z
" id="DejaVuSans-100"/>
       <path d="M 9.421875 54.6875 
L 18.40625 54.6875 
L 18.40625 0 
L 9.421875 0 
z
M 9.421875 75.984375 
L 18.40625 75.984375 
L 18.40625 64.59375 
L 9.421875 64.59375 
z
" id="DejaVuSans-105"/>
       <path d="M 52 44.1875 
Q 55.375 50.25 60.0625 53.125 
Q 64.75 56 71.09375 56 
Q 79.640625 56 84.28125 50.015625 
Q 88.921875 44.046875 88.921875 33.015625 
L 88.921875 0 
L 79.890625 0 
L 79.890625 32.71875 
Q 79.890625 40.578125 77.09375 44.375 
Q 74.3125 48.1875 68.609375 48.1875 
Q 61.625 48.1875 57.5625 43.546875 
Q 53.515625 38.921875 53.515625 30.90625 
L 53.515625 0 
L 44.484375 0 
L 44.484375 32.71875 
Q 44.484375 40.625 41.703125 44.40625 
Q 38.921875 48.1875 33.109375 48.1875 
Q 26.21875 48.1875 22.15625 43.53125 
Q 18.109375 38.875 18.109375 30.90625 
L 18.109375 0 
L 9.078125 0 
L 9.078125 54.6875 
L 18.109375 54.6875 
L 18.109375 46.1875 
Q 21.1875 51.21875 25.484375 53.609375 
Q 29.78125 56 35.6875 56 
Q 41.65625 56 45.828125 52.96875 
Q 50 49.953125 52 44.1875 
z
" id="DejaVuSans-109"/>
       <path d="M 54.890625 33.015625 
L 54.890625 0 
L 45.90625 0 
L 45.90625 32.71875 
Q 45.90625 40.484375 42.875 44.328125 
Q 39.84375 48.1875 33.796875 48.1875 
Q 26.515625 48.1875 22.3125 43.546875 
Q 18.109375 38.921875 18.109375 30.90625 
L 18.109375 0 
L 9.078125 0 
L 9.078125 54.6875 
L 18.109375 54.6875 
L 18.109375 46.1875 
Q 21.34375 51.125 25.703125 53.5625 
Q 30.078125 56 35.796875 56 
Q 45.21875 56 50.046875 50.171875 
Q 54.890625 44.34375 54.890625 33.015625 
z
" id="DejaVuSans-110"/>
       <path d="M 8.015625 75.875 
L 15.828125 75.875 
Q 23.140625 64.359375 26.78125 53.3125 
Q 30.421875 42.28125 30.421875 31.390625 
Q 30.421875 20.453125 26.78125 9.375 
Q 23.140625 -1.703125 15.828125 -13.1875 
L 8.015625 -13.1875 
Q 14.5 -2 17.703125 9.0625 
Q 20.90625 20.125 20.90625 31.390625 
Q 20.90625 42.671875 17.703125 53.65625 
Q 14.5 64.65625 8.015625 75.875 
z
" id="DejaVuSans-41"/>
      </defs>
      <use xlink:href="#DejaVuSans-108"/>
      <use x="27.783203" xlink:href="#DejaVuSans-111"/>
      <use x="88.964844" xlink:href="#DejaVuSans-103"/>
      <use x="152.441406" xlink:href="#DejaVuSans-49"/>
      <use x="216.064453" xlink:href="#DejaVuSans-48"/>
      <use x="279.6875" xlink:href="#DejaVuSans-40"/>
      <use x="318.701172" xlink:href="#DejaVuSans-35"/>
      <use x="402.490234" xlink:href="#DejaVuSans-32"/>
      <use x="434.277344" xlink:href="#DejaVuSans-102"/>
      <use x="463.982422" xlink:href="#DejaVuSans-45"/>
      <use x="500.066406" xlink:href="#DejaVuSans-101"/>
      <use x="561.589844" xlink:href="#DejaVuSans-118"/>
      <use x="620.769531" xlink:href="#DejaVuSans-97"/>
      <use x="682.048828" xlink:href="#DejaVuSans-108"/>
      <use x="709.832031" xlink:href="#DejaVuSans-115"/>
      <use x="761.931641" xlink:href="#DejaVuSans-32"/>
      <use x="793.71875" xlink:href="#DejaVuSans-47"/>
      <use x="827.410156" xlink:href="#DejaVuSans-32"/>
      <use x="859.197266" xlink:href="#DejaVuSans-100"/>
      <use x="922.673828" xlink:href="#DejaVuSans-105"/>
      <use x="950.457031" xlink:href="#DejaVuSans-109"/>
      <use x="1047.869141" xlink:href="#DejaVuSans-101"/>
      <use x="1109.392578" xlink:href="#DejaVuSans-110"/>
      <use x="1172.771484" xlink:href="#DejaVuSans-115"/>
      <use x="1224.871094" xlink:href="#DejaVuSans-105"/>
      <use x="1252.654297" xlink:href="#DejaVuSans-111"/>
      <use x="1313.835938" xlink:href="#DejaVuSans-110"/>
      <use x="1377.214844" xlink:href="#DejaVuSans-41"/>
     </g>
    </g>
   </g>
   <g id="matplotlib.axis_2">
    <g id="ytick_1">
     <g id="line2d_17">
      <path clip-path="url(#peaab709359)" d="M 57.6 298.944 
L 338.688 298.944 
" style="fill:none;stroke:#b0b0b0;stroke-linecap:square;stroke-width:0.8;"/>
     </g>
     <g id="line2d_18">
      <defs>
       <path d="M 0 0 
L -3.5 0 
" id="mc54de83dc9" style="stroke:#000000;stroke-width:0.8;"/>
      </defs>
      <g>
       <use style="stroke:#000000;stroke-width:0.8;" x="57.6" xlink:href="#mc54de83dc9" y="298.944"/>
      </g>
     </g>
     <g id="text_6">
      <!-- 0.0 -->
      <g transform="translate(25.155 305.02275)scale(0.16 -0.16)">
       <defs>
        <path d="M 10.6875 12.40625 
L 21 12.40625 
L 21 0 
L 10.6875 0 
z
" id="DejaVuSans-46"/>
       </defs>
       <use xlink:href="#DejaVuSans-48"/>
       <use x="63.623047" xlink:href="#DejaVuSans-46"/>
       <use x="95.410156" xlink:href="#DejaVuSans-48"/>
      </g>
     </g>
    </g>
    <g id="ytick_2">
     <g id="line2d_19">
      <path clip-path="url(#peaab709359)" d="M 57.6 240.431525 
L 338.688 240.431525 
" style="fill:none;stroke:#b0b0b0;stroke-linecap:square;stroke-width:0.8;"/>
     </g>
     <g id="line2d_20">
      <g>
       <use style="stroke:#000000;stroke-width:0.8;" x="57.6" xlink:href="#mc54de83dc9" y="240.431525"/>
      </g>
     </g>
     <g id="text_7">
      <!-- 0.2 -->
      <g transform="translate(25.155 246.510275)scale(0.16 -0.16)">
       <use xlink:href="#DejaVuSans-48"/>
       <use x="63.623047" xlink:href="#DejaVuSans-46"/>
       <use x="95.410156" xlink:href="#DejaVuSans-50"/>
      </g>
     </g>
    </g>
    <g id="ytick_3">
     <g id="line2d_21">
      <path clip-path="url(#peaab709359)" d="M 57.6 181.91905 
L 338.688 181.91905 
" style="fill:none;stroke:#b0b0b0;stroke-linecap:square;stroke-width:0.8;"/>
     </g>
     <g id="line2d_22">
      <g>
       <use style="stroke:#000000;stroke-width:0.8;" x="57.6" xlink:href="#mc54de83dc9" y="181.91905"/>
      </g>
     </g>
     <g id="text_8">
      <!-- 0.4 -->
      <g transform="translate(25.155 187.9978)scale(0.16 -0.16)">
       <use xlink:href="#DejaVuSans-48"/>
       <use x="63.623047" xlink:href="#DejaVuSans-46"/>
       <use x="95.410156" xlink:href="#DejaVuSans-52"/>
      </g>
     </g>
    </g>
    <g id="ytick_4">
     <g id="line2d_23">
      <path clip-path="url(#peaab709359)" d="M 57.6 123.406574 
L 338.688 123.406574 
" style="fill:none;stroke:#b0b0b0;stroke-linecap:square;stroke-width:0.8;"/>
     </g>
     <g id="line2d_24">
      <g>
       <use style="stroke:#000000;stroke-width:0.8;" x="57.6" xlink:href="#mc54de83dc9" y="123.406574"/>
      </g>
     </g>
     <g id="text_9">
      <!-- 0.6 -->
      <g transform="translate(25.155 129.485324)scale(0.16 -0.16)">
       <use xlink:href="#DejaVuSans-48"/>
       <use x="63.623047" xlink:href="#DejaVuSans-46"/>
       <use x="95.410156" xlink:href="#DejaVuSans-54"/>
      </g>
     </g>
    </g>
    <g id="ytick_5">
     <g id="line2d_25">
      <path clip-path="url(#peaab709359)" d="M 57.6 64.894099 
L 338.688 64.894099 
" style="fill:none;stroke:#b0b0b0;stroke-linecap:square;stroke-width:0.8;"/>
     </g>
     <g id="line2d_26">
      <g>
       <use style="stroke:#000000;stroke-width:0.8;" x="57.6" xlink:href="#mc54de83dc9" y="64.894099"/>
      </g>
     </g>
     <g id="text_10">
      <!-- 0.8 -->
      <g transform="translate(25.155 70.972849)scale(0.16 -0.16)">
       <defs>
        <path d="M 31.78125 34.625 
Q 24.75 34.625 20.71875 30.859375 
Q 16.703125 27.09375 16.703125 20.515625 
Q 16.703125 13.921875 20.71875 10.15625 
Q 24.75 6.390625 31.78125 6.390625 
Q 38.8125 6.390625 42.859375 10.171875 
Q 46.921875 13.96875 46.921875 20.515625 
Q 46.921875 27.09375 42.890625 30.859375 
Q 38.875 34.625 31.78125 34.625 
z
M 21.921875 38.8125 
Q 15.578125 40.375 12.03125 44.71875 
Q 8.5 49.078125 8.5 55.328125 
Q 8.5 64.0625 14.71875 69.140625 
Q 20.953125 74.21875 31.78125 74.21875 
Q 42.671875 74.21875 48.875 69.140625 
Q 55.078125 64.0625 55.078125 55.328125 
Q 55.078125 49.078125 51.53125 44.71875 
Q 48 40.375 41.703125 38.8125 
Q 48.828125 37.15625 52.796875 32.3125 
Q 56.78125 27.484375 56.78125 20.515625 
Q 56.78125 9.90625 50.3125 4.234375 
Q 43.84375 -1.421875 31.78125 -1.421875 
Q 19.734375 -1.421875 13.25 4.234375 
Q 6.78125 9.90625 6.78125 20.515625 
Q 6.78125 27.484375 10.78125 32.3125 
Q 14.796875 37.15625 21.921875 38.8125 
z
M 18.3125 54.390625 
Q 18.3125 48.734375 21.84375 45.5625 
Q 25.390625 42.390625 31.78125 42.390625 
Q 38.140625 42.390625 41.71875 45.5625 
Q 45.3125 48.734375 45.3125 54.390625 
Q 45.3125 60.0625 41.71875 63.234375 
Q 38.140625 66.40625 31.78125 66.40625 
Q 25.390625 66.40625 21.84375 63.234375 
Q 18.3125 60.0625 18.3125 54.390625 
z
" id="DejaVuSans-56"/>
       </defs>
       <use xlink:href="#DejaVuSans-48"/>
       <use x="63.623047" xlink:href="#DejaVuSans-46"/>
       <use x="95.410156" xlink:href="#DejaVuSans-56"/>
      </g>
     </g>
    </g>
    <g id="ytick_6">
     <g id="line2d_27">
      <path clip-path="url(#peaab709359)" d="M 57.6 6.381624 
L 338.688 6.381624 
" style="fill:none;stroke:#b0b0b0;stroke-linecap:square;stroke-width:0.8;"/>
     </g>
     <g id="line2d_28">
      <g>
       <use style="stroke:#000000;stroke-width:0.8;" x="57.6" xlink:href="#mc54de83dc9" y="6.381624"/>
      </g>
     </g>
     <g id="text_11">
      <!-- 1.0 -->
      <g transform="translate(25.155 12.460374)scale(0.16 -0.16)">
       <use xlink:href="#DejaVuSans-49"/>
       <use x="63.623047" xlink:href="#DejaVuSans-46"/>
       <use x="95.410156" xlink:href="#DejaVuSans-48"/>
      </g>
     </g>
    </g>
    <g id="text_12">
     <!-- Fraction of function,target pairs -->
     <g transform="translate(17.619531 285.585)rotate(-90)scale(0.17 -0.17)">
      <defs>
       <path d="M 9.8125 72.90625 
L 51.703125 72.90625 
L 51.703125 64.59375 
L 19.671875 64.59375 
L 19.671875 43.109375 
L 48.578125 43.109375 
L 48.578125 34.8125 
L 19.671875 34.8125 
L 19.671875 0 
L 9.8125 0 
z
" id="DejaVuSans-70"/>
       <path d="M 41.109375 46.296875 
Q 39.59375 47.171875 37.8125 47.578125 
Q 36.03125 48 33.890625 48 
Q 26.265625 48 22.1875 43.046875 
Q 18.109375 38.09375 18.109375 28.8125 
L 18.109375 0 
L 9.078125 0 
L 9.078125 54.6875 
L 18.109375 54.6875 
L 18.109375 46.1875 
Q 20.953125 51.171875 25.484375 53.578125 
Q 30.03125 56 36.53125 56 
Q 37.453125 56 38.578125 55.875 
Q 39.703125 55.765625 41.0625 55.515625 
z
" id="DejaVuSans-114"/>
       <path d="M 48.78125 52.59375 
L 48.78125 44.1875 
Q 44.96875 46.296875 41.140625 47.34375 
Q 37.3125 48.390625 33.40625 48.390625 
Q 24.65625 48.390625 19.8125 42.84375 
Q 14.984375 37.3125 14.984375 27.296875 
Q 14.984375 17.28125 19.8125 11.734375 
Q 24.65625 6.203125 33.40625 6.203125 
Q 37.3125 6.203125 41.140625 7.25 
Q 44.96875 8.296875 48.78125 10.40625 
L 48.78125 2.09375 
Q 45.015625 0.34375 40.984375 -0.53125 
Q 36.96875 -1.421875 32.421875 -1.421875 
Q 20.0625 -1.421875 12.78125 6.34375 
Q 5.515625 14.109375 5.515625 27.296875 
Q 5.515625 40.671875 12.859375 48.328125 
Q 20.21875 56 33.015625 56 
Q 37.15625 56 41.109375 55.140625 
Q 45.0625 54.296875 48.78125 52.59375 
z
" id="DejaVuSans-99"/>
       <path d="M 18.3125 70.21875 
L 18.3125 54.6875 
L 36.8125 54.6875 
L 36.8125 47.703125 
L 18.3125 47.703125 
L 18.3125 18.015625 
Q 18.3125 11.328125 20.140625 9.421875 
Q 21.96875 7.515625 27.59375 7.515625 
L 36.8125 7.515625 
L 36.8125 0 
L 27.59375 0 
Q 17.1875 0 13.234375 3.875 
Q 9.28125 7.765625 9.28125 18.015625 
L 9.28125 47.703125 
L 2.6875 47.703125 
L 2.6875 54.6875 
L 9.28125 54.6875 
L 9.28125 70.21875 
z
" id="DejaVuSans-116"/>
       <path d="M 8.5 21.578125 
L 8.5 54.6875 
L 17.484375 54.6875 
L 17.484375 21.921875 
Q 17.484375 14.15625 20.5 10.265625 
Q 23.53125 6.390625 29.59375 6.390625 
Q 36.859375 6.390625 41.078125 11.03125 
Q 45.3125 15.671875 45.3125 23.6875 
L 45.3125 54.6875 
L 54.296875 54.6875 
L 54.296875 0 
L 45.3125 0 
L 45.3125 8.40625 
Q 42.046875 3.421875 37.71875 1 
Q 33.40625 -1.421875 27.6875 -1.421875 
Q 18.265625 -1.421875 13.375 4.4375 
Q 8.5 10.296875 8.5 21.578125 
z
M 31.109375 56 
z
" id="DejaVuSans-117"/>
       <path d="M 11.71875 12.40625 
L 22.015625 12.40625 
L 22.015625 4 
L 14.015625 -11.625 
L 7.71875 -11.625 
L 11.71875 4 
z
" id="DejaVuSans-44"/>
       <path d="M 18.109375 8.203125 
L 18.109375 -20.796875 
L 9.078125 -20.796875 
L 9.078125 54.6875 
L 18.109375 54.6875 
L 18.109375 46.390625 
Q 20.953125 51.265625 25.265625 53.625 
Q 29.59375 56 35.59375 56 
Q 45.5625 56 51.78125 48.09375 
Q 58.015625 40.1875 58.015625 27.296875 
Q 58.015625 14.40625 51.78125 6.484375 
Q 45.5625 -1.421875 35.59375 -1.421875 
Q 29.59375 -1.421875 25.265625 0.953125 
Q 20.953125 3.328125 18.109375 8.203125 
z
M 48.6875 27.296875 
Q 48.6875 37.203125 44.609375 42.84375 
Q 40.53125 48.484375 33.40625 48.484375 
Q 26.265625 48.484375 22.1875 42.84375 
Q 18.109375 37.203125 18.109375 27.296875 
Q 18.109375 17.390625 22.1875 11.75 
Q 26.265625 6.109375 33.40625 6.109375 
Q 40.53125 6.109375 44.609375 11.75 
Q 48.6875 17.390625 48.6875 27.296875 
z
" id="DejaVuSans-112"/>
      </defs>
      <use xlink:href="#DejaVuSans-70"/>
      <use x="50.269531" xlink:href="#DejaVuSans-114"/>
      <use x="91.382812" xlink:href="#DejaVuSans-97"/>
      <use x="152.662109" xlink:href="#DejaVuSans-99"/>
      <use x="207.642578" xlink:href="#DejaVuSans-116"/>
      <use x="246.851562" xlink:href="#DejaVuSans-105"/>
      <use x="274.634766" xlink:href="#DejaVuSans-111"/>
      <use x="335.816406" xlink:href="#DejaVuSans-110"/>
      <use x="399.195312" xlink:href="#DejaVuSans-32"/>
      <use x="430.982422" xlink:href="#DejaVuSans-111"/>
      <use x="492.164062" xlink:href="#DejaVuSans-102"/>
      <use x="527.369141" xlink:href="#DejaVuSans-32"/>
      <use x="559.15625" xlink:href="#DejaVuSans-102"/>
      <use x="594.361328" xlink:href="#DejaVuSans-117"/>
      <use x="657.740234" xlink:href="#DejaVuSans-110"/>
      <use x="721.119141" xlink:href="#DejaVuSans-99"/>
      <use x="776.099609" xlink:href="#DejaVuSans-116"/>
      <use x="815.308594" xlink:href="#DejaVuSans-105"/>
      <use x="843.091797" xlink:href="#DejaVuSans-111"/>
      <use x="904.273438" xlink:href="#DejaVuSans-110"/>
      <use x="967.652344" xlink:href="#DejaVuSans-44"/>
      <use x="999.439453" xlink:href="#DejaVuSans-116"/>
      <use x="1038.648438" xlink:href="#DejaVuSans-97"/>
      <use x="1099.927734" xlink:href="#DejaVuSans-114"/>
      <use x="1139.291016" xlink:href="#DejaVuSans-103"/>
      <use x="1202.767578" xlink:href="#DejaVuSans-101"/>
      <use x="1264.291016" xlink:href="#DejaVuSans-116"/>
      <use x="1303.5" xlink:href="#DejaVuSans-32"/>
      <use x="1335.287109" xlink:href="#DejaVuSans-112"/>
      <use x="1398.763672" xlink:href="#DejaVuSans-97"/>
      <use x="1460.042969" xlink:href="#DejaVuSans-105"/>
      <use x="1487.826172" xlink:href="#DejaVuSans-114"/>
      <use x="1528.939453" xlink:href="#DejaVuSans-115"/>
     </g>
    </g>
   </g>
   <g id="line2d_29">
    <defs>
     <path d="M 0 1.5 
C 0.397805 1.5 0.77937 1.341951 1.06066 1.06066 
C 1.341951 0.77937 1.5 0.397805 1.5 0 
C 1.5 -0.397805 1.341951 -0.77937 1.06066 -1.06066 
C 0.77937 -1.341951 0.397805 -1.5 0 -1.5 
C -0.397805 -1.5 -0.77937 -1.341951 -1.06066 -1.06066 
C -1.341951 -0.77937 -1.5 -0.397805 -1.5 0 
C -1.5 0.397805 -1.341951 0.77937 -1.06066 1.06066 
C -0.77937 1.341951 -0.397805 1.5 0 1.5 
z
" id="mc76a263d3c" style="stroke:#000080;"/>
    </defs>
    <g>
     <use style="fill:#000080;stroke:#000080;" x="192.745118" xlink:href="#mc76a263d3c" y="235.842311"/>
     <use style="fill:#000080;stroke:#000080;" x="192.745118" xlink:href="#mc76a263d3c" y="235.842311"/>
    </g>
   </g>
   <g id="line2d_30">
    <path d="M 120.093994 298.944 
L 120.093994 297.796697 
L 121.189196 297.796697 
L 121.189196 297.223045 
L 129.480244 297.223045 
L 129.480244 296.649393 
L 130.036864 296.649393 
L 130.036864 296.075741 
L 130.218525 296.075741 
L 130.30865 294.928438 
L 130.752422 294.928438 
L 130.839837 291.486528 
L 131.013364 291.486528 
L 131.013364 290.339224 
L 131.355321 290.339224 
L 131.439773 289.191921 
L 131.60746 289.191921 
L 131.60746 288.044617 
L 131.77355 288.044617 
L 131.77355 286.323662 
L 131.938072 286.323662 
L 132.019755 284.602707 
L 132.342714 284.602707 
L 132.422528 282.3081 
L 132.73818 282.3081 
L 132.816208 280.013493 
L 132.893889 280.013493 
L 132.971225 278.86619 
L 133.04822 278.86619 
L 133.04822 277.718886 
L 133.201197 277.718886 
L 133.277185 274.850628 
L 133.352844 274.850628 
L 133.352844 273.703324 
L 133.503183 273.703324 
L 133.503183 273.129673 
L 133.800029 273.129673 
L 133.800029 271.982369 
L 134.7313 271.982369 
L 134.7313 271.408718 
L 135.280614 271.408718 
L 135.280614 270.835066 
L 135.878591 270.835066 
L 135.943785 269.687762 
L 136.393441 269.687762 
L 136.393441 269.114111 
L 136.893527 269.114111 
L 136.893527 267.966807 
L 139.835248 267.966807 
L 139.835248 267.393156 
L 140.39868 267.393156 
L 140.39868 266.819504 
L 140.747977 266.819504 
L 140.747977 266.245852 
L 141.235139 266.245852 
L 141.235139 265.6722 
L 141.615302 265.6722 
L 141.615302 265.098549 
L 143.187472 265.098549 
L 143.187472 264.524897 
L 143.485587 264.524897 
L 143.485587 263.951245 
L 146.288102 263.951245 
L 146.288102 263.377593 
L 146.714338 263.377593 
L 146.749392 262.23029 
L 147.368603 262.23029 
L 147.402367 261.082987 
L 147.603592 261.082987 
L 147.636905 259.935683 
L 147.802521 259.935683 
L 147.802521 258.78838 
L 147.999207 258.78838 
L 147.999207 258.214728 
L 148.193699 258.214728 
L 148.290138 256.493773 
L 148.576295 256.493773 
L 148.576295 255.920121 
L 149.31719 255.920121 
L 149.31719 254.772818 
L 149.646525 254.772818 
L 149.646525 254.199166 
L 152.001148 254.199166 
L 152.001148 253.625514 
L 153.585377 253.625514 
L 153.585377 253.051863 
L 154.596634 253.051863 
L 154.596634 252.478211 
L 154.752243 252.478211 
L 154.752243 251.904559 
L 154.906477 251.904559 
L 154.906477 251.330907 
L 155.146121 251.330907 
L 155.146121 250.757256 
L 155.275461 250.757256 
L 155.275461 250.183604 
L 160.103486 250.183604 
L 160.103486 249.609952 
L 160.265562 249.609952 
L 160.265562 249.036301 
L 161.926237 249.036301 
L 162.028606 247.315345 
L 163.801742 247.315345 
L 163.801742 246.741694 
L 167.027338 246.741694 
L 167.027338 246.168042 
L 168.354881 246.168042 
L 168.365023 245.020738 
L 168.60668 245.020738 
L 168.60668 244.447087 
L 169.94401 244.447087 
L 169.94401 243.873435 
L 170.137423 243.873435 
L 170.137423 243.299783 
L 171.696007 243.299783 
L 171.696007 242.726132 
L 172.027878 242.726132 
L 172.027878 242.15248 
L 173.636143 242.15248 
L 173.636143 241.578828 
L 175.259407 241.578828 
L 175.341154 240.431525 
L 177.110469 240.431525 
L 177.110469 239.857873 
L 177.330141 239.857873 
L 177.354379 238.71057 
L 178.519578 238.71057 
L 178.519578 238.136918 
L 186.189996 238.136918 
L 186.189996 237.563266 
L 188.407055 237.563266 
L 188.407055 236.989614 
L 190.385261 236.989614 
L 190.385261 236.415963 
L 192.745118 236.415963 
L 192.745118 235.842311 
L 338.688 235.842311 
L 338.688 235.842311 
" style="fill:none;stroke:#000080;stroke-linecap:square;stroke-width:1.5;"/>
   </g>
   <g id="line2d_31">
    <defs>
     <path d="M 0 6 
C 1.591219 6 3.117479 5.367802 4.242641 4.242641 
C 5.367802 3.117479 6 1.591219 6 0 
C 6 -1.591219 5.367802 -3.117479 4.242641 -4.242641 
C 3.117479 -5.367802 1.591219 -6 0 -6 
C -1.591219 -6 -3.117479 -5.367802 -4.242641 -4.242641 
C -5.367802 -3.117479 -6 -1.591219 -6 0 
C -6 1.591219 -5.367802 3.117479 -4.242641 4.242641 
C -3.117479 5.367802 -1.591219 6 0 6 
z
" id="m5f4c2ca1c2" style="stroke:#000080;stroke-width:1.5;"/>
    </defs>
    <g>
     <use style="fill-opacity:0;stroke:#000080;stroke-width:1.5;" x="132.971225" xlink:href="#m5f4c2ca1c2" y="279.439842"/>
     <use style="fill-opacity:0;stroke:#000080;stroke-width:1.5;" x="148.576295" xlink:href="#m5f4c2ca1c2" y="255.920121"/>
     <use style="fill-opacity:0;stroke:#000080;stroke-width:1.5;" x="192.745118" xlink:href="#m5f4c2ca1c2" y="236.415963"/>
     <use style="fill-opacity:0;stroke:#000080;stroke-width:1.5;" x="192.745118" xlink:href="#m5f4c2ca1c2" y="235.842311"/>
     <use style="fill-opacity:0;stroke:#000080;stroke-width:1.5;" x="338.688" xlink:href="#m5f4c2ca1c2" y="235.842311"/>
    </g>
   </g>
   <g id="line2d_32">
    <path style="fill:none;stroke:#000080;stroke-linecap:square;stroke-width:1.5;"/>
    <g/>
   </g>
   <g id="line2d_33">
    <path clip-path="url(#peaab709359)" d="M 137.558536 267.966807 
" style="fill:none;stroke:#000080;stroke-linecap:square;stroke-width:1.5;"/>
    <defs>
     <path d="M -12 12 
L 12 -12 
M -12 -12 
L 12 12 
" id="m91dab688ca" style="stroke:#000080;"/>
    </defs>
    <g clip-path="url(#peaab709359)">
     <use style="fill:#000080;stroke:#000080;" x="137.558536" xlink:href="#m91dab688ca" y="267.966807"/>
    </g>
   </g>
   <g id="line2d_34">
    <defs>
     <path d="M 0 1.5 
C 0.397805 1.5 0.77937 1.341951 1.06066 1.06066 
C 1.341951 0.77937 1.5 0.397805 1.5 0 
C 1.5 -0.397805 1.341951 -0.77937 1.06066 -1.06066 
C 0.77937 -1.341951 0.397805 -1.5 0 -1.5 
C -0.397805 -1.5 -0.77937 -1.341951 -1.06066 -1.06066 
C -1.341951 -0.77937 -1.5 -0.397805 -1.5 0 
C -1.5 0.397805 -1.341951 0.77937 -1.06066 1.06066 
C -0.77937 1.341951 -0.397805 1.5 0 1.5 
z
" id="m9457b14419" style="stroke:#ff00ff;"/>
    </defs>
    <g>
     <use style="fill:#ff00ff;stroke:#ff00ff;" x="186.436338" xlink:href="#m9457b14419" y="247.315345"/>
     <use style="fill:#ff00ff;stroke:#ff00ff;" x="186.436338" xlink:href="#m9457b14419" y="247.315345"/>
    </g>
   </g>
   <g id="line2d_35">
    <path d="M 104.826449 298.944 
L 104.826449 298.370348 
L 106.66386 298.370348 
L 106.66386 297.796697 
L 107.347841 297.796697 
L 107.347841 297.223045 
L 108.326001 297.223045 
L 108.326001 296.075741 
L 108.948899 296.075741 
L 108.948899 294.354786 
L 109.550313 294.354786 
L 109.550313 293.207483 
L 110.968922 293.207483 
L 110.968922 292.633831 
L 111.505558 292.633831 
L 111.505558 292.060179 
L 112.026172 292.060179 
L 112.026172 291.486528 
L 112.280765 291.486528 
L 112.280765 290.339224 
L 112.531694 290.339224 
L 112.531694 289.765573 
L 112.779064 289.765573 
L 112.779064 288.618269 
L 113.022974 288.618269 
L 113.022974 286.897314 
L 113.26352 286.897314 
L 113.26352 286.323662 
L 113.500792 286.323662 
L 113.500792 285.75001 
L 113.73488 285.75001 
L 113.73488 285.176359 
L 113.965867 285.176359 
L 113.965867 284.602707 
L 114.193835 284.602707 
L 114.193835 283.455404 
L 114.418861 283.455404 
L 114.418861 282.3081 
L 114.860386 282.3081 
L 114.860386 280.013493 
L 115.077025 280.013493 
L 115.077025 279.439842 
L 115.502395 279.439842 
L 115.502395 278.86619 
L 115.711251 278.86619 
L 115.711251 277.718886 
L 115.917635 277.718886 
L 115.917635 276.571583 
L 116.121606 276.571583 
L 116.121606 275.997931 
L 116.323218 275.997931 
L 116.323218 275.42428 
L 117.297733 275.42428 
L 117.297733 274.276976 
L 117.486268 274.276976 
L 117.486268 273.129673 
L 117.857331 273.129673 
L 117.857331 272.556021 
L 118.399528 272.556021 
L 118.399528 271.982369 
L 118.925375 271.982369 
L 118.925375 271.408718 
L 119.097192 271.408718 
L 119.097192 270.835066 
L 129.385722 270.835066 
L 129.385722 270.261414 
L 130.487516 270.261414 
L 130.487516 269.687762 
L 130.839837 269.687762 
L 130.839837 269.114111 
L 131.185181 269.114111 
L 131.270459 267.966807 
L 132.581068 267.966807 
L 132.581068 267.393156 
L 133.04822 267.393156 
L 133.04822 266.819504 
L 133.503183 266.819504 
L 133.503183 266.245852 
L 138.199116 266.245852 
L 138.199116 265.6722 
L 139.306744 265.6722 
L 139.306744 265.098549 
L 139.466984 265.098549 
L 139.466984 264.524897 
L 140.348205 264.524897 
L 140.348205 263.951245 
L 145.665858 263.951245 
L 145.665858 263.377593 
L 146.179895 263.377593 
L 146.252108 262.23029 
L 146.992815 262.23029 
L 146.992815 261.656638 
L 148.417899 261.656638 
L 148.417899 261.082987 
L 150.287105 261.082987 
L 150.287105 259.935683 
L 150.429467 259.935683 
L 150.429467 259.362031 
L 153.105587 259.362031 
L 153.129893 258.214728 
L 154.46214 258.214728 
L 154.46214 257.641076 
L 155.741666 257.641076 
L 155.741666 257.067425 
L 156.737306 257.067425 
L 156.776762 255.920121 
L 161.852746 255.920121 
L 161.852746 255.346469 
L 163.048075 255.346469 
L 163.048075 254.772818 
L 164.973287 254.772818 
L 164.973287 254.199166 
L 165.920069 254.199166 
L 165.920069 253.625514 
L 171.829514 253.625514 
L 171.829514 253.051863 
L 172.948265 253.051863 
L 172.948265 252.478211 
L 173.703462 252.478211 
L 173.703462 251.904559 
L 174.087407 251.904559 
L 174.087407 251.330907 
L 175.823747 251.330907 
L 175.823747 250.757256 
L 176.164164 250.757256 
L 176.274029 249.609952 
L 177.135015 249.609952 
L 177.135015 249.036301 
L 177.559054 249.036301 
L 177.559054 248.462649 
L 178.060472 248.462649 
L 178.060472 247.888997 
L 186.436338 247.888997 
L 186.436338 247.315345 
L 338.688 247.315345 
L 338.688 247.315345 
" style="fill:none;stroke:#ff00ff;stroke-linecap:square;stroke-width:1.5;"/>
   </g>
   <g id="line2d_36">
    <defs>
     <path d="M -0 8.485281 
L 5.091169 0 
L 0 -8.485281 
L -5.091169 -0 
z
" id="ma1e8f05a89" style="stroke:#ff00ff;stroke-linejoin:miter;stroke-width:1.5;"/>
    </defs>
    <g>
     <use style="fill-opacity:0;stroke:#ff00ff;stroke-linejoin:miter;stroke-width:1.5;" x="133.503183" xlink:href="#ma1e8f05a89" y="266.819504"/>
     <use style="fill-opacity:0;stroke:#ff00ff;stroke-linejoin:miter;stroke-width:1.5;" x="186.436338" xlink:href="#ma1e8f05a89" y="247.888997"/>
     <use style="fill-opacity:0;stroke:#ff00ff;stroke-linejoin:miter;stroke-width:1.5;" x="186.436338" xlink:href="#ma1e8f05a89" y="247.315345"/>
     <use style="fill-opacity:0;stroke:#ff00ff;stroke-linejoin:miter;stroke-width:1.5;" x="186.436338" xlink:href="#ma1e8f05a89" y="247.315345"/>
     <use style="fill-opacity:0;stroke:#ff00ff;stroke-linejoin:miter;stroke-width:1.5;" x="338.688" xlink:href="#ma1e8f05a89" y="247.315345"/>
    </g>
   </g>
   <g id="line2d_37">
    <path style="fill:none;stroke:#ff00ff;stroke-linecap:square;stroke-width:1.5;"/>
    <g/>
   </g>
   <g id="line2d_38">
    <path clip-path="url(#peaab709359)" d="M 123.460928 270.835066 
" style="fill:none;stroke:#ff00ff;stroke-linecap:square;stroke-width:1.5;"/>
    <defs>
     <path d="M -12 12 
L 12 -12 
M -12 -12 
L 12 12 
" id="mc7705486ea" style="stroke:#ff00ff;"/>
    </defs>
    <g clip-path="url(#peaab709359)">
     <use style="fill:#ff00ff;stroke:#ff00ff;" x="123.460928" xlink:href="#mc7705486ea" y="270.835066"/>
    </g>
   </g>
   <g id="line2d_39">
    <defs>
     <path d="M 0 1.5 
C 0.397805 1.5 0.77937 1.341951 1.06066 1.06066 
C 1.341951 0.77937 1.5 0.397805 1.5 0 
C 1.5 -0.397805 1.341951 -0.77937 1.06066 -1.06066 
C 0.77937 -1.341951 0.397805 -1.5 0 -1.5 
C -0.397805 -1.5 -0.77937 -1.341951 -1.06066 -1.06066 
C -1.341951 -0.77937 -1.5 -0.397805 -1.5 0 
C -1.5 0.397805 -1.341951 0.77937 -1.06066 1.06066 
C -0.77937 1.341951 -0.397805 1.5 0 1.5 
z
" id="m84c5e975f6" style="stroke:#ff7500;"/>
    </defs>
    <g>
     <use style="fill:#ff7500;stroke:#ff7500;" x="200.213262" xlink:href="#m84c5e975f6" y="201.423208"/>
     <use style="fill:#ff7500;stroke:#ff7500;" x="200.213262" xlink:href="#m84c5e975f6" y="201.423208"/>
    </g>
   </g>
   <g id="line2d_40">
    <path d="M 122.076131 298.944 
L 122.076131 297.796697 
L 123.056911 297.796697 
L 123.056911 296.075741 
L 123.460928 296.075741 
L 123.460928 293.781135 
L 123.725164 293.781135 
L 123.725164 292.633831 
L 123.985457 292.633831 
L 123.985457 291.486528 
L 124.241922 291.486528 
L 124.241922 290.339224 
L 124.368753 290.339224 
L 124.368753 289.765573 
L 124.619683 289.765573 
L 124.619683 288.618269 
L 124.743806 288.618269 
L 124.743806 288.044617 
L 124.867052 288.044617 
L 124.867052 286.897314 
L 125.351508 286.897314 
L 125.351508 286.323662 
L 125.470548 286.323662 
L 125.470548 284.029055 
L 125.588781 284.029055 
L 125.588781 283.455404 
L 125.706218 283.455404 
L 125.706218 282.3081 
L 125.822869 282.3081 
L 125.822869 281.734448 
L 125.938745 281.734448 
L 125.938745 281.160797 
L 126.281824 281.160797 
L 126.281824 280.587145 
L 126.50685 280.587145 
L 126.50685 280.013493 
L 126.729009 280.013493 
L 126.729009 278.292538 
L 127.165014 278.292538 
L 127.165014 277.145235 
L 127.590383 277.145235 
L 127.590383 276.571583 
L 127.799239 276.571583 
L 127.902737 274.850628 
L 128.005624 274.850628 
L 128.005624 272.556021 
L 128.411207 272.556021 
L 128.511146 271.408718 
L 128.610515 271.408718 
L 128.709321 269.687762 
L 129.002426 269.687762 
L 129.002426 268.540459 
L 129.195127 268.540459 
L 129.290685 266.819504 
L 129.480244 266.819504 
L 129.574256 265.6722 
L 129.760775 265.6722 
L 129.760775 261.656638 
L 129.945319 261.656638 
L 129.945319 259.935683 
L 130.30865 259.935683 
L 130.398313 258.78838 
L 130.487516 258.78838 
L 130.487516 258.214728 
L 131.013364 258.214728 
L 131.013364 257.641076 
L 131.355321 257.641076 
L 131.439773 256.493773 
L 131.523818 256.493773 
L 131.523818 255.920121 
L 131.690703 255.920121 
L 131.690703 254.772818 
L 132.342714 254.772818 
L 132.342714 254.199166 
L 133.201197 254.199166 
L 133.201197 253.625514 
L 135.615352 253.625514 
L 135.615352 253.051863 
L 137.910857 253.051863 
L 137.910857 251.904559 
L 138.369812 251.904559 
L 138.369812 251.330907 
L 138.761723 251.330907 
L 138.761723 250.757256 
L 139.678372 250.757256 
L 139.678372 250.183604 
L 140.297583 250.183604 
L 140.297583 249.609952 
L 140.499195 249.609952 
L 140.499195 249.036301 
L 140.747977 249.036301 
L 140.747977 248.462649 
L 140.89556 248.462649 
L 140.89556 247.888997 
L 141.378673 247.888997 
L 141.378673 247.315345 
L 141.80232 247.315345 
L 141.848763 246.168042 
L 142.486301 246.168042 
L 142.486301 245.59439 
L 142.752555 245.59439 
L 142.752555 245.020738 
L 142.884173 245.020738 
L 142.927826 243.299783 
L 143.273169 243.299783 
L 143.273169 242.726132 
L 143.44331 242.726132 
L 143.44331 241.578828 
L 143.902815 241.578828 
L 143.902815 241.005176 
L 144.026061 241.005176 
L 144.026061 240.431525 
L 144.148442 240.431525 
L 144.148442 239.857873 
L 144.669057 239.857873 
L 144.669057 239.284221 
L 144.826168 239.284221 
L 144.904196 238.136918 
L 145.403044 238.136918 
L 145.403044 237.563266 
L 147.164632 237.563266 
L 147.164632 236.989614 
L 149.256637 236.989614 
L 149.256637 236.415963 
L 149.437669 236.415963 
L 149.437669 235.842311 
L 149.616841 235.842311 
L 149.616841 235.268659 
L 151.015013 235.268659 
L 151.015013 233.547704 
L 151.367883 233.547704 
L 151.367883 232.974052 
L 151.76636 232.974052 
L 151.76636 232.400401 
L 152.811246 232.400401 
L 152.811246 231.826749 
L 153.843742 231.826749 
L 153.843742 231.253097 
L 154.507086 231.253097 
L 154.507086 230.679446 
L 154.77436 230.679446 
L 154.81851 229.532142 
L 155.253971 229.532142 
L 155.296925 228.384839 
L 155.55245 228.384839 
L 155.55245 227.811187 
L 155.825108 227.811187 
L 155.825108 227.237535 
L 157.031069 227.237535 
L 157.031069 226.663884 
L 159.371893 226.663884 
L 159.371893 226.090232 
L 159.624763 226.090232 
L 159.641491 224.942928 
L 160.489968 224.942928 
L 160.505887 223.795625 
L 161.675095 223.795625 
L 161.675095 223.221973 
L 161.999419 223.221973 
L 161.999419 222.648321 
L 162.159347 222.648321 
L 162.159347 222.07467 
L 162.770815 222.07467 
L 162.770815 221.501018 
L 164.787563 221.501018 
L 164.787563 220.927366 
L 165.732422 220.927366 
L 165.803027 219.780063 
L 165.896723 219.780063 
L 166.001534 218.632759 
L 166.013141 218.632759 
L 166.013141 218.059108 
L 167.320442 218.059108 
L 167.320442 217.485456 
L 167.449146 217.485456 
L 167.491837 216.338153 
L 167.619287 216.338153 
L 167.672117 215.190849 
L 170.07319 215.190849 
L 170.07319 214.617197 
L 170.535846 214.617197 
L 170.535846 214.043546 
L 171.134225 214.043546 
L 171.134225 213.469894 
L 171.586775 213.469894 
L 171.586775 212.896242 
L 171.91244 212.896242 
L 171.91244 212.322591 
L 173.695995 212.322591 
L 173.695995 211.748939 
L 174.211117 211.748939 
L 174.211117 211.175287 
L 174.718503 211.175287 
L 174.718503 210.601635 
L 176.775685 210.601635 
L 176.775685 210.027984 
L 177.073587 210.027984 
L 177.073587 209.454332 
L 177.571019 209.454332 
L 177.571019 208.88068 
L 178.8617 208.88068 
L 178.8617 208.307029 
L 179.18634 208.307029 
L 179.18634 207.733377 
L 179.701984 207.733377 
L 179.701984 207.159725 
L 183.057076 207.159725 
L 183.057076 206.586073 
L 185.37594 206.586073 
L 185.37594 206.012422 
L 185.783983 206.012422 
L 185.783983 205.43877 
L 186.407536 205.43877 
L 186.407536 204.865118 
L 187.75902 204.865118 
L 187.75902 204.291467 
L 188.54785 204.291467 
L 188.54785 203.717815 
L 188.929275 203.717815 
L 188.929275 203.144163 
L 191.206052 203.144163 
L 191.238858 201.99686 
L 200.213262 201.99686 
L 200.213262 201.423208 
L 338.688 201.423208 
L 338.688 201.423208 
" style="fill:none;stroke:#ff7500;stroke-linecap:square;stroke-width:1.5;"/>
   </g>
   <g id="line2d_41">
    <defs>
     <path d="M 0 -6 
L -1.347084 -1.854102 
L -5.706339 -1.854102 
L -2.179628 0.708204 
L -3.526712 4.854102 
L -0 2.291796 
L 3.526712 4.854102 
L 2.179628 0.708204 
L 5.706339 -1.854102 
L 1.347084 -1.854102 
z
" id="m359b70cdc0" style="stroke:#ff7500;stroke-linejoin:bevel;stroke-width:1.5;"/>
    </defs>
    <g>
     <use style="fill-opacity:0;stroke:#ff7500;stroke-linejoin:bevel;stroke-width:1.5;" x="173.695995" xlink:href="#m359b70cdc0" y="211.748939"/>
     <use style="fill-opacity:0;stroke:#ff7500;stroke-linejoin:bevel;stroke-width:1.5;" x="200.213262" xlink:href="#m359b70cdc0" y="201.99686"/>
     <use style="fill-opacity:0;stroke:#ff7500;stroke-linejoin:bevel;stroke-width:1.5;" x="200.213262" xlink:href="#m359b70cdc0" y="201.423208"/>
     <use style="fill-opacity:0;stroke:#ff7500;stroke-linejoin:bevel;stroke-width:1.5;" x="200.213262" xlink:href="#m359b70cdc0" y="201.423208"/>
     <use style="fill-opacity:0;stroke:#ff7500;stroke-linejoin:bevel;stroke-width:1.5;" x="338.688" xlink:href="#m359b70cdc0" y="201.423208"/>
    </g>
   </g>
   <g id="line2d_42">
    <path style="fill:none;stroke:#ff7500;stroke-linecap:square;stroke-width:1.5;"/>
    <g/>
   </g>
   <g id="line2d_43">
    <path clip-path="url(#peaab709359)" d="M 132.581068 254.199166 
" style="fill:none;stroke:#ff7500;stroke-linecap:square;stroke-width:1.5;"/>
    <defs>
     <path d="M -12 12 
L 12 -12 
M -12 -12 
L 12 12 
" id="m435ecbf3e1" style="stroke:#ff7500;"/>
    </defs>
    <g clip-path="url(#peaab709359)">
     <use style="fill:#ff7500;stroke:#ff7500;" x="132.581068" xlink:href="#m435ecbf3e1" y="254.199166"/>
    </g>
   </g>
   <g id="line2d_44">
    <defs>
     <path d="M 0 1.5 
C 0.397805 1.5 0.77937 1.341951 1.06066 1.06066 
C 1.341951 0.77937 1.5 0.397805 1.5 0 
C 1.5 -0.397805 1.341951 -0.77937 1.06066 -1.06066 
C 0.77937 -1.341951 0.397805 -1.5 0 -1.5 
C -0.397805 -1.5 -0.77937 -1.341951 -1.06066 -1.06066 
C -1.341951 -0.77937 -1.5 -0.397805 -1.5 0 
C -1.5 0.397805 -1.341951 0.77937 -1.06066 1.06066 
C -0.77937 1.341951 -0.397805 1.5 0 1.5 
z
" id="mdd00cb66a6" style="stroke:#6495ed;"/>
    </defs>
    <g>
     <use style="fill:#6495ed;stroke:#6495ed;" x="201.578732" xlink:href="#mdd00cb66a6" y="161.267588"/>
     <use style="fill:#6495ed;stroke:#6495ed;" x="201.578732" xlink:href="#mdd00cb66a6" y="161.267588"/>
    </g>
   </g>
   <g id="line2d_45">
    <path d="M 102.772397 298.944 
L 102.772397 298.370348 
L 104.434538 298.370348 
L 104.434538 297.223045 
L 109.550313 297.223045 
L 109.550313 296.649393 
L 115.502395 296.649393 
L 115.502395 296.075741 
L 117.107138 296.075741 
L 117.107138 295.50209 
L 118.039942 295.50209 
L 118.039942 294.928438 
L 118.576578 294.928438 
L 118.576578 293.781135 
L 118.925375 293.781135 
L 118.925375 292.633831 
L 119.097192 292.633831 
L 119.097192 292.060179 
L 119.267333 292.060179 
L 119.267333 291.486528 
L 120.41399 291.486528 
L 120.41399 288.618269 
L 120.571812 288.618269 
L 120.571812 287.470966 
L 121.489881 287.470966 
L 121.489881 286.897314 
L 121.785469 286.897314 
L 121.785469 286.323662 
L 122.076131 286.323662 
L 122.076131 285.75001 
L 122.219665 285.75001 
L 122.219665 285.176359 
L 122.362027 285.176359 
L 122.362027 284.029055 
L 122.643312 284.029055 
L 122.643312 283.455404 
L 122.920132 283.455404 
L 122.920132 282.881752 
L 123.056911 282.881752 
L 123.056911 282.3081 
L 123.192626 282.3081 
L 123.192626 281.734448 
L 123.460928 281.734448 
L 123.460928 281.160797 
L 123.725164 281.160797 
L 123.725164 280.587145 
L 123.985457 280.587145 
L 123.985457 279.439842 
L 124.114161 279.439842 
L 124.114161 278.86619 
L 124.743806 278.86619 
L 124.743806 277.145235 
L 124.989434 277.145235 
L 124.989434 275.997931 
L 125.23165 275.997931 
L 125.23165 274.850628 
L 125.351508 274.850628 
L 125.351508 274.276976 
L 125.706218 274.276976 
L 125.706218 273.129673 
L 126.168212 273.129673 
L 126.168212 272.556021 
L 126.281824 272.556021 
L 126.281824 271.982369 
L 126.618283 271.982369 
L 126.618283 271.408718 
L 126.839037 271.408718 
L 126.948374 269.687762 
L 127.48501 269.687762 
L 127.590383 268.540459 
L 127.902737 268.540459 
L 127.902737 267.966807 
L 128.807571 267.966807 
L 128.905271 266.819504 
L 129.002426 266.819504 
L 129.002426 266.245852 
L 129.195127 266.245852 
L 129.195127 265.6722 
L 129.574256 265.6722 
L 129.574256 263.951245 
L 129.945319 263.951245 
L 129.945319 263.377593 
L 130.127931 263.377593 
L 130.127931 262.803942 
L 130.576266 262.803942 
L 130.664567 261.656638 
L 131.185181 261.656638 
L 131.185181 261.082987 
L 131.690703 261.082987 
L 131.690703 260.509335 
L 131.856005 260.509335 
L 131.856005 259.935683 
L 132.501978 259.935683 
L 132.501978 259.362031 
L 132.971225 259.362031 
L 132.971225 258.78838 
L 133.352844 258.78838 
L 133.352844 258.214728 
L 133.800029 258.214728 
L 133.800029 257.641076 
L 134.164119 257.641076 
L 134.164119 256.493773 
L 134.450015 256.493773 
L 134.450015 255.920121 
L 134.7313 255.920121 
L 134.800918 254.199166 
L 135.076644 254.199166 
L 135.076644 251.904559 
L 135.747468 251.904559 
L 135.747468 251.330907 
L 135.943785 251.330907 
L 135.943785 250.757256 
L 136.519813 250.757256 
L 136.519813 250.183604 
L 136.645276 250.183604 
L 136.645276 249.609952 
L 137.319638 249.609952 
L 137.319638 248.462649 
L 138.026733 248.462649 
L 138.026733 247.888997 
L 138.482688 247.888997 
L 138.482688 247.315345 
L 138.927025 247.315345 
L 138.927025 246.741694 
L 139.783113 246.741694 
L 139.783113 245.59439 
L 140.246813 245.59439 
L 140.297583 244.447087 
L 140.599134 244.447087 
L 140.599134 243.873435 
L 140.89556 243.873435 
L 140.993259 242.726132 
L 141.041904 242.726132 
L 141.138789 241.005176 
L 141.33096 241.005176 
L 141.33096 239.857873 
L 141.47371 239.857873 
L 141.47371 239.284221 
L 141.895083 239.284221 
L 141.895083 238.71057 
L 142.07914 238.71057 
L 142.170445 237.563266 
L 142.486301 237.563266 
L 142.486301 236.989614 
L 143.014805 236.989614 
L 143.014805 236.415963 
L 143.527762 236.415963 
L 143.527762 235.842311 
L 143.902815 235.842311 
L 143.902815 235.268659 
L 144.229555 235.268659 
L 144.229555 234.121356 
L 144.510517 234.121356 
L 144.510517 233.547704 
L 144.904196 233.547704 
L 144.904196 232.974052 
L 145.097753 232.974052 
L 145.097753 232.400401 
L 145.289185 232.400401 
L 145.289185 231.826749 
L 145.851187 231.826749 
L 145.851187 230.679446 
L 146.466968 230.679446 
L 146.538004 229.532142 
L 146.749392 229.532142 
L 146.749392 228.95849 
L 146.923612 228.95849 
L 146.992815 227.811187 
L 147.266916 227.811187 
L 147.266916 227.237535 
L 147.402367 227.237535 
L 147.402367 226.663884 
L 147.536775 226.663884 
L 147.536775 226.090232 
L 147.670154 226.090232 
L 147.670154 225.51658 
L 148.031773 225.51658 
L 148.031773 224.942928 
L 148.290138 224.942928 
L 148.290138 224.369277 
L 148.576295 224.369277 
L 148.576295 223.795625 
L 148.950676 223.795625 
L 148.950676 223.221973 
L 149.165411 223.221973 
L 149.226281 221.501018 
L 149.587107 221.501018 
L 149.587107 220.927366 
L 150.201126 220.927366 
L 150.201126 220.353715 
L 150.344189 220.353715 
L 150.372662 219.206411 
L 152.334802 219.206411 
L 152.436193 218.059108 
L 152.612222 218.059108 
L 152.637225 216.911804 
L 153.371104 216.911804 
L 153.418948 215.764501 
L 153.750233 215.764501 
L 153.750233 215.190849 
L 153.936752 215.190849 
L 153.936752 214.617197 
L 154.417077 214.617197 
L 154.417077 214.043546 
L 155.403849 214.043546 
L 155.425155 212.896242 
L 156.154939 212.896242 
L 156.154939 212.322591 
L 156.717545 212.322591 
L 156.717545 211.748939 
L 157.491032 211.748939 
L 157.491032 211.175287 
L 157.67916 211.175287 
L 157.67916 210.601635 
L 158.465753 210.601635 
L 158.465753 210.027984 
L 158.643706 210.027984 
L 158.643706 209.454332 
L 158.767202 209.454332 
L 158.872364 208.307029 
L 159.063529 208.307029 
L 159.063529 207.733377 
L 159.658204 207.733377 
L 159.6749 206.586073 
L 160.474035 206.586073 
L 160.474035 206.012422 
L 160.930298 206.012422 
L 160.930298 205.43877 
L 161.555647 205.43877 
L 161.555647 204.865118 
L 161.838011 204.865118 
L 161.838011 204.291467 
L 162.742845 204.291467 
L 162.742845 203.717815 
L 162.868358 203.717815 
L 162.868358 203.144163 
L 163.089286 203.144163 
L 163.089286 202.570511 
L 163.589711 202.570511 
L 163.656248 201.423208 
L 163.788565 201.423208 
L 163.788565 200.849556 
L 163.985177 200.849556 
L 163.985177 200.275904 
L 164.562052 200.275904 
L 164.562052 199.702253 
L 165.254276 199.702253 
L 165.254276 199.128601 
L 165.542734 199.128601 
L 165.542734 198.554949 
L 165.885039 198.554949 
L 165.885039 197.981298 
L 166.289413 197.981298 
L 166.289413 197.407646 
L 166.471192 197.407646 
L 166.471192 196.833994 
L 167.608702 196.833994 
L 167.703739 195.686691 
L 168.55661 195.686691 
L 168.55661 195.113039 
L 169.3984 195.113039 
L 169.446113 193.965736 
L 169.953269 193.965736 
L 169.962523 192.818432 
L 170.18316 192.818432 
L 170.18316 192.24478 
L 170.802371 192.24478 
L 170.85519 191.097477 
L 170.951613 191.097477 
L 171.056197 189.950174 
L 171.645677 189.950174 
L 171.645677 189.376522 
L 172.003206 189.376522 
L 172.077118 188.229218 
L 172.791647 188.229218 
L 172.791647 187.655567 
L 173.203648 187.655567 
L 173.203648 187.081915 
L 173.568564 187.081915 
L 173.568564 186.508263 
L 173.770522 186.508263 
L 173.770522 185.934612 
L 173.911252 185.934612 
L 173.999552 184.787308 
L 174.087407 184.787308 
L 174.087407 184.213656 
L 174.455933 184.213656 
L 174.455933 183.640005 
L 174.654998 183.640005 
L 174.676192 182.492701 
L 176.222414 182.492701 
L 176.222414 181.91905 
L 176.421575 181.91905 
L 176.421575 181.345398 
L 176.631116 181.345398 
L 176.643735 180.198094 
L 177.475067 180.198094 
L 177.475067 179.624443 
L 177.588952 179.624443 
L 177.588952 179.050791 
L 178.274311 179.050791 
L 178.325932 177.903487 
L 179.322098 177.903487 
L 179.322098 177.329836 
L 179.812776 177.329836 
L 179.812776 176.756184 
L 180.120337 176.756184 
L 180.2131 175.608881 
L 180.734621 175.608881 
L 180.829143 173.887925 
L 182.398576 173.887925 
L 182.398576 173.314274 
L 182.516073 173.314274 
L 182.516073 172.740622 
L 182.757606 172.740622 
L 182.757606 172.16697 
L 183.048341 172.16697 
L 183.048341 171.593319 
L 183.217888 171.593319 
L 183.217888 171.019667 
L 184.074726 171.019667 
L 184.074726 170.446015 
L 184.481824 170.446015 
L 184.481824 169.872363 
L 185.082966 169.872363 
L 185.082966 169.298712 
L 186.618837 169.298712 
L 186.618837 168.72506 
L 187.275551 168.72506 
L 187.343981 167.577757 
L 188.023758 167.577757 
L 188.023758 167.004105 
L 188.557408 167.004105 
L 188.557408 166.430453 
L 189.164652 166.430453 
L 189.164652 165.856801 
L 189.293378 165.856801 
L 189.293378 165.28315 
L 193.292606 165.28315 
L 193.292606 164.709498 
L 193.891592 164.709498 
L 193.891592 164.135846 
L 195.430889 164.135846 
L 195.430889 163.562195 
L 197.570638 163.562195 
L 197.570638 162.988543 
L 197.763339 162.988543 
L 197.763339 162.414891 
L 197.892499 162.414891 
L 197.892499 161.841239 
L 201.578732 161.841239 
L 201.578732 161.267588 
L 338.688 161.267588 
L 338.688 161.267588 
" style="fill:none;stroke:#6495ed;stroke-linecap:square;stroke-width:1.5;"/>
   </g>
   <g id="line2d_46">
    <defs>
     <path d="M -0 6 
L 6 -6 
L -6 -6 
z
" id="mefa80f2d54" style="stroke:#6495ed;stroke-linejoin:miter;stroke-width:1.5;"/>
    </defs>
    <g>
     <use style="fill-opacity:0;stroke:#6495ed;stroke-linejoin:miter;stroke-width:1.5;" x="143.014805" xlink:href="#mefa80f2d54" y="236.415963"/>
     <use style="fill-opacity:0;stroke:#6495ed;stroke-linejoin:miter;stroke-width:1.5;" x="193.891592" xlink:href="#mefa80f2d54" y="164.709498"/>
     <use style="fill-opacity:0;stroke:#6495ed;stroke-linejoin:miter;stroke-width:1.5;" x="201.578732" xlink:href="#mefa80f2d54" y="161.267588"/>
     <use style="fill-opacity:0;stroke:#6495ed;stroke-linejoin:miter;stroke-width:1.5;" x="201.578732" xlink:href="#mefa80f2d54" y="161.267588"/>
     <use style="fill-opacity:0;stroke:#6495ed;stroke-linejoin:miter;stroke-width:1.5;" x="338.688" xlink:href="#mefa80f2d54" y="161.267588"/>
    </g>
   </g>
   <g id="line2d_47">
    <path style="fill:none;stroke:#6495ed;stroke-linecap:square;stroke-width:1.5;"/>
    <g/>
   </g>
   <g id="line2d_48">
    <path clip-path="url(#peaab709359)" d="M 133.57787 258.214728 
" style="fill:none;stroke:#6495ed;stroke-linecap:square;stroke-width:1.5;"/>
    <defs>
     <path d="M -12 12 
L 12 -12 
M -12 -12 
L 12 12 
" id="mf43ed712b2" style="stroke:#6495ed;"/>
    </defs>
    <g clip-path="url(#peaab709359)">
     <use style="fill:#6495ed;stroke:#6495ed;" x="133.57787" xlink:href="#mf43ed712b2" y="258.214728"/>
    </g>
   </g>
   <g id="line2d_49">
    <defs>
     <path d="M 0 1.5 
C 0.397805 1.5 0.77937 1.341951 1.06066 1.06066 
C 1.341951 0.77937 1.5 0.397805 1.5 0 
C 1.5 -0.397805 1.341951 -0.77937 1.06066 -1.06066 
C 0.77937 -1.341951 0.397805 -1.5 0 -1.5 
C -0.397805 -1.5 -0.77937 -1.341951 -1.06066 -1.06066 
C -1.341951 -0.77937 -1.5 -0.397805 -1.5 0 
C -1.5 0.397805 -1.341951 0.77937 -1.06066 1.06066 
C -0.77937 1.341951 -0.397805 1.5 0 1.5 
z
" id="m84db5be3ee" style="stroke:#ff0000;"/>
    </defs>
    <g>
     <use style="fill:#ff0000;stroke:#ff0000;" x="154.685723" xlink:href="#m84db5be3ee" y="6.381624"/>
     <use style="fill:#ff0000;stroke:#ff0000;" x="154.685723" xlink:href="#m84db5be3ee" y="6.381624"/>
    </g>
   </g>
   <g id="line2d_50">
    <path d="M 38.440992 298.944 
L 38.440992 270.835066 
L 90.684409 270.835066 
L 90.684409 270.261414 
L 99.938184 270.261414 
L 99.938184 269.114111 
L 101.877879 269.114111 
L 101.877879 268.540459 
L 102.330873 268.540459 
L 102.330873 267.393156 
L 102.772397 267.393156 
L 102.772397 266.245852 
L 103.203018 266.245852 
L 103.203018 265.098549 
L 103.623262 265.098549 
L 103.623262 262.23029 
L 104.033617 262.23029 
L 104.033617 261.082987 
L 104.434538 261.082987 
L 104.434538 258.78838 
L 104.826449 258.78838 
L 104.826449 255.920121 
L 105.209745 255.920121 
L 105.209745 254.772818 
L 105.584798 254.772818 
L 105.584798 251.904559 
L 105.951954 251.904559 
L 105.951954 250.757256 
L 106.311539 250.757256 
L 106.311539 249.609952 
L 106.66386 249.609952 
L 106.66386 247.315345 
L 108.640231 247.315345 
L 108.640231 246.741694 
L 112.531694 246.741694 
L 112.531694 246.168042 
L 114.193835 246.168042 
L 114.193835 245.59439 
L 116.719583 245.59439 
L 116.719583 245.020738 
L 117.486268 245.020738 
L 117.486268 244.447087 
L 118.220662 244.447087 
L 118.220662 243.873435 
L 118.399528 243.873435 
L 118.399528 243.299783 
L 118.751849 243.299783 
L 118.751849 242.726132 
L 118.925375 242.726132 
L 118.925375 242.15248 
L 120.41399 242.15248 
L 120.41399 241.578828 
L 120.571812 241.578828 
L 120.571812 241.005176 
L 120.728219 241.005176 
L 120.728219 240.431525 
L 121.189196 240.431525 
L 121.189196 238.71057 
L 121.638301 238.71057 
L 121.638301 236.989614 
L 121.931406 236.989614 
L 121.931406 236.415963 
L 122.219665 236.415963 
L 122.219665 235.268659 
L 122.362027 235.268659 
L 122.362027 234.695008 
L 122.920132 234.695008 
L 122.920132 234.121356 
L 123.192626 234.121356 
L 123.192626 232.400401 
L 123.327293 232.400401 
L 123.327293 231.826749 
L 123.593547 231.826749 
L 123.593547 231.253097 
L 124.619683 231.253097 
L 124.619683 230.679446 
L 125.110962 230.679446 
L 125.110962 230.105794 
L 126.618283 230.105794 
L 126.618283 229.532142 
L 127.05703 229.532142 
L 127.05703 228.95849 
L 127.272333 228.95849 
L 127.378995 227.237535 
L 127.48501 227.237535 
L 127.590383 226.090232 
L 127.799239 226.090232 
L 127.902737 224.942928 
L 128.209594 224.942928 
L 128.209594 223.795625 
L 128.610515 223.795625 
L 128.610515 223.221973 
L 128.807571 223.221973 
L 128.807571 222.648321 
L 129.195127 222.648321 
L 129.195127 220.927366 
L 129.385722 220.927366 
L 129.385722 220.353715 
L 129.574256 220.353715 
L 129.667765 219.206411 
L 129.853291 219.206411 
L 129.945319 216.911804 
L 130.036864 216.911804 
L 130.127931 215.190849 
L 130.218525 215.190849 
L 130.30865 211.748939 
L 130.398313 211.748939 
L 130.398313 208.88068 
L 130.576266 208.88068 
L 130.664567 207.733377 
L 130.752422 207.733377 
L 130.752422 207.159725 
L 130.926816 207.159725 
L 131.013364 205.43877 
L 131.099484 205.43877 
L 131.185181 203.144163 
L 131.355321 203.144163 
L 131.439773 200.275904 
L 131.523818 200.275904 
L 131.60746 198.554949 
L 131.690703 198.554949 
L 131.77355 195.113039 
L 131.856005 195.113039 
L 131.856005 193.965736 
L 132.101058 193.965736 
L 132.101058 191.671129 
L 132.262533 191.671129 
L 132.342714 189.950174 
L 132.422528 189.950174 
L 132.501978 187.655567 
L 132.581068 187.655567 
L 132.581068 187.081915 
L 132.73818 187.081915 
L 132.816208 185.36096 
L 132.893889 185.36096 
L 132.893889 183.640005 
L 133.201197 183.640005 
L 133.277185 182.492701 
L 133.352844 182.492701 
L 133.428175 179.624443 
L 133.503183 179.624443 
L 133.57787 178.477139 
L 133.652238 178.477139 
L 133.72629 177.329836 
L 133.800029 177.329836 
L 133.873458 175.035229 
L 133.946579 175.035229 
L 134.019394 173.314274 
L 134.164119 173.314274 
L 134.236034 172.16697 
L 134.307653 172.16697 
L 134.37898 169.298712 
L 134.450015 169.298712 
L 134.450015 168.72506 
L 134.591225 168.72506 
L 134.661403 167.004105 
L 134.7313 167.004105 
L 134.800918 164.709498 
L 134.939326 164.709498 
L 135.00812 163.562195 
L 135.076644 163.562195 
L 135.144899 159.546632 
L 135.212889 159.546632 
L 135.212889 158.972981 
L 135.415281 158.972981 
L 135.482227 156.678374 
L 135.615352 156.678374 
L 135.681535 153.810115 
L 135.747468 153.810115 
L 135.813153 151.515508 
L 135.878591 151.515508 
L 135.878591 149.794553 
L 136.073445 149.794553 
L 136.137916 148.073598 
L 136.202149 148.073598 
L 136.266147 145.778991 
L 136.32991 145.778991 
L 136.32991 145.20534 
L 136.456742 145.20534 
L 136.519813 142.910733 
L 136.582658 142.910733 
L 136.645276 139.468822 
L 136.769843 139.468822 
L 136.831795 138.321519 
L 136.893527 138.321519 
L 136.955041 136.600564 
L 137.016339 136.600564 
L 137.077422 135.45326 
L 137.138292 135.45326 
L 137.138292 134.879609 
L 137.259399 134.879609 
L 137.259399 134.305957 
L 137.37967 134.305957 
L 137.439497 131.437698 
L 137.499118 131.437698 
L 137.558536 129.143091 
L 137.676769 129.143091 
L 137.676769 125.701181 
L 137.852629 125.701181 
L 137.910857 121.685619 
L 137.968891 121.685619 
L 138.026733 120.538316 
L 138.199116 120.538316 
L 138.256201 117.670057 
L 138.313099 117.670057 
L 138.313099 115.37545 
L 138.426341 115.37545 
L 138.482688 113.080843 
L 138.538853 113.080843 
L 138.538853 112.507192 
L 138.650644 112.507192 
L 138.761723 109.638933 
L 138.816998 109.638933 
L 138.872098 107.917978 
L 138.981779 107.917978 
L 139.090775 101.034157 
L 139.145019 101.034157 
L 139.199094 98.73955 
L 139.413734 98.73955 
L 139.520072 94.150337 
L 139.625765 94.150337 
L 139.678372 90.708426 
L 139.835248 90.708426 
L 139.939053 86.119213 
L 139.990725 86.119213 
L 140.042245 83.824606 
L 140.144829 83.824606 
L 140.246813 81.529999 
L 140.348205 81.529999 
L 140.44901 79.235392 
L 140.499195 79.235392 
L 140.599134 75.21983 
L 140.64889 75.21983 
L 140.747977 72.925223 
L 140.846504 72.925223 
L 140.846504 70.630616 
L 140.993259 70.630616 
L 141.090414 66.041402 
L 141.187031 66.041402 
L 141.283115 63.173144 
L 141.33096 63.173144 
L 141.426256 59.157582 
L 141.47371 59.157582 
L 141.521035 57.436627 
L 141.662245 57.436627 
L 141.755753 54.568368 
L 141.80232 54.568368 
L 141.895083 50.552806 
L 141.941279 50.552806 
L 142.033307 48.831851 
L 142.124852 48.831851 
L 142.215919 46.537244 
L 142.261275 46.537244 
L 142.351634 44.242637 
L 142.441528 44.242637 
L 142.441528 43.668985 
L 142.664255 43.668985 
L 142.752555 40.800727 
L 142.796538 40.800727 
L 142.796538 39.653423 
L 142.971369 39.653423 
L 143.014805 36.785165 
L 143.187472 36.785165 
L 143.273169 33.916906 
L 143.358447 33.916906 
L 143.44331 32.195951 
L 143.569835 32.195951 
L 143.569835 31.622299 
L 143.820164 31.622299 
L 143.902815 29.901344 
L 144.148442 29.901344 
L 144.148442 28.754041 
L 144.310293 28.754041 
L 144.390658 27.606737 
L 144.510517 27.606737 
L 144.510517 27.033086 
L 144.669057 27.033086 
L 144.747789 24.738479 
L 144.904196 24.738479 
L 144.904196 24.164827 
L 145.059213 24.164827 
L 145.059213 23.591175 
L 145.365173 23.591175 
L 145.440832 20.722917 
L 145.553708 20.722917 
L 145.591172 19.001962 
L 145.665858 19.001962 
L 145.665858 18.42831 
L 145.777292 18.42831 
L 145.814278 16.707355 
L 145.924771 16.707355 
L 145.924771 16.133703 
L 146.143677 16.133703 
L 146.252108 14.412748 
L 146.359869 14.412748 
L 146.466968 13.265444 
L 150.258492 13.265444 
L 150.258492 12.691793 
L 151.660987 12.691793 
L 151.660987 12.118141 
L 152.052897 12.118141 
L 152.104493 10.970838 
L 152.283884 10.970838 
L 152.283884 10.397186 
L 152.959038 10.397186 
L 152.959038 9.823534 
L 153.202607 9.823534 
L 153.202607 9.249882 
L 154.144227 9.249882 
L 154.144227 8.676231 
L 154.371897 8.676231 
L 154.371897 8.102579 
L 154.507086 8.102579 
L 154.507086 6.955275 
L 154.685723 6.955275 
L 154.685723 6.381624 
L 338.688 6.381624 
L 338.688 6.381624 
" style="fill:none;stroke:#ff0000;stroke-linecap:square;stroke-width:1.5;"/>
   </g>
   <g id="line2d_51">
    <defs>
     <path d="M 0 -6 
L -5.196152 -3 
L -5.196152 3 
L -0 6 
L 5.196152 3 
L 5.196152 -3 
z
" id="m7f58a5c836" style="stroke:#ff0000;stroke-linejoin:miter;stroke-width:1.5;"/>
    </defs>
    <g>
     <use style="fill-opacity:0;stroke:#ff0000;stroke-linejoin:miter;stroke-width:1.5;" x="118.925375" xlink:href="#m7f58a5c836" y="242.15248"/>
     <use style="fill-opacity:0;stroke:#ff0000;stroke-linejoin:miter;stroke-width:1.5;" x="138.538853" xlink:href="#m7f58a5c836" y="112.507192"/>
     <use style="fill-opacity:0;stroke:#ff0000;stroke-linejoin:miter;stroke-width:1.5;" x="154.685723" xlink:href="#m7f58a5c836" y="6.955275"/>
     <use style="fill-opacity:0;stroke:#ff0000;stroke-linejoin:miter;stroke-width:1.5;" x="154.685723" xlink:href="#m7f58a5c836" y="6.381624"/>
     <use style="fill-opacity:0;stroke:#ff0000;stroke-linejoin:miter;stroke-width:1.5;" x="154.685723" xlink:href="#m7f58a5c836" y="6.381624"/>
     <use style="fill-opacity:0;stroke:#ff0000;stroke-linejoin:miter;stroke-width:1.5;" x="338.688" xlink:href="#m7f58a5c836" y="6.381624"/>
    </g>
   </g>
   <g id="line2d_52">
    <path style="fill:none;stroke:#ff0000;stroke-linecap:square;stroke-width:1.5;"/>
    <g/>
   </g>
   <g id="line2d_53">
    <path clip-path="url(#peaab709359)" d="M 138.872098 107.917978 
" style="fill:none;stroke:#ff0000;stroke-linecap:square;stroke-width:1.5;"/>
    <defs>
     <path d="M -12 12 
L 12 -12 
M -12 -12 
L 12 12 
" id="mfe98788513" style="stroke:#ff0000;"/>
    </defs>
    <g clip-path="url(#peaab709359)">
     <use style="fill:#ff0000;stroke:#ff0000;" x="138.872098" xlink:href="#mfe98788513" y="107.917978"/>
    </g>
   </g>
   <g id="line2d_54">
    <path d="M 338.688 247.315345 
L 369.60768 293.092752 
" style="fill:none;stroke:#ff00ff;stroke-linecap:square;stroke-width:1.5;"/>
    <g>
     <use style="fill-opacity:0;stroke:#ff00ff;stroke-linejoin:miter;stroke-width:1.5;" x="338.688" xlink:href="#ma1e8f05a89" y="247.315345"/>
     <use style="fill-opacity:0;stroke:#ff00ff;stroke-linejoin:miter;stroke-width:1.5;" x="369.60768" xlink:href="#ma1e8f05a89" y="293.092752"/>
    </g>
   </g>
   <g id="line2d_55">
    <path d="M 338.688 235.842311 
L 369.60768 222.877782 
" style="fill:none;stroke:#000080;stroke-linecap:square;stroke-width:1.5;"/>
    <g>
     <use style="fill-opacity:0;stroke:#000080;stroke-width:1.5;" x="338.688" xlink:href="#m5f4c2ca1c2" y="235.842311"/>
     <use style="fill-opacity:0;stroke:#000080;stroke-width:1.5;" x="369.60768" xlink:href="#m5f4c2ca1c2" y="222.877782"/>
    </g>
   </g>
   <g id="line2d_56">
    <path d="M 338.688 201.423208 
L 369.60768 152.662812 
" style="fill:none;stroke:#ff7500;stroke-linecap:square;stroke-width:1.5;"/>
    <g>
     <use style="fill-opacity:0;stroke:#ff7500;stroke-linejoin:bevel;stroke-width:1.5;" x="338.688" xlink:href="#m359b70cdc0" y="201.423208"/>
     <use style="fill-opacity:0;stroke:#ff7500;stroke-linejoin:bevel;stroke-width:1.5;" x="369.60768" xlink:href="#m359b70cdc0" y="152.662812"/>
    </g>
   </g>
   <g id="line2d_57">
    <path d="M 338.688 161.267588 
L 369.60768 82.447842 
" style="fill:none;stroke:#6495ed;stroke-linecap:square;stroke-width:1.5;"/>
    <g>
     <use style="fill-opacity:0;stroke:#6495ed;stroke-linejoin:miter;stroke-width:1.5;" x="338.688" xlink:href="#mefa80f2d54" y="161.267588"/>
     <use style="fill-opacity:0;stroke:#6495ed;stroke-linejoin:miter;stroke-width:1.5;" x="369.60768" xlink:href="#mefa80f2d54" y="82.447842"/>
    </g>
   </g>
   <g id="line2d_58">
    <path d="M 338.688 6.381624 
L 369.60768 12.232871 
" style="fill:none;stroke:#ff0000;stroke-linecap:square;stroke-width:1.5;"/>
    <g>
     <use style="fill-opacity:0;stroke:#ff0000;stroke-linejoin:miter;stroke-width:1.5;" x="338.688" xlink:href="#m7f58a5c836" y="6.381624"/>
     <use style="fill-opacity:0;stroke:#ff0000;stroke-linejoin:miter;stroke-width:1.5;" x="369.60768" xlink:href="#m7f58a5c836" y="12.232871"/>
    </g>
   </g>
   <g id="line2d_59">
    <path d="M 338.688 298.944 
L 338.688 6.381624 
" style="fill:none;stroke:#000000;stroke-linecap:square;stroke-width:1.5;"/>
   </g>
   <g id="patch_3">
    <path d="M 57.6 298.944 
L 57.6 3.456 
" style="fill:none;stroke:#000000;stroke-linecap:square;stroke-linejoin:miter;stroke-width:0.8;"/>
   </g>
   <g id="patch_4">
    <path d="M 338.688 298.944 
L 338.688 3.456 
" style="fill:none;stroke:#000000;stroke-linecap:square;stroke-linejoin:miter;stroke-width:0.8;"/>
   </g>
   <g id="patch_5">
    <path d="M 57.6 298.944 
L 338.688 298.944 
" style="fill:none;stroke:#000000;stroke-linecap:square;stroke-linejoin:miter;stroke-width:0.8;"/>
   </g>
   <g id="patch_6">
    <path d="M 57.6 3.456 
L 338.688 3.456 
" style="fill:none;stroke:#000000;stroke-linecap:square;stroke-linejoin:miter;stroke-width:0.8;"/>
   </g>
   <g id="text_13">
    <!-- f11 -->
    <g transform="translate(375.22944 297.78369)scale(0.17 -0.17)">
     <use xlink:href="#DejaVuSans-102"/>
     <use x="35.205078" xlink:href="#DejaVuSans-49"/>
     <use x="98.828125" xlink:href="#DejaVuSans-49"/>
    </g>
   </g>
   <g id="text_14">
    <!-- f10 -->
    <g transform="translate(375.22944 227.56872)scale(0.17 -0.17)">
     <use xlink:href="#DejaVuSans-102"/>
     <use x="35.205078" xlink:href="#DejaVuSans-49"/>
     <use x="98.828125" xlink:href="#DejaVuSans-48"/>
    </g>
   </g>
   <g id="text_15">
    <!-- f12 -->
    <g transform="translate(375.22944 157.353749)scale(0.17 -0.17)">
     <use xlink:href="#DejaVuSans-102"/>
     <use x="35.205078" xlink:href="#DejaVuSans-49"/>
     <use x="98.828125" xlink:href="#DejaVuSans-50"/>
    </g>
   </g>
   <g id="text_16">
    <!-- f13 -->
    <g transform="translate(375.22944 87.138779)scale(0.17 -0.17)">
     <defs>
      <path d="M 40.578125 39.3125 
Q 47.65625 37.796875 51.625 33 
Q 55.609375 28.21875 55.609375 21.1875 
Q 55.609375 10.40625 48.1875 4.484375 
Q 40.765625 -1.421875 27.09375 -1.421875 
Q 22.515625 -1.421875 17.65625 -0.515625 
Q 12.796875 0.390625 7.625 2.203125 
L 7.625 11.71875 
Q 11.71875 9.328125 16.59375 8.109375 
Q 21.484375 6.890625 26.8125 6.890625 
Q 36.078125 6.890625 40.9375 10.546875 
Q 45.796875 14.203125 45.796875 21.1875 
Q 45.796875 27.640625 41.28125 31.265625 
Q 36.765625 34.90625 28.71875 34.90625 
L 20.21875 34.90625 
L 20.21875 43.015625 
L 29.109375 43.015625 
Q 36.375 43.015625 40.234375 45.921875 
Q 44.09375 48.828125 44.09375 54.296875 
Q 44.09375 59.90625 40.109375 62.90625 
Q 36.140625 65.921875 28.71875 65.921875 
Q 24.65625 65.921875 20.015625 65.03125 
Q 15.375 64.15625 9.8125 62.3125 
L 9.8125 71.09375 
Q 15.4375 72.65625 20.34375 73.4375 
Q 25.25 74.21875 29.59375 74.21875 
Q 40.828125 74.21875 47.359375 69.109375 
Q 53.90625 64.015625 53.90625 55.328125 
Q 53.90625 49.265625 50.4375 45.09375 
Q 46.96875 40.921875 40.578125 39.3125 
z
" id="DejaVuSans-51"/>
     </defs>
     <use xlink:href="#DejaVuSans-102"/>
     <use x="35.205078" xlink:href="#DejaVuSans-49"/>
     <use x="98.828125" xlink:href="#DejaVuSans-51"/>
    </g>
   </g>
   <g id="text_17">
    <!-- f14 -->
    <g transform="translate(375.22944 16.923809)scale(0.17 -0.17)">
     <use xlink:href="#DejaVuSans-102"/>
     <use x="35.205078" xlink:href="#DejaVuSans-49"/>
     <use x="98.828125" xlink:href="#DejaVuSans-52"/>
    </g>
   </g>
   <g id="text_18">
    <!-- bbob -->
    <g transform="translate(60.41088 14.161286)scale(0.102 -0.102)">
     <defs>
      <path d="M 48.6875 27.296875 
Q 48.6875 37.203125 44.609375 42.84375 
Q 40.53125 48.484375 33.40625 48.484375 
Q 26.265625 48.484375 22.1875 42.84375 
Q 18.109375 37.203125 18.109375 27.296875 
Q 18.109375 17.390625 22.1875 11.75 
Q 26.265625 6.109375 33.40625 6.109375 
Q 40.53125 6.109375 44.609375 11.75 
Q 48.6875 17.390625 48.6875 27.296875 
z
M 18.109375 46.390625 
Q 20.953125 51.265625 25.265625 53.625 
Q 29.59375 56 35.59375 56 
Q 45.5625 56 51.78125 48.09375 
Q 58.015625 40.1875 58.015625 27.296875 
Q 58.015625 14.40625 51.78125 6.484375 
Q 45.5625 -1.421875 35.59375 -1.421875 
Q 29.59375 -1.421875 25.265625 0.953125 
Q 20.953125 3.328125 18.109375 8.203125 
L 18.109375 0 
L 9.078125 0 
L 9.078125 75.984375 
L 18.109375 75.984375 
z
" id="DejaVuSans-98"/>
     </defs>
     <use xlink:href="#DejaVuSans-98"/>
     <use x="63.476562" xlink:href="#DejaVuSans-98"/>
     <use x="126.953125" xlink:href="#DejaVuSans-111"/>
     <use x="188.134766" xlink:href="#DejaVuSans-98"/>
    </g>
    <!-- Ill-conditioned functions, 3-D -->
    <g transform="translate(60.41088 25.583055)scale(0.102 -0.102)">
     <defs>
      <path d="M 9.8125 72.90625 
L 19.671875 72.90625 
L 19.671875 0 
L 9.8125 0 
z
" id="DejaVuSans-73"/>
      <path d="M 19.671875 64.796875 
L 19.671875 8.109375 
L 31.59375 8.109375 
Q 46.6875 8.109375 53.6875 14.9375 
Q 60.6875 21.78125 60.6875 36.53125 
Q 60.6875 51.171875 53.6875 57.984375 
Q 46.6875 64.796875 31.59375 64.796875 
z
M 9.8125 72.90625 
L 30.078125 72.90625 
Q 51.265625 72.90625 61.171875 64.09375 
Q 71.09375 55.28125 71.09375 36.53125 
Q 71.09375 17.671875 61.125 8.828125 
Q 51.171875 0 30.078125 0 
L 9.8125 0 
z
" id="DejaVuSans-68"/>
     </defs>
     <use xlink:href="#DejaVuSans-73"/>
     <use x="29.492188" xlink:href="#DejaVuSans-108"/>
     <use x="57.275391" xlink:href="#DejaVuSans-108"/>
     <use x="85.058594" xlink:href="#DejaVuSans-45"/>
     <use x="121.142578" xlink:href="#DejaVuSans-99"/>
     <use x="176.123047" xlink:href="#DejaVuSans-111"/>
     <use x="237.304688" xlink:href="#DejaVuSans-110"/>
     <use x="300.683594" xlink:href="#DejaVuSans-100"/>
     <use x="364.160156" xlink:href="#DejaVuSans-105"/>
     <use x="391.943359" xlink:href="#DejaVuSans-116"/>
     <use x="431.152344" xlink:href="#DejaVuSans-105"/>
     <use x="458.935547" xlink:href="#DejaVuSans-111"/>
     <use x="520.117188" xlink:href="#DejaVuSans-110"/>
     <use x="583.496094" xlink:href="#DejaVuSans-101"/>
     <use x="645.019531" xlink:href="#DejaVuSans-100"/>
     <use x="708.496094" xlink:href="#DejaVuSans-32"/>
     <use x="740.283203" xlink:href="#DejaVuSans-102"/>
     <use x="775.488281" xlink:href="#DejaVuSans-117"/>
     <use x="838.867188" xlink:href="#DejaVuSans-110"/>
     <use x="902.246094" xlink:href="#DejaVuSans-99"/>
     <use x="957.226562" xlink:href="#DejaVuSans-116"/>
     <use x="996.435547" xlink:href="#DejaVuSans-105"/>
     <use x="1024.21875" xlink:href="#DejaVuSans-111"/>
     <use x="1085.400391" xlink:href="#DejaVuSans-110"/>
     <use x="1148.779297" xlink:href="#DejaVuSans-115"/>
     <use x="1200.878906" xlink:href="#DejaVuSans-44"/>
     <use x="1232.666016" xlink:href="#DejaVuSans-32"/>
     <use x="1264.453125" xlink:href="#DejaVuSans-51"/>
     <use x="1328.076172" xlink:href="#DejaVuSans-45"/>
     <use x="1364.160156" xlink:href="#DejaVuSans-68"/>
    </g>
    <!-- 51 targets: 100..1e-08 -->
    <g transform="translate(60.41088 37.004824)scale(0.102 -0.102)">
     <defs>
      <path d="M 10.796875 72.90625 
L 49.515625 72.90625 
L 49.515625 64.59375 
L 19.828125 64.59375 
L 19.828125 46.734375 
Q 21.96875 47.46875 24.109375 47.828125 
Q 26.265625 48.1875 28.421875 48.1875 
Q 40.625 48.1875 47.75 41.5 
Q 54.890625 34.8125 54.890625 23.390625 
Q 54.890625 11.625 47.5625 5.09375 
Q 40.234375 -1.421875 26.90625 -1.421875 
Q 22.3125 -1.421875 17.546875 -0.640625 
Q 12.796875 0.140625 7.71875 1.703125 
L 7.71875 11.625 
Q 12.109375 9.234375 16.796875 8.0625 
Q 21.484375 6.890625 26.703125 6.890625 
Q 35.15625 6.890625 40.078125 11.328125 
Q 45.015625 15.765625 45.015625 23.390625 
Q 45.015625 31 40.078125 35.4375 
Q 35.15625 39.890625 26.703125 39.890625 
Q 22.75 39.890625 18.8125 39.015625 
Q 14.890625 38.140625 10.796875 36.28125 
z
" id="DejaVuSans-53"/>
      <path d="M 11.71875 12.40625 
L 22.015625 12.40625 
L 22.015625 0 
L 11.71875 0 
z
M 11.71875 51.703125 
L 22.015625 51.703125 
L 22.015625 39.3125 
L 11.71875 39.3125 
z
" id="DejaVuSans-58"/>
     </defs>
     <use xlink:href="#DejaVuSans-53"/>
     <use x="63.623047" xlink:href="#DejaVuSans-49"/>
     <use x="127.246094" xlink:href="#DejaVuSans-32"/>
     <use x="159.033203" xlink:href="#DejaVuSans-116"/>
     <use x="198.242188" xlink:href="#DejaVuSans-97"/>
     <use x="259.521484" xlink:href="#DejaVuSans-114"/>
     <use x="298.884766" xlink:href="#DejaVuSans-103"/>
     <use x="362.361328" xlink:href="#DejaVuSans-101"/>
     <use x="423.884766" xlink:href="#DejaVuSans-116"/>
     <use x="463.09375" xlink:href="#DejaVuSans-115"/>
     <use x="515.193359" xlink:href="#DejaVuSans-58"/>
     <use x="548.884766" xlink:href="#DejaVuSans-32"/>
     <use x="580.671875" xlink:href="#DejaVuSans-49"/>
     <use x="644.294922" xlink:href="#DejaVuSans-48"/>
     <use x="707.917969" xlink:href="#DejaVuSans-48"/>
     <use x="771.541016" xlink:href="#DejaVuSans-46"/>
     <use x="803.328125" xlink:href="#DejaVuSans-46"/>
     <use x="835.115234" xlink:href="#DejaVuSans-49"/>
     <use x="898.738281" xlink:href="#DejaVuSans-101"/>
     <use x="960.261719" xlink:href="#DejaVuSans-45"/>
     <use x="996.345703" xlink:href="#DejaVuSans-48"/>
     <use x="1059.96875" xlink:href="#DejaVuSans-56"/>
    </g>
    <!-- 15 instances -->
    <g transform="translate(60.41088 48.426593)scale(0.102 -0.102)">
     <use xlink:href="#DejaVuSans-49"/>
     <use x="63.623047" xlink:href="#DejaVuSans-53"/>
     <use x="127.246094" xlink:href="#DejaVuSans-32"/>
     <use x="159.033203" xlink:href="#DejaVuSans-105"/>
     <use x="186.816406" xlink:href="#DejaVuSans-110"/>
     <use x="250.195312" xlink:href="#DejaVuSans-115"/>
     <use x="302.294922" xlink:href="#DejaVuSans-116"/>
     <use x="341.503906" xlink:href="#DejaVuSans-97"/>
     <use x="402.783203" xlink:href="#DejaVuSans-110"/>
     <use x="466.162109" xlink:href="#DejaVuSans-99"/>
     <use x="521.142578" xlink:href="#DejaVuSans-101"/>
     <use x="582.666016" xlink:href="#DejaVuSans-115"/>
    </g>
   </g>
   <g id="text_19">
    <!-- v2.4 -->
    <g style="fill:#808080;" transform="translate(187.233062 293.909432)scale(0.1 -0.1)">
     <use xlink:href="#DejaVuSans-118"/>
     <use x="59.179688" xlink:href="#DejaVuSans-50"/>
     <use x="122.802734" xlink:href="#DejaVuSans-46"/>
     <use x="154.589844" xlink:href="#DejaVuSans-52"/>
    </g>
   </g>
  </g>
 </g>
 <defs>
  <clipPath id="peaab709359">
   <rect height="295.488" width="281.088" x="57.6" y="3.456"/>
  </clipPath>
 </defs>
</svg>
