<?xml version="1.0" encoding="utf-8" standalone="no"?>
<!DOCTYPE svg PUBLIC "-//W3C//DTD SVG 1.1//EN"
  "http://www.w3.org/Graphics/SVG/1.1/DTD/svg11.dtd">
<!-- Created with matplotlib (https://matplotlib.org/) -->
<svg height="345.6pt" version="1.1" viewBox="0 0 460.8 345.6" width="460.8pt" xmlns="http://www.w3.org/2000/svg" xmlns:xlink="http://www.w3.org/1999/xlink">
 <metadata>
  <rdf:RDF xmlns:cc="http://creativecommons.org/ns#" xmlns:dc="http://purl.org/dc/elements/1.1/" xmlns:rdf="http://www.w3.org/1999/02/22-rdf-syntax-ns#">
   <cc:Work>
    <dc:type rdf:resource="http://purl.org/dc/dcmitype/StillImage"/>
    <dc:date>2021-08-04T10:26:39.629124</dc:date>
    <dc:format>image/svg+xml</dc:format>
    <dc:creator>
     <cc:Agent>
      <dc:title>Matplotlib v3.3.1, https://matplotlib.org/</dc:title>
     </cc:Agent>
    </dc:creator>
   </cc:Work>
  </rdf:RDF>
 </metadata>
 <defs>
  <style type="text/css">*{stroke-linecap:butt;stroke-linejoin:round;}</style>
 </defs>
 <g id="figure_1">
  <g id="patch_1">
   <path d="M 0 345.6 
L 460.8 345.6 
L 460.8 0 
L 0 0 
z
" style="fill:#ffffff;"/>
  </g>
  <g id="axes_1">
   <g id="patch_2">
    <path d="M 57.6 298.944 
L 338.688 298.944 
L 338.688 3.456 
L 57.6 3.456 
z
" style="fill:#ffffff;"/>
   </g>
   <g id="matplotlib.axis_1">
    <g id="xtick_1">
     <g id="line2d_1">
      <path clip-path="url(#p035c833b1f)" d="M 57.6 298.944 
L 57.6 3.456 
" style="fill:none;stroke:#b0b0b0;stroke-linecap:square;stroke-width:0.8;"/>
     </g>
     <g id="line2d_2">
      <defs>
       <path d="M 0 0 
L 0 3.5 
" id="m6e39d4ae94" style="stroke:#000000;stroke-width:0.8;"/>
      </defs>
      <g>
       <use style="stroke:#000000;stroke-width:0.8;" x="57.6" xlink:href="#m6e39d4ae94" y="298.944"/>
      </g>
     </g>
     <g id="text_1">
      <!-- 0 -->
      <g transform="translate(51.2375 321.140875)scale(0.2 -0.2)">
       <defs>
        <path d="M 31.78125 66.40625 
Q 24.171875 66.40625 20.328125 58.90625 
Q 16.5 51.421875 16.5 36.375 
Q 16.5 21.390625 20.328125 13.890625 
Q 24.171875 6.390625 31.78125 6.390625 
Q 39.453125 6.390625 43.28125 13.890625 
Q 47.125 21.390625 47.125 36.375 
Q 47.125 51.421875 43.28125 58.90625 
Q 39.453125 66.40625 31.78125 66.40625 
z
M 31.78125 74.21875 
Q 44.046875 74.21875 50.515625 64.515625 
Q 56.984375 54.828125 56.984375 36.375 
Q 56.984375 17.96875 50.515625 8.265625 
Q 44.046875 -1.421875 31.78125 -1.421875 
Q 19.53125 -1.421875 13.0625 8.265625 
Q 6.59375 17.96875 6.59375 36.375 
Q 6.59375 54.828125 13.0625 64.515625 
Q 19.53125 74.21875 31.78125 74.21875 
z
" id="DejaVuSans-48"/>
       </defs>
       <use xlink:href="#DejaVuSans-48"/>
      </g>
     </g>
    </g>
    <g id="xtick_2">
     <g id="line2d_3">
      <path clip-path="url(#p035c833b1f)" d="M 137.910857 298.944 
L 137.910857 3.456 
" style="fill:none;stroke:#b0b0b0;stroke-linecap:square;stroke-width:0.8;"/>
     </g>
     <g id="line2d_4">
      <g>
       <use style="stroke:#000000;stroke-width:0.8;" x="137.910857" xlink:href="#m6e39d4ae94" y="298.944"/>
      </g>
     </g>
     <g id="text_2">
      <!-- 2 -->
      <g transform="translate(131.548357 321.140875)scale(0.2 -0.2)">
       <defs>
        <path d="M 19.1875 8.296875 
L 53.609375 8.296875 
L 53.609375 0 
L 7.328125 0 
L 7.328125 8.296875 
Q 12.9375 14.109375 22.625 23.890625 
Q 32.328125 33.6875 34.8125 36.53125 
Q 39.546875 41.84375 41.421875 45.53125 
Q 43.3125 49.21875 43.3125 52.78125 
Q 43.3125 58.59375 39.234375 62.25 
Q 35.15625 65.921875 28.609375 65.921875 
Q 23.96875 65.921875 18.8125 64.3125 
Q 13.671875 62.703125 7.8125 59.421875 
L 7.8125 69.390625 
Q 13.765625 71.78125 18.9375 73 
Q 24.125 74.21875 28.421875 74.21875 
Q 39.75 74.21875 46.484375 68.546875 
Q 53.21875 62.890625 53.21875 53.421875 
Q 53.21875 48.921875 51.53125 44.890625 
Q 49.859375 40.875 45.40625 35.40625 
Q 44.1875 33.984375 37.640625 27.21875 
Q 31.109375 20.453125 19.1875 8.296875 
z
" id="DejaVuSans-50"/>
       </defs>
       <use xlink:href="#DejaVuSans-50"/>
      </g>
     </g>
    </g>
    <g id="xtick_3">
     <g id="line2d_5">
      <path clip-path="url(#p035c833b1f)" d="M 218.221714 298.944 
L 218.221714 3.456 
" style="fill:none;stroke:#b0b0b0;stroke-linecap:square;stroke-width:0.8;"/>
     </g>
     <g id="line2d_6">
      <g>
       <use style="stroke:#000000;stroke-width:0.8;" x="218.221714" xlink:href="#m6e39d4ae94" y="298.944"/>
      </g>
     </g>
     <g id="text_3">
      <!-- 4 -->
      <g transform="translate(211.859214 321.140875)scale(0.2 -0.2)">
       <defs>
        <path d="M 37.796875 64.3125 
L 12.890625 25.390625 
L 37.796875 25.390625 
z
M 35.203125 72.90625 
L 47.609375 72.90625 
L 47.609375 25.390625 
L 58.015625 25.390625 
L 58.015625 17.1875 
L 47.609375 17.1875 
L 47.609375 0 
L 37.796875 0 
L 37.796875 17.1875 
L 4.890625 17.1875 
L 4.890625 26.703125 
z
" id="DejaVuSans-52"/>
       </defs>
       <use xlink:href="#DejaVuSans-52"/>
      </g>
     </g>
    </g>
    <g id="xtick_4">
     <g id="line2d_7">
      <path clip-path="url(#p035c833b1f)" d="M 298.532571 298.944 
L 298.532571 3.456 
" style="fill:none;stroke:#b0b0b0;stroke-linecap:square;stroke-width:0.8;"/>
     </g>
     <g id="line2d_8">
      <g>
       <use style="stroke:#000000;stroke-width:0.8;" x="298.532571" xlink:href="#m6e39d4ae94" y="298.944"/>
      </g>
     </g>
     <g id="text_4">
      <!-- 6 -->
      <g transform="translate(292.170071 321.140875)scale(0.2 -0.2)">
       <defs>
        <path d="M 33.015625 40.375 
Q 26.375 40.375 22.484375 35.828125 
Q 18.609375 31.296875 18.609375 23.390625 
Q 18.609375 15.53125 22.484375 10.953125 
Q 26.375 6.390625 33.015625 6.390625 
Q 39.65625 6.390625 43.53125 10.953125 
Q 47.40625 15.53125 47.40625 23.390625 
Q 47.40625 31.296875 43.53125 35.828125 
Q 39.65625 40.375 33.015625 40.375 
z
M 52.59375 71.296875 
L 52.59375 62.3125 
Q 48.875 64.0625 45.09375 64.984375 
Q 41.3125 65.921875 37.59375 65.921875 
Q 27.828125 65.921875 22.671875 59.328125 
Q 17.53125 52.734375 16.796875 39.40625 
Q 19.671875 43.65625 24.015625 45.921875 
Q 28.375 48.1875 33.59375 48.1875 
Q 44.578125 48.1875 50.953125 41.515625 
Q 57.328125 34.859375 57.328125 23.390625 
Q 57.328125 12.15625 50.6875 5.359375 
Q 44.046875 -1.421875 33.015625 -1.421875 
Q 20.359375 -1.421875 13.671875 8.265625 
Q 6.984375 17.96875 6.984375 36.375 
Q 6.984375 53.65625 15.1875 63.9375 
Q 23.390625 74.21875 37.203125 74.21875 
Q 40.921875 74.21875 44.703125 73.484375 
Q 48.484375 72.75 52.59375 71.296875 
z
" id="DejaVuSans-54"/>
       </defs>
       <use xlink:href="#DejaVuSans-54"/>
      </g>
     </g>
    </g>
    <g id="xtick_5">
     <g id="line2d_9">
      <path clip-path="url(#p035c833b1f)" d="M 97.755429 298.944 
L 97.755429 3.456 
" style="fill:none;stroke:#b0b0b0;stroke-linecap:square;stroke-width:0.8;"/>
     </g>
     <g id="line2d_10">
      <defs>
       <path d="M 0 0 
L 0 2 
" id="m76e2892a06" style="stroke:#000000;stroke-width:0.6;"/>
      </defs>
      <g>
       <use style="stroke:#000000;stroke-width:0.6;" x="97.755429" xlink:href="#m76e2892a06" y="298.944"/>
      </g>
     </g>
    </g>
    <g id="xtick_6">
     <g id="line2d_11">
      <path clip-path="url(#p035c833b1f)" d="M 178.066286 298.944 
L 178.066286 3.456 
" style="fill:none;stroke:#b0b0b0;stroke-linecap:square;stroke-width:0.8;"/>
     </g>
     <g id="line2d_12">
      <g>
       <use style="stroke:#000000;stroke-width:0.6;" x="178.066286" xlink:href="#m76e2892a06" y="298.944"/>
      </g>
     </g>
    </g>
    <g id="xtick_7">
     <g id="line2d_13">
      <path clip-path="url(#p035c833b1f)" d="M 258.377143 298.944 
L 258.377143 3.456 
" style="fill:none;stroke:#b0b0b0;stroke-linecap:square;stroke-width:0.8;"/>
     </g>
     <g id="line2d_14">
      <g>
       <use style="stroke:#000000;stroke-width:0.6;" x="258.377143" xlink:href="#m76e2892a06" y="298.944"/>
      </g>
     </g>
    </g>
    <g id="xtick_8">
     <g id="line2d_15">
      <path clip-path="url(#p035c833b1f)" d="M 338.688 298.944 
L 338.688 3.456 
" style="fill:none;stroke:#b0b0b0;stroke-linecap:square;stroke-width:0.8;"/>
     </g>
     <g id="line2d_16">
      <g>
       <use style="stroke:#000000;stroke-width:0.6;" x="338.688" xlink:href="#m76e2892a06" y="298.944"/>
      </g>
     </g>
    </g>
    <g id="text_5">
     <!-- log10(# f-evals / dimension) -->
     <g transform="translate(77.764078 342.217594)scale(0.17 -0.17)">
      <defs>
       <path d="M 9.421875 75.984375 
L 18.40625 75.984375 
L 18.40625 0 
L 9.421875 0 
z
" id="DejaVuSans-108"/>
       <path d="M 30.609375 48.390625 
Q 23.390625 48.390625 19.1875 42.75 
Q 14.984375 37.109375 14.984375 27.296875 
Q 14.984375 17.484375 19.15625 11.84375 
Q 23.34375 6.203125 30.609375 6.203125 
Q 37.796875 6.203125 41.984375 11.859375 
Q 46.1875 17.53125 46.1875 27.296875 
Q 46.1875 37.015625 41.984375 42.703125 
Q 37.796875 48.390625 30.609375 48.390625 
z
M 30.609375 56 
Q 42.328125 56 49.015625 48.375 
Q 55.71875 40.765625 55.71875 27.296875 
Q 55.71875 13.875 49.015625 6.21875 
Q 42.328125 -1.421875 30.609375 -1.421875 
Q 18.84375 -1.421875 12.171875 6.21875 
Q 5.515625 13.875 5.515625 27.296875 
Q 5.515625 40.765625 12.171875 48.375 
Q 18.84375 56 30.609375 56 
z
" id="DejaVuSans-111"/>
       <path d="M 45.40625 27.984375 
Q 45.40625 37.75 41.375 43.109375 
Q 37.359375 48.484375 30.078125 48.484375 
Q 22.859375 48.484375 18.828125 43.109375 
Q 14.796875 37.75 14.796875 27.984375 
Q 14.796875 18.265625 18.828125 12.890625 
Q 22.859375 7.515625 30.078125 7.515625 
Q 37.359375 7.515625 41.375 12.890625 
Q 45.40625 18.265625 45.40625 27.984375 
z
M 54.390625 6.78125 
Q 54.390625 -7.171875 48.1875 -13.984375 
Q 42 -20.796875 29.203125 -20.796875 
Q 24.46875 -20.796875 20.265625 -20.09375 
Q 16.0625 -19.390625 12.109375 -17.921875 
L 12.109375 -9.1875 
Q 16.0625 -11.328125 19.921875 -12.34375 
Q 23.78125 -13.375 27.78125 -13.375 
Q 36.625 -13.375 41.015625 -8.765625 
Q 45.40625 -4.15625 45.40625 5.171875 
L 45.40625 9.625 
Q 42.625 4.78125 38.28125 2.390625 
Q 33.9375 0 27.875 0 
Q 17.828125 0 11.671875 7.65625 
Q 5.515625 15.328125 5.515625 27.984375 
Q 5.515625 40.671875 11.671875 48.328125 
Q 17.828125 56 27.875 56 
Q 33.9375 56 38.28125 53.609375 
Q 42.625 51.21875 45.40625 46.390625 
L 45.40625 54.6875 
L 54.390625 54.6875 
z
" id="DejaVuSans-103"/>
       <path d="M 12.40625 8.296875 
L 28.515625 8.296875 
L 28.515625 63.921875 
L 10.984375 60.40625 
L 10.984375 69.390625 
L 28.421875 72.90625 
L 38.28125 72.90625 
L 38.28125 8.296875 
L 54.390625 8.296875 
L 54.390625 0 
L 12.40625 0 
z
" id="DejaVuSans-49"/>
       <path d="M 31 75.875 
Q 24.46875 64.65625 21.28125 53.65625 
Q 18.109375 42.671875 18.109375 31.390625 
Q 18.109375 20.125 21.3125 9.0625 
Q 24.515625 -2 31 -13.1875 
L 23.1875 -13.1875 
Q 15.875 -1.703125 12.234375 9.375 
Q 8.59375 20.453125 8.59375 31.390625 
Q 8.59375 42.28125 12.203125 53.3125 
Q 15.828125 64.359375 23.1875 75.875 
z
" id="DejaVuSans-40"/>
       <path d="M 51.125 44 
L 36.921875 44 
L 32.8125 27.6875 
L 47.125 27.6875 
z
M 43.796875 71.78125 
L 38.71875 51.515625 
L 52.984375 51.515625 
L 58.109375 71.78125 
L 65.921875 71.78125 
L 60.890625 51.515625 
L 76.125 51.515625 
L 76.125 44 
L 58.984375 44 
L 54.984375 27.6875 
L 70.515625 27.6875 
L 70.515625 20.21875 
L 53.078125 20.21875 
L 48 0 
L 40.1875 0 
L 45.21875 20.21875 
L 30.90625 20.21875 
L 25.875 0 
L 18.015625 0 
L 23.09375 20.21875 
L 7.71875 20.21875 
L 7.71875 27.6875 
L 24.90625 27.6875 
L 29 44 
L 13.28125 44 
L 13.28125 51.515625 
L 30.90625 51.515625 
L 35.890625 71.78125 
z
" id="DejaVuSans-35"/>
       <path id="DejaVuSans-32"/>
       <path d="M 37.109375 75.984375 
L 37.109375 68.5 
L 28.515625 68.5 
Q 23.6875 68.5 21.796875 66.546875 
Q 19.921875 64.59375 19.921875 59.515625 
L 19.921875 54.6875 
L 34.71875 54.6875 
L 34.71875 47.703125 
L 19.921875 47.703125 
L 19.921875 0 
L 10.890625 0 
L 10.890625 47.703125 
L 2.296875 47.703125 
L 2.296875 54.6875 
L 10.890625 54.6875 
L 10.890625 58.5 
Q 10.890625 67.625 15.140625 71.796875 
Q 19.390625 75.984375 28.609375 75.984375 
z
" id="DejaVuSans-102"/>
       <path d="M 4.890625 31.390625 
L 31.203125 31.390625 
L 31.203125 23.390625 
L 4.890625 23.390625 
z
" id="DejaVuSans-45"/>
       <path d="M 56.203125 29.59375 
L 56.203125 25.203125 
L 14.890625 25.203125 
Q 15.484375 15.921875 20.484375 11.0625 
Q 25.484375 6.203125 34.421875 6.203125 
Q 39.59375 6.203125 44.453125 7.46875 
Q 49.3125 8.734375 54.109375 11.28125 
L 54.109375 2.78125 
Q 49.265625 0.734375 44.1875 -0.34375 
Q 39.109375 -1.421875 33.890625 -1.421875 
Q 20.796875 -1.421875 13.15625 6.1875 
Q 5.515625 13.8125 5.515625 26.8125 
Q 5.515625 40.234375 12.765625 48.109375 
Q 20.015625 56 32.328125 56 
Q 43.359375 56 49.78125 48.890625 
Q 56.203125 41.796875 56.203125 29.59375 
z
M 47.21875 32.234375 
Q 47.125 39.59375 43.09375 43.984375 
Q 39.0625 48.390625 32.421875 48.390625 
Q 24.90625 48.390625 20.390625 44.140625 
Q 15.875 39.890625 15.1875 32.171875 
z
" id="DejaVuSans-101"/>
       <path d="M 2.984375 54.6875 
L 12.5 54.6875 
L 29.59375 8.796875 
L 46.6875 54.6875 
L 56.203125 54.6875 
L 35.6875 0 
L 23.484375 0 
z
" id="DejaVuSans-118"/>
       <path d="M 34.28125 27.484375 
Q 23.390625 27.484375 19.1875 25 
Q 14.984375 22.515625 14.984375 16.5 
Q 14.984375 11.71875 18.140625 8.90625 
Q 21.296875 6.109375 26.703125 6.109375 
Q 34.1875 6.109375 38.703125 11.40625 
Q 43.21875 16.703125 43.21875 25.484375 
L 43.21875 27.484375 
z
M 52.203125 31.203125 
L 52.203125 0 
L 43.21875 0 
L 43.21875 8.296875 
Q 40.140625 3.328125 35.546875 0.953125 
Q 30.953125 -1.421875 24.3125 -1.421875 
Q 15.921875 -1.421875 10.953125 3.296875 
Q 6 8.015625 6 15.921875 
Q 6 25.140625 12.171875 29.828125 
Q 18.359375 34.515625 30.609375 34.515625 
L 43.21875 34.515625 
L 43.21875 35.40625 
Q 43.21875 41.609375 39.140625 45 
Q 35.0625 48.390625 27.6875 48.390625 
Q 23 48.390625 18.546875 47.265625 
Q 14.109375 46.140625 10.015625 43.890625 
L 10.015625 52.203125 
Q 14.9375 54.109375 19.578125 55.046875 
Q 24.21875 56 28.609375 56 
Q 40.484375 56 46.34375 49.84375 
Q 52.203125 43.703125 52.203125 31.203125 
z
" id="DejaVuSans-97"/>
       <path d="M 44.28125 53.078125 
L 44.28125 44.578125 
Q 40.484375 46.53125 36.375 47.5 
Q 32.28125 48.484375 27.875 48.484375 
Q 21.1875 48.484375 17.84375 46.4375 
Q 14.5 44.390625 14.5 40.28125 
Q 14.5 37.15625 16.890625 35.375 
Q 19.28125 33.59375 26.515625 31.984375 
L 29.59375 31.296875 
Q 39.15625 29.25 43.1875 25.515625 
Q 47.21875 21.78125 47.21875 15.09375 
Q 47.21875 7.46875 41.1875 3.015625 
Q 35.15625 -1.421875 24.609375 -1.421875 
Q 20.21875 -1.421875 15.453125 -0.5625 
Q 10.6875 0.296875 5.421875 2 
L 5.421875 11.28125 
Q 10.40625 8.6875 15.234375 7.390625 
Q 20.0625 6.109375 24.8125 6.109375 
Q 31.15625 6.109375 34.5625 8.28125 
Q 37.984375 10.453125 37.984375 14.40625 
Q 37.984375 18.0625 35.515625 20.015625 
Q 33.0625 21.96875 24.703125 23.78125 
L 21.578125 24.515625 
Q 13.234375 26.265625 9.515625 29.90625 
Q 5.8125 33.546875 5.8125 39.890625 
Q 5.8125 47.609375 11.28125 51.796875 
Q 16.75 56 26.8125 56 
Q 31.78125 56 36.171875 55.265625 
Q 40.578125 54.546875 44.28125 53.078125 
z
" id="DejaVuSans-115"/>
       <path d="M 25.390625 72.90625 
L 33.6875 72.90625 
L 8.296875 -9.28125 
L 0 -9.28125 
z
" id="DejaVuSans-47"/>
       <path d="M 45.40625 46.390625 
L 45.40625 75.984375 
L 54.390625 75.984375 
L 54.390625 0 
L 45.40625 0 
L 45.40625 8.203125 
Q 42.578125 3.328125 38.25 0.953125 
Q 33.9375 -1.421875 27.875 -1.421875 
Q 17.96875 -1.421875 11.734375 6.484375 
Q 5.515625 14.40625 5.515625 27.296875 
Q 5.515625 40.1875 11.734375 48.09375 
Q 17.96875 56 27.875 56 
Q 33.9375 56 38.25 53.625 
Q 42.578125 51.265625 45.40625 46.390625 
z
M 14.796875 27.296875 
Q 14.796875 17.390625 18.875 11.75 
Q 22.953125 6.109375 30.078125 6.109375 
Q 37.203125 6.109375 41.296875 11.75 
Q 45.40625 17.390625 45.40625 27.296875 
Q 45.40625 37.203125 41.296875 42.84375 
Q 37.203125 48.484375 30.078125 48.484375 
Q 22.953125 48.484375 18.875 42.84375 
Q 14.796875 37.203125 14.796875 27.296875 
z
" id="DejaVuSans-100"/>
       <path d="M 9.421875 54.6875 
L 18.40625 54.6875 
L 18.40625 0 
L 9.421875 0 
z
M 9.421875 75.984375 
L 18.40625 75.984375 
L 18.40625 64.59375 
L 9.421875 64.59375 
z
" id="DejaVuSans-105"/>
       <path d="M 52 44.1875 
Q 55.375 50.25 60.0625 53.125 
Q 64.75 56 71.09375 56 
Q 79.640625 56 84.28125 50.015625 
Q 88.921875 44.046875 88.921875 33.015625 
L 88.921875 0 
L 79.890625 0 
L 79.890625 32.71875 
Q 79.890625 40.578125 77.09375 44.375 
Q 74.3125 48.1875 68.609375 48.1875 
Q 61.625 48.1875 57.5625 43.546875 
Q 53.515625 38.921875 53.515625 30.90625 
L 53.515625 0 
L 44.484375 0 
L 44.484375 32.71875 
Q 44.484375 40.625 41.703125 44.40625 
Q 38.921875 48.1875 33.109375 48.1875 
Q 26.21875 48.1875 22.15625 43.53125 
Q 18.109375 38.875 18.109375 30.90625 
L 18.109375 0 
L 9.078125 0 
L 9.078125 54.6875 
L 18.109375 54.6875 
L 18.109375 46.1875 
Q 21.1875 51.21875 25.484375 53.609375 
Q 29.78125 56 35.6875 56 
Q 41.65625 56 45.828125 52.96875 
Q 50 49.953125 52 44.1875 
z
" id="DejaVuSans-109"/>
       <path d="M 54.890625 33.015625 
L 54.890625 0 
L 45.90625 0 
L 45.90625 32.71875 
Q 45.90625 40.484375 42.875 44.328125 
Q 39.84375 48.1875 33.796875 48.1875 
Q 26.515625 48.1875 22.3125 43.546875 
Q 18.109375 38.921875 18.109375 30.90625 
L 18.109375 0 
L 9.078125 0 
L 9.078125 54.6875 
L 18.109375 54.6875 
L 18.109375 46.1875 
Q 21.34375 51.125 25.703125 53.5625 
Q 30.078125 56 35.796875 56 
Q 45.21875 56 50.046875 50.171875 
Q 54.890625 44.34375 54.890625 33.015625 
z
" id="DejaVuSans-110"/>
       <path d="M 8.015625 75.875 
L 15.828125 75.875 
Q 23.140625 64.359375 26.78125 53.3125 
Q 30.421875 42.28125 30.421875 31.390625 
Q 30.421875 20.453125 26.78125 9.375 
Q 23.140625 -1.703125 15.828125 -13.1875 
L 8.015625 -13.1875 
Q 14.5 -2 17.703125 9.0625 
Q 20.90625 20.125 20.90625 31.390625 
Q 20.90625 42.671875 17.703125 53.65625 
Q 14.5 64.65625 8.015625 75.875 
z
" id="DejaVuSans-41"/>
      </defs>
      <use xlink:href="#DejaVuSans-108"/>
      <use x="27.783203" xlink:href="#DejaVuSans-111"/>
      <use x="88.964844" xlink:href="#DejaVuSans-103"/>
      <use x="152.441406" xlink:href="#DejaVuSans-49"/>
      <use x="216.064453" xlink:href="#DejaVuSans-48"/>
      <use x="279.6875" xlink:href="#DejaVuSans-40"/>
      <use x="318.701172" xlink:href="#DejaVuSans-35"/>
      <use x="402.490234" xlink:href="#DejaVuSans-32"/>
      <use x="434.277344" xlink:href="#DejaVuSans-102"/>
      <use x="463.982422" xlink:href="#DejaVuSans-45"/>
      <use x="500.066406" xlink:href="#DejaVuSans-101"/>
      <use x="561.589844" xlink:href="#DejaVuSans-118"/>
      <use x="620.769531" xlink:href="#DejaVuSans-97"/>
      <use x="682.048828" xlink:href="#DejaVuSans-108"/>
      <use x="709.832031" xlink:href="#DejaVuSans-115"/>
      <use x="761.931641" xlink:href="#DejaVuSans-32"/>
      <use x="793.71875" xlink:href="#DejaVuSans-47"/>
      <use x="827.410156" xlink:href="#DejaVuSans-32"/>
      <use x="859.197266" xlink:href="#DejaVuSans-100"/>
      <use x="922.673828" xlink:href="#DejaVuSans-105"/>
      <use x="950.457031" xlink:href="#DejaVuSans-109"/>
      <use x="1047.869141" xlink:href="#DejaVuSans-101"/>
      <use x="1109.392578" xlink:href="#DejaVuSans-110"/>
      <use x="1172.771484" xlink:href="#DejaVuSans-115"/>
      <use x="1224.871094" xlink:href="#DejaVuSans-105"/>
      <use x="1252.654297" xlink:href="#DejaVuSans-111"/>
      <use x="1313.835938" xlink:href="#DejaVuSans-110"/>
      <use x="1377.214844" xlink:href="#DejaVuSans-41"/>
     </g>
    </g>
   </g>
   <g id="matplotlib.axis_2">
    <g id="ytick_1">
     <g id="line2d_17">
      <path clip-path="url(#p035c833b1f)" d="M 57.6 298.944 
L 338.688 298.944 
" style="fill:none;stroke:#b0b0b0;stroke-linecap:square;stroke-width:0.8;"/>
     </g>
     <g id="line2d_18">
      <defs>
       <path d="M 0 0 
L -3.5 0 
" id="m535fe9dc10" style="stroke:#000000;stroke-width:0.8;"/>
      </defs>
      <g>
       <use style="stroke:#000000;stroke-width:0.8;" x="57.6" xlink:href="#m535fe9dc10" y="298.944"/>
      </g>
     </g>
     <g id="text_6">
      <!-- 0.0 -->
      <g transform="translate(25.155 305.02275)scale(0.16 -0.16)">
       <defs>
        <path d="M 10.6875 12.40625 
L 21 12.40625 
L 21 0 
L 10.6875 0 
z
" id="DejaVuSans-46"/>
       </defs>
       <use xlink:href="#DejaVuSans-48"/>
       <use x="63.623047" xlink:href="#DejaVuSans-46"/>
       <use x="95.410156" xlink:href="#DejaVuSans-48"/>
      </g>
     </g>
    </g>
    <g id="ytick_2">
     <g id="line2d_19">
      <path clip-path="url(#p035c833b1f)" d="M 57.6 240.431525 
L 338.688 240.431525 
" style="fill:none;stroke:#b0b0b0;stroke-linecap:square;stroke-width:0.8;"/>
     </g>
     <g id="line2d_20">
      <g>
       <use style="stroke:#000000;stroke-width:0.8;" x="57.6" xlink:href="#m535fe9dc10" y="240.431525"/>
      </g>
     </g>
     <g id="text_7">
      <!-- 0.2 -->
      <g transform="translate(25.155 246.510275)scale(0.16 -0.16)">
       <use xlink:href="#DejaVuSans-48"/>
       <use x="63.623047" xlink:href="#DejaVuSans-46"/>
       <use x="95.410156" xlink:href="#DejaVuSans-50"/>
      </g>
     </g>
    </g>
    <g id="ytick_3">
     <g id="line2d_21">
      <path clip-path="url(#p035c833b1f)" d="M 57.6 181.91905 
L 338.688 181.91905 
" style="fill:none;stroke:#b0b0b0;stroke-linecap:square;stroke-width:0.8;"/>
     </g>
     <g id="line2d_22">
      <g>
       <use style="stroke:#000000;stroke-width:0.8;" x="57.6" xlink:href="#m535fe9dc10" y="181.91905"/>
      </g>
     </g>
     <g id="text_8">
      <!-- 0.4 -->
      <g transform="translate(25.155 187.9978)scale(0.16 -0.16)">
       <use xlink:href="#DejaVuSans-48"/>
       <use x="63.623047" xlink:href="#DejaVuSans-46"/>
       <use x="95.410156" xlink:href="#DejaVuSans-52"/>
      </g>
     </g>
    </g>
    <g id="ytick_4">
     <g id="line2d_23">
      <path clip-path="url(#p035c833b1f)" d="M 57.6 123.406574 
L 338.688 123.406574 
" style="fill:none;stroke:#b0b0b0;stroke-linecap:square;stroke-width:0.8;"/>
     </g>
     <g id="line2d_24">
      <g>
       <use style="stroke:#000000;stroke-width:0.8;" x="57.6" xlink:href="#m535fe9dc10" y="123.406574"/>
      </g>
     </g>
     <g id="text_9">
      <!-- 0.6 -->
      <g transform="translate(25.155 129.485324)scale(0.16 -0.16)">
       <use xlink:href="#DejaVuSans-48"/>
       <use x="63.623047" xlink:href="#DejaVuSans-46"/>
       <use x="95.410156" xlink:href="#DejaVuSans-54"/>
      </g>
     </g>
    </g>
    <g id="ytick_5">
     <g id="line2d_25">
      <path clip-path="url(#p035c833b1f)" d="M 57.6 64.894099 
L 338.688 64.894099 
" style="fill:none;stroke:#b0b0b0;stroke-linecap:square;stroke-width:0.8;"/>
     </g>
     <g id="line2d_26">
      <g>
       <use style="stroke:#000000;stroke-width:0.8;" x="57.6" xlink:href="#m535fe9dc10" y="64.894099"/>
      </g>
     </g>
     <g id="text_10">
      <!-- 0.8 -->
      <g transform="translate(25.155 70.972849)scale(0.16 -0.16)">
       <defs>
        <path d="M 31.78125 34.625 
Q 24.75 34.625 20.71875 30.859375 
Q 16.703125 27.09375 16.703125 20.515625 
Q 16.703125 13.921875 20.71875 10.15625 
Q 24.75 6.390625 31.78125 6.390625 
Q 38.8125 6.390625 42.859375 10.171875 
Q 46.921875 13.96875 46.921875 20.515625 
Q 46.921875 27.09375 42.890625 30.859375 
Q 38.875 34.625 31.78125 34.625 
z
M 21.921875 38.8125 
Q 15.578125 40.375 12.03125 44.71875 
Q 8.5 49.078125 8.5 55.328125 
Q 8.5 64.0625 14.71875 69.140625 
Q 20.953125 74.21875 31.78125 74.21875 
Q 42.671875 74.21875 48.875 69.140625 
Q 55.078125 64.0625 55.078125 55.328125 
Q 55.078125 49.078125 51.53125 44.71875 
Q 48 40.375 41.703125 38.8125 
Q 48.828125 37.15625 52.796875 32.3125 
Q 56.78125 27.484375 56.78125 20.515625 
Q 56.78125 9.90625 50.3125 4.234375 
Q 43.84375 -1.421875 31.78125 -1.421875 
Q 19.734375 -1.421875 13.25 4.234375 
Q 6.78125 9.90625 6.78125 20.515625 
Q 6.78125 27.484375 10.78125 32.3125 
Q 14.796875 37.15625 21.921875 38.8125 
z
M 18.3125 54.390625 
Q 18.3125 48.734375 21.84375 45.5625 
Q 25.390625 42.390625 31.78125 42.390625 
Q 38.140625 42.390625 41.71875 45.5625 
Q 45.3125 48.734375 45.3125 54.390625 
Q 45.3125 60.0625 41.71875 63.234375 
Q 38.140625 66.40625 31.78125 66.40625 
Q 25.390625 66.40625 21.84375 63.234375 
Q 18.3125 60.0625 18.3125 54.390625 
z
" id="DejaVuSans-56"/>
       </defs>
       <use xlink:href="#DejaVuSans-48"/>
       <use x="63.623047" xlink:href="#DejaVuSans-46"/>
       <use x="95.410156" xlink:href="#DejaVuSans-56"/>
      </g>
     </g>
    </g>
    <g id="ytick_6">
     <g id="line2d_27">
      <path clip-path="url(#p035c833b1f)" d="M 57.6 6.381624 
L 338.688 6.381624 
" style="fill:none;stroke:#b0b0b0;stroke-linecap:square;stroke-width:0.8;"/>
     </g>
     <g id="line2d_28">
      <g>
       <use style="stroke:#000000;stroke-width:0.8;" x="57.6" xlink:href="#m535fe9dc10" y="6.381624"/>
      </g>
     </g>
     <g id="text_11">
      <!-- 1.0 -->
      <g transform="translate(25.155 12.460374)scale(0.16 -0.16)">
       <use xlink:href="#DejaVuSans-49"/>
       <use x="63.623047" xlink:href="#DejaVuSans-46"/>
       <use x="95.410156" xlink:href="#DejaVuSans-48"/>
      </g>
     </g>
    </g>
    <g id="text_12">
     <!-- Fraction of function,target pairs -->
     <g transform="translate(17.619531 285.585)rotate(-90)scale(0.17 -0.17)">
      <defs>
       <path d="M 9.8125 72.90625 
L 51.703125 72.90625 
L 51.703125 64.59375 
L 19.671875 64.59375 
L 19.671875 43.109375 
L 48.578125 43.109375 
L 48.578125 34.8125 
L 19.671875 34.8125 
L 19.671875 0 
L 9.8125 0 
z
" id="DejaVuSans-70"/>
       <path d="M 41.109375 46.296875 
Q 39.59375 47.171875 37.8125 47.578125 
Q 36.03125 48 33.890625 48 
Q 26.265625 48 22.1875 43.046875 
Q 18.109375 38.09375 18.109375 28.8125 
L 18.109375 0 
L 9.078125 0 
L 9.078125 54.6875 
L 18.109375 54.6875 
L 18.109375 46.1875 
Q 20.953125 51.171875 25.484375 53.578125 
Q 30.03125 56 36.53125 56 
Q 37.453125 56 38.578125 55.875 
Q 39.703125 55.765625 41.0625 55.515625 
z
" id="DejaVuSans-114"/>
       <path d="M 48.78125 52.59375 
L 48.78125 44.1875 
Q 44.96875 46.296875 41.140625 47.34375 
Q 37.3125 48.390625 33.40625 48.390625 
Q 24.65625 48.390625 19.8125 42.84375 
Q 14.984375 37.3125 14.984375 27.296875 
Q 14.984375 17.28125 19.8125 11.734375 
Q 24.65625 6.203125 33.40625 6.203125 
Q 37.3125 6.203125 41.140625 7.25 
Q 44.96875 8.296875 48.78125 10.40625 
L 48.78125 2.09375 
Q 45.015625 0.34375 40.984375 -0.53125 
Q 36.96875 -1.421875 32.421875 -1.421875 
Q 20.0625 -1.421875 12.78125 6.34375 
Q 5.515625 14.109375 5.515625 27.296875 
Q 5.515625 40.671875 12.859375 48.328125 
Q 20.21875 56 33.015625 56 
Q 37.15625 56 41.109375 55.140625 
Q 45.0625 54.296875 48.78125 52.59375 
z
" id="DejaVuSans-99"/>
       <path d="M 18.3125 70.21875 
L 18.3125 54.6875 
L 36.8125 54.6875 
L 36.8125 47.703125 
L 18.3125 47.703125 
L 18.3125 18.015625 
Q 18.3125 11.328125 20.140625 9.421875 
Q 21.96875 7.515625 27.59375 7.515625 
L 36.8125 7.515625 
L 36.8125 0 
L 27.59375 0 
Q 17.1875 0 13.234375 3.875 
Q 9.28125 7.765625 9.28125 18.015625 
L 9.28125 47.703125 
L 2.6875 47.703125 
L 2.6875 54.6875 
L 9.28125 54.6875 
L 9.28125 70.21875 
z
" id="DejaVuSans-116"/>
       <path d="M 8.5 21.578125 
L 8.5 54.6875 
L 17.484375 54.6875 
L 17.484375 21.921875 
Q 17.484375 14.15625 20.5 10.265625 
Q 23.53125 6.390625 29.59375 6.390625 
Q 36.859375 6.390625 41.078125 11.03125 
Q 45.3125 15.671875 45.3125 23.6875 
L 45.3125 54.6875 
L 54.296875 54.6875 
L 54.296875 0 
L 45.3125 0 
L 45.3125 8.40625 
Q 42.046875 3.421875 37.71875 1 
Q 33.40625 -1.421875 27.6875 -1.421875 
Q 18.265625 -1.421875 13.375 4.4375 
Q 8.5 10.296875 8.5 21.578125 
z
M 31.109375 56 
z
" id="DejaVuSans-117"/>
       <path d="M 11.71875 12.40625 
L 22.015625 12.40625 
L 22.015625 4 
L 14.015625 -11.625 
L 7.71875 -11.625 
L 11.71875 4 
z
" id="DejaVuSans-44"/>
       <path d="M 18.109375 8.203125 
L 18.109375 -20.796875 
L 9.078125 -20.796875 
L 9.078125 54.6875 
L 18.109375 54.6875 
L 18.109375 46.390625 
Q 20.953125 51.265625 25.265625 53.625 
Q 29.59375 56 35.59375 56 
Q 45.5625 56 51.78125 48.09375 
Q 58.015625 40.1875 58.015625 27.296875 
Q 58.015625 14.40625 51.78125 6.484375 
Q 45.5625 -1.421875 35.59375 -1.421875 
Q 29.59375 -1.421875 25.265625 0.953125 
Q 20.953125 3.328125 18.109375 8.203125 
z
M 48.6875 27.296875 
Q 48.6875 37.203125 44.609375 42.84375 
Q 40.53125 48.484375 33.40625 48.484375 
Q 26.265625 48.484375 22.1875 42.84375 
Q 18.109375 37.203125 18.109375 27.296875 
Q 18.109375 17.390625 22.1875 11.75 
Q 26.265625 6.109375 33.40625 6.109375 
Q 40.53125 6.109375 44.609375 11.75 
Q 48.6875 17.390625 48.6875 27.296875 
z
" id="DejaVuSans-112"/>
      </defs>
      <use xlink:href="#DejaVuSans-70"/>
      <use x="50.269531" xlink:href="#DejaVuSans-114"/>
      <use x="91.382812" xlink:href="#DejaVuSans-97"/>
      <use x="152.662109" xlink:href="#DejaVuSans-99"/>
      <use x="207.642578" xlink:href="#DejaVuSans-116"/>
      <use x="246.851562" xlink:href="#DejaVuSans-105"/>
      <use x="274.634766" xlink:href="#DejaVuSans-111"/>
      <use x="335.816406" xlink:href="#DejaVuSans-110"/>
      <use x="399.195312" xlink:href="#DejaVuSans-32"/>
      <use x="430.982422" xlink:href="#DejaVuSans-111"/>
      <use x="492.164062" xlink:href="#DejaVuSans-102"/>
      <use x="527.369141" xlink:href="#DejaVuSans-32"/>
      <use x="559.15625" xlink:href="#DejaVuSans-102"/>
      <use x="594.361328" xlink:href="#DejaVuSans-117"/>
      <use x="657.740234" xlink:href="#DejaVuSans-110"/>
      <use x="721.119141" xlink:href="#DejaVuSans-99"/>
      <use x="776.099609" xlink:href="#DejaVuSans-116"/>
      <use x="815.308594" xlink:href="#DejaVuSans-105"/>
      <use x="843.091797" xlink:href="#DejaVuSans-111"/>
      <use x="904.273438" xlink:href="#DejaVuSans-110"/>
      <use x="967.652344" xlink:href="#DejaVuSans-44"/>
      <use x="999.439453" xlink:href="#DejaVuSans-116"/>
      <use x="1038.648438" xlink:href="#DejaVuSans-97"/>
      <use x="1099.927734" xlink:href="#DejaVuSans-114"/>
      <use x="1139.291016" xlink:href="#DejaVuSans-103"/>
      <use x="1202.767578" xlink:href="#DejaVuSans-101"/>
      <use x="1264.291016" xlink:href="#DejaVuSans-116"/>
      <use x="1303.5" xlink:href="#DejaVuSans-32"/>
      <use x="1335.287109" xlink:href="#DejaVuSans-112"/>
      <use x="1398.763672" xlink:href="#DejaVuSans-97"/>
      <use x="1460.042969" xlink:href="#DejaVuSans-105"/>
      <use x="1487.826172" xlink:href="#DejaVuSans-114"/>
      <use x="1528.939453" xlink:href="#DejaVuSans-115"/>
     </g>
    </g>
   </g>
   <g id="line2d_29">
    <defs>
     <path d="M 0 1.5 
C 0.397805 1.5 0.77937 1.341951 1.06066 1.06066 
C 1.341951 0.77937 1.5 0.397805 1.5 0 
C 1.5 -0.397805 1.341951 -0.77937 1.06066 -1.06066 
C 0.77937 -1.341951 0.397805 -1.5 0 -1.5 
C -0.397805 -1.5 -0.77937 -1.341951 -1.06066 -1.06066 
C -1.341951 -0.77937 -1.5 -0.397805 -1.5 0 
C -1.5 0.397805 -1.341951 0.77937 -1.06066 1.06066 
C -0.77937 1.341951 -0.397805 1.5 0 1.5 
z
" id="m28471448c3" style="stroke:#000080;"/>
    </defs>
    <g>
     <use style="fill:#000080;stroke:#000080;" x="211.228821" xlink:href="#m28471448c3" y="6.381624"/>
     <use style="fill:#000080;stroke:#000080;" x="211.228821" xlink:href="#m28471448c3" y="6.381624"/>
    </g>
   </g>
   <g id="line2d_30">
    <path d="M 29.53256 298.944 
L 29.53256 281.160797 
L 95.526106 281.160797 
L 95.526106 280.587145 
L 97.043522 280.587145 
L 97.043522 280.013493 
L 99.097574 280.013493 
L 99.097574 278.86619 
L 100.343767 278.86619 
L 100.343767 278.292538 
L 100.934985 278.292538 
L 100.934985 277.145235 
L 101.506816 277.145235 
L 101.506816 276.571583 
L 102.597126 276.571583 
L 102.597126 275.997931 
L 102.859376 275.997931 
L 102.859376 275.42428 
L 103.117741 275.42428 
L 103.117741 274.850628 
L 103.372333 274.850628 
L 103.372333 274.276976 
L 103.870632 274.276976 
L 103.870632 271.982369 
L 104.114542 271.982369 
L 104.114542 270.835066 
L 104.592361 270.835066 
L 104.592361 267.966807 
L 104.826449 267.966807 
L 104.826449 266.245852 
L 105.285403 266.245852 
L 105.285403 265.098549 
L 105.51043 265.098549 
L 105.51043 264.524897 
L 113.311233 264.524897 
L 113.311233 263.951245 
L 116.202531 263.951245 
L 116.202531 263.377593 
L 116.797786 263.377593 
L 116.797786 262.803942 
L 117.709852 262.803942 
L 117.709852 262.23029 
L 118.148599 262.23029 
L 118.148599 261.656638 
L 118.890808 261.656638 
L 118.890808 261.082987 
L 119.602714 261.082987 
L 119.602714 260.509335 
L 121.036887 260.509335 
L 121.036887 259.935683 
L 121.219499 259.935683 
L 121.219499 259.362031 
L 121.579085 259.362031 
L 121.579085 258.78838 
L 122.191052 258.78838 
L 122.191052 258.214728 
L 123.751369 258.214728 
L 123.751369 257.641076 
L 126.099688 257.641076 
L 126.099688 257.067425 
L 126.439646 257.067425 
L 126.439646 256.493773 
L 127.293718 256.493773 
L 127.293718 255.346469 
L 127.611382 255.346469 
L 127.611382 254.772818 
L 127.736845 254.772818 
L 127.736845 254.199166 
L 128.350967 254.199166 
L 128.350967 253.625514 
L 128.531065 253.625514 
L 128.531065 253.051863 
L 128.944197 253.051863 
L 128.944197 252.478211 
L 129.06046 252.478211 
L 129.06046 251.904559 
L 129.51791 251.904559 
L 129.51791 251.330907 
L 130.717333 251.330907 
L 130.717333 250.757256 
L 131.888878 250.757256 
L 131.888878 250.183604 
L 132.084827 250.183604 
L 132.084827 249.609952 
L 135.076644 249.609952 
L 135.076644 249.036301 
L 136.112156 249.036301 
L 136.112156 248.462649 
L 136.456742 248.462649 
L 136.456742 247.888997 
L 136.720123 247.888997 
L 136.720123 247.315345 
L 136.831795 247.315345 
L 136.905847 246.168042 
L 137.053015 246.168042 
L 137.053015 245.59439 
L 137.52291 245.59439 
L 137.52291 245.020738 
L 138.153314 245.020738 
L 138.153314 244.447087 
L 138.69516 244.447087 
L 138.69516 243.873435 
L 139.604677 243.873435 
L 139.604677 243.299783 
L 139.730821 243.299783 
L 139.730821 242.726132 
L 139.9494 242.726132 
L 139.9494 242.15248 
L 140.073083 242.15248 
L 140.073083 240.431525 
L 140.348205 240.431525 
L 140.438956 239.284221 
L 140.767727 239.284221 
L 140.856326 238.136918 
L 140.88576 238.136918 
L 140.944478 236.989614 
L 141.148448 236.989614 
L 141.148448 236.415963 
L 141.858037 236.415963 
L 141.858037 235.842311 
L 142.752555 235.842311 
L 142.752555 235.268659 
L 146.08557 235.268659 
L 146.08557 234.695008 
L 146.216039 234.695008 
L 146.302479 233.547704 
L 146.538004 233.547704 
L 146.538004 232.400401 
L 146.895853 232.400401 
L 146.999721 231.253097 
L 147.226074 231.253097 
L 147.327999 229.532142 
L 147.509976 229.532142 
L 147.590249 226.663884 
L 147.670154 226.663884 
L 147.690073 225.51658 
L 147.828875 225.51658 
L 147.828875 224.942928 
L 147.946974 224.942928 
L 148.044783 222.07467 
L 148.064279 222.07467 
L 148.142046 220.353715 
L 148.200145 220.353715 
L 148.27731 218.632759 
L 148.354135 218.632759 
L 148.449693 215.190849 
L 148.468742 215.190849 
L 148.563676 212.322591 
L 148.601505 212.322591 
L 148.695721 209.454332 
L 148.714503 209.454332 
L 148.78943 207.733377 
L 148.864037 207.733377 
L 148.956849 204.291467 
L 148.975352 204.291467 
L 149.067574 201.423208 
L 149.141003 201.423208 
L 149.25057 198.554949 
L 149.268764 198.554949 
L 149.377533 194.539387 
L 149.413639 194.539387 
L 149.521512 187.655567 
L 149.575199 187.655567 
L 149.664311 184.213656 
L 149.717561 184.213656 
L 149.823575 180.771746 
L 149.841182 180.771746 
L 149.946449 176.756184 
L 149.981398 176.756184 
L 149.981398 176.182532 
L 151.195055 176.182532 
L 151.195055 175.608881 
L 152.572143 175.608881 
L 152.572143 175.035229 
L 154.547439 175.035229 
L 154.547439 174.461577 
L 155.34833 174.461577 
L 155.34833 173.887925 
L 155.641006 173.887925 
L 155.641006 173.314274 
L 156.187581 173.314274 
L 156.187581 172.740622 
L 156.502685 172.740622 
L 156.610446 171.593319 
L 156.847557 171.593319 
L 156.941506 170.446015 
L 157.15106 170.446015 
L 157.15106 169.872363 
L 157.289376 169.872363 
L 157.289376 169.298712 
L 157.528821 169.298712 
L 157.528821 168.72506 
L 157.675417 168.72506 
L 157.675417 168.151408 
L 157.820792 168.151408 
L 157.909655 166.430453 
L 157.942862 166.430453 
L 158.053098 164.135846 
L 158.086033 164.135846 
L 158.086033 163.562195 
L 158.260646 163.562195 
L 158.358103 161.841239 
L 158.379686 161.841239 
L 158.476481 160.120284 
L 158.497919 160.120284 
L 158.583406 158.972981 
L 158.625992 158.972981 
L 158.625992 158.399329 
L 158.952561 158.399329 
L 158.952561 157.825677 
L 159.242359 157.825677 
L 159.242359 157.252026 
L 159.527421 157.252026 
L 159.527421 156.678374 
L 160.793103 156.678374 
L 160.793103 155.53107 
L 160.998493 155.53107 
L 161.054091 154.383767 
L 161.155563 154.383767 
L 161.238149 151.515508 
L 161.365843 151.515508 
L 161.474555 149.794553 
L 161.483584 149.794553 
L 161.591568 142.910733 
L 161.663187 142.910733 
L 161.734513 141.189778 
L 161.805549 141.189778 
L 161.893939 138.321519 
L 161.920369 138.321519 
L 162.00818 136.600564 
L 162.043181 136.600564 
L 162.069386 132.01135 
L 163.217788 132.01135 
L 163.217788 131.437698 
L 163.701348 131.437698 
L 163.804376 129.716743 
L 164.01643 129.716743 
L 164.01643 129.143091 
L 164.410075 129.143091 
L 164.410075 128.56944 
L 164.735204 128.56944 
L 164.832318 127.422136 
L 165.689922 127.422136 
L 165.689922 126.848485 
L 165.85228 126.848485 
L 165.85228 126.274833 
L 165.999212 126.274833 
L 165.999212 125.701181 
L 166.110335 125.701181 
L 166.110335 125.127529 
L 166.234507 125.127529 
L 166.234507 124.553878 
L 166.350975 124.553878 
L 166.446309 122.832923 
L 166.507321 122.832923 
L 166.608536 119.964664 
L 166.675688 119.964664 
L 166.722541 118.243709 
L 166.795913 118.243709 
L 166.849082 117.096405 
L 166.921925 117.096405 
L 166.974711 115.37545 
L 167.033906 115.37545 
L 167.099442 113.654495 
L 167.177763 113.654495 
L 167.177763 113.080843 
L 167.378477 113.080843 
L 167.461965 111.359888 
L 167.659453 111.359888 
L 167.659453 110.786236 
L 168.01684 110.786236 
L 168.01684 110.212585 
L 168.287795 110.212585 
L 168.287795 109.638933 
L 168.452002 109.638933 
L 168.530517 107.917978 
L 168.578658 107.917978 
L 168.686493 105.623371 
L 168.734207 105.623371 
L 168.841088 101.607809 
L 168.947317 101.607809 
L 169.052903 98.165899 
L 169.099626 98.165899 
L 169.140406 97.018595 
L 169.319866 97.018595 
L 169.319866 96.444944 
L 169.953269 96.444944 
L 169.958822 95.29764 
L 170.326903 95.29764 
L 170.419074 94.150337 
L 170.623359 94.150337 
L 170.623359 93.003033 
L 170.830561 93.003033 
L 170.830561 92.429381 
L 170.993522 92.429381 
L 170.993522 91.85573 
L 171.154974 91.85573 
L 171.154974 91.282078 
L 171.294385 91.282078 
L 171.386711 90.134775 
L 171.54458 90.134775 
L 171.559782 88.987471 
L 171.706056 88.987471 
L 171.796233 87.840168 
L 171.836163 87.840168 
L 171.940545 85.545561 
L 172.083673 85.545561 
L 172.147455 84.398257 
L 172.196359 84.398257 
L 172.225636 83.250954 
L 172.322872 83.250954 
L 172.400273 80.956347 
L 172.573178 80.956347 
L 172.654236 79.809044 
L 172.993422 79.809044 
L 173.049317 78.66174 
L 173.321559 78.66174 
L 173.321559 78.088089 
L 173.630147 78.088089 
L 173.688525 76.940785 
L 173.751176 76.940785 
L 173.80915 75.793482 
L 173.973109 75.793482 
L 173.973109 75.21983 
L 174.087407 75.21983 
L 174.144277 74.072526 
L 174.369919 74.072526 
L 174.369919 73.498875 
L 174.520166 73.498875 
L 174.520166 72.925223 
L 175.166295 72.925223 
L 175.256675 71.204268 
L 175.338435 71.204268 
L 175.431987 68.336009 
L 175.657689 68.336009 
L 175.657689 67.762358 
L 175.781387 67.762358 
L 175.781387 67.188706 
L 175.908161 67.188706 
L 175.908161 66.615054 
L 176.02618 66.615054 
L 176.135616 65.467751 
L 176.371677 65.467751 
L 176.371677 64.320447 
L 176.509508 64.320447 
L 176.528565 63.173144 
L 176.706692 63.173144 
L 176.808204 62.02584 
L 176.950079 62.02584 
L 176.950079 61.452189 
L 177.16075 61.452189 
L 177.186447 59.731234 
L 177.560251 59.731234 
L 177.624761 58.010278 
L 177.806255 58.010278 
L 177.816873 56.862975 
L 177.929726 56.862975 
L 177.933241 55.715672 
L 178.066286 55.715672 
L 178.128954 53.994716 
L 178.225994 53.994716 
L 178.301862 52.273761 
L 178.817212 52.273761 
L 178.817212 51.700109 
L 179.51147 51.700109 
L 179.51147 51.126458 
L 179.870531 51.126458 
L 179.9615 49.979154 
L 180.216183 49.979154 
L 180.259296 48.831851 
L 181.094043 48.831851 
L 181.146739 47.684547 
L 181.237121 47.684547 
L 181.237121 47.110896 
L 181.442376 47.110896 
L 181.442376 46.537244 
L 181.699134 46.537244 
L 181.733085 45.389941 
L 181.907451 45.389941 
L 181.907451 44.816289 
L 182.102243 44.816289 
L 182.116074 43.668985 
L 182.281194 43.668985 
L 182.374073 41.94803 
L 182.684605 41.94803 
L 182.788672 40.227075 
L 182.836495 40.227075 
L 182.836495 39.653423 
L 182.992333 39.653423 
L 182.992333 39.079772 
L 183.743743 39.079772 
L 183.771427 37.358817 
L 184.393883 37.358817 
L 184.500324 36.211513 
L 184.572527 36.211513 
L 184.677886 33.916906 
L 184.708893 33.916906 
L 184.708893 33.343255 
L 184.853658 33.343255 
L 184.945586 32.195951 
L 185.276265 32.195951 
L 185.363703 31.048648 
L 185.475809 31.048648 
L 185.475809 30.474996 
L 186.001453 30.474996 
L 186.001453 29.901344 
L 186.160053 29.901344 
L 186.160053 29.327692 
L 186.957269 29.327692 
L 186.957269 28.754041 
L 187.113676 28.754041 
L 187.113676 28.180389 
L 187.381503 28.180389 
L 187.381503 27.606737 
L 188.299415 27.606737 
L 188.299415 27.033086 
L 189.4841 27.033086 
L 189.4841 26.459434 
L 190.494488 26.459434 
L 190.525245 25.31213 
L 190.90353 25.31213 
L 190.90353 24.738479 
L 191.030035 24.738479 
L 191.139155 23.017524 
L 191.145746 23.017524 
L 191.145746 22.443872 
L 191.89077 22.443872 
L 191.89077 21.87022 
L 192.688406 21.87022 
L 192.688406 21.296568 
L 193.412132 21.296568 
L 193.412132 20.722917 
L 193.583452 20.722917 
L 193.617801 19.575613 
L 194.194382 19.575613 
L 194.194382 19.001962 
L 194.391081 19.001962 
L 194.391081 18.42831 
L 195.391757 18.42831 
L 195.391757 17.854658 
L 195.674871 17.854658 
L 195.674871 17.281006 
L 195.878265 17.281006 
L 195.878265 16.707355 
L 196.613617 16.707355 
L 196.64129 15.560051 
L 197.115664 15.560051 
L 197.115664 14.9864 
L 197.644569 14.9864 
L 197.644569 14.412748 
L 198.621181 14.412748 
L 198.621181 13.839096 
L 198.817538 13.839096 
L 198.817538 13.265444 
L 199.590715 13.265444 
L 199.590715 12.691793 
L 201.520362 12.691793 
L 201.520362 12.118141 
L 201.632693 12.118141 
L 201.632693 11.544489 
L 201.838259 11.544489 
L 201.838259 10.970838 
L 201.981347 10.970838 
L 201.981347 10.397186 
L 202.320563 10.397186 
L 202.320563 9.823534 
L 202.789887 9.823534 
L 202.789887 9.249882 
L 203.788285 9.249882 
L 203.788285 8.676231 
L 203.981915 8.676231 
L 203.981915 8.102579 
L 206.845855 8.102579 
L 206.845855 7.528927 
L 207.411161 7.528927 
L 207.411161 6.955275 
L 211.228821 6.955275 
L 211.228821 6.381624 
L 338.688 6.381624 
L 338.688 6.381624 
" style="fill:none;stroke:#000080;stroke-linecap:square;stroke-width:1.5;"/>
   </g>
   <g id="line2d_31">
    <defs>
     <path d="M 0 6 
C 1.591219 6 3.117479 5.367802 4.242641 4.242641 
C 5.367802 3.117479 6 1.591219 6 0 
C 6 -1.591219 5.367802 -3.117479 4.242641 -4.242641 
C 3.117479 -5.367802 1.591219 -6 0 -6 
C -1.591219 -6 -3.117479 -5.367802 -4.242641 -4.242641 
C -5.367802 -3.117479 -6 -1.591219 -6 0 
C -6 1.591219 -5.367802 3.117479 -4.242641 4.242641 
C -3.117479 5.367802 -1.591219 6 0 6 
z
" id="m7453599527" style="stroke:#000080;stroke-width:1.5;"/>
    </defs>
    <g>
     <use style="fill-opacity:0;stroke:#000080;stroke-width:1.5;" x="132.084827" xlink:href="#m7453599527" y="250.183604"/>
     <use style="fill-opacity:0;stroke:#000080;stroke-width:1.5;" x="155.34833" xlink:href="#m7453599527" y="173.887925"/>
     <use style="fill-opacity:0;stroke:#000080;stroke-width:1.5;" x="184.500324" xlink:href="#m7453599527" y="36.211513"/>
     <use style="fill-opacity:0;stroke:#000080;stroke-width:1.5;" x="211.228821" xlink:href="#m7453599527" y="6.381624"/>
     <use style="fill-opacity:0;stroke:#000080;stroke-width:1.5;" x="211.228821" xlink:href="#m7453599527" y="6.381624"/>
     <use style="fill-opacity:0;stroke:#000080;stroke-width:1.5;" x="338.688" xlink:href="#m7453599527" y="6.381624"/>
    </g>
   </g>
   <g id="line2d_32">
    <path style="fill:none;stroke:#000080;stroke-linecap:square;stroke-width:1.5;"/>
    <g/>
   </g>
   <g id="line2d_33">
    <path clip-path="url(#p035c833b1f)" d="M 149.998846 176.182532 
" style="fill:none;stroke:#000080;stroke-linecap:square;stroke-width:1.5;"/>
    <defs>
     <path d="M -12 12 
L 12 -12 
M -12 -12 
L 12 12 
" id="mfb1f599012" style="stroke:#000080;"/>
    </defs>
    <g clip-path="url(#p035c833b1f)">
     <use style="fill:#000080;stroke:#000080;" x="149.998846" xlink:href="#mfb1f599012" y="176.182532"/>
    </g>
   </g>
   <g id="line2d_34">
    <defs>
     <path d="M 0 1.5 
C 0.397805 1.5 0.77937 1.341951 1.06066 1.06066 
C 1.341951 0.77937 1.5 0.397805 1.5 0 
C 1.5 -0.397805 1.341951 -0.77937 1.06066 -1.06066 
C 0.77937 -1.341951 0.397805 -1.5 0 -1.5 
C -0.397805 -1.5 -0.77937 -1.341951 -1.06066 -1.06066 
C -1.341951 -0.77937 -1.5 -0.397805 -1.5 0 
C -1.5 0.397805 -1.341951 0.77937 -1.06066 1.06066 
C -0.77937 1.341951 -0.397805 1.5 0 1.5 
z
" id="m46aa758c40" style="stroke:#ff00ff;"/>
    </defs>
    <g>
     <use style="fill:#ff00ff;stroke:#ff00ff;" x="201.588391" xlink:href="#m46aa758c40" y="270.261414"/>
     <use style="fill:#ff00ff;stroke:#ff00ff;" x="201.588391" xlink:href="#m46aa758c40" y="270.261414"/>
    </g>
   </g>
   <g id="line2d_35">
    <path d="M 130.717333 298.944 
L 130.717333 298.370348 
L 131.185181 298.370348 
L 131.185181 297.796697 
L 133.398082 297.796697 
L 133.398082 297.223045 
L 139.69937 297.223045 
L 139.69937 296.649393 
L 141.521035 296.649393 
L 141.521035 296.075741 
L 148.54473 296.075741 
L 148.54473 295.50209 
L 149.030744 295.50209 
L 149.030744 294.928438 
L 149.377533 294.928438 
L 149.377533 294.354786 
L 152.207228 294.354786 
L 152.207228 293.781135 
L 152.721966 293.781135 
L 152.721966 293.207483 
L 155.678822 293.207483 
L 155.678822 292.633831 
L 159.190962 292.633831 
L 159.190962 292.060179 
L 159.877318 292.060179 
L 159.877318 291.486528 
L 160.886762 291.486528 
L 160.886762 290.912876 
L 161.519653 290.912876 
L 161.519653 290.339224 
L 163.17688 290.339224 
L 163.17688 289.765573 
L 164.493826 289.765573 
L 164.493826 289.191921 
L 164.531763 289.191921 
L 164.531763 288.618269 
L 165.382267 288.618269 
L 165.382267 288.044617 
L 166.227632 288.044617 
L 166.227632 287.470966 
L 166.364626 287.470966 
L 166.364626 286.897314 
L 169.204297 286.897314 
L 169.204297 286.323662 
L 169.548731 286.323662 
L 169.548731 285.75001 
L 170.628703 285.75001 
L 170.628703 285.176359 
L 170.650062 285.176359 
L 170.650062 284.602707 
L 171.2274 284.602707 
L 171.2274 284.029055 
L 171.304668 284.029055 
L 171.304668 283.455404 
L 171.76122 283.455404 
L 171.76122 282.881752 
L 173.849174 282.881752 
L 173.849174 282.3081 
L 173.87137 282.3081 
L 173.87137 281.734448 
L 174.571383 281.734448 
L 174.571383 281.160797 
L 174.979954 281.160797 
L 174.979954 280.587145 
L 175.637655 280.587145 
L 175.637655 280.013493 
L 176.826938 280.013493 
L 176.826938 279.439842 
L 176.94264 279.439842 
L 176.94264 278.86619 
L 177.610446 278.86619 
L 177.610446 278.292538 
L 177.89806 278.292538 
L 177.89806 277.718886 
L 178.34997 277.718886 
L 178.34997 277.145235 
L 178.438964 277.145235 
L 178.438964 276.571583 
L 183.060568 276.571583 
L 183.060568 275.997931 
L 185.264727 275.997931 
L 185.264727 275.42428 
L 188.411552 275.42428 
L 188.411552 274.850628 
L 188.993389 274.850628 
L 188.993389 274.276976 
L 189.13078 274.276976 
L 189.13078 273.703324 
L 189.395073 273.703324 
L 189.395073 273.129673 
L 190.706968 273.129673 
L 190.706968 272.556021 
L 198.952842 272.556021 
L 198.952842 271.982369 
L 199.115293 271.982369 
L 199.115293 271.408718 
L 199.781531 271.408718 
L 199.781531 270.835066 
L 201.588391 270.835066 
L 201.588391 270.261414 
L 338.688 270.261414 
" style="fill:none;stroke:#ff00ff;stroke-linecap:square;stroke-width:1.5;"/>
   </g>
   <g id="line2d_36">
    <defs>
     <path d="M -0 8.485281 
L 5.091169 0 
L 0 -8.485281 
L -5.091169 -0 
z
" id="m1c1e770c97" style="stroke:#ff00ff;stroke-linejoin:miter;stroke-width:1.5;"/>
    </defs>
    <g>
     <use style="fill-opacity:0;stroke:#ff00ff;stroke-linejoin:miter;stroke-width:1.5;" x="178.438964" xlink:href="#m1c1e770c97" y="277.145235"/>
     <use style="fill-opacity:0;stroke:#ff00ff;stroke-linejoin:miter;stroke-width:1.5;" x="201.588391" xlink:href="#m1c1e770c97" y="270.835066"/>
     <use style="fill-opacity:0;stroke:#ff00ff;stroke-linejoin:miter;stroke-width:1.5;" x="201.588391" xlink:href="#m1c1e770c97" y="270.261414"/>
     <use style="fill-opacity:0;stroke:#ff00ff;stroke-linejoin:miter;stroke-width:1.5;" x="201.588391" xlink:href="#m1c1e770c97" y="270.261414"/>
     <use style="fill-opacity:0;stroke:#ff00ff;stroke-linejoin:miter;stroke-width:1.5;" x="338.688" xlink:href="#m1c1e770c97" y="270.261414"/>
    </g>
   </g>
   <g id="line2d_37">
    <path style="fill:none;stroke:#ff00ff;stroke-linecap:square;stroke-width:1.5;"/>
    <g/>
   </g>
   <g id="line2d_38">
    <path clip-path="url(#p035c833b1f)" d="M 143.349938 296.075741 
" style="fill:none;stroke:#ff00ff;stroke-linecap:square;stroke-width:1.5;"/>
    <defs>
     <path d="M -12 12 
L 12 -12 
M -12 -12 
L 12 12 
" id="mcfce418f6c" style="stroke:#ff00ff;"/>
    </defs>
    <g clip-path="url(#p035c833b1f)">
     <use style="fill:#ff00ff;stroke:#ff00ff;" x="143.349938" xlink:href="#mcfce418f6c" y="296.075741"/>
    </g>
   </g>
   <g id="line2d_39">
    <defs>
     <path d="M 0 1.5 
C 0.397805 1.5 0.77937 1.341951 1.06066 1.06066 
C 1.341951 0.77937 1.5 0.397805 1.5 0 
C 1.5 -0.397805 1.341951 -0.77937 1.06066 -1.06066 
C 0.77937 -1.341951 0.397805 -1.5 0 -1.5 
C -0.397805 -1.5 -0.77937 -1.341951 -1.06066 -1.06066 
C -1.341951 -0.77937 -1.5 -0.397805 -1.5 0 
C -1.5 0.397805 -1.341951 0.77937 -1.06066 1.06066 
C -0.77937 1.341951 -0.397805 1.5 0 1.5 
z
" id="m76c04af208" style="stroke:#ff7500;"/>
    </defs>
    <g>
     <use style="fill:#ff7500;stroke:#ff7500;" x="188.423112" xlink:href="#m76c04af208" y="287.470966"/>
     <use style="fill:#ff7500;stroke:#ff7500;" x="188.423112" xlink:href="#m76c04af208" y="287.470966"/>
    </g>
   </g>
   <g id="line2d_40">
    <path d="M 29.53256 298.944 
L 29.53256 297.796697 
L 142.432559 297.796697 
L 142.432559 297.223045 
L 142.646541 297.223045 
L 142.646541 296.649393 
L 147.96658 296.649393 
L 147.96658 296.075741 
L 153.707991 296.075741 
L 153.707991 295.50209 
L 153.722083 295.50209 
L 153.722083 294.928438 
L 153.750233 294.928438 
L 153.750233 294.354786 
L 159.797958 294.354786 
L 159.797958 293.781135 
L 159.966168 293.781135 
L 159.966168 293.207483 
L 170.267003 293.207483 
L 170.267003 292.633831 
L 170.9621 292.633831 
L 170.9621 292.060179 
L 172.303468 292.060179 
L 172.303468 291.486528 
L 174.550061 291.486528 
L 174.550061 290.912876 
L 175.362888 290.912876 
L 175.362888 290.339224 
L 176.539989 290.339224 
L 176.539989 289.765573 
L 184.699358 289.765573 
L 184.699358 289.191921 
L 185.605318 289.191921 
L 185.605318 288.618269 
L 185.906041 288.618269 
L 185.906041 288.044617 
L 188.423112 288.044617 
L 188.423112 287.470966 
L 338.688 287.470966 
" style="fill:none;stroke:#ff7500;stroke-linecap:square;stroke-width:1.5;"/>
   </g>
   <g id="line2d_41">
    <defs>
     <path d="M 0 -6 
L -1.347084 -1.854102 
L -5.706339 -1.854102 
L -2.179628 0.708204 
L -3.526712 4.854102 
L -0 2.291796 
L 3.526712 4.854102 
L 2.179628 0.708204 
L 5.706339 -1.854102 
L 1.347084 -1.854102 
z
" id="ma0e4b49faa" style="stroke:#ff7500;stroke-linejoin:bevel;stroke-width:1.5;"/>
    </defs>
    <g>
     <use style="fill-opacity:0;stroke:#ff7500;stroke-linejoin:bevel;stroke-width:1.5;" x="142.646541" xlink:href="#ma0e4b49faa" y="296.649393"/>
     <use style="fill-opacity:0;stroke:#ff7500;stroke-linejoin:bevel;stroke-width:1.5;" x="188.423112" xlink:href="#ma0e4b49faa" y="288.044617"/>
     <use style="fill-opacity:0;stroke:#ff7500;stroke-linejoin:bevel;stroke-width:1.5;" x="188.423112" xlink:href="#ma0e4b49faa" y="287.470966"/>
     <use style="fill-opacity:0;stroke:#ff7500;stroke-linejoin:bevel;stroke-width:1.5;" x="188.423112" xlink:href="#ma0e4b49faa" y="287.470966"/>
     <use style="fill-opacity:0;stroke:#ff7500;stroke-linejoin:bevel;stroke-width:1.5;" x="338.688" xlink:href="#ma0e4b49faa" y="287.470966"/>
    </g>
   </g>
   <g id="line2d_42">
    <path style="fill:none;stroke:#ff7500;stroke-linecap:square;stroke-width:1.5;"/>
    <g/>
   </g>
   <g id="line2d_43">
    <path clip-path="url(#p035c833b1f)" d="M 141.032186 297.796697 
" style="fill:none;stroke:#ff7500;stroke-linecap:square;stroke-width:1.5;"/>
    <defs>
     <path d="M -12 12 
L 12 -12 
M -12 -12 
L 12 12 
" id="m73ce758caf" style="stroke:#ff7500;"/>
    </defs>
    <g clip-path="url(#p035c833b1f)">
     <use style="fill:#ff7500;stroke:#ff7500;" x="141.032186" xlink:href="#m73ce758caf" y="297.796697"/>
    </g>
   </g>
   <g id="line2d_44">
    <defs>
     <path d="M 0 1.5 
C 0.397805 1.5 0.77937 1.341951 1.06066 1.06066 
C 1.341951 0.77937 1.5 0.397805 1.5 0 
C 1.5 -0.397805 1.341951 -0.77937 1.06066 -1.06066 
C 0.77937 -1.341951 0.397805 -1.5 0 -1.5 
C -0.397805 -1.5 -0.77937 -1.341951 -1.06066 -1.06066 
C -1.341951 -0.77937 -1.5 -0.397805 -1.5 0 
C -1.5 0.397805 -1.341951 0.77937 -1.06066 1.06066 
C -0.77937 1.341951 -0.397805 1.5 0 1.5 
z
" id="m2a3e1a3662" style="stroke:#6495ed;"/>
    </defs>
    <g>
     <use style="fill:#6495ed;stroke:#6495ed;" x="205.745778" xlink:href="#m2a3e1a3662" y="287.470966"/>
     <use style="fill:#6495ed;stroke:#6495ed;" x="205.745778" xlink:href="#m2a3e1a3662" y="287.470966"/>
    </g>
   </g>
   <g id="line2d_45">
    <path d="M 29.53256 298.944 
L 29.53256 297.796697 
L 102.330873 297.796697 
L 102.330873 297.223045 
L 110.358901 297.223045 
L 110.358901 296.649393 
L 138.153314 296.649393 
L 138.153314 296.075741 
L 152.222586 296.075741 
L 152.222586 295.50209 
L 156.49067 295.50209 
L 156.49067 294.928438 
L 158.795307 294.928438 
L 158.795307 294.354786 
L 171.771231 294.354786 
L 171.771231 293.781135 
L 171.876001 293.781135 
L 171.876001 293.207483 
L 172.998087 293.207483 
L 172.998087 292.633831 
L 174.464511 292.633831 
L 174.464511 292.060179 
L 180.887589 292.060179 
L 180.887589 291.486528 
L 181.181781 291.486528 
L 181.181781 290.912876 
L 191.960092 290.912876 
L 191.960092 290.339224 
L 193.805521 290.339224 
L 193.805521 289.765573 
L 198.710029 289.765573 
L 198.710029 289.191921 
L 202.279717 289.191921 
L 202.279717 288.618269 
L 203.333947 288.618269 
L 203.333947 288.044617 
L 205.745778 288.044617 
L 205.745778 287.470966 
L 338.688 287.470966 
" style="fill:none;stroke:#6495ed;stroke-linecap:square;stroke-width:1.5;"/>
   </g>
   <g id="line2d_46">
    <defs>
     <path d="M -0 6 
L 6 -6 
L -6 -6 
z
" id="mab7eba8dc0" style="stroke:#6495ed;stroke-linejoin:miter;stroke-width:1.5;"/>
    </defs>
    <g>
     <use style="fill-opacity:0;stroke:#6495ed;stroke-linejoin:miter;stroke-width:1.5;" x="174.464511" xlink:href="#mab7eba8dc0" y="292.060179"/>
     <use style="fill-opacity:0;stroke:#6495ed;stroke-linejoin:miter;stroke-width:1.5;" x="205.745778" xlink:href="#mab7eba8dc0" y="288.044617"/>
     <use style="fill-opacity:0;stroke:#6495ed;stroke-linejoin:miter;stroke-width:1.5;" x="205.745778" xlink:href="#mab7eba8dc0" y="287.470966"/>
     <use style="fill-opacity:0;stroke:#6495ed;stroke-linejoin:miter;stroke-width:1.5;" x="205.745778" xlink:href="#mab7eba8dc0" y="287.470966"/>
     <use style="fill-opacity:0;stroke:#6495ed;stroke-linejoin:miter;stroke-width:1.5;" x="338.688" xlink:href="#mab7eba8dc0" y="287.470966"/>
    </g>
   </g>
   <g id="line2d_47">
    <path style="fill:none;stroke:#6495ed;stroke-linecap:square;stroke-width:1.5;"/>
    <g/>
   </g>
   <g id="line2d_48">
    <path clip-path="url(#p035c833b1f)" d="M 139.9494 296.075741 
" style="fill:none;stroke:#6495ed;stroke-linecap:square;stroke-width:1.5;"/>
    <defs>
     <path d="M -12 12 
L 12 -12 
M -12 -12 
L 12 12 
" id="m59229ed200" style="stroke:#6495ed;"/>
    </defs>
    <g clip-path="url(#p035c833b1f)">
     <use style="fill:#6495ed;stroke:#6495ed;" x="139.9494" xlink:href="#m59229ed200" y="296.075741"/>
    </g>
   </g>
   <g id="line2d_49">
    <defs>
     <path d="M 0 1.5 
C 0.397805 1.5 0.77937 1.341951 1.06066 1.06066 
C 1.341951 0.77937 1.5 0.397805 1.5 0 
C 1.5 -0.397805 1.341951 -0.77937 1.06066 -1.06066 
C 0.77937 -1.341951 0.397805 -1.5 0 -1.5 
C -0.397805 -1.5 -0.77937 -1.341951 -1.06066 -1.06066 
C -1.341951 -0.77937 -1.5 -0.397805 -1.5 0 
C -1.5 0.397805 -1.341951 0.77937 -1.06066 1.06066 
C -0.77937 1.341951 -0.397805 1.5 0 1.5 
z
" id="m4cba7cae1e" style="stroke:#ff0000;"/>
    </defs>
    <g>
     <use style="fill:#ff0000;stroke:#ff0000;" x="172.356777" xlink:href="#m4cba7cae1e" y="6.381624"/>
     <use style="fill:#ff0000;stroke:#ff0000;" x="172.356777" xlink:href="#m4cba7cae1e" y="6.381624"/>
    </g>
   </g>
   <g id="line2d_50">
    <path d="M 100.934985 298.944 
L 100.934985 297.796697 
L 101.506816 297.796697 
L 101.506816 297.223045 
L 101.785851 297.223045 
L 101.785851 294.354786 
L 102.060491 294.354786 
L 102.060491 293.207483 
L 104.826449 293.207483 
L 104.826449 292.060179 
L 105.057436 292.060179 
L 105.057436 290.339224 
L 105.285403 290.339224 
L 105.285403 288.618269 
L 105.51043 288.618269 
L 105.51043 286.323662 
L 105.732589 286.323662 
L 105.732589 284.029055 
L 105.951954 284.029055 
L 105.951954 283.455404 
L 106.168594 283.455404 
L 106.168594 282.881752 
L 106.382575 282.881752 
L 106.382575 280.587145 
L 106.593963 280.587145 
L 106.593963 277.718886 
L 106.802819 277.718886 
L 106.802819 277.145235 
L 107.009204 277.145235 
L 107.009204 275.42428 
L 107.213174 275.42428 
L 107.213174 274.850628 
L 107.414787 274.850628 
L 107.414787 273.129673 
L 107.614095 273.129673 
L 107.614095 272.556021 
L 107.811151 272.556021 
L 107.811151 271.982369 
L 108.577836 271.982369 
L 108.577836 271.408718 
L 108.764355 271.408718 
L 108.764355 270.835066 
L 108.948899 270.835066 
L 108.948899 269.687762 
L 109.31223 269.687762 
L 109.31223 269.114111 
L 109.491096 269.114111 
L 109.491096 265.6722 
L 109.843417 265.6722 
L 109.843417 235.842311 
L 110.016944 235.842311 
L 110.016944 235.268659 
L 110.358901 235.268659 
L 110.358901 234.121356 
L 110.527398 234.121356 
L 110.527398 232.974052 
L 110.694282 232.974052 
L 110.694282 216.338153 
L 110.859585 216.338153 
L 110.859585 215.190849 
L 111.023335 215.190849 
L 111.023335 186.508263 
L 120.571812 186.508263 
L 120.571812 185.934612 
L 120.759333 185.934612 
L 120.852343 184.787308 
L 121.219499 184.787308 
L 121.219499 184.213656 
L 121.400219 184.213656 
L 121.400219 171.593319 
L 122.362027 171.593319 
L 122.362027 171.019667 
L 122.947573 171.019667 
L 122.947573 170.446015 
L 123.192626 170.446015 
L 123.192626 169.872363 
L 126.50685 169.872363 
L 126.50685 169.298712 
L 128.709321 169.298712 
L 128.709321 168.72506 
L 129.347769 168.72506 
L 129.347769 168.151408 
L 129.630422 168.151408 
L 129.630422 167.577757 
L 130.236587 167.577757 
L 130.344571 166.430453 
L 130.558552 166.430453 
L 130.664567 163.562195 
L 130.822389 163.562195 
L 130.926816 162.414891 
L 130.978796 162.414891 
L 130.978796 133.732305 
L 131.439773 133.732305 
L 131.439773 133.158653 
L 131.839545 133.158653 
L 131.938072 117.096405 
L 132.374684 117.096405 
L 132.470242 114.228147 
L 132.70687 114.228147 
L 132.80063 111.359888 
L 133.262014 111.359888 
L 133.262014 110.786236 
L 136.456742 110.786236 
L 136.456742 107.917978 
L 136.86886 107.917978 
L 136.86886 107.344326 
L 139.856059 107.344326 
L 139.856059 103.902416 
L 140.073083 103.902416 
L 140.073083 103.328764 
L 140.973763 103.328764 
L 141.061324 102.181461 
L 141.148448 102.181461 
L 141.148448 101.034157 
L 141.69035 101.034157 
L 141.69035 99.886854 
L 142.566605 99.886854 
L 142.566605 99.313202 
L 143.066785 99.313202 
L 143.066785 98.73955 
L 143.375453 98.73955 
L 143.451774 93.576685 
L 143.628567 93.576685 
L 143.628567 93.003033 
L 145.48607 93.003033 
L 145.553708 91.85573 
L 145.688202 91.85573 
L 145.688202 88.987471 
L 145.888018 88.987471 
L 145.998045 83.250954 
L 146.041862 83.250954 
L 146.08557 78.66174 
L 146.40993 78.66174 
L 146.40993 78.088089 
L 146.644018 78.088089 
L 146.749392 76.367133 
L 146.791364 76.367133 
L 146.791364 75.793482 
L 148.334961 75.793482 
L 148.334961 75.21983 
L 148.525764 75.21983 
L 148.601505 71.77792 
L 148.956849 71.77792 
L 148.956849 70.630616 
L 149.286939 70.630616 
L 149.286939 70.056964 
L 149.998846 70.056964 
L 150.051085 68.336009 
L 150.120495 68.336009 
L 150.120495 66.041402 
L 150.429467 66.041402 
L 150.480434 64.320447 
L 150.799813 64.320447 
L 150.799813 63.173144 
L 151.031458 63.173144 
L 151.097081 62.02584 
L 151.565603 62.02584 
L 151.660987 54.568368 
L 151.771612 54.568368 
L 151.850203 52.847413 
L 152.481628 52.847413 
L 152.481628 52.273761 
L 153.090987 52.273761 
L 153.090987 50.552806 
L 153.294279 50.552806 
L 153.294279 49.979154 
L 153.523746 49.979154 
L 153.523746 49.405503 
L 153.693887 49.405503 
L 153.693887 45.963592 
L 153.959927 45.963592 
L 154.001564 44.242637 
L 154.208275 44.242637 
L 154.317527 41.374379 
L 155.050658 41.374379 
L 155.050658 39.079772 
L 155.271165 39.079772 
L 155.271165 38.50612 
L 156.586556 38.50612 
L 156.670026 36.211513 
L 157.058236 36.211513 
L 157.058236 35.637861 
L 157.185742 35.637861 
L 157.185742 35.06421 
L 157.675417 35.06421 
L 157.742664 33.916906 
L 158.053098 33.916906 
L 158.107956 32.769603 
L 158.217157 32.769603 
L 158.249784 31.622299 
L 158.910765 31.622299 
L 158.910765 31.048648 
L 159.035853 31.048648 
L 159.098062 29.901344 
L 159.17036 29.901344 
L 159.211539 28.180389 
L 159.39565 28.180389 
L 159.39565 27.606737 
L 159.658204 27.606737 
L 159.658204 27.033086 
L 160.113253 27.033086 
L 160.171742 25.31213 
L 160.755498 25.31213 
L 160.755498 24.738479 
L 161.192316 24.738479 
L 161.192316 24.164827 
L 161.447441 24.164827 
L 161.447441 23.591175 
L 161.582595 23.591175 
L 161.582595 23.017524 
L 161.787817 23.017524 
L 161.8498 21.87022 
L 161.911563 21.87022 
L 161.911563 21.296568 
L 162.147765 21.296568 
L 162.147765 20.722917 
L 162.320689 20.722917 
L 162.320689 20.149265 
L 162.483394 20.149265 
L 162.491916 18.42831 
L 162.610782 18.42831 
L 162.610782 17.854658 
L 163.02881 17.854658 
L 163.02881 17.281006 
L 163.250446 17.281006 
L 163.250446 16.707355 
L 164.15638 16.707355 
L 164.15638 16.133703 
L 164.356568 16.133703 
L 164.356568 15.560051 
L 164.86209 15.560051 
L 164.9363 14.412748 
L 165.054383 14.412748 
L 165.054383 13.839096 
L 165.661531 13.839096 
L 165.661531 13.265444 
L 166.621987 13.265444 
L 166.621987 12.691793 
L 166.96153 12.691793 
L 166.96153 12.118141 
L 167.236273 12.118141 
L 167.288118 10.970838 
L 167.595991 10.970838 
L 167.595991 10.397186 
L 168.214315 10.397186 
L 168.214315 9.823534 
L 169.45183 9.823534 
L 169.45183 9.249882 
L 169.582803 9.249882 
L 169.582803 8.102579 
L 170.478456 8.102579 
L 170.478456 7.528927 
L 172.132757 7.528927 
L 172.132757 6.955275 
L 172.356777 6.955275 
L 172.356777 6.381624 
L 338.688 6.381624 
L 338.688 6.381624 
" style="fill:none;stroke:#ff0000;stroke-linecap:square;stroke-width:1.5;"/>
   </g>
   <g id="line2d_51">
    <defs>
     <path d="M 0 -6 
L -5.196152 -3 
L -5.196152 3 
L -0 6 
L 5.196152 3 
L 5.196152 -3 
z
" id="m9878d499be" style="stroke:#ff0000;stroke-linejoin:miter;stroke-width:1.5;"/>
    </defs>
    <g>
     <use style="fill-opacity:0;stroke:#ff0000;stroke-linejoin:miter;stroke-width:1.5;" x="111.023335" xlink:href="#m9878d499be" y="215.190849"/>
     <use style="fill-opacity:0;stroke:#ff0000;stroke-linejoin:miter;stroke-width:1.5;" x="162.147765" xlink:href="#m9878d499be" y="20.722917"/>
     <use style="fill-opacity:0;stroke:#ff0000;stroke-linejoin:miter;stroke-width:1.5;" x="172.356777" xlink:href="#m9878d499be" y="6.381624"/>
     <use style="fill-opacity:0;stroke:#ff0000;stroke-linejoin:miter;stroke-width:1.5;" x="172.356777" xlink:href="#m9878d499be" y="6.381624"/>
     <use style="fill-opacity:0;stroke:#ff0000;stroke-linejoin:miter;stroke-width:1.5;" x="338.688" xlink:href="#m9878d499be" y="6.381624"/>
    </g>
   </g>
   <g id="line2d_52">
    <path style="fill:none;stroke:#ff0000;stroke-linecap:square;stroke-width:1.5;"/>
    <g/>
   </g>
   <g id="line2d_53">
    <path clip-path="url(#p035c833b1f)" d="M 140.708409 103.328764 
" style="fill:none;stroke:#ff0000;stroke-linecap:square;stroke-width:1.5;"/>
    <defs>
     <path d="M -12 12 
L 12 -12 
M -12 -12 
L 12 12 
" id="mb8636267f4" style="stroke:#ff0000;"/>
    </defs>
    <g clip-path="url(#p035c833b1f)">
     <use style="fill:#ff0000;stroke:#ff0000;" x="140.708409" xlink:href="#mb8636267f4" y="103.328764"/>
    </g>
   </g>
   <g id="line2d_54">
    <path d="M 338.688 287.470966 
L 369.60768 293.092752 
" style="fill:none;stroke:#6495ed;stroke-linecap:square;stroke-width:1.5;"/>
    <g>
     <use style="fill-opacity:0;stroke:#6495ed;stroke-linejoin:miter;stroke-width:1.5;" x="338.688" xlink:href="#mab7eba8dc0" y="287.470966"/>
     <use style="fill-opacity:0;stroke:#6495ed;stroke-linejoin:miter;stroke-width:1.5;" x="369.60768" xlink:href="#mab7eba8dc0" y="293.092752"/>
    </g>
   </g>
   <g id="line2d_55">
    <path d="M 338.688 287.470966 
L 369.60768 222.877782 
" style="fill:none;stroke:#ff7500;stroke-linecap:square;stroke-width:1.5;"/>
    <g>
     <use style="fill-opacity:0;stroke:#ff7500;stroke-linejoin:bevel;stroke-width:1.5;" x="338.688" xlink:href="#ma0e4b49faa" y="287.470966"/>
     <use style="fill-opacity:0;stroke:#ff7500;stroke-linejoin:bevel;stroke-width:1.5;" x="369.60768" xlink:href="#ma0e4b49faa" y="222.877782"/>
    </g>
   </g>
   <g id="line2d_56">
    <path d="M 338.688 270.261414 
L 369.60768 152.662812 
" style="fill:none;stroke:#ff00ff;stroke-linecap:square;stroke-width:1.5;"/>
    <g>
     <use style="fill-opacity:0;stroke:#ff00ff;stroke-linejoin:miter;stroke-width:1.5;" x="338.688" xlink:href="#m1c1e770c97" y="270.261414"/>
     <use style="fill-opacity:0;stroke:#ff00ff;stroke-linejoin:miter;stroke-width:1.5;" x="369.60768" xlink:href="#m1c1e770c97" y="152.662812"/>
    </g>
   </g>
   <g id="line2d_57">
    <path d="M 338.688 6.381624 
L 369.60768 82.447842 
" style="fill:none;stroke:#000080;stroke-linecap:square;stroke-width:1.5;"/>
    <g>
     <use style="fill-opacity:0;stroke:#000080;stroke-width:1.5;" x="338.688" xlink:href="#m7453599527" y="6.381624"/>
     <use style="fill-opacity:0;stroke:#000080;stroke-width:1.5;" x="369.60768" xlink:href="#m7453599527" y="82.447842"/>
    </g>
   </g>
   <g id="line2d_58">
    <path d="M 338.688 6.381624 
L 369.60768 12.232871 
" style="fill:none;stroke:#ff0000;stroke-linecap:square;stroke-width:1.5;"/>
    <g>
     <use style="fill-opacity:0;stroke:#ff0000;stroke-linejoin:miter;stroke-width:1.5;" x="338.688" xlink:href="#m9878d499be" y="6.381624"/>
     <use style="fill-opacity:0;stroke:#ff0000;stroke-linejoin:miter;stroke-width:1.5;" x="369.60768" xlink:href="#m9878d499be" y="12.232871"/>
    </g>
   </g>
   <g id="line2d_59">
    <path d="M 338.688 298.944 
L 338.688 6.381624 
" style="fill:none;stroke:#000000;stroke-linecap:square;stroke-width:1.5;"/>
   </g>
   <g id="patch_3">
    <path d="M 57.6 298.944 
L 57.6 3.456 
" style="fill:none;stroke:#000000;stroke-linecap:square;stroke-linejoin:miter;stroke-width:0.8;"/>
   </g>
   <g id="patch_4">
    <path d="M 338.688 298.944 
L 338.688 3.456 
" style="fill:none;stroke:#000000;stroke-linecap:square;stroke-linejoin:miter;stroke-width:0.8;"/>
   </g>
   <g id="patch_5">
    <path d="M 57.6 298.944 
L 338.688 298.944 
" style="fill:none;stroke:#000000;stroke-linecap:square;stroke-linejoin:miter;stroke-width:0.8;"/>
   </g>
   <g id="patch_6">
    <path d="M 57.6 3.456 
L 338.688 3.456 
" style="fill:none;stroke:#000000;stroke-linecap:square;stroke-linejoin:miter;stroke-width:0.8;"/>
   </g>
   <g id="text_13">
    <!-- f4 -->
    <g transform="translate(375.22944 297.78369)scale(0.17 -0.17)">
     <use xlink:href="#DejaVuSans-102"/>
     <use x="35.205078" xlink:href="#DejaVuSans-52"/>
    </g>
   </g>
   <g id="text_14">
    <!-- f3 -->
    <g transform="translate(375.22944 227.56872)scale(0.17 -0.17)">
     <defs>
      <path d="M 40.578125 39.3125 
Q 47.65625 37.796875 51.625 33 
Q 55.609375 28.21875 55.609375 21.1875 
Q 55.609375 10.40625 48.1875 4.484375 
Q 40.765625 -1.421875 27.09375 -1.421875 
Q 22.515625 -1.421875 17.65625 -0.515625 
Q 12.796875 0.390625 7.625 2.203125 
L 7.625 11.71875 
Q 11.71875 9.328125 16.59375 8.109375 
Q 21.484375 6.890625 26.8125 6.890625 
Q 36.078125 6.890625 40.9375 10.546875 
Q 45.796875 14.203125 45.796875 21.1875 
Q 45.796875 27.640625 41.28125 31.265625 
Q 36.765625 34.90625 28.71875 34.90625 
L 20.21875 34.90625 
L 20.21875 43.015625 
L 29.109375 43.015625 
Q 36.375 43.015625 40.234375 45.921875 
Q 44.09375 48.828125 44.09375 54.296875 
Q 44.09375 59.90625 40.109375 62.90625 
Q 36.140625 65.921875 28.71875 65.921875 
Q 24.65625 65.921875 20.015625 65.03125 
Q 15.375 64.15625 9.8125 62.3125 
L 9.8125 71.09375 
Q 15.4375 72.65625 20.34375 73.4375 
Q 25.25 74.21875 29.59375 74.21875 
Q 40.828125 74.21875 47.359375 69.109375 
Q 53.90625 64.015625 53.90625 55.328125 
Q 53.90625 49.265625 50.4375 45.09375 
Q 46.96875 40.921875 40.578125 39.3125 
z
" id="DejaVuSans-51"/>
     </defs>
     <use xlink:href="#DejaVuSans-102"/>
     <use x="35.205078" xlink:href="#DejaVuSans-51"/>
    </g>
   </g>
   <g id="text_15">
    <!-- f2 -->
    <g transform="translate(375.22944 157.353749)scale(0.17 -0.17)">
     <use xlink:href="#DejaVuSans-102"/>
     <use x="35.205078" xlink:href="#DejaVuSans-50"/>
    </g>
   </g>
   <g id="text_16">
    <!-- f1 -->
    <g transform="translate(375.22944 87.138779)scale(0.17 -0.17)">
     <use xlink:href="#DejaVuSans-102"/>
     <use x="35.205078" xlink:href="#DejaVuSans-49"/>
    </g>
   </g>
   <g id="text_17">
    <!-- f5 -->
    <g transform="translate(375.22944 16.923809)scale(0.17 -0.17)">
     <defs>
      <path d="M 10.796875 72.90625 
L 49.515625 72.90625 
L 49.515625 64.59375 
L 19.828125 64.59375 
L 19.828125 46.734375 
Q 21.96875 47.46875 24.109375 47.828125 
Q 26.265625 48.1875 28.421875 48.1875 
Q 40.625 48.1875 47.75 41.5 
Q 54.890625 34.8125 54.890625 23.390625 
Q 54.890625 11.625 47.5625 5.09375 
Q 40.234375 -1.421875 26.90625 -1.421875 
Q 22.3125 -1.421875 17.546875 -0.640625 
Q 12.796875 0.140625 7.71875 1.703125 
L 7.71875 11.625 
Q 12.109375 9.234375 16.796875 8.0625 
Q 21.484375 6.890625 26.703125 6.890625 
Q 35.15625 6.890625 40.078125 11.328125 
Q 45.015625 15.765625 45.015625 23.390625 
Q 45.015625 31 40.078125 35.4375 
Q 35.15625 39.890625 26.703125 39.890625 
Q 22.75 39.890625 18.8125 39.015625 
Q 14.890625 38.140625 10.796875 36.28125 
z
" id="DejaVuSans-53"/>
     </defs>
     <use xlink:href="#DejaVuSans-102"/>
     <use x="35.205078" xlink:href="#DejaVuSans-53"/>
    </g>
   </g>
   <g id="text_18">
    <!-- bbob -->
    <g transform="translate(60.41088 14.161286)scale(0.102 -0.102)">
     <defs>
      <path d="M 48.6875 27.296875 
Q 48.6875 37.203125 44.609375 42.84375 
Q 40.53125 48.484375 33.40625 48.484375 
Q 26.265625 48.484375 22.1875 42.84375 
Q 18.109375 37.203125 18.109375 27.296875 
Q 18.109375 17.390625 22.1875 11.75 
Q 26.265625 6.109375 33.40625 6.109375 
Q 40.53125 6.109375 44.609375 11.75 
Q 48.6875 17.390625 48.6875 27.296875 
z
M 18.109375 46.390625 
Q 20.953125 51.265625 25.265625 53.625 
Q 29.59375 56 35.59375 56 
Q 45.5625 56 51.78125 48.09375 
Q 58.015625 40.1875 58.015625 27.296875 
Q 58.015625 14.40625 51.78125 6.484375 
Q 45.5625 -1.421875 35.59375 -1.421875 
Q 29.59375 -1.421875 25.265625 0.953125 
Q 20.953125 3.328125 18.109375 8.203125 
L 18.109375 0 
L 9.078125 0 
L 9.078125 75.984375 
L 18.109375 75.984375 
z
" id="DejaVuSans-98"/>
     </defs>
     <use xlink:href="#DejaVuSans-98"/>
     <use x="63.476562" xlink:href="#DejaVuSans-98"/>
     <use x="126.953125" xlink:href="#DejaVuSans-111"/>
     <use x="188.134766" xlink:href="#DejaVuSans-98"/>
    </g>
    <!-- Separable functions, 5-D -->
    <g transform="translate(60.41088 25.583055)scale(0.102 -0.102)">
     <defs>
      <path d="M 53.515625 70.515625 
L 53.515625 60.890625 
Q 47.90625 63.578125 42.921875 64.890625 
Q 37.9375 66.21875 33.296875 66.21875 
Q 25.25 66.21875 20.875 63.09375 
Q 16.5 59.96875 16.5 54.203125 
Q 16.5 49.359375 19.40625 46.890625 
Q 22.3125 44.4375 30.421875 42.921875 
L 36.375 41.703125 
Q 47.40625 39.59375 52.65625 34.296875 
Q 57.90625 29 57.90625 20.125 
Q 57.90625 9.515625 50.796875 4.046875 
Q 43.703125 -1.421875 29.984375 -1.421875 
Q 24.8125 -1.421875 18.96875 -0.25 
Q 13.140625 0.921875 6.890625 3.21875 
L 6.890625 13.375 
Q 12.890625 10.015625 18.65625 8.296875 
Q 24.421875 6.59375 29.984375 6.59375 
Q 38.421875 6.59375 43.015625 9.90625 
Q 47.609375 13.234375 47.609375 19.390625 
Q 47.609375 24.75 44.3125 27.78125 
Q 41.015625 30.8125 33.5 32.328125 
L 27.484375 33.5 
Q 16.453125 35.6875 11.515625 40.375 
Q 6.59375 45.0625 6.59375 53.421875 
Q 6.59375 63.09375 13.40625 68.65625 
Q 20.21875 74.21875 32.171875 74.21875 
Q 37.3125 74.21875 42.625 73.28125 
Q 47.953125 72.359375 53.515625 70.515625 
z
" id="DejaVuSans-83"/>
      <path d="M 19.671875 64.796875 
L 19.671875 8.109375 
L 31.59375 8.109375 
Q 46.6875 8.109375 53.6875 14.9375 
Q 60.6875 21.78125 60.6875 36.53125 
Q 60.6875 51.171875 53.6875 57.984375 
Q 46.6875 64.796875 31.59375 64.796875 
z
M 9.8125 72.90625 
L 30.078125 72.90625 
Q 51.265625 72.90625 61.171875 64.09375 
Q 71.09375 55.28125 71.09375 36.53125 
Q 71.09375 17.671875 61.125 8.828125 
Q 51.171875 0 30.078125 0 
L 9.8125 0 
z
" id="DejaVuSans-68"/>
     </defs>
     <use xlink:href="#DejaVuSans-83"/>
     <use x="63.476562" xlink:href="#DejaVuSans-101"/>
     <use x="125" xlink:href="#DejaVuSans-112"/>
     <use x="188.476562" xlink:href="#DejaVuSans-97"/>
     <use x="249.755859" xlink:href="#DejaVuSans-114"/>
     <use x="290.869141" xlink:href="#DejaVuSans-97"/>
     <use x="352.148438" xlink:href="#DejaVuSans-98"/>
     <use x="415.625" xlink:href="#DejaVuSans-108"/>
     <use x="443.408203" xlink:href="#DejaVuSans-101"/>
     <use x="504.931641" xlink:href="#DejaVuSans-32"/>
     <use x="536.71875" xlink:href="#DejaVuSans-102"/>
     <use x="571.923828" xlink:href="#DejaVuSans-117"/>
     <use x="635.302734" xlink:href="#DejaVuSans-110"/>
     <use x="698.681641" xlink:href="#DejaVuSans-99"/>
     <use x="753.662109" xlink:href="#DejaVuSans-116"/>
     <use x="792.871094" xlink:href="#DejaVuSans-105"/>
     <use x="820.654297" xlink:href="#DejaVuSans-111"/>
     <use x="881.835938" xlink:href="#DejaVuSans-110"/>
     <use x="945.214844" xlink:href="#DejaVuSans-115"/>
     <use x="997.314453" xlink:href="#DejaVuSans-44"/>
     <use x="1029.101562" xlink:href="#DejaVuSans-32"/>
     <use x="1060.888672" xlink:href="#DejaVuSans-53"/>
     <use x="1124.511719" xlink:href="#DejaVuSans-45"/>
     <use x="1160.595703" xlink:href="#DejaVuSans-68"/>
    </g>
    <!-- 51 targets: 100..1e-08 -->
    <g transform="translate(60.41088 37.004824)scale(0.102 -0.102)">
     <defs>
      <path d="M 11.71875 12.40625 
L 22.015625 12.40625 
L 22.015625 0 
L 11.71875 0 
z
M 11.71875 51.703125 
L 22.015625 51.703125 
L 22.015625 39.3125 
L 11.71875 39.3125 
z
" id="DejaVuSans-58"/>
     </defs>
     <use xlink:href="#DejaVuSans-53"/>
     <use x="63.623047" xlink:href="#DejaVuSans-49"/>
     <use x="127.246094" xlink:href="#DejaVuSans-32"/>
     <use x="159.033203" xlink:href="#DejaVuSans-116"/>
     <use x="198.242188" xlink:href="#DejaVuSans-97"/>
     <use x="259.521484" xlink:href="#DejaVuSans-114"/>
     <use x="298.884766" xlink:href="#DejaVuSans-103"/>
     <use x="362.361328" xlink:href="#DejaVuSans-101"/>
     <use x="423.884766" xlink:href="#DejaVuSans-116"/>
     <use x="463.09375" xlink:href="#DejaVuSans-115"/>
     <use x="515.193359" xlink:href="#DejaVuSans-58"/>
     <use x="548.884766" xlink:href="#DejaVuSans-32"/>
     <use x="580.671875" xlink:href="#DejaVuSans-49"/>
     <use x="644.294922" xlink:href="#DejaVuSans-48"/>
     <use x="707.917969" xlink:href="#DejaVuSans-48"/>
     <use x="771.541016" xlink:href="#DejaVuSans-46"/>
     <use x="803.328125" xlink:href="#DejaVuSans-46"/>
     <use x="835.115234" xlink:href="#DejaVuSans-49"/>
     <use x="898.738281" xlink:href="#DejaVuSans-101"/>
     <use x="960.261719" xlink:href="#DejaVuSans-45"/>
     <use x="996.345703" xlink:href="#DejaVuSans-48"/>
     <use x="1059.96875" xlink:href="#DejaVuSans-56"/>
    </g>
    <!-- 15 instances -->
    <g transform="translate(60.41088 48.426593)scale(0.102 -0.102)">
     <use xlink:href="#DejaVuSans-49"/>
     <use x="63.623047" xlink:href="#DejaVuSans-53"/>
     <use x="127.246094" xlink:href="#DejaVuSans-32"/>
     <use x="159.033203" xlink:href="#DejaVuSans-105"/>
     <use x="186.816406" xlink:href="#DejaVuSans-110"/>
     <use x="250.195312" xlink:href="#DejaVuSans-115"/>
     <use x="302.294922" xlink:href="#DejaVuSans-116"/>
     <use x="341.503906" xlink:href="#DejaVuSans-97"/>
     <use x="402.783203" xlink:href="#DejaVuSans-110"/>
     <use x="466.162109" xlink:href="#DejaVuSans-99"/>
     <use x="521.142578" xlink:href="#DejaVuSans-101"/>
     <use x="582.666016" xlink:href="#DejaVuSans-115"/>
    </g>
   </g>
   <g id="text_19">
    <!-- v2.4 -->
    <g style="fill:#808080;" transform="translate(187.233062 293.909432)scale(0.1 -0.1)">
     <use xlink:href="#DejaVuSans-118"/>
     <use x="59.179688" xlink:href="#DejaVuSans-50"/>
     <use x="122.802734" xlink:href="#DejaVuSans-46"/>
     <use x="154.589844" xlink:href="#DejaVuSans-52"/>
    </g>
   </g>
  </g>
 </g>
 <defs>
  <clipPath id="p035c833b1f">
   <rect height="295.488" width="281.088" x="57.6" y="3.456"/>
  </clipPath>
 </defs>
</svg>
