<?xml version="1.0" encoding="utf-8" standalone="no"?>
<!DOCTYPE svg PUBLIC "-//W3C//DTD SVG 1.1//EN"
  "http://www.w3.org/Graphics/SVG/1.1/DTD/svg11.dtd">
<!-- Created with matplotlib (https://matplotlib.org/) -->
<svg height="345.6pt" version="1.1" viewBox="0 0 460.8 345.6" width="460.8pt" xmlns="http://www.w3.org/2000/svg" xmlns:xlink="http://www.w3.org/1999/xlink">
 <metadata>
  <rdf:RDF xmlns:cc="http://creativecommons.org/ns#" xmlns:dc="http://purl.org/dc/elements/1.1/" xmlns:rdf="http://www.w3.org/1999/02/22-rdf-syntax-ns#">
   <cc:Work>
    <dc:type rdf:resource="http://purl.org/dc/dcmitype/StillImage"/>
    <dc:date>2021-08-04T10:26:37.673011</dc:date>
    <dc:format>image/svg+xml</dc:format>
    <dc:creator>
     <cc:Agent>
      <dc:title>Matplotlib v3.3.1, https://matplotlib.org/</dc:title>
     </cc:Agent>
    </dc:creator>
   </cc:Work>
  </rdf:RDF>
 </metadata>
 <defs>
  <style type="text/css">*{stroke-linecap:butt;stroke-linejoin:round;}</style>
 </defs>
 <g id="figure_1">
  <g id="patch_1">
   <path d="M 0 345.6 
L 460.8 345.6 
L 460.8 0 
L 0 0 
z
" style="fill:#ffffff;"/>
  </g>
  <g id="axes_1">
   <g id="patch_2">
    <path d="M 57.6 298.944 
L 338.688 298.944 
L 338.688 3.456 
L 57.6 3.456 
z
" style="fill:#ffffff;"/>
   </g>
   <g id="matplotlib.axis_1">
    <g id="xtick_1">
     <g id="line2d_1">
      <path clip-path="url(#pbe8803d63d)" d="M 57.6 298.944 
L 57.6 3.456 
" style="fill:none;stroke:#b0b0b0;stroke-linecap:square;stroke-width:0.8;"/>
     </g>
     <g id="line2d_2">
      <defs>
       <path d="M 0 0 
L 0 3.5 
" id="m9dc120ecf0" style="stroke:#000000;stroke-width:0.8;"/>
      </defs>
      <g>
       <use style="stroke:#000000;stroke-width:0.8;" x="57.6" xlink:href="#m9dc120ecf0" y="298.944"/>
      </g>
     </g>
     <g id="text_1">
      <!-- 0 -->
      <g transform="translate(51.2375 321.140875)scale(0.2 -0.2)">
       <defs>
        <path d="M 31.78125 66.40625 
Q 24.171875 66.40625 20.328125 58.90625 
Q 16.5 51.421875 16.5 36.375 
Q 16.5 21.390625 20.328125 13.890625 
Q 24.171875 6.390625 31.78125 6.390625 
Q 39.453125 6.390625 43.28125 13.890625 
Q 47.125 21.390625 47.125 36.375 
Q 47.125 51.421875 43.28125 58.90625 
Q 39.453125 66.40625 31.78125 66.40625 
z
M 31.78125 74.21875 
Q 44.046875 74.21875 50.515625 64.515625 
Q 56.984375 54.828125 56.984375 36.375 
Q 56.984375 17.96875 50.515625 8.265625 
Q 44.046875 -1.421875 31.78125 -1.421875 
Q 19.53125 -1.421875 13.0625 8.265625 
Q 6.59375 17.96875 6.59375 36.375 
Q 6.59375 54.828125 13.0625 64.515625 
Q 19.53125 74.21875 31.78125 74.21875 
z
" id="DejaVuSans-48"/>
       </defs>
       <use xlink:href="#DejaVuSans-48"/>
      </g>
     </g>
    </g>
    <g id="xtick_2">
     <g id="line2d_3">
      <path clip-path="url(#pbe8803d63d)" d="M 137.910857 298.944 
L 137.910857 3.456 
" style="fill:none;stroke:#b0b0b0;stroke-linecap:square;stroke-width:0.8;"/>
     </g>
     <g id="line2d_4">
      <g>
       <use style="stroke:#000000;stroke-width:0.8;" x="137.910857" xlink:href="#m9dc120ecf0" y="298.944"/>
      </g>
     </g>
     <g id="text_2">
      <!-- 2 -->
      <g transform="translate(131.548357 321.140875)scale(0.2 -0.2)">
       <defs>
        <path d="M 19.1875 8.296875 
L 53.609375 8.296875 
L 53.609375 0 
L 7.328125 0 
L 7.328125 8.296875 
Q 12.9375 14.109375 22.625 23.890625 
Q 32.328125 33.6875 34.8125 36.53125 
Q 39.546875 41.84375 41.421875 45.53125 
Q 43.3125 49.21875 43.3125 52.78125 
Q 43.3125 58.59375 39.234375 62.25 
Q 35.15625 65.921875 28.609375 65.921875 
Q 23.96875 65.921875 18.8125 64.3125 
Q 13.671875 62.703125 7.8125 59.421875 
L 7.8125 69.390625 
Q 13.765625 71.78125 18.9375 73 
Q 24.125 74.21875 28.421875 74.21875 
Q 39.75 74.21875 46.484375 68.546875 
Q 53.21875 62.890625 53.21875 53.421875 
Q 53.21875 48.921875 51.53125 44.890625 
Q 49.859375 40.875 45.40625 35.40625 
Q 44.1875 33.984375 37.640625 27.21875 
Q 31.109375 20.453125 19.1875 8.296875 
z
" id="DejaVuSans-50"/>
       </defs>
       <use xlink:href="#DejaVuSans-50"/>
      </g>
     </g>
    </g>
    <g id="xtick_3">
     <g id="line2d_5">
      <path clip-path="url(#pbe8803d63d)" d="M 218.221714 298.944 
L 218.221714 3.456 
" style="fill:none;stroke:#b0b0b0;stroke-linecap:square;stroke-width:0.8;"/>
     </g>
     <g id="line2d_6">
      <g>
       <use style="stroke:#000000;stroke-width:0.8;" x="218.221714" xlink:href="#m9dc120ecf0" y="298.944"/>
      </g>
     </g>
     <g id="text_3">
      <!-- 4 -->
      <g transform="translate(211.859214 321.140875)scale(0.2 -0.2)">
       <defs>
        <path d="M 37.796875 64.3125 
L 12.890625 25.390625 
L 37.796875 25.390625 
z
M 35.203125 72.90625 
L 47.609375 72.90625 
L 47.609375 25.390625 
L 58.015625 25.390625 
L 58.015625 17.1875 
L 47.609375 17.1875 
L 47.609375 0 
L 37.796875 0 
L 37.796875 17.1875 
L 4.890625 17.1875 
L 4.890625 26.703125 
z
" id="DejaVuSans-52"/>
       </defs>
       <use xlink:href="#DejaVuSans-52"/>
      </g>
     </g>
    </g>
    <g id="xtick_4">
     <g id="line2d_7">
      <path clip-path="url(#pbe8803d63d)" d="M 298.532571 298.944 
L 298.532571 3.456 
" style="fill:none;stroke:#b0b0b0;stroke-linecap:square;stroke-width:0.8;"/>
     </g>
     <g id="line2d_8">
      <g>
       <use style="stroke:#000000;stroke-width:0.8;" x="298.532571" xlink:href="#m9dc120ecf0" y="298.944"/>
      </g>
     </g>
     <g id="text_4">
      <!-- 6 -->
      <g transform="translate(292.170071 321.140875)scale(0.2 -0.2)">
       <defs>
        <path d="M 33.015625 40.375 
Q 26.375 40.375 22.484375 35.828125 
Q 18.609375 31.296875 18.609375 23.390625 
Q 18.609375 15.53125 22.484375 10.953125 
Q 26.375 6.390625 33.015625 6.390625 
Q 39.65625 6.390625 43.53125 10.953125 
Q 47.40625 15.53125 47.40625 23.390625 
Q 47.40625 31.296875 43.53125 35.828125 
Q 39.65625 40.375 33.015625 40.375 
z
M 52.59375 71.296875 
L 52.59375 62.3125 
Q 48.875 64.0625 45.09375 64.984375 
Q 41.3125 65.921875 37.59375 65.921875 
Q 27.828125 65.921875 22.671875 59.328125 
Q 17.53125 52.734375 16.796875 39.40625 
Q 19.671875 43.65625 24.015625 45.921875 
Q 28.375 48.1875 33.59375 48.1875 
Q 44.578125 48.1875 50.953125 41.515625 
Q 57.328125 34.859375 57.328125 23.390625 
Q 57.328125 12.15625 50.6875 5.359375 
Q 44.046875 -1.421875 33.015625 -1.421875 
Q 20.359375 -1.421875 13.671875 8.265625 
Q 6.984375 17.96875 6.984375 36.375 
Q 6.984375 53.65625 15.1875 63.9375 
Q 23.390625 74.21875 37.203125 74.21875 
Q 40.921875 74.21875 44.703125 73.484375 
Q 48.484375 72.75 52.59375 71.296875 
z
" id="DejaVuSans-54"/>
       </defs>
       <use xlink:href="#DejaVuSans-54"/>
      </g>
     </g>
    </g>
    <g id="xtick_5">
     <g id="line2d_9">
      <path clip-path="url(#pbe8803d63d)" d="M 97.755429 298.944 
L 97.755429 3.456 
" style="fill:none;stroke:#b0b0b0;stroke-linecap:square;stroke-width:0.8;"/>
     </g>
     <g id="line2d_10">
      <defs>
       <path d="M 0 0 
L 0 2 
" id="ma3fce5904e" style="stroke:#000000;stroke-width:0.6;"/>
      </defs>
      <g>
       <use style="stroke:#000000;stroke-width:0.6;" x="97.755429" xlink:href="#ma3fce5904e" y="298.944"/>
      </g>
     </g>
    </g>
    <g id="xtick_6">
     <g id="line2d_11">
      <path clip-path="url(#pbe8803d63d)" d="M 178.066286 298.944 
L 178.066286 3.456 
" style="fill:none;stroke:#b0b0b0;stroke-linecap:square;stroke-width:0.8;"/>
     </g>
     <g id="line2d_12">
      <g>
       <use style="stroke:#000000;stroke-width:0.6;" x="178.066286" xlink:href="#ma3fce5904e" y="298.944"/>
      </g>
     </g>
    </g>
    <g id="xtick_7">
     <g id="line2d_13">
      <path clip-path="url(#pbe8803d63d)" d="M 258.377143 298.944 
L 258.377143 3.456 
" style="fill:none;stroke:#b0b0b0;stroke-linecap:square;stroke-width:0.8;"/>
     </g>
     <g id="line2d_14">
      <g>
       <use style="stroke:#000000;stroke-width:0.6;" x="258.377143" xlink:href="#ma3fce5904e" y="298.944"/>
      </g>
     </g>
    </g>
    <g id="xtick_8">
     <g id="line2d_15">
      <path clip-path="url(#pbe8803d63d)" d="M 338.688 298.944 
L 338.688 3.456 
" style="fill:none;stroke:#b0b0b0;stroke-linecap:square;stroke-width:0.8;"/>
     </g>
     <g id="line2d_16">
      <g>
       <use style="stroke:#000000;stroke-width:0.6;" x="338.688" xlink:href="#ma3fce5904e" y="298.944"/>
      </g>
     </g>
    </g>
    <g id="text_5">
     <!-- log10(# f-evals / dimension) -->
     <g transform="translate(77.764078 342.217594)scale(0.17 -0.17)">
      <defs>
       <path d="M 9.421875 75.984375 
L 18.40625 75.984375 
L 18.40625 0 
L 9.421875 0 
z
" id="DejaVuSans-108"/>
       <path d="M 30.609375 48.390625 
Q 23.390625 48.390625 19.1875 42.75 
Q 14.984375 37.109375 14.984375 27.296875 
Q 14.984375 17.484375 19.15625 11.84375 
Q 23.34375 6.203125 30.609375 6.203125 
Q 37.796875 6.203125 41.984375 11.859375 
Q 46.1875 17.53125 46.1875 27.296875 
Q 46.1875 37.015625 41.984375 42.703125 
Q 37.796875 48.390625 30.609375 48.390625 
z
M 30.609375 56 
Q 42.328125 56 49.015625 48.375 
Q 55.71875 40.765625 55.71875 27.296875 
Q 55.71875 13.875 49.015625 6.21875 
Q 42.328125 -1.421875 30.609375 -1.421875 
Q 18.84375 -1.421875 12.171875 6.21875 
Q 5.515625 13.875 5.515625 27.296875 
Q 5.515625 40.765625 12.171875 48.375 
Q 18.84375 56 30.609375 56 
z
" id="DejaVuSans-111"/>
       <path d="M 45.40625 27.984375 
Q 45.40625 37.75 41.375 43.109375 
Q 37.359375 48.484375 30.078125 48.484375 
Q 22.859375 48.484375 18.828125 43.109375 
Q 14.796875 37.75 14.796875 27.984375 
Q 14.796875 18.265625 18.828125 12.890625 
Q 22.859375 7.515625 30.078125 7.515625 
Q 37.359375 7.515625 41.375 12.890625 
Q 45.40625 18.265625 45.40625 27.984375 
z
M 54.390625 6.78125 
Q 54.390625 -7.171875 48.1875 -13.984375 
Q 42 -20.796875 29.203125 -20.796875 
Q 24.46875 -20.796875 20.265625 -20.09375 
Q 16.0625 -19.390625 12.109375 -17.921875 
L 12.109375 -9.1875 
Q 16.0625 -11.328125 19.921875 -12.34375 
Q 23.78125 -13.375 27.78125 -13.375 
Q 36.625 -13.375 41.015625 -8.765625 
Q 45.40625 -4.15625 45.40625 5.171875 
L 45.40625 9.625 
Q 42.625 4.78125 38.28125 2.390625 
Q 33.9375 0 27.875 0 
Q 17.828125 0 11.671875 7.65625 
Q 5.515625 15.328125 5.515625 27.984375 
Q 5.515625 40.671875 11.671875 48.328125 
Q 17.828125 56 27.875 56 
Q 33.9375 56 38.28125 53.609375 
Q 42.625 51.21875 45.40625 46.390625 
L 45.40625 54.6875 
L 54.390625 54.6875 
z
" id="DejaVuSans-103"/>
       <path d="M 12.40625 8.296875 
L 28.515625 8.296875 
L 28.515625 63.921875 
L 10.984375 60.40625 
L 10.984375 69.390625 
L 28.421875 72.90625 
L 38.28125 72.90625 
L 38.28125 8.296875 
L 54.390625 8.296875 
L 54.390625 0 
L 12.40625 0 
z
" id="DejaVuSans-49"/>
       <path d="M 31 75.875 
Q 24.46875 64.65625 21.28125 53.65625 
Q 18.109375 42.671875 18.109375 31.390625 
Q 18.109375 20.125 21.3125 9.0625 
Q 24.515625 -2 31 -13.1875 
L 23.1875 -13.1875 
Q 15.875 -1.703125 12.234375 9.375 
Q 8.59375 20.453125 8.59375 31.390625 
Q 8.59375 42.28125 12.203125 53.3125 
Q 15.828125 64.359375 23.1875 75.875 
z
" id="DejaVuSans-40"/>
       <path d="M 51.125 44 
L 36.921875 44 
L 32.8125 27.6875 
L 47.125 27.6875 
z
M 43.796875 71.78125 
L 38.71875 51.515625 
L 52.984375 51.515625 
L 58.109375 71.78125 
L 65.921875 71.78125 
L 60.890625 51.515625 
L 76.125 51.515625 
L 76.125 44 
L 58.984375 44 
L 54.984375 27.6875 
L 70.515625 27.6875 
L 70.515625 20.21875 
L 53.078125 20.21875 
L 48 0 
L 40.1875 0 
L 45.21875 20.21875 
L 30.90625 20.21875 
L 25.875 0 
L 18.015625 0 
L 23.09375 20.21875 
L 7.71875 20.21875 
L 7.71875 27.6875 
L 24.90625 27.6875 
L 29 44 
L 13.28125 44 
L 13.28125 51.515625 
L 30.90625 51.515625 
L 35.890625 71.78125 
z
" id="DejaVuSans-35"/>
       <path id="DejaVuSans-32"/>
       <path d="M 37.109375 75.984375 
L 37.109375 68.5 
L 28.515625 68.5 
Q 23.6875 68.5 21.796875 66.546875 
Q 19.921875 64.59375 19.921875 59.515625 
L 19.921875 54.6875 
L 34.71875 54.6875 
L 34.71875 47.703125 
L 19.921875 47.703125 
L 19.921875 0 
L 10.890625 0 
L 10.890625 47.703125 
L 2.296875 47.703125 
L 2.296875 54.6875 
L 10.890625 54.6875 
L 10.890625 58.5 
Q 10.890625 67.625 15.140625 71.796875 
Q 19.390625 75.984375 28.609375 75.984375 
z
" id="DejaVuSans-102"/>
       <path d="M 4.890625 31.390625 
L 31.203125 31.390625 
L 31.203125 23.390625 
L 4.890625 23.390625 
z
" id="DejaVuSans-45"/>
       <path d="M 56.203125 29.59375 
L 56.203125 25.203125 
L 14.890625 25.203125 
Q 15.484375 15.921875 20.484375 11.0625 
Q 25.484375 6.203125 34.421875 6.203125 
Q 39.59375 6.203125 44.453125 7.46875 
Q 49.3125 8.734375 54.109375 11.28125 
L 54.109375 2.78125 
Q 49.265625 0.734375 44.1875 -0.34375 
Q 39.109375 -1.421875 33.890625 -1.421875 
Q 20.796875 -1.421875 13.15625 6.1875 
Q 5.515625 13.8125 5.515625 26.8125 
Q 5.515625 40.234375 12.765625 48.109375 
Q 20.015625 56 32.328125 56 
Q 43.359375 56 49.78125 48.890625 
Q 56.203125 41.796875 56.203125 29.59375 
z
M 47.21875 32.234375 
Q 47.125 39.59375 43.09375 43.984375 
Q 39.0625 48.390625 32.421875 48.390625 
Q 24.90625 48.390625 20.390625 44.140625 
Q 15.875 39.890625 15.1875 32.171875 
z
" id="DejaVuSans-101"/>
       <path d="M 2.984375 54.6875 
L 12.5 54.6875 
L 29.59375 8.796875 
L 46.6875 54.6875 
L 56.203125 54.6875 
L 35.6875 0 
L 23.484375 0 
z
" id="DejaVuSans-118"/>
       <path d="M 34.28125 27.484375 
Q 23.390625 27.484375 19.1875 25 
Q 14.984375 22.515625 14.984375 16.5 
Q 14.984375 11.71875 18.140625 8.90625 
Q 21.296875 6.109375 26.703125 6.109375 
Q 34.1875 6.109375 38.703125 11.40625 
Q 43.21875 16.703125 43.21875 25.484375 
L 43.21875 27.484375 
z
M 52.203125 31.203125 
L 52.203125 0 
L 43.21875 0 
L 43.21875 8.296875 
Q 40.140625 3.328125 35.546875 0.953125 
Q 30.953125 -1.421875 24.3125 -1.421875 
Q 15.921875 -1.421875 10.953125 3.296875 
Q 6 8.015625 6 15.921875 
Q 6 25.140625 12.171875 29.828125 
Q 18.359375 34.515625 30.609375 34.515625 
L 43.21875 34.515625 
L 43.21875 35.40625 
Q 43.21875 41.609375 39.140625 45 
Q 35.0625 48.390625 27.6875 48.390625 
Q 23 48.390625 18.546875 47.265625 
Q 14.109375 46.140625 10.015625 43.890625 
L 10.015625 52.203125 
Q 14.9375 54.109375 19.578125 55.046875 
Q 24.21875 56 28.609375 56 
Q 40.484375 56 46.34375 49.84375 
Q 52.203125 43.703125 52.203125 31.203125 
z
" id="DejaVuSans-97"/>
       <path d="M 44.28125 53.078125 
L 44.28125 44.578125 
Q 40.484375 46.53125 36.375 47.5 
Q 32.28125 48.484375 27.875 48.484375 
Q 21.1875 48.484375 17.84375 46.4375 
Q 14.5 44.390625 14.5 40.28125 
Q 14.5 37.15625 16.890625 35.375 
Q 19.28125 33.59375 26.515625 31.984375 
L 29.59375 31.296875 
Q 39.15625 29.25 43.1875 25.515625 
Q 47.21875 21.78125 47.21875 15.09375 
Q 47.21875 7.46875 41.1875 3.015625 
Q 35.15625 -1.421875 24.609375 -1.421875 
Q 20.21875 -1.421875 15.453125 -0.5625 
Q 10.6875 0.296875 5.421875 2 
L 5.421875 11.28125 
Q 10.40625 8.6875 15.234375 7.390625 
Q 20.0625 6.109375 24.8125 6.109375 
Q 31.15625 6.109375 34.5625 8.28125 
Q 37.984375 10.453125 37.984375 14.40625 
Q 37.984375 18.0625 35.515625 20.015625 
Q 33.0625 21.96875 24.703125 23.78125 
L 21.578125 24.515625 
Q 13.234375 26.265625 9.515625 29.90625 
Q 5.8125 33.546875 5.8125 39.890625 
Q 5.8125 47.609375 11.28125 51.796875 
Q 16.75 56 26.8125 56 
Q 31.78125 56 36.171875 55.265625 
Q 40.578125 54.546875 44.28125 53.078125 
z
" id="DejaVuSans-115"/>
       <path d="M 25.390625 72.90625 
L 33.6875 72.90625 
L 8.296875 -9.28125 
L 0 -9.28125 
z
" id="DejaVuSans-47"/>
       <path d="M 45.40625 46.390625 
L 45.40625 75.984375 
L 54.390625 75.984375 
L 54.390625 0 
L 45.40625 0 
L 45.40625 8.203125 
Q 42.578125 3.328125 38.25 0.953125 
Q 33.9375 -1.421875 27.875 -1.421875 
Q 17.96875 -1.421875 11.734375 6.484375 
Q 5.515625 14.40625 5.515625 27.296875 
Q 5.515625 40.1875 11.734375 48.09375 
Q 17.96875 56 27.875 56 
Q 33.9375 56 38.25 53.625 
Q 42.578125 51.265625 45.40625 46.390625 
z
M 14.796875 27.296875 
Q 14.796875 17.390625 18.875 11.75 
Q 22.953125 6.109375 30.078125 6.109375 
Q 37.203125 6.109375 41.296875 11.75 
Q 45.40625 17.390625 45.40625 27.296875 
Q 45.40625 37.203125 41.296875 42.84375 
Q 37.203125 48.484375 30.078125 48.484375 
Q 22.953125 48.484375 18.875 42.84375 
Q 14.796875 37.203125 14.796875 27.296875 
z
" id="DejaVuSans-100"/>
       <path d="M 9.421875 54.6875 
L 18.40625 54.6875 
L 18.40625 0 
L 9.421875 0 
z
M 9.421875 75.984375 
L 18.40625 75.984375 
L 18.40625 64.59375 
L 9.421875 64.59375 
z
" id="DejaVuSans-105"/>
       <path d="M 52 44.1875 
Q 55.375 50.25 60.0625 53.125 
Q 64.75 56 71.09375 56 
Q 79.640625 56 84.28125 50.015625 
Q 88.921875 44.046875 88.921875 33.015625 
L 88.921875 0 
L 79.890625 0 
L 79.890625 32.71875 
Q 79.890625 40.578125 77.09375 44.375 
Q 74.3125 48.1875 68.609375 48.1875 
Q 61.625 48.1875 57.5625 43.546875 
Q 53.515625 38.921875 53.515625 30.90625 
L 53.515625 0 
L 44.484375 0 
L 44.484375 32.71875 
Q 44.484375 40.625 41.703125 44.40625 
Q 38.921875 48.1875 33.109375 48.1875 
Q 26.21875 48.1875 22.15625 43.53125 
Q 18.109375 38.875 18.109375 30.90625 
L 18.109375 0 
L 9.078125 0 
L 9.078125 54.6875 
L 18.109375 54.6875 
L 18.109375 46.1875 
Q 21.1875 51.21875 25.484375 53.609375 
Q 29.78125 56 35.6875 56 
Q 41.65625 56 45.828125 52.96875 
Q 50 49.953125 52 44.1875 
z
" id="DejaVuSans-109"/>
       <path d="M 54.890625 33.015625 
L 54.890625 0 
L 45.90625 0 
L 45.90625 32.71875 
Q 45.90625 40.484375 42.875 44.328125 
Q 39.84375 48.1875 33.796875 48.1875 
Q 26.515625 48.1875 22.3125 43.546875 
Q 18.109375 38.921875 18.109375 30.90625 
L 18.109375 0 
L 9.078125 0 
L 9.078125 54.6875 
L 18.109375 54.6875 
L 18.109375 46.1875 
Q 21.34375 51.125 25.703125 53.5625 
Q 30.078125 56 35.796875 56 
Q 45.21875 56 50.046875 50.171875 
Q 54.890625 44.34375 54.890625 33.015625 
z
" id="DejaVuSans-110"/>
       <path d="M 8.015625 75.875 
L 15.828125 75.875 
Q 23.140625 64.359375 26.78125 53.3125 
Q 30.421875 42.28125 30.421875 31.390625 
Q 30.421875 20.453125 26.78125 9.375 
Q 23.140625 -1.703125 15.828125 -13.1875 
L 8.015625 -13.1875 
Q 14.5 -2 17.703125 9.0625 
Q 20.90625 20.125 20.90625 31.390625 
Q 20.90625 42.671875 17.703125 53.65625 
Q 14.5 64.65625 8.015625 75.875 
z
" id="DejaVuSans-41"/>
      </defs>
      <use xlink:href="#DejaVuSans-108"/>
      <use x="27.783203" xlink:href="#DejaVuSans-111"/>
      <use x="88.964844" xlink:href="#DejaVuSans-103"/>
      <use x="152.441406" xlink:href="#DejaVuSans-49"/>
      <use x="216.064453" xlink:href="#DejaVuSans-48"/>
      <use x="279.6875" xlink:href="#DejaVuSans-40"/>
      <use x="318.701172" xlink:href="#DejaVuSans-35"/>
      <use x="402.490234" xlink:href="#DejaVuSans-32"/>
      <use x="434.277344" xlink:href="#DejaVuSans-102"/>
      <use x="463.982422" xlink:href="#DejaVuSans-45"/>
      <use x="500.066406" xlink:href="#DejaVuSans-101"/>
      <use x="561.589844" xlink:href="#DejaVuSans-118"/>
      <use x="620.769531" xlink:href="#DejaVuSans-97"/>
      <use x="682.048828" xlink:href="#DejaVuSans-108"/>
      <use x="709.832031" xlink:href="#DejaVuSans-115"/>
      <use x="761.931641" xlink:href="#DejaVuSans-32"/>
      <use x="793.71875" xlink:href="#DejaVuSans-47"/>
      <use x="827.410156" xlink:href="#DejaVuSans-32"/>
      <use x="859.197266" xlink:href="#DejaVuSans-100"/>
      <use x="922.673828" xlink:href="#DejaVuSans-105"/>
      <use x="950.457031" xlink:href="#DejaVuSans-109"/>
      <use x="1047.869141" xlink:href="#DejaVuSans-101"/>
      <use x="1109.392578" xlink:href="#DejaVuSans-110"/>
      <use x="1172.771484" xlink:href="#DejaVuSans-115"/>
      <use x="1224.871094" xlink:href="#DejaVuSans-105"/>
      <use x="1252.654297" xlink:href="#DejaVuSans-111"/>
      <use x="1313.835938" xlink:href="#DejaVuSans-110"/>
      <use x="1377.214844" xlink:href="#DejaVuSans-41"/>
     </g>
    </g>
   </g>
   <g id="matplotlib.axis_2">
    <g id="ytick_1">
     <g id="line2d_17">
      <path clip-path="url(#pbe8803d63d)" d="M 57.6 298.944 
L 338.688 298.944 
" style="fill:none;stroke:#b0b0b0;stroke-linecap:square;stroke-width:0.8;"/>
     </g>
     <g id="line2d_18">
      <defs>
       <path d="M 0 0 
L -3.5 0 
" id="m6a219624a7" style="stroke:#000000;stroke-width:0.8;"/>
      </defs>
      <g>
       <use style="stroke:#000000;stroke-width:0.8;" x="57.6" xlink:href="#m6a219624a7" y="298.944"/>
      </g>
     </g>
     <g id="text_6">
      <!-- 0.0 -->
      <g transform="translate(25.155 305.02275)scale(0.16 -0.16)">
       <defs>
        <path d="M 10.6875 12.40625 
L 21 12.40625 
L 21 0 
L 10.6875 0 
z
" id="DejaVuSans-46"/>
       </defs>
       <use xlink:href="#DejaVuSans-48"/>
       <use x="63.623047" xlink:href="#DejaVuSans-46"/>
       <use x="95.410156" xlink:href="#DejaVuSans-48"/>
      </g>
     </g>
    </g>
    <g id="ytick_2">
     <g id="line2d_19">
      <path clip-path="url(#pbe8803d63d)" d="M 57.6 240.431525 
L 338.688 240.431525 
" style="fill:none;stroke:#b0b0b0;stroke-linecap:square;stroke-width:0.8;"/>
     </g>
     <g id="line2d_20">
      <g>
       <use style="stroke:#000000;stroke-width:0.8;" x="57.6" xlink:href="#m6a219624a7" y="240.431525"/>
      </g>
     </g>
     <g id="text_7">
      <!-- 0.2 -->
      <g transform="translate(25.155 246.510275)scale(0.16 -0.16)">
       <use xlink:href="#DejaVuSans-48"/>
       <use x="63.623047" xlink:href="#DejaVuSans-46"/>
       <use x="95.410156" xlink:href="#DejaVuSans-50"/>
      </g>
     </g>
    </g>
    <g id="ytick_3">
     <g id="line2d_21">
      <path clip-path="url(#pbe8803d63d)" d="M 57.6 181.91905 
L 338.688 181.91905 
" style="fill:none;stroke:#b0b0b0;stroke-linecap:square;stroke-width:0.8;"/>
     </g>
     <g id="line2d_22">
      <g>
       <use style="stroke:#000000;stroke-width:0.8;" x="57.6" xlink:href="#m6a219624a7" y="181.91905"/>
      </g>
     </g>
     <g id="text_8">
      <!-- 0.4 -->
      <g transform="translate(25.155 187.9978)scale(0.16 -0.16)">
       <use xlink:href="#DejaVuSans-48"/>
       <use x="63.623047" xlink:href="#DejaVuSans-46"/>
       <use x="95.410156" xlink:href="#DejaVuSans-52"/>
      </g>
     </g>
    </g>
    <g id="ytick_4">
     <g id="line2d_23">
      <path clip-path="url(#pbe8803d63d)" d="M 57.6 123.406574 
L 338.688 123.406574 
" style="fill:none;stroke:#b0b0b0;stroke-linecap:square;stroke-width:0.8;"/>
     </g>
     <g id="line2d_24">
      <g>
       <use style="stroke:#000000;stroke-width:0.8;" x="57.6" xlink:href="#m6a219624a7" y="123.406574"/>
      </g>
     </g>
     <g id="text_9">
      <!-- 0.6 -->
      <g transform="translate(25.155 129.485324)scale(0.16 -0.16)">
       <use xlink:href="#DejaVuSans-48"/>
       <use x="63.623047" xlink:href="#DejaVuSans-46"/>
       <use x="95.410156" xlink:href="#DejaVuSans-54"/>
      </g>
     </g>
    </g>
    <g id="ytick_5">
     <g id="line2d_25">
      <path clip-path="url(#pbe8803d63d)" d="M 57.6 64.894099 
L 338.688 64.894099 
" style="fill:none;stroke:#b0b0b0;stroke-linecap:square;stroke-width:0.8;"/>
     </g>
     <g id="line2d_26">
      <g>
       <use style="stroke:#000000;stroke-width:0.8;" x="57.6" xlink:href="#m6a219624a7" y="64.894099"/>
      </g>
     </g>
     <g id="text_10">
      <!-- 0.8 -->
      <g transform="translate(25.155 70.972849)scale(0.16 -0.16)">
       <defs>
        <path d="M 31.78125 34.625 
Q 24.75 34.625 20.71875 30.859375 
Q 16.703125 27.09375 16.703125 20.515625 
Q 16.703125 13.921875 20.71875 10.15625 
Q 24.75 6.390625 31.78125 6.390625 
Q 38.8125 6.390625 42.859375 10.171875 
Q 46.921875 13.96875 46.921875 20.515625 
Q 46.921875 27.09375 42.890625 30.859375 
Q 38.875 34.625 31.78125 34.625 
z
M 21.921875 38.8125 
Q 15.578125 40.375 12.03125 44.71875 
Q 8.5 49.078125 8.5 55.328125 
Q 8.5 64.0625 14.71875 69.140625 
Q 20.953125 74.21875 31.78125 74.21875 
Q 42.671875 74.21875 48.875 69.140625 
Q 55.078125 64.0625 55.078125 55.328125 
Q 55.078125 49.078125 51.53125 44.71875 
Q 48 40.375 41.703125 38.8125 
Q 48.828125 37.15625 52.796875 32.3125 
Q 56.78125 27.484375 56.78125 20.515625 
Q 56.78125 9.90625 50.3125 4.234375 
Q 43.84375 -1.421875 31.78125 -1.421875 
Q 19.734375 -1.421875 13.25 4.234375 
Q 6.78125 9.90625 6.78125 20.515625 
Q 6.78125 27.484375 10.78125 32.3125 
Q 14.796875 37.15625 21.921875 38.8125 
z
M 18.3125 54.390625 
Q 18.3125 48.734375 21.84375 45.5625 
Q 25.390625 42.390625 31.78125 42.390625 
Q 38.140625 42.390625 41.71875 45.5625 
Q 45.3125 48.734375 45.3125 54.390625 
Q 45.3125 60.0625 41.71875 63.234375 
Q 38.140625 66.40625 31.78125 66.40625 
Q 25.390625 66.40625 21.84375 63.234375 
Q 18.3125 60.0625 18.3125 54.390625 
z
" id="DejaVuSans-56"/>
       </defs>
       <use xlink:href="#DejaVuSans-48"/>
       <use x="63.623047" xlink:href="#DejaVuSans-46"/>
       <use x="95.410156" xlink:href="#DejaVuSans-56"/>
      </g>
     </g>
    </g>
    <g id="ytick_6">
     <g id="line2d_27">
      <path clip-path="url(#pbe8803d63d)" d="M 57.6 6.381624 
L 338.688 6.381624 
" style="fill:none;stroke:#b0b0b0;stroke-linecap:square;stroke-width:0.8;"/>
     </g>
     <g id="line2d_28">
      <g>
       <use style="stroke:#000000;stroke-width:0.8;" x="57.6" xlink:href="#m6a219624a7" y="6.381624"/>
      </g>
     </g>
     <g id="text_11">
      <!-- 1.0 -->
      <g transform="translate(25.155 12.460374)scale(0.16 -0.16)">
       <use xlink:href="#DejaVuSans-49"/>
       <use x="63.623047" xlink:href="#DejaVuSans-46"/>
       <use x="95.410156" xlink:href="#DejaVuSans-48"/>
      </g>
     </g>
    </g>
    <g id="text_12">
     <!-- Fraction of function,target pairs -->
     <g transform="translate(17.619531 285.585)rotate(-90)scale(0.17 -0.17)">
      <defs>
       <path d="M 9.8125 72.90625 
L 51.703125 72.90625 
L 51.703125 64.59375 
L 19.671875 64.59375 
L 19.671875 43.109375 
L 48.578125 43.109375 
L 48.578125 34.8125 
L 19.671875 34.8125 
L 19.671875 0 
L 9.8125 0 
z
" id="DejaVuSans-70"/>
       <path d="M 41.109375 46.296875 
Q 39.59375 47.171875 37.8125 47.578125 
Q 36.03125 48 33.890625 48 
Q 26.265625 48 22.1875 43.046875 
Q 18.109375 38.09375 18.109375 28.8125 
L 18.109375 0 
L 9.078125 0 
L 9.078125 54.6875 
L 18.109375 54.6875 
L 18.109375 46.1875 
Q 20.953125 51.171875 25.484375 53.578125 
Q 30.03125 56 36.53125 56 
Q 37.453125 56 38.578125 55.875 
Q 39.703125 55.765625 41.0625 55.515625 
z
" id="DejaVuSans-114"/>
       <path d="M 48.78125 52.59375 
L 48.78125 44.1875 
Q 44.96875 46.296875 41.140625 47.34375 
Q 37.3125 48.390625 33.40625 48.390625 
Q 24.65625 48.390625 19.8125 42.84375 
Q 14.984375 37.3125 14.984375 27.296875 
Q 14.984375 17.28125 19.8125 11.734375 
Q 24.65625 6.203125 33.40625 6.203125 
Q 37.3125 6.203125 41.140625 7.25 
Q 44.96875 8.296875 48.78125 10.40625 
L 48.78125 2.09375 
Q 45.015625 0.34375 40.984375 -0.53125 
Q 36.96875 -1.421875 32.421875 -1.421875 
Q 20.0625 -1.421875 12.78125 6.34375 
Q 5.515625 14.109375 5.515625 27.296875 
Q 5.515625 40.671875 12.859375 48.328125 
Q 20.21875 56 33.015625 56 
Q 37.15625 56 41.109375 55.140625 
Q 45.0625 54.296875 48.78125 52.59375 
z
" id="DejaVuSans-99"/>
       <path d="M 18.3125 70.21875 
L 18.3125 54.6875 
L 36.8125 54.6875 
L 36.8125 47.703125 
L 18.3125 47.703125 
L 18.3125 18.015625 
Q 18.3125 11.328125 20.140625 9.421875 
Q 21.96875 7.515625 27.59375 7.515625 
L 36.8125 7.515625 
L 36.8125 0 
L 27.59375 0 
Q 17.1875 0 13.234375 3.875 
Q 9.28125 7.765625 9.28125 18.015625 
L 9.28125 47.703125 
L 2.6875 47.703125 
L 2.6875 54.6875 
L 9.28125 54.6875 
L 9.28125 70.21875 
z
" id="DejaVuSans-116"/>
       <path d="M 8.5 21.578125 
L 8.5 54.6875 
L 17.484375 54.6875 
L 17.484375 21.921875 
Q 17.484375 14.15625 20.5 10.265625 
Q 23.53125 6.390625 29.59375 6.390625 
Q 36.859375 6.390625 41.078125 11.03125 
Q 45.3125 15.671875 45.3125 23.6875 
L 45.3125 54.6875 
L 54.296875 54.6875 
L 54.296875 0 
L 45.3125 0 
L 45.3125 8.40625 
Q 42.046875 3.421875 37.71875 1 
Q 33.40625 -1.421875 27.6875 -1.421875 
Q 18.265625 -1.421875 13.375 4.4375 
Q 8.5 10.296875 8.5 21.578125 
z
M 31.109375 56 
z
" id="DejaVuSans-117"/>
       <path d="M 11.71875 12.40625 
L 22.015625 12.40625 
L 22.015625 4 
L 14.015625 -11.625 
L 7.71875 -11.625 
L 11.71875 4 
z
" id="DejaVuSans-44"/>
       <path d="M 18.109375 8.203125 
L 18.109375 -20.796875 
L 9.078125 -20.796875 
L 9.078125 54.6875 
L 18.109375 54.6875 
L 18.109375 46.390625 
Q 20.953125 51.265625 25.265625 53.625 
Q 29.59375 56 35.59375 56 
Q 45.5625 56 51.78125 48.09375 
Q 58.015625 40.1875 58.015625 27.296875 
Q 58.015625 14.40625 51.78125 6.484375 
Q 45.5625 -1.421875 35.59375 -1.421875 
Q 29.59375 -1.421875 25.265625 0.953125 
Q 20.953125 3.328125 18.109375 8.203125 
z
M 48.6875 27.296875 
Q 48.6875 37.203125 44.609375 42.84375 
Q 40.53125 48.484375 33.40625 48.484375 
Q 26.265625 48.484375 22.1875 42.84375 
Q 18.109375 37.203125 18.109375 27.296875 
Q 18.109375 17.390625 22.1875 11.75 
Q 26.265625 6.109375 33.40625 6.109375 
Q 40.53125 6.109375 44.609375 11.75 
Q 48.6875 17.390625 48.6875 27.296875 
z
" id="DejaVuSans-112"/>
      </defs>
      <use xlink:href="#DejaVuSans-70"/>
      <use x="50.269531" xlink:href="#DejaVuSans-114"/>
      <use x="91.382812" xlink:href="#DejaVuSans-97"/>
      <use x="152.662109" xlink:href="#DejaVuSans-99"/>
      <use x="207.642578" xlink:href="#DejaVuSans-116"/>
      <use x="246.851562" xlink:href="#DejaVuSans-105"/>
      <use x="274.634766" xlink:href="#DejaVuSans-111"/>
      <use x="335.816406" xlink:href="#DejaVuSans-110"/>
      <use x="399.195312" xlink:href="#DejaVuSans-32"/>
      <use x="430.982422" xlink:href="#DejaVuSans-111"/>
      <use x="492.164062" xlink:href="#DejaVuSans-102"/>
      <use x="527.369141" xlink:href="#DejaVuSans-32"/>
      <use x="559.15625" xlink:href="#DejaVuSans-102"/>
      <use x="594.361328" xlink:href="#DejaVuSans-117"/>
      <use x="657.740234" xlink:href="#DejaVuSans-110"/>
      <use x="721.119141" xlink:href="#DejaVuSans-99"/>
      <use x="776.099609" xlink:href="#DejaVuSans-116"/>
      <use x="815.308594" xlink:href="#DejaVuSans-105"/>
      <use x="843.091797" xlink:href="#DejaVuSans-111"/>
      <use x="904.273438" xlink:href="#DejaVuSans-110"/>
      <use x="967.652344" xlink:href="#DejaVuSans-44"/>
      <use x="999.439453" xlink:href="#DejaVuSans-116"/>
      <use x="1038.648438" xlink:href="#DejaVuSans-97"/>
      <use x="1099.927734" xlink:href="#DejaVuSans-114"/>
      <use x="1139.291016" xlink:href="#DejaVuSans-103"/>
      <use x="1202.767578" xlink:href="#DejaVuSans-101"/>
      <use x="1264.291016" xlink:href="#DejaVuSans-116"/>
      <use x="1303.5" xlink:href="#DejaVuSans-32"/>
      <use x="1335.287109" xlink:href="#DejaVuSans-112"/>
      <use x="1398.763672" xlink:href="#DejaVuSans-97"/>
      <use x="1460.042969" xlink:href="#DejaVuSans-105"/>
      <use x="1487.826172" xlink:href="#DejaVuSans-114"/>
      <use x="1528.939453" xlink:href="#DejaVuSans-115"/>
     </g>
    </g>
   </g>
   <g id="line2d_29">
    <defs>
     <path d="M 0 1.5 
C 0.397805 1.5 0.77937 1.341951 1.06066 1.06066 
C 1.341951 0.77937 1.5 0.397805 1.5 0 
C 1.5 -0.397805 1.341951 -0.77937 1.06066 -1.06066 
C 0.77937 -1.341951 0.397805 -1.5 0 -1.5 
C -0.397805 -1.5 -0.77937 -1.341951 -1.06066 -1.06066 
C -1.341951 -0.77937 -1.5 -0.397805 -1.5 0 
C -1.5 0.397805 -1.341951 0.77937 -1.06066 1.06066 
C -0.77937 1.341951 -0.397805 1.5 0 1.5 
z
" id="mf203801125" style="stroke:#000080;"/>
    </defs>
    <g>
     <use style="fill:#000080;stroke:#000080;" x="190.85334" xlink:href="#mf203801125" y="253.051863"/>
     <use style="fill:#000080;stroke:#000080;" x="190.85334" xlink:href="#mf203801125" y="253.051863"/>
    </g>
   </g>
   <g id="line2d_30">
    <path d="M 103.870632 298.944 
L 103.870632 298.370348 
L 104.826449 298.370348 
L 104.826449 297.796697 
L 105.057436 297.796697 
L 105.057436 297.223045 
L 108.006005 297.223045 
L 108.006005 296.649393 
L 116.562116 296.649393 
L 116.562116 296.075741 
L 119.502775 296.075741 
L 119.502775 295.50209 
L 119.89914 295.50209 
L 119.89914 294.928438 
L 121.219499 294.928438 
L 121.219499 293.781135 
L 123.907776 293.781135 
L 123.907776 293.207483 
L 124.519744 293.207483 
L 124.519744 292.633831 
L 125.183475 292.633831 
L 125.255688 291.486528 
L 125.682793 291.486528 
L 125.752972 289.765573 
L 125.822869 289.765573 
L 125.822869 289.191921 
L 126.099688 289.191921 
L 126.099688 288.618269 
L 126.236468 288.618269 
L 126.236468 287.470966 
L 126.50685 287.470966 
L 126.50685 286.897314 
L 127.357715 286.897314 
L 127.357715 286.323662 
L 129.118302 286.323662 
L 129.118302 285.75001 
L 130.290663 285.75001 
L 130.290663 285.176359 
L 131.133813 285.176359 
L 131.133813 284.602707 
L 131.338382 284.602707 
L 131.338382 284.029055 
L 131.690703 284.029055 
L 131.690703 282.881752 
L 132.133473 282.881752 
L 132.133473 282.3081 
L 132.326708 282.3081 
L 132.326708 281.734448 
L 132.517825 281.734448 
L 132.517825 281.160797 
L 133.216421 281.160797 
L 133.216421 280.013493 
L 134.61933 280.013493 
L 134.61933 279.439842 
L 136.342635 279.439842 
L 136.342635 278.86619 
L 139.090775 278.86619 
L 139.090775 278.292538 
L 140.011351 278.292538 
L 140.011351 277.718886 
L 140.499195 277.718886 
L 140.499195 277.145235 
L 141.634094 277.145235 
L 141.634094 276.571583 
L 143.375453 276.571583 
L 143.375453 275.997931 
L 144.294175 275.997931 
L 144.294175 275.42428 
L 145.051495 275.42428 
L 145.051495 274.850628 
L 145.258697 274.850628 
L 145.258697 274.276976 
L 146.150926 274.276976 
L 146.150926 273.703324 
L 146.728368 273.703324 
L 146.728368 273.129673 
L 150.54816 273.129673 
L 150.54816 272.556021 
L 151.959639 272.556021 
L 152.00633 271.408718 
L 153.279836 271.408718 
L 153.279836 270.835066 
L 153.764292 270.835066 
L 153.764292 270.261414 
L 155.219531 270.261414 
L 155.232454 269.114111 
L 155.450689 269.114111 
L 155.450689 268.540459 
L 157.551454 268.540459 
L 157.551454 267.966807 
L 158.118907 267.966807 
L 158.118907 267.393156 
L 159.004665 267.393156 
L 159.108409 265.6722 
L 159.807898 265.6722 
L 159.807898 265.098549 
L 159.936602 265.098549 
L 159.936602 264.524897 
L 161.320345 264.524897 
L 161.320345 263.951245 
L 162.363654 263.951245 
L 162.363654 263.377593 
L 163.331824 263.377593 
L 163.331824 262.803942 
L 165.14974 262.803942 
L 165.14974 262.23029 
L 165.346138 262.23029 
L 165.346138 261.656638 
L 167.760513 261.656638 
L 167.760513 261.082987 
L 168.084975 261.082987 
L 168.084975 260.509335 
L 169.105458 260.509335 
L 169.105458 259.935683 
L 171.534438 259.935683 
L 171.534438 259.362031 
L 173.80915 259.362031 
L 173.80915 258.78838 
L 175.912107 258.78838 
L 175.912107 258.214728 
L 178.793811 258.214728 
L 178.793811 257.641076 
L 180.967511 257.641076 
L 180.967511 257.067425 
L 181.205103 257.067425 
L 181.205103 256.493773 
L 182.786012 256.493773 
L 182.786012 255.920121 
L 184.369601 255.920121 
L 184.369601 255.346469 
L 185.204608 255.346469 
L 185.310832 254.199166 
L 187.934858 254.199166 
L 187.934858 253.625514 
L 190.85334 253.625514 
L 190.85334 253.051863 
L 338.688 253.051863 
L 338.688 253.051863 
" style="fill:none;stroke:#000080;stroke-linecap:square;stroke-width:1.5;"/>
   </g>
   <g id="line2d_31">
    <defs>
     <path d="M 0 6 
C 1.591219 6 3.117479 5.367802 4.242641 4.242641 
C 5.367802 3.117479 6 1.591219 6 0 
C 6 -1.591219 5.367802 -3.117479 4.242641 -4.242641 
C 3.117479 -5.367802 1.591219 -6 0 -6 
C -1.591219 -6 -3.117479 -5.367802 -4.242641 -4.242641 
C -5.367802 -3.117479 -6 -1.591219 -6 0 
C -6 1.591219 -5.367802 3.117479 -4.242641 4.242641 
C -3.117479 5.367802 -1.591219 6 0 6 
z
" id="md8320b2252" style="stroke:#000080;stroke-width:1.5;"/>
    </defs>
    <g>
     <use style="fill-opacity:0;stroke:#000080;stroke-width:1.5;" x="133.216421" xlink:href="#md8320b2252" y="281.160797"/>
     <use style="fill-opacity:0;stroke:#000080;stroke-width:1.5;" x="173.80915" xlink:href="#md8320b2252" y="258.78838"/>
     <use style="fill-opacity:0;stroke:#000080;stroke-width:1.5;" x="190.85334" xlink:href="#md8320b2252" y="253.051863"/>
     <use style="fill-opacity:0;stroke:#000080;stroke-width:1.5;" x="190.85334" xlink:href="#md8320b2252" y="253.051863"/>
     <use style="fill-opacity:0;stroke:#000080;stroke-width:1.5;" x="338.688" xlink:href="#md8320b2252" y="253.051863"/>
    </g>
   </g>
   <g id="line2d_32">
    <path style="fill:none;stroke:#000080;stroke-linecap:square;stroke-width:1.5;"/>
    <g/>
   </g>
   <g id="line2d_33">
    <path clip-path="url(#pbe8803d63d)" d="M 143.324386 276.571583 
" style="fill:none;stroke:#000080;stroke-linecap:square;stroke-width:1.5;"/>
    <defs>
     <path d="M -12 12 
L 12 -12 
M -12 -12 
L 12 12 
" id="mee79221b6b" style="stroke:#000080;"/>
    </defs>
    <g clip-path="url(#pbe8803d63d)">
     <use style="fill:#000080;stroke:#000080;" x="143.324386" xlink:href="#mee79221b6b" y="276.571583"/>
    </g>
   </g>
   <g id="line2d_34">
    <defs>
     <path d="M 0 1.5 
C 0.397805 1.5 0.77937 1.341951 1.06066 1.06066 
C 1.341951 0.77937 1.5 0.397805 1.5 0 
C 1.5 -0.397805 1.341951 -0.77937 1.06066 -1.06066 
C 0.77937 -1.341951 0.397805 -1.5 0 -1.5 
C -0.397805 -1.5 -0.77937 -1.341951 -1.06066 -1.06066 
C -1.341951 -0.77937 -1.5 -0.397805 -1.5 0 
C -1.5 0.397805 -1.341951 0.77937 -1.06066 1.06066 
C -0.77937 1.341951 -0.397805 1.5 0 1.5 
z
" id="m1317e9b6e4" style="stroke:#ff00ff;"/>
    </defs>
    <g>
     <use style="fill:#ff00ff;stroke:#ff00ff;" x="150.395406" xlink:href="#m1317e9b6e4" y="270.261414"/>
     <use style="fill:#ff00ff;stroke:#ff00ff;" x="150.395406" xlink:href="#m1317e9b6e4" y="270.261414"/>
    </g>
   </g>
   <g id="line2d_35">
    <path d="M 29.53256 298.944 
L 29.53256 292.060179 
L 82.626842 292.060179 
L 82.626842 288.044617 
L 84.213325 288.044617 
L 84.213325 287.470966 
L 94.294587 287.470966 
L 94.294587 284.029055 
L 95.125186 284.029055 
L 95.125186 283.455404 
L 101.223245 283.455404 
L 101.223245 280.587145 
L 101.785851 280.587145 
L 101.785851 279.439842 
L 106.168594 279.439842 
L 106.168594 278.292538 
L 106.593963 278.292538 
L 106.593963 277.145235 
L 110.016944 277.145235 
L 110.016944 276.571583 
L 110.694282 276.571583 
L 110.694282 275.997931 
L 113.167699 275.997931 
L 113.167699 274.850628 
L 113.73488 274.850628 
L 113.73488 274.276976 
L 118.148599 274.276976 
L 118.148599 273.703324 
L 120.190611 273.703324 
L 120.190611 273.129673 
L 122.018385 273.129673 
L 122.018385 272.556021 
L 122.191052 272.556021 
L 122.191052 271.982369 
L 131.236397 271.982369 
L 131.236397 271.408718 
L 132.422528 271.408718 
L 132.422528 270.835066 
L 150.395406 270.835066 
L 150.395406 270.261414 
L 338.688 270.261414 
" style="fill:none;stroke:#ff00ff;stroke-linecap:square;stroke-width:1.5;"/>
   </g>
   <g id="line2d_36">
    <defs>
     <path d="M -0 8.485281 
L 5.091169 0 
L 0 -8.485281 
L -5.091169 -0 
z
" id="md70767c12f" style="stroke:#ff00ff;stroke-linejoin:miter;stroke-width:1.5;"/>
    </defs>
    <g>
     <use style="fill-opacity:0;stroke:#ff00ff;stroke-linejoin:miter;stroke-width:1.5;" x="84.213325" xlink:href="#md70767c12f" y="288.044617"/>
     <use style="fill-opacity:0;stroke:#ff00ff;stroke-linejoin:miter;stroke-width:1.5;" x="150.395406" xlink:href="#md70767c12f" y="270.835066"/>
     <use style="fill-opacity:0;stroke:#ff00ff;stroke-linejoin:miter;stroke-width:1.5;" x="150.395406" xlink:href="#md70767c12f" y="270.835066"/>
     <use style="fill-opacity:0;stroke:#ff00ff;stroke-linejoin:miter;stroke-width:1.5;" x="150.395406" xlink:href="#md70767c12f" y="270.261414"/>
     <use style="fill-opacity:0;stroke:#ff00ff;stroke-linejoin:miter;stroke-width:1.5;" x="150.395406" xlink:href="#md70767c12f" y="270.261414"/>
     <use style="fill-opacity:0;stroke:#ff00ff;stroke-linejoin:miter;stroke-width:1.5;" x="338.688" xlink:href="#md70767c12f" y="270.261414"/>
    </g>
   </g>
   <g id="line2d_37">
    <path style="fill:none;stroke:#ff00ff;stroke-linecap:square;stroke-width:1.5;"/>
    <g/>
   </g>
   <g id="line2d_38">
    <path clip-path="url(#pbe8803d63d)" d="M 81.775977 292.060179 
" style="fill:none;stroke:#ff00ff;stroke-linecap:square;stroke-width:1.5;"/>
    <defs>
     <path d="M -12 12 
L 12 -12 
M -12 -12 
L 12 12 
" id="mc5f88b3793" style="stroke:#ff00ff;"/>
    </defs>
    <g clip-path="url(#pbe8803d63d)">
     <use style="fill:#ff00ff;stroke:#ff00ff;" x="81.775977" xlink:href="#mc5f88b3793" y="292.060179"/>
    </g>
   </g>
   <g id="line2d_39">
    <defs>
     <path d="M 0 1.5 
C 0.397805 1.5 0.77937 1.341951 1.06066 1.06066 
C 1.341951 0.77937 1.5 0.397805 1.5 0 
C 1.5 -0.397805 1.341951 -0.77937 1.06066 -1.06066 
C 0.77937 -1.341951 0.397805 -1.5 0 -1.5 
C -0.397805 -1.5 -0.77937 -1.341951 -1.06066 -1.06066 
C -1.341951 -0.77937 -1.5 -0.397805 -1.5 0 
C -1.5 0.397805 -1.341951 0.77937 -1.06066 1.06066 
C -0.77937 1.341951 -0.397805 1.5 0 1.5 
z
" id="md56d7b020e" style="stroke:#ff7500;"/>
    </defs>
    <g>
     <use style="fill:#ff7500;stroke:#ff7500;" x="205.54852" xlink:href="#md56d7b020e" y="201.423208"/>
     <use style="fill:#ff7500;stroke:#ff7500;" x="205.54852" xlink:href="#md56d7b020e" y="201.423208"/>
    </g>
   </g>
   <g id="line2d_40">
    <path d="M 115.835374 298.944 
L 115.835374 298.370348 
L 116.323218 298.370348 
L 116.323218 297.796697 
L 118.890808 297.796697 
L 118.890808 297.223045 
L 119.301163 297.223045 
L 119.301163 296.649393 
L 119.502775 296.649393 
L 119.502775 296.075741 
L 121.931406 296.075741 
L 121.931406 295.50209 
L 122.362027 295.50209 
L 122.362027 294.928438 
L 123.192626 294.928438 
L 123.192626 294.354786 
L 126.236468 294.354786 
L 126.236468 293.781135 
L 129.742212 293.781135 
L 129.742212 293.207483 
L 129.908566 293.207483 
L 129.908566 292.633831 
L 130.61164 292.633831 
L 130.61164 292.060179 
L 130.926816 292.060179 
L 130.926816 291.486528 
L 131.133813 291.486528 
L 131.133813 290.912876 
L 131.338382 290.912876 
L 131.338382 290.339224 
L 131.740458 290.339224 
L 131.740458 289.765573 
L 132.230358 289.765573 
L 132.230358 289.191921 
L 132.470242 289.191921 
L 132.470242 288.618269 
L 132.612604 288.618269 
L 132.612604 288.044617 
L 133.622529 288.044617 
L 133.711505 286.897314 
L 134.019394 286.897314 
L 134.062938 285.75001 
L 134.149701 285.75001 
L 134.149701 285.176359 
L 134.61933 285.176359 
L 134.61933 283.455404 
L 135.199312 283.455404 
L 135.199312 282.881752 
L 135.482227 282.881752 
L 135.482227 282.3081 
L 135.878591 282.3081 
L 135.878591 281.734448 
L 135.995765 281.734448 
L 135.995765 281.160797 
L 136.418789 281.160797 
L 136.418789 280.587145 
L 136.720123 280.587145 
L 136.720123 280.013493 
L 136.979586 280.013493 
L 136.979586 279.439842 
L 137.198951 279.439842 
L 137.198951 278.86619 
L 137.805906 278.86619 
L 137.805906 278.292538 
L 138.256201 278.292538 
L 138.358484 277.145235 
L 138.959898 277.145235 
L 138.959898 276.571583 
L 139.155847 276.571583 
L 139.253002 275.42428 
L 139.413734 275.42428 
L 139.445704 273.703324 
L 140.042245 273.703324 
L 140.134598 271.982369 
L 140.165274 271.982369 
L 140.165274 270.835066 
L 140.469102 270.835066 
L 140.559227 269.687762 
L 140.678675 269.687762 
L 140.767727 268.540459 
L 140.973763 268.540459 
L 141.002999 266.245852 
L 141.235139 266.245852 
L 141.263941 264.524897 
L 141.435758 264.524897 
L 141.46423 262.803942 
L 141.634094 262.803942 
L 141.71841 261.656638 
L 142.161336 261.656638 
L 142.161336 261.082987 
L 142.405626 261.082987 
L 142.405626 260.509335 
L 142.566605 260.509335 
L 142.566605 259.935683 
L 142.778958 259.935683 
L 142.778958 259.362031 
L 144.438701 259.362031 
L 144.438701 258.78838 
L 144.888619 258.78838 
L 144.91198 257.641076 
L 145.143889 257.641076 
L 145.143889 257.067425 
L 145.531191 257.067425 
L 145.531191 256.493773 
L 145.688202 256.493773 
L 145.688202 255.920121 
L 145.998045 255.920121 
L 146.019967 254.772818 
L 146.259313 254.772818 
L 146.367029 253.625514 
L 146.791364 253.625514 
L 146.791364 253.051863 
L 146.999721 253.051863 
L 146.999721 252.478211 
L 147.650212 252.478211 
L 147.650212 251.904559 
L 148.044783 251.904559 
L 148.044783 251.330907 
L 148.373289 251.330907 
L 148.373289 250.757256 
L 148.770728 250.757256 
L 148.770728 250.183604 
L 148.901221 250.183604 
L 148.901221 249.609952 
L 150.682827 249.609952 
L 150.682827 249.036301 
L 151.581536 249.036301 
L 151.581536 248.462649 
L 152.068392 248.462649 
L 152.068392 247.888997 
L 152.299175 247.888997 
L 152.314453 246.741694 
L 152.481628 246.741694 
L 152.55709 245.59439 
L 153.13475 245.59439 
L 153.13475 245.020738 
L 153.323128 245.020738 
L 153.323128 244.447087 
L 153.452361 244.447087 
L 153.452361 243.873435 
L 154.015422 243.873435 
L 154.015422 243.299783 
L 154.276638 243.299783 
L 154.385464 241.005176 
L 154.480132 241.005176 
L 154.480132 240.431525 
L 155.050658 240.431525 
L 155.089774 239.284221 
L 155.386785 239.284221 
L 155.399584 238.136918 
L 155.729115 238.136918 
L 155.741666 236.415963 
L 156.658127 236.415963 
L 156.717545 234.695008 
L 156.906335 234.695008 
L 156.906335 234.121356 
L 157.596634 234.121356 
L 157.596634 233.547704 
L 157.9318 233.547704 
L 157.9318 232.974052 
L 158.249784 232.974052 
L 158.325678 231.826749 
L 158.476481 231.826749 
L 158.476481 231.253097 
L 159.17036 231.253097 
L 159.17036 230.679446 
L 160.162007 230.679446 
L 160.162007 230.105794 
L 160.802491 230.105794 
L 160.839995 228.95849 
L 161.283861 228.95849 
L 161.283861 228.384839 
L 161.7078 228.384839 
L 161.7078 227.811187 
L 163.152289 227.811187 
L 163.16049 226.663884 
L 163.914652 226.663884 
L 163.969529 225.51658 
L 164.094319 225.51658 
L 164.094319 224.942928 
L 164.493826 224.942928 
L 164.493826 224.369277 
L 164.667654 224.369277 
L 164.705214 223.221973 
L 164.84721 223.221973 
L 164.906654 222.07467 
L 165.208163 222.07467 
L 165.208163 221.501018 
L 167.634096 221.501018 
L 167.634096 220.927366 
L 168.941432 220.927366 
L 169.00019 219.780063 
L 169.122941 219.780063 
L 169.122941 219.206411 
L 169.371623 219.206411 
L 169.371623 218.632759 
L 169.611146 218.632759 
L 169.611146 218.059108 
L 170.119095 218.059108 
L 170.119095 217.485456 
L 170.516139 217.485456 
L 170.516139 216.911804 
L 170.692701 216.911804 
L 170.692701 216.338153 
L 170.899085 216.338153 
L 170.97258 214.617197 
L 171.580031 214.617197 
L 171.580031 214.043546 
L 172.616138 214.043546 
L 172.616138 213.469894 
L 172.758578 213.469894 
L 172.758578 212.896242 
L 173.086481 212.896242 
L 173.086481 212.322591 
L 174.065485 212.322591 
L 174.065485 211.748939 
L 175.508892 211.748939 
L 175.541172 210.601635 
L 177.376165 210.601635 
L 177.376165 210.027984 
L 178.322496 210.027984 
L 178.322496 209.454332 
L 180.600418 209.454332 
L 180.600418 208.88068 
L 181.899054 208.88068 
L 181.899054 208.307029 
L 182.174044 208.307029 
L 182.174044 207.733377 
L 183.00022 207.733377 
L 183.00022 207.159725 
L 185.2901 207.159725 
L 185.2901 206.586073 
L 185.713637 206.586073 
L 185.713637 206.012422 
L 188.591775 206.012422 
L 188.591775 205.43877 
L 190.875107 205.43877 
L 190.875107 204.865118 
L 195.753478 204.865118 
L 195.753478 204.291467 
L 196.038294 204.291467 
L 196.038294 203.717815 
L 197.505547 203.717815 
L 197.505547 203.144163 
L 202.353518 203.144163 
L 202.353518 202.570511 
L 202.647345 202.570511 
L 202.647345 201.99686 
L 205.54852 201.99686 
L 205.54852 201.423208 
L 338.688 201.423208 
L 338.688 201.423208 
" style="fill:none;stroke:#ff7500;stroke-linecap:square;stroke-width:1.5;"/>
   </g>
   <g id="line2d_41">
    <defs>
     <path d="M 0 -6 
L -1.347084 -1.854102 
L -5.706339 -1.854102 
L -2.179628 0.708204 
L -3.526712 4.854102 
L -0 2.291796 
L 3.526712 4.854102 
L 2.179628 0.708204 
L 5.706339 -1.854102 
L 1.347084 -1.854102 
z
" id="m9e73c938c1" style="stroke:#ff7500;stroke-linejoin:bevel;stroke-width:1.5;"/>
    </defs>
    <g>
     <use style="fill-opacity:0;stroke:#ff7500;stroke-linejoin:bevel;stroke-width:1.5;" x="181.899054" xlink:href="#m9e73c938c1" y="208.307029"/>
     <use style="fill-opacity:0;stroke:#ff7500;stroke-linejoin:bevel;stroke-width:1.5;" x="205.54852" xlink:href="#m9e73c938c1" y="201.99686"/>
     <use style="fill-opacity:0;stroke:#ff7500;stroke-linejoin:bevel;stroke-width:1.5;" x="205.54852" xlink:href="#m9e73c938c1" y="201.423208"/>
     <use style="fill-opacity:0;stroke:#ff7500;stroke-linejoin:bevel;stroke-width:1.5;" x="205.54852" xlink:href="#m9e73c938c1" y="201.423208"/>
     <use style="fill-opacity:0;stroke:#ff7500;stroke-linejoin:bevel;stroke-width:1.5;" x="338.688" xlink:href="#m9e73c938c1" y="201.423208"/>
    </g>
   </g>
   <g id="line2d_42">
    <path style="fill:none;stroke:#ff7500;stroke-linecap:square;stroke-width:1.5;"/>
    <g/>
   </g>
   <g id="line2d_43">
    <path clip-path="url(#pbe8803d63d)" d="M 144.724207 258.78838 
" style="fill:none;stroke:#ff7500;stroke-linecap:square;stroke-width:1.5;"/>
    <defs>
     <path d="M -12 12 
L 12 -12 
M -12 -12 
L 12 12 
" id="m683b7df37f" style="stroke:#ff7500;"/>
    </defs>
    <g clip-path="url(#pbe8803d63d)">
     <use style="fill:#ff7500;stroke:#ff7500;" x="144.724207" xlink:href="#m683b7df37f" y="258.78838"/>
    </g>
   </g>
   <g id="line2d_44">
    <defs>
     <path d="M 0 1.5 
C 0.397805 1.5 0.77937 1.341951 1.06066 1.06066 
C 1.341951 0.77937 1.5 0.397805 1.5 0 
C 1.5 -0.397805 1.341951 -0.77937 1.06066 -1.06066 
C 0.77937 -1.341951 0.397805 -1.5 0 -1.5 
C -0.397805 -1.5 -0.77937 -1.341951 -1.06066 -1.06066 
C -1.341951 -0.77937 -1.5 -0.397805 -1.5 0 
C -1.5 0.397805 -1.341951 0.77937 -1.06066 1.06066 
C -0.77937 1.341951 -0.397805 1.5 0 1.5 
z
" id="m54b550b192" style="stroke:#6495ed;"/>
    </defs>
    <g>
     <use style="fill:#6495ed;stroke:#6495ed;" x="204.773378" xlink:href="#m54b550b192" y="6.381624"/>
     <use style="fill:#6495ed;stroke:#6495ed;" x="204.773378" xlink:href="#m54b550b192" y="6.381624"/>
    </g>
   </g>
   <g id="line2d_45">
    <path d="M 29.53256 298.944 
L 29.53256 281.734448 
L 89.418828 281.734448 
L 89.418828 281.160797 
L 89.972502 281.160797 
L 89.972502 280.587145 
L 90.509138 280.587145 
L 90.509138 276.571583 
L 91.535274 276.571583 
L 91.535274 275.997931 
L 98.43941 275.997931 
L 98.43941 275.42428 
L 98.771596 275.42428 
L 98.771596 274.850628 
L 99.41757 274.850628 
L 99.41757 274.276976 
L 99.731799 274.276976 
L 99.731799 273.129673 
L 110.188761 273.129673 
L 110.188761 272.556021 
L 110.527398 272.556021 
L 110.527398 271.982369 
L 110.694282 271.982369 
L 110.694282 271.408718 
L 111.023335 271.408718 
L 111.023335 270.835066 
L 111.505558 270.835066 
L 111.505558 270.261414 
L 111.819788 270.261414 
L 111.819788 269.687762 
L 112.280765 269.687762 
L 112.280765 268.540459 
L 113.022974 268.540459 
L 113.022974 267.966807 
L 114.148479 267.966807 
L 114.148479 267.393156 
L 114.418861 267.393156 
L 114.418861 266.245852 
L 114.816733 266.245852 
L 114.816733 265.6722 
L 115.460322 265.6722 
L 115.460322 265.098549 
L 115.586238 265.098549 
L 115.586238 264.524897 
L 119.097192 264.524897 
L 119.097192 263.951245 
L 119.702083 263.951245 
L 119.80089 262.803942 
L 120.759333 262.803942 
L 120.759333 262.23029 
L 121.036887 262.23029 
L 121.036887 261.656638 
L 121.310093 261.656638 
L 121.400219 260.509335 
L 121.579085 260.509335 
L 121.579085 259.935683 
L 122.362027 259.935683 
L 122.362027 259.362031 
L 122.615387 259.362031 
L 122.699028 258.214728 
L 122.947573 258.214728 
L 123.029641 257.067425 
L 123.354102 257.067425 
L 123.354102 256.493773 
L 123.593547 256.493773 
L 123.593547 255.920121 
L 124.062793 255.920121 
L 124.062793 255.346469 
L 124.519744 255.346469 
L 124.519744 254.772818 
L 124.891598 254.772818 
L 124.891598 254.199166 
L 125.399222 254.199166 
L 125.399222 253.625514 
L 126.839037 253.625514 
L 126.839037 253.051863 
L 126.97016 253.051863 
L 126.97016 252.478211 
L 127.100304 252.478211 
L 127.165014 251.330907 
L 128.046609 251.330907 
L 128.046609 250.757256 
L 128.944197 250.757256 
L 128.944197 250.183604 
L 129.118302 250.183604 
L 129.118302 249.609952 
L 129.290685 249.609952 
L 129.290685 248.462649 
L 130.018593 248.462649 
L 130.127931 247.315345 
L 130.45189 247.315345 
L 130.45189 246.741694 
L 130.822389 246.741694 
L 130.822389 246.168042 
L 130.978796 246.168042 
L 131.082294 245.020738 
L 131.287464 245.020738 
L 131.287464 244.447087 
L 131.790072 244.447087 
L 131.790072 243.873435 
L 132.278599 243.873435 
L 132.278599 243.299783 
L 133.032848 243.299783 
L 133.032848 242.726132 
L 133.57787 242.726132 
L 133.667073 241.578828 
L 133.931979 241.578828 
L 133.931979 241.005176 
L 134.236034 241.005176 
L 134.236034 240.431525 
L 134.450015 240.431525 
L 134.450015 239.857873 
L 135.035562 239.857873 
L 135.035562 239.284221 
L 135.760625 239.284221 
L 135.760625 238.71057 
L 136.189322 238.71057 
L 136.189322 238.136918 
L 139.604677 238.136918 
L 139.604677 237.563266 
L 140.469102 237.563266 
L 140.469102 236.989614 
L 140.589166 236.989614 
L 140.589166 236.415963 
L 141.20629 236.415963 
L 141.20629 235.842311 
L 141.435758 235.842311 
L 141.435758 235.268659 
L 141.71841 235.268659 
L 141.71841 234.695008 
L 141.885829 234.695008 
L 141.885829 234.121356 
L 142.884173 234.121356 
L 142.910378 232.974052 
L 143.324386 232.974052 
L 143.324386 232.400401 
L 143.47714 232.400401 
L 143.47714 231.826749 
L 143.728793 231.826749 
L 143.728793 231.253097 
L 144.124035 231.253097 
L 144.124035 230.679446 
L 144.269971 230.679446 
L 144.269971 230.105794 
L 144.390658 230.105794 
L 144.486611 227.811187 
L 144.605813 227.811187 
L 144.700592 226.090232 
L 144.841802 226.090232 
L 144.841802 225.51658 
L 144.958609 225.51658 
L 144.981877 223.795625 
L 145.074639 223.795625 
L 145.143889 222.07467 
L 145.258697 222.07467 
L 145.304409 220.353715 
L 145.418169 220.353715 
L 145.48607 219.206411 
L 145.531191 219.206411 
L 145.621085 217.485456 
L 145.643486 217.485456 
L 145.643486 216.911804 
L 145.821666 216.911804 
L 145.932112 215.764501 
L 146.019967 215.764501 
L 146.08557 214.043546 
L 146.216039 214.043546 
L 146.259313 212.322591 
L 146.431341 212.322591 
L 146.495417 210.027984 
L 146.728368 210.027984 
L 146.77039 208.307029 
L 146.875005 208.307029 
L 146.895853 207.159725 
L 147.02042 207.159725 
L 147.12355 206.012422 
L 147.164632 206.012422 
L 147.164632 205.43877 
L 147.327999 205.43877 
L 147.368603 203.144163 
L 147.48985 203.144163 
L 147.570215 201.99686 
L 147.650212 201.99686 
L 147.749695 199.702253 
L 147.78933 199.702253 
L 147.809113 198.554949 
L 148.1808 198.554949 
L 148.27731 197.407646 
L 148.334961 197.407646 
L 148.430623 195.686691 
L 148.620389 195.686691 
L 148.620389 195.113039 
L 148.770728 195.113039 
L 148.78943 193.392084 
L 148.938326 193.392084 
L 149.049169 192.24478 
L 149.085961 192.24478 
L 149.085961 191.671129 
L 149.268764 191.671129 
L 149.377533 189.950174 
L 149.593058 189.950174 
L 149.628721 188.80287 
L 149.823575 188.80287 
L 149.823575 188.229218 
L 149.998846 188.229218 
L 149.998846 187.655567 
L 150.699587 187.655567 
L 150.699587 187.081915 
L 151.080698 187.081915 
L 151.080698 186.508263 
L 151.292481 186.508263 
L 151.292481 185.934612 
L 151.469695 185.934612 
L 151.469695 185.36096 
L 151.597455 185.36096 
L 151.61336 184.213656 
L 152.222586 184.213656 
L 152.222586 183.640005 
L 152.405838 183.640005 
L 152.496747 180.771746 
L 152.526944 180.771746 
L 152.526944 180.198094 
L 152.707042 180.198094 
L 152.721966 178.477139 
L 152.855715 178.477139 
L 152.959038 177.329836 
L 152.973748 177.329836 
L 152.973748 176.756184 
L 153.13475 176.756184 
L 153.178403 175.608881 
L 153.323128 175.608881 
L 153.323128 175.035229 
L 153.438049 175.035229 
L 153.438049 174.461577 
L 153.609024 174.461577 
L 153.609024 173.887925 
L 153.722083 173.887925 
L 153.778339 172.740622 
L 153.890309 172.740622 
L 153.987696 170.446015 
L 154.098334 170.446015 
L 154.153391 168.72506 
L 154.276638 168.72506 
L 154.385464 167.577757 
L 154.426099 167.577757 
L 154.507086 165.28315 
L 154.707925 165.28315 
L 154.8141 163.562195 
L 154.85375 163.562195 
L 154.85375 162.988543 
L 154.985269 162.988543 
L 155.024532 161.841239 
L 155.271165 161.841239 
L 155.373976 159.546632 
L 155.514359 159.546632 
L 155.539762 158.399329 
L 155.82927 158.399329 
L 155.928852 157.252026 
L 156.052535 157.252026 
L 156.126326 154.957419 
L 156.248622 154.957419 
L 156.357959 153.236464 
L 156.835778 153.236464 
L 156.835778 152.662812 
L 156.976607 152.662812 
L 157.081488 151.515508 
L 157.346685 151.515508 
L 157.346685 150.368205 
L 157.976006 150.368205 
L 157.976006 149.794553 
L 158.358103 149.794553 
L 158.379686 148.64725 
L 158.508628 148.64725 
L 158.604712 146.352643 
L 158.742573 146.352643 
L 158.795307 145.20534 
L 158.9003 145.20534 
L 158.962994 144.058036 
L 159.056614 144.058036 
L 159.098062 141.189778 
L 159.283369 141.189778 
L 159.324282 140.042474 
L 159.436301 140.042474 
L 159.436301 139.468822 
L 159.547605 139.468822 
L 159.547605 138.321519 
L 159.668223 138.321519 
L 159.668223 137.747867 
L 159.916863 137.747867 
L 159.995685 136.600564 
L 160.132771 136.600564 
L 160.230035 134.879609 
L 160.249422 134.879609 
L 160.288133 133.732305 
L 160.442124 133.732305 
L 160.489968 132.585002 
L 160.585265 132.585002 
L 160.689494 131.437698 
L 160.717812 131.437698 
L 160.811875 129.716743 
L 160.952025 129.716743 
L 161.007772 127.995788 
L 161.109513 127.995788 
L 161.210663 125.127529 
L 161.256448 125.127529 
L 161.256448 124.553878 
L 161.411222 124.553878 
L 161.411222 123.980226 
L 161.546656 123.980226 
L 161.654251 122.832923 
L 161.955547 122.832923 
L 161.955547 122.259271 
L 162.423627 122.259271 
L 162.474869 121.111967 
L 162.929393 121.111967 
L 162.929393 120.538316 
L 163.193255 120.538316 
L 163.291183 118.817361 
L 163.307451 118.817361 
L 163.36427 117.096405 
L 163.437051 117.096405 
L 163.437051 116.522754 
L 163.549667 116.522754 
L 163.565696 115.37545 
L 163.780654 115.37545 
L 163.875347 113.080843 
L 163.938192 113.080843 
L 163.992995 111.93354 
L 164.256762 111.93354 
L 164.348911 110.212585 
L 164.425332 110.212585 
L 164.516598 107.917978 
L 164.6902 107.917978 
L 164.780093 106.770674 
L 165.017568 106.770674 
L 165.017568 106.197023 
L 165.14974 106.197023 
L 165.200871 105.049719 
L 165.309935 105.049719 
L 165.403908 103.902416 
L 165.461488 103.902416 
L 165.461488 103.328764 
L 165.597481 103.328764 
L 165.668633 102.181461 
L 165.753633 102.181461 
L 165.753633 101.607809 
L 165.992243 101.607809 
L 165.992243 101.034157 
L 166.151824 101.034157 
L 166.151824 100.460506 
L 166.275702 100.460506 
L 166.275702 99.886854 
L 166.487008 99.886854 
L 166.574863 98.73955 
L 166.862349 98.73955 
L 166.862349 98.165899 
L 166.994465 98.165899 
L 166.994465 97.592247 
L 167.229781 97.592247 
L 167.288118 96.444944 
L 167.417059 96.444944 
L 167.417059 95.871292 
L 167.545055 95.871292 
L 167.608702 94.150337 
L 167.760513 94.150337 
L 167.76681 93.003033 
L 167.935973 93.003033 
L 168.010633 91.85573 
L 168.159001 91.85573 
L 168.251094 90.134775 
L 168.476198 90.134775 
L 168.560621 88.987471 
L 168.614678 88.987471 
L 168.614678 88.413819 
L 168.758015 88.413819 
L 168.758015 87.840168 
L 168.906082 87.840168 
L 168.917874 86.692864 
L 169.169476 86.692864 
L 169.169476 86.119213 
L 169.76902 86.119213 
L 169.853011 83.824606 
L 169.880918 83.824606 
L 169.98656 82.677302 
L 170.003182 82.677302 
L 170.080543 80.956347 
L 170.141087 80.956347 
L 170.141087 80.382695 
L 170.354063 80.382695 
L 170.37576 79.235392 
L 170.543006 79.235392 
L 170.543006 78.66174 
L 170.713981 78.66174 
L 170.713981 78.088089 
L 170.878029 78.088089 
L 170.878029 77.514437 
L 171.139414 77.514437 
L 171.2274 76.367133 
L 171.437793 76.367133 
L 171.54458 75.21983 
L 171.559782 75.21983 
L 171.559782 74.646178 
L 171.970255 74.646178 
L 172.03938 72.925223 
L 172.152351 72.925223 
L 172.152351 72.351571 
L 172.42439 72.351571 
L 172.491742 70.630616 
L 172.61137 70.630616 
L 172.69225 68.909661 
L 172.83878 68.909661 
L 172.937347 66.615054 
L 173.100398 66.615054 
L 173.100398 66.041402 
L 173.294067 66.041402 
L 173.38554 64.894099 
L 173.476535 64.894099 
L 173.476535 64.320447 
L 173.625648 64.320447 
L 173.728826 63.173144 
L 173.737769 63.173144 
L 173.786875 62.02584 
L 173.933369 62.02584 
L 173.933369 61.452189 
L 174.605444 61.452189 
L 174.630946 59.731234 
L 174.804221 59.731234 
L 174.867186 58.010278 
L 174.929925 58.010278 
L 175.021535 56.289323 
L 175.170413 56.289323 
L 175.215651 54.568368 
L 175.395439 54.568368 
L 175.456309 53.421065 
L 175.58546 53.421065 
L 175.58546 52.847413 
L 175.896315 52.847413 
L 175.908161 51.700109 
L 176.065343 51.700109 
L 176.065343 51.126458 
L 176.209486 51.126458 
L 176.209486 50.552806 
L 176.819447 50.552806 
L 176.819447 49.979154 
L 177.116609 49.979154 
L 177.164423 48.831851 
L 177.252352 48.831851 
L 177.336204 47.684547 
L 177.40517 47.684547 
L 177.48108 46.537244 
L 177.656927 46.537244 
L 177.724639 45.389941 
L 178.055819 45.389941 
L 178.055819 44.816289 
L 178.198323 44.816289 
L 178.305302 43.095334 
L 178.332804 43.095334 
L 178.401368 41.374379 
L 178.527505 41.374379 
L 178.527505 40.800727 
L 178.810529 40.800727 
L 178.810529 40.227075 
L 178.986769 40.227075 
L 178.986769 39.653423 
L 179.447142 39.653423 
L 179.546749 37.932468 
L 179.671259 37.932468 
L 179.747441 36.785165 
L 180.070661 36.785165 
L 180.070661 36.211513 
L 180.203845 36.211513 
L 180.274668 35.06421 
L 180.317637 35.06421 
L 180.317637 34.490558 
L 180.455039 34.490558 
L 180.455039 33.916906 
L 180.630553 33.916906 
L 180.663642 32.769603 
L 180.917233 32.769603 
L 180.917233 32.195951 
L 181.140892 32.195951 
L 181.167189 31.048648 
L 181.312565 31.048648 
L 181.396332 29.901344 
L 181.599733 29.901344 
L 181.599733 29.327692 
L 182.021808 29.327692 
L 182.021808 28.754041 
L 182.185064 28.754041 
L 182.185064 28.180389 
L 182.53138 28.180389 
L 182.566445 27.033086 
L 182.66586 27.033086 
L 182.719363 25.885782 
L 182.860357 25.885782 
L 182.865655 24.738479 
L 182.987073 24.738479 
L 183.055329 23.017524 
L 183.954039 23.017524 
L 183.954039 22.443872 
L 184.124904 22.443872 
L 184.124904 21.87022 
L 184.298992 21.87022 
L 184.298992 21.296568 
L 185.230068 21.296568 
L 185.230068 20.722917 
L 185.664074 20.722917 
L 185.664074 20.149265 
L 186.271529 20.149265 
L 186.271529 19.575613 
L 186.984481 19.575613 
L 187.063779 18.42831 
L 187.623113 18.42831 
L 187.623113 17.854658 
L 188.724784 17.854658 
L 188.792796 16.133703 
L 189.119681 16.133703 
L 189.119681 15.560051 
L 189.482287 15.560051 
L 189.482287 14.9864 
L 190.194338 14.9864 
L 190.301882 13.839096 
L 191.121016 13.839096 
L 191.121016 13.265444 
L 191.554454 13.265444 
L 191.554454 12.691793 
L 192.242396 12.691793 
L 192.321122 11.544489 
L 192.411755 11.544489 
L 192.411755 10.970838 
L 194.119524 10.970838 
L 194.119524 10.397186 
L 194.789981 10.397186 
L 194.789981 9.823534 
L 195.598461 9.823534 
L 195.598461 9.249882 
L 195.965963 9.249882 
L 195.965963 8.676231 
L 198.632983 8.676231 
L 198.632983 8.102579 
L 199.126765 8.102579 
L 199.126765 7.528927 
L 199.488903 7.528927 
L 199.488903 6.955275 
L 204.773378 6.955275 
L 204.773378 6.381624 
L 338.688 6.381624 
L 338.688 6.381624 
" style="fill:none;stroke:#6495ed;stroke-linecap:square;stroke-width:1.5;"/>
   </g>
   <g id="line2d_46">
    <defs>
     <path d="M -0 6 
L 6 -6 
L -6 -6 
z
" id="m8e21d1022b" style="stroke:#6495ed;stroke-linejoin:miter;stroke-width:1.5;"/>
    </defs>
    <g>
     <use style="fill-opacity:0;stroke:#6495ed;stroke-linejoin:miter;stroke-width:1.5;" x="91.535274" xlink:href="#m8e21d1022b" y="275.997931"/>
     <use style="fill-opacity:0;stroke:#6495ed;stroke-linejoin:miter;stroke-width:1.5;" x="156.114049" xlink:href="#m8e21d1022b" y="155.53107"/>
     <use style="fill-opacity:0;stroke:#6495ed;stroke-linejoin:miter;stroke-width:1.5;" x="189.482287" xlink:href="#m8e21d1022b" y="15.560051"/>
     <use style="fill-opacity:0;stroke:#6495ed;stroke-linejoin:miter;stroke-width:1.5;" x="204.773378" xlink:href="#m8e21d1022b" y="6.381624"/>
     <use style="fill-opacity:0;stroke:#6495ed;stroke-linejoin:miter;stroke-width:1.5;" x="204.773378" xlink:href="#m8e21d1022b" y="6.381624"/>
     <use style="fill-opacity:0;stroke:#6495ed;stroke-linejoin:miter;stroke-width:1.5;" x="338.688" xlink:href="#m8e21d1022b" y="6.381624"/>
    </g>
   </g>
   <g id="line2d_47">
    <path style="fill:none;stroke:#6495ed;stroke-linecap:square;stroke-width:1.5;"/>
    <g/>
   </g>
   <g id="line2d_48">
    <path clip-path="url(#pbe8803d63d)" d="M 137.469333 238.136918 
" style="fill:none;stroke:#6495ed;stroke-linecap:square;stroke-width:1.5;"/>
    <defs>
     <path d="M -12 12 
L 12 -12 
M -12 -12 
L 12 12 
" id="mbb6ab945e0" style="stroke:#6495ed;"/>
    </defs>
    <g clip-path="url(#pbe8803d63d)">
     <use style="fill:#6495ed;stroke:#6495ed;" x="137.469333" xlink:href="#mbb6ab945e0" y="238.136918"/>
    </g>
   </g>
   <g id="line2d_49">
    <path d="M 338.688 270.261414 
L 369.60768 293.092752 
" style="fill:none;stroke:#ff00ff;stroke-linecap:square;stroke-width:1.5;"/>
    <g>
     <use style="fill-opacity:0;stroke:#ff00ff;stroke-linejoin:miter;stroke-width:1.5;" x="338.688" xlink:href="#md70767c12f" y="270.261414"/>
     <use style="fill-opacity:0;stroke:#ff00ff;stroke-linejoin:miter;stroke-width:1.5;" x="369.60768" xlink:href="#md70767c12f" y="293.092752"/>
    </g>
   </g>
   <g id="line2d_50">
    <path d="M 338.688 253.051863 
L 369.60768 199.472792 
" style="fill:none;stroke:#000080;stroke-linecap:square;stroke-width:1.5;"/>
    <g>
     <use style="fill-opacity:0;stroke:#000080;stroke-width:1.5;" x="338.688" xlink:href="#md8320b2252" y="253.051863"/>
     <use style="fill-opacity:0;stroke:#000080;stroke-width:1.5;" x="369.60768" xlink:href="#md8320b2252" y="199.472792"/>
    </g>
   </g>
   <g id="line2d_51">
    <path d="M 338.688 201.423208 
L 369.60768 105.852832 
" style="fill:none;stroke:#ff7500;stroke-linecap:square;stroke-width:1.5;"/>
    <g>
     <use style="fill-opacity:0;stroke:#ff7500;stroke-linejoin:bevel;stroke-width:1.5;" x="338.688" xlink:href="#m9e73c938c1" y="201.423208"/>
     <use style="fill-opacity:0;stroke:#ff7500;stroke-linejoin:bevel;stroke-width:1.5;" x="369.60768" xlink:href="#m9e73c938c1" y="105.852832"/>
    </g>
   </g>
   <g id="line2d_52">
    <path d="M 338.688 6.381624 
L 369.60768 12.232871 
" style="fill:none;stroke:#6495ed;stroke-linecap:square;stroke-width:1.5;"/>
    <g>
     <use style="fill-opacity:0;stroke:#6495ed;stroke-linejoin:miter;stroke-width:1.5;" x="338.688" xlink:href="#m8e21d1022b" y="6.381624"/>
     <use style="fill-opacity:0;stroke:#6495ed;stroke-linejoin:miter;stroke-width:1.5;" x="369.60768" xlink:href="#m8e21d1022b" y="12.232871"/>
    </g>
   </g>
   <g id="line2d_53">
    <path d="M 338.688 298.944 
L 338.688 6.381624 
" style="fill:none;stroke:#000000;stroke-linecap:square;stroke-width:1.5;"/>
   </g>
   <g id="patch_3">
    <path d="M 57.6 298.944 
L 57.6 3.456 
" style="fill:none;stroke:#000000;stroke-linecap:square;stroke-linejoin:miter;stroke-width:0.8;"/>
   </g>
   <g id="patch_4">
    <path d="M 338.688 298.944 
L 338.688 3.456 
" style="fill:none;stroke:#000000;stroke-linecap:square;stroke-linejoin:miter;stroke-width:0.8;"/>
   </g>
   <g id="patch_5">
    <path d="M 57.6 298.944 
L 338.688 298.944 
" style="fill:none;stroke:#000000;stroke-linecap:square;stroke-linejoin:miter;stroke-width:0.8;"/>
   </g>
   <g id="patch_6">
    <path d="M 57.6 3.456 
L 338.688 3.456 
" style="fill:none;stroke:#000000;stroke-linecap:square;stroke-linejoin:miter;stroke-width:0.8;"/>
   </g>
   <g id="text_13">
    <!-- f7 -->
    <g transform="translate(375.22944 297.78369)scale(0.17 -0.17)">
     <defs>
      <path d="M 8.203125 72.90625 
L 55.078125 72.90625 
L 55.078125 68.703125 
L 28.609375 0 
L 18.3125 0 
L 43.21875 64.59375 
L 8.203125 64.59375 
z
" id="DejaVuSans-55"/>
     </defs>
     <use xlink:href="#DejaVuSans-102"/>
     <use x="35.205078" xlink:href="#DejaVuSans-55"/>
    </g>
   </g>
   <g id="text_14">
    <!-- f6 -->
    <g transform="translate(375.22944 204.16373)scale(0.17 -0.17)">
     <use xlink:href="#DejaVuSans-102"/>
     <use x="35.205078" xlink:href="#DejaVuSans-54"/>
    </g>
   </g>
   <g id="text_15">
    <!-- f8 -->
    <g transform="translate(375.22944 110.543769)scale(0.17 -0.17)">
     <use xlink:href="#DejaVuSans-102"/>
     <use x="35.205078" xlink:href="#DejaVuSans-56"/>
    </g>
   </g>
   <g id="text_16">
    <!-- f9 -->
    <g transform="translate(375.22944 16.923809)scale(0.17 -0.17)">
     <defs>
      <path d="M 10.984375 1.515625 
L 10.984375 10.5 
Q 14.703125 8.734375 18.5 7.8125 
Q 22.3125 6.890625 25.984375 6.890625 
Q 35.75 6.890625 40.890625 13.453125 
Q 46.046875 20.015625 46.78125 33.40625 
Q 43.953125 29.203125 39.59375 26.953125 
Q 35.25 24.703125 29.984375 24.703125 
Q 19.046875 24.703125 12.671875 31.3125 
Q 6.296875 37.9375 6.296875 49.421875 
Q 6.296875 60.640625 12.9375 67.421875 
Q 19.578125 74.21875 30.609375 74.21875 
Q 43.265625 74.21875 49.921875 64.515625 
Q 56.59375 54.828125 56.59375 36.375 
Q 56.59375 19.140625 48.40625 8.859375 
Q 40.234375 -1.421875 26.421875 -1.421875 
Q 22.703125 -1.421875 18.890625 -0.6875 
Q 15.09375 0.046875 10.984375 1.515625 
z
M 30.609375 32.421875 
Q 37.25 32.421875 41.125 36.953125 
Q 45.015625 41.5 45.015625 49.421875 
Q 45.015625 57.28125 41.125 61.84375 
Q 37.25 66.40625 30.609375 66.40625 
Q 23.96875 66.40625 20.09375 61.84375 
Q 16.21875 57.28125 16.21875 49.421875 
Q 16.21875 41.5 20.09375 36.953125 
Q 23.96875 32.421875 30.609375 32.421875 
z
" id="DejaVuSans-57"/>
     </defs>
     <use xlink:href="#DejaVuSans-102"/>
     <use x="35.205078" xlink:href="#DejaVuSans-57"/>
    </g>
   </g>
   <g id="text_17">
    <!-- bbob -->
    <g transform="translate(60.41088 14.161286)scale(0.102 -0.102)">
     <defs>
      <path d="M 48.6875 27.296875 
Q 48.6875 37.203125 44.609375 42.84375 
Q 40.53125 48.484375 33.40625 48.484375 
Q 26.265625 48.484375 22.1875 42.84375 
Q 18.109375 37.203125 18.109375 27.296875 
Q 18.109375 17.390625 22.1875 11.75 
Q 26.265625 6.109375 33.40625 6.109375 
Q 40.53125 6.109375 44.609375 11.75 
Q 48.6875 17.390625 48.6875 27.296875 
z
M 18.109375 46.390625 
Q 20.953125 51.265625 25.265625 53.625 
Q 29.59375 56 35.59375 56 
Q 45.5625 56 51.78125 48.09375 
Q 58.015625 40.1875 58.015625 27.296875 
Q 58.015625 14.40625 51.78125 6.484375 
Q 45.5625 -1.421875 35.59375 -1.421875 
Q 29.59375 -1.421875 25.265625 0.953125 
Q 20.953125 3.328125 18.109375 8.203125 
L 18.109375 0 
L 9.078125 0 
L 9.078125 75.984375 
L 18.109375 75.984375 
z
" id="DejaVuSans-98"/>
     </defs>
     <use xlink:href="#DejaVuSans-98"/>
     <use x="63.476562" xlink:href="#DejaVuSans-98"/>
     <use x="126.953125" xlink:href="#DejaVuSans-111"/>
     <use x="188.134766" xlink:href="#DejaVuSans-98"/>
    </g>
    <!-- Misc. moderate functions, 5-D -->
    <g transform="translate(60.41088 25.583055)scale(0.102 -0.102)">
     <defs>
      <path d="M 9.8125 72.90625 
L 24.515625 72.90625 
L 43.109375 23.296875 
L 61.8125 72.90625 
L 76.515625 72.90625 
L 76.515625 0 
L 66.890625 0 
L 66.890625 64.015625 
L 48.09375 14.015625 
L 38.1875 14.015625 
L 19.390625 64.015625 
L 19.390625 0 
L 9.8125 0 
z
" id="DejaVuSans-77"/>
      <path d="M 10.796875 72.90625 
L 49.515625 72.90625 
L 49.515625 64.59375 
L 19.828125 64.59375 
L 19.828125 46.734375 
Q 21.96875 47.46875 24.109375 47.828125 
Q 26.265625 48.1875 28.421875 48.1875 
Q 40.625 48.1875 47.75 41.5 
Q 54.890625 34.8125 54.890625 23.390625 
Q 54.890625 11.625 47.5625 5.09375 
Q 40.234375 -1.421875 26.90625 -1.421875 
Q 22.3125 -1.421875 17.546875 -0.640625 
Q 12.796875 0.140625 7.71875 1.703125 
L 7.71875 11.625 
Q 12.109375 9.234375 16.796875 8.0625 
Q 21.484375 6.890625 26.703125 6.890625 
Q 35.15625 6.890625 40.078125 11.328125 
Q 45.015625 15.765625 45.015625 23.390625 
Q 45.015625 31 40.078125 35.4375 
Q 35.15625 39.890625 26.703125 39.890625 
Q 22.75 39.890625 18.8125 39.015625 
Q 14.890625 38.140625 10.796875 36.28125 
z
" id="DejaVuSans-53"/>
      <path d="M 19.671875 64.796875 
L 19.671875 8.109375 
L 31.59375 8.109375 
Q 46.6875 8.109375 53.6875 14.9375 
Q 60.6875 21.78125 60.6875 36.53125 
Q 60.6875 51.171875 53.6875 57.984375 
Q 46.6875 64.796875 31.59375 64.796875 
z
M 9.8125 72.90625 
L 30.078125 72.90625 
Q 51.265625 72.90625 61.171875 64.09375 
Q 71.09375 55.28125 71.09375 36.53125 
Q 71.09375 17.671875 61.125 8.828125 
Q 51.171875 0 30.078125 0 
L 9.8125 0 
z
" id="DejaVuSans-68"/>
     </defs>
     <use xlink:href="#DejaVuSans-77"/>
     <use x="86.279297" xlink:href="#DejaVuSans-105"/>
     <use x="114.0625" xlink:href="#DejaVuSans-115"/>
     <use x="166.162109" xlink:href="#DejaVuSans-99"/>
     <use x="221.142578" xlink:href="#DejaVuSans-46"/>
     <use x="252.929688" xlink:href="#DejaVuSans-32"/>
     <use x="284.716797" xlink:href="#DejaVuSans-109"/>
     <use x="382.128906" xlink:href="#DejaVuSans-111"/>
     <use x="443.310547" xlink:href="#DejaVuSans-100"/>
     <use x="506.787109" xlink:href="#DejaVuSans-101"/>
     <use x="568.310547" xlink:href="#DejaVuSans-114"/>
     <use x="609.423828" xlink:href="#DejaVuSans-97"/>
     <use x="670.703125" xlink:href="#DejaVuSans-116"/>
     <use x="709.912109" xlink:href="#DejaVuSans-101"/>
     <use x="771.435547" xlink:href="#DejaVuSans-32"/>
     <use x="803.222656" xlink:href="#DejaVuSans-102"/>
     <use x="838.427734" xlink:href="#DejaVuSans-117"/>
     <use x="901.806641" xlink:href="#DejaVuSans-110"/>
     <use x="965.185547" xlink:href="#DejaVuSans-99"/>
     <use x="1020.166016" xlink:href="#DejaVuSans-116"/>
     <use x="1059.375" xlink:href="#DejaVuSans-105"/>
     <use x="1087.158203" xlink:href="#DejaVuSans-111"/>
     <use x="1148.339844" xlink:href="#DejaVuSans-110"/>
     <use x="1211.71875" xlink:href="#DejaVuSans-115"/>
     <use x="1263.818359" xlink:href="#DejaVuSans-44"/>
     <use x="1295.605469" xlink:href="#DejaVuSans-32"/>
     <use x="1327.392578" xlink:href="#DejaVuSans-53"/>
     <use x="1391.015625" xlink:href="#DejaVuSans-45"/>
     <use x="1427.099609" xlink:href="#DejaVuSans-68"/>
    </g>
    <!-- 51 targets: 100..1e-08 -->
    <g transform="translate(60.41088 37.004824)scale(0.102 -0.102)">
     <defs>
      <path d="M 11.71875 12.40625 
L 22.015625 12.40625 
L 22.015625 0 
L 11.71875 0 
z
M 11.71875 51.703125 
L 22.015625 51.703125 
L 22.015625 39.3125 
L 11.71875 39.3125 
z
" id="DejaVuSans-58"/>
     </defs>
     <use xlink:href="#DejaVuSans-53"/>
     <use x="63.623047" xlink:href="#DejaVuSans-49"/>
     <use x="127.246094" xlink:href="#DejaVuSans-32"/>
     <use x="159.033203" xlink:href="#DejaVuSans-116"/>
     <use x="198.242188" xlink:href="#DejaVuSans-97"/>
     <use x="259.521484" xlink:href="#DejaVuSans-114"/>
     <use x="298.884766" xlink:href="#DejaVuSans-103"/>
     <use x="362.361328" xlink:href="#DejaVuSans-101"/>
     <use x="423.884766" xlink:href="#DejaVuSans-116"/>
     <use x="463.09375" xlink:href="#DejaVuSans-115"/>
     <use x="515.193359" xlink:href="#DejaVuSans-58"/>
     <use x="548.884766" xlink:href="#DejaVuSans-32"/>
     <use x="580.671875" xlink:href="#DejaVuSans-49"/>
     <use x="644.294922" xlink:href="#DejaVuSans-48"/>
     <use x="707.917969" xlink:href="#DejaVuSans-48"/>
     <use x="771.541016" xlink:href="#DejaVuSans-46"/>
     <use x="803.328125" xlink:href="#DejaVuSans-46"/>
     <use x="835.115234" xlink:href="#DejaVuSans-49"/>
     <use x="898.738281" xlink:href="#DejaVuSans-101"/>
     <use x="960.261719" xlink:href="#DejaVuSans-45"/>
     <use x="996.345703" xlink:href="#DejaVuSans-48"/>
     <use x="1059.96875" xlink:href="#DejaVuSans-56"/>
    </g>
    <!-- 15 instances -->
    <g transform="translate(60.41088 48.426593)scale(0.102 -0.102)">
     <use xlink:href="#DejaVuSans-49"/>
     <use x="63.623047" xlink:href="#DejaVuSans-53"/>
     <use x="127.246094" xlink:href="#DejaVuSans-32"/>
     <use x="159.033203" xlink:href="#DejaVuSans-105"/>
     <use x="186.816406" xlink:href="#DejaVuSans-110"/>
     <use x="250.195312" xlink:href="#DejaVuSans-115"/>
     <use x="302.294922" xlink:href="#DejaVuSans-116"/>
     <use x="341.503906" xlink:href="#DejaVuSans-97"/>
     <use x="402.783203" xlink:href="#DejaVuSans-110"/>
     <use x="466.162109" xlink:href="#DejaVuSans-99"/>
     <use x="521.142578" xlink:href="#DejaVuSans-101"/>
     <use x="582.666016" xlink:href="#DejaVuSans-115"/>
    </g>
   </g>
   <g id="text_18">
    <!-- v2.4 -->
    <g style="fill:#808080;" transform="translate(187.233062 293.909432)scale(0.1 -0.1)">
     <use xlink:href="#DejaVuSans-118"/>
     <use x="59.179688" xlink:href="#DejaVuSans-50"/>
     <use x="122.802734" xlink:href="#DejaVuSans-46"/>
     <use x="154.589844" xlink:href="#DejaVuSans-52"/>
    </g>
   </g>
  </g>
 </g>
 <defs>
  <clipPath id="pbe8803d63d">
   <rect height="295.488" width="281.088" x="57.6" y="3.456"/>
  </clipPath>
 </defs>
</svg>
