<?xml version="1.0" encoding="utf-8" standalone="no"?>
<!DOCTYPE svg PUBLIC "-//W3C//DTD SVG 1.1//EN"
  "http://www.w3.org/Graphics/SVG/1.1/DTD/svg11.dtd">
<!-- Created with matplotlib (https://matplotlib.org/) -->
<svg height="345.6pt" version="1.1" viewBox="0 0 460.8 345.6" width="460.8pt" xmlns="http://www.w3.org/2000/svg" xmlns:xlink="http://www.w3.org/1999/xlink">
 <metadata>
  <rdf:RDF xmlns:cc="http://creativecommons.org/ns#" xmlns:dc="http://purl.org/dc/elements/1.1/" xmlns:rdf="http://www.w3.org/1999/02/22-rdf-syntax-ns#">
   <cc:Work>
    <dc:type rdf:resource="http://purl.org/dc/dcmitype/StillImage"/>
    <dc:date>2021-08-04T10:26:12.041853</dc:date>
    <dc:format>image/svg+xml</dc:format>
    <dc:creator>
     <cc:Agent>
      <dc:title>Matplotlib v3.3.1, https://matplotlib.org/</dc:title>
     </cc:Agent>
    </dc:creator>
   </cc:Work>
  </rdf:RDF>
 </metadata>
 <defs>
  <style type="text/css">*{stroke-linecap:butt;stroke-linejoin:round;}</style>
 </defs>
 <g id="figure_1">
  <g id="patch_1">
   <path d="M 0 345.6 
L 460.8 345.6 
L 460.8 0 
L 0 0 
z
" style="fill:#ffffff;"/>
  </g>
  <g id="axes_1">
   <g id="patch_2">
    <path d="M 57.6 298.944 
L 338.688 298.944 
L 338.688 27.648 
L 57.6 27.648 
z
" style="fill:#ffffff;"/>
   </g>
   <g id="matplotlib.axis_1">
    <g id="xtick_1">
     <g id="line2d_1">
      <path clip-path="url(#p172e43526f)" d="M 57.6 298.944 
L 57.6 27.648 
" style="fill:none;stroke:#b0b0b0;stroke-linecap:square;stroke-width:0.8;"/>
     </g>
     <g id="line2d_2">
      <defs>
       <path d="M 0 0 
L 0 3.5 
" id="mbfc3756e53" style="stroke:#000000;stroke-width:0.8;"/>
      </defs>
      <g>
       <use style="stroke:#000000;stroke-width:0.8;" x="57.6" xlink:href="#mbfc3756e53" y="298.944"/>
      </g>
     </g>
     <g id="text_1">
      <!-- 0 -->
      <g transform="translate(51.2375 321.140875)scale(0.2 -0.2)">
       <defs>
        <path d="M 31.78125 66.40625 
Q 24.171875 66.40625 20.328125 58.90625 
Q 16.5 51.421875 16.5 36.375 
Q 16.5 21.390625 20.328125 13.890625 
Q 24.171875 6.390625 31.78125 6.390625 
Q 39.453125 6.390625 43.28125 13.890625 
Q 47.125 21.390625 47.125 36.375 
Q 47.125 51.421875 43.28125 58.90625 
Q 39.453125 66.40625 31.78125 66.40625 
z
M 31.78125 74.21875 
Q 44.046875 74.21875 50.515625 64.515625 
Q 56.984375 54.828125 56.984375 36.375 
Q 56.984375 17.96875 50.515625 8.265625 
Q 44.046875 -1.421875 31.78125 -1.421875 
Q 19.53125 -1.421875 13.0625 8.265625 
Q 6.59375 17.96875 6.59375 36.375 
Q 6.59375 54.828125 13.0625 64.515625 
Q 19.53125 74.21875 31.78125 74.21875 
z
" id="DejaVuSans-48"/>
       </defs>
       <use xlink:href="#DejaVuSans-48"/>
      </g>
     </g>
    </g>
    <g id="xtick_2">
     <g id="line2d_3">
      <path clip-path="url(#p172e43526f)" d="M 137.910857 298.944 
L 137.910857 27.648 
" style="fill:none;stroke:#b0b0b0;stroke-linecap:square;stroke-width:0.8;"/>
     </g>
     <g id="line2d_4">
      <g>
       <use style="stroke:#000000;stroke-width:0.8;" x="137.910857" xlink:href="#mbfc3756e53" y="298.944"/>
      </g>
     </g>
     <g id="text_2">
      <!-- 2 -->
      <g transform="translate(131.548357 321.140875)scale(0.2 -0.2)">
       <defs>
        <path d="M 19.1875 8.296875 
L 53.609375 8.296875 
L 53.609375 0 
L 7.328125 0 
L 7.328125 8.296875 
Q 12.9375 14.109375 22.625 23.890625 
Q 32.328125 33.6875 34.8125 36.53125 
Q 39.546875 41.84375 41.421875 45.53125 
Q 43.3125 49.21875 43.3125 52.78125 
Q 43.3125 58.59375 39.234375 62.25 
Q 35.15625 65.921875 28.609375 65.921875 
Q 23.96875 65.921875 18.8125 64.3125 
Q 13.671875 62.703125 7.8125 59.421875 
L 7.8125 69.390625 
Q 13.765625 71.78125 18.9375 73 
Q 24.125 74.21875 28.421875 74.21875 
Q 39.75 74.21875 46.484375 68.546875 
Q 53.21875 62.890625 53.21875 53.421875 
Q 53.21875 48.921875 51.53125 44.890625 
Q 49.859375 40.875 45.40625 35.40625 
Q 44.1875 33.984375 37.640625 27.21875 
Q 31.109375 20.453125 19.1875 8.296875 
z
" id="DejaVuSans-50"/>
       </defs>
       <use xlink:href="#DejaVuSans-50"/>
      </g>
     </g>
    </g>
    <g id="xtick_3">
     <g id="line2d_5">
      <path clip-path="url(#p172e43526f)" d="M 218.221714 298.944 
L 218.221714 27.648 
" style="fill:none;stroke:#b0b0b0;stroke-linecap:square;stroke-width:0.8;"/>
     </g>
     <g id="line2d_6">
      <g>
       <use style="stroke:#000000;stroke-width:0.8;" x="218.221714" xlink:href="#mbfc3756e53" y="298.944"/>
      </g>
     </g>
     <g id="text_3">
      <!-- 4 -->
      <g transform="translate(211.859214 321.140875)scale(0.2 -0.2)">
       <defs>
        <path d="M 37.796875 64.3125 
L 12.890625 25.390625 
L 37.796875 25.390625 
z
M 35.203125 72.90625 
L 47.609375 72.90625 
L 47.609375 25.390625 
L 58.015625 25.390625 
L 58.015625 17.1875 
L 47.609375 17.1875 
L 47.609375 0 
L 37.796875 0 
L 37.796875 17.1875 
L 4.890625 17.1875 
L 4.890625 26.703125 
z
" id="DejaVuSans-52"/>
       </defs>
       <use xlink:href="#DejaVuSans-52"/>
      </g>
     </g>
    </g>
    <g id="xtick_4">
     <g id="line2d_7">
      <path clip-path="url(#p172e43526f)" d="M 298.532571 298.944 
L 298.532571 27.648 
" style="fill:none;stroke:#b0b0b0;stroke-linecap:square;stroke-width:0.8;"/>
     </g>
     <g id="line2d_8">
      <g>
       <use style="stroke:#000000;stroke-width:0.8;" x="298.532571" xlink:href="#mbfc3756e53" y="298.944"/>
      </g>
     </g>
     <g id="text_4">
      <!-- 6 -->
      <g transform="translate(292.170071 321.140875)scale(0.2 -0.2)">
       <defs>
        <path d="M 33.015625 40.375 
Q 26.375 40.375 22.484375 35.828125 
Q 18.609375 31.296875 18.609375 23.390625 
Q 18.609375 15.53125 22.484375 10.953125 
Q 26.375 6.390625 33.015625 6.390625 
Q 39.65625 6.390625 43.53125 10.953125 
Q 47.40625 15.53125 47.40625 23.390625 
Q 47.40625 31.296875 43.53125 35.828125 
Q 39.65625 40.375 33.015625 40.375 
z
M 52.59375 71.296875 
L 52.59375 62.3125 
Q 48.875 64.0625 45.09375 64.984375 
Q 41.3125 65.921875 37.59375 65.921875 
Q 27.828125 65.921875 22.671875 59.328125 
Q 17.53125 52.734375 16.796875 39.40625 
Q 19.671875 43.65625 24.015625 45.921875 
Q 28.375 48.1875 33.59375 48.1875 
Q 44.578125 48.1875 50.953125 41.515625 
Q 57.328125 34.859375 57.328125 23.390625 
Q 57.328125 12.15625 50.6875 5.359375 
Q 44.046875 -1.421875 33.015625 -1.421875 
Q 20.359375 -1.421875 13.671875 8.265625 
Q 6.984375 17.96875 6.984375 36.375 
Q 6.984375 53.65625 15.1875 63.9375 
Q 23.390625 74.21875 37.203125 74.21875 
Q 40.921875 74.21875 44.703125 73.484375 
Q 48.484375 72.75 52.59375 71.296875 
z
" id="DejaVuSans-54"/>
       </defs>
       <use xlink:href="#DejaVuSans-54"/>
      </g>
     </g>
    </g>
    <g id="xtick_5">
     <g id="line2d_9">
      <path clip-path="url(#p172e43526f)" d="M 97.755429 298.944 
L 97.755429 27.648 
" style="fill:none;stroke:#b0b0b0;stroke-linecap:square;stroke-width:0.8;"/>
     </g>
     <g id="line2d_10">
      <defs>
       <path d="M 0 0 
L 0 2 
" id="mcb36ea2e2f" style="stroke:#000000;stroke-width:0.6;"/>
      </defs>
      <g>
       <use style="stroke:#000000;stroke-width:0.6;" x="97.755429" xlink:href="#mcb36ea2e2f" y="298.944"/>
      </g>
     </g>
    </g>
    <g id="xtick_6">
     <g id="line2d_11">
      <path clip-path="url(#p172e43526f)" d="M 178.066286 298.944 
L 178.066286 27.648 
" style="fill:none;stroke:#b0b0b0;stroke-linecap:square;stroke-width:0.8;"/>
     </g>
     <g id="line2d_12">
      <g>
       <use style="stroke:#000000;stroke-width:0.6;" x="178.066286" xlink:href="#mcb36ea2e2f" y="298.944"/>
      </g>
     </g>
    </g>
    <g id="xtick_7">
     <g id="line2d_13">
      <path clip-path="url(#p172e43526f)" d="M 258.377143 298.944 
L 258.377143 27.648 
" style="fill:none;stroke:#b0b0b0;stroke-linecap:square;stroke-width:0.8;"/>
     </g>
     <g id="line2d_14">
      <g>
       <use style="stroke:#000000;stroke-width:0.6;" x="258.377143" xlink:href="#mcb36ea2e2f" y="298.944"/>
      </g>
     </g>
    </g>
    <g id="xtick_8">
     <g id="line2d_15">
      <path clip-path="url(#p172e43526f)" d="M 338.688 298.944 
L 338.688 27.648 
" style="fill:none;stroke:#b0b0b0;stroke-linecap:square;stroke-width:0.8;"/>
     </g>
     <g id="line2d_16">
      <g>
       <use style="stroke:#000000;stroke-width:0.6;" x="338.688" xlink:href="#mcb36ea2e2f" y="298.944"/>
      </g>
     </g>
    </g>
    <g id="text_5">
     <!-- log10(# f-evals / dimension) -->
     <g transform="translate(77.764078 342.217594)scale(0.17 -0.17)">
      <defs>
       <path d="M 9.421875 75.984375 
L 18.40625 75.984375 
L 18.40625 0 
L 9.421875 0 
z
" id="DejaVuSans-108"/>
       <path d="M 30.609375 48.390625 
Q 23.390625 48.390625 19.1875 42.75 
Q 14.984375 37.109375 14.984375 27.296875 
Q 14.984375 17.484375 19.15625 11.84375 
Q 23.34375 6.203125 30.609375 6.203125 
Q 37.796875 6.203125 41.984375 11.859375 
Q 46.1875 17.53125 46.1875 27.296875 
Q 46.1875 37.015625 41.984375 42.703125 
Q 37.796875 48.390625 30.609375 48.390625 
z
M 30.609375 56 
Q 42.328125 56 49.015625 48.375 
Q 55.71875 40.765625 55.71875 27.296875 
Q 55.71875 13.875 49.015625 6.21875 
Q 42.328125 -1.421875 30.609375 -1.421875 
Q 18.84375 -1.421875 12.171875 6.21875 
Q 5.515625 13.875 5.515625 27.296875 
Q 5.515625 40.765625 12.171875 48.375 
Q 18.84375 56 30.609375 56 
z
" id="DejaVuSans-111"/>
       <path d="M 45.40625 27.984375 
Q 45.40625 37.75 41.375 43.109375 
Q 37.359375 48.484375 30.078125 48.484375 
Q 22.859375 48.484375 18.828125 43.109375 
Q 14.796875 37.75 14.796875 27.984375 
Q 14.796875 18.265625 18.828125 12.890625 
Q 22.859375 7.515625 30.078125 7.515625 
Q 37.359375 7.515625 41.375 12.890625 
Q 45.40625 18.265625 45.40625 27.984375 
z
M 54.390625 6.78125 
Q 54.390625 -7.171875 48.1875 -13.984375 
Q 42 -20.796875 29.203125 -20.796875 
Q 24.46875 -20.796875 20.265625 -20.09375 
Q 16.0625 -19.390625 12.109375 -17.921875 
L 12.109375 -9.1875 
Q 16.0625 -11.328125 19.921875 -12.34375 
Q 23.78125 -13.375 27.78125 -13.375 
Q 36.625 -13.375 41.015625 -8.765625 
Q 45.40625 -4.15625 45.40625 5.171875 
L 45.40625 9.625 
Q 42.625 4.78125 38.28125 2.390625 
Q 33.9375 0 27.875 0 
Q 17.828125 0 11.671875 7.65625 
Q 5.515625 15.328125 5.515625 27.984375 
Q 5.515625 40.671875 11.671875 48.328125 
Q 17.828125 56 27.875 56 
Q 33.9375 56 38.28125 53.609375 
Q 42.625 51.21875 45.40625 46.390625 
L 45.40625 54.6875 
L 54.390625 54.6875 
z
" id="DejaVuSans-103"/>
       <path d="M 12.40625 8.296875 
L 28.515625 8.296875 
L 28.515625 63.921875 
L 10.984375 60.40625 
L 10.984375 69.390625 
L 28.421875 72.90625 
L 38.28125 72.90625 
L 38.28125 8.296875 
L 54.390625 8.296875 
L 54.390625 0 
L 12.40625 0 
z
" id="DejaVuSans-49"/>
       <path d="M 31 75.875 
Q 24.46875 64.65625 21.28125 53.65625 
Q 18.109375 42.671875 18.109375 31.390625 
Q 18.109375 20.125 21.3125 9.0625 
Q 24.515625 -2 31 -13.1875 
L 23.1875 -13.1875 
Q 15.875 -1.703125 12.234375 9.375 
Q 8.59375 20.453125 8.59375 31.390625 
Q 8.59375 42.28125 12.203125 53.3125 
Q 15.828125 64.359375 23.1875 75.875 
z
" id="DejaVuSans-40"/>
       <path d="M 51.125 44 
L 36.921875 44 
L 32.8125 27.6875 
L 47.125 27.6875 
z
M 43.796875 71.78125 
L 38.71875 51.515625 
L 52.984375 51.515625 
L 58.109375 71.78125 
L 65.921875 71.78125 
L 60.890625 51.515625 
L 76.125 51.515625 
L 76.125 44 
L 58.984375 44 
L 54.984375 27.6875 
L 70.515625 27.6875 
L 70.515625 20.21875 
L 53.078125 20.21875 
L 48 0 
L 40.1875 0 
L 45.21875 20.21875 
L 30.90625 20.21875 
L 25.875 0 
L 18.015625 0 
L 23.09375 20.21875 
L 7.71875 20.21875 
L 7.71875 27.6875 
L 24.90625 27.6875 
L 29 44 
L 13.28125 44 
L 13.28125 51.515625 
L 30.90625 51.515625 
L 35.890625 71.78125 
z
" id="DejaVuSans-35"/>
       <path id="DejaVuSans-32"/>
       <path d="M 37.109375 75.984375 
L 37.109375 68.5 
L 28.515625 68.5 
Q 23.6875 68.5 21.796875 66.546875 
Q 19.921875 64.59375 19.921875 59.515625 
L 19.921875 54.6875 
L 34.71875 54.6875 
L 34.71875 47.703125 
L 19.921875 47.703125 
L 19.921875 0 
L 10.890625 0 
L 10.890625 47.703125 
L 2.296875 47.703125 
L 2.296875 54.6875 
L 10.890625 54.6875 
L 10.890625 58.5 
Q 10.890625 67.625 15.140625 71.796875 
Q 19.390625 75.984375 28.609375 75.984375 
z
" id="DejaVuSans-102"/>
       <path d="M 4.890625 31.390625 
L 31.203125 31.390625 
L 31.203125 23.390625 
L 4.890625 23.390625 
z
" id="DejaVuSans-45"/>
       <path d="M 56.203125 29.59375 
L 56.203125 25.203125 
L 14.890625 25.203125 
Q 15.484375 15.921875 20.484375 11.0625 
Q 25.484375 6.203125 34.421875 6.203125 
Q 39.59375 6.203125 44.453125 7.46875 
Q 49.3125 8.734375 54.109375 11.28125 
L 54.109375 2.78125 
Q 49.265625 0.734375 44.1875 -0.34375 
Q 39.109375 -1.421875 33.890625 -1.421875 
Q 20.796875 -1.421875 13.15625 6.1875 
Q 5.515625 13.8125 5.515625 26.8125 
Q 5.515625 40.234375 12.765625 48.109375 
Q 20.015625 56 32.328125 56 
Q 43.359375 56 49.78125 48.890625 
Q 56.203125 41.796875 56.203125 29.59375 
z
M 47.21875 32.234375 
Q 47.125 39.59375 43.09375 43.984375 
Q 39.0625 48.390625 32.421875 48.390625 
Q 24.90625 48.390625 20.390625 44.140625 
Q 15.875 39.890625 15.1875 32.171875 
z
" id="DejaVuSans-101"/>
       <path d="M 2.984375 54.6875 
L 12.5 54.6875 
L 29.59375 8.796875 
L 46.6875 54.6875 
L 56.203125 54.6875 
L 35.6875 0 
L 23.484375 0 
z
" id="DejaVuSans-118"/>
       <path d="M 34.28125 27.484375 
Q 23.390625 27.484375 19.1875 25 
Q 14.984375 22.515625 14.984375 16.5 
Q 14.984375 11.71875 18.140625 8.90625 
Q 21.296875 6.109375 26.703125 6.109375 
Q 34.1875 6.109375 38.703125 11.40625 
Q 43.21875 16.703125 43.21875 25.484375 
L 43.21875 27.484375 
z
M 52.203125 31.203125 
L 52.203125 0 
L 43.21875 0 
L 43.21875 8.296875 
Q 40.140625 3.328125 35.546875 0.953125 
Q 30.953125 -1.421875 24.3125 -1.421875 
Q 15.921875 -1.421875 10.953125 3.296875 
Q 6 8.015625 6 15.921875 
Q 6 25.140625 12.171875 29.828125 
Q 18.359375 34.515625 30.609375 34.515625 
L 43.21875 34.515625 
L 43.21875 35.40625 
Q 43.21875 41.609375 39.140625 45 
Q 35.0625 48.390625 27.6875 48.390625 
Q 23 48.390625 18.546875 47.265625 
Q 14.109375 46.140625 10.015625 43.890625 
L 10.015625 52.203125 
Q 14.9375 54.109375 19.578125 55.046875 
Q 24.21875 56 28.609375 56 
Q 40.484375 56 46.34375 49.84375 
Q 52.203125 43.703125 52.203125 31.203125 
z
" id="DejaVuSans-97"/>
       <path d="M 44.28125 53.078125 
L 44.28125 44.578125 
Q 40.484375 46.53125 36.375 47.5 
Q 32.28125 48.484375 27.875 48.484375 
Q 21.1875 48.484375 17.84375 46.4375 
Q 14.5 44.390625 14.5 40.28125 
Q 14.5 37.15625 16.890625 35.375 
Q 19.28125 33.59375 26.515625 31.984375 
L 29.59375 31.296875 
Q 39.15625 29.25 43.1875 25.515625 
Q 47.21875 21.78125 47.21875 15.09375 
Q 47.21875 7.46875 41.1875 3.015625 
Q 35.15625 -1.421875 24.609375 -1.421875 
Q 20.21875 -1.421875 15.453125 -0.5625 
Q 10.6875 0.296875 5.421875 2 
L 5.421875 11.28125 
Q 10.40625 8.6875 15.234375 7.390625 
Q 20.0625 6.109375 24.8125 6.109375 
Q 31.15625 6.109375 34.5625 8.28125 
Q 37.984375 10.453125 37.984375 14.40625 
Q 37.984375 18.0625 35.515625 20.015625 
Q 33.0625 21.96875 24.703125 23.78125 
L 21.578125 24.515625 
Q 13.234375 26.265625 9.515625 29.90625 
Q 5.8125 33.546875 5.8125 39.890625 
Q 5.8125 47.609375 11.28125 51.796875 
Q 16.75 56 26.8125 56 
Q 31.78125 56 36.171875 55.265625 
Q 40.578125 54.546875 44.28125 53.078125 
z
" id="DejaVuSans-115"/>
       <path d="M 25.390625 72.90625 
L 33.6875 72.90625 
L 8.296875 -9.28125 
L 0 -9.28125 
z
" id="DejaVuSans-47"/>
       <path d="M 45.40625 46.390625 
L 45.40625 75.984375 
L 54.390625 75.984375 
L 54.390625 0 
L 45.40625 0 
L 45.40625 8.203125 
Q 42.578125 3.328125 38.25 0.953125 
Q 33.9375 -1.421875 27.875 -1.421875 
Q 17.96875 -1.421875 11.734375 6.484375 
Q 5.515625 14.40625 5.515625 27.296875 
Q 5.515625 40.1875 11.734375 48.09375 
Q 17.96875 56 27.875 56 
Q 33.9375 56 38.25 53.625 
Q 42.578125 51.265625 45.40625 46.390625 
z
M 14.796875 27.296875 
Q 14.796875 17.390625 18.875 11.75 
Q 22.953125 6.109375 30.078125 6.109375 
Q 37.203125 6.109375 41.296875 11.75 
Q 45.40625 17.390625 45.40625 27.296875 
Q 45.40625 37.203125 41.296875 42.84375 
Q 37.203125 48.484375 30.078125 48.484375 
Q 22.953125 48.484375 18.875 42.84375 
Q 14.796875 37.203125 14.796875 27.296875 
z
" id="DejaVuSans-100"/>
       <path d="M 9.421875 54.6875 
L 18.40625 54.6875 
L 18.40625 0 
L 9.421875 0 
z
M 9.421875 75.984375 
L 18.40625 75.984375 
L 18.40625 64.59375 
L 9.421875 64.59375 
z
" id="DejaVuSans-105"/>
       <path d="M 52 44.1875 
Q 55.375 50.25 60.0625 53.125 
Q 64.75 56 71.09375 56 
Q 79.640625 56 84.28125 50.015625 
Q 88.921875 44.046875 88.921875 33.015625 
L 88.921875 0 
L 79.890625 0 
L 79.890625 32.71875 
Q 79.890625 40.578125 77.09375 44.375 
Q 74.3125 48.1875 68.609375 48.1875 
Q 61.625 48.1875 57.5625 43.546875 
Q 53.515625 38.921875 53.515625 30.90625 
L 53.515625 0 
L 44.484375 0 
L 44.484375 32.71875 
Q 44.484375 40.625 41.703125 44.40625 
Q 38.921875 48.1875 33.109375 48.1875 
Q 26.21875 48.1875 22.15625 43.53125 
Q 18.109375 38.875 18.109375 30.90625 
L 18.109375 0 
L 9.078125 0 
L 9.078125 54.6875 
L 18.109375 54.6875 
L 18.109375 46.1875 
Q 21.1875 51.21875 25.484375 53.609375 
Q 29.78125 56 35.6875 56 
Q 41.65625 56 45.828125 52.96875 
Q 50 49.953125 52 44.1875 
z
" id="DejaVuSans-109"/>
       <path d="M 54.890625 33.015625 
L 54.890625 0 
L 45.90625 0 
L 45.90625 32.71875 
Q 45.90625 40.484375 42.875 44.328125 
Q 39.84375 48.1875 33.796875 48.1875 
Q 26.515625 48.1875 22.3125 43.546875 
Q 18.109375 38.921875 18.109375 30.90625 
L 18.109375 0 
L 9.078125 0 
L 9.078125 54.6875 
L 18.109375 54.6875 
L 18.109375 46.1875 
Q 21.34375 51.125 25.703125 53.5625 
Q 30.078125 56 35.796875 56 
Q 45.21875 56 50.046875 50.171875 
Q 54.890625 44.34375 54.890625 33.015625 
z
" id="DejaVuSans-110"/>
       <path d="M 8.015625 75.875 
L 15.828125 75.875 
Q 23.140625 64.359375 26.78125 53.3125 
Q 30.421875 42.28125 30.421875 31.390625 
Q 30.421875 20.453125 26.78125 9.375 
Q 23.140625 -1.703125 15.828125 -13.1875 
L 8.015625 -13.1875 
Q 14.5 -2 17.703125 9.0625 
Q 20.90625 20.125 20.90625 31.390625 
Q 20.90625 42.671875 17.703125 53.65625 
Q 14.5 64.65625 8.015625 75.875 
z
" id="DejaVuSans-41"/>
      </defs>
      <use xlink:href="#DejaVuSans-108"/>
      <use x="27.783203" xlink:href="#DejaVuSans-111"/>
      <use x="88.964844" xlink:href="#DejaVuSans-103"/>
      <use x="152.441406" xlink:href="#DejaVuSans-49"/>
      <use x="216.064453" xlink:href="#DejaVuSans-48"/>
      <use x="279.6875" xlink:href="#DejaVuSans-40"/>
      <use x="318.701172" xlink:href="#DejaVuSans-35"/>
      <use x="402.490234" xlink:href="#DejaVuSans-32"/>
      <use x="434.277344" xlink:href="#DejaVuSans-102"/>
      <use x="463.982422" xlink:href="#DejaVuSans-45"/>
      <use x="500.066406" xlink:href="#DejaVuSans-101"/>
      <use x="561.589844" xlink:href="#DejaVuSans-118"/>
      <use x="620.769531" xlink:href="#DejaVuSans-97"/>
      <use x="682.048828" xlink:href="#DejaVuSans-108"/>
      <use x="709.832031" xlink:href="#DejaVuSans-115"/>
      <use x="761.931641" xlink:href="#DejaVuSans-32"/>
      <use x="793.71875" xlink:href="#DejaVuSans-47"/>
      <use x="827.410156" xlink:href="#DejaVuSans-32"/>
      <use x="859.197266" xlink:href="#DejaVuSans-100"/>
      <use x="922.673828" xlink:href="#DejaVuSans-105"/>
      <use x="950.457031" xlink:href="#DejaVuSans-109"/>
      <use x="1047.869141" xlink:href="#DejaVuSans-101"/>
      <use x="1109.392578" xlink:href="#DejaVuSans-110"/>
      <use x="1172.771484" xlink:href="#DejaVuSans-115"/>
      <use x="1224.871094" xlink:href="#DejaVuSans-105"/>
      <use x="1252.654297" xlink:href="#DejaVuSans-111"/>
      <use x="1313.835938" xlink:href="#DejaVuSans-110"/>
      <use x="1377.214844" xlink:href="#DejaVuSans-41"/>
     </g>
    </g>
   </g>
   <g id="matplotlib.axis_2">
    <g id="ytick_1">
     <g id="line2d_17">
      <path clip-path="url(#p172e43526f)" d="M 57.6 298.944 
L 338.688 298.944 
" style="fill:none;stroke:#b0b0b0;stroke-linecap:square;stroke-width:0.8;"/>
     </g>
     <g id="line2d_18">
      <defs>
       <path d="M 0 0 
L -3.5 0 
" id="mae0b98780d" style="stroke:#000000;stroke-width:0.8;"/>
      </defs>
      <g>
       <use style="stroke:#000000;stroke-width:0.8;" x="57.6" xlink:href="#mae0b98780d" y="298.944"/>
      </g>
     </g>
     <g id="text_6">
      <!-- 0.0 -->
      <g transform="translate(25.155 305.02275)scale(0.16 -0.16)">
       <defs>
        <path d="M 10.6875 12.40625 
L 21 12.40625 
L 21 0 
L 10.6875 0 
z
" id="DejaVuSans-46"/>
       </defs>
       <use xlink:href="#DejaVuSans-48"/>
       <use x="63.623047" xlink:href="#DejaVuSans-46"/>
       <use x="95.410156" xlink:href="#DejaVuSans-48"/>
      </g>
     </g>
    </g>
    <g id="ytick_2">
     <g id="line2d_19">
      <path clip-path="url(#p172e43526f)" d="M 57.6 245.22202 
L 338.688 245.22202 
" style="fill:none;stroke:#b0b0b0;stroke-linecap:square;stroke-width:0.8;"/>
     </g>
     <g id="line2d_20">
      <g>
       <use style="stroke:#000000;stroke-width:0.8;" x="57.6" xlink:href="#mae0b98780d" y="245.22202"/>
      </g>
     </g>
     <g id="text_7">
      <!-- 0.2 -->
      <g transform="translate(25.155 251.30077)scale(0.16 -0.16)">
       <use xlink:href="#DejaVuSans-48"/>
       <use x="63.623047" xlink:href="#DejaVuSans-46"/>
       <use x="95.410156" xlink:href="#DejaVuSans-50"/>
      </g>
     </g>
    </g>
    <g id="ytick_3">
     <g id="line2d_21">
      <path clip-path="url(#p172e43526f)" d="M 57.6 191.50004 
L 338.688 191.50004 
" style="fill:none;stroke:#b0b0b0;stroke-linecap:square;stroke-width:0.8;"/>
     </g>
     <g id="line2d_22">
      <g>
       <use style="stroke:#000000;stroke-width:0.8;" x="57.6" xlink:href="#mae0b98780d" y="191.50004"/>
      </g>
     </g>
     <g id="text_8">
      <!-- 0.4 -->
      <g transform="translate(25.155 197.57879)scale(0.16 -0.16)">
       <use xlink:href="#DejaVuSans-48"/>
       <use x="63.623047" xlink:href="#DejaVuSans-46"/>
       <use x="95.410156" xlink:href="#DejaVuSans-52"/>
      </g>
     </g>
    </g>
    <g id="ytick_4">
     <g id="line2d_23">
      <path clip-path="url(#p172e43526f)" d="M 57.6 137.778059 
L 338.688 137.778059 
" style="fill:none;stroke:#b0b0b0;stroke-linecap:square;stroke-width:0.8;"/>
     </g>
     <g id="line2d_24">
      <g>
       <use style="stroke:#000000;stroke-width:0.8;" x="57.6" xlink:href="#mae0b98780d" y="137.778059"/>
      </g>
     </g>
     <g id="text_9">
      <!-- 0.6 -->
      <g transform="translate(25.155 143.856809)scale(0.16 -0.16)">
       <use xlink:href="#DejaVuSans-48"/>
       <use x="63.623047" xlink:href="#DejaVuSans-46"/>
       <use x="95.410156" xlink:href="#DejaVuSans-54"/>
      </g>
     </g>
    </g>
    <g id="ytick_5">
     <g id="line2d_25">
      <path clip-path="url(#p172e43526f)" d="M 57.6 84.056079 
L 338.688 84.056079 
" style="fill:none;stroke:#b0b0b0;stroke-linecap:square;stroke-width:0.8;"/>
     </g>
     <g id="line2d_26">
      <g>
       <use style="stroke:#000000;stroke-width:0.8;" x="57.6" xlink:href="#mae0b98780d" y="84.056079"/>
      </g>
     </g>
     <g id="text_10">
      <!-- 0.8 -->
      <g transform="translate(25.155 90.134829)scale(0.16 -0.16)">
       <defs>
        <path d="M 31.78125 34.625 
Q 24.75 34.625 20.71875 30.859375 
Q 16.703125 27.09375 16.703125 20.515625 
Q 16.703125 13.921875 20.71875 10.15625 
Q 24.75 6.390625 31.78125 6.390625 
Q 38.8125 6.390625 42.859375 10.171875 
Q 46.921875 13.96875 46.921875 20.515625 
Q 46.921875 27.09375 42.890625 30.859375 
Q 38.875 34.625 31.78125 34.625 
z
M 21.921875 38.8125 
Q 15.578125 40.375 12.03125 44.71875 
Q 8.5 49.078125 8.5 55.328125 
Q 8.5 64.0625 14.71875 69.140625 
Q 20.953125 74.21875 31.78125 74.21875 
Q 42.671875 74.21875 48.875 69.140625 
Q 55.078125 64.0625 55.078125 55.328125 
Q 55.078125 49.078125 51.53125 44.71875 
Q 48 40.375 41.703125 38.8125 
Q 48.828125 37.15625 52.796875 32.3125 
Q 56.78125 27.484375 56.78125 20.515625 
Q 56.78125 9.90625 50.3125 4.234375 
Q 43.84375 -1.421875 31.78125 -1.421875 
Q 19.734375 -1.421875 13.25 4.234375 
Q 6.78125 9.90625 6.78125 20.515625 
Q 6.78125 27.484375 10.78125 32.3125 
Q 14.796875 37.15625 21.921875 38.8125 
z
M 18.3125 54.390625 
Q 18.3125 48.734375 21.84375 45.5625 
Q 25.390625 42.390625 31.78125 42.390625 
Q 38.140625 42.390625 41.71875 45.5625 
Q 45.3125 48.734375 45.3125 54.390625 
Q 45.3125 60.0625 41.71875 63.234375 
Q 38.140625 66.40625 31.78125 66.40625 
Q 25.390625 66.40625 21.84375 63.234375 
Q 18.3125 60.0625 18.3125 54.390625 
z
" id="DejaVuSans-56"/>
       </defs>
       <use xlink:href="#DejaVuSans-48"/>
       <use x="63.623047" xlink:href="#DejaVuSans-46"/>
       <use x="95.410156" xlink:href="#DejaVuSans-56"/>
      </g>
     </g>
    </g>
    <g id="ytick_6">
     <g id="line2d_27">
      <path clip-path="url(#p172e43526f)" d="M 57.6 30.334099 
L 338.688 30.334099 
" style="fill:none;stroke:#b0b0b0;stroke-linecap:square;stroke-width:0.8;"/>
     </g>
     <g id="line2d_28">
      <g>
       <use style="stroke:#000000;stroke-width:0.8;" x="57.6" xlink:href="#mae0b98780d" y="30.334099"/>
      </g>
     </g>
     <g id="text_11">
      <!-- 1.0 -->
      <g transform="translate(25.155 36.412849)scale(0.16 -0.16)">
       <use xlink:href="#DejaVuSans-49"/>
       <use x="63.623047" xlink:href="#DejaVuSans-46"/>
       <use x="95.410156" xlink:href="#DejaVuSans-48"/>
      </g>
     </g>
    </g>
    <g id="text_12">
     <!-- Fraction of function,target pairs -->
     <g transform="translate(17.619531 297.681)rotate(-90)scale(0.17 -0.17)">
      <defs>
       <path d="M 9.8125 72.90625 
L 51.703125 72.90625 
L 51.703125 64.59375 
L 19.671875 64.59375 
L 19.671875 43.109375 
L 48.578125 43.109375 
L 48.578125 34.8125 
L 19.671875 34.8125 
L 19.671875 0 
L 9.8125 0 
z
" id="DejaVuSans-70"/>
       <path d="M 41.109375 46.296875 
Q 39.59375 47.171875 37.8125 47.578125 
Q 36.03125 48 33.890625 48 
Q 26.265625 48 22.1875 43.046875 
Q 18.109375 38.09375 18.109375 28.8125 
L 18.109375 0 
L 9.078125 0 
L 9.078125 54.6875 
L 18.109375 54.6875 
L 18.109375 46.1875 
Q 20.953125 51.171875 25.484375 53.578125 
Q 30.03125 56 36.53125 56 
Q 37.453125 56 38.578125 55.875 
Q 39.703125 55.765625 41.0625 55.515625 
z
" id="DejaVuSans-114"/>
       <path d="M 48.78125 52.59375 
L 48.78125 44.1875 
Q 44.96875 46.296875 41.140625 47.34375 
Q 37.3125 48.390625 33.40625 48.390625 
Q 24.65625 48.390625 19.8125 42.84375 
Q 14.984375 37.3125 14.984375 27.296875 
Q 14.984375 17.28125 19.8125 11.734375 
Q 24.65625 6.203125 33.40625 6.203125 
Q 37.3125 6.203125 41.140625 7.25 
Q 44.96875 8.296875 48.78125 10.40625 
L 48.78125 2.09375 
Q 45.015625 0.34375 40.984375 -0.53125 
Q 36.96875 -1.421875 32.421875 -1.421875 
Q 20.0625 -1.421875 12.78125 6.34375 
Q 5.515625 14.109375 5.515625 27.296875 
Q 5.515625 40.671875 12.859375 48.328125 
Q 20.21875 56 33.015625 56 
Q 37.15625 56 41.109375 55.140625 
Q 45.0625 54.296875 48.78125 52.59375 
z
" id="DejaVuSans-99"/>
       <path d="M 18.3125 70.21875 
L 18.3125 54.6875 
L 36.8125 54.6875 
L 36.8125 47.703125 
L 18.3125 47.703125 
L 18.3125 18.015625 
Q 18.3125 11.328125 20.140625 9.421875 
Q 21.96875 7.515625 27.59375 7.515625 
L 36.8125 7.515625 
L 36.8125 0 
L 27.59375 0 
Q 17.1875 0 13.234375 3.875 
Q 9.28125 7.765625 9.28125 18.015625 
L 9.28125 47.703125 
L 2.6875 47.703125 
L 2.6875 54.6875 
L 9.28125 54.6875 
L 9.28125 70.21875 
z
" id="DejaVuSans-116"/>
       <path d="M 8.5 21.578125 
L 8.5 54.6875 
L 17.484375 54.6875 
L 17.484375 21.921875 
Q 17.484375 14.15625 20.5 10.265625 
Q 23.53125 6.390625 29.59375 6.390625 
Q 36.859375 6.390625 41.078125 11.03125 
Q 45.3125 15.671875 45.3125 23.6875 
L 45.3125 54.6875 
L 54.296875 54.6875 
L 54.296875 0 
L 45.3125 0 
L 45.3125 8.40625 
Q 42.046875 3.421875 37.71875 1 
Q 33.40625 -1.421875 27.6875 -1.421875 
Q 18.265625 -1.421875 13.375 4.4375 
Q 8.5 10.296875 8.5 21.578125 
z
M 31.109375 56 
z
" id="DejaVuSans-117"/>
       <path d="M 11.71875 12.40625 
L 22.015625 12.40625 
L 22.015625 4 
L 14.015625 -11.625 
L 7.71875 -11.625 
L 11.71875 4 
z
" id="DejaVuSans-44"/>
       <path d="M 18.109375 8.203125 
L 18.109375 -20.796875 
L 9.078125 -20.796875 
L 9.078125 54.6875 
L 18.109375 54.6875 
L 18.109375 46.390625 
Q 20.953125 51.265625 25.265625 53.625 
Q 29.59375 56 35.59375 56 
Q 45.5625 56 51.78125 48.09375 
Q 58.015625 40.1875 58.015625 27.296875 
Q 58.015625 14.40625 51.78125 6.484375 
Q 45.5625 -1.421875 35.59375 -1.421875 
Q 29.59375 -1.421875 25.265625 0.953125 
Q 20.953125 3.328125 18.109375 8.203125 
z
M 48.6875 27.296875 
Q 48.6875 37.203125 44.609375 42.84375 
Q 40.53125 48.484375 33.40625 48.484375 
Q 26.265625 48.484375 22.1875 42.84375 
Q 18.109375 37.203125 18.109375 27.296875 
Q 18.109375 17.390625 22.1875 11.75 
Q 26.265625 6.109375 33.40625 6.109375 
Q 40.53125 6.109375 44.609375 11.75 
Q 48.6875 17.390625 48.6875 27.296875 
z
" id="DejaVuSans-112"/>
      </defs>
      <use xlink:href="#DejaVuSans-70"/>
      <use x="50.269531" xlink:href="#DejaVuSans-114"/>
      <use x="91.382812" xlink:href="#DejaVuSans-97"/>
      <use x="152.662109" xlink:href="#DejaVuSans-99"/>
      <use x="207.642578" xlink:href="#DejaVuSans-116"/>
      <use x="246.851562" xlink:href="#DejaVuSans-105"/>
      <use x="274.634766" xlink:href="#DejaVuSans-111"/>
      <use x="335.816406" xlink:href="#DejaVuSans-110"/>
      <use x="399.195312" xlink:href="#DejaVuSans-32"/>
      <use x="430.982422" xlink:href="#DejaVuSans-111"/>
      <use x="492.164062" xlink:href="#DejaVuSans-102"/>
      <use x="527.369141" xlink:href="#DejaVuSans-32"/>
      <use x="559.15625" xlink:href="#DejaVuSans-102"/>
      <use x="594.361328" xlink:href="#DejaVuSans-117"/>
      <use x="657.740234" xlink:href="#DejaVuSans-110"/>
      <use x="721.119141" xlink:href="#DejaVuSans-99"/>
      <use x="776.099609" xlink:href="#DejaVuSans-116"/>
      <use x="815.308594" xlink:href="#DejaVuSans-105"/>
      <use x="843.091797" xlink:href="#DejaVuSans-111"/>
      <use x="904.273438" xlink:href="#DejaVuSans-110"/>
      <use x="967.652344" xlink:href="#DejaVuSans-44"/>
      <use x="999.439453" xlink:href="#DejaVuSans-116"/>
      <use x="1038.648438" xlink:href="#DejaVuSans-97"/>
      <use x="1099.927734" xlink:href="#DejaVuSans-114"/>
      <use x="1139.291016" xlink:href="#DejaVuSans-103"/>
      <use x="1202.767578" xlink:href="#DejaVuSans-101"/>
      <use x="1264.291016" xlink:href="#DejaVuSans-116"/>
      <use x="1303.5" xlink:href="#DejaVuSans-32"/>
      <use x="1335.287109" xlink:href="#DejaVuSans-112"/>
      <use x="1398.763672" xlink:href="#DejaVuSans-97"/>
      <use x="1460.042969" xlink:href="#DejaVuSans-105"/>
      <use x="1487.826172" xlink:href="#DejaVuSans-114"/>
      <use x="1528.939453" xlink:href="#DejaVuSans-115"/>
     </g>
    </g>
   </g>
   <g id="line2d_29">
    <defs>
     <path d="M 0 1.5 
C 0.397805 1.5 0.77937 1.341951 1.06066 1.06066 
C 1.341951 0.77937 1.5 0.397805 1.5 0 
C 1.5 -0.397805 1.341951 -0.77937 1.06066 -1.06066 
C 0.77937 -1.341951 0.397805 -1.5 0 -1.5 
C -0.397805 -1.5 -0.77937 -1.341951 -1.06066 -1.06066 
C -1.341951 -0.77937 -1.5 -0.397805 -1.5 0 
C -1.5 0.397805 -1.341951 0.77937 -1.06066 1.06066 
C -0.77937 1.341951 -0.397805 1.5 0 1.5 
z
" id="m97bae0c0c9" style="stroke:#00bfbf;"/>
    </defs>
    <g>
     <use style="fill:#00bfbf;stroke:#00bfbf;" x="131.814826" xlink:href="#m97bae0c0c9" y="30.334099"/>
     <use style="fill:#00bfbf;stroke:#00bfbf;" x="131.814826" xlink:href="#m97bae0c0c9" y="30.334099"/>
    </g>
   </g>
   <g id="line2d_30">
    <path d="M 45.512012 298.944 
L 45.512012 265.236091 
L 102.330873 265.236091 
L 102.330873 264.709405 
L 102.989037 264.709405 
L 102.989037 263.129347 
L 103.623262 263.129347 
L 103.623262 262.60266 
L 104.23523 262.60266 
L 104.23523 261.549288 
L 104.826449 261.549288 
L 104.826449 260.495916 
L 105.398279 260.495916 
L 105.398279 257.862486 
L 105.951954 257.862486 
L 105.951954 257.3358 
L 106.48859 257.3358 
L 106.48859 255.755741 
L 107.009204 255.755741 
L 107.009204 254.175683 
L 107.514726 254.175683 
L 107.514726 248.908822 
L 108.006005 248.908822 
L 108.006005 246.275392 
L 108.483824 246.275392 
L 108.483824 239.428473 
L 108.948899 239.428473 
L 108.948899 235.214984 
L 111.505558 235.214984 
L 111.505558 229.948123 
L 111.897469 229.948123 
L 111.897469 229.421437 
L 112.655818 229.421437 
L 112.655818 228.894751 
L 113.382559 228.894751 
L 113.382559 228.368065 
L 114.080224 228.368065 
L 114.080224 226.788007 
L 114.751048 226.788007 
L 114.751048 226.261321 
L 115.077025 226.261321 
L 115.077025 225.207949 
L 116.914437 225.207949 
L 116.914437 224.154577 
L 117.202696 224.154577 
L 117.202696 223.101204 
L 118.310324 223.101204 
L 118.310324 222.574518 
L 118.576578 222.574518 
L 118.576578 222.047832 
L 118.838828 222.047832 
L 118.838828 220.467774 
L 119.097192 220.467774 
L 119.097192 219.941088 
L 119.351785 219.941088 
L 119.351785 218.36103 
L 119.602714 218.36103 
L 119.602714 217.307658 
L 119.850084 217.307658 
L 119.850084 215.200913 
L 120.093994 215.200913 
L 120.093994 214.674227 
L 120.33454 214.674227 
L 120.33454 210.460738 
L 120.571812 210.460738 
L 120.571812 209.407366 
L 120.8059 209.407366 
L 120.8059 206.24725 
L 121.036887 206.24725 
L 121.036887 204.140506 
L 121.264855 204.140506 
L 121.264855 202.560447 
L 121.489881 202.560447 
L 121.489881 198.873645 
L 121.712041 198.873645 
L 121.712041 192.553412 
L 121.931406 192.553412 
L 121.931406 190.446667 
L 122.148045 190.446667 
L 122.148045 186.233179 
L 122.362027 186.233179 
L 122.362027 184.653121 
L 122.782271 184.653121 
L 122.782271 179.912946 
L 122.988655 179.912946 
L 122.988655 176.226143 
L 123.192626 176.226143 
L 123.192626 173.066027 
L 123.394238 173.066027 
L 123.394238 168.325852 
L 123.593547 168.325852 
L 123.593547 162.532305 
L 123.790603 162.532305 
L 123.790603 161.478933 
L 123.985457 161.478933 
L 123.985457 160.425561 
L 124.178158 160.425561 
L 124.178158 157.265444 
L 124.368753 157.265444 
L 124.368753 152.52527 
L 124.557288 152.52527 
L 124.557288 148.311781 
L 124.743806 148.311781 
L 124.743806 138.831432 
L 124.92835 138.831432 
L 124.92835 135.671315 
L 125.110962 135.671315 
L 125.110962 133.564571 
L 125.291682 133.564571 
L 125.291682 131.984513 
L 125.470548 131.984513 
L 125.470548 128.29771 
L 125.647598 128.29771 
L 125.647598 124.084221 
L 125.822869 124.084221 
L 125.822869 120.924105 
L 125.996395 120.924105 
L 125.996395 116.710616 
L 126.168212 116.710616 
L 126.168212 115.130558 
L 126.338353 115.130558 
L 126.338353 109.863697 
L 126.50685 109.863697 
L 126.50685 105.123522 
L 126.673734 105.123522 
L 126.673734 102.490092 
L 126.839037 102.490092 
L 126.839037 101.43672 
L 127.002787 101.43672 
L 127.002787 96.696545 
L 127.165014 96.696545 
L 127.165014 94.589801 
L 127.325746 94.589801 
L 127.325746 89.32294 
L 127.48501 89.32294 
L 127.48501 85.109451 
L 127.799239 85.109451 
L 127.799239 80.895963 
L 127.954256 80.895963 
L 127.954256 79.315904 
L 128.107907 79.315904 
L 128.107907 76.682474 
L 128.260216 76.682474 
L 128.260216 76.155788 
L 128.411207 76.155788 
L 128.411207 70.888927 
L 128.560901 70.888927 
L 128.560901 69.308869 
L 128.709321 69.308869 
L 128.709321 64.042008 
L 128.856489 64.042008 
L 128.856489 63.515322 
L 129.002426 63.515322 
L 129.002426 59.301833 
L 129.147151 59.301833 
L 129.147151 58.775147 
L 129.290685 58.775147 
L 129.290685 52.454914 
L 129.433047 52.454914 
L 129.433047 46.661368 
L 129.714332 46.661368 
L 129.714332 45.607995 
L 129.853291 45.607995 
L 129.853291 44.027937 
L 129.991152 44.027937 
L 129.991152 42.447879 
L 130.263646 42.447879 
L 130.263646 39.287762 
L 130.398313 39.287762 
L 130.398313 38.23439 
L 130.531948 38.23439 
L 130.531948 36.654332 
L 130.664567 36.654332 
L 130.664567 36.127646 
L 130.796184 36.127646 
L 130.796184 35.074274 
L 130.926816 35.074274 
L 130.926816 34.547588 
L 131.056477 34.547588 
L 131.056477 34.020902 
L 131.312942 34.020902 
L 131.312942 31.914157 
L 131.565689 31.914157 
L 131.565689 31.387471 
L 131.814826 31.387471 
L 131.814826 30.334099 
L 338.688 30.334099 
L 338.688 30.334099 
" style="fill:none;stroke:#00bfbf;stroke-linecap:square;stroke-width:1.5;"/>
   </g>
   <g id="line2d_31">
    <defs>
     <path d="M -6 0 
L 6 0 
M 0 6 
L 0 -6 
" id="mb70c7ad769" style="stroke:#00bfbf;stroke-width:1.5;"/>
    </defs>
    <g>
     <use style="fill-opacity:0;stroke:#00bfbf;stroke-width:1.5;" x="118.576578" xlink:href="#mb70c7ad769" y="222.047832"/>
     <use style="fill-opacity:0;stroke:#00bfbf;stroke-width:1.5;" x="126.168212" xlink:href="#mb70c7ad769" y="115.130558"/>
     <use style="fill-opacity:0;stroke:#00bfbf;stroke-width:1.5;" x="131.814826" xlink:href="#mb70c7ad769" y="31.387471"/>
     <use style="fill-opacity:0;stroke:#00bfbf;stroke-width:1.5;" x="131.814826" xlink:href="#mb70c7ad769" y="30.334099"/>
     <use style="fill-opacity:0;stroke:#00bfbf;stroke-width:1.5;" x="131.814826" xlink:href="#mb70c7ad769" y="30.334099"/>
     <use style="fill-opacity:0;stroke:#00bfbf;stroke-width:1.5;" x="338.688" xlink:href="#mb70c7ad769" y="30.334099"/>
    </g>
   </g>
   <g id="line2d_32">
    <path style="fill:none;stroke:#00bfbf;stroke-linecap:square;stroke-width:1.5;"/>
    <g/>
   </g>
   <g id="line2d_33">
    <defs>
     <path d="M 0 1.5 
C 0.397805 1.5 0.77937 1.341951 1.06066 1.06066 
C 1.341951 0.77937 1.5 0.397805 1.5 0 
C 1.5 -0.397805 1.341951 -0.77937 1.06066 -1.06066 
C 0.77937 -1.341951 0.397805 -1.5 0 -1.5 
C -0.397805 -1.5 -0.77937 -1.341951 -1.06066 -1.06066 
C -1.341951 -0.77937 -1.5 -0.397805 -1.5 0 
C -1.5 0.397805 -1.341951 0.77937 -1.06066 1.06066 
C -0.77937 1.341951 -0.397805 1.5 0 1.5 
z
" id="mf02bb20d8a" style="stroke:#008000;"/>
    </defs>
    <g>
     <use style="fill:#008000;stroke:#008000;" x="141.709062" xlink:href="#mf02bb20d8a" y="30.334099"/>
     <use style="fill:#008000;stroke:#008000;" x="141.709062" xlink:href="#mf02bb20d8a" y="30.334099"/>
    </g>
   </g>
   <g id="line2d_34">
    <path d="M 38.440992 298.944 
L 38.440992 273.663068 
L 93.121756 273.663068 
L 93.121756 273.136382 
L 98.880934 273.136382 
L 98.880934 272.609696 
L 99.938184 272.609696 
L 99.938184 272.08301 
L 100.443706 272.08301 
L 100.443706 271.556324 
L 101.877879 271.556324 
L 101.877879 271.029638 
L 102.330873 271.029638 
L 102.330873 270.502952 
L 102.772397 270.502952 
L 102.772397 269.976266 
L 103.203018 269.976266 
L 103.203018 268.922893 
L 103.623262 268.922893 
L 103.623262 267.342835 
L 104.033617 267.342835 
L 104.033617 266.816149 
L 104.434538 266.816149 
L 104.434538 263.129347 
L 104.826449 263.129347 
L 104.826449 260.495916 
L 105.209745 260.495916 
L 105.209745 258.915858 
L 105.584798 258.915858 
L 105.584798 256.282427 
L 105.951954 256.282427 
L 105.951954 255.755741 
L 107.680028 255.755741 
L 107.680028 255.229055 
L 108.326001 255.229055 
L 108.326001 254.702369 
L 118.220662 254.702369 
L 118.220662 254.175683 
L 118.751849 254.175683 
L 118.751849 253.648997 
L 118.925375 253.648997 
L 118.925375 253.122311 
L 119.267333 253.122311 
L 119.267333 251.542253 
L 119.43583 251.542253 
L 119.43583 250.488881 
L 119.931767 250.488881 
L 119.931767 249.435508 
L 120.254726 249.435508 
L 120.254726 248.382136 
L 120.571812 248.382136 
L 120.571812 247.85545 
L 120.883236 247.85545 
L 120.883236 246.275392 
L 121.036887 246.275392 
L 121.036887 243.115275 
L 121.189196 243.115275 
L 121.189196 242.588589 
L 121.340187 242.588589 
L 121.340187 241.535217 
L 121.489881 241.535217 
L 121.489881 241.008531 
L 121.638301 241.008531 
L 121.638301 240.481845 
L 122.076131 240.481845 
L 122.076131 239.955159 
L 122.219665 239.955159 
L 122.219665 239.428473 
L 123.460928 239.428473 
L 123.460928 238.901787 
L 124.241922 238.901787 
L 124.241922 238.375101 
L 124.368753 238.375101 
L 124.368753 237.848415 
L 124.619683 237.848415 
L 124.619683 237.321729 
L 125.110962 237.321729 
L 125.110962 236.795043 
L 126.50685 236.795043 
L 126.50685 236.268356 
L 126.618283 236.268356 
L 126.729009 234.688298 
L 127.165014 234.688298 
L 127.165014 234.161612 
L 127.590383 234.161612 
L 127.590383 233.634926 
L 127.902737 233.634926 
L 128.005624 232.054868 
L 128.107907 232.054868 
L 128.209594 231.001496 
L 128.310692 231.001496 
L 128.310692 230.47481 
L 128.511146 230.47481 
L 128.610515 227.841379 
L 128.709321 227.841379 
L 128.709321 227.314693 
L 129.002426 227.314693 
L 129.099042 225.734635 
L 129.290685 225.734635 
L 129.385722 224.154577 
L 129.480244 224.154577 
L 129.574256 221.521146 
L 129.760775 221.521146 
L 129.853291 218.887716 
L 129.945319 218.887716 
L 130.036864 217.834344 
L 130.127931 217.834344 
L 130.218525 214.147541 
L 130.30865 214.147541 
L 130.398313 209.407366 
L 130.487516 209.407366 
L 130.576266 206.773936 
L 130.752422 206.773936 
L 130.839837 204.140506 
L 130.926816 204.140506 
L 130.926816 198.873645 
L 131.099484 198.873645 
L 131.185181 197.820273 
L 131.270459 197.820273 
L 131.270459 196.240214 
L 131.439773 196.240214 
L 131.439773 195.713528 
L 131.60746 195.713528 
L 131.690703 190.446667 
L 131.856005 190.446667 
L 131.856005 186.759865 
L 132.019755 186.759865 
L 132.101058 184.653121 
L 132.181982 184.653121 
L 132.262533 182.01969 
L 132.342714 182.01969 
L 132.422528 178.859574 
L 132.501978 178.859574 
L 132.501978 177.279515 
L 132.659801 177.279515 
L 132.73818 175.172771 
L 132.816208 175.172771 
L 132.893889 170.432596 
L 132.971225 170.432596 
L 133.04822 166.745794 
L 133.201197 166.745794 
L 133.277185 164.112363 
L 133.352844 164.112363 
L 133.428175 162.005619 
L 133.503183 162.005619 
L 133.57787 157.79213 
L 133.652238 157.79213 
L 133.72629 156.212072 
L 133.800029 156.212072 
L 133.873458 147.258409 
L 134.019394 147.258409 
L 134.091907 143.571606 
L 134.164119 143.571606 
L 134.236034 140.938176 
L 134.307653 140.938176 
L 134.37898 136.724687 
L 134.450015 136.724687 
L 134.520763 134.091257 
L 134.591225 134.091257 
L 134.661403 130.404454 
L 134.7313 130.404454 
L 134.800918 128.29771 
L 134.870259 128.29771 
L 134.939326 126.717652 
L 135.00812 126.717652 
L 135.076644 125.137593 
L 135.144899 125.137593 
L 135.212889 120.924105 
L 135.280614 120.924105 
L 135.348078 116.710616 
L 135.415281 116.710616 
L 135.482227 110.917069 
L 135.548916 110.917069 
L 135.615352 108.810325 
L 135.681535 108.810325 
L 135.747468 105.123522 
L 135.813153 105.123522 
L 135.878591 101.963406 
L 136.008736 101.963406 
L 136.073445 98.803289 
L 136.137916 98.803289 
L 136.202149 94.589801 
L 136.266147 94.589801 
L 136.32991 90.376312 
L 136.393441 90.376312 
L 136.456742 87.216196 
L 136.519813 87.216196 
L 136.519813 85.109451 
L 136.645276 85.109451 
L 136.645276 84.582765 
L 136.769843 84.582765 
L 136.831795 83.002707 
L 136.893527 83.002707 
L 136.955041 79.315904 
L 137.016339 79.315904 
L 137.077422 78.262532 
L 137.259399 78.262532 
L 137.319638 75.629102 
L 137.439497 75.629102 
L 137.499118 71.415613 
L 137.558536 71.415613 
L 137.617753 69.308869 
L 137.676769 69.308869 
L 137.676769 68.255497 
L 137.852629 68.255497 
L 137.910857 66.675439 
L 138.026733 66.675439 
L 138.084384 62.988636 
L 138.141844 62.988636 
L 138.141844 62.46195 
L 138.256201 62.46195 
L 138.256201 60.881892 
L 138.426341 60.881892 
L 138.482688 59.82852 
L 138.538853 59.82852 
L 138.594838 58.248461 
L 138.706272 58.248461 
L 138.816998 56.668403 
L 138.927025 56.668403 
L 138.981779 52.9816 
L 139.145019 52.9816 
L 139.145019 49.821484 
L 139.306744 49.821484 
L 139.306744 49.294798 
L 139.466984 49.294798 
L 139.520072 47.71474 
L 139.678372 47.71474 
L 139.783113 44.027937 
L 139.835248 44.027937 
L 139.887228 42.447879 
L 139.990725 42.447879 
L 140.093612 39.814448 
L 140.144829 39.814448 
L 140.246813 37.707704 
L 140.297583 37.707704 
L 140.39868 35.074274 
L 140.549236 35.074274 
L 140.64889 33.494215 
L 140.846504 33.494215 
L 140.89556 32.440843 
L 141.187031 32.440843 
L 141.235139 30.860785 
L 141.709062 30.860785 
L 141.709062 30.334099 
L 338.688 30.334099 
L 338.688 30.334099 
" style="fill:none;stroke:#008000;stroke-linecap:square;stroke-width:1.5;"/>
   </g>
   <g id="line2d_35">
    <defs>
     <path d="M -0 6 
L 6 -6 
L -6 -6 
z
" id="m5ec351c9ef" style="stroke:#008000;stroke-linejoin:miter;stroke-width:1.5;"/>
    </defs>
    <g>
     <use style="fill-opacity:0;stroke:#008000;stroke-linejoin:miter;stroke-width:1.5;" x="98.880934" xlink:href="#m5ec351c9ef" y="273.136382"/>
     <use style="fill-opacity:0;stroke:#008000;stroke-linejoin:miter;stroke-width:1.5;" x="132.342714" xlink:href="#m5ec351c9ef" y="180.439632"/>
     <use style="fill-opacity:0;stroke:#008000;stroke-linejoin:miter;stroke-width:1.5;" x="140.39868" xlink:href="#m5ec351c9ef" y="36.127646"/>
     <use style="fill-opacity:0;stroke:#008000;stroke-linejoin:miter;stroke-width:1.5;" x="141.709062" xlink:href="#m5ec351c9ef" y="30.334099"/>
     <use style="fill-opacity:0;stroke:#008000;stroke-linejoin:miter;stroke-width:1.5;" x="141.709062" xlink:href="#m5ec351c9ef" y="30.334099"/>
     <use style="fill-opacity:0;stroke:#008000;stroke-linejoin:miter;stroke-width:1.5;" x="338.688" xlink:href="#m5ec351c9ef" y="30.334099"/>
    </g>
   </g>
   <g id="line2d_36">
    <path style="fill:none;stroke:#008000;stroke-linecap:square;stroke-width:1.5;"/>
    <g/>
   </g>
   <g id="line2d_37">
    <defs>
     <path d="M 0 1.5 
C 0.397805 1.5 0.77937 1.341951 1.06066 1.06066 
C 1.341951 0.77937 1.5 0.397805 1.5 0 
C 1.5 -0.397805 1.341951 -0.77937 1.06066 -1.06066 
C 0.77937 -1.341951 0.397805 -1.5 0 -1.5 
C -0.397805 -1.5 -0.77937 -1.341951 -1.06066 -1.06066 
C -1.341951 -0.77937 -1.5 -0.397805 -1.5 0 
C -1.5 0.397805 -1.341951 0.77937 -1.06066 1.06066 
C -0.77937 1.341951 -0.397805 1.5 0 1.5 
z
" id="m764ec7fccc" style="stroke:#0000ff;"/>
    </defs>
    <g>
     <use style="fill:#0000ff;stroke:#0000ff;" x="207.925387" xlink:href="#m764ec7fccc" y="30.334099"/>
     <use style="fill:#0000ff;stroke:#0000ff;" x="207.925387" xlink:href="#m764ec7fccc" y="30.334099"/>
    </g>
   </g>
   <g id="line2d_38">
    <path d="M 29.53256 298.944 
L 29.53256 282.090045 
L 95.526106 282.090045 
L 95.526106 281.563359 
L 99.097574 281.563359 
L 99.097574 280.509987 
L 100.343767 280.509987 
L 100.343767 279.983301 
L 100.934985 279.983301 
L 100.934985 279.456615 
L 101.506816 279.456615 
L 101.506816 278.929929 
L 102.060491 278.929929 
L 102.060491 278.403243 
L 102.859376 278.403243 
L 102.859376 276.823185 
L 103.372333 276.823185 
L 103.372333 275.769812 
L 103.870632 275.769812 
L 103.870632 274.71644 
L 104.114542 274.71644 
L 104.114542 273.663068 
L 104.592361 273.663068 
L 104.592361 269.449579 
L 104.826449 269.449579 
L 104.826449 268.396207 
L 105.285403 268.396207 
L 105.285403 267.342835 
L 105.51043 267.342835 
L 105.51043 266.816149 
L 116.202531 266.816149 
L 116.202531 266.289463 
L 116.323218 266.289463 
L 116.323218 265.762777 
L 117.709852 265.762777 
L 117.709852 264.709405 
L 117.930605 264.709405 
L 117.930605 264.182719 
L 119.199476 264.182719 
L 119.199476 263.656033 
L 121.036887 263.656033 
L 121.036887 263.129347 
L 121.219499 263.129347 
L 121.219499 262.60266 
L 121.579085 262.60266 
L 121.579085 262.075974 
L 122.018385 262.075974 
L 122.018385 261.549288 
L 122.191052 261.549288 
L 122.191052 261.022602 
L 123.751369 261.022602 
L 123.751369 260.495916 
L 124.368753 260.495916 
L 124.368753 259.96923 
L 126.099688 259.96923 
L 126.099688 259.442544 
L 126.439646 259.442544 
L 126.439646 258.915858 
L 127.293718 258.915858 
L 127.293718 257.862486 
L 127.736845 257.862486 
L 127.736845 257.3358 
L 128.350967 257.3358 
L 128.350967 256.809114 
L 128.944197 256.809114 
L 128.944197 256.282427 
L 129.06046 256.282427 
L 129.06046 255.755741 
L 129.51791 255.755741 
L 129.51791 255.229055 
L 130.45189 255.229055 
L 130.45189 254.702369 
L 130.717333 254.702369 
L 130.717333 254.175683 
L 136.456742 254.175683 
L 136.456742 253.648997 
L 136.570107 253.648997 
L 136.570107 253.122311 
L 136.831795 253.122311 
L 136.831795 252.595625 
L 137.053015 252.595625 
L 137.053015 252.068939 
L 137.52291 252.068939 
L 137.52291 251.542253 
L 138.153314 251.542253 
L 138.153314 251.015567 
L 138.69516 251.015567 
L 138.69516 250.488881 
L 138.959898 250.488881 
L 138.959898 249.962195 
L 139.604677 249.962195 
L 139.604677 249.435508 
L 139.730821 249.435508 
L 139.730821 248.908822 
L 139.9494 248.908822 
L 140.042245 247.85545 
L 140.073083 247.85545 
L 140.073083 247.328764 
L 140.348205 247.328764 
L 140.438956 245.748706 
L 140.499195 245.748706 
L 140.529237 244.695334 
L 140.678675 244.695334 
L 140.767727 243.641962 
L 140.856326 243.641962 
L 140.88576 242.588589 
L 140.973763 242.588589 
L 140.973763 242.061903 
L 141.148448 242.061903 
L 141.148448 241.535217 
L 141.858037 241.535217 
L 141.858037 241.008531 
L 142.752555 241.008531 
L 142.752555 240.481845 
L 143.144465 240.481845 
L 143.144465 239.955159 
L 144.93531 239.955159 
L 144.93531 239.428473 
L 146.08557 239.428473 
L 146.08557 238.901787 
L 146.216039 238.901787 
L 146.324022 237.321729 
L 146.538004 237.321729 
L 146.538004 236.268356 
L 146.791364 236.268356 
L 146.854132 235.214984 
L 146.999721 235.214984 
L 147.082371 234.161612 
L 147.185137 234.161612 
L 147.226074 233.10824 
L 147.307662 233.10824 
L 147.327999 231.001496 
L 147.509976 231.001496 
L 147.590249 229.421437 
L 147.670154 229.421437 
L 147.749695 227.314693 
L 147.828875 227.314693 
L 147.86833 226.261321 
L 147.946974 226.261321 
L 148.025265 223.627891 
L 148.064279 223.627891 
L 148.161434 221.521146 
L 148.200145 221.521146 
L 148.27731 219.414402 
L 148.354135 219.414402 
L 148.449693 215.727599 
L 148.468742 215.727599 
L 148.563676 213.094169 
L 148.601505 213.094169 
L 148.695721 210.460738 
L 148.714503 210.460738 
L 148.808112 207.827308 
L 148.826773 207.827308 
L 148.919783 204.667192 
L 148.938326 204.667192 
L 149.049169 202.033761 
L 149.067574 202.033761 
L 149.177602 200.453703 
L 149.232356 200.453703 
L 149.305096 197.820273 
L 149.359452 197.820273 
L 149.413639 192.553412 
L 149.503579 192.553412 
L 149.610898 188.866609 
L 149.628721 188.866609 
L 149.717561 186.759865 
L 149.752971 186.759865 
L 149.85877 184.126434 
L 149.893895 184.126434 
L 149.981398 176.752829 
L 153.090987 176.752829 
L 153.090987 176.226143 
L 153.707991 176.226143 
L 153.707991 175.699457 
L 153.848404 175.699457 
L 153.876352 174.646085 
L 154.015422 174.646085 
L 154.015422 174.119399 
L 154.707925 174.119399 
L 154.707925 173.592713 
L 156.586556 173.592713 
L 156.681918 172.539341 
L 156.847557 172.539341 
L 156.953214 170.959282 
L 157.231877 170.959282 
L 157.231877 170.432596 
L 157.392398 170.432596 
L 157.392398 169.90591 
L 157.630442 169.90591 
L 157.697862 168.325852 
L 157.831925 168.325852 
L 157.831925 167.27248 
L 157.98704 167.27248 
L 158.042106 166.219108 
L 158.107956 166.219108 
L 158.173558 164.112363 
L 158.325678 164.112363 
L 158.325678 163.585677 
L 158.530025 163.585677 
L 158.604712 162.005619 
L 158.921223 162.005619 
L 158.921223 161.478933 
L 159.149734 161.478933 
L 159.149734 160.425561 
L 159.456591 160.425561 
L 159.497101 159.372189 
L 159.758143 159.372189 
L 159.778062 158.318817 
L 160.297798 158.318817 
L 160.297798 157.79213 
L 160.670589 157.79213 
L 160.764907 156.738758 
L 160.793103 156.738758 
L 160.8961 154.105328 
L 160.998493 154.105328 
L 161.109513 153.051956 
L 161.192316 153.051956 
L 161.228992 151.998584 
L 161.329454 151.998584 
L 161.338558 150.945211 
L 161.456484 150.945211 
L 161.564634 147.785095 
L 161.573617 147.785095 
L 161.6095 146.205037 
L 161.7523 146.205037 
L 161.840959 143.571606 
L 161.88512 143.571606 
L 161.981883 140.938176 
L 162.00818 140.938176 
L 162.051921 138.304745 
L 163.291183 138.304745 
L 163.291183 137.778059 
L 163.788565 137.778059 
L 163.875347 136.724687 
L 164.241356 136.724687 
L 164.348911 135.144629 
L 164.524182 135.144629 
L 164.524182 134.617943 
L 164.757663 134.617943 
L 164.757663 134.091257 
L 164.958502 134.091257 
L 164.973287 133.037885 
L 165.324425 133.037885 
L 165.324425 132.511199 
L 166.500553 132.511199 
L 166.507321 131.457826 
L 166.628709 131.457826 
L 166.642144 130.404454 
L 166.809221 130.404454 
L 166.915315 128.824396 
L 166.968122 128.824396 
L 166.974711 127.244338 
L 167.079807 127.244338 
L 167.079807 126.717652 
L 167.436318 126.717652 
L 167.436318 126.190966 
L 167.741609 126.190966 
L 167.741609 125.66428 
L 168.183606 125.66428 
L 168.183606 125.137593 
L 168.391365 125.137593 
L 168.391365 124.610907 
L 168.632659 124.610907 
L 168.662588 123.030849 
L 168.746115 123.030849 
L 168.841088 120.397419 
L 168.858837 120.397419 
L 168.9532 118.290674 
L 169.029495 118.290674 
L 169.134586 116.18393 
L 169.813865 116.18393 
L 169.892068 115.130558 
L 170.548375 115.130558 
L 170.548375 114.603872 
L 170.713981 114.603872 
L 170.751159 113.023814 
L 171.361114 113.023814 
L 171.361114 112.497128 
L 171.483639 112.497128 
L 171.564846 110.390383 
L 171.970255 110.390383 
L 171.994974 108.810325 
L 172.118046 108.810325 
L 172.118046 108.283639 
L 172.254864 108.283639 
L 172.332566 104.596836 
L 172.434028 104.596836 
L 172.544479 101.963406 
L 172.549266 101.963406 
L 172.658992 100.910034 
L 172.791647 100.910034 
L 172.852895 99.329976 
L 172.951383 99.329976 
L 173.03536 97.749917 
L 173.706448 97.749917 
L 173.777957 96.169859 
L 173.844732 96.169859 
L 173.844732 95.643173 
L 173.995148 95.643173 
L 174.039142 94.063115 
L 174.122426 94.063115 
L 174.166101 92.483056 
L 174.613949 92.483056 
L 174.613949 91.95637 
L 174.800015 91.95637 
L 174.800015 91.429684 
L 175.067161 91.429684 
L 175.067161 90.902998 
L 175.199215 90.902998 
L 175.264868 89.849626 
L 175.516968 89.849626 
L 175.516968 89.32294 
L 175.649678 89.32294 
L 175.717652 87.742882 
L 176.02618 87.742882 
L 176.02618 87.216196 
L 176.143406 87.216196 
L 176.162868 85.636137 
L 176.398563 85.636137 
L 176.398563 85.109451 
L 176.596999 85.109451 
L 176.596999 84.582765 
L 176.714232 84.582765 
L 176.774433 83.002707 
L 176.868082 83.002707 
L 176.868082 82.476021 
L 177.153401 82.476021 
L 177.153401 81.949335 
L 177.459425 81.949335 
L 177.459425 81.422649 
L 177.954316 81.422649 
L 177.961335 80.369277 
L 178.325932 80.369277 
L 178.325932 79.842591 
L 178.793811 79.842591 
L 178.863922 78.262532 
L 178.963594 78.262532 
L 178.963594 77.735846 
L 179.128459 77.735846 
L 179.128459 77.20916 
L 179.366397 77.20916 
L 179.366397 76.682474 
L 179.942718 76.682474 
L 179.97401 75.102416 
L 180.064442 75.102416 
L 180.064442 74.57573 
L 180.20076 74.57573 
L 180.271595 72.995672 
L 180.726638 72.995672 
L 180.810279 71.415613 
L 180.961604 71.415613 
L 181.0147 70.362241 
L 181.158427 70.362241 
L 181.158427 69.835555 
L 182.032924 69.835555 
L 182.035702 68.782183 
L 182.393133 68.782183 
L 182.501655 67.728811 
L 182.799311 67.728811 
L 182.900055 66.675439 
L 182.929109 66.675439 
L 182.929109 66.148752 
L 183.284386 66.148752 
L 183.37723 65.09538 
L 183.642705 65.09538 
L 183.642705 64.568694 
L 183.778969 64.568694 
L 183.778969 64.042008 
L 183.916672 64.042008 
L 183.916672 63.515322 
L 184.06319 63.515322 
L 184.06319 62.988636 
L 184.401161 62.988636 
L 184.401161 62.46195 
L 184.677886 62.46195 
L 184.761242 59.82852 
L 184.822907 59.82852 
L 184.822907 59.301833 
L 184.990197 59.301833 
L 184.990197 58.775147 
L 185.306227 58.775147 
L 185.306227 58.248461 
L 186.171014 58.248461 
L 186.171014 57.721775 
L 186.395281 57.721775 
L 186.498817 56.668403 
L 186.667893 56.668403 
L 186.667893 56.141717 
L 186.944696 56.141717 
L 186.944696 55.615031 
L 187.132351 55.615031 
L 187.132351 55.088345 
L 187.373323 55.088345 
L 187.46309 54.034973 
L 187.566564 54.034973 
L 187.566564 53.508287 
L 187.785676 53.508287 
L 187.881299 52.454914 
L 188.004042 52.454914 
L 188.004042 51.928228 
L 189.099313 51.928228 
L 189.099313 51.401542 
L 189.467782 51.401542 
L 189.467782 50.874856 
L 189.945502 50.874856 
L 189.945502 50.34817 
L 190.310526 50.34817 
L 190.310526 49.821484 
L 191.213165 49.821484 
L 191.213165 49.294798 
L 191.498034 49.294798 
L 191.498034 48.768112 
L 191.813244 48.768112 
L 191.886033 47.71474 
L 192.256314 47.71474 
L 192.256314 47.188054 
L 192.468354 47.188054 
L 192.468354 46.661368 
L 192.88187 46.661368 
L 192.88187 46.134681 
L 193.164431 46.134681 
L 193.164431 45.607995 
L 193.316383 45.607995 
L 193.388968 44.554623 
L 193.69911 44.554623 
L 193.69911 44.027937 
L 194.18608 44.027937 
L 194.275807 42.974565 
L 194.35137 42.974565 
L 194.35137 42.447879 
L 194.777945 42.447879 
L 194.820701 41.394507 
L 194.953644 41.394507 
L 194.953644 40.867821 
L 195.199559 40.867821 
L 195.199559 40.341135 
L 195.363321 40.341135 
L 195.416279 39.287762 
L 196.058195 39.287762 
L 196.058195 38.761076 
L 196.214125 38.761076 
L 196.214125 38.23439 
L 196.89076 38.23439 
L 196.89076 37.707704 
L 197.073495 37.707704 
L 197.147224 36.654332 
L 197.845438 36.654332 
L 197.845438 36.127646 
L 197.969538 36.127646 
L 197.969538 35.60096 
L 200.960736 35.60096 
L 200.960736 35.074274 
L 201.136278 35.074274 
L 201.136278 34.547588 
L 202.080199 34.547588 
L 202.092516 33.494215 
L 202.586751 33.494215 
L 202.586751 32.967529 
L 204.37365 32.967529 
L 204.37365 32.440843 
L 204.508169 32.440843 
L 204.508169 31.914157 
L 204.773378 31.914157 
L 204.773378 31.387471 
L 205.732221 31.387471 
L 205.732221 30.860785 
L 207.925387 30.860785 
L 207.925387 30.334099 
L 338.688 30.334099 
L 338.688 30.334099 
" style="fill:none;stroke:#0000ff;stroke-linecap:square;stroke-width:1.5;"/>
   </g>
   <g id="line2d_39">
    <defs>
     <path d="M 0 -6 
L -1.347084 -1.854102 
L -5.706339 -1.854102 
L -2.179628 0.708204 
L -3.526712 4.854102 
L -0 2.291796 
L 3.526712 4.854102 
L 2.179628 0.708204 
L 5.706339 -1.854102 
L 1.347084 -1.854102 
z
" id="m3db0db1d79" style="stroke:#0000ff;stroke-linejoin:bevel;stroke-width:1.5;"/>
    </defs>
    <g>
     <use style="fill-opacity:0;stroke:#0000ff;stroke-linejoin:bevel;stroke-width:1.5;" x="128.350967" xlink:href="#m3db0db1d79" y="257.3358"/>
     <use style="fill-opacity:0;stroke:#0000ff;stroke-linejoin:bevel;stroke-width:1.5;" x="158.107956" xlink:href="#m3db0db1d79" y="165.692422"/>
     <use style="fill-opacity:0;stroke:#0000ff;stroke-linejoin:bevel;stroke-width:1.5;" x="192.468354" xlink:href="#m3db0db1d79" y="47.188054"/>
     <use style="fill-opacity:0;stroke:#0000ff;stroke-linejoin:bevel;stroke-width:1.5;" x="207.925387" xlink:href="#m3db0db1d79" y="30.334099"/>
     <use style="fill-opacity:0;stroke:#0000ff;stroke-linejoin:bevel;stroke-width:1.5;" x="207.925387" xlink:href="#m3db0db1d79" y="30.334099"/>
     <use style="fill-opacity:0;stroke:#0000ff;stroke-linejoin:bevel;stroke-width:1.5;" x="338.688" xlink:href="#m3db0db1d79" y="30.334099"/>
    </g>
   </g>
   <g id="line2d_40">
    <path style="fill:none;stroke:#0000ff;stroke-linecap:square;stroke-width:1.5;"/>
    <g/>
   </g>
   <g id="line2d_41">
    <path clip-path="url(#p172e43526f)" d="M 149.998846 176.752829 
" style="fill:none;stroke:#0000ff;stroke-linecap:square;stroke-width:1.5;"/>
    <defs>
     <path d="M -12 12 
L 12 -12 
M -12 -12 
L 12 12 
" id="md198cc4fd4" style="stroke:#0000ff;"/>
    </defs>
    <g clip-path="url(#p172e43526f)">
     <use style="fill:#0000ff;stroke:#0000ff;" x="149.998846" xlink:href="#md198cc4fd4" y="176.752829"/>
    </g>
   </g>
   <g id="line2d_42">
    <defs>
     <path d="M 0 1.5 
C 0.397805 1.5 0.77937 1.341951 1.06066 1.06066 
C 1.341951 0.77937 1.5 0.397805 1.5 0 
C 1.5 -0.397805 1.341951 -0.77937 1.06066 -1.06066 
C 0.77937 -1.341951 0.397805 -1.5 0 -1.5 
C -0.397805 -1.5 -0.77937 -1.341951 -1.06066 -1.06066 
C -1.341951 -0.77937 -1.5 -0.397805 -1.5 0 
C -1.5 0.397805 -1.341951 0.77937 -1.06066 1.06066 
C -0.77937 1.341951 -0.397805 1.5 0 1.5 
z
" id="mbf2c1f058a" style="stroke:#000000;"/>
    </defs>
    <g>
     <use style="stroke:#000000;" x="217.078901" xlink:href="#mbf2c1f058a" y="256.809114"/>
     <use style="stroke:#000000;" x="217.078901" xlink:href="#mbf2c1f058a" y="256.809114"/>
    </g>
   </g>
   <g id="line2d_43">
    <path d="M 17.444571 298.944 
L 17.444571 289.990337 
L 104.355088 289.990337 
L 104.355088 289.463651 
L 104.474128 289.463651 
L 104.474128 288.936964 
L 104.942325 288.936964 
L 104.942325 288.410278 
L 105.171792 288.410278 
L 105.171792 287.883592 
L 105.285403 287.883592 
L 105.285403 287.356906 
L 105.51043 287.356906 
L 105.51043 286.83022 
L 105.842616 286.83022 
L 105.842616 285.776848 
L 106.382575 285.776848 
L 106.382575 285.250162 
L 106.698704 285.250162 
L 106.698704 284.723476 
L 106.802819 284.723476 
L 106.802819 284.19679 
L 106.906317 284.19679 
L 106.906317 283.670104 
L 107.111487 283.670104 
L 107.111487 283.143418 
L 107.514726 283.143418 
L 107.514726 282.616732 
L 107.614095 282.616732 
L 107.614095 281.563359 
L 107.811151 281.563359 
L 107.811151 280.509987 
L 108.483824 280.509987 
L 108.483824 279.983301 
L 117.654224 279.983301 
L 117.654224 279.456615 
L 118.363901 279.456615 
L 118.363901 278.929929 
L 119.65247 278.929929 
L 119.65247 278.403243 
L 120.429836 278.403243 
L 120.429836 277.876557 
L 120.618882 277.876557 
L 120.618882 277.349871 
L 121.400219 277.349871 
L 121.400219 276.823185 
L 122.699028 276.823185 
L 122.699028 276.296499 
L 125.470548 276.296499 
L 125.470548 275.769812 
L 126.405947 275.769812 
L 126.405947 275.243126 
L 128.91501 275.243126 
L 128.91501 274.71644 
L 129.089405 274.71644 
L 129.089405 274.189754 
L 130.76994 274.189754 
L 130.76994 273.663068 
L 131.108073 273.663068 
L 131.108073 273.136382 
L 136.227776 273.136382 
L 136.227776 272.609696 
L 140.011351 272.609696 
L 140.011351 272.08301 
L 140.317849 272.08301 
L 140.317849 271.556324 
L 140.393639 271.556324 
L 140.393639 271.029638 
L 141.350061 271.029638 
L 141.350061 270.502952 
L 144.462672 270.502952 
L 144.462672 269.976266 
L 147.590249 269.976266 
L 147.590249 269.449579 
L 149.039959 269.449579 
L 149.039959 268.922893 
L 152.936949 268.922893 
L 152.936949 268.396207 
L 153.820412 268.396207 
L 153.820412 267.869521 
L 154.998366 267.869521 
L 154.998366 267.342835 
L 156.526689 267.342835 
L 156.526689 266.816149 
L 159.703247 266.816149 
L 159.703247 266.289463 
L 164.817412 266.289463 
L 164.817412 265.762777 
L 168.844047 265.762777 
L 168.844047 265.236091 
L 168.973774 265.236091 
L 168.973774 264.182719 
L 173.199806 264.182719 
L 173.199806 263.656033 
L 173.202112 263.656033 
L 173.202112 263.129347 
L 177.957826 263.129347 
L 177.957826 262.60266 
L 180.71915 262.60266 
L 180.71915 262.075974 
L 183.48365 262.075974 
L 183.48365 261.549288 
L 186.147989 261.549288 
L 186.147989 261.022602 
L 191.531908 261.022602 
L 191.531908 260.495916 
L 191.53513 260.495916 
L 191.53513 259.96923 
L 194.489965 259.96923 
L 194.489965 259.442544 
L 202.090757 259.442544 
L 202.090757 258.915858 
L 202.948029 258.915858 
L 202.948029 258.389172 
L 213.812992 258.389172 
L 213.812992 257.862486 
L 214.689481 257.862486 
L 214.689481 257.3358 
L 217.078901 257.3358 
L 217.078901 256.809114 
L 338.688 256.809114 
" style="fill:none;stroke:#000000;stroke-linecap:square;stroke-width:1.5;"/>
   </g>
   <g id="line2d_44">
    <defs>
     <path d="M 0 6 
C 1.591219 6 3.117479 5.367802 4.242641 4.242641 
C 5.367802 3.117479 6 1.591219 6 0 
C 6 -1.591219 5.367802 -3.117479 4.242641 -4.242641 
C 3.117479 -5.367802 1.591219 -6 0 -6 
C -1.591219 -6 -3.117479 -5.367802 -4.242641 -4.242641 
C -5.367802 -3.117479 -6 -1.591219 -6 0 
C -6 1.591219 -5.367802 3.117479 -4.242641 4.242641 
C -3.117479 5.367802 -1.591219 6 0 6 
z
" id="m218f23456c" style="stroke:#000000;stroke-width:1.5;"/>
    </defs>
    <g>
     <use style="fill-opacity:0;stroke:#000000;stroke-width:1.5;" x="153.820412" xlink:href="#m218f23456c" y="267.869521"/>
     <use style="fill-opacity:0;stroke:#000000;stroke-width:1.5;" x="217.078901" xlink:href="#m218f23456c" y="257.3358"/>
     <use style="fill-opacity:0;stroke:#000000;stroke-width:1.5;" x="217.078901" xlink:href="#m218f23456c" y="256.809114"/>
     <use style="fill-opacity:0;stroke:#000000;stroke-width:1.5;" x="217.078901" xlink:href="#m218f23456c" y="256.809114"/>
     <use style="fill-opacity:0;stroke:#000000;stroke-width:1.5;" x="338.688" xlink:href="#m218f23456c" y="256.809114"/>
    </g>
   </g>
   <g id="line2d_45">
    <path style="fill:none;stroke:#000000;stroke-linecap:square;stroke-width:1.5;"/>
    <g/>
   </g>
   <g id="line2d_46">
    <path clip-path="url(#p172e43526f)" d="M 149.998846 268.922893 
" style="fill:none;stroke:#000000;stroke-linecap:square;stroke-width:1.5;"/>
    <defs>
     <path d="M -12 12 
L 12 -12 
M -12 -12 
L 12 12 
" id="m8d9d2ccff5" style="stroke:#000000;"/>
    </defs>
    <g clip-path="url(#p172e43526f)">
     <use style="stroke:#000000;" x="149.998846" xlink:href="#m8d9d2ccff5" y="268.922893"/>
    </g>
   </g>
   <g id="line2d_47">
    <defs>
     <path d="M 0 1.5 
C 0.397805 1.5 0.77937 1.341951 1.06066 1.06066 
C 1.341951 0.77937 1.5 0.397805 1.5 0 
C 1.5 -0.397805 1.341951 -0.77937 1.06066 -1.06066 
C 0.77937 -1.341951 0.397805 -1.5 0 -1.5 
C -0.397805 -1.5 -0.77937 -1.341951 -1.06066 -1.06066 
C -1.341951 -0.77937 -1.5 -0.397805 -1.5 0 
C -1.5 0.397805 -1.341951 0.77937 -1.06066 1.06066 
C -0.77937 1.341951 -0.397805 1.5 0 1.5 
z
" id="m4852a0af55" style="stroke:#ff0000;"/>
    </defs>
    <g>
     <use style="fill:#ff0000;stroke:#ff0000;" x="208.654733" xlink:href="#m4852a0af55" y="283.143418"/>
     <use style="fill:#ff0000;stroke:#ff0000;" x="208.654733" xlink:href="#m4852a0af55" y="283.143418"/>
    </g>
   </g>
   <g id="line2d_48">
    <path d="M 5.356583 298.944 
L 5.356583 296.31057 
L 110.358901 296.31057 
L 110.358901 295.783884 
L 110.527398 295.783884 
L 110.527398 295.257197 
L 111.780817 295.257197 
L 111.780817 294.730511 
L 112.58145 294.730511 
L 112.58145 294.203825 
L 113.699967 294.203825 
L 113.699967 293.150453 
L 113.804498 293.150453 
L 113.804498 292.623767 
L 114.618932 292.623767 
L 114.618932 292.097081 
L 120.33454 292.097081 
L 120.33454 291.570395 
L 123.293723 291.570395 
L 123.293723 291.043709 
L 125.927192 291.043709 
L 125.927192 290.517023 
L 137.585209 290.517023 
L 137.585209 289.990337 
L 137.936996 289.990337 
L 137.936996 289.463651 
L 140.180592 289.463651 
L 140.180592 288.936964 
L 147.90278 288.936964 
L 147.90278 288.410278 
L 163.035004 288.410278 
L 163.035004 287.883592 
L 183.650303 287.883592 
L 183.650303 287.356906 
L 186.014725 287.356906 
L 186.014725 286.303534 
L 188.096517 286.303534 
L 188.096517 285.776848 
L 189.95697 285.776848 
L 189.95697 285.250162 
L 197.094592 285.250162 
L 197.094592 284.723476 
L 198.227747 284.723476 
L 198.227747 284.19679 
L 206.055773 284.19679 
L 206.055773 283.670104 
L 208.654733 283.670104 
L 208.654733 283.143418 
L 338.688 283.143418 
" style="fill:none;stroke:#ff0000;stroke-linecap:square;stroke-width:1.5;"/>
   </g>
   <g id="line2d_49">
    <defs>
     <path d="M -6 6 
L 6 6 
L 6 -6 
L -6 -6 
z
" id="m2fcd8134bc" style="stroke:#ff0000;stroke-linejoin:miter;stroke-width:1.5;"/>
    </defs>
    <g>
     <use style="fill-opacity:0;stroke:#ff0000;stroke-linejoin:miter;stroke-width:1.5;" x="163.035004" xlink:href="#m2fcd8134bc" y="288.410278"/>
     <use style="fill-opacity:0;stroke:#ff0000;stroke-linejoin:miter;stroke-width:1.5;" x="208.654733" xlink:href="#m2fcd8134bc" y="283.670104"/>
     <use style="fill-opacity:0;stroke:#ff0000;stroke-linejoin:miter;stroke-width:1.5;" x="208.654733" xlink:href="#m2fcd8134bc" y="283.143418"/>
     <use style="fill-opacity:0;stroke:#ff0000;stroke-linejoin:miter;stroke-width:1.5;" x="208.654733" xlink:href="#m2fcd8134bc" y="283.143418"/>
     <use style="fill-opacity:0;stroke:#ff0000;stroke-linejoin:miter;stroke-width:1.5;" x="338.688" xlink:href="#m2fcd8134bc" y="283.143418"/>
    </g>
   </g>
   <g id="line2d_50">
    <path style="fill:none;stroke:#ff0000;stroke-linecap:square;stroke-width:1.5;"/>
    <g/>
   </g>
   <g id="line2d_51">
    <path clip-path="url(#p172e43526f)" d="M 149.998846 288.410278 
" style="fill:none;stroke:#ff0000;stroke-linecap:square;stroke-width:1.5;"/>
    <defs>
     <path d="M -12 12 
L 12 -12 
M -12 -12 
L 12 12 
" id="m6ca29a5336" style="stroke:#ff0000;"/>
    </defs>
    <g clip-path="url(#p172e43526f)">
     <use style="fill:#ff0000;stroke:#ff0000;" x="149.998846" xlink:href="#m6ca29a5336" y="288.410278"/>
    </g>
   </g>
   <g id="line2d_52">
    <defs>
     <path d="M 0 1.5 
C 0.397805 1.5 0.77937 1.341951 1.06066 1.06066 
C 1.341951 0.77937 1.5 0.397805 1.5 0 
C 1.5 -0.397805 1.341951 -0.77937 1.06066 -1.06066 
C 0.77937 -1.341951 0.397805 -1.5 0 -1.5 
C -0.397805 -1.5 -0.77937 -1.341951 -1.06066 -1.06066 
C -1.341951 -0.77937 -1.5 -0.397805 -1.5 0 
C -1.5 0.397805 -1.341951 0.77937 -1.06066 1.06066 
C -0.77937 1.341951 -0.397805 1.5 0 1.5 
z
" id="m959e90e067" style="stroke:#bf00bf;"/>
    </defs>
    <g>
     <use style="fill:#bf00bf;stroke:#bf00bf;" x="187.600414" xlink:href="#m959e90e067" y="293.677139"/>
     <use style="fill:#bf00bf;stroke:#bf00bf;" x="187.600414" xlink:href="#m959e90e067" y="293.677139"/>
    </g>
   </g>
   <g id="line2d_53">
    <path d="M 122.244662 298.944 
L 122.244662 298.417314 
L 142.151083 298.417314 
L 142.151083 297.890628 
L 149.72642 297.890628 
L 149.72642 297.363942 
L 153.231004 297.363942 
L 153.231004 296.31057 
L 158.994256 296.31057 
L 158.994256 295.783884 
L 159.356179 295.783884 
L 159.356179 295.257197 
L 163.777687 295.257197 
L 163.777687 294.730511 
L 167.387326 294.730511 
L 167.387326 294.203825 
L 187.600414 294.203825 
L 187.600414 293.677139 
L 338.688 293.677139 
" style="fill:none;stroke:#bf00bf;stroke-linecap:square;stroke-width:1.5;"/>
   </g>
   <g id="line2d_54">
    <defs>
     <path d="M -0 8.485281 
L 8.485281 0 
L 0 -8.485281 
L -8.485281 -0 
z
" id="m96952dcc00" style="stroke:#bf00bf;stroke-linejoin:miter;stroke-width:1.5;"/>
    </defs>
    <g>
     <use style="fill-opacity:0;stroke:#bf00bf;stroke-linejoin:miter;stroke-width:1.5;" x="163.777687" xlink:href="#m96952dcc00" y="294.730511"/>
     <use style="fill-opacity:0;stroke:#bf00bf;stroke-linejoin:miter;stroke-width:1.5;" x="187.600414" xlink:href="#m96952dcc00" y="294.203825"/>
     <use style="fill-opacity:0;stroke:#bf00bf;stroke-linejoin:miter;stroke-width:1.5;" x="187.600414" xlink:href="#m96952dcc00" y="293.677139"/>
     <use style="fill-opacity:0;stroke:#bf00bf;stroke-linejoin:miter;stroke-width:1.5;" x="187.600414" xlink:href="#m96952dcc00" y="293.677139"/>
     <use style="fill-opacity:0;stroke:#bf00bf;stroke-linejoin:miter;stroke-width:1.5;" x="338.688" xlink:href="#m96952dcc00" y="293.677139"/>
    </g>
   </g>
   <g id="line2d_55">
    <path style="fill:none;stroke:#bf00bf;stroke-linecap:square;stroke-width:1.5;"/>
    <g/>
   </g>
   <g id="line2d_56">
    <path clip-path="url(#p172e43526f)" d="M 149.998846 297.363942 
" style="fill:none;stroke:#bf00bf;stroke-linecap:square;stroke-width:1.5;"/>
    <defs>
     <path d="M -12 12 
L 12 -12 
M -12 -12 
L 12 12 
" id="m730b0db983" style="stroke:#bf00bf;"/>
    </defs>
    <g clip-path="url(#p172e43526f)">
     <use style="fill:#bf00bf;stroke:#bf00bf;" x="149.998846" xlink:href="#m730b0db983" y="297.363942"/>
    </g>
   </g>
   <g id="line2d_57">
    <path d="M 338.688 293.677139 
L 369.60768 293.571802 
" style="fill:none;stroke:#bf00bf;stroke-linecap:square;stroke-width:1.5;"/>
    <g>
     <use style="fill-opacity:0;stroke:#bf00bf;stroke-linejoin:miter;stroke-width:1.5;" x="338.688" xlink:href="#m96952dcc00" y="293.677139"/>
     <use style="fill-opacity:0;stroke:#bf00bf;stroke-linejoin:miter;stroke-width:1.5;" x="369.60768" xlink:href="#m96952dcc00" y="293.571802"/>
    </g>
   </g>
   <g id="line2d_58">
    <path d="M 338.688 283.143418 
L 369.60768 241.998701 
" style="fill:none;stroke:#ff0000;stroke-linecap:square;stroke-width:1.5;"/>
    <g>
     <use style="fill-opacity:0;stroke:#ff0000;stroke-linejoin:miter;stroke-width:1.5;" x="338.688" xlink:href="#m2fcd8134bc" y="283.143418"/>
     <use style="fill-opacity:0;stroke:#ff0000;stroke-linejoin:miter;stroke-width:1.5;" x="369.60768" xlink:href="#m2fcd8134bc" y="241.998701"/>
    </g>
   </g>
   <g id="line2d_59">
    <path d="M 338.688 256.809114 
L 369.60768 190.4256 
" style="fill:none;stroke:#000000;stroke-linecap:square;stroke-width:1.5;"/>
    <g>
     <use style="fill-opacity:0;stroke:#000000;stroke-width:1.5;" x="338.688" xlink:href="#m218f23456c" y="256.809114"/>
     <use style="fill-opacity:0;stroke:#000000;stroke-width:1.5;" x="369.60768" xlink:href="#m218f23456c" y="190.4256"/>
    </g>
   </g>
   <g id="line2d_60">
    <path d="M 338.688 30.334099 
L 369.60768 138.852499 
" style="fill:none;stroke:#0000ff;stroke-linecap:square;stroke-width:1.5;"/>
    <g>
     <use style="fill-opacity:0;stroke:#0000ff;stroke-linejoin:bevel;stroke-width:1.5;" x="338.688" xlink:href="#m3db0db1d79" y="30.334099"/>
     <use style="fill-opacity:0;stroke:#0000ff;stroke-linejoin:bevel;stroke-width:1.5;" x="369.60768" xlink:href="#m3db0db1d79" y="138.852499"/>
    </g>
   </g>
   <g id="line2d_61">
    <path d="M 338.688 30.334099 
L 369.60768 87.279398 
" style="fill:none;stroke:#008000;stroke-linecap:square;stroke-width:1.5;"/>
    <g>
     <use style="fill-opacity:0;stroke:#008000;stroke-linejoin:miter;stroke-width:1.5;" x="338.688" xlink:href="#m5ec351c9ef" y="30.334099"/>
     <use style="fill-opacity:0;stroke:#008000;stroke-linejoin:miter;stroke-width:1.5;" x="369.60768" xlink:href="#m5ec351c9ef" y="87.279398"/>
    </g>
   </g>
   <g id="line2d_62">
    <path d="M 338.688 30.334099 
L 369.60768 35.706297 
" style="fill:none;stroke:#00bfbf;stroke-linecap:square;stroke-width:1.5;"/>
    <g>
     <use style="fill-opacity:0;stroke:#00bfbf;stroke-width:1.5;" x="338.688" xlink:href="#mb70c7ad769" y="30.334099"/>
     <use style="fill-opacity:0;stroke:#00bfbf;stroke-width:1.5;" x="369.60768" xlink:href="#mb70c7ad769" y="35.706297"/>
    </g>
   </g>
   <g id="line2d_63">
    <path d="M 338.688 298.944 
L 338.688 30.334099 
" style="fill:none;stroke:#000000;stroke-linecap:square;stroke-width:1.5;"/>
   </g>
   <g id="patch_3">
    <path d="M 57.6 298.944 
L 57.6 27.648 
" style="fill:none;stroke:#000000;stroke-linecap:square;stroke-linejoin:miter;stroke-width:0.8;"/>
   </g>
   <g id="patch_4">
    <path d="M 338.688 298.944 
L 338.688 27.648 
" style="fill:none;stroke:#000000;stroke-linecap:square;stroke-linejoin:miter;stroke-width:0.8;"/>
   </g>
   <g id="patch_5">
    <path d="M 57.6 298.944 
L 338.688 298.944 
" style="fill:none;stroke:#000000;stroke-linecap:square;stroke-linejoin:miter;stroke-width:0.8;"/>
   </g>
   <g id="patch_6">
    <path d="M 57.6 27.648 
L 338.688 27.648 
" style="fill:none;stroke:#000000;stroke-linecap:square;stroke-linejoin:miter;stroke-width:0.8;"/>
   </g>
   <g id="text_13">
    <!-- 40-D -->
    <g transform="translate(375.22944 298.262739)scale(0.17 -0.17)">
     <defs>
      <path d="M 19.671875 64.796875 
L 19.671875 8.109375 
L 31.59375 8.109375 
Q 46.6875 8.109375 53.6875 14.9375 
Q 60.6875 21.78125 60.6875 36.53125 
Q 60.6875 51.171875 53.6875 57.984375 
Q 46.6875 64.796875 31.59375 64.796875 
z
M 9.8125 72.90625 
L 30.078125 72.90625 
Q 51.265625 72.90625 61.171875 64.09375 
Q 71.09375 55.28125 71.09375 36.53125 
Q 71.09375 17.671875 61.125 8.828125 
Q 51.171875 0 30.078125 0 
L 9.8125 0 
z
" id="DejaVuSans-68"/>
     </defs>
     <use xlink:href="#DejaVuSans-52"/>
     <use x="63.623047" xlink:href="#DejaVuSans-48"/>
     <use x="127.246094" xlink:href="#DejaVuSans-45"/>
     <use x="163.330078" xlink:href="#DejaVuSans-68"/>
    </g>
   </g>
   <g id="text_14">
    <!-- 20-D -->
    <g transform="translate(375.22944 246.689638)scale(0.17 -0.17)">
     <use xlink:href="#DejaVuSans-50"/>
     <use x="63.623047" xlink:href="#DejaVuSans-48"/>
     <use x="127.246094" xlink:href="#DejaVuSans-45"/>
     <use x="163.330078" xlink:href="#DejaVuSans-68"/>
    </g>
   </g>
   <g id="text_15">
    <!-- 10-D -->
    <g transform="translate(375.22944 195.116537)scale(0.17 -0.17)">
     <use xlink:href="#DejaVuSans-49"/>
     <use x="63.623047" xlink:href="#DejaVuSans-48"/>
     <use x="127.246094" xlink:href="#DejaVuSans-45"/>
     <use x="163.330078" xlink:href="#DejaVuSans-68"/>
    </g>
   </g>
   <g id="text_16">
    <!-- 5-D -->
    <g transform="translate(375.22944 143.543437)scale(0.17 -0.17)">
     <defs>
      <path d="M 10.796875 72.90625 
L 49.515625 72.90625 
L 49.515625 64.59375 
L 19.828125 64.59375 
L 19.828125 46.734375 
Q 21.96875 47.46875 24.109375 47.828125 
Q 26.265625 48.1875 28.421875 48.1875 
Q 40.625 48.1875 47.75 41.5 
Q 54.890625 34.8125 54.890625 23.390625 
Q 54.890625 11.625 47.5625 5.09375 
Q 40.234375 -1.421875 26.90625 -1.421875 
Q 22.3125 -1.421875 17.546875 -0.640625 
Q 12.796875 0.140625 7.71875 1.703125 
L 7.71875 11.625 
Q 12.109375 9.234375 16.796875 8.0625 
Q 21.484375 6.890625 26.703125 6.890625 
Q 35.15625 6.890625 40.078125 11.328125 
Q 45.015625 15.765625 45.015625 23.390625 
Q 45.015625 31 40.078125 35.4375 
Q 35.15625 39.890625 26.703125 39.890625 
Q 22.75 39.890625 18.8125 39.015625 
Q 14.890625 38.140625 10.796875 36.28125 
z
" id="DejaVuSans-53"/>
     </defs>
     <use xlink:href="#DejaVuSans-53"/>
     <use x="63.623047" xlink:href="#DejaVuSans-45"/>
     <use x="99.707031" xlink:href="#DejaVuSans-68"/>
    </g>
   </g>
   <g id="text_17">
    <!-- 3-D -->
    <g transform="translate(375.22944 91.970336)scale(0.17 -0.17)">
     <defs>
      <path d="M 40.578125 39.3125 
Q 47.65625 37.796875 51.625 33 
Q 55.609375 28.21875 55.609375 21.1875 
Q 55.609375 10.40625 48.1875 4.484375 
Q 40.765625 -1.421875 27.09375 -1.421875 
Q 22.515625 -1.421875 17.65625 -0.515625 
Q 12.796875 0.390625 7.625 2.203125 
L 7.625 11.71875 
Q 11.71875 9.328125 16.59375 8.109375 
Q 21.484375 6.890625 26.8125 6.890625 
Q 36.078125 6.890625 40.9375 10.546875 
Q 45.796875 14.203125 45.796875 21.1875 
Q 45.796875 27.640625 41.28125 31.265625 
Q 36.765625 34.90625 28.71875 34.90625 
L 20.21875 34.90625 
L 20.21875 43.015625 
L 29.109375 43.015625 
Q 36.375 43.015625 40.234375 45.921875 
Q 44.09375 48.828125 44.09375 54.296875 
Q 44.09375 59.90625 40.109375 62.90625 
Q 36.140625 65.921875 28.71875 65.921875 
Q 24.65625 65.921875 20.015625 65.03125 
Q 15.375 64.15625 9.8125 62.3125 
L 9.8125 71.09375 
Q 15.4375 72.65625 20.34375 73.4375 
Q 25.25 74.21875 29.59375 74.21875 
Q 40.828125 74.21875 47.359375 69.109375 
Q 53.90625 64.015625 53.90625 55.328125 
Q 53.90625 49.265625 50.4375 45.09375 
Q 46.96875 40.921875 40.578125 39.3125 
z
" id="DejaVuSans-51"/>
     </defs>
     <use xlink:href="#DejaVuSans-51"/>
     <use x="63.623047" xlink:href="#DejaVuSans-45"/>
     <use x="99.707031" xlink:href="#DejaVuSans-68"/>
    </g>
   </g>
   <g id="text_18">
    <!-- 2-D -->
    <g transform="translate(375.22944 40.397235)scale(0.17 -0.17)">
     <use xlink:href="#DejaVuSans-50"/>
     <use x="63.623047" xlink:href="#DejaVuSans-45"/>
     <use x="99.707031" xlink:href="#DejaVuSans-68"/>
    </g>
   </g>
   <g id="text_19">
    <!-- bbob f1 -->
    <g transform="translate(60.41088 38.111366)scale(0.102 -0.102)">
     <defs>
      <path d="M 48.6875 27.296875 
Q 48.6875 37.203125 44.609375 42.84375 
Q 40.53125 48.484375 33.40625 48.484375 
Q 26.265625 48.484375 22.1875 42.84375 
Q 18.109375 37.203125 18.109375 27.296875 
Q 18.109375 17.390625 22.1875 11.75 
Q 26.265625 6.109375 33.40625 6.109375 
Q 40.53125 6.109375 44.609375 11.75 
Q 48.6875 17.390625 48.6875 27.296875 
z
M 18.109375 46.390625 
Q 20.953125 51.265625 25.265625 53.625 
Q 29.59375 56 35.59375 56 
Q 45.5625 56 51.78125 48.09375 
Q 58.015625 40.1875 58.015625 27.296875 
Q 58.015625 14.40625 51.78125 6.484375 
Q 45.5625 -1.421875 35.59375 -1.421875 
Q 29.59375 -1.421875 25.265625 0.953125 
Q 20.953125 3.328125 18.109375 8.203125 
L 18.109375 0 
L 9.078125 0 
L 9.078125 75.984375 
L 18.109375 75.984375 
z
" id="DejaVuSans-98"/>
     </defs>
     <use xlink:href="#DejaVuSans-98"/>
     <use x="63.476562" xlink:href="#DejaVuSans-98"/>
     <use x="126.953125" xlink:href="#DejaVuSans-111"/>
     <use x="188.134766" xlink:href="#DejaVuSans-98"/>
     <use x="251.611328" xlink:href="#DejaVuSans-32"/>
     <use x="283.398438" xlink:href="#DejaVuSans-102"/>
     <use x="318.603516" xlink:href="#DejaVuSans-49"/>
    </g>
    <!-- 51 targets: 100..1e-08 -->
    <g transform="translate(60.41088 49.533135)scale(0.102 -0.102)">
     <defs>
      <path d="M 11.71875 12.40625 
L 22.015625 12.40625 
L 22.015625 0 
L 11.71875 0 
z
M 11.71875 51.703125 
L 22.015625 51.703125 
L 22.015625 39.3125 
L 11.71875 39.3125 
z
" id="DejaVuSans-58"/>
     </defs>
     <use xlink:href="#DejaVuSans-53"/>
     <use x="63.623047" xlink:href="#DejaVuSans-49"/>
     <use x="127.246094" xlink:href="#DejaVuSans-32"/>
     <use x="159.033203" xlink:href="#DejaVuSans-116"/>
     <use x="198.242188" xlink:href="#DejaVuSans-97"/>
     <use x="259.521484" xlink:href="#DejaVuSans-114"/>
     <use x="298.884766" xlink:href="#DejaVuSans-103"/>
     <use x="362.361328" xlink:href="#DejaVuSans-101"/>
     <use x="423.884766" xlink:href="#DejaVuSans-116"/>
     <use x="463.09375" xlink:href="#DejaVuSans-115"/>
     <use x="515.193359" xlink:href="#DejaVuSans-58"/>
     <use x="548.884766" xlink:href="#DejaVuSans-32"/>
     <use x="580.671875" xlink:href="#DejaVuSans-49"/>
     <use x="644.294922" xlink:href="#DejaVuSans-48"/>
     <use x="707.917969" xlink:href="#DejaVuSans-48"/>
     <use x="771.541016" xlink:href="#DejaVuSans-46"/>
     <use x="803.328125" xlink:href="#DejaVuSans-46"/>
     <use x="835.115234" xlink:href="#DejaVuSans-49"/>
     <use x="898.738281" xlink:href="#DejaVuSans-101"/>
     <use x="960.261719" xlink:href="#DejaVuSans-45"/>
     <use x="996.345703" xlink:href="#DejaVuSans-48"/>
     <use x="1059.96875" xlink:href="#DejaVuSans-56"/>
    </g>
    <!-- 15 instances -->
    <g transform="translate(60.41088 60.954904)scale(0.102 -0.102)">
     <use xlink:href="#DejaVuSans-49"/>
     <use x="63.623047" xlink:href="#DejaVuSans-53"/>
     <use x="127.246094" xlink:href="#DejaVuSans-32"/>
     <use x="159.033203" xlink:href="#DejaVuSans-105"/>
     <use x="186.816406" xlink:href="#DejaVuSans-110"/>
     <use x="250.195312" xlink:href="#DejaVuSans-115"/>
     <use x="302.294922" xlink:href="#DejaVuSans-116"/>
     <use x="341.503906" xlink:href="#DejaVuSans-97"/>
     <use x="402.783203" xlink:href="#DejaVuSans-110"/>
     <use x="466.162109" xlink:href="#DejaVuSans-99"/>
     <use x="521.142578" xlink:href="#DejaVuSans-101"/>
     <use x="582.666016" xlink:href="#DejaVuSans-115"/>
    </g>
   </g>
   <g id="text_20">
    <!-- v2.4 -->
    <g style="fill:#808080;" transform="translate(187.233062 294.151352)scale(0.1 -0.1)">
     <use xlink:href="#DejaVuSans-118"/>
     <use x="59.179688" xlink:href="#DejaVuSans-50"/>
     <use x="122.802734" xlink:href="#DejaVuSans-46"/>
     <use x="154.589844" xlink:href="#DejaVuSans-52"/>
    </g>
   </g>
   <g id="text_21">
    <!-- 1 Sphere -->
    <g transform="translate(153.376812 21.648)scale(0.2 -0.2)">
     <defs>
      <path d="M 53.515625 70.515625 
L 53.515625 60.890625 
Q 47.90625 63.578125 42.921875 64.890625 
Q 37.9375 66.21875 33.296875 66.21875 
Q 25.25 66.21875 20.875 63.09375 
Q 16.5 59.96875 16.5 54.203125 
Q 16.5 49.359375 19.40625 46.890625 
Q 22.3125 44.4375 30.421875 42.921875 
L 36.375 41.703125 
Q 47.40625 39.59375 52.65625 34.296875 
Q 57.90625 29 57.90625 20.125 
Q 57.90625 9.515625 50.796875 4.046875 
Q 43.703125 -1.421875 29.984375 -1.421875 
Q 24.8125 -1.421875 18.96875 -0.25 
Q 13.140625 0.921875 6.890625 3.21875 
L 6.890625 13.375 
Q 12.890625 10.015625 18.65625 8.296875 
Q 24.421875 6.59375 29.984375 6.59375 
Q 38.421875 6.59375 43.015625 9.90625 
Q 47.609375 13.234375 47.609375 19.390625 
Q 47.609375 24.75 44.3125 27.78125 
Q 41.015625 30.8125 33.5 32.328125 
L 27.484375 33.5 
Q 16.453125 35.6875 11.515625 40.375 
Q 6.59375 45.0625 6.59375 53.421875 
Q 6.59375 63.09375 13.40625 68.65625 
Q 20.21875 74.21875 32.171875 74.21875 
Q 37.3125 74.21875 42.625 73.28125 
Q 47.953125 72.359375 53.515625 70.515625 
z
" id="DejaVuSans-83"/>
      <path d="M 54.890625 33.015625 
L 54.890625 0 
L 45.90625 0 
L 45.90625 32.71875 
Q 45.90625 40.484375 42.875 44.328125 
Q 39.84375 48.1875 33.796875 48.1875 
Q 26.515625 48.1875 22.3125 43.546875 
Q 18.109375 38.921875 18.109375 30.90625 
L 18.109375 0 
L 9.078125 0 
L 9.078125 75.984375 
L 18.109375 75.984375 
L 18.109375 46.1875 
Q 21.34375 51.125 25.703125 53.5625 
Q 30.078125 56 35.796875 56 
Q 45.21875 56 50.046875 50.171875 
Q 54.890625 44.34375 54.890625 33.015625 
z
" id="DejaVuSans-104"/>
     </defs>
     <use xlink:href="#DejaVuSans-49"/>
     <use x="63.623047" xlink:href="#DejaVuSans-32"/>
     <use x="95.410156" xlink:href="#DejaVuSans-83"/>
     <use x="158.886719" xlink:href="#DejaVuSans-112"/>
     <use x="222.363281" xlink:href="#DejaVuSans-104"/>
     <use x="285.742188" xlink:href="#DejaVuSans-101"/>
     <use x="347.265625" xlink:href="#DejaVuSans-114"/>
     <use x="386.128906" xlink:href="#DejaVuSans-101"/>
    </g>
   </g>
  </g>
 </g>
 <defs>
  <clipPath id="p172e43526f">
   <rect height="271.296" width="281.088" x="57.6" y="27.648"/>
  </clipPath>
 </defs>
</svg>
