<?xml version="1.0" encoding="utf-8" standalone="no"?>
<!DOCTYPE svg PUBLIC "-//W3C//DTD SVG 1.1//EN"
  "http://www.w3.org/Graphics/SVG/1.1/DTD/svg11.dtd">
<!-- Created with matplotlib (https://matplotlib.org/) -->
<svg height="345.6pt" version="1.1" viewBox="0 0 460.8 345.6" width="460.8pt" xmlns="http://www.w3.org/2000/svg" xmlns:xlink="http://www.w3.org/1999/xlink">
 <metadata>
  <rdf:RDF xmlns:cc="http://creativecommons.org/ns#" xmlns:dc="http://purl.org/dc/elements/1.1/" xmlns:rdf="http://www.w3.org/1999/02/22-rdf-syntax-ns#">
   <cc:Work>
    <dc:type rdf:resource="http://purl.org/dc/dcmitype/StillImage"/>
    <dc:date>2021-08-04T10:26:34.623905</dc:date>
    <dc:format>image/svg+xml</dc:format>
    <dc:creator>
     <cc:Agent>
      <dc:title>Matplotlib v3.3.1, https://matplotlib.org/</dc:title>
     </cc:Agent>
    </dc:creator>
   </cc:Work>
  </rdf:RDF>
 </metadata>
 <defs>
  <style type="text/css">*{stroke-linecap:butt;stroke-linejoin:round;}</style>
 </defs>
 <g id="figure_1">
  <g id="patch_1">
   <path d="M 0 345.6 
L 460.8 345.6 
L 460.8 0 
L 0 0 
z
" style="fill:#ffffff;"/>
  </g>
  <g id="axes_1">
   <g id="patch_2">
    <path d="M 57.6 298.944 
L 338.688 298.944 
L 338.688 3.456 
L 57.6 3.456 
z
" style="fill:#ffffff;"/>
   </g>
   <g id="matplotlib.axis_1">
    <g id="xtick_1">
     <g id="line2d_1">
      <path clip-path="url(#pd0d42c49cf)" d="M 57.6 298.944 
L 57.6 3.456 
" style="fill:none;stroke:#b0b0b0;stroke-linecap:square;stroke-width:0.8;"/>
     </g>
     <g id="line2d_2">
      <defs>
       <path d="M 0 0 
L 0 3.5 
" id="m05832c582b" style="stroke:#000000;stroke-width:0.8;"/>
      </defs>
      <g>
       <use style="stroke:#000000;stroke-width:0.8;" x="57.6" xlink:href="#m05832c582b" y="298.944"/>
      </g>
     </g>
     <g id="text_1">
      <!-- 0 -->
      <g transform="translate(51.2375 321.140875)scale(0.2 -0.2)">
       <defs>
        <path d="M 31.78125 66.40625 
Q 24.171875 66.40625 20.328125 58.90625 
Q 16.5 51.421875 16.5 36.375 
Q 16.5 21.390625 20.328125 13.890625 
Q 24.171875 6.390625 31.78125 6.390625 
Q 39.453125 6.390625 43.28125 13.890625 
Q 47.125 21.390625 47.125 36.375 
Q 47.125 51.421875 43.28125 58.90625 
Q 39.453125 66.40625 31.78125 66.40625 
z
M 31.78125 74.21875 
Q 44.046875 74.21875 50.515625 64.515625 
Q 56.984375 54.828125 56.984375 36.375 
Q 56.984375 17.96875 50.515625 8.265625 
Q 44.046875 -1.421875 31.78125 -1.421875 
Q 19.53125 -1.421875 13.0625 8.265625 
Q 6.59375 17.96875 6.59375 36.375 
Q 6.59375 54.828125 13.0625 64.515625 
Q 19.53125 74.21875 31.78125 74.21875 
z
" id="DejaVuSans-48"/>
       </defs>
       <use xlink:href="#DejaVuSans-48"/>
      </g>
     </g>
    </g>
    <g id="xtick_2">
     <g id="line2d_3">
      <path clip-path="url(#pd0d42c49cf)" d="M 137.910857 298.944 
L 137.910857 3.456 
" style="fill:none;stroke:#b0b0b0;stroke-linecap:square;stroke-width:0.8;"/>
     </g>
     <g id="line2d_4">
      <g>
       <use style="stroke:#000000;stroke-width:0.8;" x="137.910857" xlink:href="#m05832c582b" y="298.944"/>
      </g>
     </g>
     <g id="text_2">
      <!-- 2 -->
      <g transform="translate(131.548357 321.140875)scale(0.2 -0.2)">
       <defs>
        <path d="M 19.1875 8.296875 
L 53.609375 8.296875 
L 53.609375 0 
L 7.328125 0 
L 7.328125 8.296875 
Q 12.9375 14.109375 22.625 23.890625 
Q 32.328125 33.6875 34.8125 36.53125 
Q 39.546875 41.84375 41.421875 45.53125 
Q 43.3125 49.21875 43.3125 52.78125 
Q 43.3125 58.59375 39.234375 62.25 
Q 35.15625 65.921875 28.609375 65.921875 
Q 23.96875 65.921875 18.8125 64.3125 
Q 13.671875 62.703125 7.8125 59.421875 
L 7.8125 69.390625 
Q 13.765625 71.78125 18.9375 73 
Q 24.125 74.21875 28.421875 74.21875 
Q 39.75 74.21875 46.484375 68.546875 
Q 53.21875 62.890625 53.21875 53.421875 
Q 53.21875 48.921875 51.53125 44.890625 
Q 49.859375 40.875 45.40625 35.40625 
Q 44.1875 33.984375 37.640625 27.21875 
Q 31.109375 20.453125 19.1875 8.296875 
z
" id="DejaVuSans-50"/>
       </defs>
       <use xlink:href="#DejaVuSans-50"/>
      </g>
     </g>
    </g>
    <g id="xtick_3">
     <g id="line2d_5">
      <path clip-path="url(#pd0d42c49cf)" d="M 218.221714 298.944 
L 218.221714 3.456 
" style="fill:none;stroke:#b0b0b0;stroke-linecap:square;stroke-width:0.8;"/>
     </g>
     <g id="line2d_6">
      <g>
       <use style="stroke:#000000;stroke-width:0.8;" x="218.221714" xlink:href="#m05832c582b" y="298.944"/>
      </g>
     </g>
     <g id="text_3">
      <!-- 4 -->
      <g transform="translate(211.859214 321.140875)scale(0.2 -0.2)">
       <defs>
        <path d="M 37.796875 64.3125 
L 12.890625 25.390625 
L 37.796875 25.390625 
z
M 35.203125 72.90625 
L 47.609375 72.90625 
L 47.609375 25.390625 
L 58.015625 25.390625 
L 58.015625 17.1875 
L 47.609375 17.1875 
L 47.609375 0 
L 37.796875 0 
L 37.796875 17.1875 
L 4.890625 17.1875 
L 4.890625 26.703125 
z
" id="DejaVuSans-52"/>
       </defs>
       <use xlink:href="#DejaVuSans-52"/>
      </g>
     </g>
    </g>
    <g id="xtick_4">
     <g id="line2d_7">
      <path clip-path="url(#pd0d42c49cf)" d="M 298.532571 298.944 
L 298.532571 3.456 
" style="fill:none;stroke:#b0b0b0;stroke-linecap:square;stroke-width:0.8;"/>
     </g>
     <g id="line2d_8">
      <g>
       <use style="stroke:#000000;stroke-width:0.8;" x="298.532571" xlink:href="#m05832c582b" y="298.944"/>
      </g>
     </g>
     <g id="text_4">
      <!-- 6 -->
      <g transform="translate(292.170071 321.140875)scale(0.2 -0.2)">
       <defs>
        <path d="M 33.015625 40.375 
Q 26.375 40.375 22.484375 35.828125 
Q 18.609375 31.296875 18.609375 23.390625 
Q 18.609375 15.53125 22.484375 10.953125 
Q 26.375 6.390625 33.015625 6.390625 
Q 39.65625 6.390625 43.53125 10.953125 
Q 47.40625 15.53125 47.40625 23.390625 
Q 47.40625 31.296875 43.53125 35.828125 
Q 39.65625 40.375 33.015625 40.375 
z
M 52.59375 71.296875 
L 52.59375 62.3125 
Q 48.875 64.0625 45.09375 64.984375 
Q 41.3125 65.921875 37.59375 65.921875 
Q 27.828125 65.921875 22.671875 59.328125 
Q 17.53125 52.734375 16.796875 39.40625 
Q 19.671875 43.65625 24.015625 45.921875 
Q 28.375 48.1875 33.59375 48.1875 
Q 44.578125 48.1875 50.953125 41.515625 
Q 57.328125 34.859375 57.328125 23.390625 
Q 57.328125 12.15625 50.6875 5.359375 
Q 44.046875 -1.421875 33.015625 -1.421875 
Q 20.359375 -1.421875 13.671875 8.265625 
Q 6.984375 17.96875 6.984375 36.375 
Q 6.984375 53.65625 15.1875 63.9375 
Q 23.390625 74.21875 37.203125 74.21875 
Q 40.921875 74.21875 44.703125 73.484375 
Q 48.484375 72.75 52.59375 71.296875 
z
" id="DejaVuSans-54"/>
       </defs>
       <use xlink:href="#DejaVuSans-54"/>
      </g>
     </g>
    </g>
    <g id="xtick_5">
     <g id="line2d_9">
      <path clip-path="url(#pd0d42c49cf)" d="M 97.755429 298.944 
L 97.755429 3.456 
" style="fill:none;stroke:#b0b0b0;stroke-linecap:square;stroke-width:0.8;"/>
     </g>
     <g id="line2d_10">
      <defs>
       <path d="M 0 0 
L 0 2 
" id="m94c94ab94e" style="stroke:#000000;stroke-width:0.6;"/>
      </defs>
      <g>
       <use style="stroke:#000000;stroke-width:0.6;" x="97.755429" xlink:href="#m94c94ab94e" y="298.944"/>
      </g>
     </g>
    </g>
    <g id="xtick_6">
     <g id="line2d_11">
      <path clip-path="url(#pd0d42c49cf)" d="M 178.066286 298.944 
L 178.066286 3.456 
" style="fill:none;stroke:#b0b0b0;stroke-linecap:square;stroke-width:0.8;"/>
     </g>
     <g id="line2d_12">
      <g>
       <use style="stroke:#000000;stroke-width:0.6;" x="178.066286" xlink:href="#m94c94ab94e" y="298.944"/>
      </g>
     </g>
    </g>
    <g id="xtick_7">
     <g id="line2d_13">
      <path clip-path="url(#pd0d42c49cf)" d="M 258.377143 298.944 
L 258.377143 3.456 
" style="fill:none;stroke:#b0b0b0;stroke-linecap:square;stroke-width:0.8;"/>
     </g>
     <g id="line2d_14">
      <g>
       <use style="stroke:#000000;stroke-width:0.6;" x="258.377143" xlink:href="#m94c94ab94e" y="298.944"/>
      </g>
     </g>
    </g>
    <g id="xtick_8">
     <g id="line2d_15">
      <path clip-path="url(#pd0d42c49cf)" d="M 338.688 298.944 
L 338.688 3.456 
" style="fill:none;stroke:#b0b0b0;stroke-linecap:square;stroke-width:0.8;"/>
     </g>
     <g id="line2d_16">
      <g>
       <use style="stroke:#000000;stroke-width:0.6;" x="338.688" xlink:href="#m94c94ab94e" y="298.944"/>
      </g>
     </g>
    </g>
    <g id="text_5">
     <!-- log10(# f-evals / dimension) -->
     <g transform="translate(77.764078 342.217594)scale(0.17 -0.17)">
      <defs>
       <path d="M 9.421875 75.984375 
L 18.40625 75.984375 
L 18.40625 0 
L 9.421875 0 
z
" id="DejaVuSans-108"/>
       <path d="M 30.609375 48.390625 
Q 23.390625 48.390625 19.1875 42.75 
Q 14.984375 37.109375 14.984375 27.296875 
Q 14.984375 17.484375 19.15625 11.84375 
Q 23.34375 6.203125 30.609375 6.203125 
Q 37.796875 6.203125 41.984375 11.859375 
Q 46.1875 17.53125 46.1875 27.296875 
Q 46.1875 37.015625 41.984375 42.703125 
Q 37.796875 48.390625 30.609375 48.390625 
z
M 30.609375 56 
Q 42.328125 56 49.015625 48.375 
Q 55.71875 40.765625 55.71875 27.296875 
Q 55.71875 13.875 49.015625 6.21875 
Q 42.328125 -1.421875 30.609375 -1.421875 
Q 18.84375 -1.421875 12.171875 6.21875 
Q 5.515625 13.875 5.515625 27.296875 
Q 5.515625 40.765625 12.171875 48.375 
Q 18.84375 56 30.609375 56 
z
" id="DejaVuSans-111"/>
       <path d="M 45.40625 27.984375 
Q 45.40625 37.75 41.375 43.109375 
Q 37.359375 48.484375 30.078125 48.484375 
Q 22.859375 48.484375 18.828125 43.109375 
Q 14.796875 37.75 14.796875 27.984375 
Q 14.796875 18.265625 18.828125 12.890625 
Q 22.859375 7.515625 30.078125 7.515625 
Q 37.359375 7.515625 41.375 12.890625 
Q 45.40625 18.265625 45.40625 27.984375 
z
M 54.390625 6.78125 
Q 54.390625 -7.171875 48.1875 -13.984375 
Q 42 -20.796875 29.203125 -20.796875 
Q 24.46875 -20.796875 20.265625 -20.09375 
Q 16.0625 -19.390625 12.109375 -17.921875 
L 12.109375 -9.1875 
Q 16.0625 -11.328125 19.921875 -12.34375 
Q 23.78125 -13.375 27.78125 -13.375 
Q 36.625 -13.375 41.015625 -8.765625 
Q 45.40625 -4.15625 45.40625 5.171875 
L 45.40625 9.625 
Q 42.625 4.78125 38.28125 2.390625 
Q 33.9375 0 27.875 0 
Q 17.828125 0 11.671875 7.65625 
Q 5.515625 15.328125 5.515625 27.984375 
Q 5.515625 40.671875 11.671875 48.328125 
Q 17.828125 56 27.875 56 
Q 33.9375 56 38.28125 53.609375 
Q 42.625 51.21875 45.40625 46.390625 
L 45.40625 54.6875 
L 54.390625 54.6875 
z
" id="DejaVuSans-103"/>
       <path d="M 12.40625 8.296875 
L 28.515625 8.296875 
L 28.515625 63.921875 
L 10.984375 60.40625 
L 10.984375 69.390625 
L 28.421875 72.90625 
L 38.28125 72.90625 
L 38.28125 8.296875 
L 54.390625 8.296875 
L 54.390625 0 
L 12.40625 0 
z
" id="DejaVuSans-49"/>
       <path d="M 31 75.875 
Q 24.46875 64.65625 21.28125 53.65625 
Q 18.109375 42.671875 18.109375 31.390625 
Q 18.109375 20.125 21.3125 9.0625 
Q 24.515625 -2 31 -13.1875 
L 23.1875 -13.1875 
Q 15.875 -1.703125 12.234375 9.375 
Q 8.59375 20.453125 8.59375 31.390625 
Q 8.59375 42.28125 12.203125 53.3125 
Q 15.828125 64.359375 23.1875 75.875 
z
" id="DejaVuSans-40"/>
       <path d="M 51.125 44 
L 36.921875 44 
L 32.8125 27.6875 
L 47.125 27.6875 
z
M 43.796875 71.78125 
L 38.71875 51.515625 
L 52.984375 51.515625 
L 58.109375 71.78125 
L 65.921875 71.78125 
L 60.890625 51.515625 
L 76.125 51.515625 
L 76.125 44 
L 58.984375 44 
L 54.984375 27.6875 
L 70.515625 27.6875 
L 70.515625 20.21875 
L 53.078125 20.21875 
L 48 0 
L 40.1875 0 
L 45.21875 20.21875 
L 30.90625 20.21875 
L 25.875 0 
L 18.015625 0 
L 23.09375 20.21875 
L 7.71875 20.21875 
L 7.71875 27.6875 
L 24.90625 27.6875 
L 29 44 
L 13.28125 44 
L 13.28125 51.515625 
L 30.90625 51.515625 
L 35.890625 71.78125 
z
" id="DejaVuSans-35"/>
       <path id="DejaVuSans-32"/>
       <path d="M 37.109375 75.984375 
L 37.109375 68.5 
L 28.515625 68.5 
Q 23.6875 68.5 21.796875 66.546875 
Q 19.921875 64.59375 19.921875 59.515625 
L 19.921875 54.6875 
L 34.71875 54.6875 
L 34.71875 47.703125 
L 19.921875 47.703125 
L 19.921875 0 
L 10.890625 0 
L 10.890625 47.703125 
L 2.296875 47.703125 
L 2.296875 54.6875 
L 10.890625 54.6875 
L 10.890625 58.5 
Q 10.890625 67.625 15.140625 71.796875 
Q 19.390625 75.984375 28.609375 75.984375 
z
" id="DejaVuSans-102"/>
       <path d="M 4.890625 31.390625 
L 31.203125 31.390625 
L 31.203125 23.390625 
L 4.890625 23.390625 
z
" id="DejaVuSans-45"/>
       <path d="M 56.203125 29.59375 
L 56.203125 25.203125 
L 14.890625 25.203125 
Q 15.484375 15.921875 20.484375 11.0625 
Q 25.484375 6.203125 34.421875 6.203125 
Q 39.59375 6.203125 44.453125 7.46875 
Q 49.3125 8.734375 54.109375 11.28125 
L 54.109375 2.78125 
Q 49.265625 0.734375 44.1875 -0.34375 
Q 39.109375 -1.421875 33.890625 -1.421875 
Q 20.796875 -1.421875 13.15625 6.1875 
Q 5.515625 13.8125 5.515625 26.8125 
Q 5.515625 40.234375 12.765625 48.109375 
Q 20.015625 56 32.328125 56 
Q 43.359375 56 49.78125 48.890625 
Q 56.203125 41.796875 56.203125 29.59375 
z
M 47.21875 32.234375 
Q 47.125 39.59375 43.09375 43.984375 
Q 39.0625 48.390625 32.421875 48.390625 
Q 24.90625 48.390625 20.390625 44.140625 
Q 15.875 39.890625 15.1875 32.171875 
z
" id="DejaVuSans-101"/>
       <path d="M 2.984375 54.6875 
L 12.5 54.6875 
L 29.59375 8.796875 
L 46.6875 54.6875 
L 56.203125 54.6875 
L 35.6875 0 
L 23.484375 0 
z
" id="DejaVuSans-118"/>
       <path d="M 34.28125 27.484375 
Q 23.390625 27.484375 19.1875 25 
Q 14.984375 22.515625 14.984375 16.5 
Q 14.984375 11.71875 18.140625 8.90625 
Q 21.296875 6.109375 26.703125 6.109375 
Q 34.1875 6.109375 38.703125 11.40625 
Q 43.21875 16.703125 43.21875 25.484375 
L 43.21875 27.484375 
z
M 52.203125 31.203125 
L 52.203125 0 
L 43.21875 0 
L 43.21875 8.296875 
Q 40.140625 3.328125 35.546875 0.953125 
Q 30.953125 -1.421875 24.3125 -1.421875 
Q 15.921875 -1.421875 10.953125 3.296875 
Q 6 8.015625 6 15.921875 
Q 6 25.140625 12.171875 29.828125 
Q 18.359375 34.515625 30.609375 34.515625 
L 43.21875 34.515625 
L 43.21875 35.40625 
Q 43.21875 41.609375 39.140625 45 
Q 35.0625 48.390625 27.6875 48.390625 
Q 23 48.390625 18.546875 47.265625 
Q 14.109375 46.140625 10.015625 43.890625 
L 10.015625 52.203125 
Q 14.9375 54.109375 19.578125 55.046875 
Q 24.21875 56 28.609375 56 
Q 40.484375 56 46.34375 49.84375 
Q 52.203125 43.703125 52.203125 31.203125 
z
" id="DejaVuSans-97"/>
       <path d="M 44.28125 53.078125 
L 44.28125 44.578125 
Q 40.484375 46.53125 36.375 47.5 
Q 32.28125 48.484375 27.875 48.484375 
Q 21.1875 48.484375 17.84375 46.4375 
Q 14.5 44.390625 14.5 40.28125 
Q 14.5 37.15625 16.890625 35.375 
Q 19.28125 33.59375 26.515625 31.984375 
L 29.59375 31.296875 
Q 39.15625 29.25 43.1875 25.515625 
Q 47.21875 21.78125 47.21875 15.09375 
Q 47.21875 7.46875 41.1875 3.015625 
Q 35.15625 -1.421875 24.609375 -1.421875 
Q 20.21875 -1.421875 15.453125 -0.5625 
Q 10.6875 0.296875 5.421875 2 
L 5.421875 11.28125 
Q 10.40625 8.6875 15.234375 7.390625 
Q 20.0625 6.109375 24.8125 6.109375 
Q 31.15625 6.109375 34.5625 8.28125 
Q 37.984375 10.453125 37.984375 14.40625 
Q 37.984375 18.0625 35.515625 20.015625 
Q 33.0625 21.96875 24.703125 23.78125 
L 21.578125 24.515625 
Q 13.234375 26.265625 9.515625 29.90625 
Q 5.8125 33.546875 5.8125 39.890625 
Q 5.8125 47.609375 11.28125 51.796875 
Q 16.75 56 26.8125 56 
Q 31.78125 56 36.171875 55.265625 
Q 40.578125 54.546875 44.28125 53.078125 
z
" id="DejaVuSans-115"/>
       <path d="M 25.390625 72.90625 
L 33.6875 72.90625 
L 8.296875 -9.28125 
L 0 -9.28125 
z
" id="DejaVuSans-47"/>
       <path d="M 45.40625 46.390625 
L 45.40625 75.984375 
L 54.390625 75.984375 
L 54.390625 0 
L 45.40625 0 
L 45.40625 8.203125 
Q 42.578125 3.328125 38.25 0.953125 
Q 33.9375 -1.421875 27.875 -1.421875 
Q 17.96875 -1.421875 11.734375 6.484375 
Q 5.515625 14.40625 5.515625 27.296875 
Q 5.515625 40.1875 11.734375 48.09375 
Q 17.96875 56 27.875 56 
Q 33.9375 56 38.25 53.625 
Q 42.578125 51.265625 45.40625 46.390625 
z
M 14.796875 27.296875 
Q 14.796875 17.390625 18.875 11.75 
Q 22.953125 6.109375 30.078125 6.109375 
Q 37.203125 6.109375 41.296875 11.75 
Q 45.40625 17.390625 45.40625 27.296875 
Q 45.40625 37.203125 41.296875 42.84375 
Q 37.203125 48.484375 30.078125 48.484375 
Q 22.953125 48.484375 18.875 42.84375 
Q 14.796875 37.203125 14.796875 27.296875 
z
" id="DejaVuSans-100"/>
       <path d="M 9.421875 54.6875 
L 18.40625 54.6875 
L 18.40625 0 
L 9.421875 0 
z
M 9.421875 75.984375 
L 18.40625 75.984375 
L 18.40625 64.59375 
L 9.421875 64.59375 
z
" id="DejaVuSans-105"/>
       <path d="M 52 44.1875 
Q 55.375 50.25 60.0625 53.125 
Q 64.75 56 71.09375 56 
Q 79.640625 56 84.28125 50.015625 
Q 88.921875 44.046875 88.921875 33.015625 
L 88.921875 0 
L 79.890625 0 
L 79.890625 32.71875 
Q 79.890625 40.578125 77.09375 44.375 
Q 74.3125 48.1875 68.609375 48.1875 
Q 61.625 48.1875 57.5625 43.546875 
Q 53.515625 38.921875 53.515625 30.90625 
L 53.515625 0 
L 44.484375 0 
L 44.484375 32.71875 
Q 44.484375 40.625 41.703125 44.40625 
Q 38.921875 48.1875 33.109375 48.1875 
Q 26.21875 48.1875 22.15625 43.53125 
Q 18.109375 38.875 18.109375 30.90625 
L 18.109375 0 
L 9.078125 0 
L 9.078125 54.6875 
L 18.109375 54.6875 
L 18.109375 46.1875 
Q 21.1875 51.21875 25.484375 53.609375 
Q 29.78125 56 35.6875 56 
Q 41.65625 56 45.828125 52.96875 
Q 50 49.953125 52 44.1875 
z
" id="DejaVuSans-109"/>
       <path d="M 54.890625 33.015625 
L 54.890625 0 
L 45.90625 0 
L 45.90625 32.71875 
Q 45.90625 40.484375 42.875 44.328125 
Q 39.84375 48.1875 33.796875 48.1875 
Q 26.515625 48.1875 22.3125 43.546875 
Q 18.109375 38.921875 18.109375 30.90625 
L 18.109375 0 
L 9.078125 0 
L 9.078125 54.6875 
L 18.109375 54.6875 
L 18.109375 46.1875 
Q 21.34375 51.125 25.703125 53.5625 
Q 30.078125 56 35.796875 56 
Q 45.21875 56 50.046875 50.171875 
Q 54.890625 44.34375 54.890625 33.015625 
z
" id="DejaVuSans-110"/>
       <path d="M 8.015625 75.875 
L 15.828125 75.875 
Q 23.140625 64.359375 26.78125 53.3125 
Q 30.421875 42.28125 30.421875 31.390625 
Q 30.421875 20.453125 26.78125 9.375 
Q 23.140625 -1.703125 15.828125 -13.1875 
L 8.015625 -13.1875 
Q 14.5 -2 17.703125 9.0625 
Q 20.90625 20.125 20.90625 31.390625 
Q 20.90625 42.671875 17.703125 53.65625 
Q 14.5 64.65625 8.015625 75.875 
z
" id="DejaVuSans-41"/>
      </defs>
      <use xlink:href="#DejaVuSans-108"/>
      <use x="27.783203" xlink:href="#DejaVuSans-111"/>
      <use x="88.964844" xlink:href="#DejaVuSans-103"/>
      <use x="152.441406" xlink:href="#DejaVuSans-49"/>
      <use x="216.064453" xlink:href="#DejaVuSans-48"/>
      <use x="279.6875" xlink:href="#DejaVuSans-40"/>
      <use x="318.701172" xlink:href="#DejaVuSans-35"/>
      <use x="402.490234" xlink:href="#DejaVuSans-32"/>
      <use x="434.277344" xlink:href="#DejaVuSans-102"/>
      <use x="463.982422" xlink:href="#DejaVuSans-45"/>
      <use x="500.066406" xlink:href="#DejaVuSans-101"/>
      <use x="561.589844" xlink:href="#DejaVuSans-118"/>
      <use x="620.769531" xlink:href="#DejaVuSans-97"/>
      <use x="682.048828" xlink:href="#DejaVuSans-108"/>
      <use x="709.832031" xlink:href="#DejaVuSans-115"/>
      <use x="761.931641" xlink:href="#DejaVuSans-32"/>
      <use x="793.71875" xlink:href="#DejaVuSans-47"/>
      <use x="827.410156" xlink:href="#DejaVuSans-32"/>
      <use x="859.197266" xlink:href="#DejaVuSans-100"/>
      <use x="922.673828" xlink:href="#DejaVuSans-105"/>
      <use x="950.457031" xlink:href="#DejaVuSans-109"/>
      <use x="1047.869141" xlink:href="#DejaVuSans-101"/>
      <use x="1109.392578" xlink:href="#DejaVuSans-110"/>
      <use x="1172.771484" xlink:href="#DejaVuSans-115"/>
      <use x="1224.871094" xlink:href="#DejaVuSans-105"/>
      <use x="1252.654297" xlink:href="#DejaVuSans-111"/>
      <use x="1313.835938" xlink:href="#DejaVuSans-110"/>
      <use x="1377.214844" xlink:href="#DejaVuSans-41"/>
     </g>
    </g>
   </g>
   <g id="matplotlib.axis_2">
    <g id="ytick_1">
     <g id="line2d_17">
      <path clip-path="url(#pd0d42c49cf)" d="M 57.6 298.944 
L 338.688 298.944 
" style="fill:none;stroke:#b0b0b0;stroke-linecap:square;stroke-width:0.8;"/>
     </g>
     <g id="line2d_18">
      <defs>
       <path d="M 0 0 
L -3.5 0 
" id="maf965d4fc8" style="stroke:#000000;stroke-width:0.8;"/>
      </defs>
      <g>
       <use style="stroke:#000000;stroke-width:0.8;" x="57.6" xlink:href="#maf965d4fc8" y="298.944"/>
      </g>
     </g>
     <g id="text_6">
      <!-- 0.0 -->
      <g transform="translate(25.155 305.02275)scale(0.16 -0.16)">
       <defs>
        <path d="M 10.6875 12.40625 
L 21 12.40625 
L 21 0 
L 10.6875 0 
z
" id="DejaVuSans-46"/>
       </defs>
       <use xlink:href="#DejaVuSans-48"/>
       <use x="63.623047" xlink:href="#DejaVuSans-46"/>
       <use x="95.410156" xlink:href="#DejaVuSans-48"/>
      </g>
     </g>
    </g>
    <g id="ytick_2">
     <g id="line2d_19">
      <path clip-path="url(#pd0d42c49cf)" d="M 57.6 240.431525 
L 338.688 240.431525 
" style="fill:none;stroke:#b0b0b0;stroke-linecap:square;stroke-width:0.8;"/>
     </g>
     <g id="line2d_20">
      <g>
       <use style="stroke:#000000;stroke-width:0.8;" x="57.6" xlink:href="#maf965d4fc8" y="240.431525"/>
      </g>
     </g>
     <g id="text_7">
      <!-- 0.2 -->
      <g transform="translate(25.155 246.510275)scale(0.16 -0.16)">
       <use xlink:href="#DejaVuSans-48"/>
       <use x="63.623047" xlink:href="#DejaVuSans-46"/>
       <use x="95.410156" xlink:href="#DejaVuSans-50"/>
      </g>
     </g>
    </g>
    <g id="ytick_3">
     <g id="line2d_21">
      <path clip-path="url(#pd0d42c49cf)" d="M 57.6 181.91905 
L 338.688 181.91905 
" style="fill:none;stroke:#b0b0b0;stroke-linecap:square;stroke-width:0.8;"/>
     </g>
     <g id="line2d_22">
      <g>
       <use style="stroke:#000000;stroke-width:0.8;" x="57.6" xlink:href="#maf965d4fc8" y="181.91905"/>
      </g>
     </g>
     <g id="text_8">
      <!-- 0.4 -->
      <g transform="translate(25.155 187.9978)scale(0.16 -0.16)">
       <use xlink:href="#DejaVuSans-48"/>
       <use x="63.623047" xlink:href="#DejaVuSans-46"/>
       <use x="95.410156" xlink:href="#DejaVuSans-52"/>
      </g>
     </g>
    </g>
    <g id="ytick_4">
     <g id="line2d_23">
      <path clip-path="url(#pd0d42c49cf)" d="M 57.6 123.406574 
L 338.688 123.406574 
" style="fill:none;stroke:#b0b0b0;stroke-linecap:square;stroke-width:0.8;"/>
     </g>
     <g id="line2d_24">
      <g>
       <use style="stroke:#000000;stroke-width:0.8;" x="57.6" xlink:href="#maf965d4fc8" y="123.406574"/>
      </g>
     </g>
     <g id="text_9">
      <!-- 0.6 -->
      <g transform="translate(25.155 129.485324)scale(0.16 -0.16)">
       <use xlink:href="#DejaVuSans-48"/>
       <use x="63.623047" xlink:href="#DejaVuSans-46"/>
       <use x="95.410156" xlink:href="#DejaVuSans-54"/>
      </g>
     </g>
    </g>
    <g id="ytick_5">
     <g id="line2d_25">
      <path clip-path="url(#pd0d42c49cf)" d="M 57.6 64.894099 
L 338.688 64.894099 
" style="fill:none;stroke:#b0b0b0;stroke-linecap:square;stroke-width:0.8;"/>
     </g>
     <g id="line2d_26">
      <g>
       <use style="stroke:#000000;stroke-width:0.8;" x="57.6" xlink:href="#maf965d4fc8" y="64.894099"/>
      </g>
     </g>
     <g id="text_10">
      <!-- 0.8 -->
      <g transform="translate(25.155 70.972849)scale(0.16 -0.16)">
       <defs>
        <path d="M 31.78125 34.625 
Q 24.75 34.625 20.71875 30.859375 
Q 16.703125 27.09375 16.703125 20.515625 
Q 16.703125 13.921875 20.71875 10.15625 
Q 24.75 6.390625 31.78125 6.390625 
Q 38.8125 6.390625 42.859375 10.171875 
Q 46.921875 13.96875 46.921875 20.515625 
Q 46.921875 27.09375 42.890625 30.859375 
Q 38.875 34.625 31.78125 34.625 
z
M 21.921875 38.8125 
Q 15.578125 40.375 12.03125 44.71875 
Q 8.5 49.078125 8.5 55.328125 
Q 8.5 64.0625 14.71875 69.140625 
Q 20.953125 74.21875 31.78125 74.21875 
Q 42.671875 74.21875 48.875 69.140625 
Q 55.078125 64.0625 55.078125 55.328125 
Q 55.078125 49.078125 51.53125 44.71875 
Q 48 40.375 41.703125 38.8125 
Q 48.828125 37.15625 52.796875 32.3125 
Q 56.78125 27.484375 56.78125 20.515625 
Q 56.78125 9.90625 50.3125 4.234375 
Q 43.84375 -1.421875 31.78125 -1.421875 
Q 19.734375 -1.421875 13.25 4.234375 
Q 6.78125 9.90625 6.78125 20.515625 
Q 6.78125 27.484375 10.78125 32.3125 
Q 14.796875 37.15625 21.921875 38.8125 
z
M 18.3125 54.390625 
Q 18.3125 48.734375 21.84375 45.5625 
Q 25.390625 42.390625 31.78125 42.390625 
Q 38.140625 42.390625 41.71875 45.5625 
Q 45.3125 48.734375 45.3125 54.390625 
Q 45.3125 60.0625 41.71875 63.234375 
Q 38.140625 66.40625 31.78125 66.40625 
Q 25.390625 66.40625 21.84375 63.234375 
Q 18.3125 60.0625 18.3125 54.390625 
z
" id="DejaVuSans-56"/>
       </defs>
       <use xlink:href="#DejaVuSans-48"/>
       <use x="63.623047" xlink:href="#DejaVuSans-46"/>
       <use x="95.410156" xlink:href="#DejaVuSans-56"/>
      </g>
     </g>
    </g>
    <g id="ytick_6">
     <g id="line2d_27">
      <path clip-path="url(#pd0d42c49cf)" d="M 57.6 6.381624 
L 338.688 6.381624 
" style="fill:none;stroke:#b0b0b0;stroke-linecap:square;stroke-width:0.8;"/>
     </g>
     <g id="line2d_28">
      <g>
       <use style="stroke:#000000;stroke-width:0.8;" x="57.6" xlink:href="#maf965d4fc8" y="6.381624"/>
      </g>
     </g>
     <g id="text_11">
      <!-- 1.0 -->
      <g transform="translate(25.155 12.460374)scale(0.16 -0.16)">
       <use xlink:href="#DejaVuSans-49"/>
       <use x="63.623047" xlink:href="#DejaVuSans-46"/>
       <use x="95.410156" xlink:href="#DejaVuSans-48"/>
      </g>
     </g>
    </g>
    <g id="text_12">
     <!-- Fraction of function,target pairs -->
     <g transform="translate(17.619531 285.585)rotate(-90)scale(0.17 -0.17)">
      <defs>
       <path d="M 9.8125 72.90625 
L 51.703125 72.90625 
L 51.703125 64.59375 
L 19.671875 64.59375 
L 19.671875 43.109375 
L 48.578125 43.109375 
L 48.578125 34.8125 
L 19.671875 34.8125 
L 19.671875 0 
L 9.8125 0 
z
" id="DejaVuSans-70"/>
       <path d="M 41.109375 46.296875 
Q 39.59375 47.171875 37.8125 47.578125 
Q 36.03125 48 33.890625 48 
Q 26.265625 48 22.1875 43.046875 
Q 18.109375 38.09375 18.109375 28.8125 
L 18.109375 0 
L 9.078125 0 
L 9.078125 54.6875 
L 18.109375 54.6875 
L 18.109375 46.1875 
Q 20.953125 51.171875 25.484375 53.578125 
Q 30.03125 56 36.53125 56 
Q 37.453125 56 38.578125 55.875 
Q 39.703125 55.765625 41.0625 55.515625 
z
" id="DejaVuSans-114"/>
       <path d="M 48.78125 52.59375 
L 48.78125 44.1875 
Q 44.96875 46.296875 41.140625 47.34375 
Q 37.3125 48.390625 33.40625 48.390625 
Q 24.65625 48.390625 19.8125 42.84375 
Q 14.984375 37.3125 14.984375 27.296875 
Q 14.984375 17.28125 19.8125 11.734375 
Q 24.65625 6.203125 33.40625 6.203125 
Q 37.3125 6.203125 41.140625 7.25 
Q 44.96875 8.296875 48.78125 10.40625 
L 48.78125 2.09375 
Q 45.015625 0.34375 40.984375 -0.53125 
Q 36.96875 -1.421875 32.421875 -1.421875 
Q 20.0625 -1.421875 12.78125 6.34375 
Q 5.515625 14.109375 5.515625 27.296875 
Q 5.515625 40.671875 12.859375 48.328125 
Q 20.21875 56 33.015625 56 
Q 37.15625 56 41.109375 55.140625 
Q 45.0625 54.296875 48.78125 52.59375 
z
" id="DejaVuSans-99"/>
       <path d="M 18.3125 70.21875 
L 18.3125 54.6875 
L 36.8125 54.6875 
L 36.8125 47.703125 
L 18.3125 47.703125 
L 18.3125 18.015625 
Q 18.3125 11.328125 20.140625 9.421875 
Q 21.96875 7.515625 27.59375 7.515625 
L 36.8125 7.515625 
L 36.8125 0 
L 27.59375 0 
Q 17.1875 0 13.234375 3.875 
Q 9.28125 7.765625 9.28125 18.015625 
L 9.28125 47.703125 
L 2.6875 47.703125 
L 2.6875 54.6875 
L 9.28125 54.6875 
L 9.28125 70.21875 
z
" id="DejaVuSans-116"/>
       <path d="M 8.5 21.578125 
L 8.5 54.6875 
L 17.484375 54.6875 
L 17.484375 21.921875 
Q 17.484375 14.15625 20.5 10.265625 
Q 23.53125 6.390625 29.59375 6.390625 
Q 36.859375 6.390625 41.078125 11.03125 
Q 45.3125 15.671875 45.3125 23.6875 
L 45.3125 54.6875 
L 54.296875 54.6875 
L 54.296875 0 
L 45.3125 0 
L 45.3125 8.40625 
Q 42.046875 3.421875 37.71875 1 
Q 33.40625 -1.421875 27.6875 -1.421875 
Q 18.265625 -1.421875 13.375 4.4375 
Q 8.5 10.296875 8.5 21.578125 
z
M 31.109375 56 
z
" id="DejaVuSans-117"/>
       <path d="M 11.71875 12.40625 
L 22.015625 12.40625 
L 22.015625 4 
L 14.015625 -11.625 
L 7.71875 -11.625 
L 11.71875 4 
z
" id="DejaVuSans-44"/>
       <path d="M 18.109375 8.203125 
L 18.109375 -20.796875 
L 9.078125 -20.796875 
L 9.078125 54.6875 
L 18.109375 54.6875 
L 18.109375 46.390625 
Q 20.953125 51.265625 25.265625 53.625 
Q 29.59375 56 35.59375 56 
Q 45.5625 56 51.78125 48.09375 
Q 58.015625 40.1875 58.015625 27.296875 
Q 58.015625 14.40625 51.78125 6.484375 
Q 45.5625 -1.421875 35.59375 -1.421875 
Q 29.59375 -1.421875 25.265625 0.953125 
Q 20.953125 3.328125 18.109375 8.203125 
z
M 48.6875 27.296875 
Q 48.6875 37.203125 44.609375 42.84375 
Q 40.53125 48.484375 33.40625 48.484375 
Q 26.265625 48.484375 22.1875 42.84375 
Q 18.109375 37.203125 18.109375 27.296875 
Q 18.109375 17.390625 22.1875 11.75 
Q 26.265625 6.109375 33.40625 6.109375 
Q 40.53125 6.109375 44.609375 11.75 
Q 48.6875 17.390625 48.6875 27.296875 
z
" id="DejaVuSans-112"/>
      </defs>
      <use xlink:href="#DejaVuSans-70"/>
      <use x="50.269531" xlink:href="#DejaVuSans-114"/>
      <use x="91.382812" xlink:href="#DejaVuSans-97"/>
      <use x="152.662109" xlink:href="#DejaVuSans-99"/>
      <use x="207.642578" xlink:href="#DejaVuSans-116"/>
      <use x="246.851562" xlink:href="#DejaVuSans-105"/>
      <use x="274.634766" xlink:href="#DejaVuSans-111"/>
      <use x="335.816406" xlink:href="#DejaVuSans-110"/>
      <use x="399.195312" xlink:href="#DejaVuSans-32"/>
      <use x="430.982422" xlink:href="#DejaVuSans-111"/>
      <use x="492.164062" xlink:href="#DejaVuSans-102"/>
      <use x="527.369141" xlink:href="#DejaVuSans-32"/>
      <use x="559.15625" xlink:href="#DejaVuSans-102"/>
      <use x="594.361328" xlink:href="#DejaVuSans-117"/>
      <use x="657.740234" xlink:href="#DejaVuSans-110"/>
      <use x="721.119141" xlink:href="#DejaVuSans-99"/>
      <use x="776.099609" xlink:href="#DejaVuSans-116"/>
      <use x="815.308594" xlink:href="#DejaVuSans-105"/>
      <use x="843.091797" xlink:href="#DejaVuSans-111"/>
      <use x="904.273438" xlink:href="#DejaVuSans-110"/>
      <use x="967.652344" xlink:href="#DejaVuSans-44"/>
      <use x="999.439453" xlink:href="#DejaVuSans-116"/>
      <use x="1038.648438" xlink:href="#DejaVuSans-97"/>
      <use x="1099.927734" xlink:href="#DejaVuSans-114"/>
      <use x="1139.291016" xlink:href="#DejaVuSans-103"/>
      <use x="1202.767578" xlink:href="#DejaVuSans-101"/>
      <use x="1264.291016" xlink:href="#DejaVuSans-116"/>
      <use x="1303.5" xlink:href="#DejaVuSans-32"/>
      <use x="1335.287109" xlink:href="#DejaVuSans-112"/>
      <use x="1398.763672" xlink:href="#DejaVuSans-97"/>
      <use x="1460.042969" xlink:href="#DejaVuSans-105"/>
      <use x="1487.826172" xlink:href="#DejaVuSans-114"/>
      <use x="1528.939453" xlink:href="#DejaVuSans-115"/>
     </g>
    </g>
   </g>
   <g id="line2d_29">
    <defs>
     <path d="M 0 1.5 
C 0.397805 1.5 0.77937 1.341951 1.06066 1.06066 
C 1.341951 0.77937 1.5 0.397805 1.5 0 
C 1.5 -0.397805 1.341951 -0.77937 1.06066 -1.06066 
C 0.77937 -1.341951 0.397805 -1.5 0 -1.5 
C -0.397805 -1.5 -0.77937 -1.341951 -1.06066 -1.06066 
C -1.341951 -0.77937 -1.5 -0.397805 -1.5 0 
C -1.5 0.397805 -1.341951 0.77937 -1.06066 1.06066 
C -0.77937 1.341951 -0.397805 1.5 0 1.5 
z
" id="m3379b8a263" style="stroke:#000080;"/>
    </defs>
    <g>
     <use style="fill:#000080;stroke:#000080;" x="177.475067" xlink:href="#m3379b8a263" y="241.578828"/>
     <use style="fill:#000080;stroke:#000080;" x="177.475067" xlink:href="#m3379b8a263" y="241.578828"/>
    </g>
   </g>
   <g id="line2d_30">
    <path d="M 103.203018 298.944 
L 103.203018 297.796697 
L 103.623262 297.796697 
L 103.623262 296.075741 
L 104.033617 296.075741 
L 104.033617 278.292538 
L 104.434538 278.292538 
L 104.434538 269.114111 
L 104.826449 269.114111 
L 104.826449 266.819504 
L 105.584798 266.819504 
L 105.584798 260.509335 
L 107.347841 260.509335 
L 107.347841 259.935683 
L 110.131676 259.935683 
L 110.131676 258.78838 
L 116.522527 258.78838 
L 116.522527 258.214728 
L 117.857331 258.214728 
L 117.857331 257.641076 
L 118.039942 257.641076 
L 118.039942 257.067425 
L 118.751849 257.067425 
L 118.751849 256.493773 
L 119.602714 256.493773 
L 119.602714 255.346469 
L 119.768017 255.346469 
L 119.768017 254.199166 
L 120.093994 254.199166 
L 120.093994 253.625514 
L 120.254726 253.625514 
L 120.254726 252.478211 
L 120.41399 252.478211 
L 120.41399 251.330907 
L 120.571812 251.330907 
L 120.571812 250.183604 
L 121.489881 250.183604 
L 121.489881 249.036301 
L 127.902737 249.036301 
L 127.902737 247.888997 
L 133.124876 247.888997 
L 133.124876 247.315345 
L 136.645276 247.315345 
L 136.645276 246.741694 
L 136.831795 246.741694 
L 136.831795 245.59439 
L 139.520072 245.59439 
L 139.520072 245.020738 
L 140.599134 245.020738 
L 140.599134 244.447087 
L 149.676158 244.447087 
L 149.676158 243.873435 
L 149.764758 243.873435 
L 149.764758 243.299783 
L 150.542526 243.299783 
L 150.542526 242.726132 
L 158.122556 242.726132 
L 158.122556 242.15248 
L 177.475067 242.15248 
L 177.475067 241.578828 
L 338.688 241.578828 
" style="fill:none;stroke:#000080;stroke-linecap:square;stroke-width:1.5;"/>
   </g>
   <g id="line2d_31">
    <defs>
     <path d="M 0 6 
C 1.591219 6 3.117479 5.367802 4.242641 4.242641 
C 5.367802 3.117479 6 1.591219 6 0 
C 6 -1.591219 5.367802 -3.117479 4.242641 -4.242641 
C 3.117479 -5.367802 1.591219 -6 0 -6 
C -1.591219 -6 -3.117479 -5.367802 -4.242641 -4.242641 
C -5.367802 -3.117479 -6 -1.591219 -6 0 
C -6 1.591219 -5.367802 3.117479 -4.242641 4.242641 
C -3.117479 5.367802 -1.591219 6 0 6 
z
" id="m67609b0475" style="stroke:#000080;stroke-width:1.5;"/>
    </defs>
    <g>
     <use style="fill-opacity:0;stroke:#000080;stroke-width:1.5;" x="120.254726" xlink:href="#m67609b0475" y="253.625514"/>
     <use style="fill-opacity:0;stroke:#000080;stroke-width:1.5;" x="158.122556" xlink:href="#m67609b0475" y="242.15248"/>
     <use style="fill-opacity:0;stroke:#000080;stroke-width:1.5;" x="177.475067" xlink:href="#m67609b0475" y="241.578828"/>
     <use style="fill-opacity:0;stroke:#000080;stroke-width:1.5;" x="177.475067" xlink:href="#m67609b0475" y="241.578828"/>
     <use style="fill-opacity:0;stroke:#000080;stroke-width:1.5;" x="338.688" xlink:href="#m67609b0475" y="241.578828"/>
    </g>
   </g>
   <g id="line2d_32">
    <path style="fill:none;stroke:#000080;stroke-linecap:square;stroke-width:1.5;"/>
    <g/>
   </g>
   <g id="line2d_33">
    <path clip-path="url(#pd0d42c49cf)" d="M 133.503183 247.315345 
" style="fill:none;stroke:#000080;stroke-linecap:square;stroke-width:1.5;"/>
    <defs>
     <path d="M -12 12 
L 12 -12 
M -12 -12 
L 12 12 
" id="m80a654c6ce" style="stroke:#000080;"/>
    </defs>
    <g clip-path="url(#pd0d42c49cf)">
     <use style="fill:#000080;stroke:#000080;" x="133.503183" xlink:href="#m80a654c6ce" y="247.315345"/>
    </g>
   </g>
   <g id="line2d_34">
    <defs>
     <path d="M 0 1.5 
C 0.397805 1.5 0.77937 1.341951 1.06066 1.06066 
C 1.341951 0.77937 1.5 0.397805 1.5 0 
C 1.5 -0.397805 1.341951 -0.77937 1.06066 -1.06066 
C 0.77937 -1.341951 0.397805 -1.5 0 -1.5 
C -0.397805 -1.5 -0.77937 -1.341951 -1.06066 -1.06066 
C -1.341951 -0.77937 -1.5 -0.397805 -1.5 0 
C -1.5 0.397805 -1.341951 0.77937 -1.06066 1.06066 
C -0.77937 1.341951 -0.397805 1.5 0 1.5 
z
" id="m2ff4e4c426" style="stroke:#ff00ff;"/>
    </defs>
    <g>
     <use style="fill:#ff00ff;stroke:#ff00ff;" x="203.626072" xlink:href="#m2ff4e4c426" y="6.381624"/>
     <use style="fill:#ff00ff;stroke:#ff00ff;" x="203.626072" xlink:href="#m2ff4e4c426" y="6.381624"/>
    </g>
   </g>
   <g id="line2d_35">
    <path d="M 38.440992 298.944 
L 38.440992 280.013493 
L 93.863965 280.013493 
L 93.863965 279.439842 
L 94.575872 279.439842 
L 94.575872 278.86619 
L 98.880934 278.86619 
L 98.880934 278.292538 
L 99.41757 278.292538 
L 99.41757 277.718886 
L 99.938184 277.718886 
L 99.938184 275.997931 
L 100.443706 275.997931 
L 100.443706 274.850628 
L 100.934985 274.850628 
L 100.934985 274.276976 
L 101.412804 274.276976 
L 101.412804 273.703324 
L 101.877879 273.703324 
L 101.877879 273.129673 
L 102.772397 273.129673 
L 102.772397 270.835066 
L 103.203018 270.835066 
L 103.203018 269.687762 
L 103.623262 269.687762 
L 103.623262 269.114111 
L 104.033617 269.114111 
L 104.033617 268.540459 
L 104.434538 268.540459 
L 104.434538 267.966807 
L 113.500792 267.966807 
L 113.500792 267.393156 
L 114.641021 267.393156 
L 114.641021 266.819504 
L 116.522527 266.819504 
L 116.522527 266.245852 
L 117.486268 266.245852 
L 117.486268 265.6722 
L 117.857331 265.6722 
L 117.857331 265.098549 
L 118.039942 265.098549 
L 118.039942 263.951245 
L 118.220662 263.951245 
L 118.220662 263.377593 
L 118.399528 263.377593 
L 118.399528 262.803942 
L 118.925375 262.803942 
L 118.925375 262.23029 
L 119.43583 262.23029 
L 119.43583 261.082987 
L 121.036887 261.082987 
L 121.036887 260.509335 
L 122.219665 260.509335 
L 122.219665 259.935683 
L 124.867052 259.935683 
L 124.867052 259.362031 
L 125.938745 259.362031 
L 125.938745 258.78838 
L 126.281824 258.78838 
L 126.281824 258.214728 
L 126.729009 258.214728 
L 126.839037 257.067425 
L 126.948374 257.067425 
L 126.948374 256.493773 
L 127.272333 256.493773 
L 127.272333 255.920121 
L 127.695124 255.920121 
L 127.799239 254.772818 
L 128.107907 254.772818 
L 128.107907 254.199166 
L 128.511146 254.199166 
L 128.610515 249.036301 
L 128.709321 249.036301 
L 128.709321 248.462649 
L 128.905271 248.462649 
L 129.002426 246.741694 
L 129.760775 246.741694 
L 129.760775 245.59439 
L 130.036864 245.59439 
L 130.127931 242.15248 
L 130.30865 242.15248 
L 130.398313 241.005176 
L 130.487516 241.005176 
L 130.487516 240.431525 
L 130.752422 240.431525 
L 130.752422 239.284221 
L 130.926816 239.284221 
L 130.926816 235.268659 
L 131.185181 235.268659 
L 131.185181 232.400401 
L 131.439773 232.400401 
L 131.523818 231.253097 
L 132.019755 231.253097 
L 132.101058 230.105794 
L 132.181982 230.105794 
L 132.181982 228.95849 
L 132.342714 228.95849 
L 132.342714 228.384839 
L 132.73818 228.384839 
L 132.816208 227.237535 
L 133.04822 227.237535 
L 133.04822 226.663884 
L 133.277185 226.663884 
L 133.277185 226.090232 
L 134.661403 226.090232 
L 134.661403 225.51658 
L 137.138292 225.51658 
L 137.138292 224.942928 
L 137.794206 224.942928 
L 137.794206 224.369277 
L 137.968891 224.369277 
L 137.968891 223.795625 
L 139.145019 223.795625 
L 139.145019 223.221973 
L 140.297583 223.221973 
L 140.297583 222.648321 
L 140.549236 222.648321 
L 140.549236 222.07467 
L 142.261275 222.07467 
L 142.261275 221.501018 
L 142.575505 221.501018 
L 142.664255 220.353715 
L 142.840411 220.353715 
L 142.840411 219.780063 
L 143.101352 219.780063 
L 143.101352 219.206411 
L 143.527762 219.206411 
L 143.611807 217.485456 
L 143.653678 217.485456 
L 143.737119 215.764501 
L 143.902815 215.764501 
L 143.902815 214.617197 
L 144.107744 214.617197 
L 144.189046 211.748939 
L 144.470655 211.748939 
L 144.550287 210.601635 
L 144.589967 210.601635 
L 144.589967 210.027984 
L 144.826168 210.027984 
L 144.826168 209.454332 
L 144.94308 209.454332 
L 144.981877 208.307029 
L 145.059213 208.307029 
L 145.097753 207.159725 
L 145.212864 207.159725 
L 145.289185 206.012422 
L 145.327221 206.012422 
L 145.365173 204.865118 
L 145.440832 204.865118 
L 145.440832 204.291467 
L 145.665858 204.291467 
L 145.665858 203.717815 
L 145.924771 203.717815 
L 145.924771 203.144163 
L 146.071013 203.144163 
L 146.143677 201.99686 
L 146.324022 201.99686 
L 146.431341 199.128601 
L 146.573414 199.128601 
L 146.644018 197.981298 
L 146.714338 197.981298 
L 146.784375 196.833994 
L 146.888907 196.833994 
L 146.888907 196.260342 
L 147.061745 196.260342 
L 147.061745 195.686691 
L 147.198794 195.686691 
L 147.300877 193.392084 
L 147.402367 193.392084 
L 147.4697 192.24478 
L 147.570215 192.24478 
L 147.636905 190.523825 
L 147.835457 190.523825 
L 147.835457 189.376522 
L 147.96658 189.376522 
L 147.96658 188.80287 
L 148.354135 188.80287 
L 148.354135 188.229218 
L 149.012299 188.229218 
L 149.012299 187.655567 
L 149.407627 187.655567 
L 149.407627 187.081915 
L 149.646525 187.081915 
L 149.646525 186.508263 
L 149.794191 186.508263 
L 149.794191 185.934612 
L 149.998846 185.934612 
L 150.05688 184.213656 
L 150.287105 184.213656 
L 150.287105 183.640005 
L 150.429467 183.640005 
L 150.429467 183.066353 
L 150.822008 183.066353 
L 150.822008 182.492701 
L 150.987572 182.492701 
L 150.987572 181.91905 
L 151.792604 181.91905 
L 151.792604 181.345398 
L 151.949246 181.345398 
L 152.027042 180.198094 
L 152.562109 180.198094 
L 152.562109 179.624443 
L 152.786492 179.624443 
L 152.860649 178.477139 
L 152.983548 178.477139 
L 153.081247 176.756184 
L 153.275019 176.756184 
L 153.275019 176.182532 
L 153.585377 176.182532 
L 153.656221 172.740622 
L 153.726778 172.740622 
L 153.820412 171.593319 
L 154.075343 171.593319 
L 154.167129 169.298712 
L 154.212841 169.298712 
L 154.212841 168.72506 
L 154.439623 168.72506 
L 154.439623 168.151408 
L 154.551917 168.151408 
L 154.551917 167.577757 
L 154.663493 167.577757 
L 154.730098 166.430453 
L 154.994001 166.430453 
L 154.994001 165.856801 
L 155.253971 165.856801 
L 155.318362 164.135846 
L 155.6368 164.135846 
L 155.6368 163.562195 
L 155.86668 163.562195 
L 155.86668 162.988543 
L 156.052535 162.988543 
L 156.073064 161.267588 
L 156.195732 161.267588 
L 156.277034 160.120284 
L 156.357959 160.120284 
L 156.357959 159.546632 
L 156.478647 159.546632 
L 156.478647 158.972981 
L 156.697761 158.972981 
L 156.776762 157.825677 
L 156.816128 157.825677 
L 156.914157 156.678374 
L 157.011638 156.678374 
L 157.011638 155.53107 
L 157.641697 155.53107 
L 157.735205 154.383767 
L 157.753847 154.383767 
L 157.753847 153.810115 
L 157.86528 153.810115 
L 157.939176 152.08916 
L 158.104304 152.08916 
L 158.104304 151.515508 
L 158.465753 151.515508 
L 158.572743 149.794553 
L 158.590511 149.794553 
L 158.661402 148.64725 
L 159.098062 148.64725 
L 159.098062 147.499946 
L 159.286782 147.499946 
L 159.303838 146.352643 
L 159.422762 146.352643 
L 159.422762 145.778991 
L 159.574482 145.778991 
L 159.574482 145.20534 
L 159.758143 145.20534 
L 159.857512 144.058036 
L 159.93989 144.058036 
L 160.038232 141.189778 
L 160.054568 141.189778 
L 160.070889 138.321519 
L 160.265562 138.321519 
L 160.297798 137.174215 
L 160.553557 137.174215 
L 160.553557 136.600564 
L 160.774311 136.600564 
L 160.774311 136.026912 
L 160.899212 136.026912 
L 160.992304 134.305957 
L 161.161694 134.305957 
L 161.268637 132.01135 
L 161.39006 132.01135 
L 161.39006 131.437698 
L 161.525657 131.437698 
L 161.525657 130.864047 
L 161.70483 130.864047 
L 161.70483 130.290395 
L 161.838011 130.290395 
L 161.88218 129.143091 
L 162.101361 129.143091 
L 162.188268 127.995788 
L 162.231559 127.995788 
L 162.231559 127.422136 
L 162.602318 127.422136 
L 162.602318 126.848485 
L 162.923853 126.848485 
L 163.034316 125.127529 
L 163.144084 125.127529 
L 163.225959 123.406574 
L 163.428979 123.406574 
L 163.428979 122.832923 
L 163.642961 122.832923 
L 163.722532 121.111967 
L 164.024234 121.111967 
L 164.127963 119.964664 
L 164.166702 119.964664 
L 164.166702 119.391012 
L 164.295217 119.391012 
L 164.39735 117.670057 
L 164.460881 117.670057 
L 164.47356 116.522754 
L 164.599841 116.522754 
L 164.675172 114.801798 
L 164.775111 114.801798 
L 164.775111 114.228147 
L 164.899235 114.228147 
L 164.960967 113.080843 
L 165.047026 113.080843 
L 165.144862 110.786236 
L 165.217881 110.786236 
L 165.217881 110.212585 
L 165.483031 110.212585 
L 165.483031 109.638933 
L 165.791279 109.638933 
L 165.791279 109.065281 
L 165.966667 109.065281 
L 166.07106 107.917978 
L 166.105719 107.917978 
L 166.163331 106.770674 
L 166.335035 106.770674 
L 166.335035 106.197023 
L 166.807003 106.197023 
L 166.807003 105.623371 
L 167.179933 105.623371 
L 167.179933 105.049719 
L 167.384913 105.049719 
L 167.481174 103.328764 
L 167.534424 103.328764 
L 167.534424 102.755112 
L 167.672117 102.755112 
L 167.672117 102.181461 
L 167.787784 102.181461 
L 167.850553 99.886854 
L 168.027181 99.886854 
L 168.027181 99.313202 
L 168.293904 99.313202 
L 168.385289 97.592247 
L 168.526499 97.592247 
L 168.586669 95.871292 
L 168.805533 95.871292 
L 168.805533 95.29764 
L 169.060699 95.29764 
L 169.060699 94.723988 
L 169.27373 94.723988 
L 169.379278 93.576685 
L 169.45564 93.576685 
L 169.465162 92.429381 
L 169.692141 92.429381 
L 169.692141 91.85573 
L 169.851149 91.85573 
L 169.851149 91.282078 
L 169.971772 91.282078 
L 170.07319 89.561123 
L 170.274274 89.561123 
L 170.373953 88.413819 
L 170.731695 88.413819 
L 170.837602 86.119213 
L 170.863978 86.119213 
L 170.890315 84.971909 
L 171.03881 84.971909 
L 171.03881 84.398257 
L 171.349156 84.398257 
L 171.349156 83.824606 
L 171.737838 83.824606 
L 171.796233 82.677302 
L 171.920711 82.677302 
L 172.027878 81.529999 
L 172.044307 81.529999 
L 172.118046 79.809044 
L 172.353551 79.809044 
L 172.353551 79.235392 
L 172.498143 79.235392 
L 172.569992 76.940785 
L 172.60978 76.940785 
L 172.60978 76.367133 
L 172.736497 76.367133 
L 172.736497 75.793482 
L 172.885786 75.793482 
L 172.885786 75.21983 
L 173.103489 75.21983 
L 173.103489 74.646178 
L 173.545979 74.646178 
L 173.545979 74.072526 
L 173.889107 74.072526 
L 173.925999 72.925223 
L 174.043535 72.925223 
L 174.043535 72.351571 
L 174.160284 72.351571 
L 174.160284 71.77792 
L 174.283479 71.77792 
L 174.384284 70.056964 
L 174.970237 70.056964 
L 174.970237 69.483313 
L 175.094755 69.483313 
L 175.184134 67.762358 
L 175.218389 67.762358 
L 175.327556 66.615054 
L 175.429282 66.615054 
L 175.510238 65.467751 
L 175.57071 65.467751 
L 175.657689 64.320447 
L 175.968581 64.320447 
L 175.988239 63.173144 
L 176.267585 63.173144 
L 176.267585 62.599492 
L 176.529835 62.599492 
L 176.529835 62.02584 
L 176.675242 62.02584 
L 176.731812 60.878537 
L 177.042792 60.878537 
L 177.042792 60.304885 
L 177.275482 60.304885 
L 177.275482 59.731234 
L 177.396715 59.731234 
L 177.396715 59.157582 
L 177.547081 59.157582 
L 177.547081 58.58393 
L 177.737676 58.58393 
L 177.808615 56.862975 
L 178.019719 56.862975 
L 178.118525 55.14202 
L 178.262819 55.14202 
L 178.262819 54.568368 
L 178.405929 54.568368 
L 178.405929 53.994716 
L 178.750267 53.994716 
L 178.78935 52.847413 
L 178.878354 52.847413 
L 178.878354 52.273761 
L 179.115327 52.273761 
L 179.115327 51.700109 
L 179.229898 51.700109 
L 179.229898 51.126458 
L 179.467538 51.126458 
L 179.467538 50.552806 
L 179.617095 50.552806 
L 179.617095 49.979154 
L 179.76538 49.979154 
L 179.860045 48.258199 
L 179.901953 48.258199 
L 180.011487 47.110896 
L 180.042657 47.110896 
L 180.140994 44.816289 
L 180.397157 44.816289 
L 180.447941 43.668985 
L 180.51374 43.668985 
L 180.559149 42.521682 
L 180.654624 42.521682 
L 180.699667 41.374379 
L 180.937953 41.374379 
L 180.937953 40.800727 
L 181.231304 40.800727 
L 181.337641 37.932468 
L 181.424165 37.932468 
L 181.443334 36.785165 
L 181.600682 36.785165 
L 181.600682 36.211513 
L 181.957749 36.211513 
L 181.957749 35.637861 
L 182.220831 35.637861 
L 182.220831 35.06421 
L 182.60592 35.06421 
L 182.650671 33.343255 
L 182.801969 33.343255 
L 182.801969 32.769603 
L 182.916789 32.769603 
L 182.916789 32.195951 
L 183.109394 32.195951 
L 183.109394 31.622299 
L 183.265412 31.622299 
L 183.265412 31.048648 
L 183.458493 31.048648 
L 183.53513 29.901344 
L 183.767235 29.901344 
L 183.767235 29.327692 
L 184.522016 29.327692 
L 184.522016 28.754041 
L 184.777074 28.754041 
L 184.777074 28.180389 
L 185.584933 28.180389 
L 185.584933 27.606737 
L 186.039767 27.606737 
L 186.039767 27.033086 
L 186.454315 27.033086 
L 186.497383 25.31213 
L 186.622397 25.31213 
L 186.622397 24.738479 
L 186.96076 24.738479 
L 186.96076 24.164827 
L 187.357635 24.164827 
L 187.357635 23.591175 
L 187.655344 23.591175 
L 187.655344 23.017524 
L 188.050013 23.017524 
L 188.050013 22.443872 
L 188.413479 22.443872 
L 188.413479 21.87022 
L 188.592411 21.87022 
L 188.643199 20.722917 
L 188.772672 20.722917 
L 188.772672 20.149265 
L 189.090665 20.149265 
L 189.090665 19.575613 
L 189.427223 19.575613 
L 189.427223 19.001962 
L 189.5991 19.001962 
L 189.5991 18.42831 
L 190.675401 18.42831 
L 190.675401 17.854658 
L 190.857808 17.854658 
L 190.857808 17.281006 
L 193.579154 17.281006 
L 193.619708 16.133703 
L 193.714758 16.133703 
L 193.821074 14.9864 
L 194.425242 14.9864 
L 194.425242 14.412748 
L 194.743128 14.412748 
L 194.743128 13.839096 
L 194.954085 13.839096 
L 195.002577 12.118141 
L 195.134145 12.118141 
L 195.134145 11.544489 
L 195.407249 11.544489 
L 195.407249 10.970838 
L 195.982617 10.970838 
L 195.993018 9.823534 
L 196.730028 9.823534 
L 196.730028 9.249882 
L 197.513553 9.249882 
L 197.513553 8.676231 
L 198.160843 8.676231 
L 198.160843 8.102579 
L 198.795594 8.102579 
L 198.795594 7.528927 
L 202.395633 7.528927 
L 202.395633 6.955275 
L 203.626072 6.955275 
L 203.626072 6.381624 
L 338.688 6.381624 
L 338.688 6.381624 
" style="fill:none;stroke:#ff00ff;stroke-linecap:square;stroke-width:1.5;"/>
   </g>
   <g id="line2d_36">
    <defs>
     <path d="M -0 8.485281 
L 5.091169 0 
L 0 -8.485281 
L -5.091169 -0 
z
" id="m9a52d1ad5d" style="stroke:#ff00ff;stroke-linejoin:miter;stroke-width:1.5;"/>
    </defs>
    <g>
     <use style="fill-opacity:0;stroke:#ff00ff;stroke-linejoin:miter;stroke-width:1.5;" x="126.281824" xlink:href="#m9a52d1ad5d" y="258.214728"/>
     <use style="fill-opacity:0;stroke:#ff00ff;stroke-linejoin:miter;stroke-width:1.5;" x="164.39735" xlink:href="#m9a52d1ad5d" y="117.670057"/>
     <use style="fill-opacity:0;stroke:#ff00ff;stroke-linejoin:miter;stroke-width:1.5;" x="203.626072" xlink:href="#m9a52d1ad5d" y="6.955275"/>
     <use style="fill-opacity:0;stroke:#ff00ff;stroke-linejoin:miter;stroke-width:1.5;" x="203.626072" xlink:href="#m9a52d1ad5d" y="6.381624"/>
     <use style="fill-opacity:0;stroke:#ff00ff;stroke-linejoin:miter;stroke-width:1.5;" x="203.626072" xlink:href="#m9a52d1ad5d" y="6.381624"/>
     <use style="fill-opacity:0;stroke:#ff00ff;stroke-linejoin:miter;stroke-width:1.5;" x="338.688" xlink:href="#m9a52d1ad5d" y="6.381624"/>
    </g>
   </g>
   <g id="line2d_37">
    <path style="fill:none;stroke:#ff00ff;stroke-linecap:square;stroke-width:1.5;"/>
    <g/>
   </g>
   <g id="line2d_38">
    <path clip-path="url(#pd0d42c49cf)" d="M 137.852629 224.369277 
" style="fill:none;stroke:#ff00ff;stroke-linecap:square;stroke-width:1.5;"/>
    <defs>
     <path d="M -12 12 
L 12 -12 
M -12 -12 
L 12 12 
" id="m22922abdf7" style="stroke:#ff00ff;"/>
    </defs>
    <g clip-path="url(#pd0d42c49cf)">
     <use style="fill:#ff00ff;stroke:#ff00ff;" x="137.852629" xlink:href="#m22922abdf7" y="224.369277"/>
    </g>
   </g>
   <g id="line2d_39">
    <defs>
     <path d="M 0 1.5 
C 0.397805 1.5 0.77937 1.341951 1.06066 1.06066 
C 1.341951 0.77937 1.5 0.397805 1.5 0 
C 1.5 -0.397805 1.341951 -0.77937 1.06066 -1.06066 
C 0.77937 -1.341951 0.397805 -1.5 0 -1.5 
C -0.397805 -1.5 -0.77937 -1.341951 -1.06066 -1.06066 
C -1.341951 -0.77937 -1.5 -0.397805 -1.5 0 
C -1.5 0.397805 -1.341951 0.77937 -1.06066 1.06066 
C -0.77937 1.341951 -0.397805 1.5 0 1.5 
z
" id="m545d7ccff0" style="stroke:#ff7500;"/>
    </defs>
    <g>
     <use style="fill:#ff7500;stroke:#ff7500;" x="193.797504" xlink:href="#m545d7ccff0" y="6.381624"/>
     <use style="fill:#ff7500;stroke:#ff7500;" x="193.797504" xlink:href="#m545d7ccff0" y="6.381624"/>
    </g>
   </g>
   <g id="line2d_40">
    <path d="M 38.440992 298.944 
L 38.440992 286.897314 
L 78.59642 286.897314 
L 78.59642 286.323662 
L 97.755429 286.323662 
L 97.755429 285.75001 
L 99.41757 285.75001 
L 99.41757 284.602707 
L 99.938184 284.602707 
L 99.938184 284.029055 
L 101.877879 284.029055 
L 101.877879 282.3081 
L 102.772397 282.3081 
L 102.772397 280.013493 
L 103.203018 280.013493 
L 103.203018 278.292538 
L 103.623262 278.292538 
L 103.623262 276.571583 
L 104.033617 276.571583 
L 104.033617 275.997931 
L 104.434538 275.997931 
L 104.434538 274.850628 
L 104.826449 274.850628 
L 104.826449 273.129673 
L 105.209745 273.129673 
L 105.209745 271.408718 
L 106.66386 271.408718 
L 106.66386 270.261414 
L 115.291007 270.261414 
L 115.291007 269.687762 
L 115.917635 269.687762 
L 115.917635 269.114111 
L 116.121606 269.114111 
L 116.121606 261.656638 
L 117.297733 261.656638 
L 117.297733 261.082987 
L 117.857331 261.082987 
L 117.857331 260.509335 
L 118.399528 260.509335 
L 118.399528 258.214728 
L 118.751849 258.214728 
L 118.751849 257.641076 
L 119.097192 257.641076 
L 119.097192 257.067425 
L 119.267333 257.067425 
L 119.267333 255.920121 
L 119.602714 255.920121 
L 119.602714 255.346469 
L 119.931767 255.346469 
L 119.931767 254.199166 
L 120.093994 254.199166 
L 120.093994 253.625514 
L 120.571812 253.625514 
L 120.571812 253.051863 
L 121.340187 253.051863 
L 121.340187 252.478211 
L 121.489881 252.478211 
L 121.489881 251.904559 
L 122.076131 251.904559 
L 122.076131 251.330907 
L 122.219665 251.330907 
L 122.219665 250.757256 
L 122.643312 250.757256 
L 122.643312 249.609952 
L 122.782271 249.609952 
L 122.782271 249.036301 
L 123.192626 249.036301 
L 123.192626 247.888997 
L 123.460928 247.888997 
L 123.460928 247.315345 
L 123.985457 247.315345 
L 123.985457 246.168042 
L 124.241922 246.168042 
L 124.241922 245.59439 
L 124.368753 245.59439 
L 124.368753 243.873435 
L 124.989434 243.873435 
L 124.989434 243.299783 
L 125.351508 243.299783 
L 125.351508 242.726132 
L 125.706218 242.726132 
L 125.706218 242.15248 
L 125.938745 242.15248 
L 125.938745 241.005176 
L 132.501978 241.005176 
L 132.501978 240.431525 
L 134.307653 240.431525 
L 134.37898 239.284221 
L 134.450015 239.284221 
L 134.450015 238.71057 
L 134.661403 238.71057 
L 134.661403 238.136918 
L 134.800918 238.136918 
L 134.800918 236.415963 
L 135.00812 236.415963 
L 135.00812 235.268659 
L 135.144899 235.268659 
L 135.144899 234.695008 
L 135.681535 234.695008 
L 135.681535 233.547704 
L 135.813153 233.547704 
L 135.813153 232.400401 
L 135.943785 232.400401 
L 135.943785 231.826749 
L 136.073445 231.826749 
L 136.073445 231.253097 
L 136.32991 231.253097 
L 136.32991 230.679446 
L 136.519813 230.679446 
L 136.519813 230.105794 
L 136.645276 230.105794 
L 136.707671 228.95849 
L 136.831795 228.95849 
L 136.831795 224.369277 
L 136.955041 224.369277 
L 136.955041 223.795625 
L 137.077422 223.795625 
L 137.077422 223.221973 
L 137.198951 223.221973 
L 137.198951 222.648321 
L 137.319638 222.648321 
L 137.37967 218.632759 
L 137.439497 218.632759 
L 137.439497 218.059108 
L 137.558536 218.059108 
L 137.558536 214.043546 
L 137.735587 214.043546 
L 137.735587 213.469894 
L 137.852629 213.469894 
L 137.852629 208.88068 
L 138.199116 208.88068 
L 138.199116 203.717815 
L 138.313099 203.717815 
L 138.313099 202.570511 
L 138.538853 202.570511 
L 138.594838 199.702253 
L 138.650644 199.702253 
L 138.761723 195.686691 
L 138.872098 195.686691 
L 138.872098 193.965736 
L 139.253002 193.965736 
L 139.360321 192.24478 
L 139.466984 192.24478 
L 139.572998 189.376522 
L 139.783113 189.376522 
L 139.783113 188.80287 
L 139.990725 188.80287 
L 139.990725 187.081915 
L 141.709062 187.081915 
L 141.709062 186.508263 
L 142.261275 186.508263 
L 142.261275 185.36096 
L 142.441528 185.36096 
L 142.441528 184.787308 
L 143.058132 184.787308 
L 143.101352 183.640005 
L 143.44331 183.640005 
L 143.44331 183.066353 
L 143.861538 183.066353 
L 143.861538 182.492701 
L 144.107744 182.492701 
L 144.148442 181.345398 
L 144.826168 181.345398 
L 144.826168 179.624443 
L 145.591172 179.624443 
L 145.628555 178.477139 
L 145.703082 178.477139 
L 145.703082 177.903487 
L 145.924771 177.903487 
L 145.924771 177.329836 
L 146.573414 177.329836 
L 146.679213 175.608881 
L 146.714338 175.608881 
L 146.714338 175.035229 
L 147.368603 175.035229 
L 147.402367 173.887925 
L 147.50327 173.887925 
L 147.50327 173.314274 
L 147.636905 173.314274 
L 147.70334 171.593319 
L 147.769524 171.593319 
L 147.769524 171.019667 
L 148.031773 171.019667 
L 148.129109 169.298712 
L 148.322166 169.298712 
L 148.386046 168.151408 
L 148.576295 168.151408 
L 148.670646 165.856801 
L 148.826773 165.856801 
L 148.888835 164.709498 
L 148.981515 164.709498 
L 149.043029 162.414891 
L 149.104327 162.414891 
L 149.195872 160.120284 
L 149.347388 160.120284 
L 149.377533 158.972981 
L 149.676158 158.972981 
L 149.676158 158.399329 
L 149.794191 158.399329 
L 149.823575 156.678374 
L 150.027887 156.678374 
L 150.05688 154.957419 
L 150.344189 154.957419 
L 150.372662 153.236464 
L 150.486088 153.236464 
L 150.542526 151.515508 
L 150.598782 151.515508 
L 150.682827 149.220902 
L 150.710752 149.220902 
L 150.79426 146.926295 
L 150.849711 146.926295 
L 150.849711 145.778991 
L 151.015013 145.778991 
L 151.042412 144.631688 
L 151.287083 144.631688 
L 151.367883 142.910733 
L 151.475037 142.910733 
L 151.581536 140.616126 
L 151.740076 140.616126 
L 151.844975 138.321519 
L 151.923236 138.321519 
L 151.923236 137.747867 
L 152.155936 137.747867 
L 152.207228 136.600564 
L 152.637225 136.600564 
L 152.637225 136.026912 
L 152.761703 136.026912 
L 152.786492 134.879609 
L 153.105587 134.879609 
L 153.105587 134.305957 
L 153.275019 134.305957 
L 153.371104 132.585002 
L 153.395042 132.585002 
L 153.442821 131.437698 
L 153.514245 131.437698 
L 153.514245 130.864047 
L 153.773658 130.864047 
L 153.773658 130.290395 
L 154.098334 130.290395 
L 154.167129 128.56944 
L 154.303908 128.56944 
L 154.303908 127.422136 
L 154.950294 127.422136 
L 154.950294 126.848485 
L 155.189341 126.848485 
L 155.296925 125.701181 
L 155.403849 125.701181 
L 155.510121 123.980226 
L 155.55245 123.980226 
L 155.55245 123.406574 
L 155.741666 123.406574 
L 155.741666 122.259271 
L 155.970177 122.259271 
L 155.970177 121.685619 
L 156.134506 121.685619 
L 156.175347 120.538316 
L 156.498681 120.538316 
L 156.558644 118.243709 
L 156.737306 118.243709 
L 156.796456 117.096405 
L 156.972711 117.096405 
L 157.031069 115.949102 
L 157.147202 115.949102 
L 157.20498 114.801798 
L 157.28172 114.801798 
L 157.28172 113.654495 
L 157.396202 113.654495 
L 157.396202 113.080843 
L 157.509937 113.080843 
L 157.528821 111.93354 
L 157.622935 111.93354 
L 157.716543 110.786236 
L 157.809652 110.786236 
L 157.86528 109.638933 
L 157.939176 109.638933 
L 157.939176 109.065281 
L 158.122556 109.065281 
L 158.213527 107.917978 
L 158.304027 107.917978 
L 158.304027 107.344326 
L 158.465753 107.344326 
L 158.572743 106.197023 
L 158.976895 106.197023 
L 159.063529 105.049719 
L 159.166924 105.049719 
L 159.235515 102.755112 
L 159.320876 102.755112 
L 159.320876 102.181461 
L 159.608019 102.181461 
L 159.658204 101.034157 
L 159.84099 101.034157 
L 159.906985 99.886854 
L 160.217098 99.886854 
L 160.297798 98.165899 
L 160.329974 98.165899 
L 160.329974 97.592247 
L 160.664283 97.592247 
L 160.664283 96.444944 
L 160.821253 96.444944 
L 160.821253 95.871292 
L 161.161694 95.871292 
L 161.268637 94.723988 
L 161.39006 94.723988 
L 161.39006 94.150337 
L 161.764147 94.150337 
L 161.764147 93.576685 
L 161.88218 93.576685 
L 161.911563 92.429381 
L 162.014019 92.429381 
L 162.014019 91.85573 
L 162.188268 91.85573 
L 162.274744 90.134775 
L 162.489076 90.134775 
L 162.574077 87.266516 
L 162.868358 87.266516 
L 162.923853 84.971909 
L 163.089286 84.971909 
L 163.130401 82.677302 
L 163.225959 82.677302 
L 163.320996 80.956347 
L 164.050224 80.956347 
L 164.050224 80.382695 
L 164.282408 80.382695 
L 164.384616 79.235392 
L 164.775111 79.235392 
L 164.86209 77.514437 
L 165.059286 77.514437 
L 165.059286 76.940785 
L 165.278497 76.940785 
L 165.278497 76.367133 
L 165.399101 76.367133 
L 165.411116 75.21983 
L 165.649687 75.21983 
L 165.744209 73.498875 
L 165.826498 73.498875 
L 165.93173 71.77792 
L 165.966667 71.77792 
L 165.966667 71.204268 
L 166.094173 71.204268 
L 166.197807 69.483313 
L 166.232216 69.483313 
L 166.277988 67.188706 
L 166.459886 67.188706 
L 166.561376 66.041402 
L 166.718084 66.041402 
L 166.718084 65.467751 
L 166.972515 65.467751 
L 167.00543 63.746796 
L 167.0929 63.746796 
L 167.201624 62.02584 
L 167.244924 62.02584 
L 167.288118 60.878537 
L 167.395635 60.878537 
L 167.395635 60.304885 
L 167.555679 60.304885 
L 167.555679 59.731234 
L 167.871425 59.731234 
L 167.871425 58.010278 
L 168.344733 58.010278 
L 168.365023 56.862975 
L 168.48627 56.862975 
L 168.51645 53.994716 
L 168.894283 53.994716 
L 168.992367 52.273761 
L 169.23519 52.273761 
L 169.23519 51.700109 
L 169.465162 51.700109 
L 169.503198 49.979154 
L 169.579021 49.979154 
L 169.588476 48.831851 
L 169.692141 48.831851 
L 169.767149 47.684547 
L 169.925477 47.684547 
L 169.925477 47.110896 
L 170.045589 47.110896 
L 170.045589 46.537244 
L 170.219663 46.537244 
L 170.219663 45.963592 
L 170.355872 45.963592 
L 170.364915 44.816289 
L 170.589478 44.816289 
L 170.589478 44.242637 
L 170.828801 44.242637 
L 170.828801 43.095334 
L 170.951613 43.095334 
L 170.951613 42.521682 
L 171.349156 42.521682 
L 171.3833 41.374379 
L 171.569909 41.374379 
L 171.67086 39.653423 
L 171.704381 39.653423 
L 171.704381 39.079772 
L 171.854434 39.079772 
L 171.962007 37.932468 
L 172.191475 37.932468 
L 172.191475 37.358817 
L 172.361615 37.358817 
L 172.385786 36.211513 
L 172.530112 36.211513 
L 172.530112 35.637861 
L 173.057066 35.637861 
L 173.118935 34.490558 
L 173.341388 34.490558 
L 173.349008 33.343255 
L 173.948098 33.343255 
L 173.999552 32.195951 
L 174.25457 32.195951 
L 174.305129 31.048648 
L 174.391462 31.048648 
L 174.420145 29.901344 
L 174.662065 29.901344 
L 174.732584 28.754041 
L 174.795808 28.754041 
L 174.802819 27.606737 
L 175.313947 27.606737 
L 175.313947 27.033086 
L 175.469807 27.033086 
L 175.469807 26.459434 
L 175.630972 26.459434 
L 175.724302 24.738479 
L 175.77078 24.738479 
L 175.77078 24.164827 
L 176.086194 24.164827 
L 176.086194 23.591175 
L 176.459861 23.591175 
L 176.536182 22.443872 
L 176.643735 22.443872 
L 176.643735 21.87022 
L 176.919065 21.87022 
L 176.919065 21.296568 
L 177.122746 21.296568 
L 177.122746 20.722917 
L 177.372536 20.722917 
L 177.372536 20.149265 
L 177.517111 20.149265 
L 177.624761 18.42831 
L 178.141693 18.42831 
L 178.239812 17.281006 
L 178.262819 17.281006 
L 178.262819 16.707355 
L 180.104829 16.707355 
L 180.104829 16.133703 
L 180.218239 16.133703 
L 180.218239 15.560051 
L 180.39207 15.560051 
L 180.39207 14.9864 
L 181.424165 14.9864 
L 181.424165 14.412748 
L 181.543629 14.412748 
L 181.543629 13.839096 
L 182.133577 13.839096 
L 182.133577 13.265444 
L 182.275715 13.265444 
L 182.357718 11.544489 
L 182.8064 11.544489 
L 182.828533 10.397186 
L 183.144185 10.397186 
L 183.144185 9.823534 
L 184.701742 9.823534 
L 184.701742 9.249882 
L 185.452227 9.249882 
L 185.452227 8.676231 
L 186.96774 8.676231 
L 186.96774 8.102579 
L 187.588128 8.102579 
L 187.588128 7.528927 
L 189.940795 7.528927 
L 189.940795 6.955275 
L 193.797504 6.955275 
L 193.797504 6.381624 
L 338.688 6.381624 
L 338.688 6.381624 
" style="fill:none;stroke:#ff7500;stroke-linecap:square;stroke-width:1.5;"/>
   </g>
   <g id="line2d_41">
    <defs>
     <path d="M 0 -6 
L -1.347084 -1.854102 
L -5.706339 -1.854102 
L -2.179628 0.708204 
L -3.526712 4.854102 
L -0 2.291796 
L 3.526712 4.854102 
L 2.179628 0.708204 
L 5.706339 -1.854102 
L 1.347084 -1.854102 
z
" id="m106717dc4c" style="stroke:#ff7500;stroke-linejoin:bevel;stroke-width:1.5;"/>
    </defs>
    <g>
     <use style="fill-opacity:0;stroke:#ff7500;stroke-linejoin:bevel;stroke-width:1.5;" x="119.602714" xlink:href="#m106717dc4c" y="255.920121"/>
     <use style="fill-opacity:0;stroke:#ff7500;stroke-linejoin:bevel;stroke-width:1.5;" x="154.303908" xlink:href="#m106717dc4c" y="127.422136"/>
     <use style="fill-opacity:0;stroke:#ff7500;stroke-linejoin:bevel;stroke-width:1.5;" x="189.940795" xlink:href="#m106717dc4c" y="6.955275"/>
     <use style="fill-opacity:0;stroke:#ff7500;stroke-linejoin:bevel;stroke-width:1.5;" x="193.797504" xlink:href="#m106717dc4c" y="6.381624"/>
     <use style="fill-opacity:0;stroke:#ff7500;stroke-linejoin:bevel;stroke-width:1.5;" x="193.797504" xlink:href="#m106717dc4c" y="6.381624"/>
     <use style="fill-opacity:0;stroke:#ff7500;stroke-linejoin:bevel;stroke-width:1.5;" x="338.688" xlink:href="#m106717dc4c" y="6.381624"/>
    </g>
   </g>
   <g id="line2d_42">
    <path style="fill:none;stroke:#ff7500;stroke-linecap:square;stroke-width:1.5;"/>
    <g/>
   </g>
   <g id="line2d_43">
    <path clip-path="url(#pd0d42c49cf)" d="M 138.026733 208.88068 
" style="fill:none;stroke:#ff7500;stroke-linecap:square;stroke-width:1.5;"/>
    <defs>
     <path d="M -12 12 
L 12 -12 
M -12 -12 
L 12 12 
" id="mf285d6da73" style="stroke:#ff7500;"/>
    </defs>
    <g clip-path="url(#pd0d42c49cf)">
     <use style="fill:#ff7500;stroke:#ff7500;" x="138.026733" xlink:href="#mf285d6da73" y="208.88068"/>
    </g>
   </g>
   <g id="line2d_44">
    <defs>
     <path d="M 0 1.5 
C 0.397805 1.5 0.77937 1.341951 1.06066 1.06066 
C 1.341951 0.77937 1.5 0.397805 1.5 0 
C 1.5 -0.397805 1.341951 -0.77937 1.06066 -1.06066 
C 0.77937 -1.341951 0.397805 -1.5 0 -1.5 
C -0.397805 -1.5 -0.77937 -1.341951 -1.06066 -1.06066 
C -1.341951 -0.77937 -1.5 -0.397805 -1.5 0 
C -1.5 0.397805 -1.341951 0.77937 -1.06066 1.06066 
C -0.77937 1.341951 -0.397805 1.5 0 1.5 
z
" id="mb04ee5542e" style="stroke:#6495ed;"/>
    </defs>
    <g>
     <use style="fill:#6495ed;stroke:#6495ed;" x="186.971229" xlink:href="#mb04ee5542e" y="235.842311"/>
     <use style="fill:#6495ed;stroke:#6495ed;" x="186.971229" xlink:href="#mb04ee5542e" y="235.842311"/>
    </g>
   </g>
   <g id="line2d_45">
    <path d="M 38.440992 298.944 
L 38.440992 275.997931 
L 74.704957 275.997931 
L 74.704957 275.42428 
L 76.759008 275.42428 
L 76.759008 274.850628 
L 83.171864 274.850628 
L 83.171864 273.129673 
L 84.464254 273.129673 
L 84.464254 272.556021 
L 85.66744 272.556021 
L 85.66744 271.982369 
L 87.850195 271.982369 
L 87.850195 270.261414 
L 89.78989 270.261414 
L 89.78989 269.687762 
L 90.684409 269.687762 
L 90.684409 268.540459 
L 91.535274 268.540459 
L 91.535274 267.966807 
L 92.34655 267.966807 
L 92.34655 267.393156 
L 121.638301 267.393156 
L 121.638301 266.819504 
L 122.219665 266.819504 
L 122.219665 266.245852 
L 122.782271 266.245852 
L 122.782271 265.6722 
L 123.460928 265.6722 
L 123.460928 264.524897 
L 123.855796 264.524897 
L 123.855796 263.951245 
L 123.985457 263.951245 
L 123.985457 263.377593 
L 124.241922 263.377593 
L 124.241922 262.803942 
L 124.989434 262.803942 
L 124.989434 262.23029 
L 125.351508 262.23029 
L 125.351508 261.656638 
L 125.822869 261.656638 
L 125.822869 261.082987 
L 126.729009 261.082987 
L 126.729009 259.935683 
L 127.05703 259.935683 
L 127.05703 259.362031 
L 128.709321 259.362031 
L 128.807571 258.214728 
L 135.144899 258.214728 
L 135.144899 257.641076 
L 136.137916 257.641076 
L 136.137916 257.067425 
L 136.266147 257.067425 
L 136.266147 256.493773 
L 137.37967 256.493773 
L 137.37967 255.920121 
L 138.981779 255.920121 
L 138.981779 255.346469 
L 140.499195 255.346469 
L 140.499195 254.772818 
L 140.993259 254.772818 
L 140.993259 254.199166 
L 143.40093 254.199166 
L 143.40093 253.625514 
L 143.695448 253.625514 
L 143.695448 253.051863 
L 144.310293 253.051863 
L 144.310293 252.478211 
L 144.904196 252.478211 
L 144.904196 251.904559 
L 149.043029 251.904559 
L 149.043029 251.330907 
L 152.334802 251.330907 
L 152.334802 250.757256 
L 152.959038 250.757256 
L 152.959038 250.183604 
L 159.132527 250.183604 
L 159.132527 249.609952 
L 159.89051 249.609952 
L 159.906985 248.462649 
L 160.168498 248.462649 
L 160.168498 247.888997 
L 160.774311 247.888997 
L 160.774311 247.315345 
L 161.207607 247.315345 
L 161.207607 246.741694 
L 161.435376 246.741694 
L 161.435376 246.168042 
L 162.144868 246.168042 
L 162.144868 245.59439 
L 162.44642 245.59439 
L 162.44642 245.020738 
L 165.363008 245.020738 
L 165.363008 244.447087 
L 168.8746 244.447087 
L 168.904116 243.299783 
L 170.464079 243.299783 
L 170.464079 242.726132 
L 170.846398 242.726132 
L 170.846398 242.15248 
L 171.229121 242.15248 
L 171.229121 241.578828 
L 171.349156 241.578828 
L 171.349156 241.005176 
L 172.167033 241.005176 
L 172.167033 240.431525 
L 173.643636 240.431525 
L 173.643636 239.857873 
L 178.043018 239.857873 
L 178.043018 239.284221 
L 179.213577 239.284221 
L 179.213577 238.71057 
L 179.494339 238.71057 
L 179.494339 238.136918 
L 183.057076 238.136918 
L 183.057076 237.563266 
L 184.922846 237.563266 
L 184.922846 236.989614 
L 186.76065 236.989614 
L 186.76065 236.415963 
L 186.971229 236.415963 
L 186.971229 235.842311 
L 338.688 235.842311 
L 338.688 235.842311 
" style="fill:none;stroke:#6495ed;stroke-linecap:square;stroke-width:1.5;"/>
   </g>
   <g id="line2d_46">
    <defs>
     <path d="M -0 6 
L 6 -6 
L -6 -6 
z
" id="mcf73d20fa6" style="stroke:#6495ed;stroke-linejoin:miter;stroke-width:1.5;"/>
    </defs>
    <g>
     <use style="fill-opacity:0;stroke:#6495ed;stroke-linejoin:miter;stroke-width:1.5;" x="92.34655" xlink:href="#mcf73d20fa6" y="267.393156"/>
     <use style="fill-opacity:0;stroke:#6495ed;stroke-linejoin:miter;stroke-width:1.5;" x="186.971229" xlink:href="#mcf73d20fa6" y="236.415963"/>
     <use style="fill-opacity:0;stroke:#6495ed;stroke-linejoin:miter;stroke-width:1.5;" x="186.971229" xlink:href="#mcf73d20fa6" y="236.415963"/>
     <use style="fill-opacity:0;stroke:#6495ed;stroke-linejoin:miter;stroke-width:1.5;" x="186.971229" xlink:href="#mcf73d20fa6" y="235.842311"/>
     <use style="fill-opacity:0;stroke:#6495ed;stroke-linejoin:miter;stroke-width:1.5;" x="186.971229" xlink:href="#mcf73d20fa6" y="235.842311"/>
     <use style="fill-opacity:0;stroke:#6495ed;stroke-linejoin:miter;stroke-width:1.5;" x="338.688" xlink:href="#mcf73d20fa6" y="235.842311"/>
    </g>
   </g>
   <g id="line2d_47">
    <path style="fill:none;stroke:#6495ed;stroke-linecap:square;stroke-width:1.5;"/>
    <g/>
   </g>
   <g id="line2d_48">
    <path clip-path="url(#pd0d42c49cf)" d="M 123.327293 265.6722 
" style="fill:none;stroke:#6495ed;stroke-linecap:square;stroke-width:1.5;"/>
    <defs>
     <path d="M -12 12 
L 12 -12 
M -12 -12 
L 12 12 
" id="mf3a00c92f6" style="stroke:#6495ed;"/>
    </defs>
    <g clip-path="url(#pd0d42c49cf)">
     <use style="fill:#6495ed;stroke:#6495ed;" x="123.327293" xlink:href="#mf3a00c92f6" y="265.6722"/>
    </g>
   </g>
   <g id="line2d_49">
    <defs>
     <path d="M 0 1.5 
C 0.397805 1.5 0.77937 1.341951 1.06066 1.06066 
C 1.341951 0.77937 1.5 0.397805 1.5 0 
C 1.5 -0.397805 1.341951 -0.77937 1.06066 -1.06066 
C 0.77937 -1.341951 0.397805 -1.5 0 -1.5 
C -0.397805 -1.5 -0.77937 -1.341951 -1.06066 -1.06066 
C -1.341951 -0.77937 -1.5 -0.397805 -1.5 0 
C -1.5 0.397805 -1.341951 0.77937 -1.06066 1.06066 
C -0.77937 1.341951 -0.397805 1.5 0 1.5 
z
" id="m8f58f365fe" style="stroke:#ff0000;"/>
    </defs>
    <g>
     <use style="fill:#ff0000;stroke:#ff0000;" x="122.782271" xlink:href="#m8f58f365fe" y="275.997931"/>
     <use style="fill:#ff0000;stroke:#ff0000;" x="122.782271" xlink:href="#m8f58f365fe" y="275.997931"/>
    </g>
   </g>
   <g id="line2d_50">
    <path d="M 38.440992 298.944 
L 38.440992 288.044617 
L 87.850195 288.044617 
L 87.850195 287.470966 
L 88.846997 287.470966 
L 88.846997 285.75001 
L 90.684409 285.75001 
L 90.684409 284.602707 
L 92.34655 284.602707 
L 92.34655 284.029055 
L 95.259853 284.029055 
L 95.259853 283.455404 
L 99.41757 283.455404 
L 99.41757 282.881752 
L 102.330873 282.881752 
L 102.330873 282.3081 
L 104.434538 282.3081 
L 104.434538 281.734448 
L 109.843417 281.734448 
L 109.843417 281.160797 
L 110.131676 281.160797 
L 110.131676 280.587145 
L 110.694282 280.587145 
L 110.694282 280.013493 
L 112.280765 280.013493 
L 112.280765 279.439842 
L 112.779064 279.439842 
L 112.779064 278.86619 
L 115.077025 278.86619 
L 115.077025 278.292538 
L 116.719583 278.292538 
L 116.719583 277.718886 
L 117.672786 277.718886 
L 117.672786 277.145235 
L 120.254726 277.145235 
L 120.254726 276.571583 
L 122.782271 276.571583 
L 122.782271 275.997931 
L 338.688 275.997931 
" style="fill:none;stroke:#ff0000;stroke-linecap:square;stroke-width:1.5;"/>
   </g>
   <g id="line2d_51">
    <defs>
     <path d="M 0 -6 
L -5.196152 -3 
L -5.196152 3 
L -0 6 
L 5.196152 3 
L 5.196152 -3 
z
" id="me19d8dfb3f" style="stroke:#ff0000;stroke-linejoin:miter;stroke-width:1.5;"/>
    </defs>
    <g>
     <use style="fill-opacity:0;stroke:#ff0000;stroke-linejoin:miter;stroke-width:1.5;" x="122.782271" xlink:href="#me19d8dfb3f" y="276.571583"/>
     <use style="fill-opacity:0;stroke:#ff0000;stroke-linejoin:miter;stroke-width:1.5;" x="122.782271" xlink:href="#me19d8dfb3f" y="276.571583"/>
     <use style="fill-opacity:0;stroke:#ff0000;stroke-linejoin:miter;stroke-width:1.5;" x="122.782271" xlink:href="#me19d8dfb3f" y="275.997931"/>
     <use style="fill-opacity:0;stroke:#ff0000;stroke-linejoin:miter;stroke-width:1.5;" x="122.782271" xlink:href="#me19d8dfb3f" y="275.997931"/>
     <use style="fill-opacity:0;stroke:#ff0000;stroke-linejoin:miter;stroke-width:1.5;" x="338.688" xlink:href="#me19d8dfb3f" y="275.997931"/>
    </g>
   </g>
   <g id="line2d_52">
    <path style="fill:none;stroke:#ff0000;stroke-linecap:square;stroke-width:1.5;"/>
    <g/>
   </g>
   <g id="line2d_53">
    <path clip-path="url(#pd0d42c49cf)" d="M 129.099042 275.997931 
" style="fill:none;stroke:#ff0000;stroke-linecap:square;stroke-width:1.5;"/>
    <defs>
     <path d="M -12 12 
L 12 -12 
M -12 -12 
L 12 12 
" id="m16028a6b07" style="stroke:#ff0000;"/>
    </defs>
    <g clip-path="url(#pd0d42c49cf)">
     <use style="fill:#ff0000;stroke:#ff0000;" x="129.099042" xlink:href="#m16028a6b07" y="275.997931"/>
    </g>
   </g>
   <g id="line2d_54">
    <path d="M 338.688 275.997931 
L 369.60768 293.092752 
" style="fill:none;stroke:#ff0000;stroke-linecap:square;stroke-width:1.5;"/>
    <g>
     <use style="fill-opacity:0;stroke:#ff0000;stroke-linejoin:miter;stroke-width:1.5;" x="338.688" xlink:href="#me19d8dfb3f" y="275.997931"/>
     <use style="fill-opacity:0;stroke:#ff0000;stroke-linejoin:miter;stroke-width:1.5;" x="369.60768" xlink:href="#me19d8dfb3f" y="293.092752"/>
    </g>
   </g>
   <g id="line2d_55">
    <path d="M 338.688 241.578828 
L 369.60768 222.877782 
" style="fill:none;stroke:#000080;stroke-linecap:square;stroke-width:1.5;"/>
    <g>
     <use style="fill-opacity:0;stroke:#000080;stroke-width:1.5;" x="338.688" xlink:href="#m67609b0475" y="241.578828"/>
     <use style="fill-opacity:0;stroke:#000080;stroke-width:1.5;" x="369.60768" xlink:href="#m67609b0475" y="222.877782"/>
    </g>
   </g>
   <g id="line2d_56">
    <path d="M 338.688 235.842311 
L 369.60768 152.662812 
" style="fill:none;stroke:#6495ed;stroke-linecap:square;stroke-width:1.5;"/>
    <g>
     <use style="fill-opacity:0;stroke:#6495ed;stroke-linejoin:miter;stroke-width:1.5;" x="338.688" xlink:href="#mcf73d20fa6" y="235.842311"/>
     <use style="fill-opacity:0;stroke:#6495ed;stroke-linejoin:miter;stroke-width:1.5;" x="369.60768" xlink:href="#mcf73d20fa6" y="152.662812"/>
    </g>
   </g>
   <g id="line2d_57">
    <path d="M 338.688 6.381624 
L 369.60768 82.447842 
" style="fill:none;stroke:#ff00ff;stroke-linecap:square;stroke-width:1.5;"/>
    <g>
     <use style="fill-opacity:0;stroke:#ff00ff;stroke-linejoin:miter;stroke-width:1.5;" x="338.688" xlink:href="#m9a52d1ad5d" y="6.381624"/>
     <use style="fill-opacity:0;stroke:#ff00ff;stroke-linejoin:miter;stroke-width:1.5;" x="369.60768" xlink:href="#m9a52d1ad5d" y="82.447842"/>
    </g>
   </g>
   <g id="line2d_58">
    <path d="M 338.688 6.381624 
L 369.60768 12.232871 
" style="fill:none;stroke:#ff7500;stroke-linecap:square;stroke-width:1.5;"/>
    <g>
     <use style="fill-opacity:0;stroke:#ff7500;stroke-linejoin:bevel;stroke-width:1.5;" x="338.688" xlink:href="#m106717dc4c" y="6.381624"/>
     <use style="fill-opacity:0;stroke:#ff7500;stroke-linejoin:bevel;stroke-width:1.5;" x="369.60768" xlink:href="#m106717dc4c" y="12.232871"/>
    </g>
   </g>
   <g id="line2d_59">
    <path d="M 338.688 298.944 
L 338.688 6.381624 
" style="fill:none;stroke:#000000;stroke-linecap:square;stroke-width:1.5;"/>
   </g>
   <g id="patch_3">
    <path d="M 57.6 298.944 
L 57.6 3.456 
" style="fill:none;stroke:#000000;stroke-linecap:square;stroke-linejoin:miter;stroke-width:0.8;"/>
   </g>
   <g id="patch_4">
    <path d="M 338.688 298.944 
L 338.688 3.456 
" style="fill:none;stroke:#000000;stroke-linecap:square;stroke-linejoin:miter;stroke-width:0.8;"/>
   </g>
   <g id="patch_5">
    <path d="M 57.6 298.944 
L 338.688 298.944 
" style="fill:none;stroke:#000000;stroke-linecap:square;stroke-linejoin:miter;stroke-width:0.8;"/>
   </g>
   <g id="patch_6">
    <path d="M 57.6 3.456 
L 338.688 3.456 
" style="fill:none;stroke:#000000;stroke-linecap:square;stroke-linejoin:miter;stroke-width:0.8;"/>
   </g>
   <g id="text_13">
    <!-- f24 -->
    <g transform="translate(375.22944 297.78369)scale(0.17 -0.17)">
     <use xlink:href="#DejaVuSans-102"/>
     <use x="35.205078" xlink:href="#DejaVuSans-50"/>
     <use x="98.828125" xlink:href="#DejaVuSans-52"/>
    </g>
   </g>
   <g id="text_14">
    <!-- f20 -->
    <g transform="translate(375.22944 227.56872)scale(0.17 -0.17)">
     <use xlink:href="#DejaVuSans-102"/>
     <use x="35.205078" xlink:href="#DejaVuSans-50"/>
     <use x="98.828125" xlink:href="#DejaVuSans-48"/>
    </g>
   </g>
   <g id="text_15">
    <!-- f23 -->
    <g transform="translate(375.22944 157.353749)scale(0.17 -0.17)">
     <defs>
      <path d="M 40.578125 39.3125 
Q 47.65625 37.796875 51.625 33 
Q 55.609375 28.21875 55.609375 21.1875 
Q 55.609375 10.40625 48.1875 4.484375 
Q 40.765625 -1.421875 27.09375 -1.421875 
Q 22.515625 -1.421875 17.65625 -0.515625 
Q 12.796875 0.390625 7.625 2.203125 
L 7.625 11.71875 
Q 11.71875 9.328125 16.59375 8.109375 
Q 21.484375 6.890625 26.8125 6.890625 
Q 36.078125 6.890625 40.9375 10.546875 
Q 45.796875 14.203125 45.796875 21.1875 
Q 45.796875 27.640625 41.28125 31.265625 
Q 36.765625 34.90625 28.71875 34.90625 
L 20.21875 34.90625 
L 20.21875 43.015625 
L 29.109375 43.015625 
Q 36.375 43.015625 40.234375 45.921875 
Q 44.09375 48.828125 44.09375 54.296875 
Q 44.09375 59.90625 40.109375 62.90625 
Q 36.140625 65.921875 28.71875 65.921875 
Q 24.65625 65.921875 20.015625 65.03125 
Q 15.375 64.15625 9.8125 62.3125 
L 9.8125 71.09375 
Q 15.4375 72.65625 20.34375 73.4375 
Q 25.25 74.21875 29.59375 74.21875 
Q 40.828125 74.21875 47.359375 69.109375 
Q 53.90625 64.015625 53.90625 55.328125 
Q 53.90625 49.265625 50.4375 45.09375 
Q 46.96875 40.921875 40.578125 39.3125 
z
" id="DejaVuSans-51"/>
     </defs>
     <use xlink:href="#DejaVuSans-102"/>
     <use x="35.205078" xlink:href="#DejaVuSans-50"/>
     <use x="98.828125" xlink:href="#DejaVuSans-51"/>
    </g>
   </g>
   <g id="text_16">
    <!-- f21 -->
    <g transform="translate(375.22944 87.138779)scale(0.17 -0.17)">
     <use xlink:href="#DejaVuSans-102"/>
     <use x="35.205078" xlink:href="#DejaVuSans-50"/>
     <use x="98.828125" xlink:href="#DejaVuSans-49"/>
    </g>
   </g>
   <g id="text_17">
    <!-- f22 -->
    <g transform="translate(375.22944 16.923809)scale(0.17 -0.17)">
     <use xlink:href="#DejaVuSans-102"/>
     <use x="35.205078" xlink:href="#DejaVuSans-50"/>
     <use x="98.828125" xlink:href="#DejaVuSans-50"/>
    </g>
   </g>
   <g id="text_18">
    <!-- bbob -->
    <g transform="translate(60.41088 14.161286)scale(0.102 -0.102)">
     <defs>
      <path d="M 48.6875 27.296875 
Q 48.6875 37.203125 44.609375 42.84375 
Q 40.53125 48.484375 33.40625 48.484375 
Q 26.265625 48.484375 22.1875 42.84375 
Q 18.109375 37.203125 18.109375 27.296875 
Q 18.109375 17.390625 22.1875 11.75 
Q 26.265625 6.109375 33.40625 6.109375 
Q 40.53125 6.109375 44.609375 11.75 
Q 48.6875 17.390625 48.6875 27.296875 
z
M 18.109375 46.390625 
Q 20.953125 51.265625 25.265625 53.625 
Q 29.59375 56 35.59375 56 
Q 45.5625 56 51.78125 48.09375 
Q 58.015625 40.1875 58.015625 27.296875 
Q 58.015625 14.40625 51.78125 6.484375 
Q 45.5625 -1.421875 35.59375 -1.421875 
Q 29.59375 -1.421875 25.265625 0.953125 
Q 20.953125 3.328125 18.109375 8.203125 
L 18.109375 0 
L 9.078125 0 
L 9.078125 75.984375 
L 18.109375 75.984375 
z
" id="DejaVuSans-98"/>
     </defs>
     <use xlink:href="#DejaVuSans-98"/>
     <use x="63.476562" xlink:href="#DejaVuSans-98"/>
     <use x="126.953125" xlink:href="#DejaVuSans-111"/>
     <use x="188.134766" xlink:href="#DejaVuSans-98"/>
    </g>
    <!-- Weak structure functions, 3-D -->
    <g transform="translate(60.41088 25.583055)scale(0.102 -0.102)">
     <defs>
      <path d="M 3.328125 72.90625 
L 13.28125 72.90625 
L 28.609375 11.28125 
L 43.890625 72.90625 
L 54.984375 72.90625 
L 70.3125 11.28125 
L 85.59375 72.90625 
L 95.609375 72.90625 
L 77.296875 0 
L 64.890625 0 
L 49.515625 63.28125 
L 33.984375 0 
L 21.578125 0 
z
" id="DejaVuSans-87"/>
      <path d="M 9.078125 75.984375 
L 18.109375 75.984375 
L 18.109375 31.109375 
L 44.921875 54.6875 
L 56.390625 54.6875 
L 27.390625 29.109375 
L 57.625 0 
L 45.90625 0 
L 18.109375 26.703125 
L 18.109375 0 
L 9.078125 0 
z
" id="DejaVuSans-107"/>
      <path d="M 19.671875 64.796875 
L 19.671875 8.109375 
L 31.59375 8.109375 
Q 46.6875 8.109375 53.6875 14.9375 
Q 60.6875 21.78125 60.6875 36.53125 
Q 60.6875 51.171875 53.6875 57.984375 
Q 46.6875 64.796875 31.59375 64.796875 
z
M 9.8125 72.90625 
L 30.078125 72.90625 
Q 51.265625 72.90625 61.171875 64.09375 
Q 71.09375 55.28125 71.09375 36.53125 
Q 71.09375 17.671875 61.125 8.828125 
Q 51.171875 0 30.078125 0 
L 9.8125 0 
z
" id="DejaVuSans-68"/>
     </defs>
     <use xlink:href="#DejaVuSans-87"/>
     <use x="93.001953" xlink:href="#DejaVuSans-101"/>
     <use x="154.525391" xlink:href="#DejaVuSans-97"/>
     <use x="215.804688" xlink:href="#DejaVuSans-107"/>
     <use x="273.714844" xlink:href="#DejaVuSans-32"/>
     <use x="305.501953" xlink:href="#DejaVuSans-115"/>
     <use x="357.601562" xlink:href="#DejaVuSans-116"/>
     <use x="396.810547" xlink:href="#DejaVuSans-114"/>
     <use x="437.923828" xlink:href="#DejaVuSans-117"/>
     <use x="501.302734" xlink:href="#DejaVuSans-99"/>
     <use x="556.283203" xlink:href="#DejaVuSans-116"/>
     <use x="595.492188" xlink:href="#DejaVuSans-117"/>
     <use x="658.871094" xlink:href="#DejaVuSans-114"/>
     <use x="697.734375" xlink:href="#DejaVuSans-101"/>
     <use x="759.257812" xlink:href="#DejaVuSans-32"/>
     <use x="791.044922" xlink:href="#DejaVuSans-102"/>
     <use x="826.25" xlink:href="#DejaVuSans-117"/>
     <use x="889.628906" xlink:href="#DejaVuSans-110"/>
     <use x="953.007812" xlink:href="#DejaVuSans-99"/>
     <use x="1007.988281" xlink:href="#DejaVuSans-116"/>
     <use x="1047.197266" xlink:href="#DejaVuSans-105"/>
     <use x="1074.980469" xlink:href="#DejaVuSans-111"/>
     <use x="1136.162109" xlink:href="#DejaVuSans-110"/>
     <use x="1199.541016" xlink:href="#DejaVuSans-115"/>
     <use x="1251.640625" xlink:href="#DejaVuSans-44"/>
     <use x="1283.427734" xlink:href="#DejaVuSans-32"/>
     <use x="1315.214844" xlink:href="#DejaVuSans-51"/>
     <use x="1378.837891" xlink:href="#DejaVuSans-45"/>
     <use x="1414.921875" xlink:href="#DejaVuSans-68"/>
    </g>
    <!-- 51 targets: 100..1e-08 -->
    <g transform="translate(60.41088 37.004824)scale(0.102 -0.102)">
     <defs>
      <path d="M 10.796875 72.90625 
L 49.515625 72.90625 
L 49.515625 64.59375 
L 19.828125 64.59375 
L 19.828125 46.734375 
Q 21.96875 47.46875 24.109375 47.828125 
Q 26.265625 48.1875 28.421875 48.1875 
Q 40.625 48.1875 47.75 41.5 
Q 54.890625 34.8125 54.890625 23.390625 
Q 54.890625 11.625 47.5625 5.09375 
Q 40.234375 -1.421875 26.90625 -1.421875 
Q 22.3125 -1.421875 17.546875 -0.640625 
Q 12.796875 0.140625 7.71875 1.703125 
L 7.71875 11.625 
Q 12.109375 9.234375 16.796875 8.0625 
Q 21.484375 6.890625 26.703125 6.890625 
Q 35.15625 6.890625 40.078125 11.328125 
Q 45.015625 15.765625 45.015625 23.390625 
Q 45.015625 31 40.078125 35.4375 
Q 35.15625 39.890625 26.703125 39.890625 
Q 22.75 39.890625 18.8125 39.015625 
Q 14.890625 38.140625 10.796875 36.28125 
z
" id="DejaVuSans-53"/>
      <path d="M 11.71875 12.40625 
L 22.015625 12.40625 
L 22.015625 0 
L 11.71875 0 
z
M 11.71875 51.703125 
L 22.015625 51.703125 
L 22.015625 39.3125 
L 11.71875 39.3125 
z
" id="DejaVuSans-58"/>
     </defs>
     <use xlink:href="#DejaVuSans-53"/>
     <use x="63.623047" xlink:href="#DejaVuSans-49"/>
     <use x="127.246094" xlink:href="#DejaVuSans-32"/>
     <use x="159.033203" xlink:href="#DejaVuSans-116"/>
     <use x="198.242188" xlink:href="#DejaVuSans-97"/>
     <use x="259.521484" xlink:href="#DejaVuSans-114"/>
     <use x="298.884766" xlink:href="#DejaVuSans-103"/>
     <use x="362.361328" xlink:href="#DejaVuSans-101"/>
     <use x="423.884766" xlink:href="#DejaVuSans-116"/>
     <use x="463.09375" xlink:href="#DejaVuSans-115"/>
     <use x="515.193359" xlink:href="#DejaVuSans-58"/>
     <use x="548.884766" xlink:href="#DejaVuSans-32"/>
     <use x="580.671875" xlink:href="#DejaVuSans-49"/>
     <use x="644.294922" xlink:href="#DejaVuSans-48"/>
     <use x="707.917969" xlink:href="#DejaVuSans-48"/>
     <use x="771.541016" xlink:href="#DejaVuSans-46"/>
     <use x="803.328125" xlink:href="#DejaVuSans-46"/>
     <use x="835.115234" xlink:href="#DejaVuSans-49"/>
     <use x="898.738281" xlink:href="#DejaVuSans-101"/>
     <use x="960.261719" xlink:href="#DejaVuSans-45"/>
     <use x="996.345703" xlink:href="#DejaVuSans-48"/>
     <use x="1059.96875" xlink:href="#DejaVuSans-56"/>
    </g>
    <!-- 15 instances -->
    <g transform="translate(60.41088 48.426593)scale(0.102 -0.102)">
     <use xlink:href="#DejaVuSans-49"/>
     <use x="63.623047" xlink:href="#DejaVuSans-53"/>
     <use x="127.246094" xlink:href="#DejaVuSans-32"/>
     <use x="159.033203" xlink:href="#DejaVuSans-105"/>
     <use x="186.816406" xlink:href="#DejaVuSans-110"/>
     <use x="250.195312" xlink:href="#DejaVuSans-115"/>
     <use x="302.294922" xlink:href="#DejaVuSans-116"/>
     <use x="341.503906" xlink:href="#DejaVuSans-97"/>
     <use x="402.783203" xlink:href="#DejaVuSans-110"/>
     <use x="466.162109" xlink:href="#DejaVuSans-99"/>
     <use x="521.142578" xlink:href="#DejaVuSans-101"/>
     <use x="582.666016" xlink:href="#DejaVuSans-115"/>
    </g>
   </g>
   <g id="text_19">
    <!-- v2.4 -->
    <g style="fill:#808080;" transform="translate(187.233062 293.909432)scale(0.1 -0.1)">
     <use xlink:href="#DejaVuSans-118"/>
     <use x="59.179688" xlink:href="#DejaVuSans-50"/>
     <use x="122.802734" xlink:href="#DejaVuSans-46"/>
     <use x="154.589844" xlink:href="#DejaVuSans-52"/>
    </g>
   </g>
  </g>
 </g>
 <defs>
  <clipPath id="pd0d42c49cf">
   <rect height="295.488" width="281.088" x="57.6" y="3.456"/>
  </clipPath>
 </defs>
</svg>
