<?xml version="1.0" encoding="utf-8" standalone="no"?>
<!DOCTYPE svg PUBLIC "-//W3C//DTD SVG 1.1//EN"
  "http://www.w3.org/Graphics/SVG/1.1/DTD/svg11.dtd">
<!-- Created with matplotlib (https://matplotlib.org/) -->
<svg height="345.6pt" version="1.1" viewBox="0 0 460.8 345.6" width="460.8pt" xmlns="http://www.w3.org/2000/svg" xmlns:xlink="http://www.w3.org/1999/xlink">
 <metadata>
  <rdf:RDF xmlns:cc="http://creativecommons.org/ns#" xmlns:dc="http://purl.org/dc/elements/1.1/" xmlns:rdf="http://www.w3.org/1999/02/22-rdf-syntax-ns#">
   <cc:Work>
    <dc:type rdf:resource="http://purl.org/dc/dcmitype/StillImage"/>
    <dc:date>2021-08-04T10:26:38.291147</dc:date>
    <dc:format>image/svg+xml</dc:format>
    <dc:creator>
     <cc:Agent>
      <dc:title>Matplotlib v3.3.1, https://matplotlib.org/</dc:title>
     </cc:Agent>
    </dc:creator>
   </cc:Work>
  </rdf:RDF>
 </metadata>
 <defs>
  <style type="text/css">*{stroke-linecap:butt;stroke-linejoin:round;}</style>
 </defs>
 <g id="figure_1">
  <g id="patch_1">
   <path d="M 0 345.6 
L 460.8 345.6 
L 460.8 0 
L 0 0 
z
" style="fill:#ffffff;"/>
  </g>
  <g id="axes_1">
   <g id="patch_2">
    <path d="M 57.6 298.944 
L 338.688 298.944 
L 338.688 3.456 
L 57.6 3.456 
z
" style="fill:#ffffff;"/>
   </g>
   <g id="matplotlib.axis_1">
    <g id="xtick_1">
     <g id="line2d_1">
      <path clip-path="url(#p699f49b11b)" d="M 57.6 298.944 
L 57.6 3.456 
" style="fill:none;stroke:#b0b0b0;stroke-linecap:square;stroke-width:0.8;"/>
     </g>
     <g id="line2d_2">
      <defs>
       <path d="M 0 0 
L 0 3.5 
" id="m4ce8e37f3d" style="stroke:#000000;stroke-width:0.8;"/>
      </defs>
      <g>
       <use style="stroke:#000000;stroke-width:0.8;" x="57.6" xlink:href="#m4ce8e37f3d" y="298.944"/>
      </g>
     </g>
     <g id="text_1">
      <!-- 0 -->
      <g transform="translate(51.2375 321.140875)scale(0.2 -0.2)">
       <defs>
        <path d="M 31.78125 66.40625 
Q 24.171875 66.40625 20.328125 58.90625 
Q 16.5 51.421875 16.5 36.375 
Q 16.5 21.390625 20.328125 13.890625 
Q 24.171875 6.390625 31.78125 6.390625 
Q 39.453125 6.390625 43.28125 13.890625 
Q 47.125 21.390625 47.125 36.375 
Q 47.125 51.421875 43.28125 58.90625 
Q 39.453125 66.40625 31.78125 66.40625 
z
M 31.78125 74.21875 
Q 44.046875 74.21875 50.515625 64.515625 
Q 56.984375 54.828125 56.984375 36.375 
Q 56.984375 17.96875 50.515625 8.265625 
Q 44.046875 -1.421875 31.78125 -1.421875 
Q 19.53125 -1.421875 13.0625 8.265625 
Q 6.59375 17.96875 6.59375 36.375 
Q 6.59375 54.828125 13.0625 64.515625 
Q 19.53125 74.21875 31.78125 74.21875 
z
" id="DejaVuSans-48"/>
       </defs>
       <use xlink:href="#DejaVuSans-48"/>
      </g>
     </g>
    </g>
    <g id="xtick_2">
     <g id="line2d_3">
      <path clip-path="url(#p699f49b11b)" d="M 137.910857 298.944 
L 137.910857 3.456 
" style="fill:none;stroke:#b0b0b0;stroke-linecap:square;stroke-width:0.8;"/>
     </g>
     <g id="line2d_4">
      <g>
       <use style="stroke:#000000;stroke-width:0.8;" x="137.910857" xlink:href="#m4ce8e37f3d" y="298.944"/>
      </g>
     </g>
     <g id="text_2">
      <!-- 2 -->
      <g transform="translate(131.548357 321.140875)scale(0.2 -0.2)">
       <defs>
        <path d="M 19.1875 8.296875 
L 53.609375 8.296875 
L 53.609375 0 
L 7.328125 0 
L 7.328125 8.296875 
Q 12.9375 14.109375 22.625 23.890625 
Q 32.328125 33.6875 34.8125 36.53125 
Q 39.546875 41.84375 41.421875 45.53125 
Q 43.3125 49.21875 43.3125 52.78125 
Q 43.3125 58.59375 39.234375 62.25 
Q 35.15625 65.921875 28.609375 65.921875 
Q 23.96875 65.921875 18.8125 64.3125 
Q 13.671875 62.703125 7.8125 59.421875 
L 7.8125 69.390625 
Q 13.765625 71.78125 18.9375 73 
Q 24.125 74.21875 28.421875 74.21875 
Q 39.75 74.21875 46.484375 68.546875 
Q 53.21875 62.890625 53.21875 53.421875 
Q 53.21875 48.921875 51.53125 44.890625 
Q 49.859375 40.875 45.40625 35.40625 
Q 44.1875 33.984375 37.640625 27.21875 
Q 31.109375 20.453125 19.1875 8.296875 
z
" id="DejaVuSans-50"/>
       </defs>
       <use xlink:href="#DejaVuSans-50"/>
      </g>
     </g>
    </g>
    <g id="xtick_3">
     <g id="line2d_5">
      <path clip-path="url(#p699f49b11b)" d="M 218.221714 298.944 
L 218.221714 3.456 
" style="fill:none;stroke:#b0b0b0;stroke-linecap:square;stroke-width:0.8;"/>
     </g>
     <g id="line2d_6">
      <g>
       <use style="stroke:#000000;stroke-width:0.8;" x="218.221714" xlink:href="#m4ce8e37f3d" y="298.944"/>
      </g>
     </g>
     <g id="text_3">
      <!-- 4 -->
      <g transform="translate(211.859214 321.140875)scale(0.2 -0.2)">
       <defs>
        <path d="M 37.796875 64.3125 
L 12.890625 25.390625 
L 37.796875 25.390625 
z
M 35.203125 72.90625 
L 47.609375 72.90625 
L 47.609375 25.390625 
L 58.015625 25.390625 
L 58.015625 17.1875 
L 47.609375 17.1875 
L 47.609375 0 
L 37.796875 0 
L 37.796875 17.1875 
L 4.890625 17.1875 
L 4.890625 26.703125 
z
" id="DejaVuSans-52"/>
       </defs>
       <use xlink:href="#DejaVuSans-52"/>
      </g>
     </g>
    </g>
    <g id="xtick_4">
     <g id="line2d_7">
      <path clip-path="url(#p699f49b11b)" d="M 298.532571 298.944 
L 298.532571 3.456 
" style="fill:none;stroke:#b0b0b0;stroke-linecap:square;stroke-width:0.8;"/>
     </g>
     <g id="line2d_8">
      <g>
       <use style="stroke:#000000;stroke-width:0.8;" x="298.532571" xlink:href="#m4ce8e37f3d" y="298.944"/>
      </g>
     </g>
     <g id="text_4">
      <!-- 6 -->
      <g transform="translate(292.170071 321.140875)scale(0.2 -0.2)">
       <defs>
        <path d="M 33.015625 40.375 
Q 26.375 40.375 22.484375 35.828125 
Q 18.609375 31.296875 18.609375 23.390625 
Q 18.609375 15.53125 22.484375 10.953125 
Q 26.375 6.390625 33.015625 6.390625 
Q 39.65625 6.390625 43.53125 10.953125 
Q 47.40625 15.53125 47.40625 23.390625 
Q 47.40625 31.296875 43.53125 35.828125 
Q 39.65625 40.375 33.015625 40.375 
z
M 52.59375 71.296875 
L 52.59375 62.3125 
Q 48.875 64.0625 45.09375 64.984375 
Q 41.3125 65.921875 37.59375 65.921875 
Q 27.828125 65.921875 22.671875 59.328125 
Q 17.53125 52.734375 16.796875 39.40625 
Q 19.671875 43.65625 24.015625 45.921875 
Q 28.375 48.1875 33.59375 48.1875 
Q 44.578125 48.1875 50.953125 41.515625 
Q 57.328125 34.859375 57.328125 23.390625 
Q 57.328125 12.15625 50.6875 5.359375 
Q 44.046875 -1.421875 33.015625 -1.421875 
Q 20.359375 -1.421875 13.671875 8.265625 
Q 6.984375 17.96875 6.984375 36.375 
Q 6.984375 53.65625 15.1875 63.9375 
Q 23.390625 74.21875 37.203125 74.21875 
Q 40.921875 74.21875 44.703125 73.484375 
Q 48.484375 72.75 52.59375 71.296875 
z
" id="DejaVuSans-54"/>
       </defs>
       <use xlink:href="#DejaVuSans-54"/>
      </g>
     </g>
    </g>
    <g id="xtick_5">
     <g id="line2d_9">
      <path clip-path="url(#p699f49b11b)" d="M 97.755429 298.944 
L 97.755429 3.456 
" style="fill:none;stroke:#b0b0b0;stroke-linecap:square;stroke-width:0.8;"/>
     </g>
     <g id="line2d_10">
      <defs>
       <path d="M 0 0 
L 0 2 
" id="me71907bc0c" style="stroke:#000000;stroke-width:0.6;"/>
      </defs>
      <g>
       <use style="stroke:#000000;stroke-width:0.6;" x="97.755429" xlink:href="#me71907bc0c" y="298.944"/>
      </g>
     </g>
    </g>
    <g id="xtick_6">
     <g id="line2d_11">
      <path clip-path="url(#p699f49b11b)" d="M 178.066286 298.944 
L 178.066286 3.456 
" style="fill:none;stroke:#b0b0b0;stroke-linecap:square;stroke-width:0.8;"/>
     </g>
     <g id="line2d_12">
      <g>
       <use style="stroke:#000000;stroke-width:0.6;" x="178.066286" xlink:href="#me71907bc0c" y="298.944"/>
      </g>
     </g>
    </g>
    <g id="xtick_7">
     <g id="line2d_13">
      <path clip-path="url(#p699f49b11b)" d="M 258.377143 298.944 
L 258.377143 3.456 
" style="fill:none;stroke:#b0b0b0;stroke-linecap:square;stroke-width:0.8;"/>
     </g>
     <g id="line2d_14">
      <g>
       <use style="stroke:#000000;stroke-width:0.6;" x="258.377143" xlink:href="#me71907bc0c" y="298.944"/>
      </g>
     </g>
    </g>
    <g id="xtick_8">
     <g id="line2d_15">
      <path clip-path="url(#p699f49b11b)" d="M 338.688 298.944 
L 338.688 3.456 
" style="fill:none;stroke:#b0b0b0;stroke-linecap:square;stroke-width:0.8;"/>
     </g>
     <g id="line2d_16">
      <g>
       <use style="stroke:#000000;stroke-width:0.6;" x="338.688" xlink:href="#me71907bc0c" y="298.944"/>
      </g>
     </g>
    </g>
    <g id="text_5">
     <!-- log10(# f-evals / dimension) -->
     <g transform="translate(77.764078 342.217594)scale(0.17 -0.17)">
      <defs>
       <path d="M 9.421875 75.984375 
L 18.40625 75.984375 
L 18.40625 0 
L 9.421875 0 
z
" id="DejaVuSans-108"/>
       <path d="M 30.609375 48.390625 
Q 23.390625 48.390625 19.1875 42.75 
Q 14.984375 37.109375 14.984375 27.296875 
Q 14.984375 17.484375 19.15625 11.84375 
Q 23.34375 6.203125 30.609375 6.203125 
Q 37.796875 6.203125 41.984375 11.859375 
Q 46.1875 17.53125 46.1875 27.296875 
Q 46.1875 37.015625 41.984375 42.703125 
Q 37.796875 48.390625 30.609375 48.390625 
z
M 30.609375 56 
Q 42.328125 56 49.015625 48.375 
Q 55.71875 40.765625 55.71875 27.296875 
Q 55.71875 13.875 49.015625 6.21875 
Q 42.328125 -1.421875 30.609375 -1.421875 
Q 18.84375 -1.421875 12.171875 6.21875 
Q 5.515625 13.875 5.515625 27.296875 
Q 5.515625 40.765625 12.171875 48.375 
Q 18.84375 56 30.609375 56 
z
" id="DejaVuSans-111"/>
       <path d="M 45.40625 27.984375 
Q 45.40625 37.75 41.375 43.109375 
Q 37.359375 48.484375 30.078125 48.484375 
Q 22.859375 48.484375 18.828125 43.109375 
Q 14.796875 37.75 14.796875 27.984375 
Q 14.796875 18.265625 18.828125 12.890625 
Q 22.859375 7.515625 30.078125 7.515625 
Q 37.359375 7.515625 41.375 12.890625 
Q 45.40625 18.265625 45.40625 27.984375 
z
M 54.390625 6.78125 
Q 54.390625 -7.171875 48.1875 -13.984375 
Q 42 -20.796875 29.203125 -20.796875 
Q 24.46875 -20.796875 20.265625 -20.09375 
Q 16.0625 -19.390625 12.109375 -17.921875 
L 12.109375 -9.1875 
Q 16.0625 -11.328125 19.921875 -12.34375 
Q 23.78125 -13.375 27.78125 -13.375 
Q 36.625 -13.375 41.015625 -8.765625 
Q 45.40625 -4.15625 45.40625 5.171875 
L 45.40625 9.625 
Q 42.625 4.78125 38.28125 2.390625 
Q 33.9375 0 27.875 0 
Q 17.828125 0 11.671875 7.65625 
Q 5.515625 15.328125 5.515625 27.984375 
Q 5.515625 40.671875 11.671875 48.328125 
Q 17.828125 56 27.875 56 
Q 33.9375 56 38.28125 53.609375 
Q 42.625 51.21875 45.40625 46.390625 
L 45.40625 54.6875 
L 54.390625 54.6875 
z
" id="DejaVuSans-103"/>
       <path d="M 12.40625 8.296875 
L 28.515625 8.296875 
L 28.515625 63.921875 
L 10.984375 60.40625 
L 10.984375 69.390625 
L 28.421875 72.90625 
L 38.28125 72.90625 
L 38.28125 8.296875 
L 54.390625 8.296875 
L 54.390625 0 
L 12.40625 0 
z
" id="DejaVuSans-49"/>
       <path d="M 31 75.875 
Q 24.46875 64.65625 21.28125 53.65625 
Q 18.109375 42.671875 18.109375 31.390625 
Q 18.109375 20.125 21.3125 9.0625 
Q 24.515625 -2 31 -13.1875 
L 23.1875 -13.1875 
Q 15.875 -1.703125 12.234375 9.375 
Q 8.59375 20.453125 8.59375 31.390625 
Q 8.59375 42.28125 12.203125 53.3125 
Q 15.828125 64.359375 23.1875 75.875 
z
" id="DejaVuSans-40"/>
       <path d="M 51.125 44 
L 36.921875 44 
L 32.8125 27.6875 
L 47.125 27.6875 
z
M 43.796875 71.78125 
L 38.71875 51.515625 
L 52.984375 51.515625 
L 58.109375 71.78125 
L 65.921875 71.78125 
L 60.890625 51.515625 
L 76.125 51.515625 
L 76.125 44 
L 58.984375 44 
L 54.984375 27.6875 
L 70.515625 27.6875 
L 70.515625 20.21875 
L 53.078125 20.21875 
L 48 0 
L 40.1875 0 
L 45.21875 20.21875 
L 30.90625 20.21875 
L 25.875 0 
L 18.015625 0 
L 23.09375 20.21875 
L 7.71875 20.21875 
L 7.71875 27.6875 
L 24.90625 27.6875 
L 29 44 
L 13.28125 44 
L 13.28125 51.515625 
L 30.90625 51.515625 
L 35.890625 71.78125 
z
" id="DejaVuSans-35"/>
       <path id="DejaVuSans-32"/>
       <path d="M 37.109375 75.984375 
L 37.109375 68.5 
L 28.515625 68.5 
Q 23.6875 68.5 21.796875 66.546875 
Q 19.921875 64.59375 19.921875 59.515625 
L 19.921875 54.6875 
L 34.71875 54.6875 
L 34.71875 47.703125 
L 19.921875 47.703125 
L 19.921875 0 
L 10.890625 0 
L 10.890625 47.703125 
L 2.296875 47.703125 
L 2.296875 54.6875 
L 10.890625 54.6875 
L 10.890625 58.5 
Q 10.890625 67.625 15.140625 71.796875 
Q 19.390625 75.984375 28.609375 75.984375 
z
" id="DejaVuSans-102"/>
       <path d="M 4.890625 31.390625 
L 31.203125 31.390625 
L 31.203125 23.390625 
L 4.890625 23.390625 
z
" id="DejaVuSans-45"/>
       <path d="M 56.203125 29.59375 
L 56.203125 25.203125 
L 14.890625 25.203125 
Q 15.484375 15.921875 20.484375 11.0625 
Q 25.484375 6.203125 34.421875 6.203125 
Q 39.59375 6.203125 44.453125 7.46875 
Q 49.3125 8.734375 54.109375 11.28125 
L 54.109375 2.78125 
Q 49.265625 0.734375 44.1875 -0.34375 
Q 39.109375 -1.421875 33.890625 -1.421875 
Q 20.796875 -1.421875 13.15625 6.1875 
Q 5.515625 13.8125 5.515625 26.8125 
Q 5.515625 40.234375 12.765625 48.109375 
Q 20.015625 56 32.328125 56 
Q 43.359375 56 49.78125 48.890625 
Q 56.203125 41.796875 56.203125 29.59375 
z
M 47.21875 32.234375 
Q 47.125 39.59375 43.09375 43.984375 
Q 39.0625 48.390625 32.421875 48.390625 
Q 24.90625 48.390625 20.390625 44.140625 
Q 15.875 39.890625 15.1875 32.171875 
z
" id="DejaVuSans-101"/>
       <path d="M 2.984375 54.6875 
L 12.5 54.6875 
L 29.59375 8.796875 
L 46.6875 54.6875 
L 56.203125 54.6875 
L 35.6875 0 
L 23.484375 0 
z
" id="DejaVuSans-118"/>
       <path d="M 34.28125 27.484375 
Q 23.390625 27.484375 19.1875 25 
Q 14.984375 22.515625 14.984375 16.5 
Q 14.984375 11.71875 18.140625 8.90625 
Q 21.296875 6.109375 26.703125 6.109375 
Q 34.1875 6.109375 38.703125 11.40625 
Q 43.21875 16.703125 43.21875 25.484375 
L 43.21875 27.484375 
z
M 52.203125 31.203125 
L 52.203125 0 
L 43.21875 0 
L 43.21875 8.296875 
Q 40.140625 3.328125 35.546875 0.953125 
Q 30.953125 -1.421875 24.3125 -1.421875 
Q 15.921875 -1.421875 10.953125 3.296875 
Q 6 8.015625 6 15.921875 
Q 6 25.140625 12.171875 29.828125 
Q 18.359375 34.515625 30.609375 34.515625 
L 43.21875 34.515625 
L 43.21875 35.40625 
Q 43.21875 41.609375 39.140625 45 
Q 35.0625 48.390625 27.6875 48.390625 
Q 23 48.390625 18.546875 47.265625 
Q 14.109375 46.140625 10.015625 43.890625 
L 10.015625 52.203125 
Q 14.9375 54.109375 19.578125 55.046875 
Q 24.21875 56 28.609375 56 
Q 40.484375 56 46.34375 49.84375 
Q 52.203125 43.703125 52.203125 31.203125 
z
" id="DejaVuSans-97"/>
       <path d="M 44.28125 53.078125 
L 44.28125 44.578125 
Q 40.484375 46.53125 36.375 47.5 
Q 32.28125 48.484375 27.875 48.484375 
Q 21.1875 48.484375 17.84375 46.4375 
Q 14.5 44.390625 14.5 40.28125 
Q 14.5 37.15625 16.890625 35.375 
Q 19.28125 33.59375 26.515625 31.984375 
L 29.59375 31.296875 
Q 39.15625 29.25 43.1875 25.515625 
Q 47.21875 21.78125 47.21875 15.09375 
Q 47.21875 7.46875 41.1875 3.015625 
Q 35.15625 -1.421875 24.609375 -1.421875 
Q 20.21875 -1.421875 15.453125 -0.5625 
Q 10.6875 0.296875 5.421875 2 
L 5.421875 11.28125 
Q 10.40625 8.6875 15.234375 7.390625 
Q 20.0625 6.109375 24.8125 6.109375 
Q 31.15625 6.109375 34.5625 8.28125 
Q 37.984375 10.453125 37.984375 14.40625 
Q 37.984375 18.0625 35.515625 20.015625 
Q 33.0625 21.96875 24.703125 23.78125 
L 21.578125 24.515625 
Q 13.234375 26.265625 9.515625 29.90625 
Q 5.8125 33.546875 5.8125 39.890625 
Q 5.8125 47.609375 11.28125 51.796875 
Q 16.75 56 26.8125 56 
Q 31.78125 56 36.171875 55.265625 
Q 40.578125 54.546875 44.28125 53.078125 
z
" id="DejaVuSans-115"/>
       <path d="M 25.390625 72.90625 
L 33.6875 72.90625 
L 8.296875 -9.28125 
L 0 -9.28125 
z
" id="DejaVuSans-47"/>
       <path d="M 45.40625 46.390625 
L 45.40625 75.984375 
L 54.390625 75.984375 
L 54.390625 0 
L 45.40625 0 
L 45.40625 8.203125 
Q 42.578125 3.328125 38.25 0.953125 
Q 33.9375 -1.421875 27.875 -1.421875 
Q 17.96875 -1.421875 11.734375 6.484375 
Q 5.515625 14.40625 5.515625 27.296875 
Q 5.515625 40.1875 11.734375 48.09375 
Q 17.96875 56 27.875 56 
Q 33.9375 56 38.25 53.625 
Q 42.578125 51.265625 45.40625 46.390625 
z
M 14.796875 27.296875 
Q 14.796875 17.390625 18.875 11.75 
Q 22.953125 6.109375 30.078125 6.109375 
Q 37.203125 6.109375 41.296875 11.75 
Q 45.40625 17.390625 45.40625 27.296875 
Q 45.40625 37.203125 41.296875 42.84375 
Q 37.203125 48.484375 30.078125 48.484375 
Q 22.953125 48.484375 18.875 42.84375 
Q 14.796875 37.203125 14.796875 27.296875 
z
" id="DejaVuSans-100"/>
       <path d="M 9.421875 54.6875 
L 18.40625 54.6875 
L 18.40625 0 
L 9.421875 0 
z
M 9.421875 75.984375 
L 18.40625 75.984375 
L 18.40625 64.59375 
L 9.421875 64.59375 
z
" id="DejaVuSans-105"/>
       <path d="M 52 44.1875 
Q 55.375 50.25 60.0625 53.125 
Q 64.75 56 71.09375 56 
Q 79.640625 56 84.28125 50.015625 
Q 88.921875 44.046875 88.921875 33.015625 
L 88.921875 0 
L 79.890625 0 
L 79.890625 32.71875 
Q 79.890625 40.578125 77.09375 44.375 
Q 74.3125 48.1875 68.609375 48.1875 
Q 61.625 48.1875 57.5625 43.546875 
Q 53.515625 38.921875 53.515625 30.90625 
L 53.515625 0 
L 44.484375 0 
L 44.484375 32.71875 
Q 44.484375 40.625 41.703125 44.40625 
Q 38.921875 48.1875 33.109375 48.1875 
Q 26.21875 48.1875 22.15625 43.53125 
Q 18.109375 38.875 18.109375 30.90625 
L 18.109375 0 
L 9.078125 0 
L 9.078125 54.6875 
L 18.109375 54.6875 
L 18.109375 46.1875 
Q 21.1875 51.21875 25.484375 53.609375 
Q 29.78125 56 35.6875 56 
Q 41.65625 56 45.828125 52.96875 
Q 50 49.953125 52 44.1875 
z
" id="DejaVuSans-109"/>
       <path d="M 54.890625 33.015625 
L 54.890625 0 
L 45.90625 0 
L 45.90625 32.71875 
Q 45.90625 40.484375 42.875 44.328125 
Q 39.84375 48.1875 33.796875 48.1875 
Q 26.515625 48.1875 22.3125 43.546875 
Q 18.109375 38.921875 18.109375 30.90625 
L 18.109375 0 
L 9.078125 0 
L 9.078125 54.6875 
L 18.109375 54.6875 
L 18.109375 46.1875 
Q 21.34375 51.125 25.703125 53.5625 
Q 30.078125 56 35.796875 56 
Q 45.21875 56 50.046875 50.171875 
Q 54.890625 44.34375 54.890625 33.015625 
z
" id="DejaVuSans-110"/>
       <path d="M 8.015625 75.875 
L 15.828125 75.875 
Q 23.140625 64.359375 26.78125 53.3125 
Q 30.421875 42.28125 30.421875 31.390625 
Q 30.421875 20.453125 26.78125 9.375 
Q 23.140625 -1.703125 15.828125 -13.1875 
L 8.015625 -13.1875 
Q 14.5 -2 17.703125 9.0625 
Q 20.90625 20.125 20.90625 31.390625 
Q 20.90625 42.671875 17.703125 53.65625 
Q 14.5 64.65625 8.015625 75.875 
z
" id="DejaVuSans-41"/>
      </defs>
      <use xlink:href="#DejaVuSans-108"/>
      <use x="27.783203" xlink:href="#DejaVuSans-111"/>
      <use x="88.964844" xlink:href="#DejaVuSans-103"/>
      <use x="152.441406" xlink:href="#DejaVuSans-49"/>
      <use x="216.064453" xlink:href="#DejaVuSans-48"/>
      <use x="279.6875" xlink:href="#DejaVuSans-40"/>
      <use x="318.701172" xlink:href="#DejaVuSans-35"/>
      <use x="402.490234" xlink:href="#DejaVuSans-32"/>
      <use x="434.277344" xlink:href="#DejaVuSans-102"/>
      <use x="463.982422" xlink:href="#DejaVuSans-45"/>
      <use x="500.066406" xlink:href="#DejaVuSans-101"/>
      <use x="561.589844" xlink:href="#DejaVuSans-118"/>
      <use x="620.769531" xlink:href="#DejaVuSans-97"/>
      <use x="682.048828" xlink:href="#DejaVuSans-108"/>
      <use x="709.832031" xlink:href="#DejaVuSans-115"/>
      <use x="761.931641" xlink:href="#DejaVuSans-32"/>
      <use x="793.71875" xlink:href="#DejaVuSans-47"/>
      <use x="827.410156" xlink:href="#DejaVuSans-32"/>
      <use x="859.197266" xlink:href="#DejaVuSans-100"/>
      <use x="922.673828" xlink:href="#DejaVuSans-105"/>
      <use x="950.457031" xlink:href="#DejaVuSans-109"/>
      <use x="1047.869141" xlink:href="#DejaVuSans-101"/>
      <use x="1109.392578" xlink:href="#DejaVuSans-110"/>
      <use x="1172.771484" xlink:href="#DejaVuSans-115"/>
      <use x="1224.871094" xlink:href="#DejaVuSans-105"/>
      <use x="1252.654297" xlink:href="#DejaVuSans-111"/>
      <use x="1313.835938" xlink:href="#DejaVuSans-110"/>
      <use x="1377.214844" xlink:href="#DejaVuSans-41"/>
     </g>
    </g>
   </g>
   <g id="matplotlib.axis_2">
    <g id="ytick_1">
     <g id="line2d_17">
      <path clip-path="url(#p699f49b11b)" d="M 57.6 298.944 
L 338.688 298.944 
" style="fill:none;stroke:#b0b0b0;stroke-linecap:square;stroke-width:0.8;"/>
     </g>
     <g id="line2d_18">
      <defs>
       <path d="M 0 0 
L -3.5 0 
" id="m5ce4c1c04a" style="stroke:#000000;stroke-width:0.8;"/>
      </defs>
      <g>
       <use style="stroke:#000000;stroke-width:0.8;" x="57.6" xlink:href="#m5ce4c1c04a" y="298.944"/>
      </g>
     </g>
     <g id="text_6">
      <!-- 0.0 -->
      <g transform="translate(25.155 305.02275)scale(0.16 -0.16)">
       <defs>
        <path d="M 10.6875 12.40625 
L 21 12.40625 
L 21 0 
L 10.6875 0 
z
" id="DejaVuSans-46"/>
       </defs>
       <use xlink:href="#DejaVuSans-48"/>
       <use x="63.623047" xlink:href="#DejaVuSans-46"/>
       <use x="95.410156" xlink:href="#DejaVuSans-48"/>
      </g>
     </g>
    </g>
    <g id="ytick_2">
     <g id="line2d_19">
      <path clip-path="url(#p699f49b11b)" d="M 57.6 240.431525 
L 338.688 240.431525 
" style="fill:none;stroke:#b0b0b0;stroke-linecap:square;stroke-width:0.8;"/>
     </g>
     <g id="line2d_20">
      <g>
       <use style="stroke:#000000;stroke-width:0.8;" x="57.6" xlink:href="#m5ce4c1c04a" y="240.431525"/>
      </g>
     </g>
     <g id="text_7">
      <!-- 0.2 -->
      <g transform="translate(25.155 246.510275)scale(0.16 -0.16)">
       <use xlink:href="#DejaVuSans-48"/>
       <use x="63.623047" xlink:href="#DejaVuSans-46"/>
       <use x="95.410156" xlink:href="#DejaVuSans-50"/>
      </g>
     </g>
    </g>
    <g id="ytick_3">
     <g id="line2d_21">
      <path clip-path="url(#p699f49b11b)" d="M 57.6 181.91905 
L 338.688 181.91905 
" style="fill:none;stroke:#b0b0b0;stroke-linecap:square;stroke-width:0.8;"/>
     </g>
     <g id="line2d_22">
      <g>
       <use style="stroke:#000000;stroke-width:0.8;" x="57.6" xlink:href="#m5ce4c1c04a" y="181.91905"/>
      </g>
     </g>
     <g id="text_8">
      <!-- 0.4 -->
      <g transform="translate(25.155 187.9978)scale(0.16 -0.16)">
       <use xlink:href="#DejaVuSans-48"/>
       <use x="63.623047" xlink:href="#DejaVuSans-46"/>
       <use x="95.410156" xlink:href="#DejaVuSans-52"/>
      </g>
     </g>
    </g>
    <g id="ytick_4">
     <g id="line2d_23">
      <path clip-path="url(#p699f49b11b)" d="M 57.6 123.406574 
L 338.688 123.406574 
" style="fill:none;stroke:#b0b0b0;stroke-linecap:square;stroke-width:0.8;"/>
     </g>
     <g id="line2d_24">
      <g>
       <use style="stroke:#000000;stroke-width:0.8;" x="57.6" xlink:href="#m5ce4c1c04a" y="123.406574"/>
      </g>
     </g>
     <g id="text_9">
      <!-- 0.6 -->
      <g transform="translate(25.155 129.485324)scale(0.16 -0.16)">
       <use xlink:href="#DejaVuSans-48"/>
       <use x="63.623047" xlink:href="#DejaVuSans-46"/>
       <use x="95.410156" xlink:href="#DejaVuSans-54"/>
      </g>
     </g>
    </g>
    <g id="ytick_5">
     <g id="line2d_25">
      <path clip-path="url(#p699f49b11b)" d="M 57.6 64.894099 
L 338.688 64.894099 
" style="fill:none;stroke:#b0b0b0;stroke-linecap:square;stroke-width:0.8;"/>
     </g>
     <g id="line2d_26">
      <g>
       <use style="stroke:#000000;stroke-width:0.8;" x="57.6" xlink:href="#m5ce4c1c04a" y="64.894099"/>
      </g>
     </g>
     <g id="text_10">
      <!-- 0.8 -->
      <g transform="translate(25.155 70.972849)scale(0.16 -0.16)">
       <defs>
        <path d="M 31.78125 34.625 
Q 24.75 34.625 20.71875 30.859375 
Q 16.703125 27.09375 16.703125 20.515625 
Q 16.703125 13.921875 20.71875 10.15625 
Q 24.75 6.390625 31.78125 6.390625 
Q 38.8125 6.390625 42.859375 10.171875 
Q 46.921875 13.96875 46.921875 20.515625 
Q 46.921875 27.09375 42.890625 30.859375 
Q 38.875 34.625 31.78125 34.625 
z
M 21.921875 38.8125 
Q 15.578125 40.375 12.03125 44.71875 
Q 8.5 49.078125 8.5 55.328125 
Q 8.5 64.0625 14.71875 69.140625 
Q 20.953125 74.21875 31.78125 74.21875 
Q 42.671875 74.21875 48.875 69.140625 
Q 55.078125 64.0625 55.078125 55.328125 
Q 55.078125 49.078125 51.53125 44.71875 
Q 48 40.375 41.703125 38.8125 
Q 48.828125 37.15625 52.796875 32.3125 
Q 56.78125 27.484375 56.78125 20.515625 
Q 56.78125 9.90625 50.3125 4.234375 
Q 43.84375 -1.421875 31.78125 -1.421875 
Q 19.734375 -1.421875 13.25 4.234375 
Q 6.78125 9.90625 6.78125 20.515625 
Q 6.78125 27.484375 10.78125 32.3125 
Q 14.796875 37.15625 21.921875 38.8125 
z
M 18.3125 54.390625 
Q 18.3125 48.734375 21.84375 45.5625 
Q 25.390625 42.390625 31.78125 42.390625 
Q 38.140625 42.390625 41.71875 45.5625 
Q 45.3125 48.734375 45.3125 54.390625 
Q 45.3125 60.0625 41.71875 63.234375 
Q 38.140625 66.40625 31.78125 66.40625 
Q 25.390625 66.40625 21.84375 63.234375 
Q 18.3125 60.0625 18.3125 54.390625 
z
" id="DejaVuSans-56"/>
       </defs>
       <use xlink:href="#DejaVuSans-48"/>
       <use x="63.623047" xlink:href="#DejaVuSans-46"/>
       <use x="95.410156" xlink:href="#DejaVuSans-56"/>
      </g>
     </g>
    </g>
    <g id="ytick_6">
     <g id="line2d_27">
      <path clip-path="url(#p699f49b11b)" d="M 57.6 6.381624 
L 338.688 6.381624 
" style="fill:none;stroke:#b0b0b0;stroke-linecap:square;stroke-width:0.8;"/>
     </g>
     <g id="line2d_28">
      <g>
       <use style="stroke:#000000;stroke-width:0.8;" x="57.6" xlink:href="#m5ce4c1c04a" y="6.381624"/>
      </g>
     </g>
     <g id="text_11">
      <!-- 1.0 -->
      <g transform="translate(25.155 12.460374)scale(0.16 -0.16)">
       <use xlink:href="#DejaVuSans-49"/>
       <use x="63.623047" xlink:href="#DejaVuSans-46"/>
       <use x="95.410156" xlink:href="#DejaVuSans-48"/>
      </g>
     </g>
    </g>
    <g id="text_12">
     <!-- Fraction of function,target pairs -->
     <g transform="translate(17.619531 285.585)rotate(-90)scale(0.17 -0.17)">
      <defs>
       <path d="M 9.8125 72.90625 
L 51.703125 72.90625 
L 51.703125 64.59375 
L 19.671875 64.59375 
L 19.671875 43.109375 
L 48.578125 43.109375 
L 48.578125 34.8125 
L 19.671875 34.8125 
L 19.671875 0 
L 9.8125 0 
z
" id="DejaVuSans-70"/>
       <path d="M 41.109375 46.296875 
Q 39.59375 47.171875 37.8125 47.578125 
Q 36.03125 48 33.890625 48 
Q 26.265625 48 22.1875 43.046875 
Q 18.109375 38.09375 18.109375 28.8125 
L 18.109375 0 
L 9.078125 0 
L 9.078125 54.6875 
L 18.109375 54.6875 
L 18.109375 46.1875 
Q 20.953125 51.171875 25.484375 53.578125 
Q 30.03125 56 36.53125 56 
Q 37.453125 56 38.578125 55.875 
Q 39.703125 55.765625 41.0625 55.515625 
z
" id="DejaVuSans-114"/>
       <path d="M 48.78125 52.59375 
L 48.78125 44.1875 
Q 44.96875 46.296875 41.140625 47.34375 
Q 37.3125 48.390625 33.40625 48.390625 
Q 24.65625 48.390625 19.8125 42.84375 
Q 14.984375 37.3125 14.984375 27.296875 
Q 14.984375 17.28125 19.8125 11.734375 
Q 24.65625 6.203125 33.40625 6.203125 
Q 37.3125 6.203125 41.140625 7.25 
Q 44.96875 8.296875 48.78125 10.40625 
L 48.78125 2.09375 
Q 45.015625 0.34375 40.984375 -0.53125 
Q 36.96875 -1.421875 32.421875 -1.421875 
Q 20.0625 -1.421875 12.78125 6.34375 
Q 5.515625 14.109375 5.515625 27.296875 
Q 5.515625 40.671875 12.859375 48.328125 
Q 20.21875 56 33.015625 56 
Q 37.15625 56 41.109375 55.140625 
Q 45.0625 54.296875 48.78125 52.59375 
z
" id="DejaVuSans-99"/>
       <path d="M 18.3125 70.21875 
L 18.3125 54.6875 
L 36.8125 54.6875 
L 36.8125 47.703125 
L 18.3125 47.703125 
L 18.3125 18.015625 
Q 18.3125 11.328125 20.140625 9.421875 
Q 21.96875 7.515625 27.59375 7.515625 
L 36.8125 7.515625 
L 36.8125 0 
L 27.59375 0 
Q 17.1875 0 13.234375 3.875 
Q 9.28125 7.765625 9.28125 18.015625 
L 9.28125 47.703125 
L 2.6875 47.703125 
L 2.6875 54.6875 
L 9.28125 54.6875 
L 9.28125 70.21875 
z
" id="DejaVuSans-116"/>
       <path d="M 8.5 21.578125 
L 8.5 54.6875 
L 17.484375 54.6875 
L 17.484375 21.921875 
Q 17.484375 14.15625 20.5 10.265625 
Q 23.53125 6.390625 29.59375 6.390625 
Q 36.859375 6.390625 41.078125 11.03125 
Q 45.3125 15.671875 45.3125 23.6875 
L 45.3125 54.6875 
L 54.296875 54.6875 
L 54.296875 0 
L 45.3125 0 
L 45.3125 8.40625 
Q 42.046875 3.421875 37.71875 1 
Q 33.40625 -1.421875 27.6875 -1.421875 
Q 18.265625 -1.421875 13.375 4.4375 
Q 8.5 10.296875 8.5 21.578125 
z
M 31.109375 56 
z
" id="DejaVuSans-117"/>
       <path d="M 11.71875 12.40625 
L 22.015625 12.40625 
L 22.015625 4 
L 14.015625 -11.625 
L 7.71875 -11.625 
L 11.71875 4 
z
" id="DejaVuSans-44"/>
       <path d="M 18.109375 8.203125 
L 18.109375 -20.796875 
L 9.078125 -20.796875 
L 9.078125 54.6875 
L 18.109375 54.6875 
L 18.109375 46.390625 
Q 20.953125 51.265625 25.265625 53.625 
Q 29.59375 56 35.59375 56 
Q 45.5625 56 51.78125 48.09375 
Q 58.015625 40.1875 58.015625 27.296875 
Q 58.015625 14.40625 51.78125 6.484375 
Q 45.5625 -1.421875 35.59375 -1.421875 
Q 29.59375 -1.421875 25.265625 0.953125 
Q 20.953125 3.328125 18.109375 8.203125 
z
M 48.6875 27.296875 
Q 48.6875 37.203125 44.609375 42.84375 
Q 40.53125 48.484375 33.40625 48.484375 
Q 26.265625 48.484375 22.1875 42.84375 
Q 18.109375 37.203125 18.109375 27.296875 
Q 18.109375 17.390625 22.1875 11.75 
Q 26.265625 6.109375 33.40625 6.109375 
Q 40.53125 6.109375 44.609375 11.75 
Q 48.6875 17.390625 48.6875 27.296875 
z
" id="DejaVuSans-112"/>
      </defs>
      <use xlink:href="#DejaVuSans-70"/>
      <use x="50.269531" xlink:href="#DejaVuSans-114"/>
      <use x="91.382812" xlink:href="#DejaVuSans-97"/>
      <use x="152.662109" xlink:href="#DejaVuSans-99"/>
      <use x="207.642578" xlink:href="#DejaVuSans-116"/>
      <use x="246.851562" xlink:href="#DejaVuSans-105"/>
      <use x="274.634766" xlink:href="#DejaVuSans-111"/>
      <use x="335.816406" xlink:href="#DejaVuSans-110"/>
      <use x="399.195312" xlink:href="#DejaVuSans-32"/>
      <use x="430.982422" xlink:href="#DejaVuSans-111"/>
      <use x="492.164062" xlink:href="#DejaVuSans-102"/>
      <use x="527.369141" xlink:href="#DejaVuSans-32"/>
      <use x="559.15625" xlink:href="#DejaVuSans-102"/>
      <use x="594.361328" xlink:href="#DejaVuSans-117"/>
      <use x="657.740234" xlink:href="#DejaVuSans-110"/>
      <use x="721.119141" xlink:href="#DejaVuSans-99"/>
      <use x="776.099609" xlink:href="#DejaVuSans-116"/>
      <use x="815.308594" xlink:href="#DejaVuSans-105"/>
      <use x="843.091797" xlink:href="#DejaVuSans-111"/>
      <use x="904.273438" xlink:href="#DejaVuSans-110"/>
      <use x="967.652344" xlink:href="#DejaVuSans-44"/>
      <use x="999.439453" xlink:href="#DejaVuSans-116"/>
      <use x="1038.648438" xlink:href="#DejaVuSans-97"/>
      <use x="1099.927734" xlink:href="#DejaVuSans-114"/>
      <use x="1139.291016" xlink:href="#DejaVuSans-103"/>
      <use x="1202.767578" xlink:href="#DejaVuSans-101"/>
      <use x="1264.291016" xlink:href="#DejaVuSans-116"/>
      <use x="1303.5" xlink:href="#DejaVuSans-32"/>
      <use x="1335.287109" xlink:href="#DejaVuSans-112"/>
      <use x="1398.763672" xlink:href="#DejaVuSans-97"/>
      <use x="1460.042969" xlink:href="#DejaVuSans-105"/>
      <use x="1487.826172" xlink:href="#DejaVuSans-114"/>
      <use x="1528.939453" xlink:href="#DejaVuSans-115"/>
     </g>
    </g>
   </g>
   <g id="line2d_29">
    <defs>
     <path d="M 0 1.5 
C 0.397805 1.5 0.77937 1.341951 1.06066 1.06066 
C 1.341951 0.77937 1.5 0.397805 1.5 0 
C 1.5 -0.397805 1.341951 -0.77937 1.06066 -1.06066 
C 0.77937 -1.341951 0.397805 -1.5 0 -1.5 
C -0.397805 -1.5 -0.77937 -1.341951 -1.06066 -1.06066 
C -1.341951 -0.77937 -1.5 -0.397805 -1.5 0 
C -1.5 0.397805 -1.341951 0.77937 -1.06066 1.06066 
C -0.77937 1.341951 -0.397805 1.5 0 1.5 
z
" id="mb075d5e539" style="stroke:#000080;"/>
    </defs>
    <g>
     <use style="fill:#000080;stroke:#000080;" x="196.147468" xlink:href="#mb075d5e539" y="241.578828"/>
     <use style="fill:#000080;stroke:#000080;" x="196.147468" xlink:href="#mb075d5e539" y="241.578828"/>
    </g>
   </g>
   <g id="line2d_30">
    <path d="M 102.859376 298.944 
L 102.859376 289.765573 
L 103.372333 289.765573 
L 103.372333 289.191921 
L 103.623262 289.191921 
L 103.623262 288.618269 
L 104.355088 288.618269 
L 104.355088 288.044617 
L 115.205729 288.044617 
L 115.205729 287.470966 
L 115.958621 287.470966 
L 115.958621 286.897314 
L 116.081002 286.897314 
L 116.081002 286.323662 
L 116.202531 286.323662 
L 116.202531 284.602707 
L 116.323218 284.602707 
L 116.323218 278.86619 
L 116.562116 278.86619 
L 116.562116 277.718886 
L 117.709852 277.718886 
L 117.709852 277.145235 
L 117.930605 277.145235 
L 117.930605 275.997931 
L 118.039942 275.997931 
L 118.039942 275.42428 
L 118.148599 275.42428 
L 118.148599 274.850628 
L 118.256582 274.850628 
L 118.256582 274.276976 
L 118.363901 274.276976 
L 118.363901 273.129673 
L 118.576578 273.129673 
L 118.576578 271.982369 
L 118.994305 271.982369 
L 118.994305 270.835066 
L 119.097192 270.835066 
L 119.097192 270.261414 
L 119.301163 270.261414 
L 119.301163 268.540459 
L 119.80089 268.540459 
L 119.80089 267.393156 
L 119.89914 267.393156 
L 119.89914 266.819504 
L 120.571812 266.819504 
L 120.571812 266.245852 
L 121.310093 266.245852 
L 121.310093 265.098549 
L 121.489881 265.098549 
L 121.489881 263.951245 
L 121.756135 263.951245 
L 121.756135 261.656638 
L 121.931406 261.656638 
L 121.931406 261.082987 
L 122.191052 261.082987 
L 122.191052 260.509335 
L 122.531342 260.509335 
L 122.531342 259.362031 
L 127.923363 259.362031 
L 127.923363 258.78838 
L 128.944197 258.78838 
L 128.944197 258.214728 
L 134.192921 258.214728 
L 134.192921 257.067425 
L 134.407429 257.067425 
L 134.407429 256.493773 
L 134.577155 256.493773 
L 134.577155 255.346469 
L 134.61933 255.346469 
L 134.61933 254.199166 
L 134.703375 254.199166 
L 134.703375 252.478211 
L 135.035562 252.478211 
L 135.035562 251.904559 
L 136.645276 251.904559 
L 136.645276 251.330907 
L 137.343676 251.330907 
L 137.343676 250.183604 
L 141.119455 250.183604 
L 141.119455 249.609952 
L 143.778691 249.609952 
L 143.778691 249.036301 
L 144.172816 249.036301 
L 144.172816 248.462649 
L 145.576196 248.462649 
L 145.576196 247.888997 
L 147.185137 247.888997 
L 147.185137 247.315345 
L 153.736164 247.315345 
L 153.736164 246.741694 
L 155.28405 246.741694 
L 155.28405 246.168042 
L 158.118907 246.168042 
L 158.118907 245.59439 
L 160.181471 245.59439 
L 160.181471 245.020738 
L 170.660731 245.020738 
L 170.660731 244.447087 
L 173.155951 244.447087 
L 173.155951 243.873435 
L 174.996598 243.873435 
L 174.996598 243.299783 
L 175.158055 243.299783 
L 175.158055 242.726132 
L 177.390674 242.726132 
L 177.390674 242.15248 
L 196.147468 242.15248 
L 196.147468 241.578828 
L 338.688 241.578828 
" style="fill:none;stroke:#000080;stroke-linecap:square;stroke-width:1.5;"/>
   </g>
   <g id="line2d_31">
    <defs>
     <path d="M 0 6 
C 1.591219 6 3.117479 5.367802 4.242641 4.242641 
C 5.367802 3.117479 6 1.591219 6 0 
C 6 -1.591219 5.367802 -3.117479 4.242641 -4.242641 
C 3.117479 -5.367802 1.591219 -6 0 -6 
C -1.591219 -6 -3.117479 -5.367802 -4.242641 -4.242641 
C -5.367802 -3.117479 -6 -1.591219 -6 0 
C -6 1.591219 -5.367802 3.117479 -4.242641 4.242641 
C -3.117479 5.367802 -1.591219 6 0 6 
z
" id="m0b9023232c" style="stroke:#000080;stroke-width:1.5;"/>
    </defs>
    <g>
     <use style="fill-opacity:0;stroke:#000080;stroke-width:1.5;" x="119.097192" xlink:href="#m0b9023232c" y="270.261414"/>
     <use style="fill-opacity:0;stroke:#000080;stroke-width:1.5;" x="155.28405" xlink:href="#m0b9023232c" y="246.741694"/>
     <use style="fill-opacity:0;stroke:#000080;stroke-width:1.5;" x="196.147468" xlink:href="#m0b9023232c" y="241.578828"/>
     <use style="fill-opacity:0;stroke:#000080;stroke-width:1.5;" x="196.147468" xlink:href="#m0b9023232c" y="241.578828"/>
     <use style="fill-opacity:0;stroke:#000080;stroke-width:1.5;" x="338.688" xlink:href="#m0b9023232c" y="241.578828"/>
    </g>
   </g>
   <g id="line2d_32">
    <path style="fill:none;stroke:#000080;stroke-linecap:square;stroke-width:1.5;"/>
    <g/>
   </g>
   <g id="line2d_33">
    <path clip-path="url(#p699f49b11b)" d="M 139.572998 250.183604 
" style="fill:none;stroke:#000080;stroke-linecap:square;stroke-width:1.5;"/>
    <defs>
     <path d="M -12 12 
L 12 -12 
M -12 -12 
L 12 12 
" id="md77d8ce004" style="stroke:#000080;"/>
    </defs>
    <g clip-path="url(#p699f49b11b)">
     <use style="fill:#000080;stroke:#000080;" x="139.572998" xlink:href="#md77d8ce004" y="250.183604"/>
    </g>
   </g>
   <g id="line2d_34">
    <defs>
     <path d="M 0 1.5 
C 0.397805 1.5 0.77937 1.341951 1.06066 1.06066 
C 1.341951 0.77937 1.5 0.397805 1.5 0 
C 1.5 -0.397805 1.341951 -0.77937 1.06066 -1.06066 
C 0.77937 -1.341951 0.397805 -1.5 0 -1.5 
C -0.397805 -1.5 -0.77937 -1.341951 -1.06066 -1.06066 
C -1.341951 -0.77937 -1.5 -0.397805 -1.5 0 
C -1.5 0.397805 -1.341951 0.77937 -1.06066 1.06066 
C -0.77937 1.341951 -0.397805 1.5 0 1.5 
z
" id="mdb59a840c2" style="stroke:#ff00ff;"/>
    </defs>
    <g>
     <use style="fill:#ff00ff;stroke:#ff00ff;" x="212.274946" xlink:href="#mdb59a840c2" y="6.381624"/>
     <use style="fill:#ff00ff;stroke:#ff00ff;" x="212.274946" xlink:href="#mdb59a840c2" y="6.381624"/>
    </g>
   </g>
   <g id="line2d_35">
    <path d="M 29.53256 298.944 
L 29.53256 284.602707 
L 97.403108 284.602707 
L 97.403108 284.029055 
L 98.43941 284.029055 
L 98.43941 283.455404 
L 99.41757 283.455404 
L 99.41757 282.881752 
L 100.040467 282.881752 
L 100.040467 282.3081 
L 100.343767 282.3081 
L 100.343767 280.587145 
L 102.060491 280.587145 
L 102.060491 280.013493 
L 102.330873 280.013493 
L 102.330873 278.86619 
L 103.372333 278.86619 
L 103.372333 278.292538 
L 103.870632 278.292538 
L 103.870632 277.145235 
L 104.114542 277.145235 
L 104.114542 276.571583 
L 104.355088 276.571583 
L 104.355088 275.997931 
L 104.592361 275.997931 
L 104.592361 275.42428 
L 114.816733 275.42428 
L 114.816733 274.850628 
L 115.711251 274.850628 
L 115.711251 274.276976 
L 116.323218 274.276976 
L 116.323218 273.703324 
L 117.259781 273.703324 
L 117.259781 273.129673 
L 123.354102 273.129673 
L 123.354102 272.556021 
L 124.062793 272.556021 
L 124.062793 271.982369 
L 125.752972 271.982369 
L 125.752972 271.408718 
L 125.892487 271.408718 
L 125.892487 270.835066 
L 126.640485 270.835066 
L 126.640485 270.261414 
L 127.035353 270.261414 
L 127.035353 269.687762 
L 127.48501 269.687762 
L 127.48501 269.114111 
L 127.611382 269.114111 
L 127.674226 267.966807 
L 127.923363 267.966807 
L 127.923363 267.393156 
L 128.411207 267.393156 
L 128.411207 266.819504 
L 128.768338 266.819504 
L 128.768338 266.245852 
L 128.944197 266.245852 
L 128.944197 265.6722 
L 129.233413 265.6722 
L 129.233413 265.098549 
L 130.018593 265.098549 
L 130.073348 263.951245 
L 130.398313 263.951245 
L 130.398313 262.803942 
L 130.558552 262.803942 
L 130.61164 261.082987 
L 130.76994 261.082987 
L 130.76994 259.362031 
L 131.790072 259.362031 
L 131.790072 258.78838 
L 133.755823 258.78838 
L 133.755823 258.214728 
L 134.450015 258.214728 
L 134.492498 257.067425 
L 141.090414 257.067425 
L 141.090414 256.493773 
L 143.653678 256.493773 
L 143.653678 255.920121 
L 143.927534 255.920121 
L 143.927534 255.346469 
L 144.342484 255.346469 
L 144.342484 254.772818 
L 144.700592 254.772818 
L 144.700592 253.625514 
L 145.051495 253.625514 
L 145.051495 253.051863 
L 145.418169 253.051863 
L 145.418169 251.904559 
L 145.553708 251.904559 
L 145.621085 250.183604 
L 145.665858 250.183604 
L 145.732804 248.462649 
L 145.865929 248.462649 
L 145.932112 245.020738 
L 145.998045 245.020738 
L 146.08557 243.299783 
L 146.129168 243.299783 
L 146.216039 240.431525 
L 146.345539 240.431525 
L 146.40993 237.563266 
L 146.516724 237.563266 
L 146.538004 235.842311 
L 146.665144 235.842311 
L 146.749392 233.547704 
L 146.791364 233.547704 
L 146.791364 230.679446 
L 146.916676 230.679446 
L 146.916676 230.105794 
L 147.205618 230.105794 
L 147.307662 225.51658 
L 147.550159 225.51658 
L 147.550159 222.07467 
L 147.749695 222.07467 
L 147.749695 221.501018 
L 147.907696 221.501018 
L 147.907696 220.927366 
L 148.770728 220.927366 
L 148.826773 219.206411 
L 149.159312 219.206411 
L 149.177602 218.059108 
L 149.503579 218.059108 
L 149.539426 216.911804 
L 149.805951 216.911804 
L 149.823575 215.764501 
L 149.946449 215.764501 
L 150.051085 213.469894 
L 150.932558 213.469894 
L 150.932558 212.896242 
L 151.162458 212.896242 
L 151.162458 212.322591 
L 152.840905 212.322591 
L 152.840905 211.748939 
L 153.876352 211.748939 
L 153.876352 211.175287 
L 153.987696 211.175287 
L 153.987696 210.601635 
L 154.641235 210.601635 
L 154.641235 210.027984 
L 154.906477 210.027984 
L 154.906477 209.454332 
L 155.271165 209.454332 
L 155.271165 208.88068 
L 155.527065 208.88068 
L 155.527065 208.307029 
L 155.816782 208.307029 
L 155.816782 207.733377 
L 157.380981 207.733377 
L 157.380981 207.159725 
L 157.720277 207.159725 
L 157.720277 206.586073 
L 158.444276 206.586073 
L 158.444276 206.012422 
L 158.742573 206.012422 
L 158.83738 204.865118 
L 158.994256 204.865118 
L 159.087709 202.570511 
L 159.118749 202.570511 
L 159.129083 201.423208 
L 159.303838 201.423208 
L 159.405822 198.554949 
L 159.486982 198.554949 
L 159.587904 195.113039 
L 159.618067 195.113039 
L 159.728221 191.097477 
L 159.788013 191.097477 
L 159.897102 189.950174 
L 159.916863 189.950174 
L 159.976013 188.229218 
L 160.064363 188.229218 
L 160.152267 184.787308 
L 160.210625 184.787308 
L 160.307457 183.640005 
L 160.326759 183.640005 
L 160.422949 180.198094 
L 160.442124 180.198094 
L 160.537682 177.329836 
L 160.604262 177.329836 
L 160.613753 175.608881 
L 160.746084 175.608881 
L 160.746084 174.461577 
L 160.905434 174.461577 
L 160.998493 172.16697 
L 161.06334 172.16697 
L 161.06334 171.593319 
L 161.21983 171.593319 
L 161.329454 170.446015 
L 161.761186 170.446015 
L 161.761186 169.872363 
L 161.999419 169.872363 
L 162.069386 168.72506 
L 163.549667 168.72506 
L 163.549667 168.151408 
L 164.063205 168.151408 
L 164.102088 167.004105 
L 164.218222 167.004105 
L 164.24906 165.28315 
L 164.37952 165.28315 
L 164.37952 164.709498 
L 164.509011 164.709498 
L 164.509011 164.135846 
L 164.735204 164.135846 
L 164.735204 163.562195 
L 164.951104 163.562195 
L 165.010195 161.267588 
L 165.076435 161.267588 
L 165.076435 160.693936 
L 165.215452 160.693936 
L 165.215452 160.120284 
L 166.487008 160.120284 
L 166.514087 158.972981 
L 166.628709 158.972981 
L 166.695783 157.252026 
L 166.749257 157.252026 
L 166.775933 156.104722 
L 166.875605 156.104722 
L 166.875605 155.53107 
L 167.001045 155.53107 
L 167.105982 152.662812 
L 167.132118 152.662812 
L 167.242762 149.794553 
L 167.46837 149.794553 
L 167.564173 148.073598 
L 167.595991 148.073598 
L 167.595991 147.499946 
L 167.760513 147.499946 
L 167.854729 145.778991 
L 167.879768 145.778991 
L 167.954668 142.910733 
L 167.991998 142.910733 
L 168.060229 141.189778 
L 168.159001 141.189778 
L 168.238843 138.895171 
L 168.306117 138.895171 
L 168.306117 138.321519 
L 168.656606 138.321519 
L 168.752066 136.600564 
L 168.870661 136.600564 
L 168.906082 134.879609 
L 170.217839 134.879609 
L 170.277909 133.732305 
L 170.435289 133.732305 
L 170.435289 133.158653 
L 170.628703 133.158653 
L 170.644724 132.01135 
L 170.745853 132.01135 
L 170.745853 131.437698 
L 171.263501 131.437698 
L 171.309807 130.290395 
L 171.46837 130.290395 
L 171.46837 129.716743 
L 171.61541 129.716743 
L 171.721118 127.422136 
L 171.856094 127.422136 
L 171.930631 126.274833 
L 172.049233 126.274833 
L 172.137657 125.127529 
L 172.186589 125.127529 
L 172.274322 123.980226 
L 172.361615 123.980226 
L 172.414747 122.832923 
L 172.491742 122.832923 
L 172.597058 118.243709 
L 172.6066 118.243709 
L 172.6066 117.670057 
L 172.730183 117.670057 
L 172.734918 116.522754 
L 172.843486 116.522754 
L 172.918615 114.801798 
L 173.044666 114.801798 
L 173.14208 113.080843 
L 173.215936 113.080843 
L 173.234351 111.359888 
L 173.394661 111.359888 
L 173.408333 110.212585 
L 173.530906 110.212585 
L 173.530906 109.638933 
L 173.643636 109.638933 
L 173.643636 109.065281 
L 173.866933 109.065281 
L 173.866933 108.49163 
L 174.043535 108.49163 
L 174.043535 107.917978 
L 174.218366 107.917978 
L 174.218366 107.344326 
L 174.369919 107.344326 
L 174.369919 106.770674 
L 174.635193 106.770674 
L 174.70723 105.049719 
L 174.774759 105.049719 
L 174.879752 103.902416 
L 175.293514 103.902416 
L 175.38324 102.755112 
L 175.448206 102.755112 
L 175.448206 102.181461 
L 175.565343 102.181461 
L 175.621612 101.034157 
L 175.773432 101.034157 
L 175.773432 100.460506 
L 175.94365 100.460506 
L 176.014414 99.313202 
L 176.329344 99.313202 
L 176.329344 98.73955 
L 176.452211 98.73955 
L 176.536182 97.018595 
L 176.631116 97.018595 
L 176.631116 96.444944 
L 176.766919 96.444944 
L 176.778188 95.29764 
L 176.964946 95.29764 
L 177.002059 93.003033 
L 177.149725 93.003033 
L 177.208443 90.708426 
L 177.277915 90.708426 
L 177.292506 89.561123 
L 177.488292 89.561123 
L 177.488292 88.987471 
L 177.996389 88.987471 
L 177.996389 88.413819 
L 178.639242 88.413819 
L 178.639242 87.840168 
L 178.807187 87.840168 
L 178.893883 86.692864 
L 178.98346 86.692864 
L 178.98346 86.119213 
L 179.105471 86.119213 
L 179.105471 85.545561 
L 179.226635 85.545561 
L 179.226635 84.971909 
L 179.440696 84.971909 
L 179.524307 83.250954 
L 179.572362 83.250954 
L 179.652162 82.103651 
L 179.886249 82.103651 
L 179.886249 81.529999 
L 180.0862 81.529999 
L 180.182234 80.382695 
L 180.259296 80.382695 
L 180.342143 78.66174 
L 180.388 78.66174 
L 180.388 78.088089 
L 180.515761 78.088089 
L 180.515761 77.514437 
L 180.648609 77.514437 
L 180.648609 76.940785 
L 180.863838 76.940785 
L 180.863838 76.367133 
L 181.298082 76.367133 
L 181.298082 75.793482 
L 181.508353 75.793482 
L 181.579784 74.646178 
L 181.66228 74.646178 
L 181.730258 73.498875 
L 181.946584 73.498875 
L 182.002336 72.351571 
L 182.19883 72.351571 
L 182.283933 70.056964 
L 182.363171 70.056964 
L 182.363171 69.483313 
L 182.796652 69.483313 
L 182.88154 68.336009 
L 182.958115 68.336009 
L 183.031732 67.188706 
L 183.091972 67.188706 
L 183.152004 66.041402 
L 183.502813 66.041402 
L 183.502813 65.467751 
L 184.294112 65.467751 
L 184.294112 64.894099 
L 185.046385 64.894099 
L 185.046385 64.320447 
L 185.320039 64.320447 
L 185.414125 63.173144 
L 185.464403 63.173144 
L 185.464403 62.02584 
L 185.59173 62.02584 
L 185.621156 60.878537 
L 185.901591 60.878537 
L 185.9926 59.731234 
L 186.15128 59.731234 
L 186.15128 59.157582 
L 186.34979 59.157582 
L 186.403933 58.010278 
L 186.533193 58.010278 
L 186.569643 55.14202 
L 186.761356 55.14202 
L 186.761356 54.568368 
L 187.239861 54.568368 
L 187.239861 53.994716 
L 187.414184 53.994716 
L 187.475296 52.273761 
L 187.839529 52.273761 
L 187.913058 51.126458 
L 188.053292 51.126458 
L 188.053292 50.552806 
L 188.434663 50.552806 
L 188.434663 49.979154 
L 188.717211 49.979154 
L 188.79091 48.831851 
L 189.077067 48.831851 
L 189.093754 47.684547 
L 189.351301 47.684547 
L 189.429647 46.537244 
L 189.520307 46.537244 
L 189.623088 44.242637 
L 189.662596 44.242637 
L 189.735987 43.095334 
L 190.124602 43.095334 
L 190.124602 42.521682 
L 190.661291 42.521682 
L 190.700208 41.374379 
L 190.824835 41.374379 
L 190.928571 40.227075 
L 190.973554 40.227075 
L 190.990185 39.079772 
L 191.114415 39.079772 
L 191.114415 38.50612 
L 192.010336 38.50612 
L 192.010336 37.932468 
L 192.15865 37.932468 
L 192.15865 37.358817 
L 192.364193 37.358817 
L 192.365729 36.211513 
L 192.931018 36.211513 
L 192.931018 35.637861 
L 193.173234 35.637861 
L 193.227418 33.343255 
L 193.375925 33.343255 
L 193.375925 32.769603 
L 193.507358 32.769603 
L 193.600635 31.622299 
L 193.659216 31.622299 
L 193.751687 29.327692 
L 193.970236 29.327692 
L 193.988442 27.606737 
L 194.619368 27.606737 
L 194.702868 26.459434 
L 194.836708 26.459434 
L 194.854032 25.31213 
L 195.466505 25.31213 
L 195.539652 23.591175 
L 195.710415 23.591175 
L 195.710415 23.017524 
L 195.874497 23.017524 
L 195.874497 22.443872 
L 196.393079 22.443872 
L 196.470949 20.722917 
L 196.683317 20.722917 
L 196.683317 20.149265 
L 196.904975 20.149265 
L 196.904975 19.575613 
L 197.292596 19.575613 
L 197.292596 19.001962 
L 197.910393 19.001962 
L 197.910393 18.42831 
L 198.22061 18.42831 
L 198.22061 17.854658 
L 199.22967 17.854658 
L 199.22967 17.281006 
L 199.500131 17.281006 
L 199.565318 15.560051 
L 200.370908 15.560051 
L 200.370908 14.9864 
L 200.748295 14.9864 
L 200.748295 14.412748 
L 201.114897 14.412748 
L 201.114897 13.839096 
L 201.484882 13.839096 
L 201.484882 13.265444 
L 201.865902 13.265444 
L 201.865902 12.691793 
L 202.286676 12.691793 
L 202.286676 12.118141 
L 202.642232 12.118141 
L 202.642232 11.544489 
L 202.861565 11.544489 
L 202.861565 10.970838 
L 203.095619 10.970838 
L 203.095619 10.397186 
L 204.960161 10.397186 
L 204.960161 9.823534 
L 205.485647 9.823534 
L 205.485647 9.249882 
L 205.757187 9.249882 
L 205.757187 8.676231 
L 206.626846 8.676231 
L 206.626846 8.102579 
L 208.768307 8.102579 
L 208.768307 7.528927 
L 209.760343 7.528927 
L 209.760343 6.955275 
L 212.274946 6.955275 
L 212.274946 6.381624 
L 338.688 6.381624 
L 338.688 6.381624 
" style="fill:none;stroke:#ff00ff;stroke-linecap:square;stroke-width:1.5;"/>
   </g>
   <g id="line2d_36">
    <defs>
     <path d="M -0 8.485281 
L 5.091169 0 
L 0 -8.485281 
L -5.091169 -0 
z
" id="mb84cbe8f00" style="stroke:#ff00ff;stroke-linejoin:miter;stroke-width:1.5;"/>
    </defs>
    <g>
     <use style="fill-opacity:0;stroke:#ff00ff;stroke-linejoin:miter;stroke-width:1.5;" x="159.066985" xlink:href="#mb84cbe8f00" y="203.717815"/>
     <use style="fill-opacity:0;stroke:#ff00ff;stroke-linejoin:miter;stroke-width:1.5;" x="192.010336" xlink:href="#mb84cbe8f00" y="37.932468"/>
     <use style="fill-opacity:0;stroke:#ff00ff;stroke-linejoin:miter;stroke-width:1.5;" x="212.274946" xlink:href="#mb84cbe8f00" y="6.955275"/>
     <use style="fill-opacity:0;stroke:#ff00ff;stroke-linejoin:miter;stroke-width:1.5;" x="212.274946" xlink:href="#mb84cbe8f00" y="6.381624"/>
     <use style="fill-opacity:0;stroke:#ff00ff;stroke-linejoin:miter;stroke-width:1.5;" x="338.688" xlink:href="#mb84cbe8f00" y="6.381624"/>
    </g>
   </g>
   <g id="line2d_37">
    <path style="fill:none;stroke:#ff00ff;stroke-linecap:square;stroke-width:1.5;"/>
    <g/>
   </g>
   <g id="line2d_38">
    <path clip-path="url(#p699f49b11b)" d="M 149.646525 216.911804 
" style="fill:none;stroke:#ff00ff;stroke-linecap:square;stroke-width:1.5;"/>
    <defs>
     <path d="M -12 12 
L 12 -12 
M -12 -12 
L 12 12 
" id="mdfb8a95180" style="stroke:#ff00ff;"/>
    </defs>
    <g clip-path="url(#p699f49b11b)">
     <use style="fill:#ff00ff;stroke:#ff00ff;" x="149.646525" xlink:href="#mdfb8a95180" y="216.911804"/>
    </g>
   </g>
   <g id="line2d_39">
    <defs>
     <path d="M 0 1.5 
C 0.397805 1.5 0.77937 1.341951 1.06066 1.06066 
C 1.341951 0.77937 1.5 0.397805 1.5 0 
C 1.5 -0.397805 1.341951 -0.77937 1.06066 -1.06066 
C 0.77937 -1.341951 0.397805 -1.5 0 -1.5 
C -0.397805 -1.5 -0.77937 -1.341951 -1.06066 -1.06066 
C -1.341951 -0.77937 -1.5 -0.397805 -1.5 0 
C -1.5 0.397805 -1.341951 0.77937 -1.06066 1.06066 
C -0.77937 1.341951 -0.397805 1.5 0 1.5 
z
" id="mcecbe4fc24" style="stroke:#ff7500;"/>
    </defs>
    <g>
     <use style="fill:#ff7500;stroke:#ff7500;" x="208.648544" xlink:href="#mcecbe4fc24" y="149.794553"/>
     <use style="fill:#ff7500;stroke:#ff7500;" x="208.648544" xlink:href="#mcecbe4fc24" y="149.794553"/>
    </g>
   </g>
   <g id="line2d_40">
    <path d="M 29.53256 298.944 
L 29.53256 289.191921 
L 89.972502 289.191921 
L 89.972502 288.618269 
L 97.043522 288.618269 
L 97.043522 288.044617 
L 98.100772 288.044617 
L 98.100772 287.470966 
L 100.040467 287.470966 
L 100.040467 285.75001 
L 100.641881 285.75001 
L 100.641881 284.602707 
L 100.934985 284.602707 
L 100.934985 283.455404 
L 101.506816 283.455404 
L 101.506816 281.734448 
L 101.785851 281.734448 
L 101.785851 281.160797 
L 102.060491 281.160797 
L 102.060491 280.587145 
L 102.859376 280.587145 
L 102.859376 280.013493 
L 103.117741 280.013493 
L 103.117741 279.439842 
L 103.372333 279.439842 
L 103.372333 278.86619 
L 103.623262 278.86619 
L 103.623262 278.292538 
L 119.996839 278.292538 
L 119.996839 277.718886 
L 120.665825 277.718886 
L 120.665825 277.145235 
L 124.062793 277.145235 
L 124.062793 276.571583 
L 126.439646 276.571583 
L 126.439646 275.997931 
L 126.773103 275.997931 
L 126.773103 275.42428 
L 128.229861 275.42428 
L 128.229861 274.850628 
L 128.650105 274.850628 
L 128.650105 274.276976 
L 131.185181 274.276976 
L 131.185181 273.703324 
L 131.338382 273.703324 
L 131.338382 273.129673 
L 131.790072 273.129673 
L 131.790072 272.556021 
L 131.938072 272.556021 
L 131.938072 271.982369 
L 132.181982 271.982369 
L 132.181982 271.408718 
L 133.032848 271.408718 
L 133.032848 270.835066 
L 135.035562 270.835066 
L 135.035562 270.261414 
L 135.721125 270.261414 
L 135.760625 269.114111 
L 135.956794 269.114111 
L 135.956794 267.966807 
L 136.494612 267.966807 
L 136.570107 266.819504 
L 136.68274 266.819504 
L 136.68274 266.245852 
L 136.831795 266.245852 
L 136.831795 265.098549 
L 137.37967 265.098549 
L 137.37967 264.524897 
L 137.558536 264.524897 
L 137.558536 263.377593 
L 138.153314 263.377593 
L 138.187677 262.23029 
L 138.426341 262.23029 
L 138.527635 260.509335 
L 138.728473 260.509335 
L 138.828032 256.493773 
L 140.973763 256.493773 
L 140.973763 255.920121 
L 141.177393 255.920121 
L 141.177393 255.346469 
L 141.407239 255.346469 
L 141.407239 254.199166 
L 141.80232 254.199166 
L 141.80232 253.625514 
L 141.913576 253.625514 
L 141.913576 253.051863 
L 142.051655 253.051863 
L 142.051655 252.478211 
L 144.148442 252.478211 
L 144.148442 251.904559 
L 146.107383 251.904559 
L 146.107383 251.330907 
L 149.141003 251.330907 
L 149.141003 250.757256 
L 149.876341 250.757256 
L 149.876341 250.183604 
L 150.866312 250.183604 
L 150.94908 249.036301 
L 151.015013 249.036301 
L 151.097081 247.315345 
L 151.1298 247.315345 
L 151.146137 246.168042 
L 151.324836 246.168042 
L 151.324836 245.59439 
L 151.787359 245.59439 
L 151.787359 245.020738 
L 152.602211 245.020738 
L 152.602211 244.447087 
L 152.840905 244.447087 
L 152.840905 243.873435 
L 153.279836 243.873435 
L 153.279836 243.299783 
L 153.679772 243.299783 
L 153.679772 242.726132 
L 153.959927 242.726132 
L 154.015422 241.578828 
L 154.084543 241.578828 
L 154.084543 241.005176 
L 154.493614 241.005176 
L 154.493614 240.431525 
L 155.361158 240.431525 
L 155.361158 239.857873 
L 155.488919 239.857873 
L 155.565128 238.136918 
L 155.603109 238.136918 
L 155.653621 236.989614 
L 156.285144 236.989614 
L 156.382164 235.842311 
L 156.406335 235.842311 
L 156.406335 235.268659 
L 156.538679 235.268659 
L 156.634302 234.121356 
L 156.835778 234.121356 
L 156.835778 233.547704 
L 157.335239 233.547704 
L 157.369557 231.253097 
L 158.217157 231.253097 
L 158.314856 229.532142 
L 159.567767 229.532142 
L 159.567767 228.95849 
L 160.31711 228.95849 
L 160.31711 228.384839 
L 162.130378 228.384839 
L 162.130378 227.811187 
L 162.862799 227.811187 
L 162.962595 226.663884 
L 163.045324 226.663884 
L 163.070067 225.51658 
L 163.565696 225.51658 
L 163.621681 224.369277 
L 165.222738 224.369277 
L 165.222738 223.795625 
L 165.475853 223.795625 
L 165.568939 222.648321 
L 165.711185 222.648321 
L 165.795979 220.927366 
L 165.901395 220.927366 
L 165.901395 220.353715 
L 166.075685 220.353715 
L 166.144916 219.206411 
L 166.337313 219.206411 
L 166.337313 218.632759 
L 166.888852 218.632759 
L 166.895472 217.485456 
L 167.779397 217.485456 
L 167.829655 216.338153 
L 167.948439 216.338153 
L 167.948439 215.764501 
L 168.159001 215.764501 
L 168.189752 214.617197 
L 168.656606 214.617197 
L 168.704401 213.469894 
L 168.858837 213.469894 
L 168.888381 212.322591 
L 169.023638 212.322591 
L 169.023638 211.748939 
L 169.210094 211.748939 
L 169.308343 210.601635 
L 169.491796 210.601635 
L 169.525979 208.307029 
L 169.740933 208.307029 
L 169.802665 206.586073 
L 170.16305 206.586073 
L 170.239707 204.865118 
L 170.499999 204.865118 
L 170.585907 203.717815 
L 170.729924 203.717815 
L 170.745853 202.570511 
L 171.655755 202.570511 
L 171.655755 201.99686 
L 171.781236 201.99686 
L 171.880975 200.849556 
L 172.068921 200.849556 
L 172.068921 200.275904 
L 172.230511 200.275904 
L 172.32772 199.128601 
L 172.361615 199.128601 
L 172.361615 198.554949 
L 172.496543 198.554949 
L 172.501342 197.407646 
L 172.871698 197.407646 
L 172.970079 196.260342 
L 173.183662 196.260342 
L 173.183662 195.686691 
L 173.339863 195.686691 
L 173.339863 195.113039 
L 173.724353 195.113039 
L 173.769034 193.965736 
L 173.915677 193.965736 
L 173.973109 192.24478 
L 174.047927 192.24478 
L 174.13117 191.097477 
L 174.400072 191.097477 
L 174.498781 189.950174 
L 174.800015 189.950174 
L 174.800015 189.376522 
L 175.693692 189.376522 
L 175.693692 188.80287 
L 176.174534 188.80287 
L 176.174534 188.229218 
L 176.30621 188.229218 
L 176.371677 186.508263 
L 176.740595 186.508263 
L 176.74812 184.787308 
L 177.212107 184.787308 
L 177.263313 183.640005 
L 177.484686 183.640005 
L 177.484686 183.066353 
L 177.621184 183.066353 
L 177.621184 182.492701 
L 177.943781 182.492701 
L 177.943781 181.91905 
L 178.284648 181.91905 
L 178.284648 181.345398 
L 178.415048 181.345398 
L 178.415048 180.771746 
L 179.321016 180.771746 
L 179.421344 179.624443 
L 179.482552 179.624443 
L 179.482552 179.050791 
L 179.879964 179.050791 
L 179.879964 178.477139 
L 180.030195 178.477139 
L 180.104829 176.756184 
L 180.539991 176.756184 
L 180.579292 175.608881 
L 181.117483 175.608881 
L 181.117483 175.035229 
L 181.329929 175.035229 
L 181.361719 173.887925 
L 181.701966 173.887925 
L 181.701966 173.314274 
L 183.906693 173.314274 
L 183.906693 172.740622 
L 184.57973 172.740622 
L 184.656387 171.019667 
L 184.784985 171.019667 
L 184.784985 170.446015 
L 184.931475 170.446015 
L 185.034694 169.298712 
L 185.457555 169.298712 
L 185.550905 168.151408 
L 185.684367 168.151408 
L 185.684367 167.577757 
L 185.9926 167.577757 
L 185.9926 167.004105 
L 187.358999 167.004105 
L 187.358999 166.430453 
L 188.188503 166.430453 
L 188.188503 165.856801 
L 188.351706 165.856801 
L 188.351706 165.28315 
L 188.494226 165.28315 
L 188.524888 164.135846 
L 188.807873 164.135846 
L 188.807873 163.562195 
L 188.95607 163.562195 
L 188.95607 162.988543 
L 189.274436 162.988543 
L 189.274436 162.414891 
L 189.558244 162.414891 
L 189.558244 161.841239 
L 189.80907 161.841239 
L 189.80907 161.267588 
L 190.652819 161.267588 
L 190.652819 160.693936 
L 191.245958 160.693936 
L 191.245958 160.120284 
L 191.876556 160.120284 
L 191.876556 159.546632 
L 192.133759 159.546632 
L 192.153986 158.399329 
L 192.334978 158.399329 
L 192.334978 157.825677 
L 192.823607 157.825677 
L 192.928043 156.678374 
L 192.954797 156.678374 
L 193.005221 155.53107 
L 194.169465 155.53107 
L 194.169465 154.957419 
L 195.088209 154.957419 
L 195.088209 154.383767 
L 195.597185 154.383767 
L 195.597185 153.810115 
L 196.356457 153.810115 
L 196.356457 153.236464 
L 197.630944 153.236464 
L 197.630944 152.662812 
L 197.803874 152.662812 
L 197.831969 151.515508 
L 199.267974 151.515508 
L 199.267974 150.941857 
L 201.461189 150.941857 
L 201.461189 150.368205 
L 208.648544 150.368205 
L 208.648544 149.794553 
L 338.688 149.794553 
L 338.688 149.794553 
" style="fill:none;stroke:#ff7500;stroke-linecap:square;stroke-width:1.5;"/>
   </g>
   <g id="line2d_41">
    <defs>
     <path d="M 0 -6 
L -1.347084 -1.854102 
L -5.706339 -1.854102 
L -2.179628 0.708204 
L -3.526712 4.854102 
L -0 2.291796 
L 3.526712 4.854102 
L 2.179628 0.708204 
L 5.706339 -1.854102 
L 1.347084 -1.854102 
z
" id="m778cdbcf33" style="stroke:#ff7500;stroke-linejoin:bevel;stroke-width:1.5;"/>
    </defs>
    <g>
     <use style="fill-opacity:0;stroke:#ff7500;stroke-linejoin:bevel;stroke-width:1.5;" x="135.035562" xlink:href="#m778cdbcf33" y="270.835066"/>
     <use style="fill-opacity:0;stroke:#ff7500;stroke-linejoin:bevel;stroke-width:1.5;" x="176.174534" xlink:href="#m778cdbcf33" y="188.80287"/>
     <use style="fill-opacity:0;stroke:#ff7500;stroke-linejoin:bevel;stroke-width:1.5;" x="208.648544" xlink:href="#m778cdbcf33" y="150.368205"/>
     <use style="fill-opacity:0;stroke:#ff7500;stroke-linejoin:bevel;stroke-width:1.5;" x="208.648544" xlink:href="#m778cdbcf33" y="149.794553"/>
     <use style="fill-opacity:0;stroke:#ff7500;stroke-linejoin:bevel;stroke-width:1.5;" x="208.648544" xlink:href="#m778cdbcf33" y="149.794553"/>
     <use style="fill-opacity:0;stroke:#ff7500;stroke-linejoin:bevel;stroke-width:1.5;" x="338.688" xlink:href="#m778cdbcf33" y="149.794553"/>
    </g>
   </g>
   <g id="line2d_42">
    <path style="fill:none;stroke:#ff7500;stroke-linecap:square;stroke-width:1.5;"/>
    <g/>
   </g>
   <g id="line2d_43">
    <path clip-path="url(#p699f49b11b)" d="M 147.205618 251.330907 
" style="fill:none;stroke:#ff7500;stroke-linecap:square;stroke-width:1.5;"/>
    <defs>
     <path d="M -12 12 
L 12 -12 
M -12 -12 
L 12 12 
" id="m205c2fff36" style="stroke:#ff7500;"/>
    </defs>
    <g clip-path="url(#p699f49b11b)">
     <use style="fill:#ff7500;stroke:#ff7500;" x="147.205618" xlink:href="#m205c2fff36" y="251.330907"/>
    </g>
   </g>
   <g id="line2d_44">
    <defs>
     <path d="M 0 1.5 
C 0.397805 1.5 0.77937 1.341951 1.06066 1.06066 
C 1.341951 0.77937 1.5 0.397805 1.5 0 
C 1.5 -0.397805 1.341951 -0.77937 1.06066 -1.06066 
C 0.77937 -1.341951 0.397805 -1.5 0 -1.5 
C -0.397805 -1.5 -0.77937 -1.341951 -1.06066 -1.06066 
C -1.341951 -0.77937 -1.5 -0.397805 -1.5 0 
C -1.5 0.397805 -1.341951 0.77937 -1.06066 1.06066 
C -0.77937 1.341951 -0.397805 1.5 0 1.5 
z
" id="mf6fa162094" style="stroke:#6495ed;"/>
    </defs>
    <g>
     <use style="fill:#6495ed;stroke:#6495ed;" x="200.213915" xlink:href="#mf6fa162094" y="253.051863"/>
     <use style="fill:#6495ed;stroke:#6495ed;" x="200.213915" xlink:href="#mf6fa162094" y="253.051863"/>
    </g>
   </g>
   <g id="line2d_45">
    <path d="M 29.53256 298.944 
L 29.53256 274.850628 
L 69.687988 274.850628 
L 69.687988 274.276976 
L 72.867545 274.276976 
L 72.867545 273.703324 
L 81.775977 273.703324 
L 81.775977 273.129673 
L 83.438118 273.129673 
L 83.438118 272.556021 
L 84.213325 272.556021 
L 84.213325 271.982369 
L 87.643811 271.982369 
L 87.643811 271.408718 
L 88.846997 271.408718 
L 88.846997 270.835066 
L 120.852343 270.835066 
L 120.852343 270.261414 
L 121.667835 270.261414 
L 121.667835 269.687762 
L 122.191052 269.687762 
L 122.191052 269.114111 
L 122.782271 269.114111 
L 122.782271 268.540459 
L 122.947573 268.540459 
L 122.947573 267.966807 
L 123.111324 267.966807 
L 123.111324 267.393156 
L 123.672636 267.393156 
L 123.672636 266.819504 
L 126.50685 266.819504 
L 126.50685 266.245852 
L 128.350967 266.245852 
L 128.350967 265.6722 
L 135.839358 265.6722 
L 135.839358 265.098549 
L 137.089613 265.098549 
L 137.089613 264.524897 
L 139.541262 264.524897 
L 139.541262 263.951245 
L 140.408758 263.951245 
L 140.408758 263.377593 
L 141.002999 263.377593 
L 141.002999 262.803942 
L 141.662245 262.803942 
L 141.662245 262.23029 
L 144.958609 262.23029 
L 144.958609 261.656638 
L 149.752971 261.656638 
L 149.752971 261.082987 
L 155.063706 261.082987 
L 155.063706 260.509335 
L 155.501643 260.509335 
L 155.501643 259.935683 
L 159.262876 259.935683 
L 159.262876 259.362031 
L 164.179597 259.362031 
L 164.179597 258.78838 
L 164.637547 258.78838 
L 164.637547 258.214728 
L 165.54035 258.214728 
L 165.54035 257.641076 
L 172.895172 257.641076 
L 172.895172 257.067425 
L 174.50306 257.067425 
L 174.50306 256.493773 
L 176.127822 256.493773 
L 176.127822 255.920121 
L 180.268521 255.920121 
L 180.268521 255.346469 
L 188.866177 255.346469 
L 188.866177 254.772818 
L 193.714758 254.772818 
L 193.714758 254.199166 
L 194.442979 254.199166 
L 194.442979 253.625514 
L 200.213915 253.625514 
L 200.213915 253.051863 
L 338.688 253.051863 
" style="fill:none;stroke:#6495ed;stroke-linecap:square;stroke-width:1.5;"/>
   </g>
   <g id="line2d_46">
    <defs>
     <path d="M -0 6 
L 6 -6 
L -6 -6 
z
" id="m210a5222ec" style="stroke:#6495ed;stroke-linejoin:miter;stroke-width:1.5;"/>
    </defs>
    <g>
     <use style="fill-opacity:0;stroke:#6495ed;stroke-linejoin:miter;stroke-width:1.5;" x="72.867545" xlink:href="#m210a5222ec" y="273.703324"/>
     <use style="fill-opacity:0;stroke:#6495ed;stroke-linejoin:miter;stroke-width:1.5;" x="149.752971" xlink:href="#m210a5222ec" y="261.082987"/>
     <use style="fill-opacity:0;stroke:#6495ed;stroke-linejoin:miter;stroke-width:1.5;" x="200.213915" xlink:href="#m210a5222ec" y="253.625514"/>
     <use style="fill-opacity:0;stroke:#6495ed;stroke-linejoin:miter;stroke-width:1.5;" x="200.213915" xlink:href="#m210a5222ec" y="253.051863"/>
     <use style="fill-opacity:0;stroke:#6495ed;stroke-linejoin:miter;stroke-width:1.5;" x="200.213915" xlink:href="#m210a5222ec" y="253.051863"/>
     <use style="fill-opacity:0;stroke:#6495ed;stroke-linejoin:miter;stroke-width:1.5;" x="338.688" xlink:href="#m210a5222ec" y="253.051863"/>
    </g>
   </g>
   <g id="line2d_47">
    <path style="fill:none;stroke:#6495ed;stroke-linecap:square;stroke-width:1.5;"/>
    <g/>
   </g>
   <g id="line2d_48">
    <path clip-path="url(#p699f49b11b)" d="M 124.669438 266.819504 
" style="fill:none;stroke:#6495ed;stroke-linecap:square;stroke-width:1.5;"/>
    <defs>
     <path d="M -12 12 
L 12 -12 
M -12 -12 
L 12 12 
" id="m327ef99649" style="stroke:#6495ed;"/>
    </defs>
    <g clip-path="url(#p699f49b11b)">
     <use style="fill:#6495ed;stroke:#6495ed;" x="124.669438" xlink:href="#m327ef99649" y="266.819504"/>
    </g>
   </g>
   <g id="line2d_49">
    <defs>
     <path d="M 0 1.5 
C 0.397805 1.5 0.77937 1.341951 1.06066 1.06066 
C 1.341951 0.77937 1.5 0.397805 1.5 0 
C 1.5 -0.397805 1.341951 -0.77937 1.06066 -1.06066 
C 0.77937 -1.341951 0.397805 -1.5 0 -1.5 
C -0.397805 -1.5 -0.77937 -1.341951 -1.06066 -1.06066 
C -1.341951 -0.77937 -1.5 -0.397805 -1.5 0 
C -1.5 0.397805 -1.341951 0.77937 -1.06066 1.06066 
C -0.77937 1.341951 -0.397805 1.5 0 1.5 
z
" id="m051f03a253" style="stroke:#ff0000;"/>
    </defs>
    <g>
     <use style="fill:#ff0000;stroke:#ff0000;" x="136.189322" xlink:href="#m051f03a253" y="281.734448"/>
     <use style="fill:#ff0000;stroke:#ff0000;" x="136.189322" xlink:href="#m051f03a253" y="281.734448"/>
    </g>
   </g>
   <g id="line2d_50">
    <path d="M 29.53256 298.944 
L 29.53256 292.633831 
L 82.626842 292.633831 
L 82.626842 292.060179 
L 85.66744 292.060179 
L 85.66744 291.486528 
L 87.009585 291.486528 
L 87.009585 290.912876 
L 89.418828 290.912876 
L 89.418828 289.765573 
L 92.026554 289.765573 
L 92.026554 289.191921 
L 92.969447 289.191921 
L 92.969447 288.618269 
L 94.294587 288.618269 
L 94.294587 288.044617 
L 105.285403 288.044617 
L 105.285403 287.470966 
L 110.358901 287.470966 
L 110.358901 286.897314 
L 115.33349 286.897314 
L 115.33349 286.323662 
L 115.835374 286.323662 
L 115.835374 285.75001 
L 116.914437 285.75001 
L 116.914437 285.176359 
L 123.029641 285.176359 
L 123.029641 284.602707 
L 127.674226 284.602707 
L 127.674226 284.029055 
L 130.182344 284.029055 
L 130.182344 282.881752 
L 133.352844 282.881752 
L 133.352844 282.3081 
L 136.189322 282.3081 
L 136.189322 281.734448 
L 338.688 281.734448 
" style="fill:none;stroke:#ff0000;stroke-linecap:square;stroke-width:1.5;"/>
   </g>
   <g id="line2d_51">
    <defs>
     <path d="M 0 -6 
L -5.196152 -3 
L -5.196152 3 
L -0 6 
L 5.196152 3 
L 5.196152 -3 
z
" id="m39f72a3d27" style="stroke:#ff0000;stroke-linejoin:miter;stroke-width:1.5;"/>
    </defs>
    <g>
     <use style="fill-opacity:0;stroke:#ff0000;stroke-linejoin:miter;stroke-width:1.5;" x="92.026554" xlink:href="#m39f72a3d27" y="289.191921"/>
     <use style="fill-opacity:0;stroke:#ff0000;stroke-linejoin:miter;stroke-width:1.5;" x="136.189322" xlink:href="#m39f72a3d27" y="282.3081"/>
     <use style="fill-opacity:0;stroke:#ff0000;stroke-linejoin:miter;stroke-width:1.5;" x="136.189322" xlink:href="#m39f72a3d27" y="281.734448"/>
     <use style="fill-opacity:0;stroke:#ff0000;stroke-linejoin:miter;stroke-width:1.5;" x="136.189322" xlink:href="#m39f72a3d27" y="281.734448"/>
     <use style="fill-opacity:0;stroke:#ff0000;stroke-linejoin:miter;stroke-width:1.5;" x="136.189322" xlink:href="#m39f72a3d27" y="281.734448"/>
     <use style="fill-opacity:0;stroke:#ff0000;stroke-linejoin:miter;stroke-width:1.5;" x="338.688" xlink:href="#m39f72a3d27" y="281.734448"/>
    </g>
   </g>
   <g id="line2d_52">
    <path style="fill:none;stroke:#ff0000;stroke-linecap:square;stroke-width:1.5;"/>
    <g/>
   </g>
   <g id="line2d_53">
    <path clip-path="url(#p699f49b11b)" d="M 137.558536 281.734448 
" style="fill:none;stroke:#ff0000;stroke-linecap:square;stroke-width:1.5;"/>
    <defs>
     <path d="M -12 12 
L 12 -12 
M -12 -12 
L 12 12 
" id="m4e0ec14a26" style="stroke:#ff0000;"/>
    </defs>
    <g clip-path="url(#p699f49b11b)">
     <use style="fill:#ff0000;stroke:#ff0000;" x="137.558536" xlink:href="#m4e0ec14a26" y="281.734448"/>
    </g>
   </g>
   <g id="line2d_54">
    <path d="M 338.688 281.734448 
L 369.60768 293.092752 
" style="fill:none;stroke:#ff0000;stroke-linecap:square;stroke-width:1.5;"/>
    <g>
     <use style="fill-opacity:0;stroke:#ff0000;stroke-linejoin:miter;stroke-width:1.5;" x="338.688" xlink:href="#m39f72a3d27" y="281.734448"/>
     <use style="fill-opacity:0;stroke:#ff0000;stroke-linejoin:miter;stroke-width:1.5;" x="369.60768" xlink:href="#m39f72a3d27" y="293.092752"/>
    </g>
   </g>
   <g id="line2d_55">
    <path d="M 338.688 253.051863 
L 369.60768 222.877782 
" style="fill:none;stroke:#6495ed;stroke-linecap:square;stroke-width:1.5;"/>
    <g>
     <use style="fill-opacity:0;stroke:#6495ed;stroke-linejoin:miter;stroke-width:1.5;" x="338.688" xlink:href="#m210a5222ec" y="253.051863"/>
     <use style="fill-opacity:0;stroke:#6495ed;stroke-linejoin:miter;stroke-width:1.5;" x="369.60768" xlink:href="#m210a5222ec" y="222.877782"/>
    </g>
   </g>
   <g id="line2d_56">
    <path d="M 338.688 241.578828 
L 369.60768 152.662812 
" style="fill:none;stroke:#000080;stroke-linecap:square;stroke-width:1.5;"/>
    <g>
     <use style="fill-opacity:0;stroke:#000080;stroke-width:1.5;" x="338.688" xlink:href="#m0b9023232c" y="241.578828"/>
     <use style="fill-opacity:0;stroke:#000080;stroke-width:1.5;" x="369.60768" xlink:href="#m0b9023232c" y="152.662812"/>
    </g>
   </g>
   <g id="line2d_57">
    <path d="M 338.688 149.794553 
L 369.60768 82.447842 
" style="fill:none;stroke:#ff7500;stroke-linecap:square;stroke-width:1.5;"/>
    <g>
     <use style="fill-opacity:0;stroke:#ff7500;stroke-linejoin:bevel;stroke-width:1.5;" x="338.688" xlink:href="#m778cdbcf33" y="149.794553"/>
     <use style="fill-opacity:0;stroke:#ff7500;stroke-linejoin:bevel;stroke-width:1.5;" x="369.60768" xlink:href="#m778cdbcf33" y="82.447842"/>
    </g>
   </g>
   <g id="line2d_58">
    <path d="M 338.688 6.381624 
L 369.60768 12.232871 
" style="fill:none;stroke:#ff00ff;stroke-linecap:square;stroke-width:1.5;"/>
    <g>
     <use style="fill-opacity:0;stroke:#ff00ff;stroke-linejoin:miter;stroke-width:1.5;" x="338.688" xlink:href="#mb84cbe8f00" y="6.381624"/>
     <use style="fill-opacity:0;stroke:#ff00ff;stroke-linejoin:miter;stroke-width:1.5;" x="369.60768" xlink:href="#mb84cbe8f00" y="12.232871"/>
    </g>
   </g>
   <g id="line2d_59">
    <path d="M 338.688 298.944 
L 338.688 6.381624 
" style="fill:none;stroke:#000000;stroke-linecap:square;stroke-width:1.5;"/>
   </g>
   <g id="patch_3">
    <path d="M 57.6 298.944 
L 57.6 3.456 
" style="fill:none;stroke:#000000;stroke-linecap:square;stroke-linejoin:miter;stroke-width:0.8;"/>
   </g>
   <g id="patch_4">
    <path d="M 338.688 298.944 
L 338.688 3.456 
" style="fill:none;stroke:#000000;stroke-linecap:square;stroke-linejoin:miter;stroke-width:0.8;"/>
   </g>
   <g id="patch_5">
    <path d="M 57.6 298.944 
L 338.688 298.944 
" style="fill:none;stroke:#000000;stroke-linecap:square;stroke-linejoin:miter;stroke-width:0.8;"/>
   </g>
   <g id="patch_6">
    <path d="M 57.6 3.456 
L 338.688 3.456 
" style="fill:none;stroke:#000000;stroke-linecap:square;stroke-linejoin:miter;stroke-width:0.8;"/>
   </g>
   <g id="text_13">
    <!-- f24 -->
    <g transform="translate(375.22944 297.78369)scale(0.17 -0.17)">
     <use xlink:href="#DejaVuSans-102"/>
     <use x="35.205078" xlink:href="#DejaVuSans-50"/>
     <use x="98.828125" xlink:href="#DejaVuSans-52"/>
    </g>
   </g>
   <g id="text_14">
    <!-- f23 -->
    <g transform="translate(375.22944 227.56872)scale(0.17 -0.17)">
     <defs>
      <path d="M 40.578125 39.3125 
Q 47.65625 37.796875 51.625 33 
Q 55.609375 28.21875 55.609375 21.1875 
Q 55.609375 10.40625 48.1875 4.484375 
Q 40.765625 -1.421875 27.09375 -1.421875 
Q 22.515625 -1.421875 17.65625 -0.515625 
Q 12.796875 0.390625 7.625 2.203125 
L 7.625 11.71875 
Q 11.71875 9.328125 16.59375 8.109375 
Q 21.484375 6.890625 26.8125 6.890625 
Q 36.078125 6.890625 40.9375 10.546875 
Q 45.796875 14.203125 45.796875 21.1875 
Q 45.796875 27.640625 41.28125 31.265625 
Q 36.765625 34.90625 28.71875 34.90625 
L 20.21875 34.90625 
L 20.21875 43.015625 
L 29.109375 43.015625 
Q 36.375 43.015625 40.234375 45.921875 
Q 44.09375 48.828125 44.09375 54.296875 
Q 44.09375 59.90625 40.109375 62.90625 
Q 36.140625 65.921875 28.71875 65.921875 
Q 24.65625 65.921875 20.015625 65.03125 
Q 15.375 64.15625 9.8125 62.3125 
L 9.8125 71.09375 
Q 15.4375 72.65625 20.34375 73.4375 
Q 25.25 74.21875 29.59375 74.21875 
Q 40.828125 74.21875 47.359375 69.109375 
Q 53.90625 64.015625 53.90625 55.328125 
Q 53.90625 49.265625 50.4375 45.09375 
Q 46.96875 40.921875 40.578125 39.3125 
z
" id="DejaVuSans-51"/>
     </defs>
     <use xlink:href="#DejaVuSans-102"/>
     <use x="35.205078" xlink:href="#DejaVuSans-50"/>
     <use x="98.828125" xlink:href="#DejaVuSans-51"/>
    </g>
   </g>
   <g id="text_15">
    <!-- f20 -->
    <g transform="translate(375.22944 157.353749)scale(0.17 -0.17)">
     <use xlink:href="#DejaVuSans-102"/>
     <use x="35.205078" xlink:href="#DejaVuSans-50"/>
     <use x="98.828125" xlink:href="#DejaVuSans-48"/>
    </g>
   </g>
   <g id="text_16">
    <!-- f22 -->
    <g transform="translate(375.22944 87.138779)scale(0.17 -0.17)">
     <use xlink:href="#DejaVuSans-102"/>
     <use x="35.205078" xlink:href="#DejaVuSans-50"/>
     <use x="98.828125" xlink:href="#DejaVuSans-50"/>
    </g>
   </g>
   <g id="text_17">
    <!-- f21 -->
    <g transform="translate(375.22944 16.923809)scale(0.17 -0.17)">
     <use xlink:href="#DejaVuSans-102"/>
     <use x="35.205078" xlink:href="#DejaVuSans-50"/>
     <use x="98.828125" xlink:href="#DejaVuSans-49"/>
    </g>
   </g>
   <g id="text_18">
    <!-- bbob -->
    <g transform="translate(60.41088 14.161286)scale(0.102 -0.102)">
     <defs>
      <path d="M 48.6875 27.296875 
Q 48.6875 37.203125 44.609375 42.84375 
Q 40.53125 48.484375 33.40625 48.484375 
Q 26.265625 48.484375 22.1875 42.84375 
Q 18.109375 37.203125 18.109375 27.296875 
Q 18.109375 17.390625 22.1875 11.75 
Q 26.265625 6.109375 33.40625 6.109375 
Q 40.53125 6.109375 44.609375 11.75 
Q 48.6875 17.390625 48.6875 27.296875 
z
M 18.109375 46.390625 
Q 20.953125 51.265625 25.265625 53.625 
Q 29.59375 56 35.59375 56 
Q 45.5625 56 51.78125 48.09375 
Q 58.015625 40.1875 58.015625 27.296875 
Q 58.015625 14.40625 51.78125 6.484375 
Q 45.5625 -1.421875 35.59375 -1.421875 
Q 29.59375 -1.421875 25.265625 0.953125 
Q 20.953125 3.328125 18.109375 8.203125 
L 18.109375 0 
L 9.078125 0 
L 9.078125 75.984375 
L 18.109375 75.984375 
z
" id="DejaVuSans-98"/>
     </defs>
     <use xlink:href="#DejaVuSans-98"/>
     <use x="63.476562" xlink:href="#DejaVuSans-98"/>
     <use x="126.953125" xlink:href="#DejaVuSans-111"/>
     <use x="188.134766" xlink:href="#DejaVuSans-98"/>
    </g>
    <!-- Weak structure functions, 5-D -->
    <g transform="translate(60.41088 25.583055)scale(0.102 -0.102)">
     <defs>
      <path d="M 3.328125 72.90625 
L 13.28125 72.90625 
L 28.609375 11.28125 
L 43.890625 72.90625 
L 54.984375 72.90625 
L 70.3125 11.28125 
L 85.59375 72.90625 
L 95.609375 72.90625 
L 77.296875 0 
L 64.890625 0 
L 49.515625 63.28125 
L 33.984375 0 
L 21.578125 0 
z
" id="DejaVuSans-87"/>
      <path d="M 9.078125 75.984375 
L 18.109375 75.984375 
L 18.109375 31.109375 
L 44.921875 54.6875 
L 56.390625 54.6875 
L 27.390625 29.109375 
L 57.625 0 
L 45.90625 0 
L 18.109375 26.703125 
L 18.109375 0 
L 9.078125 0 
z
" id="DejaVuSans-107"/>
      <path d="M 10.796875 72.90625 
L 49.515625 72.90625 
L 49.515625 64.59375 
L 19.828125 64.59375 
L 19.828125 46.734375 
Q 21.96875 47.46875 24.109375 47.828125 
Q 26.265625 48.1875 28.421875 48.1875 
Q 40.625 48.1875 47.75 41.5 
Q 54.890625 34.8125 54.890625 23.390625 
Q 54.890625 11.625 47.5625 5.09375 
Q 40.234375 -1.421875 26.90625 -1.421875 
Q 22.3125 -1.421875 17.546875 -0.640625 
Q 12.796875 0.140625 7.71875 1.703125 
L 7.71875 11.625 
Q 12.109375 9.234375 16.796875 8.0625 
Q 21.484375 6.890625 26.703125 6.890625 
Q 35.15625 6.890625 40.078125 11.328125 
Q 45.015625 15.765625 45.015625 23.390625 
Q 45.015625 31 40.078125 35.4375 
Q 35.15625 39.890625 26.703125 39.890625 
Q 22.75 39.890625 18.8125 39.015625 
Q 14.890625 38.140625 10.796875 36.28125 
z
" id="DejaVuSans-53"/>
      <path d="M 19.671875 64.796875 
L 19.671875 8.109375 
L 31.59375 8.109375 
Q 46.6875 8.109375 53.6875 14.9375 
Q 60.6875 21.78125 60.6875 36.53125 
Q 60.6875 51.171875 53.6875 57.984375 
Q 46.6875 64.796875 31.59375 64.796875 
z
M 9.8125 72.90625 
L 30.078125 72.90625 
Q 51.265625 72.90625 61.171875 64.09375 
Q 71.09375 55.28125 71.09375 36.53125 
Q 71.09375 17.671875 61.125 8.828125 
Q 51.171875 0 30.078125 0 
L 9.8125 0 
z
" id="DejaVuSans-68"/>
     </defs>
     <use xlink:href="#DejaVuSans-87"/>
     <use x="93.001953" xlink:href="#DejaVuSans-101"/>
     <use x="154.525391" xlink:href="#DejaVuSans-97"/>
     <use x="215.804688" xlink:href="#DejaVuSans-107"/>
     <use x="273.714844" xlink:href="#DejaVuSans-32"/>
     <use x="305.501953" xlink:href="#DejaVuSans-115"/>
     <use x="357.601562" xlink:href="#DejaVuSans-116"/>
     <use x="396.810547" xlink:href="#DejaVuSans-114"/>
     <use x="437.923828" xlink:href="#DejaVuSans-117"/>
     <use x="501.302734" xlink:href="#DejaVuSans-99"/>
     <use x="556.283203" xlink:href="#DejaVuSans-116"/>
     <use x="595.492188" xlink:href="#DejaVuSans-117"/>
     <use x="658.871094" xlink:href="#DejaVuSans-114"/>
     <use x="697.734375" xlink:href="#DejaVuSans-101"/>
     <use x="759.257812" xlink:href="#DejaVuSans-32"/>
     <use x="791.044922" xlink:href="#DejaVuSans-102"/>
     <use x="826.25" xlink:href="#DejaVuSans-117"/>
     <use x="889.628906" xlink:href="#DejaVuSans-110"/>
     <use x="953.007812" xlink:href="#DejaVuSans-99"/>
     <use x="1007.988281" xlink:href="#DejaVuSans-116"/>
     <use x="1047.197266" xlink:href="#DejaVuSans-105"/>
     <use x="1074.980469" xlink:href="#DejaVuSans-111"/>
     <use x="1136.162109" xlink:href="#DejaVuSans-110"/>
     <use x="1199.541016" xlink:href="#DejaVuSans-115"/>
     <use x="1251.640625" xlink:href="#DejaVuSans-44"/>
     <use x="1283.427734" xlink:href="#DejaVuSans-32"/>
     <use x="1315.214844" xlink:href="#DejaVuSans-53"/>
     <use x="1378.837891" xlink:href="#DejaVuSans-45"/>
     <use x="1414.921875" xlink:href="#DejaVuSans-68"/>
    </g>
    <!-- 51 targets: 100..1e-08 -->
    <g transform="translate(60.41088 37.004824)scale(0.102 -0.102)">
     <defs>
      <path d="M 11.71875 12.40625 
L 22.015625 12.40625 
L 22.015625 0 
L 11.71875 0 
z
M 11.71875 51.703125 
L 22.015625 51.703125 
L 22.015625 39.3125 
L 11.71875 39.3125 
z
" id="DejaVuSans-58"/>
     </defs>
     <use xlink:href="#DejaVuSans-53"/>
     <use x="63.623047" xlink:href="#DejaVuSans-49"/>
     <use x="127.246094" xlink:href="#DejaVuSans-32"/>
     <use x="159.033203" xlink:href="#DejaVuSans-116"/>
     <use x="198.242188" xlink:href="#DejaVuSans-97"/>
     <use x="259.521484" xlink:href="#DejaVuSans-114"/>
     <use x="298.884766" xlink:href="#DejaVuSans-103"/>
     <use x="362.361328" xlink:href="#DejaVuSans-101"/>
     <use x="423.884766" xlink:href="#DejaVuSans-116"/>
     <use x="463.09375" xlink:href="#DejaVuSans-115"/>
     <use x="515.193359" xlink:href="#DejaVuSans-58"/>
     <use x="548.884766" xlink:href="#DejaVuSans-32"/>
     <use x="580.671875" xlink:href="#DejaVuSans-49"/>
     <use x="644.294922" xlink:href="#DejaVuSans-48"/>
     <use x="707.917969" xlink:href="#DejaVuSans-48"/>
     <use x="771.541016" xlink:href="#DejaVuSans-46"/>
     <use x="803.328125" xlink:href="#DejaVuSans-46"/>
     <use x="835.115234" xlink:href="#DejaVuSans-49"/>
     <use x="898.738281" xlink:href="#DejaVuSans-101"/>
     <use x="960.261719" xlink:href="#DejaVuSans-45"/>
     <use x="996.345703" xlink:href="#DejaVuSans-48"/>
     <use x="1059.96875" xlink:href="#DejaVuSans-56"/>
    </g>
    <!-- 15 instances -->
    <g transform="translate(60.41088 48.426593)scale(0.102 -0.102)">
     <use xlink:href="#DejaVuSans-49"/>
     <use x="63.623047" xlink:href="#DejaVuSans-53"/>
     <use x="127.246094" xlink:href="#DejaVuSans-32"/>
     <use x="159.033203" xlink:href="#DejaVuSans-105"/>
     <use x="186.816406" xlink:href="#DejaVuSans-110"/>
     <use x="250.195312" xlink:href="#DejaVuSans-115"/>
     <use x="302.294922" xlink:href="#DejaVuSans-116"/>
     <use x="341.503906" xlink:href="#DejaVuSans-97"/>
     <use x="402.783203" xlink:href="#DejaVuSans-110"/>
     <use x="466.162109" xlink:href="#DejaVuSans-99"/>
     <use x="521.142578" xlink:href="#DejaVuSans-101"/>
     <use x="582.666016" xlink:href="#DejaVuSans-115"/>
    </g>
   </g>
   <g id="text_19">
    <!-- v2.4 -->
    <g style="fill:#808080;" transform="translate(187.233062 293.909432)scale(0.1 -0.1)">
     <use xlink:href="#DejaVuSans-118"/>
     <use x="59.179688" xlink:href="#DejaVuSans-50"/>
     <use x="122.802734" xlink:href="#DejaVuSans-46"/>
     <use x="154.589844" xlink:href="#DejaVuSans-52"/>
    </g>
   </g>
  </g>
 </g>
 <defs>
  <clipPath id="p699f49b11b">
   <rect height="295.488" width="281.088" x="57.6" y="3.456"/>
  </clipPath>
 </defs>
</svg>
